<?xml version='1.0' encoding='utf-8'?>
<svg xmlns="http://www.w3.org/2000/svg" xmlns:xlink="http://www.w3.org/1999/xlink" width="92.0" height="185.0" viewBox="0 0 92.0 185.0" fill="none">
  <defs><clipPath id="clip__asset"><rect x="0" y="0" width="92.0" height="185.0"/></clipPath><mask id="mask17_68_6728" style="mask-type:alpha" maskUnits="userSpaceOnUse" x="3107" y="293" width="48" height="48">
<path fill-rule="evenodd" clip-rule="evenodd" d="M3131 333C3139.84 333 3147 325.837 3147 317C3147 308.163 3139.84 301 3131 301C3122.16 301 3115 308.163 3115 317C3115 325.837 3122.16 333 3131 333ZM3131 329C3137.63 329 3143 323.627 3143 317C3143 310.373 3137.63 305 3131 305C3124.37 305 3119 310.373 3119 317C3119 323.627 3124.37 329 3131 329Z" fill="white" id="n207"/>
</mask>
<mask id="mask18_68_6728" style="mask-type:alpha" maskUnits="userSpaceOnUse" x="3093" y="279" width="76" height="76">
<path fill-rule="evenodd" clip-rule="evenodd" d="M3131 335C3140.94 335 3149 326.941 3149 317C3149 307.059 3140.94 299 3131 299C3121.06 299 3113 307.059 3113 317C3113 326.941 3121.06 335 3131 335ZM3131 329C3137.63 329 3143 323.627 3143 317C3143 310.373 3137.63 305 3131 305C3124.37 305 3119 310.373 3119 317C3119 323.627 3124.37 329 3131 329Z" fill="white" id="n210"/>
</mask>
</defs>
  <g clip-path="url(#clip__asset)" transform="translate(-3087.0 -200.0)"><path d="M3170.33 200V200.5H3175C3176.93 200.5 3178.5 202.067 3178.5 204V208.917H3179V213.833H3178.5V223.667H3179V228.583H3178.5V238.417H3179V243.333H3178.5V253.167H3179V258.083H3178.5V267.917H3179V272.833H3178.5V282.667H3179V287.583H3178.5V297.417H3179V302.333H3178.5V312.167H3179V317.083H3178.5V326.917H3179V331.833H3178.5V341.667H3179V346.583H3178.5V356.417H3179V361.333H3178.5V371.167H3179V376.083H3178.5V381C3178.5 382.933 3176.93 384.5 3175 384.5H3170.33V385H3165.67V384.5H3156.33V385H3151.67V384.5H3142.33V385H3137.67V384.5H3128.33V385H3123.67V384.5H3114.33V385H3109.67V384.5H3100.33V385H3095.67V384.5H3091C3089.07 384.5 3087.5 382.933 3087.5 381V376.083H3087V371.167H3087.5V361.333H3087V356.417H3087.5V346.583H3087V341.667H3087.5V331.833H3087V326.917H3087.5V317.083H3087V312.167H3087.5V302.333H3087V297.417H3087.5V287.583H3087V282.667H3087.5V272.833H3087V267.917H3087.5V258.083H3087V253.167H3087.5V243.333H3087V238.417H3087.5V228.583H3087V223.667H3087.5V213.833H3087V208.917H3087.5V204C3087.5 202.067 3089.07 200.5 3091 200.5H3095.67V200H3100.33V200.5H3109.67V200H3114.33V200.5H3123.67V200H3128.33V200.5H3137.67V200H3142.33V200.5H3151.67V200H3156.33V200.5H3165.67V200H3170.33Z" fill="#F7F7F7" id="n198"/>
<path d="M3130.59 221.57L3126.56 227.209C3126.33 227.54 3126.56 228 3126.97 228H3135.03C3135.44 228 3135.67 227.54 3135.44 227.209L3131.41 221.57C3131.21 221.29 3130.79 221.29 3130.59 221.57Z" fill="#BEBEBE" id="n200"/>
<circle cx="3131" cy="244" r="18" fill="white" stroke="#BEBEBE" id="n201"/>
<path d="M3123.23 234.807L3121.81 236.221L3133.83 248.242L3132.42 249.656L3139.49 252.485L3136.66 245.414L3135.25 246.828L3123.23 234.807Z" fill="#2D548B" id="n202"/>
<path d="M3127.47 230.565L3128.88 231.979L3124.64 236.221L3123.23 234.807L3127.47 230.565Z" fill="#2D548B" id="n203"/>
<path d="M3129.59 232.686L3131 234.1L3126.76 238.343L3125.35 236.929L3129.59 232.686Z" fill="#2D548B" id="n204"/>
<path d="M3129.59 236.929L3131 238.343L3128.88 240.464L3127.47 239.05L3129.59 236.929Z" fill="#2D548B" id="n205"/>
<circle cx="3131" cy="317" r="17.5" fill="white" stroke="#BEBEBE" id="n206"/>
<g mask="url(#mask17_68_6728)" id="n208">
<path d="M3131 293V317M3131 317L3119 296.215M3131 317L3110.22 305M3131 317H3107M3131 317L3110.22 329M3131 317L3119 337.785M3131 317V341M3131 317L3143 337.785M3131 317L3151.78 329M3131 317H3155M3131 317L3151.78 305M3131 317L3143 296.215" stroke="#BEBEBE" id="n209"/>
</g>
<g mask="url(#mask18_68_6728)" id="n211">
<path d="M3131 293V317M3131 317H3107M3131 317V341M3131 317H3155" stroke="#BEBEBE" id="n212"/>
</g>
<circle cx="3121" cy="299.679" r="2" transform="rotate(150 3121 299.679)" fill="#535353" id="n213"/>
<path d="M3140 332.588L3136 325.66" stroke="#535353" stroke-linecap="round" id="n214"/>
<path d="M3126 308.339L3122 301.411" stroke="#535353" stroke-linecap="round" id="n215"/>
<path d="M3143.14 330.293L3142.56 336.222C3142.53 336.563 3142.17 336.771 3141.86 336.629L3136.44 334.162C3137.65 333.775 3138.85 333.252 3140 332.588C3141.15 331.924 3142.2 331.152 3143.14 330.293Z" fill="#535353" id="n216"/>
<path d="M3129 321H3127.29V315.924C3127.29 315.78 3127.29 315.612 3127.29 315.42C3127.3 315.22 3127.3 315.016 3127.31 314.808C3127.32 314.6 3127.33 314.412 3127.34 314.244C3127.29 314.308 3127.2 314.4 3127.06 314.52C3126.93 314.64 3126.81 314.748 3126.7 314.844L3125.72 315.636L3124.88 314.58L3127.59 312.432H3129V321ZM3137.44 321H3131.49V319.788L3133.65 317.604C3134.08 317.156 3134.43 316.78 3134.7 316.476C3134.97 316.172 3135.16 315.896 3135.28 315.648C3135.41 315.392 3135.48 315.116 3135.48 314.82C3135.48 314.46 3135.38 314.192 3135.18 314.016C3134.98 313.84 3134.71 313.752 3134.37 313.752C3134.04 313.752 3133.71 313.828 3133.4 313.98C3133.09 314.132 3132.76 314.348 3132.42 314.628L3131.48 313.512C3131.73 313.296 3131.99 313.1 3132.26 312.924C3132.53 312.74 3132.85 312.592 3133.21 312.48C3133.57 312.368 3134 312.312 3134.49 312.312C3135.05 312.312 3135.53 312.412 3135.93 312.612C3136.33 312.812 3136.64 313.088 3136.86 313.44C3137.08 313.784 3137.19 314.18 3137.19 314.628C3137.19 314.98 3137.14 315.308 3137.02 315.612C3136.92 315.916 3136.76 316.212 3136.56 316.5C3136.36 316.78 3136.11 317.072 3135.81 317.376C3135.52 317.672 3135.2 317.996 3134.83 318.348L3133.64 319.464V319.536H3137.44V321Z" fill="#1F1F1F" id="n217"/>
</g>
</svg>
