<?xml version='1.0' encoding='utf-8'?>
<svg xmlns="http://www.w3.org/2000/svg" xmlns:xlink="http://www.w3.org/1999/xlink" width="544.0" height="1112.0" viewBox="0 0 544.0 1112.0" fill="none">
  <defs><clipPath id="clip__asset"><rect x="0" y="0" width="544.0" height="1112.0"/></clipPath><mask id="mask26_68_6728" style="mask-type:alpha" maskUnits="userSpaceOnUse" x="7446" y="216" width="512" height="512">
<path d="M7817.97 587.966C7833.19 572.737 7845.27 554.657 7853.52 534.76C7861.76 514.863 7866 493.537 7866 472H7702L7817.97 587.966Z" fill="white" stroke="#BEBEBE" id="n414"/>
</mask>
<mask id="path-328-inside-34_68_6728" fill="white">
<path d="M7873.86 476C7876.11 476 7877.92 477.847 7877.82 480.09C7875.89 522.594 7858.89 561.17 7832.04 590.598C7830.53 592.257 7827.94 592.283 7826.35 590.695C7824.82 589.158 7824.79 586.68 7826.25 585.073C7851.78 557.042 7867.94 520.341 7869.82 479.908C7869.92 477.736 7871.69 476 7873.86 476Z" id="n418"/>
</mask>
<mask id="mask27_68_6728" style="mask-type:luminance" maskUnits="userSpaceOnUse" x="7446" y="216" width="512" height="512">
<path d="M7702 280C7808.04 280 7894 365.961 7894 472C7894 578.039 7808.04 664 7702 664C7595.96 664 7510 578.039 7510 472C7510 365.961 7595.96 280 7702 280ZM7702 308C7611.43 308 7538 381.425 7538 472C7538 562.575 7611.43 636 7702 636C7792.57 636 7866 562.575 7866 472C7866 381.425 7792.57 308 7702 308Z" fill="white" id="n421"/>
<path d="M7702 280V280.5C7807.76 280.5 7893.5 366.237 7893.5 472H7894H7894.5C7894.5 365.685 7808.31 279.5 7702 279.5V280ZM7894 472H7893.5C7893.5 577.763 7807.76 663.5 7702 663.5V664V664.5C7808.31 664.5 7894.5 578.315 7894.5 472H7894ZM7702 664V663.5C7596.24 663.5 7510.5 577.763 7510.5 472H7510H7509.5C7509.5 578.315 7595.69 664.5 7702 664.5V664ZM7510 472H7510.5C7510.5 366.237 7596.24 280.5 7702 280.5V280V279.5C7595.69 279.5 7509.5 365.685 7509.5 472H7510ZM7702 308V307.5C7611.15 307.5 7537.5 381.149 7537.5 472H7538H7538.5C7538.5 381.701 7611.7 308.5 7702 308.5V308ZM7538 472H7537.5C7537.5 562.851 7611.15 636.5 7702 636.5V636V635.5C7611.7 635.5 7538.5 562.299 7538.5 472H7538ZM7702 636V636.5C7792.85 636.5 7866.5 562.851 7866.5 472H7866H7865.5C7865.5 562.299 7792.3 635.5 7702 635.5V636ZM7866 472H7866.5C7866.5 381.149 7792.85 307.5 7702 307.5V308V308.5C7792.3 308.5 7865.5 381.701 7865.5 472H7866Z" fill="black" id="n422"/>
</mask>
<mask id="mask28_68_6728" style="mask-type:alpha" maskUnits="userSpaceOnUse" x="7446" y="216" width="512" height="512">
<circle cx="7702" cy="472" r="164" fill="white" stroke="black" id="n425"/>
</mask>
<mask id="path-336-inside-35_68_6728" fill="white">
<path d="M7788.01 323.022C7789.12 321.108 7791.57 320.449 7793.46 321.599C7817.5 336.25 7837.75 356.502 7852.4 380.542C7853.55 382.43 7852.89 384.882 7850.98 385.987C7849.06 387.091 7846.62 386.434 7845.47 384.55C7831.53 361.717 7812.28 342.473 7789.45 328.526C7787.56 327.375 7786.91 324.934 7788.01 323.022Z" id="n429"/>
</mask>
<mask id="path-338-inside-36_68_6728" fill="white">
<path d="M7886.5 1040C7886.5 1041.38 7885.38 1042.5 7884 1042.5H7872C7870.62 1042.5 7869.5 1041.38 7869.5 1040C7869.5 1038.62 7870.62 1037.5 7872 1037.5H7884C7885.38 1037.5 7886.5 1038.62 7886.5 1040Z" id="n432"/>
</mask>
<mask id="mask29_68_6728" style="mask-type:alpha" maskUnits="userSpaceOnUse" x="7345" y="683" width="714" height="714">
<circle cx="7702" cy="1040" r="164" transform="rotate(35 7702 1040)" fill="white" stroke="black" id="n435"/>
</mask>
<mask id="path-342-inside-37_68_6728" fill="white">
<path d="M7807.83 888.866C7811.67 891.558 7812.61 896.858 7809.91 900.704C7807.22 904.549 7801.92 905.484 7798.07 902.791C7794.23 900.099 7793.29 894.798 7795.99 890.953C7798.68 887.108 7803.98 886.173 7807.83 888.866Z" id="n438"/>
</mask>
<clipPath id="clip38_68_6728">
<rect x="7430" y="200" width="544" height="1112" rx="5" fill="white" id="n2051"/>
</clipPath>
<pattern id="pattern11_68_6728" patternUnits="userSpaceOnUse" patternTransform="matrix(8 0 0 16 252 252)" preserveAspectRatio="none" viewBox="0 0 16 32" width="1" height="1">
<use xlink:href="#pattern11_68_6728_inner" transform="translate(-16 0)" id="n2210"/>
<g id="pattern11_68_6728_inner">
<rect x="6" y="6" width="4" height="4" fill="#BEBEBE" id="n2211"/>
</g>
<use xlink:href="#pattern11_68_6728_inner" transform="translate(-8 16)" id="n2212"/>
<use xlink:href="#pattern11_68_6728_inner" transform="translate(8 16)" id="n2213"/>
</pattern><g id="pattern11_68_6728_inner">
<rect x="6" y="6" width="4" height="4" fill="#BEBEBE" id="n2211"/>
</g>
</defs>
  <g clip-path="url(#clip__asset)" transform="translate(-7430.0 -200.0)"><g clip-path="url(#clip38_68_6728)" id="n412">
<rect x="7430" y="200" width="544" height="1112" rx="5" fill="#F0F0F0" id="n413"/>
<mask id="mask26_68_6728" style="mask-type:alpha" maskUnits="userSpaceOnUse" x="7446" y="216" width="512" height="512">
<path d="M7817.97 587.966C7833.19 572.737 7845.27 554.657 7853.52 534.76C7861.76 514.863 7866 493.537 7866 472H7702L7817.97 587.966Z" fill="white" stroke="#BEBEBE" id="n414"/>
</mask>
<g mask="url(#mask26_68_6728)" id="n415">
<rect width="512" height="512" transform="translate(7446 216)" fill="url(#pattern11_68_6728)" id="n416"/>
<path d="M7883.02 653.019C7906.79 629.248 7925.65 601.026 7938.51 569.967C7951.38 538.908 7958 505.618 7958 472H7702L7883.02 653.019Z" stroke="#BEBEBE" id="n417"/>
</g>
<mask id="path-328-inside-34_68_6728" fill="white">
<path d="M7873.86 476C7876.11 476 7877.92 477.847 7877.82 480.09C7875.89 522.594 7858.89 561.17 7832.04 590.598C7830.53 592.257 7827.94 592.283 7826.35 590.695C7824.82 589.158 7824.79 586.68 7826.25 585.073C7851.78 557.042 7867.94 520.341 7869.82 479.908C7869.92 477.736 7871.69 476 7873.86 476Z" id="n418"/>
</mask>
<path d="M7873.86 476C7876.11 476 7877.92 477.847 7877.82 480.09C7875.89 522.594 7858.89 561.17 7832.04 590.598C7830.53 592.257 7827.94 592.283 7826.35 590.695C7824.82 589.158 7824.79 586.68 7826.25 585.073C7851.78 557.042 7867.94 520.341 7869.82 479.908C7869.92 477.736 7871.69 476 7873.86 476Z" fill="#BEBEBE" id="n419"/>
<path d="M7869.82 479.908L7868.82 479.861L7869.82 479.908ZM7826.35 590.695L7825.65 591.402L7826.35 590.695ZM7832.04 590.598L7831.3 589.924L7832.04 590.598ZM7877.82 480.09L7878.81 480.136L7877.82 480.09ZM7877.82 480.09L7876.82 480.045C7874.9 522.307 7858 560.662 7831.3 589.924L7832.04 590.598L7832.78 591.272C7859.79 561.678 7876.88 522.882 7878.81 480.136L7877.82 480.09ZM7826.25 585.073L7826.99 585.746C7852.67 557.549 7868.93 520.629 7870.81 479.954L7869.82 479.908L7868.82 479.861C7866.95 520.054 7850.89 556.535 7825.51 584.4L7826.25 585.073ZM7869.82 479.908L7870.81 479.954C7870.89 478.301 7872.24 477 7873.86 477V476V475C7871.14 475 7868.94 477.171 7868.82 479.861L7869.82 479.908ZM7826.35 590.695L7827.06 589.988C7825.91 588.839 7825.88 586.969 7826.99 585.746L7826.25 585.073L7825.51 584.4C7823.7 586.39 7823.72 589.477 7825.65 591.402L7826.35 590.695ZM7832.04 590.598L7831.3 589.924C7830.18 591.15 7828.25 591.184 7827.06 589.988L7826.35 590.695L7825.65 591.402C7827.63 593.382 7830.87 593.364 7832.78 591.272L7832.04 590.598ZM7877.82 480.09L7878.81 480.136C7878.94 477.308 7876.66 475 7873.86 475V476V477C7875.55 477 7876.89 478.387 7876.82 480.045L7877.82 480.09Z" fill="#BEBEBE" mask="url(#path-328-inside-34_68_6728)" id="n420"/>
<mask id="mask27_68_6728" style="mask-type:luminance" maskUnits="userSpaceOnUse" x="7446" y="216" width="512" height="512">
<path d="M7702 280C7808.04 280 7894 365.961 7894 472C7894 578.039 7808.04 664 7702 664C7595.96 664 7510 578.039 7510 472C7510 365.961 7595.96 280 7702 280ZM7702 308C7611.43 308 7538 381.425 7538 472C7538 562.575 7611.43 636 7702 636C7792.57 636 7866 562.575 7866 472C7866 381.425 7792.57 308 7702 308Z" fill="white" id="n421"/>
<path d="M7702 280V280.5C7807.76 280.5 7893.5 366.237 7893.5 472H7894H7894.5C7894.5 365.685 7808.31 279.5 7702 279.5V280ZM7894 472H7893.5C7893.5 577.763 7807.76 663.5 7702 663.5V664V664.5C7808.31 664.5 7894.5 578.315 7894.5 472H7894ZM7702 664V663.5C7596.24 663.5 7510.5 577.763 7510.5 472H7510H7509.5C7509.5 578.315 7595.69 664.5 7702 664.5V664ZM7510 472H7510.5C7510.5 366.237 7596.24 280.5 7702 280.5V280V279.5C7595.69 279.5 7509.5 365.685 7509.5 472H7510ZM7702 308V307.5C7611.15 307.5 7537.5 381.149 7537.5 472H7538H7538.5C7538.5 381.701 7611.7 308.5 7702 308.5V308ZM7538 472H7537.5C7537.5 562.851 7611.15 636.5 7702 636.5V636V635.5C7611.7 635.5 7538.5 562.299 7538.5 472H7538ZM7702 636V636.5C7792.85 636.5 7866.5 562.851 7866.5 472H7866H7865.5C7865.5 562.299 7792.3 635.5 7702 635.5V636ZM7866 472H7866.5C7866.5 381.149 7792.85 307.5 7702 307.5V308V308.5C7792.3 308.5 7865.5 381.701 7865.5 472H7866Z" fill="black" id="n422"/>
</mask>
<g mask="url(#mask27_68_6728)" id="n423">
<path d="M7883.02 653.019C7906.79 629.248 7925.65 601.026 7938.51 569.967C7951.38 538.908 7958 505.618 7958 472H7702L7883.02 653.019Z" stroke="#BEBEBE" id="n424"/>
</g>
<mask id="mask28_68_6728" style="mask-type:alpha" maskUnits="userSpaceOnUse" x="7446" y="216" width="512" height="512">
<circle cx="7702" cy="472" r="164" fill="white" stroke="black" id="n425"/>
</mask>
<g mask="url(#mask28_68_6728)" id="n426">
<path d="M7923.7 344C7901.23 305.083 7868.92 272.766 7830 250.297L7702 472L7923.7 344Z" stroke="white" id="n427"/>
<path d="M7923.7 344C7901.23 305.083 7868.92 272.766 7830 250.297L7702 472L7923.7 344Z" stroke="#2D548B" stroke-dasharray="1 2" id="n428"/>
</g>
<mask id="path-336-inside-35_68_6728" fill="white">
<path d="M7788.01 323.022C7789.12 321.108 7791.57 320.449 7793.46 321.599C7817.5 336.25 7837.75 356.502 7852.4 380.542C7853.55 382.43 7852.89 384.882 7850.98 385.987C7849.06 387.091 7846.62 386.434 7845.47 384.55C7831.53 361.717 7812.28 342.473 7789.45 328.526C7787.56 327.375 7786.91 324.934 7788.01 323.022Z" id="n429"/>
</mask>
<path d="M7788.01 323.022C7789.12 321.108 7791.57 320.449 7793.46 321.599C7817.5 336.25 7837.75 356.502 7852.4 380.542C7853.55 382.43 7852.89 384.882 7850.98 385.987C7849.06 387.091 7846.62 386.434 7845.47 384.55C7831.53 361.717 7812.28 342.473 7789.45 328.526C7787.56 327.375 7786.91 324.934 7788.01 323.022Z" fill="#2D548B" id="n430"/>
<path d="M7789.45 328.526L7788.93 329.379L7789.45 328.526ZM7850.98 385.987L7851.48 386.853L7850.98 385.987ZM7852.4 380.542L7851.54 381.063L7852.4 380.542ZM7793.46 321.599L7792.94 322.453C7816.84 337.021 7836.98 357.158 7851.54 381.063L7852.4 380.542L7853.25 380.022C7838.52 355.845 7818.15 335.479 7793.98 320.745L7793.46 321.599ZM7845.47 384.55L7846.33 384.029C7832.3 361.06 7812.94 341.702 7789.97 327.673L7789.45 328.526L7788.93 329.379C7811.62 343.243 7830.75 362.374 7844.62 385.071L7845.47 384.55ZM7789.45 328.526L7789.97 327.673C7788.53 326.797 7788.05 324.951 7788.88 323.522L7788.01 323.022L7787.14 322.522C7785.76 324.918 7786.59 327.954 7788.93 329.379L7789.45 328.526ZM7850.98 385.987L7850.48 385.121C7849.05 385.946 7847.2 385.463 7846.33 384.029L7845.47 384.55L7844.62 385.071C7846.04 387.405 7849.08 388.236 7851.48 386.853L7850.98 385.987ZM7852.4 380.542L7851.54 381.063C7852.4 382.458 7851.92 384.289 7850.48 385.121L7850.98 385.987L7851.48 386.853C7853.86 385.475 7854.7 382.402 7853.25 380.022L7852.4 380.542ZM7793.46 321.599L7793.98 320.745C7791.6 319.295 7788.52 320.134 7787.14 322.522L7788.01 323.022L7788.88 323.522C7789.71 322.081 7791.54 321.603 7792.94 322.453L7793.46 321.599Z" fill="#2D548B" mask="url(#path-336-inside-35_68_6728)" id="n431"/>
<mask id="path-338-inside-36_68_6728" fill="white">
<path d="M7886.5 1040C7886.5 1041.38 7885.38 1042.5 7884 1042.5H7872C7870.62 1042.5 7869.5 1041.38 7869.5 1040C7869.5 1038.62 7870.62 1037.5 7872 1037.5H7884C7885.38 1037.5 7886.5 1038.62 7886.5 1040Z" id="n432"/>
</mask>
<path d="M7886.5 1040C7886.5 1041.38 7885.38 1042.5 7884 1042.5H7872C7870.62 1042.5 7869.5 1041.38 7869.5 1040C7869.5 1038.62 7870.62 1037.5 7872 1037.5H7884C7885.38 1037.5 7886.5 1038.62 7886.5 1040Z" fill="#BEBEBE" id="n433"/>
<path d="M7884 1037.5V1036.5V1037.5ZM7886.5 1040H7885.5C7885.5 1040.83 7884.83 1041.5 7884 1041.5V1042.5V1043.5C7885.93 1043.5 7887.5 1041.93 7887.5 1040H7886.5ZM7884 1042.5V1041.5H7872V1042.5V1043.5H7884V1042.5ZM7872 1042.5V1041.5C7871.17 1041.5 7870.5 1040.83 7870.5 1040H7869.5H7868.5C7868.5 1041.93 7870.07 1043.5 7872 1043.5V1042.5ZM7869.5 1040H7870.5C7870.5 1039.17 7871.17 1038.5 7872 1038.5V1037.5V1036.5C7870.07 1036.5 7868.5 1038.07 7868.5 1040H7869.5ZM7872 1037.5V1038.5H7884V1037.5V1036.5H7872V1037.5ZM7884 1037.5V1038.5C7884.83 1038.5 7885.5 1039.17 7885.5 1040H7886.5H7887.5C7887.5 1038.07 7885.93 1036.5 7884 1036.5V1037.5Z" fill="#BEBEBE" mask="url(#path-338-inside-36_68_6728)" id="n434"/>
<mask id="mask29_68_6728" style="mask-type:alpha" maskUnits="userSpaceOnUse" x="7345" y="683" width="714" height="714">
<circle cx="7702" cy="1040" r="164" transform="rotate(35 7702 1040)" fill="white" stroke="black" id="n435"/>
</mask>
<g mask="url(#mask29_68_6728)" id="n436">
<path d="M7702 1040L7848.84 830.297" stroke="#BEBEBE" stroke-linecap="square" stroke-dasharray="1 1" id="n437"/>
</g>
<mask id="path-342-inside-37_68_6728" fill="white">
<path d="M7807.83 888.866C7811.67 891.558 7812.61 896.858 7809.91 900.704C7807.22 904.549 7801.92 905.484 7798.07 902.791C7794.23 900.099 7793.29 894.798 7795.99 890.953C7798.68 887.108 7803.98 886.173 7807.83 888.866Z" id="n438"/>
</mask>
<path d="M7807.83 888.866C7811.67 891.558 7812.61 896.858 7809.91 900.704C7807.22 904.549 7801.92 905.484 7798.07 902.791C7794.23 900.099 7793.29 894.798 7795.99 890.953C7798.68 887.108 7803.98 886.173 7807.83 888.866Z" fill="#CADEFC" id="n439"/>
<path d="M7807.83 888.866L7807.25 889.685C7810.64 892.061 7811.47 896.737 7809.09 900.13L7809.91 900.704L7810.73 901.277C7813.74 896.98 7812.7 891.056 7808.4 888.046L7807.83 888.866ZM7809.91 900.704L7809.09 900.13C7806.72 903.523 7802.04 904.348 7798.65 901.972L7798.07 902.791L7797.5 903.61C7801.8 906.62 7807.72 905.575 7810.73 901.277L7809.91 900.704ZM7798.07 902.791L7798.65 901.972C7795.25 899.596 7794.43 894.92 7796.81 891.527L7795.99 890.953L7795.17 890.379C7792.16 894.677 7793.2 900.601 7797.5 903.61L7798.07 902.791ZM7795.99 890.953L7796.81 891.527C7799.18 888.134 7803.86 887.309 7807.25 889.685L7807.83 888.866L7808.4 888.046C7804.1 885.037 7798.18 886.082 7795.17 890.379L7795.99 890.953Z" fill="#2D548B" mask="url(#path-342-inside-37_68_6728)" id="n440"/>
</g>
</g>
</svg>
