<?xml version='1.0' encoding='utf-8'?>
<svg xmlns="http://www.w3.org/2000/svg" xmlns:xlink="http://www.w3.org/1999/xlink" width="384.0" height="384.0" viewBox="0 0 384.0 384.0" fill="none">
  <defs><clipPath id="clip__asset"><rect x="0" y="0" width="384.0" height="384.0"/></clipPath><mask id="mask72_68_6728" style="mask-type:luminance" maskUnits="userSpaceOnUse" x="8880" y="504" width="512" height="512">
<path fill-rule="evenodd" clip-rule="evenodd" d="M9136 572C9239.83 572 9324 656.17 9324 760C9324 863.83 9239.83 948 9136 948C9032.17 948 8948 863.83 8948 760C8948 656.17 9032.17 572 9136 572ZM9136 596C9045.43 596 8972 669.425 8972 760C8972 850.575 9045.43 924 9136 924C9226.57 924 9300 850.575 9300 760C9300 669.425 9226.57 596 9136 596Z" fill="white" stroke="black" id="n705"/>
</mask>
<mask id="mask73_68_6728" style="mask-type:alpha" maskUnits="userSpaceOnUse" x="8880" y="504" width="512" height="512">
<path d="M9136 568C9242.04 568 9328 653.961 9328 760C9328 866.039 9242.04 952 9136 952C9029.96 952 8944 866.039 8944 760C8944 653.961 9029.96 568 9136 568ZM9136 592C9043.22 592 8968 667.216 8968 760C8968 852.784 9043.22 928 9136 928C9228.78 928 9304 852.784 9304 760C9304 667.216 9228.78 592 9136 592Z" fill="black" id="n707"/>
</mask>
<mask id="mask74_68_6728" style="mask-type:alpha" maskUnits="userSpaceOnUse" x="8880" y="504" width="512" height="512">
<path d="M9136 568C9242.04 568 9328 653.961 9328 760C9328 866.039 9242.04 952 9136 952C9029.96 952 8944 866.039 8944 760C8944 653.961 9029.96 568 9136 568ZM9136 596C9045.43 596 8972 669.425 8972 760C8972 850.575 9045.43 924 9136 924C9226.57 924 9300 850.575 9300 760C9300 669.425 9226.57 596 9136 596Z" fill="black" id="n710"/>
</mask>
<mask id="mask75_68_6728" style="mask-type:alpha" maskUnits="userSpaceOnUse" x="9077" y="619" width="118" height="282">
<rect x="9076.57" y="630.982" width="48" height="280" rx="8" transform="rotate(-15 9076.57 630.982)" fill="white" stroke="black" id="n718"/>
</mask>
</defs>
  <g clip-path="url(#clip__asset)" transform="translate(-8944.0 -568.0)"><path fill-rule="evenodd" clip-rule="evenodd" d="M9136 572C9239.83 572 9324 656.17 9324 760C9324 863.83 9239.83 948 9136 948C9032.17 948 8948 863.83 8948 760C8948 656.17 9032.17 572 9136 572ZM9136 596C9045.43 596 8972 669.425 8972 760C8972 850.575 9045.43 924 9136 924C9226.57 924 9300 850.575 9300 760C9300 669.425 9226.57 596 9136 596Z" fill="white" stroke="white" id="n703"/>
<path fill-rule="evenodd" clip-rule="evenodd" d="M9136 572C9239.83 572 9324 656.17 9324 760C9324 863.83 9239.83 948 9136 948C9032.17 948 8948 863.83 8948 760C8948 656.17 9032.17 572 9136 572ZM9136 596C9045.43 596 8972 669.425 8972 760C8972 850.575 9045.43 924 9136 924C9226.57 924 9300 850.575 9300 760C9300 669.425 9226.57 596 9136 596Z" stroke="#BEBEBE" id="n704"/>
<g mask="url(#mask72_68_6728)" id="n706">
<mask id="mask73_68_6728" style="mask-type:alpha" maskUnits="userSpaceOnUse" x="8880" y="504" width="512" height="512">
<path d="M9136 568C9242.04 568 9328 653.961 9328 760C9328 866.039 9242.04 952 9136 952C9029.96 952 8944 866.039 8944 760C8944 653.961 9029.96 568 9136 568ZM9136 592C9043.22 592 8968 667.216 8968 760C8968 852.784 9043.22 928 9136 928C9228.78 928 9304 852.784 9304 760C9304 667.216 9228.78 592 9136 592Z" fill="black" id="n707"/>
</mask>
<g mask="url(#mask73_68_6728)" id="n708">
<path d="M9136 560V760M9136 760H8936M9136 760V960M9136 760H9336" stroke="#BEBEBE" id="n709"/>
</g>
<mask id="mask74_68_6728" style="mask-type:alpha" maskUnits="userSpaceOnUse" x="8880" y="504" width="512" height="512">
<path d="M9136 568C9242.04 568 9328 653.961 9328 760C9328 866.039 9242.04 952 9136 952C9029.96 952 8944 866.039 8944 760C8944 653.961 9029.96 568 9136 568ZM9136 596C9045.43 596 8972 669.425 8972 760C8972 850.575 9045.43 924 9136 924C9226.57 924 9300 850.575 9300 760C9300 669.425 9226.57 596 9136 596Z" fill="black" id="n710"/>
</mask>
<g mask="url(#mask74_68_6728)" id="n711">
<path d="M9136 560V760" stroke="#BEBEBE" id="n712"/>
</g>
<rect x="9132" y="572" width="8" height="24" fill="#BEBEBE" id="n713"/>
</g>
<path d="M9206.75 643.923C9215.07 678.006 9206.64 714.016 9184.05 740.86L9084.72 858.89C9083.13 860.787 9080.4 861.266 9078.25 860.026C9076.1 858.786 9075.15 856.184 9076 853.852L9128.55 708.816C9140.5 675.83 9167.47 650.524 9201.15 640.693C9203.6 639.979 9206.14 641.449 9206.75 643.923Z" fill="white" stroke="#8E8E8E" id="n714"/>
<path d="M9222.72 640.763L9216.57 623.07C9216.24 622.132 9215.28 621.575 9214.3 621.762L9195.91 625.284C9194.53 625.547 9194.26 627.357 9195.48 628.066L9220.52 642.52C9221.75 643.23 9223.18 642.087 9222.72 640.763Z" fill="#535353" id="n715"/>
<rect x="9076.57" y="630.982" width="48" height="280" rx="8" transform="rotate(-15 9076.57 630.982)" fill="#F0F0F0" stroke="#BEBEBE" id="n716"/>
<path d="M9094.8 605.003L9113.33 614.116C9113.81 614.35 9114.16 614.78 9114.3 615.294C9114.66 616.654 9113.43 617.905 9112.07 617.562L9096.8 613.732L9085.52 624.768C9084.51 625.752 9082.81 625.287 9082.45 623.927C9082.31 623.417 9082.4 622.872 9082.69 622.432L9094.16 605.175L9094.41 604.81L9094.8 605.003Z" fill="#2D548B" stroke="#F7F7F7" id="n717"/>
<g mask="url(#mask75_68_6728)" id="n719">
<rect opacity="0.15" x="9076.57" y="630.982" width="48" height="125" transform="rotate(-15 9076.57 630.982)" fill="#2D548B" stroke="#2D548B" id="n720"/>
<rect x="9076.57" y="630.982" width="48" height="87" transform="rotate(-15 9076.57 630.982)" fill="#2D548B" stroke="#2D548B" id="n721"/>
</g>
<path d="M9240.07 599.185C9239.97 600.187 9239.37 601.197 9238.32 601.713L9225.77 607.83C9224.5 608.451 9223 607.586 9222.9 606.172L9221.92 592.247C9221.84 591.074 9222.42 590.055 9223.24 589.466C9224.05 588.877 9225.22 588.654 9226.27 589.259L9238.73 596.456C9239.78 597.061 9240.17 598.182 9240.07 599.185Z" fill="#2D548B" stroke="white" stroke-width="2" stroke-linejoin="round" id="n722"/>
</g>
</svg>
