<?xml version='1.0' encoding='utf-8'?>
<svg xmlns="http://www.w3.org/2000/svg" xmlns:xlink="http://www.w3.org/1999/xlink" width="201.0" height="155.0" viewBox="0 0 201.0 155.0" fill="none">
  <defs>
    <clipPath id="clip__asset">
      <rect x="0" y="0" width="201.0" height="155.0"/>
    </clipPath>
  </defs>
  <g clip-path="url(#clip__asset)" transform="translate(-17052.0 -411.0)"><rect x="17052" y="411" width="201" height="155" fill="#EDEDED" id="n2826"/>
<rect x="17052" y="411" width="201" height="155" stroke="black" stroke-opacity="0.32" id="n2827"/>
<path d="M17222.6 419.5H17235.4C17237.1 419.5 17238.3 419.5 17239.3 419.58C17240.3 419.659 17240.9 419.815 17241.5 420.1C17242.5 420.627 17243.4 421.468 17243.9 422.503C17244.2 423.062 17244.3 423.731 17244.4 424.7C17244.5 425.676 17244.5 426.912 17244.5 428.6V441.4C17244.5 443.088 17244.5 444.324 17244.4 445.3C17244.3 446.269 17244.2 446.938 17243.9 447.497C17243.4 448.532 17242.5 449.373 17241.5 449.9C17240.9 450.185 17240.3 450.341 17239.3 450.42C17238.3 450.5 17237.1 450.5 17235.4 450.5H17222.6C17220.9 450.5 17219.7 450.5 17218.7 450.42C17217.7 450.341 17217.1 450.185 17216.5 449.9C17215.5 449.373 17214.6 448.532 17214.1 447.497C17213.8 446.938 17213.7 446.269 17213.6 445.3C17213.5 444.324 17213.5 443.088 17213.5 441.4V428.6C17213.5 426.912 17213.5 425.676 17213.6 424.7C17213.7 423.731 17213.8 423.062 17214.1 422.503C17214.6 421.468 17215.5 420.627 17216.5 420.1C17217.1 419.815 17217.7 419.659 17218.7 419.58C17219.7 419.5 17220.9 419.5 17222.6 419.5Z" fill="#E4EEFD" id="n2828"/>
<path d="M17222.6 419.5H17235.4C17237.1 419.5 17238.3 419.5 17239.3 419.58C17240.3 419.659 17240.9 419.815 17241.5 420.1C17242.5 420.627 17243.4 421.468 17243.9 422.503C17244.2 423.062 17244.3 423.731 17244.4 424.7C17244.5 425.676 17244.5 426.912 17244.5 428.6V441.4C17244.5 443.088 17244.5 444.324 17244.4 445.3C17244.3 446.269 17244.2 446.938 17243.9 447.497C17243.4 448.532 17242.5 449.373 17241.5 449.9C17240.9 450.185 17240.3 450.341 17239.3 450.42C17238.3 450.5 17237.1 450.5 17235.4 450.5H17222.6C17220.9 450.5 17219.7 450.5 17218.7 450.42C17217.7 450.341 17217.1 450.185 17216.5 449.9C17215.5 449.373 17214.6 448.532 17214.1 447.497C17213.8 446.938 17213.7 446.269 17213.6 445.3C17213.5 444.324 17213.5 443.088 17213.5 441.4V428.6C17213.5 426.912 17213.5 425.676 17213.6 424.7C17213.7 423.731 17213.8 423.062 17214.1 422.503C17214.6 421.468 17215.5 420.627 17216.5 420.1C17217.1 419.815 17217.7 419.659 17218.7 419.58C17219.7 419.5 17220.9 419.5 17222.6 419.5Z" stroke="#B2CFF9" id="n2829"/>
<path d="M17228 432.152C17228 432.675 17227.9 433.128 17227.7 433.512C17227.5 433.885 17227.2 434.195 17226.8 434.44C17226.4 434.685 17226 434.867 17225.5 434.984V435.032C17226.5 435.139 17227.2 435.421 17227.6 435.88C17228.1 436.328 17228.3 436.931 17228.3 437.688C17228.3 438.349 17228.2 438.941 17227.8 439.464C17227.5 439.987 17227 440.403 17226.3 440.712C17225.7 441.011 17224.8 441.16 17223.7 441.16C17223.1 441.16 17222.5 441.107 17222 441C17221.5 440.893 17220.9 440.739 17220.5 440.536V438.568C17221 438.813 17221.5 439 17222 439.128C17222.5 439.256 17223.1 439.32 17223.5 439.32C17224.4 439.32 17225 439.165 17225.4 438.856C17225.7 438.547 17225.9 438.109 17225.9 437.544C17225.9 437.213 17225.8 436.936 17225.7 436.712C17225.5 436.477 17225.2 436.307 17224.8 436.2C17224.4 436.083 17223.8 436.024 17223.1 436.024H17222.2V434.232H17223.1C17223.8 434.232 17224.4 434.163 17224.7 434.024C17225.1 433.885 17225.4 433.699 17225.5 433.464C17225.7 433.219 17225.7 432.941 17225.7 432.632C17225.7 432.205 17225.6 431.875 17225.3 431.64C17225.1 431.405 17224.6 431.288 17224 431.288C17223.7 431.288 17223.3 431.331 17223 431.416C17222.7 431.501 17222.5 431.613 17222.2 431.752C17222 431.88 17221.7 432.003 17221.6 432.12L17220.5 430.536C17220.8 430.323 17221.1 430.131 17221.5 429.96C17221.8 429.789 17222.3 429.656 17222.7 429.56C17223.1 429.464 17223.6 429.416 17224.2 429.416C17225.4 429.416 17226.3 429.656 17227 430.136C17227.6 430.616 17228 431.288 17228 432.152ZM17235.5 441H17233.2V434.232C17233.2 434.04 17233.2 433.816 17233.2 433.56C17233.2 433.293 17233.2 433.021 17233.2 432.744C17233.3 432.467 17233.3 432.216 17233.3 431.992C17233.2 432.077 17233.1 432.2 17232.9 432.36C17232.7 432.52 17232.6 432.664 17232.4 432.792L17231.1 433.848L17230 432.44L17233.6 429.576H17235.5V441Z" fill="#1D3C67" id="n2830"/>
<path d="M17070.3 475.704C17070.3 476.4 17070.2 477.024 17070.1 477.576C17070 478.12 17069.8 478.58 17069.6 478.956C17069.4 479.332 17069.1 479.62 17068.7 479.82C17068.4 480.02 17067.9 480.12 17067.4 480.12C17066.8 480.12 17066.3 479.948 17065.8 479.604C17065.4 479.252 17065.1 478.748 17064.9 478.092C17064.7 477.428 17064.6 476.632 17064.6 475.704C17064.6 474.792 17064.7 474.008 17064.9 473.352C17065.1 472.688 17065.4 472.18 17065.8 471.828C17066.2 471.476 17066.7 471.3 17067.4 471.3C17068.1 471.3 17068.6 471.476 17069 471.828C17069.4 472.18 17069.7 472.684 17069.9 473.34C17070.1 473.996 17070.3 474.784 17070.3 475.704ZM17065.6 475.704C17065.6 476.512 17065.6 477.184 17065.7 477.72C17065.9 478.248 17066.1 478.648 17066.3 478.92C17066.6 479.184 17067 479.316 17067.4 479.316C17067.9 479.316 17068.2 479.184 17068.5 478.92C17068.8 478.656 17069 478.256 17069.1 477.72C17069.2 477.184 17069.3 476.512 17069.3 475.704C17069.3 474.912 17069.2 474.252 17069.1 473.724C17069 473.188 17068.8 472.784 17068.5 472.512C17068.2 472.24 17067.9 472.104 17067.4 472.104C17067 472.104 17066.6 472.244 17066.3 472.524C17066.1 472.796 17065.9 473.2 17065.7 473.736C17065.6 474.264 17065.6 474.92 17065.6 475.704ZM17072.6 480L17076.1 472.296H17071.4V471.432H17077.1V472.152L17073.6 480H17072.6ZM17078.6 479.412C17078.6 479.14 17078.7 478.948 17078.8 478.836C17078.9 478.724 17079.1 478.668 17079.3 478.668C17079.5 478.668 17079.6 478.724 17079.8 478.836C17079.9 478.948 17080 479.14 17080 479.412C17080 479.668 17079.9 479.856 17079.8 479.976C17079.6 480.096 17079.5 480.156 17079.3 480.156C17079.1 480.156 17078.9 480.096 17078.8 479.976C17078.7 479.856 17078.6 479.668 17078.6 479.412ZM17078.6 474.18C17078.6 473.908 17078.7 473.716 17078.8 473.604C17078.9 473.492 17079.1 473.436 17079.3 473.436C17079.5 473.436 17079.6 473.492 17079.8 473.604C17079.9 473.716 17080 473.908 17080 474.18C17080 474.444 17079.9 474.636 17079.8 474.756C17079.6 474.876 17079.5 474.936 17079.3 474.936C17079.1 474.936 17078.9 474.876 17078.8 474.756C17078.7 474.636 17078.6 474.444 17078.6 474.18ZM17087.1 475.704C17087.1 476.4 17087.1 477.024 17086.9 477.576C17086.8 478.12 17086.7 478.58 17086.5 478.956C17086.2 479.332 17085.9 479.62 17085.6 479.82C17085.2 480.02 17084.8 480.12 17084.3 480.12C17083.7 480.12 17083.1 479.948 17082.7 479.604C17082.3 479.252 17082 478.748 17081.8 478.092C17081.6 477.428 17081.5 476.632 17081.5 475.704C17081.5 474.792 17081.6 474.008 17081.8 473.352C17081.9 472.688 17082.2 472.18 17082.7 471.828C17083.1 471.476 17083.6 471.3 17084.3 471.3C17084.9 471.3 17085.5 471.476 17085.9 471.828C17086.3 472.18 17086.6 472.684 17086.8 473.34C17087 473.996 17087.1 474.784 17087.1 475.704ZM17082.4 475.704C17082.4 476.512 17082.5 477.184 17082.6 477.72C17082.7 478.248 17082.9 478.648 17083.2 478.92C17083.5 479.184 17083.8 479.316 17084.3 479.316C17084.7 479.316 17085.1 479.184 17085.4 478.92C17085.6 478.656 17085.8 478.256 17086 477.72C17086.1 477.184 17086.2 476.512 17086.2 475.704C17086.2 474.912 17086.1 474.252 17086 473.724C17085.8 473.188 17085.6 472.784 17085.4 472.512C17085.1 472.24 17084.7 472.104 17084.3 472.104C17083.8 472.104 17083.5 472.244 17083.2 472.524C17082.9 472.796 17082.7 473.2 17082.6 473.736C17082.5 474.264 17082.4 474.92 17082.4 475.704ZM17094 475.704C17094 476.4 17093.9 477.024 17093.8 477.576C17093.7 478.12 17093.5 478.58 17093.3 478.956C17093.1 479.332 17092.8 479.62 17092.4 479.82C17092.1 480.02 17091.7 480.12 17091.2 480.12C17090.5 480.12 17090 479.948 17089.6 479.604C17089.2 479.252 17088.9 478.748 17088.6 478.092C17088.4 477.428 17088.3 476.632 17088.3 475.704C17088.3 474.792 17088.4 474.008 17088.6 473.352C17088.8 472.688 17089.1 472.18 17089.5 471.828C17089.9 471.476 17090.5 471.3 17091.2 471.3C17091.8 471.3 17092.3 471.476 17092.7 471.828C17093.2 472.18 17093.5 472.684 17093.7 473.34C17093.9 473.996 17094 474.784 17094 475.704ZM17089.3 475.704C17089.3 476.512 17089.4 477.184 17089.5 477.72C17089.6 478.248 17089.8 478.648 17090.1 478.92C17090.3 479.184 17090.7 479.316 17091.2 479.316C17091.6 479.316 17092 479.184 17092.2 478.92C17092.5 478.656 17092.7 478.256 17092.8 477.72C17093 477.184 17093 476.512 17093 475.704C17093 474.912 17093 474.252 17092.8 473.724C17092.7 473.188 17092.5 472.784 17092.2 472.512C17092 472.24 17091.6 472.104 17091.2 472.104C17090.7 472.104 17090.3 472.244 17090.1 472.524C17089.8 472.796 17089.6 473.2 17089.5 473.736C17089.4 474.264 17089.3 474.92 17089.3 475.704Z" fill="#535353" id="n2831"/>
<path d="M17097.5 477.192V476.352H17102.5V477.192H17097.5Z" fill="#535353" id="n2832"/>
<path d="M17109.2 480H17108.3V473.892C17108.3 473.66 17108.3 473.464 17108.3 473.304C17108.3 473.144 17108.3 472.996 17108.3 472.86C17108.3 472.716 17108.3 472.572 17108.3 472.428C17108.2 472.548 17108.1 472.652 17108 472.74C17107.9 472.82 17107.7 472.928 17107.6 473.064L17106.6 473.856L17106.1 473.22L17108.4 471.432H17109.2V480ZM17118.1 475.704C17118.1 476.4 17118.1 477.024 17118 477.576C17117.8 478.12 17117.7 478.58 17117.5 478.956C17117.2 479.332 17116.9 479.62 17116.6 479.82C17116.2 480.02 17115.8 480.12 17115.3 480.12C17114.7 480.12 17114.1 479.948 17113.7 479.604C17113.3 479.252 17113 478.748 17112.8 478.092C17112.6 477.428 17112.5 476.632 17112.5 475.704C17112.5 474.792 17112.6 474.008 17112.8 473.352C17112.9 472.688 17113.2 472.18 17113.7 471.828C17114.1 471.476 17114.6 471.3 17115.3 471.3C17115.9 471.3 17116.5 471.476 17116.9 471.828C17117.3 472.18 17117.6 472.684 17117.8 473.34C17118 473.996 17118.1 474.784 17118.1 475.704ZM17113.4 475.704C17113.4 476.512 17113.5 477.184 17113.6 477.72C17113.7 478.248 17113.9 478.648 17114.2 478.92C17114.5 479.184 17114.8 479.316 17115.3 479.316C17115.7 479.316 17116.1 479.184 17116.4 478.92C17116.6 478.656 17116.8 478.256 17117 477.72C17117.1 477.184 17117.2 476.512 17117.2 475.704C17117.2 474.912 17117.1 474.252 17117 473.724C17116.8 473.188 17116.7 472.784 17116.4 472.512C17116.1 472.24 17115.8 472.104 17115.3 472.104C17114.8 472.104 17114.5 472.244 17114.2 472.524C17113.9 472.796 17113.7 473.2 17113.6 473.736C17113.5 474.264 17113.4 474.92 17113.4 475.704ZM17119.6 479.412C17119.6 479.14 17119.7 478.948 17119.8 478.836C17119.9 478.724 17120.1 478.668 17120.3 478.668C17120.5 478.668 17120.6 478.724 17120.8 478.836C17120.9 478.948 17121 479.14 17121 479.412C17121 479.668 17120.9 479.856 17120.8 479.976C17120.6 480.096 17120.5 480.156 17120.3 480.156C17120.1 480.156 17119.9 480.096 17119.8 479.976C17119.7 479.856 17119.6 479.668 17119.6 479.412ZM17119.6 474.18C17119.6 473.908 17119.7 473.716 17119.8 473.604C17119.9 473.492 17120.1 473.436 17120.3 473.436C17120.5 473.436 17120.6 473.492 17120.8 473.604C17120.9 473.716 17121 473.908 17121 474.18C17121 474.444 17120.9 474.636 17120.8 474.756C17120.6 474.876 17120.5 474.936 17120.3 474.936C17120.1 474.936 17119.9 474.876 17119.8 474.756C17119.7 474.636 17119.6 474.444 17119.6 474.18ZM17128.1 475.704C17128.1 476.4 17128.1 477.024 17127.9 477.576C17127.8 478.12 17127.7 478.58 17127.5 478.956C17127.2 479.332 17126.9 479.62 17126.6 479.82C17126.2 480.02 17125.8 480.12 17125.3 480.12C17124.7 480.12 17124.1 479.948 17123.7 479.604C17123.3 479.252 17123 478.748 17122.8 478.092C17122.6 477.428 17122.5 476.632 17122.5 475.704C17122.5 474.792 17122.6 474.008 17122.8 473.352C17122.9 472.688 17123.2 472.18 17123.7 471.828C17124.1 471.476 17124.6 471.3 17125.3 471.3C17125.9 471.3 17126.5 471.476 17126.9 471.828C17127.3 472.18 17127.6 472.684 17127.8 473.34C17128 473.996 17128.1 474.784 17128.1 475.704ZM17123.4 475.704C17123.4 476.512 17123.5 477.184 17123.6 477.72C17123.7 478.248 17123.9 478.648 17124.2 478.92C17124.5 479.184 17124.8 479.316 17125.3 479.316C17125.7 479.316 17126.1 479.184 17126.4 478.92C17126.6 478.656 17126.8 478.256 17127 477.72C17127.1 477.184 17127.2 476.512 17127.2 475.704C17127.2 474.912 17127.1 474.252 17127 473.724C17126.8 473.188 17126.6 472.784 17126.4 472.512C17126.1 472.24 17125.7 472.104 17125.3 472.104C17124.8 472.104 17124.5 472.244 17124.2 472.524C17123.9 472.796 17123.7 473.2 17123.6 473.736C17123.5 474.264 17123.4 474.92 17123.4 475.704ZM17135 475.704C17135 476.4 17134.9 477.024 17134.8 477.576C17134.7 478.12 17134.5 478.58 17134.3 478.956C17134.1 479.332 17133.8 479.62 17133.4 479.82C17133.1 480.02 17132.7 480.12 17132.2 480.12C17131.5 480.12 17131 479.948 17130.6 479.604C17130.2 479.252 17129.9 478.748 17129.6 478.092C17129.4 477.428 17129.3 476.632 17129.3 475.704C17129.3 474.792 17129.4 474.008 17129.6 473.352C17129.8 472.688 17130.1 472.18 17130.5 471.828C17130.9 471.476 17131.5 471.3 17132.2 471.3C17132.8 471.3 17133.3 471.476 17133.7 471.828C17134.2 472.18 17134.5 472.684 17134.7 473.34C17134.9 473.996 17135 474.784 17135 475.704ZM17130.3 475.704C17130.3 476.512 17130.4 477.184 17130.5 477.72C17130.6 478.248 17130.8 478.648 17131.1 478.92C17131.3 479.184 17131.7 479.316 17132.2 479.316C17132.6 479.316 17133 479.184 17133.2 478.92C17133.5 478.656 17133.7 478.256 17133.8 477.72C17134 477.184 17134 476.512 17134 475.704C17134 474.912 17134 474.252 17133.8 473.724C17133.7 473.188 17133.5 472.784 17133.2 472.512C17133 472.24 17132.6 472.104 17132.2 472.104C17131.7 472.104 17131.3 472.244 17131.1 472.524C17130.8 472.796 17130.6 473.2 17130.5 473.736C17130.4 474.264 17130.3 474.92 17130.3 475.704Z" fill="#535353" id="n2833"/>
<path d="M17070.3 496L17069.7 493.888H17066.5L17065.9 496H17064L17067.1 487.396H17069.1L17072.2 496H17070.3ZM17068.6 490.372C17068.6 490.244 17068.5 490.08 17068.4 489.88C17068.4 489.672 17068.3 489.464 17068.2 489.256C17068.2 489.04 17068.1 488.856 17068.1 488.704C17068.1 488.864 17068 489.06 17067.9 489.292C17067.9 489.516 17067.8 489.732 17067.8 489.94C17067.7 490.14 17067.7 490.284 17067.6 490.372L17067 492.436H17069.3L17068.6 490.372ZM17076.7 489.34C17077.5 489.34 17078.1 489.628 17078.5 490.204C17079 490.772 17079.2 491.612 17079.2 492.724C17079.2 493.46 17079.1 494.084 17078.9 494.596C17078.7 495.1 17078.4 495.48 17078 495.736C17077.6 495.992 17077.2 496.12 17076.7 496.12C17076.4 496.12 17076.1 496.08 17075.9 496C17075.6 495.92 17075.4 495.816 17075.3 495.688C17075.1 495.552 17075 495.412 17074.9 495.268H17074.8C17074.8 495.42 17074.8 495.58 17074.8 495.748C17074.8 495.916 17074.9 496.08 17074.9 496.24V498.88H17073.2V489.46H17074.5L17074.8 490.312H17074.9C17075 490.136 17075.1 489.976 17075.3 489.832C17075.5 489.68 17075.7 489.56 17075.9 489.472C17076.1 489.384 17076.4 489.34 17076.7 489.34ZM17076.2 490.708C17075.9 490.708 17075.6 490.776 17075.4 490.912C17075.2 491.04 17075.1 491.24 17075 491.512C17074.9 491.776 17074.9 492.112 17074.9 492.52V492.712C17074.9 493.144 17074.9 493.512 17075 493.816C17075.1 494.112 17075.2 494.34 17075.4 494.5C17075.6 494.652 17075.9 494.728 17076.2 494.728C17076.5 494.728 17076.7 494.652 17076.9 494.5C17077.1 494.34 17077.3 494.108 17077.3 493.804C17077.4 493.492 17077.5 493.124 17077.5 492.7C17077.5 492.044 17077.4 491.548 17077.2 491.212C17077 490.876 17076.6 490.708 17076.2 490.708ZM17084.3 489.34C17085 489.34 17085.6 489.628 17086.1 490.204C17086.6 490.772 17086.8 491.612 17086.8 492.724C17086.8 493.46 17086.7 494.084 17086.5 494.596C17086.3 495.1 17086 495.48 17085.6 495.736C17085.2 495.992 17084.8 496.12 17084.3 496.12C17083.9 496.12 17083.7 496.08 17083.4 496C17083.2 495.92 17083 495.816 17082.8 495.688C17082.7 495.552 17082.5 495.412 17082.4 495.268H17082.3C17082.4 495.42 17082.4 495.58 17082.4 495.748C17082.4 495.916 17082.4 496.08 17082.4 496.24V498.88H17080.7V489.46H17082.1L17082.3 490.312H17082.4C17082.5 490.136 17082.7 489.976 17082.9 489.832C17083 489.68 17083.2 489.56 17083.5 489.472C17083.7 489.384 17084 489.34 17084.3 489.34ZM17083.8 490.708C17083.4 490.708 17083.2 490.776 17083 490.912C17082.8 491.04 17082.7 491.24 17082.6 491.512C17082.5 491.776 17082.4 492.112 17082.4 492.52V492.712C17082.4 493.144 17082.5 493.512 17082.5 493.816C17082.6 494.112 17082.8 494.34 17083 494.5C17083.2 494.652 17083.4 494.728 17083.8 494.728C17084.1 494.728 17084.3 494.652 17084.5 494.5C17084.7 494.34 17084.8 494.108 17084.9 493.804C17085 493.492 17085.1 493.124 17085.1 492.7C17085.1 492.044 17084.9 491.548 17084.7 491.212C17084.5 490.876 17084.2 490.708 17083.8 490.708ZM17094.2 492.724C17094.2 493.268 17094.1 493.752 17094 494.176C17093.8 494.592 17093.6 494.948 17093.3 495.244C17093.1 495.532 17092.7 495.752 17092.3 495.904C17092 496.048 17091.5 496.12 17091 496.12C17090.6 496.12 17090.2 496.048 17089.8 495.904C17089.4 495.752 17089.1 495.532 17088.8 495.244C17088.5 494.948 17088.3 494.588 17088.1 494.164C17088 493.74 17087.9 493.256 17087.9 492.712C17087.9 491.992 17088 491.384 17088.3 490.888C17088.5 490.384 17088.9 490 17089.4 489.736C17089.9 489.472 17090.4 489.34 17091.1 489.34C17091.7 489.34 17092.2 489.472 17092.7 489.736C17093.2 490 17093.5 490.384 17093.8 490.888C17094.1 491.384 17094.2 491.996 17094.2 492.724ZM17089.6 492.724C17089.6 493.164 17089.7 493.536 17089.8 493.84C17089.9 494.136 17090 494.36 17090.2 494.512C17090.5 494.664 17090.7 494.74 17091.1 494.74C17091.4 494.74 17091.7 494.664 17091.9 494.512C17092.1 494.36 17092.2 494.136 17092.3 493.84C17092.4 493.536 17092.5 493.164 17092.5 492.724C17092.5 492.276 17092.4 491.904 17092.3 491.608C17092.2 491.312 17092.1 491.092 17091.9 490.948C17091.6 490.796 17091.4 490.72 17091 490.72C17090.6 490.72 17090.2 490.888 17090 491.224C17089.7 491.56 17089.6 492.06 17089.6 492.724ZM17097.4 489.46V496H17095.7V489.46H17097.4ZM17096.6 486.916C17096.8 486.916 17097 486.976 17097.2 487.096C17097.4 487.216 17097.5 487.44 17097.5 487.768C17097.5 488.08 17097.4 488.3 17097.2 488.428C17097 488.556 17096.8 488.62 17096.6 488.62C17096.3 488.62 17096.1 488.556 17095.9 488.428C17095.7 488.3 17095.6 488.08 17095.6 487.768C17095.6 487.44 17095.7 487.216 17095.9 487.096C17096.1 486.976 17096.3 486.916 17096.6 486.916ZM17102.9 489.34C17103.7 489.34 17104.2 489.532 17104.6 489.916C17105.1 490.292 17105.3 490.9 17105.3 491.74V496H17103.6V492.136C17103.6 491.664 17103.5 491.308 17103.3 491.068C17103.1 490.828 17102.8 490.708 17102.5 490.708C17101.9 490.708 17101.5 490.896 17101.3 491.272C17101.1 491.648 17101 492.188 17101 492.892V496H17099.3V489.46H17100.6L17100.8 490.3H17100.9C17101.1 490.076 17101.2 489.896 17101.5 489.76C17101.7 489.616 17101.9 489.512 17102.2 489.448C17102.4 489.376 17102.7 489.34 17102.9 489.34ZM17109.8 494.752C17110 494.752 17110.2 494.736 17110.4 494.704C17110.6 494.664 17110.8 494.616 17110.9 494.56V495.832C17110.7 495.912 17110.5 495.98 17110.2 496.036C17110 496.092 17109.7 496.12 17109.3 496.12C17109 496.12 17108.6 496.056 17108.3 495.928C17108 495.8 17107.8 495.58 17107.6 495.268C17107.4 494.956 17107.3 494.524 17107.3 493.972V490.744H17106.5V490.024L17107.4 489.436L17107.9 488.056H17109V489.46H17110.9V490.744H17109V493.96C17109 494.232 17109.1 494.432 17109.2 494.56C17109.4 494.688 17109.6 494.752 17109.8 494.752ZM17119.9 489.34C17120.6 489.34 17121.2 489.532 17121.5 489.916C17121.9 490.292 17122.1 490.9 17122.1 491.74V496H17120.4V492.136C17120.4 491.664 17120.3 491.308 17120.2 491.068C17120 490.828 17119.7 490.708 17119.4 490.708C17118.9 490.708 17118.5 490.88 17118.3 491.224C17118.1 491.56 17118 492.048 17118 492.688V496H17116.3V492.136C17116.3 491.824 17116.3 491.564 17116.2 491.356C17116.1 491.14 17116 490.98 17115.9 490.876C17115.7 490.764 17115.5 490.708 17115.3 490.708C17115 490.708 17114.7 490.792 17114.5 490.96C17114.3 491.128 17114.2 491.376 17114.1 491.704C17114 492.024 17113.9 492.416 17113.9 492.88V496H17112.2V489.46H17113.6L17113.8 490.3H17113.9C17114 490.076 17114.2 489.896 17114.4 489.76C17114.6 489.616 17114.8 489.512 17115 489.448C17115.3 489.376 17115.5 489.34 17115.8 489.34C17116.3 489.34 17116.7 489.42 17117 489.58C17117.3 489.74 17117.6 489.984 17117.8 490.312H17117.9C17118.1 489.976 17118.4 489.732 17118.7 489.58C17119.1 489.42 17119.5 489.34 17119.9 489.34ZM17126.6 489.34C17127.2 489.34 17127.8 489.456 17128.2 489.688C17128.6 489.92 17129 490.256 17129.2 490.696C17129.4 491.136 17129.5 491.672 17129.5 492.304V493.144H17125.3C17125.3 493.672 17125.5 494.088 17125.8 494.392C17126 494.688 17126.5 494.836 17127 494.836C17127.4 494.836 17127.8 494.796 17128.1 494.716C17128.5 494.628 17128.8 494.5 17129.2 494.332V495.652C17128.9 495.812 17128.5 495.928 17128.2 496C17127.8 496.08 17127.4 496.12 17126.9 496.12C17126.2 496.12 17125.7 496 17125.2 495.76C17124.7 495.512 17124.3 495.14 17124 494.644C17123.7 494.148 17123.6 493.528 17123.6 492.784C17123.6 492.016 17123.7 491.38 17124 490.876C17124.2 490.372 17124.6 489.992 17125 489.736C17125.5 489.472 17126 489.34 17126.6 489.34ZM17126.7 490.564C17126.3 490.564 17126 490.684 17125.7 490.924C17125.5 491.156 17125.4 491.516 17125.3 492.004H17127.9C17127.9 491.724 17127.9 491.476 17127.8 491.26C17127.7 491.044 17127.6 490.876 17127.4 490.756C17127.2 490.628 17126.9 490.564 17126.7 490.564ZM17134.7 489.34C17135.4 489.34 17135.9 489.532 17136.4 489.916C17136.8 490.292 17137 490.9 17137 491.74V496H17135.3V492.136C17135.3 491.664 17135.2 491.308 17135 491.068C17134.9 490.828 17134.6 490.708 17134.2 490.708C17133.6 490.708 17133.2 490.896 17133 491.272C17132.8 491.648 17132.7 492.188 17132.7 492.892V496H17131V489.46H17132.3L17132.6 490.3H17132.7C17132.8 490.076 17133 489.896 17133.2 489.76C17133.4 489.616 17133.6 489.512 17133.9 489.448C17134.1 489.376 17134.4 489.34 17134.7 489.34ZM17141.5 494.752C17141.7 494.752 17141.9 494.736 17142.1 494.704C17142.3 494.664 17142.5 494.616 17142.7 494.56V495.832C17142.5 495.912 17142.2 495.98 17142 496.036C17141.7 496.092 17141.4 496.12 17141.1 496.12C17140.7 496.12 17140.3 496.056 17140 495.928C17139.7 495.8 17139.5 495.58 17139.3 495.268C17139.1 494.956 17139 494.524 17139 493.972V490.744H17138.2V490.024L17139.2 489.436L17139.7 488.056H17140.7V489.46H17142.6V490.744H17140.7V493.96C17140.7 494.232 17140.8 494.432 17141 494.56C17141.1 494.688 17141.3 494.752 17141.5 494.752ZM17149.8 494.752C17150 494.752 17150.2 494.736 17150.3 494.704C17150.5 494.664 17150.7 494.616 17150.9 494.56V495.832C17150.7 495.912 17150.5 495.98 17150.2 496.036C17149.9 496.092 17149.6 496.12 17149.3 496.12C17148.9 496.12 17148.6 496.056 17148.3 495.928C17148 495.8 17147.7 495.58 17147.5 495.268C17147.4 494.956 17147.3 494.524 17147.3 493.972V490.744H17146.4V490.024L17147.4 489.436L17147.9 488.056H17149V489.46H17150.8V490.744H17149V493.96C17149 494.232 17149 494.432 17149.2 494.56C17149.3 494.688 17149.5 494.752 17149.8 494.752ZM17153.9 489.46V496H17152.2V489.46H17153.9ZM17153 486.916C17153.3 486.916 17153.5 486.976 17153.7 487.096C17153.9 487.216 17154 487.44 17154 487.768C17154 488.08 17153.9 488.3 17153.7 488.428C17153.5 488.556 17153.3 488.62 17153 488.62C17152.8 488.62 17152.6 488.556 17152.4 488.428C17152.2 488.3 17152.1 488.08 17152.1 487.768C17152.1 487.44 17152.2 487.216 17152.4 487.096C17152.6 486.976 17152.8 486.916 17153 486.916ZM17158.5 494.752C17158.7 494.752 17158.9 494.736 17159 494.704C17159.2 494.664 17159.4 494.616 17159.6 494.56V495.832C17159.4 495.912 17159.2 495.98 17158.9 496.036C17158.6 496.092 17158.3 496.12 17158 496.12C17157.6 496.12 17157.3 496.056 17157 495.928C17156.7 495.8 17156.4 495.58 17156.2 495.268C17156.1 494.956 17156 494.524 17156 493.972V490.744H17155.1V490.024L17156.1 489.436L17156.6 488.056H17157.7V489.46H17159.5V490.744H17157.7V493.96C17157.7 494.232 17157.7 494.432 17157.9 494.56C17158 494.688 17158.2 494.752 17158.5 494.752ZM17162.6 496H17160.9V486.88H17162.6V496ZM17167.2 489.34C17167.8 489.34 17168.3 489.456 17168.7 489.688C17169.2 489.92 17169.5 490.256 17169.7 490.696C17170 491.136 17170.1 491.672 17170.1 492.304V493.144H17165.8C17165.8 493.672 17166 494.088 17166.3 494.392C17166.6 494.688 17167 494.836 17167.5 494.836C17167.9 494.836 17168.3 494.796 17168.7 494.716C17169 494.628 17169.4 494.5 17169.7 494.332V495.652C17169.4 495.812 17169.1 495.928 17168.7 496C17168.4 496.08 17167.9 496.12 17167.4 496.12C17166.8 496.12 17166.2 496 17165.7 495.76C17165.2 495.512 17164.8 495.14 17164.5 494.644C17164.2 494.148 17164.1 493.528 17164.1 492.784C17164.1 492.016 17164.2 491.38 17164.5 490.876C17164.7 490.372 17165.1 489.992 17165.6 489.736C17166 489.472 17166.6 489.34 17167.2 489.34ZM17167.2 490.564C17166.8 490.564 17166.5 490.684 17166.3 490.924C17166 491.156 17165.9 491.516 17165.9 492.004H17168.5C17168.5 491.724 17168.4 491.476 17168.3 491.26C17168.2 491.044 17168.1 490.876 17167.9 490.756C17167.7 490.628 17167.5 490.564 17167.2 490.564Z" fill="#1F1F1F" id="n2834"/>
</g>
</svg>
