<?xml version='1.0' encoding='utf-8'?>
<svg xmlns="http://www.w3.org/2000/svg" xmlns:xlink="http://www.w3.org/1999/xlink" width="201.0" height="155.0" viewBox="0 0 201.0 155.0" fill="none">
  <defs><clipPath id="clip__asset"><rect x="0" y="0" width="201.0" height="155.0"/></clipPath><mask id="path-2510-outside-155_1702_11540" maskUnits="userSpaceOnUse" x="17275" y="767" width="205" height="159" fill="black">
<rect fill="white" x="17275" y="767" width="205" height="159" id="n2894"/>
<path d="M17277 769H17478V924H17277V769Z" id="n2895"/>
</mask>
</defs>
  <g clip-path="url(#clip__asset)" transform="translate(-17277.0 -769.0)"><rect width="201" height="155" transform="translate(17277 769)" fill="white" id="n2888"/>
<path d="M17453 790.152C17453 790.675 17452.9 791.128 17452.7 791.512C17452.5 791.885 17452.2 792.195 17451.8 792.44C17451.4 792.685 17451 792.867 17450.5 792.984V793.032C17451.5 793.139 17452.2 793.421 17452.6 793.88C17453.1 794.328 17453.3 794.931 17453.3 795.688C17453.3 796.349 17453.2 796.941 17452.8 797.464C17452.5 797.987 17452 798.403 17451.3 798.712C17450.7 799.011 17449.8 799.16 17448.7 799.16C17448.1 799.16 17447.5 799.107 17447 799C17446.5 798.893 17445.9 798.739 17445.5 798.536V796.568C17446 796.813 17446.5 797 17447 797.128C17447.5 797.256 17448.1 797.32 17448.5 797.32C17449.4 797.32 17450 797.165 17450.4 796.856C17450.7 796.547 17450.9 796.109 17450.9 795.544C17450.9 795.213 17450.8 794.936 17450.7 794.712C17450.5 794.477 17450.2 794.307 17449.8 794.2C17449.4 794.083 17448.8 794.024 17448.1 794.024H17447.2V792.232H17448.1C17448.8 792.232 17449.4 792.163 17449.7 792.024C17450.1 791.885 17450.4 791.699 17450.5 791.464C17450.7 791.219 17450.7 790.941 17450.7 790.632C17450.7 790.205 17450.6 789.875 17450.3 789.64C17450.1 789.405 17449.6 789.288 17449 789.288C17448.7 789.288 17448.3 789.331 17448 789.416C17447.7 789.501 17447.5 789.613 17447.2 789.752C17447 789.88 17446.7 790.003 17446.6 790.12L17445.5 788.536C17445.8 788.323 17446.1 788.131 17446.5 787.96C17446.8 787.789 17447.3 787.656 17447.7 787.56C17448.1 787.464 17448.6 787.416 17449.2 787.416C17450.4 787.416 17451.3 787.656 17452 788.136C17452.6 788.616 17453 789.288 17453 790.152ZM17460.5 799H17458.2V792.232C17458.2 792.04 17458.2 791.816 17458.2 791.56C17458.2 791.293 17458.2 791.021 17458.2 790.744C17458.3 790.467 17458.3 790.216 17458.3 789.992C17458.2 790.077 17458.1 790.2 17457.9 790.36C17457.7 790.52 17457.6 790.664 17457.4 790.792L17456.1 791.848L17455 790.44L17458.6 787.576H17460.5V799Z" fill="#535353" id="n2889"/>
<path d="M17295.3 833.704C17295.3 834.4 17295.2 835.024 17295.1 835.576C17295 836.12 17294.8 836.58 17294.6 836.956C17294.4 837.332 17294.1 837.62 17293.7 837.82C17293.4 838.02 17292.9 838.12 17292.4 838.12C17291.8 838.12 17291.3 837.948 17290.8 837.604C17290.4 837.252 17290.1 836.748 17289.9 836.092C17289.7 835.428 17289.6 834.632 17289.6 833.704C17289.6 832.792 17289.7 832.008 17289.9 831.352C17290.1 830.688 17290.4 830.18 17290.8 829.828C17291.2 829.476 17291.7 829.3 17292.4 829.3C17293.1 829.3 17293.6 829.476 17294 829.828C17294.4 830.18 17294.7 830.684 17294.9 831.34C17295.1 831.996 17295.3 832.784 17295.3 833.704ZM17290.6 833.704C17290.6 834.512 17290.6 835.184 17290.7 835.72C17290.9 836.248 17291.1 836.648 17291.3 836.92C17291.6 837.184 17292 837.316 17292.4 837.316C17292.9 837.316 17293.2 837.184 17293.5 836.92C17293.8 836.656 17294 836.256 17294.1 835.72C17294.2 835.184 17294.3 834.512 17294.3 833.704C17294.3 832.912 17294.2 832.252 17294.1 831.724C17294 831.188 17293.8 830.784 17293.5 830.512C17293.2 830.24 17292.9 830.104 17292.4 830.104C17292 830.104 17291.6 830.244 17291.3 830.524C17291.1 830.796 17290.9 831.2 17290.7 831.736C17290.6 832.264 17290.6 832.92 17290.6 833.704ZM17297.6 838L17301.1 830.296H17296.4V829.432H17302.1V830.152L17298.6 838H17297.6ZM17303.6 837.412C17303.6 837.14 17303.7 836.948 17303.8 836.836C17303.9 836.724 17304.1 836.668 17304.3 836.668C17304.5 836.668 17304.6 836.724 17304.8 836.836C17304.9 836.948 17305 837.14 17305 837.412C17305 837.668 17304.9 837.856 17304.8 837.976C17304.6 838.096 17304.5 838.156 17304.3 838.156C17304.1 838.156 17303.9 838.096 17303.8 837.976C17303.7 837.856 17303.6 837.668 17303.6 837.412ZM17303.6 832.18C17303.6 831.908 17303.7 831.716 17303.8 831.604C17303.9 831.492 17304.1 831.436 17304.3 831.436C17304.5 831.436 17304.6 831.492 17304.8 831.604C17304.9 831.716 17305 831.908 17305 832.18C17305 832.444 17304.9 832.636 17304.8 832.756C17304.6 832.876 17304.5 832.936 17304.3 832.936C17304.1 832.936 17303.9 832.876 17303.8 832.756C17303.7 832.636 17303.6 832.444 17303.6 832.18ZM17312.1 833.704C17312.1 834.4 17312.1 835.024 17311.9 835.576C17311.8 836.12 17311.7 836.58 17311.5 836.956C17311.2 837.332 17310.9 837.62 17310.6 837.82C17310.2 838.02 17309.8 838.12 17309.3 838.12C17308.7 838.12 17308.1 837.948 17307.7 837.604C17307.3 837.252 17307 836.748 17306.8 836.092C17306.6 835.428 17306.5 834.632 17306.5 833.704C17306.5 832.792 17306.6 832.008 17306.8 831.352C17306.9 830.688 17307.2 830.18 17307.7 829.828C17308.1 829.476 17308.6 829.3 17309.3 829.3C17309.9 829.3 17310.5 829.476 17310.9 829.828C17311.3 830.18 17311.6 830.684 17311.8 831.34C17312 831.996 17312.1 832.784 17312.1 833.704ZM17307.4 833.704C17307.4 834.512 17307.5 835.184 17307.6 835.72C17307.7 836.248 17307.9 836.648 17308.2 836.92C17308.5 837.184 17308.8 837.316 17309.3 837.316C17309.7 837.316 17310.1 837.184 17310.4 836.92C17310.6 836.656 17310.8 836.256 17311 835.72C17311.1 835.184 17311.2 834.512 17311.2 833.704C17311.2 832.912 17311.1 832.252 17311 831.724C17310.8 831.188 17310.6 830.784 17310.4 830.512C17310.1 830.24 17309.7 830.104 17309.3 830.104C17308.8 830.104 17308.5 830.244 17308.2 830.524C17307.9 830.796 17307.7 831.2 17307.6 831.736C17307.5 832.264 17307.4 832.92 17307.4 833.704ZM17319 833.704C17319 834.4 17318.9 835.024 17318.8 835.576C17318.7 836.12 17318.5 836.58 17318.3 836.956C17318.1 837.332 17317.8 837.62 17317.4 837.82C17317.1 838.02 17316.7 838.12 17316.2 838.12C17315.5 838.12 17315 837.948 17314.6 837.604C17314.2 837.252 17313.9 836.748 17313.6 836.092C17313.4 835.428 17313.3 834.632 17313.3 833.704C17313.3 832.792 17313.4 832.008 17313.6 831.352C17313.8 830.688 17314.1 830.18 17314.5 829.828C17314.9 829.476 17315.5 829.3 17316.2 829.3C17316.8 829.3 17317.3 829.476 17317.7 829.828C17318.2 830.18 17318.5 830.684 17318.7 831.34C17318.9 831.996 17319 832.784 17319 833.704ZM17314.3 833.704C17314.3 834.512 17314.4 835.184 17314.5 835.72C17314.6 836.248 17314.8 836.648 17315.1 836.92C17315.3 837.184 17315.7 837.316 17316.2 837.316C17316.6 837.316 17317 837.184 17317.2 836.92C17317.5 836.656 17317.7 836.256 17317.8 835.72C17318 835.184 17318 834.512 17318 833.704C17318 832.912 17318 832.252 17317.8 831.724C17317.7 831.188 17317.5 830.784 17317.2 830.512C17317 830.24 17316.6 830.104 17316.2 830.104C17315.7 830.104 17315.3 830.244 17315.1 830.524C17314.8 830.796 17314.6 831.2 17314.5 831.736C17314.4 832.264 17314.3 832.92 17314.3 833.704Z" fill="#535353" id="n2890"/>
<path d="M17322.5 835.192V834.352H17327.5V835.192H17322.5Z" fill="#535353" id="n2891"/>
<path d="M17334.2 838H17333.3V831.892C17333.3 831.66 17333.3 831.464 17333.3 831.304C17333.3 831.144 17333.3 830.996 17333.3 830.86C17333.3 830.716 17333.3 830.572 17333.3 830.428C17333.2 830.548 17333.1 830.652 17333 830.74C17332.9 830.82 17332.7 830.928 17332.6 831.064L17331.6 831.856L17331.1 831.22L17333.4 829.432H17334.2V838ZM17343.1 833.704C17343.1 834.4 17343.1 835.024 17343 835.576C17342.8 836.12 17342.7 836.58 17342.5 836.956C17342.2 837.332 17341.9 837.62 17341.6 837.82C17341.2 838.02 17340.8 838.12 17340.3 838.12C17339.7 838.12 17339.1 837.948 17338.7 837.604C17338.3 837.252 17338 836.748 17337.8 836.092C17337.6 835.428 17337.5 834.632 17337.5 833.704C17337.5 832.792 17337.6 832.008 17337.8 831.352C17337.9 830.688 17338.2 830.18 17338.7 829.828C17339.1 829.476 17339.6 829.3 17340.3 829.3C17340.9 829.3 17341.5 829.476 17341.9 829.828C17342.3 830.18 17342.6 830.684 17342.8 831.34C17343 831.996 17343.1 832.784 17343.1 833.704ZM17338.4 833.704C17338.4 834.512 17338.5 835.184 17338.6 835.72C17338.7 836.248 17338.9 836.648 17339.2 836.92C17339.5 837.184 17339.8 837.316 17340.3 837.316C17340.7 837.316 17341.1 837.184 17341.4 836.92C17341.6 836.656 17341.8 836.256 17342 835.72C17342.1 835.184 17342.2 834.512 17342.2 833.704C17342.2 832.912 17342.1 832.252 17342 831.724C17341.8 831.188 17341.7 830.784 17341.4 830.512C17341.1 830.24 17340.8 830.104 17340.3 830.104C17339.8 830.104 17339.5 830.244 17339.2 830.524C17338.9 830.796 17338.7 831.2 17338.6 831.736C17338.5 832.264 17338.4 832.92 17338.4 833.704ZM17344.6 837.412C17344.6 837.14 17344.7 836.948 17344.8 836.836C17344.9 836.724 17345.1 836.668 17345.3 836.668C17345.5 836.668 17345.6 836.724 17345.8 836.836C17345.9 836.948 17346 837.14 17346 837.412C17346 837.668 17345.9 837.856 17345.8 837.976C17345.6 838.096 17345.5 838.156 17345.3 838.156C17345.1 838.156 17344.9 838.096 17344.8 837.976C17344.7 837.856 17344.6 837.668 17344.6 837.412ZM17344.6 832.18C17344.6 831.908 17344.7 831.716 17344.8 831.604C17344.9 831.492 17345.1 831.436 17345.3 831.436C17345.5 831.436 17345.6 831.492 17345.8 831.604C17345.9 831.716 17346 831.908 17346 832.18C17346 832.444 17345.9 832.636 17345.8 832.756C17345.6 832.876 17345.5 832.936 17345.3 832.936C17345.1 832.936 17344.9 832.876 17344.8 832.756C17344.7 832.636 17344.6 832.444 17344.6 832.18ZM17353.1 833.704C17353.1 834.4 17353.1 835.024 17352.9 835.576C17352.8 836.12 17352.7 836.58 17352.5 836.956C17352.2 837.332 17351.9 837.62 17351.6 837.82C17351.2 838.02 17350.8 838.12 17350.3 838.12C17349.7 838.12 17349.1 837.948 17348.7 837.604C17348.3 837.252 17348 836.748 17347.8 836.092C17347.6 835.428 17347.5 834.632 17347.5 833.704C17347.5 832.792 17347.6 832.008 17347.8 831.352C17347.9 830.688 17348.2 830.18 17348.7 829.828C17349.1 829.476 17349.6 829.3 17350.3 829.3C17350.9 829.3 17351.5 829.476 17351.9 829.828C17352.3 830.18 17352.6 830.684 17352.8 831.34C17353 831.996 17353.1 832.784 17353.1 833.704ZM17348.4 833.704C17348.4 834.512 17348.5 835.184 17348.6 835.72C17348.7 836.248 17348.9 836.648 17349.2 836.92C17349.5 837.184 17349.8 837.316 17350.3 837.316C17350.7 837.316 17351.1 837.184 17351.4 836.92C17351.6 836.656 17351.8 836.256 17352 835.72C17352.1 835.184 17352.2 834.512 17352.2 833.704C17352.2 832.912 17352.1 832.252 17352 831.724C17351.8 831.188 17351.6 830.784 17351.4 830.512C17351.1 830.24 17350.7 830.104 17350.3 830.104C17349.8 830.104 17349.5 830.244 17349.2 830.524C17348.9 830.796 17348.7 831.2 17348.6 831.736C17348.5 832.264 17348.4 832.92 17348.4 833.704ZM17360 833.704C17360 834.4 17359.9 835.024 17359.8 835.576C17359.7 836.12 17359.5 836.58 17359.3 836.956C17359.1 837.332 17358.8 837.62 17358.4 837.82C17358.1 838.02 17357.7 838.12 17357.2 838.12C17356.5 838.12 17356 837.948 17355.6 837.604C17355.2 837.252 17354.9 836.748 17354.6 836.092C17354.4 835.428 17354.3 834.632 17354.3 833.704C17354.3 832.792 17354.4 832.008 17354.6 831.352C17354.8 830.688 17355.1 830.18 17355.5 829.828C17355.9 829.476 17356.5 829.3 17357.2 829.3C17357.8 829.3 17358.3 829.476 17358.7 829.828C17359.2 830.18 17359.5 830.684 17359.7 831.34C17359.9 831.996 17360 832.784 17360 833.704ZM17355.3 833.704C17355.3 834.512 17355.4 835.184 17355.5 835.72C17355.6 836.248 17355.8 836.648 17356.1 836.92C17356.3 837.184 17356.7 837.316 17357.2 837.316C17357.6 837.316 17358 837.184 17358.2 836.92C17358.5 836.656 17358.7 836.256 17358.8 835.72C17359 835.184 17359 834.512 17359 833.704C17359 832.912 17359 832.252 17358.8 831.724C17358.7 831.188 17358.5 830.784 17358.2 830.512C17358 830.24 17357.6 830.104 17357.2 830.104C17356.7 830.104 17356.3 830.244 17356.1 830.524C17355.8 830.796 17355.6 831.2 17355.5 831.736C17355.4 832.264 17355.3 832.92 17355.3 833.704Z" fill="#535353" id="n2892"/>
<path d="M17295.3 854L17294.7 851.888H17291.5L17290.9 854H17289L17292.1 845.396H17294.1L17297.2 854H17295.3ZM17293.6 848.372C17293.6 848.244 17293.5 848.08 17293.4 847.88C17293.4 847.672 17293.3 847.464 17293.2 847.256C17293.2 847.04 17293.1 846.856 17293.1 846.704C17293.1 846.864 17293 847.06 17292.9 847.292C17292.9 847.516 17292.8 847.732 17292.8 847.94C17292.7 848.14 17292.7 848.284 17292.6 848.372L17292 850.436H17294.3L17293.6 848.372ZM17301.7 847.34C17302.5 847.34 17303.1 847.628 17303.5 848.204C17304 848.772 17304.2 849.612 17304.2 850.724C17304.2 851.46 17304.1 852.084 17303.9 852.596C17303.7 853.1 17303.4 853.48 17303 853.736C17302.6 853.992 17302.2 854.12 17301.7 854.12C17301.4 854.12 17301.1 854.08 17300.9 854C17300.6 853.92 17300.4 853.816 17300.3 853.688C17300.1 853.552 17300 853.412 17299.9 853.268H17299.8C17299.8 853.42 17299.8 853.58 17299.8 853.748C17299.8 853.916 17299.9 854.08 17299.9 854.24V856.88H17298.2V847.46H17299.5L17299.8 848.312H17299.9C17300 848.136 17300.1 847.976 17300.3 847.832C17300.5 847.68 17300.7 847.56 17300.9 847.472C17301.1 847.384 17301.4 847.34 17301.7 847.34ZM17301.2 848.708C17300.9 848.708 17300.6 848.776 17300.4 848.912C17300.2 849.04 17300.1 849.24 17300 849.512C17299.9 849.776 17299.9 850.112 17299.9 850.52V850.712C17299.9 851.144 17299.9 851.512 17300 851.816C17300.1 852.112 17300.2 852.34 17300.4 852.5C17300.6 852.652 17300.9 852.728 17301.2 852.728C17301.5 852.728 17301.7 852.652 17301.9 852.5C17302.1 852.34 17302.3 852.108 17302.3 851.804C17302.4 851.492 17302.5 851.124 17302.5 850.7C17302.5 850.044 17302.4 849.548 17302.2 849.212C17302 848.876 17301.6 848.708 17301.2 848.708ZM17309.3 847.34C17310 847.34 17310.6 847.628 17311.1 848.204C17311.6 848.772 17311.8 849.612 17311.8 850.724C17311.8 851.46 17311.7 852.084 17311.5 852.596C17311.3 853.1 17311 853.48 17310.6 853.736C17310.2 853.992 17309.8 854.12 17309.3 854.12C17308.9 854.12 17308.7 854.08 17308.4 854C17308.2 853.92 17308 853.816 17307.8 853.688C17307.7 853.552 17307.5 853.412 17307.4 853.268H17307.3C17307.4 853.42 17307.4 853.58 17307.4 853.748C17307.4 853.916 17307.4 854.08 17307.4 854.24V856.88H17305.7V847.46H17307.1L17307.3 848.312H17307.4C17307.5 848.136 17307.7 847.976 17307.9 847.832C17308 847.68 17308.2 847.56 17308.5 847.472C17308.7 847.384 17309 847.34 17309.3 847.34ZM17308.8 848.708C17308.4 848.708 17308.2 848.776 17308 848.912C17307.8 849.04 17307.7 849.24 17307.6 849.512C17307.5 849.776 17307.4 850.112 17307.4 850.52V850.712C17307.4 851.144 17307.5 851.512 17307.5 851.816C17307.6 852.112 17307.8 852.34 17308 852.5C17308.2 852.652 17308.4 852.728 17308.8 852.728C17309.1 852.728 17309.3 852.652 17309.5 852.5C17309.7 852.34 17309.8 852.108 17309.9 851.804C17310 851.492 17310.1 851.124 17310.1 850.7C17310.1 850.044 17309.9 849.548 17309.7 849.212C17309.5 848.876 17309.2 848.708 17308.8 848.708ZM17319.2 850.724C17319.2 851.268 17319.1 851.752 17319 852.176C17318.8 852.592 17318.6 852.948 17318.3 853.244C17318.1 853.532 17317.7 853.752 17317.3 853.904C17317 854.048 17316.5 854.12 17316 854.12C17315.6 854.12 17315.2 854.048 17314.8 853.904C17314.4 853.752 17314.1 853.532 17313.8 853.244C17313.5 852.948 17313.3 852.588 17313.1 852.164C17313 851.74 17312.9 851.256 17312.9 850.712C17312.9 849.992 17313 849.384 17313.3 848.888C17313.5 848.384 17313.9 848 17314.4 847.736C17314.9 847.472 17315.4 847.34 17316.1 847.34C17316.7 847.34 17317.2 847.472 17317.7 847.736C17318.2 848 17318.5 848.384 17318.8 848.888C17319.1 849.384 17319.2 849.996 17319.2 850.724ZM17314.6 850.724C17314.6 851.164 17314.7 851.536 17314.8 851.84C17314.9 852.136 17315 852.36 17315.2 852.512C17315.5 852.664 17315.7 852.74 17316.1 852.74C17316.4 852.74 17316.7 852.664 17316.9 852.512C17317.1 852.36 17317.2 852.136 17317.3 851.84C17317.4 851.536 17317.5 851.164 17317.5 850.724C17317.5 850.276 17317.4 849.904 17317.3 849.608C17317.2 849.312 17317.1 849.092 17316.9 848.948C17316.6 848.796 17316.4 848.72 17316 848.72C17315.6 848.72 17315.2 848.888 17315 849.224C17314.7 849.56 17314.6 850.06 17314.6 850.724ZM17322.4 847.46V854H17320.7V847.46H17322.4ZM17321.6 844.916C17321.8 844.916 17322 844.976 17322.2 845.096C17322.4 845.216 17322.5 845.44 17322.5 845.768C17322.5 846.08 17322.4 846.3 17322.2 846.428C17322 846.556 17321.8 846.62 17321.6 846.62C17321.3 846.62 17321.1 846.556 17320.9 846.428C17320.7 846.3 17320.6 846.08 17320.6 845.768C17320.6 845.44 17320.7 845.216 17320.9 845.096C17321.1 844.976 17321.3 844.916 17321.6 844.916ZM17327.9 847.34C17328.7 847.34 17329.2 847.532 17329.6 847.916C17330.1 848.292 17330.3 848.9 17330.3 849.74V854H17328.6V850.136C17328.6 849.664 17328.5 849.308 17328.3 849.068C17328.1 848.828 17327.8 848.708 17327.5 848.708C17326.9 848.708 17326.5 848.896 17326.3 849.272C17326.1 849.648 17326 850.188 17326 850.892V854H17324.3V847.46H17325.6L17325.8 848.3H17325.9C17326.1 848.076 17326.2 847.896 17326.5 847.76C17326.7 847.616 17326.9 847.512 17327.2 847.448C17327.4 847.376 17327.7 847.34 17327.9 847.34ZM17334.8 852.752C17335 852.752 17335.2 852.736 17335.4 852.704C17335.6 852.664 17335.8 852.616 17335.9 852.56V853.832C17335.7 853.912 17335.5 853.98 17335.2 854.036C17335 854.092 17334.7 854.12 17334.3 854.12C17334 854.12 17333.6 854.056 17333.3 853.928C17333 853.8 17332.8 853.58 17332.6 853.268C17332.4 852.956 17332.3 852.524 17332.3 851.972V848.744H17331.5V848.024L17332.4 847.436L17332.9 846.056H17334V847.46H17335.9V848.744H17334V851.96C17334 852.232 17334.1 852.432 17334.2 852.56C17334.4 852.688 17334.6 852.752 17334.8 852.752ZM17344.9 847.34C17345.6 847.34 17346.2 847.532 17346.5 847.916C17346.9 848.292 17347.1 848.9 17347.1 849.74V854H17345.4V850.136C17345.4 849.664 17345.3 849.308 17345.2 849.068C17345 848.828 17344.7 848.708 17344.4 848.708C17343.9 848.708 17343.5 848.88 17343.3 849.224C17343.1 849.56 17343 850.048 17343 850.688V854H17341.3V850.136C17341.3 849.824 17341.3 849.564 17341.2 849.356C17341.1 849.14 17341 848.98 17340.9 848.876C17340.7 848.764 17340.5 848.708 17340.3 848.708C17340 848.708 17339.7 848.792 17339.5 848.96C17339.3 849.128 17339.2 849.376 17339.1 849.704C17339 850.024 17338.9 850.416 17338.9 850.88V854H17337.2V847.46H17338.6L17338.8 848.3H17338.9C17339 848.076 17339.2 847.896 17339.4 847.76C17339.6 847.616 17339.8 847.512 17340 847.448C17340.3 847.376 17340.5 847.34 17340.8 847.34C17341.3 847.34 17341.7 847.42 17342 847.58C17342.3 847.74 17342.6 847.984 17342.8 848.312H17342.9C17343.1 847.976 17343.4 847.732 17343.7 847.58C17344.1 847.42 17344.5 847.34 17344.9 847.34ZM17351.6 847.34C17352.2 847.34 17352.8 847.456 17353.2 847.688C17353.6 847.92 17354 848.256 17354.2 848.696C17354.4 849.136 17354.5 849.672 17354.5 850.304V851.144H17350.3C17350.3 851.672 17350.5 852.088 17350.8 852.392C17351 852.688 17351.5 852.836 17352 852.836C17352.4 852.836 17352.8 852.796 17353.1 852.716C17353.5 852.628 17353.8 852.5 17354.2 852.332V853.652C17353.9 853.812 17353.5 853.928 17353.2 854C17352.8 854.08 17352.4 854.12 17351.9 854.12C17351.2 854.12 17350.7 854 17350.2 853.76C17349.7 853.512 17349.3 853.14 17349 852.644C17348.7 852.148 17348.6 851.528 17348.6 850.784C17348.6 850.016 17348.7 849.38 17349 848.876C17349.2 848.372 17349.6 847.992 17350 847.736C17350.5 847.472 17351 847.34 17351.6 847.34ZM17351.7 848.564C17351.3 848.564 17351 848.684 17350.7 848.924C17350.5 849.156 17350.4 849.516 17350.3 850.004H17352.9C17352.9 849.724 17352.9 849.476 17352.8 849.26C17352.7 849.044 17352.6 848.876 17352.4 848.756C17352.2 848.628 17351.9 848.564 17351.7 848.564ZM17359.7 847.34C17360.4 847.34 17360.9 847.532 17361.4 847.916C17361.8 848.292 17362 848.9 17362 849.74V854H17360.3V850.136C17360.3 849.664 17360.2 849.308 17360 849.068C17359.9 848.828 17359.6 848.708 17359.2 848.708C17358.6 848.708 17358.2 848.896 17358 849.272C17357.8 849.648 17357.7 850.188 17357.7 850.892V854H17356V847.46H17357.3L17357.6 848.3H17357.7C17357.8 848.076 17358 847.896 17358.2 847.76C17358.4 847.616 17358.6 847.512 17358.9 847.448C17359.1 847.376 17359.4 847.34 17359.7 847.34ZM17366.5 852.752C17366.7 852.752 17366.9 852.736 17367.1 852.704C17367.3 852.664 17367.5 852.616 17367.7 852.56V853.832C17367.5 853.912 17367.2 853.98 17367 854.036C17366.7 854.092 17366.4 854.12 17366.1 854.12C17365.7 854.12 17365.3 854.056 17365 853.928C17364.7 853.8 17364.5 853.58 17364.3 853.268C17364.1 852.956 17364 852.524 17364 851.972V848.744H17363.2V848.024L17364.2 847.436L17364.7 846.056H17365.7V847.46H17367.6V848.744H17365.7V851.96C17365.7 852.232 17365.8 852.432 17366 852.56C17366.1 852.688 17366.3 852.752 17366.5 852.752ZM17374.8 852.752C17375 852.752 17375.2 852.736 17375.3 852.704C17375.5 852.664 17375.7 852.616 17375.9 852.56V853.832C17375.7 853.912 17375.5 853.98 17375.2 854.036C17374.9 854.092 17374.6 854.12 17374.3 854.12C17373.9 854.12 17373.6 854.056 17373.3 853.928C17373 853.8 17372.7 853.58 17372.5 853.268C17372.4 852.956 17372.3 852.524 17372.3 851.972V848.744H17371.4V848.024L17372.4 847.436L17372.9 846.056H17374V847.46H17375.8V848.744H17374V851.96C17374 852.232 17374 852.432 17374.2 852.56C17374.3 852.688 17374.5 852.752 17374.8 852.752ZM17378.9 847.46V854H17377.2V847.46H17378.9ZM17378 844.916C17378.3 844.916 17378.5 844.976 17378.7 845.096C17378.9 845.216 17379 845.44 17379 845.768C17379 846.08 17378.9 846.3 17378.7 846.428C17378.5 846.556 17378.3 846.62 17378 846.62C17377.8 846.62 17377.6 846.556 17377.4 846.428C17377.2 846.3 17377.1 846.08 17377.1 845.768C17377.1 845.44 17377.2 845.216 17377.4 845.096C17377.6 844.976 17377.8 844.916 17378 844.916ZM17383.5 852.752C17383.7 852.752 17383.9 852.736 17384 852.704C17384.2 852.664 17384.4 852.616 17384.6 852.56V853.832C17384.4 853.912 17384.2 853.98 17383.9 854.036C17383.6 854.092 17383.3 854.12 17383 854.12C17382.6 854.12 17382.3 854.056 17382 853.928C17381.7 853.8 17381.4 853.58 17381.2 853.268C17381.1 852.956 17381 852.524 17381 851.972V848.744H17380.1V848.024L17381.1 847.436L17381.6 846.056H17382.7V847.46H17384.5V848.744H17382.7V851.96C17382.7 852.232 17382.7 852.432 17382.9 852.56C17383 852.688 17383.2 852.752 17383.5 852.752ZM17387.6 854H17385.9V844.88H17387.6V854ZM17392.2 847.34C17392.8 847.34 17393.3 847.456 17393.7 847.688C17394.2 847.92 17394.5 848.256 17394.7 848.696C17395 849.136 17395.1 849.672 17395.1 850.304V851.144H17390.8C17390.8 851.672 17391 852.088 17391.3 852.392C17391.6 852.688 17392 852.836 17392.5 852.836C17392.9 852.836 17393.3 852.796 17393.7 852.716C17394 852.628 17394.4 852.5 17394.7 852.332V853.652C17394.4 853.812 17394.1 853.928 17393.7 854C17393.4 854.08 17392.9 854.12 17392.4 854.12C17391.8 854.12 17391.2 854 17390.7 853.76C17390.2 853.512 17389.8 853.14 17389.5 852.644C17389.2 852.148 17389.1 851.528 17389.1 850.784C17389.1 850.016 17389.2 849.38 17389.5 848.876C17389.7 848.372 17390.1 847.992 17390.6 847.736C17391 847.472 17391.6 847.34 17392.2 847.34ZM17392.2 848.564C17391.8 848.564 17391.5 848.684 17391.3 848.924C17391 849.156 17390.9 849.516 17390.9 850.004H17393.5C17393.5 849.724 17393.4 849.476 17393.3 849.26C17393.2 849.044 17393.1 848.876 17392.9 848.756C17392.7 848.628 17392.5 848.564 17392.2 848.564Z" fill="#1F1F1F" id="n2893"/>
<path d="M17277 769V767H17275V769H17277ZM17478 769H17480V767H17478V769ZM17478 924V926H17480V924H17478ZM17277 924H17275V926H17277V924ZM17277 769V771H17478V769V767H17277V769ZM17478 769H17476V924H17478H17480V769H17478ZM17478 924V922H17277V924V926H17478V924ZM17277 924H17279V769H17277H17275V924H17277Z" fill="#4271B3" mask="url(#path-2510-outside-155_1702_11540)" id="n2896"/>
<rect x="17277.5" y="769.5" width="200" height="154" stroke="#FCFCFC" id="n2897"/>
</g>
</svg>
