<?xml version='1.0' encoding='utf-8'?>
<svg xmlns="http://www.w3.org/2000/svg" xmlns:xlink="http://www.w3.org/1999/xlink" width="320.0" height="568.0" viewBox="0 0 320.0 568.0" fill="none">
  <defs><clipPath id="clip__asset"><rect x="0" y="0" width="320.0" height="568.0"/></clipPath><mask id="path-837-inside-57_1702_11540" fill="white">
<path d="M3270 928H3590V1128H3270V928Z" id="n989"/>
</mask>
<mask id="path-840-inside-58_1702_11540" fill="white">
<path d="M3294 957.6C3294 954.24 3294 952.56 3294.65 951.276C3295.23 950.147 3296.15 949.229 3297.28 948.654C3298.56 948 3300.24 948 3303.6 948H3316.4C3319.76 948 3321.44 948 3322.72 948.654C3323.85 949.229 3324.77 950.147 3325.35 951.276C3326 952.56 3326 954.24 3326 957.6V970.4C3326 973.76 3326 975.44 3325.35 976.724C3324.77 977.853 3323.85 978.771 3322.72 979.346C3321.44 980 3319.76 980 3316.4 980H3303.6C3300.24 980 3298.56 980 3297.28 979.346C3296.15 978.771 3295.23 977.853 3294.65 976.724C3294 975.44 3294 973.76 3294 970.4V957.6Z" id="n991"/>
</mask>
<mask id="path-847-inside-59_1702_11540" fill="white">
<path d="M3294 1089.6C3294 1086.24 3294 1084.56 3294.65 1083.28C3295.23 1082.15 3296.15 1081.23 3297.28 1080.65C3298.56 1080 3300.24 1080 3303.6 1080H3556.4C3559.76 1080 3561.44 1080 3562.72 1080.65C3563.85 1081.23 3564.77 1082.15 3565.35 1083.28C3566 1084.56 3566 1086.24 3566 1089.6V1102.4C3566 1105.76 3566 1107.44 3565.35 1108.72C3564.77 1109.85 3563.85 1110.77 3562.72 1111.35C3561.44 1112 3559.76 1112 3556.4 1112H3303.6C3300.24 1112 3298.56 1112 3297.28 1111.35C3296.15 1110.77 3295.23 1109.85 3294.65 1108.72C3294 1107.44 3294 1105.76 3294 1102.4V1089.6Z" id="n1002"/>
</mask>
<mask id="path-866-inside-60_1702_11540" fill="white">
<path d="M3270 1432H3590V1496H3270V1432Z" id="n1017"/>
</mask>
<filter id="filter19_d_1702_11540" x="3254" y="916" width="352" height="600" filterUnits="userSpaceOnUse" color-interpolation-filters="sRGB">
<feFlood flood-opacity="0" result="BackgroundImageFix" id="n3248"/>
<feColorMatrix in="SourceAlpha" type="matrix" values="0 0 0 0 0 0 0 0 0 0 0 0 0 0 0 0 0 0 127 0" result="hardAlpha" id="n3249"/>
<feOffset dy="4" id="n3250"/>
<feGaussianBlur stdDeviation="8" id="n3251"/>
<feComposite in2="hardAlpha" operator="out" id="n3252"/>
<feColorMatrix type="matrix" values="0 0 0 0 0 0 0 0 0 0 0 0 0 0 0 0 0 0 0.32 0" id="n3253"/>
<feBlend mode="normal" in2="BackgroundImageFix" result="effect1_dropShadow_1702_11540" id="n3254"/>
<feBlend mode="normal" in="SourceGraphic" in2="effect1_dropShadow_1702_11540" result="shape" id="n3255"/>
</filter>
<clipPath id="clip23_1702_11540">
<path d="M3270 940C3270 933.373 3275.37 928 3282 928H3578C3584.63 928 3590 933.373 3590 940V1484C3590 1490.63 3584.63 1496 3578 1496H3282C3275.37 1496 3270 1490.63 3270 1484V940Z" fill="white" id="n3458"/>
</clipPath>
</defs>
  <g clip-path="url(#clip__asset)" transform="translate(-3270.0 -928.0)"><g filter="url(#filter19_d_1702_11540)" id="n986">
<g clip-path="url(#clip23_1702_11540)" id="n987">
<path d="M3270 940C3270 933.373 3275.37 928 3282 928H3578C3584.63 928 3590 933.373 3590 940V1484C3590 1490.63 3584.63 1496 3578 1496H3282C3275.37 1496 3270 1490.63 3270 1484V940Z" fill="#FCFCFC" id="n988"/>
<mask id="path-837-inside-57_1702_11540" fill="white">
<path d="M3270 928H3590V1128H3270V928Z" id="n989"/>
</mask>
<path d="M3590 1128V1127H3270V1128V1129H3590V1128Z" fill="#DDDDDD" mask="url(#path-837-inside-57_1702_11540)" id="n990"/>
<mask id="path-840-inside-58_1702_11540" fill="white">
<path d="M3294 957.6C3294 954.24 3294 952.56 3294.65 951.276C3295.23 950.147 3296.15 949.229 3297.28 948.654C3298.56 948 3300.24 948 3303.6 948H3316.4C3319.76 948 3321.44 948 3322.72 948.654C3323.85 949.229 3324.77 950.147 3325.35 951.276C3326 952.56 3326 954.24 3326 957.6V970.4C3326 973.76 3326 975.44 3325.35 976.724C3324.77 977.853 3323.85 978.771 3322.72 979.346C3321.44 980 3319.76 980 3316.4 980H3303.6C3300.24 980 3298.56 980 3297.28 979.346C3296.15 978.771 3295.23 977.853 3294.65 976.724C3294 975.44 3294 973.76 3294 970.4V957.6Z" id="n991"/>
</mask>
<path d="M3294 957.6C3294 954.24 3294 952.56 3294.65 951.276C3295.23 950.147 3296.15 949.229 3297.28 948.654C3298.56 948 3300.24 948 3303.6 948H3316.4C3319.76 948 3321.44 948 3322.72 948.654C3323.85 949.229 3324.77 950.147 3325.35 951.276C3326 952.56 3326 954.24 3326 957.6V970.4C3326 973.76 3326 975.44 3325.35 976.724C3324.77 977.853 3323.85 978.771 3322.72 979.346C3321.44 980 3319.76 980 3316.4 980H3303.6C3300.24 980 3298.56 980 3297.28 979.346C3296.15 978.771 3295.23 977.853 3294.65 976.724C3294 975.44 3294 973.76 3294 970.4V957.6Z" fill="white" id="n992"/>
<path d="M3297.28 979.346L3297.73 978.455L3297.28 979.346ZM3325.35 976.724L3326.24 977.178L3325.35 976.724ZM3322.72 979.346L3323.18 980.237L3322.72 979.346ZM3322.72 948.654L3322.27 949.545L3322.72 948.654ZM3325.35 951.276L3324.46 951.73L3325.35 951.276ZM3303.6 948V949H3316.4V948V947H3303.6V948ZM3326 957.6H3325V970.4H3326H3327V957.6H3326ZM3316.4 980V979H3303.6V980V981H3316.4V980ZM3294 970.4H3295V957.6H3294H3293V970.4H3294ZM3303.6 980V979C3301.9 979 3300.69 978.999 3299.74 978.922C3298.8 978.845 3298.21 978.698 3297.73 978.455L3297.28 979.346L3296.82 980.237C3297.63 980.648 3298.52 980.828 3299.58 980.915C3300.63 981.001 3301.94 981 3303.6 981V980ZM3294 970.4H3293C3293 972.064 3293 973.372 3293.09 974.422C3293.17 975.485 3293.35 976.372 3293.76 977.178L3294.65 976.724L3295.54 976.27C3295.3 975.793 3295.16 975.198 3295.08 974.259C3295 973.309 3295 972.097 3295 970.4H3294ZM3297.28 979.346L3297.73 978.455C3296.79 977.976 3296.02 977.211 3295.54 976.27L3294.65 976.724L3293.76 977.178C3294.43 978.495 3295.5 979.566 3296.82 980.237L3297.28 979.346ZM3326 970.4H3325C3325 972.097 3325 973.309 3324.92 974.259C3324.84 975.198 3324.7 975.793 3324.46 976.27L3325.35 976.724L3326.24 977.178C3326.65 976.372 3326.83 975.485 3326.91 974.422C3327 973.372 3327 972.064 3327 970.4H3326ZM3316.4 980V981C3318.06 981 3319.37 981.001 3320.42 980.915C3321.48 980.828 3322.37 980.648 3323.18 980.237L3322.72 979.346L3322.27 978.455C3321.79 978.698 3321.2 978.845 3320.26 978.922C3319.31 978.999 3318.1 979 3316.4 979V980ZM3325.35 976.724L3324.46 976.27C3323.98 977.211 3323.21 977.976 3322.27 978.455L3322.72 979.346L3323.18 980.237C3324.5 979.566 3325.57 978.495 3326.24 977.178L3325.35 976.724ZM3316.4 948V949C3318.1 949 3319.31 949.001 3320.26 949.078C3321.2 949.155 3321.79 949.302 3322.27 949.545L3322.72 948.654L3323.18 947.763C3322.37 947.352 3321.48 947.172 3320.42 947.085C3319.37 946.999 3318.06 947 3316.4 947V948ZM3326 957.6H3327C3327 955.936 3327 954.628 3326.91 953.578C3326.83 952.515 3326.65 951.628 3326.24 950.822L3325.35 951.276L3324.46 951.73C3324.7 952.207 3324.84 952.802 3324.92 953.741C3325 954.691 3325 955.903 3325 957.6H3326ZM3322.72 948.654L3322.27 949.545C3323.21 950.024 3323.98 950.789 3324.46 951.73L3325.35 951.276L3326.24 950.822C3325.57 949.505 3324.5 948.434 3323.18 947.763L3322.72 948.654ZM3303.6 948V947C3301.94 947 3300.63 946.999 3299.58 947.085C3298.52 947.172 3297.63 947.352 3296.82 947.763L3297.28 948.654L3297.73 949.545C3298.21 949.302 3298.8 949.155 3299.74 949.078C3300.69 949.001 3301.9 949 3303.6 949V948ZM3294 957.6H3295C3295 955.903 3295 954.691 3295.08 953.741C3295.16 952.802 3295.3 952.207 3295.54 951.73L3294.65 951.276L3293.76 950.822C3293.35 951.628 3293.17 952.515 3293.09 953.578C3293 954.628 3293 955.936 3293 957.6H3294ZM3297.28 948.654L3296.82 947.763C3295.5 948.434 3294.43 949.505 3293.76 950.822L3294.65 951.276L3295.54 951.73C3296.02 950.789 3296.79 950.024 3297.73 949.545L3297.28 948.654Z" fill="#BEBEBE" mask="url(#path-840-inside-58_1702_11540)" id="n993"/>
<path fill-rule="evenodd" clip-rule="evenodd" d="M3312 970L3313.41 968.59L3308.83 964L3313.41 959.41L3312 958L3306 964L3312 970Z" fill="#535353" id="n994"/>
<path d="M3357.09 966.576L3354.11 978H3351.98L3350.11 971.296C3350.07 971.125 3350.02 970.923 3349.95 970.688C3349.9 970.453 3349.85 970.213 3349.79 969.968C3349.74 969.723 3349.69 969.499 3349.65 969.296C3349.61 969.083 3349.58 968.923 3349.57 968.816C3349.56 968.923 3349.53 969.083 3349.49 969.296C3349.45 969.499 3349.4 969.723 3349.34 969.968C3349.29 970.213 3349.24 970.459 3349.18 970.704C3349.13 970.939 3349.08 971.147 3349.02 971.328L3347.2 978H3345.06L3342.1 966.576H3344.06L3345.66 973.168C3345.72 973.381 3345.77 973.616 3345.82 973.872C3345.88 974.117 3345.93 974.368 3345.98 974.624C3346.04 974.88 3346.08 975.131 3346.11 975.376C3346.15 975.611 3346.19 975.829 3346.22 976.032C3346.25 975.819 3346.28 975.595 3346.32 975.36C3346.36 975.115 3346.41 974.864 3346.46 974.608C3346.52 974.341 3346.57 974.091 3346.62 973.856C3346.68 973.611 3346.73 973.397 3346.78 973.216L3348.61 966.576H3350.53L3352.38 973.232C3352.44 973.424 3352.49 973.643 3352.54 973.888C3352.61 974.133 3352.67 974.384 3352.72 974.64C3352.77 974.896 3352.82 975.147 3352.86 975.392C3352.91 975.627 3352.94 975.84 3352.96 976.032C3352.99 975.765 3353.03 975.467 3353.09 975.136C3353.15 974.795 3353.22 974.453 3353.3 974.112C3353.38 973.76 3353.46 973.44 3353.52 973.152L3355.12 966.576H3357.09ZM3360.55 969.344V978H3358.63V969.344H3360.55ZM3359.61 966.016C3359.9 966.016 3360.15 966.096 3360.36 966.256C3360.57 966.405 3360.68 966.672 3360.68 967.056C3360.68 967.429 3360.57 967.696 3360.36 967.856C3360.15 968.016 3359.9 968.096 3359.61 968.096C3359.31 968.096 3359.05 968.016 3358.84 967.856C3358.64 967.696 3358.54 967.429 3358.54 967.056C3358.54 966.672 3358.64 966.405 3358.84 966.256C3359.05 966.096 3359.31 966.016 3359.61 966.016ZM3362.58 974.528V972.896H3366.61V974.528H3362.58ZM3370.75 978H3368.81V966.576H3375.29V968.224H3370.75V971.68H3374.99V973.328H3370.75V978ZM3379.25 969.344V978H3377.33V969.344H3379.25ZM3378.31 966.016C3378.6 966.016 3378.85 966.096 3379.06 966.256C3379.27 966.405 3379.38 966.672 3379.38 967.056C3379.38 967.429 3379.27 967.696 3379.06 967.856C3378.85 968.016 3378.6 968.096 3378.31 968.096C3378.01 968.096 3377.75 968.016 3377.54 967.856C3377.34 967.696 3377.24 967.429 3377.24 967.056C3377.24 966.672 3377.34 966.405 3377.54 966.256C3377.75 966.096 3378.01 966.016 3378.31 966.016Z" fill="#535353" id="n995"/>
<path d="M3312 1049.55C3315.32 1046.23 3320.7 1046.23 3324 1049.55L3318 1055.55L3312 1049.55Z" fill="#1F1F1F" id="n996"/>
<path d="M3333.56 1051.56L3330.73 1054.38L3317.76 1041.42C3314.22 1041.48 3310.7 1042.85 3308 1045.55L3304 1041.55C3306.53 1039.03 3309.58 1037.33 3312.8 1036.46L3308.34 1031.99C3305.3 1033.24 3302.46 1035.09 3300 1037.55L3296 1033.55C3298.43 1031.13 3301.16 1029.19 3304.07 1027.73L3299.62 1023.27L3302.44 1020.44L3333.56 1051.56Z" fill="#1F1F1F" id="n997"/>
<path d="M3324.52 1036.86C3327.25 1037.81 3329.82 1039.37 3332 1041.55L3330.6 1042.95L3324.52 1036.86Z" fill="#1F1F1F" id="n998"/>
<path d="M3312.58 1024.92C3322.24 1023.22 3332.55 1026.1 3340 1033.55L3336 1037.55C3330.97 1032.52 3324.36 1030.04 3317.76 1030.11L3312.58 1024.92Z" fill="#1F1F1F" id="n999"/>
<path d="M3368.9 1032.18C3368.9 1033.46 3368.65 1034.53 3368.16 1035.39C3367.67 1036.26 3366.96 1036.91 3366.03 1037.34C3365.1 1037.78 3363.98 1038 3362.67 1038H3359.46V1026.58H3363.02C3364.22 1026.58 3365.25 1026.79 3366.13 1027.22C3367 1027.64 3367.68 1028.27 3368.16 1029.1C3368.65 1029.93 3368.9 1030.95 3368.9 1032.18ZM3366.5 1032.24C3366.5 1031.38 3366.37 1030.67 3366.11 1030.11C3365.86 1029.56 3365.47 1029.15 3364.96 1028.88C3364.46 1028.61 3363.85 1028.48 3363.12 1028.48H3361.76V1036.08H3362.86C3364.08 1036.08 3364.99 1035.76 3365.58 1035.12C3366.19 1034.48 3366.5 1033.52 3366.5 1032.24ZM3373.36 1029.28V1038H3371.09V1029.28H3373.36ZM3372.23 1025.89C3372.57 1025.89 3372.86 1025.97 3373.11 1026.13C3373.35 1026.29 3373.48 1026.59 3373.48 1027.02C3373.48 1027.44 3373.35 1027.73 3373.11 1027.9C3372.86 1028.07 3372.57 1028.16 3372.23 1028.16C3371.89 1028.16 3371.59 1028.07 3371.35 1027.9C3371.11 1027.73 3371 1027.44 3371 1027.02C3371 1026.59 3371.11 1026.29 3371.35 1026.13C3371.59 1025.97 3371.89 1025.89 3372.23 1025.89ZM3381.92 1035.44C3381.92 1036.02 3381.78 1036.51 3381.51 1036.91C3381.23 1037.32 3380.81 1037.63 3380.26 1037.84C3379.71 1038.05 3379.04 1038.16 3378.23 1038.16C3377.62 1038.16 3377.09 1038.12 3376.66 1038.03C3376.23 1037.96 3375.8 1037.83 3375.38 1037.65V1035.76C3375.83 1035.96 3376.32 1036.13 3376.85 1036.27C3377.39 1036.41 3377.88 1036.48 3378.31 1036.48C3378.81 1036.48 3379.16 1036.41 3379.36 1036.26C3379.57 1036.11 3379.68 1035.91 3379.68 1035.68C3379.68 1035.52 3379.64 1035.38 3379.55 1035.26C3379.47 1035.14 3379.29 1035 3379.03 1034.85C3378.76 1034.69 3378.34 1034.5 3377.78 1034.27C3377.22 1034.04 3376.77 1033.81 3376.42 1033.58C3376.07 1033.35 3375.8 1033.07 3375.62 1032.75C3375.45 1032.43 3375.36 1032.03 3375.36 1031.54C3375.36 1030.74 3375.67 1030.13 3376.29 1029.73C3376.92 1029.32 3377.75 1029.12 3378.79 1029.12C3379.33 1029.12 3379.84 1029.17 3380.32 1029.28C3380.81 1029.39 3381.31 1029.56 3381.83 1029.79L3381.12 1031.44C3380.84 1031.31 3380.57 1031.21 3380.31 1031.12C3380.04 1031.02 3379.78 1030.95 3379.52 1030.9C3379.28 1030.84 3379.02 1030.82 3378.75 1030.82C3378.37 1030.82 3378.08 1030.87 3377.89 1030.98C3377.7 1031.08 3377.6 1031.24 3377.6 1031.44C3377.6 1031.59 3377.65 1031.72 3377.75 1031.84C3377.84 1031.96 3378.02 1032.09 3378.29 1032.22C3378.57 1032.35 3378.96 1032.52 3379.47 1032.74C3379.99 1032.94 3380.42 1033.15 3380.79 1033.38C3381.15 1033.59 3381.43 1033.86 3381.62 1034.18C3381.82 1034.5 3381.92 1034.92 3381.92 1035.44ZM3387.35 1038.16C3386.49 1038.16 3385.76 1038.01 3385.15 1037.7C3384.55 1037.38 3384.08 1036.89 3383.76 1036.22C3383.44 1035.56 3383.28 1034.72 3383.28 1033.7C3383.28 1032.63 3383.46 1031.76 3383.83 1031.09C3384.19 1030.42 3384.69 1029.92 3385.33 1029.6C3385.97 1029.28 3386.71 1029.12 3387.54 1029.12C3388.13 1029.12 3388.64 1029.18 3389.07 1029.3C3389.51 1029.41 3389.89 1029.55 3390.21 1029.7L3389.54 1031.46C3389.18 1031.32 3388.83 1031.2 3388.5 1031.1C3388.18 1031.01 3387.86 1030.96 3387.54 1030.96C3387.1 1030.96 3386.74 1031.06 3386.45 1031.26C3386.16 1031.47 3385.95 1031.77 3385.81 1032.18C3385.67 1032.57 3385.6 1033.07 3385.6 1033.68C3385.6 1034.27 3385.68 1034.76 3385.83 1035.15C3385.98 1035.54 3386.19 1035.82 3386.48 1036.02C3386.77 1036.21 3387.12 1036.3 3387.52 1036.3C3388.02 1036.3 3388.47 1036.24 3388.85 1036.11C3389.23 1035.98 3389.6 1035.81 3389.95 1035.58V1037.52C3389.6 1037.74 3389.23 1037.9 3388.83 1038C3388.44 1038.11 3387.94 1038.16 3387.35 1038.16ZM3399.84 1033.63C3399.84 1034.36 3399.74 1035 3399.55 1035.57C3399.36 1036.12 3399.08 1036.6 3398.7 1036.99C3398.34 1037.38 3397.9 1037.67 3397.38 1037.87C3396.86 1038.06 3396.28 1038.16 3395.63 1038.16C3395.02 1038.16 3394.46 1038.06 3393.94 1037.87C3393.42 1037.67 3392.98 1037.38 3392.61 1036.99C3392.24 1036.6 3391.96 1036.12 3391.74 1035.55C3391.54 1034.99 3391.44 1034.34 3391.44 1033.62C3391.44 1032.66 3391.61 1031.85 3391.95 1031.18C3392.29 1030.51 3392.78 1030 3393.41 1029.65C3394.05 1029.3 3394.8 1029.12 3395.66 1029.12C3396.48 1029.12 3397.2 1029.3 3397.82 1029.65C3398.45 1030 3398.94 1030.51 3399.3 1031.18C3399.66 1031.85 3399.84 1032.66 3399.84 1033.63ZM3393.76 1033.63C3393.76 1034.22 3393.82 1034.71 3393.95 1035.12C3394.08 1035.51 3394.28 1035.81 3394.56 1036.02C3394.85 1036.22 3395.21 1036.32 3395.65 1036.32C3396.1 1036.32 3396.45 1036.22 3396.72 1036.02C3397 1035.81 3397.2 1035.51 3397.33 1035.12C3397.46 1034.71 3397.52 1034.22 3397.52 1033.63C3397.52 1033.03 3397.46 1032.54 3397.33 1032.14C3397.2 1031.75 3397 1031.46 3396.72 1031.26C3396.44 1031.06 3396.08 1030.96 3395.63 1030.96C3394.98 1030.96 3394.51 1031.18 3394.21 1031.63C3393.91 1032.08 3393.76 1032.75 3393.76 1033.63ZM3406.71 1029.12C3407.66 1029.12 3408.41 1029.38 3408.96 1029.89C3409.53 1030.39 3409.81 1031.2 3409.81 1032.32V1038H3407.54V1032.85C3407.54 1032.22 3407.42 1031.74 3407.19 1031.42C3406.95 1031.1 3406.58 1030.94 3406.07 1030.94C3405.32 1030.94 3404.81 1031.19 3404.53 1031.7C3404.25 1032.2 3404.11 1032.92 3404.11 1033.86V1038H3401.84V1029.28H3403.59L3403.89 1030.4H3404.02C3404.21 1030.1 3404.44 1029.86 3404.72 1029.68C3405 1029.49 3405.31 1029.35 3405.65 1029.26C3405.99 1029.17 3406.34 1029.12 3406.71 1029.12ZM3417.16 1029.12C3418.11 1029.12 3418.86 1029.38 3419.42 1029.89C3419.98 1030.39 3420.26 1031.2 3420.26 1032.32V1038H3417.99V1032.85C3417.99 1032.22 3417.87 1031.74 3417.64 1031.42C3417.4 1031.1 3417.03 1030.94 3416.52 1030.94C3415.77 1030.94 3415.26 1031.19 3414.98 1031.7C3414.71 1032.2 3414.57 1032.92 3414.57 1033.86V1038H3412.3V1029.28H3414.04L3414.34 1030.4H3414.47C3414.66 1030.1 3414.9 1029.86 3415.18 1029.68C3415.45 1029.49 3415.76 1029.35 3416.1 1029.26C3416.44 1029.17 3416.8 1029.12 3417.16 1029.12ZM3426.32 1029.12C3427.12 1029.12 3427.8 1029.27 3428.38 1029.58C3428.96 1029.89 3429.4 1030.34 3429.71 1030.93C3430.03 1031.51 3430.19 1032.23 3430.19 1033.07V1034.19H3424.52C3424.55 1034.9 3424.75 1035.45 3425.13 1035.86C3425.53 1036.25 3426.07 1036.45 3426.76 1036.45C3427.33 1036.45 3427.84 1036.39 3428.28 1036.29C3428.74 1036.17 3429.22 1036 3429.71 1035.78V1037.54C3429.28 1037.75 3428.83 1037.9 3428.36 1038C3427.9 1038.11 3427.33 1038.16 3426.67 1038.16C3425.79 1038.16 3425.02 1038 3424.35 1037.68C3423.69 1037.35 3423.16 1036.85 3422.78 1036.19C3422.41 1035.53 3422.22 1034.7 3422.22 1033.71C3422.22 1032.69 3422.39 1031.84 3422.73 1031.17C3423.07 1030.5 3423.55 1029.99 3424.16 1029.65C3424.78 1029.3 3425.5 1029.12 3426.32 1029.12ZM3426.33 1030.75C3425.84 1030.75 3425.44 1030.91 3425.12 1031.23C3424.81 1031.54 3424.63 1032.02 3424.57 1032.67H3428.03C3428.03 1032.3 3427.96 1031.97 3427.84 1031.68C3427.72 1031.39 3427.53 1031.17 3427.28 1031.01C3427.03 1030.84 3426.72 1030.75 3426.33 1030.75ZM3435.69 1038.16C3434.84 1038.16 3434.11 1038.01 3433.5 1037.7C3432.89 1037.38 3432.43 1036.89 3432.11 1036.22C3431.79 1035.56 3431.63 1034.72 3431.63 1033.7C3431.63 1032.63 3431.81 1031.76 3432.17 1031.09C3432.53 1030.42 3433.03 1029.92 3433.67 1029.6C3434.31 1029.28 3435.05 1029.12 3435.88 1029.12C3436.47 1029.12 3436.98 1029.18 3437.42 1029.3C3437.86 1029.41 3438.23 1029.55 3438.55 1029.7L3437.88 1031.46C3437.52 1031.32 3437.17 1031.2 3436.84 1031.1C3436.52 1031.01 3436.2 1030.96 3435.88 1030.96C3435.45 1030.96 3435.08 1031.06 3434.79 1031.26C3434.51 1031.47 3434.29 1031.77 3434.15 1032.18C3434.02 1032.57 3433.95 1033.07 3433.95 1033.68C3433.95 1034.27 3434.02 1034.76 3434.17 1035.15C3434.32 1035.54 3434.54 1035.82 3434.83 1036.02C3435.11 1036.21 3435.46 1036.3 3435.87 1036.3C3436.37 1036.3 3436.81 1036.24 3437.19 1036.11C3437.58 1035.98 3437.95 1035.81 3438.3 1035.58V1037.52C3437.95 1037.74 3437.57 1037.9 3437.18 1038C3436.78 1038.11 3436.29 1038.16 3435.69 1038.16ZM3443.89 1036.34C3444.15 1036.34 3444.4 1036.31 3444.65 1036.27C3444.89 1036.22 3445.13 1036.15 3445.37 1036.08V1037.78C3445.12 1037.88 3444.81 1037.97 3444.44 1038.05C3444.08 1038.12 3443.68 1038.16 3443.25 1038.16C3442.74 1038.16 3442.28 1038.07 3441.88 1037.9C3441.47 1037.73 3441.15 1037.44 3440.9 1037.02C3440.67 1036.61 3440.55 1036.03 3440.55 1035.3V1030.99H3439.4V1030.03L3440.71 1029.25L3441.38 1027.41H3442.82V1029.28H3445.27V1030.99H3442.82V1035.28C3442.82 1035.64 3442.92 1035.91 3443.11 1036.08C3443.31 1036.25 3443.57 1036.34 3443.89 1036.34ZM3450.69 1029.12C3451.49 1029.12 3452.18 1029.27 3452.76 1029.58C3453.33 1029.89 3453.77 1030.34 3454.08 1030.93C3454.4 1031.51 3454.56 1032.23 3454.56 1033.07V1034.19H3448.9C3448.92 1034.9 3449.12 1035.45 3449.51 1035.86C3449.9 1036.25 3450.45 1036.45 3451.14 1036.45C3451.7 1036.45 3452.21 1036.39 3452.66 1036.29C3453.12 1036.17 3453.59 1036 3454.08 1035.78V1037.54C3453.66 1037.75 3453.21 1037.9 3452.74 1038C3452.27 1038.11 3451.7 1038.16 3451.04 1038.16C3450.17 1038.16 3449.4 1038 3448.72 1037.68C3448.06 1037.35 3447.54 1036.85 3447.16 1036.19C3446.78 1035.53 3446.6 1034.7 3446.6 1033.71C3446.6 1032.69 3446.77 1031.84 3447.11 1031.17C3447.45 1030.5 3447.92 1029.99 3448.53 1029.65C3449.15 1029.3 3449.87 1029.12 3450.69 1029.12ZM3450.71 1030.75C3450.22 1030.75 3449.81 1030.91 3449.49 1031.23C3449.18 1031.54 3449 1032.02 3448.95 1032.67H3452.4C3452.4 1032.3 3452.34 1031.97 3452.21 1031.68C3452.09 1031.39 3451.91 1031.17 3451.65 1031.01C3451.41 1030.84 3451.09 1030.75 3450.71 1030.75ZM3459.33 1038.16C3458.35 1038.16 3457.55 1037.78 3456.93 1037.02C3456.31 1036.26 3456 1035.14 3456 1033.66C3456 1032.17 3456.31 1031.04 3456.93 1030.27C3457.56 1029.5 3458.37 1029.12 3459.38 1029.12C3459.8 1029.12 3460.18 1029.18 3460.5 1029.3C3460.82 1029.4 3461.09 1029.55 3461.31 1029.74C3461.55 1029.94 3461.75 1030.15 3461.91 1030.4H3462C3461.97 1030.23 3461.93 1029.98 3461.89 1029.66C3461.85 1029.34 3461.83 1029.02 3461.83 1028.7V1025.84H3464.1V1038H3462.35L3461.92 1036.86H3461.83C3461.68 1037.1 3461.48 1037.32 3461.25 1037.52C3461.03 1037.71 3460.75 1037.87 3460.43 1037.98C3460.12 1038.1 3459.76 1038.16 3459.33 1038.16ZM3460.08 1036.34C3460.77 1036.34 3461.26 1036.14 3461.54 1035.74C3461.81 1035.34 3461.96 1034.74 3461.97 1033.94V1033.68C3461.97 1032.79 3461.83 1032.12 3461.55 1031.66C3461.29 1031.21 3460.79 1030.98 3460.07 1030.98C3459.51 1030.98 3459.08 1031.21 3458.77 1031.68C3458.46 1032.15 3458.31 1032.82 3458.31 1033.7C3458.31 1034.56 3458.46 1035.22 3458.77 1035.66C3459.08 1036.11 3459.52 1036.34 3460.08 1036.34Z" fill="#1F1F1F" id="n1000"/>
<path d="M3365.84 1057H3364.73L3360.03 1049.78H3359.98C3359.99 1049.92 3360 1050.08 3360 1050.26C3360.02 1050.42 3360.03 1050.61 3360.04 1050.81C3360.05 1051 3360.05 1051.2 3360.05 1051.41C3360.06 1051.62 3360.06 1051.82 3360.06 1052.03V1057H3359.18V1048.43H3360.27L3364.96 1055.63H3365C3365 1055.53 3364.99 1055.39 3364.98 1055.22C3364.98 1055.06 3364.97 1054.87 3364.96 1054.67C3364.95 1054.46 3364.94 1054.26 3364.94 1054.05C3364.93 1053.83 3364.92 1053.63 3364.92 1053.45V1048.43H3365.84V1057ZM3373.56 1053.78C3373.56 1054.3 3373.5 1054.77 3373.36 1055.19C3373.22 1055.6 3373.03 1055.94 3372.77 1056.23C3372.52 1056.52 3372.2 1056.74 3371.84 1056.89C3371.47 1057.04 3371.06 1057.12 3370.6 1057.12C3370.17 1057.12 3369.77 1057.04 3369.41 1056.89C3369.06 1056.74 3368.75 1056.52 3368.49 1056.23C3368.23 1055.94 3368.03 1055.6 3367.89 1055.19C3367.75 1054.78 3367.68 1054.31 3367.68 1053.78C3367.68 1053.08 3367.8 1052.48 3368.03 1052C3368.27 1051.5 3368.61 1051.12 3369.05 1050.86C3369.5 1050.59 3370.03 1050.46 3370.64 1050.46C3371.23 1050.46 3371.74 1050.59 3372.17 1050.86C3372.61 1051.12 3372.95 1051.5 3373.19 1052C3373.44 1052.49 3373.56 1053.09 3373.56 1053.78ZM3368.66 1053.78C3368.66 1054.3 3368.72 1054.74 3368.86 1055.13C3369 1055.51 3369.22 1055.81 3369.51 1056.02C3369.8 1056.22 3370.16 1056.33 3370.61 1056.33C3371.07 1056.33 3371.44 1056.22 3371.73 1056.02C3372.02 1055.81 3372.24 1055.51 3372.38 1055.13C3372.51 1054.74 3372.58 1054.3 3372.58 1053.78C3372.58 1053.26 3372.51 1052.82 3372.36 1052.45C3372.23 1052.08 3372.02 1051.78 3371.73 1051.58C3371.45 1051.37 3371.08 1051.26 3370.61 1051.26C3369.94 1051.26 3369.44 1051.49 3369.12 1051.94C3368.81 1052.38 3368.66 1052.99 3368.66 1053.78ZM3388.18 1048.43L3385.89 1057H3384.92L3383.22 1051.18C3383.17 1051.02 3383.12 1050.86 3383.07 1050.7C3383.03 1050.53 3382.99 1050.38 3382.95 1050.23C3382.92 1050.08 3382.89 1049.95 3382.86 1049.84C3382.83 1049.72 3382.81 1049.64 3382.8 1049.57C3382.79 1049.64 3382.77 1049.72 3382.75 1049.84C3382.73 1049.94 3382.7 1050.07 3382.66 1050.22C3382.63 1050.36 3382.6 1050.52 3382.56 1050.68C3382.52 1050.84 3382.47 1051 3382.42 1051.17L3380.76 1057H3379.78L3377.5 1048.43H3378.51L3379.92 1053.86C3379.96 1054.03 3380 1054.21 3380.04 1054.38C3380.08 1054.55 3380.11 1054.72 3380.14 1054.89C3380.18 1055.05 3380.22 1055.2 3380.24 1055.36C3380.26 1055.51 3380.29 1055.66 3380.31 1055.8C3380.34 1055.65 3380.36 1055.5 3380.38 1055.34C3380.42 1055.18 3380.45 1055.02 3380.49 1054.85C3380.53 1054.68 3380.57 1054.5 3380.61 1054.32C3380.66 1054.15 3380.71 1053.98 3380.76 1053.81L3382.32 1048.43H3383.31L3384.92 1053.84C3384.98 1054.02 3385.02 1054.2 3385.06 1054.38C3385.11 1054.56 3385.16 1054.73 3385.2 1054.9C3385.24 1055.06 3385.27 1055.22 3385.29 1055.38C3385.32 1055.53 3385.35 1055.68 3385.38 1055.81C3385.4 1055.62 3385.43 1055.42 3385.46 1055.21C3385.5 1055 3385.55 1054.79 3385.6 1054.56C3385.66 1054.33 3385.72 1054.1 3385.78 1053.86L3387.18 1048.43H3388.18ZM3390.34 1050.58V1057H3389.41V1050.58H3390.34ZM3389.89 1048.18C3390.05 1048.18 3390.18 1048.23 3390.28 1048.34C3390.4 1048.44 3390.45 1048.6 3390.45 1048.82C3390.45 1049.02 3390.4 1049.17 3390.28 1049.28C3390.18 1049.39 3390.05 1049.44 3389.89 1049.44C3389.72 1049.44 3389.58 1049.39 3389.47 1049.28C3389.36 1049.17 3389.31 1049.02 3389.31 1048.82C3389.31 1048.6 3389.36 1048.44 3389.47 1048.34C3389.58 1048.23 3389.72 1048.18 3389.89 1048.18ZM3391.86 1054.19V1053.35H3394.76V1054.19H3391.86ZM3397.38 1057H3396.42V1048.43H3401.18V1049.28H3397.38V1052.46H3400.95V1053.32H3397.38V1057ZM3403.39 1050.58V1057H3402.45V1050.58H3403.39ZM3402.93 1048.18C3403.09 1048.18 3403.22 1048.23 3403.33 1048.34C3403.44 1048.44 3403.49 1048.6 3403.49 1048.82C3403.49 1049.02 3403.44 1049.17 3403.33 1049.28C3403.22 1049.39 3403.09 1049.44 3402.93 1049.44C3402.76 1049.44 3402.62 1049.39 3402.51 1049.28C3402.41 1049.17 3402.35 1049.02 3402.35 1048.82C3402.35 1048.6 3402.41 1048.44 3402.51 1048.34C3402.62 1048.23 3402.76 1048.18 3402.93 1048.18ZM3411.14 1057.12C3410.55 1057.12 3410.04 1057 3409.6 1056.76C3409.16 1056.52 3408.82 1056.16 3408.57 1055.67C3408.33 1055.18 3408.21 1054.57 3408.21 1053.83C3408.21 1053.06 3408.34 1052.42 3408.59 1051.92C3408.86 1051.43 3409.22 1051.06 3409.67 1050.82C3410.13 1050.58 3410.65 1050.46 3411.23 1050.46C3411.55 1050.46 3411.86 1050.49 3412.16 1050.56C3412.45 1050.62 3412.7 1050.7 3412.89 1050.8L3412.61 1051.59C3412.41 1051.51 3412.18 1051.44 3411.93 1051.38C3411.67 1051.32 3411.43 1051.29 3411.21 1051.29C3410.76 1051.29 3410.38 1051.39 3410.08 1051.59C3409.78 1051.78 3409.55 1052.06 3409.4 1052.44C3409.25 1052.82 3409.18 1053.28 3409.18 1053.82C3409.18 1054.33 3409.25 1054.78 3409.4 1055.15C3409.54 1055.53 3409.76 1055.82 3410.04 1056.02C3410.33 1056.21 3410.69 1056.3 3411.12 1056.3C3411.47 1056.3 3411.78 1056.27 3412.05 1056.2C3412.32 1056.12 3412.57 1056.04 3412.79 1055.93V1056.77C3412.58 1056.88 3412.34 1056.97 3412.07 1057.02C3411.82 1057.09 3411.5 1057.12 3411.14 1057.12ZM3419.83 1053.78C3419.83 1054.3 3419.76 1054.77 3419.63 1055.19C3419.49 1055.6 3419.29 1055.94 3419.04 1056.23C3418.78 1056.52 3418.47 1056.74 3418.1 1056.89C3417.73 1057.04 3417.32 1057.12 3416.87 1057.12C3416.43 1057.12 3416.04 1057.04 3415.68 1056.89C3415.33 1056.74 3415.02 1056.52 3414.75 1056.23C3414.5 1055.94 3414.3 1055.6 3414.15 1055.19C3414.02 1054.78 3413.95 1054.31 3413.95 1053.78C3413.95 1053.08 3414.07 1052.48 3414.3 1052C3414.54 1051.5 3414.88 1051.12 3415.32 1050.86C3415.77 1050.59 3416.29 1050.46 3416.9 1050.46C3417.49 1050.46 3418.01 1050.59 3418.44 1050.86C3418.88 1051.12 3419.22 1051.5 3419.46 1052C3419.71 1052.49 3419.83 1053.09 3419.83 1053.78ZM3414.92 1053.78C3414.92 1054.3 3414.99 1054.74 3415.13 1055.13C3415.27 1055.51 3415.49 1055.81 3415.77 1056.02C3416.06 1056.22 3416.43 1056.33 3416.88 1056.33C3417.33 1056.33 3417.71 1056.22 3417.99 1056.02C3418.29 1055.81 3418.51 1055.51 3418.64 1055.13C3418.78 1054.74 3418.85 1054.3 3418.85 1053.78C3418.85 1053.26 3418.77 1052.82 3418.63 1052.45C3418.49 1052.08 3418.28 1051.78 3417.99 1051.58C3417.71 1051.37 3417.34 1051.26 3416.88 1051.26C3416.21 1051.26 3415.71 1051.49 3415.39 1051.94C3415.08 1052.38 3414.92 1052.99 3414.92 1053.78ZM3424.53 1050.46C3425.28 1050.46 3425.85 1050.65 3426.24 1051.02C3426.64 1051.39 3426.83 1051.99 3426.83 1052.81V1057H3425.9V1052.88C3425.9 1052.33 3425.77 1051.92 3425.52 1051.66C3425.28 1051.4 3424.9 1051.26 3424.4 1051.26C3423.68 1051.26 3423.18 1051.46 3422.88 1051.86C3422.59 1052.26 3422.44 1052.85 3422.44 1053.62V1057H3421.5V1050.58H3422.26L3422.4 1051.53H3422.45C3422.6 1051.3 3422.77 1051.1 3422.98 1050.95C3423.19 1050.79 3423.42 1050.67 3423.69 1050.59C3423.95 1050.5 3424.23 1050.46 3424.53 1050.46ZM3431.86 1050.46C3432.62 1050.46 3433.19 1050.65 3433.58 1051.02C3433.97 1051.39 3434.17 1051.99 3434.17 1052.81V1057H3433.23V1052.88C3433.23 1052.33 3433.11 1051.92 3432.86 1051.66C3432.61 1051.4 3432.24 1051.26 3431.73 1051.26C3431.02 1051.26 3430.52 1051.46 3430.22 1051.86C3429.92 1052.26 3429.78 1052.85 3429.78 1053.62V1057H3428.84V1050.58H3429.6L3429.74 1051.53H3429.79C3429.93 1051.3 3430.11 1051.1 3430.32 1050.95C3430.52 1050.79 3430.76 1050.67 3431.02 1050.59C3431.29 1050.5 3431.57 1050.46 3431.86 1050.46ZM3438.64 1050.46C3439.19 1050.46 3439.66 1050.58 3440.04 1050.83C3440.43 1051.07 3440.73 1051.41 3440.93 1051.85C3441.14 1052.28 3441.24 1052.79 3441.24 1053.38V1053.96H3436.79C3436.8 1054.72 3436.99 1055.31 3437.35 1055.72C3437.72 1056.12 3438.24 1056.32 3438.91 1056.32C3439.31 1056.32 3439.67 1056.28 3439.98 1056.21C3440.29 1056.13 3440.62 1056.02 3440.95 1055.87V1056.7C3440.63 1056.84 3440.31 1056.95 3439.99 1057.01C3439.67 1057.08 3439.3 1057.12 3438.86 1057.12C3438.25 1057.12 3437.71 1057 3437.24 1056.75C3436.79 1056.49 3436.44 1056.12 3436.19 1055.63C3435.94 1055.14 3435.82 1054.54 3435.82 1053.84C3435.82 1053.16 3435.93 1052.56 3436.15 1052.06C3436.38 1051.55 3436.71 1051.16 3437.14 1050.88C3437.56 1050.6 3438.06 1050.46 3438.64 1050.46ZM3438.62 1051.24C3438.1 1051.24 3437.68 1051.41 3437.36 1051.76C3437.05 1052.1 3436.87 1052.58 3436.81 1053.21H3440.26C3440.26 1052.82 3440.2 1052.48 3440.08 1052.19C3439.96 1051.89 3439.79 1051.66 3439.55 1051.49C3439.31 1051.32 3439 1051.24 3438.62 1051.24ZM3445.46 1057.12C3444.88 1057.12 3444.36 1057 3443.92 1056.76C3443.48 1056.52 3443.14 1056.16 3442.89 1055.67C3442.65 1055.18 3442.53 1054.57 3442.53 1053.83C3442.53 1053.06 3442.66 1052.42 3442.92 1051.92C3443.18 1051.43 3443.54 1051.06 3444 1050.82C3444.45 1050.58 3444.97 1050.46 3445.56 1050.46C3445.88 1050.46 3446.18 1050.49 3446.48 1050.56C3446.78 1050.62 3447.02 1050.7 3447.21 1050.8L3446.94 1051.59C3446.74 1051.51 3446.51 1051.44 3446.25 1051.38C3446 1051.32 3445.76 1051.29 3445.53 1051.29C3445.08 1051.29 3444.71 1051.39 3444.4 1051.59C3444.1 1051.78 3443.87 1052.06 3443.72 1052.44C3443.58 1052.82 3443.5 1053.28 3443.5 1053.82C3443.5 1054.33 3443.58 1054.78 3443.72 1055.15C3443.86 1055.53 3444.08 1055.82 3444.37 1056.02C3444.66 1056.21 3445.02 1056.3 3445.45 1056.3C3445.79 1056.3 3446.1 1056.27 3446.37 1056.2C3446.64 1056.12 3446.89 1056.04 3447.12 1055.93V1056.77C3446.9 1056.88 3446.66 1056.97 3446.4 1057.02C3446.14 1057.09 3445.83 1057.12 3445.46 1057.12ZM3450.67 1056.34C3450.84 1056.34 3451.01 1056.33 3451.17 1056.3C3451.33 1056.27 3451.47 1056.24 3451.59 1056.21V1056.93C3451.47 1056.98 3451.31 1057.03 3451.11 1057.06C3450.91 1057.1 3450.72 1057.12 3450.52 1057.12C3450.18 1057.12 3449.88 1057.06 3449.61 1056.94C3449.33 1056.82 3449.11 1056.62 3448.95 1056.34C3448.79 1056.05 3448.71 1055.66 3448.71 1055.15V1051.32H3447.78V1050.86L3448.72 1050.5L3449.08 1049.09H3449.65V1050.58H3451.54V1051.32H3449.65V1055.13C3449.65 1055.54 3449.74 1055.84 3449.92 1056.04C3450.1 1056.24 3450.35 1056.34 3450.67 1056.34ZM3455.36 1050.46C3455.91 1050.46 3456.38 1050.58 3456.76 1050.83C3457.16 1051.07 3457.45 1051.41 3457.65 1051.85C3457.86 1052.28 3457.96 1052.79 3457.96 1053.38V1053.96H3453.51C3453.53 1054.72 3453.72 1055.31 3454.08 1055.72C3454.44 1056.12 3454.96 1056.32 3455.64 1056.32C3456.04 1056.32 3456.39 1056.28 3456.7 1056.21C3457.02 1056.13 3457.34 1056.02 3457.68 1055.87V1056.7C3457.36 1056.84 3457.04 1056.95 3456.72 1057.01C3456.4 1057.08 3456.02 1057.12 3455.59 1057.12C3454.97 1057.12 3454.43 1057 3453.97 1056.75C3453.51 1056.49 3453.16 1056.12 3452.91 1055.63C3452.66 1055.14 3452.54 1054.54 3452.54 1053.84C3452.54 1053.16 3452.65 1052.56 3452.88 1052.06C3453.11 1051.55 3453.44 1051.16 3453.86 1050.88C3454.28 1050.6 3454.78 1050.46 3455.36 1050.46ZM3455.35 1051.24C3454.82 1051.24 3454.4 1051.41 3454.09 1051.76C3453.78 1052.1 3453.59 1052.58 3453.54 1053.21H3456.98C3456.98 1052.82 3456.92 1052.48 3456.8 1052.19C3456.69 1051.89 3456.51 1051.66 3456.27 1051.49C3456.03 1051.32 3455.72 1051.24 3455.35 1051.24ZM3461.89 1057.12C3461.08 1057.12 3460.43 1056.84 3459.96 1056.29C3459.49 1055.73 3459.25 1054.91 3459.25 1053.82C3459.25 1052.72 3459.49 1051.88 3459.97 1051.31C3460.45 1050.74 3461.1 1050.46 3461.92 1050.46C3462.26 1050.46 3462.56 1050.51 3462.82 1050.6C3463.07 1050.69 3463.29 1050.82 3463.48 1050.98C3463.66 1051.13 3463.81 1051.3 3463.93 1051.49H3463.99C3463.99 1051.36 3463.97 1051.2 3463.96 1050.99C3463.94 1050.77 3463.93 1050.59 3463.93 1050.45V1047.88H3464.88V1057H3464.11L3463.98 1056.06H3463.93C3463.81 1056.26 3463.66 1056.43 3463.47 1056.59C3463.28 1056.75 3463.06 1056.88 3462.81 1056.98C3462.55 1057.07 3462.25 1057.12 3461.89 1057.12ZM3462.04 1056.33C3462.73 1056.33 3463.23 1056.13 3463.51 1055.74C3463.8 1055.35 3463.95 1054.76 3463.95 1053.98V1053.81C3463.95 1052.98 3463.81 1052.35 3463.53 1051.91C3463.25 1051.47 3462.75 1051.25 3462.04 1051.25C3461.44 1051.25 3460.99 1051.48 3460.68 1051.95C3460.38 1052.4 3460.23 1053.04 3460.23 1053.84C3460.23 1054.64 3460.37 1055.25 3460.67 1055.68C3460.97 1056.11 3461.43 1056.33 3462.04 1056.33Z" fill="#1F1F1F" id="n1001"/>
<mask id="path-847-inside-59_1702_11540" fill="white">
<path d="M3294 1089.6C3294 1086.24 3294 1084.56 3294.65 1083.28C3295.23 1082.15 3296.15 1081.23 3297.28 1080.65C3298.56 1080 3300.24 1080 3303.6 1080H3556.4C3559.76 1080 3561.44 1080 3562.72 1080.65C3563.85 1081.23 3564.77 1082.15 3565.35 1083.28C3566 1084.56 3566 1086.24 3566 1089.6V1102.4C3566 1105.76 3566 1107.44 3565.35 1108.72C3564.77 1109.85 3563.85 1110.77 3562.72 1111.35C3561.44 1112 3559.76 1112 3556.4 1112H3303.6C3300.24 1112 3298.56 1112 3297.28 1111.35C3296.15 1110.77 3295.23 1109.85 3294.65 1108.72C3294 1107.44 3294 1105.76 3294 1102.4V1089.6Z" id="n1002"/>
</mask>
<path d="M3294 1089.6C3294 1086.24 3294 1084.56 3294.65 1083.28C3295.23 1082.15 3296.15 1081.23 3297.28 1080.65C3298.56 1080 3300.24 1080 3303.6 1080H3556.4C3559.76 1080 3561.44 1080 3562.72 1080.65C3563.85 1081.23 3564.77 1082.15 3565.35 1083.28C3566 1084.56 3566 1086.24 3566 1089.6V1102.4C3566 1105.76 3566 1107.44 3565.35 1108.72C3564.77 1109.85 3563.85 1110.77 3562.72 1111.35C3561.44 1112 3559.76 1112 3556.4 1112H3303.6C3300.24 1112 3298.56 1112 3297.28 1111.35C3296.15 1110.77 3295.23 1109.85 3294.65 1108.72C3294 1107.44 3294 1105.76 3294 1102.4V1089.6Z" fill="white" id="n1003"/>
<path d="M3297.28 1111.35L3297.73 1110.46L3297.28 1111.35ZM3565.35 1108.72L3564.46 1108.27L3565.35 1108.72ZM3562.72 1111.35L3563.18 1112.24L3562.72 1111.35ZM3562.72 1080.65L3563.18 1079.76L3562.72 1080.65ZM3565.35 1083.28L3564.46 1083.73L3565.35 1083.28ZM3303.6 1080V1081H3556.4V1080V1079H3303.6V1080ZM3566 1089.6H3565V1102.4H3566H3567V1089.6H3566ZM3556.4 1112V1111H3303.6V1112V1113H3556.4V1112ZM3294 1102.4H3295V1089.6H3294H3293V1102.4H3294ZM3303.6 1112V1111C3301.9 1111 3300.69 1111 3299.74 1110.92C3298.8 1110.84 3298.21 1110.7 3297.73 1110.46L3297.28 1111.35L3296.82 1112.24C3297.63 1112.65 3298.52 1112.83 3299.58 1112.91C3300.63 1113 3301.94 1113 3303.6 1113V1112ZM3294 1102.4H3293C3293 1104.06 3293 1105.37 3293.09 1106.42C3293.17 1107.48 3293.35 1108.37 3293.76 1109.18L3294.65 1108.72L3295.54 1108.27C3295.3 1107.79 3295.16 1107.2 3295.08 1106.26C3295 1105.31 3295 1104.1 3295 1102.4H3294ZM3297.28 1111.35L3297.73 1110.46C3296.79 1109.98 3296.02 1109.21 3295.54 1108.27L3294.65 1108.72L3293.76 1109.18C3294.43 1110.5 3295.5 1111.57 3296.82 1112.24L3297.28 1111.35ZM3566 1102.4H3565C3565 1104.1 3565 1105.31 3564.92 1106.26C3564.84 1107.2 3564.7 1107.79 3564.46 1108.27L3565.35 1108.72L3566.24 1109.18C3566.65 1108.37 3566.83 1107.48 3566.91 1106.42C3567 1105.37 3567 1104.06 3567 1102.4H3566ZM3556.4 1112V1113C3558.06 1113 3559.37 1113 3560.42 1112.91C3561.48 1112.83 3562.37 1112.65 3563.18 1112.24L3562.72 1111.35L3562.27 1110.46C3561.79 1110.7 3561.2 1110.84 3560.26 1110.92C3559.31 1111 3558.1 1111 3556.4 1111V1112ZM3565.35 1108.72L3564.46 1108.27C3563.98 1109.21 3563.21 1109.98 3562.27 1110.46L3562.72 1111.35L3563.18 1112.24C3564.5 1111.57 3565.57 1110.5 3566.24 1109.18L3565.35 1108.72ZM3556.4 1080V1081C3558.1 1081 3559.31 1081 3560.26 1081.08C3561.2 1081.16 3561.79 1081.3 3562.27 1081.54L3562.72 1080.65L3563.18 1079.76C3562.37 1079.35 3561.48 1079.17 3560.42 1079.09C3559.37 1079 3558.06 1079 3556.4 1079V1080ZM3566 1089.6H3567C3567 1087.94 3567 1086.63 3566.91 1085.58C3566.83 1084.52 3566.65 1083.63 3566.24 1082.82L3565.35 1083.28L3564.46 1083.73C3564.7 1084.21 3564.84 1084.8 3564.92 1085.74C3565 1086.69 3565 1087.9 3565 1089.6H3566ZM3562.72 1080.65L3562.27 1081.54C3563.21 1082.02 3563.98 1082.79 3564.46 1083.73L3565.35 1083.28L3566.24 1082.82C3565.57 1081.5 3564.5 1080.43 3563.18 1079.76L3562.72 1080.65ZM3303.6 1080V1079C3301.94 1079 3300.63 1079 3299.58 1079.09C3298.52 1079.17 3297.63 1079.35 3296.82 1079.76L3297.28 1080.65L3297.73 1081.54C3298.21 1081.3 3298.8 1081.16 3299.74 1081.08C3300.69 1081 3301.9 1081 3303.6 1081V1080ZM3294 1089.6H3295C3295 1087.9 3295 1086.69 3295.08 1085.74C3295.16 1084.8 3295.3 1084.21 3295.54 1083.73L3294.65 1083.28L3293.76 1082.82C3293.35 1083.63 3293.17 1084.52 3293.09 1085.58C3293 1086.63 3293 1087.94 3293 1089.6H3294ZM3297.28 1080.65L3296.82 1079.76C3295.5 1080.43 3294.43 1081.5 3293.76 1082.82L3294.65 1083.28L3295.54 1083.73C3296.02 1082.79 3296.79 1082.02 3297.73 1081.54L3297.28 1080.65Z" fill="#BEBEBE" mask="url(#path-847-inside-59_1702_11540)" id="n1004"/>
<path d="M3404.16 1096.27C3404.16 1097.16 3404.05 1097.96 3403.83 1098.69C3403.61 1099.4 3403.28 1100.02 3402.84 1100.54C3402.4 1101.07 3401.84 1101.47 3401.17 1101.74C3400.5 1102.02 3399.72 1102.16 3398.82 1102.16C3397.9 1102.16 3397.1 1102.02 3396.42 1101.74C3395.75 1101.46 3395.19 1101.06 3394.76 1100.54C3394.32 1100.02 3393.99 1099.4 3393.76 1098.67C3393.55 1097.95 3393.44 1097.14 3393.44 1096.26C3393.44 1095.07 3393.64 1094.04 3394.02 1093.17C3394.41 1092.29 3395.01 1091.62 3395.8 1091.14C3396.6 1090.65 3397.61 1090.4 3398.84 1090.4C3400.02 1090.4 3401.01 1090.65 3401.8 1091.14C3402.59 1091.62 3403.18 1092.3 3403.57 1093.18C3403.97 1094.06 3404.16 1095.09 3404.16 1096.27ZM3395.51 1096.27C3395.51 1097.15 3395.63 1097.9 3395.86 1098.54C3396.09 1099.17 3396.46 1099.66 3396.95 1100C3397.44 1100.33 3398.06 1100.5 3398.82 1100.5C3399.59 1100.5 3400.21 1100.33 3400.69 1100C3401.18 1099.66 3401.54 1099.17 3401.76 1098.54C3402 1097.9 3402.12 1097.15 3402.12 1096.27C3402.12 1094.96 3401.85 1093.93 3401.33 1093.18C3400.82 1092.44 3399.99 1092.06 3398.84 1092.06C3398.07 1092.06 3397.44 1092.23 3396.95 1092.58C3396.46 1092.91 3396.09 1093.39 3395.86 1094.02C3395.63 1094.65 3395.51 1095.4 3395.51 1096.27ZM3410.92 1093.18C3411.93 1093.18 3412.75 1093.56 3413.38 1094.3C3414.01 1095.05 3414.33 1096.17 3414.33 1097.65C3414.33 1098.63 3414.18 1099.46 3413.88 1100.13C3413.59 1100.8 3413.19 1101.31 3412.68 1101.65C3412.17 1101.99 3411.56 1102.16 3410.87 1102.16C3410.45 1102.16 3410.08 1102.11 3409.75 1102C3409.43 1101.88 3409.16 1101.74 3408.93 1101.57C3408.71 1101.39 3408.51 1101.19 3408.34 1100.98H3408.23C3408.26 1101.17 3408.29 1101.39 3408.31 1101.63C3408.33 1101.88 3408.34 1102.11 3408.34 1102.32V1105.84H3406.42V1093.34H3407.99L3408.26 1094.5H3408.34C3408.51 1094.25 3408.71 1094.03 3408.93 1093.84C3409.17 1093.64 3409.45 1093.48 3409.77 1093.36C3410.1 1093.24 3410.48 1093.18 3410.92 1093.18ZM3410.39 1094.74C3409.9 1094.74 3409.5 1094.84 3409.21 1095.04C3408.92 1095.23 3408.7 1095.53 3408.57 1095.92C3408.43 1096.3 3408.35 1096.79 3408.34 1097.38V1097.65C3408.34 1098.28 3408.41 1098.81 3408.53 1099.25C3408.66 1099.69 3408.87 1100.02 3409.17 1100.26C3409.48 1100.48 3409.9 1100.59 3410.42 1100.59C3410.86 1100.59 3411.22 1100.47 3411.49 1100.22C3411.78 1099.98 3411.99 1099.64 3412.13 1099.2C3412.28 1098.75 3412.36 1098.23 3412.36 1097.63C3412.36 1096.71 3412.2 1096.01 3411.88 1095.5C3411.56 1094.99 3411.06 1094.74 3410.39 1094.74ZM3419.7 1100.61C3419.95 1100.61 3420.19 1100.59 3420.42 1100.54C3420.66 1100.5 3420.87 1100.45 3421.06 1100.38V1101.82C3420.86 1101.92 3420.59 1102 3420.26 1102.06C3419.93 1102.13 3419.58 1102.16 3419.22 1102.16C3418.74 1102.16 3418.3 1102.08 3417.91 1101.92C3417.51 1101.75 3417.19 1101.47 3416.95 1101.07C3416.71 1100.67 3416.6 1100.1 3416.6 1099.38V1094.8H3415.43V1093.95L3416.69 1093.26L3417.32 1091.42H3418.52V1093.34H3420.98V1094.8H3418.52V1099.36C3418.52 1099.79 3418.62 1100.1 3418.84 1100.3C3419.06 1100.51 3419.35 1100.61 3419.7 1100.61ZM3424.72 1093.34V1102H3422.8V1093.34H3424.72ZM3423.77 1090.02C3424.06 1090.02 3424.31 1090.1 3424.52 1090.26C3424.74 1090.41 3424.84 1090.67 3424.84 1091.06C3424.84 1091.43 3424.74 1091.7 3424.52 1091.86C3424.31 1092.02 3424.06 1092.1 3423.77 1092.1C3423.47 1092.1 3423.22 1092.02 3423 1091.86C3422.8 1091.7 3422.7 1091.43 3422.7 1091.06C3422.7 1090.67 3422.8 1090.41 3423 1090.26C3423.22 1090.1 3423.47 1090.02 3423.77 1090.02ZM3435.04 1097.65C3435.04 1098.37 3434.94 1099.01 3434.75 1099.57C3434.56 1100.12 3434.28 1100.6 3433.92 1100.99C3433.57 1101.38 3433.14 1101.67 3432.62 1101.87C3432.11 1102.06 3431.54 1102.16 3430.91 1102.16C3430.32 1102.16 3429.78 1102.06 3429.28 1101.87C3428.78 1101.67 3428.35 1101.38 3427.98 1100.99C3427.62 1100.6 3427.34 1100.12 3427.14 1099.57C3426.93 1099.01 3426.83 1098.37 3426.83 1097.65C3426.83 1096.69 3427 1095.88 3427.33 1095.22C3427.66 1094.55 3428.13 1094.05 3428.75 1093.71C3429.37 1093.36 3430.11 1093.18 3430.96 1093.18C3431.76 1093.18 3432.46 1093.36 3433.07 1093.71C3433.68 1094.05 3434.16 1094.55 3434.51 1095.22C3434.86 1095.88 3435.04 1096.69 3435.04 1097.65ZM3428.8 1097.65C3428.8 1098.28 3428.87 1098.81 3429.02 1099.25C3429.17 1099.69 3429.4 1100.02 3429.71 1100.26C3430.03 1100.48 3430.44 1100.59 3430.94 1100.59C3431.43 1100.59 3431.83 1100.48 3432.14 1100.26C3432.46 1100.02 3432.7 1099.69 3432.85 1099.25C3433 1098.81 3433.07 1098.28 3433.07 1097.66C3433.07 1097.03 3433 1096.51 3432.85 1096.08C3432.7 1095.64 3432.46 1095.31 3432.14 1095.09C3431.83 1094.86 3431.43 1094.75 3430.93 1094.75C3430.18 1094.75 3429.64 1095 3429.3 1095.5C3428.96 1096.01 3428.8 1096.72 3428.8 1097.65ZM3441.7 1093.18C3442.67 1093.18 3443.43 1093.43 3443.97 1093.94C3444.53 1094.44 3444.8 1095.24 3444.8 1096.35V1102H3442.88V1096.72C3442.88 1096.06 3442.75 1095.56 3442.48 1095.23C3442.22 1094.9 3441.8 1094.74 3441.24 1094.74C3440.4 1094.74 3439.83 1095 3439.51 1095.52C3439.2 1096.03 3439.04 1096.77 3439.04 1097.73V1102H3437.12V1093.34H3438.63L3438.9 1094.48H3439C3439.19 1094.18 3439.42 1093.94 3439.7 1093.74C3439.99 1093.55 3440.3 1093.41 3440.64 1093.33C3440.99 1093.23 3441.34 1093.18 3441.7 1093.18ZM3453.18 1099.52C3453.18 1100.09 3453.04 1100.57 3452.77 1100.96C3452.49 1101.35 3452.08 1101.65 3451.55 1101.86C3451.02 1102.06 3450.37 1102.16 3449.6 1102.16C3449 1102.16 3448.48 1102.12 3448.05 1102.03C3447.61 1101.95 3447.2 1101.81 3446.82 1101.63V1099.98C3447.22 1100.19 3447.68 1100.36 3448.19 1100.5C3448.71 1100.63 3449.2 1100.7 3449.66 1100.7C3450.25 1100.7 3450.67 1100.61 3450.93 1100.43C3451.18 1100.25 3451.31 1100.01 3451.31 1099.71C3451.31 1099.53 3451.26 1099.37 3451.15 1099.23C3451.06 1099.08 3450.86 1098.93 3450.58 1098.77C3450.3 1098.61 3449.88 1098.42 3449.31 1098.19C3448.76 1097.97 3448.29 1097.75 3447.92 1097.54C3447.56 1097.31 3447.28 1097.05 3447.09 1096.74C3446.9 1096.42 3446.8 1096.02 3446.8 1095.54C3446.8 1094.77 3447.1 1094.19 3447.71 1093.79C3448.33 1093.39 3449.14 1093.18 3450.14 1093.18C3450.68 1093.18 3451.18 1093.24 3451.65 1093.34C3452.12 1093.44 3452.59 1093.59 3453.06 1093.81L3452.45 1095.25C3452.18 1095.13 3451.91 1095.03 3451.65 1094.94C3451.39 1094.85 3451.13 1094.78 3450.86 1094.74C3450.61 1094.68 3450.35 1094.66 3450.08 1094.66C3449.62 1094.66 3449.27 1094.73 3449.02 1094.86C3448.79 1095 3448.67 1095.19 3448.67 1095.44C3448.67 1095.63 3448.73 1095.8 3448.85 1095.94C3448.96 1096.07 3449.17 1096.21 3449.46 1096.35C3449.74 1096.49 3450.15 1096.67 3450.69 1096.88C3451.21 1097.08 3451.66 1097.29 3452.03 1097.5C3452.4 1097.72 3452.69 1097.98 3452.88 1098.3C3453.08 1098.62 3453.18 1099.03 3453.18 1099.52ZM3454.87 1101.01C3454.87 1100.56 3454.98 1100.25 3455.2 1100.06C3455.44 1099.88 3455.72 1099.79 3456.05 1099.79C3456.38 1099.79 3456.67 1099.88 3456.9 1100.06C3457.13 1100.25 3457.25 1100.55 3457.25 1100.99C3457.25 1101.43 3457.13 1101.74 3456.9 1101.94C3456.67 1102.12 3456.38 1102.21 3456.05 1102.21C3455.72 1102.21 3455.44 1102.12 3455.2 1101.94C3454.98 1101.74 3454.87 1101.43 3454.87 1101.01ZM3459.31 1101.01C3459.31 1100.56 3459.42 1100.25 3459.64 1100.06C3459.88 1099.88 3460.16 1099.79 3460.49 1099.79C3460.82 1099.79 3461.1 1099.88 3461.34 1100.06C3461.57 1100.25 3461.69 1100.55 3461.69 1100.99C3461.69 1101.43 3461.57 1101.74 3461.34 1101.94C3461.1 1102.12 3460.82 1102.21 3460.49 1102.21C3460.16 1102.21 3459.88 1102.12 3459.64 1101.94C3459.42 1101.74 3459.31 1101.43 3459.31 1101.01ZM3463.74 1101.01C3463.74 1100.56 3463.85 1100.25 3464.08 1100.06C3464.31 1099.88 3464.6 1099.79 3464.93 1099.79C3465.26 1099.79 3465.54 1099.88 3465.77 1100.06C3466.01 1100.25 3466.13 1100.55 3466.13 1100.99C3466.13 1101.43 3466.01 1101.74 3465.77 1101.94C3465.54 1102.12 3465.26 1102.21 3464.93 1102.21C3464.6 1102.21 3464.31 1102.12 3464.08 1101.94C3463.85 1101.74 3463.74 1101.43 3463.74 1101.01Z" fill="#1F1F1F" id="n1005"/>
<path d="M3309.09 1150.58L3306.11 1162H3303.98L3302.11 1155.3C3302.07 1155.13 3302.02 1154.92 3301.95 1154.69C3301.9 1154.45 3301.85 1154.21 3301.79 1153.97C3301.74 1153.72 3301.69 1153.5 3301.65 1153.3C3301.61 1153.08 3301.58 1152.92 3301.57 1152.82C3301.56 1152.92 3301.53 1153.08 3301.49 1153.3C3301.45 1153.5 3301.4 1153.72 3301.34 1153.97C3301.29 1154.21 3301.24 1154.46 3301.18 1154.7C3301.13 1154.94 3301.08 1155.15 3301.02 1155.33L3299.2 1162H3297.06L3294.1 1150.58H3296.06L3297.66 1157.17C3297.72 1157.38 3297.77 1157.62 3297.82 1157.87C3297.88 1158.12 3297.93 1158.37 3297.98 1158.62C3298.04 1158.88 3298.08 1159.13 3298.11 1159.38C3298.15 1159.61 3298.19 1159.83 3298.22 1160.03C3298.25 1159.82 3298.28 1159.59 3298.32 1159.36C3298.36 1159.11 3298.41 1158.86 3298.46 1158.61C3298.52 1158.34 3298.57 1158.09 3298.62 1157.86C3298.68 1157.61 3298.73 1157.4 3298.78 1157.22L3300.61 1150.58H3302.53L3304.38 1157.23C3304.44 1157.42 3304.49 1157.64 3304.54 1157.89C3304.61 1158.13 3304.67 1158.38 3304.72 1158.64C3304.77 1158.9 3304.82 1159.15 3304.86 1159.39C3304.91 1159.63 3304.94 1159.84 3304.96 1160.03C3304.99 1159.77 3305.03 1159.47 3305.09 1159.14C3305.15 1158.79 3305.22 1158.45 3305.3 1158.11C3305.38 1157.76 3305.46 1157.44 3305.52 1157.15L3307.12 1150.58H3309.09ZM3312.55 1153.34V1162H3310.63V1153.34H3312.55ZM3311.61 1150.02C3311.9 1150.02 3312.15 1150.1 3312.36 1150.26C3312.57 1150.41 3312.68 1150.67 3312.68 1151.06C3312.68 1151.43 3312.57 1151.7 3312.36 1151.86C3312.15 1152.02 3311.9 1152.1 3311.61 1152.1C3311.31 1152.1 3311.05 1152.02 3310.84 1151.86C3310.64 1151.7 3310.54 1151.43 3310.54 1151.06C3310.54 1150.67 3310.64 1150.41 3310.84 1150.26C3311.05 1150.1 3311.31 1150.02 3311.61 1150.02ZM3314.58 1158.53V1156.9H3318.61V1158.53H3314.58ZM3322.75 1162H3320.81V1150.58H3327.29V1152.22H3322.75V1155.68H3326.99V1157.33H3322.75V1162ZM3331.25 1153.34V1162H3329.33V1153.34H3331.25ZM3330.31 1150.02C3330.6 1150.02 3330.85 1150.1 3331.06 1150.26C3331.27 1150.41 3331.38 1150.67 3331.38 1151.06C3331.38 1151.43 3331.27 1151.7 3331.06 1151.86C3330.85 1152.02 3330.6 1152.1 3330.31 1152.1C3330.01 1152.1 3329.75 1152.02 3329.54 1151.86C3329.34 1151.7 3329.24 1151.43 3329.24 1151.06C3329.24 1150.67 3329.34 1150.41 3329.54 1150.26C3329.75 1150.1 3330.01 1150.02 3330.31 1150.02Z" fill="#535353" id="n1006"/>
<path fill-rule="evenodd" clip-rule="evenodd" d="M3299 1204.78L3301 1206.78C3305.97 1201.81 3314.03 1201.81 3319 1206.78L3321 1204.78C3314.93 1198.71 3305.08 1198.71 3299 1204.78ZM3307 1212.78L3310 1215.78L3313 1212.78C3311.35 1211.12 3308.66 1211.12 3307 1212.78ZM3305 1210.78L3303 1208.78C3306.87 1204.92 3313.14 1204.92 3317 1208.78L3315 1210.78C3312.24 1208.02 3307.76 1208.02 3305 1210.78Z" fill="#535353" id="n1007"/>
<path d="M3344.48 1202.58L3341.42 1214H3340.13L3337.86 1206.24C3337.79 1206.03 3337.73 1205.81 3337.66 1205.6C3337.61 1205.38 3337.56 1205.17 3337.5 1204.98C3337.46 1204.77 3337.42 1204.6 3337.38 1204.45C3337.34 1204.3 3337.32 1204.18 3337.3 1204.1C3337.29 1204.18 3337.26 1204.3 3337.23 1204.45C3337.21 1204.59 3337.17 1204.76 3337.12 1204.96C3337.08 1205.15 3337.03 1205.35 3336.98 1205.57C3336.92 1205.78 3336.86 1206 3336.8 1206.22L3334.58 1214H3333.28L3330.24 1202.58H3331.58L3333.46 1209.81C3333.51 1210.04 3333.56 1210.28 3333.62 1210.51C3333.67 1210.74 3333.72 1210.96 3333.76 1211.18C3333.81 1211.4 3333.86 1211.61 3333.89 1211.81C3333.92 1212.01 3333.95 1212.21 3333.98 1212.4C3334.02 1212.2 3334.05 1211.99 3334.08 1211.79C3334.12 1211.58 3334.17 1211.36 3334.22 1211.14C3334.28 1210.9 3334.33 1210.67 3334.38 1210.43C3334.45 1210.2 3334.51 1209.97 3334.58 1209.74L3336.66 1202.58H3337.98L3340.13 1209.79C3340.2 1210.03 3340.27 1210.27 3340.32 1210.51C3340.38 1210.75 3340.44 1210.98 3340.5 1211.2C3340.55 1211.41 3340.59 1211.63 3340.62 1211.84C3340.67 1212.04 3340.7 1212.23 3340.74 1212.42C3340.77 1212.16 3340.81 1211.89 3340.85 1211.62C3340.9 1211.34 3340.97 1211.05 3341.04 1210.75C3341.11 1210.44 3341.19 1210.13 3341.28 1209.81L3343.14 1202.58H3344.48ZM3347.36 1205.44V1214H3346.11V1205.44H3347.36ZM3346.75 1202.24C3346.96 1202.24 3347.14 1202.31 3347.28 1202.45C3347.43 1202.59 3347.5 1202.8 3347.5 1203.09C3347.5 1203.35 3347.43 1203.56 3347.28 1203.71C3347.14 1203.85 3346.96 1203.92 3346.75 1203.92C3346.53 1203.92 3346.34 1203.85 3346.19 1203.71C3346.05 1203.56 3345.98 1203.35 3345.98 1203.09C3345.98 1202.8 3346.05 1202.59 3346.19 1202.45C3346.34 1202.31 3346.53 1202.24 3346.75 1202.24ZM3353.87 1206.43H3351.74V1214H3350.49V1206.43H3348.96V1205.82L3350.49 1205.41V1204.8C3350.49 1204.1 3350.6 1203.52 3350.8 1203.07C3351.01 1202.62 3351.32 1202.29 3351.73 1202.08C3352.13 1201.87 3352.62 1201.76 3353.2 1201.76C3353.53 1201.76 3353.83 1201.79 3354.09 1201.84C3354.37 1201.89 3354.61 1201.96 3354.81 1202.03L3354.49 1203.04C3354.31 1202.98 3354.11 1202.92 3353.89 1202.88C3353.66 1202.83 3353.44 1202.8 3353.21 1202.8C3352.71 1202.8 3352.34 1202.96 3352.09 1203.28C3351.86 1203.6 3351.74 1204.1 3351.74 1204.78V1205.44H3353.87V1206.43ZM3356.69 1205.44V1214H3355.44V1205.44H3356.69ZM3356.08 1202.24C3356.29 1202.24 3356.47 1202.31 3356.61 1202.45C3356.76 1202.59 3356.83 1202.8 3356.83 1203.09C3356.83 1203.35 3356.76 1203.56 3356.61 1203.71C3356.47 1203.85 3356.29 1203.92 3356.08 1203.92C3355.85 1203.92 3355.67 1203.85 3355.52 1203.71C3355.38 1203.56 3355.31 1203.35 3355.31 1203.09C3355.31 1202.8 3355.38 1202.59 3355.52 1202.45C3355.67 1202.31 3355.85 1202.24 3356.08 1202.24ZM3367.82 1214H3366.59V1205.86C3366.59 1205.55 3366.59 1205.29 3366.59 1205.07C3366.6 1204.86 3366.6 1204.66 3366.6 1204.48C3366.61 1204.29 3366.62 1204.1 3366.63 1203.9C3366.47 1204.06 3366.33 1204.2 3366.19 1204.32C3366.05 1204.43 3365.88 1204.57 3365.67 1204.75L3364.33 1205.81L3363.67 1204.96L3366.76 1202.58H3367.82V1214Z" fill="#535353" id="n1008"/>
<path fill-rule="evenodd" clip-rule="evenodd" d="M3299 1252.78L3301 1254.78C3305.97 1249.81 3314.03 1249.81 3319 1254.78L3321 1252.78C3314.93 1246.71 3305.08 1246.71 3299 1252.78ZM3307 1260.78L3310 1263.78L3313 1260.78C3311.35 1259.12 3308.66 1259.12 3307 1260.78ZM3305 1258.78L3303 1256.78C3306.87 1252.92 3313.14 1252.92 3317 1256.78L3315 1258.78C3312.24 1256.02 3307.76 1256.02 3305 1258.78Z" fill="#535353" id="n1009"/>
<path d="M3344.48 1250.58L3341.42 1262H3340.13L3337.86 1254.24C3337.79 1254.03 3337.73 1253.81 3337.66 1253.6C3337.61 1253.38 3337.56 1253.17 3337.5 1252.98C3337.46 1252.77 3337.42 1252.6 3337.38 1252.45C3337.34 1252.3 3337.32 1252.18 3337.3 1252.1C3337.29 1252.18 3337.26 1252.3 3337.23 1252.45C3337.21 1252.59 3337.17 1252.76 3337.12 1252.96C3337.08 1253.15 3337.03 1253.35 3336.98 1253.57C3336.92 1253.78 3336.86 1254 3336.8 1254.22L3334.58 1262H3333.28L3330.24 1250.58H3331.58L3333.46 1257.81C3333.51 1258.04 3333.56 1258.28 3333.62 1258.51C3333.67 1258.74 3333.72 1258.96 3333.76 1259.18C3333.81 1259.4 3333.86 1259.61 3333.89 1259.81C3333.92 1260.01 3333.95 1260.21 3333.98 1260.4C3334.02 1260.2 3334.05 1259.99 3334.08 1259.79C3334.12 1259.58 3334.17 1259.36 3334.22 1259.14C3334.28 1258.9 3334.33 1258.67 3334.38 1258.43C3334.45 1258.2 3334.51 1257.97 3334.58 1257.74L3336.66 1250.58H3337.98L3340.13 1257.79C3340.2 1258.03 3340.27 1258.27 3340.32 1258.51C3340.38 1258.75 3340.44 1258.98 3340.5 1259.2C3340.55 1259.41 3340.59 1259.63 3340.62 1259.84C3340.67 1260.04 3340.7 1260.23 3340.74 1260.42C3340.77 1260.16 3340.81 1259.89 3340.85 1259.62C3340.9 1259.34 3340.97 1259.05 3341.04 1258.75C3341.11 1258.44 3341.19 1258.13 3341.28 1257.81L3343.14 1250.58H3344.48ZM3347.36 1253.44V1262H3346.11V1253.44H3347.36ZM3346.75 1250.24C3346.96 1250.24 3347.14 1250.31 3347.28 1250.45C3347.43 1250.59 3347.5 1250.8 3347.5 1251.09C3347.5 1251.35 3347.43 1251.56 3347.28 1251.71C3347.14 1251.85 3346.96 1251.92 3346.75 1251.92C3346.53 1251.92 3346.34 1251.85 3346.19 1251.71C3346.05 1251.56 3345.98 1251.35 3345.98 1251.09C3345.98 1250.8 3346.05 1250.59 3346.19 1250.45C3346.34 1250.31 3346.53 1250.24 3346.75 1250.24ZM3353.87 1254.43H3351.74V1262H3350.49V1254.43H3348.96V1253.82L3350.49 1253.41V1252.8C3350.49 1252.1 3350.6 1251.52 3350.8 1251.07C3351.01 1250.62 3351.32 1250.29 3351.73 1250.08C3352.13 1249.87 3352.62 1249.76 3353.2 1249.76C3353.53 1249.76 3353.83 1249.79 3354.09 1249.84C3354.37 1249.89 3354.61 1249.96 3354.81 1250.03L3354.49 1251.04C3354.31 1250.98 3354.11 1250.92 3353.89 1250.88C3353.66 1250.83 3353.44 1250.8 3353.21 1250.8C3352.71 1250.8 3352.34 1250.96 3352.09 1251.28C3351.86 1251.6 3351.74 1252.1 3351.74 1252.78V1253.44H3353.87V1254.43ZM3356.69 1253.44V1262H3355.44V1253.44H3356.69ZM3356.08 1250.24C3356.29 1250.24 3356.47 1250.31 3356.61 1250.45C3356.76 1250.59 3356.83 1250.8 3356.83 1251.09C3356.83 1251.35 3356.76 1251.56 3356.61 1251.71C3356.47 1251.85 3356.29 1251.92 3356.08 1251.92C3355.85 1251.92 3355.67 1251.85 3355.52 1251.71C3355.38 1251.56 3355.31 1251.35 3355.31 1251.09C3355.31 1250.8 3355.38 1250.59 3355.52 1250.45C3355.67 1250.31 3355.85 1250.24 3356.08 1250.24ZM3370.47 1262H3363.02V1260.96L3366.09 1257.81C3366.66 1257.24 3367.13 1256.74 3367.51 1256.29C3367.91 1255.84 3368.21 1255.4 3368.41 1254.96C3368.61 1254.52 3368.71 1254.04 3368.71 1253.5C3368.71 1252.85 3368.52 1252.36 3368.12 1252.02C3367.74 1251.66 3367.23 1251.49 3366.6 1251.49C3366.06 1251.49 3365.57 1251.58 3365.15 1251.78C3364.72 1251.97 3364.29 1252.23 3363.85 1252.58L3363.18 1251.73C3363.48 1251.47 3363.8 1251.25 3364.15 1251.06C3364.52 1250.85 3364.9 1250.7 3365.31 1250.59C3365.72 1250.47 3366.15 1250.42 3366.6 1250.42C3367.3 1250.42 3367.89 1250.54 3368.39 1250.78C3368.91 1251.03 3369.3 1251.38 3369.58 1251.84C3369.86 1252.29 3369.99 1252.82 3369.99 1253.44C3369.99 1253.9 3369.93 1254.33 3369.79 1254.74C3369.66 1255.13 3369.47 1255.52 3369.21 1255.9C3368.97 1256.28 3368.66 1256.66 3368.3 1257.06C3367.95 1257.44 3367.56 1257.85 3367.13 1258.27L3364.6 1260.8V1260.85H3370.47V1262Z" fill="#535353" id="n1010"/>
<path fill-rule="evenodd" clip-rule="evenodd" d="M3299 1300.78L3301 1302.78C3305.97 1297.81 3314.03 1297.81 3319 1302.78L3321 1300.78C3314.93 1294.71 3305.08 1294.71 3299 1300.78ZM3307 1308.78L3310 1311.78L3313 1308.78C3311.35 1307.12 3308.66 1307.12 3307 1308.78ZM3305 1306.78L3303 1304.78C3306.87 1300.92 3313.14 1300.92 3317 1304.78L3315 1306.78C3312.24 1304.02 3307.76 1304.02 3305 1306.78Z" fill="#535353" id="n1011"/>
<path d="M3344.48 1298.58L3341.42 1310H3340.13L3337.86 1302.24C3337.79 1302.03 3337.73 1301.81 3337.66 1301.6C3337.61 1301.38 3337.56 1301.17 3337.5 1300.98C3337.46 1300.77 3337.42 1300.6 3337.38 1300.45C3337.34 1300.3 3337.32 1300.18 3337.3 1300.1C3337.29 1300.18 3337.26 1300.3 3337.23 1300.45C3337.21 1300.59 3337.17 1300.76 3337.12 1300.96C3337.08 1301.15 3337.03 1301.35 3336.98 1301.57C3336.92 1301.78 3336.86 1302 3336.8 1302.22L3334.58 1310H3333.28L3330.24 1298.58H3331.58L3333.46 1305.81C3333.51 1306.04 3333.56 1306.28 3333.62 1306.51C3333.67 1306.74 3333.72 1306.96 3333.76 1307.18C3333.81 1307.4 3333.86 1307.61 3333.89 1307.81C3333.92 1308.01 3333.95 1308.21 3333.98 1308.4C3334.02 1308.2 3334.05 1307.99 3334.08 1307.79C3334.12 1307.58 3334.17 1307.36 3334.22 1307.14C3334.28 1306.9 3334.33 1306.67 3334.38 1306.43C3334.45 1306.2 3334.51 1305.97 3334.58 1305.74L3336.66 1298.58H3337.98L3340.13 1305.79C3340.2 1306.03 3340.27 1306.27 3340.32 1306.51C3340.38 1306.75 3340.44 1306.98 3340.5 1307.2C3340.55 1307.41 3340.59 1307.63 3340.62 1307.84C3340.67 1308.04 3340.7 1308.23 3340.74 1308.42C3340.77 1308.16 3340.81 1307.89 3340.85 1307.62C3340.9 1307.34 3340.97 1307.05 3341.04 1306.75C3341.11 1306.44 3341.19 1306.13 3341.28 1305.81L3343.14 1298.58H3344.48ZM3347.36 1301.44V1310H3346.11V1301.44H3347.36ZM3346.75 1298.24C3346.96 1298.24 3347.14 1298.31 3347.28 1298.45C3347.43 1298.59 3347.5 1298.8 3347.5 1299.09C3347.5 1299.35 3347.43 1299.56 3347.28 1299.71C3347.14 1299.85 3346.96 1299.92 3346.75 1299.92C3346.53 1299.92 3346.34 1299.85 3346.19 1299.71C3346.05 1299.56 3345.98 1299.35 3345.98 1299.09C3345.98 1298.8 3346.05 1298.59 3346.19 1298.45C3346.34 1298.31 3346.53 1298.24 3346.75 1298.24ZM3353.87 1302.43H3351.74V1310H3350.49V1302.43H3348.96V1301.82L3350.49 1301.41V1300.8C3350.49 1300.1 3350.6 1299.52 3350.8 1299.07C3351.01 1298.62 3351.32 1298.29 3351.73 1298.08C3352.13 1297.87 3352.62 1297.76 3353.2 1297.76C3353.53 1297.76 3353.83 1297.79 3354.09 1297.84C3354.37 1297.89 3354.61 1297.96 3354.81 1298.03L3354.49 1299.04C3354.31 1298.98 3354.11 1298.92 3353.89 1298.88C3353.66 1298.83 3353.44 1298.8 3353.21 1298.8C3352.71 1298.8 3352.34 1298.96 3352.09 1299.28C3351.86 1299.6 3351.74 1300.1 3351.74 1300.78V1301.44H3353.87V1302.43ZM3356.69 1301.44V1310H3355.44V1301.44H3356.69ZM3356.08 1298.24C3356.29 1298.24 3356.47 1298.31 3356.61 1298.45C3356.76 1298.59 3356.83 1298.8 3356.83 1299.09C3356.83 1299.35 3356.76 1299.56 3356.61 1299.71C3356.47 1299.85 3356.29 1299.92 3356.08 1299.92C3355.85 1299.92 3355.67 1299.85 3355.52 1299.71C3355.38 1299.56 3355.31 1299.35 3355.31 1299.09C3355.31 1298.8 3355.38 1298.59 3355.52 1298.45C3355.67 1298.31 3355.85 1298.24 3356.08 1298.24ZM3370.06 1301.23C3370.06 1301.74 3369.96 1302.19 3369.75 1302.58C3369.56 1302.95 3369.29 1303.25 3368.92 1303.49C3368.57 1303.72 3368.15 1303.89 3367.67 1303.98V1304.05C3368.58 1304.15 3369.26 1304.44 3369.72 1304.91C3370.18 1305.38 3370.41 1306 3370.41 1306.77C3370.41 1307.43 3370.26 1308.02 3369.95 1308.53C3369.64 1309.04 3369.16 1309.44 3368.52 1309.73C3367.89 1310.02 3367.08 1310.16 3366.09 1310.16C3365.48 1310.16 3364.92 1310.11 3364.39 1310.02C3363.88 1309.92 3363.4 1309.76 3362.94 1309.54V1308.35C3363.41 1308.58 3363.92 1308.76 3364.47 1308.9C3365.04 1309.02 3365.58 1309.09 3366.11 1309.09C3367.15 1309.09 3367.91 1308.88 3368.38 1308.46C3368.85 1308.05 3369.08 1307.48 3369.08 1306.75C3369.08 1306.24 3368.95 1305.83 3368.7 1305.54C3368.44 1305.23 3368.07 1305 3367.58 1304.86C3367.09 1304.71 3366.5 1304.64 3365.82 1304.64H3364.68V1303.55H3365.83C3366.45 1303.55 3366.98 1303.46 3367.4 1303.28C3367.84 1303.1 3368.18 1302.84 3368.41 1302.51C3368.65 1302.17 3368.76 1301.77 3368.76 1301.31C3368.76 1300.73 3368.57 1300.28 3368.17 1299.97C3367.79 1299.65 3367.26 1299.49 3366.59 1299.49C3366.18 1299.49 3365.81 1299.53 3365.47 1299.62C3365.14 1299.69 3364.82 1299.8 3364.52 1299.95C3364.23 1300.09 3363.94 1300.26 3363.64 1300.46L3363.02 1299.6C3363.31 1299.39 3363.63 1299.19 3363.98 1299.01C3364.34 1298.83 3364.74 1298.68 3365.16 1298.58C3365.6 1298.47 3366.07 1298.42 3366.57 1298.42C3367.73 1298.42 3368.6 1298.68 3369.18 1299.2C3369.77 1299.72 3370.06 1300.4 3370.06 1301.23Z" fill="#535353" id="n1012"/>
<path fill-rule="evenodd" clip-rule="evenodd" d="M3299 1348.78L3301 1350.78C3305.97 1345.81 3314.03 1345.81 3319 1350.78L3321 1348.78C3314.93 1342.71 3305.08 1342.71 3299 1348.78ZM3307 1356.78L3310 1359.78L3313 1356.78C3311.35 1355.12 3308.66 1355.12 3307 1356.78ZM3305 1354.78L3303 1352.78C3306.87 1348.92 3313.14 1348.92 3317 1352.78L3315 1354.78C3312.24 1352.02 3307.76 1352.02 3305 1354.78Z" fill="#535353" id="n1013"/>
<path d="M3344.48 1346.58L3341.42 1358H3340.13L3337.86 1350.24C3337.79 1350.03 3337.73 1349.81 3337.66 1349.6C3337.61 1349.38 3337.56 1349.17 3337.5 1348.98C3337.46 1348.77 3337.42 1348.6 3337.38 1348.45C3337.34 1348.3 3337.32 1348.18 3337.3 1348.1C3337.29 1348.18 3337.26 1348.3 3337.23 1348.45C3337.21 1348.59 3337.17 1348.76 3337.12 1348.96C3337.08 1349.15 3337.03 1349.35 3336.98 1349.57C3336.92 1349.78 3336.86 1350 3336.8 1350.22L3334.58 1358H3333.28L3330.24 1346.58H3331.58L3333.46 1353.81C3333.51 1354.04 3333.56 1354.28 3333.62 1354.51C3333.67 1354.74 3333.72 1354.96 3333.76 1355.18C3333.81 1355.4 3333.86 1355.61 3333.89 1355.81C3333.92 1356.01 3333.95 1356.21 3333.98 1356.4C3334.02 1356.2 3334.05 1355.99 3334.08 1355.79C3334.12 1355.58 3334.17 1355.36 3334.22 1355.14C3334.28 1354.9 3334.33 1354.67 3334.38 1354.43C3334.45 1354.2 3334.51 1353.97 3334.58 1353.74L3336.66 1346.58H3337.98L3340.13 1353.79C3340.2 1354.03 3340.27 1354.27 3340.32 1354.51C3340.38 1354.75 3340.44 1354.98 3340.5 1355.2C3340.55 1355.41 3340.59 1355.63 3340.62 1355.84C3340.67 1356.04 3340.7 1356.23 3340.74 1356.42C3340.77 1356.16 3340.81 1355.89 3340.85 1355.62C3340.9 1355.34 3340.97 1355.05 3341.04 1354.75C3341.11 1354.44 3341.19 1354.13 3341.28 1353.81L3343.14 1346.58H3344.48ZM3347.36 1349.44V1358H3346.11V1349.44H3347.36ZM3346.75 1346.24C3346.96 1346.24 3347.14 1346.31 3347.28 1346.45C3347.43 1346.59 3347.5 1346.8 3347.5 1347.09C3347.5 1347.35 3347.43 1347.56 3347.28 1347.71C3347.14 1347.85 3346.96 1347.92 3346.75 1347.92C3346.53 1347.92 3346.34 1347.85 3346.19 1347.71C3346.05 1347.56 3345.98 1347.35 3345.98 1347.09C3345.98 1346.8 3346.05 1346.59 3346.19 1346.45C3346.34 1346.31 3346.53 1346.24 3346.75 1346.24ZM3353.87 1350.43H3351.74V1358H3350.49V1350.43H3348.96V1349.82L3350.49 1349.41V1348.8C3350.49 1348.1 3350.6 1347.52 3350.8 1347.07C3351.01 1346.62 3351.32 1346.29 3351.73 1346.08C3352.13 1345.87 3352.62 1345.76 3353.2 1345.76C3353.53 1345.76 3353.83 1345.79 3354.09 1345.84C3354.37 1345.89 3354.61 1345.96 3354.81 1346.03L3354.49 1347.04C3354.31 1346.98 3354.11 1346.92 3353.89 1346.88C3353.66 1346.83 3353.44 1346.8 3353.21 1346.8C3352.71 1346.8 3352.34 1346.96 3352.09 1347.28C3351.86 1347.6 3351.74 1348.1 3351.74 1348.78V1349.44H3353.87V1350.43ZM3356.69 1349.44V1358H3355.44V1349.44H3356.69ZM3356.08 1346.24C3356.29 1346.24 3356.47 1346.31 3356.61 1346.45C3356.76 1346.59 3356.83 1346.8 3356.83 1347.09C3356.83 1347.35 3356.76 1347.56 3356.61 1347.71C3356.47 1347.85 3356.29 1347.92 3356.08 1347.92C3355.85 1347.92 3355.67 1347.85 3355.52 1347.71C3355.38 1347.56 3355.31 1347.35 3355.31 1347.09C3355.31 1346.8 3355.38 1346.59 3355.52 1346.45C3355.67 1346.31 3355.85 1346.24 3356.08 1346.24ZM3371.07 1355.33H3369.34V1358H3368.12V1355.33H3362.57V1354.27L3368.03 1346.51H3369.34V1354.19H3371.07V1355.33ZM3368.12 1350.4C3368.12 1350.11 3368.12 1349.86 3368.12 1349.63C3368.12 1349.4 3368.13 1349.18 3368.14 1348.99C3368.15 1348.79 3368.15 1348.6 3368.15 1348.42C3368.17 1348.22 3368.18 1348.04 3368.19 1347.87H3368.12C3368.03 1348.09 3367.91 1348.31 3367.79 1348.54C3367.66 1348.77 3367.53 1348.97 3367.39 1349.15L3363.82 1354.19H3368.12V1350.4Z" fill="#535353" id="n1014"/>
<path d="M3317.66 1400.27C3317.66 1401.16 3317.55 1401.96 3317.33 1402.69C3317.11 1403.4 3316.78 1404.02 3316.34 1404.54C3315.9 1405.07 3315.34 1405.47 3314.67 1405.74C3314 1406.02 3313.22 1406.16 3312.32 1406.16C3311.4 1406.16 3310.6 1406.02 3309.92 1405.74C3309.25 1405.46 3308.69 1405.06 3308.26 1404.54C3307.82 1404.02 3307.49 1403.4 3307.26 1402.67C3307.05 1401.95 3306.94 1401.14 3306.94 1400.26C3306.94 1399.07 3307.14 1398.04 3307.52 1397.17C3307.91 1396.29 3308.51 1395.62 3309.3 1395.14C3310.1 1394.65 3311.11 1394.4 3312.34 1394.4C3313.52 1394.4 3314.51 1394.65 3315.3 1395.14C3316.09 1395.62 3316.68 1396.3 3317.07 1397.18C3317.47 1398.06 3317.66 1399.09 3317.66 1400.27ZM3309.01 1400.27C3309.01 1401.15 3309.13 1401.9 3309.36 1402.54C3309.59 1403.17 3309.96 1403.66 3310.45 1404C3310.94 1404.33 3311.56 1404.5 3312.32 1404.5C3313.09 1404.5 3313.71 1404.33 3314.19 1404C3314.68 1403.66 3315.04 1403.17 3315.26 1402.54C3315.5 1401.9 3315.62 1401.15 3315.62 1400.27C3315.62 1398.96 3315.35 1397.93 3314.83 1397.18C3314.32 1396.44 3313.49 1396.06 3312.34 1396.06C3311.57 1396.06 3310.94 1396.23 3310.45 1396.58C3309.96 1396.91 3309.59 1397.39 3309.36 1398.02C3309.13 1398.65 3309.01 1399.4 3309.01 1400.27ZM3323.37 1404.61C3323.61 1404.61 3323.85 1404.59 3324.09 1404.54C3324.32 1404.5 3324.53 1404.45 3324.73 1404.38V1405.82C3324.52 1405.92 3324.26 1406 3323.93 1406.06C3323.6 1406.13 3323.25 1406.16 3322.89 1406.16C3322.41 1406.16 3321.97 1406.08 3321.57 1405.92C3321.18 1405.75 3320.86 1405.47 3320.61 1405.07C3320.38 1404.67 3320.26 1404.1 3320.26 1403.38V1398.8H3319.09V1397.95L3320.36 1397.26L3320.98 1395.42H3322.18V1397.34H3324.65V1398.8H3322.18V1403.36C3322.18 1403.79 3322.29 1404.1 3322.5 1404.3C3322.73 1404.51 3323.01 1404.61 3323.37 1404.61ZM3328.53 1396.83C3328.53 1397.15 3328.52 1397.47 3328.5 1397.78C3328.48 1398.09 3328.46 1398.33 3328.44 1398.5H3328.55C3328.74 1398.2 3328.97 1397.95 3329.24 1397.76C3329.5 1397.57 3329.8 1397.42 3330.12 1397.33C3330.45 1397.23 3330.79 1397.18 3331.16 1397.18C3331.81 1397.18 3332.37 1397.3 3332.84 1397.52C3333.3 1397.74 3333.66 1398.09 3333.91 1398.56C3334.16 1399.02 3334.29 1399.62 3334.29 1400.35V1406H3332.37V1400.72C3332.37 1400.05 3332.24 1399.55 3331.97 1399.23C3331.7 1398.9 3331.29 1398.74 3330.72 1398.74C3330.17 1398.74 3329.73 1398.85 3329.41 1399.09C3329.1 1399.32 3328.88 1399.66 3328.74 1400.11C3328.6 1400.55 3328.53 1401.09 3328.53 1401.74V1406H3326.61V1393.84H3328.53V1396.83ZM3340.44 1397.18C3341.2 1397.18 3341.87 1397.34 3342.42 1397.66C3342.99 1397.97 3343.42 1398.42 3343.72 1399.01C3344.02 1399.58 3344.16 1400.28 3344.16 1401.1V1402.11H3338.42C3338.44 1402.92 3338.67 1403.55 3339.09 1404C3339.52 1404.44 3340.11 1404.66 3340.87 1404.66C3341.42 1404.66 3341.92 1404.6 3342.36 1404.5C3342.8 1404.39 3343.26 1404.23 3343.73 1404.02V1405.57C3343.3 1405.77 3342.85 1405.92 3342.39 1406.02C3341.94 1406.11 3341.4 1406.16 3340.77 1406.16C3339.93 1406.16 3339.18 1406 3338.53 1405.68C3337.88 1405.35 3337.38 1404.85 3337.01 1404.19C3336.65 1403.53 3336.47 1402.71 3336.47 1401.73C3336.47 1400.75 3336.63 1399.92 3336.96 1399.25C3337.3 1398.58 3337.76 1398.06 3338.36 1397.71C3338.95 1397.36 3339.65 1397.18 3340.44 1397.18ZM3340.44 1398.62C3339.87 1398.62 3339.42 1398.81 3339.08 1399.17C3338.74 1399.52 3338.53 1400.05 3338.47 1400.75H3342.29C3342.29 1400.33 3342.22 1399.96 3342.08 1399.65C3341.96 1399.33 3341.75 1399.08 3341.48 1398.9C3341.21 1398.71 3340.86 1398.62 3340.44 1398.62ZM3350.83 1397.18C3350.97 1397.18 3351.12 1397.19 3351.29 1397.2C3351.46 1397.21 3351.61 1397.23 3351.72 1397.26L3351.55 1399.06C3351.45 1399.02 3351.32 1399 3351.16 1398.99C3351.02 1398.97 3350.88 1398.96 3350.75 1398.96C3350.43 1398.96 3350.12 1399.01 3349.82 1399.12C3349.53 1399.23 3349.27 1399.39 3349.04 1399.6C3348.8 1399.8 3348.62 1400.06 3348.48 1400.38C3348.35 1400.69 3348.28 1401.06 3348.28 1401.49V1406H3346.36V1397.34H3347.87L3348.12 1398.86H3348.22C3348.39 1398.55 3348.6 1398.27 3348.86 1398.02C3349.12 1397.76 3349.41 1397.56 3349.74 1397.41C3350.08 1397.26 3350.44 1397.18 3350.83 1397.18ZM3362.35 1397.18C3363.32 1397.18 3364.08 1397.43 3364.62 1397.94C3365.18 1398.44 3365.45 1399.24 3365.45 1400.35V1406H3363.53V1400.72C3363.53 1400.06 3363.4 1399.56 3363.13 1399.23C3362.87 1398.9 3362.45 1398.74 3361.89 1398.74C3361.05 1398.74 3360.48 1399 3360.16 1399.52C3359.85 1400.03 3359.69 1400.77 3359.69 1401.73V1406H3357.77V1397.34H3359.28L3359.55 1398.48H3359.65C3359.84 1398.18 3360.07 1397.94 3360.35 1397.74C3360.64 1397.55 3360.95 1397.41 3361.29 1397.33C3361.64 1397.23 3361.99 1397.18 3362.35 1397.18ZM3371.6 1397.18C3372.37 1397.18 3373.03 1397.34 3373.58 1397.66C3374.15 1397.97 3374.58 1398.42 3374.88 1399.01C3375.18 1399.58 3375.33 1400.28 3375.33 1401.1V1402.11H3369.58C3369.6 1402.92 3369.83 1403.55 3370.26 1404C3370.68 1404.44 3371.27 1404.66 3372.03 1404.66C3372.59 1404.66 3373.08 1404.6 3373.52 1404.5C3373.97 1404.39 3374.43 1404.23 3374.9 1404.02V1405.57C3374.46 1405.77 3374.01 1405.92 3373.55 1406.02C3373.1 1406.11 3372.56 1406.16 3371.94 1406.16C3371.09 1406.16 3370.35 1406 3369.7 1405.68C3369.04 1405.35 3368.54 1404.85 3368.18 1404.19C3367.81 1403.53 3367.63 1402.71 3367.63 1401.73C3367.63 1400.75 3367.8 1399.92 3368.13 1399.25C3368.46 1398.58 3368.92 1398.06 3369.52 1397.71C3370.12 1397.36 3370.81 1397.18 3371.6 1397.18ZM3371.6 1398.62C3371.03 1398.62 3370.58 1398.81 3370.24 1399.17C3369.9 1399.52 3369.7 1400.05 3369.63 1400.75H3373.46C3373.46 1400.33 3373.39 1399.96 3373.25 1399.65C3373.12 1399.33 3372.92 1399.08 3372.64 1398.9C3372.37 1398.71 3372.03 1398.62 3371.6 1398.62ZM3380.82 1404.61C3381.07 1404.61 3381.31 1404.59 3381.54 1404.54C3381.78 1404.5 3381.99 1404.45 3382.18 1404.38V1405.82C3381.98 1405.92 3381.71 1406 3381.38 1406.06C3381.05 1406.13 3380.71 1406.16 3380.34 1406.16C3379.86 1406.16 3379.43 1406.08 3379.03 1405.92C3378.64 1405.75 3378.32 1405.47 3378.07 1405.07C3377.84 1404.67 3377.72 1404.1 3377.72 1403.38V1398.8H3376.55V1397.95L3377.82 1397.26L3378.44 1395.42H3379.64V1397.34H3382.1V1398.8H3379.64V1403.36C3379.64 1403.79 3379.75 1404.1 3379.96 1404.3C3380.18 1404.51 3380.47 1404.61 3380.82 1404.61ZM3390.12 1402.1C3390.06 1401.89 3390 1401.65 3389.92 1401.36C3389.86 1401.06 3389.79 1400.76 3389.72 1400.45C3389.64 1400.14 3389.57 1399.86 3389.51 1399.6C3389.44 1399.33 3389.4 1399.13 3389.36 1398.99H3389.3C3389.28 1399.13 3389.24 1399.33 3389.17 1399.6C3389.12 1399.86 3389.05 1400.14 3388.98 1400.46C3388.91 1400.77 3388.83 1401.08 3388.76 1401.38C3388.68 1401.66 3388.62 1401.91 3388.56 1402.11L3387.46 1406H3385.36L3382.93 1397.33H3384.87L3385.97 1401.54C3386.05 1401.82 3386.12 1402.14 3386.18 1402.5C3386.25 1402.84 3386.32 1403.17 3386.37 1403.49C3386.43 1403.8 3386.46 1404.05 3386.48 1404.26H3386.55C3386.57 1404.12 3386.6 1403.94 3386.63 1403.71C3386.67 1403.49 3386.71 1403.26 3386.76 1403.02C3386.81 1402.78 3386.86 1402.55 3386.9 1402.34C3386.95 1402.12 3387 1401.95 3387.03 1401.82L3388.32 1397.33H3390.42L3391.67 1401.82C3391.72 1402.03 3391.78 1402.28 3391.84 1402.59C3391.92 1402.89 3391.98 1403.19 3392.04 1403.5C3392.09 1403.8 3392.12 1404.05 3392.13 1404.26H3392.2C3392.22 1404.07 3392.25 1403.83 3392.31 1403.52C3392.37 1403.2 3392.44 1402.86 3392.52 1402.51C3392.59 1402.16 3392.67 1401.83 3392.74 1401.54L3393.86 1397.33H3395.76L3393.32 1406H3391.17L3390.12 1402.1ZM3405.1 1401.65C3405.1 1402.37 3405.01 1403.01 3404.81 1403.57C3404.62 1404.12 3404.34 1404.6 3403.98 1404.99C3403.63 1405.38 3403.2 1405.67 3402.69 1405.87C3402.17 1406.06 3401.6 1406.16 3400.97 1406.16C3400.39 1406.16 3399.84 1406.06 3399.34 1405.87C3398.84 1405.67 3398.41 1405.38 3398.05 1404.99C3397.68 1404.6 3397.4 1404.12 3397.2 1403.57C3397 1403.01 3396.89 1402.37 3396.89 1401.65C3396.89 1400.69 3397.06 1399.88 3397.39 1399.22C3397.72 1398.55 3398.2 1398.05 3398.81 1397.71C3399.43 1397.36 3400.17 1397.18 3401.02 1397.18C3401.82 1397.18 3402.53 1397.36 3403.13 1397.71C3403.74 1398.05 3404.22 1398.55 3404.57 1399.22C3404.93 1399.88 3405.1 1400.69 3405.1 1401.65ZM3398.86 1401.65C3398.86 1402.28 3398.94 1402.81 3399.09 1403.25C3399.24 1403.69 3399.46 1404.02 3399.77 1404.26C3400.09 1404.48 3400.5 1404.59 3401.01 1404.59C3401.5 1404.59 3401.9 1404.48 3402.21 1404.26C3402.53 1404.02 3402.76 1403.69 3402.91 1403.25C3403.06 1402.81 3403.13 1402.28 3403.13 1401.66C3403.13 1401.03 3403.06 1400.51 3402.91 1400.08C3402.76 1399.64 3402.53 1399.31 3402.21 1399.09C3401.9 1398.86 3401.49 1398.75 3400.99 1398.75C3400.24 1398.75 3399.7 1399 3399.36 1399.5C3399.03 1400.01 3398.86 1400.72 3398.86 1401.65ZM3411.8 1397.18C3411.94 1397.18 3412.09 1397.19 3412.26 1397.2C3412.44 1397.21 3412.58 1397.23 3412.7 1397.26L3412.52 1399.06C3412.42 1399.02 3412.3 1399 3412.14 1398.99C3411.99 1398.97 3411.85 1398.96 3411.72 1398.96C3411.4 1398.96 3411.09 1399.01 3410.79 1399.12C3410.5 1399.23 3410.24 1399.39 3410.01 1399.6C3409.77 1399.8 3409.59 1400.06 3409.45 1400.38C3409.32 1400.69 3409.26 1401.06 3409.26 1401.49V1406H3407.34V1397.34H3408.84L3409.1 1398.86H3409.19C3409.36 1398.55 3409.58 1398.27 3409.83 1398.02C3410.09 1397.76 3410.38 1397.56 3410.71 1397.41C3411.05 1397.26 3411.42 1397.18 3411.8 1397.18ZM3416.36 1399.71C3416.36 1399.97 3416.35 1400.25 3416.33 1400.56C3416.31 1400.86 3416.29 1401.14 3416.26 1401.41H3416.31C3416.4 1401.29 3416.5 1401.16 3416.62 1401.01C3416.73 1400.85 3416.86 1400.69 3416.98 1400.53C3417.11 1400.37 3417.23 1400.23 3417.34 1400.11L3419.93 1397.34H3422.12L3418.65 1401.07L3422.34 1406H3420.09L3417.35 1402.24L3416.36 1403.07V1406H3414.44V1393.84H3416.36V1399.71ZM3429.71 1403.52C3429.71 1404.09 3429.57 1404.57 3429.3 1404.96C3429.02 1405.35 3428.61 1405.65 3428.08 1405.86C3427.55 1406.06 3426.9 1406.16 3426.13 1406.16C3425.53 1406.16 3425.01 1406.12 3424.58 1406.03C3424.14 1405.95 3423.73 1405.81 3423.34 1405.63V1403.98C3423.75 1404.19 3424.21 1404.36 3424.72 1404.5C3425.24 1404.63 3425.73 1404.7 3426.19 1404.7C3426.78 1404.7 3427.2 1404.61 3427.46 1404.43C3427.71 1404.25 3427.84 1404.01 3427.84 1403.71C3427.84 1403.53 3427.79 1403.37 3427.68 1403.23C3427.58 1403.08 3427.39 1402.93 3427.1 1402.77C3426.83 1402.61 3426.4 1402.42 3425.84 1402.19C3425.28 1401.97 3424.82 1401.75 3424.45 1401.54C3424.08 1401.31 3423.81 1401.05 3423.62 1400.74C3423.42 1400.42 3423.33 1400.02 3423.33 1399.54C3423.33 1398.77 3423.63 1398.19 3424.24 1397.79C3424.86 1397.39 3425.67 1397.18 3426.67 1397.18C3427.2 1397.18 3427.71 1397.24 3428.18 1397.34C3428.64 1397.44 3429.11 1397.59 3429.58 1397.81L3428.98 1399.25C3428.71 1399.13 3428.44 1399.03 3428.18 1398.94C3427.92 1398.85 3427.66 1398.78 3427.39 1398.74C3427.14 1398.68 3426.87 1398.66 3426.61 1398.66C3426.15 1398.66 3425.8 1398.73 3425.55 1398.86C3425.32 1399 3425.2 1399.19 3425.2 1399.44C3425.2 1399.63 3425.26 1399.8 3425.38 1399.94C3425.49 1400.07 3425.7 1400.21 3425.98 1400.35C3426.27 1400.49 3426.68 1400.67 3427.22 1400.88C3427.74 1401.08 3428.19 1401.29 3428.56 1401.5C3428.93 1401.72 3429.22 1401.98 3429.41 1402.3C3429.61 1402.62 3429.71 1403.03 3429.71 1403.52Z" fill="#535353" id="n1015"/>
<path fill-rule="evenodd" clip-rule="evenodd" d="M3556 1397.41L3554.59 1396L3550 1400.58L3545.41 1396L3544 1397.41L3550 1403.41L3556 1397.41Z" fill="#535353" id="n1016"/>
<mask id="path-866-inside-60_1702_11540" fill="white">
<path d="M3270 1432H3590V1496H3270V1432Z" id="n1017"/>
</mask>
<path d="M3270 1433H3590V1431H3270V1433Z" fill="#DDDDDD" mask="url(#path-866-inside-60_1702_11540)" id="n1018"/>
<path d="M3307.25 1474L3306.85 1470.8C3306.63 1470.72 3306.43 1470.62 3306.24 1470.5C3306.05 1470.38 3305.86 1470.26 3305.68 1470.12L3302.7 1471.38L3299.95 1466.62L3302.53 1464.68C3302.51 1464.56 3302.5 1464.45 3302.5 1464.34V1463.66C3302.5 1463.55 3302.51 1463.44 3302.53 1463.32L3299.95 1461.38L3302.7 1456.62L3305.68 1457.88C3305.86 1457.74 3306.05 1457.62 3306.25 1457.5C3306.45 1457.38 3306.65 1457.28 3306.85 1457.2L3307.25 1454H3312.75L3313.15 1457.2C3313.37 1457.28 3313.57 1457.38 3313.76 1457.5C3313.95 1457.62 3314.14 1457.74 3314.33 1457.88L3317.3 1456.62L3320.05 1461.38L3317.48 1463.32C3317.49 1463.44 3317.5 1463.55 3317.5 1463.66V1464.34C3317.5 1464.45 3317.48 1464.56 3317.45 1464.68L3320.03 1466.62L3317.28 1471.38L3314.33 1470.12C3314.14 1470.26 3313.95 1470.38 3313.75 1470.5C3313.55 1470.62 3313.35 1470.72 3313.15 1470.8L3312.75 1474H3307.25ZM3309 1472H3310.98L3311.33 1469.35C3311.84 1469.22 3312.32 1469.02 3312.76 1468.76C3313.2 1468.5 3313.61 1468.19 3313.98 1467.82L3316.45 1468.85L3317.43 1467.15L3315.28 1465.53C3315.36 1465.29 3315.42 1465.05 3315.45 1464.79C3315.48 1464.53 3315.5 1464.27 3315.5 1464C3315.5 1463.73 3315.48 1463.47 3315.45 1463.21C3315.42 1462.95 3315.36 1462.71 3315.28 1462.48L3317.43 1460.85L3316.45 1459.15L3313.98 1460.2C3313.61 1459.82 3313.2 1459.5 3312.76 1459.24C3312.32 1458.98 3311.84 1458.78 3311.33 1458.65L3311 1456H3309.03L3308.68 1458.65C3308.16 1458.78 3307.68 1458.98 3307.24 1459.24C3306.8 1459.5 3306.39 1459.81 3306.03 1460.18L3303.55 1459.15L3302.58 1460.85L3304.73 1462.45C3304.64 1462.7 3304.58 1462.95 3304.55 1463.2C3304.52 1463.45 3304.5 1463.72 3304.5 1464C3304.5 1464.27 3304.52 1464.53 3304.55 1464.78C3304.58 1465.03 3304.64 1465.28 3304.73 1465.53L3302.58 1467.15L3303.55 1468.85L3306.03 1467.8C3306.39 1468.18 3306.8 1468.5 3307.24 1468.76C3307.68 1469.02 3308.16 1469.22 3308.68 1469.35L3309 1472Z" fill="#535353" id="n1019"/>
<path fill-rule="evenodd" clip-rule="evenodd" d="M3310 1465.5C3310.83 1465.5 3311.5 1464.83 3311.5 1464C3311.5 1463.17 3310.83 1462.5 3310 1462.5C3309.17 1462.5 3308.5 1463.17 3308.5 1464C3308.5 1464.83 3309.17 1465.5 3310 1465.5ZM3310 1467.5C3311.93 1467.5 3313.5 1465.93 3313.5 1464C3313.5 1462.07 3311.93 1460.5 3310 1460.5C3308.07 1460.5 3306.5 1462.07 3306.5 1464C3306.5 1465.93 3308.07 1467.5 3310 1467.5Z" fill="#535353" id="n1020"/>
<path d="M3338 1466.98C3338 1467.66 3337.83 1468.23 3337.5 1468.7C3337.17 1469.17 3336.7 1469.54 3336.08 1469.79C3335.47 1470.04 3334.76 1470.16 3333.95 1470.16C3333.53 1470.16 3333.11 1470.14 3332.72 1470.1C3332.34 1470.05 3331.98 1469.99 3331.66 1469.92C3331.35 1469.83 3331.08 1469.74 3330.83 1469.63V1468.38C3331.22 1468.55 3331.69 1468.71 3332.26 1468.85C3332.82 1468.98 3333.41 1469.04 3334.02 1469.04C3334.59 1469.04 3335.08 1468.97 3335.47 1468.82C3335.88 1468.66 3336.19 1468.43 3336.4 1468.14C3336.61 1467.85 3336.72 1467.49 3336.72 1467.07C3336.72 1466.68 3336.63 1466.35 3336.45 1466.08C3336.28 1465.81 3335.99 1465.57 3335.58 1465.36C3335.18 1465.14 3334.63 1464.91 3333.95 1464.67C3333.46 1464.49 3333.03 1464.3 3332.66 1464.1C3332.29 1463.89 3331.98 1463.66 3331.73 1463.41C3331.48 1463.15 3331.3 1462.85 3331.17 1462.51C3331.04 1462.17 3330.98 1461.78 3330.98 1461.33C3330.98 1460.71 3331.13 1460.19 3331.44 1459.76C3331.75 1459.32 3332.18 1458.99 3332.72 1458.77C3333.27 1458.53 3333.9 1458.42 3334.61 1458.42C3335.23 1458.42 3335.79 1458.47 3336.3 1458.59C3336.82 1458.7 3337.29 1458.85 3337.73 1459.06L3337.31 1460.14C3336.91 1459.97 3336.47 1459.83 3336 1459.73C3335.54 1459.61 3335.07 1459.55 3334.58 1459.55C3334.09 1459.55 3333.67 1459.63 3333.33 1459.78C3332.99 1459.91 3332.73 1460.12 3332.54 1460.38C3332.36 1460.65 3332.27 1460.97 3332.27 1461.33C3332.27 1461.74 3332.36 1462.09 3332.53 1462.35C3332.71 1462.62 3332.99 1462.85 3333.36 1463.06C3333.74 1463.26 3334.23 1463.47 3334.83 1463.7C3335.51 1463.94 3336.09 1464.2 3336.56 1464.48C3337.03 1464.76 3337.39 1465.09 3337.63 1465.49C3337.88 1465.87 3338 1466.37 3338 1466.98ZM3343.42 1461.28C3344.16 1461.28 3344.78 1461.45 3345.29 1461.78C3345.82 1462.1 3346.21 1462.55 3346.48 1463.14C3346.75 1463.71 3346.89 1464.39 3346.89 1465.17V1465.95H3340.96C3340.98 1466.97 3341.23 1467.74 3341.71 1468.29C3342.2 1468.82 3342.89 1469.09 3343.79 1469.09C3344.32 1469.09 3344.8 1469.04 3345.21 1468.94C3345.63 1468.84 3346.06 1468.69 3346.51 1468.5V1469.6C3346.08 1469.79 3345.66 1469.93 3345.23 1470.02C3344.8 1470.11 3344.3 1470.16 3343.73 1470.16C3342.9 1470.16 3342.18 1469.99 3341.57 1469.66C3340.96 1469.32 3340.49 1468.83 3340.16 1468.18C3339.83 1467.51 3339.66 1466.72 3339.66 1465.79C3339.66 1464.87 3339.81 1464.08 3340.11 1463.41C3340.42 1462.74 3340.86 1462.21 3341.42 1461.84C3341.99 1461.47 3342.65 1461.28 3343.42 1461.28ZM3343.41 1462.32C3342.7 1462.32 3342.14 1462.55 3341.73 1463.01C3341.31 1463.47 3341.06 1464.11 3340.99 1464.94H3345.58C3345.58 1464.42 3345.5 1463.97 3345.34 1463.58C3345.19 1463.19 3344.96 1462.88 3344.64 1462.66C3344.32 1462.43 3343.91 1462.32 3343.41 1462.32ZM3351.81 1469.12C3352.04 1469.12 3352.26 1469.1 3352.47 1469.07C3352.69 1469.03 3352.88 1468.99 3353.03 1468.94V1469.9C3352.87 1469.98 3352.66 1470.04 3352.39 1470.08C3352.13 1470.13 3351.87 1470.16 3351.61 1470.16C3351.16 1470.16 3350.75 1470.08 3350.39 1469.92C3350.03 1469.76 3349.73 1469.49 3349.51 1469.12C3349.3 1468.74 3349.19 1468.21 3349.19 1467.54V1462.43H3347.96V1461.81L3349.21 1461.33L3349.69 1459.46H3350.45V1461.44H3352.97V1462.43H3350.45V1467.5C3350.45 1468.05 3350.57 1468.45 3350.81 1468.72C3351.05 1468.99 3351.39 1469.12 3351.81 1469.12ZM3357.5 1469.12C3357.73 1469.12 3357.94 1469.1 3358.16 1469.07C3358.38 1469.03 3358.57 1468.99 3358.72 1468.94V1469.9C3358.56 1469.98 3358.34 1470.04 3358.08 1470.08C3357.82 1470.13 3357.56 1470.16 3357.29 1470.16C3356.85 1470.16 3356.44 1470.08 3356.08 1469.92C3355.72 1469.76 3355.42 1469.49 3355.2 1469.12C3354.98 1468.74 3354.88 1468.21 3354.88 1467.54V1462.43H3353.65V1461.81L3354.89 1461.33L3355.37 1459.46H3356.14V1461.44H3358.65V1462.43H3356.14V1467.5C3356.14 1468.05 3356.26 1468.45 3356.49 1468.72C3356.74 1468.99 3357.08 1469.12 3357.5 1469.12ZM3361.72 1461.44V1470H3360.47V1461.44H3361.72ZM3361.11 1458.24C3361.32 1458.24 3361.5 1458.31 3361.64 1458.45C3361.79 1458.59 3361.86 1458.8 3361.86 1459.09C3361.86 1459.35 3361.79 1459.56 3361.64 1459.71C3361.5 1459.85 3361.32 1459.92 3361.11 1459.92C3360.89 1459.92 3360.7 1459.85 3360.55 1459.71C3360.41 1459.56 3360.34 1459.35 3360.34 1459.09C3360.34 1458.8 3360.41 1458.59 3360.55 1458.45C3360.7 1458.31 3360.89 1458.24 3361.11 1458.24ZM3368.5 1461.28C3369.5 1461.28 3370.27 1461.53 3370.79 1462.03C3371.31 1462.52 3371.57 1463.32 3371.57 1464.42V1470H3370.33V1464.51C3370.33 1463.78 3370.16 1463.23 3369.83 1462.88C3369.5 1462.53 3369 1462.35 3368.33 1462.35C3367.38 1462.35 3366.7 1462.62 3366.31 1463.15C3365.92 1463.69 3365.72 1464.46 3365.72 1465.49V1470H3364.47V1461.44H3365.48L3365.67 1462.7H3365.73C3365.93 1462.39 3366.16 1462.14 3366.44 1461.94C3366.72 1461.72 3367.03 1461.56 3367.38 1461.46C3367.73 1461.34 3368.11 1461.28 3368.5 1461.28ZM3377.31 1461.28C3377.9 1461.28 3378.43 1461.4 3378.88 1461.63C3379.32 1461.86 3379.7 1462.19 3380.01 1462.62H3380.09L3380.27 1461.44H3381.26V1470.18C3381.26 1470.97 3381.13 1471.63 3380.86 1472.18C3380.59 1472.73 3380.18 1473.15 3379.61 1473.42C3379.06 1473.7 3378.34 1473.84 3377.47 1473.84C3376.85 1473.84 3376.28 1473.79 3375.77 1473.7C3375.26 1473.6 3374.8 1473.47 3374.4 1473.3V1472.11C3374.67 1472.25 3374.98 1472.37 3375.31 1472.46C3375.64 1472.57 3375.99 1472.65 3376.36 1472.7C3376.75 1472.76 3377.14 1472.78 3377.55 1472.78C3378.34 1472.78 3378.94 1472.56 3379.37 1472.11C3379.8 1471.66 3380.01 1471.05 3380.01 1470.27V1469.89C3380.01 1469.74 3380.02 1469.55 3380.03 1469.31C3380.04 1469.07 3380.05 1468.88 3380.06 1468.75H3380.01C3379.72 1469.22 3379.35 1469.57 3378.89 1469.81C3378.44 1470.04 3377.91 1470.16 3377.29 1470.16C3376.18 1470.16 3375.32 1469.78 3374.7 1469.01C3374.08 1468.24 3373.77 1467.16 3373.77 1465.76C3373.77 1464.84 3373.91 1464.05 3374.19 1463.38C3374.46 1462.7 3374.86 1462.19 3375.39 1461.82C3375.92 1461.46 3376.56 1461.28 3377.31 1461.28ZM3377.47 1462.35C3376.96 1462.35 3376.52 1462.49 3376.16 1462.75C3375.8 1463.02 3375.53 1463.41 3375.34 1463.92C3375.16 1464.42 3375.07 1465.04 3375.07 1465.78C3375.07 1466.85 3375.27 1467.68 3375.68 1468.26C3376.09 1468.83 3376.69 1469.12 3377.47 1469.12C3377.94 1469.12 3378.33 1469.06 3378.65 1468.93C3378.97 1468.8 3379.23 1468.61 3379.44 1468.35C3379.65 1468.1 3379.8 1467.78 3379.88 1467.39C3379.98 1467.01 3380.03 1466.57 3380.03 1466.06V1465.66C3380.03 1464.9 3379.94 1464.27 3379.76 1463.79C3379.58 1463.3 3379.31 1462.94 3378.94 1462.7C3378.57 1462.47 3378.08 1462.35 3377.47 1462.35ZM3389.54 1467.66C3389.54 1468.21 3389.4 1468.67 3389.12 1469.04C3388.85 1469.4 3388.46 1469.68 3387.95 1469.87C3387.45 1470.06 3386.85 1470.16 3386.14 1470.16C3385.55 1470.16 3385.03 1470.11 3384.59 1470.02C3384.16 1469.92 3383.77 1469.79 3383.44 1469.62V1468.46C3383.79 1468.63 3384.21 1468.79 3384.69 1468.93C3385.18 1469.07 3385.68 1469.14 3386.18 1469.14C3386.92 1469.14 3387.46 1469.01 3387.79 1468.77C3388.13 1468.52 3388.3 1468.19 3388.3 1467.78C3388.3 1467.53 3388.24 1467.32 3388.1 1467.14C3387.97 1466.95 3387.74 1466.78 3387.42 1466.61C3387.12 1466.44 3386.68 1466.25 3386.13 1466.05C3385.58 1465.85 3385.12 1465.64 3384.72 1465.44C3384.33 1465.24 3384.02 1464.99 3383.79 1464.69C3383.58 1464.39 3383.47 1464.01 3383.47 1463.54C3383.47 1462.81 3383.76 1462.26 3384.34 1461.87C3384.92 1461.48 3385.69 1461.28 3386.64 1461.28C3387.16 1461.28 3387.65 1461.33 3388.1 1461.44C3388.54 1461.54 3388.96 1461.67 3389.34 1461.84L3388.91 1462.86C3388.69 1462.76 3388.44 1462.67 3388.18 1462.59C3387.92 1462.51 3387.65 1462.44 3387.38 1462.4C3387.11 1462.35 3386.84 1462.32 3386.56 1462.32C3385.95 1462.32 3385.48 1462.42 3385.15 1462.62C3384.83 1462.83 3384.67 1463.1 3384.67 1463.46C3384.67 1463.72 3384.75 1463.95 3384.9 1464.13C3385.05 1464.3 3385.29 1464.46 3385.62 1464.61C3385.96 1464.76 3386.39 1464.93 3386.91 1465.14C3387.45 1465.33 3387.9 1465.53 3388.29 1465.74C3388.68 1465.95 3388.99 1466.2 3389.2 1466.51C3389.42 1466.81 3389.54 1467.19 3389.54 1467.66Z" fill="#535353" id="n1021"/>
</g>
</g>
</g>
</svg>
