<?xml version='1.0' encoding='utf-8'?>
<svg xmlns="http://www.w3.org/2000/svg" xmlns:xlink="http://www.w3.org/1999/xlink" width="317.0" height="375.0" viewBox="0 0 317.0 375.0" fill="none">
  <defs><clipPath id="clip__asset"><rect x="0" y="0" width="317.0" height="375.0"/></clipPath><mask id="path-1097-outside-81_1702_11540" maskUnits="userSpaceOnUse" x="5188" y="382" width="16" height="4" fill="black">
<rect fill="white" x="5188" y="382" width="16" height="4" id="n1293"/>
<path d="M5188 382H5200V386H5188V382Z" id="n1294"/>
</mask>
<mask id="path-1120-inside-82_1702_11540" fill="white">
<path d="M5011 639H5328V687H5011V639Z" id="n1319"/>
</mask>
<mask id="path-1123-inside-83_1702_11540" fill="white">
<path d="M5090.25 639H5169.5V687H5090.25V639Z" id="n1322"/>
</mask>
<filter id="filter26_d_1702_11540" x="4995" y="300" width="349" height="407" filterUnits="userSpaceOnUse" color-interpolation-filters="sRGB">
<feFlood flood-opacity="0" result="BackgroundImageFix" id="n3304"/>
<feColorMatrix in="SourceAlpha" type="matrix" values="0 0 0 0 0 0 0 0 0 0 0 0 0 0 0 0 0 0 127 0" result="hardAlpha" id="n3305"/>
<feOffset dy="4" id="n3306"/>
<feGaussianBlur stdDeviation="8" id="n3307"/>
<feComposite in2="hardAlpha" operator="out" id="n3308"/>
<feColorMatrix type="matrix" values="0 0 0 0 0 0 0 0 0 0 0 0 0 0 0 0 0 0 0.32 0" id="n3309"/>
<feBlend mode="normal" in2="BackgroundImageFix" result="effect1_dropShadow_1702_11540" id="n3310"/>
<feBlend mode="normal" in="SourceGraphic" in2="effect1_dropShadow_1702_11540" result="shape" id="n3311"/>
</filter>
<clipPath id="clip32_1702_11540">
<path d="M5011 324C5011 317.373 5016.37 312 5023 312H5316C5322.63 312 5328 317.373 5328 324V675C5328 681.627 5322.63 687 5316 687H5023C5016.37 687 5011 681.627 5011 675V324Z" fill="white" id="n3467"/>
</clipPath>
<clipPath id="clip33_1702_11540">
<rect width="317" height="327" fill="white" transform="translate(5011 312)" id="n3468"/>
</clipPath>
<clipPath id="clip34_1702_11540">
<path d="M5011 639H5328V687H5011V639Z" fill="white" id="n3469"/>
</clipPath>
</defs>
  <g clip-path="url(#clip__asset)" transform="translate(-5011.0 -312.0)"><g filter="url(#filter26_d_1702_11540)" id="n1279">
<g clip-path="url(#clip32_1702_11540)" id="n1280">
<path d="M5011 324C5011 317.373 5016.37 312 5023 312H5316C5322.63 312 5328 317.373 5328 324V675C5328 681.627 5322.63 687 5316 687H5023C5016.37 687 5011 681.627 5011 675V324Z" fill="#FCFCFC" id="n1281"/>
<g clip-path="url(#clip33_1702_11540)" id="n1282">
<rect width="317" height="104" transform="translate(5011 312)" fill="#FCFCFC" id="n1283"/>
<path d="M5043.58 342L5042.47 338.896H5038.14L5037.06 342H5035L5039.24 330.528H5041.4L5045.64 342H5043.58ZM5040.92 334.176C5040.88 334.048 5040.81 333.856 5040.73 333.6C5040.65 333.344 5040.58 333.088 5040.5 332.832C5040.43 332.565 5040.37 332.341 5040.31 332.16C5040.26 332.373 5040.19 332.619 5040.12 332.896C5040.05 333.163 5039.97 333.413 5039.9 333.648C5039.83 333.883 5039.78 334.059 5039.74 334.176L5038.7 337.216H5041.98L5040.92 334.176ZM5054.72 333.344V342H5053.21L5052.94 340.88H5052.85C5052.66 341.179 5052.43 341.424 5052.14 341.616C5051.86 341.797 5051.56 341.931 5051.21 342.016C5050.87 342.112 5050.52 342.16 5050.14 342.16C5049.5 342.16 5048.95 342.048 5048.48 341.824C5048.01 341.6 5047.65 341.259 5047.41 340.8C5047.16 340.331 5047.04 339.728 5047.04 338.992V333.344H5048.96V338.64C5048.96 339.291 5049.09 339.781 5049.36 340.112C5049.62 340.443 5050.04 340.608 5050.61 340.608C5051.17 340.608 5051.61 340.491 5051.92 340.256C5052.24 340.021 5052.46 339.685 5052.59 339.248C5052.73 338.8 5052.8 338.256 5052.8 337.616V333.344H5054.72ZM5060.35 342.16C5059.34 342.16 5058.52 341.787 5057.89 341.04C5057.27 340.283 5056.96 339.163 5056.96 337.68C5056.96 336.197 5057.27 335.077 5057.9 334.32C5058.53 333.563 5059.36 333.184 5060.4 333.184C5060.83 333.184 5061.2 333.243 5061.52 333.36C5061.85 333.467 5062.13 333.616 5062.37 333.808C5062.61 334 5062.82 334.213 5062.98 334.448H5063.07C5063.05 334.299 5063.02 334.075 5062.98 333.776C5062.94 333.467 5062.93 333.189 5062.93 332.944V329.84H5064.85V342H5063.36L5063.01 340.864H5062.93C5062.77 341.099 5062.57 341.317 5062.34 341.52C5062.1 341.712 5061.82 341.867 5061.49 341.984C5061.17 342.101 5060.79 342.16 5060.35 342.16ZM5060.9 340.608C5061.67 340.608 5062.22 340.389 5062.53 339.952C5062.85 339.504 5063.01 338.837 5063.02 337.952V337.696C5063.02 336.747 5062.87 336.021 5062.56 335.52C5062.26 335.008 5061.7 334.752 5060.88 334.752C5060.24 334.752 5059.75 335.013 5059.41 335.536C5059.08 336.059 5058.91 336.784 5058.91 337.712C5058.91 338.651 5059.08 339.371 5059.41 339.872C5059.75 340.363 5060.24 340.608 5060.9 340.608ZM5069.51 333.344V342H5067.59V333.344H5069.51ZM5068.57 330.016C5068.85 330.016 5069.1 330.096 5069.32 330.256C5069.53 330.405 5069.64 330.672 5069.64 331.056C5069.64 331.429 5069.53 331.696 5069.32 331.856C5069.1 332.016 5068.85 332.096 5068.57 332.096C5068.27 332.096 5068.01 332.016 5067.8 331.856C5067.6 331.696 5067.49 331.429 5067.49 331.056C5067.49 330.672 5067.6 330.405 5067.8 330.256C5068.01 330.096 5068.27 330.016 5068.57 330.016ZM5079.98 337.648C5079.98 338.373 5079.89 339.013 5079.69 339.568C5079.5 340.123 5079.23 340.597 5078.86 340.992C5078.51 341.376 5078.08 341.669 5077.57 341.872C5077.05 342.064 5076.48 342.16 5075.85 342.16C5075.27 342.16 5074.72 342.064 5074.22 341.872C5073.72 341.669 5073.29 341.376 5072.93 340.992C5072.56 340.597 5072.28 340.123 5072.08 339.568C5071.88 339.013 5071.77 338.373 5071.77 337.648C5071.77 336.688 5071.94 335.877 5072.27 335.216C5072.6 334.555 5073.08 334.053 5073.69 333.712C5074.31 333.36 5075.05 333.184 5075.9 333.184C5076.7 333.184 5077.41 333.36 5078.01 333.712C5078.62 334.053 5079.1 334.555 5079.45 335.216C5079.81 335.877 5079.98 336.688 5079.98 337.648ZM5073.74 337.648C5073.74 338.277 5073.82 338.811 5073.97 339.248C5074.12 339.685 5074.35 340.021 5074.65 340.256C5074.97 340.48 5075.39 340.592 5075.89 340.592C5076.38 340.592 5076.78 340.48 5077.09 340.256C5077.41 340.021 5077.64 339.685 5077.79 339.248C5077.94 338.811 5078.01 338.283 5078.01 337.664C5078.01 337.035 5077.94 336.507 5077.79 336.08C5077.64 335.643 5077.41 335.312 5077.09 335.088C5076.78 334.864 5076.37 334.752 5075.87 334.752C5075.12 334.752 5074.58 335.003 5074.24 335.504C5073.91 336.005 5073.74 336.72 5073.74 337.648Z" fill="#535353" id="n1284"/>
<path d="M5044.6 368.5H5073.4C5075.09 368.5 5076.32 368.5 5077.3 368.58C5078.27 368.659 5078.94 368.815 5079.5 369.1C5080.53 369.627 5081.37 370.468 5081.9 371.503C5082.19 372.062 5082.34 372.731 5082.42 373.7C5082.5 374.676 5082.5 375.912 5082.5 377.6V390.4C5082.5 392.088 5082.5 393.324 5082.42 394.3C5082.34 395.269 5082.19 395.938 5081.9 396.497C5081.37 397.532 5080.53 398.373 5079.5 398.9C5078.94 399.185 5078.27 399.341 5077.3 399.42C5076.32 399.5 5075.09 399.5 5073.4 399.5H5044.6C5042.91 399.5 5041.68 399.5 5040.7 399.42C5039.73 399.341 5039.06 399.185 5038.5 398.9C5037.47 398.373 5036.63 397.532 5036.1 396.497C5035.81 395.938 5035.66 395.269 5035.58 394.3C5035.5 393.324 5035.5 392.088 5035.5 390.4V377.6C5035.5 375.912 5035.5 374.676 5035.58 373.7C5035.66 372.731 5035.81 372.062 5036.1 371.503C5036.63 370.468 5037.47 369.627 5038.5 369.1C5039.06 368.815 5039.73 368.659 5040.7 368.58C5041.68 368.5 5042.91 368.5 5044.6 368.5Z" fill="#2D548B" id="n1285"/>
<path d="M5044.6 368.5H5073.4C5075.09 368.5 5076.32 368.5 5077.3 368.58C5078.27 368.659 5078.94 368.815 5079.5 369.1C5080.53 369.627 5081.37 370.468 5081.9 371.503C5082.19 372.062 5082.34 372.731 5082.42 373.7C5082.5 374.676 5082.5 375.912 5082.5 377.6V390.4C5082.5 392.088 5082.5 393.324 5082.42 394.3C5082.34 395.269 5082.19 395.938 5081.9 396.497C5081.37 397.532 5080.53 398.373 5079.5 398.9C5078.94 399.185 5078.27 399.341 5077.3 399.42C5076.32 399.5 5075.09 399.5 5073.4 399.5H5044.6C5042.91 399.5 5041.68 399.5 5040.7 399.42C5039.73 399.341 5039.06 399.185 5038.5 398.9C5037.47 398.373 5036.63 397.532 5036.1 396.497C5035.81 395.938 5035.66 395.269 5035.58 394.3C5035.5 393.324 5035.5 392.088 5035.5 390.4V377.6C5035.5 375.912 5035.5 374.676 5035.58 373.7C5035.66 372.731 5035.81 372.062 5036.1 371.503C5036.63 370.468 5037.47 369.627 5038.5 369.1C5039.06 368.815 5039.73 368.659 5040.7 368.58C5041.68 368.5 5042.91 368.5 5044.6 368.5Z" stroke="#1D3C67" id="n1286"/>
<path fill-rule="evenodd" clip-rule="evenodd" d="M5058.27 391.268L5055 388H5052.2C5051.08 388 5050.52 388 5050.09 387.782C5049.72 387.59 5049.41 387.284 5049.22 386.908C5049 386.48 5049 385.92 5049 384.8V383.2C5049 382.08 5049 381.52 5049.22 381.092C5049.41 380.716 5049.72 380.41 5050.09 380.218C5050.52 380 5051.08 380 5052.2 380H5055L5058.27 376.731C5059.13 375.874 5059.55 375.446 5059.92 375.417C5060.24 375.392 5060.55 375.521 5060.76 375.765C5061 376.045 5061 376.651 5061 377.863V390.137C5061 391.349 5061 391.955 5060.76 392.235C5060.55 392.479 5060.24 392.608 5059.92 392.583C5059.55 392.554 5059.13 392.125 5058.27 391.268ZM5055.83 382L5059 378.828V389.171L5055.83 386H5051V382H5055.83Z" fill="white" id="n1287"/>
<path d="M5063 377.675C5063.72 378.018 5064.38 378.483 5064.95 379.05C5065.6 379.7 5066.12 380.472 5066.47 381.321C5066.82 382.17 5067 383.081 5067 384C5067 384.919 5066.82 385.829 5066.47 386.679C5066.12 387.528 5065.6 388.3 5064.95 388.95C5064.38 389.517 5063.72 389.982 5063 390.324V392.485C5063.15 392.432 5063.3 392.376 5063.44 392.315C5064.54 391.863 5065.53 391.2 5066.36 390.364C5067.2 389.528 5067.86 388.536 5068.31 387.444C5068.77 386.352 5069 385.182 5069 384C5069 382.818 5068.77 381.648 5068.31 380.556C5067.86 379.464 5067.2 378.472 5066.36 377.636C5065.53 376.8 5064.54 376.137 5063.44 375.685C5063.3 375.624 5063.15 375.567 5063 375.515V377.675Z" fill="white" id="n1288"/>
<path d="M5063 387.464V380.536C5063.3 380.71 5063.58 380.924 5063.83 381.172C5064.2 381.543 5064.49 381.984 5064.7 382.469C5064.9 382.954 5065 383.475 5065 384C5065 384.525 5064.9 385.045 5064.7 385.531C5064.49 386.016 5064.2 386.457 5063.83 386.828C5063.58 387.076 5063.3 387.29 5063 387.464Z" fill="white" id="n1289"/>
<path d="M5111 384C5111 382.895 5111.9 382 5113 382H5254C5255.1 382 5256 382.895 5256 384C5256 385.105 5255.1 386 5254 386H5113C5111.9 386 5111 385.105 5111 384Z" fill="black" fill-opacity="0.04" id="n1290"/>
<path d="M5113 383H5254C5254.55 383 5255 383.448 5255 384C5255 384.552 5254.55 385 5254 385H5113C5112.45 385 5112 384.552 5112 384C5112 383.448 5112.45 383 5113 383Z" stroke="black" stroke-opacity="0.1" stroke-width="2" id="n1291"/>
<path d="M5111 384C5111 382.895 5111.9 382 5113 382H5200V386H5113C5111.9 386 5111 385.105 5111 384Z" fill="#2D548B" id="n1292"/>
<mask id="path-1097-outside-81_1702_11540" maskUnits="userSpaceOnUse" x="5188" y="382" width="16" height="4" fill="black">
<rect fill="white" x="5188" y="382" width="16" height="4" id="n1293"/>
<path d="M5188 382H5200V386H5188V382Z" id="n1294"/>
</mask>
<path d="M5200 382H5196V386H5200H5204V382H5200Z" fill="#F7F7F7" mask="url(#path-1097-outside-81_1702_11540)" id="n1295"/>
<path d="M5188 374C5188 370.686 5190.69 368 5194 368C5197.31 368 5200 370.686 5200 374V394C5200 397.314 5197.31 400 5194 400C5190.69 400 5188 397.314 5188 394V374Z" fill="#2D548B" id="n1296"/>
<path d="M5268.58 378.432C5269.24 378.432 5269.83 378.533 5270.37 378.736C5270.9 378.939 5271.32 379.243 5271.63 379.648C5271.95 380.053 5272.11 380.56 5272.11 381.168C5272.11 381.627 5272.02 382.032 5271.82 382.384C5271.63 382.725 5271.38 383.024 5271.06 383.28C5270.75 383.536 5270.39 383.765 5270 383.968C5270.44 384.181 5270.84 384.432 5271.22 384.72C5271.59 384.997 5271.89 385.328 5272.11 385.712C5272.35 386.085 5272.46 386.528 5272.46 387.04C5272.46 387.669 5272.3 388.219 5271.98 388.688C5271.66 389.157 5271.21 389.52 5270.62 389.776C5270.05 390.032 5269.37 390.16 5268.59 390.16C5267.75 390.16 5267.03 390.037 5266.45 389.792C5265.87 389.547 5265.43 389.195 5265.12 388.736C5264.82 388.277 5264.67 387.733 5264.67 387.104C5264.67 386.581 5264.77 386.128 5264.98 385.744C5265.19 385.36 5265.47 385.029 5265.81 384.752C5266.15 384.464 5266.53 384.224 5266.94 384.032C5266.58 383.819 5266.26 383.579 5265.97 383.312C5265.68 383.035 5265.45 382.725 5265.28 382.384C5265.11 382.032 5265.02 381.621 5265.02 381.152C5265.02 380.555 5265.18 380.053 5265.5 379.648C5265.82 379.243 5266.25 378.939 5266.78 378.736C5267.33 378.533 5267.93 378.432 5268.58 378.432ZM5266.5 387.024C5266.5 387.504 5266.67 387.904 5267.01 388.224C5267.35 388.533 5267.87 388.688 5268.56 388.688C5269.02 388.688 5269.4 388.619 5269.7 388.48C5270.01 388.341 5270.24 388.144 5270.4 387.888C5270.56 387.632 5270.64 387.339 5270.64 387.008C5270.64 386.688 5270.55 386.405 5270.37 386.16C5270.19 385.904 5269.94 385.68 5269.63 385.488C5269.33 385.285 5269 385.099 5268.62 384.928L5268.4 384.832C5268.01 385.003 5267.66 385.195 5267.38 385.408C5267.09 385.621 5266.87 385.861 5266.72 386.128C5266.57 386.384 5266.5 386.683 5266.5 387.024ZM5268.56 379.888C5268.07 379.888 5267.66 380.011 5267.34 380.256C5267.03 380.491 5266.88 380.832 5266.88 381.28C5266.88 381.6 5266.95 381.877 5267.1 382.112C5267.26 382.347 5267.47 382.544 5267.73 382.704C5267.99 382.864 5268.28 383.019 5268.59 383.168C5268.9 383.029 5269.18 382.88 5269.42 382.72C5269.68 382.56 5269.88 382.363 5270.03 382.128C5270.18 381.893 5270.26 381.611 5270.26 381.28C5270.26 380.832 5270.1 380.491 5269.78 380.256C5269.47 380.011 5269.06 379.888 5268.56 379.888ZM5281.62 384.272C5281.62 385.2 5281.55 386.027 5281.41 386.752C5281.27 387.477 5281.05 388.096 5280.74 388.608C5280.43 389.109 5280.03 389.493 5279.52 389.76C5279.03 390.027 5278.43 390.16 5277.72 390.16C5276.83 390.16 5276.1 389.925 5275.52 389.456C5274.95 388.987 5274.52 388.315 5274.24 387.44C5273.97 386.555 5273.83 385.499 5273.83 384.272C5273.83 383.045 5273.96 381.995 5274.21 381.12C5274.47 380.245 5274.88 379.573 5275.44 379.104C5276.02 378.635 5276.78 378.4 5277.72 378.4C5278.6 378.4 5279.33 378.635 5279.91 379.104C5280.48 379.563 5280.91 380.235 5281.19 381.12C5281.48 381.995 5281.62 383.045 5281.62 384.272ZM5275.76 384.288C5275.76 385.237 5275.82 386.032 5275.94 386.672C5276.07 387.301 5276.27 387.776 5276.55 388.096C5276.84 388.405 5277.23 388.56 5277.72 388.56C5278.21 388.56 5278.59 388.405 5278.87 388.096C5279.16 387.787 5279.36 387.312 5279.49 386.672C5279.62 386.032 5279.68 385.232 5279.68 384.272C5279.68 383.323 5279.62 382.533 5279.49 381.904C5279.36 381.264 5279.16 380.789 5278.87 380.48C5278.59 380.16 5278.21 380 5277.72 380C5277.23 380 5276.84 380.16 5276.55 380.48C5276.27 380.789 5276.07 381.264 5275.94 381.904C5275.82 382.533 5275.76 383.328 5275.76 384.288ZM5285.46 378.416C5286.32 378.416 5286.96 378.731 5287.38 379.36C5287.82 379.979 5288.04 380.853 5288.04 381.984C5288.04 383.115 5287.83 384 5287.42 384.64C5287 385.269 5286.35 385.584 5285.46 385.584C5284.92 385.584 5284.46 385.44 5284.07 385.152C5283.7 384.864 5283.42 384.453 5283.22 383.92C5283.04 383.376 5282.95 382.731 5282.95 381.984C5282.95 380.853 5283.15 379.979 5283.54 379.36C5283.95 378.731 5284.59 378.416 5285.46 378.416ZM5285.48 379.744C5285.15 379.744 5284.91 379.931 5284.76 380.304C5284.61 380.677 5284.54 381.237 5284.54 381.984C5284.54 382.741 5284.61 383.312 5284.76 383.696C5284.91 384.069 5285.14 384.256 5285.46 384.256C5285.81 384.256 5286.06 384.069 5286.22 383.696C5286.38 383.312 5286.46 382.747 5286.46 382C5286.46 381.243 5286.38 380.677 5286.22 380.304C5286.06 379.931 5285.81 379.744 5285.48 379.744ZM5293.19 378.576L5286.86 390H5285.29L5291.62 378.576H5293.19ZM5292.98 382.976C5293.55 382.976 5294.02 383.12 5294.39 383.408C5294.78 383.685 5295.06 384.091 5295.26 384.624C5295.46 385.147 5295.56 385.787 5295.56 386.544C5295.56 387.675 5295.35 388.56 5294.94 389.2C5294.52 389.829 5293.87 390.144 5292.98 390.144C5292.44 390.144 5291.98 390 5291.59 389.712C5291.22 389.424 5290.94 389.013 5290.74 388.48C5290.56 387.936 5290.47 387.291 5290.47 386.544C5290.47 385.413 5290.67 384.539 5291.06 383.92C5291.47 383.291 5292.11 382.976 5292.98 382.976ZM5293 384.32C5292.67 384.32 5292.43 384.507 5292.28 384.88C5292.13 385.243 5292.06 385.803 5292.06 386.56C5292.06 387.317 5292.13 387.888 5292.28 388.272C5292.43 388.645 5292.66 388.832 5292.98 388.832C5293.33 388.832 5293.58 388.645 5293.74 388.272C5293.9 387.899 5293.98 387.328 5293.98 386.56C5293.98 385.803 5293.9 385.243 5293.74 384.88C5293.58 384.507 5293.33 384.32 5293 384.32Z" fill="#1F1F1F" id="n1297"/>
<path fill-rule="evenodd" clip-rule="evenodd" d="M5011.5 417C5011.22 417 5011 416.776 5011 416.5C5011 416.224 5011.22 416 5011.5 416H5327.5C5327.78 416 5328 416.224 5328 416.5C5328 416.776 5327.78 417 5327.5 417H5011.5Z" fill="#DDDDDD" id="n1298"/>
<rect x="5039.5" y="437.5" width="23" height="23" rx="11.5" fill="black" fill-opacity="0.04" id="n1299"/>
<rect x="5039.5" y="437.5" width="23" height="23" rx="11.5" stroke="#8E8E8E" id="n1300"/>
<path d="M5082.44 449.272C5082.44 450.157 5082.33 450.963 5082.1 451.688C5081.89 452.403 5081.57 453.021 5081.13 453.544C5080.69 454.067 5080.14 454.467 5079.48 454.744C5078.83 455.021 5078.08 455.16 5077.22 455.16C5076.34 455.16 5075.57 455.021 5074.9 454.744C5074.25 454.456 5073.71 454.056 5073.27 453.544C5072.83 453.021 5072.51 452.397 5072.3 451.672C5072.08 450.947 5071.98 450.141 5071.98 449.256C5071.98 448.083 5072.17 447.059 5072.55 446.184C5072.95 445.309 5073.53 444.627 5074.31 444.136C5075.09 443.645 5076.07 443.4 5077.24 443.4C5078.37 443.4 5079.32 443.64 5080.09 444.12C5080.87 444.6 5081.45 445.283 5081.85 446.168C5082.24 447.043 5082.44 448.077 5082.44 449.272ZM5073.34 449.272C5073.34 450.243 5073.47 451.085 5073.75 451.8C5074.03 452.515 5074.46 453.069 5075.03 453.464C5075.61 453.848 5076.34 454.04 5077.22 454.04C5078.11 454.04 5078.83 453.848 5079.4 453.464C5079.98 453.069 5080.4 452.52 5080.68 451.816C5080.96 451.101 5081.1 450.253 5081.1 449.272C5081.1 447.789 5080.78 446.632 5080.15 445.8C5079.53 444.957 5078.56 444.536 5077.24 444.536C5076.35 444.536 5075.62 444.728 5075.03 445.112C5074.46 445.496 5074.03 446.04 5073.75 446.744C5073.47 447.448 5073.34 448.291 5073.34 449.272ZM5091.84 446.44V455H5090.81L5090.62 453.768H5090.57C5090.39 454.067 5090.16 454.323 5089.87 454.536C5089.59 454.739 5089.28 454.893 5088.93 455C5088.57 455.107 5088.19 455.16 5087.79 455.16C5087.12 455.16 5086.55 455.053 5086.09 454.84C5085.63 454.616 5085.29 454.275 5085.05 453.816C5084.82 453.357 5084.7 452.765 5084.7 452.04V446.44H5085.98V451.96C5085.98 452.675 5086.14 453.213 5086.46 453.576C5086.79 453.928 5087.29 454.104 5087.97 454.104C5088.61 454.104 5089.11 453.987 5089.49 453.752C5089.87 453.507 5090.15 453.149 5090.32 452.68C5090.5 452.211 5090.59 451.64 5090.59 450.968V446.44H5091.84ZM5097.31 454.12C5097.54 454.12 5097.76 454.104 5097.97 454.072C5098.19 454.029 5098.38 453.987 5098.53 453.944V454.904C5098.37 454.979 5098.16 455.037 5097.89 455.08C5097.63 455.133 5097.37 455.16 5097.11 455.16C5096.66 455.16 5096.25 455.08 5095.89 454.92C5095.53 454.76 5095.23 454.493 5095.01 454.12C5094.8 453.736 5094.69 453.208 5094.69 452.536V447.432H5093.46V446.808L5094.71 446.328L5095.19 444.456H5095.95V446.44H5098.47V447.432H5095.95V452.504C5095.95 453.048 5096.07 453.453 5096.31 453.72C5096.55 453.987 5096.89 454.12 5097.31 454.12ZM5104.28 446.28C5105.35 446.28 5106.2 446.648 5106.83 447.384C5107.47 448.12 5107.79 449.224 5107.79 450.696C5107.79 451.667 5107.64 452.488 5107.34 453.16C5107.05 453.821 5106.64 454.323 5106.11 454.664C5105.58 454.995 5104.96 455.16 5104.25 455.16C5103.79 455.16 5103.39 455.096 5103.03 454.968C5102.68 454.84 5102.38 454.675 5102.14 454.472C5101.9 454.269 5101.71 454.045 5101.55 453.8H5101.45C5101.47 454.003 5101.49 454.248 5101.51 454.536C5101.54 454.824 5101.55 455.08 5101.55 455.304V458.824H5100.28V446.44H5101.31L5101.48 447.736H5101.55C5101.71 447.469 5101.91 447.229 5102.15 447.016C5102.4 446.792 5102.69 446.616 5103.03 446.488C5103.39 446.349 5103.8 446.28 5104.28 446.28ZM5104.06 447.352C5103.47 447.352 5102.99 447.469 5102.62 447.704C5102.26 447.939 5101.98 448.285 5101.8 448.744C5101.63 449.203 5101.55 449.779 5101.55 450.472V450.712C5101.55 451.448 5101.63 452.067 5101.79 452.568C5101.95 453.069 5102.21 453.453 5102.59 453.72C5102.96 453.976 5103.46 454.104 5104.07 454.104C5104.61 454.104 5105.05 453.96 5105.4 453.672C5105.76 453.384 5106.04 452.984 5106.22 452.472C5106.4 451.96 5106.49 451.363 5106.49 450.68C5106.49 449.645 5106.29 448.835 5105.88 448.248C5105.49 447.651 5104.88 447.352 5104.06 447.352ZM5117.07 446.44V455H5116.05L5115.86 453.768H5115.81C5115.63 454.067 5115.39 454.323 5115.1 454.536C5114.83 454.739 5114.51 454.893 5114.16 455C5113.81 455.107 5113.43 455.16 5113.02 455.16C5112.35 455.16 5111.79 455.053 5111.33 454.84C5110.87 454.616 5110.52 454.275 5110.29 453.816C5110.05 453.357 5109.94 452.765 5109.94 452.04V446.44H5111.22V451.96C5111.22 452.675 5111.38 453.213 5111.7 453.576C5112.03 453.928 5112.53 454.104 5113.2 454.104C5113.84 454.104 5114.35 453.987 5114.72 453.752C5115.1 453.507 5115.38 453.149 5115.55 452.68C5115.73 452.211 5115.82 451.64 5115.82 450.968V446.44H5117.07ZM5122.55 454.12C5122.77 454.12 5122.99 454.104 5123.21 454.072C5123.43 454.029 5123.62 453.987 5123.77 453.944V454.904C5123.61 454.979 5123.39 455.037 5123.13 455.08C5122.87 455.133 5122.61 455.16 5122.34 455.16C5121.89 455.16 5121.49 455.08 5121.13 454.92C5120.76 454.76 5120.47 454.493 5120.25 454.12C5120.03 453.736 5119.93 453.208 5119.93 452.536V447.432H5118.69V446.808L5119.94 446.328L5120.42 444.456H5121.19V446.44H5123.7V447.432H5121.19V452.504C5121.19 453.048 5121.31 453.453 5121.54 453.72C5121.79 453.987 5122.12 454.12 5122.55 454.12ZM5133.9 455H5132.66V446.856C5132.66 446.547 5132.66 446.285 5132.66 446.072C5132.68 445.859 5132.68 445.661 5132.68 445.48C5132.69 445.288 5132.7 445.096 5132.71 444.904C5132.55 445.064 5132.4 445.203 5132.26 445.32C5132.13 445.427 5131.96 445.571 5131.75 445.752L5130.41 446.808L5129.75 445.96L5132.84 443.576H5133.9V455Z" fill="#1F1F1F" id="n1301"/>
<rect x="5039.5" y="485.5" width="23" height="23" rx="11.5" fill="#2D548B" id="n1302"/>
<rect x="5039.5" y="485.5" width="23" height="23" rx="11.5" stroke="#1D3C67" id="n1303"/>
<path fill-rule="evenodd" clip-rule="evenodd" d="M5051 501C5053.21 501 5055 499.209 5055 497C5055 494.791 5053.21 493 5051 493C5048.79 493 5047 494.791 5047 497C5047 499.209 5048.79 501 5051 501Z" fill="white" id="n1304"/>
<path d="M5082.78 497.272C5082.78 498.157 5082.66 498.963 5082.44 499.688C5082.23 500.403 5081.9 501.021 5081.45 501.544C5081.01 502.067 5080.45 502.467 5079.77 502.744C5079.09 503.021 5078.28 503.16 5077.35 503.16C5076.43 503.16 5075.63 503.021 5074.94 502.744C5074.25 502.456 5073.69 502.056 5073.24 501.544C5072.8 501.021 5072.47 500.397 5072.25 499.672C5072.03 498.947 5071.93 498.141 5071.93 497.256C5071.93 496.072 5072.12 495.043 5072.5 494.168C5072.9 493.293 5073.5 492.616 5074.3 492.136C5075.11 491.645 5076.13 491.4 5077.37 491.4C5078.59 491.4 5079.61 491.645 5080.41 492.136C5081.21 492.616 5081.8 493.299 5082.18 494.184C5082.58 495.059 5082.78 496.088 5082.78 497.272ZM5074.36 497.272C5074.36 498.093 5074.46 498.797 5074.66 499.384C5074.88 499.971 5075.2 500.424 5075.64 500.744C5076.09 501.064 5076.66 501.224 5077.35 501.224C5078.07 501.224 5078.64 501.064 5079.08 500.744C5079.52 500.424 5079.84 499.971 5080.04 499.384C5080.24 498.797 5080.34 498.093 5080.34 497.272C5080.34 496.045 5080.11 495.085 5079.64 494.392C5079.18 493.688 5078.42 493.336 5077.37 493.336C5076.66 493.336 5076.09 493.496 5075.64 493.816C5075.2 494.125 5074.88 494.573 5074.66 495.16C5074.46 495.747 5074.36 496.451 5074.36 497.272ZM5092.89 494.28V503H5091.14L5090.82 501.88H5090.71C5090.53 502.179 5090.3 502.424 5090.01 502.616C5089.73 502.797 5089.42 502.931 5089.08 503.016C5088.74 503.112 5088.39 503.16 5088.02 503.16C5087.39 503.16 5086.84 503.048 5086.38 502.824C5085.91 502.6 5085.54 502.253 5085.29 501.784C5085.03 501.315 5084.9 500.712 5084.9 499.976V494.28H5087.19V499.432C5087.19 500.061 5087.3 500.536 5087.53 500.856C5087.76 501.176 5088.14 501.336 5088.65 501.336C5089.16 501.336 5089.55 501.224 5089.83 501C5090.12 500.776 5090.32 500.451 5090.44 500.024C5090.56 499.587 5090.62 499.059 5090.62 498.44V494.28H5092.89ZM5099 501.336C5099.26 501.336 5099.51 501.315 5099.76 501.272C5100 501.219 5100.24 501.155 5100.48 501.08V502.776C5100.23 502.883 5099.92 502.973 5099.55 503.048C5099.19 503.123 5098.79 503.16 5098.36 503.16C5097.85 503.16 5097.39 503.075 5096.99 502.904C5096.58 502.733 5096.26 502.44 5096.01 502.024C5095.78 501.608 5095.66 501.032 5095.66 500.296V495.992H5094.51V495.032L5095.82 494.248L5096.49 492.408H5097.93V494.28H5100.38V495.992H5097.93V500.28C5097.93 500.643 5098.03 500.909 5098.22 501.08C5098.42 501.251 5098.68 501.336 5099 501.336ZM5107 494.12C5107.99 494.12 5108.79 494.504 5109.4 495.272C5110.02 496.029 5110.33 497.149 5110.33 498.632C5110.33 499.613 5110.18 500.445 5109.9 501.128C5109.61 501.8 5109.21 502.307 5108.7 502.648C5108.2 502.989 5107.61 503.16 5106.95 503.16C5106.53 503.16 5106.16 503.107 5105.85 503C5105.55 502.893 5105.29 502.755 5105.06 502.584C5104.85 502.403 5104.66 502.216 5104.5 502.024H5104.38C5104.42 502.227 5104.45 502.44 5104.47 502.664C5104.49 502.888 5104.5 503.107 5104.5 503.32V506.84H5102.23V494.28H5104.07L5104.39 495.416H5104.5C5104.66 495.181 5104.86 494.968 5105.08 494.776C5105.3 494.573 5105.58 494.413 5105.9 494.296C5106.22 494.179 5106.58 494.12 5107 494.12ZM5106.3 495.944C5105.86 495.944 5105.51 496.035 5105.26 496.216C5105 496.387 5104.81 496.653 5104.7 497.016C5104.58 497.368 5104.52 497.816 5104.5 498.36V498.616C5104.5 499.192 5104.56 499.683 5104.66 500.088C5104.78 500.483 5104.97 500.787 5105.24 501C5105.51 501.203 5105.87 501.304 5106.33 501.304C5106.71 501.304 5107.03 501.203 5107.27 501C5107.52 500.787 5107.7 500.477 5107.82 500.072C5107.94 499.656 5108.01 499.165 5108.01 498.6C5108.01 497.725 5107.87 497.064 5107.59 496.616C5107.32 496.168 5106.88 495.944 5106.3 495.944ZM5120.25 494.28V503H5118.5L5118.18 501.88H5118.07C5117.89 502.179 5117.65 502.424 5117.37 502.616C5117.09 502.797 5116.78 502.931 5116.44 503.016C5116.1 503.112 5115.75 503.16 5115.38 503.16C5114.75 503.16 5114.2 503.048 5113.73 502.824C5113.27 502.6 5112.9 502.253 5112.65 501.784C5112.39 501.315 5112.26 500.712 5112.26 499.976V494.28H5114.55V499.432C5114.55 500.061 5114.66 500.536 5114.89 500.856C5115.12 501.176 5115.49 501.336 5116.01 501.336C5116.52 501.336 5116.91 501.224 5117.19 501C5117.48 500.776 5117.68 500.451 5117.8 500.024C5117.92 499.587 5117.97 499.059 5117.97 498.44V494.28H5120.25ZM5126.36 501.336C5126.62 501.336 5126.87 501.315 5127.12 501.272C5127.36 501.219 5127.6 501.155 5127.84 501.08V502.776C5127.59 502.883 5127.28 502.973 5126.91 503.048C5126.54 503.123 5126.15 503.16 5125.72 503.16C5125.21 503.16 5124.75 503.075 5124.35 502.904C5123.94 502.733 5123.62 502.44 5123.37 502.024C5123.14 501.608 5123.02 501.032 5123.02 500.296V495.992H5121.87V495.032L5123.18 494.248L5123.85 492.408H5125.29V494.28H5127.74V495.992H5125.29V500.28C5125.29 500.643 5125.39 500.909 5125.58 501.08C5125.78 501.251 5126.04 501.336 5126.36 501.336ZM5141.08 503H5133.14V501.384L5136.02 498.472C5136.6 497.875 5137.06 497.373 5137.41 496.968C5137.78 496.563 5138.04 496.195 5138.2 495.864C5138.37 495.523 5138.45 495.155 5138.45 494.76C5138.45 494.28 5138.32 493.923 5138.05 493.688C5137.79 493.453 5137.43 493.336 5136.98 493.336C5136.53 493.336 5136.1 493.437 5135.68 493.64C5135.27 493.843 5134.83 494.131 5134.37 494.504L5133.12 493.016C5133.46 492.728 5133.8 492.467 5134.16 492.232C5134.53 491.987 5134.95 491.789 5135.43 491.64C5135.91 491.491 5136.48 491.416 5137.14 491.416C5137.89 491.416 5138.53 491.549 5139.06 491.816C5139.59 492.083 5140 492.451 5140.29 492.92C5140.59 493.379 5140.74 493.907 5140.74 494.504C5140.74 494.973 5140.67 495.411 5140.52 495.816C5140.38 496.221 5140.17 496.616 5139.89 497C5139.63 497.373 5139.3 497.763 5138.9 498.168C5138.52 498.563 5138.08 498.995 5137.59 499.464L5136 500.952V501.048H5141.08V503Z" fill="#1F1F1F" id="n1305"/>
<rect x="5039.5" y="533.5" width="23" height="23" rx="11.5" fill="black" fill-opacity="0.04" id="n1306"/>
<rect x="5039.5" y="533.5" width="23" height="23" rx="11.5" stroke="#8E8E8E" id="n1307"/>
<path d="M5082.44 545.272C5082.44 546.157 5082.33 546.963 5082.1 547.688C5081.89 548.403 5081.57 549.021 5081.13 549.544C5080.69 550.067 5080.14 550.467 5079.48 550.744C5078.83 551.021 5078.08 551.16 5077.22 551.16C5076.34 551.16 5075.57 551.021 5074.9 550.744C5074.25 550.456 5073.71 550.056 5073.27 549.544C5072.83 549.021 5072.51 548.397 5072.3 547.672C5072.08 546.947 5071.98 546.141 5071.98 545.256C5071.98 544.083 5072.17 543.059 5072.55 542.184C5072.95 541.309 5073.53 540.627 5074.31 540.136C5075.09 539.645 5076.07 539.4 5077.24 539.4C5078.37 539.4 5079.32 539.64 5080.09 540.12C5080.87 540.6 5081.45 541.283 5081.85 542.168C5082.24 543.043 5082.44 544.077 5082.44 545.272ZM5073.34 545.272C5073.34 546.243 5073.47 547.085 5073.75 547.8C5074.03 548.515 5074.46 549.069 5075.03 549.464C5075.61 549.848 5076.34 550.04 5077.22 550.04C5078.11 550.04 5078.83 549.848 5079.4 549.464C5079.98 549.069 5080.4 548.52 5080.68 547.816C5080.96 547.101 5081.1 546.253 5081.1 545.272C5081.1 543.789 5080.78 542.632 5080.15 541.8C5079.53 540.957 5078.56 540.536 5077.24 540.536C5076.35 540.536 5075.62 540.728 5075.03 541.112C5074.46 541.496 5074.03 542.04 5073.75 542.744C5073.47 543.448 5073.34 544.291 5073.34 545.272ZM5091.84 542.44V551H5090.81L5090.62 549.768H5090.57C5090.39 550.067 5090.16 550.323 5089.87 550.536C5089.59 550.739 5089.28 550.893 5088.93 551C5088.57 551.107 5088.19 551.16 5087.79 551.16C5087.12 551.16 5086.55 551.053 5086.09 550.84C5085.63 550.616 5085.29 550.275 5085.05 549.816C5084.82 549.357 5084.7 548.765 5084.7 548.04V542.44H5085.98V547.96C5085.98 548.675 5086.14 549.213 5086.46 549.576C5086.79 549.928 5087.29 550.104 5087.97 550.104C5088.61 550.104 5089.11 549.987 5089.49 549.752C5089.87 549.507 5090.15 549.149 5090.32 548.68C5090.5 548.211 5090.59 547.64 5090.59 546.968V542.44H5091.84ZM5097.31 550.12C5097.54 550.12 5097.76 550.104 5097.97 550.072C5098.19 550.029 5098.38 549.987 5098.53 549.944V550.904C5098.37 550.979 5098.16 551.037 5097.89 551.08C5097.63 551.133 5097.37 551.16 5097.11 551.16C5096.66 551.16 5096.25 551.08 5095.89 550.92C5095.53 550.76 5095.23 550.493 5095.01 550.12C5094.8 549.736 5094.69 549.208 5094.69 548.536V543.432H5093.46V542.808L5094.71 542.328L5095.19 540.456H5095.95V542.44H5098.47V543.432H5095.95V548.504C5095.95 549.048 5096.07 549.453 5096.31 549.72C5096.55 549.987 5096.89 550.12 5097.31 550.12ZM5104.28 542.28C5105.35 542.28 5106.2 542.648 5106.83 543.384C5107.47 544.12 5107.79 545.224 5107.79 546.696C5107.79 547.667 5107.64 548.488 5107.34 549.16C5107.05 549.821 5106.64 550.323 5106.11 550.664C5105.58 550.995 5104.96 551.16 5104.25 551.16C5103.79 551.16 5103.39 551.096 5103.03 550.968C5102.68 550.84 5102.38 550.675 5102.14 550.472C5101.9 550.269 5101.71 550.045 5101.55 549.8H5101.45C5101.47 550.003 5101.49 550.248 5101.51 550.536C5101.54 550.824 5101.55 551.08 5101.55 551.304V554.824H5100.28V542.44H5101.31L5101.48 543.736H5101.55C5101.71 543.469 5101.91 543.229 5102.15 543.016C5102.4 542.792 5102.69 542.616 5103.03 542.488C5103.39 542.349 5103.8 542.28 5104.28 542.28ZM5104.06 543.352C5103.47 543.352 5102.99 543.469 5102.62 543.704C5102.26 543.939 5101.98 544.285 5101.8 544.744C5101.63 545.203 5101.55 545.779 5101.55 546.472V546.712C5101.55 547.448 5101.63 548.067 5101.79 548.568C5101.95 549.069 5102.21 549.453 5102.59 549.72C5102.96 549.976 5103.46 550.104 5104.07 550.104C5104.61 550.104 5105.05 549.96 5105.4 549.672C5105.76 549.384 5106.04 548.984 5106.22 548.472C5106.4 547.96 5106.49 547.363 5106.49 546.68C5106.49 545.645 5106.29 544.835 5105.88 544.248C5105.49 543.651 5104.88 543.352 5104.06 543.352ZM5117.07 542.44V551H5116.05L5115.86 549.768H5115.81C5115.63 550.067 5115.39 550.323 5115.1 550.536C5114.83 550.739 5114.51 550.893 5114.16 551C5113.81 551.107 5113.43 551.16 5113.02 551.16C5112.35 551.16 5111.79 551.053 5111.33 550.84C5110.87 550.616 5110.52 550.275 5110.29 549.816C5110.05 549.357 5109.94 548.765 5109.94 548.04V542.44H5111.22V547.96C5111.22 548.675 5111.38 549.213 5111.7 549.576C5112.03 549.928 5112.53 550.104 5113.2 550.104C5113.84 550.104 5114.35 549.987 5114.72 549.752C5115.1 549.507 5115.38 549.149 5115.55 548.68C5115.73 548.211 5115.82 547.64 5115.82 546.968V542.44H5117.07ZM5122.55 550.12C5122.77 550.12 5122.99 550.104 5123.21 550.072C5123.43 550.029 5123.62 549.987 5123.77 549.944V550.904C5123.61 550.979 5123.39 551.037 5123.13 551.08C5122.87 551.133 5122.61 551.16 5122.34 551.16C5121.89 551.16 5121.49 551.08 5121.13 550.92C5120.76 550.76 5120.47 550.493 5120.25 550.12C5120.03 549.736 5119.93 549.208 5119.93 548.536V543.432H5118.69V542.808L5119.94 542.328L5120.42 540.456H5121.19V542.44H5123.7V543.432H5121.19V548.504C5121.19 549.048 5121.31 549.453 5121.54 549.72C5121.79 549.987 5122.12 550.12 5122.55 550.12ZM5136.14 542.232C5136.14 542.744 5136.04 543.192 5135.83 543.576C5135.64 543.949 5135.36 544.253 5135 544.488C5134.65 544.723 5134.23 544.888 5133.75 544.984V545.048C5134.66 545.155 5135.34 545.443 5135.8 545.912C5136.26 546.381 5136.49 547 5136.49 547.768C5136.49 548.429 5136.33 549.016 5136.02 549.528C5135.72 550.04 5135.24 550.44 5134.6 550.728C5133.97 551.016 5133.16 551.16 5132.17 551.16C5131.56 551.16 5131 551.112 5130.47 551.016C5129.96 550.92 5129.48 550.76 5129.02 550.536V549.352C5129.49 549.576 5130 549.757 5130.55 549.896C5131.12 550.024 5131.66 550.088 5132.18 550.088C5133.23 550.088 5133.99 549.88 5134.46 549.464C5134.93 549.048 5135.16 548.477 5135.16 547.752C5135.16 547.24 5135.03 546.835 5134.78 546.536C5134.52 546.227 5134.15 546.003 5133.66 545.864C5133.17 545.715 5132.58 545.64 5131.9 545.64H5130.76V544.552H5131.91C5132.53 544.552 5133.05 544.461 5133.48 544.28C5133.92 544.099 5134.25 543.843 5134.49 543.512C5134.72 543.171 5134.84 542.771 5134.84 542.312C5134.84 541.725 5134.64 541.277 5134.25 540.968C5133.86 540.648 5133.34 540.488 5132.66 540.488C5132.26 540.488 5131.89 540.531 5131.54 540.616C5131.21 540.691 5130.9 540.803 5130.6 540.952C5130.31 541.091 5130.02 541.261 5129.72 541.464L5129.1 540.6C5129.38 540.387 5129.7 540.189 5130.06 540.008C5130.42 539.827 5130.81 539.683 5131.24 539.576C5131.68 539.469 5132.15 539.416 5132.65 539.416C5133.81 539.416 5134.68 539.677 5135.26 540.2C5135.84 540.723 5136.14 541.4 5136.14 542.232Z" fill="#1F1F1F" id="n1308"/>
<rect x="5039.5" y="581.5" width="23" height="23" rx="11.5" fill="black" fill-opacity="0.04" id="n1309"/>
<rect x="5039.5" y="581.5" width="23" height="23" rx="11.5" stroke="#8E8E8E" id="n1310"/>
<path d="M5082.44 593.272C5082.44 594.157 5082.33 594.963 5082.1 595.688C5081.89 596.403 5081.57 597.021 5081.13 597.544C5080.69 598.067 5080.14 598.467 5079.48 598.744C5078.83 599.021 5078.08 599.16 5077.22 599.16C5076.34 599.16 5075.57 599.021 5074.9 598.744C5074.25 598.456 5073.71 598.056 5073.27 597.544C5072.83 597.021 5072.51 596.397 5072.3 595.672C5072.08 594.947 5071.98 594.141 5071.98 593.256C5071.98 592.083 5072.17 591.059 5072.55 590.184C5072.95 589.309 5073.53 588.627 5074.31 588.136C5075.09 587.645 5076.07 587.4 5077.24 587.4C5078.37 587.4 5079.32 587.64 5080.09 588.12C5080.87 588.6 5081.45 589.283 5081.85 590.168C5082.24 591.043 5082.44 592.077 5082.44 593.272ZM5073.34 593.272C5073.34 594.243 5073.47 595.085 5073.75 595.8C5074.03 596.515 5074.46 597.069 5075.03 597.464C5075.61 597.848 5076.34 598.04 5077.22 598.04C5078.11 598.04 5078.83 597.848 5079.4 597.464C5079.98 597.069 5080.4 596.52 5080.68 595.816C5080.96 595.101 5081.1 594.253 5081.1 593.272C5081.1 591.789 5080.78 590.632 5080.15 589.8C5079.53 588.957 5078.56 588.536 5077.24 588.536C5076.35 588.536 5075.62 588.728 5075.03 589.112C5074.46 589.496 5074.03 590.04 5073.75 590.744C5073.47 591.448 5073.34 592.291 5073.34 593.272ZM5091.84 590.44V599H5090.81L5090.62 597.768H5090.57C5090.39 598.067 5090.16 598.323 5089.87 598.536C5089.59 598.739 5089.28 598.893 5088.93 599C5088.57 599.107 5088.19 599.16 5087.79 599.16C5087.12 599.16 5086.55 599.053 5086.09 598.84C5085.63 598.616 5085.29 598.275 5085.05 597.816C5084.82 597.357 5084.7 596.765 5084.7 596.04V590.44H5085.98V595.96C5085.98 596.675 5086.14 597.213 5086.46 597.576C5086.79 597.928 5087.29 598.104 5087.97 598.104C5088.61 598.104 5089.11 597.987 5089.49 597.752C5089.87 597.507 5090.15 597.149 5090.32 596.68C5090.5 596.211 5090.59 595.64 5090.59 594.968V590.44H5091.84ZM5097.31 598.12C5097.54 598.12 5097.76 598.104 5097.97 598.072C5098.19 598.029 5098.38 597.987 5098.53 597.944V598.904C5098.37 598.979 5098.16 599.037 5097.89 599.08C5097.63 599.133 5097.37 599.16 5097.11 599.16C5096.66 599.16 5096.25 599.08 5095.89 598.92C5095.53 598.76 5095.23 598.493 5095.01 598.12C5094.8 597.736 5094.69 597.208 5094.69 596.536V591.432H5093.46V590.808L5094.71 590.328L5095.19 588.456H5095.95V590.44H5098.47V591.432H5095.95V596.504C5095.95 597.048 5096.07 597.453 5096.31 597.72C5096.55 597.987 5096.89 598.12 5097.31 598.12ZM5104.28 590.28C5105.35 590.28 5106.2 590.648 5106.83 591.384C5107.47 592.12 5107.79 593.224 5107.79 594.696C5107.79 595.667 5107.64 596.488 5107.34 597.16C5107.05 597.821 5106.64 598.323 5106.11 598.664C5105.58 598.995 5104.96 599.16 5104.25 599.16C5103.79 599.16 5103.39 599.096 5103.03 598.968C5102.68 598.84 5102.38 598.675 5102.14 598.472C5101.9 598.269 5101.71 598.045 5101.55 597.8H5101.45C5101.47 598.003 5101.49 598.248 5101.51 598.536C5101.54 598.824 5101.55 599.08 5101.55 599.304V602.824H5100.28V590.44H5101.31L5101.48 591.736H5101.55C5101.71 591.469 5101.91 591.229 5102.15 591.016C5102.4 590.792 5102.69 590.616 5103.03 590.488C5103.39 590.349 5103.8 590.28 5104.28 590.28ZM5104.06 591.352C5103.47 591.352 5102.99 591.469 5102.62 591.704C5102.26 591.939 5101.98 592.285 5101.8 592.744C5101.63 593.203 5101.55 593.779 5101.55 594.472V594.712C5101.55 595.448 5101.63 596.067 5101.79 596.568C5101.95 597.069 5102.21 597.453 5102.59 597.72C5102.96 597.976 5103.46 598.104 5104.07 598.104C5104.61 598.104 5105.05 597.96 5105.4 597.672C5105.76 597.384 5106.04 596.984 5106.22 596.472C5106.4 595.96 5106.49 595.363 5106.49 594.68C5106.49 593.645 5106.29 592.835 5105.88 592.248C5105.49 591.651 5104.88 591.352 5104.06 591.352ZM5117.07 590.44V599H5116.05L5115.86 597.768H5115.81C5115.63 598.067 5115.39 598.323 5115.1 598.536C5114.83 598.739 5114.51 598.893 5114.16 599C5113.81 599.107 5113.43 599.16 5113.02 599.16C5112.35 599.16 5111.79 599.053 5111.33 598.84C5110.87 598.616 5110.52 598.275 5110.29 597.816C5110.05 597.357 5109.94 596.765 5109.94 596.04V590.44H5111.22V595.96C5111.22 596.675 5111.38 597.213 5111.7 597.576C5112.03 597.928 5112.53 598.104 5113.2 598.104C5113.84 598.104 5114.35 597.987 5114.72 597.752C5115.1 597.507 5115.38 597.149 5115.55 596.68C5115.73 596.211 5115.82 595.64 5115.82 594.968V590.44H5117.07ZM5122.55 598.12C5122.77 598.12 5122.99 598.104 5123.21 598.072C5123.43 598.029 5123.62 597.987 5123.77 597.944V598.904C5123.61 598.979 5123.39 599.037 5123.13 599.08C5122.87 599.133 5122.61 599.16 5122.34 599.16C5121.89 599.16 5121.49 599.08 5121.13 598.92C5120.76 598.76 5120.47 598.493 5120.25 598.12C5120.03 597.736 5119.93 597.208 5119.93 596.536V591.432H5118.69V590.808L5119.94 590.328L5120.42 588.456H5121.19V590.44H5123.7V591.432H5121.19V596.504C5121.19 597.048 5121.31 597.453 5121.54 597.72C5121.79 597.987 5122.12 598.12 5122.55 598.12ZM5136.14 590.232C5136.14 590.744 5136.04 591.192 5135.83 591.576C5135.64 591.949 5135.36 592.253 5135 592.488C5134.65 592.723 5134.23 592.888 5133.75 592.984V593.048C5134.66 593.155 5135.34 593.443 5135.8 593.912C5136.26 594.381 5136.49 595 5136.49 595.768C5136.49 596.429 5136.33 597.016 5136.02 597.528C5135.72 598.04 5135.24 598.44 5134.6 598.728C5133.97 599.016 5133.16 599.16 5132.17 599.16C5131.56 599.16 5131 599.112 5130.47 599.016C5129.96 598.92 5129.48 598.76 5129.02 598.536V597.352C5129.49 597.576 5130 597.757 5130.55 597.896C5131.12 598.024 5131.66 598.088 5132.18 598.088C5133.23 598.088 5133.99 597.88 5134.46 597.464C5134.93 597.048 5135.16 596.477 5135.16 595.752C5135.16 595.24 5135.03 594.835 5134.78 594.536C5134.52 594.227 5134.15 594.003 5133.66 593.864C5133.17 593.715 5132.58 593.64 5131.9 593.64H5130.76V592.552H5131.91C5132.53 592.552 5133.05 592.461 5133.48 592.28C5133.92 592.099 5134.25 591.843 5134.49 591.512C5134.72 591.171 5134.84 590.771 5134.84 590.312C5134.84 589.725 5134.64 589.277 5134.25 588.968C5133.86 588.648 5133.34 588.488 5132.66 588.488C5132.26 588.488 5131.89 588.531 5131.54 588.616C5131.21 588.691 5130.9 588.803 5130.6 588.952C5130.31 589.091 5130.02 589.261 5129.72 589.464L5129.1 588.6C5129.38 588.387 5129.7 588.189 5130.06 588.008C5130.42 587.827 5130.81 587.683 5131.24 587.576C5131.68 587.469 5132.15 587.416 5132.65 587.416C5133.81 587.416 5134.68 587.677 5135.26 588.2C5135.84 588.723 5136.14 589.4 5136.14 590.232Z" fill="#1F1F1F" id="n1311"/>
<rect x="5039.5" y="629.5" width="23" height="23" rx="11.5" fill="black" fill-opacity="0.04" id="n1312"/>
<rect x="5039.5" y="629.5" width="23" height="23" rx="11.5" stroke="#8E8E8E" id="n1313"/>
<path d="M5082.44 641.272C5082.44 642.157 5082.33 642.963 5082.1 643.688C5081.89 644.403 5081.57 645.021 5081.13 645.544C5080.69 646.067 5080.14 646.467 5079.48 646.744C5078.83 647.021 5078.08 647.16 5077.22 647.16C5076.34 647.16 5075.57 647.021 5074.9 646.744C5074.25 646.456 5073.71 646.056 5073.27 645.544C5072.83 645.021 5072.51 644.397 5072.3 643.672C5072.08 642.947 5071.98 642.141 5071.98 641.256C5071.98 640.083 5072.17 639.059 5072.55 638.184C5072.95 637.309 5073.53 636.627 5074.31 636.136C5075.09 635.645 5076.07 635.4 5077.24 635.4C5078.37 635.4 5079.32 635.64 5080.09 636.12C5080.87 636.6 5081.45 637.283 5081.85 638.168C5082.24 639.043 5082.44 640.077 5082.44 641.272ZM5073.34 641.272C5073.34 642.243 5073.47 643.085 5073.75 643.8C5074.03 644.515 5074.46 645.069 5075.03 645.464C5075.61 645.848 5076.34 646.04 5077.22 646.04C5078.11 646.04 5078.83 645.848 5079.4 645.464C5079.98 645.069 5080.4 644.52 5080.68 643.816C5080.96 643.101 5081.1 642.253 5081.1 641.272C5081.1 639.789 5080.78 638.632 5080.15 637.8C5079.53 636.957 5078.56 636.536 5077.24 636.536C5076.35 636.536 5075.62 636.728 5075.03 637.112C5074.46 637.496 5074.03 638.04 5073.75 638.744C5073.47 639.448 5073.34 640.291 5073.34 641.272ZM5091.84 638.44V647H5090.81L5090.62 645.768H5090.57C5090.39 646.067 5090.16 646.323 5089.87 646.536C5089.59 646.739 5089.28 646.893 5088.93 647C5088.57 647.107 5088.19 647.16 5087.79 647.16C5087.12 647.16 5086.55 647.053 5086.09 646.84C5085.63 646.616 5085.29 646.275 5085.05 645.816C5084.82 645.357 5084.7 644.765 5084.7 644.04V638.44H5085.98V643.96C5085.98 644.675 5086.14 645.213 5086.46 645.576C5086.79 645.928 5087.29 646.104 5087.97 646.104C5088.61 646.104 5089.11 645.987 5089.49 645.752C5089.87 645.507 5090.15 645.149 5090.32 644.68C5090.5 644.211 5090.59 643.64 5090.59 642.968V638.44H5091.84ZM5097.31 646.12C5097.54 646.12 5097.76 646.104 5097.97 646.072C5098.19 646.029 5098.38 645.987 5098.53 645.944V646.904C5098.37 646.979 5098.16 647.037 5097.89 647.08C5097.63 647.133 5097.37 647.16 5097.11 647.16C5096.66 647.16 5096.25 647.08 5095.89 646.92C5095.53 646.76 5095.23 646.493 5095.01 646.12C5094.8 645.736 5094.69 645.208 5094.69 644.536V639.432H5093.46V638.808L5094.71 638.328L5095.19 636.456H5095.95V638.44H5098.47V639.432H5095.95V644.504C5095.95 645.048 5096.07 645.453 5096.31 645.72C5096.55 645.987 5096.89 646.12 5097.31 646.12ZM5104.28 638.28C5105.35 638.28 5106.2 638.648 5106.83 639.384C5107.47 640.12 5107.79 641.224 5107.79 642.696C5107.79 643.667 5107.64 644.488 5107.34 645.16C5107.05 645.821 5106.64 646.323 5106.11 646.664C5105.58 646.995 5104.96 647.16 5104.25 647.16C5103.79 647.16 5103.39 647.096 5103.03 646.968C5102.68 646.84 5102.38 646.675 5102.14 646.472C5101.9 646.269 5101.71 646.045 5101.55 645.8H5101.45C5101.47 646.003 5101.49 646.248 5101.51 646.536C5101.54 646.824 5101.55 647.08 5101.55 647.304V650.824H5100.28V638.44H5101.31L5101.48 639.736H5101.55C5101.71 639.469 5101.91 639.229 5102.15 639.016C5102.4 638.792 5102.69 638.616 5103.03 638.488C5103.39 638.349 5103.8 638.28 5104.28 638.28ZM5104.06 639.352C5103.47 639.352 5102.99 639.469 5102.62 639.704C5102.26 639.939 5101.98 640.285 5101.8 640.744C5101.63 641.203 5101.55 641.779 5101.55 642.472V642.712C5101.55 643.448 5101.63 644.067 5101.79 644.568C5101.95 645.069 5102.21 645.453 5102.59 645.72C5102.96 645.976 5103.46 646.104 5104.07 646.104C5104.61 646.104 5105.05 645.96 5105.4 645.672C5105.76 645.384 5106.04 644.984 5106.22 644.472C5106.4 643.96 5106.49 643.363 5106.49 642.68C5106.49 641.645 5106.29 640.835 5105.88 640.248C5105.49 639.651 5104.88 639.352 5104.06 639.352ZM5117.07 638.44V647H5116.05L5115.86 645.768H5115.81C5115.63 646.067 5115.39 646.323 5115.1 646.536C5114.83 646.739 5114.51 646.893 5114.16 647C5113.81 647.107 5113.43 647.16 5113.02 647.16C5112.35 647.16 5111.79 647.053 5111.33 646.84C5110.87 646.616 5110.52 646.275 5110.29 645.816C5110.05 645.357 5109.94 644.765 5109.94 644.04V638.44H5111.22V643.96C5111.22 644.675 5111.38 645.213 5111.7 645.576C5112.03 645.928 5112.53 646.104 5113.2 646.104C5113.84 646.104 5114.35 645.987 5114.72 645.752C5115.1 645.507 5115.38 645.149 5115.55 644.68C5115.73 644.211 5115.82 643.64 5115.82 642.968V638.44H5117.07ZM5122.55 646.12C5122.77 646.12 5122.99 646.104 5123.21 646.072C5123.43 646.029 5123.62 645.987 5123.77 645.944V646.904C5123.61 646.979 5123.39 647.037 5123.13 647.08C5122.87 647.133 5122.61 647.16 5122.34 647.16C5121.89 647.16 5121.49 647.08 5121.13 646.92C5120.76 646.76 5120.47 646.493 5120.25 646.12C5120.03 645.736 5119.93 645.208 5119.93 644.536V639.432H5118.69V638.808L5119.94 638.328L5120.42 636.456H5121.19V638.44H5123.7V639.432H5121.19V644.504C5121.19 645.048 5121.31 645.453 5121.54 645.72C5121.79 645.987 5122.12 646.12 5122.55 646.12ZM5136.14 638.232C5136.14 638.744 5136.04 639.192 5135.83 639.576C5135.64 639.949 5135.36 640.253 5135 640.488C5134.65 640.723 5134.23 640.888 5133.75 640.984V641.048C5134.66 641.155 5135.34 641.443 5135.8 641.912C5136.26 642.381 5136.49 643 5136.49 643.768C5136.49 644.429 5136.33 645.016 5136.02 645.528C5135.72 646.04 5135.24 646.44 5134.6 646.728C5133.97 647.016 5133.16 647.16 5132.17 647.16C5131.56 647.16 5131 647.112 5130.47 647.016C5129.96 646.92 5129.48 646.76 5129.02 646.536V645.352C5129.49 645.576 5130 645.757 5130.55 645.896C5131.12 646.024 5131.66 646.088 5132.18 646.088C5133.23 646.088 5133.99 645.88 5134.46 645.464C5134.93 645.048 5135.16 644.477 5135.16 643.752C5135.16 643.24 5135.03 642.835 5134.78 642.536C5134.52 642.227 5134.15 642.003 5133.66 641.864C5133.17 641.715 5132.58 641.64 5131.9 641.64H5130.76V640.552H5131.91C5132.53 640.552 5133.05 640.461 5133.48 640.28C5133.92 640.099 5134.25 639.843 5134.49 639.512C5134.72 639.171 5134.84 638.771 5134.84 638.312C5134.84 637.725 5134.64 637.277 5134.25 636.968C5133.86 636.648 5133.34 636.488 5132.66 636.488C5132.26 636.488 5131.89 636.531 5131.54 636.616C5131.21 636.691 5130.9 636.803 5130.6 636.952C5130.31 637.091 5130.02 637.261 5129.72 637.464L5129.1 636.6C5129.38 636.387 5129.7 636.189 5130.06 636.008C5130.42 635.827 5130.81 635.683 5131.24 635.576C5131.68 635.469 5132.15 635.416 5132.65 635.416C5133.81 635.416 5134.68 635.677 5135.26 636.2C5135.84 636.723 5136.14 637.4 5136.14 638.232Z" fill="#1F1F1F" id="n1314"/>
<path d="M5320 423C5320 421.895 5320.9 421 5322 421C5323.1 421 5324 421.895 5324 423V633C5324 634.105 5323.1 635 5322 635C5320.9 635 5320 634.105 5320 633V423Z" fill="#DDDDDD" id="n1315"/>
<path d="M5322 421.5C5322.83 421.5 5323.5 422.172 5323.5 423V569C5323.5 569.828 5322.83 570.5 5322 570.5C5321.17 570.5 5320.5 569.828 5320.5 569V423C5320.5 422.172 5321.17 421.5 5322 421.5Z" fill="#8E8E8E" id="n1316"/>
<path d="M5322 421.5C5322.83 421.5 5323.5 422.172 5323.5 423V569C5323.5 569.828 5322.83 570.5 5322 570.5C5321.17 570.5 5320.5 569.828 5320.5 569V423C5320.5 422.172 5321.17 421.5 5322 421.5Z" stroke="#8E8E8E" id="n1317"/>
</g>
<g clip-path="url(#clip34_1702_11540)" id="n1318">
<mask id="path-1120-inside-82_1702_11540" fill="white">
<path d="M5011 639H5328V687H5011V639Z" id="n1319"/>
</mask>
<rect width="316" height="48" transform="translate(5011 639)" fill="#F0F0F0" id="n1320"/>
<path fill-rule="evenodd" clip-rule="evenodd" d="M5039.62 659.776L5041.62 661.776C5046.59 656.806 5054.66 656.806 5059.62 661.776L5061.62 659.776C5055.56 653.706 5045.7 653.706 5039.62 659.776ZM5047.62 667.776L5050.62 670.776L5053.62 667.776C5051.98 666.116 5049.28 666.116 5047.62 667.776ZM5045.62 665.776L5043.62 663.776C5047.49 659.916 5053.77 659.916 5057.62 663.776L5055.62 665.776C5052.86 663.016 5048.39 663.016 5045.62 665.776Z" fill="#535353" id="n1321"/>
<mask id="path-1123-inside-83_1702_11540" fill="white">
<path d="M5090.25 639H5169.5V687H5090.25V639Z" id="n1322"/>
</mask>
<path d="M5090.25 639H5169.5V687H5090.25V639Z" fill="#FCFCFC" id="n1323"/>
<path d="M5169.5 639H5168.5V687H5169.5H5170.5V639H5169.5ZM5090.25 687H5091.25V639H5090.25H5089.25V687H5090.25Z" fill="#DDDDDD" mask="url(#path-1123-inside-83_1702_11540)" id="n1324"/>
<path fill-rule="evenodd" clip-rule="evenodd" d="M5129.14 670.268L5125.88 667H5123.07C5121.95 667 5121.39 667 5120.97 666.782C5120.59 666.59 5120.28 666.284 5120.09 665.908C5119.88 665.48 5119.88 664.92 5119.88 663.8V662.2C5119.88 661.08 5119.88 660.52 5120.09 660.092C5120.28 659.716 5120.59 659.41 5120.97 659.218C5121.39 659 5121.95 659 5123.08 659H5125.88L5129.14 655.731C5130 654.874 5130.43 654.446 5130.8 654.417C5131.12 654.392 5131.43 654.521 5131.64 654.765C5131.88 655.045 5131.88 655.651 5131.88 656.863V669.137C5131.88 670.349 5131.88 670.955 5131.64 671.235C5131.43 671.479 5131.12 671.608 5130.8 671.583C5130.43 671.554 5130 671.125 5129.14 670.268ZM5126.7 661L5129.88 657.828V668.171L5126.7 665H5121.88V661H5126.7Z" fill="#2D548B" id="n1325"/>
<path d="M5133.88 656.675C5134.6 657.018 5135.26 657.483 5135.82 658.05C5136.47 658.7 5136.99 659.472 5137.34 660.321C5137.69 661.17 5137.88 662.081 5137.88 663C5137.88 663.919 5137.69 664.829 5137.34 665.679C5136.99 666.528 5136.47 667.3 5135.82 667.95C5135.26 668.517 5134.6 668.982 5133.88 669.324V671.485C5134.02 671.432 5134.17 671.376 5134.32 671.315C5135.41 670.863 5136.4 670.2 5137.24 669.364C5138.07 668.528 5138.74 667.536 5139.19 666.444C5139.64 665.352 5139.88 664.182 5139.88 663C5139.88 661.818 5139.64 660.648 5139.19 659.556C5138.74 658.464 5138.07 657.472 5137.24 656.636C5136.4 655.8 5135.41 655.137 5134.32 654.685C5134.17 654.624 5134.02 654.567 5133.88 654.515V656.675Z" fill="#2D548B" id="n1326"/>
<path d="M5133.88 666.464V659.536C5134.18 659.71 5134.46 659.924 5134.7 660.172C5135.07 660.543 5135.37 660.984 5135.57 661.469C5135.77 661.954 5135.88 662.475 5135.88 663C5135.88 663.525 5135.77 664.045 5135.57 664.531C5135.37 665.016 5135.07 665.457 5134.7 665.828C5134.46 666.076 5134.18 666.29 5133.88 666.464Z" fill="#2D548B" id="n1327"/>
<path fill-rule="evenodd" clip-rule="evenodd" d="M5209.12 653C5207.47 653 5206.12 654.343 5206.12 656V662.5C5206.12 664.157 5207.47 665.5 5209.12 665.5C5210.78 665.5 5212.12 664.157 5212.12 662.5V656C5212.12 654.343 5210.78 653 5209.12 653ZM5210.12 662.5V656C5210.12 655.448 5209.68 655 5209.12 655C5208.57 655 5208.12 655.448 5208.12 656V662.5C5208.12 663.052 5208.57 663.5 5209.12 663.5C5209.68 663.5 5210.12 663.052 5210.12 662.5Z" fill="#535353" id="n1328"/>
<path d="M5209.12 667C5206.36 667 5204.12 664.761 5204.12 662H5202.12C5202.12 665.526 5204.73 668.444 5208.12 668.929V673H5210.12V668.929C5213.52 668.444 5216.12 665.526 5216.12 662H5214.12C5214.12 664.761 5211.89 667 5209.12 667Z" fill="#535353" id="n1329"/>
<path fill-rule="evenodd" clip-rule="evenodd" d="M5287.38 652C5286.82 652 5286.38 652.448 5286.38 653V654L5285.38 654C5284.27 654 5283.38 654.895 5283.38 656L5283.38 671C5283.38 672.105 5284.27 673 5285.38 673H5291.38C5292.48 673 5293.38 672.105 5293.38 671V656C5293.38 654.895 5292.48 654 5291.38 654L5290.38 654V653C5290.38 652.448 5289.93 652 5289.38 652L5287.38 652ZM5291.38 660V656L5285.38 656L5285.38 660H5291.38Z" fill="#535353" id="n1330"/>
<path d="M5249.75 639V687H5248.75V639H5249.75Z" fill="#DDDDDD" id="n1331"/>
<path d="M5328 639V687H5327V639H5328Z" fill="#DDDDDD" id="n1332"/>
<path d="M5012 639V687H5011V639H5012Z" fill="#DDDDDD" id="n1333"/>
<path d="M5328 639V640H5011V639H5328Z" fill="#DDDDDD" id="n1334"/>
</g>
<path d="M5011 639V640H5328V639V638H5011V639Z" fill="#DDDDDD" mask="url(#path-1120-inside-82_1702_11540)" id="n1335"/>
</g>
</g>
</g>
</svg>
