<?xml version='1.0' encoding='utf-8'?>
<svg xmlns="http://www.w3.org/2000/svg" xmlns:xlink="http://www.w3.org/1999/xlink" width="288.0" height="48.0" viewBox="0 0 288.0 48.0" fill="none">
  <defs><clipPath id="clip__asset"><rect x="0" y="0" width="288.0" height="48.0"/></clipPath><mask id="path-2648-outside-157_1702_11540" maskUnits="userSpaceOnUse" x="17865" y="536" width="292" height="52" fill="black">
<rect fill="white" x="17865" y="536" width="292" height="52" id="n3031"/>
<path d="M17867 547.6C17867 544.24 17867 542.56 17867.7 541.276C17868.2 540.147 17869.1 539.229 17870.3 538.654C17871.6 538 17873.2 538 17876.6 538H18145.4C18148.8 538 18150.4 538 18151.7 538.654C18152.9 539.229 18153.8 540.147 18154.3 541.276C18155 542.56 18155 544.24 18155 547.6V576.4C18155 579.76 18155 581.44 18154.3 582.724C18153.8 583.853 18152.9 584.771 18151.7 585.346C18150.4 586 18148.8 586 18145.4 586H17876.6C17873.2 586 17871.6 586 17870.3 585.346C17869.1 584.771 17868.2 583.853 17867.7 582.724C17867 581.44 17867 579.76 17867 576.4V547.6Z" id="n3032"/>
</mask>
</defs>
  <g clip-path="url(#clip__asset)" transform="translate(-17867.0 -538.0)"><path d="M17881.3 554.704C17881.3 555.4 17881.2 556.024 17881.1 556.576C17881 557.12 17880.8 557.58 17880.6 557.956C17880.4 558.332 17880.1 558.62 17879.7 558.82C17879.4 559.02 17878.9 559.12 17878.4 559.12C17877.8 559.12 17877.3 558.948 17876.8 558.604C17876.4 558.252 17876.1 557.748 17875.9 557.092C17875.7 556.428 17875.6 555.632 17875.6 554.704C17875.6 553.792 17875.7 553.008 17875.9 552.352C17876.1 551.688 17876.4 551.18 17876.8 550.828C17877.2 550.476 17877.7 550.3 17878.4 550.3C17879.1 550.3 17879.6 550.476 17880 550.828C17880.4 551.18 17880.7 551.684 17880.9 552.34C17881.1 552.996 17881.3 553.784 17881.3 554.704ZM17876.6 554.704C17876.6 555.512 17876.6 556.184 17876.7 556.72C17876.9 557.248 17877.1 557.648 17877.3 557.92C17877.6 558.184 17878 558.316 17878.4 558.316C17878.9 558.316 17879.2 558.184 17879.5 557.92C17879.8 557.656 17880 557.256 17880.1 556.72C17880.2 556.184 17880.3 555.512 17880.3 554.704C17880.3 553.912 17880.2 553.252 17880.1 552.724C17880 552.188 17879.8 551.784 17879.5 551.512C17879.2 551.24 17878.9 551.104 17878.4 551.104C17878 551.104 17877.6 551.244 17877.3 551.524C17877.1 551.796 17876.9 552.2 17876.7 552.736C17876.6 553.264 17876.6 553.92 17876.6 554.704ZM17883.6 559L17887.1 551.296H17882.4V550.432H17888.1V551.152L17884.6 559H17883.6ZM17889.6 558.412C17889.6 558.14 17889.7 557.948 17889.8 557.836C17889.9 557.724 17890.1 557.668 17890.3 557.668C17890.5 557.668 17890.6 557.724 17890.8 557.836C17890.9 557.948 17891 558.14 17891 558.412C17891 558.668 17890.9 558.856 17890.8 558.976C17890.6 559.096 17890.5 559.156 17890.3 559.156C17890.1 559.156 17889.9 559.096 17889.8 558.976C17889.7 558.856 17889.6 558.668 17889.6 558.412ZM17889.6 553.18C17889.6 552.908 17889.7 552.716 17889.8 552.604C17889.9 552.492 17890.1 552.436 17890.3 552.436C17890.5 552.436 17890.6 552.492 17890.8 552.604C17890.9 552.716 17891 552.908 17891 553.18C17891 553.444 17890.9 553.636 17890.8 553.756C17890.6 553.876 17890.5 553.936 17890.3 553.936C17890.1 553.936 17889.9 553.876 17889.8 553.756C17889.7 553.636 17889.6 553.444 17889.6 553.18ZM17898.1 554.704C17898.1 555.4 17898.1 556.024 17897.9 556.576C17897.8 557.12 17897.7 557.58 17897.5 557.956C17897.2 558.332 17896.9 558.62 17896.6 558.82C17896.2 559.02 17895.8 559.12 17895.3 559.12C17894.7 559.12 17894.1 558.948 17893.7 558.604C17893.3 558.252 17893 557.748 17892.8 557.092C17892.6 556.428 17892.5 555.632 17892.5 554.704C17892.5 553.792 17892.6 553.008 17892.8 552.352C17892.9 551.688 17893.2 551.18 17893.7 550.828C17894.1 550.476 17894.6 550.3 17895.3 550.3C17895.9 550.3 17896.5 550.476 17896.9 550.828C17897.3 551.18 17897.6 551.684 17897.8 552.34C17898 552.996 17898.1 553.784 17898.1 554.704ZM17893.4 554.704C17893.4 555.512 17893.5 556.184 17893.6 556.72C17893.7 557.248 17893.9 557.648 17894.2 557.92C17894.5 558.184 17894.8 558.316 17895.3 558.316C17895.7 558.316 17896.1 558.184 17896.4 557.92C17896.6 557.656 17896.8 557.256 17897 556.72C17897.1 556.184 17897.2 555.512 17897.2 554.704C17897.2 553.912 17897.1 553.252 17897 552.724C17896.8 552.188 17896.6 551.784 17896.4 551.512C17896.1 551.24 17895.7 551.104 17895.3 551.104C17894.8 551.104 17894.5 551.244 17894.2 551.524C17893.9 551.796 17893.7 552.2 17893.6 552.736C17893.5 553.264 17893.4 553.92 17893.4 554.704ZM17905 554.704C17905 555.4 17904.9 556.024 17904.8 556.576C17904.7 557.12 17904.5 557.58 17904.3 557.956C17904.1 558.332 17903.8 558.62 17903.4 558.82C17903.1 559.02 17902.7 559.12 17902.2 559.12C17901.5 559.12 17901 558.948 17900.6 558.604C17900.2 558.252 17899.9 557.748 17899.6 557.092C17899.4 556.428 17899.3 555.632 17899.3 554.704C17899.3 553.792 17899.4 553.008 17899.6 552.352C17899.8 551.688 17900.1 551.18 17900.5 550.828C17900.9 550.476 17901.5 550.3 17902.2 550.3C17902.8 550.3 17903.3 550.476 17903.7 550.828C17904.2 551.18 17904.5 551.684 17904.7 552.34C17904.9 552.996 17905 553.784 17905 554.704ZM17900.3 554.704C17900.3 555.512 17900.4 556.184 17900.5 556.72C17900.6 557.248 17900.8 557.648 17901.1 557.92C17901.3 558.184 17901.7 558.316 17902.2 558.316C17902.6 558.316 17903 558.184 17903.2 557.92C17903.5 557.656 17903.7 557.256 17903.8 556.72C17904 556.184 17904 555.512 17904 554.704C17904 553.912 17904 553.252 17903.8 552.724C17903.7 552.188 17903.5 551.784 17903.2 551.512C17903 551.24 17902.6 551.104 17902.2 551.104C17901.7 551.104 17901.3 551.244 17901.1 551.524C17900.8 551.796 17900.6 552.2 17900.5 552.736C17900.4 553.264 17900.3 553.92 17900.3 554.704Z" fill="#535353" id="n3027"/>
<path d="M17908.5 556.192V555.352H17913.5V556.192H17908.5Z" fill="#535353" id="n3028"/>
<path d="M17920.2 559H17919.3V552.892C17919.3 552.66 17919.3 552.464 17919.3 552.304C17919.3 552.144 17919.3 551.996 17919.3 551.86C17919.3 551.716 17919.3 551.572 17919.3 551.428C17919.2 551.548 17919.1 551.652 17919 551.74C17918.9 551.82 17918.7 551.928 17918.6 552.064L17917.6 552.856L17917.1 552.22L17919.4 550.432H17920.2V559ZM17929.1 554.704C17929.1 555.4 17929.1 556.024 17929 556.576C17928.8 557.12 17928.7 557.58 17928.5 557.956C17928.2 558.332 17927.9 558.62 17927.6 558.82C17927.2 559.02 17926.8 559.12 17926.3 559.12C17925.7 559.12 17925.1 558.948 17924.7 558.604C17924.3 558.252 17924 557.748 17923.8 557.092C17923.6 556.428 17923.5 555.632 17923.5 554.704C17923.5 553.792 17923.6 553.008 17923.8 552.352C17923.9 551.688 17924.2 551.18 17924.7 550.828C17925.1 550.476 17925.6 550.3 17926.3 550.3C17926.9 550.3 17927.5 550.476 17927.9 550.828C17928.3 551.18 17928.6 551.684 17928.8 552.34C17929 552.996 17929.1 553.784 17929.1 554.704ZM17924.4 554.704C17924.4 555.512 17924.5 556.184 17924.6 556.72C17924.7 557.248 17924.9 557.648 17925.2 557.92C17925.5 558.184 17925.8 558.316 17926.3 558.316C17926.7 558.316 17927.1 558.184 17927.4 557.92C17927.6 557.656 17927.8 557.256 17928 556.72C17928.1 556.184 17928.2 555.512 17928.2 554.704C17928.2 553.912 17928.1 553.252 17928 552.724C17927.8 552.188 17927.7 551.784 17927.4 551.512C17927.1 551.24 17926.8 551.104 17926.3 551.104C17925.8 551.104 17925.5 551.244 17925.2 551.524C17924.9 551.796 17924.7 552.2 17924.6 552.736C17924.5 553.264 17924.4 553.92 17924.4 554.704ZM17930.6 558.412C17930.6 558.14 17930.7 557.948 17930.8 557.836C17930.9 557.724 17931.1 557.668 17931.3 557.668C17931.5 557.668 17931.6 557.724 17931.8 557.836C17931.9 557.948 17932 558.14 17932 558.412C17932 558.668 17931.9 558.856 17931.8 558.976C17931.6 559.096 17931.5 559.156 17931.3 559.156C17931.1 559.156 17930.9 559.096 17930.8 558.976C17930.7 558.856 17930.6 558.668 17930.6 558.412ZM17930.6 553.18C17930.6 552.908 17930.7 552.716 17930.8 552.604C17930.9 552.492 17931.1 552.436 17931.3 552.436C17931.5 552.436 17931.6 552.492 17931.8 552.604C17931.9 552.716 17932 552.908 17932 553.18C17932 553.444 17931.9 553.636 17931.8 553.756C17931.6 553.876 17931.5 553.936 17931.3 553.936C17931.1 553.936 17930.9 553.876 17930.8 553.756C17930.7 553.636 17930.6 553.444 17930.6 553.18ZM17939.1 554.704C17939.1 555.4 17939.1 556.024 17938.9 556.576C17938.8 557.12 17938.7 557.58 17938.5 557.956C17938.2 558.332 17937.9 558.62 17937.6 558.82C17937.2 559.02 17936.8 559.12 17936.3 559.12C17935.7 559.12 17935.1 558.948 17934.7 558.604C17934.3 558.252 17934 557.748 17933.8 557.092C17933.6 556.428 17933.5 555.632 17933.5 554.704C17933.5 553.792 17933.6 553.008 17933.8 552.352C17933.9 551.688 17934.2 551.18 17934.7 550.828C17935.1 550.476 17935.6 550.3 17936.3 550.3C17936.9 550.3 17937.5 550.476 17937.9 550.828C17938.3 551.18 17938.6 551.684 17938.8 552.34C17939 552.996 17939.1 553.784 17939.1 554.704ZM17934.4 554.704C17934.4 555.512 17934.5 556.184 17934.6 556.72C17934.7 557.248 17934.9 557.648 17935.2 557.92C17935.5 558.184 17935.8 558.316 17936.3 558.316C17936.7 558.316 17937.1 558.184 17937.4 557.92C17937.6 557.656 17937.8 557.256 17938 556.72C17938.1 556.184 17938.2 555.512 17938.2 554.704C17938.2 553.912 17938.1 553.252 17938 552.724C17937.8 552.188 17937.6 551.784 17937.4 551.512C17937.1 551.24 17936.7 551.104 17936.3 551.104C17935.8 551.104 17935.5 551.244 17935.2 551.524C17934.9 551.796 17934.7 552.2 17934.6 552.736C17934.5 553.264 17934.4 553.92 17934.4 554.704ZM17946 554.704C17946 555.4 17945.9 556.024 17945.8 556.576C17945.7 557.12 17945.5 557.58 17945.3 557.956C17945.1 558.332 17944.8 558.62 17944.4 558.82C17944.1 559.02 17943.7 559.12 17943.2 559.12C17942.5 559.12 17942 558.948 17941.6 558.604C17941.2 558.252 17940.9 557.748 17940.6 557.092C17940.4 556.428 17940.3 555.632 17940.3 554.704C17940.3 553.792 17940.4 553.008 17940.6 552.352C17940.8 551.688 17941.1 551.18 17941.5 550.828C17941.9 550.476 17942.5 550.3 17943.2 550.3C17943.8 550.3 17944.3 550.476 17944.7 550.828C17945.2 551.18 17945.5 551.684 17945.7 552.34C17945.9 552.996 17946 553.784 17946 554.704ZM17941.3 554.704C17941.3 555.512 17941.4 556.184 17941.5 556.72C17941.6 557.248 17941.8 557.648 17942.1 557.92C17942.3 558.184 17942.7 558.316 17943.2 558.316C17943.6 558.316 17944 558.184 17944.2 557.92C17944.5 557.656 17944.7 557.256 17944.8 556.72C17945 556.184 17945 555.512 17945 554.704C17945 553.912 17945 553.252 17944.8 552.724C17944.7 552.188 17944.5 551.784 17944.2 551.512C17944 551.24 17943.6 551.104 17943.2 551.104C17942.7 551.104 17942.3 551.244 17942.1 551.524C17941.8 551.796 17941.6 552.2 17941.5 552.736C17941.4 553.264 17941.3 553.92 17941.3 554.704Z" fill="#535353" id="n3029"/>
<path d="M17881.3 575L17880.7 572.888H17877.5L17876.9 575H17875L17878.1 566.396H17880.1L17883.2 575H17881.3ZM17879.6 569.372C17879.6 569.244 17879.5 569.08 17879.4 568.88C17879.4 568.672 17879.3 568.464 17879.2 568.256C17879.2 568.04 17879.1 567.856 17879.1 567.704C17879.1 567.864 17879 568.06 17878.9 568.292C17878.9 568.516 17878.8 568.732 17878.8 568.94C17878.7 569.14 17878.7 569.284 17878.6 569.372L17878 571.436H17880.3L17879.6 569.372ZM17887.7 568.34C17888.5 568.34 17889.1 568.628 17889.5 569.204C17890 569.772 17890.2 570.612 17890.2 571.724C17890.2 572.46 17890.1 573.084 17889.9 573.596C17889.7 574.1 17889.4 574.48 17889 574.736C17888.6 574.992 17888.2 575.12 17887.7 575.12C17887.4 575.12 17887.1 575.08 17886.9 575C17886.6 574.92 17886.4 574.816 17886.3 574.688C17886.1 574.552 17886 574.412 17885.9 574.268H17885.8C17885.8 574.42 17885.8 574.58 17885.8 574.748C17885.8 574.916 17885.9 575.08 17885.9 575.24V577.88H17884.2V568.46H17885.5L17885.8 569.312H17885.9C17886 569.136 17886.1 568.976 17886.3 568.832C17886.5 568.68 17886.7 568.56 17886.9 568.472C17887.1 568.384 17887.4 568.34 17887.7 568.34ZM17887.2 569.708C17886.9 569.708 17886.6 569.776 17886.4 569.912C17886.2 570.04 17886.1 570.24 17886 570.512C17885.9 570.776 17885.9 571.112 17885.9 571.52V571.712C17885.9 572.144 17885.9 572.512 17886 572.816C17886.1 573.112 17886.2 573.34 17886.4 573.5C17886.6 573.652 17886.9 573.728 17887.2 573.728C17887.5 573.728 17887.7 573.652 17887.9 573.5C17888.1 573.34 17888.3 573.108 17888.3 572.804C17888.4 572.492 17888.5 572.124 17888.5 571.7C17888.5 571.044 17888.4 570.548 17888.2 570.212C17888 569.876 17887.6 569.708 17887.2 569.708ZM17895.3 568.34C17896 568.34 17896.6 568.628 17897.1 569.204C17897.6 569.772 17897.8 570.612 17897.8 571.724C17897.8 572.46 17897.7 573.084 17897.5 573.596C17897.3 574.1 17897 574.48 17896.6 574.736C17896.2 574.992 17895.8 575.12 17895.3 575.12C17894.9 575.12 17894.7 575.08 17894.4 575C17894.2 574.92 17894 574.816 17893.8 574.688C17893.7 574.552 17893.5 574.412 17893.4 574.268H17893.3C17893.4 574.42 17893.4 574.58 17893.4 574.748C17893.4 574.916 17893.4 575.08 17893.4 575.24V577.88H17891.7V568.46H17893.1L17893.3 569.312H17893.4C17893.5 569.136 17893.7 568.976 17893.9 568.832C17894 568.68 17894.2 568.56 17894.5 568.472C17894.7 568.384 17895 568.34 17895.3 568.34ZM17894.8 569.708C17894.4 569.708 17894.2 569.776 17894 569.912C17893.8 570.04 17893.7 570.24 17893.6 570.512C17893.5 570.776 17893.4 571.112 17893.4 571.52V571.712C17893.4 572.144 17893.5 572.512 17893.5 572.816C17893.6 573.112 17893.8 573.34 17894 573.5C17894.2 573.652 17894.4 573.728 17894.8 573.728C17895.1 573.728 17895.3 573.652 17895.5 573.5C17895.7 573.34 17895.8 573.108 17895.9 572.804C17896 572.492 17896.1 572.124 17896.1 571.7C17896.1 571.044 17895.9 570.548 17895.7 570.212C17895.5 569.876 17895.2 569.708 17894.8 569.708ZM17905.2 571.724C17905.2 572.268 17905.1 572.752 17905 573.176C17904.8 573.592 17904.6 573.948 17904.3 574.244C17904.1 574.532 17903.7 574.752 17903.3 574.904C17903 575.048 17902.5 575.12 17902 575.12C17901.6 575.12 17901.2 575.048 17900.8 574.904C17900.4 574.752 17900.1 574.532 17899.8 574.244C17899.5 573.948 17899.3 573.588 17899.1 573.164C17899 572.74 17898.9 572.256 17898.9 571.712C17898.9 570.992 17899 570.384 17899.3 569.888C17899.5 569.384 17899.9 569 17900.4 568.736C17900.9 568.472 17901.4 568.34 17902.1 568.34C17902.7 568.34 17903.2 568.472 17903.7 568.736C17904.2 569 17904.5 569.384 17904.8 569.888C17905.1 570.384 17905.2 570.996 17905.2 571.724ZM17900.6 571.724C17900.6 572.164 17900.7 572.536 17900.8 572.84C17900.9 573.136 17901 573.36 17901.2 573.512C17901.5 573.664 17901.7 573.74 17902.1 573.74C17902.4 573.74 17902.7 573.664 17902.9 573.512C17903.1 573.36 17903.2 573.136 17903.3 572.84C17903.4 572.536 17903.5 572.164 17903.5 571.724C17903.5 571.276 17903.4 570.904 17903.3 570.608C17903.2 570.312 17903.1 570.092 17902.9 569.948C17902.6 569.796 17902.4 569.72 17902 569.72C17901.6 569.72 17901.2 569.888 17901 570.224C17900.7 570.56 17900.6 571.06 17900.6 571.724ZM17908.4 568.46V575H17906.7V568.46H17908.4ZM17907.6 565.916C17907.8 565.916 17908 565.976 17908.2 566.096C17908.4 566.216 17908.5 566.44 17908.5 566.768C17908.5 567.08 17908.4 567.3 17908.2 567.428C17908 567.556 17907.8 567.62 17907.6 567.62C17907.3 567.62 17907.1 567.556 17906.9 567.428C17906.7 567.3 17906.6 567.08 17906.6 566.768C17906.6 566.44 17906.7 566.216 17906.9 566.096C17907.1 565.976 17907.3 565.916 17907.6 565.916ZM17913.9 568.34C17914.7 568.34 17915.2 568.532 17915.6 568.916C17916.1 569.292 17916.3 569.9 17916.3 570.74V575H17914.6V571.136C17914.6 570.664 17914.5 570.308 17914.3 570.068C17914.1 569.828 17913.8 569.708 17913.5 569.708C17912.9 569.708 17912.5 569.896 17912.3 570.272C17912.1 570.648 17912 571.188 17912 571.892V575H17910.3V568.46H17911.6L17911.8 569.3H17911.9C17912.1 569.076 17912.2 568.896 17912.5 568.76C17912.7 568.616 17912.9 568.512 17913.2 568.448C17913.4 568.376 17913.7 568.34 17913.9 568.34ZM17920.8 573.752C17921 573.752 17921.2 573.736 17921.4 573.704C17921.6 573.664 17921.8 573.616 17921.9 573.56V574.832C17921.7 574.912 17921.5 574.98 17921.2 575.036C17921 575.092 17920.7 575.12 17920.3 575.12C17920 575.12 17919.6 575.056 17919.3 574.928C17919 574.8 17918.8 574.58 17918.6 574.268C17918.4 573.956 17918.3 573.524 17918.3 572.972V569.744H17917.5V569.024L17918.4 568.436L17918.9 567.056H17920V568.46H17921.9V569.744H17920V572.96C17920 573.232 17920.1 573.432 17920.2 573.56C17920.4 573.688 17920.6 573.752 17920.8 573.752ZM17930.9 568.34C17931.6 568.34 17932.2 568.532 17932.5 568.916C17932.9 569.292 17933.1 569.9 17933.1 570.74V575H17931.4V571.136C17931.4 570.664 17931.3 570.308 17931.2 570.068C17931 569.828 17930.7 569.708 17930.4 569.708C17929.9 569.708 17929.5 569.88 17929.3 570.224C17929.1 570.56 17929 571.048 17929 571.688V575H17927.3V571.136C17927.3 570.824 17927.3 570.564 17927.2 570.356C17927.1 570.14 17927 569.98 17926.9 569.876C17926.7 569.764 17926.5 569.708 17926.3 569.708C17926 569.708 17925.7 569.792 17925.5 569.96C17925.3 570.128 17925.2 570.376 17925.1 570.704C17925 571.024 17924.9 571.416 17924.9 571.88V575H17923.2V568.46H17924.6L17924.8 569.3H17924.9C17925 569.076 17925.2 568.896 17925.4 568.76C17925.6 568.616 17925.8 568.512 17926 568.448C17926.3 568.376 17926.5 568.34 17926.8 568.34C17927.3 568.34 17927.7 568.42 17928 568.58C17928.3 568.74 17928.6 568.984 17928.8 569.312H17928.9C17929.1 568.976 17929.4 568.732 17929.7 568.58C17930.1 568.42 17930.5 568.34 17930.9 568.34ZM17937.6 568.34C17938.2 568.34 17938.8 568.456 17939.2 568.688C17939.6 568.92 17940 569.256 17940.2 569.696C17940.4 570.136 17940.5 570.672 17940.5 571.304V572.144H17936.3C17936.3 572.672 17936.5 573.088 17936.8 573.392C17937 573.688 17937.5 573.836 17938 573.836C17938.4 573.836 17938.8 573.796 17939.1 573.716C17939.5 573.628 17939.8 573.5 17940.2 573.332V574.652C17939.9 574.812 17939.5 574.928 17939.2 575C17938.8 575.08 17938.4 575.12 17937.9 575.12C17937.2 575.12 17936.7 575 17936.2 574.76C17935.7 574.512 17935.3 574.14 17935 573.644C17934.7 573.148 17934.6 572.528 17934.6 571.784C17934.6 571.016 17934.7 570.38 17935 569.876C17935.2 569.372 17935.6 568.992 17936 568.736C17936.5 568.472 17937 568.34 17937.6 568.34ZM17937.7 569.564C17937.3 569.564 17937 569.684 17936.7 569.924C17936.5 570.156 17936.4 570.516 17936.3 571.004H17938.9C17938.9 570.724 17938.9 570.476 17938.8 570.26C17938.7 570.044 17938.6 569.876 17938.4 569.756C17938.2 569.628 17937.9 569.564 17937.7 569.564ZM17945.7 568.34C17946.4 568.34 17946.9 568.532 17947.4 568.916C17947.8 569.292 17948 569.9 17948 570.74V575H17946.3V571.136C17946.3 570.664 17946.2 570.308 17946 570.068C17945.9 569.828 17945.6 569.708 17945.2 569.708C17944.6 569.708 17944.2 569.896 17944 570.272C17943.8 570.648 17943.7 571.188 17943.7 571.892V575H17942V568.46H17943.3L17943.6 569.3H17943.7C17943.8 569.076 17944 568.896 17944.2 568.76C17944.4 568.616 17944.6 568.512 17944.9 568.448C17945.1 568.376 17945.4 568.34 17945.7 568.34ZM17952.5 573.752C17952.7 573.752 17952.9 573.736 17953.1 573.704C17953.3 573.664 17953.5 573.616 17953.7 573.56V574.832C17953.5 574.912 17953.2 574.98 17953 575.036C17952.7 575.092 17952.4 575.12 17952.1 575.12C17951.7 575.12 17951.3 575.056 17951 574.928C17950.7 574.8 17950.5 574.58 17950.3 574.268C17950.1 573.956 17950 573.524 17950 572.972V569.744H17949.2V569.024L17950.2 568.436L17950.7 567.056H17951.7V568.46H17953.6V569.744H17951.7V572.96C17951.7 573.232 17951.8 573.432 17952 573.56C17952.1 573.688 17952.3 573.752 17952.5 573.752ZM17960.8 573.752C17961 573.752 17961.2 573.736 17961.3 573.704C17961.5 573.664 17961.7 573.616 17961.9 573.56V574.832C17961.7 574.912 17961.5 574.98 17961.2 575.036C17960.9 575.092 17960.6 575.12 17960.3 575.12C17959.9 575.12 17959.6 575.056 17959.3 574.928C17959 574.8 17958.7 574.58 17958.5 574.268C17958.4 573.956 17958.3 573.524 17958.3 572.972V569.744H17957.4V569.024L17958.4 568.436L17958.9 567.056H17960V568.46H17961.8V569.744H17960V572.96C17960 573.232 17960 573.432 17960.2 573.56C17960.3 573.688 17960.5 573.752 17960.8 573.752ZM17964.9 568.46V575H17963.2V568.46H17964.9ZM17964 565.916C17964.3 565.916 17964.5 565.976 17964.7 566.096C17964.9 566.216 17965 566.44 17965 566.768C17965 567.08 17964.9 567.3 17964.7 567.428C17964.5 567.556 17964.3 567.62 17964 567.62C17963.8 567.62 17963.6 567.556 17963.4 567.428C17963.2 567.3 17963.1 567.08 17963.1 566.768C17963.1 566.44 17963.2 566.216 17963.4 566.096C17963.6 565.976 17963.8 565.916 17964 565.916ZM17969.5 573.752C17969.7 573.752 17969.9 573.736 17970 573.704C17970.2 573.664 17970.4 573.616 17970.6 573.56V574.832C17970.4 574.912 17970.2 574.98 17969.9 575.036C17969.6 575.092 17969.3 575.12 17969 575.12C17968.6 575.12 17968.3 575.056 17968 574.928C17967.7 574.8 17967.4 574.58 17967.2 574.268C17967.1 573.956 17967 573.524 17967 572.972V569.744H17966.1V569.024L17967.1 568.436L17967.6 567.056H17968.7V568.46H17970.5V569.744H17968.7V572.96C17968.7 573.232 17968.7 573.432 17968.9 573.56C17969 573.688 17969.2 573.752 17969.5 573.752ZM17973.6 575H17971.9V565.88H17973.6V575ZM17978.2 568.34C17978.8 568.34 17979.3 568.456 17979.7 568.688C17980.2 568.92 17980.5 569.256 17980.7 569.696C17981 570.136 17981.1 570.672 17981.1 571.304V572.144H17976.8C17976.8 572.672 17977 573.088 17977.3 573.392C17977.6 573.688 17978 573.836 17978.5 573.836C17978.9 573.836 17979.3 573.796 17979.7 573.716C17980 573.628 17980.4 573.5 17980.7 573.332V574.652C17980.4 574.812 17980.1 574.928 17979.7 575C17979.4 575.08 17978.9 575.12 17978.4 575.12C17977.8 575.12 17977.2 575 17976.7 574.76C17976.2 574.512 17975.8 574.14 17975.5 573.644C17975.2 573.148 17975.1 572.528 17975.1 571.784C17975.1 571.016 17975.2 570.38 17975.5 569.876C17975.7 569.372 17976.1 568.992 17976.6 568.736C17977 568.472 17977.6 568.34 17978.2 568.34ZM17978.2 569.564C17977.8 569.564 17977.5 569.684 17977.3 569.924C17977 570.156 17976.9 570.516 17976.9 571.004H17979.5C17979.5 570.724 17979.4 570.476 17979.3 570.26C17979.2 570.044 17979.1 569.876 17978.9 569.756C17978.7 569.628 17978.5 569.564 17978.2 569.564Z" fill="#1F1F1F" id="n3030"/>
<path d="M18154.3 582.724L18152.6 581.816L18154.3 582.724ZM18151.7 585.346L18152.6 587.128L18151.7 585.346ZM18151.7 538.654L18150.8 540.436L18151.7 538.654ZM18154.3 541.276L18156.1 540.368L18154.3 541.276ZM17876.6 538V540H18145.4V538V536H17876.6V538ZM18155 547.6H18153V576.4H18155H18157V547.6H18155ZM18145.4 586V584H17876.6V586V588H18145.4V586ZM17867 576.4H17869V547.6H17867H17865V576.4H17867ZM17876.6 586V584C17874.9 584 17873.7 583.998 17872.8 583.925C17871.9 583.853 17871.5 583.723 17871.2 583.564L17870.3 585.346L17869.4 587.128C17870.3 587.623 17871.4 587.82 17872.5 587.912C17873.6 588.002 17875 588 17876.6 588V586ZM17867 576.4H17865C17865 578.047 17865 579.403 17865.1 580.504C17865.2 581.628 17865.4 582.661 17865.9 583.632L17867.7 582.724L17869.4 581.816C17869.3 581.503 17869.1 581.055 17869.1 580.178C17869 579.278 17869 578.113 17869 576.4H17867ZM17870.3 585.346L17871.2 583.564C17870.4 583.181 17869.8 582.569 17869.4 581.816L17867.7 582.724L17865.9 583.632C17866.6 585.137 17867.9 586.361 17869.4 587.128L17870.3 585.346ZM18155 576.4H18153C18153 578.113 18153 579.278 18152.9 580.178C18152.9 581.055 18152.7 581.503 18152.6 581.816L18154.3 582.724L18156.1 583.632C18156.6 582.661 18156.8 581.628 18156.9 580.504C18157 579.403 18157 578.047 18157 576.4H18155ZM18145.4 586V588C18147 588 18148.4 588.002 18149.5 587.912C18150.6 587.82 18151.7 587.623 18152.6 587.128L18151.7 585.346L18150.8 583.564C18150.5 583.723 18150.1 583.853 18149.2 583.925C18148.3 583.998 18147.1 584 18145.4 584V586ZM18154.3 582.724L18152.6 581.816C18152.2 582.569 18151.6 583.181 18150.8 583.564L18151.7 585.346L18152.6 587.128C18154.1 586.361 18155.4 585.137 18156.1 583.632L18154.3 582.724ZM18145.4 538V540C18147.1 540 18148.3 540.002 18149.2 540.075C18150.1 540.147 18150.5 540.277 18150.8 540.436L18151.7 538.654L18152.6 536.872C18151.7 536.377 18150.6 536.18 18149.5 536.088C18148.4 535.998 18147 536 18145.4 536V538ZM18155 547.6H18157C18157 545.953 18157 544.597 18156.9 543.496C18156.8 542.372 18156.6 541.339 18156.1 540.368L18154.3 541.276L18152.6 542.184C18152.7 542.497 18152.9 542.945 18152.9 543.822C18153 544.722 18153 545.887 18153 547.6H18155ZM18151.7 538.654L18150.8 540.436C18151.6 540.819 18152.2 541.431 18152.6 542.184L18154.3 541.276L18156.1 540.368C18155.4 538.863 18154.1 537.639 18152.6 536.872L18151.7 538.654ZM17876.6 538V536C17875 536 17873.6 535.998 17872.5 536.088C17871.4 536.18 17870.3 536.377 17869.4 536.872L17870.3 538.654L17871.2 540.436C17871.5 540.277 17871.9 540.147 17872.8 540.075C17873.7 540.002 17874.9 540 17876.6 540V538ZM17867 547.6H17869C17869 545.887 17869 544.722 17869.1 543.822C17869.1 542.945 17869.3 542.497 17869.4 542.184L17867.7 541.276L17865.9 540.368C17865.4 541.339 17865.2 542.372 17865.1 543.496C17865 544.597 17865 545.953 17865 547.6H17867ZM17870.3 538.654L17869.4 536.872C17867.9 537.639 17866.6 538.863 17865.9 540.368L17867.7 541.276L17869.4 542.184C17869.8 541.431 17870.4 540.819 17871.2 540.436L17870.3 538.654Z" fill="#4271B3" mask="url(#path-2648-outside-157_1702_11540)" id="n3033"/>
<path d="M17876.6 538.5H18145.4C18147.1 538.5 18148.3 538.5 18149.3 538.58C18150.3 538.659 18150.9 538.815 18151.5 539.1C18152.5 539.627 18153.4 540.468 18153.9 541.503C18154.2 542.062 18154.3 542.731 18154.4 543.7C18154.5 544.676 18154.5 545.912 18154.5 547.6V576.4C18154.5 578.088 18154.5 579.324 18154.4 580.3C18154.3 581.269 18154.2 581.938 18153.9 582.497C18153.4 583.532 18152.5 584.373 18151.5 584.9C18150.9 585.185 18150.3 585.341 18149.3 585.42C18148.3 585.5 18147.1 585.5 18145.4 585.5H17876.6C17874.9 585.5 17873.7 585.5 17872.7 585.42C17871.7 585.341 17871.1 585.185 17870.5 584.9C17869.5 584.373 17868.6 583.532 17868.1 582.497C17867.8 581.938 17867.7 581.269 17867.6 580.3C17867.5 579.324 17867.5 578.088 17867.5 576.4V547.6C17867.5 545.912 17867.5 544.676 17867.6 543.7C17867.7 542.731 17867.8 542.062 17868.1 541.503C17868.6 540.468 17869.5 539.627 17870.5 539.1C17871.1 538.815 17871.7 538.659 17872.7 538.58C17873.7 538.5 17874.9 538.5 17876.6 538.5Z" stroke="#F7F7F7" id="n3034"/>
<path d="M18140.5 565.069C18140.5 565.674 18140.5 565.977 18140.6 566.118C18140.7 566.239 18140.9 566.304 18141 566.291C18141.2 566.277 18141.4 566.063 18141.9 565.634L18144.9 562.566C18145.1 562.368 18145.2 562.269 18145.3 562.154C18145.3 562.054 18145.3 561.946 18145.3 561.845C18145.2 561.731 18145.1 561.632 18144.9 561.434L18141.9 558.366C18141.4 557.937 18141.2 557.723 18141 557.709C18140.9 557.696 18140.7 557.761 18140.6 557.882C18140.5 558.023 18140.5 558.325 18140.5 558.931L18140.5 565.069Z" fill="#535353" id="n3035"/>
</g>
</svg>
