<?xml version='1.0' encoding='utf-8'?>
<svg xmlns="http://www.w3.org/2000/svg" xmlns:xlink="http://www.w3.org/1999/xlink" width="320.0" height="352.0" viewBox="0 0 320.0 352.0" fill="none">
  <defs><clipPath id="clip__asset"><rect x="0" y="0" width="320.0" height="352.0"/></clipPath><mask id="path-175-inside-14_1702_11540" fill="white">
<path d="M11435 321.6C11435 318.24 11435 316.56 11435.7 315.276C11436.2 314.147 11437.1 313.229 11438.3 312.654C11439.6 312 11441.2 312 11444.6 312H11713.4C11716.8 312 11718.4 312 11719.7 312.654C11720.9 313.229 11721.8 314.147 11722.3 315.276C11723 316.56 11723 318.24 11723 321.6V334.4C11723 337.76 11723 339.44 11722.3 340.724C11721.8 341.853 11720.9 342.771 11719.7 343.346C11718.4 344 11716.8 344 11713.4 344H11444.6C11441.2 344 11439.6 344 11438.3 343.346C11437.1 342.771 11436.2 341.853 11435.7 340.724C11435 339.44 11435 337.76 11435 334.4V321.6Z" id="n218"/>
</mask>
<mask id="path-178-inside-15_1702_11540" fill="white">
<path d="M11435 369.6C11435 366.24 11435 364.56 11435.7 363.276C11436.2 362.147 11437.1 361.229 11438.3 360.654C11439.6 360 11441.2 360 11444.6 360H11713.4C11716.8 360 11718.4 360 11719.7 360.654C11720.9 361.229 11721.8 362.147 11722.3 363.276C11723 364.56 11723 366.24 11723 369.6V382.4C11723 385.76 11723 387.44 11722.3 388.724C11721.8 389.853 11720.9 390.771 11719.7 391.346C11718.4 392 11716.8 392 11713.4 392H11444.6C11441.2 392 11439.6 392 11438.3 391.346C11437.1 390.771 11436.2 389.853 11435.7 388.724C11435 387.44 11435 385.76 11435 382.4V369.6Z" id="n222"/>
</mask>
<mask id="path-184-inside-16_1702_11540" fill="white">
<path d="M11435 417.6C11435 414.24 11435 412.56 11435.7 411.276C11436.2 410.147 11437.1 409.229 11438.3 408.654C11439.6 408 11441.2 408 11444.6 408H11713.4C11716.8 408 11718.4 408 11719.7 408.654C11720.9 409.229 11721.8 410.147 11722.3 411.276C11723 412.56 11723 414.24 11723 417.6V430.4C11723 433.76 11723 435.44 11722.3 436.724C11721.8 437.853 11720.9 438.771 11719.7 439.346C11718.4 440 11716.8 440 11713.4 440H11444.6C11441.2 440 11439.6 440 11438.3 439.346C11437.1 438.771 11436.2 437.853 11435.7 436.724C11435 435.44 11435 433.76 11435 430.4V417.6Z" id="n227"/>
</mask>
<filter id="filter4_d_1702_11540" x="11403" y="236" width="352" height="384" filterUnits="userSpaceOnUse" color-interpolation-filters="sRGB">
<feFlood flood-opacity="0" result="BackgroundImageFix" id="n3128"/>
<feColorMatrix in="SourceAlpha" type="matrix" values="0 0 0 0 0 0 0 0 0 0 0 0 0 0 0 0 0 0 127 0" result="hardAlpha" id="n3129"/>
<feOffset dy="4" id="n3130"/>
<feGaussianBlur stdDeviation="8" id="n3131"/>
<feComposite in2="hardAlpha" operator="out" id="n3132"/>
<feColorMatrix type="matrix" values="0 0 0 0 0 0 0 0 0 0 0 0 0 0 0 0 0 0 0.32 0" id="n3133"/>
<feBlend mode="normal" in2="BackgroundImageFix" result="effect1_dropShadow_1702_11540" id="n3134"/>
<feBlend mode="normal" in="SourceGraphic" in2="effect1_dropShadow_1702_11540" result="shape" id="n3135"/>
</filter>
<clipPath id="clip4_1702_11540">
<path d="M11419 260C11419 253.373 11424.4 248 11431 248H11727C11733.6 248 11739 253.373 11739 260V588C11739 594.627 11733.6 600 11727 600H11431C11424.4 600 11419 594.627 11419 588V260Z" fill="white" id="n3439"/>
</clipPath>
</defs>
  <g clip-path="url(#clip__asset)" transform="translate(-11419.0 -248.0)"><g filter="url(#filter4_d_1702_11540)" id="n214">
<g clip-path="url(#clip4_1702_11540)" id="n215">
<path d="M11419 260C11419 253.373 11424.4 248 11431 248H11727C11733.6 248 11739 253.373 11739 260V588C11739 594.627 11733.6 600 11727 600H11431C11424.4 600 11419 594.627 11419 588V260Z" fill="#FCFCFC" id="n216"/>
<path d="M11451.1 278.88C11451.1 279.563 11450.9 280.149 11450.6 280.64C11450.3 281.12 11449.8 281.493 11449.2 281.76C11448.6 282.027 11447.8 282.16 11447 282.16C11446.6 282.16 11446.2 282.133 11445.8 282.08C11445.4 282.037 11445 281.973 11444.7 281.888C11444.4 281.792 11444.1 281.675 11443.8 281.536V279.696C11444.2 279.909 11444.8 280.101 11445.3 280.272C11445.9 280.432 11446.5 280.512 11447.1 280.512C11447.6 280.512 11448 280.453 11448.3 280.336C11448.6 280.208 11448.8 280.032 11449 279.808C11449.1 279.573 11449.2 279.307 11449.2 279.008C11449.2 278.677 11449.1 278.4 11448.9 278.176C11448.7 277.941 11448.5 277.728 11448.1 277.536C11447.7 277.333 11447.3 277.125 11446.7 276.912C11446.4 276.752 11446 276.576 11445.7 276.384C11445.3 276.192 11445 275.968 11444.8 275.712C11444.5 275.445 11444.3 275.136 11444.1 274.784C11444 274.421 11443.9 273.995 11443.9 273.504C11443.9 272.853 11444.1 272.299 11444.4 271.84C11444.7 271.381 11445.1 271.029 11445.7 270.784C11446.3 270.539 11446.9 270.416 11447.7 270.416C11448.3 270.416 11448.9 270.48 11449.4 270.608C11449.9 270.736 11450.4 270.912 11451 271.136L11450.3 272.72C11449.9 272.528 11449.4 272.373 11449 272.256C11448.5 272.139 11448.1 272.08 11447.6 272.08C11447.2 272.08 11446.9 272.139 11446.6 272.256C11446.4 272.363 11446.2 272.523 11446 272.736C11445.9 272.949 11445.8 273.195 11445.8 273.472C11445.8 273.792 11445.9 274.064 11446.1 274.288C11446.2 274.501 11446.5 274.704 11446.8 274.896C11447.2 275.077 11447.6 275.285 11448.2 275.52C11448.8 275.787 11449.3 276.064 11449.8 276.352C11450.2 276.64 11450.5 276.987 11450.8 277.392C11451 277.787 11451.1 278.283 11451.1 278.88ZM11455.2 273.344V282H11453.2V273.344H11455.2ZM11454.2 270.016C11454.5 270.016 11454.8 270.096 11455 270.256C11455.2 270.405 11455.3 270.672 11455.3 271.056C11455.3 271.429 11455.2 271.696 11455 271.856C11454.8 272.016 11454.5 272.096 11454.2 272.096C11453.9 272.096 11453.7 272.016 11453.5 271.856C11453.2 271.696 11453.1 271.429 11453.1 271.056C11453.1 270.672 11453.2 270.405 11453.5 270.256C11453.7 270.096 11453.9 270.016 11454.2 270.016ZM11460.9 273.184C11461.4 273.184 11461.9 273.291 11462.3 273.504C11462.8 273.717 11463.2 274.037 11463.5 274.464H11463.5L11463.7 273.344H11465.3V282.08C11465.3 282.901 11465.2 283.589 11464.9 284.144C11464.6 284.699 11464.1 285.12 11463.5 285.408C11462.9 285.696 11462.1 285.84 11461.2 285.84C11460.6 285.84 11460 285.797 11459.5 285.712C11459 285.637 11458.5 285.504 11458 285.312V283.696C11458.3 283.845 11458.7 283.968 11459 284.064C11459.4 284.171 11459.7 284.245 11460.1 284.288C11460.5 284.341 11460.9 284.368 11461.3 284.368C11462 284.368 11462.5 284.176 11462.9 283.792C11463.2 283.419 11463.4 282.88 11463.4 282.176V281.936C11463.4 281.776 11463.4 281.589 11463.4 281.376C11463.4 281.163 11463.4 280.992 11463.5 280.864H11463.4C11463.1 281.312 11462.7 281.643 11462.3 281.856C11461.9 282.059 11461.4 282.16 11460.8 282.16C11459.8 282.16 11458.9 281.765 11458.3 280.976C11457.7 280.187 11457.4 279.088 11457.4 277.68C11457.4 276.741 11457.6 275.936 11457.8 275.264C11458.1 274.592 11458.5 274.08 11459 273.728C11459.5 273.365 11460.2 273.184 11460.9 273.184ZM11461.3 274.752C11460.9 274.752 11460.6 274.869 11460.3 275.104C11460 275.328 11459.8 275.659 11459.6 276.096C11459.5 276.533 11459.4 277.072 11459.4 277.712C11459.4 278.672 11459.6 279.397 11459.9 279.888C11460.2 280.379 11460.7 280.624 11461.4 280.624C11461.8 280.624 11462.1 280.581 11462.3 280.496C11462.6 280.4 11462.8 280.245 11463 280.032C11463.2 279.819 11463.3 279.547 11463.4 279.216C11463.4 278.875 11463.5 278.469 11463.5 278V277.696C11463.5 276.992 11463.4 276.427 11463.3 276C11463.1 275.573 11462.9 275.259 11462.6 275.056C11462.3 274.853 11461.8 274.752 11461.3 274.752ZM11472.6 273.184C11473.6 273.184 11474.4 273.435 11474.9 273.936C11475.5 274.437 11475.7 275.243 11475.7 276.352V282H11473.8V276.72C11473.8 276.059 11473.7 275.563 11473.4 275.232C11473.2 274.901 11472.7 274.736 11472.2 274.736C11471.3 274.736 11470.8 274.997 11470.4 275.52C11470.1 276.032 11470 276.768 11470 277.728V282H11468.1V273.344H11469.6L11469.8 274.48H11469.9C11470.1 274.181 11470.4 273.936 11470.6 273.744C11470.9 273.552 11471.2 273.413 11471.6 273.328C11471.9 273.232 11472.3 273.184 11472.6 273.184ZM11484.6 273.344V282H11482.7V273.344H11484.6ZM11483.7 270.016C11484 270.016 11484.2 270.096 11484.4 270.256C11484.7 270.405 11484.8 270.672 11484.8 271.056C11484.8 271.429 11484.7 271.696 11484.4 271.856C11484.2 272.016 11484 272.096 11483.7 272.096C11483.4 272.096 11483.1 272.016 11482.9 271.856C11482.7 271.696 11482.6 271.429 11482.6 271.056C11482.6 270.672 11482.7 270.405 11482.9 270.256C11483.1 270.096 11483.4 270.016 11483.7 270.016ZM11492 273.184C11492.9 273.184 11493.7 273.435 11494.2 273.936C11494.8 274.437 11495.1 275.243 11495.1 276.352V282H11493.2V276.72C11493.2 276.059 11493 275.563 11492.8 275.232C11492.5 274.901 11492.1 274.736 11491.5 274.736C11490.7 274.736 11490.1 274.997 11489.8 275.52C11489.5 276.032 11489.3 276.768 11489.3 277.728V282H11487.4V273.344H11488.9L11489.2 274.48H11489.3C11489.5 274.181 11489.7 273.936 11490 273.744C11490.3 273.552 11490.6 273.413 11490.9 273.328C11491.3 273.232 11491.6 273.184 11492 273.184Z" fill="#535353" id="n217"/>
<mask id="path-175-inside-14_1702_11540" fill="white">
<path d="M11435 321.6C11435 318.24 11435 316.56 11435.7 315.276C11436.2 314.147 11437.1 313.229 11438.3 312.654C11439.6 312 11441.2 312 11444.6 312H11713.4C11716.8 312 11718.4 312 11719.7 312.654C11720.9 313.229 11721.8 314.147 11722.3 315.276C11723 316.56 11723 318.24 11723 321.6V334.4C11723 337.76 11723 339.44 11722.3 340.724C11721.8 341.853 11720.9 342.771 11719.7 343.346C11718.4 344 11716.8 344 11713.4 344H11444.6C11441.2 344 11439.6 344 11438.3 343.346C11437.1 342.771 11436.2 341.853 11435.7 340.724C11435 339.44 11435 337.76 11435 334.4V321.6Z" id="n218"/>
</mask>
<path d="M11435 321.6C11435 318.24 11435 316.56 11435.7 315.276C11436.2 314.147 11437.1 313.229 11438.3 312.654C11439.6 312 11441.2 312 11444.6 312H11713.4C11716.8 312 11718.4 312 11719.7 312.654C11720.9 313.229 11721.8 314.147 11722.3 315.276C11723 316.56 11723 318.24 11723 321.6V334.4C11723 337.76 11723 339.44 11722.3 340.724C11721.8 341.853 11720.9 342.771 11719.7 343.346C11718.4 344 11716.8 344 11713.4 344H11444.6C11441.2 344 11439.6 344 11438.3 343.346C11437.1 342.771 11436.2 341.853 11435.7 340.724C11435 339.44 11435 337.76 11435 334.4V321.6Z" fill="white" id="n219"/>
<path d="M11438.3 343.346L11438.7 342.455L11438.3 343.346ZM11722.3 340.724L11721.5 340.27L11722.3 340.724ZM11719.7 343.346L11720.2 344.237L11719.7 343.346ZM11719.7 312.654L11719.3 313.545L11719.7 312.654ZM11722.3 315.276L11723.2 314.822L11722.3 315.276ZM11444.6 312V313H11713.4V312V311H11444.6V312ZM11723 321.6H11722V334.4H11723H11724V321.6H11723ZM11713.4 344V343H11444.6V344V345H11713.4V344ZM11435 334.4H11436V321.6H11435H11434V334.4H11435ZM11444.6 344V343C11442.9 343 11441.7 342.999 11440.7 342.922C11439.8 342.845 11439.2 342.698 11438.7 342.455L11438.3 343.346L11437.8 344.237C11438.6 344.648 11439.5 344.828 11440.6 344.915C11441.6 345.001 11442.9 345 11444.6 345V344ZM11435 334.4H11434C11434 336.064 11434 337.372 11434.1 338.422C11434.2 339.485 11434.4 340.372 11434.8 341.178L11435.7 340.724L11436.5 340.27C11436.3 339.793 11436.2 339.198 11436.1 338.259C11436 337.309 11436 336.097 11436 334.4H11435ZM11438.3 343.346L11438.7 342.455C11437.8 341.976 11437 341.211 11436.5 340.27L11435.7 340.724L11434.8 341.178C11435.4 342.495 11436.5 343.566 11437.8 344.237L11438.3 343.346ZM11723 334.4H11722C11722 336.097 11722 337.309 11721.9 338.259C11721.8 339.198 11721.7 339.793 11721.5 340.27L11722.3 340.724L11723.2 341.178C11723.6 340.372 11723.8 339.485 11723.9 338.422C11724 337.372 11724 336.064 11724 334.4H11723ZM11713.4 344V345C11715.1 345 11716.4 345.001 11717.4 344.915C11718.5 344.828 11719.4 344.648 11720.2 344.237L11719.7 343.346L11719.3 342.455C11718.8 342.698 11718.2 342.845 11717.3 342.922C11716.3 342.999 11715.1 343 11713.4 343V344ZM11722.3 340.724L11721.5 340.27C11721 341.211 11720.2 341.976 11719.3 342.455L11719.7 343.346L11720.2 344.237C11721.5 343.566 11722.6 342.495 11723.2 341.178L11722.3 340.724ZM11713.4 312V313C11715.1 313 11716.3 313.001 11717.3 313.078C11718.2 313.155 11718.8 313.302 11719.3 313.545L11719.7 312.654L11720.2 311.763C11719.4 311.352 11718.5 311.172 11717.4 311.085C11716.4 310.999 11715.1 311 11713.4 311V312ZM11723 321.6H11724C11724 319.936 11724 318.628 11723.9 317.578C11723.8 316.515 11723.6 315.628 11723.2 314.822L11722.3 315.276L11721.5 315.73C11721.7 316.207 11721.8 316.802 11721.9 317.741C11722 318.691 11722 319.903 11722 321.6H11723ZM11719.7 312.654L11719.3 313.545C11720.2 314.024 11721 314.789 11721.5 315.73L11722.3 315.276L11723.2 314.822C11722.6 313.505 11721.5 312.434 11720.2 311.763L11719.7 312.654ZM11444.6 312V311C11442.9 311 11441.6 310.999 11440.6 311.085C11439.5 311.172 11438.6 311.352 11437.8 311.763L11438.3 312.654L11438.7 313.545C11439.2 313.302 11439.8 313.155 11440.7 313.078C11441.7 313.001 11442.9 313 11444.6 313V312ZM11435 321.6H11436C11436 319.903 11436 318.691 11436.1 317.741C11436.2 316.802 11436.3 316.207 11436.5 315.73L11435.7 315.276L11434.8 314.822C11434.4 315.628 11434.2 316.515 11434.1 317.578C11434 318.628 11434 319.936 11434 321.6H11435ZM11438.3 312.654L11437.8 311.763C11436.5 312.434 11435.4 313.505 11434.8 314.822L11435.7 315.276L11436.5 315.73C11437 314.789 11437.8 314.024 11438.7 313.545L11438.3 312.654Z" fill="#BEBEBE" mask="url(#path-175-inside-14_1702_11540)" id="n220"/>
<path d="M11461.2 329.968C11461.2 330.779 11461 331.504 11460.7 332.144C11460.4 332.773 11459.9 333.269 11459.2 333.632C11458.6 333.984 11457.8 334.16 11456.8 334.16C11455.4 334.16 11454.3 333.781 11453.6 333.024C11452.8 332.256 11452.5 331.227 11452.5 329.936V322.576H11453.7V329.968C11453.7 330.949 11454 331.707 11454.5 332.24C11455 332.773 11455.8 333.04 11456.8 333.04C11457.5 333.04 11458.1 332.912 11458.6 332.656C11459 332.4 11459.4 332.048 11459.6 331.6C11459.8 331.141 11459.9 330.603 11459.9 329.984V322.576H11461.2V329.968ZM11469.5 331.664C11469.5 332.208 11469.4 332.667 11469.1 333.04C11468.9 333.403 11468.5 333.68 11468 333.872C11467.5 334.064 11466.8 334.16 11466.1 334.16C11465.5 334.16 11465 334.112 11464.6 334.016C11464.2 333.92 11463.8 333.787 11463.4 333.616V332.464C11463.8 332.635 11464.2 332.789 11464.7 332.928C11465.2 333.067 11465.7 333.136 11466.2 333.136C11466.9 333.136 11467.5 333.013 11467.8 332.768C11468.1 332.523 11468.3 332.192 11468.3 331.776C11468.3 331.531 11468.2 331.317 11468.1 331.136C11468 330.955 11467.7 330.779 11467.4 330.608C11467.1 330.437 11466.7 330.251 11466.1 330.048C11465.6 329.845 11465.1 329.643 11464.7 329.44C11464.3 329.237 11464 328.987 11463.8 328.688C11463.6 328.389 11463.5 328.005 11463.5 327.536C11463.5 326.811 11463.8 326.256 11464.3 325.872C11464.9 325.477 11465.7 325.28 11466.6 325.28C11467.2 325.28 11467.6 325.333 11468.1 325.44C11468.5 325.536 11469 325.669 11469.3 325.84L11468.9 326.864C11468.7 326.757 11468.4 326.667 11468.2 326.592C11467.9 326.507 11467.7 326.443 11467.4 326.4C11467.1 326.347 11466.8 326.32 11466.6 326.32C11466 326.32 11465.5 326.421 11465.2 326.624C11464.8 326.827 11464.7 327.104 11464.7 327.456C11464.7 327.723 11464.7 327.947 11464.9 328.128C11465 328.299 11465.3 328.459 11465.6 328.608C11466 328.757 11466.4 328.933 11466.9 329.136C11467.4 329.328 11467.9 329.531 11468.3 329.744C11468.7 329.947 11469 330.203 11469.2 330.512C11469.4 330.811 11469.5 331.195 11469.5 331.664ZM11474.9 325.28C11475.6 325.28 11476.3 325.445 11476.8 325.776C11477.3 326.096 11477.7 326.549 11478 327.136C11478.2 327.712 11478.4 328.389 11478.4 329.168V329.952H11472.4C11472.5 330.965 11472.7 331.744 11473.2 332.288C11473.7 332.821 11474.4 333.088 11475.3 333.088C11475.8 333.088 11476.3 333.04 11476.7 332.944C11477.1 332.837 11477.5 332.688 11478 332.496V333.6C11477.6 333.792 11477.1 333.931 11476.7 334.016C11476.3 334.112 11475.8 334.16 11475.2 334.16C11474.4 334.16 11473.7 333.995 11473.1 333.664C11472.4 333.323 11472 332.827 11471.6 332.176C11471.3 331.515 11471.1 330.72 11471.1 329.792C11471.1 328.875 11471.3 328.08 11471.6 327.408C11471.9 326.736 11472.3 326.213 11472.9 325.84C11473.5 325.467 11474.1 325.28 11474.9 325.28ZM11474.9 326.32C11474.2 326.32 11473.6 326.549 11473.2 327.008C11472.8 327.467 11472.5 328.112 11472.5 328.944H11477.1C11477.1 328.421 11477 327.968 11476.8 327.584C11476.7 327.189 11476.4 326.88 11476.1 326.656C11475.8 326.432 11475.4 326.32 11474.9 326.32ZM11484.4 325.296C11484.6 325.296 11484.8 325.307 11485 325.328C11485.2 325.339 11485.3 325.36 11485.5 325.392L11485.3 326.56C11485.2 326.517 11485 326.485 11484.8 326.464C11484.7 326.443 11484.5 326.432 11484.3 326.432C11484 326.432 11483.7 326.507 11483.4 326.656C11483.1 326.795 11482.8 326.992 11482.6 327.248C11482.3 327.504 11482.2 327.813 11482 328.176C11481.9 328.539 11481.8 328.944 11481.8 329.392V334H11480.6V325.44H11481.6L11481.7 327.024H11481.8C11482 326.704 11482.2 326.416 11482.4 326.16C11482.7 325.893 11483 325.685 11483.3 325.536C11483.7 325.376 11484 325.296 11484.4 325.296ZM11491.1 325.28C11492.1 325.28 11492.9 325.531 11493.4 326.032C11493.9 326.523 11494.2 327.317 11494.2 328.416V334H11493V328.512C11493 327.776 11492.8 327.232 11492.5 326.88C11492.1 326.528 11491.6 326.352 11491 326.352C11490 326.352 11489.3 326.619 11488.9 327.152C11488.5 327.685 11488.3 328.464 11488.3 329.488V334H11487.1V325.44H11488.1L11488.3 326.704H11488.4C11488.6 326.395 11488.8 326.139 11489.1 325.936C11489.3 325.723 11489.7 325.563 11490 325.456C11490.4 325.339 11490.7 325.28 11491.1 325.28ZM11500 325.296C11501.1 325.296 11501.8 325.531 11502.3 326C11502.8 326.459 11503.1 327.189 11503.1 328.192V334H11502.1L11501.9 332.72H11501.8C11501.6 333.029 11501.4 333.296 11501.1 333.52C11500.8 333.733 11500.5 333.893 11500.2 334C11499.8 334.107 11499.4 334.16 11498.9 334.16C11498.4 334.16 11497.9 334.069 11497.5 333.888C11497.1 333.707 11496.8 333.429 11496.6 333.056C11496.3 332.683 11496.2 332.219 11496.2 331.664C11496.2 330.811 11496.6 330.155 11497.2 329.696C11497.9 329.237 11499 328.987 11500.3 328.944L11501.8 328.88V328.352C11501.8 327.595 11501.7 327.067 11501.3 326.768C11501 326.469 11500.6 326.32 11500 326.32C11499.5 326.32 11499.1 326.384 11498.7 326.512C11498.3 326.64 11497.9 326.795 11497.5 326.976L11497.2 326.016C11497.5 325.813 11498 325.643 11498.5 325.504C11499 325.365 11499.5 325.296 11500 325.296ZM11500.5 329.824C11499.4 329.867 11498.7 330.043 11498.2 330.352C11497.8 330.661 11497.5 331.104 11497.5 331.68C11497.5 332.171 11497.7 332.539 11498 332.784C11498.3 333.019 11498.7 333.136 11499.2 333.136C11500 333.136 11500.6 332.923 11501.1 332.496C11501.6 332.059 11501.8 331.413 11501.8 330.56V329.776L11500.5 329.824ZM11515 325.28C11515.9 325.28 11516.6 325.525 11517.1 326.016C11517.6 326.507 11517.8 327.296 11517.8 328.384V334H11516.6V328.448C11516.6 327.744 11516.4 327.221 11516.1 326.88C11515.8 326.528 11515.4 326.352 11514.8 326.352C11513.9 326.352 11513.3 326.592 11513 327.072C11512.6 327.541 11512.4 328.251 11512.4 329.2V334H11511.1V328.448C11511.1 327.979 11511.1 327.589 11510.9 327.28C11510.8 326.96 11510.6 326.725 11510.3 326.576C11510.1 326.427 11509.7 326.352 11509.3 326.352C11508.8 326.352 11508.3 326.469 11508 326.704C11507.6 326.939 11507.4 327.285 11507.2 327.744C11507 328.192 11507 328.757 11507 329.44V334H11505.7V325.44H11506.7L11506.9 326.672H11507C11507.2 326.373 11507.4 326.123 11507.6 325.92C11507.9 325.707 11508.2 325.547 11508.5 325.44C11508.8 325.333 11509.2 325.28 11509.5 325.28C11510.2 325.28 11510.7 325.403 11511.2 325.648C11511.6 325.893 11511.9 326.267 11512.1 326.768H11512.2C11512.5 326.277 11512.9 325.909 11513.4 325.664C11513.8 325.408 11514.4 325.28 11515 325.28ZM11523.8 325.28C11524.5 325.28 11525.1 325.445 11525.6 325.776C11526.2 326.096 11526.6 326.549 11526.8 327.136C11527.1 327.712 11527.2 328.389 11527.2 329.168V329.952H11521.3C11521.3 330.965 11521.6 331.744 11522.1 332.288C11522.5 332.821 11523.2 333.088 11524.1 333.088C11524.7 333.088 11525.1 333.04 11525.6 332.944C11526 332.837 11526.4 332.688 11526.9 332.496V333.6C11526.4 333.792 11526 333.931 11525.6 334.016C11525.1 334.112 11524.6 334.16 11524.1 334.16C11523.2 334.16 11522.5 333.995 11521.9 333.664C11521.3 333.323 11520.8 332.827 11520.5 332.176C11520.2 331.515 11520 330.72 11520 329.792C11520 328.875 11520.2 328.08 11520.5 327.408C11520.8 326.736 11521.2 326.213 11521.8 325.84C11522.3 325.467 11523 325.28 11523.8 325.28ZM11523.7 326.32C11523 326.32 11522.5 326.549 11522.1 327.008C11521.7 327.467 11521.4 328.112 11521.3 328.944H11525.9C11525.9 328.421 11525.8 327.968 11525.7 327.584C11525.5 327.189 11525.3 326.88 11525 326.656C11524.7 326.432 11524.3 326.32 11523.7 326.32Z" fill="#707070" id="n221"/>
<mask id="path-178-inside-15_1702_11540" fill="white">
<path d="M11435 369.6C11435 366.24 11435 364.56 11435.7 363.276C11436.2 362.147 11437.1 361.229 11438.3 360.654C11439.6 360 11441.2 360 11444.6 360H11713.4C11716.8 360 11718.4 360 11719.7 360.654C11720.9 361.229 11721.8 362.147 11722.3 363.276C11723 364.56 11723 366.24 11723 369.6V382.4C11723 385.76 11723 387.44 11722.3 388.724C11721.8 389.853 11720.9 390.771 11719.7 391.346C11718.4 392 11716.8 392 11713.4 392H11444.6C11441.2 392 11439.6 392 11438.3 391.346C11437.1 390.771 11436.2 389.853 11435.7 388.724C11435 387.44 11435 385.76 11435 382.4V369.6Z" id="n222"/>
</mask>
<path d="M11435 369.6C11435 366.24 11435 364.56 11435.7 363.276C11436.2 362.147 11437.1 361.229 11438.3 360.654C11439.6 360 11441.2 360 11444.6 360H11713.4C11716.8 360 11718.4 360 11719.7 360.654C11720.9 361.229 11721.8 362.147 11722.3 363.276C11723 364.56 11723 366.24 11723 369.6V382.4C11723 385.76 11723 387.44 11722.3 388.724C11721.8 389.853 11720.9 390.771 11719.7 391.346C11718.4 392 11716.8 392 11713.4 392H11444.6C11441.2 392 11439.6 392 11438.3 391.346C11437.1 390.771 11436.2 389.853 11435.7 388.724C11435 387.44 11435 385.76 11435 382.4V369.6Z" fill="white" id="n223"/>
<path d="M11438.3 391.346L11438.7 390.455L11438.3 391.346ZM11722.3 388.724L11721.5 388.27L11722.3 388.724ZM11719.7 391.346L11720.2 392.237L11719.7 391.346ZM11719.7 360.654L11719.3 361.545L11719.7 360.654ZM11722.3 363.276L11723.2 362.822L11722.3 363.276ZM11444.6 360V361H11713.4V360V359H11444.6V360ZM11723 369.6H11722V382.4H11723H11724V369.6H11723ZM11713.4 392V391H11444.6V392V393H11713.4V392ZM11435 382.4H11436V369.6H11435H11434V382.4H11435ZM11444.6 392V391C11442.9 391 11441.7 390.999 11440.7 390.922C11439.8 390.845 11439.2 390.698 11438.7 390.455L11438.3 391.346L11437.8 392.237C11438.6 392.648 11439.5 392.828 11440.6 392.915C11441.6 393.001 11442.9 393 11444.6 393V392ZM11435 382.4H11434C11434 384.064 11434 385.372 11434.1 386.422C11434.2 387.485 11434.4 388.372 11434.8 389.178L11435.7 388.724L11436.5 388.27C11436.3 387.793 11436.2 387.198 11436.1 386.259C11436 385.309 11436 384.097 11436 382.4H11435ZM11438.3 391.346L11438.7 390.455C11437.8 389.976 11437 389.211 11436.5 388.27L11435.7 388.724L11434.8 389.178C11435.4 390.495 11436.5 391.566 11437.8 392.237L11438.3 391.346ZM11723 382.4H11722C11722 384.097 11722 385.309 11721.9 386.259C11721.8 387.198 11721.7 387.793 11721.5 388.27L11722.3 388.724L11723.2 389.178C11723.6 388.372 11723.8 387.485 11723.9 386.422C11724 385.372 11724 384.064 11724 382.4H11723ZM11713.4 392V393C11715.1 393 11716.4 393.001 11717.4 392.915C11718.5 392.828 11719.4 392.648 11720.2 392.237L11719.7 391.346L11719.3 390.455C11718.8 390.698 11718.2 390.845 11717.3 390.922C11716.3 390.999 11715.1 391 11713.4 391V392ZM11722.3 388.724L11721.5 388.27C11721 389.211 11720.2 389.976 11719.3 390.455L11719.7 391.346L11720.2 392.237C11721.5 391.566 11722.6 390.495 11723.2 389.178L11722.3 388.724ZM11713.4 360V361C11715.1 361 11716.3 361.001 11717.3 361.078C11718.2 361.155 11718.8 361.302 11719.3 361.545L11719.7 360.654L11720.2 359.763C11719.4 359.352 11718.5 359.172 11717.4 359.085C11716.4 358.999 11715.1 359 11713.4 359V360ZM11723 369.6H11724C11724 367.936 11724 366.628 11723.9 365.578C11723.8 364.515 11723.6 363.628 11723.2 362.822L11722.3 363.276L11721.5 363.73C11721.7 364.207 11721.8 364.802 11721.9 365.741C11722 366.691 11722 367.903 11722 369.6H11723ZM11719.7 360.654L11719.3 361.545C11720.2 362.024 11721 362.789 11721.5 363.73L11722.3 363.276L11723.2 362.822C11722.6 361.505 11721.5 360.434 11720.2 359.763L11719.7 360.654ZM11444.6 360V359C11442.9 359 11441.6 358.999 11440.6 359.085C11439.5 359.172 11438.6 359.352 11437.8 359.763L11438.3 360.654L11438.7 361.545C11439.2 361.302 11439.8 361.155 11440.7 361.078C11441.7 361.001 11442.9 361 11444.6 361V360ZM11435 369.6H11436C11436 367.903 11436 366.691 11436.1 365.741C11436.2 364.802 11436.3 364.207 11436.5 363.73L11435.7 363.276L11434.8 362.822C11434.4 363.628 11434.2 364.515 11434.1 365.578C11434 366.628 11434 367.936 11434 369.6H11435ZM11438.3 360.654L11437.8 359.763C11436.5 360.434 11435.4 361.505 11434.8 362.822L11435.7 363.276L11436.5 363.73C11437 362.789 11437.8 362.024 11438.7 361.545L11438.3 360.654Z" fill="#BEBEBE" mask="url(#path-178-inside-15_1702_11540)" id="n224"/>
<path d="M11455.5 370.576C11457 370.576 11458.1 370.864 11458.7 371.44C11459.4 372.005 11459.8 372.827 11459.8 373.904C11459.8 374.395 11459.7 374.859 11459.5 375.296C11459.4 375.723 11459.1 376.101 11458.8 376.432C11458.4 376.763 11457.9 377.024 11457.4 377.216C11456.8 377.397 11456.1 377.488 11455.3 377.488H11453.8V382H11452.6V370.576H11455.5ZM11455.4 371.68H11453.8V376.384H11455.1C11455.9 376.384 11456.5 376.304 11457 376.144C11457.5 375.984 11457.8 375.728 11458.1 375.376C11458.3 375.013 11458.4 374.539 11458.4 373.952C11458.4 373.184 11458.2 372.613 11457.7 372.24C11457.2 371.867 11456.5 371.68 11455.4 371.68ZM11465.1 373.296C11466.2 373.296 11466.9 373.531 11467.4 374C11467.9 374.459 11468.1 375.189 11468.1 376.192V382H11467.2L11467 380.72H11466.9C11466.7 381.029 11466.4 381.296 11466.2 381.52C11465.9 381.733 11465.6 381.893 11465.3 382C11464.9 382.107 11464.5 382.16 11464 382.16C11463.5 382.16 11463 382.069 11462.6 381.888C11462.2 381.707 11461.9 381.429 11461.7 381.056C11461.4 380.683 11461.3 380.219 11461.3 379.664C11461.3 378.811 11461.7 378.155 11462.3 377.696C11463 377.237 11464 376.987 11465.4 376.944L11466.9 376.88V376.352C11466.9 375.595 11466.8 375.067 11466.4 374.768C11466.1 374.469 11465.7 374.32 11465.1 374.32C11464.6 374.32 11464.2 374.384 11463.8 374.512C11463.4 374.64 11463 374.795 11462.6 374.976L11462.3 374.016C11462.6 373.813 11463.1 373.643 11463.6 373.504C11464.1 373.365 11464.6 373.296 11465.1 373.296ZM11465.6 377.824C11464.5 377.867 11463.8 378.043 11463.3 378.352C11462.9 378.661 11462.6 379.104 11462.6 379.68C11462.6 380.171 11462.8 380.539 11463.1 380.784C11463.4 381.019 11463.8 381.136 11464.3 381.136C11465.1 381.136 11465.7 380.923 11466.2 380.496C11466.7 380.059 11466.9 379.413 11466.9 378.56V377.776L11465.6 377.824ZM11476.3 379.664C11476.3 380.208 11476.2 380.667 11475.9 381.04C11475.7 381.403 11475.3 381.68 11474.7 381.872C11474.2 382.064 11473.6 382.16 11472.9 382.16C11472.3 382.16 11471.8 382.112 11471.4 382.016C11471 381.92 11470.6 381.787 11470.2 381.616V380.464C11470.6 380.635 11471 380.789 11471.5 380.928C11472 381.067 11472.5 381.136 11473 381.136C11473.7 381.136 11474.3 381.013 11474.6 380.768C11474.9 380.523 11475.1 380.192 11475.1 379.776C11475.1 379.531 11475 379.317 11474.9 379.136C11474.8 378.955 11474.5 378.779 11474.2 378.608C11473.9 378.437 11473.5 378.251 11472.9 378.048C11472.4 377.845 11471.9 377.643 11471.5 377.44C11471.1 377.237 11470.8 376.987 11470.6 376.688C11470.4 376.389 11470.3 376.005 11470.3 375.536C11470.3 374.811 11470.6 374.256 11471.1 373.872C11471.7 373.477 11472.5 373.28 11473.4 373.28C11474 373.28 11474.4 373.333 11474.9 373.44C11475.3 373.536 11475.8 373.669 11476.1 373.84L11475.7 374.864C11475.5 374.757 11475.2 374.667 11475 374.592C11474.7 374.507 11474.5 374.443 11474.2 374.4C11473.9 374.347 11473.6 374.32 11473.4 374.32C11472.7 374.32 11472.3 374.421 11471.9 374.624C11471.6 374.827 11471.5 375.104 11471.5 375.456C11471.5 375.723 11471.5 375.947 11471.7 376.128C11471.8 376.299 11472.1 376.459 11472.4 376.608C11472.8 376.757 11473.2 376.933 11473.7 377.136C11474.2 377.328 11474.7 377.531 11475.1 377.744C11475.5 377.947 11475.8 378.203 11476 378.512C11476.2 378.811 11476.3 379.195 11476.3 379.664ZM11483.9 379.664C11483.9 380.208 11483.8 380.667 11483.5 381.04C11483.3 381.403 11482.9 381.68 11482.4 381.872C11481.9 382.064 11481.3 382.16 11480.6 382.16C11480 382.16 11479.4 382.112 11479 382.016C11478.6 381.92 11478.2 381.787 11477.8 381.616V380.464C11478.2 380.635 11478.6 380.789 11479.1 380.928C11479.6 381.067 11480.1 381.136 11480.6 381.136C11481.3 381.136 11481.9 381.013 11482.2 380.768C11482.5 380.523 11482.7 380.192 11482.7 379.776C11482.7 379.531 11482.6 379.317 11482.5 379.136C11482.4 378.955 11482.2 378.779 11481.8 378.608C11481.5 378.437 11481.1 378.251 11480.5 378.048C11480 377.845 11479.5 377.643 11479.1 377.44C11478.7 377.237 11478.4 376.987 11478.2 376.688C11478 376.389 11477.9 376.005 11477.9 375.536C11477.9 374.811 11478.2 374.256 11478.7 373.872C11479.3 373.477 11480.1 373.28 11481 373.28C11481.6 373.28 11482.1 373.333 11482.5 373.44C11483 373.536 11483.4 373.669 11483.8 373.84L11483.3 374.864C11483.1 374.757 11482.8 374.667 11482.6 374.592C11482.3 374.507 11482.1 374.443 11481.8 374.4C11481.5 374.347 11481.2 374.32 11481 374.32C11480.4 374.32 11479.9 374.421 11479.6 374.624C11479.2 374.827 11479.1 375.104 11479.1 375.456C11479.1 375.723 11479.2 375.947 11479.3 376.128C11479.5 376.299 11479.7 376.459 11480 376.608C11480.4 376.757 11480.8 376.933 11481.3 377.136C11481.9 377.328 11482.3 377.531 11482.7 377.744C11483.1 377.947 11483.4 378.203 11483.6 378.512C11483.8 378.811 11483.9 379.195 11483.9 379.664ZM11491.4 376.944C11491.4 376.731 11491.3 376.523 11491.2 376.32C11491.2 376.117 11491.1 375.925 11491.1 375.744C11491 375.563 11491 375.392 11491 375.232C11490.9 375.061 11490.9 374.912 11490.9 374.784H11490.8C11490.8 374.912 11490.7 375.061 11490.7 375.232C11490.7 375.392 11490.6 375.568 11490.6 375.76C11490.5 375.941 11490.5 376.133 11490.4 376.336C11490.4 376.539 11490.3 376.747 11490.2 376.96L11488.6 381.984H11487.2L11484.8 373.44H11486.1L11487.4 378.208C11487.5 378.528 11487.6 378.837 11487.6 379.136C11487.7 379.435 11487.8 379.717 11487.8 379.984C11487.9 380.24 11487.9 380.469 11488 380.672H11488C11488 380.544 11488.1 380.389 11488.1 380.208C11488.2 380.027 11488.2 379.835 11488.3 379.632C11488.3 379.429 11488.3 379.227 11488.4 379.024C11488.5 378.811 11488.5 378.613 11488.6 378.432L11490.2 373.44H11491.5L11493.1 378.432C11493.1 378.677 11493.2 378.933 11493.3 379.2C11493.4 379.467 11493.5 379.728 11493.5 379.984C11493.6 380.229 11493.6 380.453 11493.6 380.656H11493.7C11493.7 380.475 11493.8 380.256 11493.8 380C11493.9 379.744 11493.9 379.461 11494 379.152C11494.1 378.843 11494.2 378.528 11494.3 378.208L11495.5 373.44H11496.8L11494.4 381.984H11493L11491.4 376.944ZM11505.7 377.712C11505.7 378.405 11505.6 379.029 11505.5 379.584C11505.3 380.128 11505 380.592 11504.7 380.976C11504.3 381.36 11503.9 381.653 11503.4 381.856C11502.9 382.059 11502.4 382.16 11501.8 382.16C11501.2 382.16 11500.7 382.059 11500.2 381.856C11499.7 381.653 11499.3 381.36 11499 380.976C11498.6 380.592 11498.4 380.128 11498.2 379.584C11498 379.04 11497.9 378.416 11497.9 377.712C11497.9 376.773 11498.1 375.979 11498.4 375.328C11498.7 374.667 11499.1 374.16 11499.7 373.808C11500.3 373.456 11501 373.28 11501.8 373.28C11502.6 373.28 11503.3 373.456 11503.9 373.808C11504.5 374.16 11504.9 374.667 11505.2 375.328C11505.6 375.989 11505.7 376.784 11505.7 377.712ZM11499.2 377.712C11499.2 378.395 11499.3 378.992 11499.5 379.504C11499.7 380.016 11499.9 380.411 11500.3 380.688C11500.7 380.965 11501.2 381.104 11501.8 381.104C11502.4 381.104 11502.9 380.965 11503.3 380.688C11503.7 380.411 11504 380.016 11504.2 379.504C11504.3 378.992 11504.4 378.395 11504.4 377.712C11504.4 377.019 11504.3 376.427 11504.1 375.936C11504 375.435 11503.7 375.045 11503.3 374.768C11502.9 374.491 11502.4 374.352 11501.8 374.352C11500.9 374.352 11500.2 374.651 11499.8 375.248C11499.4 375.835 11499.2 376.656 11499.2 377.712ZM11511.8 373.296C11512 373.296 11512.2 373.307 11512.4 373.328C11512.5 373.339 11512.7 373.36 11512.9 373.392L11512.7 374.56C11512.6 374.517 11512.4 374.485 11512.2 374.464C11512.1 374.443 11511.9 374.432 11511.7 374.432C11511.4 374.432 11511.1 374.507 11510.8 374.656C11510.5 374.795 11510.2 374.992 11510 375.248C11509.7 375.504 11509.6 375.813 11509.4 376.176C11509.3 376.539 11509.2 376.944 11509.2 377.392V382H11508V373.44H11509L11509.1 375.024H11509.2C11509.4 374.704 11509.6 374.416 11509.8 374.16C11510.1 373.893 11510.4 373.685 11510.7 373.536C11511 373.376 11511.4 373.296 11511.8 373.296ZM11517.2 382.16C11516.1 382.16 11515.3 381.792 11514.6 381.056C11514 380.309 11513.7 379.211 11513.7 377.76C11513.7 376.288 11514 375.173 11514.7 374.416C11515.3 373.659 11516.2 373.28 11517.2 373.28C11517.7 373.28 11518.1 373.344 11518.4 373.472C11518.8 373.589 11519.1 373.755 11519.3 373.968C11519.6 374.171 11519.8 374.4 11519.9 374.656H11520C11520 374.485 11520 374.261 11520 373.984C11519.9 373.696 11519.9 373.456 11519.9 373.264V369.84H11521.2V382H11520.2L11520 380.752H11519.9C11519.8 381.008 11519.6 381.243 11519.3 381.456C11519.1 381.669 11518.8 381.84 11518.4 381.968C11518.1 382.096 11517.7 382.16 11517.2 382.16ZM11517.4 381.104C11518.3 381.104 11519 380.843 11519.4 380.32C11519.8 379.797 11519.9 379.013 11519.9 377.968V377.744C11519.9 376.645 11519.8 375.803 11519.4 375.216C11519 374.629 11518.4 374.336 11517.4 374.336C11516.6 374.336 11516 374.645 11515.6 375.264C11515.2 375.872 11515 376.715 11515 377.792C11515 378.848 11515.2 379.664 11515.6 380.24C11516 380.816 11516.6 381.104 11517.4 381.104Z" fill="#707070" id="n225"/>
<path d="M11711.1 377.3L11709.7 375.85C11709.8 375.067 11709.6 374.333 11709 373.65C11708.4 372.967 11707.6 372.7 11706.7 372.85L11705.2 371.4C11705.5 371.267 11705.8 371.167 11706.1 371.1C11706.4 371.033 11706.7 371 11707 371C11708.2 371 11709.3 371.438 11710.2 372.313C11711.1 373.188 11711.5 374.25 11711.5 375.5C11711.5 375.833 11711.5 376.146 11711.4 376.438C11711.3 376.729 11711.2 377.017 11711.1 377.3ZM11714.3 380.45L11712.9 379.05C11713.5 378.567 11714 378.038 11714.5 377.463C11715 376.888 11715.5 376.233 11715.8 375.5C11715 373.817 11713.8 372.479 11712.2 371.488C11710.7 370.496 11708.9 370 11707 370C11706.5 370 11706 370.033 11705.6 370.1C11705.1 370.167 11704.6 370.267 11704.2 370.4L11702.7 368.85C11703.3 368.567 11704 368.354 11704.8 368.213C11705.5 368.071 11706.2 368 11707 368C11709.5 368 11711.8 368.696 11713.7 370.088C11715.7 371.479 11717.1 373.283 11718 375.5C11717.6 376.483 11717.1 377.396 11716.5 378.238C11715.9 379.079 11715.1 379.817 11714.3 380.45ZM11714.8 386.6L11710.6 382.45C11710 382.633 11709.4 382.771 11708.8 382.863C11708.2 382.954 11707.6 383 11707 383C11704.5 383 11702.2 382.304 11700.3 380.913C11698.3 379.521 11696.9 377.717 11696 375.5C11696.3 374.617 11696.8 373.796 11697.3 373.038C11697.9 372.279 11698.5 371.6 11699.2 371L11696.4 368.2L11697.8 366.8L11716.2 385.2L11714.8 386.6ZM11700.6 372.4C11700.1 372.833 11699.6 373.308 11699.2 373.825C11698.8 374.342 11698.5 374.9 11698.2 375.5C11699 377.183 11700.2 378.521 11701.8 379.513C11703.3 380.504 11705.1 381 11707 381C11707.3 381 11707.7 380.979 11708 380.938C11708.3 380.896 11708.6 380.85 11708.9 380.8L11708.1 379.85C11707.9 379.9 11707.7 379.938 11707.5 379.963C11707.4 379.988 11707.2 380 11707 380C11705.8 380 11704.7 379.563 11703.8 378.688C11702.9 377.813 11702.5 376.75 11702.5 375.5C11702.5 375.317 11702.5 375.142 11702.5 374.975C11702.6 374.808 11702.6 374.633 11702.7 374.45L11700.6 372.4Z" fill="#535353" id="n226"/>
<mask id="path-184-inside-16_1702_11540" fill="white">
<path d="M11435 417.6C11435 414.24 11435 412.56 11435.7 411.276C11436.2 410.147 11437.1 409.229 11438.3 408.654C11439.6 408 11441.2 408 11444.6 408H11713.4C11716.8 408 11718.4 408 11719.7 408.654C11720.9 409.229 11721.8 410.147 11722.3 411.276C11723 412.56 11723 414.24 11723 417.6V430.4C11723 433.76 11723 435.44 11722.3 436.724C11721.8 437.853 11720.9 438.771 11719.7 439.346C11718.4 440 11716.8 440 11713.4 440H11444.6C11441.2 440 11439.6 440 11438.3 439.346C11437.1 438.771 11436.2 437.853 11435.7 436.724C11435 435.44 11435 433.76 11435 430.4V417.6Z" id="n227"/>
</mask>
<path d="M11435 417.6C11435 414.24 11435 412.56 11435.7 411.276C11436.2 410.147 11437.1 409.229 11438.3 408.654C11439.6 408 11441.2 408 11444.6 408H11713.4C11716.8 408 11718.4 408 11719.7 408.654C11720.9 409.229 11721.8 410.147 11722.3 411.276C11723 412.56 11723 414.24 11723 417.6V430.4C11723 433.76 11723 435.44 11722.3 436.724C11721.8 437.853 11720.9 438.771 11719.7 439.346C11718.4 440 11716.8 440 11713.4 440H11444.6C11441.2 440 11439.6 440 11438.3 439.346C11437.1 438.771 11436.2 437.853 11435.7 436.724C11435 435.44 11435 433.76 11435 430.4V417.6Z" fill="#1D3C67" id="n228"/>
<path d="M11438.3 439.346L11438.7 438.455L11438.3 439.346ZM11722.3 436.724L11721.5 436.27L11722.3 436.724ZM11719.7 439.346L11720.2 440.237L11719.7 439.346ZM11719.7 408.654L11719.3 409.545L11719.7 408.654ZM11722.3 411.276L11723.2 410.822L11722.3 411.276ZM11444.6 408V409H11713.4V408V407H11444.6V408ZM11723 417.6H11722V430.4H11723H11724V417.6H11723ZM11713.4 440V439H11444.6V440V441H11713.4V440ZM11435 430.4H11436V417.6H11435H11434V430.4H11435ZM11444.6 440V439C11442.9 439 11441.7 438.999 11440.7 438.922C11439.8 438.845 11439.2 438.698 11438.7 438.455L11438.3 439.346L11437.8 440.237C11438.6 440.648 11439.5 440.828 11440.6 440.915C11441.6 441.001 11442.9 441 11444.6 441V440ZM11435 430.4H11434C11434 432.064 11434 433.372 11434.1 434.422C11434.2 435.485 11434.4 436.372 11434.8 437.178L11435.7 436.724L11436.5 436.27C11436.3 435.793 11436.2 435.198 11436.1 434.259C11436 433.309 11436 432.097 11436 430.4H11435ZM11438.3 439.346L11438.7 438.455C11437.8 437.976 11437 437.211 11436.5 436.27L11435.7 436.724L11434.8 437.178C11435.4 438.495 11436.5 439.566 11437.8 440.237L11438.3 439.346ZM11723 430.4H11722C11722 432.097 11722 433.309 11721.9 434.259C11721.8 435.198 11721.7 435.793 11721.5 436.27L11722.3 436.724L11723.2 437.178C11723.6 436.372 11723.8 435.485 11723.9 434.422C11724 433.372 11724 432.064 11724 430.4H11723ZM11713.4 440V441C11715.1 441 11716.4 441.001 11717.4 440.915C11718.5 440.828 11719.4 440.648 11720.2 440.237L11719.7 439.346L11719.3 438.455C11718.8 438.698 11718.2 438.845 11717.3 438.922C11716.3 438.999 11715.1 439 11713.4 439V440ZM11722.3 436.724L11721.5 436.27C11721 437.211 11720.2 437.976 11719.3 438.455L11719.7 439.346L11720.2 440.237C11721.5 439.566 11722.6 438.495 11723.2 437.178L11722.3 436.724ZM11713.4 408V409C11715.1 409 11716.3 409.001 11717.3 409.078C11718.2 409.155 11718.8 409.302 11719.3 409.545L11719.7 408.654L11720.2 407.763C11719.4 407.352 11718.5 407.172 11717.4 407.085C11716.4 406.999 11715.1 407 11713.4 407V408ZM11723 417.6H11724C11724 415.936 11724 414.628 11723.9 413.578C11723.8 412.515 11723.6 411.628 11723.2 410.822L11722.3 411.276L11721.5 411.73C11721.7 412.207 11721.8 412.802 11721.9 413.741C11722 414.691 11722 415.903 11722 417.6H11723ZM11719.7 408.654L11719.3 409.545C11720.2 410.024 11721 410.789 11721.5 411.73L11722.3 411.276L11723.2 410.822C11722.6 409.505 11721.5 408.434 11720.2 407.763L11719.7 408.654ZM11444.6 408V407C11442.9 407 11441.6 406.999 11440.6 407.085C11439.5 407.172 11438.6 407.352 11437.8 407.763L11438.3 408.654L11438.7 409.545C11439.2 409.302 11439.8 409.155 11440.7 409.078C11441.7 409.001 11442.9 409 11444.6 409V408ZM11435 417.6H11436C11436 415.903 11436 414.691 11436.1 413.741C11436.2 412.802 11436.3 412.207 11436.5 411.73L11435.7 411.276L11434.8 410.822C11434.4 411.628 11434.2 412.515 11434.1 413.578C11434 414.628 11434 415.936 11434 417.6H11435ZM11438.3 408.654L11437.8 407.763C11436.5 408.434 11435.4 409.505 11434.8 410.822L11435.7 411.276L11436.5 411.73C11437 410.789 11437.8 410.024 11438.7 409.545L11438.3 408.654Z" fill="#152F53" mask="url(#path-184-inside-16_1702_11540)" id="n229"/>
<path d="M11560.6 426.88C11560.6 427.563 11560.4 428.149 11560.1 428.64C11559.8 429.12 11559.3 429.493 11558.7 429.76C11558.1 430.027 11557.3 430.16 11556.5 430.16C11556.1 430.16 11555.7 430.133 11555.3 430.08C11554.9 430.037 11554.5 429.973 11554.2 429.888C11553.9 429.792 11553.6 429.675 11553.3 429.536V427.696C11553.7 427.909 11554.3 428.101 11554.8 428.272C11555.4 428.432 11556 428.512 11556.6 428.512C11557.1 428.512 11557.5 428.453 11557.8 428.336C11558.1 428.208 11558.3 428.032 11558.5 427.808C11558.6 427.573 11558.7 427.307 11558.7 427.008C11558.7 426.677 11558.6 426.4 11558.4 426.176C11558.2 425.941 11558 425.728 11557.6 425.536C11557.2 425.333 11556.8 425.125 11556.2 424.912C11555.9 424.752 11555.5 424.576 11555.2 424.384C11554.8 424.192 11554.5 423.968 11554.3 423.712C11554 423.445 11553.8 423.136 11553.6 422.784C11553.5 422.421 11553.4 421.995 11553.4 421.504C11553.4 420.853 11553.6 420.299 11553.9 419.84C11554.2 419.381 11554.6 419.029 11555.2 418.784C11555.8 418.539 11556.4 418.416 11557.2 418.416C11557.8 418.416 11558.4 418.48 11558.9 418.608C11559.4 418.736 11559.9 418.912 11560.5 419.136L11559.8 420.72C11559.4 420.528 11558.9 420.373 11558.5 420.256C11558 420.139 11557.6 420.08 11557.1 420.08C11556.7 420.08 11556.4 420.139 11556.1 420.256C11555.9 420.363 11555.7 420.523 11555.5 420.736C11555.4 420.949 11555.3 421.195 11555.3 421.472C11555.3 421.792 11555.4 422.064 11555.6 422.288C11555.7 422.501 11556 422.704 11556.3 422.896C11556.7 423.077 11557.1 423.285 11557.7 423.52C11558.3 423.787 11558.8 424.064 11559.3 424.352C11559.7 424.64 11560 424.987 11560.3 425.392C11560.5 425.787 11560.6 426.283 11560.6 426.88ZM11564.5 421.344V430H11562.6V421.344H11564.5ZM11563.6 418.016C11563.9 418.016 11564.1 418.096 11564.3 418.256C11564.5 418.405 11564.6 418.672 11564.6 419.056C11564.6 419.429 11564.5 419.696 11564.3 419.856C11564.1 420.016 11563.9 420.096 11563.6 420.096C11563.3 420.096 11563 420.016 11562.8 419.856C11562.6 419.696 11562.5 419.429 11562.5 419.056C11562.5 418.672 11562.6 418.405 11562.8 418.256C11563 418.096 11563.3 418.016 11563.6 418.016ZM11570.1 421.184C11570.6 421.184 11571.1 421.291 11571.5 421.504C11572 421.717 11572.4 422.037 11572.7 422.464H11572.7L11572.9 421.344H11574.5V430.08C11574.5 430.901 11574.4 431.589 11574.1 432.144C11573.8 432.699 11573.3 433.12 11572.7 433.408C11572.1 433.696 11571.3 433.84 11570.4 433.84C11569.8 433.84 11569.2 433.797 11568.7 433.712C11568.2 433.637 11567.7 433.504 11567.2 433.312V431.696C11567.5 431.845 11567.9 431.968 11568.2 432.064C11568.6 432.171 11568.9 432.245 11569.3 432.288C11569.7 432.341 11570.1 432.368 11570.5 432.368C11571.2 432.368 11571.7 432.176 11572.1 431.792C11572.4 431.419 11572.6 430.88 11572.6 430.176V429.936C11572.6 429.776 11572.6 429.589 11572.6 429.376C11572.6 429.163 11572.6 428.992 11572.7 428.864H11572.6C11572.3 429.312 11571.9 429.643 11571.5 429.856C11571.1 430.059 11570.6 430.16 11570 430.16C11569 430.16 11568.1 429.765 11567.5 428.976C11566.9 428.187 11566.6 427.088 11566.6 425.68C11566.6 424.741 11566.8 423.936 11567 423.264C11567.3 422.592 11567.7 422.08 11568.2 421.728C11568.7 421.365 11569.4 421.184 11570.1 421.184ZM11570.5 422.752C11570.1 422.752 11569.8 422.869 11569.5 423.104C11569.2 423.328 11569 423.659 11568.8 424.096C11568.7 424.533 11568.6 425.072 11568.6 425.712C11568.6 426.672 11568.8 427.397 11569.1 427.888C11569.4 428.379 11569.9 428.624 11570.6 428.624C11571 428.624 11571.3 428.581 11571.5 428.496C11571.8 428.4 11572 428.245 11572.2 428.032C11572.4 427.819 11572.5 427.547 11572.6 427.216C11572.6 426.875 11572.7 426.469 11572.7 426V425.696C11572.7 424.992 11572.6 424.427 11572.5 424C11572.3 423.573 11572.1 423.259 11571.8 423.056C11571.5 422.853 11571 422.752 11570.5 422.752ZM11581.7 421.184C11582.7 421.184 11583.4 421.435 11584 421.936C11584.5 422.437 11584.8 423.243 11584.8 424.352V430H11582.9V424.72C11582.9 424.059 11582.7 423.563 11582.5 423.232C11582.2 422.901 11581.8 422.736 11581.2 422.736C11580.4 422.736 11579.8 422.997 11579.5 423.52C11579.2 424.032 11579 424.768 11579 425.728V430H11577.1V421.344H11578.6L11578.9 422.48H11579C11579.2 422.181 11579.4 421.936 11579.7 421.744C11580 421.552 11580.3 421.413 11580.6 421.328C11581 421.232 11581.3 421.184 11581.7 421.184ZM11593.4 421.344V430H11591.5V421.344H11593.4ZM11592.4 418.016C11592.7 418.016 11593 418.096 11593.2 418.256C11593.4 418.405 11593.5 418.672 11593.5 419.056C11593.5 419.429 11593.4 419.696 11593.2 419.856C11593 420.016 11592.7 420.096 11592.4 420.096C11592.1 420.096 11591.9 420.016 11591.7 419.856C11591.5 419.696 11591.4 419.429 11591.4 419.056C11591.4 418.672 11591.5 418.405 11591.7 418.256C11591.9 418.096 11592.1 418.016 11592.4 418.016ZM11600.6 421.184C11601.5 421.184 11602.3 421.435 11602.8 421.936C11603.4 422.437 11603.7 423.243 11603.7 424.352V430H11601.8V424.72C11601.8 424.059 11601.6 423.563 11601.4 423.232C11601.1 422.901 11600.7 422.736 11600.1 422.736C11599.3 422.736 11598.7 422.997 11598.4 423.52C11598.1 424.032 11597.9 424.768 11597.9 425.728V430H11596V421.344H11597.5L11597.8 422.48H11597.9C11598.1 422.181 11598.3 421.936 11598.6 421.744C11598.9 421.552 11599.2 421.413 11599.5 421.328C11599.9 421.232 11600.2 421.184 11600.6 421.184Z" fill="#E4EEFD" id="n230"/>
<path d="M11447.7 470.576C11448.7 470.576 11449.5 470.699 11450.2 470.944C11450.8 471.189 11451.3 471.563 11451.6 472.064C11451.9 472.555 11452.1 473.173 11452.1 473.92C11452.1 474.485 11452 474.965 11451.8 475.36C11451.6 475.755 11451.3 476.08 11451 476.336C11450.6 476.592 11450.3 476.8 11449.9 476.96L11453.2 482H11451L11448.2 477.456H11446.4V482H11444.5V470.576H11447.7ZM11447.6 472.208H11446.4V475.84H11447.7C11448.2 475.84 11448.7 475.771 11449.1 475.632C11449.4 475.493 11449.7 475.285 11449.9 475.008C11450 474.731 11450.1 474.389 11450.1 473.984C11450.1 473.557 11450 473.216 11449.8 472.96C11449.7 472.693 11449.4 472.501 11449 472.384C11448.7 472.267 11448.2 472.208 11447.6 472.208ZM11458.2 473.184C11459 473.184 11459.6 473.344 11460.2 473.664C11460.7 473.973 11461.2 474.421 11461.5 475.008C11461.8 475.584 11461.9 476.283 11461.9 477.104V478.112H11456.2C11456.2 478.923 11456.4 479.552 11456.8 480C11457.3 480.437 11457.9 480.656 11458.6 480.656C11459.2 480.656 11459.7 480.603 11460.1 480.496C11460.6 480.389 11461 480.229 11461.5 480.016V481.568C11461 481.771 11460.6 481.92 11460.1 482.016C11459.7 482.112 11459.1 482.16 11458.5 482.16C11457.7 482.16 11456.9 482 11456.3 481.68C11455.6 481.349 11455.1 480.853 11454.8 480.192C11454.4 479.531 11454.2 478.709 11454.2 477.728C11454.2 476.747 11454.4 475.92 11454.7 475.248C11455 474.576 11455.5 474.064 11456.1 473.712C11456.7 473.36 11457.4 473.184 11458.2 473.184ZM11458.2 474.624C11457.6 474.624 11457.2 474.805 11456.8 475.168C11456.5 475.52 11456.3 476.048 11456.2 476.752H11460C11460 476.325 11460 475.957 11459.8 475.648C11459.7 475.328 11459.5 475.077 11459.2 474.896C11459 474.715 11458.6 474.624 11458.2 474.624ZM11467.6 482.16C11466.8 482.16 11466.1 482.005 11465.5 481.696C11464.9 481.376 11464.4 480.891 11464.1 480.24C11463.8 479.579 11463.6 478.736 11463.6 477.712C11463.6 476.656 11463.8 475.797 11464.1 475.136C11464.5 474.464 11465 473.973 11465.6 473.664C11466.2 473.344 11467 473.184 11467.8 473.184C11468.3 473.184 11468.8 473.237 11469.2 473.344C11469.6 473.44 11470 473.563 11470.3 473.712L11469.7 475.232C11469.4 475.104 11469.1 474.997 11468.7 474.912C11468.4 474.816 11468.1 474.768 11467.8 474.768C11467.3 474.768 11466.9 474.88 11466.5 475.104C11466.2 475.328 11466 475.659 11465.8 476.096C11465.7 476.523 11465.6 477.056 11465.6 477.696C11465.6 478.325 11465.7 478.853 11465.8 479.28C11466 479.707 11466.2 480.027 11466.5 480.24C11466.9 480.453 11467.3 480.56 11467.7 480.56C11468.2 480.56 11468.6 480.507 11469 480.4C11469.4 480.283 11469.7 480.128 11470.1 479.936V481.6C11469.7 481.792 11469.4 481.931 11469 482.016C11468.6 482.112 11468.2 482.16 11467.6 482.16ZM11475.7 473.184C11476.5 473.184 11477.1 473.344 11477.7 473.664C11478.3 473.973 11478.7 474.421 11479 475.008C11479.3 475.584 11479.4 476.283 11479.4 477.104V478.112H11473.7C11473.7 478.923 11473.9 479.552 11474.4 480C11474.8 480.437 11475.4 480.656 11476.1 480.656C11476.7 480.656 11477.2 480.603 11477.6 480.496C11478.1 480.389 11478.5 480.229 11479 480.016V481.568C11478.6 481.771 11478.1 481.92 11477.7 482.016C11477.2 482.112 11476.7 482.16 11476 482.16C11475.2 482.16 11474.4 482 11473.8 481.68C11473.1 481.349 11472.6 480.853 11472.3 480.192C11471.9 479.531 11471.7 478.709 11471.7 477.728C11471.7 476.747 11471.9 475.92 11472.2 475.248C11472.6 474.576 11473 474.064 11473.6 473.712C11474.2 473.36 11474.9 473.184 11475.7 473.184ZM11475.7 474.624C11475.1 474.624 11474.7 474.805 11474.3 475.168C11474 475.52 11473.8 476.048 11473.7 476.752H11477.6C11477.6 476.325 11477.5 475.957 11477.4 475.648C11477.2 475.328 11477 475.077 11476.7 474.896C11476.5 474.715 11476.1 474.624 11475.7 474.624ZM11486.2 473.184C11487.2 473.184 11487.9 473.435 11488.5 473.936C11489 474.437 11489.3 475.243 11489.3 476.352V482H11487.4V476.72C11487.4 476.059 11487.3 475.563 11487 475.232C11486.7 474.901 11486.3 474.736 11485.7 474.736C11484.9 474.736 11484.3 474.997 11484 475.52C11483.7 476.032 11483.6 476.768 11483.6 477.728V482H11481.6V473.344H11483.1L11483.4 474.48H11483.5C11483.7 474.181 11483.9 473.936 11484.2 473.744C11484.5 473.552 11484.8 473.413 11485.2 473.328C11485.5 473.232 11485.8 473.184 11486.2 473.184ZM11495.3 480.608C11495.5 480.608 11495.8 480.587 11496 480.544C11496.2 480.501 11496.4 480.448 11496.6 480.384V481.824C11496.4 481.92 11496.2 482 11495.8 482.064C11495.5 482.128 11495.2 482.16 11494.8 482.16C11494.3 482.16 11493.9 482.08 11493.5 481.92C11493.1 481.749 11492.8 481.467 11492.5 481.072C11492.3 480.667 11492.2 480.101 11492.2 479.376V474.8H11491V473.952L11492.3 473.264L11492.9 471.424H11494.1V473.344H11496.6V474.8H11494.1V479.36C11494.1 479.787 11494.2 480.101 11494.4 480.304C11494.6 480.507 11494.9 480.608 11495.3 480.608ZM11500.4 482H11498.5V469.84H11500.4V482ZM11501.9 473.344H11504L11505.7 478.24C11505.8 478.464 11505.9 478.683 11506 478.896C11506 479.099 11506.1 479.307 11506.1 479.52C11506.2 479.723 11506.2 479.931 11506.2 480.144H11506.3C11506.3 479.877 11506.4 479.573 11506.5 479.232C11506.6 478.891 11506.7 478.555 11506.8 478.224L11508.5 473.344H11510.6L11506.9 483.152C11506.7 483.717 11506.4 484.203 11506.1 484.608C11505.8 485.013 11505.4 485.317 11504.9 485.52C11504.5 485.733 11504 485.84 11503.5 485.84C11503.2 485.84 11503 485.824 11502.8 485.792C11502.6 485.771 11502.4 485.744 11502.3 485.712V484.192C11502.4 484.213 11502.5 484.235 11502.7 484.256C11502.9 484.277 11503 484.288 11503.2 484.288C11503.6 484.288 11503.8 484.219 11504.1 484.08C11504.3 483.952 11504.5 483.771 11504.7 483.536C11504.8 483.301 11505 483.04 11505.1 482.752L11505.4 481.984L11501.9 473.344ZM11522.2 479.52C11522.2 480.085 11522 480.565 11521.8 480.96C11521.5 481.355 11521.1 481.653 11520.5 481.856C11520 482.059 11519.4 482.16 11518.6 482.16C11518 482.16 11517.5 482.117 11517 482.032C11516.6 481.947 11516.2 481.813 11515.8 481.632V479.984C11516.2 480.187 11516.7 480.357 11517.2 480.496C11517.7 480.635 11518.2 480.704 11518.7 480.704C11519.2 480.704 11519.7 480.613 11519.9 480.432C11520.2 480.251 11520.3 480.011 11520.3 479.712C11520.3 479.531 11520.2 479.371 11520.1 479.232C11520 479.083 11519.9 478.928 11519.6 478.768C11519.3 478.608 11518.9 478.416 11518.3 478.192C11517.7 477.968 11517.3 477.749 11516.9 477.536C11516.5 477.312 11516.3 477.045 11516.1 476.736C11515.9 476.416 11515.8 476.016 11515.8 475.536C11515.8 474.768 11516.1 474.187 11516.7 473.792C11517.3 473.387 11518.1 473.184 11519.1 473.184C11519.7 473.184 11520.2 473.237 11520.6 473.344C11521.1 473.44 11521.6 473.595 11522 473.808L11521.4 475.248C11521.2 475.131 11520.9 475.029 11520.6 474.944C11520.4 474.848 11520.1 474.779 11519.9 474.736C11519.6 474.683 11519.3 474.656 11519.1 474.656C11518.6 474.656 11518.3 474.725 11518 474.864C11517.8 475.003 11517.7 475.195 11517.7 475.44C11517.7 475.632 11517.7 475.797 11517.8 475.936C11518 476.075 11518.2 476.213 11518.4 476.352C11518.7 476.491 11519.1 476.667 11519.7 476.88C11520.2 477.083 11520.6 477.291 11521 477.504C11521.4 477.717 11521.7 477.984 11521.9 478.304C11522.1 478.624 11522.2 479.029 11522.2 479.52ZM11526.2 473.344V482H11524.3V473.344H11526.2ZM11525.3 470.016C11525.5 470.016 11525.8 470.096 11526 470.256C11526.2 470.405 11526.3 470.672 11526.3 471.056C11526.3 471.429 11526.2 471.696 11526 471.856C11525.8 472.016 11525.5 472.096 11525.3 472.096C11525 472.096 11524.7 472.016 11524.5 471.856C11524.3 471.696 11524.2 471.429 11524.2 471.056C11524.2 470.672 11524.3 470.405 11524.5 470.256C11524.7 470.096 11525 470.016 11525.3 470.016ZM11531.9 473.184C11532.4 473.184 11532.9 473.291 11533.4 473.504C11533.8 473.717 11534.2 474.037 11534.5 474.464H11534.6L11534.8 473.344H11536.4V482.08C11536.4 482.901 11536.2 483.589 11535.9 484.144C11535.6 484.699 11535.1 485.12 11534.5 485.408C11533.9 485.696 11533.2 485.84 11532.2 485.84C11531.6 485.84 11531.1 485.797 11530.5 485.712C11530 485.637 11529.5 485.504 11529.1 485.312V483.696C11529.4 483.845 11529.7 483.968 11530.1 484.064C11530.4 484.171 11530.8 484.245 11531.2 484.288C11531.6 484.341 11531.9 484.368 11532.4 484.368C11533 484.368 11533.5 484.176 11533.9 483.792C11534.3 483.419 11534.4 482.88 11534.4 482.176V481.936C11534.4 481.776 11534.5 481.589 11534.5 481.376C11534.5 481.163 11534.5 480.992 11534.5 480.864H11534.4C11534.1 481.312 11533.8 481.643 11533.3 481.856C11532.9 482.059 11532.4 482.16 11531.9 482.16C11530.8 482.16 11530 481.765 11529.4 480.976C11528.8 480.187 11528.5 479.088 11528.5 477.68C11528.5 476.741 11528.6 475.936 11528.9 475.264C11529.1 474.592 11529.5 474.08 11530 473.728C11530.6 473.365 11531.2 473.184 11531.9 473.184ZM11532.4 474.752C11532 474.752 11531.6 474.869 11531.3 475.104C11531 475.328 11530.8 475.659 11530.7 476.096C11530.5 476.533 11530.4 477.072 11530.4 477.712C11530.4 478.672 11530.6 479.397 11530.9 479.888C11531.3 480.379 11531.8 480.624 11532.4 480.624C11532.8 480.624 11533.1 480.581 11533.4 480.496C11533.6 480.4 11533.8 480.245 11534 480.032C11534.2 479.819 11534.3 479.547 11534.4 479.216C11534.5 478.875 11534.5 478.469 11534.5 478V477.696C11534.5 476.992 11534.5 476.427 11534.3 476C11534.2 475.573 11533.9 475.259 11533.6 475.056C11533.3 474.853 11532.9 474.752 11532.4 474.752ZM11543.7 473.184C11544.6 473.184 11545.4 473.435 11545.9 473.936C11546.5 474.437 11546.8 475.243 11546.8 476.352V482H11544.9V476.72C11544.9 476.059 11544.7 475.563 11544.5 475.232C11544.2 474.901 11543.8 474.736 11543.2 474.736C11542.4 474.736 11541.8 474.997 11541.5 475.52C11541.2 476.032 11541 476.768 11541 477.728V482H11539.1V473.344H11540.6L11540.9 474.48H11541C11541.2 474.181 11541.4 473.936 11541.7 473.744C11542 473.552 11542.3 473.413 11542.6 473.328C11543 473.232 11543.3 473.184 11543.7 473.184ZM11552.9 473.184C11553.7 473.184 11554.4 473.344 11554.9 473.664C11555.5 473.973 11555.9 474.421 11556.2 475.008C11556.5 475.584 11556.6 476.283 11556.6 477.104V478.112H11550.9C11550.9 478.923 11551.2 479.552 11551.6 480C11552 480.437 11552.6 480.656 11553.4 480.656C11553.9 480.656 11554.4 480.603 11554.8 480.496C11555.3 480.389 11555.7 480.229 11556.2 480.016V481.568C11555.8 481.771 11555.3 481.92 11554.9 482.016C11554.4 482.112 11553.9 482.16 11553.3 482.16C11552.4 482.16 11551.7 482 11551 481.68C11550.4 481.349 11549.9 480.853 11549.5 480.192C11549.1 479.531 11549 478.709 11549 477.728C11549 476.747 11549.1 475.92 11549.4 475.248C11549.8 474.576 11550.2 474.064 11550.8 473.712C11551.4 473.36 11552.1 473.184 11552.9 473.184ZM11552.9 474.624C11552.4 474.624 11551.9 474.805 11551.6 475.168C11551.2 475.52 11551 476.048 11551 476.752H11554.8C11554.8 476.325 11554.7 475.957 11554.6 475.648C11554.4 475.328 11554.2 475.077 11554 474.896C11553.7 474.715 11553.3 474.624 11552.9 474.624ZM11561.7 482.16C11560.7 482.16 11559.9 481.787 11559.3 481.04C11558.7 480.283 11558.4 479.163 11558.4 477.68C11558.4 476.197 11558.7 475.077 11559.3 474.32C11559.9 473.563 11560.8 473.184 11561.8 473.184C11562.2 473.184 11562.6 473.243 11562.9 473.36C11563.2 473.467 11563.5 473.616 11563.8 473.808C11564 474 11564.2 474.213 11564.4 474.448H11564.5C11564.4 474.299 11564.4 474.075 11564.4 473.776C11564.3 473.467 11564.3 473.189 11564.3 472.944V469.84H11566.2V482H11564.8L11564.4 480.864H11564.3C11564.2 481.099 11564 481.317 11563.7 481.52C11563.5 481.712 11563.2 481.867 11562.9 481.984C11562.6 482.101 11562.2 482.16 11561.7 482.16ZM11562.3 480.608C11563.1 480.608 11563.6 480.389 11563.9 479.952C11564.2 479.504 11564.4 478.837 11564.4 477.952V477.696C11564.4 476.747 11564.3 476.021 11564 475.52C11563.7 475.008 11563.1 474.752 11562.3 474.752C11561.6 474.752 11561.1 475.013 11560.8 475.536C11560.5 476.059 11560.3 476.784 11560.3 477.712C11560.3 478.651 11560.5 479.371 11560.8 479.872C11561.1 480.363 11561.6 480.608 11562.3 480.608ZM11575.2 473.344V482H11573.3V473.344H11575.2ZM11574.3 470.016C11574.6 470.016 11574.8 470.096 11575 470.256C11575.2 470.405 11575.3 470.672 11575.3 471.056C11575.3 471.429 11575.2 471.696 11575 471.856C11574.8 472.016 11574.6 472.096 11574.3 472.096C11574 472.096 11573.7 472.016 11573.5 471.856C11573.3 471.696 11573.2 471.429 11573.2 471.056C11573.2 470.672 11573.3 470.405 11573.5 470.256C11573.7 470.096 11574 470.016 11574.3 470.016ZM11582.5 473.184C11583.5 473.184 11584.3 473.435 11584.8 473.936C11585.4 474.437 11585.7 475.243 11585.7 476.352V482H11583.7V476.72C11583.7 476.059 11583.6 475.563 11583.3 475.232C11583.1 474.901 11582.6 474.736 11582.1 474.736C11581.3 474.736 11580.7 474.997 11580.4 475.52C11580 476.032 11579.9 476.768 11579.9 477.728V482H11578V473.344H11579.5L11579.7 474.48H11579.8C11580 474.181 11580.3 473.936 11580.5 473.744C11580.8 473.552 11581.1 473.413 11581.5 473.328C11581.8 473.232 11582.2 473.184 11582.5 473.184Z" fill="#535353" id="n231"/>
<path d="M11483 504.5C11500.4 504.5 11514.5 518.603 11514.5 536C11514.5 553.397 11500.4 567.5 11483 567.5C11465.6 567.5 11451.5 553.397 11451.5 536C11451.5 518.603 11465.6 504.5 11483 504.5Z" fill="white" id="n232"/>
<path d="M11483 504.5C11500.4 504.5 11514.5 518.603 11514.5 536C11514.5 553.397 11500.4 567.5 11483 567.5C11465.6 567.5 11451.5 553.397 11451.5 536C11451.5 518.603 11465.6 504.5 11483 504.5Z" stroke="#BEBEBE" id="n233"/>
<path d="M11480.6 545L11478.5 539.696H11471.8L11469.7 545H11467.5L11474.2 527.792H11476.2L11482.8 545H11480.6ZM11476 532.592C11475.9 532.464 11475.9 532.232 11475.7 531.896C11475.6 531.56 11475.5 531.216 11475.4 530.864C11475.3 530.496 11475.2 530.216 11475.2 530.024C11475.1 530.344 11475 530.672 11474.9 531.008C11474.8 531.328 11474.7 531.624 11474.6 531.896C11474.6 532.168 11474.5 532.4 11474.4 532.592L11472.5 537.776H11477.9L11476 532.592ZM11490.1 527.864C11491.5 527.864 11492.7 528 11493.7 528.272C11494.6 528.544 11495.4 528.992 11495.8 529.616C11496.3 530.24 11496.6 531.072 11496.6 532.112C11496.6 532.784 11496.5 533.384 11496.2 533.912C11496 534.424 11495.6 534.856 11495.1 535.208C11494.6 535.544 11494 535.776 11493.3 535.904V536.024C11494 536.136 11494.7 536.344 11495.3 536.648C11495.9 536.952 11496.3 537.384 11496.7 537.944C11497 538.504 11497.2 539.232 11497.2 540.128C11497.2 541.168 11496.9 542.056 11496.4 542.792C11496 543.512 11495.3 544.064 11494.4 544.448C11493.5 544.816 11492.4 545 11491.2 545H11485.2V527.864H11490.1ZM11490.5 535.16C11492 535.16 11493 534.928 11493.5 534.464C11494.1 533.984 11494.4 533.28 11494.4 532.352C11494.4 531.408 11494 530.736 11493.3 530.336C11492.7 529.92 11491.6 529.712 11490.2 529.712H11487.3V535.16H11490.5ZM11487.3 536.96V543.176H11490.8C11492.3 543.176 11493.4 542.88 11494 542.288C11494.6 541.696 11494.9 540.92 11494.9 539.96C11494.9 539.352 11494.7 538.824 11494.5 538.376C11494.2 537.928 11493.8 537.584 11493.1 537.344C11492.5 537.088 11491.7 536.96 11490.6 536.96H11487.3Z" fill="#535353" id="n234"/>
<path d="M11461.7 577.976C11461.7 578.584 11461.6 579.128 11461.4 579.608C11461.1 580.08 11460.8 580.452 11460.3 580.724C11459.8 580.988 11459.2 581.12 11458.4 581.12C11457.4 581.12 11456.6 580.836 11456 580.268C11455.5 579.692 11455.2 578.92 11455.2 577.952V572.432H11456.2V577.976C11456.2 578.712 11456.3 579.28 11456.7 579.68C11457.1 580.08 11457.7 580.28 11458.5 580.28C11459 580.28 11459.4 580.184 11459.8 579.992C11460.1 579.8 11460.4 579.536 11460.5 579.2C11460.7 578.856 11460.8 578.452 11460.8 577.988V572.432H11461.7V577.976ZM11468 579.248C11468 579.656 11467.9 580 11467.7 580.28C11467.5 580.552 11467.2 580.76 11466.8 580.904C11466.4 581.048 11466 581.12 11465.5 581.12C11465 581.12 11464.6 581.084 11464.3 581.012C11464 580.94 11463.7 580.84 11463.4 580.712V579.848C11463.7 579.976 11464 580.092 11464.4 580.196C11464.7 580.3 11465.1 580.352 11465.5 580.352C11466 580.352 11466.4 580.26 11466.7 580.076C11467 579.892 11467.1 579.644 11467.1 579.332C11467.1 579.148 11467 578.988 11466.9 578.852C11466.8 578.716 11466.7 578.584 11466.4 578.456C11466.2 578.328 11465.9 578.188 11465.4 578.036C11465 577.884 11464.7 577.732 11464.4 577.58C11464.1 577.428 11463.9 577.24 11463.7 577.016C11463.5 576.792 11463.5 576.504 11463.5 576.152C11463.5 575.608 11463.7 575.192 11464.1 574.904C11464.5 574.608 11465.1 574.46 11465.8 574.46C11466.2 574.46 11466.6 574.5 11466.9 574.58C11467.3 574.652 11467.6 574.752 11467.9 574.88L11467.5 575.648C11467.4 575.568 11467.2 575.5 11467 575.444C11466.8 575.38 11466.6 575.332 11466.4 575.3C11466.2 575.26 11466 575.24 11465.8 575.24C11465.3 575.24 11465 575.316 11464.7 575.468C11464.5 575.62 11464.4 575.828 11464.4 576.092C11464.4 576.292 11464.4 576.46 11464.5 576.596C11464.6 576.724 11464.8 576.844 11465.1 576.956C11465.3 577.068 11465.6 577.2 11466 577.352C11466.4 577.496 11466.8 577.648 11467.1 577.808C11467.4 577.96 11467.6 578.152 11467.8 578.384C11467.9 578.608 11468 578.896 11468 579.248ZM11472 574.46C11472.6 574.46 11473.1 574.584 11473.4 574.832C11473.8 575.072 11474.1 575.412 11474.3 575.852C11474.5 576.284 11474.6 576.792 11474.6 577.376V577.964H11470.2C11470.2 578.724 11470.4 579.308 11470.7 579.716C11471.1 580.116 11471.6 580.316 11472.3 580.316C11472.7 580.316 11473.1 580.28 11473.4 580.208C11473.7 580.128 11474 580.016 11474.3 579.872V580.7C11474 580.844 11473.7 580.948 11473.4 581.012C11473.1 581.084 11472.7 581.12 11472.3 581.12C11471.6 581.12 11471.1 580.996 11470.6 580.748C11470.2 580.492 11469.8 580.12 11469.6 579.632C11469.3 579.136 11469.2 578.54 11469.2 577.844C11469.2 577.156 11469.3 576.56 11469.5 576.056C11469.8 575.552 11470.1 575.16 11470.5 574.88C11471 574.6 11471.5 574.46 11472 574.46ZM11472 575.24C11471.5 575.24 11471.1 575.412 11470.8 575.756C11470.4 576.1 11470.3 576.584 11470.2 577.208H11473.7C11473.7 576.816 11473.6 576.476 11473.5 576.188C11473.4 575.892 11473.2 575.66 11472.9 575.492C11472.7 575.324 11472.4 575.24 11472 575.24ZM11479.2 574.472C11479.3 574.472 11479.4 574.48 11479.6 574.496C11479.7 574.504 11479.8 574.52 11480 574.544L11479.8 575.42C11479.7 575.388 11479.6 575.364 11479.5 575.348C11479.4 575.332 11479.2 575.324 11479.1 575.324C11478.8 575.324 11478.6 575.38 11478.4 575.492C11478.1 575.596 11477.9 575.744 11477.8 575.936C11477.6 576.128 11477.5 576.36 11477.4 576.632C11477.3 576.904 11477.2 577.208 11477.2 577.544V581H11476.3V574.58H11477.1L11477.2 575.768H11477.2C11477.3 575.528 11477.5 575.312 11477.7 575.12C11477.9 574.92 11478.1 574.764 11478.3 574.652C11478.6 574.532 11478.9 574.472 11479.2 574.472ZM11484.2 574.46C11484.9 574.46 11485.5 574.648 11485.9 575.024C11486.3 575.392 11486.5 575.988 11486.5 576.812V581H11485.6V576.884C11485.6 576.332 11485.4 575.924 11485.2 575.66C11484.9 575.396 11484.6 575.264 11484.1 575.264C11483.4 575.264 11482.8 575.464 11482.6 575.864C11482.3 576.264 11482.1 576.848 11482.1 577.616V581H11481.2V574.58H11481.9L11482.1 575.528H11482.1C11482.3 575.296 11482.4 575.104 11482.6 574.952C11482.9 574.792 11483.1 574.672 11483.4 574.592C11483.6 574.504 11483.9 574.46 11484.2 574.46ZM11490.9 574.472C11491.7 574.472 11492.2 574.648 11492.6 575C11493 575.344 11493.1 575.892 11493.1 576.644V581H11492.4L11492.3 580.04H11492.2C11492.1 580.272 11491.9 580.472 11491.7 580.64C11491.5 580.8 11491.2 580.92 11491 581C11490.7 581.08 11490.4 581.12 11490 581.12C11489.7 581.12 11489.3 581.052 11489 580.916C11488.7 580.78 11488.5 580.572 11488.3 580.292C11488.1 580.012 11488 579.664 11488 579.248C11488 578.608 11488.3 578.116 11488.8 577.772C11489.3 577.428 11490.1 577.24 11491.1 577.208L11492.2 577.16V576.764C11492.2 576.196 11492.1 575.8 11491.9 575.576C11491.6 575.352 11491.3 575.24 11490.8 575.24C11490.5 575.24 11490.2 575.288 11489.9 575.384C11489.6 575.48 11489.3 575.596 11489 575.732L11488.7 575.012C11489 574.86 11489.3 574.732 11489.7 574.628C11490.1 574.524 11490.5 574.472 11490.9 574.472ZM11491.2 577.868C11490.4 577.9 11489.9 578.032 11489.5 578.264C11489.2 578.496 11489 578.828 11489 579.26C11489 579.628 11489.1 579.904 11489.3 580.088C11489.6 580.264 11489.9 580.352 11490.2 580.352C11490.8 580.352 11491.3 580.192 11491.7 579.872C11492 579.544 11492.2 579.06 11492.2 578.42V577.832L11491.2 577.868ZM11502.1 574.46C11502.8 574.46 11503.3 574.644 11503.7 575.012C11504 575.38 11504.2 575.972 11504.2 576.788V581H11503.3V576.836C11503.3 576.308 11503.2 575.916 11502.9 575.66C11502.7 575.396 11502.4 575.264 11501.9 575.264C11501.3 575.264 11500.9 575.444 11500.6 575.804C11500.3 576.156 11500.1 576.688 11500.1 577.4V581H11499.2V576.836C11499.2 576.484 11499.2 576.192 11499.1 575.96C11498.9 575.72 11498.8 575.544 11498.6 575.432C11498.4 575.32 11498.1 575.264 11497.9 575.264C11497.4 575.264 11497.1 575.352 11496.8 575.528C11496.6 575.704 11496.4 575.964 11496.3 576.308C11496.1 576.644 11496.1 577.068 11496.1 577.58V581H11495.1V574.58H11495.9L11496 575.504H11496.1C11496.2 575.28 11496.4 575.092 11496.6 574.94C11496.8 574.78 11497 574.66 11497.2 574.58C11497.5 574.5 11497.7 574.46 11498 574.46C11498.5 574.46 11498.9 574.552 11499.2 574.736C11499.6 574.92 11499.8 575.2 11500 575.576H11500C11500.2 575.208 11500.5 574.932 11500.9 574.748C11501.2 574.556 11501.6 574.46 11502.1 574.46ZM11508.7 574.46C11509.2 574.46 11509.7 574.584 11510.1 574.832C11510.5 575.072 11510.8 575.412 11511 575.852C11511.2 576.284 11511.3 576.792 11511.3 577.376V577.964H11506.8C11506.8 578.724 11507 579.308 11507.4 579.716C11507.8 580.116 11508.3 580.316 11509 580.316C11509.4 580.316 11509.7 580.28 11510 580.208C11510.3 580.128 11510.7 580.016 11511 579.872V580.7C11510.7 580.844 11510.4 580.948 11510 581.012C11509.7 581.084 11509.3 581.12 11508.9 581.12C11508.3 581.12 11507.7 580.996 11507.3 580.748C11506.8 580.492 11506.5 580.12 11506.2 579.632C11506 579.136 11505.9 578.54 11505.9 577.844C11505.9 577.156 11506 576.56 11506.2 576.056C11506.4 575.552 11506.8 575.16 11507.2 574.88C11507.6 574.6 11508.1 574.46 11508.7 574.46ZM11508.7 575.24C11508.1 575.24 11507.7 575.412 11507.4 575.756C11507.1 576.1 11506.9 576.584 11506.9 577.208H11510.3C11510.3 576.816 11510.2 576.476 11510.1 576.188C11510 575.892 11509.8 575.66 11509.6 575.492C11509.3 575.324 11509 575.24 11508.7 575.24Z" fill="#1F1F1F" id="n235"/>
<path d="M11579 504.5C11596.4 504.5 11610.5 518.603 11610.5 536C11610.5 553.397 11596.4 567.5 11579 567.5C11561.6 567.5 11547.5 553.397 11547.5 536C11547.5 518.603 11561.6 504.5 11579 504.5Z" fill="white" id="n236"/>
<path d="M11579 504.5C11596.4 504.5 11610.5 518.603 11610.5 536C11610.5 553.397 11596.4 567.5 11579 567.5C11561.6 567.5 11547.5 553.397 11547.5 536C11547.5 518.603 11561.6 504.5 11579 504.5Z" stroke="#BEBEBE" id="n237"/>
<path d="M11572.3 529.52C11571.4 529.52 11570.6 529.68 11569.9 530C11569.1 530.304 11568.5 530.76 11568 531.368C11567.5 531.96 11567.1 532.688 11566.8 533.552C11566.5 534.4 11566.4 535.36 11566.4 536.432C11566.4 537.84 11566.6 539.064 11567 540.104C11567.5 541.144 11568.1 541.944 11569 542.504C11569.9 543.064 11571 543.344 11572.3 543.344C11573.1 543.344 11573.8 543.28 11574.4 543.152C11575.1 543.024 11575.8 542.864 11576.4 542.672V544.544C11575.8 544.784 11575.1 544.96 11574.4 545.072C11573.7 545.184 11572.9 545.24 11572 545.24C11570.2 545.24 11568.8 544.88 11567.6 544.16C11566.5 543.44 11565.6 542.416 11565 541.088C11564.4 539.76 11564.1 538.2 11564.1 536.408C11564.1 535.112 11564.3 533.928 11564.6 532.856C11565 531.784 11565.5 530.856 11566.2 530.072C11566.9 529.288 11567.8 528.688 11568.8 528.272C11569.8 527.84 11571 527.624 11572.3 527.624C11573.2 527.624 11574.1 527.712 11574.9 527.888C11575.7 528.064 11576.4 528.312 11577.1 528.632L11576.2 530.456C11575.7 530.216 11575.1 530 11574.4 529.808C11573.8 529.616 11573.1 529.52 11572.3 529.52ZM11593.9 536.264C11593.9 538.184 11593.5 539.792 11592.8 541.088C11592.1 542.384 11591.1 543.36 11589.7 544.016C11588.4 544.672 11586.8 545 11584.9 545H11580.1V527.864H11585.4C11587.2 527.864 11588.6 528.184 11589.9 528.824C11591.2 529.464 11592.2 530.408 11592.8 531.656C11593.5 532.888 11593.9 534.424 11593.9 536.264ZM11591.6 536.336C11591.6 534.816 11591.3 533.568 11590.8 532.592C11590.3 531.616 11589.6 530.896 11588.6 530.432C11587.7 529.952 11586.5 529.712 11585.1 529.712H11582.3V543.152H11584.6C11587 543.152 11588.7 542.584 11589.8 541.448C11591 540.296 11591.6 538.592 11591.6 536.336Z" fill="#535353" id="n238"/>
<path d="M11557.7 577.976C11557.7 578.584 11557.6 579.128 11557.4 579.608C11557.1 580.08 11556.8 580.452 11556.3 580.724C11555.8 580.988 11555.2 581.12 11554.4 581.12C11553.4 581.12 11552.6 580.836 11552 580.268C11551.5 579.692 11551.2 578.92 11551.2 577.952V572.432H11552.2V577.976C11552.2 578.712 11552.3 579.28 11552.7 579.68C11553.1 580.08 11553.7 580.28 11554.5 580.28C11555 580.28 11555.4 580.184 11555.8 579.992C11556.1 579.8 11556.4 579.536 11556.5 579.2C11556.7 578.856 11556.8 578.452 11556.8 577.988V572.432H11557.7V577.976ZM11564 579.248C11564 579.656 11563.9 580 11563.7 580.28C11563.5 580.552 11563.2 580.76 11562.8 580.904C11562.4 581.048 11562 581.12 11561.5 581.12C11561 581.12 11560.6 581.084 11560.3 581.012C11560 580.94 11559.7 580.84 11559.4 580.712V579.848C11559.7 579.976 11560 580.092 11560.4 580.196C11560.7 580.3 11561.1 580.352 11561.5 580.352C11562 580.352 11562.4 580.26 11562.7 580.076C11563 579.892 11563.1 579.644 11563.1 579.332C11563.1 579.148 11563 578.988 11562.9 578.852C11562.8 578.716 11562.7 578.584 11562.4 578.456C11562.2 578.328 11561.9 578.188 11561.4 578.036C11561 577.884 11560.7 577.732 11560.4 577.58C11560.1 577.428 11559.9 577.24 11559.7 577.016C11559.5 576.792 11559.5 576.504 11559.5 576.152C11559.5 575.608 11559.7 575.192 11560.1 574.904C11560.5 574.608 11561.1 574.46 11561.8 574.46C11562.2 574.46 11562.6 574.5 11562.9 574.58C11563.3 574.652 11563.6 574.752 11563.9 574.88L11563.5 575.648C11563.4 575.568 11563.2 575.5 11563 575.444C11562.8 575.38 11562.6 575.332 11562.4 575.3C11562.2 575.26 11562 575.24 11561.8 575.24C11561.3 575.24 11561 575.316 11560.7 575.468C11560.5 575.62 11560.4 575.828 11560.4 576.092C11560.4 576.292 11560.4 576.46 11560.5 576.596C11560.6 576.724 11560.8 576.844 11561.1 576.956C11561.3 577.068 11561.6 577.2 11562 577.352C11562.4 577.496 11562.8 577.648 11563.1 577.808C11563.4 577.96 11563.6 578.152 11563.8 578.384C11563.9 578.608 11564 578.896 11564 579.248ZM11568 574.46C11568.6 574.46 11569.1 574.584 11569.4 574.832C11569.8 575.072 11570.1 575.412 11570.3 575.852C11570.5 576.284 11570.6 576.792 11570.6 577.376V577.964H11566.2C11566.2 578.724 11566.4 579.308 11566.7 579.716C11567.1 580.116 11567.6 580.316 11568.3 580.316C11568.7 580.316 11569.1 580.28 11569.4 580.208C11569.7 580.128 11570 580.016 11570.3 579.872V580.7C11570 580.844 11569.7 580.948 11569.4 581.012C11569.1 581.084 11568.7 581.12 11568.3 581.12C11567.6 581.12 11567.1 580.996 11566.6 580.748C11566.2 580.492 11565.8 580.12 11565.6 579.632C11565.3 579.136 11565.2 578.54 11565.2 577.844C11565.2 577.156 11565.3 576.56 11565.5 576.056C11565.8 575.552 11566.1 575.16 11566.5 574.88C11567 574.6 11567.5 574.46 11568 574.46ZM11568 575.24C11567.5 575.24 11567.1 575.412 11566.8 575.756C11566.4 576.1 11566.3 576.584 11566.2 577.208H11569.7C11569.7 576.816 11569.6 576.476 11569.5 576.188C11569.4 575.892 11569.2 575.66 11568.9 575.492C11568.7 575.324 11568.4 575.24 11568 575.24ZM11575.2 574.472C11575.3 574.472 11575.4 574.48 11575.6 574.496C11575.7 574.504 11575.8 574.52 11576 574.544L11575.8 575.42C11575.7 575.388 11575.6 575.364 11575.5 575.348C11575.4 575.332 11575.2 575.324 11575.1 575.324C11574.8 575.324 11574.6 575.38 11574.4 575.492C11574.1 575.596 11573.9 575.744 11573.8 575.936C11573.6 576.128 11573.5 576.36 11573.4 576.632C11573.3 576.904 11573.2 577.208 11573.2 577.544V581H11572.3V574.58H11573.1L11573.2 575.768H11573.2C11573.3 575.528 11573.5 575.312 11573.7 575.12C11573.9 574.92 11574.1 574.764 11574.3 574.652C11574.6 574.532 11574.9 574.472 11575.2 574.472ZM11580.2 574.46C11580.9 574.46 11581.5 574.648 11581.9 575.024C11582.3 575.392 11582.5 575.988 11582.5 576.812V581H11581.6V576.884C11581.6 576.332 11581.4 575.924 11581.2 575.66C11580.9 575.396 11580.6 575.264 11580.1 575.264C11579.4 575.264 11578.8 575.464 11578.6 575.864C11578.3 576.264 11578.1 576.848 11578.1 577.616V581H11577.2V574.58H11577.9L11578.1 575.528H11578.1C11578.3 575.296 11578.4 575.104 11578.6 574.952C11578.9 574.792 11579.1 574.672 11579.4 574.592C11579.6 574.504 11579.9 574.46 11580.2 574.46ZM11586.9 574.472C11587.7 574.472 11588.2 574.648 11588.6 575C11589 575.344 11589.1 575.892 11589.1 576.644V581H11588.4L11588.3 580.04H11588.2C11588.1 580.272 11587.9 580.472 11587.7 580.64C11587.5 580.8 11587.2 580.92 11587 581C11586.7 581.08 11586.4 581.12 11586 581.12C11585.7 581.12 11585.3 581.052 11585 580.916C11584.7 580.78 11584.5 580.572 11584.3 580.292C11584.1 580.012 11584 579.664 11584 579.248C11584 578.608 11584.3 578.116 11584.8 577.772C11585.3 577.428 11586.1 577.24 11587.1 577.208L11588.2 577.16V576.764C11588.2 576.196 11588.1 575.8 11587.9 575.576C11587.6 575.352 11587.3 575.24 11586.8 575.24C11586.5 575.24 11586.2 575.288 11585.9 575.384C11585.6 575.48 11585.3 575.596 11585 575.732L11584.7 575.012C11585 574.86 11585.3 574.732 11585.7 574.628C11586.1 574.524 11586.5 574.472 11586.9 574.472ZM11587.2 577.868C11586.4 577.9 11585.9 578.032 11585.5 578.264C11585.2 578.496 11585 578.828 11585 579.26C11585 579.628 11585.1 579.904 11585.3 580.088C11585.6 580.264 11585.9 580.352 11586.2 580.352C11586.8 580.352 11587.3 580.192 11587.7 579.872C11588 579.544 11588.2 579.06 11588.2 578.42V577.832L11587.2 577.868ZM11598.1 574.46C11598.8 574.46 11599.3 574.644 11599.7 575.012C11600 575.38 11600.2 575.972 11600.2 576.788V581H11599.3V576.836C11599.3 576.308 11599.2 575.916 11598.9 575.66C11598.7 575.396 11598.4 575.264 11597.9 575.264C11597.3 575.264 11596.9 575.444 11596.6 575.804C11596.3 576.156 11596.1 576.688 11596.1 577.4V581H11595.2V576.836C11595.2 576.484 11595.2 576.192 11595.1 575.96C11594.9 575.72 11594.8 575.544 11594.6 575.432C11594.4 575.32 11594.1 575.264 11593.9 575.264C11593.4 575.264 11593.1 575.352 11592.8 575.528C11592.6 575.704 11592.4 575.964 11592.3 576.308C11592.1 576.644 11592.1 577.068 11592.1 577.58V581H11591.1V574.58H11591.9L11592 575.504H11592.1C11592.2 575.28 11592.4 575.092 11592.6 574.94C11592.8 574.78 11593 574.66 11593.2 574.58C11593.5 574.5 11593.7 574.46 11594 574.46C11594.5 574.46 11594.9 574.552 11595.2 574.736C11595.6 574.92 11595.8 575.2 11596 575.576H11596C11596.2 575.208 11596.5 574.932 11596.9 574.748C11597.2 574.556 11597.6 574.46 11598.1 574.46ZM11604.7 574.46C11605.2 574.46 11605.7 574.584 11606.1 574.832C11606.5 575.072 11606.8 575.412 11607 575.852C11607.2 576.284 11607.3 576.792 11607.3 577.376V577.964H11602.8C11602.8 578.724 11603 579.308 11603.4 579.716C11603.8 580.116 11604.3 580.316 11605 580.316C11605.4 580.316 11605.7 580.28 11606 580.208C11606.3 580.128 11606.7 580.016 11607 579.872V580.7C11606.7 580.844 11606.4 580.948 11606 581.012C11605.7 581.084 11605.3 581.12 11604.9 581.12C11604.3 581.12 11603.7 580.996 11603.3 580.748C11602.8 580.492 11602.5 580.12 11602.2 579.632C11602 579.136 11601.9 578.54 11601.9 577.844C11601.9 577.156 11602 576.56 11602.2 576.056C11602.4 575.552 11602.8 575.16 11603.2 574.88C11603.6 574.6 11604.1 574.46 11604.7 574.46ZM11604.7 575.24C11604.1 575.24 11603.7 575.412 11603.4 575.756C11603.1 576.1 11602.9 576.584 11602.9 577.208H11606.3C11606.3 576.816 11606.2 576.476 11606.1 576.188C11606 575.892 11605.8 575.66 11605.6 575.492C11605.3 575.324 11605 575.24 11604.7 575.24Z" fill="#1F1F1F" id="n239"/>
<path d="M11675 504.5C11692.4 504.5 11706.5 518.603 11706.5 536C11706.5 553.397 11692.4 567.5 11675 567.5C11657.6 567.5 11643.5 553.397 11643.5 536C11643.5 518.603 11657.6 504.5 11675 504.5Z" fill="white" id="n240"/>
<path d="M11675 504.5C11692.4 504.5 11706.5 518.603 11706.5 536C11706.5 553.397 11692.4 567.5 11675 567.5C11657.6 567.5 11643.5 553.397 11643.5 536C11643.5 518.603 11657.6 504.5 11675 504.5Z" stroke="#BEBEBE" id="n241"/>
<path d="M11674 545H11664.4V527.864H11674V529.76H11666.6V535.112H11673.6V536.984H11666.6V543.104H11674V545ZM11679.9 545H11677.8V527.864H11687.3V529.76H11679.9V535.832H11686.9V537.728H11679.9V545Z" fill="#535353" id="n242"/>
<path d="M11653.7 577.976C11653.7 578.584 11653.6 579.128 11653.4 579.608C11653.1 580.08 11652.8 580.452 11652.3 580.724C11651.8 580.988 11651.2 581.12 11650.4 581.12C11649.4 581.12 11648.6 580.836 11648 580.268C11647.5 579.692 11647.2 578.92 11647.2 577.952V572.432H11648.2V577.976C11648.2 578.712 11648.3 579.28 11648.7 579.68C11649.1 580.08 11649.7 580.28 11650.5 580.28C11651 580.28 11651.4 580.184 11651.8 579.992C11652.1 579.8 11652.4 579.536 11652.5 579.2C11652.7 578.856 11652.8 578.452 11652.8 577.988V572.432H11653.7V577.976ZM11660 579.248C11660 579.656 11659.9 580 11659.7 580.28C11659.5 580.552 11659.2 580.76 11658.8 580.904C11658.4 581.048 11658 581.12 11657.5 581.12C11657 581.12 11656.6 581.084 11656.3 581.012C11656 580.94 11655.7 580.84 11655.4 580.712V579.848C11655.7 579.976 11656 580.092 11656.4 580.196C11656.7 580.3 11657.1 580.352 11657.5 580.352C11658 580.352 11658.4 580.26 11658.7 580.076C11659 579.892 11659.1 579.644 11659.1 579.332C11659.1 579.148 11659 578.988 11658.9 578.852C11658.8 578.716 11658.7 578.584 11658.4 578.456C11658.2 578.328 11657.9 578.188 11657.4 578.036C11657 577.884 11656.7 577.732 11656.4 577.58C11656.1 577.428 11655.9 577.24 11655.7 577.016C11655.5 576.792 11655.5 576.504 11655.5 576.152C11655.5 575.608 11655.7 575.192 11656.1 574.904C11656.5 574.608 11657.1 574.46 11657.8 574.46C11658.2 574.46 11658.6 574.5 11658.9 574.58C11659.3 574.652 11659.6 574.752 11659.9 574.88L11659.5 575.648C11659.4 575.568 11659.2 575.5 11659 575.444C11658.8 575.38 11658.6 575.332 11658.4 575.3C11658.2 575.26 11658 575.24 11657.8 575.24C11657.3 575.24 11657 575.316 11656.7 575.468C11656.5 575.62 11656.4 575.828 11656.4 576.092C11656.4 576.292 11656.4 576.46 11656.5 576.596C11656.6 576.724 11656.8 576.844 11657.1 576.956C11657.3 577.068 11657.6 577.2 11658 577.352C11658.4 577.496 11658.8 577.648 11659.1 577.808C11659.4 577.96 11659.6 578.152 11659.8 578.384C11659.9 578.608 11660 578.896 11660 579.248ZM11664 574.46C11664.6 574.46 11665.1 574.584 11665.4 574.832C11665.8 575.072 11666.1 575.412 11666.3 575.852C11666.5 576.284 11666.6 576.792 11666.6 577.376V577.964H11662.2C11662.2 578.724 11662.4 579.308 11662.7 579.716C11663.1 580.116 11663.6 580.316 11664.3 580.316C11664.7 580.316 11665.1 580.28 11665.4 580.208C11665.7 580.128 11666 580.016 11666.3 579.872V580.7C11666 580.844 11665.7 580.948 11665.4 581.012C11665.1 581.084 11664.7 581.12 11664.3 581.12C11663.6 581.12 11663.1 580.996 11662.6 580.748C11662.2 580.492 11661.8 580.12 11661.6 579.632C11661.3 579.136 11661.2 578.54 11661.2 577.844C11661.2 577.156 11661.3 576.56 11661.5 576.056C11661.8 575.552 11662.1 575.16 11662.5 574.88C11663 574.6 11663.5 574.46 11664 574.46ZM11664 575.24C11663.5 575.24 11663.1 575.412 11662.8 575.756C11662.4 576.1 11662.3 576.584 11662.2 577.208H11665.7C11665.7 576.816 11665.6 576.476 11665.5 576.188C11665.4 575.892 11665.2 575.66 11664.9 575.492C11664.7 575.324 11664.4 575.24 11664 575.24ZM11671.2 574.472C11671.3 574.472 11671.4 574.48 11671.6 574.496C11671.7 574.504 11671.8 574.52 11672 574.544L11671.8 575.42C11671.7 575.388 11671.6 575.364 11671.5 575.348C11671.4 575.332 11671.2 575.324 11671.1 575.324C11670.8 575.324 11670.6 575.38 11670.4 575.492C11670.1 575.596 11669.9 575.744 11669.8 575.936C11669.6 576.128 11669.5 576.36 11669.4 576.632C11669.3 576.904 11669.2 577.208 11669.2 577.544V581H11668.3V574.58H11669.1L11669.2 575.768H11669.2C11669.3 575.528 11669.5 575.312 11669.7 575.12C11669.9 574.92 11670.1 574.764 11670.3 574.652C11670.6 574.532 11670.9 574.472 11671.2 574.472ZM11676.2 574.46C11676.9 574.46 11677.5 574.648 11677.9 575.024C11678.3 575.392 11678.5 575.988 11678.5 576.812V581H11677.6V576.884C11677.6 576.332 11677.4 575.924 11677.2 575.66C11676.9 575.396 11676.6 575.264 11676.1 575.264C11675.4 575.264 11674.8 575.464 11674.6 575.864C11674.3 576.264 11674.1 576.848 11674.1 577.616V581H11673.2V574.58H11673.9L11674.1 575.528H11674.1C11674.3 575.296 11674.4 575.104 11674.6 574.952C11674.9 574.792 11675.1 574.672 11675.4 574.592C11675.6 574.504 11675.9 574.46 11676.2 574.46ZM11682.9 574.472C11683.7 574.472 11684.2 574.648 11684.6 575C11685 575.344 11685.1 575.892 11685.1 576.644V581H11684.4L11684.3 580.04H11684.2C11684.1 580.272 11683.9 580.472 11683.7 580.64C11683.5 580.8 11683.2 580.92 11683 581C11682.7 581.08 11682.4 581.12 11682 581.12C11681.7 581.12 11681.3 581.052 11681 580.916C11680.7 580.78 11680.5 580.572 11680.3 580.292C11680.1 580.012 11680 579.664 11680 579.248C11680 578.608 11680.3 578.116 11680.8 577.772C11681.3 577.428 11682.1 577.24 11683.1 577.208L11684.2 577.16V576.764C11684.2 576.196 11684.1 575.8 11683.9 575.576C11683.6 575.352 11683.3 575.24 11682.8 575.24C11682.5 575.24 11682.2 575.288 11681.9 575.384C11681.6 575.48 11681.3 575.596 11681 575.732L11680.7 575.012C11681 574.86 11681.3 574.732 11681.7 574.628C11682.1 574.524 11682.5 574.472 11682.9 574.472ZM11683.2 577.868C11682.4 577.9 11681.9 578.032 11681.5 578.264C11681.2 578.496 11681 578.828 11681 579.26C11681 579.628 11681.1 579.904 11681.3 580.088C11681.6 580.264 11681.9 580.352 11682.2 580.352C11682.8 580.352 11683.3 580.192 11683.7 579.872C11684 579.544 11684.2 579.06 11684.2 578.42V577.832L11683.2 577.868ZM11694.1 574.46C11694.8 574.46 11695.3 574.644 11695.7 575.012C11696 575.38 11696.2 575.972 11696.2 576.788V581H11695.3V576.836C11695.3 576.308 11695.2 575.916 11694.9 575.66C11694.7 575.396 11694.4 575.264 11693.9 575.264C11693.3 575.264 11692.9 575.444 11692.6 575.804C11692.3 576.156 11692.1 576.688 11692.1 577.4V581H11691.2V576.836C11691.2 576.484 11691.2 576.192 11691.1 575.96C11690.9 575.72 11690.8 575.544 11690.6 575.432C11690.4 575.32 11690.1 575.264 11689.9 575.264C11689.4 575.264 11689.1 575.352 11688.8 575.528C11688.6 575.704 11688.4 575.964 11688.3 576.308C11688.1 576.644 11688.1 577.068 11688.1 577.58V581H11687.1V574.58H11687.9L11688 575.504H11688.1C11688.2 575.28 11688.4 575.092 11688.6 574.94C11688.8 574.78 11689 574.66 11689.2 574.58C11689.5 574.5 11689.7 574.46 11690 574.46C11690.5 574.46 11690.9 574.552 11691.2 574.736C11691.6 574.92 11691.8 575.2 11692 575.576H11692C11692.2 575.208 11692.5 574.932 11692.9 574.748C11693.2 574.556 11693.6 574.46 11694.1 574.46ZM11700.7 574.46C11701.2 574.46 11701.7 574.584 11702.1 574.832C11702.5 575.072 11702.8 575.412 11703 575.852C11703.2 576.284 11703.3 576.792 11703.3 577.376V577.964H11698.8C11698.8 578.724 11699 579.308 11699.4 579.716C11699.8 580.116 11700.3 580.316 11701 580.316C11701.4 580.316 11701.7 580.28 11702 580.208C11702.3 580.128 11702.7 580.016 11703 579.872V580.7C11702.7 580.844 11702.4 580.948 11702 581.012C11701.7 581.084 11701.3 581.12 11700.9 581.12C11700.3 581.12 11699.7 580.996 11699.3 580.748C11698.8 580.492 11698.5 580.12 11698.2 579.632C11698 579.136 11697.9 578.54 11697.9 577.844C11697.9 577.156 11698 576.56 11698.2 576.056C11698.4 575.552 11698.8 575.16 11699.2 574.88C11699.6 574.6 11700.1 574.46 11700.7 574.46ZM11700.7 575.24C11700.1 575.24 11699.7 575.412 11699.4 575.756C11699.1 576.1 11698.9 576.584 11698.9 577.208H11702.3C11702.3 576.816 11702.2 576.476 11702.1 576.188C11702 575.892 11701.8 575.66 11701.6 575.492C11701.3 575.324 11701 575.24 11700.7 575.24Z" fill="#1F1F1F" id="n243"/>
</g>
</g>
</g>
</svg>
