<?xml version='1.0' encoding='utf-8'?>
<svg xmlns="http://www.w3.org/2000/svg" xmlns:xlink="http://www.w3.org/1999/xlink" width="384.0" height="384.0" viewBox="0 0 384.0 384.0" fill="none">
  <defs><clipPath id="clip__asset"><rect x="0" y="0" width="384.0" height="384.0"/></clipPath><mask id="mask0_68_6728" style="mask-type:luminance" maskUnits="userSpaceOnUse" x="8302" y="504" width="512" height="512">
<path fill-rule="evenodd" clip-rule="evenodd" d="M8558 572C8661.83 572 8746 656.171 8746 760C8746 863.83 8661.83 948 8558 948C8454.17 948 8370 863.83 8370 760C8370 656.171 8454.17 572 8558 572ZM8558 596C8467.43 596 8394 669.426 8394 760C8394 850.575 8467.43 924 8558 924C8648.57 924 8722 850.575 8722 760C8722 669.426 8648.57 596 8558 596Z" fill="white" stroke="black" id="n15"/>
</mask>
<mask id="mask1_68_6728" style="mask-type:alpha" maskUnits="userSpaceOnUse" x="8302" y="504" width="512" height="512">
<path d="M8558 584C8655.2 584 8734 662.798 8734 760C8734 857.203 8655.2 936 8558 936C8460.8 936 8382 857.203 8382 760C8382 662.798 8460.8 584 8558 584ZM8558 592C8465.22 592 8390 667.217 8390 760C8390 852.784 8465.22 928 8558 928C8650.78 928 8726 852.784 8726 760C8726 667.217 8650.78 592 8558 592Z" fill="black" id="n17"/>
</mask>
<mask id="mask2_68_6728" style="mask-type:alpha" maskUnits="userSpaceOnUse" x="8302" y="504" width="512" height="512">
<path d="M8558 568C8664.04 568 8750 653.962 8750 760C8750 866.039 8664.04 952 8558 952C8451.96 952 8366 866.039 8366 760C8366 653.962 8451.96 568 8558 568ZM8558 592C8465.22 592 8390 667.217 8390 760C8390 852.784 8465.22 928 8558 928C8650.78 928 8726 852.784 8726 760C8726 667.217 8650.78 592 8558 592Z" fill="black" id="n20"/>
</mask>
<mask id="mask3_68_6728" style="mask-type:alpha" maskUnits="userSpaceOnUse" x="8302" y="504" width="512" height="512">
<path d="M8558 568C8664.04 568 8750 653.962 8750 760C8750 866.039 8664.04 952 8558 952C8451.96 952 8366 866.039 8366 760C8366 653.962 8451.96 568 8558 568ZM8558 596C8467.43 596 8394 669.426 8394 760C8394 850.575 8467.43 924 8558 924C8648.57 924 8722 850.575 8722 760C8722 669.426 8648.57 596 8558 596Z" fill="black" id="n23"/>
</mask>
<mask id="mask4_68_6728" style="mask-type:alpha" maskUnits="userSpaceOnUse" x="8302" y="504" width="512" height="512">
<path d="M8406 760C8406 756.273 8406 754.409 8406.61 752.939C8407.42 750.979 8408.98 749.421 8410.94 748.609C8412.41 748 8414.27 748 8418 748H8698C8701.73 748 8703.59 748 8705.06 748.609C8707.02 749.421 8708.58 750.979 8709.39 752.939C8710 754.409 8710 756.273 8710 760C8710 763.728 8710 765.592 8709.39 767.062C8708.58 769.022 8707.02 770.58 8705.06 771.392C8703.59 772 8701.73 772 8698 772H8418C8414.27 772 8412.41 772 8410.94 771.392C8408.98 770.58 8407.42 769.022 8406.61 767.062C8406 765.592 8406 763.728 8406 760Z" fill="white" stroke="black" id="n26"/>
<path d="M8558 608C8561.73 608 8563.59 608 8565.06 608.609C8567.02 609.421 8568.58 610.979 8569.39 612.939C8570 614.409 8570 616.273 8570 620L8570 900C8570 903.728 8570 905.592 8569.39 907.062C8568.58 909.022 8567.02 910.58 8565.06 911.392C8563.59 912 8561.73 912 8558 912C8554.27 912 8552.41 912 8550.94 911.392C8548.98 910.58 8547.42 909.022 8546.61 907.062C8546 905.592 8546 903.728 8546 900L8546 620C8546 616.273 8546 614.409 8546.61 612.939C8547.42 610.979 8548.98 609.421 8550.94 608.609C8552.41 608 8554.27 608 8558 608Z" fill="white" stroke="black" id="n27"/>
</mask>
</defs>
  <g clip-path="url(#clip__asset)" transform="translate(-8366.0 -568.0)"><path fill-rule="evenodd" clip-rule="evenodd" d="M8558 572C8661.83 572 8746 656.171 8746 760C8746 863.83 8661.83 948 8558 948C8454.17 948 8370 863.83 8370 760C8370 656.171 8454.17 572 8558 572ZM8558 596C8467.43 596 8394 669.426 8394 760C8394 850.575 8467.43 924 8558 924C8648.57 924 8722 850.575 8722 760C8722 669.426 8648.57 596 8558 596Z" fill="white" stroke="white" id="n7"/>
<path fill-rule="evenodd" clip-rule="evenodd" d="M8558 572C8661.83 572 8746 656.171 8746 760C8746 863.83 8661.83 948 8558 948C8454.17 948 8370 863.83 8370 760C8370 656.171 8454.17 572 8558 572ZM8558 596C8467.43 596 8394 669.426 8394 760C8394 850.575 8467.43 924 8558 924C8648.57 924 8722 850.575 8722 760C8722 669.426 8648.57 596 8558 596Z" stroke="#BEBEBE" id="n8"/>
<path d="M8558.01 596V924" stroke="#BEBEBE" stroke-linecap="square" id="n9"/>
<path d="M8722.01 760L8394.01 760" stroke="#BEBEBE" stroke-linecap="square" id="n10"/>
<path d="M8406 760C8406 756.273 8406 754.409 8406.61 752.939C8407.42 750.979 8408.98 749.421 8410.94 748.609C8412.41 748 8414.27 748 8418 748H8698C8701.73 748 8703.59 748 8705.06 748.609C8707.02 749.421 8708.58 750.979 8709.39 752.939C8710 754.409 8710 756.273 8710 760C8710 763.728 8710 765.592 8709.39 767.062C8708.58 769.022 8707.02 770.58 8705.06 771.392C8703.59 772 8701.73 772 8698 772H8418C8414.27 772 8412.41 772 8410.94 771.392C8408.98 770.58 8407.42 769.022 8406.61 767.062C8406 765.592 8406 763.728 8406 760Z" fill="white" stroke="white" id="n11"/>
<path d="M8406 760C8406 756.273 8406 754.409 8406.61 752.939C8407.42 750.979 8408.98 749.421 8410.94 748.609C8412.41 748 8414.27 748 8418 748H8698C8701.73 748 8703.59 748 8705.06 748.609C8707.02 749.421 8708.58 750.979 8709.39 752.939C8710 754.409 8710 756.273 8710 760C8710 763.728 8710 765.592 8709.39 767.062C8708.58 769.022 8707.02 770.58 8705.06 771.392C8703.59 772 8701.73 772 8698 772H8418C8414.27 772 8412.41 772 8410.94 771.392C8408.98 770.58 8407.42 769.022 8406.61 767.062C8406 765.592 8406 763.728 8406 760Z" stroke="#BEBEBE" id="n12"/>
<path d="M8558 608C8561.73 608 8563.59 608 8565.06 608.609C8567.02 609.421 8568.58 610.979 8569.39 612.939C8570 614.409 8570 616.273 8570 620L8570 900C8570 903.728 8570 905.592 8569.39 907.062C8568.58 909.022 8567.02 910.58 8565.06 911.392C8563.59 912 8561.73 912 8558 912C8554.27 912 8552.41 912 8550.94 911.392C8548.98 910.58 8547.42 909.022 8546.61 907.062C8546 905.592 8546 903.728 8546 900L8546 620C8546 616.273 8546 614.409 8546.61 612.939C8547.42 610.979 8548.98 609.421 8550.94 608.609C8552.41 608 8554.27 608 8558 608Z" fill="white" stroke="white" id="n13"/>
<path d="M8558 608C8561.73 608 8563.59 608 8565.06 608.609C8567.02 609.421 8568.58 610.979 8569.39 612.939C8570 614.409 8570 616.273 8570 620L8570 900C8570 903.728 8570 905.592 8569.39 907.062C8568.58 909.022 8567.02 910.58 8565.06 911.392C8563.59 912 8561.73 912 8558 912C8554.27 912 8552.41 912 8550.94 911.392C8548.98 910.58 8547.42 909.022 8546.61 907.062C8546 905.592 8546 903.728 8546 900L8546 620C8546 616.273 8546 614.409 8546.61 612.939C8547.42 610.979 8548.98 609.421 8550.94 608.609C8552.41 608 8554.27 608 8558 608Z" stroke="#BEBEBE" id="n14"/>
<g mask="url(#mask0_68_6728)" id="n16">
<mask id="mask1_68_6728" style="mask-type:alpha" maskUnits="userSpaceOnUse" x="8302" y="504" width="512" height="512">
<path d="M8558 584C8655.2 584 8734 662.798 8734 760C8734 857.203 8655.2 936 8558 936C8460.8 936 8382 857.203 8382 760C8382 662.798 8460.8 584 8558 584ZM8558 592C8465.22 592 8390 667.217 8390 760C8390 852.784 8465.22 928 8558 928C8650.78 928 8726 852.784 8726 760C8726 667.217 8650.78 592 8558 592Z" fill="black" id="n17"/>
</mask>
<g mask="url(#mask1_68_6728)" id="n18">
<path d="M8558 560V760M8558 760L8540.57 560.761M8558 760L8523.27 563.039M8558 760L8506.24 566.815M8558 760L8489.6 572.062M8558 760L8473.48 578.739M8558 760L8458 586.795M8558 760L8443.28 596.17M8558 760L8429.44 606.792M8558 760L8416.58 618.579M8558 760L8404.79 631.443M8558 760L8394.17 645.285M8558 760L8384.79 660M8558 760L8376.74 675.477M8558 760L8370.06 691.596M8558 760L8364.81 708.237M8558 760L8361.04 725.271M8558 760L8358.76 742.569M8558 760H8358M8558 760L8358.76 777.432M8558 760L8361.04 794.73M8558 760L8364.81 811.764M8558 760L8370.06 828.404M8558 760L8376.74 844.524M8558 760L8384.79 860M8558 760L8394.17 874.715M8558 760L8404.79 888.558M8558 760L8416.58 901.422M8558 760L8429.44 913.209M8558 760L8443.28 923.831M8558 760L8458 933.206M8558 760L8473.48 941.262M8558 760L8489.6 947.939M8558 760L8506.24 953.185M8558 760L8523.27 956.962M8558 760L8540.57 959.24M8558 760V960M8558 760L8575.43 959.24M8558 760L8592.73 956.962M8558 760L8609.76 953.186M8558 760L8626.4 947.939M8558 760L8642.52 941.262M8558 760L8658 933.206M8558 760L8672.72 923.831M8558 760L8686.56 913.209M8558 760L8699.42 901.422M8558 760L8711.21 888.558M8558 760L8721.83 874.716M8558 760L8731.21 860M8558 760L8739.26 844.524M8558 760L8745.94 828.405M8558 760L8751.19 811.764M8558 760L8754.96 794.73M8558 760L8757.24 777.432M8558 760H8758M8558 760L8757.24 742.569M8558 760L8754.96 725.271M8558 760L8751.19 708.237M8558 760L8745.94 691.597M8558 760L8739.26 675.477M8558 760L8731.21 660M8558 760L8721.83 645.285M8558 760L8711.21 631.443M8558 760L8699.42 618.579M8558 760L8686.56 606.792M8558 760L8672.72 596.17M8558 760L8658 586.795M8558 760L8642.52 578.739M8558 760L8626.4 572.062M8558 760L8609.76 566.816M8558 760L8592.73 563.039M8558 760L8575.43 560.761" stroke="#BEBEBE" id="n19"/>
</g>
<mask id="mask2_68_6728" style="mask-type:alpha" maskUnits="userSpaceOnUse" x="8302" y="504" width="512" height="512">
<path d="M8558 568C8664.04 568 8750 653.962 8750 760C8750 866.039 8664.04 952 8558 952C8451.96 952 8366 866.039 8366 760C8366 653.962 8451.96 568 8558 568ZM8558 592C8465.22 592 8390 667.217 8390 760C8390 852.784 8465.22 928 8558 928C8650.78 928 8726 852.784 8726 760C8726 667.217 8650.78 592 8558 592Z" fill="black" id="n20"/>
</mask>
<g mask="url(#mask2_68_6728)" id="n21">
<path d="M8558 560V760M8558 760H8358M8558 760V960M8558 760H8758" stroke="#BEBEBE" id="n22"/>
</g>
<mask id="mask3_68_6728" style="mask-type:alpha" maskUnits="userSpaceOnUse" x="8302" y="504" width="512" height="512">
<path d="M8558 568C8664.04 568 8750 653.962 8750 760C8750 866.039 8664.04 952 8558 952C8451.96 952 8366 866.039 8366 760C8366 653.962 8451.96 568 8558 568ZM8558 596C8467.43 596 8394 669.426 8394 760C8394 850.575 8467.43 924 8558 924C8648.57 924 8722 850.575 8722 760C8722 669.426 8648.57 596 8558 596Z" fill="black" id="n23"/>
</mask>
<g mask="url(#mask3_68_6728)" id="n24">
<path d="M8558 560V760" stroke="#BEBEBE" id="n25"/>
</g>
</g>
<g mask="url(#mask4_68_6728)" id="n28">
<path d="M8476 760V768M8490 760V768M8504 760V768M8518 760V768M8532 760V768M8546 760V768M8462 760V768M8448 760V768M8434 760V768M8420 760V768M8406 760V768" stroke="#BEBEBE" id="n29"/>
<path d="M8476 744V768M8546 744V768M8406 744V768" stroke="#BEBEBE" id="n30"/>
<path d="M8546 744V772M8406 744V772" stroke="#BEBEBE" id="n31"/>
<path d="M8558 678L8550 678M8558 692L8550 692M8558 706L8550 706M8558 720L8550 720M8558 734L8550 734M8558 748L8550 748M8558 664L8550 664M8558 650L8550 650M8558 636L8550 636M8558 622L8550 622M8558 608L8550 608" stroke="#BEBEBE" id="n32"/>
<path d="M8574 678L8550 678M8574 748L8550 748M8574 608L8550 608" stroke="#BEBEBE" id="n33"/>
<path d="M8574 748L8546 748M8574 608L8546 608" stroke="#BEBEBE" id="n34"/>
<path d="M8640 760V768M8654 760V768M8668 760V768M8682 760V768M8696 760V768M8710 760V768M8626 760V768M8612 760V768M8598 760V768M8584 760V768M8570 760V768" stroke="#BEBEBE" id="n35"/>
<path d="M8640 744V768M8710 744V768M8570 744V768" stroke="#BEBEBE" id="n36"/>
<path d="M8710 744V772M8570 744V772" stroke="#BEBEBE" id="n37"/>
<path d="M8558 842L8550 842M8558 856L8550 856M8558 870L8550 870M8558 884L8550 884M8558 898L8550 898M8558 912L8550 912M8558 828L8550 828M8558 814L8550 814M8558 800L8550 800M8558 786L8550 786M8558 772L8550 772" stroke="#BEBEBE" id="n38"/>
<path d="M8574 842L8550 842M8574 912L8550 912M8574 772L8550 772" stroke="#BEBEBE" id="n39"/>
<path d="M8574 912L8546 912M8574 772L8546 772" stroke="#BEBEBE" id="n40"/>
</g>
<path d="M8677.26 752.901C8677.61 753.677 8677.6 754.663 8677.05 755.48L8669.24 767.051C8668.64 767.933 8667.35 767.933 8666.75 767.051L8658.94 755.48C8658.39 754.663 8658.38 753.677 8658.73 752.901C8659.08 752.123 8659.82 751.5 8660.8 751.5L8675.19 751.5C8676.17 751.5 8676.91 752.123 8677.26 752.901Z" fill="#2D548B" stroke="white" stroke-linejoin="round" id="n41"/>
<path d="M8565.1 640.742C8564.32 640.392 8563.34 640.402 8562.52 640.953L8550.95 648.761C8550.07 649.356 8550.07 650.653 8550.95 651.248L8562.52 659.056C8563.34 659.607 8564.32 659.616 8565.1 659.267C8565.88 658.917 8566.5 658.177 8566.5 657.202L8566.5 642.807C8566.5 641.831 8565.88 641.091 8565.1 640.742Z" fill="#2D548B" stroke="white" stroke-linejoin="round" id="n42"/>
<path d="M8567.72 576.696C8568.13 577.614 8568.12 578.785 8567.47 579.76L8559.66 591.332C8558.87 592.507 8557.13 592.507 8556.34 591.332L8548.53 579.76C8547.88 578.785 8547.87 577.614 8548.28 576.696C8548.7 575.776 8549.59 575 8550.8 575L8565.2 575C8566.41 575 8567.3 575.776 8567.72 576.696Z" fill="#2D548B" stroke="white" stroke-width="2" stroke-linejoin="round" id="n43"/>
</g>
</svg>
