<?xml version='1.0' encoding='utf-8'?>
<svg xmlns="http://www.w3.org/2000/svg" xmlns:xlink="http://www.w3.org/1999/xlink" width="384.0" height="384.0" viewBox="0 0 384.0 384.0" fill="none">
  <defs><clipPath id="clip__asset"><rect x="0" y="0" width="384.0" height="384.0"/></clipPath><mask id="mask245_68_6728" style="mask-type:luminance" maskUnits="userSpaceOnUse" x="15036" y="739" width="512" height="512">
<rect x="15124" y="827" width="336" height="336" rx="8" fill="white" stroke="black" id="n2309"/>
</mask>
<clipPath id="clip138_68_6728">
<rect width="320" height="320" fill="white" transform="translate(14972 835)" id="n2917"/>
</clipPath>
<clipPath id="clip139_68_6728">
<rect width="320" height="142" fill="white" transform="translate(15292 940)" id="n2918"/>
</clipPath>
</defs>
  <g clip-path="url(#clip__asset)" transform="translate(-15100.0 -803.0)"><path d="M15124 839.8C15124 835.32 15124 833.079 15124.9 831.368C15125.6 829.863 15126.9 828.639 15128.4 827.872C15130.1 827 15132.3 827 15136.8 827H15447.2C15451.7 827 15453.9 827 15455.6 827.872C15457.1 828.639 15458.4 829.863 15459.1 831.368C15460 833.079 15460 835.32 15460 839.8V1150.2C15460 1154.68 15460 1156.92 15459.1 1158.63C15458.4 1160.14 15457.1 1161.36 15455.6 1162.13C15453.9 1163 15451.7 1163 15447.2 1163H15136.8C15132.3 1163 15130.1 1163 15128.4 1162.13C15126.9 1161.36 15125.6 1160.14 15124.9 1158.63C15124 1156.92 15124 1154.68 15124 1150.2V839.8Z" fill="white" stroke="white" id="n2303"/>
<path d="M15124 839.8C15124 835.32 15124 833.079 15124.9 831.368C15125.6 829.863 15126.9 828.639 15128.4 827.872C15130.1 827 15132.3 827 15136.8 827H15447.2C15451.7 827 15453.9 827 15455.6 827.872C15457.1 828.639 15458.4 829.863 15459.1 831.368C15460 833.079 15460 835.32 15460 839.8V1150.2C15460 1154.68 15460 1156.92 15459.1 1158.63C15458.4 1160.14 15457.1 1161.36 15455.6 1162.13C15453.9 1163 15451.7 1163 15447.2 1163H15136.8C15132.3 1163 15130.1 1163 15128.4 1162.13C15126.9 1161.36 15125.6 1160.14 15124.9 1158.63C15124 1156.92 15124 1154.68 15124 1150.2V839.8Z" stroke="#BEBEBE" id="n2304"/>
<path d="M15472.4 1158H15471.5V1151.89C15471.5 1151.66 15471.5 1151.46 15471.5 1151.3C15471.5 1151.14 15471.5 1151 15471.5 1150.86C15471.5 1150.72 15471.5 1150.57 15471.5 1150.43C15471.4 1150.55 15471.3 1150.65 15471.2 1150.74C15471.1 1150.82 15470.9 1150.93 15470.8 1151.06L15469.8 1151.86L15469.3 1151.22L15471.6 1149.43H15472.4V1158ZM15481.3 1153.7C15481.3 1154.4 15481.3 1155.02 15481.2 1155.58C15481 1156.12 15480.9 1156.58 15480.7 1156.96C15480.4 1157.33 15480.1 1157.62 15479.8 1157.82C15479.4 1158.02 15479 1158.12 15478.5 1158.12C15477.9 1158.12 15477.3 1157.95 15476.9 1157.6C15476.5 1157.25 15476.2 1156.75 15476 1156.09C15475.8 1155.43 15475.7 1154.63 15475.7 1153.7C15475.7 1152.79 15475.8 1152.01 15476 1151.35C15476.1 1150.69 15476.4 1150.18 15476.9 1149.83C15477.3 1149.48 15477.8 1149.3 15478.5 1149.3C15479.1 1149.3 15479.7 1149.48 15480.1 1149.83C15480.5 1150.18 15480.8 1150.68 15481 1151.34C15481.2 1152 15481.3 1152.78 15481.3 1153.7ZM15476.6 1153.7C15476.6 1154.51 15476.7 1155.18 15476.8 1155.72C15476.9 1156.25 15477.1 1156.65 15477.4 1156.92C15477.7 1157.18 15478 1157.32 15478.5 1157.32C15478.9 1157.32 15479.3 1157.18 15479.6 1156.92C15479.8 1156.66 15480 1156.26 15480.2 1155.72C15480.3 1155.18 15480.4 1154.51 15480.4 1153.7C15480.4 1152.91 15480.3 1152.25 15480.2 1151.72C15480 1151.19 15479.9 1150.78 15479.6 1150.51C15479.3 1150.24 15479 1150.1 15478.5 1150.1C15478 1150.1 15477.7 1150.24 15477.4 1150.52C15477.1 1150.8 15476.9 1151.2 15476.8 1151.74C15476.7 1152.26 15476.6 1152.92 15476.6 1153.7ZM15488.2 1153.7C15488.2 1154.4 15488.1 1155.02 15488 1155.58C15487.9 1156.12 15487.7 1156.58 15487.5 1156.96C15487.3 1157.33 15487 1157.62 15486.6 1157.82C15486.3 1158.02 15485.9 1158.12 15485.4 1158.12C15484.7 1158.12 15484.2 1157.95 15483.8 1157.6C15483.4 1157.25 15483.1 1156.75 15482.8 1156.09C15482.6 1155.43 15482.5 1154.63 15482.5 1153.7C15482.5 1152.79 15482.6 1152.01 15482.8 1151.35C15483 1150.69 15483.3 1150.18 15483.7 1149.83C15484.1 1149.48 15484.7 1149.3 15485.4 1149.3C15486 1149.3 15486.5 1149.48 15486.9 1149.83C15487.4 1150.18 15487.7 1150.68 15487.9 1151.34C15488.1 1152 15488.2 1152.78 15488.2 1153.7ZM15483.5 1153.7C15483.5 1154.51 15483.6 1155.18 15483.7 1155.72C15483.8 1156.25 15484 1156.65 15484.3 1156.92C15484.5 1157.18 15484.9 1157.32 15485.4 1157.32C15485.8 1157.32 15486.2 1157.18 15486.4 1156.92C15486.7 1156.66 15486.9 1156.26 15487 1155.72C15487.2 1155.18 15487.2 1154.51 15487.2 1153.7C15487.2 1152.91 15487.2 1152.25 15487 1151.72C15486.9 1151.19 15486.7 1150.78 15486.4 1150.51C15486.2 1150.24 15485.8 1150.1 15485.4 1150.1C15484.9 1150.1 15484.5 1150.24 15484.3 1150.52C15484 1150.8 15483.8 1151.2 15483.7 1151.74C15483.6 1152.26 15483.5 1152.92 15483.5 1153.7Z" fill="#707070" id="n2305"/>
<path d="M15134.4 818H15128.8V817.22L15131.1 814.856C15131.5 814.432 15131.9 814.052 15132.2 813.716C15132.5 813.38 15132.7 813.048 15132.8 812.72C15133 812.392 15133.1 812.028 15133.1 811.628C15133.1 811.14 15132.9 810.768 15132.6 810.512C15132.3 810.248 15132 810.116 15131.5 810.116C15131.1 810.116 15130.7 810.188 15130.4 810.332C15130.1 810.476 15129.8 810.676 15129.4 810.932L15128.9 810.296C15129.1 810.104 15129.4 809.936 15129.7 809.792C15129.9 809.64 15130.2 809.524 15130.5 809.444C15130.8 809.356 15131.2 809.312 15131.5 809.312C15132 809.312 15132.5 809.404 15132.8 809.588C15133.2 809.772 15133.5 810.036 15133.7 810.38C15133.9 810.716 15134 811.116 15134 811.58C15134 811.924 15134 812.248 15133.9 812.552C15133.8 812.848 15133.6 813.14 15133.4 813.428C15133.3 813.708 15133 813.996 15132.8 814.292C15132.5 814.58 15132.2 814.884 15131.9 815.204L15130 817.1V817.136H15134.4V818ZM15141.3 813.704C15141.3 814.4 15141.3 815.024 15141.2 815.576C15141 816.12 15140.9 816.58 15140.7 816.956C15140.4 817.332 15140.1 817.62 15139.8 817.82C15139.4 818.02 15139 818.12 15138.5 818.12C15137.9 818.12 15137.3 817.948 15136.9 817.604C15136.5 817.252 15136.2 816.748 15136 816.092C15135.8 815.428 15135.7 814.632 15135.7 813.704C15135.7 812.792 15135.8 812.008 15136 811.352C15136.1 810.688 15136.4 810.18 15136.9 809.828C15137.3 809.476 15137.8 809.3 15138.5 809.3C15139.1 809.3 15139.7 809.476 15140.1 809.828C15140.5 810.18 15140.8 810.684 15141 811.34C15141.2 811.996 15141.3 812.784 15141.3 813.704ZM15136.6 813.704C15136.6 814.512 15136.7 815.184 15136.8 815.72C15136.9 816.248 15137.1 816.648 15137.4 816.92C15137.7 817.184 15138 817.316 15138.5 817.316C15138.9 817.316 15139.3 817.184 15139.6 816.92C15139.8 816.656 15140 816.256 15140.2 815.72C15140.3 815.184 15140.4 814.512 15140.4 813.704C15140.4 812.912 15140.3 812.252 15140.2 811.724C15140 811.188 15139.9 810.784 15139.6 810.512C15139.3 810.24 15139 810.104 15138.5 810.104C15138 810.104 15137.7 810.244 15137.4 810.524C15137.1 810.796 15136.9 811.2 15136.8 811.736C15136.7 812.264 15136.6 812.92 15136.6 813.704ZM15148.2 813.704C15148.2 814.4 15148.1 815.024 15148 815.576C15147.9 816.12 15147.7 816.58 15147.5 816.956C15147.3 817.332 15147 817.62 15146.6 817.82C15146.3 818.02 15145.9 818.12 15145.4 818.12C15144.7 818.12 15144.2 817.948 15143.8 817.604C15143.4 817.252 15143.1 816.748 15142.8 816.092C15142.6 815.428 15142.5 814.632 15142.5 813.704C15142.5 812.792 15142.6 812.008 15142.8 811.352C15143 810.688 15143.3 810.18 15143.7 809.828C15144.1 809.476 15144.7 809.3 15145.4 809.3C15146 809.3 15146.5 809.476 15146.9 809.828C15147.4 810.18 15147.7 810.684 15147.9 811.34C15148.1 811.996 15148.2 812.784 15148.2 813.704ZM15143.5 813.704C15143.5 814.512 15143.6 815.184 15143.7 815.72C15143.8 816.248 15144 816.648 15144.3 816.92C15144.5 817.184 15144.9 817.316 15145.4 817.316C15145.8 817.316 15146.2 817.184 15146.4 816.92C15146.7 816.656 15146.9 816.256 15147 815.72C15147.2 815.184 15147.2 814.512 15147.2 813.704C15147.2 812.912 15147.2 812.252 15147 811.724C15146.9 811.188 15146.7 810.784 15146.4 810.512C15146.2 810.24 15145.8 810.104 15145.4 810.104C15144.9 810.104 15144.5 810.244 15144.3 810.524C15144 810.796 15143.8 811.2 15143.7 811.736C15143.6 812.264 15143.5 812.92 15143.5 813.704Z" fill="#707070" id="n2306"/>
<path d="M15294.8 813.704C15294.8 814.4 15294.8 815.024 15294.7 815.576C15294.5 816.12 15294.4 816.58 15294.2 816.956C15293.9 817.332 15293.6 817.62 15293.3 817.82C15292.9 818.02 15292.5 818.12 15292 818.12C15291.4 818.12 15290.8 817.948 15290.4 817.604C15290 817.252 15289.7 816.748 15289.5 816.092C15289.3 815.428 15289.2 814.632 15289.2 813.704C15289.2 812.792 15289.3 812.008 15289.5 811.352C15289.6 810.688 15289.9 810.18 15290.4 809.828C15290.8 809.476 15291.3 809.3 15292 809.3C15292.6 809.3 15293.2 809.476 15293.6 809.828C15294 810.18 15294.3 810.684 15294.5 811.34C15294.7 811.996 15294.8 812.784 15294.8 813.704ZM15290.1 813.704C15290.1 814.512 15290.2 815.184 15290.3 815.72C15290.4 816.248 15290.6 816.648 15290.9 816.92C15291.2 817.184 15291.5 817.316 15292 817.316C15292.4 817.316 15292.8 817.184 15293.1 816.92C15293.3 816.656 15293.5 816.256 15293.7 815.72C15293.8 815.184 15293.9 814.512 15293.9 813.704C15293.9 812.912 15293.8 812.252 15293.7 811.724C15293.5 811.188 15293.4 810.784 15293.1 810.512C15292.8 810.24 15292.5 810.104 15292 810.104C15291.5 810.104 15291.2 810.244 15290.9 810.524C15290.6 810.796 15290.4 811.2 15290.3 811.736C15290.2 812.264 15290.1 812.92 15290.1 813.704Z" fill="#707070" id="n2307"/>
<path d="M15441.4 818H15435.8V817.22L15438.1 814.856C15438.5 814.432 15438.9 814.052 15439.2 813.716C15439.5 813.38 15439.7 813.048 15439.8 812.72C15440 812.392 15440.1 812.028 15440.1 811.628C15440.1 811.14 15439.9 810.768 15439.6 810.512C15439.3 810.248 15439 810.116 15438.5 810.116C15438.1 810.116 15437.7 810.188 15437.4 810.332C15437.1 810.476 15436.8 810.676 15436.4 810.932L15435.9 810.296C15436.1 810.104 15436.4 809.936 15436.7 809.792C15436.9 809.64 15437.2 809.524 15437.5 809.444C15437.8 809.356 15438.2 809.312 15438.5 809.312C15439 809.312 15439.5 809.404 15439.8 809.588C15440.2 809.772 15440.5 810.036 15440.7 810.38C15440.9 810.716 15441 811.116 15441 811.58C15441 811.924 15441 812.248 15440.9 812.552C15440.8 812.848 15440.6 813.14 15440.4 813.428C15440.3 813.708 15440 813.996 15439.8 814.292C15439.5 814.58 15439.2 814.884 15438.9 815.204L15437 817.1V817.136H15441.4V818ZM15448.3 813.704C15448.3 814.4 15448.3 815.024 15448.2 815.576C15448 816.12 15447.9 816.58 15447.7 816.956C15447.4 817.332 15447.1 817.62 15446.8 817.82C15446.4 818.02 15446 818.12 15445.5 818.12C15444.9 818.12 15444.3 817.948 15443.9 817.604C15443.5 817.252 15443.2 816.748 15443 816.092C15442.8 815.428 15442.7 814.632 15442.7 813.704C15442.7 812.792 15442.8 812.008 15443 811.352C15443.1 810.688 15443.4 810.18 15443.9 809.828C15444.3 809.476 15444.8 809.3 15445.5 809.3C15446.1 809.3 15446.7 809.476 15447.1 809.828C15447.5 810.18 15447.8 810.684 15448 811.34C15448.2 811.996 15448.3 812.784 15448.3 813.704ZM15443.6 813.704C15443.6 814.512 15443.7 815.184 15443.8 815.72C15443.9 816.248 15444.1 816.648 15444.4 816.92C15444.7 817.184 15445 817.316 15445.5 817.316C15445.9 817.316 15446.3 817.184 15446.6 816.92C15446.8 816.656 15447 816.256 15447.2 815.72C15447.3 815.184 15447.4 814.512 15447.4 813.704C15447.4 812.912 15447.3 812.252 15447.2 811.724C15447 811.188 15446.9 810.784 15446.6 810.512C15446.3 810.24 15446 810.104 15445.5 810.104C15445 810.104 15444.7 810.244 15444.4 810.524C15444.1 810.796 15443.9 811.2 15443.8 811.736C15443.7 812.264 15443.6 812.92 15443.6 813.704ZM15455.2 813.704C15455.2 814.4 15455.1 815.024 15455 815.576C15454.9 816.12 15454.7 816.58 15454.5 816.956C15454.3 817.332 15454 817.62 15453.6 817.82C15453.3 818.02 15452.9 818.12 15452.4 818.12C15451.7 818.12 15451.2 817.948 15450.8 817.604C15450.4 817.252 15450.1 816.748 15449.8 816.092C15449.6 815.428 15449.5 814.632 15449.5 813.704C15449.5 812.792 15449.6 812.008 15449.8 811.352C15450 810.688 15450.3 810.18 15450.7 809.828C15451.1 809.476 15451.7 809.3 15452.4 809.3C15453 809.3 15453.5 809.476 15453.9 809.828C15454.4 810.18 15454.7 810.684 15454.9 811.34C15455.1 811.996 15455.2 812.784 15455.2 813.704ZM15450.5 813.704C15450.5 814.512 15450.6 815.184 15450.7 815.72C15450.8 816.248 15451 816.648 15451.3 816.92C15451.5 817.184 15451.9 817.316 15452.4 817.316C15452.8 817.316 15453.2 817.184 15453.4 816.92C15453.7 816.656 15453.9 816.256 15454 815.72C15454.2 815.184 15454.2 814.512 15454.2 813.704C15454.2 812.912 15454.2 812.252 15454 811.724C15453.9 811.188 15453.7 810.784 15453.4 810.512C15453.2 810.24 15452.8 810.104 15452.4 810.104C15451.9 810.104 15451.5 810.244 15451.3 810.524C15451 810.796 15450.8 811.2 15450.7 811.736C15450.6 812.264 15450.5 812.92 15450.5 813.704Z" fill="#707070" id="n2308"/>
<g mask="url(#mask245_68_6728)" id="n2310">
<g clip-path="url(#clip138_68_6728)" id="n2311">
<path fill-rule="evenodd" clip-rule="evenodd" d="M14927.8 906.348C14927.8 908.787 14927.6 910.781 14927.3 910.781C14926.6 910.781 14926.4 909.205 14926.6 905.379C14926.9 900.381 14927.8 901.114 14927.8 906.348ZM14927.5 930.038C14927.7 931.79 14928.1 946.94 14928.4 963.702C14928.7 980.465 14929.1 997.672 14929.3 1001.94C14929.6 1009.32 14929.7 1015.14 14929.5 1017.87C14929 1024.88 14930.1 1071.51 14930.8 1076.19C14932.2 1085.06 14932.1 1087 14930.1 1087C14928.5 1087 14928.4 1086.86 14928.4 1084.92C14928.4 1083.78 14928.3 1080.47 14928.1 1077.58C14928 1074.68 14927.8 1056.98 14927.6 1038.24C14927.2 997.191 14927 991.687 14925.6 991.687C14924.8 991.687 14924.6 990.773 14924 986.284C14922.9 976.617 14922.2 972.603 14921.4 970.699C14920.2 967.994 14919.8 968.97 14920 973.981C14920.1 976.886 14919.9 978.387 14919.5 978.387C14919.2 978.387 14918.9 977.23 14918.9 975.576C14918.9 972.312 14917.3 971.751 14916.6 974.792C14916.4 975.702 14916.3 971.959 14916.2 966.473C14916.2 956.968 14916.2 956.368 14917.5 953.728C14918.4 952.019 14918.8 950.461 14918.6 949.663C14918.3 948.682 14918.7 947.979 14920 946.754C14922.7 944.323 14923.4 944.805 14923.4 949.063C14923.4 950.257 14923.6 951.234 14923.9 951.234C14924.6 951.234 14925.1 945.448 14925.1 937.382C14925.1 928.025 14926.8 922.854 14927.5 930.038ZM15081 959.685C15081.2 960.371 15081.5 965.794 15081.6 971.738C15082.8 1014.42 15085.4 1030.04 15088.5 1013.26C15088.8 1011.56 15089.7 1008.72 15090.5 1006.94C15091.3 1005.16 15092.3 1002.29 15092.7 1000.56C15093.5 997.63 15094.7 994.739 15096.7 990.994C15098.3 987.998 15100.8 989.513 15102.2 994.401C15103.4 998.383 15104.3 997.789 15104.8 992.751C15105.5 984.925 15107.6 977.196 15109.3 976.547C15112.2 975.463 15116.4 981.911 15116.4 987.376C15116.4 988.187 15116.6 989.005 15116.9 989.193C15117.2 989.382 15117.5 990.463 15117.5 991.596C15117.5 992.73 15117.9 994.214 15118.3 994.894C15118.8 995.574 15119.8 999.644 15120.5 1003.94C15122.3 1014.57 15123.9 1018.96 15126.3 1020.11C15127.2 1020.54 15128 1021.58 15128.4 1023C15132.2 1035.5 15132.7 1036.57 15134.8 1036.57C15135.3 1036.57 15137.2 1038.08 15139.1 1039.91C15143.4 1044.19 15145.5 1045.11 15150.6 1044.88C15162.3 1044.35 15162.4 1044.36 15168.1 1051.27C15171.4 1055.22 15175.3 1058.18 15177.3 1058.18C15177.8 1058.18 15178.3 1058.68 15178.5 1059.28C15179.1 1061.48 15185.8 1065.14 15186.7 1063.73C15186.9 1063.42 15187.4 1063.17 15187.9 1063.17C15188.4 1063.17 15189.5 1062.55 15190.4 1061.79C15191.3 1061.02 15192.6 1060.4 15193.3 1060.4C15194 1060.4 15194.8 1060.12 15195.2 1059.78C15195.6 1059.32 15196.6 1059.34 15198.7 1059.86C15203.2 1060.94 15203.7 1060.14 15203.7 1050.38C15203.7 1045.07 15203.9 1042.04 15204.5 1040.6C15204.9 1039.45 15205.4 1036.14 15205.6 1033.25C15206.2 1021.63 15206.6 1017.73 15207.1 1017.73C15207.3 1017.73 15207.6 1017.92 15207.6 1018.15C15207.6 1020.49 15209.5 1028.57 15210.6 1030.83C15211.4 1032.41 15212.5 1035.04 15213 1036.66C15214.2 1040.15 15216 1040.83 15218.7 1038.83C15219.6 1038.2 15220.9 1037.68 15221.6 1037.68C15223.5 1037.68 15225.7 1035.28 15226.2 1032.82C15229 1017.09 15233.8 1017.07 15236.2 1032.77C15236.6 1035.62 15237.6 1041.7 15238.3 1046.27C15239.1 1050.84 15240 1056.86 15240.4 1059.64C15242.5 1076.26 15244.6 1074.62 15245.4 1055.69C15246.2 1036.94 15246.8 1031.12 15247.8 1030C15248.3 1029.47 15248.9 1028.05 15249.1 1026.85C15249.7 1024.14 15251 1023.97 15251.8 1026.49C15252.6 1028.8 15253.2 1028.95 15254.2 1027.01C15254.9 1025.47 15256.8 1024.93 15257.2 1026.14C15257.6 1027.53 15258.7 1025.87 15258.7 1023.77C15258.7 1022.55 15259.1 1019.88 15259.5 1017.84C15259.9 1015.8 15260.6 1012.26 15261 1009.97C15262 1003.49 15262.5 1002.94 15264.1 1006.37C15264.6 1007.44 15265.3 1008.31 15265.5 1008.31C15266.7 1008.31 15270 998.142 15271 991.17C15271.3 989.209 15271.7 987.351 15272.1 987.041C15272.4 986.731 15272.6 985.655 15272.6 984.649C15272.6 979.578 15275.7 983.741 15276.2 989.47C15276.5 993.708 15277.9 1004.48 15278.8 1009.97C15279.5 1014.54 15280.4 1021.79 15281 1027.71C15282.2 1039.09 15282.2 1039.28 15284.4 1037.36C15285.2 1036.56 15285.4 1036.56 15286.7 1037.38C15288 1038.23 15288.1 1038.19 15289.9 1036.51L15291.8 1034.76L15292 1040.68C15292.2 1048.23 15291.5 1049.56 15287 1050.05C15285.3 1050.23 15283.4 1050.53 15282.5 1050.73C15281.2 1051.06 15281 1050.91 15280.4 1048.96C15279.3 1045.05 15277.1 1027.54 15275.9 1013.58C15275.6 1009.61 15275.2 1005.79 15275.1 1005.09C15274.7 1003.46 15273.5 1003.8 15273.3 1005.58C15273.2 1006.32 15272.9 1007.18 15272.6 1007.49C15272.4 1007.79 15272 1009.66 15271.8 1011.64C15271.5 1014.49 15271 1015.86 15269.4 1018.23C15268.3 1019.87 15267.1 1021.69 15266.7 1022.28C15266.4 1022.86 15265.5 1024.01 15264.7 1024.83C15262.4 1027.25 15262.1 1028.27 15261.5 1036.07C15260.8 1043.63 15260.4 1044.88 15258.2 1044.88C15257.8 1044.88 15257 1045.25 15256.5 1045.71C15255.4 1046.72 15253.4 1045.58 15252.6 1043.44C15251.9 1041.67 15251 1041.76 15250.6 1043.64C15250.4 1044.48 15250.1 1046.03 15249.8 1047.1C15249.6 1048.17 15249.2 1052.03 15249 1055.69C15248.8 1059.35 15248.4 1064.71 15248.1 1067.6C15247.8 1070.5 15247.3 1075.08 15247 1077.79C15246.5 1083.39 15246 1084.23 15244.1 1083C15241.1 1081.03 15239.5 1074.79 15236.7 1054.31C15235.8 1047.75 15233.6 1039.96 15232.4 1039.22C15231.1 1038.38 15230.4 1038.81 15230.4 1040.43C15230.4 1042.22 15224 1049.02 15222.8 1048.55C15222.5 1048.42 15221.1 1048.8 15219.7 1049.41C15218.1 1050.15 15216.4 1050.44 15214.5 1050.32L15211.7 1050.15L15211.6 1054.03C15211.4 1058.6 15210.3 1060.4 15210.3 1056.17C15210.3 1053.07 15210 1052.35 15208.9 1053.27C15208.4 1053.64 15208.1 1055.02 15208.1 1056.7C15208.1 1060.59 15206.5 1073.31 15205.9 1073.93C15205.6 1074.22 15205 1073.91 15204.4 1073.17C15202.3 1070.64 15193.9 1071.13 15190.9 1073.96C15189.3 1075.4 15187 1075.29 15182 1073.51C15180.6 1073.02 15178.8 1072.49 15177.9 1072.31C15177.1 1072.14 15176.2 1071.58 15176 1071.05C15175.8 1070.53 15174.6 1069.14 15173.3 1067.97C15171.9 1066.8 15170.9 1065.56 15170.8 1065.2C15170.8 1064.85 15170 1063.64 15169 1062.53C15168 1061.41 15166.6 1059.64 15165.8 1058.6C15164.9 1057.55 15163.3 1056.27 15162.1 1055.75C15161 1055.23 15159.6 1054.55 15159 1054.25C15158.3 1053.86 15157.8 1053.88 15157.3 1054.28C15156.9 1054.61 15156.2 1054.73 15155.7 1054.55C15155.2 1054.38 15154.7 1054.5 15154.5 1054.82C15153.9 1055.78 15146.1 1055.57 15145.3 1054.58C15144.9 1054.13 15144.1 1053.74 15143.4 1053.73C15142.7 1053.72 15141.7 1053.35 15141.1 1052.9C15140.5 1052.46 15139.6 1052.09 15139.1 1052.09C15138.5 1052.09 15138 1051.88 15138 1051.63C15138 1051.05 15131.1 1046.08 15129.4 1045.42C15128.4 1045.05 15128 1044.48 15128 1043.37C15128 1042.53 15127.3 1040.47 15126.4 1038.79C15121 1028.7 15120.1 1026.58 15119.7 1022.14C15119.1 1016.87 15118.8 1015.72 15117.7 1015.31C15117.3 1015.14 15116.9 1014.43 15116.9 1013.73C15116.9 1013.04 15116.6 1011.35 15116.1 1009.97C15115.7 1008.6 15115.2 1006.04 15115 1004.28C15114.8 1002.29 15114.2 1000.71 15113.6 1000.12C15113 999.596 15112.2 997.796 15111.8 996.12C15110.9 992.196 15109.1 991.773 15108.4 995.289C15108.2 996.508 15107.7 998.628 15107.4 999.999C15107.1 1001.37 15106.8 1003.49 15106.6 1004.71C15105.7 1011.75 15104.5 1012.8 15102.2 1008.42C15101.1 1006.17 15099.9 1004.99 15098.9 1004.99C15098.4 1004.99 15094.7 1011.7 15094.7 1012.58C15094.7 1013.16 15094.4 1013.9 15094.1 1014.22C15093.7 1014.55 15093.2 1016.28 15092.8 1018.07C15090.6 1027.54 15086.9 1033.41 15084.6 1030.73C15083.1 1028.91 15081.8 1020.13 15080.7 1004.57C15079.6 988.919 15078.3 992.701 15077.2 1014.97C15076.8 1021.99 15074.6 1046.68 15074.2 1047.66C15074.1 1048.11 15073.9 1052.1 15073.8 1056.52C15073.7 1062.44 15073.5 1065.19 15072.8 1066.98C15072.3 1068.32 15071.9 1070.23 15071.9 1071.24C15071.9 1072.25 15071.6 1073.24 15071.3 1073.42C15071 1073.61 15070.7 1074.69 15070.7 1075.81C15070.6 1080.93 15068.3 1086.71 15066.4 1086.9C15064.1 1087.12 15062.4 1085.75 15062.4 1083.77C15062.4 1083 15061.9 1080.48 15061.4 1078.17C15060.5 1074.57 15058.9 1067.24 15057.6 1060.45C15057.4 1059.41 15056.8 1057.78 15056.2 1056.85C15055.7 1055.91 15055.2 1054.55 15055.2 1053.83C15055.2 1053.12 15054.8 1051.75 15054.4 1050.79C15054 1049.83 15053.4 1048.29 15053 1047.38C15052.6 1046.46 15052.2 1042.15 15052 1037.68C15051.9 1033.26 15051.7 1029.07 15051.5 1028.36C15051.1 1026.31 15049.9 1027.29 15049.6 1029.96C15049.4 1032.26 15049.2 1032.42 15047.4 1032.72C15044.9 1033.11 15044.1 1033.63 15044.1 1034.72C15044.1 1035.92 15039.7 1040.44 15037.6 1041.31C15036.7 1041.71 15035.6 1042.74 15035.2 1043.6C15034.7 1044.46 15033.5 1046.14 15032.5 1047.34C15031.5 1048.54 15030.7 1049.73 15030.7 1049.98C15030.7 1050.24 15030.1 1051.44 15029.3 1052.64C15028.6 1053.85 15027.9 1055.34 15027.9 1055.96C15027.9 1057.15 15027.1 1057.5 15026.7 1056.45C15026.5 1055.98 15026 1055.99 15024.6 1056.5C15022.1 1057.36 15019.6 1056.53 15019.6 1054.87C15019.6 1054.26 15019.3 1053.75 15018.8 1053.75C15018.4 1053.75 15017.4 1053 15016.6 1052.09C15015.8 1051.17 15014.9 1050.43 15014.6 1050.43C15014.3 1050.43 15014 1050.08 15014 1049.65C15014 1049.22 15012.9 1048.22 15011.6 1047.42C15009.6 1046.28 15009 1045.6 15008.8 1044.18C15007.7 1036.54 15007.4 1032.45 15007.3 1025.21C15007.2 1018.92 15007 1016.58 15006.4 1015.57L15005.6 1014.24L15004.3 1017.02C15002.9 1019.98 15002.8 1021.24 15001.8 1038.51C15001 1051.63 15000.4 1054.31 14997.9 1054.31C14996.9 1054.31 14994.6 1057.99 14994.6 1059.54C14994.6 1062.86 14985.2 1068.67 14983.8 1066.22C14983.4 1065.61 14982.8 1064.91 14982.5 1064.66C14982.1 1064.42 14981.3 1063.68 14980.6 1063.02C14979.6 1061.87 14976.2 1060.64 14972.5 1060.02C14970.5 1059.7 14969.6 1060.91 14968.7 1065.39C14968.5 1066.46 14968 1067.71 14967.6 1068.17C14967.2 1068.63 14966.6 1070.65 14966.2 1072.67C14965.5 1077.12 14964.5 1080.25 14962.5 1084.09L14960.9 1087L14957.7 1087C14954.9 1087 14954.5 1086.88 14954.5 1085.87C14954.5 1083.83 14956 1081.07 14958 1079.59C14960.8 1077.49 14962.7 1072.13 14964.3 1062.57C14964.7 1059.79 14965.4 1057.05 14965.7 1056.48C14966 1055.91 14966.6 1052.92 14967.1 1049.85C14968.2 1042.64 14970.1 1039.58 14971 1043.64C14972 1048.48 14973.6 1050.98 14975.6 1050.98C14976.2 1050.98 14976.9 1051.23 14977 1051.53C14977.2 1051.84 14977.8 1052.09 14978.3 1052.09C14978.8 1052.09 14980.5 1053.46 14982 1055.14C14986.4 1059.84 14990.7 1058.28 14990.7 1051.96C14990.7 1051.27 14991 1050.04 14991.5 1049.22C14991.9 1048.41 14992.4 1046.73 14992.6 1045.48C14992.9 1043.59 14994.7 1041.47 14995.5 1042.02C14996.1 1042.37 14996.7 1041.97 14997 1041.14C14997.2 1040.61 14997.8 1039.41 14998.4 1038.48C14999.3 1037 14999.5 1035.16 14999.8 1024.34C15000 1017.51 15000.4 1010.79 15000.7 1009.42C15001 1008.05 15001.5 1004.57 15001.8 1001.7C15002.7 994.27 15006.1 988.924 15006.7 993.909C15006.8 994.668 15007.2 996.098 15007.7 997.088C15008.3 998.352 15008.7 1002.38 15009.1 1010.66C15009.3 1017.14 15009.8 1024.11 15010.1 1026.15C15010.4 1028.19 15010.7 1030.9 15010.7 1032.16C15010.7 1034.96 15012 1037.97 15013.9 1039.24C15014.6 1039.75 15016.4 1041.36 15017.9 1042.81C15022.1 1046.88 15026.2 1045.4 15029.3 1038.66C15029.8 1037.52 15031.2 1035.43 15032.4 1034.01C15033.7 1032.59 15035.1 1030.84 15035.5 1030.12C15036 1029.4 15036.7 1028.81 15037.1 1028.81C15037.5 1028.81 15038.4 1027.63 15039.1 1026.18C15040.1 1024.25 15040.8 1023.5 15041.8 1023.36C15044.1 1023.06 15046.1 1020.72 15046.6 1017.82C15046.8 1016.4 15047.3 1014.4 15047.7 1013.37C15048.2 1012.34 15048.5 1010.95 15048.5 1010.27C15048.5 1008.64 15050.3 1007.07 15051.9 1007.3C15053.6 1007.54 15054 1009.43 15053.7 1017.56C15053.4 1026.87 15056.1 1044.11 15058.3 1046.55C15058.6 1047 15059.1 1048.87 15059.2 1050.7C15059.4 1052.53 15059.9 1055.89 15060.4 1058.17C15060.9 1060.45 15061.8 1064.94 15062.4 1068.14C15063.8 1076.29 15064.8 1078.53 15066.2 1076.82C15067.4 1075.39 15071.7 1050.33 15072.4 1040.73C15072.7 1036.77 15073.1 1032.78 15073.2 1031.86C15073.5 1030.24 15074.3 1019.8 15075.2 1005.26C15075.9 994.372 15076.8 986.043 15078 978.514C15078.7 974.427 15079.1 969.065 15079.1 965.076C15079.1 958.529 15080 956.037 15081 959.685ZM15090.2 965.919C15090.2 966.681 15090 967.304 15089.7 967.304C15089.4 967.304 15089.1 966.681 15089.1 965.919C15089.1 965.157 15089.4 964.534 15089.7 964.534C15090 964.534 15090.2 965.157 15090.2 965.919ZM14920 984.206C14920 985.577 14919.8 986.7 14919.5 986.7C14919.2 986.7 14918.9 985.577 14918.9 984.206C14918.9 982.834 14919.2 981.712 14919.5 981.712C14919.8 981.712 14920 982.834 14920 984.206ZM15211.1 1059.77C15211.4 1060.16 15211.4 1060.62 15211.2 1060.81C15210.7 1061.3 15210.2 1060.57 15210.5 1059.77C15210.6 1059.21 15210.8 1059.21 15211.1 1059.77ZM15277.6 1068.44C15277.6 1073.05 15277.4 1075.92 15277.1 1075.92C15276.7 1075.92 15276.5 1073.05 15276.5 1068.44C15276.5 1063.82 15276.7 1060.96 15277.1 1060.96C15277.4 1060.96 15277.6 1063.82 15277.6 1068.44ZM15106.9 1067.88C15106.9 1069.25 15106.7 1070.38 15106.3 1070.38C15106 1070.38 15105.8 1069.25 15105.8 1067.88C15105.8 1066.51 15106 1065.39 15106.3 1065.39C15106.7 1065.39 15106.9 1066.51 15106.9 1067.88ZM15052.4 1072.59C15052.4 1075.55 15052.2 1077.58 15051.8 1077.58C15051.5 1077.58 15051.3 1075.55 15051.3 1072.59C15051.3 1069.64 15051.5 1067.6 15051.8 1067.6C15052.2 1067.6 15052.4 1069.64 15052.4 1072.59ZM15155.8 1072.87C15155.8 1073.63 15155.6 1074.25 15155.3 1074.25C15155 1074.25 15154.7 1073.63 15154.7 1072.87C15154.7 1072.11 15155 1071.48 15155.3 1071.48C15155.6 1071.48 15155.8 1072.11 15155.8 1072.87ZM15106.9 1075.36C15106.9 1075.67 15106.7 1075.92 15106.3 1075.92C15106 1075.92 15105.8 1075.67 15105.8 1075.36C15105.8 1075.06 15106 1074.81 15106.3 1074.81C15106.7 1074.81 15106.9 1075.06 15106.9 1075.36ZM15017.4 1077.58C15017.4 1078.49 15017.1 1079.24 15016.8 1079.24C15016.5 1079.24 15016.3 1078.49 15016.3 1077.58C15016.3 1076.67 15016.5 1075.92 15016.8 1075.92C15017.1 1075.92 15017.4 1076.67 15017.4 1077.58ZM14968.4 1082.01C14968.4 1084.97 14968.2 1087 14967.9 1087C14967.5 1087 14967.3 1084.97 14967.3 1082.01C14967.3 1079.06 14967.5 1077.03 14967.9 1077.03C14968.2 1077.03 14968.4 1079.06 14968.4 1082.01ZM15005.1 1084.51C15005.1 1085.88 15004.9 1087 15004.6 1087C15004.3 1087 15004 1085.88 15004 1084.51C15004 1083.13 15004.3 1082.01 15004.6 1082.01C15004.9 1082.01 15005.1 1083.13 15005.1 1084.51ZM14927.3 1082.57C14927.3 1082.87 14927 1083.12 14926.7 1083.12C14926.4 1083.12 14926.2 1082.87 14926.2 1082.57C14926.2 1082.26 14926.4 1082.01 14926.7 1082.01C14927 1082.01 14927.3 1082.26 14927.3 1082.57Z" fill="#9CC1F5" id="n2312"/>
<path d="M15292 1035.19C15292 1035.19 15286 1043.65 15282.9 1037.18C15279.9 1030.71 15276.4 985.403 15273.4 985.403C15270.4 985.403 15269.8 1005.66 15264.8 1008.8C15259.8 1011.94 15257.6 1030.71 15255.8 1030.71C15251.7 1030.71 15251.2 1025.23 15249.2 1025.23C15247.2 1025.23 15245.7 1071.53 15242.7 1071.53C15239.6 1071.53 15234.6 1021.74 15231.1 1021.74C15229.4 1021.74 15226.6 1037.18 15223 1037.18C15219.5 1037.18 15217 1038.67 15215.5 1038.67C15212.5 1038.67 15209.9 1020.75 15206.9 1020.75C15203.9 1020.75 15204.9 1059.08 15201.4 1059.08C15197.9 1059.08 15190.3 1063.06 15183.8 1063.06C15177.2 1063.06 15171.7 1054.1 15166.6 1049.13C15161.6 1044.15 15155.6 1045.64 15148.5 1045.64C15141.5 1045.64 15139.5 1042.16 15133.4 1036.18C15130.7 1033.46 15127.9 1020.75 15123.9 1018.76C15119.8 1016.77 15112.7 976.442 15110.8 976.442C15107.2 976.442 15106.7 997.848 15103.2 997.848C15099.7 997.848 15099.7 990.381 15096.2 990.381C15092.6 990.381 15091.1 1020.25 15086.6 1020.25C15082.1 1020.25 15083.6 963 15079.6 963C15075.5 963 15070.5 1078 15066 1078C15061.4 1078 15062.9 1049.62 15058.4 1049.62C15053.9 1049.62 15055.9 1010.29 15051.4 1010.29C15049.2 1010.29 15041.8 1031.2 15035.8 1031.2C15029.7 1031.2 15025.8 1045.64 15023.2 1045.64C15018.1 1045.64 15017.6 1044.15 15012.1 1038.67C15006.6 1033.19 15008.1 994.861 15005 994.861C15002 994.861 15002.5 1041.66 14997 1041.66C14991.5 1041.66 14993 1058.58 14987.4 1058.58C14981.9 1058.58 14972.8 1045.64 14967.8 1045.64" stroke="#2D548B" stroke-width="2" stroke-linecap="square" id="n2313"/>
</g>
<g clip-path="url(#clip139_68_6728)" id="n2314">
<path d="M15612 1028.83C15612 1028.83 15606 1032.59 15602.9 1029.72C15599.9 1026.84 15596.4 1006.74 15593.4 1006.74C15590.4 1006.74 15589.8 1015.73 15584.8 1017.12C15579.8 1018.52 15577.6 1026.84 15575.8 1026.84C15571.7 1026.84 15571.2 1024.41 15569.2 1024.41C15567.2 1024.41 15565.7 1044.96 15562.7 1044.96C15559.6 1044.96 15554.6 1022.87 15551.1 1022.87C15549.4 1022.87 15546.6 1029.72 15543 1029.72C15539.5 1029.72 15537 1030.38 15535.5 1030.38C15532.5 1030.38 15529.9 1022.43 15526.9 1022.43C15523.9 1022.43 15524.9 1039.44 15521.4 1039.44C15517.9 1039.44 15510.3 1041.2 15503.8 1041.2C15497.2 1041.2 15491.7 1037.23 15486.6 1035.02C15481.6 1032.81 15475.6 1033.47 15468.5 1033.47C15461.5 1033.47 15459.5 1031.93 15453.4 1029.27C15450.7 1028.07 15447.9 1022.43 15443.9 1021.54C15439.8 1020.66 15432.7 1002.76 15430.8 1002.76C15427.2 1002.76 15426.7 1012.26 15423.2 1012.26C15419.7 1012.26 15419.7 1008.95 15416.2 1008.95C15412.6 1008.95 15411.1 1022.21 15406.6 1022.21C15402.1 1022.21 15403.6 996.8 15399.6 996.8C15395.5 996.8 15390.5 1047.83 15386 1047.83C15381.4 1047.83 15382.9 1035.24 15378.4 1035.24C15373.9 1035.24 15375.9 1017.79 15371.4 1017.79C15369.2 1017.79 15361.8 1027.07 15355.8 1027.07C15349.7 1027.07 15345.8 1033.47 15343.2 1033.47C15338.1 1033.47 15337.6 1032.81 15332.1 1030.38C15326.6 1027.95 15328.1 1010.94 15325 1010.94C15322 1010.94 15322.5 1031.7 15317 1031.7C15311.5 1031.7 15313 1039.22 15307.4 1039.22C15301.9 1039.22 15292.8 1033.47 15287.8 1033.47" stroke="#535353" stroke-width="2" stroke-dasharray="8 4" id="n2315"/>
</g>
<path d="M15292 836L15292 1163" stroke="#2D548B" stroke-linecap="round" stroke-dasharray="1 2" id="n2316"/>
<path d="M15292 827L15292 1033" stroke="#2D548B" stroke-linecap="round" id="n2317"/>
<circle cx="15292" cy="1033" r="6" fill="#2D548B" stroke="white" stroke-width="2" id="n2318"/>
</g>
</g>
</svg>
