<?xml version='1.0' encoding='utf-8'?>
<svg xmlns="http://www.w3.org/2000/svg" xmlns:xlink="http://www.w3.org/1999/xlink" width="384.0" height="168.0" viewBox="0 0 384.0 168.0" fill="none">
  <defs><clipPath id="clip__asset"><rect x="0" y="0" width="384.0" height="168.0"/></clipPath><mask id="mask63_68_6728" style="mask-type:luminance" maskUnits="userSpaceOnUse" x="2366" y="1188" width="512" height="512">
<path d="M2454 1420.8C2454 1416.32 2454 1414.08 2454.87 1412.37C2455.64 1410.86 2456.86 1409.64 2458.37 1408.87C2460.08 1408 2462.32 1408 2466.8 1408H2777.2C2781.68 1408 2783.92 1408 2785.63 1408.87C2787.14 1409.64 2788.36 1410.86 2789.13 1412.37C2790 1414.08 2790 1416.32 2790 1420.8V1432H2454V1420.8Z" fill="white" stroke="black" id="n554"/>
<rect x="2598" y="1480" width="72" height="48" transform="rotate(-90 2598 1480)" fill="black" stroke="black" id="n555"/>
</mask>
</defs>
  <g clip-path="url(#clip__asset)" transform="translate(-2430.0 -1360.0)"><path d="M2454 1420.8C2454 1416.32 2454 1414.08 2454.87 1412.37C2455.64 1410.86 2456.86 1409.64 2458.37 1408.87C2460.08 1408 2462.32 1408 2466.8 1408H2777.2C2781.68 1408 2783.92 1408 2785.63 1408.87C2787.14 1409.64 2788.36 1410.86 2789.13 1412.37C2790 1414.08 2790 1416.32 2790 1420.8V1467.2C2790 1471.68 2790 1473.92 2789.13 1475.63C2788.36 1477.14 2787.14 1478.36 2785.63 1479.13C2783.92 1480 2781.68 1480 2777.2 1480H2466.8C2462.32 1480 2460.08 1480 2458.37 1479.13C2456.86 1478.36 2455.64 1477.14 2454.87 1475.63C2454 1473.92 2454 1471.68 2454 1467.2V1420.8Z" fill="white" stroke="white" id="n541"/>
<path d="M2454 1432H2790V1467.2C2790 1471.68 2790 1473.92 2789.13 1475.63C2788.36 1477.14 2787.14 1478.36 2785.63 1479.13C2783.92 1480 2781.68 1480 2777.2 1480H2466.8C2462.32 1480 2460.08 1480 2458.37 1479.13C2456.86 1478.36 2455.64 1477.14 2454.87 1475.63C2454 1473.92 2454 1471.68 2454 1467.2V1432Z" fill="#F0F0F0" stroke="#F0F0F0" id="n542"/>
<path d="M2454 1420.8C2454 1416.32 2454 1414.08 2454.87 1412.37C2455.64 1410.86 2456.86 1409.64 2458.37 1408.87C2460.08 1408 2462.32 1408 2466.8 1408H2777.2C2781.68 1408 2783.92 1408 2785.63 1408.87C2787.14 1409.64 2788.36 1410.86 2789.13 1412.37C2790 1414.08 2790 1416.32 2790 1420.8V1467.2C2790 1471.68 2790 1473.92 2789.13 1475.63C2788.36 1477.14 2787.14 1478.36 2785.63 1479.13C2783.92 1480 2781.68 1480 2777.2 1480H2466.8C2462.32 1480 2460.08 1480 2458.37 1479.13C2456.86 1478.36 2455.64 1477.14 2454.87 1475.63C2454 1473.92 2454 1471.68 2454 1467.2V1420.8Z" stroke="#BEBEBE" id="n543"/>
<path d="M2646 1480L2607 1480L2598 1480L2598 1408L2607 1408L2646 1408L2646 1480Z" fill="white" stroke="#8E8E8E" id="n544"/>
<path d="M2598 1480L2598 1408L2602 1408L2602 1480L2598 1480Z" fill="#BEBEBE" id="n545"/>
<path d="M2642 1480L2642 1408L2646 1408L2646 1480L2642 1480Z" fill="#BEBEBE" id="n546"/>
<path d="M2598 1480L2598 1408L2602 1408L2602 1480L2598 1480Z" stroke="#BEBEBE" id="n547"/>
<path d="M2642 1480L2642 1408L2646 1408L2646 1480L2642 1480Z" stroke="#BEBEBE" id="n548"/>
<path d="M2598 1480L2646 1480M2598 1408L2646 1408" stroke="#BEBEBE" stroke-linecap="square" id="n549"/>
<path d="M2621.74 1369C2612.96 1369 2610 1408 2610 1408C2617.71 1408 2625.13 1410.83 2630.75 1415.44L2634 1418.1C2634 1404.83 2630.51 1369 2621.74 1369Z" fill="white" id="n550"/>
<path d="M2622.26 1519C2631.04 1519 2634 1480 2634 1480C2626.29 1480 2618.87 1477.17 2613.25 1472.56L2610 1469.9C2610 1483.17 2613.49 1519 2622.26 1519Z" fill="white" id="n551"/>
<path d="M2621.74 1369C2612.96 1369 2610 1408 2610 1408C2617.71 1408 2625.13 1410.83 2630.75 1415.44L2634 1418.1C2634 1404.83 2630.51 1369 2621.74 1369Z" stroke="#8E8E8E" id="n552"/>
<path d="M2622.26 1519C2631.04 1519 2634 1480 2634 1480C2626.29 1480 2618.87 1477.17 2613.25 1472.56L2610 1469.9C2610 1483.17 2613.49 1519 2622.26 1519Z" stroke="#8E8E8E" id="n553"/>
<g mask="url(#mask63_68_6728)" id="n556">
<path d="M2718 1404V1428M2790 1404V1428M2646 1404V1428" stroke="#BEBEBE" id="n557"/>
<path d="M2790 1404V1432M2646 1404V1432" stroke="#BEBEBE" id="n558"/>
<path d="M2526 1404V1428M2598 1404V1428M2454 1404V1428" stroke="#BEBEBE" id="n559"/>
<path d="M2598 1404V1432M2454 1404V1432" stroke="#BEBEBE" id="n560"/>
</g>
<path d="M2631.26 1404.9C2631.61 1405.68 2631.6 1406.66 2631.05 1407.48L2623.24 1419.05C2622.64 1419.93 2621.35 1419.93 2620.75 1419.05L2612.94 1407.48C2612.39 1406.66 2612.38 1405.68 2612.73 1404.9C2613.08 1404.12 2613.82 1403.5 2614.8 1403.5L2629.19 1403.5C2630.17 1403.5 2630.91 1404.12 2631.26 1404.9Z" fill="#535353" stroke="white" stroke-linejoin="round" id="n561"/>
</g>
</svg>
