<?xml version='1.0' encoding='utf-8'?>
<svg xmlns="http://www.w3.org/2000/svg" xmlns:xlink="http://www.w3.org/1999/xlink" width="384.0" height="168.0" viewBox="0 0 384.0 168.0" fill="none">
  <defs><clipPath id="clip__asset"><rect x="0" y="0" width="384.0" height="168.0"/></clipPath><mask id="mask64_68_6728" style="mask-type:luminance" maskUnits="userSpaceOnUse" x="2366" y="1452" width="512" height="512">
<path d="M2454 1684.8C2454 1680.32 2454 1678.08 2454.87 1676.37C2455.64 1674.86 2456.86 1673.64 2458.37 1672.87C2460.08 1672 2462.32 1672 2466.8 1672H2777.2C2781.68 1672 2783.92 1672 2785.63 1672.87C2787.14 1673.64 2788.36 1674.86 2789.13 1676.37C2790 1678.08 2790 1680.32 2790 1684.8V1696H2454V1684.8Z" fill="white" stroke="black" id="n573"/>
<rect x="2598" y="1744" width="72" height="48" transform="rotate(-90 2598 1744)" fill="black" stroke="black" id="n574"/>
</mask>
</defs>
  <g clip-path="url(#clip__asset)" transform="translate(-2430.0 -1624.0)"><path d="M2454 1684.8C2454 1680.32 2454 1678.08 2454.87 1676.37C2455.64 1674.86 2456.86 1673.64 2458.37 1672.87C2460.08 1672 2462.32 1672 2466.8 1672H2777.2C2781.68 1672 2783.92 1672 2785.63 1672.87C2787.14 1673.64 2788.36 1674.86 2789.13 1676.37C2790 1678.08 2790 1680.32 2790 1684.8V1731.2C2790 1735.68 2790 1737.92 2789.13 1739.63C2788.36 1741.14 2787.14 1742.36 2785.63 1743.13C2783.92 1744 2781.68 1744 2777.2 1744H2466.8C2462.32 1744 2460.08 1744 2458.37 1743.13C2456.86 1742.36 2455.64 1741.14 2454.87 1739.63C2454 1737.92 2454 1735.68 2454 1731.2V1684.8Z" stroke="#BEBEBE" id="n562"/>
<path d="M2646 1744L2607 1744L2598 1744L2598 1672L2607 1672L2646 1672L2646 1744Z" fill="#F7F7F7" stroke="#8E8E8E" id="n563"/>
<path d="M2598 1744L2598 1672L2602 1672L2602 1744L2598 1744Z" fill="#BEBEBE" id="n564"/>
<path d="M2642 1744L2642 1672L2646 1672L2646 1744L2642 1744Z" fill="#BEBEBE" id="n565"/>
<path d="M2598 1744L2598 1672L2602 1672L2602 1744L2598 1744Z" stroke="#BEBEBE" id="n566"/>
<path d="M2642 1744L2642 1672L2646 1672L2646 1744L2642 1744Z" stroke="#BEBEBE" id="n567"/>
<path d="M2598 1744L2646 1744M2598 1672L2646 1672" stroke="#BEBEBE" stroke-linecap="square" id="n568"/>
<path d="M2621.74 1633C2612.96 1633 2610 1672 2610 1672C2617.71 1672 2625.13 1674.83 2630.75 1679.44L2634 1682.1C2634 1668.83 2630.51 1633 2621.74 1633Z" fill="#F7F7F7" id="n569"/>
<path d="M2622.26 1783C2631.04 1783 2634 1744 2634 1744C2626.29 1744 2618.87 1741.17 2613.25 1736.56L2610 1733.9C2610 1747.17 2613.49 1783 2622.26 1783Z" fill="#F7F7F7" id="n570"/>
<path d="M2621.74 1633C2612.96 1633 2610 1672 2610 1672C2617.71 1672 2625.13 1674.83 2630.75 1679.44L2634 1682.1C2634 1668.83 2630.51 1633 2621.74 1633Z" stroke="#8E8E8E" id="n571"/>
<path d="M2622.26 1783C2631.04 1783 2634 1744 2634 1744C2626.29 1744 2618.87 1741.17 2613.25 1736.56L2610 1733.9C2610 1747.17 2613.49 1783 2622.26 1783Z" stroke="#8E8E8E" id="n572"/>
<g mask="url(#mask64_68_6728)" id="n575">
<path d="M2718 1668V1692M2790 1668V1692M2646 1668V1692" stroke="#BEBEBE" id="n576"/>
<path d="M2790 1668V1696M2646 1668V1696" stroke="#BEBEBE" id="n577"/>
<path d="M2526 1668V1692M2598 1668V1692M2454 1668V1692" stroke="#BEBEBE" id="n578"/>
<path d="M2598 1668V1696M2454 1668V1696" stroke="#BEBEBE" id="n579"/>
</g>
<path d="M2631.26 1668.9C2631.61 1669.68 2631.6 1670.66 2631.05 1671.48L2623.24 1683.05C2622.64 1683.93 2621.35 1683.93 2620.75 1683.05L2612.94 1671.48C2612.39 1670.66 2612.38 1669.68 2612.73 1668.9C2613.08 1668.12 2613.82 1667.5 2614.8 1667.5L2629.19 1667.5C2630.17 1667.5 2630.91 1668.12 2631.26 1668.9Z" fill="#BEBEBE" stroke="white" stroke-linejoin="round" id="n580"/>
</g>
</svg>
