<?xml version='1.0' encoding='utf-8'?>
<svg xmlns="http://www.w3.org/2000/svg" xmlns:xlink="http://www.w3.org/1999/xlink" width="32.0" height="32.0" viewBox="0 0 32.0 32.0" fill="none">
  <defs>
    <clipPath id="clip__asset">
      <rect x="0" y="0" width="32.0" height="32.0"/>
    </clipPath>
  </defs>
  <g clip-path="url(#clip__asset)" transform="translate(-1913.0 -384.0)"><path d="M1936.64 386.189L1933.08 391.286C1932.87 391.585 1933.08 392 1933.44 392H1940.56C1940.92 392 1941.13 391.585 1940.92 391.286L1937.36 386.189C1937.18 385.937 1936.82 385.937 1936.64 386.189Z" fill="#BEBEBE" id="n313"/>
<path d="M1951 392C1952.1 392 1953 392.895 1953 394L1953 422C1953 423.105 1952.1 424 1951 424H1923C1921.9 424 1921 423.105 1921 422L1921 394C1921 392.895 1921.9 392 1923 392L1951 392Z" stroke="#BEBEBE" id="n314"/>
<rect x="1933" y="392" width="8" height="32" stroke="#BEBEBE" id="n315"/>
<path d="M1951 392C1952.1 392 1953 392.895 1953 394L1953 422C1953 423.105 1952.1 424 1951 424H1923C1921.9 424 1921 423.105 1921 422L1921 394C1921 392.895 1921.9 392 1923 392L1951 392Z" stroke="#BEBEBE" id="n316"/>
</g>
</svg>
