<?xml version='1.0' encoding='utf-8'?>
<svg xmlns="http://www.w3.org/2000/svg" xmlns:xlink="http://www.w3.org/1999/xlink" width="384.0" height="168.0" viewBox="0 0 384.0 168.0" fill="none">
  <defs><clipPath id="clip__asset"><rect x="0" y="0" width="384.0" height="168.0"/></clipPath><mask id="mask207_68_6728" style="mask-type:luminance" maskUnits="userSpaceOnUse" x="6056" y="1034" width="512" height="26">
<path d="M6144 1047.8C6144 1043.32 6144 1041.08 6144.87 1039.37C6145.64 1037.86 6146.86 1036.64 6148.37 1035.87C6150.08 1035 6152.32 1035 6156.8 1035H6467.2C6471.68 1035 6473.92 1035 6475.63 1035.87C6477.14 1036.64 6478.36 1037.86 6479.13 1039.37C6480 1041.08 6480 1043.32 6480 1047.8V1059H6144V1047.8Z" fill="white" stroke="black" id="n1691"/>
</mask>
<mask id="mask208_68_6728" style="mask-type:luminance" maskUnits="userSpaceOnUse" x="6144" y="935" width="336" height="96">
<rect x="6144" y="935" width="336" height="96" fill="url(#paint17_linear_68_6728)" id="n1696"/>
</mask>
<mask id="mask209_68_6728" style="mask-type:alpha" maskUnits="userSpaceOnUse" x="6056" y="1058" width="512" height="50">
<path d="M6144 1059H6480V1094.2C6480 1098.68 6480 1100.92 6479.13 1102.63C6478.36 1104.14 6477.14 1105.36 6475.63 1106.13C6473.92 1107 6471.68 1107 6467.2 1107H6156.8C6152.32 1107 6150.08 1107 6148.37 1106.13C6146.86 1105.36 6145.64 1104.14 6144.87 1102.63C6144 1100.92 6144 1098.68 6144 1094.2V1059Z" fill="white" stroke="black" id="n1705"/>
</mask>
<linearGradient id="paint17_linear_68_6728" x1="6144" y1="983" x2="6480" y2="983" gradientUnits="userSpaceOnUse">
<stop id="n2774"/>
<stop offset="0.1" stop-color="white" id="n2775"/>
<stop offset="0.495" stop-color="white" id="n2776"/>
<stop offset="0.9" stop-color="white" id="n2777"/>
<stop offset="0.995" id="n2778"/>
</linearGradient>
<clipPath id="clip79_68_6728">
<rect width="26" height="16" fill="white" transform="translate(6285 1161)" id="n2858"/>
</clipPath>
<clipPath id="clip80_68_6728">
<rect width="24" height="16" fill="white" transform="translate(6315 1161)" id="n2859"/>
</clipPath>
</defs>
  <g clip-path="url(#clip__asset)" transform="translate(-6120.0 -1015.0)"><path d="M6144 1047.8C6144 1043.32 6144 1041.08 6144.87 1039.37C6145.64 1037.86 6146.86 1036.64 6148.37 1035.87C6150.08 1035 6152.32 1035 6156.8 1035H6467.2C6471.68 1035 6473.92 1035 6475.63 1035.87C6477.14 1036.64 6478.36 1037.86 6479.13 1039.37C6480 1041.08 6480 1043.32 6480 1047.8V1094.2C6480 1098.68 6480 1100.92 6479.13 1102.63C6478.36 1104.14 6477.14 1105.36 6475.63 1106.13C6473.92 1107 6471.68 1107 6467.2 1107H6156.8C6152.32 1107 6150.08 1107 6148.37 1106.13C6146.86 1105.36 6145.64 1104.14 6144.87 1102.63C6144 1100.92 6144 1098.68 6144 1094.2V1047.8Z" fill="white" stroke="white" id="n1687"/>
<path d="M6144 1059H6480V1094.2C6480 1098.68 6480 1100.92 6479.13 1102.63C6478.36 1104.14 6477.14 1105.36 6475.63 1106.13C6473.92 1107 6471.68 1107 6467.2 1107H6156.8C6152.32 1107 6150.08 1107 6148.37 1106.13C6146.86 1105.36 6145.64 1104.14 6144.87 1102.63C6144 1100.92 6144 1098.68 6144 1094.2V1059Z" fill="#F0F0F0" stroke="#F0F0F0" id="n1688"/>
<path d="M6144 1047.8C6144 1043.32 6144 1041.08 6144.87 1039.37C6145.64 1037.86 6146.86 1036.64 6148.37 1035.87C6150.08 1035 6152.32 1035 6156.8 1035H6467.2C6471.68 1035 6473.92 1035 6475.63 1035.87C6477.14 1036.64 6478.36 1037.86 6479.13 1039.37C6480 1041.08 6480 1043.32 6480 1047.8V1094.2C6480 1098.68 6480 1100.92 6479.13 1102.63C6478.36 1104.14 6477.14 1105.36 6475.63 1106.13C6473.92 1107 6471.68 1107 6467.2 1107H6156.8C6152.32 1107 6150.08 1107 6148.37 1106.13C6146.86 1105.36 6145.64 1104.14 6144.87 1102.63C6144 1100.92 6144 1098.68 6144 1094.2V1047.8Z" stroke="#BEBEBE" id="n1689"/>
<path d="M6312 1035V1107" stroke="#BEBEBE" stroke-linecap="square" id="n1690"/>
<g mask="url(#mask207_68_6728)" id="n1692">
<path d="M6144 1047V1055M6153.33 1047V1055M6162.67 1047V1055M6172 1047V1055M6181.33 1047V1055M6190.67 1047V1055M6200 1047V1055M6209.33 1047V1055M6218.67 1047V1055M6228 1047V1055M6237.33 1047V1055M6246.67 1047V1055M6256 1047V1055M6265.33 1047V1055M6274.67 1047V1055M6284 1047V1055M6293.33 1047V1055M6302.67 1047V1055M6312 1047V1055M6321.33 1047V1055M6330.67 1047V1055M6340 1047V1055M6349.33 1047V1055M6358.67 1047V1055M6368 1047V1055M6377.33 1047V1055M6386.67 1047V1055M6396 1047V1055M6405.33 1047V1055M6414.67 1047V1055M6424 1047V1055M6433.33 1047V1055M6442.67 1047V1055M6452 1047V1055M6461.33 1047V1055M6470.67 1047V1055M6480 1047V1055M6489.33 1047V1055M6498.67 1047V1055M6508 1047V1055M6517.33 1047V1055M6526.67 1047V1055M6536 1047V1055M6545.33 1047V1055M6554.67 1047V1055M6564 1047V1055M6573.33 1047V1055M6582.67 1047V1055M6592 1047V1055M6601.33 1047V1055M6610.67 1047V1055M6620 1047V1055M6629.33 1047V1055M6638.67 1047V1055M6648 1047V1055M6657.33 1047V1055M6666.67 1047V1055M6676 1047V1055M6685.33 1047V1055M6694.67 1047V1055M6704 1047V1055M6713.33 1047V1055M6722.67 1047V1055M6732 1047V1055M6741.33 1047V1055M6750.67 1047V1055M6760 1047V1055M6769.33 1047V1055M6778.67 1047V1055M6788 1047V1055M6797.33 1047V1055M6806.67 1047V1055M6816 1047V1055" stroke="#BEBEBE" id="n1693"/>
<path d="M6144 1031V1055M6228 1031V1055M6312 1031V1055M6396 1031V1055M6480 1031V1055M6564 1031V1055M6648 1031V1055M6732 1031V1055M6816 1031V1055" stroke="#BEBEBE" id="n1694"/>
<path d="M6144 1031V1059M6312 1031V1059M6480 1031V1059M6648 1031V1059M6816 1031V1059" stroke="#BEBEBE" id="n1695"/>
</g>
<g mask="url(#mask208_68_6728)" id="n1697">
<path d="M6144 1026H6142.9L6138.19 1018.78H6138.15C6138.15 1018.92 6138.16 1019.08 6138.17 1019.26C6138.19 1019.42 6138.2 1019.61 6138.21 1019.81C6138.21 1020 6138.22 1020.2 6138.22 1020.41C6138.23 1020.62 6138.23 1020.82 6138.23 1021.03V1026H6137.34V1017.43H6138.43L6143.13 1024.63H6143.16C6143.16 1024.53 6143.16 1024.39 6143.15 1024.22C6143.14 1024.06 6143.13 1023.87 6143.13 1023.67C6143.12 1023.46 6143.11 1023.26 6143.1 1023.05C6143.09 1022.83 6143.09 1022.63 6143.09 1022.45V1017.43H6144V1026ZM6151.12 1026H6146.35V1017.43H6151.12V1018.28H6147.31V1021.09H6150.89V1021.93H6147.31V1025.15H6151.12V1026Z" fill="#707070" id="n1698"/>
<path d="M6230.61 1026H6225.85V1017.43H6230.61V1018.28H6226.81V1021.09H6230.38V1021.93H6226.81V1025.15H6230.61V1026Z" fill="#707070" id="n1699"/>
<path d="M6311.38 1023.73C6311.38 1024.24 6311.26 1024.68 6311.01 1025.03C6310.76 1025.38 6310.41 1025.65 6309.94 1025.84C6309.49 1026.03 6308.96 1026.12 6308.35 1026.12C6308.03 1026.12 6307.72 1026.1 6307.42 1026.07C6307.14 1026.04 6306.87 1026 6306.63 1025.94C6306.4 1025.88 6306.19 1025.8 6306.01 1025.72V1024.79C6306.3 1024.92 6306.65 1025.03 6307.08 1025.14C6307.5 1025.23 6307.94 1025.28 6308.4 1025.28C6308.83 1025.28 6309.19 1025.22 6309.49 1025.11C6309.79 1024.99 6310.02 1024.82 6310.18 1024.61C6310.34 1024.38 6310.42 1024.12 6310.42 1023.8C6310.42 1023.51 6310.36 1023.26 6310.22 1023.06C6310.09 1022.86 6309.88 1022.68 6309.57 1022.52C6309.27 1022.35 6308.86 1022.18 6308.35 1022C6307.98 1021.87 6307.66 1021.72 6307.38 1021.57C6307.1 1021.42 6306.87 1021.25 6306.68 1021.06C6306.5 1020.86 6306.36 1020.64 6306.26 1020.38C6306.16 1020.13 6306.12 1019.83 6306.12 1019.5C6306.12 1019.03 6306.23 1018.64 6306.46 1018.32C6306.7 1017.99 6307.02 1017.74 6307.42 1017.58C6307.84 1017.4 6308.31 1017.31 6308.84 1017.31C6309.3 1017.31 6309.73 1017.36 6310.11 1017.44C6310.5 1017.52 6310.85 1017.64 6311.18 1017.79L6310.87 1018.61C6310.56 1018.48 6310.24 1018.38 6309.88 1018.3C6309.54 1018.21 6309.18 1018.16 6308.82 1018.16C6308.45 1018.16 6308.14 1018.22 6307.88 1018.33C6307.62 1018.44 6307.43 1018.59 6307.29 1018.79C6307.16 1018.99 6307.09 1019.22 6307.09 1019.5C6307.09 1019.81 6307.15 1020.06 6307.28 1020.26C6307.42 1020.46 6307.62 1020.64 6307.9 1020.79C6308.19 1020.94 6308.56 1021.1 6309.01 1021.27C6309.52 1021.46 6309.95 1021.65 6310.3 1021.86C6310.66 1022.07 6310.92 1022.32 6311.11 1022.62C6311.29 1022.9 6311.38 1023.28 6311.38 1023.73ZM6317.9 1026H6313.13V1017.43H6317.9V1018.28H6314.09V1021.09H6317.67V1021.93H6314.09V1025.15H6317.9V1026Z" fill="#707070" id="n1700"/>
<path d="M6398.71 1023.73C6398.71 1024.24 6398.59 1024.68 6398.34 1025.03C6398.09 1025.38 6397.74 1025.65 6397.27 1025.84C6396.82 1026.03 6396.28 1026.12 6395.68 1026.12C6395.36 1026.12 6395.05 1026.1 6394.75 1026.07C6394.46 1026.04 6394.2 1026 6393.96 1025.94C6393.73 1025.88 6393.52 1025.8 6393.34 1025.72V1024.79C6393.62 1024.92 6393.98 1025.03 6394.4 1025.14C6394.83 1025.23 6395.27 1025.28 6395.72 1025.28C6396.16 1025.28 6396.52 1025.22 6396.82 1025.11C6397.12 1024.99 6397.35 1024.82 6397.51 1024.61C6397.67 1024.38 6397.75 1024.12 6397.75 1023.8C6397.75 1023.51 6397.68 1023.26 6397.55 1023.06C6397.42 1022.86 6397.2 1022.68 6396.9 1022.52C6396.6 1022.35 6396.19 1022.18 6395.68 1022C6395.31 1021.87 6394.98 1021.72 6394.7 1021.57C6394.43 1021.42 6394.2 1021.25 6394.01 1021.06C6393.82 1020.86 6393.68 1020.64 6393.59 1020.38C6393.49 1020.13 6393.44 1019.83 6393.44 1019.5C6393.44 1019.03 6393.56 1018.64 6393.79 1018.32C6394.02 1017.99 6394.34 1017.74 6394.75 1017.58C6395.17 1017.4 6395.64 1017.31 6396.17 1017.31C6396.63 1017.31 6397.06 1017.36 6397.44 1017.44C6397.82 1017.52 6398.18 1017.64 6398.51 1017.79L6398.2 1018.61C6397.89 1018.48 6397.56 1018.38 6397.21 1018.3C6396.87 1018.21 6396.51 1018.16 6396.14 1018.16C6395.78 1018.16 6395.46 1018.22 6395.21 1018.33C6394.95 1018.44 6394.76 1018.59 6394.62 1018.79C6394.48 1018.99 6394.42 1019.22 6394.42 1019.5C6394.42 1019.81 6394.48 1020.06 6394.61 1020.26C6394.74 1020.46 6394.95 1020.64 6395.23 1020.79C6395.52 1020.94 6395.89 1021.1 6396.34 1021.27C6396.85 1021.46 6397.28 1021.65 6397.63 1021.86C6397.98 1022.07 6398.25 1022.32 6398.44 1022.62C6398.62 1022.9 6398.71 1023.28 6398.71 1023.73Z" fill="#707070" id="n1701"/>
<path d="M6477.19 1023.73C6477.19 1024.24 6477.06 1024.68 6476.82 1025.03C6476.57 1025.38 6476.21 1025.65 6475.75 1025.84C6475.29 1026.03 6474.76 1026.12 6474.15 1026.12C6473.83 1026.12 6473.52 1026.1 6473.23 1026.07C6472.94 1026.04 6472.68 1026 6472.44 1025.94C6472.2 1025.88 6472 1025.8 6471.81 1025.72V1024.79C6472.1 1024.92 6472.46 1025.03 6472.88 1025.14C6473.3 1025.23 6473.74 1025.28 6474.2 1025.28C6474.63 1025.28 6475 1025.22 6475.29 1025.11C6475.6 1024.99 6475.83 1024.82 6475.99 1024.61C6476.15 1024.38 6476.23 1024.12 6476.23 1023.8C6476.23 1023.51 6476.16 1023.26 6476.02 1023.06C6475.9 1022.86 6475.68 1022.68 6475.38 1022.52C6475.07 1022.35 6474.66 1022.18 6474.15 1022C6473.78 1021.87 6473.46 1021.72 6473.18 1021.57C6472.91 1021.42 6472.68 1021.25 6472.48 1021.06C6472.3 1020.86 6472.16 1020.64 6472.06 1020.38C6471.97 1020.13 6471.92 1019.83 6471.92 1019.5C6471.92 1019.03 6472.04 1018.64 6472.27 1018.32C6472.5 1017.99 6472.82 1017.74 6473.23 1017.58C6473.64 1017.4 6474.12 1017.31 6474.64 1017.31C6475.11 1017.31 6475.53 1017.36 6475.92 1017.44C6476.3 1017.52 6476.66 1017.64 6476.98 1017.79L6476.67 1018.61C6476.37 1018.48 6476.04 1018.38 6475.69 1018.3C6475.34 1018.21 6474.99 1018.16 6474.62 1018.16C6474.25 1018.16 6473.94 1018.22 6473.68 1018.33C6473.43 1018.44 6473.23 1018.59 6473.1 1018.79C6472.96 1018.99 6472.89 1019.22 6472.89 1019.5C6472.89 1019.81 6472.96 1020.06 6473.08 1020.26C6473.22 1020.46 6473.43 1020.64 6473.71 1020.79C6474 1020.94 6474.36 1021.1 6474.81 1021.27C6475.32 1021.46 6475.76 1021.65 6476.11 1021.86C6476.46 1022.07 6476.73 1022.32 6476.91 1022.62C6477.1 1022.9 6477.19 1023.28 6477.19 1023.73ZM6488.62 1017.43L6486.33 1026H6485.36L6483.65 1020.18C6483.61 1020.02 6483.56 1019.86 6483.51 1019.7C6483.47 1019.53 6483.43 1019.38 6483.39 1019.23C6483.36 1019.08 6483.33 1018.95 6483.29 1018.84C6483.27 1018.72 6483.25 1018.64 6483.23 1018.57C6483.23 1018.64 6483.21 1018.72 6483.19 1018.84C6483.17 1018.94 6483.14 1019.07 6483.1 1019.22C6483.07 1019.36 6483.03 1019.52 6482.99 1019.68C6482.95 1019.84 6482.91 1020 6482.86 1020.17L6481.19 1026H6480.22L6477.94 1017.43H6478.95L6480.35 1022.86C6480.39 1023.03 6480.43 1023.21 6480.47 1023.38C6480.51 1023.55 6480.55 1023.72 6480.58 1023.89C6480.62 1024.05 6480.65 1024.2 6480.68 1024.36C6480.7 1024.51 6480.73 1024.66 6480.75 1024.8C6480.77 1024.65 6480.8 1024.5 6480.82 1024.34C6480.85 1024.18 6480.89 1024.02 6480.93 1023.85C6480.97 1023.68 6481.01 1023.5 6481.05 1023.32C6481.1 1023.15 6481.15 1022.98 6481.19 1022.81L6482.75 1017.43H6483.75L6485.36 1022.84C6485.41 1023.02 6485.46 1023.2 6485.5 1023.38C6485.55 1023.56 6485.59 1023.73 6485.63 1023.9C6485.67 1024.06 6485.71 1024.22 6485.73 1024.38C6485.76 1024.53 6485.79 1024.68 6485.81 1024.81C6485.84 1024.62 6485.87 1024.42 6485.9 1024.21C6485.94 1024 6485.99 1023.79 6486.04 1023.56C6486.1 1023.33 6486.16 1023.1 6486.22 1022.86L6487.61 1017.43H6488.62Z" fill="#707070" id="n1702"/>
</g>
<path d="M6152.68 1123.19V1122.35H6155.58V1123.19H6152.68ZM6162.7 1124H6161.41V1126H6160.49V1124H6156.33V1123.2L6160.42 1117.38H6161.41V1123.14H6162.7V1124ZM6160.49 1120.3C6160.49 1120.08 6160.49 1119.89 6160.49 1119.72C6160.49 1119.55 6160.5 1119.39 6160.51 1119.24C6160.51 1119.09 6160.52 1118.95 6160.52 1118.81C6160.53 1118.67 6160.53 1118.53 6160.54 1118.4H6160.49C6160.42 1118.56 6160.34 1118.73 6160.24 1118.91C6160.15 1119.08 6160.05 1119.23 6159.94 1119.36L6157.27 1123.14H6160.49V1120.3ZM6166.23 1120.77C6166.82 1120.77 6167.32 1120.87 6167.75 1121.07C6168.18 1121.27 6168.51 1121.56 6168.74 1121.93C6168.97 1122.3 6169.09 1122.75 6169.09 1123.29C6169.09 1123.87 6168.96 1124.38 6168.71 1124.8C6168.46 1125.22 6168.09 1125.55 6167.61 1125.78C6167.14 1126.01 6166.58 1126.12 6165.92 1126.12C6165.47 1126.12 6165.06 1126.08 6164.67 1126C6164.3 1125.91 6163.98 1125.8 6163.71 1125.65V1124.75C6163.99 1124.92 6164.33 1125.06 6164.73 1125.16C6165.14 1125.26 6165.54 1125.32 6165.93 1125.32C6166.37 1125.32 6166.76 1125.24 6167.09 1125.1C6167.41 1124.96 6167.67 1124.74 6167.85 1124.45C6168.04 1124.16 6168.13 1123.8 6168.13 1123.37C6168.13 1122.8 6167.95 1122.35 6167.59 1122.04C6167.24 1121.72 6166.69 1121.56 6165.93 1121.56C6165.69 1121.56 6165.43 1121.58 6165.13 1121.63C6164.84 1121.67 6164.6 1121.72 6164.41 1121.76L6163.93 1121.45L6164.25 1117.43H6168.51V1118.3H6165.06L6164.84 1120.91C6164.99 1120.89 6165.18 1120.86 6165.42 1120.83C6165.66 1120.79 6165.93 1120.77 6166.23 1120.77Z" fill="#707070" id="n1703"/>
<path d="M6464.77 1124H6463.47V1126H6462.56V1124H6458.4V1123.2L6462.49 1117.38H6463.47V1123.14H6464.77V1124ZM6462.56 1120.3C6462.56 1120.08 6462.56 1119.89 6462.56 1119.72C6462.56 1119.55 6462.56 1119.39 6462.57 1119.24C6462.58 1119.09 6462.58 1118.95 6462.58 1118.81C6462.59 1118.67 6462.6 1118.53 6462.61 1118.4H6462.56C6462.49 1118.56 6462.4 1118.73 6462.31 1118.91C6462.21 1119.08 6462.11 1119.23 6462.01 1119.36L6459.33 1123.14H6462.56V1120.3ZM6468.3 1120.77C6468.88 1120.77 6469.39 1120.87 6469.81 1121.07C6470.24 1121.27 6470.58 1121.56 6470.81 1121.93C6471.04 1122.3 6471.16 1122.75 6471.16 1123.29C6471.16 1123.87 6471.03 1124.38 6470.77 1124.8C6470.52 1125.22 6470.16 1125.55 6469.68 1125.78C6469.21 1126.01 6468.64 1126.12 6467.99 1126.12C6467.54 1126.12 6467.12 1126.08 6466.74 1126C6466.36 1125.91 6466.04 1125.8 6465.78 1125.65V1124.75C6466.06 1124.92 6466.4 1125.06 6466.8 1125.16C6467.21 1125.26 6467.61 1125.32 6468 1125.32C6468.44 1125.32 6468.82 1125.24 6469.15 1125.1C6469.48 1124.96 6469.74 1124.74 6469.92 1124.45C6470.1 1124.16 6470.2 1123.8 6470.2 1123.37C6470.2 1122.8 6470.02 1122.35 6469.66 1122.04C6469.3 1121.72 6468.75 1121.56 6468 1121.56C6467.76 1121.56 6467.49 1121.58 6467.2 1121.63C6466.91 1121.67 6466.67 1121.72 6466.48 1121.76L6466 1121.45L6466.32 1117.43H6470.58V1118.3H6467.12L6466.91 1120.91C6467.05 1120.89 6467.24 1120.86 6467.48 1120.83C6467.72 1120.79 6468 1120.77 6468.3 1120.77Z" fill="#707070" id="n1704"/>
<g mask="url(#mask209_68_6728)" id="n1706">
<path d="M6361 1063.43C6361.51 1062.19 6363.29 1062.19 6363.8 1063.43L6378.71 1100.09C6379.62 1102.33 6377.11 1104.35 6375.08 1103.13V1103.13L6362.4 1095.58L6349.72 1103.13C6347.69 1104.35 6345.18 1102.33 6346.09 1100.09L6361 1063.43ZM6353.56 1095L6362.15 1089.9L6362.4 1089.75L6362.65 1089.9L6371.24 1095L6362.4 1073.27L6353.56 1095Z" fill="#535353" stroke="#F7F7F7" id="n1707"/>
<path d="M6310.6 1063.43C6311.11 1062.19 6312.89 1062.19 6313.4 1063.43L6328.31 1100.09C6329.22 1102.33 6326.71 1104.35 6324.68 1103.13V1103.13L6312 1095.58L6299.32 1103.13C6297.29 1104.35 6294.78 1102.33 6295.69 1100.09L6310.6 1063.43Z" fill="#2D548B" stroke="#F7F7F7" id="n1708"/>
</g>
<path d="M6296.09 1155H6292.01V1139.56C6292.01 1139.04 6292.01 1138.53 6292.01 1138.03C6292.03 1137.51 6292.06 1137 6292.08 1136.5C6292.1 1135.98 6292.12 1135.5 6292.15 1135.04C6291.92 1135.29 6291.64 1135.57 6291.3 1135.89C6290.96 1136.19 6290.6 1136.49 6290.24 1136.81L6287.52 1138.99L6285.48 1136.4L6292.72 1130.72H6296.09V1155ZM6319.98 1155H6303.45V1151.94L6309.68 1145.65C6310.9 1144.4 6311.9 1143.34 6312.67 1142.45C6313.46 1141.55 6314.05 1140.7 6314.44 1139.9C6314.82 1139.11 6315.01 1138.24 6315.01 1137.29C6315.01 1136.15 6314.68 1135.3 6314.03 1134.74C6313.37 1134.15 6312.51 1133.85 6311.44 1133.85C6310.38 1133.85 6309.4 1134.07 6308.52 1134.5C6307.64 1134.91 6306.72 1135.48 6305.77 1136.23L6303.56 1133.55C6304.21 1132.98 6304.93 1132.46 6305.7 1131.98C6306.47 1131.51 6307.33 1131.12 6308.28 1130.83C6309.26 1130.53 6310.37 1130.38 6311.61 1130.38C6313.18 1130.38 6314.51 1130.67 6315.63 1131.23C6316.76 1131.78 6317.63 1132.54 6318.24 1133.51C6318.86 1134.49 6319.16 1135.62 6319.16 1136.91C6319.16 1137.89 6319 1138.8 6318.69 1139.67C6318.39 1140.53 6317.96 1141.37 6317.39 1142.18C6316.85 1142.98 6316.17 1143.8 6315.35 1144.66C6314.54 1145.5 6313.63 1146.4 6312.63 1147.35L6308.59 1151.26V1151.43H6319.98V1155ZM6337.98 1136.27C6337.98 1137.38 6337.77 1138.34 6337.34 1139.16C6336.91 1139.95 6336.3 1140.61 6335.53 1141.13C6334.76 1141.63 6333.87 1141.99 6332.85 1142.22V1142.32C6334.8 1142.54 6336.26 1143.15 6337.23 1144.12C6338.23 1145.09 6338.73 1146.39 6338.73 1148C6338.73 1149.4 6338.39 1150.66 6337.71 1151.77C6337.03 1152.88 6335.99 1153.75 6334.58 1154.39C6333.18 1155.02 6331.37 1155.34 6329.18 1155.34C6327.86 1155.34 6326.64 1155.23 6325.5 1155C6324.39 1154.8 6323.33 1154.47 6322.31 1154.01V1150.41C6323.35 1150.91 6324.45 1151.31 6325.61 1151.6C6326.76 1151.87 6327.86 1152.01 6328.9 1152.01C6330.9 1152.01 6332.32 1151.65 6333.15 1150.92C6333.99 1150.17 6334.41 1149.14 6334.41 1147.83C6334.41 1146.99 6334.2 1146.3 6333.77 1145.75C6333.34 1145.21 6332.66 1144.81 6331.73 1144.56C6330.8 1144.29 6329.6 1144.15 6328.12 1144.15H6326.05V1140.86H6328.16C6329.58 1140.86 6330.71 1140.7 6331.52 1140.38C6332.36 1140.04 6332.96 1139.58 6333.32 1138.99C6333.71 1138.4 6333.9 1137.72 6333.9 1136.95C6333.9 1135.95 6333.57 1135.17 6332.92 1134.6C6332.26 1134.03 6331.28 1133.75 6329.99 1133.75C6329.18 1133.75 6328.43 1133.84 6327.75 1134.02C6327.09 1134.2 6326.48 1134.44 6325.91 1134.74C6325.37 1135.03 6324.85 1135.34 6324.35 1135.65L6322.41 1132.83C6323.02 1132.38 6323.71 1131.97 6324.48 1131.61C6325.25 1131.22 6326.1 1130.93 6327.03 1130.72C6327.99 1130.5 6329.03 1130.38 6330.16 1130.38C6332.68 1130.38 6334.6 1130.92 6335.94 1131.98C6337.3 1133.05 6337.98 1134.48 6337.98 1136.27Z" fill="#2D548B" id="n1709"/>
<g clip-path="url(#clip79_68_6728)" id="n1710">
<path d="M6292.59 1173H6291.19V1169.32H6287.47V1173H6286.07V1164.79H6287.47V1168.12H6291.19V1164.79H6292.59V1173ZM6301.44 1168.81C6301.44 1169.73 6301.27 1170.5 6300.91 1171.13C6300.57 1171.75 6300.07 1172.21 6299.42 1172.53C6298.77 1172.84 6297.98 1173 6297.05 1173H6294.74V1164.79H6297.29C6298.14 1164.79 6298.88 1164.94 6299.49 1165.25C6300.11 1165.56 6300.59 1166.01 6300.93 1166.61C6301.27 1167.2 6301.44 1167.93 6301.44 1168.81ZM6299.97 1168.86C6299.97 1168.19 6299.87 1167.64 6299.66 1167.22C6299.45 1166.79 6299.15 1166.47 6298.74 1166.27C6298.34 1166.07 6297.85 1165.96 6297.27 1165.96H6296.14V1171.83H6297.07C6298.05 1171.83 6298.77 1171.58 6299.25 1171.08C6299.73 1170.58 6299.97 1169.84 6299.97 1168.86ZM6306.53 1168.51H6309.59V1172.67C6309.15 1172.81 6308.7 1172.92 6308.24 1173C6307.78 1173.08 6307.26 1173.12 6306.68 1173.12C6305.85 1173.12 6305.15 1172.95 6304.56 1172.62C6303.99 1172.29 6303.55 1171.81 6303.25 1171.18C6302.95 1170.55 6302.8 1169.78 6302.8 1168.88C6302.8 1168.02 6302.97 1167.28 6303.31 1166.65C6303.65 1166.02 6304.13 1165.54 6304.76 1165.19C6305.4 1164.85 6306.17 1164.67 6307.08 1164.67C6307.53 1164.67 6307.96 1164.72 6308.37 1164.81C6308.79 1164.9 6309.18 1165.02 6309.52 1165.17L6309.04 1166.33C6308.77 1166.2 6308.46 1166.09 6308.12 1166.01C6307.77 1165.92 6307.42 1165.87 6307.05 1165.87C6306.47 1165.87 6305.98 1165.99 6305.55 1166.24C6305.14 1166.48 6304.82 1166.84 6304.6 1167.3C6304.38 1167.75 6304.27 1168.28 6304.27 1168.91C6304.27 1169.5 6304.35 1170.02 6304.53 1170.48C6304.71 1170.93 6304.98 1171.29 6305.36 1171.55C6305.74 1171.8 6306.24 1171.93 6306.85 1171.93C6307.06 1171.93 6307.24 1171.92 6307.39 1171.91C6307.55 1171.89 6307.7 1171.87 6307.83 1171.85C6307.96 1171.82 6308.08 1171.79 6308.2 1171.77V1169.72H6306.53V1168.51Z" fill="#535353" id="n1711"/>
</g>
<g clip-path="url(#clip80_68_6728)" id="n1712">
<path d="M6322.62 1168.81C6322.62 1169.73 6322.46 1170.5 6322.12 1171.13C6321.78 1171.75 6321.29 1172.21 6320.66 1172.53C6320.02 1172.84 6319.25 1173 6318.34 1173H6316.13V1164.79H6318.58C6319.42 1164.79 6320.14 1164.94 6320.74 1165.25C6321.34 1165.56 6321.81 1166.01 6322.13 1166.61C6322.46 1167.2 6322.62 1167.93 6322.62 1168.81ZM6321.65 1168.85C6321.65 1168.1 6321.52 1167.5 6321.28 1167.02C6321.03 1166.54 6320.67 1166.18 6320.19 1165.94C6319.71 1165.7 6319.13 1165.58 6318.44 1165.58H6317.05V1172.21H6318.22C6319.36 1172.21 6320.22 1171.93 6320.78 1171.37C6321.36 1170.8 6321.65 1169.96 6321.65 1168.85ZM6329.01 1173H6324.45V1164.79H6329.01V1165.61H6325.37V1168.3H6328.8V1169.1H6325.37V1172.18H6329.01V1173ZM6334.31 1168.71H6337.2V1172.68C6336.76 1172.82 6336.32 1172.93 6335.86 1173C6335.42 1173.08 6334.92 1173.12 6334.36 1173.12C6333.51 1173.12 6332.79 1172.95 6332.2 1172.61C6331.61 1172.27 6331.17 1171.79 6330.86 1171.16C6330.56 1170.52 6330.4 1169.77 6330.4 1168.89C6330.4 1168.04 6330.57 1167.3 6330.91 1166.67C6331.25 1166.05 6331.73 1165.56 6332.36 1165.2C6332.99 1164.85 6333.76 1164.67 6334.65 1164.67C6335.1 1164.67 6335.53 1164.72 6335.93 1164.8C6336.35 1164.88 6336.73 1165 6337.08 1165.16L6336.73 1165.96C6336.42 1165.82 6336.08 1165.71 6335.72 1165.63C6335.35 1165.54 6334.98 1165.49 6334.6 1165.49C6333.93 1165.49 6333.35 1165.63 6332.86 1165.92C6332.38 1166.19 6332.01 1166.59 6331.75 1167.1C6331.49 1167.61 6331.37 1168.2 6331.37 1168.89C6331.37 1169.59 6331.48 1170.2 6331.7 1170.71C6331.93 1171.22 6332.28 1171.61 6332.75 1171.9C6333.22 1172.17 6333.83 1172.31 6334.57 1172.31C6334.82 1172.31 6335.04 1172.3 6335.24 1172.29C6335.44 1172.26 6335.63 1172.23 6335.8 1172.19C6335.96 1172.16 6336.12 1172.12 6336.27 1172.08V1169.54H6334.31V1168.71Z" fill="#535353" id="n1713"/>
</g>
</g>
</svg>
