<?xml version='1.0' encoding='utf-8'?>
<svg xmlns="http://www.w3.org/2000/svg" xmlns:xlink="http://www.w3.org/1999/xlink" width="216.0" height="384.0" viewBox="0 0 216.0 384.0" fill="none">
  <defs><clipPath id="clip__asset"><rect x="0" y="0" width="216.0" height="384.0"/></clipPath><mask id="mask191_68_6728" style="mask-type:luminance" maskUnits="userSpaceOnUse" x="4382" y="504" width="512" height="512">
<path d="M4709.2 616C4713.68 616 4715.92 616 4717.63 616.872C4719.14 617.639 4720.36 618.863 4721.13 620.368C4722 622.079 4722 624.32 4722 628.8L4722 891.2C4722 895.68 4722 897.921 4721.13 899.632C4720.36 901.137 4719.14 902.361 4717.63 903.128C4715.92 904 4713.68 904 4709.2 904H4698L4698 616H4709.2Z" fill="white" stroke="black" id="n1445"/>
<path d="M4566.8 904C4562.32 904 4560.08 904 4558.37 903.128C4556.86 902.361 4555.64 901.137 4554.87 899.632C4554 897.921 4554 895.68 4554 891.2L4554 628.8C4554 624.32 4554 622.079 4554.87 620.368C4555.64 618.863 4556.86 617.639 4558.37 616.872C4560.08 616 4562.32 616 4566.8 616L4578 616L4578 904L4566.8 904Z" fill="white" stroke="black" id="n1446"/>
<rect x="4646" y="756" width="72" height="8" fill="black" stroke="black" id="n1447"/>
</mask>
</defs>
  <g clip-path="url(#clip__asset)" transform="translate(-4530.0 -568.0)"><path d="M4618 616L4618 590C4618 586.687 4620.69 584 4624 584L4652 584C4655.31 584 4658 586.686 4658 590L4658 616L4618 616Z" fill="white" stroke="#8E8E8E" id="n1432"/>
<path d="M4709 599.736C4709 590.96 4657.73 588 4657.73 588C4657.73 595.71 4655.17 603.13 4650.56 608.754L4647.9 612C4661.17 612 4709 608.511 4709 599.736Z" fill="white" id="n1433"/>
<path d="M4567 600.264C4567 609.04 4618.27 612 4618.27 612C4618.27 604.29 4620.83 596.87 4625.44 591.246L4628.1 588C4614.83 588 4567 591.489 4567 600.264Z" fill="white" id="n1434"/>
<path d="M4709 599.736C4709 590.96 4657.73 588 4657.73 588C4657.73 595.71 4655.17 603.13 4650.56 608.754L4647.9 612C4661.17 612 4709 608.511 4709 599.736Z" stroke="#8E8E8E" id="n1435"/>
<path d="M4567 600.264C4567 609.04 4618.27 612 4618.27 612C4618.27 604.29 4620.83 596.87 4625.44 591.246L4628.1 588C4614.83 588 4567 591.489 4567 600.264Z" stroke="#8E8E8E" id="n1436"/>
<path d="M4647.09 580.26L4638 572L4628.91 580.26C4628.24 580.875 4628.67 582 4629.59 582H4646.41C4647.33 582 4647.76 580.875 4647.09 580.26Z" fill="#535353" id="n1437"/>
<path d="M4618 904C4618 919.975 4625.06 935.133 4637.3 945.408L4638 946L4638.7 945.408C4650.94 935.133 4658 919.975 4658 904L4618 904Z" fill="white" stroke="#8E8E8E" id="n1438"/>
<path d="M4709.2 616C4713.68 616 4715.92 616 4717.63 616.872C4719.14 617.639 4720.36 618.863 4721.13 620.368C4722 622.079 4722 624.32 4722 628.8L4722 891.2C4722 895.68 4722 897.921 4721.13 899.632C4720.36 901.137 4719.14 902.361 4717.63 903.128C4715.92 904 4713.68 904 4709.2 904H4566.8C4562.32 904 4560.08 904 4558.37 903.128C4556.86 902.361 4555.64 901.137 4554.87 899.632C4554 897.921 4554 895.68 4554 891.2L4554 628.8C4554 624.32 4554 622.079 4554.87 620.368C4555.64 618.863 4556.86 617.639 4558.37 616.872C4560.08 616 4562.32 616 4566.8 616L4709.2 616Z" fill="white" stroke="white" id="n1439"/>
<path d="M4698 616L4698 904H4650L4650 616L4698 616Z" fill="#F0F0F0" stroke="#F0F0F0" id="n1440"/>
<path d="M4626 616L4626 904H4578L4578 616L4626 616Z" fill="#F0F0F0" stroke="#F0F0F0" id="n1441"/>
<path d="M4709.2 616C4713.68 616 4715.92 616 4717.63 616.872C4719.14 617.639 4720.36 618.863 4721.13 620.368C4722 622.079 4722 624.32 4722 628.8L4722 891.2C4722 895.68 4722 897.921 4721.13 899.632C4720.36 901.137 4719.14 902.361 4717.63 903.128C4715.92 904 4713.68 904 4709.2 904H4566.8C4562.32 904 4560.08 904 4558.37 903.128C4556.86 902.361 4555.64 901.137 4554.87 899.632C4554 897.921 4554 895.68 4554 891.2L4554 628.8C4554 624.32 4554 622.079 4554.87 620.368C4555.64 618.863 4556.86 617.639 4558.37 616.872C4560.08 616 4562.32 616 4566.8 616L4709.2 616Z" stroke="#BEBEBE" id="n1442"/>
<path d="M4554 896H4626V904H4562C4557.58 904 4554 900.418 4554 896Z" fill="#BEBEBE" stroke="#BEBEBE" id="n1443"/>
<rect x="4650" y="756" width="72" height="8" fill="#BEBEBE" stroke="#BEBEBE" id="n1444"/>
<g mask="url(#mask191_68_6728)" id="n1448">
<path d="M4726 686L4702 686M4726 756L4702 756M4726 616L4702 616" stroke="#BEBEBE" id="n1449"/>
<path d="M4726 756L4698 756M4726 616L4698 616" stroke="#BEBEBE" id="n1450"/>
<path d="M4726 834L4702 834M4726 904L4702 904M4726 764L4702 764" stroke="#BEBEBE" id="n1451"/>
<path d="M4726 904L4698 904M4726 764L4698 764" stroke="#BEBEBE" id="n1452"/>
<path d="M4550 756L4574 756M4550 616L4574 616M4550 896L4574 896" stroke="#BEBEBE" id="n1453"/>
<path d="M4550 616L4578 616M4550 896L4578 896" stroke="#BEBEBE" id="n1454"/>
</g>
<path d="M4650 756H4722V764H4650V756Z" fill="#535353" stroke="#535353" id="n1455"/>
<path d="M4554 896H4626V904H4562C4557.58 904 4554 900.418 4554 896Z" fill="#BEBEBE" stroke="#BEBEBE" id="n1456"/>
<rect x="4578" y="896" width="85" height="48" transform="rotate(-90 4578 896)" fill="#BEBEBE" id="n1457"/>
<rect x="4578" y="896" width="85" height="48" transform="rotate(-90 4578 896)" stroke="#BEBEBE" id="n1458"/>
<rect x="4578" y="815" width="8" height="48" rx="4" transform="rotate(-90 4578 815)" fill="#535353" id="n1459"/>
<rect x="4578" y="815" width="8" height="48" rx="4" transform="rotate(-90 4578 815)" stroke="#535353" id="n1460"/>
<rect x="4650" y="686" width="48" height="70" fill="#535353" stroke="#535353" id="n1461"/>
<path d="M4558.9 801.741C4559.68 801.392 4560.66 801.401 4561.48 801.952L4573.05 809.761C4573.93 810.355 4573.93 811.652 4573.05 812.247L4561.48 820.056C4560.66 820.607 4559.68 820.616 4558.9 820.267C4558.12 819.917 4557.5 819.177 4557.5 818.201V803.807C4557.5 802.831 4558.12 802.091 4558.9 801.741Z" fill="#535353" stroke="white" stroke-linejoin="round" id="n1462"/>
<path d="M4717.1 695.259C4716.32 695.608 4715.34 695.599 4714.52 695.048L4702.95 687.239C4702.07 686.645 4702.07 685.348 4702.95 684.753L4714.52 676.944C4715.34 676.393 4716.32 676.384 4717.1 676.733C4717.88 677.083 4718.5 677.823 4718.5 678.799L4718.5 693.193C4718.5 694.169 4717.88 694.909 4717.1 695.259Z" fill="#535353" stroke="white" stroke-linejoin="round" id="n1463"/>
</g>
</svg>
