<?xml version='1.0' encoding='utf-8'?>
<svg xmlns="http://www.w3.org/2000/svg" xmlns:xlink="http://www.w3.org/1999/xlink" width="216.0" height="384.0" viewBox="0 0 216.0 384.0" fill="none">
  <defs><clipPath id="clip__asset"><rect x="0" y="0" width="216.0" height="384.0"/></clipPath><mask id="mask189_68_6728" style="mask-type:luminance" maskUnits="userSpaceOnUse" x="3662" y="2424" width="512" height="512">
<path d="M3989.2 2512C3993.68 2512 3995.92 2512 3997.63 2512.87C3999.14 2513.64 4000.36 2514.86 4001.13 2516.37C4002 2518.08 4002 2520.32 4002 2524.8L4002 2835.2C4002 2839.68 4002 2841.92 4001.13 2843.63C4000.36 2845.14 3999.14 2846.36 3997.63 2847.13C3995.92 2848 3993.68 2848 3989.2 2848H3978L3978 2512L3989.2 2512Z" fill="white" stroke="black" id="n1400"/>
<path d="M3846.8 2848C3842.32 2848 3840.08 2848 3838.37 2847.13C3836.86 2846.36 3835.64 2845.14 3834.87 2843.63C3834 2841.92 3834 2839.68 3834 2835.2L3834 2524.8C3834 2520.32 3834 2518.08 3834.87 2516.37C3835.64 2514.86 3836.86 2513.64 3838.37 2512.87C3840.08 2512 3842.32 2512 3846.8 2512L3858 2512L3858 2848L3846.8 2848Z" fill="white" stroke="black" id="n1401"/>
<rect x="3930" y="2676" width="72" height="8" fill="black" stroke="black" id="n1402"/>
<path d="M3834 2840H3906V2848H3842C3837.58 2848 3834 2844.42 3834 2840Z" fill="black" stroke="black" id="n1403"/>
</mask>
</defs>
  <g clip-path="url(#clip__asset)" transform="translate(-3810.0 -2488.0)"><path d="M3978 2512L3978 2848H3930L3930 2512L3978 2512Z" stroke="#BEBEBE" id="n1394"/>
<path d="M3906 2512L3906 2848H3858L3858 2512L3906 2512Z" stroke="#BEBEBE" id="n1395"/>
<path d="M3989.2 2512C3993.68 2512 3995.92 2512 3997.63 2512.87C3999.14 2513.64 4000.36 2514.86 4001.13 2516.37C4002 2518.08 4002 2520.32 4002 2524.8L4002 2835.2C4002 2839.68 4002 2841.92 4001.13 2843.63C4000.36 2845.14 3999.14 2846.36 3997.63 2847.13C3995.92 2848 3993.68 2848 3989.2 2848H3846.8C3842.32 2848 3840.08 2848 3838.37 2847.13C3836.86 2846.36 3835.64 2845.14 3834.87 2843.63C3834 2841.92 3834 2839.68 3834 2835.2L3834 2524.8C3834 2520.32 3834 2518.08 3834.87 2516.37C3835.64 2514.86 3836.86 2513.64 3838.37 2512.87C3840.08 2512 3842.32 2512 3846.8 2512L3989.2 2512Z" stroke="#BEBEBE" id="n1396"/>
<path d="M3834 2840H3906V2848H3842C3837.58 2848 3834 2844.42 3834 2840Z" fill="#BEBEBE" stroke="#BEBEBE" id="n1397"/>
<rect x="3930" y="2676" width="72" height="8" fill="#BEBEBE" stroke="#BEBEBE" id="n1398"/>
<path d="M3933.48 2505.38L3919.31 2493.13C3918.56 2492.48 3917.44 2492.48 3916.69 2493.13L3902.52 2505.38C3901.46 2506.3 3902.13 2508 3903.55 2508H3932.45C3933.87 2508 3934.54 2506.3 3933.48 2505.38Z" fill="#BEBEBE" id="n1399"/>
<g mask="url(#mask189_68_6728)" id="n1404">
<path d="M4006 2594L3982 2594M4006 2676L3982 2676M4006 2512L3982 2512" stroke="#BEBEBE" id="n1405"/>
<path d="M4006 2676L3978 2676M4006 2512L3978 2512" stroke="#BEBEBE" id="n1406"/>
<path d="M4006 2766L3982 2766M4006 2848L3982 2848M4006 2684L3982 2684" stroke="#BEBEBE" id="n1407"/>
<path d="M4006 2848L3978 2848M4006 2684L3978 2684" stroke="#BEBEBE" id="n1408"/>
<path d="M3830 2676L3854 2676M3830 2512L3854 2512M3830 2840L3854 2840" stroke="#BEBEBE" id="n1409"/>
<path d="M3830 2512L3858 2512M3830 2840L3858 2840" stroke="#BEBEBE" id="n1410"/>
</g>
<path d="M3830.9 2834.74C3831.68 2834.39 3832.66 2834.4 3833.48 2834.95L3845.05 2842.76C3845.93 2843.36 3845.93 2844.65 3845.05 2845.25L3833.48 2853.06C3832.66 2853.61 3831.68 2853.62 3830.9 2853.27C3830.12 2852.92 3829.5 2852.18 3829.5 2851.2V2836.81C3829.5 2835.83 3830.12 2835.09 3830.9 2834.74Z" fill="#BEBEBE" stroke="white" stroke-linejoin="round" id="n1411"/>
<path d="M4005.1 2689.26C4004.32 2689.61 4003.34 2689.6 4002.52 2689.05L3990.95 2681.24C3990.07 2680.64 3990.07 2679.35 3990.95 2678.75L4002.52 2670.94C4003.34 2670.39 4004.32 2670.38 4005.1 2670.73C4005.88 2671.08 4006.5 2671.82 4006.5 2672.8L4006.5 2687.19C4006.5 2688.17 4005.88 2688.91 4005.1 2689.26Z" fill="#BEBEBE" stroke="white" stroke-linejoin="round" id="n1412"/>
</g>
</svg>
