<?xml version='1.0' encoding='utf-8'?>
<svg xmlns="http://www.w3.org/2000/svg" xmlns:xlink="http://www.w3.org/1999/xlink" width="160.0" height="384.0" viewBox="0 0 160.0 384.0" fill="none">
  <defs><clipPath id="clip__asset"><rect x="0" y="0" width="160.0" height="384.0"/></clipPath><mask id="mask218_68_6728" style="mask-type:luminance" maskUnits="userSpaceOnUse" x="5858" y="1944" width="512" height="512">
<path d="M6137.2 2056C6141.68 2056 6143.92 2056 6145.63 2056.87C6147.14 2057.64 6148.36 2058.86 6149.13 2060.37C6150 2062.08 6150 2064.32 6150 2068.8L6150 2331.2C6150 2335.68 6150 2337.92 6149.13 2339.63C6148.36 2341.14 6147.14 2342.36 6145.63 2343.13C6143.92 2344 6141.68 2344 6137.2 2344H6126L6126 2056H6137.2Z" fill="white" stroke="black" id="n2004"/>
<rect x="6078" y="2196" width="72" height="8" fill="black" stroke="black" id="n2005"/>
</mask>
</defs>
  <g clip-path="url(#clip__asset)" transform="translate(-6034.0 -2008.0)"><path d="M6094 2056L6094 2030C6094 2026.69 6096.69 2024 6100 2024L6128 2024C6131.31 2024 6134 2026.69 6134 2030L6134 2056L6094 2056Z" fill="white" stroke="#8E8E8E" id="n1993"/>
<path d="M6185 2039.74C6185 2030.96 6133.73 2028 6133.73 2028C6133.73 2035.71 6131.17 2043.13 6126.56 2048.75L6123.9 2052C6137.17 2052 6185 2048.51 6185 2039.74Z" fill="white" id="n1994"/>
<path d="M6043 2040.26C6043 2049.04 6094.27 2052 6094.27 2052C6094.27 2044.29 6096.83 2036.87 6101.44 2031.25L6104.1 2028C6090.83 2028 6043 2031.49 6043 2040.26Z" fill="white" id="n1995"/>
<path d="M6185 2039.74C6185 2030.96 6133.73 2028 6133.73 2028C6133.73 2035.71 6131.17 2043.13 6126.56 2048.75L6123.9 2052C6137.17 2052 6185 2048.51 6185 2039.74Z" stroke="#8E8E8E" id="n1996"/>
<path d="M6043 2040.26C6043 2049.04 6094.27 2052 6094.27 2052C6094.27 2044.29 6096.83 2036.87 6101.44 2031.25L6104.1 2028C6090.83 2028 6043 2031.49 6043 2040.26Z" stroke="#8E8E8E" id="n1997"/>
<path d="M6123.09 2020.26L6114 2012L6104.91 2020.26C6104.24 2020.87 6104.67 2022 6105.59 2022H6122.41C6123.33 2022 6123.76 2020.87 6123.09 2020.26Z" fill="#535353" id="n1998"/>
<path d="M6094 2344C6094 2359.98 6101.06 2375.13 6113.3 2385.41L6114 2386L6114.7 2385.41C6126.94 2375.13 6134 2359.98 6134 2344L6094 2344Z" fill="white" stroke="#8E8E8E" id="n1999"/>
<path d="M6137.2 2056C6141.68 2056 6143.92 2056 6145.63 2056.87C6147.14 2057.64 6148.36 2058.86 6149.13 2060.37C6150 2062.08 6150 2064.32 6150 2068.8L6150 2331.2C6150 2335.68 6150 2337.92 6149.13 2339.63C6148.36 2341.14 6147.14 2342.36 6145.63 2343.13C6143.92 2344 6141.68 2344 6137.2 2344H6090.8C6086.32 2344 6084.08 2344 6082.37 2343.13C6080.86 2342.36 6079.64 2341.14 6078.87 2339.63C6078 2337.92 6078 2335.68 6078 2331.2L6078 2068.8C6078 2064.32 6078 2062.08 6078.87 2060.37C6079.64 2058.86 6080.86 2057.64 6082.37 2056.87C6084.08 2056 6086.32 2056 6090.8 2056L6137.2 2056Z" fill="white" stroke="white" id="n2000"/>
<path d="M6126 2344H6090.8C6086.32 2344 6084.08 2344 6082.37 2343.13C6080.86 2342.36 6079.64 2341.14 6078.87 2339.63C6078 2337.92 6078 2335.68 6078 2331.2L6078 2068.8C6078 2064.32 6078 2062.08 6078.87 2060.37C6079.64 2058.86 6080.86 2057.64 6082.37 2056.87C6084.08 2056 6086.32 2056 6090.8 2056H6126V2344Z" fill="#F0F0F0" stroke="#F0F0F0" id="n2001"/>
<path d="M6137.2 2056C6141.68 2056 6143.92 2056 6145.63 2056.87C6147.14 2057.64 6148.36 2058.86 6149.13 2060.37C6150 2062.08 6150 2064.32 6150 2068.8L6150 2331.2C6150 2335.68 6150 2337.92 6149.13 2339.63C6148.36 2341.14 6147.14 2342.36 6145.63 2343.13C6143.92 2344 6141.68 2344 6137.2 2344H6090.8C6086.32 2344 6084.08 2344 6082.37 2343.13C6080.86 2342.36 6079.64 2341.14 6078.87 2339.63C6078 2337.92 6078 2335.68 6078 2331.2L6078 2068.8C6078 2064.32 6078 2062.08 6078.87 2060.37C6079.64 2058.86 6080.86 2057.64 6082.37 2056.87C6084.08 2056 6086.32 2056 6090.8 2056L6137.2 2056Z" stroke="#BEBEBE" id="n2002"/>
<rect x="6078" y="2196" width="72" height="8" fill="#BEBEBE" stroke="#BEBEBE" id="n2003"/>
<g mask="url(#mask218_68_6728)" id="n2006">
<path d="M6154 2126L6130 2126M6154 2196L6130 2196M6154 2056L6130 2056" stroke="#BEBEBE" id="n2007"/>
<path d="M6154 2196L6126 2196M6154 2056L6126 2056" stroke="#BEBEBE" id="n2008"/>
<path d="M6154 2274L6130 2274M6154 2344L6130 2344M6154 2204L6130 2204" stroke="#BEBEBE" id="n2009"/>
<path d="M6154 2344L6126 2344M6154 2204L6126 2204" stroke="#BEBEBE" id="n2010"/>
</g>
<path d="M6153.1 2209.26C6152.32 2209.61 6151.34 2209.6 6150.52 2209.05L6138.95 2201.24C6138.07 2200.64 6138.07 2199.35 6138.95 2198.75L6150.52 2190.94C6151.34 2190.39 6152.32 2190.38 6153.1 2190.73C6153.88 2191.08 6154.5 2191.82 6154.5 2192.8L6154.5 2207.19C6154.5 2208.17 6153.88 2208.91 6153.1 2209.26Z" fill="#2D548B" stroke="white" stroke-linejoin="round" id="n2011"/>
</g>
</svg>
