<?xml version='1.0' encoding='utf-8'?>
<svg xmlns="http://www.w3.org/2000/svg" xmlns:xlink="http://www.w3.org/1999/xlink" width="160.0" height="384.0" viewBox="0 0 160.0 384.0" fill="none">
  <defs><clipPath id="clip__asset"><rect x="0" y="0" width="160.0" height="384.0"/></clipPath><mask id="mask220_68_6728" style="mask-type:luminance" maskUnits="userSpaceOnUse" x="5858" y="2424" width="512" height="512">
<path d="M6137.2 2536C6141.68 2536 6143.92 2536 6145.63 2536.87C6147.14 2537.64 6148.36 2538.86 6149.13 2540.37C6150 2542.08 6150 2544.32 6150 2548.8L6150 2811.2C6150 2815.68 6150 2817.92 6149.13 2819.63C6148.36 2821.14 6147.14 2822.36 6145.63 2823.13C6143.92 2824 6141.68 2824 6137.2 2824H6126L6126 2536H6137.2Z" fill="white" stroke="black" id="n2038"/>
<rect x="6078" y="2676" width="72" height="8" fill="black" stroke="black" id="n2039"/>
</mask>
</defs>
  <g clip-path="url(#clip__asset)" transform="translate(-6034.0 -2488.0)"><path d="M6094 2536L6094 2510C6094 2506.69 6096.69 2504 6100 2504L6128 2504C6131.31 2504 6134 2506.69 6134 2510L6134 2536L6094 2536Z" fill="#F7F7F7" stroke="#8E8E8E" id="n2029"/>
<path d="M6185 2519.74C6185 2510.96 6133.73 2508 6133.73 2508C6133.73 2515.71 6131.17 2523.13 6126.56 2528.75L6123.9 2532C6137.17 2532 6185 2528.51 6185 2519.74Z" fill="#F7F7F7" id="n2030"/>
<path d="M6043 2520.26C6043 2529.04 6094.27 2532 6094.27 2532C6094.27 2524.29 6096.83 2516.87 6101.44 2511.25L6104.1 2508C6090.83 2508 6043 2511.49 6043 2520.26Z" fill="#F7F7F7" id="n2031"/>
<path d="M6185 2519.74C6185 2510.96 6133.73 2508 6133.73 2508C6133.73 2515.71 6131.17 2523.13 6126.56 2528.75L6123.9 2532C6137.17 2532 6185 2528.51 6185 2519.74Z" stroke="#8E8E8E" id="n2032"/>
<path d="M6043 2520.26C6043 2529.04 6094.27 2532 6094.27 2532C6094.27 2524.29 6096.83 2516.87 6101.44 2511.25L6104.1 2508C6090.83 2508 6043 2511.49 6043 2520.26Z" stroke="#8E8E8E" id="n2033"/>
<path d="M6123.09 2500.26L6114 2492L6104.91 2500.26C6104.24 2500.87 6104.67 2502 6105.59 2502H6122.41C6123.33 2502 6123.76 2500.87 6123.09 2500.26Z" fill="#BEBEBE" id="n2034"/>
<path d="M6094 2824C6094 2839.98 6101.06 2855.13 6113.3 2865.41L6114 2866L6114.7 2865.41C6126.94 2855.13 6134 2839.98 6134 2824L6094 2824Z" fill="#F7F7F7" stroke="#8E8E8E" id="n2035"/>
<path d="M6137.2 2536C6141.68 2536 6143.92 2536 6145.63 2536.87C6147.14 2537.64 6148.36 2538.86 6149.13 2540.37C6150 2542.08 6150 2544.32 6150 2548.8L6150 2811.2C6150 2815.68 6150 2817.92 6149.13 2819.63C6148.36 2821.14 6147.14 2822.36 6145.63 2823.13C6143.92 2824 6141.68 2824 6137.2 2824H6090.8C6086.32 2824 6084.08 2824 6082.37 2823.13C6080.86 2822.36 6079.64 2821.14 6078.87 2819.63C6078 2817.92 6078 2815.68 6078 2811.2L6078 2548.8C6078 2544.32 6078 2542.08 6078.87 2540.37C6079.64 2538.86 6080.86 2537.64 6082.37 2536.87C6084.08 2536 6086.32 2536 6090.8 2536L6137.2 2536Z" stroke="#BEBEBE" id="n2036"/>
<rect x="6078" y="2676" width="72" height="8" fill="#BEBEBE" stroke="#BEBEBE" id="n2037"/>
<g mask="url(#mask220_68_6728)" id="n2040">
<path d="M6154 2606L6130 2606M6154 2676L6130 2676M6154 2536L6130 2536" stroke="#BEBEBE" id="n2041"/>
<path d="M6154 2676L6126 2676M6154 2536L6126 2536" stroke="#BEBEBE" id="n2042"/>
<path d="M6154 2754L6130 2754M6154 2824L6130 2824M6154 2684L6130 2684" stroke="#BEBEBE" id="n2043"/>
<path d="M6154 2824L6126 2824M6154 2684L6126 2684" stroke="#BEBEBE" id="n2044"/>
</g>
<path d="M6153.1 2689.26C6152.32 2689.61 6151.34 2689.6 6150.52 2689.05L6138.95 2681.24C6138.07 2680.64 6138.07 2679.35 6138.95 2678.75L6150.52 2670.94C6151.34 2670.39 6152.32 2670.38 6153.1 2670.73C6153.88 2671.08 6154.5 2671.82 6154.5 2672.8L6154.5 2687.19C6154.5 2688.17 6153.88 2688.91 6153.1 2689.26Z" fill="#BEBEBE" stroke="white" stroke-linejoin="round" id="n2045"/>
</g>
</svg>
