<?xml version='1.0' encoding='utf-8'?>
<svg xmlns="http://www.w3.org/2000/svg" xmlns:xlink="http://www.w3.org/1999/xlink" width="216.0" height="384.0" viewBox="0 0 216.0 384.0" fill="none">
  <defs><clipPath id="clip__asset"><rect x="0" y="0" width="216.0" height="384.0"/></clipPath><mask id="mask197_68_6728" style="mask-type:luminance" maskUnits="userSpaceOnUse" x="4382" y="1944" width="512" height="512">
<path d="M4709.2 2056C4713.68 2056 4715.92 2056 4717.63 2056.87C4719.14 2057.64 4720.36 2058.86 4721.13 2060.37C4722 2062.08 4722 2064.32 4722 2068.8L4722 2331.2C4722 2335.68 4722 2337.92 4721.13 2339.63C4720.36 2341.14 4719.14 2342.36 4717.63 2343.13C4715.92 2344 4713.68 2344 4709.2 2344H4698L4698 2056H4709.2Z" fill="white" stroke="black" id="n1627"/>
<path d="M4566.8 2344C4562.32 2344 4560.08 2344 4558.37 2343.13C4556.86 2342.36 4555.64 2341.14 4554.87 2339.63C4554 2337.92 4554 2335.68 4554 2331.2L4554 2068.8C4554 2064.32 4554 2062.08 4554.87 2060.37C4555.64 2058.86 4556.86 2057.64 4558.37 2056.87C4560.08 2056 4562.32 2056 4566.8 2056L4578 2056L4578 2344L4566.8 2344Z" fill="white" stroke="black" id="n1628"/>
<rect x="4646" y="2196" width="72" height="8" fill="black" stroke="black" id="n1629"/>
</mask>
</defs>
  <g clip-path="url(#clip__asset)" transform="translate(-4530.0 -2008.0)"><path d="M4618 2056L4618 2030C4618 2026.69 4620.69 2024 4624 2024L4652 2024C4655.31 2024 4658 2026.69 4658 2030L4658 2056L4618 2056Z" fill="white" stroke="#8E8E8E" id="n1614"/>
<path d="M4709 2039.74C4709 2030.96 4657.73 2028 4657.73 2028C4657.73 2035.71 4655.17 2043.13 4650.56 2048.75L4647.9 2052C4661.17 2052 4709 2048.51 4709 2039.74Z" fill="white" id="n1615"/>
<path d="M4567 2040.26C4567 2049.04 4618.27 2052 4618.27 2052C4618.27 2044.29 4620.83 2036.87 4625.44 2031.25L4628.1 2028C4614.83 2028 4567 2031.49 4567 2040.26Z" fill="white" id="n1616"/>
<path d="M4709 2039.74C4709 2030.96 4657.73 2028 4657.73 2028C4657.73 2035.71 4655.17 2043.13 4650.56 2048.75L4647.9 2052C4661.17 2052 4709 2048.51 4709 2039.74Z" stroke="#8E8E8E" id="n1617"/>
<path d="M4567 2040.26C4567 2049.04 4618.27 2052 4618.27 2052C4618.27 2044.29 4620.83 2036.87 4625.44 2031.25L4628.1 2028C4614.83 2028 4567 2031.49 4567 2040.26Z" stroke="#8E8E8E" id="n1618"/>
<path d="M4647.09 2020.26L4638 2012L4628.91 2020.26C4628.24 2020.87 4628.67 2022 4629.59 2022H4646.41C4647.33 2022 4647.76 2020.87 4647.09 2020.26Z" fill="#535353" id="n1619"/>
<path d="M4618 2344C4618 2359.98 4625.06 2375.13 4637.3 2385.41L4638 2386L4638.7 2385.41C4650.94 2375.13 4658 2359.98 4658 2344L4618 2344Z" fill="white" stroke="#8E8E8E" id="n1620"/>
<path d="M4709.2 2056C4713.68 2056 4715.92 2056 4717.63 2056.87C4719.14 2057.64 4720.36 2058.86 4721.13 2060.37C4722 2062.08 4722 2064.32 4722 2068.8L4722 2331.2C4722 2335.68 4722 2337.92 4721.13 2339.63C4720.36 2341.14 4719.14 2342.36 4717.63 2343.13C4715.92 2344 4713.68 2344 4709.2 2344H4566.8C4562.32 2344 4560.08 2344 4558.37 2343.13C4556.86 2342.36 4555.64 2341.14 4554.87 2339.63C4554 2337.92 4554 2335.68 4554 2331.2L4554 2068.8C4554 2064.32 4554 2062.08 4554.87 2060.37C4555.64 2058.86 4556.86 2057.64 4558.37 2056.87C4560.08 2056 4562.32 2056 4566.8 2056L4709.2 2056Z" fill="white" stroke="white" id="n1621"/>
<path d="M4698 2056L4698 2344H4650L4650 2056L4698 2056Z" fill="#F0F0F0" stroke="#F0F0F0" id="n1622"/>
<path d="M4626 2056L4626 2344H4578L4578 2056L4626 2056Z" fill="#F0F0F0" stroke="#F0F0F0" id="n1623"/>
<path d="M4709.2 2056C4713.68 2056 4715.92 2056 4717.63 2056.87C4719.14 2057.64 4720.36 2058.86 4721.13 2060.37C4722 2062.08 4722 2064.32 4722 2068.8L4722 2331.2C4722 2335.68 4722 2337.92 4721.13 2339.63C4720.36 2341.14 4719.14 2342.36 4717.63 2343.13C4715.92 2344 4713.68 2344 4709.2 2344H4566.8C4562.32 2344 4560.08 2344 4558.37 2343.13C4556.86 2342.36 4555.64 2341.14 4554.87 2339.63C4554 2337.92 4554 2335.68 4554 2331.2L4554 2068.8C4554 2064.32 4554 2062.08 4554.87 2060.37C4555.64 2058.86 4556.86 2057.64 4558.37 2056.87C4560.08 2056 4562.32 2056 4566.8 2056L4709.2 2056Z" stroke="#BEBEBE" id="n1624"/>
<path d="M4554 2336H4626V2344H4562C4557.58 2344 4554 2340.42 4554 2336Z" fill="#BEBEBE" stroke="#BEBEBE" id="n1625"/>
<rect x="4650" y="2196" width="72" height="8" fill="#BEBEBE" stroke="#BEBEBE" id="n1626"/>
<g mask="url(#mask197_68_6728)" id="n1630">
<path d="M4726 2126L4702 2126M4726 2196L4702 2196M4726 2056L4702 2056" stroke="#BEBEBE" id="n1631"/>
<path d="M4726 2196L4698 2196M4726 2056L4698 2056" stroke="#BEBEBE" id="n1632"/>
<path d="M4726 2274L4702 2274M4726 2344L4702 2344M4726 2204L4702 2204" stroke="#BEBEBE" id="n1633"/>
<path d="M4726 2344L4698 2344M4726 2204L4698 2204" stroke="#BEBEBE" id="n1634"/>
<path d="M4550 2196L4574 2196M4550 2056L4574 2056M4550 2336L4574 2336" stroke="#BEBEBE" id="n1635"/>
<path d="M4550 2056L4578 2056M4550 2336L4578 2336" stroke="#BEBEBE" id="n1636"/>
</g>
<path d="M4550.9 2330.74C4551.68 2330.39 4552.66 2330.4 4553.48 2330.95L4565.05 2338.76C4565.93 2339.36 4565.93 2340.65 4565.05 2341.25L4553.48 2349.06C4552.66 2349.61 4551.68 2349.62 4550.9 2349.27C4550.12 2348.92 4549.5 2348.18 4549.5 2347.2V2332.81C4549.5 2331.83 4550.12 2331.09 4550.9 2330.74Z" fill="#535353" stroke="white" stroke-linejoin="round" id="n1637"/>
<path d="M4725.1 2209.26C4724.32 2209.61 4723.34 2209.6 4722.52 2209.05L4710.95 2201.24C4710.07 2200.64 4710.07 2199.35 4710.95 2198.75L4722.52 2190.94C4723.34 2190.39 4724.32 2190.38 4725.1 2190.73C4725.88 2191.08 4726.5 2191.82 4726.5 2192.8L4726.5 2207.19C4726.5 2208.17 4725.88 2208.91 4725.1 2209.26Z" fill="#535353" stroke="white" stroke-linejoin="round" id="n1638"/>
</g>
</svg>
