<?xml version='1.0' encoding='utf-8'?>
<svg xmlns="http://www.w3.org/2000/svg" xmlns:xlink="http://www.w3.org/1999/xlink" width="216.0" height="384.0" viewBox="0 0 216.0 384.0" fill="none">
  <defs><clipPath id="clip__asset"><rect x="0" y="0" width="216.0" height="384.0"/></clipPath><mask id="mask186_68_6728" style="mask-type:luminance" maskUnits="userSpaceOnUse" x="3974" y="1464" width="512" height="512">
<path d="M4301.2 1552C4305.68 1552 4307.92 1552 4309.63 1552.87C4311.14 1553.64 4312.36 1554.86 4313.13 1556.37C4314 1558.08 4314 1560.32 4314 1564.8L4314 1875.2C4314 1879.68 4314 1881.92 4313.13 1883.63C4312.36 1885.14 4311.14 1886.36 4309.63 1887.13C4307.92 1888 4305.68 1888 4301.2 1888H4290L4290 1552L4301.2 1552Z" fill="white" stroke="black" id="n1339"/>
<path d="M4158.8 1888C4154.32 1888 4152.08 1888 4150.37 1887.13C4148.86 1886.36 4147.64 1885.14 4146.87 1883.63C4146 1881.92 4146 1879.68 4146 1875.2L4146 1564.8C4146 1560.32 4146 1558.08 4146.87 1556.37C4147.64 1554.86 4148.86 1553.64 4150.37 1552.87C4152.08 1552 4154.32 1552 4158.8 1552L4170 1552L4170 1888L4158.8 1888Z" fill="white" stroke="black" id="n1340"/>
<rect x="4242" y="1716" width="72" height="8" fill="black" stroke="black" id="n1341"/>
<path d="M4146 1880H4218V1888H4154C4149.58 1888 4146 1884.42 4146 1880Z" fill="black" stroke="black" id="n1342"/>
</mask>
</defs>
  <g clip-path="url(#clip__asset)" transform="translate(-4122.0 -1528.0)"><path d="M4301.2 1552C4305.68 1552 4307.92 1552 4309.63 1552.87C4311.14 1553.64 4312.36 1554.86 4313.13 1556.37C4314 1558.08 4314 1560.32 4314 1564.8L4314 1875.2C4314 1879.68 4314 1881.92 4313.13 1883.63C4312.36 1885.14 4311.14 1886.36 4309.63 1887.13C4307.92 1888 4305.68 1888 4301.2 1888H4158.8C4154.32 1888 4152.08 1888 4150.37 1887.13C4148.86 1886.36 4147.64 1885.14 4146.87 1883.63C4146 1881.92 4146 1879.68 4146 1875.2L4146 1564.8C4146 1560.32 4146 1558.08 4146.87 1556.37C4147.64 1554.86 4148.86 1553.64 4150.37 1552.87C4152.08 1552 4154.32 1552 4158.8 1552L4301.2 1552Z" fill="white" stroke="white" id="n1332"/>
<path d="M4290 1552L4290 1888H4242L4242 1552L4290 1552Z" fill="#F0F0F0" stroke="#F0F0F0" id="n1333"/>
<path d="M4218 1552L4218 1888H4170L4170 1552L4218 1552Z" fill="#F0F0F0" stroke="#F0F0F0" id="n1334"/>
<path d="M4301.2 1552C4305.68 1552 4307.92 1552 4309.63 1552.87C4311.14 1553.64 4312.36 1554.86 4313.13 1556.37C4314 1558.08 4314 1560.32 4314 1564.8L4314 1875.2C4314 1879.68 4314 1881.92 4313.13 1883.63C4312.36 1885.14 4311.14 1886.36 4309.63 1887.13C4307.92 1888 4305.68 1888 4301.2 1888H4158.8C4154.32 1888 4152.08 1888 4150.37 1887.13C4148.86 1886.36 4147.64 1885.14 4146.87 1883.63C4146 1881.92 4146 1879.68 4146 1875.2L4146 1564.8C4146 1560.32 4146 1558.08 4146.87 1556.37C4147.64 1554.86 4148.86 1553.64 4150.37 1552.87C4152.08 1552 4154.32 1552 4158.8 1552L4301.2 1552Z" stroke="#BEBEBE" id="n1335"/>
<path d="M4146 1880H4218V1888H4154C4149.58 1888 4146 1884.42 4146 1880Z" fill="#2D548B" stroke="#2D548B" id="n1336"/>
<rect x="4242" y="1716" width="72" height="8" fill="#BEBEBE" stroke="#BEBEBE" id="n1337"/>
<path d="M4245.48 1545.38L4231.31 1533.13C4230.56 1532.48 4229.44 1532.48 4228.69 1533.13L4214.52 1545.38C4213.46 1546.3 4214.13 1548 4215.55 1548H4244.45C4245.87 1548 4246.54 1546.3 4245.48 1545.38Z" fill="#535353" id="n1338"/>
<g mask="url(#mask186_68_6728)" id="n1343">
<path d="M4318 1634L4294 1634M4318 1716L4294 1716M4318 1552L4294 1552" stroke="#BEBEBE" id="n1344"/>
<path d="M4318 1716L4290 1716M4318 1552L4290 1552" stroke="#BEBEBE" id="n1345"/>
<path d="M4318 1806L4294 1806M4318 1888L4294 1888M4318 1724L4294 1724" stroke="#BEBEBE" id="n1346"/>
<path d="M4318 1888L4290 1888M4318 1724L4290 1724" stroke="#BEBEBE" id="n1347"/>
<path d="M4142 1716L4166 1716M4142 1552L4166 1552M4142 1880L4166 1880" stroke="#BEBEBE" id="n1348"/>
<path d="M4142 1552L4170 1552M4142 1880L4170 1880" stroke="#BEBEBE" id="n1349"/>
</g>
<path d="M4242 1716H4314V1724H4242V1716Z" fill="#2D548B" stroke="#2D548B" id="n1350"/>
<path d="M4146 1880H4218V1888H4154C4149.58 1888 4146 1884.42 4146 1880Z" fill="#2D548B" stroke="#2D548B" id="n1351"/>
<path d="M4142.9 1874.74C4143.68 1874.39 4144.66 1874.4 4145.48 1874.95L4157.05 1882.76C4157.93 1883.36 4157.93 1884.65 4157.05 1885.25L4145.48 1893.06C4144.66 1893.61 4143.68 1893.62 4142.9 1893.27C4142.12 1892.92 4141.5 1892.18 4141.5 1891.2V1876.81C4141.5 1875.83 4142.12 1875.09 4142.9 1874.74Z" fill="#2D548B" stroke="white" stroke-linejoin="round" id="n1352"/>
<path d="M4317.1 1729.26C4316.32 1729.61 4315.34 1729.6 4314.52 1729.05L4302.95 1721.24C4302.07 1720.64 4302.07 1719.35 4302.95 1718.75L4314.52 1710.94C4315.34 1710.39 4316.32 1710.38 4317.1 1710.73C4317.88 1711.08 4318.5 1711.82 4318.5 1712.8L4318.5 1727.19C4318.5 1728.17 4317.88 1728.91 4317.1 1729.26Z" fill="#2D548B" stroke="white" stroke-linejoin="round" id="n1353"/>
</g>
</svg>
