<?xml version='1.0' encoding='utf-8'?>
<svg xmlns="http://www.w3.org/2000/svg" xmlns:xlink="http://www.w3.org/1999/xlink" width="512.0" height="512.0" viewBox="0 0 512.0 512.0" fill="none">
  <defs><clipPath id="clip__asset"><rect x="0" y="0" width="512.0" height="512.0"/></clipPath><mask id="path-229-inside-25_68_6728" fill="white">
<path d="M5499.78 1132.25C5499.09 1133.44 5497.56 1133.85 5496.37 1133.16L5485.97 1127.16C5484.78 1126.47 5484.37 1124.94 5485.06 1123.75C5485.75 1122.55 5487.28 1122.14 5488.47 1122.83L5498.87 1128.83C5500.06 1129.52 5500.47 1131.05 5499.78 1132.25Z" id="n291"/>
</mask>
<mask id="path-231-inside-26_68_6728" fill="white">
<path d="M5209.54 909.539C5210.51 908.563 5212.1 908.563 5213.07 909.539L5221.56 918.024C5222.54 919 5222.54 920.583 5221.56 921.56C5220.58 922.536 5219 922.536 5218.02 921.56L5209.54 913.074C5208.56 912.098 5208.56 910.515 5209.54 909.539Z" id="n294"/>
</mask>
<mask id="mask18_68_6728" style="mask-type:alpha" maskUnits="userSpaceOnUse" x="4990" y="690" width="700" height="700">
<circle cx="5340" cy="1040" r="164" transform="rotate(30 5340 1040)" fill="white" stroke="black" id="n297"/>
</mask>
<mask id="path-235-inside-27_68_6728" fill="white">
<path d="M5432.25 880.217C5436.31 882.564 5437.71 887.763 5435.36 891.828C5433.01 895.893 5427.81 897.286 5423.75 894.939C5419.68 892.592 5418.29 887.393 5420.64 883.328C5422.99 879.263 5428.18 877.87 5432.25 880.217Z" id="n300"/>
</mask>
</defs>
  <g clip-path="url(#clip__asset)" transform="translate(-5084.0 -784.0)"><path d="M5499.78 1132.25C5499.09 1133.44 5497.56 1133.85 5496.37 1133.16L5485.97 1127.16C5484.78 1126.47 5484.37 1124.94 5485.06 1123.75C5485.75 1122.55 5487.28 1122.14 5488.47 1122.83L5498.87 1128.83C5500.06 1129.52 5500.47 1131.05 5499.78 1132.25Z" fill="#BEBEBE" id="n292"/>
<path d="M5488.47 1122.83L5488.97 1121.97L5488.47 1122.83ZM5498.87 1128.83L5498.37 1129.7L5498.87 1128.83ZM5499.78 1132.25L5498.91 1131.75C5498.5 1132.47 5497.58 1132.71 5496.87 1132.3L5496.37 1133.16L5495.87 1134.03C5497.54 1135 5499.68 1134.42 5500.65 1132.75L5499.78 1132.25ZM5496.37 1133.16L5496.87 1132.3L5486.47 1126.3L5485.97 1127.16L5485.47 1128.03L5495.87 1134.03L5496.37 1133.16ZM5485.97 1127.16L5486.47 1126.3C5485.76 1125.88 5485.51 1124.97 5485.92 1124.25L5485.06 1123.75L5484.19 1123.25C5483.23 1124.92 5483.8 1127.06 5485.47 1128.03L5485.97 1127.16ZM5485.06 1123.75L5485.92 1124.25C5486.34 1123.53 5487.26 1123.29 5487.97 1123.7L5488.47 1122.83L5488.97 1121.97C5487.3 1121 5485.16 1121.58 5484.19 1123.25L5485.06 1123.75ZM5488.47 1122.83L5487.97 1123.7L5498.37 1129.7L5498.87 1128.83L5499.37 1127.97L5488.97 1121.97L5488.47 1122.83ZM5498.87 1128.83L5498.37 1129.7C5499.08 1130.11 5499.33 1131.03 5498.91 1131.75L5499.78 1132.25L5500.65 1132.75C5501.61 1131.08 5501.04 1128.93 5499.37 1127.97L5498.87 1128.83Z" fill="#BEBEBE" mask="url(#path-229-inside-25_68_6728)" id="n293"/>
<path d="M5209.54 909.539C5210.51 908.563 5212.1 908.563 5213.07 909.539L5221.56 918.024C5222.54 919 5222.54 920.583 5221.56 921.56C5220.58 922.536 5219 922.536 5218.02 921.56L5209.54 913.074C5208.56 912.098 5208.56 910.515 5209.54 909.539Z" fill="#BEBEBE" id="n295"/>
<path d="M5209.54 913.074L5208.83 913.782L5209.54 913.074ZM5209.54 909.539L5210.25 910.246C5210.83 909.66 5211.78 909.66 5212.37 910.246L5213.07 909.539L5213.78 908.832C5212.41 907.465 5210.2 907.465 5208.83 908.832L5209.54 909.539ZM5213.07 909.539L5212.37 910.246L5220.85 918.731L5221.56 918.024L5222.27 917.317L5213.78 908.832L5213.07 909.539ZM5221.56 918.024L5220.85 918.731C5221.44 919.317 5221.44 920.267 5220.85 920.853L5221.56 921.56L5222.27 922.267C5223.63 920.9 5223.63 918.684 5222.27 917.317L5221.56 918.024ZM5221.56 921.56L5220.85 920.853C5220.27 921.438 5219.32 921.438 5218.73 920.853L5218.02 921.56L5217.32 922.267C5218.68 923.634 5220.9 923.634 5222.27 922.267L5221.56 921.56ZM5218.02 921.56L5218.73 920.853L5210.25 912.367L5209.54 913.074L5208.83 913.782L5217.32 922.267L5218.02 921.56ZM5209.54 913.074L5210.25 912.367C5209.66 911.782 5209.66 910.832 5210.25 910.246L5209.54 909.539L5208.83 908.832C5207.46 910.199 5207.46 912.415 5208.83 913.782L5209.54 913.074Z" fill="#BEBEBE" mask="url(#path-231-inside-26_68_6728)" id="n296"/>
<g mask="url(#mask18_68_6728)" id="n298">
<path d="M5340 1040L5468 818.297" stroke="#BEBEBE" stroke-linecap="square" stroke-dasharray="1 1" id="n299"/>
</g>
<path d="M5432.25 880.217C5436.31 882.564 5437.71 887.763 5435.36 891.828C5433.01 895.893 5427.81 897.286 5423.75 894.939C5419.68 892.592 5418.29 887.393 5420.64 883.328C5422.99 879.263 5428.18 877.87 5432.25 880.217Z" fill="#CADEFC" id="n301"/>
<path d="M5432.25 880.217L5431.75 881.083C5435.34 883.154 5436.57 887.741 5434.49 891.328L5435.36 891.828L5436.23 892.328C5438.85 887.784 5437.29 881.974 5432.75 879.351L5432.25 880.217ZM5435.36 891.828L5434.49 891.328C5432.42 894.915 5427.84 896.144 5424.25 894.073L5423.75 894.939L5423.25 895.805C5427.79 898.429 5433.6 896.872 5436.23 892.328L5435.36 891.828ZM5423.75 894.939L5424.25 894.073C5420.66 892.002 5419.43 887.415 5421.5 883.828L5420.64 883.328L5419.77 882.828C5417.15 887.372 5418.71 893.182 5423.25 895.805L5423.75 894.939ZM5420.64 883.328L5421.5 883.828C5423.58 880.241 5428.16 879.012 5431.75 881.083L5432.25 880.217L5432.75 879.351C5428.21 876.727 5422.4 878.284 5419.77 882.828L5420.64 883.328Z" fill="#2D548B" mask="url(#path-235-inside-27_68_6728)" id="n302"/>
</g>
</svg>
