<?xml version='1.0' encoding='utf-8'?>
<svg xmlns="http://www.w3.org/2000/svg" xmlns:xlink="http://www.w3.org/1999/xlink" width="512.0" height="512.0" viewBox="0 0 512.0 512.0" fill="none">
  <defs><clipPath id="clip__asset"><rect x="0" y="0" width="512.0" height="512.0"/></clipPath><mask id="mask30_68_6728" style="mask-type:alpha" maskUnits="userSpaceOnUse" x="8809" y="308" width="24" height="52">
<rect x="8820.5" y="308.5" width="50.9999" height="7" rx="3.5" transform="rotate(90 8820.5 308.5)" fill="black" stroke="black" id="n448"/>
</mask>
<mask id="mask31_68_6728" style="mask-type:alpha" maskUnits="userSpaceOnUse" x="8321" y="308" width="25" height="52">
<rect x="0.5" y="0.5" width="50.9999" height="7" rx="3.5" transform="matrix(0 1 1 0 8333 308)" fill="black" stroke="black" id="n454"/>
</mask>
<pattern id="pattern12_68_6728" patternUnits="userSpaceOnUse" patternTransform="matrix(16 0 0 16 18 4)" preserveAspectRatio="none" viewBox="0 0 16 16" width="1" height="1">
<g id="pattern12_68_6728_inner">
<g clip-path="url(#clip39_68_6728)" id="n2214">
<path d="M-0.000693321 0L15.9993 16M-8 8L8 24M8 -8L24 8" stroke="#BEBEBE" stroke-width="6" id="n2215"/>
</g>
</g>
</pattern><pattern id="pattern13_68_6728" patternUnits="userSpaceOnUse" patternTransform="matrix(16 0 0 16 18 4)" preserveAspectRatio="none" viewBox="0 0 16 16" width="1" height="1">
<g id="pattern13_68_6728_inner">
<g clip-path="url(#clip40_68_6728)" id="n2216">
<path d="M-0.000693321 0L15.9993 16M-8 8L8 24M8 -8L24 8" stroke="#BEBEBE" stroke-width="6" id="n2217"/>
</g>
</g>
</pattern><clipPath id="clip39_68_6728">
<rect width="16" height="16" fill="white" id="n2290"/>
</clipPath>
<clipPath id="clip40_68_6728">
<rect width="16" height="16" fill="white" id="n2291"/>
</clipPath>
</defs>
  <g clip-path="url(#clip__asset)" transform="translate(-8321.0 -216.0)"><path d="M8837 304L8809 304" stroke="#BEBEBE" id="n446"/>
<rect x="8820.5" y="308.5" width="50.9999" height="7" rx="3.5" transform="rotate(90 8820.5 308.5)" fill="white" stroke="#BEBEBE" id="n447"/>
<g mask="url(#mask30_68_6728)" id="n449">
<rect width="51.9999" height="24" transform="matrix(0 1 -1 0 8833 308)" fill="url(#pattern12_68_6728)" id="n450"/>
</g>
<path d="M8837 364L8809 364" stroke="#BEBEBE" id="n451"/>
<path d="M8317 304L8345 304" stroke="#BEBEBE" id="n452"/>
<rect x="0.5" y="0.5" width="50.9999" height="7" rx="3.5" transform="matrix(0 1 1 0 8333 308)" fill="white" stroke="#BEBEBE" id="n453"/>
<g mask="url(#mask31_68_6728)" id="n455">
<rect width="51.9999" height="24" transform="matrix(0 1 1 0 8321 308)" fill="url(#pattern13_68_6728)" id="n456"/>
</g>
<path d="M8317 364L8345 364" stroke="#BEBEBE" id="n457"/>
</g>
</svg>
