<?xml version='1.0' encoding='utf-8'?>
<svg xmlns="http://www.w3.org/2000/svg" xmlns:xlink="http://www.w3.org/1999/xlink" width="384.0" height="384.0" viewBox="0 0 384.0 384.0" fill="none">
  <defs><clipPath id="clip__asset"><rect x="0" y="0" width="384.0" height="384.0"/></clipPath><mask id="mask57_68_6728" style="mask-type:luminance" maskUnits="userSpaceOnUse" x="1419" y="663" width="234" height="234">
<circle cx="1536" cy="780" r="115" transform="rotate(-30 1536 780)" fill="white" stroke="black" stroke-width="2" id="n313"/>
</mask>
<mask id="mask58_68_6728" style="mask-type:alpha" maskUnits="userSpaceOnUse" x="1292" y="536" width="488" height="488">
<rect width="356" height="356" transform="translate(1292.85 714.848) rotate(-30)" fill="url(#pattern7_68_6728)" id="n315"/>
</mask>
<mask id="mask59_68_6728" style="mask-type:alpha" maskUnits="userSpaceOnUse" x="1280" y="524" width="512" height="512">
<path fill-rule="evenodd" clip-rule="evenodd" d="M1536 592C1639.83 592 1724 676.17 1724 780C1724 883.83 1639.83 968 1536 968C1432.17 968 1348 883.83 1348 780C1348 676.17 1432.17 592 1536 592ZM1536 664C1471.93 664 1420 715.935 1420 780C1420 844.065 1471.93 896 1536 896C1600.07 896 1652 844.065 1652 780C1652 715.935 1600.07 664 1536 664Z" fill="white" stroke="black" id="n321"/>
</mask>
<mask id="mask60_68_6728" style="mask-type:luminance" maskUnits="userSpaceOnUse" x="1280" y="524" width="512" height="512">
<circle cx="1536" cy="780" r="102" fill="white" stroke="black" stroke-width="20" id="n325"/>
</mask>
<mask id="mask61_68_6728" style="mask-type:luminance" maskUnits="userSpaceOnUse" x="1280" y="524" width="512" height="512">
<path fill-rule="evenodd" clip-rule="evenodd" d="M1536 592C1639.83 592 1724 676.17 1724 780C1724 883.83 1639.83 968 1536 968C1432.17 968 1348 883.83 1348 780C1348 676.17 1432.17 592 1536 592ZM1536 616C1445.43 616 1372 689.425 1372 780C1372 870.575 1445.43 944 1536 944C1626.57 944 1700 870.575 1700 780C1700 689.425 1626.57 616 1536 616Z" fill="white" stroke="black" id="n329"/>
</mask>
<mask id="mask62_68_6728" style="mask-type:alpha" maskUnits="userSpaceOnUse" x="1280" y="524" width="512" height="512">
<path d="M1536 596C1637.62 596 1720 678.38 1720 780C1720 881.62 1637.62 964 1536 964C1434.38 964 1352 881.62 1352 780C1352 678.38 1434.38 596 1536 596ZM1536 620C1447.63 620 1376 691.634 1376 780C1376 868.366 1447.63 940 1536 940C1624.37 940 1696 868.366 1696 780C1696 691.634 1624.37 620 1536 620Z" fill="black" id="n331"/>
</mask>
<mask id="mask63_68_6728" style="mask-type:alpha" maskUnits="userSpaceOnUse" x="1280" y="524" width="512" height="512">
<path d="M1536 588C1642.04 588 1728 673.961 1728 780C1728 886.039 1642.04 972 1536 972C1429.96 972 1344 886.039 1344 780C1344 673.961 1429.96 588 1536 588ZM1536 616C1445.43 616 1372 689.425 1372 780C1372 870.575 1445.43 944 1536 944C1626.57 944 1700 870.575 1700 780C1700 689.425 1626.57 616 1536 616Z" fill="black" id="n334"/>
</mask>
<mask id="path-251-outside-10_68_6728" maskUnits="userSpaceOnUse" x="1446.25" y="635.409" width="39.6865" height="47.7391" fill="black">
<rect fill="white" x="1446.25" y="635.409" width="39.6865" height="47.7391" id="n342"/>
<path d="M1479.18 664.222L1476 676.077L1464.15 672.9L1465.01 669.681L1473.64 671.995L1475.96 663.36L1479.18 664.222ZM1474.18 655.561L1471 667.417L1459.15 664.24L1460.01 661.021L1468.64 663.334L1470.96 654.699L1474.18 655.561ZM1469.18 646.901L1466 658.757L1454.15 655.58L1455.01 652.36L1463.64 654.674L1465.96 646.039L1469.18 646.901ZM1462.44 649.263L1459.56 650.93L1454.56 642.27L1457.44 640.603L1462.44 649.263Z" id="n343"/>
</mask>
<pattern id="pattern7_68_6728" patternUnits="userSpaceOnUse" patternTransform="matrix(48 0 0 48 154 154)" preserveAspectRatio="none" viewBox="0 0 48 48" width="1" height="1">
<g id="pattern7_68_6728_inner">
<rect width="48" height="48" fill="url(#paint7_linear_68_6728)" id="n371"/>
</g>
</pattern><linearGradient id="paint7_linear_68_6728" x1="24" y1="0" x2="24" y2="48" gradientUnits="userSpaceOnUse">
<stop stop-opacity="0" id="n386"/>
<stop offset="1" id="n387"/>
</linearGradient>
</defs>
  <g clip-path="url(#clip__asset)" transform="translate(-1344.0 -588.0)"><g mask="url(#mask57_68_6728)" id="n314">
<mask id="mask58_68_6728" style="mask-type:alpha" maskUnits="userSpaceOnUse" x="1292" y="536" width="488" height="488">
<rect width="356" height="356" transform="translate(1292.85 714.848) rotate(-30)" fill="url(#pattern7_68_6728)" id="n315"/>
</mask>
<g mask="url(#mask58_68_6728)" id="n316">
<rect width="356" height="356" transform="translate(1292.85 714.848) rotate(-30)" fill="#BEBEBE" id="n317"/>
</g>
</g>
<path fill-rule="evenodd" clip-rule="evenodd" d="M1536 592C1639.83 592 1724 676.17 1724 780C1724 883.83 1639.83 968 1536 968C1432.17 968 1348 883.83 1348 780C1348 676.17 1432.17 592 1536 592ZM1536 616C1445.43 616 1372 689.425 1372 780C1372 870.575 1445.43 944 1536 944C1626.57 944 1700 870.575 1700 780C1700 689.425 1626.57 616 1536 616Z" fill="white" stroke="white" id="n318"/>
<path fill-rule="evenodd" clip-rule="evenodd" d="M1536 616C1626.57 616 1700 689.425 1700 780C1700 870.575 1626.57 944 1536 944C1445.43 944 1372 870.575 1372 780C1372 689.425 1445.43 616 1536 616ZM1536 664C1471.93 664 1420 715.935 1420 780C1420 844.065 1471.93 896 1536 896C1600.07 896 1652 844.065 1652 780C1652 715.935 1600.07 664 1536 664Z" fill="#F0F0F0" stroke="#F0F0F0" id="n319"/>
<path fill-rule="evenodd" clip-rule="evenodd" d="M1536 592C1639.83 592 1724 676.17 1724 780C1724 883.83 1639.83 968 1536 968C1432.17 968 1348 883.83 1348 780C1348 676.17 1432.17 592 1536 592ZM1536 664C1471.93 664 1420 715.935 1420 780C1420 844.065 1471.93 896 1536 896C1600.07 896 1652 844.065 1652 780C1652 715.935 1600.07 664 1536 664Z" stroke="#BEBEBE" id="n320"/>
<g mask="url(#mask59_68_6728)" id="n322">
<path d="M1280 780H1792" stroke="#BEBEBE" stroke-linecap="square" id="n323"/>
<path d="M1536 524L1536 1036" stroke="#BEBEBE" stroke-linecap="square" id="n324"/>
</g>
<g mask="url(#mask60_68_6728)" id="n326">
<path d="M1372 780H1700" stroke="#BEBEBE" stroke-linecap="square" id="n327"/>
<path d="M1536 616L1536 944" stroke="#BEBEBE" stroke-linecap="square" id="n328"/>
</g>
<g mask="url(#mask61_68_6728)" id="n330">
<mask id="mask62_68_6728" style="mask-type:alpha" maskUnits="userSpaceOnUse" x="1280" y="524" width="512" height="512">
<path d="M1536 596C1637.62 596 1720 678.38 1720 780C1720 881.62 1637.62 964 1536 964C1434.38 964 1352 881.62 1352 780C1352 678.38 1434.38 596 1536 596ZM1536 620C1447.63 620 1376 691.634 1376 780C1376 868.366 1447.63 940 1536 940C1624.37 940 1696 868.366 1696 780C1696 691.634 1624.37 620 1536 620Z" fill="black" id="n331"/>
</mask>
<g mask="url(#mask62_68_6728)" id="n332">
<path d="M1536 580V780M1536 780H1336M1536 780V980M1536 780H1736" stroke="#BEBEBE" id="n333"/>
</g>
<mask id="mask63_68_6728" style="mask-type:alpha" maskUnits="userSpaceOnUse" x="1280" y="524" width="512" height="512">
<path d="M1536 588C1642.04 588 1728 673.961 1728 780C1728 886.039 1642.04 972 1536 972C1429.96 972 1344 886.039 1344 780C1344 673.961 1429.96 588 1536 588ZM1536 616C1445.43 616 1372 689.425 1372 780C1372 870.575 1445.43 944 1536 944C1626.57 944 1700 870.575 1700 780C1700 689.425 1626.57 616 1536 616Z" fill="black" id="n334"/>
</mask>
<g mask="url(#mask63_68_6728)" id="n335">
<path d="M1536 580V780M1536 780H1336M1536 780V980M1536 780H1736" stroke="#BEBEBE" id="n336"/>
</g>
</g>
<path d="M1539.33 683H1538.23L1533.52 675.776H1533.47C1533.48 675.92 1533.49 676.08 1533.5 676.256C1533.51 676.424 1533.53 676.608 1533.53 676.808C1533.54 677 1533.55 677.2 1533.55 677.408C1533.55 677.616 1533.56 677.824 1533.56 678.032V683H1532.67V674.432H1533.76L1538.45 681.632H1538.49C1538.49 681.528 1538.49 681.392 1538.48 681.224C1538.47 681.056 1538.46 680.872 1538.45 680.672C1538.45 680.464 1538.44 680.256 1538.43 680.048C1538.42 679.832 1538.42 679.632 1538.42 679.448V674.432H1539.33V683Z" fill="#707070" id="n337"/>
<path d="M1538.71 884.732C1538.71 885.244 1538.59 885.676 1538.34 886.028C1538.09 886.38 1537.74 886.652 1537.27 886.844C1536.82 887.028 1536.28 887.12 1535.68 887.12C1535.36 887.12 1535.05 887.104 1534.75 887.072C1534.46 887.04 1534.2 886.996 1533.96 886.94C1533.73 886.876 1533.52 886.804 1533.34 886.724V885.788C1533.62 885.916 1533.98 886.032 1534.4 886.136C1534.83 886.232 1535.27 886.28 1535.72 886.28C1536.16 886.28 1536.52 886.224 1536.82 886.112C1537.12 885.992 1537.35 885.824 1537.51 885.608C1537.67 885.384 1537.75 885.116 1537.75 884.804C1537.75 884.508 1537.68 884.26 1537.55 884.06C1537.42 883.86 1537.2 883.68 1536.9 883.52C1536.6 883.352 1536.19 883.18 1535.68 883.004C1535.31 882.868 1534.98 882.724 1534.7 882.572C1534.43 882.42 1534.2 882.248 1534.01 882.056C1533.82 881.864 1533.68 881.64 1533.59 881.384C1533.49 881.128 1533.44 880.832 1533.44 880.496C1533.44 880.032 1533.56 879.64 1533.79 879.32C1534.02 878.992 1534.34 878.744 1534.75 878.576C1535.17 878.4 1535.64 878.312 1536.17 878.312C1536.63 878.312 1537.06 878.356 1537.44 878.444C1537.82 878.524 1538.18 878.64 1538.51 878.792L1538.2 879.608C1537.89 879.48 1537.56 879.376 1537.21 879.296C1536.87 879.208 1536.51 879.164 1536.14 879.164C1535.78 879.164 1535.46 879.22 1535.21 879.332C1534.95 879.436 1534.76 879.588 1534.62 879.788C1534.48 879.988 1534.42 880.224 1534.42 880.496C1534.42 880.808 1534.48 881.064 1534.61 881.264C1534.74 881.464 1534.95 881.64 1535.23 881.792C1535.52 881.944 1535.89 882.104 1536.34 882.272C1536.85 882.456 1537.28 882.652 1537.63 882.86C1537.98 883.068 1538.25 883.32 1538.44 883.616C1538.62 883.904 1538.71 884.276 1538.71 884.732Z" fill="#707070" id="n338"/>
<path d="M1643.11 785H1638.35V776.432H1643.11V777.284H1639.31V780.092H1642.88V780.932H1639.31V784.148H1643.11V785Z" fill="#707070" id="n339"/>
<path d="M1439.33 776.432L1437.04 785H1436.07L1434.37 779.18C1434.32 779.02 1434.27 778.86 1434.22 778.7C1434.18 778.532 1434.14 778.376 1434.1 778.232C1434.07 778.08 1434.04 777.948 1434.01 777.836C1433.98 777.724 1433.96 777.636 1433.95 777.572C1433.94 777.636 1433.92 777.724 1433.9 777.836C1433.88 777.94 1433.85 778.068 1433.81 778.22C1433.78 778.364 1433.75 778.516 1433.71 778.676C1433.67 778.836 1433.62 779 1433.57 779.168L1431.91 785H1430.93L1428.65 776.432H1429.66L1431.07 781.856C1431.11 782.032 1431.15 782.208 1431.19 782.384C1431.23 782.552 1431.26 782.72 1431.29 782.888C1431.33 783.048 1431.37 783.204 1431.39 783.356C1431.41 783.508 1431.44 783.656 1431.46 783.8C1431.49 783.648 1431.51 783.496 1431.53 783.344C1431.57 783.184 1431.6 783.02 1431.64 782.852C1431.68 782.676 1431.72 782.5 1431.76 782.324C1431.81 782.148 1431.86 781.976 1431.91 781.808L1433.47 776.432H1434.46L1436.07 781.844C1436.13 782.02 1436.17 782.2 1436.21 782.384C1436.26 782.56 1436.31 782.732 1436.35 782.9C1436.39 783.06 1436.42 783.22 1436.44 783.38C1436.47 783.532 1436.5 783.676 1436.53 783.812C1436.55 783.62 1436.58 783.42 1436.61 783.212C1436.65 783.004 1436.7 782.788 1436.75 782.564C1436.81 782.332 1436.87 782.096 1436.93 781.856L1438.33 776.432H1439.33Z" fill="#707070" id="n340"/>
<path d="M1534.37 595.28C1535.17 594.164 1536.83 594.164 1537.62 595.28L1553.05 616.877C1547.45 616.298 1541.76 616 1536 616C1530.24 616 1524.55 616.298 1518.94 616.878L1534.37 595.28Z" fill="#BEBEBE" id="n341"/>
<path d="M1479.18 664.222L1476 676.077L1464.15 672.9L1465.01 669.681L1473.64 671.995L1475.96 663.36L1479.18 664.222ZM1474.18 655.561L1471 667.417L1459.15 664.24L1460.01 661.021L1468.64 663.334L1470.96 654.699L1474.18 655.561ZM1469.18 646.901L1466 658.757L1454.15 655.58L1455.01 652.36L1463.64 654.674L1465.96 646.039L1469.18 646.901ZM1462.44 649.263L1459.56 650.93L1454.56 642.27L1457.44 640.603L1462.44 649.263Z" fill="#535353" id="n344"/>
<path d="M1479.18 664.222L1480.14 664.481L1480.4 663.514L1479.44 663.256L1479.18 664.222ZM1476 676.077L1475.74 677.043L1476.71 677.302L1476.97 676.336L1476 676.077ZM1464.15 672.9L1463.18 672.641L1462.92 673.607L1463.89 673.866L1464.15 672.9ZM1465.01 669.681L1465.27 668.715L1464.3 668.456L1464.04 669.422L1465.01 669.681ZM1473.64 671.995L1473.38 672.961L1474.35 673.219L1474.61 672.254L1473.64 671.995ZM1475.96 663.36L1476.22 662.394L1475.25 662.135L1474.99 663.101L1475.96 663.36ZM1474.18 655.561L1475.14 655.82L1475.4 654.854L1474.44 654.595L1474.18 655.561ZM1471 667.417L1470.74 668.383L1471.71 668.642L1471.97 667.676L1471 667.417ZM1459.15 664.24L1458.18 663.981L1457.92 664.947L1458.89 665.206L1459.15 664.24ZM1460.01 661.021L1460.27 660.055L1459.3 659.796L1459.04 660.762L1460.01 661.021ZM1468.64 663.334L1468.38 664.3L1469.35 664.559L1469.61 663.593L1468.64 663.334ZM1470.96 654.699L1471.22 653.733L1470.25 653.475L1469.99 654.441L1470.96 654.699ZM1469.18 646.901L1470.14 647.16L1470.4 646.194L1469.44 645.935L1469.18 646.901ZM1466 658.757L1465.74 659.722L1466.71 659.981L1466.97 659.015L1466 658.757ZM1454.15 655.58L1453.18 655.321L1452.92 656.287L1453.89 656.546L1454.15 655.58ZM1455.01 652.36L1455.27 651.395L1454.3 651.136L1454.04 652.101L1455.01 652.36ZM1463.64 654.674L1463.38 655.64L1464.35 655.899L1464.61 654.933L1463.64 654.674ZM1465.96 646.039L1466.22 645.073L1465.25 644.815L1464.99 645.78L1465.96 646.039ZM1462.44 649.263L1462.94 650.129L1463.81 649.629L1463.31 648.763L1462.44 649.263ZM1459.56 650.93L1458.69 651.43L1459.19 652.296L1460.06 651.796L1459.56 650.93ZM1454.56 642.27L1454.06 641.404L1453.19 641.904L1453.69 642.77L1454.56 642.27ZM1457.44 640.603L1458.31 640.103L1457.81 639.237L1456.94 639.737L1457.44 640.603ZM1479.18 664.222L1478.21 663.963L1475.03 675.818L1476 676.077L1476.97 676.336L1480.14 664.481L1479.18 664.222ZM1476 676.077L1476.26 675.111L1464.4 671.934L1464.15 672.9L1463.89 673.866L1475.74 677.043L1476 676.077ZM1464.15 672.9L1465.11 673.159L1465.97 669.94L1465.01 669.681L1464.04 669.422L1463.18 672.641L1464.15 672.9ZM1465.01 669.681L1464.75 670.647L1473.38 672.961L1473.64 671.995L1473.9 671.029L1465.27 668.715L1465.01 669.681ZM1473.64 671.995L1474.61 672.254L1476.92 663.619L1475.96 663.36L1474.99 663.101L1472.68 671.736L1473.64 671.995ZM1475.96 663.36L1475.7 664.326L1478.92 665.188L1479.18 664.222L1479.44 663.256L1476.22 662.394L1475.96 663.36ZM1474.18 655.561L1473.21 655.303L1470.03 667.158L1471 667.417L1471.97 667.676L1475.14 655.82L1474.18 655.561ZM1471 667.417L1471.26 666.451L1459.4 663.274L1459.15 664.24L1458.89 665.206L1470.74 668.383L1471 667.417ZM1459.15 664.24L1460.11 664.499L1460.97 661.28L1460.01 661.021L1459.04 660.762L1458.18 663.981L1459.15 664.24ZM1460.01 661.021L1459.75 661.987L1468.38 664.3L1468.64 663.334L1468.9 662.369L1460.27 660.055L1460.01 661.021ZM1468.64 663.334L1469.61 663.593L1471.92 654.958L1470.96 654.699L1469.99 654.441L1467.68 663.076L1468.64 663.334ZM1470.96 654.699L1470.7 655.665L1473.92 656.527L1474.18 655.561L1474.44 654.595L1471.22 653.733L1470.96 654.699ZM1469.18 646.901L1468.21 646.642L1465.03 658.498L1466 658.757L1466.97 659.015L1470.14 647.16L1469.18 646.901ZM1466 658.757L1466.26 657.791L1454.4 654.614L1454.15 655.58L1453.89 656.546L1465.74 659.722L1466 658.757ZM1454.15 655.58L1455.11 655.839L1455.97 652.619L1455.01 652.36L1454.04 652.101L1453.18 655.321L1454.15 655.58ZM1455.01 652.36L1454.75 653.326L1463.38 655.64L1463.64 654.674L1463.9 653.708L1455.27 651.395L1455.01 652.36ZM1463.64 654.674L1464.61 654.933L1466.92 646.298L1465.96 646.039L1464.99 645.78L1462.68 654.415L1463.64 654.674ZM1465.96 646.039L1465.7 647.005L1468.92 647.867L1469.18 646.901L1469.44 645.935L1466.22 645.073L1465.96 646.039ZM1462.44 649.263L1461.94 648.397L1459.06 650.064L1459.56 650.93L1460.06 651.796L1462.94 650.129L1462.44 649.263ZM1459.56 650.93L1460.42 650.43L1455.42 641.77L1454.56 642.27L1453.69 642.77L1458.69 651.43L1459.56 650.93ZM1454.56 642.27L1455.06 643.136L1457.94 641.469L1457.44 640.603L1456.94 639.737L1454.06 641.404L1454.56 642.27ZM1457.44 640.603L1456.58 641.103L1461.58 649.763L1462.44 649.263L1463.31 648.763L1458.31 640.103L1457.44 640.603Z" fill="#F7F7F7" mask="url(#path-251-outside-10_68_6728)" id="n345"/>
<path d="M1505.69 840.98L1535.35 730.276C1540.69 710.339 1554.31 711.66 1554.31 711.66C1554.31 711.66 1566.77 717.327 1561.43 737.264L1531.77 847.968C1531.48 849.035 1530.38 849.668 1529.32 849.383L1527.99 849.027L1508.43 843.786L1507.1 843.43C1506.03 843.144 1505.4 842.047 1505.69 840.98Z" fill="white" stroke="#8E8E8E" id="n346"/>
<path d="M1514.68 836.402L1505.02 833.814L1508.12 822.223L1515.85 824.293L1519.78 821.206L1529.44 823.794L1531.31 828.434L1539.03 830.505L1535.93 842.096L1526.27 839.508L1524 847.96L1512.41 844.854L1514.68 836.402Z" fill="white" stroke="#8E8E8E" id="n347"/>
<path d="M1547.57 722.709C1549.42 723.747 1550.61 725.647 1550.75 727.766L1551.31 736.653L1547.35 728.677C1546.41 726.775 1546.49 724.529 1547.57 722.709Z" fill="#8E8E8E" stroke="#8E8E8E" id="n348"/>
<path d="M1541.36 745.889C1543.2 746.927 1544.4 748.827 1544.54 750.946L1545.1 759.832L1541.14 751.857C1540.19 749.954 1540.28 747.709 1541.36 745.889Z" fill="#8E8E8E" stroke="#8E8E8E" id="n349"/>
<path d="M1535.15 769.071C1536.99 770.109 1538.19 772.009 1538.33 774.129L1538.89 783.015L1534.93 775.039C1533.98 773.137 1534.07 770.892 1535.15 769.071Z" fill="#8E8E8E" stroke="#8E8E8E" id="n350"/>
<path d="M1528.94 792.254C1530.78 793.292 1531.98 795.192 1532.11 797.311L1532.67 806.198L1528.72 798.222C1527.77 796.32 1527.86 794.074 1528.94 792.254Z" fill="#8E8E8E" stroke="#8E8E8E" id="n351"/>
</g>
</svg>
