<?xml version='1.0' encoding='utf-8'?>
<svg xmlns="http://www.w3.org/2000/svg" xmlns:xlink="http://www.w3.org/1999/xlink" width="512.0" height="512.0" viewBox="0 0 512.0 512.0" fill="none">
  <defs><clipPath id="clip__asset"><rect x="0" y="0" width="512.0" height="512.0"/></clipPath><mask id="path-1543-inside-98_68_6728" fill="white">
<path d="M19180.6 1181.33C19179.5 1182.22 19178 1182.08 19177.1 1181.03L19169.4 1171.83C19168.5 1170.78 19168.6 1169.2 19169.7 1168.31C19170.7 1167.42 19172.3 1167.56 19173.2 1168.62L19180.9 1177.81C19181.8 1178.87 19181.7 1180.45 19180.6 1181.33Z" id="n1909"/>
</mask>
<mask id="path-1545-inside-99_68_6728" fill="white">
<path d="M18943.4 1181.33C18942.3 1180.45 18942.2 1178.87 18943.1 1177.81L18950.8 1168.62C18951.7 1167.56 18953.3 1167.42 18954.3 1168.31C18955.4 1169.2 18955.5 1170.78 18954.6 1171.83L18946.9 1181.03C18946 1182.08 18944.5 1182.22 18943.4 1181.33Z" id="n1912"/>
</mask>
</defs>
  <g clip-path="url(#clip__asset)" transform="translate(-18806.0 -784.0)"><path d="M19180.6 1181.33C19179.5 1182.22 19178 1182.08 19177.1 1181.03L19169.4 1171.83C19168.5 1170.78 19168.6 1169.2 19169.7 1168.31C19170.7 1167.42 19172.3 1167.56 19173.2 1168.62L19180.9 1177.81C19181.8 1178.87 19181.7 1180.45 19180.6 1181.33Z" fill="#BEBEBE" id="n1910"/>
<path d="M19180.9 1177.81L19181.7 1177.17L19180.9 1177.81ZM19180.6 1181.33L19180 1180.57C19179.3 1181.1 19178.4 1181.02 19177.8 1180.38L19177.1 1181.03L19176.3 1181.67C19177.6 1183.15 19179.8 1183.34 19181.2 1182.1L19180.6 1181.33ZM19177.1 1181.03L19177.8 1180.38L19170.1 1171.19L19169.4 1171.83L19168.6 1172.48L19176.3 1181.67L19177.1 1181.03ZM19169.4 1171.83L19170.1 1171.19C19169.6 1170.56 19169.7 1169.61 19170.3 1169.08L19169.7 1168.31L19169 1167.54C19167.5 1168.79 19167.4 1170.99 19168.6 1172.48L19169.4 1171.83ZM19169.7 1168.31L19170.3 1169.08C19170.9 1168.54 19171.9 1168.63 19172.4 1169.26L19173.2 1168.62L19174 1167.98C19172.7 1166.5 19170.5 1166.3 19169 1167.54L19169.7 1168.31ZM19173.2 1168.62L19172.4 1169.26L19180.1 1178.45L19180.9 1177.81L19181.7 1177.17L19174 1167.98L19173.2 1168.62ZM19180.9 1177.81L19180.1 1178.45C19180.7 1179.09 19180.6 1180.03 19180 1180.57L19180.6 1181.33L19181.2 1182.1C19182.7 1180.86 19182.9 1178.65 19181.7 1177.17L19180.9 1177.81Z" fill="#BEBEBE" mask="url(#path-1543-inside-98_68_6728)" id="n1911"/>
<path d="M18943.4 1181.33C18942.3 1180.45 18942.2 1178.87 18943.1 1177.81L18950.8 1168.62C18951.7 1167.56 18953.3 1167.42 18954.3 1168.31C18955.4 1169.2 18955.5 1170.78 18954.6 1171.83L18946.9 1181.03C18946 1182.08 18944.5 1182.22 18943.4 1181.33Z" fill="#BEBEBE" id="n1913"/>
<path d="M18946.9 1181.03L18947.7 1181.67L18946.9 1181.03ZM18943.4 1181.33L18944 1180.57C18943.4 1180.04 18943.3 1179.09 18943.9 1178.46L18943.1 1177.81L18942.3 1177.17C18941.1 1178.65 18941.3 1180.86 18942.8 1182.1L18943.4 1181.33ZM18943.1 1177.81L18943.9 1178.46L18951.6 1169.26L18950.8 1168.62L18950 1167.98L18942.3 1177.17L18943.1 1177.81ZM18950.8 1168.62L18951.6 1169.26C18952.1 1168.63 18953.1 1168.55 18953.7 1169.08L18954.3 1168.31L18955 1167.55C18953.5 1166.3 18951.3 1166.5 18950 1167.98L18950.8 1168.62ZM18954.3 1168.31L18953.7 1169.08C18954.3 1169.61 18954.4 1170.56 18953.9 1171.19L18954.6 1171.83L18955.4 1172.48C18956.7 1171 18956.5 1168.79 18955 1167.55L18954.3 1168.31ZM18954.6 1171.83L18953.9 1171.19L18946.2 1180.38L18946.9 1181.03L18947.7 1181.67L18955.4 1172.48L18954.6 1171.83ZM18946.9 1181.03L18946.2 1180.38C18945.6 1181.02 18944.7 1181.1 18944 1180.57L18943.4 1181.33L18942.8 1182.1C18944.2 1183.34 18946.5 1183.15 18947.7 1181.67L18946.9 1181.03Z" fill="#BEBEBE" mask="url(#path-1545-inside-99_68_6728)" id="n1914"/>
</g>
</svg>
