<svg width="24" height="24" viewBox="912 6600 24 24" fill="none" xmlns="http://www.w3.org/2000/svg">
  <defs>
<filter xmlns="http://www.w3.org/2000/svg" id="filter0_d_3597_4069" x="479.7" y="1631.75" width="16.1285" height="19.9741" filterUnits="userSpaceOnUse" color-interpolation-filters="sRGB">
<feFlood flood-opacity="0" result="BackgroundImageFix" />
<feColorMatrix in="SourceAlpha" type="matrix" values="0 0 0 0 0 0 0 0 0 0 0 0 0 0 0 0 0 0 127 0" result="hardAlpha" />
<feOffset dy="1" />
<feGaussianBlur stdDeviation="0.5" />
<feColorMatrix type="matrix" values="0 0 0 0 0 0 0 0 0 0 0 0 0 0 0 0 0 0 0.2 0" />
<feBlend mode="normal" in2="BackgroundImageFix" result="effect1_dropShadow_3597_4069" />
<feBlend mode="normal" in="SourceGraphic" in2="effect1_dropShadow_3597_4069" result="shape" />
</filter>
<filter xmlns="http://www.w3.org/2000/svg" id="filter1_d_3597_4069" x="564" y="1637" width="24" height="24" filterUnits="userSpaceOnUse" color-interpolation-filters="sRGB">
<feFlood flood-opacity="0" result="BackgroundImageFix" />
<feColorMatrix in="SourceAlpha" type="matrix" values="0 0 0 0 0 0 0 0 0 0 0 0 0 0 0 0 0 0 127 0" result="hardAlpha" />
<feOffset dy="1" />
<feGaussianBlur stdDeviation="0.5" />
<feColorMatrix type="matrix" values="0 0 0 0 0 0 0 0 0 0 0 0 0 0 0 0 0 0 0.2 0" />
<feBlend mode="normal" in2="BackgroundImageFix" result="effect1_dropShadow_3597_4069" />
<feBlend mode="normal" in="SourceGraphic" in2="effect1_dropShadow_3597_4069" result="shape" />
</filter>
<filter xmlns="http://www.w3.org/2000/svg" id="filter2_d_3597_4069" x="645" y="1638" width="22" height="22" filterUnits="userSpaceOnUse" color-interpolation-filters="sRGB">
<feFlood flood-opacity="0" result="BackgroundImageFix" />
<feColorMatrix in="SourceAlpha" type="matrix" values="0 0 0 0 0 0 0 0 0 0 0 0 0 0 0 0 0 0 127 0" result="hardAlpha" />
<feOffset dy="1" />
<feGaussianBlur stdDeviation="0.5" />
<feColorMatrix type="matrix" values="0 0 0 0 0 0 0 0 0 0 0 0 0 0 0 0 0 0 0.2 0" />
<feBlend mode="normal" in2="BackgroundImageFix" result="effect1_dropShadow_3597_4069" />
<feBlend mode="normal" in="SourceGraphic" in2="effect1_dropShadow_3597_4069" result="shape" />
</filter>
<filter xmlns="http://www.w3.org/2000/svg" id="filter3_d_3597_4069" x="724.634" y="1637.24" width="22.434" height="24.379" filterUnits="userSpaceOnUse" color-interpolation-filters="sRGB">
<feFlood flood-opacity="0" result="BackgroundImageFix" />
<feColorMatrix in="SourceAlpha" type="matrix" values="0 0 0 0 0 0 0 0 0 0 0 0 0 0 0 0 0 0 127 0" result="hardAlpha" />
<feOffset dy="1" />
<feGaussianBlur stdDeviation="0.5" />
<feColorMatrix type="matrix" values="0 0 0 0 0 0 0 0 0 0 0 0 0 0 0 0 0 0 0.2 0" />
<feBlend mode="normal" in2="BackgroundImageFix" result="effect1_dropShadow_3597_4069" />
<feBlend mode="normal" in="SourceGraphic" in2="effect1_dropShadow_3597_4069" result="shape" />
</filter>
<filter xmlns="http://www.w3.org/2000/svg" id="filter4_d_3597_4069" x="799.419" y="1632.42" width="28.5812" height="28.5812" filterUnits="userSpaceOnUse" color-interpolation-filters="sRGB">
<feFlood flood-opacity="0" result="BackgroundImageFix" />
<feColorMatrix in="SourceAlpha" type="matrix" values="0 0 0 0 0 0 0 0 0 0 0 0 0 0 0 0 0 0 127 0" result="hardAlpha" />
<feOffset dy="1" />
<feGaussianBlur stdDeviation="0.5" />
<feColorMatrix type="matrix" values="0 0 0 0 0 0 0 0 0 0 0 0 0 0 0 0 0 0 0.2 0" />
<feBlend mode="normal" in2="BackgroundImageFix" result="effect1_dropShadow_3597_4069" />
<feBlend mode="normal" in="SourceGraphic" in2="effect1_dropShadow_3597_4069" result="shape" />
</filter>
<filter xmlns="http://www.w3.org/2000/svg" id="filter5_d_3597_4069" x="879.419" y="1632.42" width="26.7811" height="29.5812" filterUnits="userSpaceOnUse" color-interpolation-filters="sRGB">
<feFlood flood-opacity="0" result="BackgroundImageFix" />
<feColorMatrix in="SourceAlpha" type="matrix" values="0 0 0 0 0 0 0 0 0 0 0 0 0 0 0 0 0 0 127 0" result="hardAlpha" />
<feOffset dy="1" />
<feGaussianBlur stdDeviation="0.5" />
<feColorMatrix type="matrix" values="0 0 0 0 0 0 0 0 0 0 0 0 0 0 0 0 0 0 0.2 0" />
<feBlend mode="normal" in2="BackgroundImageFix" result="effect1_dropShadow_3597_4069" />
<feBlend mode="normal" in="SourceGraphic" in2="effect1_dropShadow_3597_4069" result="shape" />
</filter>
<filter xmlns="http://www.w3.org/2000/svg" id="filter6_d_3597_4069" x="960" y="1633" width="22" height="22" filterUnits="userSpaceOnUse" color-interpolation-filters="sRGB">
<feFlood flood-opacity="0" result="BackgroundImageFix" />
<feColorMatrix in="SourceAlpha" type="matrix" values="0 0 0 0 0 0 0 0 0 0 0 0 0 0 0 0 0 0 127 0" result="hardAlpha" />
<feOffset dy="1" />
<feGaussianBlur stdDeviation="0.5" />
<feColorMatrix type="matrix" values="0 0 0 0 0 0 0 0 0 0 0 0 0 0 0 0 0 0 0.2 0" />
<feBlend mode="normal" in2="BackgroundImageFix" result="effect1_dropShadow_3597_4069" />
<feBlend mode="normal" in="SourceGraphic" in2="effect1_dropShadow_3597_4069" result="shape" />
</filter>
<filter xmlns="http://www.w3.org/2000/svg" id="filter7_d_3597_4069" x="551.419" y="1712.42" width="18.7434" height="18.7434" filterUnits="userSpaceOnUse" color-interpolation-filters="sRGB">
<feFlood flood-opacity="0" result="BackgroundImageFix" />
<feColorMatrix in="SourceAlpha" type="matrix" values="0 0 0 0 0 0 0 0 0 0 0 0 0 0 0 0 0 0 127 0" result="hardAlpha" />
<feOffset dy="1" />
<feGaussianBlur stdDeviation="0.5" />
<feColorMatrix type="matrix" values="0 0 0 0 0 0 0 0 0 0 0 0 0 0 0 0 0 0 0.2 0" />
<feBlend mode="normal" in2="BackgroundImageFix" result="effect1_dropShadow_3597_4069" />
<feBlend mode="normal" in="SourceGraphic" in2="effect1_dropShadow_3597_4069" result="shape" />
</filter>
<filter xmlns="http://www.w3.org/2000/svg" id="filter8_d_3597_4069" x="641" y="1722" width="14" height="14" filterUnits="userSpaceOnUse" color-interpolation-filters="sRGB">
<feFlood flood-opacity="0" result="BackgroundImageFix" />
<feColorMatrix in="SourceAlpha" type="matrix" values="0 0 0 0 0 0 0 0 0 0 0 0 0 0 0 0 0 0 127 0" result="hardAlpha" />
<feOffset dy="1" />
<feGaussianBlur stdDeviation="0.5" />
<feColorMatrix type="matrix" values="0 0 0 0 0 0 0 0 0 0 0 0 0 0 0 0 0 0 0.2 0" />
<feBlend mode="normal" in2="BackgroundImageFix" result="effect1_dropShadow_3597_4069" />
<feBlend mode="normal" in="SourceGraphic" in2="effect1_dropShadow_3597_4069" result="shape" />
</filter>
<filter xmlns="http://www.w3.org/2000/svg" id="filter9_d_3597_4069" x="716.585" y="1718.74" width="22.3209" height="22.8601" filterUnits="userSpaceOnUse" color-interpolation-filters="sRGB">
<feFlood flood-opacity="0" result="BackgroundImageFix" />
<feColorMatrix in="SourceAlpha" type="matrix" values="0 0 0 0 0 0 0 0 0 0 0 0 0 0 0 0 0 0 127 0" result="hardAlpha" />
<feOffset dy="1" />
<feGaussianBlur stdDeviation="0.5" />
<feColorMatrix type="matrix" values="0 0 0 0 0 0 0 0 0 0 0 0 0 0 0 0 0 0 0.2 0" />
<feBlend mode="normal" in2="BackgroundImageFix" result="effect1_dropShadow_3597_4069" />
<feBlend mode="normal" in="SourceGraphic" in2="effect1_dropShadow_3597_4069" result="shape" />
</filter>
<filter xmlns="http://www.w3.org/2000/svg" id="filter10_d_3597_4069" x="797.906" y="1723.32" width="20.5729" height="18.4579" filterUnits="userSpaceOnUse" color-interpolation-filters="sRGB">
<feFlood flood-opacity="0" result="BackgroundImageFix" />
<feColorMatrix in="SourceAlpha" type="matrix" values="0 0 0 0 0 0 0 0 0 0 0 0 0 0 0 0 0 0 127 0" result="hardAlpha" />
<feOffset dy="1" />
<feGaussianBlur stdDeviation="0.5" />
<feColorMatrix type="matrix" values="0 0 0 0 0 0 0 0 0 0 0 0 0 0 0 0 0 0 0.2 0" />
<feBlend mode="normal" in2="BackgroundImageFix" result="effect1_dropShadow_3597_4069" />
<feBlend mode="normal" in="SourceGraphic" in2="effect1_dropShadow_3597_4069" result="shape" />
</filter>
<filter xmlns="http://www.w3.org/2000/svg" id="filter11_d_3597_4069" x="871.419" y="1712.42" width="28.5812" height="22.5812" filterUnits="userSpaceOnUse" color-interpolation-filters="sRGB">
<feFlood flood-opacity="0" result="BackgroundImageFix" />
<feColorMatrix in="SourceAlpha" type="matrix" values="0 0 0 0 0 0 0 0 0 0 0 0 0 0 0 0 0 0 127 0" result="hardAlpha" />
<feOffset dy="1" />
<feGaussianBlur stdDeviation="0.5" />
<feColorMatrix type="matrix" values="0 0 0 0 0 0 0 0 0 0 0 0 0 0 0 0 0 0 0.2 0" />
<feBlend mode="normal" in2="BackgroundImageFix" result="effect1_dropShadow_3597_4069" />
<feBlend mode="normal" in="SourceGraphic" in2="effect1_dropShadow_3597_4069" result="shape" />
</filter>
<filter xmlns="http://www.w3.org/2000/svg" id="filter12_d_3597_4069" x="951.419" y="1712.42" width="29.5811" height="30.5812" filterUnits="userSpaceOnUse" color-interpolation-filters="sRGB">
<feFlood flood-opacity="0" result="BackgroundImageFix" />
<feColorMatrix in="SourceAlpha" type="matrix" values="0 0 0 0 0 0 0 0 0 0 0 0 0 0 0 0 0 0 127 0" result="hardAlpha" />
<feOffset dy="1" />
<feGaussianBlur stdDeviation="0.5" />
<feColorMatrix type="matrix" values="0 0 0 0 0 0 0 0 0 0 0 0 0 0 0 0 0 0 0.2 0" />
<feBlend mode="normal" in2="BackgroundImageFix" result="effect1_dropShadow_3597_4069" />
<feBlend mode="normal" in="SourceGraphic" in2="effect1_dropShadow_3597_4069" result="shape" />
</filter>
<clipPath xmlns="http://www.w3.org/2000/svg" id="clip0_3597_4069">
<rect width="32" height="32" fill="white" transform="translate(128 2432)" />
</clipPath>
<clipPath xmlns="http://www.w3.org/2000/svg" id="clip1_3597_4069">
<rect width="24" height="24" fill="white" transform="translate(120 4008)" />
</clipPath>
<clipPath xmlns="http://www.w3.org/2000/svg" id="clip2_3597_4069">
<rect width="24" height="24" fill="white" transform="translate(624 4152)" />
</clipPath>
<clipPath xmlns="http://www.w3.org/2000/svg" id="clip3_3597_4069">
<rect width="24" height="24" fill="white" transform="translate(192 4368)" />
</clipPath>
<clipPath xmlns="http://www.w3.org/2000/svg" id="clip4_3597_4069">
<rect width="24" height="24" fill="white" transform="translate(408 4512)" />
</clipPath>
<clipPath xmlns="http://www.w3.org/2000/svg" id="clip5_3597_4069">
<rect width="24" height="24" fill="white" transform="translate(480 4656)" />
</clipPath>
<clipPath xmlns="http://www.w3.org/2000/svg" id="clip6_3597_4069">
<rect width="24" height="24" fill="white" transform="translate(624 4800)" />
</clipPath>
<clipPath xmlns="http://www.w3.org/2000/svg" id="clip7_3597_4069">
<rect width="24" height="24" fill="white" transform="translate(624 5016)" />
</clipPath>
<clipPath xmlns="http://www.w3.org/2000/svg" id="clip8_3597_4069">
<rect width="24" height="24" fill="white" transform="translate(840.004 7680)" />
</clipPath>

  </defs>
<path xmlns="http://www.w3.org/2000/svg" fill-rule="evenodd" clip-rule="evenodd" d="M934 6614.5H914V6612.5H934V6614.5Z" fill="#1F1F1F" />
<path xmlns="http://www.w3.org/2000/svg" d="M917 6617C917 6617.55 916.552 6618 916 6618C915.448 6618 915 6617.55 915 6617C915 6616.45 915.448 6616 916 6616C916.552 6616 917 6616.45 917 6617Z" fill="#1F1F1F" />
<path xmlns="http://www.w3.org/2000/svg" d="M921 6617C921 6617.55 920.552 6618 920 6618C919.448 6618 919 6617.55 919 6617C919 6616.45 919.448 6616 920 6616C920.552 6616 921 6616.45 921 6617Z" fill="#1F1F1F" />
<path xmlns="http://www.w3.org/2000/svg" d="M925 6617C925 6617.55 924.552 6618 924 6618C923.448 6618 923 6617.55 923 6617C923 6616.45 923.448 6616 924 6616C924.552 6616 925 6616.45 925 6617Z" fill="#1F1F1F" />
<path xmlns="http://www.w3.org/2000/svg" d="M929 6617C929 6617.55 928.552 6618 928 6618C927.448 6618 927 6617.55 927 6617C927 6616.45 927.448 6616 928 6616C928.552 6616 929 6616.45 929 6617Z" fill="#1F1F1F" />
<path xmlns="http://www.w3.org/2000/svg" d="M933 6617C933 6617.55 932.552 6618 932 6618C931.448 6618 931 6617.55 931 6617C931 6616.45 931.448 6616 932 6616C932.552 6616 933 6616.45 933 6617Z" fill="#1F1F1F" />
<path xmlns="http://www.w3.org/2000/svg" d="M919 6620C919 6620.55 918.552 6621 918 6621C917.448 6621 917 6620.55 917 6620C917 6619.45 917.448 6619 918 6619C918.552 6619 919 6619.45 919 6620Z" fill="#1F1F1F" />
<path xmlns="http://www.w3.org/2000/svg" d="M923 6620C923 6620.55 922.552 6621 922 6621C921.448 6621 921 6620.55 921 6620C921 6619.45 921.448 6619 922 6619C922.552 6619 923 6619.45 923 6620Z" fill="#1F1F1F" />
<path xmlns="http://www.w3.org/2000/svg" d="M927 6620C927 6620.55 926.552 6621 926 6621C925.448 6621 925 6620.55 925 6620C925 6619.45 925.448 6619 926 6619C926.552 6619 927 6619.45 927 6620Z" fill="#1F1F1F" />
<path xmlns="http://www.w3.org/2000/svg" d="M931 6620C931 6620.55 930.552 6621 930 6621C929.448 6621 929 6620.55 929 6620C929 6619.45 929.448 6619 930 6619C930.552 6619 931 6619.45 931 6620Z" fill="#1F1F1F" />
<path xmlns="http://www.w3.org/2000/svg" fill-rule="evenodd" clip-rule="evenodd" d="M919.583 6602.81C919.852 6603.1 920.109 6603.39 920.407 6603.65C921.398 6604.5 922.673 6605.13 924 6605.13C925.327 6605.13 926.602 6604.5 927.593 6603.65C927.891 6603.39 928.148 6603.1 928.417 6602.81C928.749 6603.08 929.07 6603.35 929.423 6603.58C930.766 6604.48 932.371 6605.13 934 6605.13V6606.88C932.069 6606.88 930.174 6606.16 928.567 6605.12C927.283 6606.16 925.675 6606.88 924 6606.88C922.325 6606.88 920.717 6606.16 919.433 6605.12C917.826 6606.16 915.931 6606.88 914 6606.88V6605.13C915.629 6605.13 917.234 6604.48 918.577 6603.58C918.93 6603.35 919.252 6603.08 919.583 6602.81Z" fill="#1F1F1F" />

</svg>
