<svg width="24" height="24" viewBox="768 2712 24 24" fill="none" xmlns="http://www.w3.org/2000/svg">
  <defs>
<filter xmlns="http://www.w3.org/2000/svg" id="filter0_d_3597_4069" x="479.7" y="1631.75" width="16.1285" height="19.9741" filterUnits="userSpaceOnUse" color-interpolation-filters="sRGB">
<feFlood flood-opacity="0" result="BackgroundImageFix" />
<feColorMatrix in="SourceAlpha" type="matrix" values="0 0 0 0 0 0 0 0 0 0 0 0 0 0 0 0 0 0 127 0" result="hardAlpha" />
<feOffset dy="1" />
<feGaussianBlur stdDeviation="0.5" />
<feColorMatrix type="matrix" values="0 0 0 0 0 0 0 0 0 0 0 0 0 0 0 0 0 0 0.2 0" />
<feBlend mode="normal" in2="BackgroundImageFix" result="effect1_dropShadow_3597_4069" />
<feBlend mode="normal" in="SourceGraphic" in2="effect1_dropShadow_3597_4069" result="shape" />
</filter>
<filter xmlns="http://www.w3.org/2000/svg" id="filter1_d_3597_4069" x="564" y="1637" width="24" height="24" filterUnits="userSpaceOnUse" color-interpolation-filters="sRGB">
<feFlood flood-opacity="0" result="BackgroundImageFix" />
<feColorMatrix in="SourceAlpha" type="matrix" values="0 0 0 0 0 0 0 0 0 0 0 0 0 0 0 0 0 0 127 0" result="hardAlpha" />
<feOffset dy="1" />
<feGaussianBlur stdDeviation="0.5" />
<feColorMatrix type="matrix" values="0 0 0 0 0 0 0 0 0 0 0 0 0 0 0 0 0 0 0.2 0" />
<feBlend mode="normal" in2="BackgroundImageFix" result="effect1_dropShadow_3597_4069" />
<feBlend mode="normal" in="SourceGraphic" in2="effect1_dropShadow_3597_4069" result="shape" />
</filter>
<filter xmlns="http://www.w3.org/2000/svg" id="filter2_d_3597_4069" x="645" y="1638" width="22" height="22" filterUnits="userSpaceOnUse" color-interpolation-filters="sRGB">
<feFlood flood-opacity="0" result="BackgroundImageFix" />
<feColorMatrix in="SourceAlpha" type="matrix" values="0 0 0 0 0 0 0 0 0 0 0 0 0 0 0 0 0 0 127 0" result="hardAlpha" />
<feOffset dy="1" />
<feGaussianBlur stdDeviation="0.5" />
<feColorMatrix type="matrix" values="0 0 0 0 0 0 0 0 0 0 0 0 0 0 0 0 0 0 0.2 0" />
<feBlend mode="normal" in2="BackgroundImageFix" result="effect1_dropShadow_3597_4069" />
<feBlend mode="normal" in="SourceGraphic" in2="effect1_dropShadow_3597_4069" result="shape" />
</filter>
<filter xmlns="http://www.w3.org/2000/svg" id="filter3_d_3597_4069" x="724.634" y="1637.24" width="22.434" height="24.379" filterUnits="userSpaceOnUse" color-interpolation-filters="sRGB">
<feFlood flood-opacity="0" result="BackgroundImageFix" />
<feColorMatrix in="SourceAlpha" type="matrix" values="0 0 0 0 0 0 0 0 0 0 0 0 0 0 0 0 0 0 127 0" result="hardAlpha" />
<feOffset dy="1" />
<feGaussianBlur stdDeviation="0.5" />
<feColorMatrix type="matrix" values="0 0 0 0 0 0 0 0 0 0 0 0 0 0 0 0 0 0 0.2 0" />
<feBlend mode="normal" in2="BackgroundImageFix" result="effect1_dropShadow_3597_4069" />
<feBlend mode="normal" in="SourceGraphic" in2="effect1_dropShadow_3597_4069" result="shape" />
</filter>
<filter xmlns="http://www.w3.org/2000/svg" id="filter4_d_3597_4069" x="799.419" y="1632.42" width="28.5812" height="28.5812" filterUnits="userSpaceOnUse" color-interpolation-filters="sRGB">
<feFlood flood-opacity="0" result="BackgroundImageFix" />
<feColorMatrix in="SourceAlpha" type="matrix" values="0 0 0 0 0 0 0 0 0 0 0 0 0 0 0 0 0 0 127 0" result="hardAlpha" />
<feOffset dy="1" />
<feGaussianBlur stdDeviation="0.5" />
<feColorMatrix type="matrix" values="0 0 0 0 0 0 0 0 0 0 0 0 0 0 0 0 0 0 0.2 0" />
<feBlend mode="normal" in2="BackgroundImageFix" result="effect1_dropShadow_3597_4069" />
<feBlend mode="normal" in="SourceGraphic" in2="effect1_dropShadow_3597_4069" result="shape" />
</filter>
<filter xmlns="http://www.w3.org/2000/svg" id="filter5_d_3597_4069" x="879.419" y="1632.42" width="26.7811" height="29.5812" filterUnits="userSpaceOnUse" color-interpolation-filters="sRGB">
<feFlood flood-opacity="0" result="BackgroundImageFix" />
<feColorMatrix in="SourceAlpha" type="matrix" values="0 0 0 0 0 0 0 0 0 0 0 0 0 0 0 0 0 0 127 0" result="hardAlpha" />
<feOffset dy="1" />
<feGaussianBlur stdDeviation="0.5" />
<feColorMatrix type="matrix" values="0 0 0 0 0 0 0 0 0 0 0 0 0 0 0 0 0 0 0.2 0" />
<feBlend mode="normal" in2="BackgroundImageFix" result="effect1_dropShadow_3597_4069" />
<feBlend mode="normal" in="SourceGraphic" in2="effect1_dropShadow_3597_4069" result="shape" />
</filter>
<filter xmlns="http://www.w3.org/2000/svg" id="filter6_d_3597_4069" x="960" y="1633" width="22" height="22" filterUnits="userSpaceOnUse" color-interpolation-filters="sRGB">
<feFlood flood-opacity="0" result="BackgroundImageFix" />
<feColorMatrix in="SourceAlpha" type="matrix" values="0 0 0 0 0 0 0 0 0 0 0 0 0 0 0 0 0 0 127 0" result="hardAlpha" />
<feOffset dy="1" />
<feGaussianBlur stdDeviation="0.5" />
<feColorMatrix type="matrix" values="0 0 0 0 0 0 0 0 0 0 0 0 0 0 0 0 0 0 0.2 0" />
<feBlend mode="normal" in2="BackgroundImageFix" result="effect1_dropShadow_3597_4069" />
<feBlend mode="normal" in="SourceGraphic" in2="effect1_dropShadow_3597_4069" result="shape" />
</filter>
<filter xmlns="http://www.w3.org/2000/svg" id="filter7_d_3597_4069" x="551.419" y="1712.42" width="18.7434" height="18.7434" filterUnits="userSpaceOnUse" color-interpolation-filters="sRGB">
<feFlood flood-opacity="0" result="BackgroundImageFix" />
<feColorMatrix in="SourceAlpha" type="matrix" values="0 0 0 0 0 0 0 0 0 0 0 0 0 0 0 0 0 0 127 0" result="hardAlpha" />
<feOffset dy="1" />
<feGaussianBlur stdDeviation="0.5" />
<feColorMatrix type="matrix" values="0 0 0 0 0 0 0 0 0 0 0 0 0 0 0 0 0 0 0.2 0" />
<feBlend mode="normal" in2="BackgroundImageFix" result="effect1_dropShadow_3597_4069" />
<feBlend mode="normal" in="SourceGraphic" in2="effect1_dropShadow_3597_4069" result="shape" />
</filter>
<filter xmlns="http://www.w3.org/2000/svg" id="filter8_d_3597_4069" x="641" y="1722" width="14" height="14" filterUnits="userSpaceOnUse" color-interpolation-filters="sRGB">
<feFlood flood-opacity="0" result="BackgroundImageFix" />
<feColorMatrix in="SourceAlpha" type="matrix" values="0 0 0 0 0 0 0 0 0 0 0 0 0 0 0 0 0 0 127 0" result="hardAlpha" />
<feOffset dy="1" />
<feGaussianBlur stdDeviation="0.5" />
<feColorMatrix type="matrix" values="0 0 0 0 0 0 0 0 0 0 0 0 0 0 0 0 0 0 0.2 0" />
<feBlend mode="normal" in2="BackgroundImageFix" result="effect1_dropShadow_3597_4069" />
<feBlend mode="normal" in="SourceGraphic" in2="effect1_dropShadow_3597_4069" result="shape" />
</filter>
<filter xmlns="http://www.w3.org/2000/svg" id="filter9_d_3597_4069" x="716.585" y="1718.74" width="22.3209" height="22.8601" filterUnits="userSpaceOnUse" color-interpolation-filters="sRGB">
<feFlood flood-opacity="0" result="BackgroundImageFix" />
<feColorMatrix in="SourceAlpha" type="matrix" values="0 0 0 0 0 0 0 0 0 0 0 0 0 0 0 0 0 0 127 0" result="hardAlpha" />
<feOffset dy="1" />
<feGaussianBlur stdDeviation="0.5" />
<feColorMatrix type="matrix" values="0 0 0 0 0 0 0 0 0 0 0 0 0 0 0 0 0 0 0.2 0" />
<feBlend mode="normal" in2="BackgroundImageFix" result="effect1_dropShadow_3597_4069" />
<feBlend mode="normal" in="SourceGraphic" in2="effect1_dropShadow_3597_4069" result="shape" />
</filter>
<filter xmlns="http://www.w3.org/2000/svg" id="filter10_d_3597_4069" x="797.906" y="1723.32" width="20.5729" height="18.4579" filterUnits="userSpaceOnUse" color-interpolation-filters="sRGB">
<feFlood flood-opacity="0" result="BackgroundImageFix" />
<feColorMatrix in="SourceAlpha" type="matrix" values="0 0 0 0 0 0 0 0 0 0 0 0 0 0 0 0 0 0 127 0" result="hardAlpha" />
<feOffset dy="1" />
<feGaussianBlur stdDeviation="0.5" />
<feColorMatrix type="matrix" values="0 0 0 0 0 0 0 0 0 0 0 0 0 0 0 0 0 0 0.2 0" />
<feBlend mode="normal" in2="BackgroundImageFix" result="effect1_dropShadow_3597_4069" />
<feBlend mode="normal" in="SourceGraphic" in2="effect1_dropShadow_3597_4069" result="shape" />
</filter>
<filter xmlns="http://www.w3.org/2000/svg" id="filter11_d_3597_4069" x="871.419" y="1712.42" width="28.5812" height="22.5812" filterUnits="userSpaceOnUse" color-interpolation-filters="sRGB">
<feFlood flood-opacity="0" result="BackgroundImageFix" />
<feColorMatrix in="SourceAlpha" type="matrix" values="0 0 0 0 0 0 0 0 0 0 0 0 0 0 0 0 0 0 127 0" result="hardAlpha" />
<feOffset dy="1" />
<feGaussianBlur stdDeviation="0.5" />
<feColorMatrix type="matrix" values="0 0 0 0 0 0 0 0 0 0 0 0 0 0 0 0 0 0 0.2 0" />
<feBlend mode="normal" in2="BackgroundImageFix" result="effect1_dropShadow_3597_4069" />
<feBlend mode="normal" in="SourceGraphic" in2="effect1_dropShadow_3597_4069" result="shape" />
</filter>
<filter xmlns="http://www.w3.org/2000/svg" id="filter12_d_3597_4069" x="951.419" y="1712.42" width="29.5811" height="30.5812" filterUnits="userSpaceOnUse" color-interpolation-filters="sRGB">
<feFlood flood-opacity="0" result="BackgroundImageFix" />
<feColorMatrix in="SourceAlpha" type="matrix" values="0 0 0 0 0 0 0 0 0 0 0 0 0 0 0 0 0 0 127 0" result="hardAlpha" />
<feOffset dy="1" />
<feGaussianBlur stdDeviation="0.5" />
<feColorMatrix type="matrix" values="0 0 0 0 0 0 0 0 0 0 0 0 0 0 0 0 0 0 0.2 0" />
<feBlend mode="normal" in2="BackgroundImageFix" result="effect1_dropShadow_3597_4069" />
<feBlend mode="normal" in="SourceGraphic" in2="effect1_dropShadow_3597_4069" result="shape" />
</filter>
<clipPath xmlns="http://www.w3.org/2000/svg" id="clip0_3597_4069">
<rect width="32" height="32" fill="white" transform="translate(128 2432)" />
</clipPath>
<clipPath xmlns="http://www.w3.org/2000/svg" id="clip1_3597_4069">
<rect width="24" height="24" fill="white" transform="translate(120 4008)" />
</clipPath>
<clipPath xmlns="http://www.w3.org/2000/svg" id="clip2_3597_4069">
<rect width="24" height="24" fill="white" transform="translate(624 4152)" />
</clipPath>
<clipPath xmlns="http://www.w3.org/2000/svg" id="clip3_3597_4069">
<rect width="24" height="24" fill="white" transform="translate(192 4368)" />
</clipPath>
<clipPath xmlns="http://www.w3.org/2000/svg" id="clip4_3597_4069">
<rect width="24" height="24" fill="white" transform="translate(408 4512)" />
</clipPath>
<clipPath xmlns="http://www.w3.org/2000/svg" id="clip5_3597_4069">
<rect width="24" height="24" fill="white" transform="translate(480 4656)" />
</clipPath>
<clipPath xmlns="http://www.w3.org/2000/svg" id="clip6_3597_4069">
<rect width="24" height="24" fill="white" transform="translate(624 4800)" />
</clipPath>
<clipPath xmlns="http://www.w3.org/2000/svg" id="clip7_3597_4069">
<rect width="24" height="24" fill="white" transform="translate(624 5016)" />
</clipPath>
<clipPath xmlns="http://www.w3.org/2000/svg" id="clip8_3597_4069">
<rect width="24" height="24" fill="white" transform="translate(840.004 7680)" />
</clipPath>

  </defs>
<path xmlns="http://www.w3.org/2000/svg" d="M772 2777.23C771.681 2777.03 771.572 2776.58 771.756 2776.22L772.179 2775.41H771.333C770.965 2775.41 770.667 2775.08 770.667 2774.67C770.667 2774.26 770.965 2773.93 771.333 2773.93H772.179L771.756 2773.11C771.572 2772.76 771.681 2772.3 772 2772.1C772.319 2771.89 772.727 2772.02 772.911 2772.37L773.333 2773.18L773.756 2772.37C773.94 2772.02 774.348 2771.89 774.667 2772.1C774.986 2772.3 775.095 2772.76 774.911 2773.11L774.488 2773.93H775.333C775.701 2773.93 776 2774.26 776 2774.67C776 2775.08 775.701 2775.41 775.333 2775.41H774.488L774.911 2776.22C775.095 2776.58 774.986 2777.03 774.667 2777.23C774.348 2777.44 773.94 2777.32 773.756 2776.96L773.333 2776.15L772.911 2776.96C772.727 2777.32 772.319 2777.44 772 2777.23Z" fill="#1D9DA1" />
<path xmlns="http://www.w3.org/2000/svg" d="M782.667 2777.23C782.348 2777.03 782.239 2776.58 782.423 2776.22L782.845 2775.41H782C781.632 2775.41 781.333 2775.08 781.333 2774.67C781.333 2774.26 781.632 2773.93 782 2773.93H782.845L782.423 2773.11C782.239 2772.76 782.348 2772.3 782.667 2772.1C782.986 2771.89 783.393 2772.02 783.577 2772.37L784 2773.18L784.423 2772.37C784.607 2772.02 785.014 2771.89 785.333 2772.1C785.652 2772.3 785.761 2772.76 785.577 2773.11L785.155 2773.93H786C786.368 2773.93 786.667 2774.26 786.667 2774.67C786.667 2775.08 786.368 2775.41 786 2775.41H785.155L785.577 2776.22C785.761 2776.58 785.652 2777.03 785.333 2777.23C785.014 2777.44 784.607 2777.32 784.423 2776.96L784 2776.15L783.577 2776.96C783.393 2777.32 782.986 2777.44 782.667 2777.23Z" fill="#1D9DA1" />
<path xmlns="http://www.w3.org/2000/svg" d="M792 2777.23C791.681 2777.03 791.572 2776.58 791.756 2776.22L792.179 2775.41H791.333C790.965 2775.41 790.667 2775.08 790.667 2774.67C790.667 2774.26 790.965 2773.93 791.333 2773.93H792.179L791.756 2773.11C791.572 2772.76 791.681 2772.3 792 2772.1C792.319 2771.89 792.727 2772.02 792.911 2772.37L793.333 2773.18L793.756 2772.37C793.94 2772.02 794.348 2771.89 794.667 2772.1C794.986 2772.3 795.095 2772.76 794.911 2773.11L794.488 2773.93H795.333C795.701 2773.93 796 2774.26 796 2774.67C796 2775.08 795.701 2775.41 795.333 2775.41H794.488L794.911 2776.22C795.095 2776.58 794.986 2777.03 794.667 2777.23C794.348 2777.44 793.94 2777.32 793.756 2776.96L793.333 2776.15L792.911 2776.96C792.727 2777.32 792.319 2777.44 792 2777.23Z" fill="#1D9DA1" />
<path xmlns="http://www.w3.org/2000/svg" d="M788 2782.57C787.681 2782.36 787.572 2781.91 787.756 2781.55L788.179 2780.74H787.333C786.965 2780.74 786.667 2780.41 786.667 2780C786.667 2779.59 786.965 2779.26 787.333 2779.26H788.179L787.756 2778.45C787.572 2778.09 787.681 2777.64 788 2777.43C788.319 2777.23 788.727 2777.35 788.911 2777.7L789.333 2778.52L789.756 2777.7C789.94 2777.35 790.348 2777.23 790.667 2777.43C790.986 2777.64 791.095 2778.09 790.911 2778.45L790.488 2779.26H791.333C791.701 2779.26 792 2779.59 792 2780C792 2780.41 791.701 2780.74 791.333 2780.74H790.488L790.911 2781.55C791.095 2781.91 790.986 2782.36 790.667 2782.57C790.348 2782.77 789.94 2782.65 789.756 2782.3L789.333 2781.48L788.911 2782.3C788.727 2782.65 788.319 2782.77 788 2782.57Z" fill="#1D9DA1" />
<path xmlns="http://www.w3.org/2000/svg" d="M777.333 2781.23C777.014 2781.03 776.905 2780.58 777.089 2780.22L777.512 2779.41H776.667C776.298 2779.41 776 2779.08 776 2778.67C776 2778.26 776.298 2777.93 776.667 2777.93H777.512L777.089 2777.11C776.905 2776.76 777.014 2776.3 777.333 2776.1C777.652 2775.89 778.06 2776.02 778.244 2776.37L778.667 2777.18L779.089 2776.37C779.273 2776.02 779.681 2775.89 780 2776.1C780.319 2776.3 780.428 2776.76 780.244 2777.11L779.821 2777.93H780.667C781.035 2777.93 781.333 2778.26 781.333 2778.67C781.333 2779.08 781.035 2779.41 780.667 2779.41H779.821L780.244 2780.22C780.428 2780.58 780.319 2781.03 780 2781.23C779.681 2781.44 779.273 2781.32 779.089 2780.96L778.667 2780.15L778.244 2780.96C778.06 2781.32 777.652 2781.44 777.333 2781.23Z" fill="#1D9DA1" />
<path xmlns="http://www.w3.org/2000/svg" fill-rule="evenodd" clip-rule="evenodd" d="M786.239 2755.33C783.794 2755.33 781.561 2756.79 780.461 2759.12L780.045 2760L779.153 2759.61C778.918 2759.5 778.681 2759.46 778.427 2759.46C777.549 2759.46 776.786 2760.01 776.483 2760.86L776.199 2761.65L775.367 2761.51C775.277 2761.49 775.202 2761.49 775.008 2761.49C774.008 2761.49 773.083 2761.9 772.391 2762.66C771.709 2763.41 771.333 2764.37 771.333 2765.38V2765.43C771.362 2766.56 771.773 2767.53 772.479 2768.22L772.492 2768.24L772.504 2768.25C773.162 2768.95 774.06 2769.33 775.008 2769.33H792.482C794.363 2769.33 796 2767.7 796 2765.58C796 2763.8 794.857 2762.32 793.379 2761.92L792.757 2761.75L792.656 2761.11C792.129 2757.79 789.374 2755.33 786.239 2755.33ZM779.054 2757.51C780.573 2754.95 783.259 2753.33 786.239 2753.33C790.243 2753.33 793.624 2756.29 794.515 2760.2C796.597 2761.05 798 2763.19 798 2765.58C798 2768.71 795.559 2771.33 792.482 2771.33H775.008C773.515 2771.33 772.096 2770.73 771.061 2769.64C769.958 2768.54 769.37 2767.06 769.334 2765.47L769.333 2765.45V2765.38C769.333 2763.86 769.899 2762.42 770.911 2761.31C771.956 2760.16 773.382 2759.51 774.922 2759.49C775.634 2758.26 776.936 2757.46 778.427 2757.46C778.634 2757.46 778.843 2757.47 779.054 2757.51Z" fill="#707070" />
<path xmlns="http://www.w3.org/2000/svg" fill-rule="evenodd" clip-rule="evenodd" d="M786.239 2755.33C783.794 2755.33 781.561 2756.79 780.461 2759.12L780.045 2760L779.153 2759.61C778.918 2759.5 778.681 2759.46 778.427 2759.46C777.549 2759.46 776.786 2760.01 776.483 2760.86L776.199 2761.65L775.367 2761.51C775.277 2761.49 775.202 2761.49 775.008 2761.49C774.008 2761.49 773.083 2761.9 772.391 2762.66C771.709 2763.41 771.333 2764.37 771.333 2765.38V2765.43C771.362 2766.56 771.773 2767.53 772.479 2768.22L772.492 2768.24L772.504 2768.25C773.162 2768.95 774.06 2769.33 775.008 2769.33H792.482C794.363 2769.33 796 2767.7 796 2765.58C796 2763.8 794.857 2762.32 793.379 2761.92L792.757 2761.75L792.656 2761.11C792.129 2757.79 789.374 2755.33 786.239 2755.33Z" fill="#707070" />

</svg>
