<svg width="24" height="24" viewBox="912 2712 24 24" fill="none" xmlns="http://www.w3.org/2000/svg">
  <defs>
<filter xmlns="http://www.w3.org/2000/svg" id="filter0_d_3597_4069" x="479.7" y="1631.75" width="16.1285" height="19.9741" filterUnits="userSpaceOnUse" color-interpolation-filters="sRGB">
<feFlood flood-opacity="0" result="BackgroundImageFix" />
<feColorMatrix in="SourceAlpha" type="matrix" values="0 0 0 0 0 0 0 0 0 0 0 0 0 0 0 0 0 0 127 0" result="hardAlpha" />
<feOffset dy="1" />
<feGaussianBlur stdDeviation="0.5" />
<feColorMatrix type="matrix" values="0 0 0 0 0 0 0 0 0 0 0 0 0 0 0 0 0 0 0.2 0" />
<feBlend mode="normal" in2="BackgroundImageFix" result="effect1_dropShadow_3597_4069" />
<feBlend mode="normal" in="SourceGraphic" in2="effect1_dropShadow_3597_4069" result="shape" />
</filter>
<filter xmlns="http://www.w3.org/2000/svg" id="filter1_d_3597_4069" x="564" y="1637" width="24" height="24" filterUnits="userSpaceOnUse" color-interpolation-filters="sRGB">
<feFlood flood-opacity="0" result="BackgroundImageFix" />
<feColorMatrix in="SourceAlpha" type="matrix" values="0 0 0 0 0 0 0 0 0 0 0 0 0 0 0 0 0 0 127 0" result="hardAlpha" />
<feOffset dy="1" />
<feGaussianBlur stdDeviation="0.5" />
<feColorMatrix type="matrix" values="0 0 0 0 0 0 0 0 0 0 0 0 0 0 0 0 0 0 0.2 0" />
<feBlend mode="normal" in2="BackgroundImageFix" result="effect1_dropShadow_3597_4069" />
<feBlend mode="normal" in="SourceGraphic" in2="effect1_dropShadow_3597_4069" result="shape" />
</filter>
<filter xmlns="http://www.w3.org/2000/svg" id="filter2_d_3597_4069" x="645" y="1638" width="22" height="22" filterUnits="userSpaceOnUse" color-interpolation-filters="sRGB">
<feFlood flood-opacity="0" result="BackgroundImageFix" />
<feColorMatrix in="SourceAlpha" type="matrix" values="0 0 0 0 0 0 0 0 0 0 0 0 0 0 0 0 0 0 127 0" result="hardAlpha" />
<feOffset dy="1" />
<feGaussianBlur stdDeviation="0.5" />
<feColorMatrix type="matrix" values="0 0 0 0 0 0 0 0 0 0 0 0 0 0 0 0 0 0 0.2 0" />
<feBlend mode="normal" in2="BackgroundImageFix" result="effect1_dropShadow_3597_4069" />
<feBlend mode="normal" in="SourceGraphic" in2="effect1_dropShadow_3597_4069" result="shape" />
</filter>
<filter xmlns="http://www.w3.org/2000/svg" id="filter3_d_3597_4069" x="724.634" y="1637.24" width="22.434" height="24.379" filterUnits="userSpaceOnUse" color-interpolation-filters="sRGB">
<feFlood flood-opacity="0" result="BackgroundImageFix" />
<feColorMatrix in="SourceAlpha" type="matrix" values="0 0 0 0 0 0 0 0 0 0 0 0 0 0 0 0 0 0 127 0" result="hardAlpha" />
<feOffset dy="1" />
<feGaussianBlur stdDeviation="0.5" />
<feColorMatrix type="matrix" values="0 0 0 0 0 0 0 0 0 0 0 0 0 0 0 0 0 0 0.2 0" />
<feBlend mode="normal" in2="BackgroundImageFix" result="effect1_dropShadow_3597_4069" />
<feBlend mode="normal" in="SourceGraphic" in2="effect1_dropShadow_3597_4069" result="shape" />
</filter>
<filter xmlns="http://www.w3.org/2000/svg" id="filter4_d_3597_4069" x="799.419" y="1632.42" width="28.5812" height="28.5812" filterUnits="userSpaceOnUse" color-interpolation-filters="sRGB">
<feFlood flood-opacity="0" result="BackgroundImageFix" />
<feColorMatrix in="SourceAlpha" type="matrix" values="0 0 0 0 0 0 0 0 0 0 0 0 0 0 0 0 0 0 127 0" result="hardAlpha" />
<feOffset dy="1" />
<feGaussianBlur stdDeviation="0.5" />
<feColorMatrix type="matrix" values="0 0 0 0 0 0 0 0 0 0 0 0 0 0 0 0 0 0 0.2 0" />
<feBlend mode="normal" in2="BackgroundImageFix" result="effect1_dropShadow_3597_4069" />
<feBlend mode="normal" in="SourceGraphic" in2="effect1_dropShadow_3597_4069" result="shape" />
</filter>
<filter xmlns="http://www.w3.org/2000/svg" id="filter5_d_3597_4069" x="879.419" y="1632.42" width="26.7811" height="29.5812" filterUnits="userSpaceOnUse" color-interpolation-filters="sRGB">
<feFlood flood-opacity="0" result="BackgroundImageFix" />
<feColorMatrix in="SourceAlpha" type="matrix" values="0 0 0 0 0 0 0 0 0 0 0 0 0 0 0 0 0 0 127 0" result="hardAlpha" />
<feOffset dy="1" />
<feGaussianBlur stdDeviation="0.5" />
<feColorMatrix type="matrix" values="0 0 0 0 0 0 0 0 0 0 0 0 0 0 0 0 0 0 0.2 0" />
<feBlend mode="normal" in2="BackgroundImageFix" result="effect1_dropShadow_3597_4069" />
<feBlend mode="normal" in="SourceGraphic" in2="effect1_dropShadow_3597_4069" result="shape" />
</filter>
<filter xmlns="http://www.w3.org/2000/svg" id="filter6_d_3597_4069" x="960" y="1633" width="22" height="22" filterUnits="userSpaceOnUse" color-interpolation-filters="sRGB">
<feFlood flood-opacity="0" result="BackgroundImageFix" />
<feColorMatrix in="SourceAlpha" type="matrix" values="0 0 0 0 0 0 0 0 0 0 0 0 0 0 0 0 0 0 127 0" result="hardAlpha" />
<feOffset dy="1" />
<feGaussianBlur stdDeviation="0.5" />
<feColorMatrix type="matrix" values="0 0 0 0 0 0 0 0 0 0 0 0 0 0 0 0 0 0 0.2 0" />
<feBlend mode="normal" in2="BackgroundImageFix" result="effect1_dropShadow_3597_4069" />
<feBlend mode="normal" in="SourceGraphic" in2="effect1_dropShadow_3597_4069" result="shape" />
</filter>
<filter xmlns="http://www.w3.org/2000/svg" id="filter7_d_3597_4069" x="551.419" y="1712.42" width="18.7434" height="18.7434" filterUnits="userSpaceOnUse" color-interpolation-filters="sRGB">
<feFlood flood-opacity="0" result="BackgroundImageFix" />
<feColorMatrix in="SourceAlpha" type="matrix" values="0 0 0 0 0 0 0 0 0 0 0 0 0 0 0 0 0 0 127 0" result="hardAlpha" />
<feOffset dy="1" />
<feGaussianBlur stdDeviation="0.5" />
<feColorMatrix type="matrix" values="0 0 0 0 0 0 0 0 0 0 0 0 0 0 0 0 0 0 0.2 0" />
<feBlend mode="normal" in2="BackgroundImageFix" result="effect1_dropShadow_3597_4069" />
<feBlend mode="normal" in="SourceGraphic" in2="effect1_dropShadow_3597_4069" result="shape" />
</filter>
<filter xmlns="http://www.w3.org/2000/svg" id="filter8_d_3597_4069" x="641" y="1722" width="14" height="14" filterUnits="userSpaceOnUse" color-interpolation-filters="sRGB">
<feFlood flood-opacity="0" result="BackgroundImageFix" />
<feColorMatrix in="SourceAlpha" type="matrix" values="0 0 0 0 0 0 0 0 0 0 0 0 0 0 0 0 0 0 127 0" result="hardAlpha" />
<feOffset dy="1" />
<feGaussianBlur stdDeviation="0.5" />
<feColorMatrix type="matrix" values="0 0 0 0 0 0 0 0 0 0 0 0 0 0 0 0 0 0 0.2 0" />
<feBlend mode="normal" in2="BackgroundImageFix" result="effect1_dropShadow_3597_4069" />
<feBlend mode="normal" in="SourceGraphic" in2="effect1_dropShadow_3597_4069" result="shape" />
</filter>
<filter xmlns="http://www.w3.org/2000/svg" id="filter9_d_3597_4069" x="716.585" y="1718.74" width="22.3209" height="22.8601" filterUnits="userSpaceOnUse" color-interpolation-filters="sRGB">
<feFlood flood-opacity="0" result="BackgroundImageFix" />
<feColorMatrix in="SourceAlpha" type="matrix" values="0 0 0 0 0 0 0 0 0 0 0 0 0 0 0 0 0 0 127 0" result="hardAlpha" />
<feOffset dy="1" />
<feGaussianBlur stdDeviation="0.5" />
<feColorMatrix type="matrix" values="0 0 0 0 0 0 0 0 0 0 0 0 0 0 0 0 0 0 0.2 0" />
<feBlend mode="normal" in2="BackgroundImageFix" result="effect1_dropShadow_3597_4069" />
<feBlend mode="normal" in="SourceGraphic" in2="effect1_dropShadow_3597_4069" result="shape" />
</filter>
<filter xmlns="http://www.w3.org/2000/svg" id="filter10_d_3597_4069" x="797.906" y="1723.32" width="20.5729" height="18.4579" filterUnits="userSpaceOnUse" color-interpolation-filters="sRGB">
<feFlood flood-opacity="0" result="BackgroundImageFix" />
<feColorMatrix in="SourceAlpha" type="matrix" values="0 0 0 0 0 0 0 0 0 0 0 0 0 0 0 0 0 0 127 0" result="hardAlpha" />
<feOffset dy="1" />
<feGaussianBlur stdDeviation="0.5" />
<feColorMatrix type="matrix" values="0 0 0 0 0 0 0 0 0 0 0 0 0 0 0 0 0 0 0.2 0" />
<feBlend mode="normal" in2="BackgroundImageFix" result="effect1_dropShadow_3597_4069" />
<feBlend mode="normal" in="SourceGraphic" in2="effect1_dropShadow_3597_4069" result="shape" />
</filter>
<filter xmlns="http://www.w3.org/2000/svg" id="filter11_d_3597_4069" x="871.419" y="1712.42" width="28.5812" height="22.5812" filterUnits="userSpaceOnUse" color-interpolation-filters="sRGB">
<feFlood flood-opacity="0" result="BackgroundImageFix" />
<feColorMatrix in="SourceAlpha" type="matrix" values="0 0 0 0 0 0 0 0 0 0 0 0 0 0 0 0 0 0 127 0" result="hardAlpha" />
<feOffset dy="1" />
<feGaussianBlur stdDeviation="0.5" />
<feColorMatrix type="matrix" values="0 0 0 0 0 0 0 0 0 0 0 0 0 0 0 0 0 0 0.2 0" />
<feBlend mode="normal" in2="BackgroundImageFix" result="effect1_dropShadow_3597_4069" />
<feBlend mode="normal" in="SourceGraphic" in2="effect1_dropShadow_3597_4069" result="shape" />
</filter>
<filter xmlns="http://www.w3.org/2000/svg" id="filter12_d_3597_4069" x="951.419" y="1712.42" width="29.5811" height="30.5812" filterUnits="userSpaceOnUse" color-interpolation-filters="sRGB">
<feFlood flood-opacity="0" result="BackgroundImageFix" />
<feColorMatrix in="SourceAlpha" type="matrix" values="0 0 0 0 0 0 0 0 0 0 0 0 0 0 0 0 0 0 127 0" result="hardAlpha" />
<feOffset dy="1" />
<feGaussianBlur stdDeviation="0.5" />
<feColorMatrix type="matrix" values="0 0 0 0 0 0 0 0 0 0 0 0 0 0 0 0 0 0 0.2 0" />
<feBlend mode="normal" in2="BackgroundImageFix" result="effect1_dropShadow_3597_4069" />
<feBlend mode="normal" in="SourceGraphic" in2="effect1_dropShadow_3597_4069" result="shape" />
</filter>
<clipPath xmlns="http://www.w3.org/2000/svg" id="clip0_3597_4069">
<rect width="32" height="32" fill="white" transform="translate(128 2432)" />
</clipPath>
<clipPath xmlns="http://www.w3.org/2000/svg" id="clip1_3597_4069">
<rect width="24" height="24" fill="white" transform="translate(120 4008)" />
</clipPath>
<clipPath xmlns="http://www.w3.org/2000/svg" id="clip2_3597_4069">
<rect width="24" height="24" fill="white" transform="translate(624 4152)" />
</clipPath>
<clipPath xmlns="http://www.w3.org/2000/svg" id="clip3_3597_4069">
<rect width="24" height="24" fill="white" transform="translate(192 4368)" />
</clipPath>
<clipPath xmlns="http://www.w3.org/2000/svg" id="clip4_3597_4069">
<rect width="24" height="24" fill="white" transform="translate(408 4512)" />
</clipPath>
<clipPath xmlns="http://www.w3.org/2000/svg" id="clip5_3597_4069">
<rect width="24" height="24" fill="white" transform="translate(480 4656)" />
</clipPath>
<clipPath xmlns="http://www.w3.org/2000/svg" id="clip6_3597_4069">
<rect width="24" height="24" fill="white" transform="translate(624 4800)" />
</clipPath>
<clipPath xmlns="http://www.w3.org/2000/svg" id="clip7_3597_4069">
<rect width="24" height="24" fill="white" transform="translate(624 5016)" />
</clipPath>
<clipPath xmlns="http://www.w3.org/2000/svg" id="clip8_3597_4069">
<rect width="24" height="24" fill="white" transform="translate(840.004 7680)" />
</clipPath>

  </defs>
<path xmlns="http://www.w3.org/2000/svg" fill-rule="evenodd" clip-rule="evenodd" d="M952 2767.35C952 2767.35 955.45 2767.84 955.333 2769.35C955.249 2770.45 954.438 2771.35 953.333 2771.35H934.667C933.562 2771.35 932.667 2770.45 932.667 2769.35C932.667 2768.24 933.333 2767.35 934.667 2767.35H937.333C937.333 2767.35 936.958 2766.22 937.333 2765.38C937.458 2765.1 937.667 2764.85 938 2764.68C938.39 2764.49 938.78 2764.52 939.136 2764.66C939.999 2765.01 940.667 2766.02 940.667 2766.02C940.667 2766.02 941.085 2765.2 941.869 2764.31C942.889 2763.15 944.528 2761.84 946.667 2762.02C952 2762.44 952 2767.35 952 2767.35ZM940.333 2763.03C940.486 2762.85 940.65 2762.67 940.827 2762.49C942.044 2761.26 944.09 2759.8 946.827 2760.02C950.242 2760.3 952.152 2762.09 953.107 2763.92C953.439 2764.56 953.645 2765.17 953.774 2765.7C953.974 2765.76 954.185 2765.83 954.399 2765.9C954.912 2766.09 955.583 2766.39 956.15 2766.87C956.733 2767.36 957.424 2768.24 957.327 2769.5C957.178 2771.45 955.673 2773.35 953.333 2773.35H934.667C932.457 2773.35 930.667 2771.56 930.667 2769.35C930.667 2768.41 930.954 2767.39 931.695 2766.58C932.462 2765.75 933.527 2765.35 934.667 2765.35H935.26C935.435 2764.5 935.911 2763.49 937.106 2762.89C938.382 2762.26 939.541 2762.59 940.333 2763.03Z" fill="#707070" />
<path xmlns="http://www.w3.org/2000/svg" d="M938 2764.68C936.667 2765.35 937.333 2767.35 937.333 2767.35H934.667C933.333 2767.35 932.667 2768.24 932.667 2769.35C932.667 2770.45 933.562 2771.35 934.667 2771.35H953.333C954.438 2771.35 955.249 2770.45 955.333 2769.35C955.45 2767.84 952 2767.35 952 2767.35C952 2767.35 952 2762.44 946.667 2762.02C942.885 2761.71 940.667 2766.02 940.667 2766.02C940.667 2766.02 939.333 2764.02 938 2764.68Z" fill="#BEBEBE" />
<path xmlns="http://www.w3.org/2000/svg" d="M930.667 2757.33C930.667 2756.97 930.965 2756.67 931.333 2756.67H946C946.368 2756.67 946.667 2756.97 946.667 2757.33C946.667 2757.7 946.368 2758 946 2758H931.333C930.965 2758 930.667 2757.7 930.667 2757.33Z" fill="#8E8E8E" />
<path xmlns="http://www.w3.org/2000/svg" fill-rule="evenodd" clip-rule="evenodd" d="M942.877 2758H934.456C934.456 2760.21 936.341 2762 938.667 2762C940.992 2762 942.877 2760.21 942.877 2758Z" fill="#F4D7BF" />
<path xmlns="http://www.w3.org/2000/svg" d="M932.709 2758.38C932.828 2758.28 932.887 2758.14 932.887 2758H934.456C934.456 2760.21 936.341 2762 938.667 2762C940.992 2762 942.877 2760.21 942.877 2758H944.446C944.446 2758.14 944.505 2758.28 944.624 2758.38L946.488 2759.94C946.512 2759.96 946.533 2759.98 946.552 2760.01C943.953 2759.9 942.003 2761.31 940.827 2762.49C940.65 2762.67 940.486 2762.85 940.333 2763.03C939.541 2762.59 938.382 2762.26 937.106 2762.89C936.889 2763 936.696 2763.12 936.524 2763.26C936.499 2763.27 936.475 2763.28 936.451 2763.29L934.315 2764.5C933.919 2764.72 933.434 2764.39 933.535 2763.96L934.079 2761.65C934.148 2761.35 933.931 2761.07 933.616 2761.04L931.143 2760.82C930.685 2760.77 930.5 2760.23 930.845 2759.94L932.709 2758.38Z" fill="#A3611C" />
<path xmlns="http://www.w3.org/2000/svg" d="M936 2779.9C935.681 2779.7 935.572 2779.24 935.756 2778.89L936.179 2778.07H935.333C934.965 2778.07 934.667 2777.74 934.667 2777.33C934.667 2776.92 934.965 2776.59 935.333 2776.59H936.179L935.756 2775.78C935.572 2775.42 935.681 2774.97 936 2774.77C936.319 2774.56 936.727 2774.68 936.911 2775.04L937.333 2775.85L937.756 2775.04C937.94 2774.68 938.348 2774.56 938.667 2774.77C938.986 2774.97 939.095 2775.42 938.911 2775.78L938.488 2776.59H939.333C939.701 2776.59 940 2776.92 940 2777.33C940 2777.74 939.701 2778.07 939.333 2778.07H938.488L938.911 2778.89C939.095 2779.24 938.986 2779.7 938.667 2779.9C938.348 2780.11 937.94 2779.98 937.756 2779.63L937.333 2778.82L936.911 2779.63C936.727 2779.98 936.319 2780.11 936 2779.9Z" fill="#1D9DA1" />
<path xmlns="http://www.w3.org/2000/svg" d="M942.667 2782.57C942.348 2782.36 942.239 2781.91 942.423 2781.55L942.845 2780.74H942C941.632 2780.74 941.333 2780.41 941.333 2780C941.333 2779.59 941.632 2779.26 942 2779.26H942.845L942.423 2778.45C942.239 2778.09 942.348 2777.64 942.667 2777.43C942.986 2777.23 943.393 2777.35 943.577 2777.7L944 2778.52L944.423 2777.7C944.607 2777.35 945.014 2777.23 945.333 2777.43C945.652 2777.64 945.761 2778.09 945.577 2778.45L945.155 2779.26H946C946.368 2779.26 946.667 2779.59 946.667 2780C946.667 2780.41 946.368 2780.74 946 2780.74H945.155L945.577 2781.55C945.761 2781.91 945.652 2782.36 945.333 2782.57C945.014 2782.77 944.607 2782.65 944.423 2782.3L944 2781.48L943.577 2782.3C943.393 2782.65 942.986 2782.77 942.667 2782.57Z" fill="#1D9DA1" />
<path xmlns="http://www.w3.org/2000/svg" d="M949.333 2779.9C949.014 2779.7 948.905 2779.24 949.089 2778.89L949.512 2778.07H948.667C948.298 2778.07 948 2777.74 948 2777.33C948 2776.92 948.298 2776.59 948.667 2776.59H949.512L949.089 2775.78C948.905 2775.42 949.014 2774.97 949.333 2774.77C949.652 2774.56 950.06 2774.68 950.244 2775.04L950.667 2775.85L951.089 2775.04C951.273 2774.68 951.681 2774.56 952 2774.77C952.319 2774.97 952.428 2775.42 952.244 2775.78L951.821 2776.59H952.667C953.035 2776.59 953.333 2776.92 953.333 2777.33C953.333 2777.74 953.035 2778.07 952.667 2778.07H951.821L952.244 2778.89C952.428 2779.24 952.319 2779.7 952 2779.9C951.681 2780.11 951.273 2779.98 951.089 2779.63L950.667 2778.82L950.244 2779.63C950.06 2779.98 949.652 2780.11 949.333 2779.9Z" fill="#1D9DA1" />

</svg>
