<svg width="24" height="24" viewBox="48 3000 24 24" fill="none" xmlns="http://www.w3.org/2000/svg">
  <defs>
<filter xmlns="http://www.w3.org/2000/svg" id="filter0_d_3597_4069" x="479.7" y="1631.75" width="16.1285" height="19.9741" filterUnits="userSpaceOnUse" color-interpolation-filters="sRGB">
<feFlood flood-opacity="0" result="BackgroundImageFix" />
<feColorMatrix in="SourceAlpha" type="matrix" values="0 0 0 0 0 0 0 0 0 0 0 0 0 0 0 0 0 0 127 0" result="hardAlpha" />
<feOffset dy="1" />
<feGaussianBlur stdDeviation="0.5" />
<feColorMatrix type="matrix" values="0 0 0 0 0 0 0 0 0 0 0 0 0 0 0 0 0 0 0.2 0" />
<feBlend mode="normal" in2="BackgroundImageFix" result="effect1_dropShadow_3597_4069" />
<feBlend mode="normal" in="SourceGraphic" in2="effect1_dropShadow_3597_4069" result="shape" />
</filter>
<filter xmlns="http://www.w3.org/2000/svg" id="filter1_d_3597_4069" x="564" y="1637" width="24" height="24" filterUnits="userSpaceOnUse" color-interpolation-filters="sRGB">
<feFlood flood-opacity="0" result="BackgroundImageFix" />
<feColorMatrix in="SourceAlpha" type="matrix" values="0 0 0 0 0 0 0 0 0 0 0 0 0 0 0 0 0 0 127 0" result="hardAlpha" />
<feOffset dy="1" />
<feGaussianBlur stdDeviation="0.5" />
<feColorMatrix type="matrix" values="0 0 0 0 0 0 0 0 0 0 0 0 0 0 0 0 0 0 0.2 0" />
<feBlend mode="normal" in2="BackgroundImageFix" result="effect1_dropShadow_3597_4069" />
<feBlend mode="normal" in="SourceGraphic" in2="effect1_dropShadow_3597_4069" result="shape" />
</filter>
<filter xmlns="http://www.w3.org/2000/svg" id="filter2_d_3597_4069" x="645" y="1638" width="22" height="22" filterUnits="userSpaceOnUse" color-interpolation-filters="sRGB">
<feFlood flood-opacity="0" result="BackgroundImageFix" />
<feColorMatrix in="SourceAlpha" type="matrix" values="0 0 0 0 0 0 0 0 0 0 0 0 0 0 0 0 0 0 127 0" result="hardAlpha" />
<feOffset dy="1" />
<feGaussianBlur stdDeviation="0.5" />
<feColorMatrix type="matrix" values="0 0 0 0 0 0 0 0 0 0 0 0 0 0 0 0 0 0 0.2 0" />
<feBlend mode="normal" in2="BackgroundImageFix" result="effect1_dropShadow_3597_4069" />
<feBlend mode="normal" in="SourceGraphic" in2="effect1_dropShadow_3597_4069" result="shape" />
</filter>
<filter xmlns="http://www.w3.org/2000/svg" id="filter3_d_3597_4069" x="724.634" y="1637.24" width="22.434" height="24.379" filterUnits="userSpaceOnUse" color-interpolation-filters="sRGB">
<feFlood flood-opacity="0" result="BackgroundImageFix" />
<feColorMatrix in="SourceAlpha" type="matrix" values="0 0 0 0 0 0 0 0 0 0 0 0 0 0 0 0 0 0 127 0" result="hardAlpha" />
<feOffset dy="1" />
<feGaussianBlur stdDeviation="0.5" />
<feColorMatrix type="matrix" values="0 0 0 0 0 0 0 0 0 0 0 0 0 0 0 0 0 0 0.2 0" />
<feBlend mode="normal" in2="BackgroundImageFix" result="effect1_dropShadow_3597_4069" />
<feBlend mode="normal" in="SourceGraphic" in2="effect1_dropShadow_3597_4069" result="shape" />
</filter>
<filter xmlns="http://www.w3.org/2000/svg" id="filter4_d_3597_4069" x="799.419" y="1632.42" width="28.5812" height="28.5812" filterUnits="userSpaceOnUse" color-interpolation-filters="sRGB">
<feFlood flood-opacity="0" result="BackgroundImageFix" />
<feColorMatrix in="SourceAlpha" type="matrix" values="0 0 0 0 0 0 0 0 0 0 0 0 0 0 0 0 0 0 127 0" result="hardAlpha" />
<feOffset dy="1" />
<feGaussianBlur stdDeviation="0.5" />
<feColorMatrix type="matrix" values="0 0 0 0 0 0 0 0 0 0 0 0 0 0 0 0 0 0 0.2 0" />
<feBlend mode="normal" in2="BackgroundImageFix" result="effect1_dropShadow_3597_4069" />
<feBlend mode="normal" in="SourceGraphic" in2="effect1_dropShadow_3597_4069" result="shape" />
</filter>
<filter xmlns="http://www.w3.org/2000/svg" id="filter5_d_3597_4069" x="879.419" y="1632.42" width="26.7811" height="29.5812" filterUnits="userSpaceOnUse" color-interpolation-filters="sRGB">
<feFlood flood-opacity="0" result="BackgroundImageFix" />
<feColorMatrix in="SourceAlpha" type="matrix" values="0 0 0 0 0 0 0 0 0 0 0 0 0 0 0 0 0 0 127 0" result="hardAlpha" />
<feOffset dy="1" />
<feGaussianBlur stdDeviation="0.5" />
<feColorMatrix type="matrix" values="0 0 0 0 0 0 0 0 0 0 0 0 0 0 0 0 0 0 0.2 0" />
<feBlend mode="normal" in2="BackgroundImageFix" result="effect1_dropShadow_3597_4069" />
<feBlend mode="normal" in="SourceGraphic" in2="effect1_dropShadow_3597_4069" result="shape" />
</filter>
<filter xmlns="http://www.w3.org/2000/svg" id="filter6_d_3597_4069" x="960" y="1633" width="22" height="22" filterUnits="userSpaceOnUse" color-interpolation-filters="sRGB">
<feFlood flood-opacity="0" result="BackgroundImageFix" />
<feColorMatrix in="SourceAlpha" type="matrix" values="0 0 0 0 0 0 0 0 0 0 0 0 0 0 0 0 0 0 127 0" result="hardAlpha" />
<feOffset dy="1" />
<feGaussianBlur stdDeviation="0.5" />
<feColorMatrix type="matrix" values="0 0 0 0 0 0 0 0 0 0 0 0 0 0 0 0 0 0 0.2 0" />
<feBlend mode="normal" in2="BackgroundImageFix" result="effect1_dropShadow_3597_4069" />
<feBlend mode="normal" in="SourceGraphic" in2="effect1_dropShadow_3597_4069" result="shape" />
</filter>
<filter xmlns="http://www.w3.org/2000/svg" id="filter7_d_3597_4069" x="551.419" y="1712.42" width="18.7434" height="18.7434" filterUnits="userSpaceOnUse" color-interpolation-filters="sRGB">
<feFlood flood-opacity="0" result="BackgroundImageFix" />
<feColorMatrix in="SourceAlpha" type="matrix" values="0 0 0 0 0 0 0 0 0 0 0 0 0 0 0 0 0 0 127 0" result="hardAlpha" />
<feOffset dy="1" />
<feGaussianBlur stdDeviation="0.5" />
<feColorMatrix type="matrix" values="0 0 0 0 0 0 0 0 0 0 0 0 0 0 0 0 0 0 0.2 0" />
<feBlend mode="normal" in2="BackgroundImageFix" result="effect1_dropShadow_3597_4069" />
<feBlend mode="normal" in="SourceGraphic" in2="effect1_dropShadow_3597_4069" result="shape" />
</filter>
<filter xmlns="http://www.w3.org/2000/svg" id="filter8_d_3597_4069" x="641" y="1722" width="14" height="14" filterUnits="userSpaceOnUse" color-interpolation-filters="sRGB">
<feFlood flood-opacity="0" result="BackgroundImageFix" />
<feColorMatrix in="SourceAlpha" type="matrix" values="0 0 0 0 0 0 0 0 0 0 0 0 0 0 0 0 0 0 127 0" result="hardAlpha" />
<feOffset dy="1" />
<feGaussianBlur stdDeviation="0.5" />
<feColorMatrix type="matrix" values="0 0 0 0 0 0 0 0 0 0 0 0 0 0 0 0 0 0 0.2 0" />
<feBlend mode="normal" in2="BackgroundImageFix" result="effect1_dropShadow_3597_4069" />
<feBlend mode="normal" in="SourceGraphic" in2="effect1_dropShadow_3597_4069" result="shape" />
</filter>
<filter xmlns="http://www.w3.org/2000/svg" id="filter9_d_3597_4069" x="716.585" y="1718.74" width="22.3209" height="22.8601" filterUnits="userSpaceOnUse" color-interpolation-filters="sRGB">
<feFlood flood-opacity="0" result="BackgroundImageFix" />
<feColorMatrix in="SourceAlpha" type="matrix" values="0 0 0 0 0 0 0 0 0 0 0 0 0 0 0 0 0 0 127 0" result="hardAlpha" />
<feOffset dy="1" />
<feGaussianBlur stdDeviation="0.5" />
<feColorMatrix type="matrix" values="0 0 0 0 0 0 0 0 0 0 0 0 0 0 0 0 0 0 0.2 0" />
<feBlend mode="normal" in2="BackgroundImageFix" result="effect1_dropShadow_3597_4069" />
<feBlend mode="normal" in="SourceGraphic" in2="effect1_dropShadow_3597_4069" result="shape" />
</filter>
<filter xmlns="http://www.w3.org/2000/svg" id="filter10_d_3597_4069" x="797.906" y="1723.32" width="20.5729" height="18.4579" filterUnits="userSpaceOnUse" color-interpolation-filters="sRGB">
<feFlood flood-opacity="0" result="BackgroundImageFix" />
<feColorMatrix in="SourceAlpha" type="matrix" values="0 0 0 0 0 0 0 0 0 0 0 0 0 0 0 0 0 0 127 0" result="hardAlpha" />
<feOffset dy="1" />
<feGaussianBlur stdDeviation="0.5" />
<feColorMatrix type="matrix" values="0 0 0 0 0 0 0 0 0 0 0 0 0 0 0 0 0 0 0.2 0" />
<feBlend mode="normal" in2="BackgroundImageFix" result="effect1_dropShadow_3597_4069" />
<feBlend mode="normal" in="SourceGraphic" in2="effect1_dropShadow_3597_4069" result="shape" />
</filter>
<filter xmlns="http://www.w3.org/2000/svg" id="filter11_d_3597_4069" x="871.419" y="1712.42" width="28.5812" height="22.5812" filterUnits="userSpaceOnUse" color-interpolation-filters="sRGB">
<feFlood flood-opacity="0" result="BackgroundImageFix" />
<feColorMatrix in="SourceAlpha" type="matrix" values="0 0 0 0 0 0 0 0 0 0 0 0 0 0 0 0 0 0 127 0" result="hardAlpha" />
<feOffset dy="1" />
<feGaussianBlur stdDeviation="0.5" />
<feColorMatrix type="matrix" values="0 0 0 0 0 0 0 0 0 0 0 0 0 0 0 0 0 0 0.2 0" />
<feBlend mode="normal" in2="BackgroundImageFix" result="effect1_dropShadow_3597_4069" />
<feBlend mode="normal" in="SourceGraphic" in2="effect1_dropShadow_3597_4069" result="shape" />
</filter>
<filter xmlns="http://www.w3.org/2000/svg" id="filter12_d_3597_4069" x="951.419" y="1712.42" width="29.5811" height="30.5812" filterUnits="userSpaceOnUse" color-interpolation-filters="sRGB">
<feFlood flood-opacity="0" result="BackgroundImageFix" />
<feColorMatrix in="SourceAlpha" type="matrix" values="0 0 0 0 0 0 0 0 0 0 0 0 0 0 0 0 0 0 127 0" result="hardAlpha" />
<feOffset dy="1" />
<feGaussianBlur stdDeviation="0.5" />
<feColorMatrix type="matrix" values="0 0 0 0 0 0 0 0 0 0 0 0 0 0 0 0 0 0 0.2 0" />
<feBlend mode="normal" in2="BackgroundImageFix" result="effect1_dropShadow_3597_4069" />
<feBlend mode="normal" in="SourceGraphic" in2="effect1_dropShadow_3597_4069" result="shape" />
</filter>
<clipPath xmlns="http://www.w3.org/2000/svg" id="clip0_3597_4069">
<rect width="32" height="32" fill="white" transform="translate(128 2432)" />
</clipPath>
<clipPath xmlns="http://www.w3.org/2000/svg" id="clip1_3597_4069">
<rect width="24" height="24" fill="white" transform="translate(120 4008)" />
</clipPath>
<clipPath xmlns="http://www.w3.org/2000/svg" id="clip2_3597_4069">
<rect width="24" height="24" fill="white" transform="translate(624 4152)" />
</clipPath>
<clipPath xmlns="http://www.w3.org/2000/svg" id="clip3_3597_4069">
<rect width="24" height="24" fill="white" transform="translate(192 4368)" />
</clipPath>
<clipPath xmlns="http://www.w3.org/2000/svg" id="clip4_3597_4069">
<rect width="24" height="24" fill="white" transform="translate(408 4512)" />
</clipPath>
<clipPath xmlns="http://www.w3.org/2000/svg" id="clip5_3597_4069">
<rect width="24" height="24" fill="white" transform="translate(480 4656)" />
</clipPath>
<clipPath xmlns="http://www.w3.org/2000/svg" id="clip6_3597_4069">
<rect width="24" height="24" fill="white" transform="translate(624 4800)" />
</clipPath>
<clipPath xmlns="http://www.w3.org/2000/svg" id="clip7_3597_4069">
<rect width="24" height="24" fill="white" transform="translate(624 5016)" />
</clipPath>
<clipPath xmlns="http://www.w3.org/2000/svg" id="clip8_3597_4069">
<rect width="24" height="24" fill="white" transform="translate(840.004 7680)" />
</clipPath>

  </defs>
<path xmlns="http://www.w3.org/2000/svg" d="M52.0001 3017.23C51.6812 3017.03 51.572 3016.58 51.7561 3016.22L52.1787 3015.41H51.3334C50.9652 3015.41 50.6667 3015.08 50.6667 3014.67C50.6667 3014.26 50.9652 3013.93 51.3334 3013.93H52.1787L51.7561 3013.11C51.572 3012.76 51.6812 3012.3 52.0001 3012.1C52.3189 3011.89 52.7267 3012.02 52.9108 3012.37L53.3334 3013.18L53.7561 3012.37C53.9402 3012.02 54.3479 3011.89 54.6667 3012.1C54.9856 3012.3 55.0949 3012.76 54.9108 3013.11L54.4881 3013.93H55.3334C55.7016 3013.93 56 3014.26 56 3014.67C56 3015.08 55.7016 3015.41 55.3334 3015.41H54.4881L54.9108 3016.22C55.0949 3016.58 54.9856 3017.03 54.6667 3017.23C54.3479 3017.44 53.9402 3017.32 53.7561 3016.96L53.3334 3016.15L52.9108 3016.96C52.7267 3017.32 52.3189 3017.44 52.0001 3017.23Z" fill="#1F1F1F" />
<path xmlns="http://www.w3.org/2000/svg" d="M62.6667 3017.23C62.3479 3017.03 62.2386 3016.58 62.4227 3016.22L62.8454 3015.41H62C61.6319 3015.41 61.3334 3015.08 61.3334 3014.67C61.3334 3014.26 61.6319 3013.93 62 3013.93H62.8454L62.4227 3013.11C62.2386 3012.76 62.3479 3012.3 62.6667 3012.1C62.9856 3011.89 63.3933 3012.02 63.5774 3012.37L64.0001 3013.18L64.4227 3012.37C64.6068 3012.02 65.0145 3011.89 65.3334 3012.1C65.6523 3012.3 65.7615 3012.76 65.5774 3013.11L65.1548 3013.93H66C66.3682 3013.93 66.6667 3014.26 66.6667 3014.67C66.6667 3015.08 66.3682 3015.41 66 3015.41H65.1548L65.5774 3016.22C65.7615 3016.58 65.6523 3017.03 65.3334 3017.23C65.0146 3017.44 64.6068 3017.32 64.4227 3016.96L64.0001 3016.15L63.5774 3016.96C63.3933 3017.32 62.9856 3017.44 62.6667 3017.23Z" fill="#1F1F1F" />
<path xmlns="http://www.w3.org/2000/svg" d="M72.0001 3017.23C71.6812 3017.03 71.572 3016.58 71.7561 3016.22L72.1787 3015.41H71.3334C70.9652 3015.41 70.6667 3015.08 70.6667 3014.67C70.6667 3014.26 70.9652 3013.93 71.3334 3013.93H72.1787L71.7561 3013.11C71.572 3012.76 71.6812 3012.3 72.0001 3012.1C72.3189 3011.89 72.7267 3012.02 72.9108 3012.37L73.3334 3013.18L73.7561 3012.37C73.9402 3012.02 74.3479 3011.89 74.6667 3012.1C74.9856 3012.3 75.0949 3012.76 74.9108 3013.11L74.4881 3013.93H75.3334C75.7016 3013.93 76 3014.26 76 3014.67C76 3015.08 75.7016 3015.41 75.3334 3015.41H74.4881L74.9108 3016.22C75.0949 3016.58 74.9856 3017.03 74.6667 3017.23C74.3479 3017.44 73.9402 3017.32 73.7561 3016.96L73.3334 3016.15L72.9108 3016.96C72.7267 3017.32 72.3189 3017.44 72.0001 3017.23Z" fill="#1F1F1F" />
<path xmlns="http://www.w3.org/2000/svg" d="M68.0001 3022.57C67.6812 3022.36 67.572 3021.91 67.7561 3021.55L68.1787 3020.74H67.3334C66.9652 3020.74 66.6667 3020.41 66.6667 3020C66.6667 3019.59 66.9652 3019.26 67.3334 3019.26H68.1787L67.7561 3018.45C67.572 3018.09 67.6812 3017.64 68.0001 3017.43C68.3189 3017.23 68.7267 3017.35 68.9108 3017.7L69.3334 3018.52L69.7561 3017.7C69.9402 3017.35 70.3479 3017.23 70.6667 3017.43C70.9856 3017.64 71.0949 3018.09 70.9108 3018.45L70.4881 3019.26H71.3334C71.7016 3019.26 72 3019.59 72 3020C72 3020.41 71.7016 3020.74 71.3334 3020.74H70.4881L70.9108 3021.55C71.0949 3021.91 70.9856 3022.36 70.6667 3022.57C70.3479 3022.77 69.9402 3022.65 69.7561 3022.3L69.3334 3021.48L68.9108 3022.3C68.7267 3022.65 68.3189 3022.77 68.0001 3022.57Z" fill="#1F1F1F" />
<path xmlns="http://www.w3.org/2000/svg" d="M57.3334 3021.23C57.0146 3021.03 56.9053 3020.58 57.0894 3020.22L57.512 3019.41H56.6667C56.2985 3019.41 56 3019.08 56 3018.67C56 3018.26 56.2985 3017.93 56.6667 3017.93H57.512L57.0894 3017.11C56.9053 3016.76 57.0146 3016.3 57.3334 3016.1C57.6523 3015.89 58.06 3016.02 58.2441 3016.37L58.6667 3017.18L59.0894 3016.37C59.2735 3016.02 59.6812 3015.89 60.0001 3016.1C60.3189 3016.3 60.4282 3016.76 60.2441 3017.11L59.8215 3017.93H60.6667C61.0349 3017.93 61.3334 3018.26 61.3334 3018.67C61.3334 3019.08 61.0349 3019.41 60.6667 3019.41H59.8214L60.2441 3020.22C60.4282 3020.58 60.3189 3021.03 60.0001 3021.23C59.6812 3021.44 59.2735 3021.32 59.0894 3020.96L58.6667 3020.15L58.2441 3020.96C58.06 3021.32 57.6523 3021.44 57.3334 3021.23Z" fill="#1F1F1F" />

</svg>
