<?xml version='1.0' encoding='utf-8'?>
<svg xmlns="http://www.w3.org/2000/svg" xmlns:xlink="http://www.w3.org/1999/xlink" width="224.0" height="224.0" viewBox="0 0 224.0 224.0" fill="none">
  <defs><clipPath id="clip__asset"><rect x="0" y="0" width="224.0" height="224.0"/></clipPath><mask id="path-339-outside-17_68_6728" maskUnits="userSpaceOnUse" x="366.555" y="2573.57" width="218.39" height="310.262" fill="black">
<rect fill="white" x="366.555" y="2573.57" width="218.39" height="310.262" id="n504"/>
<path d="M397.366 2866.47L395.634 2865.47L396.634 2863.73L398.366 2864.73L397.366 2866.47ZM399.366 2863L397.634 2862L398.634 2860.27L400.366 2861.27L399.366 2863ZM401.366 2859.54L399.634 2858.54L400.634 2856.81L402.366 2857.81L401.366 2859.54ZM403.366 2856.07L401.634 2855.07L402.634 2853.34L404.366 2854.34L403.366 2856.07ZM405.366 2852.61L403.634 2851.61L404.634 2849.88L406.366 2850.88L405.366 2852.61ZM407.366 2849.14L405.634 2848.14L406.634 2846.41L408.366 2847.41L407.366 2849.14ZM409.366 2845.68L407.634 2844.68L408.634 2842.95L410.366 2843.95L409.366 2845.68ZM411.366 2842.22L409.634 2841.22L410.634 2839.48L412.366 2840.48L411.366 2842.22ZM413.366 2838.75L411.634 2837.75L412.634 2836.02L414.366 2837.02L413.366 2838.75ZM415.366 2835.29L413.634 2834.29L414.634 2832.56L416.366 2833.56L415.366 2835.29ZM417.366 2831.82L415.634 2830.82L416.634 2829.09L418.366 2830.09L417.366 2831.82ZM419.366 2828.36L417.634 2827.36L418.634 2825.63L420.366 2826.63L419.366 2828.36ZM421.366 2824.9L419.634 2823.9L420.634 2822.16L422.366 2823.16L421.366 2824.9ZM423.366 2821.43L421.634 2820.43L422.634 2818.7L424.366 2819.7L423.366 2821.43ZM425.366 2817.97L423.634 2816.97L424.634 2815.24L426.366 2816.24L425.366 2817.97ZM427.366 2814.5L425.634 2813.5L426.634 2811.77L428.366 2812.77L427.366 2814.5ZM429.366 2811.04L427.634 2810.04L428.634 2808.31L430.366 2809.31L429.366 2811.04ZM431.366 2807.58L429.634 2806.58L430.634 2804.84L432.366 2805.84L431.366 2807.58ZM433.366 2804.11L431.634 2803.11L432.634 2801.38L434.366 2802.38L433.366 2804.11ZM435.366 2800.65L433.634 2799.65L434.634 2797.92L436.366 2798.92L435.366 2800.65ZM437.366 2797.18L435.634 2796.18L436.634 2794.45L438.366 2795.45L437.366 2797.18ZM439.366 2793.72L437.634 2792.72L438.634 2790.99L440.366 2791.99L439.366 2793.72ZM441.366 2790.26L439.634 2789.26L440.634 2787.52L442.366 2788.52L441.366 2790.26ZM443.366 2786.79L441.634 2785.79L442.634 2784.06L444.366 2785.06L443.366 2786.79ZM445.366 2783.33L443.634 2782.33L444.634 2780.59L446.366 2781.59L445.366 2783.33ZM447.366 2779.86L445.634 2778.86L446.634 2777.13L448.366 2778.13L447.366 2779.86ZM449.366 2776.4L447.634 2775.4L448.634 2773.67L450.366 2774.67L449.366 2776.4ZM451.366 2772.93L449.634 2771.93L450.634 2770.2L452.366 2771.2L451.366 2772.93ZM453.366 2769.47L451.634 2768.47L452.634 2766.74L454.366 2767.74L453.366 2769.47ZM455.366 2766.01L453.634 2765.01L454.634 2763.27L456.366 2764.27L455.366 2766.01ZM457.366 2762.54L455.634 2761.54L456.634 2759.81L458.366 2760.81L457.366 2762.54ZM459.366 2759.08L457.634 2758.08L458.634 2756.35L460.366 2757.35L459.366 2759.08ZM461.366 2755.61L459.634 2754.61L460.634 2752.88L462.366 2753.88L461.366 2755.61ZM463.366 2752.15L461.634 2751.15L462.634 2749.42L464.366 2750.42L463.366 2752.15ZM465.366 2748.69L463.634 2747.69L464.634 2745.95L466.366 2746.95L465.366 2748.69ZM467.366 2745.22L465.634 2744.22L466.634 2742.49L468.366 2743.49L467.366 2745.22ZM469.366 2741.76L467.634 2740.76L468.634 2739.03L470.366 2740.03L469.366 2741.76ZM471.366 2738.29L469.634 2737.29L470.634 2735.56L472.366 2736.56L471.366 2738.29ZM553.881 2591.51C554.587 2590.96 555.62 2591.55 555.498 2592.44L550.085 2631.65C549.824 2633.53 547.283 2633.97 546.35 2632.28L539.568 2620.16L477.803 2727.14C478.839 2728.16 479.244 2729.67 478.855 2731.07L503.213 2745.13C503.691 2745.41 503.855 2746.02 503.579 2746.5C503.302 2746.98 502.691 2747.14 502.213 2746.87L477.855 2732.8C476.839 2733.84 475.327 2734.24 473.929 2733.85L473.366 2734.83L471.634 2733.83L472.197 2732.85C471.16 2731.84 470.755 2730.33 471.145 2728.93L446.787 2714.87C446.309 2714.59 446.145 2713.98 446.421 2713.5C446.697 2713.02 447.309 2712.86 447.787 2713.13L472.145 2727.2C473.161 2726.16 474.673 2725.75 476.071 2726.14L537.836 2619.16L523.948 2619.35C522.023 2619.38 521.13 2616.97 522.634 2615.8L553.881 2591.51ZM473.001 2730C473.002 2730.69 473.359 2731.36 474 2731.73C474.641 2732.1 475.4 2732.08 475.998 2731.73L473.001 2730ZM474.999 2728C474.649 2728 474.305 2728.09 474.001 2728.27L474.634 2728.63L474.999 2728ZM476.366 2729.63L476.998 2730C476.998 2729.65 476.906 2729.3 476.731 2729L476.366 2729.63Z" id="n505"/>
</mask>
</defs>
  <g clip-path="url(#clip__asset)" transform="translate(-283.0 -2538.0)"><path d="M530.999 2633C584.568 2663.93 602.922 2732.43 571.994 2786C541.066 2839.57 472.568 2857.92 418.999 2826.99C365.43 2796.07 347.076 2727.57 378.004 2674C408.932 2620.43 477.43 2602.08 530.999 2633ZM522.999 2646.86C477.083 2620.35 418.37 2636.08 391.86 2682C365.351 2727.92 381.083 2786.63 426.999 2813.14C472.915 2839.65 531.628 2823.92 558.137 2778C584.647 2732.08 568.915 2673.37 522.999 2646.86Z" fill="#BFE5D5" id="n486"/>
<path d="M457.292 2627.44C457.751 2629.6 456.372 2631.73 454.211 2632.19C452.05 2632.64 449.926 2631.27 449.466 2629.1C449.007 2626.94 450.387 2624.82 452.547 2624.36C454.708 2623.9 456.832 2625.28 457.292 2627.44Z" fill="#00805E" id="n488"/>
<path d="M371.99 2715.15C374.187 2715.38 375.781 2717.35 375.55 2719.55C375.319 2721.74 373.35 2723.34 371.153 2723.11C368.956 2722.88 367.363 2720.91 367.593 2718.71C367.824 2716.51 369.793 2714.92 371.99 2715.15Z" fill="#00805E" id="n489"/>
<path d="M455.67 2742.48L468.241 2720.71C481.031 2698.55 490.125 2703.8 490.125 2703.8C490.125 2703.8 499.218 2709.05 486.427 2731.21L469.667 2760.24L445.968 2801.28C445.416 2802.24 444.192 2802.57 443.236 2802.02L442.694 2801.7L429.055 2793.83L428.513 2793.52C427.557 2792.96 427.229 2791.74 427.781 2790.78L455.67 2742.48Z" fill="white" id="n498"/>
<path d="M455.67 2742.48L461.348 2739.64L463.553 2735.82L476.056 2743.04L468.558 2756.03L469.667 2760.24M469.667 2760.24L445.968 2801.28C445.416 2802.24 444.192 2802.57 443.236 2802.02L442.694 2801.7L429.055 2793.83L428.513 2793.52C427.557 2792.96 427.229 2791.74 427.781 2790.78L468.241 2720.71C481.031 2698.55 490.125 2703.8 490.125 2703.8C490.125 2703.8 499.218 2709.05 486.427 2731.21L469.667 2760.24Z" stroke="#8E8E8E" id="n499"/>
<path d="M466.125 2731.37L461.578 2728.75L465.078 2722.68L471.375 2722.28L478.781 2716.45L484.843 2719.95L483.499 2729.28L486.296 2734.93L482.796 2741L478.249 2738.37L474.663 2739.33L467.086 2734.96L466.125 2731.37Z" fill="white" id="n500"/>
<path d="M467.086 2734.96L466.125 2731.37L461.578 2728.75L465.078 2722.68L471.375 2722.28L478.781 2716.45M467.086 2734.96L474.663 2739.33M467.086 2734.96L473.211 2724.35C475.102 2721.48 478.781 2716.45 478.781 2716.45M474.663 2739.33L478.249 2738.37L482.796 2741L486.296 2734.93L483.499 2729.28L484.843 2719.95M474.663 2739.33L480.788 2728.72C482.325 2725.65 484.843 2719.95 484.843 2719.95M484.843 2719.95L478.781 2716.45" stroke="#8E8E8E" id="n501"/>
<path d="M478.601 2732.51L476.414 2736.3L474.461 2736.18L469.914 2733.56L468.836 2731.93L471.023 2728.14L471.226 2731.28L475.773 2733.91L478.601 2732.51Z" fill="white" id="n502"/>
<path d="M475.773 2733.91L478.601 2732.51L476.414 2736.3L474.461 2736.18M475.773 2733.91L471.226 2731.28M475.773 2733.91L474.461 2736.18M471.226 2731.28L471.023 2728.14L468.836 2731.93L469.914 2733.56M471.226 2731.28L469.914 2733.56M469.914 2733.56L474.461 2736.18" stroke="#8E8E8E" id="n503"/>
<path d="M397.366 2866.47L395.634 2865.47L396.634 2863.73L398.366 2864.73L397.366 2866.47ZM399.366 2863L397.634 2862L398.634 2860.27L400.366 2861.27L399.366 2863ZM401.366 2859.54L399.634 2858.54L400.634 2856.81L402.366 2857.81L401.366 2859.54ZM403.366 2856.07L401.634 2855.07L402.634 2853.34L404.366 2854.34L403.366 2856.07ZM405.366 2852.61L403.634 2851.61L404.634 2849.88L406.366 2850.88L405.366 2852.61ZM407.366 2849.14L405.634 2848.14L406.634 2846.41L408.366 2847.41L407.366 2849.14ZM409.366 2845.68L407.634 2844.68L408.634 2842.95L410.366 2843.95L409.366 2845.68ZM411.366 2842.22L409.634 2841.22L410.634 2839.48L412.366 2840.48L411.366 2842.22ZM413.366 2838.75L411.634 2837.75L412.634 2836.02L414.366 2837.02L413.366 2838.75ZM415.366 2835.29L413.634 2834.29L414.634 2832.56L416.366 2833.56L415.366 2835.29ZM417.366 2831.82L415.634 2830.82L416.634 2829.09L418.366 2830.09L417.366 2831.82ZM419.366 2828.36L417.634 2827.36L418.634 2825.63L420.366 2826.63L419.366 2828.36ZM421.366 2824.9L419.634 2823.9L420.634 2822.16L422.366 2823.16L421.366 2824.9ZM423.366 2821.43L421.634 2820.43L422.634 2818.7L424.366 2819.7L423.366 2821.43ZM425.366 2817.97L423.634 2816.97L424.634 2815.24L426.366 2816.24L425.366 2817.97ZM427.366 2814.5L425.634 2813.5L426.634 2811.77L428.366 2812.77L427.366 2814.5ZM429.366 2811.04L427.634 2810.04L428.634 2808.31L430.366 2809.31L429.366 2811.04ZM431.366 2807.58L429.634 2806.58L430.634 2804.84L432.366 2805.84L431.366 2807.58ZM433.366 2804.11L431.634 2803.11L432.634 2801.38L434.366 2802.38L433.366 2804.11ZM435.366 2800.65L433.634 2799.65L434.634 2797.92L436.366 2798.92L435.366 2800.65ZM437.366 2797.18L435.634 2796.18L436.634 2794.45L438.366 2795.45L437.366 2797.18ZM439.366 2793.72L437.634 2792.72L438.634 2790.99L440.366 2791.99L439.366 2793.72ZM441.366 2790.26L439.634 2789.26L440.634 2787.52L442.366 2788.52L441.366 2790.26ZM443.366 2786.79L441.634 2785.79L442.634 2784.06L444.366 2785.06L443.366 2786.79ZM445.366 2783.33L443.634 2782.33L444.634 2780.59L446.366 2781.59L445.366 2783.33ZM447.366 2779.86L445.634 2778.86L446.634 2777.13L448.366 2778.13L447.366 2779.86ZM449.366 2776.4L447.634 2775.4L448.634 2773.67L450.366 2774.67L449.366 2776.4ZM451.366 2772.93L449.634 2771.93L450.634 2770.2L452.366 2771.2L451.366 2772.93ZM453.366 2769.47L451.634 2768.47L452.634 2766.74L454.366 2767.74L453.366 2769.47ZM455.366 2766.01L453.634 2765.01L454.634 2763.27L456.366 2764.27L455.366 2766.01ZM457.366 2762.54L455.634 2761.54L456.634 2759.81L458.366 2760.81L457.366 2762.54ZM459.366 2759.08L457.634 2758.08L458.634 2756.35L460.366 2757.35L459.366 2759.08ZM461.366 2755.61L459.634 2754.61L460.634 2752.88L462.366 2753.88L461.366 2755.61ZM463.366 2752.15L461.634 2751.15L462.634 2749.42L464.366 2750.42L463.366 2752.15ZM465.366 2748.69L463.634 2747.69L464.634 2745.95L466.366 2746.95L465.366 2748.69ZM467.366 2745.22L465.634 2744.22L466.634 2742.49L468.366 2743.49L467.366 2745.22ZM469.366 2741.76L467.634 2740.76L468.634 2739.03L470.366 2740.03L469.366 2741.76ZM471.366 2738.29L469.634 2737.29L470.634 2735.56L472.366 2736.56L471.366 2738.29ZM553.881 2591.51C554.587 2590.96 555.62 2591.55 555.498 2592.44L550.085 2631.65C549.824 2633.53 547.283 2633.97 546.35 2632.28L539.568 2620.16L477.803 2727.14C478.839 2728.16 479.244 2729.67 478.855 2731.07L503.213 2745.13C503.691 2745.41 503.855 2746.02 503.579 2746.5C503.302 2746.98 502.691 2747.14 502.213 2746.87L477.855 2732.8C476.839 2733.84 475.327 2734.24 473.929 2733.85L473.366 2734.83L471.634 2733.83L472.197 2732.85C471.16 2731.84 470.755 2730.33 471.145 2728.93L446.787 2714.87C446.309 2714.59 446.145 2713.98 446.421 2713.5C446.697 2713.02 447.309 2712.86 447.787 2713.13L472.145 2727.2C473.161 2726.16 474.673 2725.75 476.071 2726.14L537.836 2619.16L523.948 2619.35C522.023 2619.38 521.13 2616.97 522.634 2615.8L553.881 2591.51ZM473.001 2730C473.002 2730.69 473.359 2731.36 474 2731.73C474.641 2732.1 475.4 2732.08 475.998 2731.73L473.001 2730ZM474.999 2728C474.649 2728 474.305 2728.09 474.001 2728.27L474.634 2728.63L474.999 2728ZM476.366 2729.63L476.998 2730C476.998 2729.65 476.906 2729.3 476.731 2729L476.366 2729.63Z" fill="#535353" id="n506"/>
<path d="M397.366 2866.47L396.866 2867.33L397.732 2867.83L398.232 2866.97L397.366 2866.47ZM395.634 2865.47L394.768 2864.97L394.268 2865.83L395.134 2866.33L395.634 2865.47ZM396.634 2863.73L397.134 2862.87L396.268 2862.37L395.768 2863.23L396.634 2863.73ZM398.366 2864.73L399.232 2865.23L399.732 2864.37L398.866 2863.87L398.366 2864.73ZM399.366 2863L398.866 2863.87L399.732 2864.37L400.232 2863.5L399.366 2863ZM397.634 2862L396.768 2861.5L396.268 2862.37L397.134 2862.87L397.634 2862ZM398.634 2860.27L399.134 2859.4L398.268 2858.9L397.768 2859.77L398.634 2860.27ZM400.366 2861.27L401.232 2861.77L401.732 2860.9L400.866 2860.4L400.366 2861.27ZM401.366 2859.54L400.866 2860.4L401.732 2860.9L402.232 2860.04L401.366 2859.54ZM399.634 2858.54L398.768 2858.04L398.268 2858.9L399.134 2859.4L399.634 2858.54ZM400.634 2856.81L401.134 2855.94L400.268 2855.44L399.768 2856.31L400.634 2856.81ZM402.366 2857.81L403.232 2858.31L403.732 2857.44L402.866 2856.94L402.366 2857.81ZM403.366 2856.07L402.866 2856.94L403.732 2857.44L404.232 2856.57L403.366 2856.07ZM401.634 2855.07L400.768 2854.57L400.268 2855.44L401.134 2855.94L401.634 2855.07ZM402.634 2853.34L403.134 2852.47L402.268 2851.97L401.768 2852.84L402.634 2853.34ZM404.366 2854.34L405.232 2854.84L405.732 2853.97L404.866 2853.47L404.366 2854.34ZM405.366 2852.61L404.866 2853.47L405.732 2853.97L406.232 2853.11L405.366 2852.61ZM403.634 2851.61L402.768 2851.11L402.268 2851.97L403.134 2852.47L403.634 2851.61ZM404.634 2849.88L405.134 2849.01L404.268 2848.51L403.768 2849.38L404.634 2849.88ZM406.366 2850.88L407.232 2851.38L407.732 2850.51L406.866 2850.01L406.366 2850.88ZM407.366 2849.14L406.866 2850.01L407.732 2850.51L408.232 2849.64L407.366 2849.14ZM405.634 2848.14L404.768 2847.64L404.268 2848.51L405.134 2849.01L405.634 2848.14ZM406.634 2846.41L407.134 2845.55L406.268 2845.05L405.768 2845.91L406.634 2846.41ZM408.366 2847.41L409.232 2847.91L409.732 2847.05L408.866 2846.55L408.366 2847.41ZM409.366 2845.68L408.866 2846.55L409.732 2847.05L410.232 2846.18L409.366 2845.68ZM407.634 2844.68L406.768 2844.18L406.268 2845.05L407.134 2845.55L407.634 2844.68ZM408.634 2842.95L409.134 2842.08L408.268 2841.58L407.768 2842.45L408.634 2842.95ZM410.366 2843.95L411.232 2844.45L411.732 2843.58L410.866 2843.08L410.366 2843.95ZM411.366 2842.22L410.866 2843.08L411.732 2843.58L412.232 2842.72L411.366 2842.22ZM409.634 2841.22L408.768 2840.72L408.268 2841.58L409.134 2842.08L409.634 2841.22ZM410.634 2839.48L411.134 2838.62L410.268 2838.12L409.768 2838.98L410.634 2839.48ZM412.366 2840.48L413.232 2840.98L413.732 2840.12L412.866 2839.62L412.366 2840.48ZM413.366 2838.75L412.866 2839.62L413.732 2840.12L414.232 2839.25L413.366 2838.75ZM411.634 2837.75L410.768 2837.25L410.268 2838.12L411.134 2838.62L411.634 2837.75ZM412.634 2836.02L413.134 2835.15L412.268 2834.65L411.768 2835.52L412.634 2836.02ZM414.366 2837.02L415.232 2837.52L415.732 2836.65L414.866 2836.15L414.366 2837.02ZM415.366 2835.29L414.866 2836.15L415.732 2836.65L416.232 2835.79L415.366 2835.29ZM413.634 2834.29L412.768 2833.79L412.268 2834.65L413.134 2835.15L413.634 2834.29ZM414.634 2832.56L415.134 2831.69L414.268 2831.19L413.768 2832.06L414.634 2832.56ZM416.366 2833.56L417.232 2834.06L417.732 2833.19L416.866 2832.69L416.366 2833.56ZM417.366 2831.82L416.866 2832.69L417.732 2833.19L418.232 2832.32L417.366 2831.82ZM415.634 2830.82L414.768 2830.32L414.268 2831.19L415.134 2831.69L415.634 2830.82ZM416.634 2829.09L417.134 2828.23L416.268 2827.73L415.768 2828.59L416.634 2829.09ZM418.366 2830.09L419.232 2830.59L419.732 2829.73L418.866 2829.23L418.366 2830.09ZM419.366 2828.36L418.866 2829.23L419.732 2829.73L420.232 2828.86L419.366 2828.36ZM417.634 2827.36L416.768 2826.86L416.268 2827.73L417.134 2828.23L417.634 2827.36ZM418.634 2825.63L419.134 2824.76L418.268 2824.26L417.768 2825.13L418.634 2825.63ZM420.366 2826.63L421.232 2827.13L421.732 2826.26L420.866 2825.76L420.366 2826.63ZM421.366 2824.9L420.866 2825.76L421.732 2826.26L422.232 2825.4L421.366 2824.9ZM419.634 2823.9L418.768 2823.4L418.268 2824.26L419.134 2824.76L419.634 2823.9ZM420.634 2822.16L421.134 2821.3L420.268 2820.8L419.768 2821.66L420.634 2822.16ZM422.366 2823.16L423.232 2823.66L423.732 2822.8L422.866 2822.3L422.366 2823.16ZM423.366 2821.43L422.866 2822.3L423.732 2822.8L424.232 2821.93L423.366 2821.43ZM421.634 2820.43L420.768 2819.93L420.268 2820.8L421.134 2821.3L421.634 2820.43ZM422.634 2818.7L423.134 2817.83L422.268 2817.33L421.768 2818.2L422.634 2818.7ZM424.366 2819.7L425.232 2820.2L425.732 2819.33L424.866 2818.83L424.366 2819.7ZM425.366 2817.97L424.866 2818.83L425.732 2819.33L426.232 2818.47L425.366 2817.97ZM423.634 2816.97L422.768 2816.47L422.268 2817.33L423.134 2817.83L423.634 2816.97ZM424.634 2815.24L425.134 2814.37L424.268 2813.87L423.768 2814.74L424.634 2815.24ZM426.366 2816.24L427.232 2816.74L427.732 2815.87L426.866 2815.37L426.366 2816.24ZM427.366 2814.5L426.866 2815.37L427.732 2815.87L428.232 2815L427.366 2814.5ZM425.634 2813.5L424.768 2813L424.268 2813.87L425.134 2814.37L425.634 2813.5ZM426.634 2811.77L427.134 2810.91L426.268 2810.41L425.768 2811.27L426.634 2811.77ZM428.366 2812.77L429.232 2813.27L429.732 2812.41L428.866 2811.91L428.366 2812.77ZM429.366 2811.04L428.866 2811.91L429.732 2812.41L430.232 2811.54L429.366 2811.04ZM427.634 2810.04L426.768 2809.54L426.268 2810.41L427.134 2810.91L427.634 2810.04ZM428.634 2808.31L429.134 2807.44L428.268 2806.94L427.768 2807.81L428.634 2808.31ZM430.366 2809.31L431.232 2809.81L431.732 2808.94L430.866 2808.44L430.366 2809.31ZM431.366 2807.58L430.866 2808.44L431.732 2808.94L432.232 2808.08L431.366 2807.58ZM429.634 2806.58L428.768 2806.08L428.268 2806.94L429.134 2807.44L429.634 2806.58ZM430.634 2804.84L431.134 2803.98L430.268 2803.48L429.768 2804.34L430.634 2804.84ZM432.366 2805.84L433.232 2806.34L433.732 2805.48L432.866 2804.98L432.366 2805.84ZM433.366 2804.11L432.866 2804.98L433.732 2805.48L434.232 2804.61L433.366 2804.11ZM431.634 2803.11L430.768 2802.61L430.268 2803.48L431.134 2803.98L431.634 2803.11ZM432.634 2801.38L433.134 2800.51L432.268 2800.01L431.768 2800.88L432.634 2801.38ZM434.366 2802.38L435.232 2802.88L435.732 2802.01L434.866 2801.51L434.366 2802.38ZM435.366 2800.65L434.866 2801.51L435.732 2802.01L436.232 2801.15L435.366 2800.65ZM433.634 2799.65L432.768 2799.15L432.268 2800.01L433.134 2800.51L433.634 2799.65ZM434.634 2797.92L435.134 2797.05L434.268 2796.55L433.768 2797.42L434.634 2797.92ZM436.366 2798.92L437.232 2799.42L437.732 2798.55L436.866 2798.05L436.366 2798.92ZM437.366 2797.18L436.866 2798.05L437.732 2798.55L438.232 2797.68L437.366 2797.18ZM435.634 2796.18L434.768 2795.68L434.268 2796.55L435.134 2797.05L435.634 2796.18ZM436.634 2794.45L437.134 2793.59L436.268 2793.09L435.768 2793.95L436.634 2794.45ZM438.366 2795.45L439.232 2795.95L439.732 2795.09L438.866 2794.59L438.366 2795.45ZM439.366 2793.72L438.866 2794.59L439.732 2795.09L440.232 2794.22L439.366 2793.72ZM437.634 2792.72L436.768 2792.22L436.268 2793.09L437.134 2793.59L437.634 2792.72ZM438.634 2790.99L439.134 2790.12L438.268 2789.62L437.768 2790.49L438.634 2790.99ZM440.366 2791.99L441.232 2792.49L441.732 2791.62L440.866 2791.12L440.366 2791.99ZM441.366 2790.26L440.866 2791.12L441.732 2791.62L442.232 2790.76L441.366 2790.26ZM439.634 2789.26L438.768 2788.76L438.268 2789.62L439.134 2790.12L439.634 2789.26ZM440.634 2787.52L441.134 2786.66L440.268 2786.16L439.768 2787.02L440.634 2787.52ZM442.366 2788.52L443.232 2789.02L443.732 2788.16L442.866 2787.66L442.366 2788.52ZM443.366 2786.79L442.866 2787.66L443.732 2788.16L444.232 2787.29L443.366 2786.79ZM441.634 2785.79L440.768 2785.29L440.268 2786.16L441.134 2786.66L441.634 2785.79ZM442.634 2784.06L443.134 2783.19L442.268 2782.69L441.768 2783.56L442.634 2784.06ZM444.366 2785.06L445.232 2785.56L445.732 2784.69L444.866 2784.19L444.366 2785.06ZM445.366 2783.33L444.866 2784.19L445.732 2784.69L446.232 2783.83L445.366 2783.33ZM443.634 2782.33L442.768 2781.83L442.268 2782.69L443.134 2783.19L443.634 2782.33ZM444.634 2780.59L445.134 2779.73L444.268 2779.23L443.768 2780.09L444.634 2780.59ZM446.366 2781.59L447.232 2782.09L447.732 2781.23L446.866 2780.73L446.366 2781.59ZM447.366 2779.86L446.866 2780.73L447.732 2781.23L448.232 2780.36L447.366 2779.86ZM445.634 2778.86L444.768 2778.36L444.268 2779.23L445.134 2779.73L445.634 2778.86ZM446.634 2777.13L447.134 2776.26L446.268 2775.76L445.768 2776.63L446.634 2777.13ZM448.366 2778.13L449.232 2778.63L449.732 2777.76L448.866 2777.26L448.366 2778.13ZM449.366 2776.4L448.866 2777.26L449.732 2777.76L450.232 2776.9L449.366 2776.4ZM447.634 2775.4L446.768 2774.9L446.268 2775.76L447.134 2776.26L447.634 2775.4ZM448.634 2773.67L449.134 2772.8L448.268 2772.3L447.768 2773.17L448.634 2773.67ZM450.366 2774.67L451.232 2775.17L451.732 2774.3L450.866 2773.8L450.366 2774.67ZM451.366 2772.93L450.866 2773.8L451.732 2774.3L452.232 2773.43L451.366 2772.93ZM449.634 2771.93L448.768 2771.43L448.268 2772.3L449.134 2772.8L449.634 2771.93ZM450.634 2770.2L451.134 2769.34L450.268 2768.84L449.768 2769.7L450.634 2770.2ZM452.366 2771.2L453.232 2771.7L453.732 2770.84L452.866 2770.34L452.366 2771.2ZM453.366 2769.47L452.866 2770.34L453.732 2770.84L454.232 2769.97L453.366 2769.47ZM451.634 2768.47L450.768 2767.97L450.268 2768.84L451.134 2769.34L451.634 2768.47ZM452.634 2766.74L453.134 2765.87L452.268 2765.37L451.768 2766.24L452.634 2766.74ZM454.366 2767.74L455.232 2768.24L455.732 2767.37L454.866 2766.87L454.366 2767.74ZM455.366 2766.01L454.866 2766.87L455.732 2767.37L456.232 2766.51L455.366 2766.01ZM453.634 2765.01L452.768 2764.51L452.268 2765.37L453.134 2765.87L453.634 2765.01ZM454.634 2763.27L455.134 2762.41L454.268 2761.91L453.768 2762.77L454.634 2763.27ZM456.366 2764.27L457.232 2764.77L457.732 2763.91L456.866 2763.41L456.366 2764.27ZM457.366 2762.54L456.866 2763.41L457.732 2763.91L458.232 2763.04L457.366 2762.54ZM455.634 2761.54L454.768 2761.04L454.268 2761.91L455.134 2762.41L455.634 2761.54ZM456.634 2759.81L457.134 2758.94L456.268 2758.44L455.768 2759.31L456.634 2759.81ZM458.366 2760.81L459.232 2761.31L459.732 2760.44L458.866 2759.94L458.366 2760.81ZM459.366 2759.08L458.866 2759.94L459.732 2760.44L460.232 2759.58L459.366 2759.08ZM457.634 2758.08L456.768 2757.58L456.268 2758.44L457.134 2758.94L457.634 2758.08ZM458.634 2756.35L459.134 2755.48L458.268 2754.98L457.768 2755.85L458.634 2756.35ZM460.366 2757.35L461.232 2757.85L461.732 2756.98L460.866 2756.48L460.366 2757.35ZM461.366 2755.61L460.866 2756.48L461.732 2756.98L462.232 2756.11L461.366 2755.61ZM459.634 2754.61L458.768 2754.11L458.268 2754.98L459.134 2755.48L459.634 2754.61ZM460.634 2752.88L461.134 2752.02L460.268 2751.52L459.768 2752.38L460.634 2752.88ZM462.366 2753.88L463.232 2754.38L463.732 2753.52L462.866 2753.02L462.366 2753.88ZM463.366 2752.15L462.866 2753.02L463.732 2753.52L464.232 2752.65L463.366 2752.15ZM461.634 2751.15L460.768 2750.65L460.268 2751.52L461.134 2752.02L461.634 2751.15ZM462.634 2749.42L463.134 2748.55L462.268 2748.05L461.768 2748.92L462.634 2749.42ZM464.366 2750.42L465.232 2750.92L465.732 2750.05L464.866 2749.55L464.366 2750.42ZM465.366 2748.69L464.866 2749.55L465.732 2750.05L466.232 2749.19L465.366 2748.69ZM463.634 2747.69L462.768 2747.19L462.268 2748.05L463.134 2748.55L463.634 2747.69ZM464.634 2745.95L465.134 2745.09L464.268 2744.59L463.768 2745.45L464.634 2745.95ZM466.366 2746.95L467.232 2747.45L467.732 2746.59L466.866 2746.09L466.366 2746.95ZM467.366 2745.22L466.866 2746.09L467.732 2746.59L468.232 2745.72L467.366 2745.22ZM465.634 2744.22L464.768 2743.72L464.268 2744.59L465.134 2745.09L465.634 2744.22ZM466.634 2742.49L467.134 2741.62L466.268 2741.12L465.768 2741.99L466.634 2742.49ZM468.366 2743.49L469.232 2743.99L469.732 2743.12L468.866 2742.62L468.366 2743.49ZM469.366 2741.76L468.866 2742.62L469.732 2743.12L470.232 2742.26L469.366 2741.76ZM467.634 2740.76L466.768 2740.26L466.268 2741.12L467.134 2741.62L467.634 2740.76ZM468.634 2739.03L469.134 2738.16L468.268 2737.66L467.768 2738.53L468.634 2739.03ZM470.366 2740.03L471.232 2740.53L471.732 2739.66L470.866 2739.16L470.366 2740.03ZM471.366 2738.29L470.866 2739.16L471.732 2739.66L472.232 2738.79L471.366 2738.29ZM469.634 2737.29L468.768 2736.79L468.268 2737.66L469.134 2738.16L469.634 2737.29ZM470.634 2735.56L471.134 2734.7L470.268 2734.2L469.768 2735.06L470.634 2735.56ZM472.366 2736.56L473.232 2737.06L473.732 2736.2L472.866 2735.7L472.366 2736.56ZM553.881 2591.51L553.267 2590.72L553.267 2590.72L553.881 2591.51ZM555.498 2592.44L556.488 2592.58L556.488 2592.58L555.498 2592.44ZM550.085 2631.65L549.094 2631.51L549.094 2631.51L550.085 2631.65ZM546.35 2632.28L547.225 2631.8L547.223 2631.8L546.35 2632.28ZM539.568 2620.16L540.441 2619.67L539.582 2618.14L538.702 2619.66L539.568 2620.16ZM477.803 2727.14L476.937 2726.64L476.549 2727.32L477.103 2727.86L477.803 2727.14ZM478.855 2731.07L477.891 2730.8L477.683 2731.55L478.355 2731.94L478.855 2731.07ZM503.579 2746.5L504.445 2747L504.445 2747L503.579 2746.5ZM502.213 2746.87L501.713 2747.73L502.213 2746.87ZM477.855 2732.8L478.355 2731.94L477.683 2731.55L477.141 2732.1L477.855 2732.8ZM473.929 2733.85L474.197 2732.89L473.45 2732.68L473.063 2733.35L473.929 2733.85ZM473.366 2734.83L472.866 2735.7L473.732 2736.2L474.232 2735.33L473.366 2734.83ZM471.634 2733.83L470.768 2733.33L470.268 2734.2L471.134 2734.7L471.634 2733.83ZM472.197 2732.85L473.063 2733.35L473.45 2732.68L472.897 2732.14L472.197 2732.85ZM471.145 2728.93L472.108 2729.2L472.316 2728.45L471.645 2728.06L471.145 2728.93ZM446.421 2713.5L445.555 2713L445.555 2713L446.421 2713.5ZM447.787 2713.13L447.287 2714L447.787 2713.13ZM472.145 2727.2L471.645 2728.06L472.316 2728.45L472.859 2727.9L472.145 2727.2ZM476.071 2726.14L475.802 2727.11L476.549 2727.32L476.937 2726.64L476.071 2726.14ZM537.836 2619.16L538.702 2619.66L539.582 2618.14L537.823 2618.16L537.836 2619.16ZM523.948 2619.35L523.935 2618.35L523.931 2618.35L523.948 2619.35ZM522.634 2615.8L523.248 2616.59L523.248 2616.59L522.634 2615.8ZM473.001 2730L473.501 2729.13L471.999 2728.27L472.001 2730L473.001 2730ZM474 2731.73L473.5 2732.6V2732.6L474 2731.73ZM475.998 2731.73L476.497 2732.6L478.001 2731.73L476.498 2730.86L475.998 2731.73ZM474.999 2728L475.865 2728.5L476.732 2727L474.998 2727L474.999 2728ZM474.001 2728.27L473.502 2727.4L471.999 2728.27L473.501 2729.13L474.001 2728.27ZM474.634 2728.63L474.134 2729.5L475 2730L475.5 2729.13L474.634 2728.63ZM476.366 2729.63L475.5 2729.13L475 2730L475.866 2730.5L476.366 2729.63ZM476.998 2730L476.498 2730.86L478.001 2731.73L477.998 2730L476.998 2730ZM476.731 2729L477.598 2728.5L476.732 2727L475.865 2728.5L476.731 2729ZM397.366 2866.47L397.866 2865.6L396.134 2864.6L395.634 2865.47L395.134 2866.33L396.866 2867.33L397.366 2866.47ZM395.634 2865.47L396.5 2865.97L397.5 2864.23L396.634 2863.73L395.768 2863.23L394.768 2864.97L395.634 2865.47ZM396.634 2863.73L396.134 2864.6L397.866 2865.6L398.366 2864.73L398.866 2863.87L397.134 2862.87L396.634 2863.73ZM398.366 2864.73L397.5 2864.23L396.5 2865.97L397.366 2866.47L398.232 2866.97L399.232 2865.23L398.366 2864.73ZM399.366 2863L399.866 2862.14L398.134 2861.14L397.634 2862L397.134 2862.87L398.866 2863.87L399.366 2863ZM397.634 2862L398.5 2862.5L399.5 2860.77L398.634 2860.27L397.768 2859.77L396.768 2861.5L397.634 2862ZM398.634 2860.27L398.134 2861.14L399.866 2862.14L400.366 2861.27L400.866 2860.4L399.134 2859.4L398.634 2860.27ZM400.366 2861.27L399.5 2860.77L398.5 2862.5L399.366 2863L400.232 2863.5L401.232 2861.77L400.366 2861.27ZM401.366 2859.54L401.866 2858.67L400.134 2857.67L399.634 2858.54L399.134 2859.4L400.866 2860.4L401.366 2859.54ZM399.634 2858.54L400.5 2859.04L401.5 2857.31L400.634 2856.81L399.768 2856.31L398.768 2858.04L399.634 2858.54ZM400.634 2856.81L400.134 2857.67L401.866 2858.67L402.366 2857.81L402.866 2856.94L401.134 2855.94L400.634 2856.81ZM402.366 2857.81L401.5 2857.31L400.5 2859.04L401.366 2859.54L402.232 2860.04L403.232 2858.31L402.366 2857.81ZM403.366 2856.07L403.866 2855.21L402.134 2854.21L401.634 2855.07L401.134 2855.94L402.866 2856.94L403.366 2856.07ZM401.634 2855.07L402.5 2855.57L403.5 2853.84L402.634 2853.34L401.768 2852.84L400.768 2854.57L401.634 2855.07ZM402.634 2853.34L402.134 2854.21L403.866 2855.21L404.366 2854.34L404.866 2853.47L403.134 2852.47L402.634 2853.34ZM404.366 2854.34L403.5 2853.84L402.5 2855.57L403.366 2856.07L404.232 2856.57L405.232 2854.84L404.366 2854.34ZM405.366 2852.61L405.866 2851.74L404.134 2850.74L403.634 2851.61L403.134 2852.47L404.866 2853.47L405.366 2852.61ZM403.634 2851.61L404.5 2852.11L405.5 2850.38L404.634 2849.88L403.768 2849.38L402.768 2851.11L403.634 2851.61ZM404.634 2849.88L404.134 2850.74L405.866 2851.74L406.366 2850.88L406.866 2850.01L405.134 2849.01L404.634 2849.88ZM406.366 2850.88L405.5 2850.38L404.5 2852.11L405.366 2852.61L406.232 2853.11L407.232 2851.38L406.366 2850.88ZM407.366 2849.14L407.866 2848.28L406.134 2847.28L405.634 2848.14L405.134 2849.01L406.866 2850.01L407.366 2849.14ZM405.634 2848.14L406.5 2848.64L407.5 2846.91L406.634 2846.41L405.768 2845.91L404.768 2847.64L405.634 2848.14ZM406.634 2846.41L406.134 2847.28L407.866 2848.28L408.366 2847.41L408.866 2846.55L407.134 2845.55L406.634 2846.41ZM408.366 2847.41L407.5 2846.91L406.5 2848.64L407.366 2849.14L408.232 2849.64L409.232 2847.91L408.366 2847.41ZM409.366 2845.68L409.866 2844.81L408.134 2843.81L407.634 2844.68L407.134 2845.55L408.866 2846.55L409.366 2845.68ZM407.634 2844.68L408.5 2845.18L409.5 2843.45L408.634 2842.95L407.768 2842.45L406.768 2844.18L407.634 2844.68ZM408.634 2842.95L408.134 2843.81L409.866 2844.81L410.366 2843.95L410.866 2843.08L409.134 2842.08L408.634 2842.95ZM410.366 2843.95L409.5 2843.45L408.5 2845.18L409.366 2845.68L410.232 2846.18L411.232 2844.45L410.366 2843.95ZM411.366 2842.22L411.866 2841.35L410.134 2840.35L409.634 2841.22L409.134 2842.08L410.866 2843.08L411.366 2842.22ZM409.634 2841.22L410.5 2841.72L411.5 2839.98L410.634 2839.48L409.768 2838.98L408.768 2840.72L409.634 2841.22ZM410.634 2839.48L410.134 2840.35L411.866 2841.35L412.366 2840.48L412.866 2839.62L411.134 2838.62L410.634 2839.48ZM412.366 2840.48L411.5 2839.98L410.5 2841.72L411.366 2842.22L412.232 2842.72L413.232 2840.98L412.366 2840.48ZM413.366 2838.75L413.866 2837.89L412.134 2836.89L411.634 2837.75L411.134 2838.62L412.866 2839.62L413.366 2838.75ZM411.634 2837.75L412.5 2838.25L413.5 2836.52L412.634 2836.02L411.768 2835.52L410.768 2837.25L411.634 2837.75ZM412.634 2836.02L412.134 2836.89L413.866 2837.89L414.366 2837.02L414.866 2836.15L413.134 2835.15L412.634 2836.02ZM414.366 2837.02L413.5 2836.52L412.5 2838.25L413.366 2838.75L414.232 2839.25L415.232 2837.52L414.366 2837.02ZM415.366 2835.29L415.866 2834.42L414.134 2833.42L413.634 2834.29L413.134 2835.15L414.866 2836.15L415.366 2835.29ZM413.634 2834.29L414.5 2834.79L415.5 2833.06L414.634 2832.56L413.768 2832.06L412.768 2833.79L413.634 2834.29ZM414.634 2832.56L414.134 2833.42L415.866 2834.42L416.366 2833.56L416.866 2832.69L415.134 2831.69L414.634 2832.56ZM416.366 2833.56L415.5 2833.06L414.5 2834.79L415.366 2835.29L416.232 2835.79L417.232 2834.06L416.366 2833.56ZM417.366 2831.82L417.866 2830.96L416.134 2829.96L415.634 2830.82L415.134 2831.69L416.866 2832.69L417.366 2831.82ZM415.634 2830.82L416.5 2831.32L417.5 2829.59L416.634 2829.09L415.768 2828.59L414.768 2830.32L415.634 2830.82ZM416.634 2829.09L416.134 2829.96L417.866 2830.96L418.366 2830.09L418.866 2829.23L417.134 2828.23L416.634 2829.09ZM418.366 2830.09L417.5 2829.59L416.5 2831.32L417.366 2831.82L418.232 2832.32L419.232 2830.59L418.366 2830.09ZM419.366 2828.36L419.866 2827.49L418.134 2826.49L417.634 2827.36L417.134 2828.23L418.866 2829.23L419.366 2828.36ZM417.634 2827.36L418.5 2827.86L419.5 2826.13L418.634 2825.63L417.768 2825.13L416.768 2826.86L417.634 2827.36ZM418.634 2825.63L418.134 2826.49L419.866 2827.49L420.366 2826.63L420.866 2825.76L419.134 2824.76L418.634 2825.63ZM420.366 2826.63L419.5 2826.13L418.5 2827.86L419.366 2828.36L420.232 2828.86L421.232 2827.13L420.366 2826.63ZM421.366 2824.9L421.866 2824.03L420.134 2823.03L419.634 2823.9L419.134 2824.76L420.866 2825.76L421.366 2824.9ZM419.634 2823.9L420.5 2824.4L421.5 2822.66L420.634 2822.16L419.768 2821.66L418.768 2823.4L419.634 2823.9ZM420.634 2822.16L420.134 2823.03L421.866 2824.03L422.366 2823.16L422.866 2822.3L421.134 2821.3L420.634 2822.16ZM422.366 2823.16L421.5 2822.66L420.5 2824.4L421.366 2824.9L422.232 2825.4L423.232 2823.66L422.366 2823.16ZM423.366 2821.43L423.866 2820.57L422.134 2819.57L421.634 2820.43L421.134 2821.3L422.866 2822.3L423.366 2821.43ZM421.634 2820.43L422.5 2820.93L423.5 2819.2L422.634 2818.7L421.768 2818.2L420.768 2819.93L421.634 2820.43ZM422.634 2818.7L422.134 2819.57L423.866 2820.57L424.366 2819.7L424.866 2818.83L423.134 2817.83L422.634 2818.7ZM424.366 2819.7L423.5 2819.2L422.5 2820.93L423.366 2821.43L424.232 2821.93L425.232 2820.2L424.366 2819.7ZM425.366 2817.97L425.866 2817.1L424.134 2816.1L423.634 2816.97L423.134 2817.83L424.866 2818.83L425.366 2817.97ZM423.634 2816.97L424.5 2817.47L425.5 2815.74L424.634 2815.24L423.768 2814.74L422.768 2816.47L423.634 2816.97ZM424.634 2815.24L424.134 2816.1L425.866 2817.1L426.366 2816.24L426.866 2815.37L425.134 2814.37L424.634 2815.24ZM426.366 2816.24L425.5 2815.74L424.5 2817.47L425.366 2817.97L426.232 2818.47L427.232 2816.74L426.366 2816.24ZM427.366 2814.5L427.866 2813.64L426.134 2812.64L425.634 2813.5L425.134 2814.37L426.866 2815.37L427.366 2814.5ZM425.634 2813.5L426.5 2814L427.5 2812.27L426.634 2811.77L425.768 2811.27L424.768 2813L425.634 2813.5ZM426.634 2811.77L426.134 2812.64L427.866 2813.64L428.366 2812.77L428.866 2811.91L427.134 2810.91L426.634 2811.77ZM428.366 2812.77L427.5 2812.27L426.5 2814L427.366 2814.5L428.232 2815L429.232 2813.27L428.366 2812.77ZM429.366 2811.04L429.866 2810.17L428.134 2809.17L427.634 2810.04L427.134 2810.91L428.866 2811.91L429.366 2811.04ZM427.634 2810.04L428.5 2810.54L429.5 2808.81L428.634 2808.31L427.768 2807.81L426.768 2809.54L427.634 2810.04ZM428.634 2808.31L428.134 2809.17L429.866 2810.17L430.366 2809.31L430.866 2808.44L429.134 2807.44L428.634 2808.31ZM430.366 2809.31L429.5 2808.81L428.5 2810.54L429.366 2811.04L430.232 2811.54L431.232 2809.81L430.366 2809.31ZM431.366 2807.58L431.866 2806.71L430.134 2805.71L429.634 2806.58L429.134 2807.44L430.866 2808.44L431.366 2807.58ZM429.634 2806.58L430.5 2807.08L431.5 2805.34L430.634 2804.84L429.768 2804.34L428.768 2806.08L429.634 2806.58ZM430.634 2804.84L430.134 2805.71L431.866 2806.71L432.366 2805.84L432.866 2804.98L431.134 2803.98L430.634 2804.84ZM432.366 2805.84L431.5 2805.34L430.5 2807.08L431.366 2807.58L432.232 2808.08L433.232 2806.34L432.366 2805.84ZM433.366 2804.11L433.866 2803.25L432.134 2802.25L431.634 2803.11L431.134 2803.98L432.866 2804.98L433.366 2804.11ZM431.634 2803.11L432.5 2803.61L433.5 2801.88L432.634 2801.38L431.768 2800.88L430.768 2802.61L431.634 2803.11ZM432.634 2801.38L432.134 2802.25L433.866 2803.25L434.366 2802.38L434.866 2801.51L433.134 2800.51L432.634 2801.38ZM434.366 2802.38L433.5 2801.88L432.5 2803.61L433.366 2804.11L434.232 2804.61L435.232 2802.88L434.366 2802.38ZM435.366 2800.65L435.866 2799.78L434.134 2798.78L433.634 2799.65L433.134 2800.51L434.866 2801.51L435.366 2800.65ZM433.634 2799.65L434.5 2800.15L435.5 2798.42L434.634 2797.92L433.768 2797.42L432.768 2799.15L433.634 2799.65ZM434.634 2797.92L434.134 2798.78L435.866 2799.78L436.366 2798.92L436.866 2798.05L435.134 2797.05L434.634 2797.92ZM436.366 2798.92L435.5 2798.42L434.5 2800.15L435.366 2800.65L436.232 2801.15L437.232 2799.42L436.366 2798.92ZM437.366 2797.18L437.866 2796.32L436.134 2795.32L435.634 2796.18L435.134 2797.05L436.866 2798.05L437.366 2797.18ZM435.634 2796.18L436.5 2796.68L437.5 2794.95L436.634 2794.45L435.768 2793.95L434.768 2795.68L435.634 2796.18ZM436.634 2794.45L436.134 2795.32L437.866 2796.32L438.366 2795.45L438.866 2794.59L437.134 2793.59L436.634 2794.45ZM438.366 2795.45L437.5 2794.95L436.5 2796.68L437.366 2797.18L438.232 2797.68L439.232 2795.95L438.366 2795.45ZM439.366 2793.72L439.866 2792.85L438.134 2791.85L437.634 2792.72L437.134 2793.59L438.866 2794.59L439.366 2793.72ZM437.634 2792.72L438.5 2793.22L439.5 2791.49L438.634 2790.99L437.768 2790.49L436.768 2792.22L437.634 2792.72ZM438.634 2790.99L438.134 2791.85L439.866 2792.85L440.366 2791.99L440.866 2791.12L439.134 2790.12L438.634 2790.99ZM440.366 2791.99L439.5 2791.49L438.5 2793.22L439.366 2793.72L440.232 2794.22L441.232 2792.49L440.366 2791.99ZM441.366 2790.26L441.866 2789.39L440.134 2788.39L439.634 2789.26L439.134 2790.12L440.866 2791.12L441.366 2790.26ZM439.634 2789.26L440.5 2789.76L441.5 2788.02L440.634 2787.52L439.768 2787.02L438.768 2788.76L439.634 2789.26ZM440.634 2787.52L440.134 2788.39L441.866 2789.39L442.366 2788.52L442.866 2787.66L441.134 2786.66L440.634 2787.52ZM442.366 2788.52L441.5 2788.02L440.5 2789.76L441.366 2790.26L442.232 2790.76L443.232 2789.02L442.366 2788.52ZM443.366 2786.79L443.866 2785.92L442.134 2784.92L441.634 2785.79L441.134 2786.66L442.866 2787.66L443.366 2786.79ZM441.634 2785.79L442.5 2786.29L443.5 2784.56L442.634 2784.06L441.768 2783.56L440.768 2785.29L441.634 2785.79ZM442.634 2784.06L442.134 2784.92L443.866 2785.92L444.366 2785.06L444.866 2784.19L443.134 2783.19L442.634 2784.06ZM444.366 2785.06L443.5 2784.56L442.5 2786.29L443.366 2786.79L444.232 2787.29L445.232 2785.56L444.366 2785.06ZM445.366 2783.33L445.866 2782.46L444.134 2781.46L443.634 2782.33L443.134 2783.19L444.866 2784.19L445.366 2783.33ZM443.634 2782.33L444.5 2782.83L445.5 2781.09L444.634 2780.59L443.768 2780.09L442.768 2781.83L443.634 2782.33ZM444.634 2780.59L444.134 2781.46L445.866 2782.46L446.366 2781.59L446.866 2780.73L445.134 2779.73L444.634 2780.59ZM446.366 2781.59L445.5 2781.09L444.5 2782.83L445.366 2783.33L446.232 2783.83L447.232 2782.09L446.366 2781.59ZM447.366 2779.86L447.866 2779L446.134 2778L445.634 2778.86L445.134 2779.73L446.866 2780.73L447.366 2779.86ZM445.634 2778.86L446.5 2779.36L447.5 2777.63L446.634 2777.13L445.768 2776.63L444.768 2778.36L445.634 2778.86ZM446.634 2777.13L446.134 2778L447.866 2779L448.366 2778.13L448.866 2777.26L447.134 2776.26L446.634 2777.13ZM448.366 2778.13L447.5 2777.63L446.5 2779.36L447.366 2779.86L448.232 2780.36L449.232 2778.63L448.366 2778.13ZM449.366 2776.4L449.866 2775.53L448.134 2774.53L447.634 2775.4L447.134 2776.26L448.866 2777.26L449.366 2776.4ZM447.634 2775.4L448.5 2775.9L449.5 2774.17L448.634 2773.67L447.768 2773.17L446.768 2774.9L447.634 2775.4ZM448.634 2773.67L448.134 2774.53L449.866 2775.53L450.366 2774.67L450.866 2773.8L449.134 2772.8L448.634 2773.67ZM450.366 2774.67L449.5 2774.17L448.5 2775.9L449.366 2776.4L450.232 2776.9L451.232 2775.17L450.366 2774.67ZM451.366 2772.93L451.866 2772.07L450.134 2771.07L449.634 2771.93L449.134 2772.8L450.866 2773.8L451.366 2772.93ZM449.634 2771.93L450.5 2772.43L451.5 2770.7L450.634 2770.2L449.768 2769.7L448.768 2771.43L449.634 2771.93ZM450.634 2770.2L450.134 2771.07L451.866 2772.07L452.366 2771.2L452.866 2770.34L451.134 2769.34L450.634 2770.2ZM452.366 2771.2L451.5 2770.7L450.5 2772.43L451.366 2772.93L452.232 2773.43L453.232 2771.7L452.366 2771.2ZM453.366 2769.47L453.866 2768.6L452.134 2767.6L451.634 2768.47L451.134 2769.34L452.866 2770.34L453.366 2769.47ZM451.634 2768.47L452.5 2768.97L453.5 2767.24L452.634 2766.74L451.768 2766.24L450.768 2767.97L451.634 2768.47ZM452.634 2766.74L452.134 2767.6L453.866 2768.6L454.366 2767.74L454.866 2766.87L453.134 2765.87L452.634 2766.74ZM454.366 2767.74L453.5 2767.24L452.5 2768.97L453.366 2769.47L454.232 2769.97L455.232 2768.24L454.366 2767.74ZM455.366 2766.01L455.866 2765.14L454.134 2764.14L453.634 2765.01L453.134 2765.87L454.866 2766.87L455.366 2766.01ZM453.634 2765.01L454.5 2765.51L455.5 2763.77L454.634 2763.27L453.768 2762.77L452.768 2764.51L453.634 2765.01ZM454.634 2763.27L454.134 2764.14L455.866 2765.14L456.366 2764.27L456.866 2763.41L455.134 2762.41L454.634 2763.27ZM456.366 2764.27L455.5 2763.77L454.5 2765.51L455.366 2766.01L456.232 2766.51L457.232 2764.77L456.366 2764.27ZM457.366 2762.54L457.866 2761.68L456.134 2760.68L455.634 2761.54L455.134 2762.41L456.866 2763.41L457.366 2762.54ZM455.634 2761.54L456.5 2762.04L457.5 2760.31L456.634 2759.81L455.768 2759.31L454.768 2761.04L455.634 2761.54ZM456.634 2759.81L456.134 2760.68L457.866 2761.68L458.366 2760.81L458.866 2759.94L457.134 2758.94L456.634 2759.81ZM458.366 2760.81L457.5 2760.31L456.5 2762.04L457.366 2762.54L458.232 2763.04L459.232 2761.31L458.366 2760.81ZM459.366 2759.08L459.866 2758.21L458.134 2757.21L457.634 2758.08L457.134 2758.94L458.866 2759.94L459.366 2759.08ZM457.634 2758.08L458.5 2758.58L459.5 2756.85L458.634 2756.35L457.768 2755.85L456.768 2757.58L457.634 2758.08ZM458.634 2756.35L458.134 2757.21L459.866 2758.21L460.366 2757.35L460.866 2756.48L459.134 2755.48L458.634 2756.35ZM460.366 2757.35L459.5 2756.85L458.5 2758.58L459.366 2759.08L460.232 2759.58L461.232 2757.85L460.366 2757.35ZM461.366 2755.61L461.866 2754.75L460.134 2753.75L459.634 2754.61L459.134 2755.48L460.866 2756.48L461.366 2755.61ZM459.634 2754.61L460.5 2755.11L461.5 2753.38L460.634 2752.88L459.768 2752.38L458.768 2754.11L459.634 2754.61ZM460.634 2752.88L460.134 2753.75L461.866 2754.75L462.366 2753.88L462.866 2753.02L461.134 2752.02L460.634 2752.88ZM462.366 2753.88L461.5 2753.38L460.5 2755.11L461.366 2755.61L462.232 2756.11L463.232 2754.38L462.366 2753.88ZM463.366 2752.15L463.866 2751.28L462.134 2750.28L461.634 2751.15L461.134 2752.02L462.866 2753.02L463.366 2752.15ZM461.634 2751.15L462.5 2751.65L463.5 2749.92L462.634 2749.42L461.768 2748.92L460.768 2750.65L461.634 2751.15ZM462.634 2749.42L462.134 2750.28L463.866 2751.28L464.366 2750.42L464.866 2749.55L463.134 2748.55L462.634 2749.42ZM464.366 2750.42L463.5 2749.92L462.5 2751.65L463.366 2752.15L464.232 2752.65L465.232 2750.92L464.366 2750.42ZM465.366 2748.69L465.866 2747.82L464.134 2746.82L463.634 2747.69L463.134 2748.55L464.866 2749.55L465.366 2748.69ZM463.634 2747.69L464.5 2748.19L465.5 2746.45L464.634 2745.95L463.768 2745.45L462.768 2747.19L463.634 2747.69ZM464.634 2745.95L464.134 2746.82L465.866 2747.82L466.366 2746.95L466.866 2746.09L465.134 2745.09L464.634 2745.95ZM466.366 2746.95L465.5 2746.45L464.5 2748.19L465.366 2748.69L466.232 2749.19L467.232 2747.45L466.366 2746.95ZM467.366 2745.22L467.866 2744.36L466.134 2743.36L465.634 2744.22L465.134 2745.09L466.866 2746.09L467.366 2745.22ZM465.634 2744.22L466.5 2744.72L467.5 2742.99L466.634 2742.49L465.768 2741.99L464.768 2743.72L465.634 2744.22ZM466.634 2742.49L466.134 2743.36L467.866 2744.36L468.366 2743.49L468.866 2742.62L467.134 2741.62L466.634 2742.49ZM468.366 2743.49L467.5 2742.99L466.5 2744.72L467.366 2745.22L468.232 2745.72L469.232 2743.99L468.366 2743.49ZM469.366 2741.76L469.866 2740.89L468.134 2739.89L467.634 2740.76L467.134 2741.62L468.866 2742.62L469.366 2741.76ZM467.634 2740.76L468.5 2741.26L469.5 2739.53L468.634 2739.03L467.768 2738.53L466.768 2740.26L467.634 2740.76ZM468.634 2739.03L468.134 2739.89L469.866 2740.89L470.366 2740.03L470.866 2739.16L469.134 2738.16L468.634 2739.03ZM470.366 2740.03L469.5 2739.53L468.5 2741.26L469.366 2741.76L470.232 2742.26L471.232 2740.53L470.366 2740.03ZM471.366 2738.29L471.866 2737.43L470.134 2736.43L469.634 2737.29L469.134 2738.16L470.866 2739.16L471.366 2738.29ZM469.634 2737.29L470.5 2737.79L471.5 2736.06L470.634 2735.56L469.768 2735.06L468.768 2736.79L469.634 2737.29ZM470.634 2735.56L470.134 2736.43L471.866 2737.43L472.366 2736.56L472.866 2735.7L471.134 2734.7L470.634 2735.56ZM472.366 2736.56L471.5 2736.06L470.5 2737.79L471.366 2738.29L472.232 2738.79L473.232 2737.06L472.366 2736.56ZM553.881 2591.51L554.494 2592.3C554.498 2592.29 554.499 2592.29 554.5 2592.29C554.5 2592.29 554.499 2592.29 554.497 2592.29C554.493 2592.29 554.489 2592.3 554.486 2592.3C554.484 2592.3 554.484 2592.3 554.487 2592.3C554.49 2592.3 554.495 2592.3 554.5 2592.3C554.505 2592.3 554.508 2592.31 554.511 2592.31C554.513 2592.31 554.513 2592.31 554.511 2592.31C554.51 2592.31 554.509 2592.3 554.508 2592.3C554.508 2592.3 554.508 2592.3 554.508 2592.3C554.508 2592.3 554.508 2592.3 554.507 2592.3L555.498 2592.44L556.488 2592.58C556.733 2590.8 554.681 2589.62 553.267 2590.72L553.881 2591.51ZM555.498 2592.44L554.507 2592.3L549.094 2631.51L550.085 2631.65L551.076 2631.78L556.488 2592.58L555.498 2592.44ZM550.085 2631.65L549.094 2631.51C548.974 2632.38 547.723 2632.7 547.225 2631.8L546.35 2632.28L545.475 2632.77C546.844 2635.24 550.675 2634.68 551.076 2631.78L550.085 2631.65ZM546.35 2632.28L547.223 2631.8L540.441 2619.67L539.568 2620.16L538.696 2620.65L545.477 2632.77L546.35 2632.28ZM539.568 2620.16L538.702 2619.66L476.937 2726.64L477.803 2727.14L478.669 2727.64L540.434 2620.66L539.568 2620.16ZM477.803 2727.14L477.103 2727.86C477.879 2728.62 478.183 2729.75 477.891 2730.8L478.855 2731.07L479.818 2731.34C480.305 2729.59 479.799 2727.7 478.503 2726.43L477.803 2727.14ZM478.855 2731.07L478.355 2731.94L502.713 2746L503.213 2745.13L503.713 2744.27L479.355 2730.2L478.855 2731.07ZM503.213 2745.13L502.713 2746L502.712 2746L503.579 2746.5L504.445 2747C504.997 2746.04 504.669 2744.82 503.713 2744.27L503.213 2745.13ZM503.579 2746.5L502.713 2746V2746L502.213 2746.87L501.713 2747.73C502.669 2748.28 503.892 2747.96 504.445 2747L503.579 2746.5ZM502.213 2746.87L502.713 2746L478.355 2731.94L477.855 2732.8L477.355 2733.67L501.713 2747.73L502.213 2746.87ZM477.855 2732.8L477.141 2732.1C476.38 2732.88 475.244 2733.18 474.197 2732.89L473.929 2733.85L473.66 2734.82C475.41 2735.3 477.298 2734.8 478.569 2733.5L477.855 2732.8ZM473.929 2733.85L473.063 2733.35L472.5 2734.33L473.366 2734.83L474.232 2735.33L474.795 2734.35L473.929 2733.85ZM473.366 2734.83L473.866 2733.96L472.134 2732.96L471.634 2733.83L471.134 2734.7L472.866 2735.7L473.366 2734.83ZM471.634 2733.83L472.5 2734.33L473.063 2733.35L472.197 2732.85L471.331 2732.35L470.768 2733.33L471.634 2733.83ZM472.197 2732.85L472.897 2732.14C472.121 2731.38 471.816 2730.24 472.108 2729.2L471.145 2728.93L470.181 2728.66C469.694 2730.41 470.2 2732.3 471.497 2733.57L472.197 2732.85ZM471.145 2728.93L471.645 2728.06L447.287 2714L446.787 2714.87L446.287 2715.73L470.645 2729.79L471.145 2728.93ZM446.787 2714.87L447.287 2714L446.421 2713.5L445.555 2713C445.003 2713.96 445.33 2715.18 446.287 2715.73L446.787 2714.87ZM446.421 2713.5L447.287 2714L447.287 2714L447.787 2713.13L448.287 2712.27C447.33 2711.71 446.107 2712.04 445.555 2713L446.421 2713.5ZM447.787 2713.13L447.287 2714L471.645 2728.06L472.145 2727.2L472.645 2726.33L448.287 2712.27L447.787 2713.13ZM472.145 2727.2L472.859 2727.9C473.62 2727.12 474.755 2726.82 475.802 2727.11L476.071 2726.14L476.339 2725.18C474.59 2724.69 472.702 2725.2 471.431 2726.5L472.145 2727.2ZM476.071 2726.14L476.937 2726.64L538.702 2619.66L537.836 2619.16L536.97 2618.66L475.205 2725.64L476.071 2726.14ZM537.836 2619.16L537.823 2618.16L523.935 2618.35L523.948 2619.35L523.962 2620.35L537.85 2620.16L537.836 2619.16ZM523.948 2619.35L523.931 2618.35C522.903 2618.37 522.552 2617.13 523.248 2616.59L522.634 2615.8L522.021 2615.01C519.707 2616.81 521.144 2620.4 523.966 2620.35L523.948 2619.35ZM522.634 2615.8L523.248 2616.59L554.494 2592.3L553.881 2591.51L553.267 2590.72L522.021 2615.01L522.634 2615.8ZM473.001 2730L472.001 2730C472.002 2731.03 472.536 2732.04 473.5 2732.6L474 2731.73L474.5 2730.87C474.182 2730.68 474.002 2730.35 474.001 2730L473.001 2730ZM474 2731.73L473.5 2732.6C474.463 2733.15 475.604 2733.11 476.497 2732.6L475.998 2731.73L475.499 2730.86C475.196 2731.04 474.818 2731.05 474.5 2730.87L474 2731.73ZM475.998 2731.73L476.498 2730.86L473.501 2729.13L473.001 2730L472.501 2730.87L475.498 2732.6L475.998 2731.73ZM474.999 2728L474.998 2727C474.473 2727 473.957 2727.14 473.502 2727.4L474.001 2728.27L474.5 2729.13C474.652 2729.05 474.825 2729 475 2729L474.999 2728ZM474.001 2728.27L473.501 2729.13L474.134 2729.5L474.634 2728.63L475.134 2727.77L474.501 2727.4L474.001 2728.27ZM474.634 2728.63L475.5 2729.13L475.865 2728.5L474.999 2728L474.133 2727.5L473.768 2728.13L474.634 2728.63ZM476.366 2729.63L475.866 2730.5L476.498 2730.86L476.998 2730L477.498 2729.13L476.866 2728.77L476.366 2729.63ZM476.998 2730L477.998 2730C477.998 2729.47 477.859 2728.96 477.598 2728.5L476.731 2729L475.864 2729.5C475.952 2729.65 475.998 2729.82 475.998 2730L476.998 2730ZM476.731 2729L475.865 2728.5L475.5 2729.13L476.366 2729.63L477.232 2730.13L477.597 2729.5L476.731 2729Z" fill="#F7F7F7" mask="url(#path-339-outside-17_68_6728)" id="n507"/>
<circle cx="475" cy="2730" r="2" transform="rotate(30 475 2730)" fill="#F7F7F7" id="n508"/>
</g>
</svg>
