<?xml version='1.0' encoding='utf-8'?>
<svg xmlns="http://www.w3.org/2000/svg" xmlns:xlink="http://www.w3.org/1999/xlink" width="88.0" height="185.0" viewBox="0 0 88.0 185.0" fill="none">
  <defs><clipPath id="clip__asset"><rect x="0" y="0" width="88.0" height="185.0"/></clipPath><clipPath id="clip6_68_6728">
<rect width="3" height="16" fill="white" transform="translate(850 300)" id="n450"/>
</clipPath>
<clipPath id="clip7_68_6728">
<rect width="3" height="16" fill="white" transform="matrix(-1 0 0 1 856 300)" id="n451"/>
</clipPath>
<clipPath id="clip8_68_6728">
<rect width="12" height="12" fill="white" transform="translate(847 288)" id="n452"/>
</clipPath>
<clipPath id="clip9_68_6728">
<rect width="12" height="12" fill="white" transform="translate(857 298)" id="n453"/>
</clipPath>
<clipPath id="clip10_68_6728">
<rect width="12" height="12" fill="white" transform="translate(837 308)" id="n454"/>
</clipPath>
</defs>
  <g clip-path="url(#clip__asset)" transform="translate(-809.0 -200.0)"><path d="M887.667 200V200.5H893C894.933 200.5 896.5 202.067 896.5 204V208.917H897V213.833H896.5V223.667H897V228.583H896.5V238.417H897V243.333H896.5V253.167H897V258.083H896.5V267.917H897V272.833H896.5V282.667H897V287.583H896.5V297.417H897V302.333H896.5V312.167H897V317.083H896.5V326.917H897V331.833H896.5V341.667H897V346.583H896.5V356.417H897V361.333H896.5V371.167H897V376.083H896.5V381C896.5 382.933 894.933 384.5 893 384.5H887.667V385H882.333V384.5H871.667V385H866.333V384.5H855.667V385H850.333V384.5H839.667V385H834.333V384.5H823.667V385H818.333V384.5H813C811.067 384.5 809.5 382.933 809.5 381V376.083H809V371.167H809.5V361.333H809V356.417H809.5V346.583H809V341.667H809.5V331.833H809V326.917H809.5V317.083H809V312.167H809.5V302.333H809V297.417H809.5V287.583H809V282.667H809.5V272.833H809V267.917H809.5V258.083H809V253.167H809.5V243.333H809V238.417H809.5V228.583H809V223.667H809.5V213.833H809V208.917H809.5V204C809.5 202.067 811.067 200.5 813 200.5H818.333V200H823.667V200.5H834.333V200H839.667V200.5H850.333V200H855.667V200.5H866.333V200H871.667V200.5H882.333V200H887.667Z" fill="#F7F7F7" id="n124"/>
<path d="M833 244C833 241.374 833.517 238.773 834.522 236.346C835.528 233.92 837.001 231.715 838.858 229.858L853 244L833 244Z" fill="#9CC1F5" stroke="#9CC1F5" id="n126"/>
<path d="M833 244L853 244" stroke="#BEBEBE" stroke-linecap="square" id="n127"/>
<path d="M838.858 258.142C836.061 255.345 834.156 251.781 833.384 247.902C832.613 244.022 833.009 240.001 834.522 236.346C836.036 232.692 838.6 229.568 841.889 227.371C845.178 225.173 849.044 224 853 224C856.956 224 860.822 225.173 864.111 227.371C867.4 229.568 869.964 232.692 871.478 236.346C872.991 240.001 873.387 244.022 872.616 247.902C871.844 251.781 869.939 255.345 867.142 258.142" stroke="#BEBEBE" stroke-linecap="round" id="n128"/>
<path d="M850.882 246.121C852.054 247.293 853.953 247.293 855.125 246.121C856.296 244.95 856.296 243.05 855.125 241.879C853.953 240.707 838.984 229.847 838.984 229.847C838.938 229.818 838.889 229.83 838.859 229.861C838.828 229.891 838.816 229.94 838.845 229.986C838.904 230.076 849.711 244.95 850.882 246.121Z" fill="#2D548B" stroke="#2D548B" stroke-linecap="square" id="n129"/>
<g clip-path="url(#clip6_68_6728)" id="n130">
<path d="M855.5 315.5H850.5V306C850.5 303.131 852.697 300.776 855.5 300.523V315.5Z" fill="white" id="n131"/>
<path d="M855.5 315.5H850.5V306C850.5 303.131 852.697 300.776 855.5 300.523V315.5Z" stroke="#707070" id="n132"/>
</g>
<g clip-path="url(#clip7_68_6728)" id="n133">
<path d="M850.5 315.5H855.5V306C855.5 303.131 853.303 300.776 850.5 300.523V315.5Z" fill="white" id="n134"/>
<path d="M850.5 315.5H855.5V306C855.5 303.131 853.303 300.776 850.5 300.523V315.5Z" stroke="#707070" id="n135"/>
</g>
<g clip-path="url(#clip8_68_6728)" id="n136">
<path d="M856.5 294L853 292L849.5 294L849.5 296L853 294L856.5 296L856.5 294Z" fill="#2D548B" id="n137"/>
<path d="M856.5 297L853 295L849.5 297L849.5 299L853 297L856.5 299L856.5 297Z" fill="#2D548B" id="n138"/>
</g>
<g clip-path="url(#clip9_68_6728)" id="n139">
<path d="M860 307.5L862 304L860 300.5L858 300.5L860 304L858 307.5L860 307.5Z" fill="#2D548B" id="n140"/>
</g>
<g clip-path="url(#clip10_68_6728)" id="n141">
<path d="M843 310.5L841 314L843 317.5L845 317.5L843 314L845 310.5L843 310.5Z" fill="#2D548B" id="n142"/>
<path d="M846 310.5L844 314L846 317.5L848 317.5L846 314L848 310.5L846 310.5Z" fill="#2D548B" id="n143"/>
</g>
</g>
</svg>
