<?xml version='1.0' encoding='utf-8'?>
<svg xmlns="http://www.w3.org/2000/svg" xmlns:xlink="http://www.w3.org/1999/xlink" width="56.0" height="800.0" viewBox="0 0 56.0 800.0" fill="none">
  <defs><clipPath id="clip__asset"><rect x="0" y="0" width="56.0" height="800.0"/></clipPath><mask id="path-661-inside-44_1702_11540" fill="white">
<path d="M6193 832H6249V1032H6193V832Z" id="n801"/>
</mask>
<filter id="filter19_d_1702_11540" x="6191" y="231" width="60" height="804" filterUnits="userSpaceOnUse" color-interpolation-filters="sRGB">
<feFlood flood-opacity="0" result="BackgroundImageFix" id="n1732"/>
<feColorMatrix in="SourceAlpha" type="matrix" values="0 0 0 0 0 0 0 0 0 0 0 0 0 0 0 0 0 0 127 0" result="hardAlpha" id="n1733"/>
<feOffset dy="1" id="n1734"/>
<feGaussianBlur stdDeviation="1" id="n1735"/>
<feColorMatrix type="matrix" values="0 0 0 0 0 0 0 0 0 0 0 0 0 0 0 0 0 0 0.23 0" id="n1736"/>
<feBlend mode="normal" in2="BackgroundImageFix" result="effect1_dropShadow_1702_11540" id="n1737"/>
<feBlend mode="normal" in="SourceGraphic" in2="effect1_dropShadow_1702_11540" result="shape" id="n1738"/>
</filter>
</defs>
  <g clip-path="url(#clip__asset)" transform="translate(-6193.0 -232.0)"><g filter="url(#filter19_d_1702_11540)" id="n788">
<rect width="56" height="800" transform="translate(6193 232)" fill="#FCFCFC" id="n789"/>
<path d="M6220 255H6222V259H6226V261H6222V265H6220V261H6216V259H6220V255Z" fill="#535353" id="n790"/>
<path fill-rule="evenodd" clip-rule="evenodd" d="M6210.61 258.516L6219.52 249.612C6220.33 248.796 6221.67 248.796 6222.48 249.612L6231.39 258.516C6232.2 259.332 6232.2 260.668 6231.39 261.484L6222.48 270.388C6221.67 271.204 6220.33 271.204 6219.52 270.388L6210.61 261.484C6209.8 260.668 6209.8 259.332 6210.61 258.516ZM6221 251L6212 260L6221 269L6230 260L6221 251Z" fill="#535353" id="n791"/>
<path d="M6197 293.6C6197 290.24 6197 288.56 6197.65 287.276C6198.23 286.147 6199.15 285.229 6200.28 284.654C6201.56 284 6203.24 284 6206.6 284H6235.4C6238.76 284 6240.44 284 6241.72 284.654C6242.85 285.229 6243.77 286.147 6244.35 287.276C6245 288.56 6245 290.24 6245 293.6V322.4C6245 325.76 6245 327.44 6244.35 328.724C6243.77 329.853 6242.85 330.771 6241.72 331.346C6240.44 332 6238.76 332 6235.4 332H6206.6C6203.24 332 6201.56 332 6200.28 331.346C6199.15 330.771 6198.23 329.853 6197.65 328.724C6197 327.44 6197 325.76 6197 322.4V293.6Z" fill="black" fill-opacity="0.04" id="n792"/>
<path d="M6220 303H6222V307H6226V309H6222V313H6220V309H6216V307H6220V303Z" fill="#535353" id="n793"/>
<path fill-rule="evenodd" clip-rule="evenodd" d="M6210.61 306.516L6219.52 297.612C6220.33 296.796 6221.67 296.796 6222.48 297.612L6231.39 306.516C6232.2 307.332 6232.2 308.668 6231.39 309.484L6222.48 318.388C6221.67 319.204 6220.33 319.204 6219.52 318.388L6210.61 309.484C6209.8 308.668 6209.8 307.332 6210.61 306.516ZM6221 299L6212 308L6221 317L6230 308L6221 299Z" fill="#535353" id="n794"/>
<path d="M6220 351H6222V355H6226V357H6222V361H6220V357H6216V355H6220V351Z" fill="#535353" id="n795"/>
<path fill-rule="evenodd" clip-rule="evenodd" d="M6210.61 354.516L6219.52 345.612C6220.33 344.796 6221.67 344.796 6222.48 345.612L6231.39 354.516C6232.2 355.332 6232.2 356.668 6231.39 357.484L6222.48 366.388C6221.67 367.204 6220.33 367.204 6219.52 366.388L6210.61 357.484C6209.8 356.668 6209.8 355.332 6210.61 354.516ZM6221 347L6212 356L6221 365L6230 356L6221 347Z" fill="#535353" id="n796"/>
<path d="M6220 399H6222V403H6226V405H6222V409H6220V405H6216V403H6220V399Z" fill="#535353" id="n797"/>
<path fill-rule="evenodd" clip-rule="evenodd" d="M6210.61 402.516L6219.52 393.612C6220.33 392.796 6221.67 392.796 6222.48 393.612L6231.39 402.516C6232.2 403.332 6232.2 404.668 6231.39 405.484L6222.48 414.388C6221.67 415.204 6220.33 415.204 6219.52 414.388L6210.61 405.484C6209.8 404.668 6209.8 403.332 6210.61 402.516ZM6221 395L6212 404L6221 413L6230 404L6221 395Z" fill="#535353" id="n798"/>
<path d="M6220 447H6222V451H6226V453H6222V457H6220V453H6216V451H6220V447Z" fill="#535353" id="n799"/>
<path fill-rule="evenodd" clip-rule="evenodd" d="M6210.61 450.516L6219.52 441.612C6220.33 440.796 6221.67 440.796 6222.48 441.612L6231.39 450.516C6232.2 451.332 6232.2 452.668 6231.39 453.484L6222.48 462.388C6221.67 463.204 6220.33 463.204 6219.52 462.388L6210.61 453.484C6209.8 452.668 6209.8 451.332 6210.61 450.516ZM6221 443L6212 452L6221 461L6230 452L6221 443Z" fill="#535353" id="n800"/>
<mask id="path-661-inside-44_1702_11540" fill="white">
<path d="M6193 832H6249V1032H6193V832Z" id="n801"/>
</mask>
<path d="M6193 832V833H6249V832V831H6193V832Z" fill="#DDDDDD" mask="url(#path-661-inside-44_1702_11540)" id="n802"/>
<path d="M6211 856.995V854.997H6212.98V856.995H6211Z" fill="#535353" id="n803"/>
<path d="M6211 860.992V858.993H6212.98V860.992H6211Z" fill="#535353" id="n804"/>
<path d="M6211 852.998V851H6212.98V852.998H6211Z" fill="#535353" id="n805"/>
<path d="M6214.96 856.995V854.997H6221.99L6221.43 856.126L6221 856.995H6214.96Z" fill="#535353" id="n806"/>
<path d="M6214.96 860.992V858.993H6219.99L6219 860.992H6214.96Z" fill="#535353" id="n807"/>
<path d="M6214.96 852.998V851H6228.82V852.998H6214.96Z" fill="#535353" id="n808"/>
<path fill-rule="evenodd" clip-rule="evenodd" d="M6230.9 866.719L6225.29 855.491C6224.96 854.836 6224.04 854.836 6223.71 855.491L6218.1 866.719C6217.8 867.315 6218.23 868 6218.89 868H6230.11C6230.77 868 6231.2 867.315 6230.9 866.719ZM6223.75 866.5H6225.25V865H6223.75V866.5ZM6223.75 863.5H6225.25V859H6223.75V863.5Z" fill="#535353" id="n809"/>
<path d="M6220 914H6222V912H6220V914Z" fill="#535353" id="n810"/>
<path d="M6221 902C6218.79 902 6217 903.79 6217 906H6219C6219 904.9 6219.9 904 6221 904C6222.1 904 6223 904.9 6223 906C6223 908 6220 907.75 6220 911H6222C6222 908.75 6225 908.5 6225 906C6225 903.79 6223.21 902 6221 902Z" fill="#535353" id="n811"/>
<path fill-rule="evenodd" clip-rule="evenodd" d="M6221 898C6215.48 898 6211 902.48 6211 908C6211 913.52 6215.48 918 6221 918C6226.52 918 6231 913.52 6231 908C6231 902.48 6226.52 898 6221 898ZM6221 916C6216.59 916 6213 912.41 6213 908C6213 903.59 6216.59 900 6221 900C6225.41 900 6229 903.59 6229 908C6229 912.41 6225.41 916 6221 916Z" fill="#535353" id="n812"/>
<path d="M6218.25 966L6217.85 962.8C6217.63 962.717 6217.43 962.617 6217.24 962.5C6217.05 962.383 6216.86 962.258 6216.67 962.125L6213.7 963.375L6210.95 958.625L6213.52 956.675C6213.51 956.558 6213.5 956.446 6213.5 956.338V955.663C6213.5 955.554 6213.51 955.442 6213.52 955.325L6210.95 953.375L6213.7 948.625L6216.67 949.875C6216.86 949.742 6217.05 949.617 6217.25 949.5C6217.45 949.383 6217.65 949.283 6217.85 949.2L6218.25 946H6223.75L6224.15 949.2C6224.37 949.283 6224.57 949.383 6224.76 949.5C6224.95 949.617 6225.14 949.742 6225.32 949.875L6228.3 948.625L6231.05 953.375L6228.47 955.325C6228.49 955.442 6228.5 955.554 6228.5 955.663V956.338C6228.5 956.446 6228.48 956.558 6228.45 956.675L6231.02 958.625L6228.27 963.375L6225.32 962.125C6225.14 962.258 6224.95 962.383 6224.75 962.5C6224.55 962.617 6224.35 962.717 6224.15 962.8L6223.75 966H6218.25ZM6220 964H6221.97L6222.32 961.35C6222.84 961.217 6223.32 961.021 6223.76 960.762C6224.2 960.504 6224.61 960.192 6224.97 959.825L6227.45 960.85L6228.42 959.15L6226.27 957.525C6226.36 957.292 6226.42 957.046 6226.45 956.788C6226.48 956.529 6226.5 956.267 6226.5 956C6226.5 955.733 6226.48 955.471 6226.45 955.213C6226.42 954.954 6226.36 954.708 6226.27 954.475L6228.42 952.85L6227.45 951.15L6224.97 952.2C6224.61 951.817 6224.2 951.496 6223.76 951.238C6223.32 950.979 6222.84 950.783 6222.32 950.65L6222 948H6220.02L6219.67 950.65C6219.16 950.783 6218.68 950.979 6218.24 951.238C6217.8 951.496 6217.39 951.808 6217.02 952.175L6214.55 951.15L6213.57 952.85L6215.72 954.45C6215.64 954.7 6215.58 954.95 6215.55 955.2C6215.52 955.45 6215.5 955.717 6215.5 956C6215.5 956.267 6215.52 956.525 6215.55 956.775C6215.58 957.025 6215.64 957.275 6215.72 957.525L6213.57 959.15L6214.55 960.85L6217.02 959.8C6217.39 960.183 6217.8 960.504 6218.24 960.762C6218.68 961.021 6219.16 961.217 6219.67 961.35L6220 964Z" fill="#535353" id="n813"/>
<path fill-rule="evenodd" clip-rule="evenodd" d="M6221 957.5C6221.83 957.5 6222.5 956.828 6222.5 956C6222.5 955.172 6221.83 954.5 6221 954.5C6220.17 954.5 6219.5 955.172 6219.5 956C6219.5 956.828 6220.17 957.5 6221 957.5ZM6221 959.5C6222.93 959.5 6224.5 957.933 6224.5 956C6224.5 954.067 6222.93 952.5 6221 952.5C6219.07 952.5 6217.5 954.067 6217.5 956C6217.5 957.933 6219.07 959.5 6221 959.5Z" fill="#535353" id="n814"/>
<path fill-rule="evenodd" clip-rule="evenodd" d="M6221 1014C6226.52 1014 6231 1009.52 6231 1004C6231 998.477 6226.52 994 6221 994C6215.48 994 6211 998.477 6211 1004C6211 1009.52 6215.48 1014 6221 1014ZM6220.4 997H6221.6V999H6224V1002.4L6221 1000.6L6218 1002.4V999H6220.4V997ZM6226 1004.84L6221 1002L6216 1004.84L6218.06 1009.45H6223.94L6226 1004.84Z" fill="#535353" id="n815"/>
</g>
</g>
</svg>
