<?xml version='1.0' encoding='utf-8'?>
<svg xmlns="http://www.w3.org/2000/svg" xmlns:xlink="http://www.w3.org/1999/xlink" width="320.0" height="312.0" viewBox="0 0 320.0 312.0" fill="none">
  <defs><clipPath id="clip__asset"><rect x="0" y="0" width="320.0" height="312.0"/></clipPath><filter id="filter27_d_1702_11540" x="7313" y="231" width="324" height="316" filterUnits="userSpaceOnUse" color-interpolation-filters="sRGB">
<feFlood flood-opacity="0" result="BackgroundImageFix" id="n1790"/>
<feColorMatrix in="SourceAlpha" type="matrix" values="0 0 0 0 0 0 0 0 0 0 0 0 0 0 0 0 0 0 127 0" result="hardAlpha" id="n1791"/>
<feOffset dy="1" id="n1792"/>
<feGaussianBlur stdDeviation="1" id="n1793"/>
<feColorMatrix type="matrix" values="0 0 0 0 0 0 0 0 0 0 0 0 0 0 0 0 0 0 0.23 0" id="n1794"/>
<feBlend mode="normal" in2="BackgroundImageFix" result="effect1_dropShadow_1702_11540" id="n1795"/>
<feBlend mode="normal" in="SourceGraphic" in2="effect1_dropShadow_1702_11540" result="shape" id="n1796"/>
</filter>
</defs>
  <g clip-path="url(#clip__asset)" transform="translate(-7315.0 -232.0)"><g filter="url(#filter27_d_1702_11540)" id="n1014">
<path d="M7315 251.2C7315 244.479 7315 241.119 7316.31 238.552C7317.46 236.294 7319.29 234.458 7321.55 233.308C7324.12 232 7327.48 232 7334.2 232H7615.8C7622.52 232 7625.88 232 7628.45 233.308C7630.71 234.458 7632.54 236.294 7633.69 238.552C7635 241.119 7635 244.479 7635 251.2V524.8C7635 531.521 7635 534.881 7633.69 537.448C7632.54 539.706 7630.71 541.542 7628.45 542.692C7625.88 544 7622.52 544 7615.8 544H7334.2C7327.48 544 7324.12 544 7321.55 542.692C7319.29 541.542 7317.46 539.706 7316.31 537.448C7315 534.881 7315 531.521 7315 524.8V251.2Z" fill="#FCFCFC" id="n1015"/>
<path d="M7342 255H7344V259H7348V261H7344V265H7342V261H7338V259H7342V255Z" fill="#535353" id="n1016"/>
<path fill-rule="evenodd" clip-rule="evenodd" d="M7332.61 258.516L7341.52 249.612C7342.33 248.796 7343.67 248.796 7344.48 249.612L7353.39 258.516C7354.2 259.332 7354.2 260.668 7353.39 261.484L7344.48 270.388C7343.67 271.204 7342.33 271.204 7341.52 270.388L7332.61 261.484C7331.8 260.668 7331.8 259.332 7332.61 258.516ZM7343 251L7334 260L7343 269L7352 260L7343 251Z" fill="#535353" id="n1017"/>
<path d="M7367.54 254.576C7368.99 254.576 7370.06 254.864 7370.74 255.44C7371.43 256.005 7371.77 256.827 7371.77 257.904C7371.77 258.395 7371.69 258.859 7371.53 259.296C7371.37 259.723 7371.11 260.101 7370.76 260.432C7370.41 260.763 7369.94 261.024 7369.37 261.216C7368.79 261.397 7368.09 261.488 7367.27 261.488H7365.85V266H7364.57V254.576H7367.54ZM7367.42 255.68H7365.85V260.384H7367.13C7367.86 260.384 7368.48 260.304 7368.97 260.144C7369.46 259.984 7369.83 259.728 7370.07 259.376C7370.32 259.013 7370.44 258.539 7370.44 257.952C7370.44 257.184 7370.19 256.613 7369.7 256.24C7369.22 255.867 7368.46 255.68 7367.42 255.68ZM7377.14 257.296C7378.16 257.296 7378.92 257.531 7379.41 258C7379.9 258.459 7380.15 259.189 7380.15 260.192V266H7379.22L7378.98 264.72H7378.93C7378.7 265.029 7378.44 265.296 7378.18 265.52C7377.92 265.733 7377.62 265.893 7377.27 266C7376.92 266.107 7376.51 266.16 7376.02 266.16C7375.5 266.16 7375.03 266.069 7374.63 265.888C7374.22 265.707 7373.9 265.429 7373.67 265.056C7373.44 264.683 7373.33 264.219 7373.33 263.664C7373.33 262.811 7373.67 262.155 7374.34 261.696C7375.02 261.237 7376.05 260.987 7377.43 260.944L7378.91 260.88V260.352C7378.91 259.595 7378.75 259.067 7378.43 258.768C7378.12 258.469 7377.67 258.32 7377.07 258.32C7376.63 258.32 7376.2 258.384 7375.79 258.512C7375.4 258.64 7375.02 258.795 7374.64 258.976L7374.26 258.016C7374.64 257.813 7375.08 257.643 7375.59 257.504C7376.09 257.365 7376.6 257.296 7377.14 257.296ZM7377.59 261.824C7376.52 261.867 7375.76 262.043 7375.31 262.352C7374.87 262.661 7374.64 263.104 7374.64 263.68C7374.64 264.171 7374.79 264.539 7375.09 264.784C7375.4 265.019 7375.8 265.136 7376.29 265.136C7377.07 265.136 7377.7 264.923 7378.18 264.496C7378.66 264.059 7378.9 263.413 7378.9 262.56V261.776L7377.59 261.824ZM7385.87 257.28C7386.47 257.28 7386.99 257.397 7387.44 257.632C7387.89 257.856 7388.26 258.187 7388.57 258.624H7388.65L7388.83 257.44H7389.82V266.176C7389.82 266.965 7389.69 267.632 7389.42 268.176C7389.15 268.731 7388.74 269.147 7388.17 269.424C7387.62 269.701 7386.9 269.84 7386.03 269.84C7385.41 269.84 7384.85 269.792 7384.33 269.696C7383.82 269.6 7383.36 269.467 7382.96 269.296V268.112C7383.23 268.251 7383.54 268.368 7383.87 268.464C7384.2 268.571 7384.55 268.651 7384.93 268.704C7385.31 268.757 7385.7 268.784 7386.11 268.784C7386.9 268.784 7387.51 268.56 7387.93 268.112C7388.36 267.664 7388.57 267.051 7388.57 266.272V265.888C7388.57 265.739 7388.58 265.547 7388.59 265.312C7388.6 265.067 7388.61 264.88 7388.62 264.752H7388.57C7388.29 265.221 7387.91 265.573 7387.45 265.808C7387.01 266.043 7386.47 266.16 7385.85 266.16C7384.74 266.16 7383.88 265.776 7383.26 265.008C7382.64 264.24 7382.33 263.157 7382.33 261.76C7382.33 260.843 7382.47 260.048 7382.75 259.376C7383.03 258.704 7383.43 258.187 7383.95 257.824C7384.48 257.461 7385.12 257.28 7385.87 257.28ZM7386.03 258.352C7385.52 258.352 7385.08 258.485 7384.72 258.752C7384.37 259.019 7384.09 259.408 7383.9 259.92C7383.72 260.421 7383.63 261.04 7383.63 261.776C7383.63 262.853 7383.83 263.68 7384.24 264.256C7384.65 264.832 7385.25 265.12 7386.03 265.12C7386.5 265.12 7386.89 265.056 7387.21 264.928C7387.53 264.8 7387.79 264.608 7388 264.352C7388.21 264.096 7388.36 263.776 7388.45 263.392C7388.54 263.008 7388.59 262.565 7388.59 262.064V261.664C7388.59 260.896 7388.5 260.272 7388.32 259.792C7388.15 259.301 7387.87 258.939 7387.5 258.704C7387.13 258.469 7386.64 258.352 7386.03 258.352ZM7395.86 257.28C7396.6 257.28 7397.22 257.445 7397.73 257.776C7398.25 258.096 7398.65 258.549 7398.92 259.136C7399.19 259.712 7399.33 260.389 7399.33 261.168V261.952H7393.4C7393.42 262.965 7393.67 263.744 7394.15 264.288C7394.64 264.821 7395.33 265.088 7396.23 265.088C7396.76 265.088 7397.24 265.04 7397.65 264.944C7398.07 264.837 7398.5 264.688 7398.95 264.496V265.6C7398.52 265.792 7398.09 265.931 7397.67 266.016C7397.24 266.112 7396.74 266.16 7396.16 266.16C7395.34 266.16 7394.62 265.995 7394 265.664C7393.4 265.323 7392.93 264.827 7392.6 264.176C7392.26 263.515 7392.1 262.72 7392.1 261.792C7392.1 260.875 7392.25 260.08 7392.55 259.408C7392.86 258.736 7393.29 258.213 7393.86 257.84C7394.42 257.467 7395.09 257.28 7395.86 257.28ZM7395.84 258.32C7395.14 258.32 7394.58 258.549 7394.16 259.008C7393.75 259.467 7393.5 260.112 7393.43 260.944H7398.02C7398.02 260.421 7397.94 259.968 7397.78 259.584C7397.63 259.189 7397.4 258.88 7397.08 258.656C7396.76 258.432 7396.34 258.32 7395.84 258.32ZM7413.05 266L7411.62 262.336H7407.03L7405.62 266H7404.31L7408.78 254.528H7409.94L7414.38 266H7413.05ZM7409.88 257.536C7409.85 257.451 7409.8 257.301 7409.72 257.088C7409.65 256.875 7409.58 256.656 7409.51 256.432C7409.45 256.197 7409.39 256.011 7409.34 255.872C7409.28 256.085 7409.22 256.299 7409.16 256.512C7409.11 256.715 7409.05 256.907 7408.98 257.088C7408.93 257.259 7408.88 257.413 7408.84 257.552L7407.46 261.2H7411.22L7409.88 257.536Z" fill="#535353" id="n1018"/>
<path d="M7328.6 284.5H7621.4C7623.09 284.5 7624.32 284.5 7625.3 284.58C7626.27 284.659 7626.94 284.815 7627.5 285.1C7628.53 285.627 7629.37 286.468 7629.9 287.503C7630.19 288.062 7630.34 288.731 7630.42 289.7C7630.5 290.676 7630.5 291.912 7630.5 293.6V322.4C7630.5 324.088 7630.5 325.324 7630.42 326.3C7630.34 327.269 7630.19 327.938 7629.9 328.497C7629.37 329.532 7628.53 330.373 7627.5 330.9C7626.94 331.185 7626.27 331.341 7625.3 331.42C7624.32 331.5 7623.09 331.5 7621.4 331.5H7328.6C7326.91 331.5 7325.68 331.5 7324.7 331.42C7323.73 331.341 7323.06 331.185 7322.5 330.9C7321.47 330.373 7320.63 329.532 7320.1 328.497C7319.81 327.938 7319.66 327.269 7319.58 326.3C7319.5 325.324 7319.5 324.088 7319.5 322.4V293.6C7319.5 291.912 7319.5 290.676 7319.58 289.7C7319.66 288.731 7319.81 288.062 7320.1 287.503C7320.63 286.468 7321.47 285.627 7322.5 285.1C7323.06 284.815 7323.73 284.659 7324.7 284.58C7325.68 284.5 7326.91 284.5 7328.6 284.5Z" fill="#E4EEFD" id="n1019"/>
<path d="M7328.6 284.5H7621.4C7623.09 284.5 7624.32 284.5 7625.3 284.58C7626.27 284.659 7626.94 284.815 7627.5 285.1C7628.53 285.627 7629.37 286.468 7629.9 287.503C7630.19 288.062 7630.34 288.731 7630.42 289.7C7630.5 290.676 7630.5 291.912 7630.5 293.6V322.4C7630.5 324.088 7630.5 325.324 7630.42 326.3C7630.34 327.269 7630.19 327.938 7629.9 328.497C7629.37 329.532 7628.53 330.373 7627.5 330.9C7626.94 331.185 7626.27 331.341 7625.3 331.42C7624.32 331.5 7623.09 331.5 7621.4 331.5H7328.6C7326.91 331.5 7325.68 331.5 7324.7 331.42C7323.73 331.341 7323.06 331.185 7322.5 330.9C7321.47 330.373 7320.63 329.532 7320.1 328.497C7319.81 327.938 7319.66 327.269 7319.58 326.3C7319.5 325.324 7319.5 324.088 7319.5 322.4V293.6C7319.5 291.912 7319.5 290.676 7319.58 289.7C7319.66 288.731 7319.81 288.062 7320.1 287.503C7320.63 286.468 7321.47 285.627 7322.5 285.1C7323.06 284.815 7323.73 284.659 7324.7 284.58C7325.68 284.5 7326.91 284.5 7328.6 284.5Z" stroke="#B2CFF9" id="n1020"/>
<path d="M7342 303H7344V307H7348V309H7344V313H7342V309H7338V307H7342V303Z" fill="#2D548B" id="n1021"/>
<path fill-rule="evenodd" clip-rule="evenodd" d="M7332.61 306.516L7341.52 297.612C7342.33 296.796 7343.67 296.796 7344.48 297.612L7353.39 306.516C7354.2 307.332 7354.2 308.668 7353.39 309.484L7344.48 318.388C7343.67 319.204 7342.33 319.204 7341.52 318.388L7332.61 309.484C7331.8 308.668 7331.8 307.332 7332.61 306.516ZM7343 299L7334 308L7343 317L7352 308L7343 299Z" fill="#2D548B" id="n1022"/>
<path d="M7368.02 302.576C7369.51 302.576 7370.58 302.891 7371.26 303.52C7371.94 304.149 7372.28 305.019 7372.28 306.128C7372.28 306.619 7372.21 307.093 7372.06 307.552C7371.91 308 7371.66 308.4 7371.3 308.752C7370.95 309.104 7370.49 309.381 7369.93 309.584C7369.36 309.787 7368.66 309.888 7367.83 309.888H7366.76V314H7364.46V302.576H7368.02ZM7367.9 304.48H7366.76V308H7367.59C7368.08 308 7368.5 307.941 7368.84 307.824C7369.19 307.696 7369.46 307.499 7369.66 307.232C7369.85 306.965 7369.94 306.619 7369.94 306.192C7369.94 305.616 7369.78 305.189 7369.45 304.912C7369.12 304.624 7368.6 304.48 7367.9 304.48ZM7377.8 305.104C7378.96 305.104 7379.85 305.355 7380.46 305.856C7381.06 306.357 7381.37 307.131 7381.37 308.176V314H7379.78L7379.34 312.816H7379.27C7379.03 313.125 7378.77 313.381 7378.5 313.584C7378.25 313.787 7377.95 313.931 7377.61 314.016C7377.28 314.112 7376.87 314.16 7376.38 314.16C7375.86 314.16 7375.4 314.064 7374.98 313.872C7374.58 313.669 7374.26 313.365 7374.02 312.96C7373.79 312.555 7373.67 312.043 7373.67 311.424C7373.67 310.496 7374 309.813 7374.65 309.376C7375.31 308.928 7376.3 308.683 7377.61 308.64L7379.11 308.592V308.192C7379.11 307.701 7378.99 307.349 7378.74 307.136C7378.5 306.912 7378.16 306.8 7377.72 306.8C7377.28 306.8 7376.86 306.864 7376.46 306.992C7376.05 307.109 7375.65 307.259 7375.26 307.44L7374.5 305.888C7374.96 305.643 7375.47 305.451 7376.04 305.312C7376.61 305.173 7377.19 305.104 7377.8 305.104ZM7378.15 309.968C7377.35 309.989 7376.79 310.133 7376.47 310.4C7376.16 310.656 7376.01 311.003 7376.01 311.44C7376.01 311.813 7376.12 312.08 7376.34 312.24C7376.57 312.4 7376.86 312.48 7377.21 312.48C7377.75 312.48 7378.21 312.325 7378.57 312.016C7378.93 311.696 7379.11 311.243 7379.11 310.656V309.936L7378.15 309.968ZM7386.69 305.12C7387.23 305.12 7387.72 305.227 7388.15 305.44C7388.57 305.653 7388.94 305.973 7389.23 306.4H7389.31L7389.51 305.28H7391.41V314.032C7391.41 314.864 7391.25 315.557 7390.93 316.112C7390.61 316.677 7390.13 317.104 7389.49 317.392C7388.85 317.691 7388.06 317.84 7387.11 317.84C7386.49 317.84 7385.91 317.803 7385.38 317.728C7384.86 317.653 7384.35 317.52 7383.86 317.328V315.488C7384.21 315.637 7384.57 315.76 7384.93 315.856C7385.29 315.963 7385.67 316.037 7386.05 316.08C7386.44 316.133 7386.84 316.16 7387.23 316.16C7387.87 316.16 7388.35 315.989 7388.66 315.648C7388.98 315.307 7389.14 314.8 7389.14 314.128V313.936C7389.14 313.755 7389.14 313.568 7389.15 313.376C7389.18 313.173 7389.19 313.003 7389.2 312.864H7389.14C7388.84 313.323 7388.48 313.653 7388.07 313.856C7387.65 314.059 7387.18 314.16 7386.64 314.16C7385.6 314.16 7384.78 313.765 7384.19 312.976C7383.61 312.176 7383.31 311.072 7383.31 309.664C7383.31 308.704 7383.45 307.888 7383.71 307.216C7383.98 306.533 7384.37 306.016 7384.88 305.664C7385.39 305.301 7386 305.12 7386.69 305.12ZM7387.38 306.976C7386.99 306.976 7386.67 307.077 7386.4 307.28C7386.15 307.483 7385.95 307.787 7385.83 308.192C7385.7 308.587 7385.63 309.083 7385.63 309.68C7385.63 310.576 7385.78 311.248 7386.07 311.696C7386.36 312.144 7386.81 312.368 7387.41 312.368C7387.74 312.368 7388.02 312.325 7388.24 312.24C7388.48 312.155 7388.67 312.016 7388.82 311.824C7388.98 311.632 7389.1 311.387 7389.17 311.088C7389.24 310.779 7389.28 310.405 7389.28 309.968V309.664C7389.28 309.024 7389.21 308.507 7389.07 308.112C7388.95 307.717 7388.74 307.429 7388.47 307.248C7388.19 307.067 7387.83 306.976 7387.38 306.976ZM7397.5 305.12C7398.3 305.12 7398.99 305.275 7399.57 305.584C7400.14 305.893 7400.59 306.341 7400.9 306.928C7401.22 307.515 7401.38 308.229 7401.38 309.072V310.192H7395.71C7395.73 310.896 7395.94 311.451 7396.32 311.856C7396.71 312.251 7397.26 312.448 7397.95 312.448C7398.52 312.448 7399.02 312.395 7399.47 312.288C7399.93 312.171 7400.41 312 7400.9 311.776V313.536C7400.47 313.749 7400.02 313.904 7399.55 314C7399.08 314.107 7398.52 314.16 7397.86 314.16C7396.98 314.16 7396.21 314 7395.54 313.68C7394.87 313.349 7394.35 312.853 7393.97 312.192C7393.59 311.531 7393.41 310.704 7393.41 309.712C7393.41 308.688 7393.58 307.84 7393.92 307.168C7394.26 306.496 7394.74 305.989 7395.34 305.648C7395.96 305.296 7396.68 305.12 7397.5 305.12ZM7397.52 306.752C7397.03 306.752 7396.62 306.912 7396.3 307.232C7395.99 307.541 7395.81 308.021 7395.76 308.672H7399.22C7399.22 308.299 7399.15 307.968 7399.02 307.68C7398.91 307.392 7398.72 307.168 7398.46 307.008C7398.22 306.837 7397.9 306.752 7397.52 306.752ZM7411.21 302.576C7412.21 302.576 7413.06 302.672 7413.74 302.864C7414.42 303.045 7414.93 303.349 7415.27 303.776C7415.63 304.192 7415.8 304.757 7415.8 305.472C7415.8 305.899 7415.73 306.288 7415.58 306.64C7415.44 306.992 7415.24 307.28 7414.97 307.504C7414.7 307.728 7414.38 307.872 7413.99 307.936V308.016C7414.39 308.091 7414.74 308.224 7415.05 308.416C7415.37 308.608 7415.62 308.885 7415.8 309.248C7415.99 309.611 7416.09 310.091 7416.09 310.688C7416.09 311.381 7415.93 311.979 7415.59 312.48C7415.26 312.971 7414.78 313.349 7414.15 313.616C7413.54 313.872 7412.79 314 7411.93 314H7407.69V302.576H7411.21ZM7411.48 307.136C7412.22 307.136 7412.73 307.019 7413 306.784C7413.29 306.549 7413.43 306.208 7413.43 305.76C7413.43 305.301 7413.26 304.976 7412.92 304.784C7412.59 304.581 7412.06 304.48 7411.34 304.48H7409.99V307.136H7411.48ZM7409.99 308.976V312.096H7411.66C7412.42 312.096 7412.94 311.947 7413.24 311.648C7413.54 311.349 7413.69 310.955 7413.69 310.464C7413.69 310.165 7413.63 309.904 7413.5 309.68C7413.37 309.456 7413.15 309.285 7412.84 309.168C7412.53 309.04 7412.11 308.976 7411.58 308.976H7409.99Z" fill="#1D3C67" id="n1023"/>
<path d="M7342 351H7344V355H7348V357H7344V361H7342V357H7338V355H7342V351Z" fill="#535353" id="n1024"/>
<path fill-rule="evenodd" clip-rule="evenodd" d="M7332.61 354.516L7341.52 345.612C7342.33 344.796 7343.67 344.796 7344.48 345.612L7353.39 354.516C7354.2 355.332 7354.2 356.668 7353.39 357.484L7344.48 366.388C7343.67 367.204 7342.33 367.204 7341.52 366.388L7332.61 357.484C7331.8 356.668 7331.8 355.332 7332.61 354.516ZM7343 347L7334 356L7343 365L7352 356L7343 347Z" fill="#535353" id="n1025"/>
<path d="M7367.54 350.576C7368.99 350.576 7370.06 350.864 7370.74 351.44C7371.43 352.005 7371.77 352.827 7371.77 353.904C7371.77 354.395 7371.69 354.859 7371.53 355.296C7371.37 355.723 7371.11 356.101 7370.76 356.432C7370.41 356.763 7369.94 357.024 7369.37 357.216C7368.79 357.397 7368.09 357.488 7367.27 357.488H7365.85V362H7364.57V350.576H7367.54ZM7367.42 351.68H7365.85V356.384H7367.13C7367.86 356.384 7368.48 356.304 7368.97 356.144C7369.46 355.984 7369.83 355.728 7370.07 355.376C7370.32 355.013 7370.44 354.539 7370.44 353.952C7370.44 353.184 7370.19 352.613 7369.7 352.24C7369.22 351.867 7368.46 351.68 7367.42 351.68ZM7377.14 353.296C7378.16 353.296 7378.92 353.531 7379.41 354C7379.9 354.459 7380.15 355.189 7380.15 356.192V362H7379.22L7378.98 360.72H7378.93C7378.7 361.029 7378.44 361.296 7378.18 361.52C7377.92 361.733 7377.62 361.893 7377.27 362C7376.92 362.107 7376.51 362.16 7376.02 362.16C7375.5 362.16 7375.03 362.069 7374.63 361.888C7374.22 361.707 7373.9 361.429 7373.67 361.056C7373.44 360.683 7373.33 360.219 7373.33 359.664C7373.33 358.811 7373.67 358.155 7374.34 357.696C7375.02 357.237 7376.05 356.987 7377.43 356.944L7378.91 356.88V356.352C7378.91 355.595 7378.75 355.067 7378.43 354.768C7378.12 354.469 7377.67 354.32 7377.07 354.32C7376.63 354.32 7376.2 354.384 7375.79 354.512C7375.4 354.64 7375.02 354.795 7374.64 354.976L7374.26 354.016C7374.64 353.813 7375.08 353.643 7375.59 353.504C7376.09 353.365 7376.6 353.296 7377.14 353.296ZM7377.59 357.824C7376.52 357.867 7375.76 358.043 7375.31 358.352C7374.87 358.661 7374.64 359.104 7374.64 359.68C7374.64 360.171 7374.79 360.539 7375.09 360.784C7375.4 361.019 7375.8 361.136 7376.29 361.136C7377.07 361.136 7377.7 360.923 7378.18 360.496C7378.66 360.059 7378.9 359.413 7378.9 358.56V357.776L7377.59 357.824ZM7385.87 353.28C7386.47 353.28 7386.99 353.397 7387.44 353.632C7387.89 353.856 7388.26 354.187 7388.57 354.624H7388.65L7388.83 353.44H7389.82V362.176C7389.82 362.965 7389.69 363.632 7389.42 364.176C7389.15 364.731 7388.74 365.147 7388.17 365.424C7387.62 365.701 7386.9 365.84 7386.03 365.84C7385.41 365.84 7384.85 365.792 7384.33 365.696C7383.82 365.6 7383.36 365.467 7382.96 365.296V364.112C7383.23 364.251 7383.54 364.368 7383.87 364.464C7384.2 364.571 7384.55 364.651 7384.93 364.704C7385.31 364.757 7385.7 364.784 7386.11 364.784C7386.9 364.784 7387.51 364.56 7387.93 364.112C7388.36 363.664 7388.57 363.051 7388.57 362.272V361.888C7388.57 361.739 7388.58 361.547 7388.59 361.312C7388.6 361.067 7388.61 360.88 7388.62 360.752H7388.57C7388.29 361.221 7387.91 361.573 7387.45 361.808C7387.01 362.043 7386.47 362.16 7385.85 362.16C7384.74 362.16 7383.88 361.776 7383.26 361.008C7382.64 360.24 7382.33 359.157 7382.33 357.76C7382.33 356.843 7382.47 356.048 7382.75 355.376C7383.03 354.704 7383.43 354.187 7383.95 353.824C7384.48 353.461 7385.12 353.28 7385.87 353.28ZM7386.03 354.352C7385.52 354.352 7385.08 354.485 7384.72 354.752C7384.37 355.019 7384.09 355.408 7383.9 355.92C7383.72 356.421 7383.63 357.04 7383.63 357.776C7383.63 358.853 7383.83 359.68 7384.24 360.256C7384.65 360.832 7385.25 361.12 7386.03 361.12C7386.5 361.12 7386.89 361.056 7387.21 360.928C7387.53 360.8 7387.79 360.608 7388 360.352C7388.21 360.096 7388.36 359.776 7388.45 359.392C7388.54 359.008 7388.59 358.565 7388.59 358.064V357.664C7388.59 356.896 7388.5 356.272 7388.32 355.792C7388.15 355.301 7387.87 354.939 7387.5 354.704C7387.13 354.469 7386.64 354.352 7386.03 354.352ZM7395.86 353.28C7396.6 353.28 7397.22 353.445 7397.73 353.776C7398.25 354.096 7398.65 354.549 7398.92 355.136C7399.19 355.712 7399.33 356.389 7399.33 357.168V357.952H7393.4C7393.42 358.965 7393.67 359.744 7394.15 360.288C7394.64 360.821 7395.33 361.088 7396.23 361.088C7396.76 361.088 7397.24 361.04 7397.65 360.944C7398.07 360.837 7398.5 360.688 7398.95 360.496V361.6C7398.52 361.792 7398.09 361.931 7397.67 362.016C7397.24 362.112 7396.74 362.16 7396.16 362.16C7395.34 362.16 7394.62 361.995 7394 361.664C7393.4 361.323 7392.93 360.827 7392.6 360.176C7392.26 359.515 7392.1 358.72 7392.1 357.792C7392.1 356.875 7392.25 356.08 7392.55 355.408C7392.86 354.736 7393.29 354.213 7393.86 353.84C7394.42 353.467 7395.09 353.28 7395.86 353.28ZM7395.84 354.32C7395.14 354.32 7394.58 354.549 7394.16 355.008C7393.75 355.467 7393.5 356.112 7393.43 356.944H7398.02C7398.02 356.421 7397.94 355.968 7397.78 355.584C7397.63 355.189 7397.4 354.88 7397.08 354.656C7396.76 354.432 7396.34 354.32 7395.84 354.32ZM7410.76 351.552C7410.13 351.552 7409.56 351.664 7409.05 351.888C7408.54 352.101 7408.1 352.416 7407.74 352.832C7407.38 353.237 7407.11 353.733 7406.92 354.32C7406.74 354.907 7406.65 355.563 7406.65 356.288C7406.65 357.248 7406.8 358.085 7407.1 358.8C7407.41 359.515 7407.86 360.064 7408.46 360.448C7409.05 360.832 7409.81 361.024 7410.71 361.024C7411.22 361.024 7411.7 360.981 7412.15 360.896C7412.61 360.811 7413.05 360.704 7413.48 360.576V361.696C7413.06 361.845 7412.63 361.957 7412.17 362.032C7411.71 362.117 7411.17 362.16 7410.54 362.16C7409.37 362.16 7408.4 361.92 7407.62 361.44C7406.85 360.96 7406.26 360.277 7405.86 359.392C7405.48 358.507 7405.29 357.467 7405.29 356.272C7405.29 355.408 7405.41 354.619 7405.64 353.904C7405.89 353.189 7406.24 352.571 7406.71 352.048C7407.18 351.525 7407.76 351.125 7408.44 350.848C7409.12 350.56 7409.9 350.416 7410.78 350.416C7411.35 350.416 7411.91 350.475 7412.44 350.592C7412.97 350.699 7413.45 350.859 7413.88 351.072L7413.37 352.176C7413.01 351.995 7412.61 351.845 7412.17 351.728C7411.73 351.611 7411.26 351.552 7410.76 351.552Z" fill="#535353" id="n1026"/>
<path d="M7342 399H7344V403H7348V405H7344V409H7342V405H7338V403H7342V399Z" fill="#535353" id="n1027"/>
<path fill-rule="evenodd" clip-rule="evenodd" d="M7332.61 402.516L7341.52 393.612C7342.33 392.796 7343.67 392.796 7344.48 393.612L7353.39 402.516C7354.2 403.332 7354.2 404.668 7353.39 405.484L7344.48 414.388C7343.67 415.204 7342.33 415.204 7341.52 414.388L7332.61 405.484C7331.8 404.668 7331.8 403.332 7332.61 402.516ZM7343 395L7334 404L7343 413L7352 404L7343 395Z" fill="#535353" id="n1028"/>
<path d="M7367.54 398.576C7368.99 398.576 7370.06 398.864 7370.74 399.44C7371.43 400.005 7371.77 400.827 7371.77 401.904C7371.77 402.395 7371.69 402.859 7371.53 403.296C7371.37 403.723 7371.11 404.101 7370.76 404.432C7370.41 404.763 7369.94 405.024 7369.37 405.216C7368.79 405.397 7368.09 405.488 7367.27 405.488H7365.85V410H7364.57V398.576H7367.54ZM7367.42 399.68H7365.85V404.384H7367.13C7367.86 404.384 7368.48 404.304 7368.97 404.144C7369.46 403.984 7369.83 403.728 7370.07 403.376C7370.32 403.013 7370.44 402.539 7370.44 401.952C7370.44 401.184 7370.19 400.613 7369.7 400.24C7369.22 399.867 7368.46 399.68 7367.42 399.68ZM7377.14 401.296C7378.16 401.296 7378.92 401.531 7379.41 402C7379.9 402.459 7380.15 403.189 7380.15 404.192V410H7379.22L7378.98 408.72H7378.93C7378.7 409.029 7378.44 409.296 7378.18 409.52C7377.92 409.733 7377.62 409.893 7377.27 410C7376.92 410.107 7376.51 410.16 7376.02 410.16C7375.5 410.16 7375.03 410.069 7374.63 409.888C7374.22 409.707 7373.9 409.429 7373.67 409.056C7373.44 408.683 7373.33 408.219 7373.33 407.664C7373.33 406.811 7373.67 406.155 7374.34 405.696C7375.02 405.237 7376.05 404.987 7377.43 404.944L7378.91 404.88V404.352C7378.91 403.595 7378.75 403.067 7378.43 402.768C7378.12 402.469 7377.67 402.32 7377.07 402.32C7376.63 402.32 7376.2 402.384 7375.79 402.512C7375.4 402.64 7375.02 402.795 7374.64 402.976L7374.26 402.016C7374.64 401.813 7375.08 401.643 7375.59 401.504C7376.09 401.365 7376.6 401.296 7377.14 401.296ZM7377.59 405.824C7376.52 405.867 7375.76 406.043 7375.31 406.352C7374.87 406.661 7374.64 407.104 7374.64 407.68C7374.64 408.171 7374.79 408.539 7375.09 408.784C7375.4 409.019 7375.8 409.136 7376.29 409.136C7377.07 409.136 7377.7 408.923 7378.18 408.496C7378.66 408.059 7378.9 407.413 7378.9 406.56V405.776L7377.59 405.824ZM7385.87 401.28C7386.47 401.28 7386.99 401.397 7387.44 401.632C7387.89 401.856 7388.26 402.187 7388.57 402.624H7388.65L7388.83 401.44H7389.82V410.176C7389.82 410.965 7389.69 411.632 7389.42 412.176C7389.15 412.731 7388.74 413.147 7388.17 413.424C7387.62 413.701 7386.9 413.84 7386.03 413.84C7385.41 413.84 7384.85 413.792 7384.33 413.696C7383.82 413.6 7383.36 413.467 7382.96 413.296V412.112C7383.23 412.251 7383.54 412.368 7383.87 412.464C7384.2 412.571 7384.55 412.651 7384.93 412.704C7385.31 412.757 7385.7 412.784 7386.11 412.784C7386.9 412.784 7387.51 412.56 7387.93 412.112C7388.36 411.664 7388.57 411.051 7388.57 410.272V409.888C7388.57 409.739 7388.58 409.547 7388.59 409.312C7388.6 409.067 7388.61 408.88 7388.62 408.752H7388.57C7388.29 409.221 7387.91 409.573 7387.45 409.808C7387.01 410.043 7386.47 410.16 7385.85 410.16C7384.74 410.16 7383.88 409.776 7383.26 409.008C7382.64 408.24 7382.33 407.157 7382.33 405.76C7382.33 404.843 7382.47 404.048 7382.75 403.376C7383.03 402.704 7383.43 402.187 7383.95 401.824C7384.48 401.461 7385.12 401.28 7385.87 401.28ZM7386.03 402.352C7385.52 402.352 7385.08 402.485 7384.72 402.752C7384.37 403.019 7384.09 403.408 7383.9 403.92C7383.72 404.421 7383.63 405.04 7383.63 405.776C7383.63 406.853 7383.83 407.68 7384.24 408.256C7384.65 408.832 7385.25 409.12 7386.03 409.12C7386.5 409.12 7386.89 409.056 7387.21 408.928C7387.53 408.8 7387.79 408.608 7388 408.352C7388.21 408.096 7388.36 407.776 7388.45 407.392C7388.54 407.008 7388.59 406.565 7388.59 406.064V405.664C7388.59 404.896 7388.5 404.272 7388.32 403.792C7388.15 403.301 7387.87 402.939 7387.5 402.704C7387.13 402.469 7386.64 402.352 7386.03 402.352ZM7395.86 401.28C7396.6 401.28 7397.22 401.445 7397.73 401.776C7398.25 402.096 7398.65 402.549 7398.92 403.136C7399.19 403.712 7399.33 404.389 7399.33 405.168V405.952H7393.4C7393.42 406.965 7393.67 407.744 7394.15 408.288C7394.64 408.821 7395.33 409.088 7396.23 409.088C7396.76 409.088 7397.24 409.04 7397.65 408.944C7398.07 408.837 7398.5 408.688 7398.95 408.496V409.6C7398.52 409.792 7398.09 409.931 7397.67 410.016C7397.24 410.112 7396.74 410.16 7396.16 410.16C7395.34 410.16 7394.62 409.995 7394 409.664C7393.4 409.323 7392.93 408.827 7392.6 408.176C7392.26 407.515 7392.1 406.72 7392.1 405.792C7392.1 404.875 7392.25 404.08 7392.55 403.408C7392.86 402.736 7393.29 402.213 7393.86 401.84C7394.42 401.467 7395.09 401.28 7395.86 401.28ZM7395.84 402.32C7395.14 402.32 7394.58 402.549 7394.16 403.008C7393.75 403.467 7393.5 404.112 7393.43 404.944H7398.02C7398.02 404.421 7397.94 403.968 7397.78 403.584C7397.63 403.189 7397.4 402.88 7397.08 402.656C7396.76 402.432 7396.34 402.32 7395.84 402.32ZM7414.92 404.176C7414.92 405.456 7414.69 406.528 7414.22 407.392C7413.75 408.256 7413.07 408.907 7412.18 409.344C7411.3 409.781 7410.22 410 7408.95 410H7405.88V398.576H7409.29C7410.46 398.576 7411.46 398.789 7412.3 399.216C7413.14 399.643 7413.78 400.272 7414.23 401.104C7414.69 401.925 7414.92 402.949 7414.92 404.176ZM7413.56 404.224C7413.56 403.189 7413.39 402.341 7413.05 401.68C7412.71 401.008 7412.2 400.507 7411.53 400.176C7410.87 399.845 7410.06 399.68 7409.1 399.68H7407.16V408.896H7408.79C7410.38 408.896 7411.57 408.507 7412.36 407.728C7413.16 406.939 7413.56 405.771 7413.56 404.224Z" fill="#535353" id="n1029"/>
<path d="M7342 447H7344V451H7348V453H7344V457H7342V453H7338V451H7342V447Z" fill="#535353" id="n1030"/>
<path fill-rule="evenodd" clip-rule="evenodd" d="M7332.61 450.516L7341.52 441.612C7342.33 440.796 7343.67 440.796 7344.48 441.612L7353.39 450.516C7354.2 451.332 7354.2 452.668 7353.39 453.484L7344.48 462.388C7343.67 463.204 7342.33 463.204 7341.52 462.388L7332.61 453.484C7331.8 452.668 7331.8 451.332 7332.61 450.516ZM7343 443L7334 452L7343 461L7352 452L7343 443Z" fill="#535353" id="n1031"/>
<path d="M7367.54 446.576C7368.99 446.576 7370.06 446.864 7370.74 447.44C7371.43 448.005 7371.77 448.827 7371.77 449.904C7371.77 450.395 7371.69 450.859 7371.53 451.296C7371.37 451.723 7371.11 452.101 7370.76 452.432C7370.41 452.763 7369.94 453.024 7369.37 453.216C7368.79 453.397 7368.09 453.488 7367.27 453.488H7365.85V458H7364.57V446.576H7367.54ZM7367.42 447.68H7365.85V452.384H7367.13C7367.86 452.384 7368.48 452.304 7368.97 452.144C7369.46 451.984 7369.83 451.728 7370.07 451.376C7370.32 451.013 7370.44 450.539 7370.44 449.952C7370.44 449.184 7370.19 448.613 7369.7 448.24C7369.22 447.867 7368.46 447.68 7367.42 447.68ZM7377.14 449.296C7378.16 449.296 7378.92 449.531 7379.41 450C7379.9 450.459 7380.15 451.189 7380.15 452.192V458H7379.22L7378.98 456.72H7378.93C7378.7 457.029 7378.44 457.296 7378.18 457.52C7377.92 457.733 7377.62 457.893 7377.27 458C7376.92 458.107 7376.51 458.16 7376.02 458.16C7375.5 458.16 7375.03 458.069 7374.63 457.888C7374.22 457.707 7373.9 457.429 7373.67 457.056C7373.44 456.683 7373.33 456.219 7373.33 455.664C7373.33 454.811 7373.67 454.155 7374.34 453.696C7375.02 453.237 7376.05 452.987 7377.43 452.944L7378.91 452.88V452.352C7378.91 451.595 7378.75 451.067 7378.43 450.768C7378.12 450.469 7377.67 450.32 7377.07 450.32C7376.63 450.32 7376.2 450.384 7375.79 450.512C7375.4 450.64 7375.02 450.795 7374.64 450.976L7374.26 450.016C7374.64 449.813 7375.08 449.643 7375.59 449.504C7376.09 449.365 7376.6 449.296 7377.14 449.296ZM7377.59 453.824C7376.52 453.867 7375.76 454.043 7375.31 454.352C7374.87 454.661 7374.64 455.104 7374.64 455.68C7374.64 456.171 7374.79 456.539 7375.09 456.784C7375.4 457.019 7375.8 457.136 7376.29 457.136C7377.07 457.136 7377.7 456.923 7378.18 456.496C7378.66 456.059 7378.9 455.413 7378.9 454.56V453.776L7377.59 453.824ZM7385.87 449.28C7386.47 449.28 7386.99 449.397 7387.44 449.632C7387.89 449.856 7388.26 450.187 7388.57 450.624H7388.65L7388.83 449.44H7389.82V458.176C7389.82 458.965 7389.69 459.632 7389.42 460.176C7389.15 460.731 7388.74 461.147 7388.17 461.424C7387.62 461.701 7386.9 461.84 7386.03 461.84C7385.41 461.84 7384.85 461.792 7384.33 461.696C7383.82 461.6 7383.36 461.467 7382.96 461.296V460.112C7383.23 460.251 7383.54 460.368 7383.87 460.464C7384.2 460.571 7384.55 460.651 7384.93 460.704C7385.31 460.757 7385.7 460.784 7386.11 460.784C7386.9 460.784 7387.51 460.56 7387.93 460.112C7388.36 459.664 7388.57 459.051 7388.57 458.272V457.888C7388.57 457.739 7388.58 457.547 7388.59 457.312C7388.6 457.067 7388.61 456.88 7388.62 456.752H7388.57C7388.29 457.221 7387.91 457.573 7387.45 457.808C7387.01 458.043 7386.47 458.16 7385.85 458.16C7384.74 458.16 7383.88 457.776 7383.26 457.008C7382.64 456.24 7382.33 455.157 7382.33 453.76C7382.33 452.843 7382.47 452.048 7382.75 451.376C7383.03 450.704 7383.43 450.187 7383.95 449.824C7384.48 449.461 7385.12 449.28 7385.87 449.28ZM7386.03 450.352C7385.52 450.352 7385.08 450.485 7384.72 450.752C7384.37 451.019 7384.09 451.408 7383.9 451.92C7383.72 452.421 7383.63 453.04 7383.63 453.776C7383.63 454.853 7383.83 455.68 7384.24 456.256C7384.65 456.832 7385.25 457.12 7386.03 457.12C7386.5 457.12 7386.89 457.056 7387.21 456.928C7387.53 456.8 7387.79 456.608 7388 456.352C7388.21 456.096 7388.36 455.776 7388.45 455.392C7388.54 455.008 7388.59 454.565 7388.59 454.064V453.664C7388.59 452.896 7388.5 452.272 7388.32 451.792C7388.15 451.301 7387.87 450.939 7387.5 450.704C7387.13 450.469 7386.64 450.352 7386.03 450.352ZM7395.86 449.28C7396.6 449.28 7397.22 449.445 7397.73 449.776C7398.25 450.096 7398.65 450.549 7398.92 451.136C7399.19 451.712 7399.33 452.389 7399.33 453.168V453.952H7393.4C7393.42 454.965 7393.67 455.744 7394.15 456.288C7394.64 456.821 7395.33 457.088 7396.23 457.088C7396.76 457.088 7397.24 457.04 7397.65 456.944C7398.07 456.837 7398.5 456.688 7398.95 456.496V457.6C7398.52 457.792 7398.09 457.931 7397.67 458.016C7397.24 458.112 7396.74 458.16 7396.16 458.16C7395.34 458.16 7394.62 457.995 7394 457.664C7393.4 457.323 7392.93 456.827 7392.6 456.176C7392.26 455.515 7392.1 454.72 7392.1 453.792C7392.1 452.875 7392.25 452.08 7392.55 451.408C7392.86 450.736 7393.29 450.213 7393.86 449.84C7394.42 449.467 7395.09 449.28 7395.86 449.28ZM7395.84 450.32C7395.14 450.32 7394.58 450.549 7394.16 451.008C7393.75 451.467 7393.5 452.112 7393.43 452.944H7398.02C7398.02 452.421 7397.94 451.968 7397.78 451.584C7397.63 451.189 7397.4 450.88 7397.08 450.656C7396.76 450.432 7396.34 450.32 7395.84 450.32ZM7412.23 458H7405.88V446.576H7412.23V447.712H7407.16V451.456H7411.93V452.576H7407.16V456.864H7412.23V458Z" fill="#535353" id="n1032"/>
<path d="M7315 480.5H7635V479.5H7315V480.5Z" fill="#DDDDDD" id="n1033"/>
<path d="M7345 500.995V498.997H7346.98V500.995H7345Z" fill="#535353" id="n1034"/>
<path d="M7345 504.992V502.993H7346.98V504.992H7345Z" fill="#535353" id="n1035"/>
<path d="M7345 496.998V495H7346.98V496.998H7345Z" fill="#535353" id="n1036"/>
<path d="M7348.96 500.995V498.997H7355.99L7355.43 500.126L7355 500.995H7348.96Z" fill="#535353" id="n1037"/>
<path d="M7348.96 504.992V502.993H7353.99L7353 504.992H7348.96Z" fill="#535353" id="n1038"/>
<path d="M7348.96 496.998V495H7362.82V496.998H7348.96Z" fill="#535353" id="n1039"/>
<path fill-rule="evenodd" clip-rule="evenodd" d="M7364.9 510.719L7359.29 499.491C7358.96 498.836 7358.04 498.836 7357.71 499.491L7352.1 510.719C7351.8 511.315 7352.23 512 7352.89 512H7364.11C7364.77 512 7365.2 511.315 7364.9 510.719ZM7357.75 510.5H7359.25V509H7357.75V510.5ZM7357.75 507.5H7359.25V503H7357.75V507.5Z" fill="#535353" id="n1040"/>
<path d="M7345.49 529L7344.42 526.252H7340.97L7339.92 529H7338.93L7342.28 520.396H7343.16L7346.48 529H7345.49ZM7343.11 522.652C7343.09 522.588 7343.05 522.476 7342.99 522.316C7342.93 522.156 7342.88 521.992 7342.83 521.824C7342.79 521.648 7342.74 521.508 7342.7 521.404C7342.66 521.564 7342.62 521.724 7342.57 521.884C7342.53 522.036 7342.49 522.18 7342.44 522.316C7342.4 522.444 7342.36 522.56 7342.33 522.664L7341.3 525.4H7344.12L7343.11 522.652ZM7348.47 529H7347.52V519.88H7348.47V529ZM7352.98 522.46C7353.54 522.46 7354 522.584 7354.39 522.832C7354.78 523.072 7355.08 523.412 7355.28 523.852C7355.48 524.284 7355.59 524.792 7355.59 525.376V525.964H7351.14C7351.15 526.724 7351.34 527.308 7351.7 527.716C7352.07 528.116 7352.59 528.316 7353.26 528.316C7353.66 528.316 7354.02 528.28 7354.33 528.208C7354.64 528.128 7354.96 528.016 7355.3 527.872V528.7C7354.98 528.844 7354.66 528.948 7354.34 529.012C7354.02 529.084 7353.64 529.12 7353.21 529.12C7352.6 529.12 7352.06 528.996 7351.59 528.748C7351.14 528.492 7350.78 528.12 7350.54 527.632C7350.29 527.136 7350.16 526.54 7350.16 525.844C7350.16 525.156 7350.28 524.56 7350.5 524.056C7350.73 523.552 7351.06 523.16 7351.48 522.88C7351.91 522.6 7352.41 522.46 7352.98 522.46ZM7352.97 523.24C7352.44 523.24 7352.02 523.412 7351.71 523.756C7351.4 524.1 7351.22 524.584 7351.16 525.208H7354.6C7354.6 524.816 7354.54 524.476 7354.42 524.188C7354.31 523.892 7354.14 523.66 7353.9 523.492C7353.66 523.324 7353.35 523.24 7352.97 523.24ZM7360.12 522.472C7360.26 522.472 7360.39 522.48 7360.53 522.496C7360.67 522.504 7360.8 522.52 7360.91 522.544L7360.79 523.42C7360.68 523.388 7360.56 523.364 7360.43 523.348C7360.31 523.332 7360.19 523.324 7360.06 523.324C7359.8 523.324 7359.56 523.38 7359.33 523.492C7359.1 523.596 7358.9 523.744 7358.73 523.936C7358.56 524.128 7358.43 524.36 7358.33 524.632C7358.24 524.904 7358.19 525.208 7358.19 525.544V529H7357.24V522.58H7358.02L7358.12 523.768H7358.16C7358.29 523.528 7358.45 523.312 7358.63 523.12C7358.82 522.92 7359.04 522.764 7359.29 522.652C7359.55 522.532 7359.82 522.472 7360.12 522.472ZM7364.17 528.34C7364.33 528.34 7364.5 528.328 7364.66 528.304C7364.83 528.272 7364.97 528.24 7365.08 528.208V528.928C7364.96 528.984 7364.8 529.028 7364.6 529.06C7364.41 529.1 7364.21 529.12 7364.01 529.12C7363.67 529.12 7363.37 529.06 7363.1 528.94C7362.83 528.82 7362.61 528.62 7362.44 528.34C7362.28 528.052 7362.2 527.656 7362.2 527.152V523.324H7361.27V522.856L7362.21 522.496L7362.57 521.092H7363.15V522.58H7365.03V523.324H7363.15V527.128C7363.15 527.536 7363.23 527.84 7363.41 528.04C7363.59 528.24 7363.85 528.34 7364.17 528.34ZM7370.53 527.248C7370.53 527.656 7370.43 528 7370.22 528.28C7370.02 528.552 7369.73 528.76 7369.34 528.904C7368.97 529.048 7368.52 529.12 7367.99 529.12C7367.54 529.12 7367.15 529.084 7366.82 529.012C7366.5 528.94 7366.21 528.84 7365.96 528.712V527.848C7366.22 527.976 7366.54 528.092 7366.9 528.196C7367.26 528.3 7367.64 528.352 7368.01 528.352C7368.57 528.352 7368.98 528.26 7369.22 528.076C7369.48 527.892 7369.61 527.644 7369.61 527.332C7369.61 527.148 7369.56 526.988 7369.45 526.852C7369.36 526.716 7369.19 526.584 7368.95 526.456C7368.72 526.328 7368.39 526.188 7367.98 526.036C7367.57 525.884 7367.22 525.732 7366.92 525.58C7366.62 525.428 7366.39 525.24 7366.22 525.016C7366.06 524.792 7365.98 524.504 7365.98 524.152C7365.98 523.608 7366.2 523.192 7366.63 522.904C7367.07 522.608 7367.65 522.46 7368.36 522.46C7368.75 522.46 7369.12 522.5 7369.45 522.58C7369.79 522.652 7370.1 522.752 7370.39 522.88L7370.06 523.648C7369.9 523.568 7369.71 523.5 7369.51 523.444C7369.32 523.38 7369.12 523.332 7368.91 523.3C7368.71 523.26 7368.51 523.24 7368.3 523.24C7367.84 523.24 7367.49 523.316 7367.24 523.468C7367 523.62 7366.88 523.828 7366.88 524.092C7366.88 524.292 7366.94 524.46 7367.05 524.596C7367.16 524.724 7367.34 524.844 7367.59 524.956C7367.85 525.068 7368.17 525.2 7368.56 525.352C7368.96 525.496 7369.31 525.648 7369.6 525.808C7369.89 525.96 7370.12 526.152 7370.28 526.384C7370.45 526.608 7370.53 526.896 7370.53 527.248Z" fill="#535353" id="n1041"/>
<path d="M7434 510H7436V508H7434V510Z" fill="#535353" id="n1042"/>
<path d="M7435 498C7432.79 498 7431 499.79 7431 502H7433C7433 500.9 7433.9 500 7435 500C7436.1 500 7437 500.9 7437 502C7437 504 7434 503.75 7434 507H7436C7436 504.75 7439 504.5 7439 502C7439 499.79 7437.21 498 7435 498Z" fill="#535353" id="n1043"/>
<path fill-rule="evenodd" clip-rule="evenodd" d="M7435 494C7429.48 494 7425 498.48 7425 504C7425 509.52 7429.48 514 7435 514C7440.52 514 7445 509.52 7445 504C7445 498.48 7440.52 494 7435 494ZM7435 512C7430.59 512 7427 508.41 7427 504C7427 499.59 7430.59 496 7435 496C7439.41 496 7443 499.59 7443 504C7443 508.41 7439.41 512 7435 512Z" fill="#535353" id="n1044"/>
<path d="M7429.71 529H7428.75V524.944H7424.2V529H7423.24V520.432H7424.2V524.104H7428.75V520.432H7429.71V529ZM7434.39 522.46C7434.94 522.46 7435.41 522.584 7435.79 522.832C7436.19 523.072 7436.48 523.412 7436.68 523.852C7436.89 524.284 7436.99 524.792 7436.99 525.376V525.964H7432.54C7432.56 526.724 7432.75 527.308 7433.11 527.716C7433.47 528.116 7433.99 528.316 7434.67 528.316C7435.07 528.316 7435.42 528.28 7435.73 528.208C7436.05 528.128 7436.37 528.016 7436.71 527.872V528.7C7436.39 528.844 7436.07 528.948 7435.75 529.012C7435.43 529.084 7435.05 529.12 7434.62 529.12C7434 529.12 7433.46 528.996 7433 528.748C7432.54 528.492 7432.19 528.12 7431.94 527.632C7431.69 527.136 7431.57 526.54 7431.57 525.844C7431.57 525.156 7431.68 524.56 7431.91 524.056C7432.14 523.552 7432.47 523.16 7432.89 522.88C7433.31 522.6 7433.81 522.46 7434.39 522.46ZM7434.38 523.24C7433.85 523.24 7433.43 523.412 7433.12 523.756C7432.81 524.1 7432.62 524.584 7432.57 525.208H7436.01C7436.01 524.816 7435.95 524.476 7435.83 524.188C7435.72 523.892 7435.54 523.66 7435.3 523.492C7435.06 523.324 7434.75 523.24 7434.38 523.24ZM7439.59 529H7438.65V519.88H7439.59V529ZM7444.65 522.46C7445.45 522.46 7446.08 522.736 7446.55 523.288C7447.03 523.84 7447.27 524.668 7447.27 525.772C7447.27 526.5 7447.16 527.116 7446.94 527.62C7446.72 528.116 7446.41 528.492 7446.01 528.748C7445.62 528.996 7445.16 529.12 7444.62 529.12C7444.28 529.12 7443.97 529.072 7443.71 528.976C7443.45 528.88 7443.22 528.756 7443.04 528.604C7442.86 528.452 7442.71 528.284 7442.59 528.1H7442.52C7442.54 528.252 7442.55 528.436 7442.57 528.652C7442.59 528.868 7442.59 529.06 7442.59 529.228V531.868H7441.65V522.58H7442.41L7442.55 523.552H7442.59C7442.71 523.352 7442.87 523.172 7443.05 523.012C7443.23 522.844 7443.45 522.712 7443.71 522.616C7443.97 522.512 7444.29 522.46 7444.65 522.46ZM7444.48 523.264C7444.04 523.264 7443.68 523.352 7443.4 523.528C7443.13 523.704 7442.92 523.964 7442.79 524.308C7442.66 524.652 7442.59 525.084 7442.59 525.604V525.784C7442.59 526.336 7442.65 526.8 7442.77 527.176C7442.89 527.552 7443.09 527.84 7443.37 528.04C7443.65 528.232 7444.03 528.328 7444.49 528.328C7444.89 528.328 7445.22 528.22 7445.49 528.004C7445.76 527.788 7445.96 527.488 7446.1 527.104C7446.23 526.72 7446.3 526.272 7446.3 525.76C7446.3 524.984 7446.15 524.376 7445.85 523.936C7445.55 523.488 7445.09 523.264 7444.48 523.264Z" fill="#535353" id="n1045"/>
<path d="M7512.25 514L7511.85 510.8C7511.63 510.717 7511.43 510.617 7511.24 510.5C7511.05 510.383 7510.86 510.258 7510.67 510.125L7507.7 511.375L7504.95 506.625L7507.52 504.675C7507.51 504.558 7507.5 504.446 7507.5 504.338V503.663C7507.5 503.554 7507.51 503.442 7507.52 503.325L7504.95 501.375L7507.7 496.625L7510.67 497.875C7510.86 497.742 7511.05 497.617 7511.25 497.5C7511.45 497.383 7511.65 497.283 7511.85 497.2L7512.25 494H7517.75L7518.15 497.2C7518.37 497.283 7518.57 497.383 7518.76 497.5C7518.95 497.617 7519.14 497.742 7519.32 497.875L7522.3 496.625L7525.05 501.375L7522.47 503.325C7522.49 503.442 7522.5 503.554 7522.5 503.663V504.338C7522.5 504.446 7522.48 504.558 7522.45 504.675L7525.02 506.625L7522.27 511.375L7519.32 510.125C7519.14 510.258 7518.95 510.383 7518.75 510.5C7518.55 510.617 7518.35 510.717 7518.15 510.8L7517.75 514H7512.25ZM7514 512H7515.97L7516.32 509.35C7516.84 509.217 7517.32 509.021 7517.76 508.762C7518.2 508.504 7518.61 508.192 7518.97 507.825L7521.45 508.85L7522.42 507.15L7520.27 505.525C7520.36 505.292 7520.42 505.046 7520.45 504.788C7520.48 504.529 7520.5 504.267 7520.5 504C7520.5 503.733 7520.48 503.471 7520.45 503.213C7520.42 502.954 7520.36 502.708 7520.27 502.475L7522.42 500.85L7521.45 499.15L7518.97 500.2C7518.61 499.817 7518.2 499.496 7517.76 499.238C7517.32 498.979 7516.84 498.783 7516.32 498.65L7516 496H7514.02L7513.67 498.65C7513.16 498.783 7512.68 498.979 7512.24 499.238C7511.8 499.496 7511.39 499.808 7511.02 500.175L7508.55 499.15L7507.57 500.85L7509.72 502.45C7509.64 502.7 7509.58 502.95 7509.55 503.2C7509.52 503.45 7509.5 503.717 7509.5 504C7509.5 504.267 7509.52 504.525 7509.55 504.775C7509.58 505.025 7509.64 505.275 7509.72 505.525L7507.57 507.15L7508.55 508.85L7511.02 507.8C7511.39 508.183 7511.8 508.504 7512.24 508.762C7512.68 509.021 7513.16 509.217 7513.67 509.35L7514 512Z" fill="#535353" id="n1046"/>
<path fill-rule="evenodd" clip-rule="evenodd" d="M7515 505.5C7515.83 505.5 7516.5 504.828 7516.5 504C7516.5 503.172 7515.83 502.5 7515 502.5C7514.17 502.5 7513.5 503.172 7513.5 504C7513.5 504.828 7514.17 505.5 7515 505.5ZM7515 507.5C7516.93 507.5 7518.5 505.933 7518.5 504C7518.5 502.067 7516.93 500.5 7515 500.5C7513.07 500.5 7511.5 502.067 7511.5 504C7511.5 505.933 7513.07 507.5 7515 507.5Z" fill="#535353" id="n1047"/>
<path d="M7498.41 526.732C7498.41 527.244 7498.28 527.676 7498.03 528.028C7497.79 528.38 7497.43 528.652 7496.97 528.844C7496.51 529.028 7495.98 529.12 7495.37 529.12C7495.05 529.12 7494.74 529.104 7494.45 529.072C7494.16 529.04 7493.89 528.996 7493.65 528.94C7493.42 528.876 7493.21 528.804 7493.03 528.724V527.788C7493.32 527.916 7493.67 528.032 7494.1 528.136C7494.52 528.232 7494.96 528.28 7495.42 528.28C7495.85 528.28 7496.21 528.224 7496.51 528.112C7496.81 527.992 7497.05 527.824 7497.21 527.608C7497.37 527.384 7497.45 527.116 7497.45 526.804C7497.45 526.508 7497.38 526.26 7497.24 526.06C7497.11 525.86 7496.9 525.68 7496.59 525.52C7496.29 525.352 7495.88 525.18 7495.37 525.004C7495 524.868 7494.68 524.724 7494.4 524.572C7494.13 524.42 7493.89 524.248 7493.7 524.056C7493.52 523.864 7493.38 523.64 7493.28 523.384C7493.19 523.128 7493.14 522.832 7493.14 522.496C7493.14 522.032 7493.25 521.64 7493.49 521.32C7493.72 520.992 7494.04 520.744 7494.45 520.576C7494.86 520.4 7495.33 520.312 7495.86 520.312C7496.33 520.312 7496.75 520.356 7497.13 520.444C7497.52 520.524 7497.87 520.64 7498.2 520.792L7497.89 521.608C7497.59 521.48 7497.26 521.376 7496.91 521.296C7496.56 521.208 7496.21 521.164 7495.84 521.164C7495.47 521.164 7495.16 521.22 7494.9 521.332C7494.65 521.436 7494.45 521.588 7494.31 521.788C7494.18 521.988 7494.11 522.224 7494.11 522.496C7494.11 522.808 7494.17 523.064 7494.3 523.264C7494.44 523.464 7494.65 523.64 7494.93 523.792C7495.21 523.944 7495.58 524.104 7496.03 524.272C7496.54 524.456 7496.97 524.652 7497.33 524.86C7497.68 525.068 7497.95 525.32 7498.13 525.616C7498.31 525.904 7498.41 526.276 7498.41 526.732ZM7502.47 522.46C7503.02 522.46 7503.49 522.584 7503.88 522.832C7504.27 523.072 7504.56 523.412 7504.76 523.852C7504.97 524.284 7505.08 524.792 7505.08 525.376V525.964H7500.62C7500.64 526.724 7500.83 527.308 7501.19 527.716C7501.56 528.116 7502.08 528.316 7502.75 528.316C7503.15 528.316 7503.5 528.28 7503.82 528.208C7504.13 528.128 7504.45 528.016 7504.79 527.872V528.7C7504.47 528.844 7504.15 528.948 7503.83 529.012C7503.51 529.084 7503.13 529.12 7502.7 529.12C7502.08 529.12 7501.54 528.996 7501.08 528.748C7500.62 528.492 7500.27 528.12 7500.02 527.632C7499.78 527.136 7499.65 526.54 7499.65 525.844C7499.65 525.156 7499.76 524.56 7499.99 524.056C7500.22 523.552 7500.55 523.16 7500.97 522.88C7501.4 522.6 7501.9 522.46 7502.47 522.46ZM7502.46 523.24C7501.93 523.24 7501.51 523.412 7501.2 523.756C7500.89 524.1 7500.7 524.584 7500.65 525.208H7504.09C7504.09 524.816 7504.03 524.476 7503.91 524.188C7503.8 523.892 7503.62 523.66 7503.38 523.492C7503.14 523.324 7502.84 523.24 7502.46 523.24ZM7508.77 528.34C7508.94 528.34 7509.1 528.328 7509.26 528.304C7509.43 528.272 7509.57 528.24 7509.68 528.208V528.928C7509.56 528.984 7509.4 529.028 7509.2 529.06C7509.01 529.1 7508.81 529.12 7508.61 529.12C7508.28 529.12 7507.97 529.06 7507.7 528.94C7507.43 528.82 7507.21 528.62 7507.04 528.34C7506.88 528.052 7506.8 527.656 7506.8 527.152V523.324H7505.88V522.856L7506.81 522.496L7507.17 521.092H7507.75V522.58H7509.63V523.324H7507.75V527.128C7507.75 527.536 7507.84 527.84 7508.01 528.04C7508.2 528.24 7508.45 528.34 7508.77 528.34ZM7513.03 528.34C7513.2 528.34 7513.36 528.328 7513.52 528.304C7513.69 528.272 7513.83 528.24 7513.94 528.208V528.928C7513.82 528.984 7513.66 529.028 7513.46 529.06C7513.27 529.1 7513.08 529.12 7512.88 529.12C7512.54 529.12 7512.24 529.06 7511.96 528.94C7511.69 528.82 7511.47 528.62 7511.3 528.34C7511.14 528.052 7511.06 527.656 7511.06 527.152V523.324H7510.14V522.856L7511.08 522.496L7511.44 521.092H7512.01V522.58H7513.9V523.324H7512.01V527.128C7512.01 527.536 7512.1 527.84 7512.28 528.04C7512.46 528.24 7512.71 528.34 7513.03 528.34ZM7516.19 522.58V529H7515.26V522.58H7516.19ZM7515.74 520.18C7515.9 520.18 7516.03 520.232 7516.13 520.336C7516.25 520.44 7516.3 520.6 7516.3 520.816C7516.3 521.016 7516.25 521.172 7516.13 521.284C7516.03 521.388 7515.9 521.44 7515.74 521.44C7515.57 521.44 7515.43 521.388 7515.32 521.284C7515.21 521.172 7515.16 521.016 7515.16 520.816C7515.16 520.6 7515.21 520.44 7515.32 520.336C7515.43 520.232 7515.57 520.18 7515.74 520.18ZM7521.28 522.46C7522.03 522.46 7522.61 522.648 7523 523.024C7523.39 523.392 7523.59 523.988 7523.59 524.812V529H7522.65V524.884C7522.65 524.332 7522.53 523.924 7522.28 523.66C7522.03 523.396 7521.65 523.264 7521.15 523.264C7520.44 523.264 7519.93 523.464 7519.64 523.864C7519.34 524.264 7519.19 524.848 7519.19 525.616V529H7518.26V522.58H7519.01L7519.16 523.528H7519.21C7519.35 523.296 7519.53 523.104 7519.73 522.952C7519.94 522.792 7520.18 522.672 7520.44 522.592C7520.71 522.504 7520.99 522.46 7521.28 522.46ZM7527.89 522.46C7528.33 522.46 7528.73 522.548 7529.06 522.724C7529.4 522.892 7529.68 523.14 7529.91 523.468H7529.97L7530.11 522.58H7530.85V529.132C7530.85 529.724 7530.75 530.224 7530.55 530.632C7530.35 531.048 7530.04 531.36 7529.61 531.568C7529.2 531.776 7528.66 531.88 7528.01 531.88C7527.54 531.88 7527.12 531.844 7526.73 531.772C7526.35 531.7 7526.01 531.6 7525.7 531.472V530.584C7525.91 530.688 7526.14 530.776 7526.39 530.848C7526.63 530.928 7526.9 530.988 7527.18 531.028C7527.47 531.068 7527.76 531.088 7528.07 531.088C7528.66 531.088 7529.11 530.92 7529.43 530.584C7529.75 530.248 7529.91 529.788 7529.91 529.204V528.916C7529.91 528.804 7529.92 528.66 7529.93 528.484C7529.93 528.3 7529.94 528.16 7529.95 528.064H7529.91C7529.7 528.416 7529.42 528.68 7529.07 528.856C7528.74 529.032 7528.34 529.12 7527.87 529.12C7527.04 529.12 7526.39 528.832 7525.93 528.256C7525.47 527.68 7525.23 526.868 7525.23 525.82C7525.23 525.132 7525.34 524.536 7525.55 524.032C7525.75 523.528 7526.05 523.14 7526.45 522.868C7526.85 522.596 7527.33 522.46 7527.89 522.46ZM7528.01 523.264C7527.62 523.264 7527.29 523.364 7527.02 523.564C7526.76 523.764 7526.55 524.056 7526.41 524.44C7526.27 524.816 7526.21 525.28 7526.21 525.832C7526.21 526.64 7526.36 527.26 7526.66 527.692C7526.97 528.124 7527.42 528.34 7528.01 528.34C7528.36 528.34 7528.65 528.292 7528.89 528.196C7529.13 528.1 7529.33 527.956 7529.48 527.764C7529.64 527.572 7529.75 527.332 7529.82 527.044C7529.89 526.756 7529.93 526.424 7529.93 526.048V525.748C7529.93 525.172 7529.86 524.704 7529.72 524.344C7529.59 523.976 7529.39 523.704 7529.11 523.528C7528.83 523.352 7528.46 523.264 7528.01 523.264ZM7537.06 527.248C7537.06 527.656 7536.95 528 7536.75 528.28C7536.55 528.552 7536.25 528.76 7535.87 528.904C7535.49 529.048 7535.04 529.12 7534.51 529.12C7534.07 529.12 7533.68 529.084 7533.35 529.012C7533.02 528.94 7532.73 528.84 7532.49 528.712V527.848C7532.75 527.976 7533.06 528.092 7533.42 528.196C7533.79 528.3 7534.16 528.352 7534.54 528.352C7535.1 528.352 7535.5 528.26 7535.75 528.076C7536.01 527.892 7536.13 527.644 7536.13 527.332C7536.13 527.148 7536.08 526.988 7535.98 526.852C7535.88 526.716 7535.71 526.584 7535.47 526.456C7535.24 526.328 7534.92 526.188 7534.5 526.036C7534.09 525.884 7533.74 525.732 7533.45 525.58C7533.15 525.428 7532.92 525.24 7532.75 525.016C7532.59 524.792 7532.51 524.504 7532.51 524.152C7532.51 523.608 7532.73 523.192 7533.16 522.904C7533.6 522.608 7534.17 522.46 7534.89 522.46C7535.28 522.46 7535.64 522.5 7535.98 522.58C7536.31 522.652 7536.63 522.752 7536.91 522.88L7536.59 523.648C7536.42 523.568 7536.24 523.5 7536.04 523.444C7535.85 523.38 7535.65 523.332 7535.44 523.3C7535.24 523.26 7535.03 523.24 7534.83 523.24C7534.37 523.24 7534.02 523.316 7533.77 523.468C7533.53 523.62 7533.41 523.828 7533.41 524.092C7533.41 524.292 7533.47 524.46 7533.58 524.596C7533.69 524.724 7533.87 524.844 7534.12 524.956C7534.37 525.068 7534.7 525.2 7535.09 525.352C7535.49 525.496 7535.83 525.648 7536.12 525.808C7536.42 525.96 7536.65 526.152 7536.81 526.384C7536.97 526.608 7537.06 526.896 7537.06 527.248Z" fill="#535353" id="n1048"/>
<path fill-rule="evenodd" clip-rule="evenodd" d="M7595 514C7600.52 514 7605 509.523 7605 504C7605 498.477 7600.52 494 7595 494C7589.48 494 7585 498.477 7585 504C7585 509.523 7589.48 514 7595 514ZM7594.4 497H7595.6V499H7598V502.4L7595 500.6L7592 502.4V499H7594.4V497ZM7600 504.843L7595 502L7590 504.843L7592.06 509.445H7597.94L7600 504.843Z" fill="#535353" id="n1049"/>
<path d="M7573.29 521.164C7572.82 521.164 7572.39 521.248 7572.01 521.416C7571.63 521.576 7571.3 521.812 7571.03 522.124C7570.76 522.428 7570.56 522.8 7570.41 523.24C7570.28 523.68 7570.21 524.172 7570.21 524.716C7570.21 525.436 7570.32 526.064 7570.55 526.6C7570.78 527.136 7571.12 527.548 7571.57 527.836C7572.01 528.124 7572.58 528.268 7573.26 528.268C7573.64 528.268 7574 528.236 7574.34 528.172C7574.68 528.108 7575.01 528.028 7575.33 527.932V528.772C7575.02 528.884 7574.69 528.968 7574.35 529.024C7574.01 529.088 7573.6 529.12 7573.13 529.12C7572.25 529.12 7571.53 528.94 7570.94 528.58C7570.36 528.22 7569.92 527.708 7569.62 527.044C7569.33 526.38 7569.19 525.6 7569.19 524.704C7569.19 524.056 7569.28 523.464 7569.45 522.928C7569.64 522.392 7569.91 521.928 7570.26 521.536C7570.61 521.144 7571.04 520.844 7571.55 520.636C7572.07 520.42 7572.65 520.312 7573.31 520.312C7573.74 520.312 7574.15 520.356 7574.55 520.444C7574.95 520.524 7575.31 520.644 7575.63 520.804L7575.25 521.632C7574.98 521.496 7574.68 521.384 7574.35 521.296C7574.02 521.208 7573.67 521.164 7573.29 521.164ZM7582.56 525.784C7582.56 526.304 7582.49 526.772 7582.35 527.188C7582.22 527.596 7582.02 527.944 7581.76 528.232C7581.51 528.52 7581.2 528.74 7580.83 528.892C7580.46 529.044 7580.05 529.12 7579.59 529.12C7579.16 529.12 7578.76 529.044 7578.4 528.892C7578.05 528.74 7577.74 528.52 7577.48 528.232C7577.22 527.944 7577.02 527.596 7576.88 527.188C7576.74 526.78 7576.68 526.312 7576.68 525.784C7576.68 525.08 7576.79 524.484 7577.02 523.996C7577.26 523.5 7577.6 523.12 7578.04 522.856C7578.49 522.592 7579.02 522.46 7579.63 522.46C7580.22 522.46 7580.73 522.592 7581.16 522.856C7581.6 523.12 7581.94 523.5 7582.18 523.996C7582.43 524.492 7582.56 525.088 7582.56 525.784ZM7577.65 525.784C7577.65 526.296 7577.72 526.744 7577.85 527.128C7578 527.512 7578.21 527.808 7578.5 528.016C7578.79 528.224 7579.16 528.328 7579.6 528.328C7580.06 528.328 7580.43 528.224 7580.72 528.016C7581.02 527.808 7581.23 527.512 7581.37 527.128C7581.5 526.744 7581.57 526.296 7581.57 525.784C7581.57 525.264 7581.5 524.82 7581.36 524.452C7581.22 524.076 7581.01 523.784 7580.72 523.576C7580.44 523.368 7580.07 523.264 7579.6 523.264C7578.93 523.264 7578.44 523.488 7578.12 523.936C7577.8 524.376 7577.65 524.992 7577.65 525.784ZM7591.17 522.46C7591.87 522.46 7592.4 522.644 7592.75 523.012C7593.11 523.38 7593.29 523.972 7593.29 524.788V529H7592.37V524.836C7592.37 524.308 7592.25 523.916 7592.02 523.66C7591.8 523.396 7591.46 523.264 7591.01 523.264C7590.4 523.264 7589.94 523.444 7589.66 523.804C7589.37 524.156 7589.22 524.688 7589.22 525.4V529H7588.3V524.836C7588.3 524.484 7588.25 524.192 7588.14 523.96C7588.04 523.72 7587.89 523.544 7587.69 523.432C7587.49 523.32 7587.24 523.264 7586.94 523.264C7586.52 523.264 7586.18 523.352 7585.91 523.528C7585.66 523.704 7585.47 523.964 7585.35 524.308C7585.23 524.644 7585.17 525.068 7585.17 525.58V529H7584.23V522.58H7584.99L7585.13 523.504H7585.18C7585.32 523.28 7585.48 523.092 7585.66 522.94C7585.85 522.78 7586.07 522.66 7586.31 522.58C7586.56 522.5 7586.82 522.46 7587.1 522.46C7587.59 522.46 7588 522.552 7588.32 522.736C7588.65 522.92 7588.89 523.2 7589.04 523.576H7589.09C7589.3 523.208 7589.59 522.932 7589.96 522.748C7590.32 522.556 7590.73 522.46 7591.17 522.46ZM7598.31 522.46C7599.11 522.46 7599.74 522.736 7600.21 523.288C7600.69 523.84 7600.93 524.668 7600.93 525.772C7600.93 526.5 7600.82 527.116 7600.6 527.62C7600.38 528.116 7600.07 528.492 7599.67 528.748C7599.28 528.996 7598.82 529.12 7598.28 529.12C7597.94 529.12 7597.63 529.072 7597.37 528.976C7597.11 528.88 7596.88 528.756 7596.7 528.604C7596.52 528.452 7596.37 528.284 7596.25 528.1H7596.18C7596.2 528.252 7596.21 528.436 7596.23 528.652C7596.25 528.868 7596.25 529.06 7596.25 529.228V531.868H7595.31V522.58H7596.07L7596.21 523.552H7596.25C7596.37 523.352 7596.53 523.172 7596.71 523.012C7596.89 522.844 7597.11 522.712 7597.37 522.616C7597.63 522.512 7597.95 522.46 7598.31 522.46ZM7598.14 523.264C7597.7 523.264 7597.34 523.352 7597.06 523.528C7596.79 523.704 7596.58 523.964 7596.45 524.308C7596.32 524.652 7596.25 525.084 7596.25 525.604V525.784C7596.25 526.336 7596.31 526.8 7596.43 527.176C7596.55 527.552 7596.75 527.84 7597.03 528.04C7597.31 528.232 7597.69 528.328 7598.15 528.328C7598.55 528.328 7598.88 528.22 7599.15 528.004C7599.42 527.788 7599.62 527.488 7599.76 527.104C7599.89 526.72 7599.96 526.272 7599.96 525.76C7599.96 524.984 7599.81 524.376 7599.51 523.936C7599.21 523.488 7598.75 523.264 7598.14 523.264ZM7605.01 522.472C7605.77 522.472 7606.34 522.648 7606.71 523C7607.08 523.344 7607.26 523.892 7607.26 524.644V529H7606.57L7606.39 528.04H7606.35C7606.17 528.272 7605.99 528.472 7605.79 528.64C7605.59 528.8 7605.37 528.92 7605.1 529C7604.85 529.08 7604.53 529.12 7604.17 529.12C7603.77 529.12 7603.43 529.052 7603.12 528.916C7602.82 528.78 7602.58 528.572 7602.4 528.292C7602.23 528.012 7602.15 527.664 7602.15 527.248C7602.15 526.608 7602.4 526.116 7602.91 525.772C7603.42 525.428 7604.19 525.24 7605.22 525.208L7606.34 525.16V524.764C7606.34 524.196 7606.22 523.8 7605.98 523.576C7605.75 523.352 7605.41 523.24 7604.96 523.24C7604.62 523.24 7604.3 523.288 7604 523.384C7603.7 523.48 7603.41 523.596 7603.13 523.732L7602.85 523.012C7603.13 522.86 7603.47 522.732 7603.84 522.628C7604.22 522.524 7604.61 522.472 7605.01 522.472ZM7605.34 525.868C7604.54 525.9 7603.97 526.032 7603.64 526.264C7603.3 526.496 7603.13 526.828 7603.13 527.26C7603.13 527.628 7603.25 527.904 7603.47 528.088C7603.7 528.264 7604 528.352 7604.37 528.352C7604.95 528.352 7605.43 528.192 7605.79 527.872C7606.15 527.544 7606.33 527.06 7606.33 526.42V525.832L7605.34 525.868ZM7612.29 522.46C7613.04 522.46 7613.61 522.648 7614 523.024C7614.39 523.392 7614.59 523.988 7614.59 524.812V529H7613.65V524.884C7613.65 524.332 7613.53 523.924 7613.28 523.66C7613.03 523.396 7612.66 523.264 7612.15 523.264C7611.44 523.264 7610.94 523.464 7610.64 523.864C7610.35 524.264 7610.2 524.848 7610.2 525.616V529H7609.26V522.58H7610.02L7610.16 523.528H7610.21C7610.35 523.296 7610.53 523.104 7610.74 522.952C7610.95 522.792 7611.18 522.672 7611.45 522.592C7611.71 522.504 7611.99 522.46 7612.29 522.46ZM7615.58 522.58H7616.59L7618.01 526.336C7618.09 526.56 7618.17 526.772 7618.24 526.972C7618.31 527.172 7618.38 527.364 7618.43 527.548C7618.49 527.724 7618.53 527.896 7618.57 528.064H7618.6C7618.66 527.872 7618.73 527.62 7618.83 527.308C7618.93 526.988 7619.05 526.664 7619.17 526.336L7620.52 522.58H7621.54L7618.73 529.96C7618.59 530.352 7618.42 530.692 7618.22 530.98C7618.03 531.268 7617.79 531.488 7617.51 531.64C7617.24 531.8 7616.91 531.88 7616.51 531.88C7616.33 531.88 7616.17 531.868 7616.03 531.844C7615.9 531.828 7615.77 531.808 7615.66 531.784V531.028C7615.76 531.044 7615.87 531.06 7615.99 531.076C7616.11 531.1 7616.23 531.112 7616.37 531.112C7616.61 531.112 7616.82 531.064 7616.99 530.968C7617.17 530.88 7617.32 530.744 7617.45 530.56C7617.58 530.384 7617.69 530.172 7617.79 529.924L7618.15 529.012L7615.58 522.58Z" fill="#535353" id="n1050"/>
</g>
</g>
</svg>
