<?xml version='1.0' encoding='utf-8'?>
<svg xmlns="http://www.w3.org/2000/svg" xmlns:xlink="http://www.w3.org/1999/xlink" width="56.0" height="800.0" viewBox="0 0 56.0 800.0" fill="none">
  <defs><clipPath id="clip__asset"><rect x="0" y="0" width="56.0" height="800.0"/></clipPath><mask id="path-716-inside-46_1702_11540" fill="white">
<path d="M6417 832H6473V1032H6417V832Z" id="n871"/>
</mask>
<filter id="filter22_d_1702_11540" x="6415" y="231" width="60" height="804" filterUnits="userSpaceOnUse" color-interpolation-filters="sRGB">
<feFlood flood-opacity="0" result="BackgroundImageFix" id="n1754"/>
<feColorMatrix in="SourceAlpha" type="matrix" values="0 0 0 0 0 0 0 0 0 0 0 0 0 0 0 0 0 0 127 0" result="hardAlpha" id="n1755"/>
<feOffset dy="1" id="n1756"/>
<feGaussianBlur stdDeviation="1" id="n1757"/>
<feColorMatrix type="matrix" values="0 0 0 0 0 0 0 0 0 0 0 0 0 0 0 0 0 0 0.23 0" id="n1758"/>
<feBlend mode="normal" in2="BackgroundImageFix" result="effect1_dropShadow_1702_11540" id="n1759"/>
<feBlend mode="normal" in="SourceGraphic" in2="effect1_dropShadow_1702_11540" result="shape" id="n1760"/>
</filter>
</defs>
  <g clip-path="url(#clip__asset)" transform="translate(-6417.0 -232.0)"><g filter="url(#filter22_d_1702_11540)" id="n856">
<rect width="56" height="800" transform="translate(6417 232)" fill="#FCFCFC" id="n857"/>
<path d="M6458.5 263.069C6458.5 263.674 6458.5 263.977 6458.62 264.118C6458.72 264.239 6458.88 264.304 6459.04 264.291C6459.22 264.277 6459.44 264.063 6459.87 263.634L6462.93 260.566C6463.13 260.368 6463.23 260.269 6463.27 260.154C6463.3 260.054 6463.3 259.946 6463.27 259.845C6463.23 259.731 6463.13 259.632 6462.93 259.434L6459.87 256.366C6459.44 255.937 6459.22 255.723 6459.04 255.709C6458.88 255.696 6458.72 255.761 6458.62 255.882C6458.5 256.023 6458.5 256.326 6458.5 256.931L6458.5 263.069Z" fill="#707070" id="n858"/>
<path d="M6444 255H6446V259H6450V261H6446V265H6444V261H6440V259H6444V255Z" fill="#535353" id="n859"/>
<path fill-rule="evenodd" clip-rule="evenodd" d="M6434.61 258.516L6443.52 249.612C6444.33 248.796 6445.67 248.796 6446.48 249.612L6455.39 258.516C6456.2 259.332 6456.2 260.668 6455.39 261.484L6446.48 270.388C6445.67 271.204 6444.33 271.204 6443.52 270.388L6434.61 261.484C6433.8 260.668 6433.8 259.332 6434.61 258.516ZM6445 251L6436 260L6445 269L6454 260L6445 251Z" fill="#535353" id="n860"/>
<path d="M6421 293.6C6421 290.24 6421 288.56 6421.65 287.276C6422.23 286.147 6423.15 285.229 6424.28 284.654C6425.56 284 6427.24 284 6430.6 284H6459.4C6462.76 284 6464.44 284 6465.72 284.654C6466.85 285.229 6467.77 286.147 6468.35 287.276C6469 288.56 6469 290.24 6469 293.6V322.4C6469 325.76 6469 327.44 6468.35 328.724C6467.77 329.853 6466.85 330.771 6465.72 331.346C6464.44 332 6462.76 332 6459.4 332H6430.6C6427.24 332 6425.56 332 6424.28 331.346C6423.15 330.771 6422.23 329.853 6421.65 328.724C6421 327.44 6421 325.76 6421 322.4V293.6Z" fill="black" fill-opacity="0.1" id="n861"/>
<path d="M6458.5 311.069C6458.5 311.674 6458.5 311.977 6458.62 312.118C6458.72 312.239 6458.88 312.304 6459.04 312.291C6459.22 312.277 6459.44 312.063 6459.87 311.634L6462.93 308.566C6463.13 308.368 6463.23 308.269 6463.27 308.154C6463.3 308.054 6463.3 307.946 6463.27 307.845C6463.23 307.731 6463.13 307.632 6462.93 307.434L6459.87 304.366C6459.44 303.937 6459.22 303.723 6459.04 303.709C6458.88 303.696 6458.72 303.761 6458.62 303.882C6458.5 304.023 6458.5 304.326 6458.5 304.931L6458.5 311.069Z" fill="#707070" id="n862"/>
<path d="M6444 303H6446V307H6450V309H6446V313H6444V309H6440V307H6444V303Z" fill="#535353" id="n863"/>
<path fill-rule="evenodd" clip-rule="evenodd" d="M6434.61 306.516L6443.52 297.612C6444.33 296.796 6445.67 296.796 6446.48 297.612L6455.39 306.516C6456.2 307.332 6456.2 308.668 6455.39 309.484L6446.48 318.388C6445.67 319.204 6444.33 319.204 6443.52 318.388L6434.61 309.484C6433.8 308.668 6433.8 307.332 6434.61 306.516ZM6445 299L6436 308L6445 317L6454 308L6445 299Z" fill="#535353" id="n864"/>
<path d="M6444 351H6446V355H6450V357H6446V361H6444V357H6440V355H6444V351Z" fill="#535353" id="n865"/>
<path fill-rule="evenodd" clip-rule="evenodd" d="M6434.61 354.516L6443.52 345.612C6444.33 344.796 6445.67 344.796 6446.48 345.612L6455.39 354.516C6456.2 355.332 6456.2 356.668 6455.39 357.484L6446.48 366.388C6445.67 367.204 6444.33 367.204 6443.52 366.388L6434.61 357.484C6433.8 356.668 6433.8 355.332 6434.61 354.516ZM6445 347L6436 356L6445 365L6454 356L6445 347Z" fill="#535353" id="n866"/>
<path d="M6444 399H6446V403H6450V405H6446V409H6444V405H6440V403H6444V399Z" fill="#535353" id="n867"/>
<path fill-rule="evenodd" clip-rule="evenodd" d="M6434.61 402.516L6443.52 393.612C6444.33 392.796 6445.67 392.796 6446.48 393.612L6455.39 402.516C6456.2 403.332 6456.2 404.668 6455.39 405.484L6446.48 414.388C6445.67 415.204 6444.33 415.204 6443.52 414.388L6434.61 405.484C6433.8 404.668 6433.8 403.332 6434.61 402.516ZM6445 395L6436 404L6445 413L6454 404L6445 395Z" fill="#535353" id="n868"/>
<path d="M6444 447H6446V451H6450V453H6446V457H6444V453H6440V451H6444V447Z" fill="#535353" id="n869"/>
<path fill-rule="evenodd" clip-rule="evenodd" d="M6434.61 450.516L6443.52 441.612C6444.33 440.796 6445.67 440.796 6446.48 441.612L6455.39 450.516C6456.2 451.332 6456.2 452.668 6455.39 453.484L6446.48 462.388C6445.67 463.204 6444.33 463.204 6443.52 462.388L6434.61 453.484C6433.8 452.668 6433.8 451.332 6434.61 450.516ZM6445 443L6436 452L6445 461L6454 452L6445 443Z" fill="#535353" id="n870"/>
<mask id="path-716-inside-46_1702_11540" fill="white">
<path d="M6417 832H6473V1032H6417V832Z" id="n871"/>
</mask>
<path d="M6417 833H6473V831H6417V833Z" fill="#DDDDDD" mask="url(#path-716-inside-46_1702_11540)" id="n872"/>
<path d="M6435 856.995V854.997H6436.98V856.995H6435Z" fill="#535353" id="n873"/>
<path d="M6435 860.992V858.993H6436.98V860.992H6435Z" fill="#535353" id="n874"/>
<path d="M6435 852.998V851H6436.98V852.998H6435Z" fill="#535353" id="n875"/>
<path d="M6438.96 856.995V854.997H6445.99L6445.43 856.126L6445 856.995H6438.96Z" fill="#535353" id="n876"/>
<path d="M6438.96 860.992V858.993H6443.99L6443 860.992H6438.96Z" fill="#535353" id="n877"/>
<path d="M6438.96 852.998V851H6452.82V852.998H6438.96Z" fill="#535353" id="n878"/>
<path fill-rule="evenodd" clip-rule="evenodd" d="M6454.9 866.719L6449.29 855.491C6448.96 854.836 6448.04 854.836 6447.71 855.491L6442.1 866.719C6441.8 867.315 6442.23 868 6442.89 868H6454.11C6454.77 868 6455.2 867.315 6454.9 866.719ZM6447.75 866.5H6449.25V865H6447.75V866.5ZM6447.75 863.5H6449.25V859H6447.75V863.5Z" fill="#535353" id="n879"/>
<path d="M6444 914H6446V912H6444V914Z" fill="#535353" id="n880"/>
<path d="M6445 902C6442.79 902 6441 903.79 6441 906H6443C6443 904.9 6443.9 904 6445 904C6446.1 904 6447 904.9 6447 906C6447 908 6444 907.75 6444 911H6446C6446 908.75 6449 908.5 6449 906C6449 903.79 6447.21 902 6445 902Z" fill="#535353" id="n881"/>
<path fill-rule="evenodd" clip-rule="evenodd" d="M6445 898C6439.48 898 6435 902.48 6435 908C6435 913.52 6439.48 918 6445 918C6450.52 918 6455 913.52 6455 908C6455 902.48 6450.52 898 6445 898ZM6445 916C6440.59 916 6437 912.41 6437 908C6437 903.59 6440.59 900 6445 900C6449.41 900 6453 903.59 6453 908C6453 912.41 6449.41 916 6445 916Z" fill="#535353" id="n882"/>
<path d="M6442.25 966L6441.85 962.8C6441.63 962.717 6441.43 962.617 6441.24 962.5C6441.05 962.383 6440.86 962.258 6440.67 962.125L6437.7 963.375L6434.95 958.625L6437.52 956.675C6437.51 956.558 6437.5 956.446 6437.5 956.338V955.663C6437.5 955.554 6437.51 955.442 6437.52 955.325L6434.95 953.375L6437.7 948.625L6440.67 949.875C6440.86 949.742 6441.05 949.617 6441.25 949.5C6441.45 949.383 6441.65 949.283 6441.85 949.2L6442.25 946H6447.75L6448.15 949.2C6448.37 949.283 6448.57 949.383 6448.76 949.5C6448.95 949.617 6449.14 949.742 6449.32 949.875L6452.3 948.625L6455.05 953.375L6452.47 955.325C6452.49 955.442 6452.5 955.554 6452.5 955.663V956.338C6452.5 956.446 6452.48 956.558 6452.45 956.675L6455.02 958.625L6452.27 963.375L6449.32 962.125C6449.14 962.258 6448.95 962.383 6448.75 962.5C6448.55 962.617 6448.35 962.717 6448.15 962.8L6447.75 966H6442.25ZM6444 964H6445.97L6446.32 961.35C6446.84 961.217 6447.32 961.021 6447.76 960.762C6448.2 960.504 6448.61 960.192 6448.97 959.825L6451.45 960.85L6452.42 959.15L6450.27 957.525C6450.36 957.292 6450.42 957.046 6450.45 956.788C6450.48 956.529 6450.5 956.267 6450.5 956C6450.5 955.733 6450.48 955.471 6450.45 955.213C6450.42 954.954 6450.36 954.708 6450.27 954.475L6452.42 952.85L6451.45 951.15L6448.97 952.2C6448.61 951.817 6448.2 951.496 6447.76 951.238C6447.32 950.979 6446.84 950.783 6446.32 950.65L6446 948H6444.02L6443.67 950.65C6443.16 950.783 6442.68 950.979 6442.24 951.238C6441.8 951.496 6441.39 951.808 6441.02 952.175L6438.55 951.15L6437.57 952.85L6439.72 954.45C6439.64 954.7 6439.58 954.95 6439.55 955.2C6439.52 955.45 6439.5 955.717 6439.5 956C6439.5 956.267 6439.52 956.525 6439.55 956.775C6439.58 957.025 6439.64 957.275 6439.72 957.525L6437.57 959.15L6438.55 960.85L6441.02 959.8C6441.39 960.183 6441.8 960.504 6442.24 960.762C6442.68 961.021 6443.16 961.217 6443.67 961.35L6444 964Z" fill="#535353" id="n883"/>
<path fill-rule="evenodd" clip-rule="evenodd" d="M6445 957.5C6445.83 957.5 6446.5 956.828 6446.5 956C6446.5 955.172 6445.83 954.5 6445 954.5C6444.17 954.5 6443.5 955.172 6443.5 956C6443.5 956.828 6444.17 957.5 6445 957.5ZM6445 959.5C6446.93 959.5 6448.5 957.933 6448.5 956C6448.5 954.067 6446.93 952.5 6445 952.5C6443.07 952.5 6441.5 954.067 6441.5 956C6441.5 957.933 6443.07 959.5 6445 959.5Z" fill="#535353" id="n884"/>
<path fill-rule="evenodd" clip-rule="evenodd" d="M6445 1014C6450.52 1014 6455 1009.52 6455 1004C6455 998.477 6450.52 994 6445 994C6439.48 994 6435 998.477 6435 1004C6435 1009.52 6439.48 1014 6445 1014ZM6444.4 997H6445.6V999H6448V1002.4L6445 1000.6L6442 1002.4V999H6444.4V997ZM6450 1004.84L6445 1002L6440 1004.84L6442.06 1009.45H6447.94L6450 1004.84Z" fill="#535353" id="n885"/>
</g>
</g>
</svg>
