<?xml version='1.0' encoding='utf-8'?>
<svg xmlns="http://www.w3.org/2000/svg" xmlns:xlink="http://www.w3.org/1999/xlink" width="232.0" height="232.0" viewBox="0 0 232.0 232.0" fill="none">
  <defs><clipPath id="clip__asset"><rect x="0" y="0" width="232.0" height="232.0"/></clipPath><mask id="mask31_68_6728" style="mask-type:luminance" maskUnits="userSpaceOnUse" x="804" y="1129" width="232" height="232">
<circle cx="920" cy="1245" r="115" fill="white" stroke="black" stroke-width="2" id="n176"/>
</mask>
<mask id="mask32_68_6728" style="mask-type:alpha" maskUnits="userSpaceOnUse" x="808" y="1133" width="224" height="224">
<rect width="224" height="224" transform="translate(808 1133)" fill="url(#pattern3_68_6728)" id="n178"/>
</mask>
<mask id="mask34_68_6728" style="mask-type:luminance" maskUnits="userSpaceOnUse" x="664" y="989" width="512" height="512">
<circle cx="920" cy="1245" r="102" fill="white" stroke="black" stroke-width="20" id="n188"/>
</mask>
<mask id="path-153-outside-6_68_6728" maskUnits="userSpaceOnUse" x="801.206" y="1121.96" width="45.2548" height="45.2548" fill="black">
<rect fill="white" x="801.206" y="1121.96" width="45.2548" height="45.2548" id="n205"/>
<path d="M817.469 1125.97L810.398 1133.04L811.577 1134.22L818.648 1127.15L821.005 1129.51L813.934 1136.58L815.112 1137.76L818.648 1134.22L821.005 1136.58L817.469 1140.11L828.076 1150.72L830.433 1148.36L835.147 1160.15L823.362 1155.43L825.718 1153.08L805.684 1133.04L815.112 1123.61L817.469 1125.97Z" id="n206"/>
</mask>
<pattern id="pattern3_68_6728" patternUnits="userSpaceOnUse" patternTransform="matrix(24 0 0 24 0 0)" preserveAspectRatio="none" viewBox="0 0 24 24" width="1" height="1">
<g id="pattern3_68_6728_inner">
<rect x="2.09961" y="4.92896" width="4" height="24" transform="rotate(-45 2.09961 4.92896)" fill="url(#paint3_linear_68_6728)" id="n367"/>
</g>
</pattern><linearGradient id="paint3_linear_68_6728" x1="4.09961" y1="4.92896" x2="4.09961" y2="28.929" gradientUnits="userSpaceOnUse">
<stop stop-opacity="0" id="n378"/>
<stop offset="1" id="n379"/>
</linearGradient>
</defs>
  <g clip-path="url(#clip__asset)" transform="translate(-728.0 -1053.0)"><g mask="url(#mask31_68_6728)" id="n177">
<mask id="mask32_68_6728" style="mask-type:alpha" maskUnits="userSpaceOnUse" x="808" y="1133" width="224" height="224">
<rect width="224" height="224" transform="translate(808 1133)" fill="url(#pattern3_68_6728)" id="n178"/>
</mask>
<g mask="url(#mask32_68_6728)" id="n179">
<rect width="224" height="224" transform="translate(808 1133)" fill="#9CC1F5" id="n180"/>
</g>
</g>
<g mask="url(#mask34_68_6728)" id="n189">
<path d="M756 1245H1084" stroke="#BEBEBE" stroke-linecap="square" id="n190"/>
<path d="M920 1081L920 1409" stroke="#BEBEBE" stroke-linecap="square" id="n191"/>
</g>
<path d="M923.33 1148H922.226L917.522 1140.78H917.474C917.482 1140.92 917.49 1141.08 917.498 1141.26C917.514 1141.42 917.526 1141.61 917.534 1141.81C917.542 1142 917.546 1142.2 917.546 1142.41C917.554 1142.62 917.558 1142.82 917.558 1143.03V1148H916.67V1139.43H917.762L922.454 1146.63H922.49C922.49 1146.53 922.486 1146.39 922.478 1146.22C922.47 1146.06 922.462 1145.87 922.454 1145.67C922.446 1145.46 922.438 1145.26 922.43 1145.05C922.422 1144.83 922.418 1144.63 922.418 1144.45V1139.43H923.33V1148Z" fill="#707070" id="n200"/>
<path d="M823.335 1241.43L821.043 1250H820.071L818.367 1244.18C818.319 1244.02 818.271 1243.86 818.223 1243.7C818.183 1243.53 818.143 1243.38 818.103 1243.23C818.071 1243.08 818.039 1242.95 818.007 1242.84C817.983 1242.72 817.963 1242.64 817.947 1242.57C817.939 1242.64 817.923 1242.72 817.899 1242.84C817.883 1242.94 817.855 1243.07 817.815 1243.22C817.783 1243.36 817.747 1243.52 817.707 1243.68C817.667 1243.84 817.623 1244 817.575 1244.17L815.907 1250H814.935L812.655 1241.43H813.663L815.067 1246.86C815.107 1247.03 815.147 1247.21 815.187 1247.38C815.227 1247.55 815.263 1247.72 815.295 1247.89C815.335 1248.05 815.367 1248.2 815.391 1248.36C815.415 1248.51 815.439 1248.66 815.463 1248.8C815.487 1248.65 815.511 1248.5 815.535 1248.34C815.567 1248.18 815.603 1248.02 815.643 1247.85C815.683 1247.68 815.723 1247.5 815.763 1247.32C815.811 1247.15 815.859 1246.98 815.907 1246.81L817.467 1241.43H818.463L820.071 1246.84C820.127 1247.02 820.175 1247.2 820.215 1247.38C820.263 1247.56 820.307 1247.73 820.347 1247.9C820.387 1248.06 820.419 1248.22 820.443 1248.38C820.475 1248.53 820.503 1248.68 820.527 1248.81C820.551 1248.62 820.579 1248.42 820.611 1248.21C820.651 1248 820.699 1247.79 820.755 1247.56C820.811 1247.33 820.871 1247.1 820.935 1246.86L822.327 1241.43H823.335Z" fill="#707070" id="n203"/>
<path d="M918.369 1060.28C919.167 1059.16 920.826 1059.16 921.624 1060.28L937.05 1081.88C931.445 1081.3 925.757 1081 920 1081C914.24 1081 908.549 1081.3 902.941 1081.88L918.369 1060.28Z" fill="#BEBEBE" id="n204"/>
<path d="M817.469 1125.97L810.398 1133.04L811.577 1134.22L818.648 1127.15L821.005 1129.51L813.934 1136.58L815.112 1137.76L818.648 1134.22L821.005 1136.58L817.469 1140.11L828.076 1150.72L830.433 1148.36L835.147 1160.15L823.362 1155.43L825.718 1153.08L805.684 1133.04L815.112 1123.61L817.469 1125.97Z" fill="#2D548B" id="n207"/>
<path d="M817.469 1125.97L818.176 1126.68L818.883 1125.97L818.176 1125.26L817.469 1125.97ZM810.398 1133.04L809.691 1132.33L808.984 1133.04L809.691 1133.75L810.398 1133.04ZM811.577 1134.22L810.87 1134.93L811.577 1135.63L812.284 1134.93L811.577 1134.22ZM818.648 1127.15L819.355 1126.44L818.648 1125.73L817.941 1126.44L818.648 1127.15ZM821.005 1129.51L821.712 1130.21L822.419 1129.51L821.712 1128.8L821.005 1129.51ZM813.934 1136.58L813.227 1135.87L812.52 1136.58L813.227 1137.28L813.934 1136.58ZM815.112 1137.76L814.405 1138.46L815.112 1139.17L815.82 1138.46L815.112 1137.76ZM818.648 1134.22L819.355 1133.51L818.648 1132.81L817.941 1133.51L818.648 1134.22ZM821.005 1136.58L821.712 1137.28L822.419 1136.58L821.712 1135.87L821.005 1136.58ZM817.469 1140.11L816.762 1139.4L816.055 1140.11L816.762 1140.82L817.469 1140.11ZM828.076 1150.72L827.369 1151.43L828.076 1152.13L828.783 1151.43L828.076 1150.72ZM830.433 1148.36L831.361 1147.99L830.798 1146.58L829.726 1147.65L830.433 1148.36ZM835.147 1160.15L834.776 1161.08L836.942 1161.94L836.075 1159.78L835.147 1160.15ZM823.362 1155.43L822.655 1154.73L821.582 1155.8L822.99 1156.36L823.362 1155.43ZM825.718 1153.08L826.426 1153.78L827.133 1153.08L826.426 1152.37L825.718 1153.08ZM805.684 1133.04L804.977 1132.33L804.27 1133.04L804.977 1133.75L805.684 1133.04ZM815.112 1123.61L815.82 1122.91L815.112 1122.2L814.405 1122.91L815.112 1123.61ZM817.469 1125.97L816.762 1125.26L809.691 1132.33L810.398 1133.04L811.105 1133.75L818.176 1126.68L817.469 1125.97ZM810.398 1133.04L809.691 1133.75L810.87 1134.93L811.577 1134.22L812.284 1133.51L811.105 1132.33L810.398 1133.04ZM811.577 1134.22L812.284 1134.93L819.355 1127.86L818.648 1127.15L817.941 1126.44L810.87 1133.51L811.577 1134.22ZM818.648 1127.15L817.941 1127.86L820.298 1130.21L821.005 1129.51L821.712 1128.8L819.355 1126.44L818.648 1127.15ZM821.005 1129.51L820.298 1128.8L813.227 1135.87L813.934 1136.58L814.641 1137.28L821.712 1130.21L821.005 1129.51ZM813.934 1136.58L813.227 1137.28L814.405 1138.46L815.112 1137.76L815.82 1137.05L814.641 1135.87L813.934 1136.58ZM815.112 1137.76L815.82 1138.46L819.355 1134.93L818.648 1134.22L817.941 1133.51L814.405 1137.05L815.112 1137.76ZM818.648 1134.22L817.941 1134.93L820.298 1137.28L821.005 1136.58L821.712 1135.87L819.355 1133.51L818.648 1134.22ZM821.005 1136.58L820.298 1135.87L816.762 1139.4L817.469 1140.11L818.176 1140.82L821.712 1137.28L821.005 1136.58ZM817.469 1140.11L816.762 1140.82L827.369 1151.43L828.076 1150.72L828.783 1150.01L818.176 1139.4L817.469 1140.11ZM828.076 1150.72L828.783 1151.43L831.14 1149.07L830.433 1148.36L829.726 1147.65L827.369 1150.01L828.076 1150.72ZM830.433 1148.36L829.504 1148.73L834.218 1160.52L835.147 1160.15L836.075 1159.78L831.361 1147.99L830.433 1148.36ZM835.147 1160.15L835.518 1159.22L823.733 1154.5L823.362 1155.43L822.99 1156.36L834.776 1161.08L835.147 1160.15ZM823.362 1155.43L824.069 1156.14L826.426 1153.78L825.718 1153.08L825.011 1152.37L822.655 1154.73L823.362 1155.43ZM825.718 1153.08L826.426 1152.37L806.391 1132.33L805.684 1133.04L804.977 1133.75L825.011 1153.78L825.718 1153.08ZM805.684 1133.04L806.391 1133.75L815.82 1124.32L815.112 1123.61L814.405 1122.91L804.977 1132.33L805.684 1133.04ZM815.112 1123.61L814.405 1124.32L816.762 1126.68L817.469 1125.97L818.176 1125.26L815.82 1122.91L815.112 1123.61Z" fill="#F7F7F7" mask="url(#path-153-outside-6_68_6728)" id="n208"/>
<path d="M889.687 1305.98L919.35 1195.28C924.692 1175.34 938.314 1176.66 938.314 1176.66C938.314 1176.66 950.772 1182.33 945.43 1202.26L915.767 1312.97C915.481 1314.04 914.384 1314.67 913.317 1314.38L911.989 1314.03L892.429 1308.79L891.101 1308.43C890.034 1308.14 889.401 1307.05 889.687 1305.98Z" fill="white" stroke="#8E8E8E" id="n209"/>
<path d="M931.572 1187.71C933.415 1188.75 934.615 1190.65 934.748 1192.77L935.308 1201.65L931.35 1193.68C930.406 1191.77 930.495 1189.53 931.572 1187.71Z" fill="#8E8E8E" stroke="#8E8E8E" id="n211"/>
<path d="M925.36 1210.89C927.203 1211.93 928.403 1213.83 928.536 1215.95L929.096 1224.83L925.138 1216.86C924.195 1214.95 924.283 1212.71 925.36 1210.89Z" fill="#8E8E8E" stroke="#8E8E8E" id="n212"/>
<path d="M919.149 1234.07C920.992 1235.11 922.192 1237.01 922.325 1239.13L922.885 1248.02L918.928 1240.04C917.984 1238.14 918.072 1235.89 919.149 1234.07Z" fill="#8E8E8E" stroke="#8E8E8E" id="n213"/>
<path d="M912.937 1257.25C914.78 1258.29 915.98 1260.19 916.113 1262.31L916.674 1271.2L912.716 1263.22C911.772 1261.32 911.86 1259.07 912.937 1257.25Z" fill="#8E8E8E" stroke="#8E8E8E" id="n214"/>
</g>
</svg>
