<?xml version='1.0' encoding='utf-8'?>
<svg xmlns="http://www.w3.org/2000/svg" xmlns:xlink="http://www.w3.org/1999/xlink" width="384.0" height="384.0" viewBox="0 0 384.0 384.0" fill="none">
  <defs><clipPath id="clip__asset"><rect x="0" y="0" width="384.0" height="384.0"/></clipPath><mask id="mask262_68_6728" style="mask-type:alpha" maskUnits="userSpaceOnUse" x="14955" y="1698" width="26" height="513">
<path d="M14956 1835H14967.2C14971.7 1835 14973.9 1835 14975.6 1835.87C14977.1 1836.64 14978.4 1837.86 14979.1 1839.37C14980 1841.08 14980 1843.32 14980 1847.8V2110.2C14980 2114.68 14980 2116.92 14979.1 2118.63C14978.4 2120.14 14977.1 2121.36 14975.6 2122.13C14973.9 2123 14971.7 2123 14967.2 2123H14956V1835Z" fill="white" stroke="black" id="n2441"/>
</mask>
<mask id="mask263_68_6728" style="mask-type:luminance" maskUnits="userSpaceOnUse" x="14556" y="1699" width="512" height="512">
<rect x="14644" y="1787" width="336" height="336" rx="8" fill="white" stroke="black" id="n2445"/>
</mask>
<mask id="mask264_68_6728" style="mask-type:luminance" maskUnits="userSpaceOnUse" x="14556" y="1699" width="512" height="513">
<rect x="14644" y="1787" width="336" height="336" rx="8" fill="white" stroke="black" id="n2452"/>
</mask>
<clipPath id="clip153_68_6728">
<rect width="312" height="336" fill="white" transform="translate(14644 1787)" id="n2932"/>
</clipPath>
<clipPath id="clip154_68_6728">
<rect width="336" height="96" fill="white" transform="translate(14644 1787)" id="n2933"/>
</clipPath>
</defs>
  <g clip-path="url(#clip__asset)" transform="translate(-14620.0 -1763.0)"><path d="M14644 1847.8C14644 1843.32 14644 1841.08 14644.9 1839.37C14645.6 1837.86 14646.9 1836.64 14648.4 1835.87C14650.1 1835 14652.3 1835 14656.8 1835H14967.2C14971.7 1835 14973.9 1835 14975.6 1835.87C14977.1 1836.64 14978.4 1837.86 14979.1 1839.37C14980 1841.08 14980 1843.32 14980 1847.8V2110.2C14980 2114.68 14980 2116.92 14979.1 2118.63C14978.4 2120.14 14977.1 2121.36 14975.6 2122.13C14973.9 2123 14971.7 2123 14967.2 2123H14656.8C14652.3 2123 14650.1 2123 14648.4 2122.13C14646.9 2121.36 14645.6 2120.14 14644.9 2118.63C14644 2116.92 14644 2114.68 14644 2110.2V1847.8Z" fill="white" stroke="white" id="n2437"/>
<path d="M14644 1847.8C14644 1843.32 14644 1841.08 14644.9 1839.37C14645.6 1837.86 14646.9 1836.64 14648.4 1835.87C14650.1 1835 14652.3 1835 14656.8 1835H14956V2123H14656.8C14652.3 2123 14650.1 2123 14648.4 2122.13C14646.9 2121.36 14645.6 2120.14 14644.9 2118.63C14644 2116.92 14644 2114.68 14644 2110.2V1847.8Z" fill="white" stroke="white" id="n2438"/>
<path d="M14644 1847.8C14644 1843.32 14644 1841.08 14644.9 1839.37C14645.6 1837.86 14646.9 1836.64 14648.4 1835.87C14650.1 1835 14652.3 1835 14656.8 1835H14967.2C14971.7 1835 14973.9 1835 14975.6 1835.87C14977.1 1836.64 14978.4 1837.86 14979.1 1839.37C14980 1841.08 14980 1843.32 14980 1847.8V2110.2C14980 2114.68 14980 2116.92 14979.1 2118.63C14978.4 2120.14 14977.1 2121.36 14975.6 2122.13C14973.9 2123 14971.7 2123 14967.2 2123H14656.8C14652.3 2123 14650.1 2123 14648.4 2122.13C14646.9 2121.36 14645.6 2120.14 14644.9 2118.63C14644 2116.92 14644 2114.68 14644 2110.2V1847.8Z" stroke="#BEBEBE" id="n2439"/>
<path d="M14980 1835V1799.8C14980 1795.32 14980 1793.08 14979.1 1791.37C14978.4 1789.86 14977.1 1788.64 14975.6 1787.87C14973.9 1787 14971.7 1787 14967.2 1787H14656.8C14652.3 1787 14650.1 1787 14648.4 1787.87C14646.9 1788.64 14645.6 1789.86 14644.9 1791.37C14644 1793.08 14644 1795.32 14644 1799.8V1835" stroke="#BEBEBE" stroke-linecap="round" id="n2440"/>
<g mask="url(#mask262_68_6728)" id="n2442">
<path d="M14968 1979L14960 1979M14968 2007.8L14960 2007.8M14968 2036.6L14960 2036.6M14968 2065.4L14960 2065.4M14968 2094.2L14960 2094.2M14968 2123L14960 2123M14968 1950.2L14960 1950.2M14968 1921.4L14960 1921.4M14968 1892.6L14960 1892.6M14968 1863.8L14960 1863.8M14968 1835L14960 1835" stroke="#BEBEBE" id="n2443"/>
<path d="M14984 1979L14960 1979M14984 2123L14960 2123M14984 1835L14960 1835" stroke="#BEBEBE" id="n2444"/>
</g>
<g mask="url(#mask263_68_6728)" id="n2446">
<g clip-path="url(#clip153_68_6728)" id="n2447">
<path fill-rule="evenodd" clip-rule="evenodd" d="M14600.9 1861.91C14600.9 1864.47 14600.7 1866.57 14600.5 1866.57C14599.7 1866.57 14599.5 1864.91 14599.7 1860.9C14600 1855.65 14600.9 1856.42 14600.9 1861.91ZM14600.6 1886.79C14600.8 1888.63 14601.2 1904.54 14601.5 1922.14C14601.8 1939.74 14602.2 1957.8 14602.4 1962.28C14602.7 1970.03 14602.7 1976.14 14602.5 1979.01C14602.1 1986.38 14603.1 2035.33 14603.9 2040.25C14605.2 2049.57 14605.1 2051.6 14603.1 2051.6C14601.6 2051.6 14601.5 2051.45 14601.5 2049.42C14601.5 2048.22 14601.4 2044.75 14601.2 2041.71C14601.1 2038.67 14600.9 2020.08 14600.7 2000.4C14600.3 1957.3 14600.1 1951.52 14598.8 1951.52C14598 1951.52 14597.8 1950.56 14597.2 1945.85C14596.1 1935.7 14595.4 1931.48 14594.6 1929.48C14593.5 1926.64 14593.1 1927.67 14593.3 1932.93C14593.4 1935.98 14593.2 1937.56 14592.9 1937.56C14592.5 1937.56 14592.3 1936.34 14592.3 1934.6C14592.3 1931.18 14590.7 1930.59 14590 1933.78C14589.8 1934.74 14589.7 1930.81 14589.6 1925.05C14589.6 1915.07 14589.6 1914.44 14590.9 1911.66C14591.7 1909.87 14592.1 1908.23 14591.9 1907.4C14591.7 1906.36 14592 1905.63 14593.3 1904.34C14595.9 1901.79 14596.6 1902.29 14596.6 1906.77C14596.6 1908.02 14596.8 1909.04 14597.1 1909.04C14597.7 1909.04 14598.2 1902.97 14598.2 1894.5C14598.2 1884.68 14599.9 1879.25 14600.6 1886.79ZM14750.3 1917.92C14750.4 1918.64 14750.7 1924.33 14750.9 1930.57C14752 1975.39 14754.5 1991.8 14757.5 1974.17C14757.9 1972.39 14758.7 1969.4 14759.5 1967.54C14760.3 1965.67 14761.3 1962.66 14761.7 1960.83C14762.4 1957.76 14763.6 1954.73 14765.6 1950.79C14767.1 1947.65 14769.5 1949.24 14771 1954.37C14772.1 1958.55 14773 1957.93 14773.4 1952.64C14774.1 1944.42 14776.3 1936.3 14777.9 1935.62C14780.7 1934.48 14784.7 1941.26 14784.7 1946.99C14784.7 1947.85 14785 1948.7 14785.3 1948.9C14785.6 1949.1 14785.8 1950.23 14785.8 1951.43C14785.8 1952.62 14786.2 1954.17 14786.7 1954.89C14787.1 1955.6 14788.1 1959.88 14788.8 1964.38C14790.6 1975.54 14792.1 1980.15 14794.5 1981.36C14795.3 1981.81 14796.1 1982.9 14796.5 1984.4C14800.2 1997.52 14800.7 1998.65 14802.7 1998.65C14803.2 1998.65 14805.1 2000.23 14806.9 2002.16C14811.1 2006.65 14813.2 2007.62 14818.1 2007.38C14829.6 2006.81 14829.6 2006.83 14835.2 2014.08C14838.4 2018.23 14842.2 2021.34 14844.1 2021.34C14844.6 2021.34 14845.2 2021.86 14845.3 2022.49C14845.9 2024.8 14852.5 2028.65 14853.3 2027.16C14853.5 2026.84 14854.1 2026.58 14854.5 2026.58C14855 2026.58 14856.1 2025.92 14857 2025.12C14857.8 2024.32 14859.1 2023.67 14859.8 2023.67C14860.4 2023.67 14861.3 2023.38 14861.6 2023.02C14862 2022.54 14862.9 2022.56 14865 2023.1C14869.5 2024.24 14869.9 2023.39 14869.9 2013.14C14869.9 2007.58 14870.1 2004.39 14870.6 2002.88C14871.1 2001.67 14871.6 1998.2 14871.7 1995.16C14872.4 1982.96 14872.8 1978.87 14873.2 1978.87C14873.5 1978.87 14873.7 1979.06 14873.7 1979.3C14873.7 1981.76 14875.6 1990.25 14876.7 1992.62C14877.4 1994.28 14878.5 1997.04 14879 1998.75C14880.2 2002.41 14881.9 2003.12 14884.6 2001.02C14885.4 2000.36 14886.7 1999.81 14887.4 1999.81C14889.2 1999.81 14891.4 1997.3 14891.8 1994.7C14894.6 1978.19 14899.2 1978.17 14901.6 1994.65C14902 1997.65 14902.9 2004.03 14903.7 2008.83C14904.4 2013.63 14905.3 2019.95 14905.6 2022.87C14907.7 2040.32 14909.8 2038.6 14910.6 2018.72C14911.4 1999.04 14911.9 1992.93 14912.9 1991.75C14913.4 1991.19 14914 1989.7 14914.2 1988.44C14914.8 1985.6 14916 1985.42 14916.8 1988.07C14917.5 1990.49 14918.2 1990.65 14919.1 1988.61C14919.8 1986.99 14921.7 1986.43 14922.1 1987.7C14922.5 1989.16 14923.6 1987.41 14923.6 1985.2C14923.6 1983.92 14923.9 1981.13 14924.3 1978.98C14924.7 1976.84 14925.4 1973.12 14925.7 1970.72C14926.7 1963.91 14927.2 1963.33 14928.8 1966.94C14929.3 1968.06 14929.9 1968.98 14930.2 1968.98C14931.4 1968.98 14934.5 1958.3 14935.5 1950.98C14935.8 1948.92 14936.3 1946.97 14936.6 1946.64C14936.9 1946.32 14937.1 1945.19 14937.1 1944.13C14937.1 1938.81 14940.1 1943.18 14940.6 1949.19C14940.9 1953.64 14942.3 1964.95 14943.1 1970.72C14943.8 1975.51 14944.7 1983.13 14945.3 1989.34C14946.4 2001.29 14946.5 2001.49 14948.5 1999.48C14949.4 1998.64 14949.6 1998.64 14950.8 1999.49C14952.1 2000.39 14952.2 2000.35 14954 1998.59L14955.8 1996.74L14956 2002.96C14956.2 2010.89 14955.5 2012.29 14951.1 2012.8C14949.5 2012.99 14947.6 2013.31 14946.8 2013.52C14945.5 2013.86 14945.3 2013.7 14944.7 2011.66C14943.7 2007.56 14941.5 1989.17 14940.3 1974.5C14940 1970.34 14939.6 1966.33 14939.5 1965.59C14939.2 1963.88 14938 1964.24 14937.7 1966.11C14937.6 1966.89 14937.3 1967.79 14937.1 1968.11C14936.9 1968.43 14936.5 1970.4 14936.3 1972.47C14936 1975.47 14935.5 1976.9 14933.9 1979.39C14932.8 1981.11 14931.7 1983.03 14931.3 1983.64C14931 1984.26 14930.1 1985.46 14929.4 1986.32C14927.2 1988.86 14926.9 1989.93 14926.2 1998.12C14925.6 2006.06 14925.2 2007.38 14923.1 2007.38C14922.6 2007.38 14921.9 2007.77 14921.4 2008.24C14920.3 2009.31 14918.4 2008.11 14917.6 2005.86C14916.9 2004.01 14916.1 2004.1 14915.6 2006.07C14915.5 2006.95 14915.1 2008.59 14914.9 2009.71C14914.6 2010.83 14914.3 2014.88 14914.1 2018.72C14913.9 2022.56 14913.5 2028.19 14913.2 2031.23C14912.9 2034.27 14912.4 2039.09 14912.2 2041.93C14911.6 2047.81 14911.2 2048.69 14909.3 2047.4C14906.4 2045.33 14904.8 2038.78 14902.1 2017.27C14901.2 2010.39 14899 2002.2 14897.9 2001.43C14896.6 2000.55 14895.9 2001 14895.9 2002.7C14895.9 2004.58 14889.7 2011.72 14888.5 2011.22C14888.2 2011.09 14886.9 2011.49 14885.5 2012.12C14883.9 2012.91 14882.3 2013.22 14880.4 2013.09L14877.7 2012.91L14877.6 2016.98C14877.4 2021.78 14876.4 2023.67 14876.4 2019.23C14876.4 2015.97 14876 2015.22 14874.9 2016.18C14874.5 2016.57 14874.2 2018.02 14874.2 2019.79C14874.2 2023.87 14872.6 2037.22 14872 2037.87C14871.7 2038.19 14871.1 2037.86 14870.5 2037.08C14868.5 2034.42 14860.4 2034.94 14857.4 2037.91C14855.9 2039.42 14853.6 2039.3 14848.7 2037.43C14847.4 2036.92 14845.6 2036.36 14844.8 2036.18C14843.9 2036 14843.1 2035.4 14842.9 2034.85C14842.7 2034.3 14841.5 2032.85 14840.2 2031.62C14838.9 2030.39 14837.9 2029.08 14837.9 2028.71C14837.9 2028.34 14837.1 2027.08 14836.1 2025.91C14835.1 2024.73 14833.7 2022.87 14832.9 2021.77C14832.1 2020.67 14830.5 2019.33 14829.4 2018.78C14828.2 2018.24 14826.9 2017.53 14826.3 2017.21C14825.6 2016.81 14825.1 2016.82 14824.6 2017.25C14824.2 2017.59 14823.6 2017.72 14823.1 2017.53C14822.6 2017.34 14822.1 2017.47 14821.9 2017.81C14821.3 2018.82 14813.7 2018.6 14812.9 2017.56C14812.6 2017.08 14811.7 2016.68 14811.1 2016.67C14810.5 2016.66 14809.5 2016.27 14808.9 2015.8C14808.3 2015.33 14807.4 2014.94 14806.9 2014.94C14806.3 2014.94 14805.9 2014.73 14805.9 2014.47C14805.9 2013.85 14799.1 2008.63 14797.4 2007.94C14796.5 2007.56 14796.1 2006.96 14796.1 2005.79C14796.1 2004.9 14795.4 2002.74 14794.5 2000.98C14789.2 1990.39 14788.4 1988.16 14788 1983.49C14787.4 1977.96 14787.1 1976.75 14786.1 1976.32C14785.6 1976.14 14785.3 1975.4 14785.3 1974.67C14785.3 1973.94 14784.9 1972.16 14784.5 1970.72C14784.1 1969.28 14783.6 1966.59 14783.4 1964.74C14783.2 1962.65 14782.7 1960.99 14782 1960.37C14781.5 1959.83 14780.7 1957.94 14780.3 1956.18C14779.4 1952.05 14777.7 1951.61 14777 1955.3C14776.8 1956.58 14776.3 1958.81 14776 1960.25C14775.7 1961.69 14775.4 1963.91 14775.2 1965.19C14774.3 1972.59 14773.1 1973.69 14771 1969.09C14769.9 1966.73 14768.7 1965.48 14767.7 1965.48C14767.2 1965.48 14763.6 1972.54 14763.6 1973.46C14763.6 1974.06 14763.3 1974.84 14763 1975.18C14762.7 1975.52 14762.1 1977.34 14761.7 1979.23C14759.7 1989.17 14756 1995.33 14753.8 1992.52C14752.3 1990.6 14751.1 1981.39 14750 1965.05C14748.9 1948.61 14747.7 1952.59 14746.6 1975.96C14746.2 1983.33 14744 2009.27 14743.7 2010.29C14743.5 2010.77 14743.3 2014.96 14743.3 2019.6C14743.2 2025.82 14742.9 2028.7 14742.3 2030.58C14741.8 2031.98 14741.4 2033.99 14741.4 2035.06C14741.4 2036.12 14741.1 2037.15 14740.8 2037.34C14740.5 2037.54 14740.3 2038.67 14740.2 2039.85C14740.1 2045.22 14737.9 2051.29 14736 2051.49C14733.8 2051.72 14732.2 2050.28 14732.2 2048.2C14732.2 2047.39 14731.7 2044.75 14731.1 2042.33C14730.2 2038.55 14728.7 2030.85 14727.5 2023.72C14727.3 2022.63 14726.7 2020.92 14726.1 2019.94C14725.6 2018.95 14725.1 2017.53 14725.1 2016.78C14725.1 2016.02 14724.8 2014.58 14724.4 2013.58C14724 2012.57 14723.3 2010.96 14723 2010C14722.6 2009.03 14722.2 2004.51 14722 1999.82C14721.9 1995.18 14721.7 1990.77 14721.5 1990.03C14721.1 1987.87 14720 1988.9 14719.7 1991.71C14719.4 1994.12 14719.3 1994.29 14717.5 1994.6C14715.1 1995.02 14714.3 1995.56 14714.3 1996.7C14714.3 1997.97 14710 2002.72 14708 2003.62C14707.1 2004.04 14706 2005.12 14705.6 2006.03C14705.1 2006.93 14704 2008.7 14703 2009.96C14702 2011.21 14701.2 2012.46 14701.2 2012.73C14701.2 2013 14700.6 2014.26 14699.9 2015.52C14699.1 2016.79 14698.5 2018.36 14698.5 2019C14698.5 2020.26 14697.7 2020.62 14697.3 2019.52C14697.2 2019.03 14696.6 2019.04 14695.3 2019.57C14692.9 2020.48 14690.4 2019.61 14690.4 2017.87C14690.4 2017.22 14690.1 2016.69 14689.7 2016.69C14689.3 2016.69 14688.3 2015.9 14687.5 2014.94C14686.7 2013.98 14685.8 2013.2 14685.5 2013.2C14685.2 2013.2 14685 2012.83 14685 2012.38C14685 2011.93 14683.9 2010.88 14682.6 2010.04C14680.7 2008.84 14680.1 2008.12 14679.9 2006.64C14678.8 1998.62 14678.5 1994.32 14678.4 1986.72C14678.4 1980.11 14678.1 1977.66 14677.5 1976.6L14676.7 1975.2L14675.5 1978.12C14674.1 1981.23 14674 1982.55 14673 2000.69C14672.3 2014.46 14671.7 2017.27 14669.2 2017.27C14668.3 2017.27 14666 2021.14 14666 2022.77C14666 2026.25 14656.9 2032.36 14655.5 2029.78C14655.2 2029.14 14654.6 2028.4 14654.2 2028.15C14653.8 2027.89 14653 2027.11 14652.4 2026.42C14651.4 2025.22 14648.1 2023.92 14644.4 2023.27C14642.5 2022.93 14641.7 2024.2 14640.8 2028.91C14640.6 2030.03 14640.1 2031.34 14639.7 2031.83C14639.3 2032.31 14638.7 2034.44 14638.4 2036.55C14637.7 2041.22 14636.7 2044.51 14634.7 2048.54L14633.2 2051.6L14630.1 2051.6C14627.3 2051.6 14627 2051.47 14627 2050.42C14627 2048.27 14628.4 2045.37 14630.3 2043.82C14633 2041.62 14635 2035.98 14636.5 2025.95C14636.9 2023.03 14637.5 2020.15 14637.8 2019.55C14638.1 2018.95 14638.7 2015.82 14639.2 2012.59C14640.2 2005.02 14642.1 2001.81 14643 2006.07C14644 2011.15 14645.6 2013.78 14647.6 2013.78C14648.1 2013.78 14648.7 2014.04 14648.9 2014.36C14649.1 2014.68 14649.7 2014.94 14650.1 2014.94C14650.6 2014.94 14652.3 2016.38 14653.8 2018.14C14658.1 2023.08 14662.2 2021.44 14662.2 2014.8C14662.2 2014.08 14662.6 2012.79 14663 2011.94C14663.4 2011.08 14663.9 2009.31 14664.1 2008C14664.4 2006.02 14666.2 2003.79 14667 2004.37C14667.5 2004.73 14668.1 2004.32 14668.4 2003.45C14668.6 2002.89 14669.2 2001.63 14669.7 2000.65C14670.6 1999.1 14670.8 1997.16 14671.1 1985.81C14671.3 1978.63 14671.7 1971.58 14672 1970.14C14672.3 1968.7 14672.8 1965.05 14673.1 1962.03C14674 1954.23 14677.2 1948.62 14677.8 1953.85C14677.9 1954.65 14678.4 1956.15 14678.8 1957.19C14679.4 1958.52 14679.8 1962.75 14680.1 1971.45C14680.4 1978.25 14680.9 1985.57 14681.2 1987.71C14681.5 1989.85 14681.7 1992.69 14681.7 1994.02C14681.7 1996.96 14683 2000.12 14684.8 2001.45C14685.5 2001.99 14687.3 2003.68 14688.8 2005.2C14692.9 2009.47 14696.8 2007.91 14699.8 2000.84C14700.3 1999.65 14701.7 1997.45 14702.9 1995.96C14704.1 1994.47 14705.5 1992.63 14706 1991.88C14706.4 1991.12 14707.1 1990.5 14707.5 1990.5C14707.9 1990.5 14708.8 1989.26 14709.5 1987.74C14710.4 1985.71 14711.1 1984.93 14712.1 1984.78C14714.3 1984.46 14716.3 1982 14716.7 1978.96C14716.9 1977.47 14717.4 1975.37 14717.8 1974.29C14718.3 1973.21 14718.6 1971.74 14718.6 1971.03C14718.6 1969.33 14720.4 1967.67 14721.9 1967.91C14723.6 1968.17 14723.9 1970.15 14723.7 1978.69C14723.4 1988.46 14726 2006.57 14728.1 2009.12C14728.5 2009.6 14728.9 2011.57 14729 2013.49C14729.2 2015.41 14729.7 2018.94 14730.2 2021.33C14730.7 2023.72 14731.6 2028.43 14732.1 2031.8C14733.5 2040.35 14734.5 2042.7 14735.9 2040.91C14737 2039.41 14741.2 2013.1 14741.9 2003.01C14742.2 1998.85 14742.5 1994.66 14742.7 1993.7C14743 1992 14743.8 1981.04 14744.6 1965.78C14745.3 1954.34 14746.1 1945.59 14747.3 1937.69C14748 1933.4 14748.4 1927.77 14748.4 1923.58C14748.4 1916.71 14749.3 1914.09 14750.3 1917.92ZM14759.3 1924.46C14759.3 1925.26 14759 1925.92 14758.7 1925.92C14758.4 1925.92 14758.2 1925.26 14758.2 1924.46C14758.2 1923.66 14758.4 1923.01 14758.7 1923.01C14759 1923.01 14759.3 1923.66 14759.3 1924.46ZM14593.3 1943.67C14593.3 1945.11 14593.1 1946.28 14592.8 1946.28C14592.5 1946.28 14592.3 1945.11 14592.3 1943.67C14592.3 1942.23 14592.5 1941.05 14592.8 1941.05C14593.1 1941.05 14593.3 1942.23 14593.3 1943.67ZM14877.2 2023.01C14877.4 2023.42 14877.4 2023.9 14877.2 2024.1C14876.8 2024.62 14876.2 2023.85 14876.5 2023.01C14876.7 2022.42 14876.8 2022.42 14877.2 2023.01ZM14942 2032.11C14942 2036.96 14941.8 2039.96 14941.4 2039.96C14941.1 2039.96 14940.9 2036.96 14940.9 2032.11C14940.9 2027.26 14941.1 2024.25 14941.4 2024.25C14941.8 2024.25 14942 2027.26 14942 2032.11ZM14775.5 2031.53C14775.5 2032.97 14775.3 2034.14 14775 2034.14C14774.7 2034.14 14774.4 2032.97 14774.4 2031.53C14774.4 2030.09 14774.7 2028.91 14775 2028.91C14775.3 2028.91 14775.5 2030.09 14775.5 2031.53ZM14722.4 2036.47C14722.4 2039.57 14722.2 2041.71 14721.9 2041.71C14721.5 2041.71 14721.3 2039.57 14721.3 2036.47C14721.3 2033.37 14721.5 2031.23 14721.9 2031.23C14722.2 2031.23 14722.4 2033.37 14722.4 2036.47ZM14823.2 2036.76C14823.2 2037.56 14823 2038.22 14822.7 2038.22C14822.4 2038.22 14822.2 2037.56 14822.2 2036.76C14822.2 2035.96 14822.4 2035.31 14822.7 2035.31C14823 2035.31 14823.2 2035.96 14823.2 2036.76ZM14775.5 2039.38C14775.5 2039.7 14775.3 2039.96 14775 2039.96C14774.7 2039.96 14774.4 2039.7 14774.4 2039.38C14774.4 2039.06 14774.7 2038.8 14775 2038.8C14775.3 2038.8 14775.5 2039.06 14775.5 2039.38ZM14688.2 2041.71C14688.2 2042.67 14688 2043.45 14687.7 2043.45C14687.4 2043.45 14687.1 2042.67 14687.1 2041.71C14687.1 2040.75 14687.4 2039.96 14687.7 2039.96C14688 2039.96 14688.2 2040.75 14688.2 2041.71ZM14640.5 2046.36C14640.5 2049.47 14640.3 2051.6 14640 2051.6C14639.7 2051.6 14639.4 2049.47 14639.4 2046.36C14639.4 2043.26 14639.7 2041.13 14640 2041.13C14640.3 2041.13 14640.5 2043.26 14640.5 2046.36ZM14676.3 2048.98C14676.3 2050.42 14676.1 2051.6 14675.8 2051.6C14675.5 2051.6 14675.2 2050.42 14675.2 2048.98C14675.2 2047.54 14675.5 2046.36 14675.8 2046.36C14676.1 2046.36 14676.3 2047.54 14676.3 2048.98ZM14600.4 2046.94C14600.4 2047.26 14600.2 2047.53 14599.9 2047.53C14599.6 2047.53 14599.3 2047.26 14599.3 2046.94C14599.3 2046.62 14599.6 2046.36 14599.9 2046.36C14600.2 2046.36 14600.4 2046.62 14600.4 2046.94Z" fill="#9CC1F5" id="n2448"/>
<path d="M14956 1997.19C14956 1997.19 14950.1 2006.08 14947.2 1999.29C14944.2 1992.49 14940.8 1944.92 14937.8 1944.92C14934.9 1944.92 14934.4 1966.19 14929.5 1969.49C14924.6 1972.79 14922.4 1992.49 14920.7 1992.49C14916.7 1992.49 14916.2 1986.74 14914.3 1986.74C14912.3 1986.74 14910.8 2035.35 14907.9 2035.35C14905 2035.35 14900 1983.08 14896.6 1983.08C14895 1983.08 14892.2 1999.29 14888.8 1999.29C14885.3 1999.29 14882.9 2000.85 14881.4 2000.85C14878.4 2000.85 14876 1982.04 14873 1982.04C14870.1 1982.04 14871.1 2022.29 14867.6 2022.29C14864.2 2022.29 14856.8 2026.47 14850.5 2026.47C14844.1 2026.47 14838.7 2017.06 14833.8 2011.83C14828.9 2006.6 14823 2008.17 14816.1 2008.17C14809.2 2008.17 14807.3 2004.51 14801.4 1998.24C14798.7 1995.38 14796 1982.04 14792.1 1979.94C14788.1 1977.85 14781.2 1935.51 14779.3 1935.51C14775.9 1935.51 14775.4 1957.99 14771.9 1957.99C14768.5 1957.99 14768.5 1950.15 14765.1 1950.15C14761.6 1950.15 14760.2 1981.51 14755.7 1981.51C14751.3 1981.51 14752.8 1921.4 14748.9 1921.4C14744.9 1921.4 14740 2042.15 14735.6 2042.15C14731.2 2042.15 14732.7 2012.35 14728.2 2012.35C14723.8 2012.35 14725.8 1971.06 14721.4 1971.06C14719.3 1971.06 14712 1993.01 14706.2 1993.01C14700.3 1993.01 14696.5 2008.17 14693.9 2008.17C14689 2008.17 14688.5 2006.6 14683.1 2000.85C14677.7 1995.1 14679.2 1954.85 14676.2 1954.85C14673.3 1954.85 14673.8 2003.99 14668.4 2003.99C14663 2003.99 14664.4 2021.76 14659 2021.76C14653.6 2021.76 14644.8 2008.17 14639.9 2008.17" stroke="#2D548B" stroke-width="2" stroke-linecap="square" id="n2449"/>
</g>
</g>
<circle cx="14964" cy="1993" r="6.5" fill="#2D548B" stroke="#F7F7F7" id="n2450"/>
<g clip-path="url(#clip154_68_6728)" id="n2451">
<mask id="mask264_68_6728" style="mask-type:luminance" maskUnits="userSpaceOnUse" x="14556" y="1699" width="512" height="513">
<rect x="14644" y="1787" width="336" height="336" rx="8" fill="white" stroke="black" id="n2452"/>
</mask>
<g mask="url(#mask264_68_6728)" id="n2453">
<path d="M14968.2 1839.27H14896.8V1836.82L14891.5 1835V1829.93H14939.6L14947.3 1822.14L14946.5 1819.47H14945.6L14946.5 1818.8H14948V1817.69H14948.5L14946.7 1811.9H14948L14951.1 1817.69C14953.2 1817.69 14955.3 1817.91 14957.3 1818.36L14962.3 1819.47H14961.1L14959.8 1822.14L14963.1 1825.48H14972C14972 1825.48 14970.3 1827.65 14969.4 1829.37C14968.6 1830.79 14967.6 1833.26 14967.6 1833.26L14969.9 1832.84C14971.3 1832.6 14972.5 1833.63 14972.5 1835C14972.5 1837.36 14970.6 1839.27 14968.2 1839.27Z" fill="white" id="n2454"/>
<path d="M14891.5 1835L14972.5 1835M14891.5 1835L14896.8 1836.82V1839.27H14968.2C14970.6 1839.27 14972.5 1837.36 14972.5 1835M14891.5 1835V1829.93H14939.6M14972.5 1835C14972.5 1833.63 14971.3 1832.6 14969.9 1832.84L14967.6 1833.26C14967.6 1833.26 14968.6 1830.79 14969.4 1829.37C14970.3 1827.65 14972 1825.48 14972 1825.48H14963.1M14939.6 1829.93H14942.4L14946.9 1825.48H14963.1M14939.6 1829.93L14947.3 1822.14M14947.3 1822.14H14959.8M14947.3 1822.14L14946.5 1819.47H14961.1L14959.8 1822.14M14959.8 1822.14L14963.1 1825.48M14951.1 1817.69L14948 1811.9H14946.7L14948.5 1817.69M14951.1 1817.69H14948.5M14951.1 1817.69C14953.2 1817.69 14955.3 1817.91 14957.3 1818.36L14962.3 1819.47H14945.6L14946.5 1818.8H14948V1817.69H14948.5" stroke="#8E8E8E" id="n2455"/>
</g>
</g>
</g>
</svg>
