<?xml version='1.0' encoding='utf-8'?>
<svg xmlns="http://www.w3.org/2000/svg" xmlns:xlink="http://www.w3.org/1999/xlink" width="384.0" height="384.0" viewBox="0 0 384.0 384.0" fill="none">
  <defs><clipPath id="clip__asset"><rect x="0" y="0" width="384.0" height="384.0"/></clipPath><mask id="mask96_68_6728" style="mask-type:alpha" maskUnits="userSpaceOnUse" x="7430" y="1910" width="26" height="512">
<path d="M7442.2 1998C7446.68 1998 7448.92 1998 7450.63 1998.87C7452.14 1999.64 7453.36 2000.86 7454.13 2002.37C7455 2004.08 7455 2006.32 7455 2010.8L7455 2321.2C7455 2325.68 7455 2327.92 7454.13 2329.63C7453.36 2331.14 7452.14 2332.36 7450.63 2333.13C7448.92 2334 7446.68 2334 7442.2 2334L7431 2334L7431 1998L7442.2 1998Z" fill="white" stroke="black" id="n531"/>
</mask>
<mask id="mask97_68_6728" style="mask-type:alpha" maskUnits="userSpaceOnUse" x="7118" y="1997" width="314" height="338">
<path d="M7119 2010.8C7119 2006.32 7119 2004.08 7119.87 2002.37C7120.64 2000.86 7121.86 1999.64 7123.37 1998.87C7125.08 1998 7127.32 1998 7131.8 1998H7431V2334H7131.8C7127.32 2334 7125.08 2334 7123.37 2333.13C7121.86 2332.36 7120.64 2331.14 7119.87 2329.63C7119 2327.92 7119 2325.68 7119 2321.2V2010.8Z" fill="white" stroke="black" id="n541"/>
</mask>
<clipPath id="clip14_68_6728">
<rect width="336" height="336" fill="white" transform="translate(7095 1998)" id="n1325"/>
</clipPath>
</defs>
  <g clip-path="url(#clip__asset)" transform="translate(-7095.0 -1974.0)"><path d="M7119 2010.8C7119 2006.32 7119 2004.08 7119.87 2002.37C7120.64 2000.86 7121.86 1999.64 7123.37 1998.87C7125.08 1998 7127.32 1998 7131.8 1998H7442.2C7446.68 1998 7448.92 1998 7450.63 1998.87C7452.14 1999.64 7453.36 2000.86 7454.13 2002.37C7455 2004.08 7455 2006.32 7455 2010.8V2321.2C7455 2325.68 7455 2327.92 7454.13 2329.63C7453.36 2331.14 7452.14 2332.36 7450.63 2333.13C7448.92 2334 7446.68 2334 7442.2 2334H7131.8C7127.32 2334 7125.08 2334 7123.37 2333.13C7121.86 2332.36 7120.64 2331.14 7119.87 2329.63C7119 2327.92 7119 2325.68 7119 2321.2V2010.8Z" fill="white" stroke="white" id="n528"/>
<path d="M7455 2166L7119 2166" stroke="#BEBEBE" stroke-linecap="square" id="n529"/>
<path d="M7119 2010.8C7119 2006.32 7119 2004.08 7119.87 2002.37C7120.64 2000.86 7121.86 1999.64 7123.37 1998.87C7125.08 1998 7127.32 1998 7131.8 1998H7442.2C7446.68 1998 7448.92 1998 7450.63 1998.87C7452.14 1999.64 7453.36 2000.86 7454.13 2002.37C7455 2004.08 7455 2006.32 7455 2010.8V2321.2C7455 2325.68 7455 2327.92 7454.13 2329.63C7453.36 2331.14 7452.14 2332.36 7450.63 2333.13C7448.92 2334 7446.68 2334 7442.2 2334H7131.8C7127.32 2334 7125.08 2334 7123.37 2333.13C7121.86 2332.36 7120.64 2331.14 7119.87 2329.63C7119 2327.92 7119 2325.68 7119 2321.2V2010.8Z" stroke="#BEBEBE" id="n530"/>
<g mask="url(#mask96_68_6728)" id="n532">
<path d="M7443 2166L7435 2166M7443 2182.8L7435 2182.8M7443 2199.6L7435 2199.6M7443 2216.4L7435 2216.4M7443 2233.2L7435 2233.2M7443 2250L7435 2250M7443 2266.8L7435 2266.8M7443 2283.6L7435 2283.6M7443 2300.4L7435 2300.4M7443 2317.2L7435 2317.2M7443 2334L7435 2334M7443 2149.2L7435 2149.2M7443 2132.4L7435 2132.4M7443 2115.6L7435 2115.6M7443 2098.8L7435 2098.8M7443 2082L7435 2082M7443 2065.2L7435 2065.2M7443 2048.4L7435 2048.4M7443 2031.6L7435 2031.6M7443 2014.8L7435 2014.8M7443 1998L7435 1998" stroke="#BEBEBE" id="n533"/>
<path d="M7459 2166L7435 2166M7459 2250L7435 2250M7459 2334L7435 2334M7459 2082L7435 2082M7459 1998L7435 1998" stroke="#BEBEBE" id="n534"/>
<path d="M7459 2166L7431 2166" stroke="#BEBEBE" id="n535"/>
</g>
<path d="M7467.4 2003H7466.48V1996.89C7466.48 1996.66 7466.48 1996.46 7466.48 1996.3C7466.48 1996.14 7466.49 1996 7466.49 1995.86C7466.5 1995.72 7466.5 1995.57 7466.51 1995.43C7466.39 1995.55 7466.28 1995.65 7466.18 1995.74C7466.07 1995.82 7465.94 1995.93 7465.79 1996.06L7464.78 1996.86L7464.29 1996.22L7466.61 1994.43H7467.4V2003ZM7476.32 1998.7C7476.32 1999.4 7476.26 2000.02 7476.15 2000.58C7476.05 2001.12 7475.88 2001.58 7475.66 2001.96C7475.43 2002.33 7475.14 2002.62 7474.78 2002.82C7474.42 2003.02 7473.99 2003.12 7473.49 2003.12C7472.86 2003.12 7472.34 2002.95 7471.91 2002.6C7471.5 2002.25 7471.19 2001.75 7470.98 2001.09C7470.78 2000.43 7470.68 1999.63 7470.68 1998.7C7470.68 1997.79 7470.77 1997.01 7470.95 1996.35C7471.14 1995.69 7471.44 1995.18 7471.85 1994.83C7472.27 1994.48 7472.81 1994.3 7473.49 1994.3C7474.13 1994.3 7474.67 1994.48 7475.08 1994.83C7475.5 1995.18 7475.81 1995.68 7476.01 1996.34C7476.21 1997 7476.32 1997.78 7476.32 1998.7ZM7471.63 1998.7C7471.63 1999.51 7471.69 2000.18 7471.81 2000.72C7471.93 2001.25 7472.13 2001.65 7472.41 2001.92C7472.68 2002.18 7473.04 2002.32 7473.49 2002.32C7473.93 2002.32 7474.29 2002.18 7474.57 2001.92C7474.84 2001.66 7475.04 2001.26 7475.17 2000.72C7475.29 2000.18 7475.36 1999.51 7475.36 1998.7C7475.36 1997.91 7475.29 1997.25 7475.17 1996.72C7475.05 1996.19 7474.85 1995.78 7474.58 1995.51C7474.31 1995.24 7473.95 1995.1 7473.49 1995.1C7473.03 1995.1 7472.67 1995.24 7472.39 1995.52C7472.12 1995.8 7471.93 1996.2 7471.81 1996.74C7471.69 1997.26 7471.63 1997.92 7471.63 1998.7ZM7483.19 1998.7C7483.19 1999.4 7483.13 2000.02 7483.02 2000.58C7482.91 2001.12 7482.75 2001.58 7482.53 2001.96C7482.3 2002.33 7482.01 2002.62 7481.65 2002.82C7481.29 2003.02 7480.86 2003.12 7480.35 2003.12C7479.73 2003.12 7479.21 2002.95 7478.78 2002.6C7478.37 2002.25 7478.05 2001.75 7477.85 2001.09C7477.65 2000.43 7477.55 1999.63 7477.55 1998.7C7477.55 1997.79 7477.64 1997.01 7477.82 1996.35C7478.01 1995.69 7478.31 1995.18 7478.72 1994.83C7479.14 1994.48 7479.68 1994.3 7480.35 1994.3C7481 1994.3 7481.53 1994.48 7481.95 1994.83C7482.37 1995.18 7482.67 1995.68 7482.87 1996.34C7483.08 1997 7483.19 1997.78 7483.19 1998.7ZM7478.49 1998.7C7478.49 1999.51 7478.55 2000.18 7478.67 2000.72C7478.8 2001.25 7479 2001.65 7479.27 2001.92C7479.55 2002.18 7479.91 2002.32 7480.35 2002.32C7480.8 2002.32 7481.16 2002.18 7481.43 2001.92C7481.71 2001.66 7481.91 2001.26 7482.03 2000.72C7482.16 2000.18 7482.23 1999.51 7482.23 1998.7C7482.23 1997.91 7482.16 1997.25 7482.03 1996.72C7481.91 1996.19 7481.72 1995.78 7481.45 1995.51C7481.18 1995.24 7480.82 1995.1 7480.35 1995.1C7479.9 1995.1 7479.53 1995.24 7479.26 1995.52C7478.99 1995.8 7478.79 1996.2 7478.67 1996.74C7478.55 1997.26 7478.49 1997.92 7478.49 1998.7Z" fill="#707070" id="n536"/>
<path d="M7466.43 2081.77C7467.02 2081.77 7467.52 2081.87 7467.94 2082.07C7468.38 2082.27 7468.71 2082.56 7468.94 2082.93C7469.17 2083.3 7469.29 2083.75 7469.29 2084.29C7469.29 2084.87 7469.16 2085.38 7468.9 2085.8C7468.66 2086.22 7468.29 2086.55 7467.81 2086.78C7467.34 2087.01 7466.78 2087.12 7466.12 2087.12C7465.67 2087.12 7465.26 2087.08 7464.87 2087C7464.5 2086.91 7464.18 2086.8 7463.91 2086.65V2085.75C7464.19 2085.92 7464.53 2086.06 7464.93 2086.16C7465.34 2086.26 7465.74 2086.32 7466.13 2086.32C7466.57 2086.32 7466.96 2086.24 7467.28 2086.1C7467.61 2085.96 7467.87 2085.74 7468.05 2085.45C7468.24 2085.16 7468.33 2084.8 7468.33 2084.37C7468.33 2083.8 7468.15 2083.35 7467.79 2083.04C7467.44 2082.72 7466.88 2082.56 7466.13 2082.56C7465.89 2082.56 7465.62 2082.58 7465.33 2082.63C7465.04 2082.67 7464.8 2082.72 7464.61 2082.76L7464.13 2082.45L7464.45 2078.43H7468.71V2079.3H7465.26L7465.04 2081.91C7465.18 2081.89 7465.38 2081.86 7465.62 2081.83C7465.86 2081.79 7466.13 2081.77 7466.43 2081.77ZM7476.25 2082.7C7476.25 2083.4 7476.2 2084.02 7476.08 2084.58C7475.98 2085.12 7475.82 2085.58 7475.59 2085.96C7475.37 2086.33 7475.08 2086.62 7474.72 2086.82C7474.36 2087.02 7473.92 2087.12 7473.42 2087.12C7472.8 2087.12 7472.27 2086.95 7471.85 2086.6C7471.43 2086.25 7471.12 2085.75 7470.91 2085.09C7470.71 2084.43 7470.61 2083.63 7470.61 2082.7C7470.61 2081.79 7470.7 2081.01 7470.89 2080.35C7471.07 2079.69 7471.37 2079.18 7471.79 2078.83C7472.2 2078.48 7472.75 2078.3 7473.42 2078.3C7474.07 2078.3 7474.6 2078.48 7475.02 2078.83C7475.43 2079.18 7475.74 2079.68 7475.94 2080.34C7476.15 2081 7476.25 2081.78 7476.25 2082.7ZM7471.56 2082.7C7471.56 2083.51 7471.62 2084.18 7471.74 2084.72C7471.87 2085.25 7472.07 2085.65 7472.34 2085.92C7472.61 2086.18 7472.97 2086.32 7473.42 2086.32C7473.87 2086.32 7474.23 2086.18 7474.5 2085.92C7474.77 2085.66 7474.97 2085.26 7475.1 2084.72C7475.23 2084.18 7475.29 2083.51 7475.29 2082.7C7475.29 2081.91 7475.23 2081.25 7475.1 2080.72C7474.98 2080.19 7474.78 2079.78 7474.51 2079.51C7474.25 2079.24 7473.88 2079.1 7473.42 2079.1C7472.96 2079.1 7472.6 2079.24 7472.33 2079.52C7472.06 2079.8 7471.86 2080.2 7471.74 2080.74C7471.62 2081.26 7471.56 2081.92 7471.56 2082.7Z" fill="#707070" id="n537"/>
<path d="M7469.32 2166.7C7469.32 2167.4 7469.26 2168.02 7469.15 2168.58C7469.05 2169.12 7468.88 2169.58 7468.66 2169.96C7468.43 2170.33 7468.14 2170.62 7467.78 2170.82C7467.42 2171.02 7466.99 2171.12 7466.49 2171.12C7465.86 2171.12 7465.34 2170.95 7464.91 2170.6C7464.5 2170.25 7464.19 2169.75 7463.98 2169.09C7463.78 2168.43 7463.68 2167.63 7463.68 2166.7C7463.68 2165.79 7463.77 2165.01 7463.95 2164.35C7464.14 2163.69 7464.44 2163.18 7464.85 2162.83C7465.27 2162.48 7465.81 2162.3 7466.49 2162.3C7467.13 2162.3 7467.67 2162.48 7468.08 2162.83C7468.5 2163.18 7468.81 2163.68 7469.01 2164.34C7469.21 2165 7469.32 2165.78 7469.32 2166.7ZM7464.63 2166.7C7464.63 2167.51 7464.69 2168.18 7464.81 2168.72C7464.93 2169.25 7465.13 2169.65 7465.41 2169.92C7465.68 2170.18 7466.04 2170.32 7466.49 2170.32C7466.93 2170.32 7467.29 2170.18 7467.57 2169.92C7467.84 2169.66 7468.04 2169.26 7468.17 2168.72C7468.29 2168.18 7468.36 2167.51 7468.36 2166.7C7468.36 2165.91 7468.29 2165.25 7468.17 2164.72C7468.05 2164.19 7467.85 2163.78 7467.58 2163.51C7467.31 2163.24 7466.95 2163.1 7466.49 2163.1C7466.03 2163.1 7465.67 2163.24 7465.39 2163.52C7465.12 2163.8 7464.93 2164.2 7464.81 2164.74C7464.69 2165.26 7464.63 2165.92 7464.63 2166.7Z" fill="#707070" id="n538"/>
<path d="M7463.68 2252.19V2251.35H7466.58V2252.19H7463.68ZM7470.37 2249.77C7470.95 2249.77 7471.45 2249.87 7471.88 2250.07C7472.31 2250.27 7472.64 2250.56 7472.87 2250.93C7473.11 2251.3 7473.22 2251.75 7473.22 2252.29C7473.22 2252.87 7473.09 2253.38 7472.84 2253.8C7472.59 2254.22 7472.23 2254.55 7471.75 2254.78C7471.27 2255.01 7470.71 2255.12 7470.05 2255.12C7469.61 2255.12 7469.19 2255.08 7468.81 2255C7468.43 2254.91 7468.11 2254.8 7467.85 2254.65V2253.75C7468.13 2253.92 7468.47 2254.06 7468.87 2254.16C7469.27 2254.26 7469.67 2254.32 7470.07 2254.32C7470.51 2254.32 7470.89 2254.24 7471.22 2254.1C7471.55 2253.96 7471.8 2253.74 7471.99 2253.45C7472.17 2253.16 7472.26 2252.8 7472.26 2252.37C7472.26 2251.8 7472.08 2251.35 7471.72 2251.04C7471.37 2250.72 7470.82 2250.56 7470.07 2250.56C7469.83 2250.56 7469.56 2250.58 7469.26 2250.63C7468.97 2250.67 7468.73 2250.72 7468.54 2250.76L7468.06 2250.45L7468.39 2246.43H7472.65V2247.3H7469.19L7468.97 2249.91C7469.12 2249.89 7469.31 2249.86 7469.55 2249.83C7469.79 2249.79 7470.06 2249.77 7470.37 2249.77ZM7480.19 2250.7C7480.19 2251.4 7480.13 2252.02 7480.02 2252.58C7479.91 2253.12 7479.75 2253.58 7479.53 2253.96C7479.3 2254.33 7479.01 2254.62 7478.65 2254.82C7478.29 2255.02 7477.86 2255.12 7477.35 2255.12C7476.73 2255.12 7476.21 2254.95 7475.78 2254.6C7475.37 2254.25 7475.05 2253.75 7474.85 2253.09C7474.65 2252.43 7474.55 2251.63 7474.55 2250.7C7474.55 2249.79 7474.64 2249.01 7474.82 2248.35C7475.01 2247.69 7475.31 2247.18 7475.72 2246.83C7476.14 2246.48 7476.68 2246.3 7477.35 2246.3C7478 2246.3 7478.53 2246.48 7478.95 2246.83C7479.37 2247.18 7479.67 2247.68 7479.87 2248.34C7480.08 2249 7480.19 2249.78 7480.19 2250.7ZM7475.49 2250.7C7475.49 2251.51 7475.55 2252.18 7475.67 2252.72C7475.8 2253.25 7476 2253.65 7476.27 2253.92C7476.55 2254.18 7476.91 2254.32 7477.35 2254.32C7477.8 2254.32 7478.16 2254.18 7478.43 2253.92C7478.71 2253.66 7478.91 2253.26 7479.03 2252.72C7479.16 2252.18 7479.23 2251.51 7479.23 2250.7C7479.23 2249.91 7479.16 2249.25 7479.03 2248.72C7478.91 2248.19 7478.72 2247.78 7478.45 2247.51C7478.18 2247.24 7477.82 2247.1 7477.35 2247.1C7476.9 2247.1 7476.53 2247.24 7476.26 2247.52C7475.99 2247.8 7475.79 2248.2 7475.67 2248.74C7475.55 2249.26 7475.49 2249.92 7475.49 2250.7Z" fill="#707070" id="n539"/>
<path d="M7463.75 2336.19V2335.35H7466.65V2336.19H7463.75ZM7471.33 2339H7470.41V2332.89C7470.41 2332.66 7470.41 2332.46 7470.41 2332.3C7470.42 2332.14 7470.42 2332 7470.42 2331.86C7470.43 2331.72 7470.44 2331.57 7470.44 2331.43C7470.32 2331.55 7470.21 2331.65 7470.11 2331.74C7470 2331.82 7469.88 2331.93 7469.72 2332.06L7468.72 2332.86L7468.22 2332.22L7470.54 2330.43H7471.33V2339ZM7480.25 2334.7C7480.25 2335.4 7480.2 2336.02 7480.08 2336.58C7479.98 2337.12 7479.82 2337.58 7479.59 2337.96C7479.37 2338.33 7479.08 2338.62 7478.72 2338.82C7478.36 2339.02 7477.92 2339.12 7477.42 2339.12C7476.8 2339.12 7476.27 2338.95 7475.85 2338.6C7475.43 2338.25 7475.12 2337.75 7474.91 2337.09C7474.71 2336.43 7474.61 2335.63 7474.61 2334.7C7474.61 2333.79 7474.7 2333.01 7474.89 2332.35C7475.07 2331.69 7475.37 2331.18 7475.79 2330.83C7476.2 2330.48 7476.75 2330.3 7477.42 2330.3C7478.07 2330.3 7478.6 2330.48 7479.02 2330.83C7479.43 2331.18 7479.74 2331.68 7479.94 2332.34C7480.15 2333 7480.25 2333.78 7480.25 2334.7ZM7475.56 2334.7C7475.56 2335.51 7475.62 2336.18 7475.74 2336.72C7475.87 2337.25 7476.07 2337.65 7476.34 2337.92C7476.61 2338.18 7476.97 2338.32 7477.42 2338.32C7477.87 2338.32 7478.23 2338.18 7478.5 2337.92C7478.77 2337.66 7478.97 2337.26 7479.1 2336.72C7479.23 2336.18 7479.29 2335.51 7479.29 2334.7C7479.29 2333.91 7479.23 2333.25 7479.1 2332.72C7478.98 2332.19 7478.78 2331.78 7478.51 2331.51C7478.25 2331.24 7477.88 2331.1 7477.42 2331.1C7476.96 2331.1 7476.6 2331.24 7476.33 2331.52C7476.06 2331.8 7475.86 2332.2 7475.74 2332.74C7475.62 2333.26 7475.56 2333.92 7475.56 2334.7ZM7487.12 2334.7C7487.12 2335.4 7487.06 2336.02 7486.95 2336.58C7486.85 2337.12 7486.68 2337.58 7486.46 2337.96C7486.24 2338.33 7485.94 2338.62 7485.58 2338.82C7485.22 2339.02 7484.79 2339.12 7484.29 2339.12C7483.66 2339.12 7483.14 2338.95 7482.72 2338.6C7482.3 2338.25 7481.99 2337.75 7481.78 2337.09C7481.58 2336.43 7481.48 2335.63 7481.48 2334.7C7481.48 2333.79 7481.57 2333.01 7481.76 2332.35C7481.94 2331.69 7482.24 2331.18 7482.66 2330.83C7483.07 2330.48 7483.62 2330.3 7484.29 2330.3C7484.94 2330.3 7485.47 2330.48 7485.88 2330.83C7486.3 2331.18 7486.61 2331.68 7486.81 2332.34C7487.02 2333 7487.12 2333.78 7487.12 2334.7ZM7482.43 2334.7C7482.43 2335.51 7482.49 2336.18 7482.61 2336.72C7482.74 2337.25 7482.94 2337.65 7483.21 2337.92C7483.48 2338.18 7483.84 2338.32 7484.29 2338.32C7484.74 2338.32 7485.1 2338.18 7485.37 2337.92C7485.64 2337.66 7485.84 2337.26 7485.97 2336.72C7486.1 2336.18 7486.16 2335.51 7486.16 2334.7C7486.16 2333.91 7486.1 2333.25 7485.97 2332.72C7485.85 2332.19 7485.65 2331.78 7485.38 2331.51C7485.12 2331.24 7484.75 2331.1 7484.29 2331.1C7483.83 2331.1 7483.47 2331.24 7483.2 2331.52C7482.92 2331.8 7482.73 2332.2 7482.61 2332.74C7482.49 2333.26 7482.43 2333.92 7482.43 2334.7Z" fill="#707070" id="n540"/>
<g mask="url(#mask97_68_6728)" id="n542">
<g clip-path="url(#clip14_68_6728)" id="n543">
<path d="M7431 2208.2C7431 2208.2 7424.66 2217.08 7421.48 2210.29C7418.31 2203.49 7414.61 2155.92 7411.44 2155.92C7408.27 2155.92 7407.74 2177.19 7402.46 2180.49C7397.17 2183.79 7394.86 2203.49 7392.94 2203.49C7388.71 2203.49 7388.18 2197.74 7386.07 2197.74C7383.95 2197.74 7382.37 2246.35 7379.2 2246.35C7376.02 2246.35 7370.74 2194.08 7367.04 2194.08C7365.26 2194.08 7362.28 2210.29 7358.58 2210.29C7354.88 2210.29 7352.3 2211.85 7350.65 2211.85C7347.48 2211.85 7344.84 2193.04 7341.67 2193.04C7338.49 2193.04 7339.55 2233.29 7335.85 2233.29C7332.15 2233.29 7324.22 2237.47 7317.35 2237.47C7310.48 2237.47 7304.66 2228.06 7299.38 2222.83C7294.09 2217.6 7287.75 2219.17 7280.35 2219.17C7272.95 2219.17 7270.83 2215.51 7264.49 2209.24C7261.6 2206.38 7258.67 2193.04 7254.45 2190.95C7250.22 2188.85 7242.72 2146.51 7240.7 2146.51C7237 2146.51 7236.47 2168.99 7232.77 2168.99C7229.07 2168.99 7229.07 2161.15 7225.37 2161.15C7221.67 2161.15 7220.09 2192.51 7215.33 2192.51C7210.57 2192.51 7212.16 2132.4 7207.93 2132.4C7203.7 2132.4 7198.41 2253.15 7193.66 2253.15C7188.9 2253.15 7190.48 2223.35 7185.73 2223.35C7180.97 2223.35 7183.08 2182.06 7178.33 2182.06C7176.06 2182.06 7168.28 2204.01 7161.94 2204.01C7155.6 2204.01 7151.49 2219.17 7148.73 2219.17C7143.44 2219.17 7142.91 2217.6 7137.1 2211.85C7131.28 2206.1 7132.87 2165.85 7129.7 2165.85C7126.52 2165.85 7127.05 2214.99 7121.24 2214.99C7115.42 2214.99 7117.01 2232.76 7111.19 2232.76C7105.38 2232.76 7095.86 2219.17 7090.58 2219.17" stroke="#2D548B" stroke-width="2" stroke-linecap="square" id="n544"/>
</g>
</g>
<circle cx="7439" cy="2206" r="7" fill="#2D548B" stroke="white" stroke-width="2" id="n545"/>
<path d="M7450.1 2215.26C7449.32 2215.61 7448.34 2215.6 7447.52 2215.05L7435.95 2207.24C7435.07 2206.64 7435.07 2205.35 7435.95 2204.75L7447.52 2196.94C7448.34 2196.39 7449.32 2196.38 7450.1 2196.73C7450.88 2197.08 7451.5 2197.82 7451.5 2198.8L7451.5 2213.19C7451.5 2214.17 7450.88 2214.91 7450.1 2215.26Z" fill="#2D548B" stroke="white" stroke-linejoin="round" id="n546"/>
</g>
</svg>
