<?xml version='1.0' encoding='utf-8'?>
<svg xmlns="http://www.w3.org/2000/svg" xmlns:xlink="http://www.w3.org/1999/xlink" width="384.0" height="384.0" viewBox="0 0 384.0 384.0" fill="none">
  <defs><clipPath id="clip__asset"><rect x="0" y="0" width="384.0" height="384.0"/></clipPath><mask id="mask78_68_6728" style="mask-type:alpha" maskUnits="userSpaceOnUse" x="6639" y="591" width="338" height="338">
<path d="M6640 604.8C6640 600.32 6640 598.079 6640.87 596.368C6641.64 594.863 6642.86 593.639 6644.37 592.872C6646.08 592 6648.32 592 6652.8 592H6963.2C6967.68 592 6969.92 592 6971.63 592.872C6973.14 593.639 6974.36 594.863 6975.13 596.368C6976 598.079 6976 600.32 6976 604.8V915.2C6976 919.68 6976 921.921 6975.13 923.632C6974.36 925.137 6973.14 926.361 6971.63 927.128C6969.92 928 6967.68 928 6963.2 928H6652.8C6648.32 928 6646.08 928 6644.37 927.128C6642.86 926.361 6641.64 925.137 6640.87 923.632C6640 921.921 6640 919.68 6640 915.2V604.8Z" fill="white" stroke="black" id="n387"/>
</mask>
<mask id="mask79_68_6728" style="mask-type:alpha" maskUnits="userSpaceOnUse" x="6639" y="591" width="338" height="338">
<path d="M6640 604.8C6640 600.32 6640 598.079 6640.87 596.368C6641.64 594.863 6642.86 593.639 6644.37 592.872C6646.08 592 6648.32 592 6652.8 592H6963.2C6967.68 592 6969.92 592 6971.63 592.872C6973.14 593.639 6974.36 594.863 6975.13 596.368C6976 598.079 6976 600.32 6976 604.8V915.2C6976 919.68 6976 921.921 6975.13 923.632C6974.36 925.137 6973.14 926.361 6971.63 927.128C6969.92 928 6967.68 928 6963.2 928H6652.8C6648.32 928 6646.08 928 6644.37 927.128C6642.86 926.361 6641.64 925.137 6640.87 923.632C6640 921.921 6640 919.68 6640 915.2V604.8Z" fill="white" stroke="black" id="n391"/>
</mask>
</defs>
  <g clip-path="url(#clip__asset)" transform="translate(-6616.0 -568.0)"><path d="M6640 604.8C6640 600.32 6640 598.079 6640.87 596.368C6641.64 594.863 6642.86 593.639 6644.37 592.872C6646.08 592 6648.32 592 6652.8 592H6963.2C6967.68 592 6969.92 592 6971.63 592.872C6973.14 593.639 6974.36 594.863 6975.13 596.368C6976 598.079 6976 600.32 6976 604.8V915.2C6976 919.68 6976 921.921 6975.13 923.632C6974.36 925.137 6973.14 926.361 6971.63 927.128C6969.92 928 6967.68 928 6963.2 928H6652.8C6648.32 928 6646.08 928 6644.37 927.128C6642.86 926.361 6641.64 925.137 6640.87 923.632C6640 921.921 6640 919.68 6640 915.2V604.8Z" fill="white" stroke="white" id="n381"/>
<path d="M6952 592H6968C6972.42 592 6976 595.582 6976 600V920C6976 924.418 6972.42 928 6968 928H6952V592Z" fill="#F0F0F0" stroke="#F0F0F0" id="n382"/>
<path d="M6952 928.005L6952 592.005" stroke="#BEBEBE" stroke-linecap="square" id="n383"/>
<path d="M6640 604.8C6640 600.32 6640 598.079 6640.87 596.368C6641.64 594.863 6642.86 593.639 6644.37 592.872C6646.08 592 6648.32 592 6652.8 592H6963.2C6967.68 592 6969.92 592 6971.63 592.872C6973.14 593.639 6974.36 594.863 6975.13 596.368C6976 598.079 6976 600.32 6976 604.8V915.2C6976 919.68 6976 921.921 6975.13 923.632C6974.36 925.137 6973.14 926.361 6971.63 927.128C6969.92 928 6967.68 928 6963.2 928H6652.8C6648.32 928 6646.08 928 6644.37 927.128C6642.86 926.361 6641.64 925.137 6640.87 923.632C6640 921.921 6640 919.68 6640 915.2V604.8Z" stroke="#BEBEBE" id="n384"/>
<path d="M6988.4 607H6987.48V600.892C6987.48 600.66 6987.48 600.464 6987.48 600.304C6987.48 600.144 6987.49 599.996 6987.49 599.86C6987.5 599.716 6987.5 599.572 6987.51 599.428C6987.39 599.548 6987.28 599.652 6987.18 599.74C6987.07 599.82 6986.94 599.928 6986.79 600.064L6985.78 600.856L6985.29 600.22L6987.61 598.432H6988.4V607ZM6997.32 602.704C6997.32 603.4 6997.26 604.024 6997.15 604.576C6997.05 605.12 6996.88 605.58 6996.66 605.956C6996.43 606.332 6996.14 606.62 6995.78 606.82C6995.42 607.02 6994.99 607.12 6994.49 607.12C6993.86 607.12 6993.34 606.948 6992.91 606.604C6992.5 606.252 6992.19 605.748 6991.98 605.092C6991.78 604.428 6991.68 603.632 6991.68 602.704C6991.68 601.792 6991.77 601.008 6991.95 600.352C6992.14 599.688 6992.44 599.18 6992.85 598.828C6993.27 598.476 6993.81 598.3 6994.49 598.3C6995.13 598.3 6995.67 598.476 6996.08 598.828C6996.5 599.18 6996.81 599.684 6997.01 600.34C6997.21 600.996 6997.32 601.784 6997.32 602.704ZM6992.63 602.704C6992.63 603.512 6992.69 604.184 6992.81 604.72C6992.93 605.248 6993.13 605.648 6993.41 605.92C6993.68 606.184 6994.04 606.316 6994.49 606.316C6994.93 606.316 6995.29 606.184 6995.57 605.92C6995.84 605.656 6996.04 605.256 6996.17 604.72C6996.29 604.184 6996.36 603.512 6996.36 602.704C6996.36 601.912 6996.29 601.252 6996.17 600.724C6996.05 600.188 6995.85 599.784 6995.58 599.512C6995.31 599.24 6994.95 599.104 6994.49 599.104C6994.03 599.104 6993.67 599.244 6993.39 599.524C6993.12 599.796 6992.93 600.2 6992.81 600.736C6992.69 601.264 6992.63 601.92 6992.63 602.704ZM7004.19 602.704C7004.19 603.4 7004.13 604.024 7004.02 604.576C7003.91 605.12 7003.75 605.58 7003.53 605.956C7003.3 606.332 7003.01 606.62 7002.65 606.82C7002.29 607.02 7001.86 607.12 7001.35 607.12C7000.73 607.12 7000.21 606.948 6999.78 606.604C6999.37 606.252 6999.05 605.748 6998.85 605.092C6998.65 604.428 6998.55 603.632 6998.55 602.704C6998.55 601.792 6998.64 601.008 6998.82 600.352C6999.01 599.688 6999.31 599.18 6999.72 598.828C7000.14 598.476 7000.68 598.3 7001.35 598.3C7002 598.3 7002.53 598.476 7002.95 598.828C7003.37 599.18 7003.67 599.684 7003.87 600.34C7004.08 600.996 7004.19 601.784 7004.19 602.704ZM6999.49 602.704C6999.49 603.512 6999.55 604.184 6999.67 604.72C6999.8 605.248 7000 605.648 7000.27 605.92C7000.55 606.184 7000.91 606.316 7001.35 606.316C7001.8 606.316 7002.16 606.184 7002.43 605.92C7002.71 605.656 7002.91 605.256 7003.03 604.72C7003.16 604.184 7003.23 603.512 7003.23 602.704C7003.23 601.912 7003.16 601.252 7003.03 600.724C7002.91 600.188 7002.72 599.784 7002.45 599.512C7002.18 599.24 7001.82 599.104 7001.35 599.104C7000.9 599.104 7000.53 599.244 7000.26 599.524C6999.99 599.796 6999.79 600.2 6999.67 600.736C6999.55 601.264 6999.49 601.92 6999.49 602.704Z" fill="#707070" id="n385"/>
<path d="M6990.32 918.704C6990.32 919.4 6990.26 920.024 6990.15 920.576C6990.05 921.12 6989.88 921.58 6989.66 921.956C6989.43 922.332 6989.14 922.62 6988.78 922.82C6988.42 923.02 6987.99 923.12 6987.49 923.12C6986.86 923.12 6986.34 922.948 6985.91 922.604C6985.5 922.252 6985.19 921.748 6984.98 921.092C6984.78 920.428 6984.68 919.632 6984.68 918.704C6984.68 917.792 6984.77 917.008 6984.95 916.352C6985.14 915.688 6985.44 915.18 6985.85 914.828C6986.27 914.476 6986.81 914.3 6987.49 914.3C6988.13 914.3 6988.67 914.476 6989.08 914.828C6989.5 915.18 6989.81 915.684 6990.01 916.34C6990.21 916.996 6990.32 917.784 6990.32 918.704ZM6985.63 918.704C6985.63 919.512 6985.69 920.184 6985.81 920.72C6985.93 921.248 6986.13 921.648 6986.41 921.92C6986.68 922.184 6987.04 922.316 6987.49 922.316C6987.93 922.316 6988.29 922.184 6988.57 921.92C6988.84 921.656 6989.04 921.256 6989.17 920.72C6989.29 920.184 6989.36 919.512 6989.36 918.704C6989.36 917.912 6989.29 917.252 6989.17 916.724C6989.05 916.188 6988.85 915.784 6988.58 915.512C6988.31 915.24 6987.95 915.104 6987.49 915.104C6987.03 915.104 6986.67 915.244 6986.39 915.524C6986.12 915.796 6985.93 916.2 6985.81 916.736C6985.69 917.264 6985.63 917.92 6985.63 918.704Z" fill="#707070" id="n386"/>
<g mask="url(#mask78_68_6728)" id="n388">
<path d="M6942.48 804.287C6945.66 811.082 6952 802.196 6952 802.196V1028.8H6611.58V813.173C6616.86 813.173 6626.38 826.764 6632.19 826.764C6638.01 826.764 6636.42 808.991 6642.24 808.991C6648.05 808.991 6647.52 759.855 6650.7 759.855C6653.87 759.855 6652.28 800.105 6658.1 805.855C6663.91 811.605 6664.44 813.173 6669.73 813.173C6672.49 813.173 6676.6 798.014 6682.94 798.014C6689.28 798.014 6697.06 776.059 6699.33 776.059C6704.08 776.059 6701.97 817.355 6706.73 817.355C6711.48 817.355 6709.9 847.15 6714.66 847.15C6719.41 847.15 6724.7 726.4 6728.93 726.4C6733.16 726.4 6731.57 786.514 6736.33 786.514C6741.09 786.514 6742.67 755.15 6746.37 755.15C6750.07 755.15 6750.07 762.991 6753.77 762.991C6757.47 762.991 6758 740.514 6761.7 740.514C6763.72 740.514 6771.22 782.855 6775.45 784.946C6779.67 787.037 6782.6 800.383 6785.49 803.241C6791.83 809.514 6793.95 813.173 6801.35 813.173C6808.75 813.173 6815.09 811.605 6820.38 816.832C6825.66 822.059 6831.48 831.469 6838.35 831.469C6845.22 831.469 6853.15 827.287 6856.85 827.287C6860.55 827.287 6859.49 787.037 6862.67 787.037C6865.84 787.037 6868.48 805.855 6871.65 805.855C6873.3 805.855 6875.88 804.287 6879.58 804.287C6883.28 804.287 6886.26 788.082 6888.04 788.082C6891.74 788.082 6897.02 840.355 6900.2 840.355C6903.37 840.355 6904.95 791.741 6907.07 791.741C6909.18 791.741 6909.71 797.491 6913.94 797.491C6915.86 797.491 6918.17 777.792 6923.46 774.491C6928.74 771.191 6929.27 749.923 6932.44 749.923C6935.61 749.923 6939.31 797.491 6942.48 804.287Z" fill="#BEBEBE" id="n389"/>
<path d="M6952 802.196C6952 802.196 6945.66 811.082 6942.48 804.287C6939.31 797.491 6935.61 749.923 6932.44 749.923C6929.27 749.923 6928.74 771.191 6923.46 774.491C6918.17 777.792 6915.86 797.491 6913.94 797.491C6909.71 797.491 6909.18 791.741 6907.07 791.741C6904.95 791.741 6903.37 840.355 6900.2 840.355C6897.02 840.355 6891.74 788.082 6888.04 788.082C6886.26 788.082 6883.28 804.287 6879.58 804.287C6875.88 804.287 6873.3 805.855 6871.65 805.855C6868.48 805.855 6865.84 787.037 6862.67 787.037C6859.49 787.037 6860.55 827.287 6856.85 827.287C6853.15 827.287 6845.22 831.469 6838.35 831.469C6831.48 831.469 6825.66 822.059 6820.38 816.832C6815.09 811.605 6808.75 813.173 6801.35 813.173C6793.95 813.173 6791.83 809.514 6785.49 803.241C6782.6 800.383 6779.67 787.037 6775.45 784.946C6771.22 782.855 6763.72 740.514 6761.7 740.514C6758 740.514 6757.47 762.991 6753.77 762.991C6750.07 762.991 6750.07 755.15 6746.37 755.15C6742.67 755.15 6741.09 786.514 6736.33 786.514C6731.57 786.514 6733.16 726.4 6728.93 726.4C6724.7 726.4 6719.41 847.15 6714.66 847.15C6709.9 847.15 6711.48 817.355 6706.73 817.355C6701.97 817.355 6704.08 776.059 6699.33 776.059C6697.06 776.059 6689.28 798.014 6682.94 798.014C6676.6 798.014 6672.49 813.173 6669.73 813.173C6664.44 813.173 6663.91 811.605 6658.1 805.855C6652.28 800.105 6653.87 759.855 6650.7 759.855C6647.52 759.855 6648.05 808.991 6642.24 808.991C6636.42 808.991 6638.01 826.764 6632.19 826.764C6626.38 826.764 6616.86 813.173 6611.58 813.173" stroke="#535353" stroke-width="2" stroke-linecap="square" id="n390"/>
</g>
<g mask="url(#mask79_68_6728)" id="n392">
<rect x="6952" y="760" width="24" height="168" fill="#535353" stroke="#535353" id="n393"/>
</g>
</g>
</svg>
