<?xml version='1.0' encoding='utf-8'?>
<svg xmlns="http://www.w3.org/2000/svg" xmlns:xlink="http://www.w3.org/1999/xlink" width="384.0" height="384.0" viewBox="0 0 384.0 384.0" fill="none">
  <defs><clipPath id="clip__asset"><rect x="0" y="0" width="384.0" height="384.0"/></clipPath><mask id="mask87_68_6728" style="mask-type:alpha" maskUnits="userSpaceOnUse" x="7597" y="1039" width="337" height="338">
<path d="M7598 1052.8C7598 1048.32 7598 1046.08 7598.87 1044.37C7599.64 1042.86 7600.86 1041.64 7602.37 1040.87C7604.08 1040 7606.32 1040 7610.8 1040H7926V1376H7610.8C7606.32 1376 7604.08 1376 7602.37 1375.13C7600.86 1374.36 7599.64 1373.14 7598.87 1371.63C7598 1369.92 7598 1367.68 7598 1363.2V1052.8Z" fill="white" stroke="black" id="n450"/>
</mask>
<clipPath id="clip8_68_6728">
<rect width="336" height="336" fill="white" transform="translate(7582 1040)" id="n1319"/>
</clipPath>
</defs>
  <g clip-path="url(#clip__asset)" transform="translate(-7574.0 -1016.0)"><path d="M7598 1052.8C7598 1048.32 7598 1046.08 7598.87 1044.37C7599.64 1042.86 7600.86 1041.64 7602.37 1040.87C7604.08 1040 7606.32 1040 7610.8 1040H7921.2C7925.68 1040 7927.92 1040 7929.63 1040.87C7931.14 1041.64 7932.36 1042.86 7933.13 1044.37C7934 1046.08 7934 1048.32 7934 1052.8V1363.2C7934 1367.68 7934 1369.92 7933.13 1371.63C7932.36 1373.14 7931.14 1374.36 7929.63 1375.13C7927.92 1376 7925.68 1376 7921.2 1376H7610.8C7606.32 1376 7604.08 1376 7602.37 1375.13C7600.86 1374.36 7599.64 1373.14 7598.87 1371.63C7598 1369.92 7598 1367.68 7598 1363.2V1052.8Z" fill="white" stroke="white" id="n446"/>
<path d="M7598 1052.8C7598 1048.32 7598 1046.08 7598.87 1044.37C7599.64 1042.86 7600.86 1041.64 7602.37 1040.87C7604.08 1040 7606.32 1040 7610.8 1040H7921.2C7925.68 1040 7927.92 1040 7929.63 1040.87C7931.14 1041.64 7932.36 1042.86 7933.13 1044.37C7934 1046.08 7934 1048.32 7934 1052.8V1363.2C7934 1367.68 7934 1369.92 7933.13 1371.63C7932.36 1373.14 7931.14 1374.36 7929.63 1375.13C7927.92 1376 7925.68 1376 7921.2 1376H7610.8C7606.32 1376 7604.08 1376 7602.37 1375.13C7600.86 1374.36 7599.64 1373.14 7598.87 1371.63C7598 1369.92 7598 1367.68 7598 1363.2V1052.8Z" stroke="#BEBEBE" id="n447"/>
<path d="M7946.4 1055H7945.48V1048.89C7945.48 1048.66 7945.48 1048.46 7945.48 1048.3C7945.48 1048.14 7945.49 1048 7945.49 1047.86C7945.5 1047.72 7945.5 1047.57 7945.51 1047.43C7945.39 1047.55 7945.28 1047.65 7945.18 1047.74C7945.07 1047.82 7944.94 1047.93 7944.79 1048.06L7943.78 1048.86L7943.29 1048.22L7945.61 1046.43H7946.4V1055ZM7955.32 1050.7C7955.32 1051.4 7955.26 1052.02 7955.15 1052.58C7955.05 1053.12 7954.88 1053.58 7954.66 1053.96C7954.43 1054.33 7954.14 1054.62 7953.78 1054.82C7953.42 1055.02 7952.99 1055.12 7952.49 1055.12C7951.86 1055.12 7951.34 1054.95 7950.91 1054.6C7950.5 1054.25 7950.19 1053.75 7949.98 1053.09C7949.78 1052.43 7949.68 1051.63 7949.68 1050.7C7949.68 1049.79 7949.77 1049.01 7949.95 1048.35C7950.14 1047.69 7950.44 1047.18 7950.85 1046.83C7951.27 1046.48 7951.81 1046.3 7952.49 1046.3C7953.13 1046.3 7953.67 1046.48 7954.08 1046.83C7954.5 1047.18 7954.81 1047.68 7955.01 1048.34C7955.21 1049 7955.32 1049.78 7955.32 1050.7ZM7950.63 1050.7C7950.63 1051.51 7950.69 1052.18 7950.81 1052.72C7950.93 1053.25 7951.13 1053.65 7951.41 1053.92C7951.68 1054.18 7952.04 1054.32 7952.49 1054.32C7952.93 1054.32 7953.29 1054.18 7953.57 1053.92C7953.84 1053.66 7954.04 1053.26 7954.17 1052.72C7954.29 1052.18 7954.36 1051.51 7954.36 1050.7C7954.36 1049.91 7954.29 1049.25 7954.17 1048.72C7954.05 1048.19 7953.85 1047.78 7953.58 1047.51C7953.31 1047.24 7952.95 1047.1 7952.49 1047.1C7952.03 1047.1 7951.67 1047.24 7951.39 1047.52C7951.12 1047.8 7950.93 1048.2 7950.81 1048.74C7950.69 1049.26 7950.63 1049.92 7950.63 1050.7ZM7962.19 1050.7C7962.19 1051.4 7962.13 1052.02 7962.02 1052.58C7961.91 1053.12 7961.75 1053.58 7961.53 1053.96C7961.3 1054.33 7961.01 1054.62 7960.65 1054.82C7960.29 1055.02 7959.86 1055.12 7959.35 1055.12C7958.73 1055.12 7958.21 1054.95 7957.78 1054.6C7957.37 1054.25 7957.05 1053.75 7956.85 1053.09C7956.65 1052.43 7956.55 1051.63 7956.55 1050.7C7956.55 1049.79 7956.64 1049.01 7956.82 1048.35C7957.01 1047.69 7957.31 1047.18 7957.72 1046.83C7958.14 1046.48 7958.68 1046.3 7959.35 1046.3C7960 1046.3 7960.53 1046.48 7960.95 1046.83C7961.37 1047.18 7961.67 1047.68 7961.87 1048.34C7962.08 1049 7962.19 1049.78 7962.19 1050.7ZM7957.49 1050.7C7957.49 1051.51 7957.55 1052.18 7957.67 1052.72C7957.8 1053.25 7958 1053.65 7958.27 1053.92C7958.55 1054.18 7958.91 1054.32 7959.35 1054.32C7959.8 1054.32 7960.16 1054.18 7960.43 1053.92C7960.71 1053.66 7960.91 1053.26 7961.03 1052.72C7961.16 1052.18 7961.23 1051.51 7961.23 1050.7C7961.23 1049.91 7961.16 1049.25 7961.03 1048.72C7960.91 1048.19 7960.72 1047.78 7960.45 1047.51C7960.18 1047.24 7959.82 1047.1 7959.35 1047.1C7958.9 1047.1 7958.53 1047.24 7958.26 1047.52C7957.99 1047.8 7957.79 1048.2 7957.67 1048.74C7957.55 1049.26 7957.49 1049.92 7957.49 1050.7Z" fill="#707070" id="n448"/>
<path d="M7948.32 1366.7C7948.32 1367.4 7948.26 1368.02 7948.15 1368.58C7948.05 1369.12 7947.88 1369.58 7947.66 1369.96C7947.43 1370.33 7947.14 1370.62 7946.78 1370.82C7946.42 1371.02 7945.99 1371.12 7945.49 1371.12C7944.86 1371.12 7944.34 1370.95 7943.91 1370.6C7943.5 1370.25 7943.19 1369.75 7942.98 1369.09C7942.78 1368.43 7942.68 1367.63 7942.68 1366.7C7942.68 1365.79 7942.77 1365.01 7942.95 1364.35C7943.14 1363.69 7943.44 1363.18 7943.85 1362.83C7944.27 1362.48 7944.81 1362.3 7945.49 1362.3C7946.13 1362.3 7946.67 1362.48 7947.08 1362.83C7947.5 1363.18 7947.81 1363.68 7948.01 1364.34C7948.21 1365 7948.32 1365.78 7948.32 1366.7ZM7943.63 1366.7C7943.63 1367.51 7943.69 1368.18 7943.81 1368.72C7943.93 1369.25 7944.13 1369.65 7944.41 1369.92C7944.68 1370.18 7945.04 1370.32 7945.49 1370.32C7945.93 1370.32 7946.29 1370.18 7946.57 1369.92C7946.84 1369.66 7947.04 1369.26 7947.17 1368.72C7947.29 1368.18 7947.36 1367.51 7947.36 1366.7C7947.36 1365.91 7947.29 1365.25 7947.17 1364.72C7947.05 1364.19 7946.85 1363.78 7946.58 1363.51C7946.31 1363.24 7945.95 1363.1 7945.49 1363.1C7945.03 1363.1 7944.67 1363.24 7944.39 1363.52C7944.12 1363.8 7943.93 1364.2 7943.81 1364.74C7943.69 1365.26 7943.63 1365.92 7943.63 1366.7Z" fill="#707070" id="n449"/>
<g mask="url(#mask87_68_6728)" id="n451">
<g clip-path="url(#clip8_68_6728)" id="n452">
<path d="M7918 1250.2C7918 1250.2 7911.66 1259.08 7908.48 1252.29C7905.31 1245.49 7901.61 1197.92 7898.44 1197.92C7895.27 1197.92 7894.74 1219.19 7889.46 1222.49C7884.17 1225.79 7881.86 1245.49 7879.94 1245.49C7875.71 1245.49 7875.18 1239.74 7873.07 1239.74C7870.95 1239.74 7869.37 1288.35 7866.2 1288.35C7863.02 1288.35 7857.74 1236.08 7854.04 1236.08C7852.26 1236.08 7849.28 1252.29 7845.58 1252.29C7841.88 1252.29 7839.3 1253.85 7837.65 1253.85C7834.48 1253.85 7831.84 1235.04 7828.67 1235.04C7825.49 1235.04 7826.55 1275.29 7822.85 1275.29C7819.15 1275.29 7811.22 1279.47 7804.35 1279.47C7797.48 1279.47 7791.66 1270.06 7786.38 1264.83C7781.09 1259.6 7774.75 1261.17 7767.35 1261.17C7759.95 1261.17 7757.83 1257.51 7751.49 1251.24C7748.6 1248.38 7745.67 1235.04 7741.45 1232.95C7737.22 1230.85 7729.72 1188.51 7727.7 1188.51C7724 1188.51 7723.47 1210.99 7719.77 1210.99C7716.07 1210.99 7716.07 1203.15 7712.37 1203.15C7708.67 1203.15 7707.09 1234.51 7702.33 1234.51C7697.57 1234.51 7699.16 1174.4 7694.93 1174.4C7690.7 1174.4 7685.41 1295.15 7680.66 1295.15C7675.9 1295.15 7677.48 1265.35 7672.73 1265.35C7667.97 1265.35 7670.08 1224.06 7665.33 1224.06C7663.06 1224.06 7655.28 1246.01 7648.94 1246.01C7642.6 1246.01 7638.49 1261.17 7635.73 1261.17C7630.44 1261.17 7629.91 1259.6 7624.1 1253.85C7618.28 1248.1 7619.87 1207.85 7616.7 1207.85C7613.52 1207.85 7614.05 1256.99 7608.24 1256.99C7602.42 1256.99 7604.01 1274.76 7598.19 1274.76C7592.38 1274.76 7582.86 1261.17 7577.58 1261.17" stroke="#2D548B" stroke-width="2" stroke-linecap="square" id="n453"/>
</g>
</g>
<circle cx="7926" cy="1248" r="6.5" fill="#2D548B" stroke="white" id="n454"/>
</g>
</svg>
