<?xml version='1.0' encoding='utf-8'?>
<svg xmlns="http://www.w3.org/2000/svg" xmlns:xlink="http://www.w3.org/1999/xlink" width="640.0" height="48.0" viewBox="0 0 640.0 48.0" fill="none">
  <defs><clipPath id="clip__asset"><rect x="0" y="0" width="640.0" height="48.0"/></clipPath><filter id="filter7_d_1702_11540" x="230" y="1063" width="644" height="52" filterUnits="userSpaceOnUse" color-interpolation-filters="sRGB">
<feFlood flood-opacity="0" result="BackgroundImageFix" id="n1646"/>
<feColorMatrix in="SourceAlpha" type="matrix" values="0 0 0 0 0 0 0 0 0 0 0 0 0 0 0 0 0 0 127 0" result="hardAlpha" id="n1647"/>
<feOffset dy="1" id="n1648"/>
<feGaussianBlur stdDeviation="1" id="n1649"/>
<feColorMatrix type="matrix" values="0 0 0 0 0 0 0 0 0 0 0 0 0 0 0 0 0 0 0.23 0" id="n1650"/>
<feBlend mode="normal" in2="BackgroundImageFix" result="effect1_dropShadow_1702_11540" id="n1651"/>
<feBlend mode="normal" in="SourceGraphic" in2="effect1_dropShadow_1702_11540" result="shape" id="n1652"/>
</filter>
</defs>
  <g clip-path="url(#clip__asset)" transform="translate(-232.0 -1064.0)"><g filter="url(#filter7_d_1702_11540)" id="n246">
<rect width="640" height="48" transform="translate(232 1064)" fill="#FCFCFC" id="n247"/>
<path d="M251 1089H269V1087H251V1089Z" fill="#535353" id="n248"/>
<path d="M251 1094H269V1092H251V1094Z" fill="#535353" id="n249"/>
<path d="M251 1082V1084H269V1082H251Z" fill="#535353" id="n250"/>
<path fill-rule="evenodd" clip-rule="evenodd" d="M293.001 1078V1081H290.001C288.902 1081 288.002 1081.9 288.002 1083V1087.62L286.712 1088.04C286.452 1088.12 286.232 1088.3 286.112 1088.54C285.992 1088.78 285.962 1089.06 286.052 1089.32L287.668 1094H287.999C289.388 1094 290.777 1093.53 291.996 1092.68C293.215 1093.53 294.611 1093.96 296 1093.96C297.389 1093.96 298.785 1093.53 300.004 1092.68C301.223 1093.53 302.612 1094 304.001 1094H304.333L305.948 1089.32C306.038 1089.06 306.008 1088.78 305.888 1088.54C305.768 1088.3 305.548 1088.12 305.288 1088.04L303.998 1087.62V1083C303.998 1081.9 303.098 1081 301.999 1081H298.999V1078L293.001 1078ZM295 1080V1081L297 1081V1080L295 1080ZM290.002 1083V1086.97L296 1085L301.999 1086.97V1083L290.002 1083ZM296 1087.11L290.621 1088.86L288.222 1089.65L288.998 1092C290.497 1092 291.292 1091.17 291.996 1090.68C293.215 1091.53 294.611 1091.96 296 1091.96C297.389 1091.96 298.785 1091.53 300.004 1090.68C300.708 1091.17 301.503 1092 303.002 1092L303.778 1089.65L301.379 1088.86L296 1087.11Z" fill="#535353" id="n251"/>
<path fill-rule="evenodd" clip-rule="evenodd" d="M295.993 1095.96C297.382 1095.96 298.771 1095.53 299.99 1094.68C301.209 1095.53 302.598 1096 303.987 1096H304.986V1098H303.987C302.608 1098 301.249 1097.66 299.99 1097.01C298.731 1097.66 297.362 1097.98 295.993 1097.98C294.624 1097.98 293.255 1097.65 291.996 1097.01C290.737 1097.65 289.378 1098 287.999 1098H286.999V1096H287.999C289.388 1096 290.777 1095.53 291.996 1094.68C293.215 1095.53 294.604 1095.96 295.993 1095.96Z" fill="#535353" id="n252"/>
<path d="M324.931 1094L323.507 1090.34H318.915L317.507 1094H316.195L320.659 1082.53H321.827L326.259 1094H324.931ZM321.763 1085.54C321.731 1085.45 321.678 1085.3 321.603 1085.09C321.529 1084.87 321.459 1084.66 321.395 1084.43C321.331 1084.2 321.273 1084.01 321.219 1083.87C321.166 1084.09 321.107 1084.3 321.043 1084.51C320.99 1084.71 320.931 1084.91 320.867 1085.09C320.814 1085.26 320.766 1085.41 320.723 1085.55L319.347 1089.2H323.107L321.763 1085.54ZM331.649 1085.28C332.716 1085.28 333.564 1085.65 334.193 1086.38C334.833 1087.12 335.153 1088.22 335.153 1089.7C335.153 1090.67 335.004 1091.49 334.705 1092.16C334.417 1092.82 334.007 1093.32 333.473 1093.66C332.951 1093.99 332.332 1094.16 331.617 1094.16C331.159 1094.16 330.753 1094.1 330.401 1093.97C330.049 1093.84 329.751 1093.67 329.505 1093.47C329.271 1093.27 329.073 1093.05 328.913 1092.8H328.817C328.839 1093 328.86 1093.25 328.881 1093.54C328.903 1093.82 328.913 1094.08 328.913 1094.3V1097.82H327.649V1085.44H328.673L328.849 1086.74H328.913C329.073 1086.47 329.276 1086.23 329.521 1086.02C329.767 1085.79 330.06 1085.62 330.401 1085.49C330.753 1085.35 331.169 1085.28 331.649 1085.28ZM331.425 1086.35C330.839 1086.35 330.359 1086.47 329.985 1086.7C329.623 1086.94 329.351 1087.29 329.169 1087.74C328.999 1088.2 328.913 1088.78 328.913 1089.47V1089.71C328.913 1090.45 328.993 1091.07 329.153 1091.57C329.313 1092.07 329.58 1092.45 329.953 1092.72C330.327 1092.98 330.823 1093.1 331.441 1093.1C331.975 1093.1 332.417 1092.96 332.769 1092.67C333.132 1092.38 333.404 1091.98 333.585 1091.47C333.767 1090.96 333.857 1090.36 333.857 1089.68C333.857 1088.65 333.655 1087.83 333.249 1087.25C332.855 1086.65 332.247 1086.35 331.425 1086.35ZM341.415 1085.28C342.482 1085.28 343.33 1085.65 343.959 1086.38C344.599 1087.12 344.919 1088.22 344.919 1089.7C344.919 1090.67 344.77 1091.49 344.471 1092.16C344.183 1092.82 343.772 1093.32 343.239 1093.66C342.716 1093.99 342.098 1094.16 341.383 1094.16C340.924 1094.16 340.519 1094.1 340.167 1093.97C339.815 1093.84 339.516 1093.67 339.271 1093.47C339.036 1093.27 338.839 1093.05 338.679 1092.8H338.583C338.604 1093 338.626 1093.25 338.647 1093.54C338.668 1093.82 338.679 1094.08 338.679 1094.3V1097.82H337.415V1085.44H338.439L338.615 1086.74H338.679C338.839 1086.47 339.042 1086.23 339.287 1086.02C339.532 1085.79 339.826 1085.62 340.167 1085.49C340.519 1085.35 340.935 1085.28 341.415 1085.28ZM341.191 1086.35C340.604 1086.35 340.124 1086.47 339.751 1086.7C339.388 1086.94 339.116 1087.29 338.935 1087.74C338.764 1088.2 338.679 1088.78 338.679 1089.47V1089.71C338.679 1090.45 338.759 1091.07 338.919 1091.57C339.079 1092.07 339.346 1092.45 339.719 1092.72C340.092 1092.98 340.588 1093.1 341.207 1093.1C341.74 1093.1 342.183 1092.96 342.535 1092.67C342.898 1092.38 343.17 1091.98 343.351 1091.47C343.532 1090.96 343.623 1090.36 343.623 1089.68C343.623 1088.65 343.42 1087.83 343.015 1087.25C342.62 1086.65 342.012 1086.35 341.191 1086.35Z" fill="#1F1F1F" id="n253"/>
<path d="M359.024 1082.58C360.507 1082.58 361.584 1082.89 362.256 1083.52C362.939 1084.15 363.28 1085.02 363.28 1086.13C363.28 1086.62 363.205 1087.09 363.056 1087.55C362.907 1088 362.656 1088.4 362.304 1088.75C361.952 1089.1 361.493 1089.38 360.928 1089.58C360.363 1089.79 359.664 1089.89 358.832 1089.89H357.76V1094H355.456V1082.58H359.024ZM358.896 1084.48H357.76V1088H358.592C359.083 1088 359.499 1087.94 359.84 1087.82C360.192 1087.7 360.464 1087.5 360.656 1087.23C360.848 1086.97 360.944 1086.62 360.944 1086.19C360.944 1085.62 360.779 1085.19 360.448 1084.91C360.117 1084.62 359.6 1084.48 358.896 1084.48ZM368.8 1085.1C369.963 1085.1 370.848 1085.35 371.456 1085.86C372.064 1086.36 372.368 1087.13 372.368 1088.18V1094H370.784L370.336 1092.82H370.272C370.027 1093.13 369.771 1093.38 369.504 1093.58C369.248 1093.79 368.949 1093.93 368.608 1094.02C368.277 1094.11 367.867 1094.16 367.376 1094.16C366.864 1094.16 366.4 1094.06 365.984 1093.87C365.579 1093.67 365.259 1093.37 365.024 1092.96C364.789 1092.55 364.672 1092.04 364.672 1091.42C364.672 1090.5 364.997 1089.81 365.648 1089.38C366.309 1088.93 367.296 1088.68 368.608 1088.64L370.112 1088.59V1088.19C370.112 1087.7 369.989 1087.35 369.744 1087.14C369.499 1086.91 369.157 1086.8 368.72 1086.8C368.283 1086.8 367.861 1086.86 367.456 1086.99C367.051 1087.11 366.651 1087.26 366.256 1087.44L365.504 1085.89C365.963 1085.64 366.475 1085.45 367.04 1085.31C367.605 1085.17 368.192 1085.1 368.8 1085.1ZM369.152 1089.97C368.352 1089.99 367.792 1090.13 367.472 1090.4C367.163 1090.66 367.008 1091 367.008 1091.44C367.008 1091.81 367.12 1092.08 367.344 1092.24C367.568 1092.4 367.856 1092.48 368.208 1092.48C368.752 1092.48 369.205 1092.33 369.568 1092.02C369.931 1091.7 370.112 1091.24 370.112 1090.66V1089.94L369.152 1089.97ZM377.69 1085.12C378.234 1085.12 378.719 1085.23 379.146 1085.44C379.573 1085.65 379.935 1085.97 380.234 1086.4H380.314L380.506 1085.28H382.41V1094.03C382.41 1094.86 382.25 1095.56 381.93 1096.11C381.61 1096.68 381.13 1097.1 380.49 1097.39C379.85 1097.69 379.055 1097.84 378.106 1097.84C377.487 1097.84 376.911 1097.8 376.378 1097.73C375.855 1097.65 375.349 1097.52 374.858 1097.33V1095.49C375.21 1095.64 375.567 1095.76 375.93 1095.86C376.293 1095.96 376.666 1096.04 377.05 1096.08C377.445 1096.13 377.839 1096.16 378.234 1096.16C378.874 1096.16 379.349 1095.99 379.658 1095.65C379.978 1095.31 380.138 1094.8 380.138 1094.13V1093.94C380.138 1093.75 380.143 1093.57 380.154 1093.38C380.175 1093.17 380.191 1093 380.202 1092.86H380.138C379.839 1093.32 379.482 1093.65 379.066 1093.86C378.65 1094.06 378.175 1094.16 377.642 1094.16C376.597 1094.16 375.781 1093.77 375.194 1092.98C374.607 1092.18 374.314 1091.07 374.314 1089.66C374.314 1088.7 374.447 1087.89 374.714 1087.22C374.981 1086.53 375.37 1086.02 375.882 1085.66C376.394 1085.3 376.997 1085.12 377.69 1085.12ZM378.378 1086.98C377.994 1086.98 377.669 1087.08 377.402 1087.28C377.146 1087.48 376.954 1087.79 376.826 1088.19C376.698 1088.59 376.634 1089.08 376.634 1089.68C376.634 1090.58 376.778 1091.25 377.066 1091.7C377.365 1092.14 377.813 1092.37 378.41 1092.37C378.741 1092.37 379.018 1092.33 379.242 1092.24C379.477 1092.15 379.669 1092.02 379.818 1091.82C379.978 1091.63 380.095 1091.39 380.17 1091.09C380.245 1090.78 380.282 1090.41 380.282 1089.97V1089.66C380.282 1089.02 380.213 1088.51 380.074 1088.11C379.946 1087.72 379.743 1087.43 379.466 1087.25C379.189 1087.07 378.826 1086.98 378.378 1086.98ZM388.504 1085.12C389.304 1085.12 389.992 1085.27 390.568 1085.58C391.144 1085.89 391.587 1086.34 391.896 1086.93C392.216 1087.51 392.376 1088.23 392.376 1089.07V1090.19H386.712C386.733 1090.9 386.936 1091.45 387.32 1091.86C387.715 1092.25 388.259 1092.45 388.952 1092.45C389.517 1092.45 390.024 1092.39 390.472 1092.29C390.931 1092.17 391.405 1092 391.896 1091.78V1093.54C391.469 1093.75 391.021 1093.9 390.552 1094C390.083 1094.11 389.517 1094.16 388.856 1094.16C387.981 1094.16 387.208 1094 386.536 1093.68C385.875 1093.35 385.352 1092.85 384.968 1092.19C384.595 1091.53 384.408 1090.7 384.408 1089.71C384.408 1088.69 384.579 1087.84 384.92 1087.17C385.261 1086.5 385.736 1085.99 386.344 1085.65C386.963 1085.3 387.683 1085.12 388.504 1085.12ZM388.52 1086.75C388.029 1086.75 387.624 1086.91 387.304 1087.23C386.995 1087.54 386.813 1088.02 386.76 1088.67H390.216C390.216 1088.3 390.152 1087.97 390.024 1087.68C389.907 1087.39 389.72 1087.17 389.464 1087.01C389.219 1086.84 388.904 1086.75 388.52 1086.75Z" fill="#1F1F1F" id="n254"/>
<path fill-rule="evenodd" clip-rule="evenodd" d="M411.936 1077.6L410.298 1078.74L413.207 1082.9C412.115 1083.92 411.353 1085.3 411.095 1086.84L408.495 1086.62C407.69 1086.56 407 1087.19 407 1088C407 1088.81 407.69 1089.44 408.495 1089.38L411.095 1089.16C411.378 1090.86 412.273 1092.35 413.545 1093.4L412.056 1095.54C411.596 1096.21 411.801 1097.12 412.5 1097.53C413.199 1097.93 414.094 1097.65 414.439 1096.92L415.551 1094.56C416.313 1094.84 417.138 1095 418 1095C418.862 1095 419.687 1094.84 420.449 1094.56L421.106 1094.18L424.064 1098.4L425.702 1097.26L422.793 1093.1L421.627 1091.44L416.012 1083.42L411.936 1077.6ZM413.669 1085.5C413.866 1085.16 414.102 1084.84 414.371 1084.56L419.991 1092.59C419.381 1092.85 418.708 1093 418 1093C417.124 1093 416.301 1092.77 415.585 1092.38C414.795 1091.92 414.128 1091.29 413.669 1090.5C413.243 1089.76 413 1088.91 413 1088C413 1087.09 413.243 1086.24 413.669 1085.5Z" fill="#535353" id="n255"/>
<path d="M416.829 1081.1L418.163 1083C419.019 1083.03 419.835 1083.29 420.577 1083.71C421.302 1084.15 421.907 1084.77 422.331 1085.5C422.757 1086.24 423 1087.09 423 1088C423 1088.54 422.913 1089.07 422.753 1089.56L424.086 1091.46C424.485 1090.76 424.767 1089.98 424.905 1089.16L427.505 1089.38C428.31 1089.44 429 1088.81 429 1088C429 1087.19 428.31 1086.56 427.505 1086.62L424.905 1086.84C424.622 1085.14 423.727 1083.65 422.455 1082.6L423.944 1080.46C424.404 1079.79 424.199 1078.88 423.5 1078.47C422.801 1078.07 421.906 1078.35 421.561 1079.08L420.449 1081.44C419.687 1081.16 418.862 1081 418 1081C417.601 1081 417.21 1081.03 416.829 1081.1Z" fill="#535353" id="n256"/>
<path d="M647 1095V1093H649V1086C649 1084.62 649.417 1083.39 650.25 1082.31C651.083 1081.24 652.167 1080.53 653.5 1080.2V1079.5C653.5 1079.08 653.646 1078.73 653.938 1078.44C654.229 1078.15 654.583 1078 655 1078C655.417 1078 655.771 1078.15 656.062 1078.44C656.354 1078.73 656.5 1079.08 656.5 1079.5V1080.2C657.833 1080.53 658.917 1081.24 659.75 1082.31C660.583 1083.39 661 1084.62 661 1086V1093H663V1095H647ZM655 1098C654.45 1098 653.979 1097.8 653.588 1097.41C653.196 1097.02 653 1096.55 653 1096H657C657 1096.55 656.804 1097.02 656.413 1097.41C656.021 1097.8 655.55 1098 655 1098ZM651 1093H659V1086C659 1084.9 658.608 1083.96 657.825 1083.18C657.042 1082.39 656.1 1082 655 1082C653.9 1082 652.958 1082.39 652.175 1083.18C651.392 1083.96 651 1084.9 651 1086V1093Z" fill="#535353" id="n257"/>
<path d="M696.85 1093.1C697.7 1092.45 698.65 1091.94 699.7 1091.56C700.75 1091.19 701.85 1091 703 1091C704.15 1091 705.25 1091.19 706.3 1091.56C707.35 1091.94 708.3 1092.45 709.15 1093.1C709.733 1092.42 710.188 1091.64 710.513 1090.78C710.838 1089.91 711 1088.98 711 1088C711 1085.78 710.221 1083.9 708.663 1082.34C707.104 1080.78 705.217 1080 703 1080C700.783 1080 698.896 1080.78 697.338 1082.34C695.779 1083.9 695 1085.78 695 1088C695 1088.98 695.162 1089.91 695.487 1090.78C695.812 1091.64 696.267 1092.42 696.85 1093.1ZM703 1089C702.017 1089 701.188 1088.66 700.513 1087.99C699.838 1087.31 699.5 1086.48 699.5 1085.5C699.5 1084.52 699.838 1083.69 700.513 1083.01C701.188 1082.34 702.017 1082 703 1082C703.983 1082 704.812 1082.34 705.488 1083.01C706.163 1083.69 706.5 1084.52 706.5 1085.5C706.5 1086.48 706.163 1087.31 705.488 1087.99C704.812 1088.66 703.983 1089 703 1089ZM703 1098C701.617 1098 700.317 1097.74 699.1 1097.21C697.883 1096.69 696.825 1095.98 695.925 1095.08C695.025 1094.18 694.312 1093.12 693.788 1091.9C693.262 1090.68 693 1089.38 693 1088C693 1086.62 693.262 1085.32 693.788 1084.1C694.312 1082.88 695.025 1081.83 695.925 1080.92C696.825 1080.02 697.883 1079.31 699.1 1078.79C700.317 1078.26 701.617 1078 703 1078C704.383 1078 705.683 1078.26 706.9 1078.79C708.117 1079.31 709.175 1080.02 710.075 1080.92C710.975 1081.83 711.688 1082.88 712.212 1084.1C712.737 1085.32 713 1086.62 713 1088C713 1089.38 712.737 1090.68 712.212 1091.9C711.688 1093.12 710.975 1094.18 710.075 1095.08C709.175 1095.98 708.117 1096.69 706.9 1097.21C705.683 1097.74 704.383 1098 703 1098Z" fill="#535353" id="n258"/>
<path fill-rule="evenodd" clip-rule="evenodd" d="M746 1088C746 1086.67 746.527 1085.4 747.464 1084.46C748.402 1083.53 749.674 1083 751 1083C752.326 1083 753.598 1083.53 754.535 1084.46L755.242 1085.17L748.171 1092.24L747.464 1091.54C746.527 1090.6 746 1089.33 746 1088ZM748.878 1085.88C748.316 1086.44 748 1087.2 748 1088C748 1088.45 748.102 1088.89 748.293 1089.29L752.293 1085.29C751.893 1085.1 751.451 1085 751 1085C750.204 1085 749.441 1085.32 748.878 1085.88Z" fill="#535353" id="n259"/>
<path d="M742.514 1095.07L745.343 1092.24L746.757 1093.66L743.929 1096.49L742.514 1095.07Z" fill="#535353" id="n260"/>
<path d="M740 1087H744V1089H740V1087Z" fill="#535353" id="n261"/>
<path d="M743.929 1079.51L746.757 1082.34L745.343 1083.76L742.515 1080.93L743.929 1079.51Z" fill="#535353" id="n262"/>
<path d="M752 1077V1081H750V1077H752Z" fill="#535353" id="n263"/>
<path d="M759.485 1080.93L756.657 1083.76L755.242 1082.34L758.071 1079.51L759.485 1080.93Z" fill="#535353" id="n264"/>
<path d="M759.154 1087C759.8 1087 760.415 1087.09 761 1087.25C758.502 1087.95 756.692 1090.04 756.692 1092.5C756.692 1094.96 758.502 1097.05 761 1097.75C760.415 1097.91 759.8 1098 759.154 1098C755.757 1098 753 1095.54 753 1092.5C753 1089.46 755.757 1087 759.154 1087Z" fill="#535353" id="n265"/>
<path d="M793.504 1094H791.584V1086.74C791.584 1086.49 791.584 1086.25 791.584 1086.02C791.594 1085.77 791.605 1085.53 791.616 1085.3C791.626 1085.05 791.637 1084.82 791.648 1084.61C791.541 1084.73 791.408 1084.86 791.248 1085.01C791.088 1085.15 790.922 1085.29 790.752 1085.44L789.472 1086.46L788.512 1085.25L791.92 1082.58H793.504V1094ZM805.364 1091.52H803.844V1094H801.956V1091.52H796.804V1090.08L801.988 1082.54H803.844V1089.94H805.364V1091.52ZM801.956 1087.22C801.956 1086.99 801.956 1086.76 801.956 1086.53C801.967 1086.28 801.977 1086.05 801.988 1085.82C801.999 1085.59 802.009 1085.38 802.02 1085.18C802.031 1084.99 802.041 1084.84 802.052 1084.72H801.988C801.892 1084.92 801.785 1085.14 801.668 1085.36C801.561 1085.57 801.439 1085.78 801.3 1085.97L798.58 1089.94H801.956V1087.22Z" fill="#1F1F1F" id="n266"/>
<circle cx="809" cy="1085" r="1" fill="#1F1F1F" stroke="#1F1F1F" id="n267"/>
<circle cx="809" cy="1091" r="1" fill="#1F1F1F" stroke="#1F1F1F" id="n268"/>
<path d="M820.376 1085.18C820.376 1085.71 820.274 1086.16 820.072 1086.54C819.869 1086.92 819.586 1087.23 819.224 1087.47C818.861 1087.71 818.44 1087.88 817.96 1087.98V1088.03C818.877 1088.14 819.565 1088.42 820.024 1088.88C820.493 1089.34 820.728 1089.95 820.728 1090.7C820.728 1091.37 820.568 1091.96 820.248 1092.48C819.928 1093 819.437 1093.41 818.776 1093.71C818.114 1094.01 817.266 1094.16 816.232 1094.16C815.613 1094.16 815.037 1094.11 814.504 1094C813.981 1093.9 813.48 1093.75 813 1093.54V1091.84C813.49 1092.07 814.008 1092.26 814.552 1092.4C815.096 1092.53 815.613 1092.59 816.104 1092.59C817.042 1092.59 817.709 1092.42 818.104 1092.08C818.498 1091.73 818.696 1091.24 818.696 1090.62C818.696 1090.23 818.594 1089.9 818.392 1089.65C818.189 1089.39 817.869 1089.21 817.432 1089.09C816.994 1088.96 816.429 1088.9 815.736 1088.9H814.76V1087.34H815.752C816.424 1087.34 816.952 1087.27 817.336 1087.12C817.73 1086.96 818.013 1086.74 818.184 1086.46C818.365 1086.19 818.456 1085.87 818.456 1085.5C818.456 1085.03 818.301 1084.67 817.992 1084.4C817.682 1084.13 817.224 1084 816.616 1084C816.232 1084 815.88 1084.04 815.56 1084.13C815.25 1084.21 814.962 1084.33 814.696 1084.46C814.44 1084.6 814.194 1084.75 813.96 1084.9L813.048 1083.57C813.336 1083.35 813.661 1083.16 814.024 1082.99C814.386 1082.81 814.786 1082.67 815.224 1082.58C815.672 1082.47 816.162 1082.42 816.696 1082.42C817.88 1082.42 818.786 1082.67 819.416 1083.17C820.056 1083.67 820.376 1084.34 820.376 1085.18ZM829.964 1088.27C829.964 1089.2 829.895 1090.03 829.756 1090.75C829.617 1091.48 829.393 1092.1 829.084 1092.61C828.775 1093.11 828.369 1093.49 827.868 1093.76C827.377 1094.03 826.775 1094.16 826.06 1094.16C825.175 1094.16 824.444 1093.93 823.868 1093.46C823.292 1092.99 822.865 1092.31 822.588 1091.44C822.311 1090.55 822.172 1089.5 822.172 1088.27C822.172 1087.05 822.3 1085.99 822.556 1085.12C822.812 1084.25 823.223 1083.57 823.788 1083.1C824.364 1082.63 825.121 1082.4 826.06 1082.4C826.945 1082.4 827.676 1082.63 828.252 1083.1C828.828 1083.56 829.255 1084.23 829.532 1085.12C829.82 1085.99 829.964 1087.05 829.964 1088.27ZM824.108 1088.29C824.108 1089.24 824.167 1090.03 824.284 1090.67C824.412 1091.3 824.615 1091.78 824.892 1092.1C825.18 1092.41 825.569 1092.56 826.06 1092.56C826.551 1092.56 826.935 1092.41 827.212 1092.1C827.5 1091.79 827.708 1091.31 827.836 1090.67C827.964 1090.03 828.028 1089.23 828.028 1088.27C828.028 1087.32 827.964 1086.53 827.836 1085.9C827.708 1085.26 827.5 1084.79 827.212 1084.48C826.935 1084.16 826.551 1084 826.06 1084C825.569 1084 825.18 1084.16 824.892 1084.48C824.615 1084.79 824.412 1085.26 824.284 1085.9C824.167 1086.53 824.108 1087.33 824.108 1088.29Z" fill="#1F1F1F" id="n269"/>
<circle cx="834" cy="1085" r="1" fill="#1F1F1F" stroke="#1F1F1F" id="n270"/>
<circle cx="834" cy="1091" r="1" fill="#1F1F1F" stroke="#1F1F1F" id="n271"/>
<path d="M843.504 1094H841.584V1086.74C841.584 1086.49 841.584 1086.25 841.584 1086.02C841.594 1085.77 841.605 1085.53 841.616 1085.3C841.626 1085.05 841.637 1084.82 841.648 1084.61C841.541 1084.73 841.408 1084.86 841.248 1085.01C841.088 1085.15 840.922 1085.29 840.752 1085.44L839.472 1086.46L838.512 1085.25L841.92 1082.58H843.504V1094ZM854.98 1094H847.204V1092.56L850.132 1089.6C850.708 1089.01 851.177 1088.51 851.54 1088.1C851.913 1087.67 852.191 1087.27 852.372 1086.9C852.553 1086.52 852.644 1086.11 852.644 1085.66C852.644 1085.13 852.489 1084.73 852.18 1084.46C851.871 1084.19 851.465 1084.05 850.964 1084.05C850.463 1084.05 850.004 1084.15 849.588 1084.35C849.172 1084.54 848.74 1084.82 848.292 1085.17L847.252 1083.9C847.561 1083.64 847.897 1083.39 848.26 1083.17C848.623 1082.94 849.028 1082.76 849.476 1082.62C849.935 1082.49 850.457 1082.42 851.044 1082.42C851.78 1082.42 852.409 1082.55 852.932 1082.82C853.465 1083.07 853.876 1083.43 854.164 1083.89C854.452 1084.35 854.596 1084.88 854.596 1085.49C854.596 1085.95 854.521 1086.38 854.372 1086.78C854.233 1087.19 854.031 1087.58 853.764 1087.97C853.508 1088.34 853.188 1088.73 852.804 1089.14C852.42 1089.53 851.993 1089.95 851.524 1090.4L849.62 1092.24V1092.32H854.98V1094Z" fill="#1F1F1F" id="n272"/>
</g>
</g>
</svg>
