<?xml version='1.0' encoding='utf-8'?>
<svg xmlns="http://www.w3.org/2000/svg" xmlns:xlink="http://www.w3.org/1999/xlink" width="640.0" height="96.0" viewBox="0 0 640.0 96.0" fill="none">
  <defs><clipPath id="clip__asset"><rect x="0" y="0" width="640.0" height="96.0"/></clipPath><mask id="path-307-inside-13_1702_11540" fill="white">
<path d="M244 1417.6C244 1414.24 244 1412.56 244.654 1411.28C245.229 1410.15 246.147 1409.23 247.276 1408.65C248.56 1408 250.24 1408 253.6 1408H738.4C741.76 1408 743.44 1408 744.724 1408.65C745.853 1409.23 746.771 1410.15 747.346 1411.28C748 1412.56 748 1414.24 748 1417.6V1430.4C748 1433.76 748 1435.44 747.346 1436.72C746.771 1437.85 745.853 1438.77 744.724 1439.35C743.44 1440 741.76 1440 738.4 1440H253.6C250.24 1440 248.56 1440 247.276 1439.35C246.147 1438.77 245.229 1437.85 244.654 1436.72C244 1435.44 244 1433.76 244 1430.4V1417.6Z" id="n318"/>
</mask>
<mask id="path-311-inside-14_1702_11540" fill="white">
<path d="M756 1417.6C756 1414.24 756 1412.56 756.654 1411.28C757.229 1410.15 758.147 1409.23 759.276 1408.65C760.56 1408 762.24 1408 765.6 1408H804V1440H765.6C762.24 1440 760.56 1440 759.276 1439.35C758.147 1438.77 757.229 1437.85 756.654 1436.72C756 1435.44 756 1433.76 756 1430.4V1417.6Z" id="n322"/>
</mask>
<mask id="path-315-inside-15_1702_11540" fill="white">
<path d="M804 1408H842.4C845.76 1408 847.44 1408 848.724 1408.65C849.853 1409.23 850.771 1410.15 851.346 1411.28C852 1412.56 852 1414.24 852 1417.6V1430.4C852 1433.76 852 1435.44 851.346 1436.72C850.771 1437.85 849.853 1438.77 848.724 1439.35C847.44 1440 845.76 1440 842.4 1440H804V1408Z" id="n326"/>
</mask>
<filter id="filter9_d_1702_11540" x="230" y="1351" width="644" height="100" filterUnits="userSpaceOnUse" color-interpolation-filters="sRGB">
<feFlood flood-opacity="0" result="BackgroundImageFix" id="n1660"/>
<feColorMatrix in="SourceAlpha" type="matrix" values="0 0 0 0 0 0 0 0 0 0 0 0 0 0 0 0 0 0 127 0" result="hardAlpha" id="n1661"/>
<feOffset dy="1" id="n1662"/>
<feGaussianBlur stdDeviation="1" id="n1663"/>
<feColorMatrix type="matrix" values="0 0 0 0 0 0 0 0 0 0 0 0 0 0 0 0 0 0 0.23 0" id="n1664"/>
<feBlend mode="normal" in2="BackgroundImageFix" result="effect1_dropShadow_1702_11540" id="n1665"/>
<feBlend mode="normal" in="SourceGraphic" in2="effect1_dropShadow_1702_11540" result="shape" id="n1666"/>
</filter>
</defs>
  <g clip-path="url(#clip__asset)" transform="translate(-232.0 -1352.0)"><g filter="url(#filter9_d_1702_11540)" id="n302">
<rect width="640" height="96" transform="translate(232 1352)" fill="#FCFCFC" id="n303"/>
<path d="M251 1377H269V1375H251V1377Z" fill="#535353" id="n304"/>
<path d="M251 1382H269V1380H251V1382Z" fill="#535353" id="n305"/>
<path d="M251 1370V1372H269V1370H251Z" fill="#535353" id="n306"/>
<path d="M289.024 1370.58C290.507 1370.58 291.584 1370.89 292.256 1371.52C292.939 1372.15 293.28 1373.02 293.28 1374.13C293.28 1374.62 293.205 1375.09 293.056 1375.55C292.907 1376 292.656 1376.4 292.304 1376.75C291.952 1377.1 291.493 1377.38 290.928 1377.58C290.363 1377.79 289.664 1377.89 288.832 1377.89H287.76V1382H285.456V1370.58H289.024ZM288.896 1372.48H287.76V1376H288.592C289.083 1376 289.499 1375.94 289.84 1375.82C290.192 1375.7 290.464 1375.5 290.656 1375.23C290.848 1374.97 290.944 1374.62 290.944 1374.19C290.944 1373.62 290.779 1373.19 290.448 1372.91C290.117 1372.62 289.6 1372.48 288.896 1372.48ZM298.8 1373.1C299.963 1373.1 300.848 1373.35 301.456 1373.86C302.064 1374.36 302.368 1375.13 302.368 1376.18V1382H300.784L300.336 1380.82H300.272C300.027 1381.13 299.771 1381.38 299.504 1381.58C299.248 1381.79 298.949 1381.93 298.608 1382.02C298.277 1382.11 297.867 1382.16 297.376 1382.16C296.864 1382.16 296.4 1382.06 295.984 1381.87C295.579 1381.67 295.259 1381.37 295.024 1380.96C294.789 1380.55 294.672 1380.04 294.672 1379.42C294.672 1378.5 294.997 1377.81 295.648 1377.38C296.309 1376.93 297.296 1376.68 298.608 1376.64L300.112 1376.59V1376.19C300.112 1375.7 299.989 1375.35 299.744 1375.14C299.499 1374.91 299.157 1374.8 298.72 1374.8C298.283 1374.8 297.861 1374.86 297.456 1374.99C297.051 1375.11 296.651 1375.26 296.256 1375.44L295.504 1373.89C295.963 1373.64 296.475 1373.45 297.04 1373.31C297.605 1373.17 298.192 1373.1 298.8 1373.1ZM299.152 1377.97C298.352 1377.99 297.792 1378.13 297.472 1378.4C297.163 1378.66 297.008 1379 297.008 1379.44C297.008 1379.81 297.12 1380.08 297.344 1380.24C297.568 1380.4 297.856 1380.48 298.208 1380.48C298.752 1380.48 299.205 1380.33 299.568 1380.02C299.931 1379.7 300.112 1379.24 300.112 1378.66V1377.94L299.152 1377.97ZM307.69 1373.12C308.234 1373.12 308.719 1373.23 309.146 1373.44C309.573 1373.65 309.935 1373.97 310.234 1374.4H310.314L310.506 1373.28H312.41V1382.03C312.41 1382.86 312.25 1383.56 311.93 1384.11C311.61 1384.68 311.13 1385.1 310.49 1385.39C309.85 1385.69 309.055 1385.84 308.106 1385.84C307.487 1385.84 306.911 1385.8 306.378 1385.73C305.855 1385.65 305.349 1385.52 304.858 1385.33V1383.49C305.21 1383.64 305.567 1383.76 305.93 1383.86C306.293 1383.96 306.666 1384.04 307.05 1384.08C307.445 1384.13 307.839 1384.16 308.234 1384.16C308.874 1384.16 309.349 1383.99 309.658 1383.65C309.978 1383.31 310.138 1382.8 310.138 1382.13V1381.94C310.138 1381.75 310.143 1381.57 310.154 1381.38C310.175 1381.17 310.191 1381 310.202 1380.86H310.138C309.839 1381.32 309.482 1381.65 309.066 1381.86C308.65 1382.06 308.175 1382.16 307.642 1382.16C306.597 1382.16 305.781 1381.77 305.194 1380.98C304.607 1380.18 304.314 1379.07 304.314 1377.66C304.314 1376.7 304.447 1375.89 304.714 1375.22C304.981 1374.53 305.37 1374.02 305.882 1373.66C306.394 1373.3 306.997 1373.12 307.69 1373.12ZM308.378 1374.98C307.994 1374.98 307.669 1375.08 307.402 1375.28C307.146 1375.48 306.954 1375.79 306.826 1376.19C306.698 1376.59 306.634 1377.08 306.634 1377.68C306.634 1378.58 306.778 1379.25 307.066 1379.7C307.365 1380.14 307.813 1380.37 308.41 1380.37C308.741 1380.37 309.018 1380.33 309.242 1380.24C309.477 1380.15 309.669 1380.02 309.818 1379.82C309.978 1379.63 310.095 1379.39 310.17 1379.09C310.245 1378.78 310.282 1378.41 310.282 1377.97V1377.66C310.282 1377.02 310.213 1376.51 310.074 1376.11C309.946 1375.72 309.743 1375.43 309.466 1375.25C309.189 1375.07 308.826 1374.98 308.378 1374.98ZM318.504 1373.12C319.304 1373.12 319.992 1373.27 320.568 1373.58C321.144 1373.89 321.587 1374.34 321.896 1374.93C322.216 1375.51 322.376 1376.23 322.376 1377.07V1378.19H316.712C316.733 1378.9 316.936 1379.45 317.32 1379.86C317.715 1380.25 318.259 1380.45 318.952 1380.45C319.517 1380.45 320.024 1380.39 320.472 1380.29C320.931 1380.17 321.405 1380 321.896 1379.78V1381.54C321.469 1381.75 321.021 1381.9 320.552 1382C320.083 1382.11 319.517 1382.16 318.856 1382.16C317.981 1382.16 317.208 1382 316.536 1381.68C315.875 1381.35 315.352 1380.85 314.968 1380.19C314.595 1379.53 314.408 1378.7 314.408 1377.71C314.408 1376.69 314.579 1375.84 314.92 1375.17C315.261 1374.5 315.736 1373.99 316.344 1373.65C316.963 1373.3 317.683 1373.12 318.504 1373.12ZM318.52 1374.75C318.029 1374.75 317.624 1374.91 317.304 1375.23C316.995 1375.54 316.813 1376.02 316.76 1376.67H320.216C320.216 1376.3 320.152 1375.97 320.024 1375.68C319.907 1375.39 319.72 1375.17 319.464 1375.01C319.219 1374.84 318.904 1374.75 318.52 1374.75Z" fill="#1F1F1F" id="n307"/>
<path fill-rule="evenodd" clip-rule="evenodd" d="M341.936 1365.6L340.298 1366.74L343.207 1370.9C342.115 1371.92 341.353 1373.3 341.095 1374.84L338.495 1374.62C337.69 1374.56 337 1375.19 337 1376C337 1376.81 337.69 1377.44 338.495 1377.38L341.095 1377.16C341.378 1378.86 342.273 1380.35 343.545 1381.4L342.056 1383.54C341.596 1384.21 341.801 1385.12 342.5 1385.53C343.199 1385.93 344.094 1385.65 344.439 1384.92L345.551 1382.56C346.313 1382.84 347.138 1383 348 1383C348.862 1383 349.687 1382.84 350.449 1382.56L351.106 1382.18L354.064 1386.4L355.702 1385.26L352.793 1381.1L351.627 1379.44L346.012 1371.42L341.936 1365.6ZM343.669 1373.5C343.866 1373.16 344.102 1372.84 344.371 1372.56L349.991 1380.59C349.381 1380.85 348.708 1381 348 1381C347.124 1381 346.301 1380.77 345.585 1380.38C344.795 1379.92 344.128 1379.29 343.669 1378.5C343.243 1377.76 343 1376.91 343 1376C343 1375.09 343.243 1374.24 343.669 1373.5Z" fill="#535353" id="n308"/>
<path d="M346.829 1369.1L348.163 1371C349.019 1371.03 349.835 1371.29 350.577 1371.71C351.302 1372.15 351.907 1372.77 352.331 1373.5C352.757 1374.24 353 1375.09 353 1376C353 1376.54 352.913 1377.07 352.753 1377.56L354.086 1379.46C354.485 1378.76 354.767 1377.98 354.905 1377.16L357.505 1377.38C358.31 1377.44 359 1376.81 359 1376C359 1375.19 358.31 1374.56 357.505 1374.62L354.905 1374.84C354.622 1373.14 353.727 1371.65 352.455 1370.6L353.944 1368.46C354.404 1367.79 354.199 1366.88 353.5 1366.47C352.801 1366.07 351.906 1366.35 351.561 1367.08L350.449 1369.44C349.687 1369.16 348.862 1369 348 1369C347.601 1369 347.21 1369.03 346.829 1369.1Z" fill="#535353" id="n309"/>
<path d="M744.85 1381.1C745.7 1380.45 746.65 1379.94 747.7 1379.56C748.75 1379.19 749.85 1379 751 1379C752.15 1379 753.25 1379.19 754.3 1379.56C755.35 1379.94 756.3 1380.45 757.15 1381.1C757.733 1380.42 758.188 1379.64 758.513 1378.78C758.838 1377.91 759 1376.98 759 1376C759 1373.78 758.221 1371.9 756.663 1370.34C755.104 1368.78 753.217 1368 751 1368C748.783 1368 746.896 1368.78 745.338 1370.34C743.779 1371.9 743 1373.78 743 1376C743 1376.98 743.162 1377.91 743.487 1378.78C743.812 1379.64 744.267 1380.42 744.85 1381.1ZM751 1377C750.017 1377 749.188 1376.66 748.513 1375.99C747.838 1375.31 747.5 1374.48 747.5 1373.5C747.5 1372.52 747.838 1371.69 748.513 1371.01C749.188 1370.34 750.017 1370 751 1370C751.983 1370 752.812 1370.34 753.488 1371.01C754.163 1371.69 754.5 1372.52 754.5 1373.5C754.5 1374.48 754.163 1375.31 753.488 1375.99C752.812 1376.66 751.983 1377 751 1377ZM751 1386C749.617 1386 748.317 1385.74 747.1 1385.21C745.883 1384.69 744.825 1383.98 743.925 1383.08C743.025 1382.18 742.312 1381.12 741.788 1379.9C741.262 1378.68 741 1377.38 741 1376C741 1374.62 741.262 1373.32 741.788 1372.1C742.312 1370.88 743.025 1369.83 743.925 1368.92C744.825 1368.02 745.883 1367.31 747.1 1366.79C748.317 1366.26 749.617 1366 751 1366C752.383 1366 753.683 1366.26 754.9 1366.79C756.117 1367.31 757.175 1368.02 758.075 1368.92C758.975 1369.83 759.688 1370.88 760.212 1372.1C760.737 1373.32 761 1374.62 761 1376C761 1377.38 760.737 1378.68 760.212 1379.9C759.688 1381.12 758.975 1382.18 758.075 1383.08C757.175 1383.98 756.117 1384.69 754.9 1385.21C753.683 1385.74 752.383 1386 751 1386Z" fill="#535353" id="n310"/>
<path d="M793.504 1382H791.584V1374.74C791.584 1374.49 791.584 1374.25 791.584 1374.02C791.594 1373.77 791.605 1373.53 791.616 1373.3C791.626 1373.05 791.637 1372.82 791.648 1372.61C791.541 1372.73 791.408 1372.86 791.248 1373.01C791.088 1373.15 790.922 1373.29 790.752 1373.44L789.472 1374.46L788.512 1373.25L791.92 1370.58H793.504V1382ZM805.364 1379.52H803.844V1382H801.956V1379.52H796.804V1378.08L801.988 1370.54H803.844V1377.94H805.364V1379.52ZM801.956 1375.22C801.956 1374.99 801.956 1374.76 801.956 1374.53C801.967 1374.28 801.977 1374.05 801.988 1373.82C801.999 1373.59 802.009 1373.38 802.02 1373.18C802.031 1372.99 802.041 1372.84 802.052 1372.72H801.988C801.892 1372.92 801.785 1373.14 801.668 1373.36C801.561 1373.57 801.439 1373.78 801.3 1373.97L798.58 1377.94H801.956V1375.22Z" fill="#1F1F1F" id="n311"/>
<circle cx="809" cy="1373" r="1" fill="#1F1F1F" stroke="#1F1F1F" id="n312"/>
<circle cx="809" cy="1379" r="1" fill="#1F1F1F" stroke="#1F1F1F" id="n313"/>
<path d="M820.376 1373.18C820.376 1373.71 820.274 1374.16 820.072 1374.54C819.869 1374.92 819.586 1375.23 819.224 1375.47C818.861 1375.71 818.44 1375.88 817.96 1375.98V1376.03C818.877 1376.14 819.565 1376.42 820.024 1376.88C820.493 1377.34 820.728 1377.95 820.728 1378.7C820.728 1379.37 820.568 1379.96 820.248 1380.48C819.928 1381 819.437 1381.41 818.776 1381.71C818.114 1382.01 817.266 1382.16 816.232 1382.16C815.613 1382.16 815.037 1382.11 814.504 1382C813.981 1381.9 813.48 1381.75 813 1381.54V1379.84C813.49 1380.07 814.008 1380.26 814.552 1380.4C815.096 1380.53 815.613 1380.59 816.104 1380.59C817.042 1380.59 817.709 1380.42 818.104 1380.08C818.498 1379.73 818.696 1379.24 818.696 1378.62C818.696 1378.23 818.594 1377.9 818.392 1377.65C818.189 1377.39 817.869 1377.21 817.432 1377.09C816.994 1376.96 816.429 1376.9 815.736 1376.9H814.76V1375.34H815.752C816.424 1375.34 816.952 1375.27 817.336 1375.12C817.73 1374.96 818.013 1374.74 818.184 1374.46C818.365 1374.19 818.456 1373.87 818.456 1373.5C818.456 1373.03 818.301 1372.67 817.992 1372.4C817.682 1372.13 817.224 1372 816.616 1372C816.232 1372 815.88 1372.04 815.56 1372.13C815.25 1372.21 814.962 1372.33 814.696 1372.46C814.44 1372.6 814.194 1372.75 813.96 1372.9L813.048 1371.57C813.336 1371.35 813.661 1371.16 814.024 1370.99C814.386 1370.81 814.786 1370.67 815.224 1370.58C815.672 1370.47 816.162 1370.42 816.696 1370.42C817.88 1370.42 818.786 1370.67 819.416 1371.17C820.056 1371.67 820.376 1372.34 820.376 1373.18ZM829.964 1376.27C829.964 1377.2 829.895 1378.03 829.756 1378.75C829.617 1379.48 829.393 1380.1 829.084 1380.61C828.775 1381.11 828.369 1381.49 827.868 1381.76C827.377 1382.03 826.775 1382.16 826.06 1382.16C825.175 1382.16 824.444 1381.93 823.868 1381.46C823.292 1380.99 822.865 1380.31 822.588 1379.44C822.311 1378.55 822.172 1377.5 822.172 1376.27C822.172 1375.05 822.3 1373.99 822.556 1373.12C822.812 1372.25 823.223 1371.57 823.788 1371.1C824.364 1370.63 825.121 1370.4 826.06 1370.4C826.945 1370.4 827.676 1370.63 828.252 1371.1C828.828 1371.56 829.255 1372.23 829.532 1373.12C829.82 1373.99 829.964 1375.05 829.964 1376.27ZM824.108 1376.29C824.108 1377.24 824.167 1378.03 824.284 1378.67C824.412 1379.3 824.615 1379.78 824.892 1380.1C825.18 1380.41 825.569 1380.56 826.06 1380.56C826.551 1380.56 826.935 1380.41 827.212 1380.1C827.5 1379.79 827.708 1379.31 827.836 1378.67C827.964 1378.03 828.028 1377.23 828.028 1376.27C828.028 1375.32 827.964 1374.53 827.836 1373.9C827.708 1373.26 827.5 1372.79 827.212 1372.48C826.935 1372.16 826.551 1372 826.06 1372C825.569 1372 825.18 1372.16 824.892 1372.48C824.615 1372.79 824.412 1373.26 824.284 1373.9C824.167 1374.53 824.108 1375.33 824.108 1376.29Z" fill="#1F1F1F" id="n314"/>
<circle cx="834" cy="1373" r="1" fill="#1F1F1F" stroke="#1F1F1F" id="n315"/>
<circle cx="834" cy="1379" r="1" fill="#1F1F1F" stroke="#1F1F1F" id="n316"/>
<path d="M843.504 1382H841.584V1374.74C841.584 1374.49 841.584 1374.25 841.584 1374.02C841.594 1373.77 841.605 1373.53 841.616 1373.3C841.626 1373.05 841.637 1372.82 841.648 1372.61C841.541 1372.73 841.408 1372.86 841.248 1373.01C841.088 1373.15 840.922 1373.29 840.752 1373.44L839.472 1374.46L838.512 1373.25L841.92 1370.58H843.504V1382ZM854.98 1382H847.204V1380.56L850.132 1377.6C850.708 1377.01 851.177 1376.51 851.54 1376.1C851.913 1375.67 852.191 1375.27 852.372 1374.9C852.553 1374.52 852.644 1374.11 852.644 1373.66C852.644 1373.13 852.489 1372.73 852.18 1372.46C851.871 1372.19 851.465 1372.05 850.964 1372.05C850.463 1372.05 850.004 1372.15 849.588 1372.35C849.172 1372.54 848.74 1372.82 848.292 1373.17L847.252 1371.9C847.561 1371.64 847.897 1371.39 848.26 1371.17C848.623 1370.94 849.028 1370.76 849.476 1370.62C849.935 1370.49 850.457 1370.42 851.044 1370.42C851.78 1370.42 852.409 1370.55 852.932 1370.82C853.465 1371.07 853.876 1371.43 854.164 1371.89C854.452 1372.35 854.596 1372.88 854.596 1373.49C854.596 1373.95 854.521 1374.38 854.372 1374.78C854.233 1375.19 854.031 1375.58 853.764 1375.97C853.508 1376.34 853.188 1376.73 852.804 1377.14C852.42 1377.53 851.993 1377.95 851.524 1378.4L849.62 1380.24V1380.32H854.98V1382Z" fill="#1F1F1F" id="n317"/>
<mask id="path-307-inside-13_1702_11540" fill="white">
<path d="M244 1417.6C244 1414.24 244 1412.56 244.654 1411.28C245.229 1410.15 246.147 1409.23 247.276 1408.65C248.56 1408 250.24 1408 253.6 1408H738.4C741.76 1408 743.44 1408 744.724 1408.65C745.853 1409.23 746.771 1410.15 747.346 1411.28C748 1412.56 748 1414.24 748 1417.6V1430.4C748 1433.76 748 1435.44 747.346 1436.72C746.771 1437.85 745.853 1438.77 744.724 1439.35C743.44 1440 741.76 1440 738.4 1440H253.6C250.24 1440 248.56 1440 247.276 1439.35C246.147 1438.77 245.229 1437.85 244.654 1436.72C244 1435.44 244 1433.76 244 1430.4V1417.6Z" id="n318"/>
</mask>
<path d="M244 1417.6C244 1414.24 244 1412.56 244.654 1411.28C245.229 1410.15 246.147 1409.23 247.276 1408.65C248.56 1408 250.24 1408 253.6 1408H738.4C741.76 1408 743.44 1408 744.724 1408.65C745.853 1409.23 746.771 1410.15 747.346 1411.28C748 1412.56 748 1414.24 748 1417.6V1430.4C748 1433.76 748 1435.44 747.346 1436.72C746.771 1437.85 745.853 1438.77 744.724 1439.35C743.44 1440 741.76 1440 738.4 1440H253.6C250.24 1440 248.56 1440 247.276 1439.35C246.147 1438.77 245.229 1437.85 244.654 1436.72C244 1435.44 244 1433.76 244 1430.4V1417.6Z" fill="black" fill-opacity="0.04" id="n319"/>
<path d="M247.276 1439.35L247.73 1438.46L247.276 1439.35ZM747.346 1436.72L748.237 1437.18L747.346 1436.72ZM744.724 1439.35L745.178 1440.24L744.724 1439.35ZM744.724 1408.65L745.178 1407.76L744.724 1408.65ZM747.346 1411.28L748.237 1410.82L747.346 1411.28ZM253.6 1408V1409H738.4V1408V1407H253.6V1408ZM748 1417.6H747V1430.4H748H749V1417.6H748ZM738.4 1440V1439H253.6V1440V1441H738.4V1440ZM244 1430.4H245V1417.6H244H243V1430.4H244ZM253.6 1440V1439C251.903 1439 250.691 1439 249.741 1438.92C248.802 1438.84 248.207 1438.7 247.73 1438.46L247.276 1439.35L246.822 1440.24C247.628 1440.65 248.515 1440.83 249.578 1440.91C250.628 1441 251.936 1441 253.6 1441V1440ZM244 1430.4H243C243 1432.06 242.999 1433.37 243.085 1434.42C243.172 1435.48 243.352 1436.37 243.763 1437.18L244.654 1436.72L245.545 1436.27C245.302 1435.79 245.155 1435.2 245.078 1434.26C245.001 1433.31 245 1432.1 245 1430.4H244ZM247.276 1439.35L247.73 1438.46C246.789 1437.98 246.024 1437.21 245.545 1436.27L244.654 1436.72L243.763 1437.18C244.434 1438.5 245.505 1439.57 246.822 1440.24L247.276 1439.35ZM748 1430.4H747C747 1432.1 746.999 1433.31 746.922 1434.26C746.845 1435.2 746.698 1435.79 746.455 1436.27L747.346 1436.72L748.237 1437.18C748.648 1436.37 748.828 1435.48 748.915 1434.42C749.001 1433.37 749 1432.06 749 1430.4H748ZM738.4 1440V1441C740.064 1441 741.372 1441 742.422 1440.91C743.485 1440.83 744.372 1440.65 745.178 1440.24L744.724 1439.35L744.27 1438.46C743.793 1438.7 743.198 1438.84 742.259 1438.92C741.309 1439 740.097 1439 738.4 1439V1440ZM747.346 1436.72L746.455 1436.27C745.976 1437.21 745.211 1437.98 744.27 1438.46L744.724 1439.35L745.178 1440.24C746.495 1439.57 747.566 1438.5 748.237 1437.18L747.346 1436.72ZM738.4 1408V1409C740.097 1409 741.309 1409 742.259 1409.08C743.198 1409.16 743.793 1409.3 744.27 1409.54L744.724 1408.65L745.178 1407.76C744.372 1407.35 743.485 1407.17 742.422 1407.09C741.372 1407 740.064 1407 738.4 1407V1408ZM748 1417.6H749C749 1415.94 749.001 1414.63 748.915 1413.58C748.828 1412.52 748.648 1411.63 748.237 1410.82L747.346 1411.28L746.455 1411.73C746.698 1412.21 746.845 1412.8 746.922 1413.74C746.999 1414.69 747 1415.9 747 1417.6H748ZM744.724 1408.65L744.27 1409.54C745.211 1410.02 745.976 1410.79 746.455 1411.73L747.346 1411.28L748.237 1410.82C747.566 1409.5 746.495 1408.43 745.178 1407.76L744.724 1408.65ZM253.6 1408V1407C251.936 1407 250.628 1407 249.578 1407.09C248.515 1407.17 247.628 1407.35 246.822 1407.76L247.276 1408.65L247.73 1409.54C248.207 1409.3 248.802 1409.16 249.741 1409.08C250.691 1409 251.903 1409 253.6 1409V1408ZM244 1417.6H245C245 1415.9 245.001 1414.69 245.078 1413.74C245.155 1412.8 245.302 1412.21 245.545 1411.73L244.654 1411.28L243.763 1410.82C243.352 1411.63 243.172 1412.52 243.085 1413.58C242.999 1414.63 243 1415.94 243 1417.6H244ZM247.276 1408.65L246.822 1407.76C245.505 1408.43 244.434 1409.5 243.763 1410.82L244.654 1411.28L245.545 1411.73C246.024 1410.79 246.789 1410.02 247.73 1409.54L247.276 1408.65Z" fill="black" fill-opacity="0.1" mask="url(#path-307-inside-13_1702_11540)" id="n320"/>
<path d="M266.448 1430H264.976L258.704 1420.37H258.64C258.651 1420.56 258.661 1420.77 258.672 1421.01C258.693 1421.23 258.709 1421.48 258.72 1421.74C258.731 1422 258.736 1422.27 258.736 1422.54C258.747 1422.82 258.752 1423.1 258.752 1423.38V1430H257.568V1418.58H259.024L265.28 1428.18H265.328C265.328 1428.04 265.323 1427.86 265.312 1427.63C265.301 1427.41 265.291 1427.16 265.28 1426.9C265.269 1426.62 265.259 1426.34 265.248 1426.06C265.237 1425.78 265.232 1425.51 265.232 1425.26V1418.58H266.448V1430ZM276.752 1425.71C276.752 1426.41 276.661 1427.03 276.48 1427.58C276.298 1428.13 276.037 1428.59 275.696 1428.98C275.354 1429.36 274.938 1429.65 274.448 1429.86C273.957 1430.06 273.408 1430.16 272.8 1430.16C272.224 1430.16 271.696 1430.06 271.216 1429.86C270.746 1429.65 270.336 1429.36 269.984 1428.98C269.642 1428.59 269.376 1428.13 269.184 1427.58C269.002 1427.04 268.912 1426.42 268.912 1425.71C268.912 1424.77 269.066 1423.98 269.376 1423.33C269.696 1422.67 270.149 1422.16 270.736 1421.81C271.333 1421.46 272.037 1421.28 272.848 1421.28C273.637 1421.28 274.32 1421.46 274.896 1421.81C275.482 1422.16 275.936 1422.67 276.256 1423.33C276.586 1423.99 276.752 1424.78 276.752 1425.71ZM270.208 1425.71C270.208 1426.39 270.298 1426.99 270.48 1427.5C270.672 1428.02 270.96 1428.41 271.344 1428.69C271.728 1428.97 272.218 1429.1 272.816 1429.1C273.424 1429.1 273.92 1428.97 274.304 1428.69C274.698 1428.41 274.986 1428.02 275.168 1427.5C275.349 1426.99 275.44 1426.39 275.44 1425.71C275.44 1425.02 275.344 1424.43 275.152 1423.94C274.97 1423.43 274.688 1423.05 274.304 1422.77C273.93 1422.49 273.434 1422.35 272.816 1422.35C271.92 1422.35 271.258 1422.65 270.832 1423.25C270.416 1423.83 270.208 1424.66 270.208 1425.71ZM286.31 1421.3C287.334 1421.3 288.091 1421.53 288.582 1422C289.072 1422.46 289.318 1423.19 289.318 1424.19V1430H288.39L288.15 1428.72H288.102C287.867 1429.03 287.616 1429.3 287.35 1429.52C287.094 1429.73 286.79 1429.89 286.438 1430C286.096 1430.11 285.68 1430.16 285.19 1430.16C284.667 1430.16 284.203 1430.07 283.798 1429.89C283.392 1429.71 283.072 1429.43 282.838 1429.06C282.614 1428.68 282.502 1428.22 282.502 1427.66C282.502 1426.81 282.838 1426.15 283.51 1425.7C284.192 1425.24 285.222 1424.99 286.598 1424.94L288.086 1424.88V1424.35C288.086 1423.59 287.926 1423.07 287.606 1422.77C287.296 1422.47 286.843 1422.32 286.246 1422.32C285.798 1422.32 285.371 1422.38 284.966 1422.51C284.571 1422.64 284.187 1422.79 283.814 1422.98L283.43 1422.02C283.814 1421.81 284.256 1421.64 284.758 1421.5C285.259 1421.37 285.776 1421.3 286.31 1421.3ZM286.758 1425.82C285.691 1425.87 284.934 1426.04 284.486 1426.35C284.038 1426.66 283.814 1427.1 283.814 1427.68C283.814 1428.17 283.963 1428.54 284.262 1428.78C284.571 1429.02 284.971 1429.14 285.462 1429.14C286.24 1429.14 286.87 1428.92 287.35 1428.5C287.83 1428.06 288.07 1427.41 288.07 1426.56V1425.78L286.758 1425.82ZM295.409 1430.16C294.631 1430.16 293.948 1430 293.361 1429.68C292.775 1429.36 292.316 1428.87 291.985 1428.22C291.665 1427.57 291.505 1426.76 291.505 1425.78C291.505 1424.74 291.676 1423.89 292.017 1423.23C292.369 1422.57 292.849 1422.08 293.457 1421.76C294.065 1421.44 294.759 1421.28 295.537 1421.28C295.964 1421.28 296.375 1421.32 296.769 1421.41C297.164 1421.49 297.489 1421.6 297.745 1421.73L297.377 1422.78C297.111 1422.68 296.807 1422.59 296.465 1422.51C296.124 1422.43 295.804 1422.38 295.505 1422.38C294.908 1422.38 294.407 1422.52 294.001 1422.78C293.596 1423.04 293.292 1423.42 293.089 1423.92C292.897 1424.42 292.801 1425.03 292.801 1425.76C292.801 1426.44 292.897 1427.03 293.089 1427.54C293.281 1428.04 293.569 1428.42 293.953 1428.69C294.337 1428.94 294.817 1429.07 295.393 1429.07C295.852 1429.07 296.263 1429.02 296.625 1428.93C296.988 1428.83 297.319 1428.71 297.617 1428.58V1429.7C297.329 1429.85 297.009 1429.96 296.657 1430.03C296.316 1430.12 295.9 1430.16 295.409 1430.16ZM302.362 1429.12C302.586 1429.12 302.804 1429.1 303.018 1429.07C303.242 1429.03 303.428 1428.99 303.578 1428.94V1429.9C303.418 1429.98 303.204 1430.04 302.938 1430.08C302.682 1430.13 302.42 1430.16 302.154 1430.16C301.706 1430.16 301.3 1430.08 300.938 1429.92C300.575 1429.76 300.282 1429.49 300.058 1429.12C299.844 1428.74 299.738 1428.21 299.738 1427.54V1422.43H298.506V1421.81L299.754 1421.33L300.234 1419.46H301.002V1421.44H303.514V1422.43H301.002V1427.5C301.002 1428.05 301.119 1428.45 301.354 1428.72C301.599 1428.99 301.935 1429.12 302.362 1429.12ZM306.577 1421.44V1430H305.329V1421.44H306.577ZM305.969 1418.24C306.182 1418.24 306.358 1418.31 306.497 1418.45C306.646 1418.59 306.721 1418.8 306.721 1419.09C306.721 1419.35 306.646 1419.56 306.497 1419.71C306.358 1419.85 306.182 1419.92 305.969 1419.92C305.745 1419.92 305.558 1419.85 305.409 1419.71C305.27 1419.56 305.201 1419.35 305.201 1419.09C305.201 1418.8 305.27 1418.59 305.409 1418.45C305.558 1418.31 305.745 1418.24 305.969 1418.24ZM311.201 1430L307.953 1421.44H309.297L311.201 1426.67C311.286 1426.91 311.377 1427.16 311.473 1427.44C311.569 1427.71 311.649 1427.96 311.713 1428.21C311.788 1428.45 311.841 1428.67 311.873 1428.85H311.937C311.98 1428.67 312.038 1428.45 312.113 1428.21C312.198 1427.95 312.289 1427.69 312.385 1427.42C312.481 1427.15 312.566 1426.9 312.641 1426.67L314.545 1421.44H315.889L312.625 1430H311.201ZM320.547 1421.28C321.283 1421.28 321.907 1421.45 322.419 1421.78C322.941 1422.1 323.336 1422.55 323.603 1423.14C323.88 1423.71 324.019 1424.39 324.019 1425.17V1425.95H318.083C318.104 1426.97 318.355 1427.74 318.835 1428.29C319.325 1428.82 320.019 1429.09 320.915 1429.09C321.448 1429.09 321.923 1429.04 322.339 1428.94C322.755 1428.84 323.187 1428.69 323.635 1428.5V1429.6C323.208 1429.79 322.781 1429.93 322.355 1430.02C321.928 1430.11 321.427 1430.16 320.851 1430.16C320.029 1430.16 319.309 1429.99 318.691 1429.66C318.083 1429.32 317.613 1428.83 317.283 1428.18C316.952 1427.51 316.787 1426.72 316.787 1425.79C316.787 1424.87 316.936 1424.08 317.235 1423.41C317.544 1422.74 317.981 1422.21 318.547 1421.84C319.112 1421.47 319.779 1421.28 320.547 1421.28ZM320.531 1422.32C319.827 1422.32 319.267 1422.55 318.851 1423.01C318.435 1423.47 318.189 1424.11 318.115 1424.94H322.707C322.707 1424.42 322.627 1423.97 322.467 1423.58C322.317 1423.19 322.083 1422.88 321.763 1422.66C321.443 1422.43 321.032 1422.32 320.531 1422.32ZM333.544 1421.3C334.568 1421.3 335.325 1421.53 335.816 1422C336.307 1422.46 336.552 1423.19 336.552 1424.19V1430H335.624L335.384 1428.72H335.336C335.101 1429.03 334.851 1429.3 334.584 1429.52C334.328 1429.73 334.024 1429.89 333.672 1430C333.331 1430.11 332.915 1430.16 332.424 1430.16C331.901 1430.16 331.437 1430.07 331.032 1429.89C330.627 1429.71 330.307 1429.43 330.072 1429.06C329.848 1428.68 329.736 1428.22 329.736 1427.66C329.736 1426.81 330.072 1426.15 330.744 1425.7C331.427 1425.24 332.456 1424.99 333.832 1424.94L335.32 1424.88V1424.35C335.32 1423.59 335.16 1423.07 334.84 1422.77C334.531 1422.47 334.077 1422.32 333.48 1422.32C333.032 1422.32 332.605 1422.38 332.2 1422.51C331.805 1422.64 331.421 1422.79 331.048 1422.98L330.664 1422.02C331.048 1421.81 331.491 1421.64 331.992 1421.5C332.493 1421.37 333.011 1421.3 333.544 1421.3ZM333.992 1425.82C332.925 1425.87 332.168 1426.04 331.72 1426.35C331.272 1426.66 331.048 1427.1 331.048 1427.68C331.048 1428.17 331.197 1428.54 331.496 1428.78C331.805 1429.02 332.205 1429.14 332.696 1429.14C333.475 1429.14 334.104 1428.92 334.584 1428.5C335.064 1428.06 335.304 1427.41 335.304 1426.56V1425.78L333.992 1425.82ZM340.484 1430H339.22V1417.84H340.484V1430ZM346.5 1421.28C347.236 1421.28 347.86 1421.45 348.372 1421.78C348.894 1422.1 349.289 1422.55 349.556 1423.14C349.833 1423.71 349.972 1424.39 349.972 1425.17V1425.95H344.036C344.057 1426.97 344.308 1427.74 344.788 1428.29C345.278 1428.82 345.972 1429.09 346.868 1429.09C347.401 1429.09 347.876 1429.04 348.292 1428.94C348.708 1428.84 349.14 1428.69 349.588 1428.5V1429.6C349.161 1429.79 348.734 1429.93 348.308 1430.02C347.881 1430.11 347.38 1430.16 346.804 1430.16C345.982 1430.16 345.262 1429.99 344.644 1429.66C344.036 1429.32 343.566 1428.83 343.236 1428.18C342.905 1427.51 342.74 1426.72 342.74 1425.79C342.74 1424.87 342.889 1424.08 343.188 1423.41C343.497 1422.74 343.934 1422.21 344.5 1421.84C345.065 1421.47 345.732 1421.28 346.5 1421.28ZM346.484 1422.32C345.78 1422.32 345.22 1422.55 344.804 1423.01C344.388 1423.47 344.142 1424.11 344.068 1424.94H348.66C348.66 1424.42 348.58 1423.97 348.42 1423.58C348.27 1423.19 348.036 1422.88 347.716 1422.66C347.396 1422.43 346.985 1422.32 346.484 1422.32ZM356.013 1421.3C356.194 1421.3 356.376 1421.31 356.557 1421.33C356.749 1421.34 356.92 1421.36 357.069 1421.39L356.909 1422.56C356.76 1422.52 356.6 1422.49 356.429 1422.46C356.269 1422.44 356.104 1422.43 355.933 1422.43C355.592 1422.43 355.266 1422.51 354.957 1422.66C354.658 1422.79 354.392 1422.99 354.157 1423.25C353.933 1423.5 353.757 1423.81 353.629 1424.18C353.501 1424.54 353.437 1424.94 353.437 1425.39V1430H352.173V1421.44H353.213L353.341 1423.02H353.405C353.576 1422.7 353.784 1422.42 354.029 1422.16C354.285 1421.89 354.578 1421.69 354.909 1421.54C355.25 1421.38 355.618 1421.3 356.013 1421.3ZM361.409 1429.12C361.633 1429.12 361.851 1429.1 362.065 1429.07C362.289 1429.03 362.475 1428.99 362.625 1428.94V1429.9C362.465 1429.98 362.251 1430.04 361.985 1430.08C361.729 1430.13 361.467 1430.16 361.201 1430.16C360.753 1430.16 360.347 1430.08 359.985 1429.92C359.622 1429.76 359.329 1429.49 359.105 1429.12C358.891 1428.74 358.785 1428.21 358.785 1427.54V1422.43H357.553V1421.81L358.801 1421.33L359.281 1419.46H360.049V1421.44H362.561V1422.43H360.049V1427.5C360.049 1428.05 360.166 1428.45 360.401 1428.72C360.646 1428.99 360.982 1429.12 361.409 1429.12ZM369.896 1427.66C369.896 1428.21 369.757 1428.67 369.48 1429.04C369.213 1429.4 368.824 1429.68 368.312 1429.87C367.811 1430.06 367.208 1430.16 366.504 1430.16C365.907 1430.16 365.389 1430.11 364.952 1430.02C364.515 1429.92 364.131 1429.79 363.8 1429.62V1428.46C364.152 1428.63 364.568 1428.79 365.048 1428.93C365.539 1429.07 366.035 1429.14 366.536 1429.14C367.283 1429.14 367.821 1429.01 368.152 1428.77C368.493 1428.52 368.664 1428.19 368.664 1427.78C368.664 1427.53 368.595 1427.32 368.456 1427.14C368.328 1426.95 368.104 1426.78 367.784 1426.61C367.475 1426.44 367.043 1426.25 366.488 1426.05C365.944 1425.85 365.475 1425.64 365.08 1425.44C364.685 1425.24 364.376 1424.99 364.152 1424.69C363.939 1424.39 363.832 1424.01 363.832 1423.54C363.832 1422.81 364.12 1422.26 364.696 1421.87C365.283 1421.48 366.051 1421.28 367 1421.28C367.523 1421.28 368.008 1421.33 368.456 1421.44C368.904 1421.54 369.32 1421.67 369.704 1421.84L369.272 1422.86C369.048 1422.76 368.803 1422.67 368.536 1422.59C368.28 1422.51 368.013 1422.44 367.736 1422.4C367.469 1422.35 367.197 1422.32 366.92 1422.32C366.312 1422.32 365.843 1422.42 365.512 1422.62C365.192 1422.83 365.032 1423.1 365.032 1423.46C365.032 1423.72 365.107 1423.95 365.256 1424.13C365.405 1424.3 365.645 1424.46 365.976 1424.61C366.317 1424.76 366.749 1424.93 367.272 1425.14C367.805 1425.33 368.264 1425.53 368.648 1425.74C369.043 1425.95 369.347 1426.2 369.56 1426.51C369.784 1426.81 369.896 1427.19 369.896 1427.66Z" fill="#535353" id="n321"/>
<mask id="path-311-inside-14_1702_11540" fill="white">
<path d="M756 1417.6C756 1414.24 756 1412.56 756.654 1411.28C757.229 1410.15 758.147 1409.23 759.276 1408.65C760.56 1408 762.24 1408 765.6 1408H804V1440H765.6C762.24 1440 760.56 1440 759.276 1439.35C758.147 1438.77 757.229 1437.85 756.654 1436.72C756 1435.44 756 1433.76 756 1430.4V1417.6Z" id="n322"/>
</mask>
<path d="M756 1417.6C756 1414.24 756 1412.56 756.654 1411.28C757.229 1410.15 758.147 1409.23 759.276 1408.65C760.56 1408 762.24 1408 765.6 1408H804V1440H765.6C762.24 1440 760.56 1440 759.276 1439.35C758.147 1438.77 757.229 1437.85 756.654 1436.72C756 1435.44 756 1433.76 756 1430.4V1417.6Z" fill="white" id="n323"/>
<path d="M804 1408H805V1407H804V1408ZM804 1440V1441H805V1440H804ZM759.276 1439.35L759.73 1438.46L759.276 1439.35ZM765.6 1408V1409H804V1408V1407H765.6V1408ZM804 1408H803V1440H804H805V1408H804ZM804 1440V1439H765.6V1440V1441H804V1440ZM756 1430.4H757V1417.6H756H755V1430.4H756ZM765.6 1440V1439C763.903 1439 762.691 1439 761.741 1438.92C760.802 1438.84 760.207 1438.7 759.73 1438.46L759.276 1439.35L758.822 1440.24C759.628 1440.65 760.515 1440.83 761.578 1440.91C762.628 1441 763.936 1441 765.6 1441V1440ZM756 1430.4H755C755 1432.06 754.999 1433.37 755.085 1434.42C755.172 1435.48 755.352 1436.37 755.763 1437.18L756.654 1436.72L757.545 1436.27C757.302 1435.79 757.155 1435.2 757.078 1434.26C757.001 1433.31 757 1432.1 757 1430.4H756ZM759.276 1439.35L759.73 1438.46C758.789 1437.98 758.024 1437.21 757.545 1436.27L756.654 1436.72L755.763 1437.18C756.434 1438.5 757.505 1439.57 758.822 1440.24L759.276 1439.35ZM765.6 1408V1407C763.936 1407 762.628 1407 761.578 1407.09C760.515 1407.17 759.628 1407.35 758.822 1407.76L759.276 1408.65L759.73 1409.54C760.207 1409.3 760.802 1409.16 761.741 1409.08C762.691 1409 763.903 1409 765.6 1409V1408ZM756 1417.6H757C757 1415.9 757.001 1414.69 757.078 1413.74C757.155 1412.8 757.302 1412.21 757.545 1411.73L756.654 1411.28L755.763 1410.82C755.352 1411.63 755.172 1412.52 755.085 1413.58C754.999 1414.63 755 1415.94 755 1417.6H756ZM759.276 1408.65L758.822 1407.76C757.505 1408.43 756.434 1409.5 755.763 1410.82L756.654 1411.28L757.545 1411.73C758.024 1410.79 758.789 1410.02 759.73 1409.54L759.276 1408.65Z" fill="#BEBEBE" mask="url(#path-311-inside-14_1702_11540)" id="n324"/>
<path d="M772 1431V1429H774V1422C774 1420.62 774.417 1419.39 775.25 1418.31C776.083 1417.24 777.167 1416.53 778.5 1416.2V1415.5C778.5 1415.08 778.646 1414.73 778.938 1414.44C779.229 1414.15 779.583 1414 780 1414C780.417 1414 780.771 1414.15 781.062 1414.44C781.354 1414.73 781.5 1415.08 781.5 1415.5V1416.2C782.833 1416.53 783.917 1417.24 784.75 1418.31C785.583 1419.39 786 1420.62 786 1422V1429H788V1431H772ZM780 1434C779.45 1434 778.979 1433.8 778.588 1433.41C778.196 1433.02 778 1432.55 778 1432H782C782 1432.55 781.804 1433.02 781.413 1433.41C781.021 1433.8 780.55 1434 780 1434ZM776 1429H784V1422C784 1420.9 783.608 1419.96 782.825 1419.18C782.042 1418.39 781.1 1418 780 1418C778.9 1418 777.958 1418.39 777.175 1419.18C776.392 1419.96 776 1420.9 776 1422V1429Z" fill="#535353" id="n325"/>
<mask id="path-315-inside-15_1702_11540" fill="white">
<path d="M804 1408H842.4C845.76 1408 847.44 1408 848.724 1408.65C849.853 1409.23 850.771 1410.15 851.346 1411.28C852 1412.56 852 1414.24 852 1417.6V1430.4C852 1433.76 852 1435.44 851.346 1436.72C850.771 1437.85 849.853 1438.77 848.724 1439.35C847.44 1440 845.76 1440 842.4 1440H804V1408Z" id="n326"/>
</mask>
<path d="M804 1408H842.4C845.76 1408 847.44 1408 848.724 1408.65C849.853 1409.23 850.771 1410.15 851.346 1411.28C852 1412.56 852 1414.24 852 1417.6V1430.4C852 1433.76 852 1435.44 851.346 1436.72C850.771 1437.85 849.853 1438.77 848.724 1439.35C847.44 1440 845.76 1440 842.4 1440H804V1408Z" fill="white" id="n327"/>
<path d="M804 1407H846C849.866 1407 853 1410.13 853 1414H851C851 1411.24 848.761 1409 846 1409H804V1407ZM853 1434C853 1437.87 849.866 1441 846 1441H804V1439H846C848.761 1439 851 1436.76 851 1434H853ZM804 1440V1408V1440ZM846 1407C849.866 1407 853 1410.13 853 1414V1434C853 1437.87 849.866 1441 846 1441V1439C848.761 1439 851 1436.76 851 1434V1414C851 1411.24 848.761 1409 846 1409V1407Z" fill="#BEBEBE" mask="url(#path-315-inside-15_1702_11540)" id="n328"/>
<path fill-rule="evenodd" clip-rule="evenodd" d="M820.515 1414.1L819.101 1415.51L823.586 1420H820.6C820.04 1420 819.76 1420 819.546 1420.11C819.358 1420.2 819.205 1420.36 819.109 1420.55C819 1420.76 819 1421.04 819 1421.6V1426.4C819 1426.96 819 1427.24 819.109 1427.45C819.205 1427.64 819.358 1427.8 819.546 1427.89C819.76 1428 820.04 1428 820.6 1428H827L832.634 1433.63C833.063 1434.06 833.277 1434.28 833.461 1434.29C833.62 1434.3 833.776 1434.24 833.88 1434.12C834 1433.98 834 1433.67 834 1433.07V1430.41L836.485 1432.9L837.9 1431.49L820.515 1414.1ZM821 1422H825.586L832 1428.41V1430.17L827.828 1426H821V1422Z" fill="#535353" id="n329"/>
<path d="M828.121 1418.88L829.536 1420.29L832 1417.83V1422.76L834 1424.76V1414.93C834 1414.33 834 1414.02 833.88 1413.88C833.776 1413.76 833.62 1413.7 833.461 1413.71C833.277 1413.72 833.063 1413.94 832.634 1414.37L828.121 1418.88Z" fill="#535353" id="n330"/>
</g>
</g>
</svg>
