<?xml version='1.0' encoding='utf-8'?>
<svg xmlns="http://www.w3.org/2000/svg" xmlns:xlink="http://www.w3.org/1999/xlink" width="384.0" height="216.0" viewBox="0 0 384.0 216.0" fill="none">
  <defs><clipPath id="clip__asset"><rect x="0" y="0" width="384.0" height="216.0"/></clipPath><mask id="mask30_68_6728" style="mask-type:luminance" maskUnits="userSpaceOnUse" x="1260" y="504" width="512" height="512">
<path d="M1516 572C1617.15 572 1699.64 651.878 1703.83 751.994C1704.02 756.408 1700.42 760 1696 760H1680C1680 669.425 1606.57 596 1516 596C1425.43 596 1352 669.425 1352 760H1336C1331.58 760 1327.98 756.408 1328.17 751.994C1332.36 651.878 1414.85 572 1516 572Z" fill="white" stroke="black" id="n149"/>
</mask>
<mask id="mask31_68_6728" style="mask-type:alpha" maskUnits="userSpaceOnUse" x="1327" y="571" width="378" height="190">
<path d="M1704 760C1704 735.311 1699.14 710.865 1689.69 688.056C1680.24 665.246 1666.39 644.521 1648.94 627.064C1631.48 609.607 1610.75 595.759 1587.94 586.311C1565.14 576.863 1540.69 572 1516 572C1491.31 572 1466.86 576.863 1444.06 586.311C1421.25 595.759 1400.52 609.607 1383.06 627.064C1365.61 644.521 1351.76 665.246 1342.31 688.056C1332.86 710.865 1328 735.312 1328 760L1516 760H1704Z" fill="white" stroke="white" id="n151"/>
</mask>
<mask id="mask32_68_6728" style="mask-type:alpha" maskUnits="userSpaceOnUse" x="1260" y="504" width="512" height="512">
<path d="M1516 584C1613.2 584 1692 662.798 1692 760C1692 857.202 1613.2 936 1516 936C1418.8 936 1340 857.202 1340 760C1340 662.798 1418.8 584 1516 584ZM1516 592C1423.22 592 1348 667.216 1348 760C1348 852.784 1423.22 928 1516 928C1608.78 928 1684 852.784 1684 760C1684 667.216 1608.78 592 1516 592Z" fill="black" id="n153"/>
</mask>
<mask id="mask33_68_6728" style="mask-type:alpha" maskUnits="userSpaceOnUse" x="1260" y="504" width="512" height="512">
<path d="M1516 568C1622.04 568 1708 653.961 1708 760C1708 866.039 1622.04 952 1516 952C1409.96 952 1324 866.039 1324 760C1324 653.961 1409.96 568 1516 568ZM1516 592C1423.22 592 1348 667.216 1348 760C1348 852.784 1423.22 928 1516 928C1608.78 928 1684 852.784 1684 760C1684 667.216 1608.78 592 1516 592Z" fill="black" id="n156"/>
</mask>
<mask id="mask34_68_6728" style="mask-type:alpha" maskUnits="userSpaceOnUse" x="1260" y="504" width="512" height="512">
<path d="M1516 568C1622.04 568 1708 653.961 1708 760C1708 866.039 1622.04 952 1516 952C1409.96 952 1324 866.039 1324 760C1324 653.961 1409.96 568 1516 568ZM1516 596C1425.43 596 1352 669.425 1352 760C1352 850.575 1425.43 924 1516 924C1606.57 924 1680 850.575 1680 760C1680 669.425 1606.57 596 1516 596Z" fill="black" id="n159"/>
</mask>
<mask id="mask35_68_6728" style="mask-type:alpha" maskUnits="userSpaceOnUse" x="1260" y="504" width="512" height="513">
<path d="M1516 596.039C1606.57 596.039 1680 669.464 1680 760.039H1640C1635.58 760.039 1632.03 756.446 1631.73 752.038C1631.72 751.898 1631.71 751.757 1631.7 751.617C1631.68 751.336 1631.66 751.055 1631.63 750.774C1631.62 750.622 1631.61 750.47 1631.6 750.318C1631.57 750.003 1631.54 749.688 1631.51 749.373C1631.5 749.187 1631.48 749.001 1631.46 748.814C1631.43 748.522 1631.41 748.231 1631.38 747.939C1631.35 747.714 1631.33 747.489 1631.3 747.265C1631.28 747.043 1631.25 746.82 1631.23 746.599C1631.2 746.357 1631.17 746.117 1631.14 745.876C1631 744.682 1630.83 743.493 1630.65 742.311C1630.44 740.914 1630.2 739.525 1629.94 738.146C1629.87 737.798 1629.8 737.45 1629.73 737.104C1629.71 736.98 1629.68 736.856 1629.66 736.732C1629.62 736.541 1629.58 736.35 1629.54 736.159C1629.48 735.879 1629.42 735.599 1629.36 735.32C1629.32 735.15 1629.28 734.981 1629.25 734.812C1629.18 734.526 1629.12 734.241 1629.05 733.957C1629.01 733.744 1628.96 733.532 1628.91 733.32C1628.85 733.084 1628.79 732.847 1628.74 732.611C1628.68 732.361 1628.61 732.111 1628.55 731.86C1628.5 731.652 1628.45 731.443 1628.39 731.235C1628.33 730.997 1628.27 730.76 1628.21 730.522C1628.16 730.319 1628.1 730.115 1628.05 729.911C1627.98 729.655 1627.91 729.399 1627.84 729.144C1627.78 728.944 1627.73 728.744 1627.67 728.545C1627.6 728.303 1627.53 728.062 1627.46 727.82C1627.4 727.605 1627.34 727.39 1627.28 727.176C1627.21 726.959 1627.15 726.743 1627.08 726.526C1627.02 726.302 1626.95 726.077 1626.88 725.853C1626.81 725.618 1626.73 725.384 1626.66 725.15C1626.6 724.946 1626.53 724.742 1626.46 724.538C1626.39 724.295 1626.31 724.051 1626.23 723.809C1626.16 723.603 1626.09 723.397 1626.02 723.191C1625.95 722.972 1625.88 722.752 1625.8 722.533C1625.73 722.318 1625.65 722.103 1625.58 721.889C1625.5 721.653 1625.41 721.418 1625.33 721.184C1625.26 720.971 1625.18 720.759 1625.1 720.547C1625.02 720.334 1624.95 720.122 1624.87 719.91C1624.79 719.706 1624.72 719.502 1624.64 719.299C1624.55 719.048 1624.45 718.797 1624.36 718.547C1624.29 718.383 1624.23 718.22 1624.17 718.057C1624.07 717.799 1623.97 717.541 1623.87 717.284C1623.79 717.094 1623.71 716.904 1623.64 716.714C1623.54 716.482 1623.45 716.25 1623.35 716.019C1623.26 715.793 1623.17 715.568 1623.07 715.344C1622.99 715.15 1622.91 714.957 1622.83 714.764C1622.74 714.54 1622.64 714.317 1622.54 714.094C1622.45 713.887 1622.36 713.679 1622.27 713.473C1622.18 713.259 1622.09 713.047 1621.99 712.834C1621.9 712.63 1621.81 712.425 1621.72 712.222C1621.65 712.066 1621.57 711.912 1621.5 711.757C1620.95 710.56 1620.39 709.373 1619.8 708.198C1619.64 707.892 1619.49 707.587 1619.34 707.282C1619.22 707.054 1619.1 706.828 1618.98 706.601C1618.89 706.42 1618.8 706.239 1618.7 706.059C1618.61 705.885 1618.52 705.713 1618.42 705.54C1618.29 705.288 1618.16 705.035 1618.02 704.784C1617.97 704.701 1617.93 704.619 1617.88 704.536C1617.71 704.217 1617.53 703.898 1617.36 703.58C1617.3 703.485 1617.25 703.391 1617.2 703.297C1617.02 702.988 1616.85 702.679 1616.67 702.371C1616.61 702.265 1616.55 702.159 1616.49 702.053C1616.32 701.769 1616.16 701.485 1615.99 701.202C1615.91 701.061 1615.82 700.922 1615.74 700.781C1615.59 700.536 1615.45 700.292 1615.3 700.048C1615.21 699.898 1615.12 699.749 1615.03 699.6C1614.87 699.349 1614.72 699.098 1614.57 698.849C1614.44 698.647 1614.31 698.446 1614.19 698.245C1614.09 698.094 1614 697.943 1613.9 697.792C1613.77 697.584 1613.63 697.377 1613.5 697.17C1613.37 696.969 1613.24 696.769 1613.11 696.569C1613 696.401 1612.89 696.232 1612.78 696.064C1612.65 695.866 1612.51 695.669 1612.38 695.472C1612.25 695.274 1612.12 695.076 1611.98 694.879C1611.86 694.697 1611.73 694.515 1611.61 694.334C1611.48 694.143 1611.34 693.951 1611.21 693.761C1611.09 693.592 1610.98 693.423 1610.86 693.255C1610.69 693.018 1610.52 692.782 1610.35 692.547C1610.26 692.412 1610.16 692.277 1610.06 692.143C1609.91 691.937 1609.76 691.732 1609.62 691.528C1609.49 691.358 1609.36 691.189 1609.24 691.02C1609.1 690.829 1608.96 690.639 1608.82 690.45C1608.67 690.253 1608.52 690.057 1608.37 689.861C1608.25 689.703 1608.13 689.544 1608.01 689.387C1607.86 689.189 1607.7 688.992 1607.55 688.795C1607.42 688.627 1607.29 688.458 1607.16 688.291C1607 688.093 1606.84 687.896 1606.68 687.699C1606.56 687.544 1606.44 687.389 1606.31 687.235C1606.19 687.079 1606.06 686.923 1605.93 686.767C1605.48 686.22 1605.04 685.677 1604.58 685.139C1603.87 684.305 1603.16 683.483 1602.43 682.67C1602.09 682.289 1601.74 681.91 1601.4 681.533C1600.95 681.052 1600.51 680.574 1600.06 680.101C1599.86 679.894 1599.66 679.689 1599.46 679.483C1599.34 679.352 1599.21 679.22 1599.08 679.09C1598.9 678.904 1598.72 678.721 1598.54 678.536C1598.41 678.402 1598.27 678.266 1598.14 678.132C1597.98 677.968 1597.81 677.806 1597.65 677.644C1597.48 677.476 1597.31 677.307 1597.14 677.141C1596.99 676.992 1596.83 676.844 1596.68 676.696C1596.51 676.533 1596.34 676.369 1596.17 676.206C1595.98 676.025 1595.79 675.845 1595.6 675.665C1595.47 675.538 1595.33 675.411 1595.2 675.284C1595.02 675.113 1594.83 674.943 1594.65 674.773C1594.5 674.635 1594.35 674.498 1594.2 674.36C1594.04 674.217 1593.88 674.075 1593.73 673.933C1593.52 673.744 1593.31 673.555 1593.1 673.368C1592.98 673.261 1592.86 673.154 1592.73 673.047C1592.53 672.863 1592.32 672.68 1592.11 672.497C1591.98 672.383 1591.84 672.268 1591.71 672.154C1591.49 671.963 1591.27 671.772 1591.04 671.582C1590.9 671.458 1590.75 671.335 1590.61 671.212C1590.45 671.079 1590.29 670.946 1590.13 670.814C1589.92 670.636 1589.7 670.457 1589.48 670.28C1589.34 670.165 1589.2 670.051 1589.06 669.937C1588.87 669.778 1588.67 669.619 1588.47 669.462C1588.31 669.326 1588.14 669.191 1587.96 669.057C1587.79 668.915 1587.61 668.774 1587.43 668.633C1587.21 668.465 1587 668.297 1586.78 668.131C1586.65 668.032 1586.52 667.934 1586.4 667.836C1586.15 667.647 1585.9 667.459 1585.65 667.271C1585.54 667.184 1585.42 667.096 1585.3 667.009C1585.07 666.835 1584.84 666.663 1584.6 666.49C1584.45 666.381 1584.3 666.271 1584.16 666.163C1583.99 666.042 1583.82 665.921 1583.65 665.801C1583.43 665.644 1583.22 665.488 1583 665.333C1582.85 665.227 1582.7 665.122 1582.55 665.017C1582.34 664.873 1582.14 664.729 1581.93 664.587C1581.7 664.429 1581.48 664.272 1581.25 664.115C1581.1 664.015 1580.95 663.914 1580.8 663.814C1580.22 663.418 1579.62 663.029 1579.03 662.643C1578.65 662.398 1578.27 662.155 1577.89 661.915C1577.33 661.557 1576.76 661.202 1576.18 660.854C1576.06 660.775 1575.92 660.698 1575.79 660.62C1575.53 660.462 1575.27 660.304 1575.01 660.147C1574.85 660.054 1574.69 659.963 1574.53 659.871C1574.3 659.734 1574.07 659.596 1573.83 659.461C1573.69 659.379 1573.55 659.298 1573.4 659.217C1573.13 659.06 1572.85 658.903 1572.58 658.748C1572.48 658.696 1572.39 658.645 1572.3 658.594C1572 658.428 1571.7 658.261 1571.4 658.098C1571.23 658.009 1571.07 657.92 1570.91 657.832C1570.69 657.715 1570.47 657.598 1570.25 657.482C1570.04 657.368 1569.82 657.256 1569.61 657.144C1569.41 657.039 1569.21 656.935 1569.01 656.832C1568.82 656.738 1568.64 656.643 1568.46 656.55C1568.22 656.431 1567.99 656.314 1567.75 656.197C1567.56 656.098 1567.36 656 1567.16 655.901C1566.98 655.813 1566.8 655.725 1566.62 655.638C1566.35 655.508 1566.09 655.38 1565.82 655.253C1565.67 655.183 1565.52 655.113 1565.38 655.044C1565.15 654.938 1564.93 654.834 1564.7 654.729C1564.48 654.624 1564.25 654.52 1564.02 654.416C1563.81 654.321 1563.6 654.226 1563.39 654.132C1563.21 654.05 1563.03 653.969 1562.84 653.889C1562.63 653.792 1562.41 653.695 1562.19 653.6C1561.95 653.495 1561.71 653.393 1561.47 653.29C1561.28 653.211 1561.1 653.133 1560.91 653.055C1560.7 652.965 1560.49 652.877 1560.27 652.789C1560.05 652.696 1559.82 652.603 1559.6 652.512C1559.4 652.433 1559.21 652.355 1559.01 652.277C1558.77 652.18 1558.53 652.082 1558.28 651.986C1558.11 651.919 1557.94 651.853 1557.77 651.787C1557.52 651.692 1557.27 651.597 1557.03 651.504C1556.81 651.42 1556.59 651.339 1556.37 651.257C1556.15 651.176 1555.93 651.096 1555.71 651.017C1555.54 650.954 1555.37 650.893 1555.2 650.832C1554.93 650.734 1554.66 650.637 1554.38 650.541C1554.2 650.477 1554.02 650.415 1553.83 650.352C1553.59 650.268 1553.35 650.183 1553.1 650.101C1552.88 650.026 1552.66 649.954 1552.44 649.881C1552.22 649.808 1552 649.733 1551.78 649.661C1551.58 649.598 1551.39 649.538 1551.19 649.476C1549.4 648.904 1547.58 648.375 1545.75 647.89C1545.51 647.828 1545.28 647.765 1545.04 647.704C1544.91 647.671 1544.79 647.641 1544.66 647.608C1544.34 647.527 1544.02 647.444 1543.69 647.365C1543.52 647.323 1543.35 647.283 1543.18 647.242C1542.89 647.173 1542.6 647.103 1542.31 647.035C1542.14 646.997 1541.97 646.96 1541.81 646.922C1541.52 646.856 1541.23 646.79 1540.94 646.727C1540.74 646.682 1540.53 646.64 1540.33 646.597C1540.09 646.544 1539.84 646.492 1539.6 646.441C1539.35 646.39 1539.1 646.341 1538.86 646.292C1538.65 646.25 1538.43 646.207 1538.22 646.166C1537.98 646.119 1537.74 646.074 1537.5 646.028C1537.27 645.985 1537.04 645.943 1536.81 645.901C1536.57 645.858 1536.33 645.815 1536.08 645.772C1535.86 645.734 1535.64 645.695 1535.41 645.657C1535.18 645.619 1534.96 645.581 1534.73 645.544C1534.46 645.501 1534.2 645.46 1533.94 645.419C1533.75 645.39 1533.57 645.362 1533.39 645.334C1533.11 645.293 1532.84 645.253 1532.56 645.214C1532.32 645.179 1532.07 645.144 1531.82 645.11C1531.64 645.085 1531.45 645.06 1531.27 645.036C1530.98 644.998 1530.69 644.962 1530.4 644.926C1530.17 644.897 1529.94 644.87 1529.71 644.843C1529.51 644.819 1529.31 644.796 1529.12 644.773C1528.82 644.74 1528.53 644.709 1528.23 644.678C1528.03 644.656 1527.83 644.635 1527.62 644.614C1527.38 644.591 1527.14 644.568 1526.9 644.546C1526.65 644.522 1526.4 644.499 1526.14 644.477C1525.93 644.458 1525.71 644.441 1525.5 644.424C1525.24 644.403 1524.98 644.382 1524.72 644.362C1524.46 644.343 1524.21 644.326 1523.95 644.309C1523.74 644.295 1523.53 644.28 1523.33 644.267C1523 644.246 1522.67 644.229 1522.34 644.211C1522.19 644.203 1522.03 644.193 1521.88 644.186C1521.59 644.171 1521.3 644.16 1521.01 644.147C1520.8 644.138 1520.59 644.128 1520.38 644.12C1520.13 644.111 1519.87 644.104 1519.62 644.097C1519.38 644.09 1519.15 644.081 1518.92 644.075C1518.55 644.066 1518.19 644.06 1517.83 644.055C1517.72 644.053 1517.6 644.049 1517.48 644.048C1517.47 644.048 1517.45 644.048 1517.44 644.048L1516 644.039C1515.5 644.039 1515.01 644.042 1514.51 644.048C1514.4 644.049 1514.29 644.053 1514.18 644.055C1513.81 644.06 1513.45 644.066 1513.08 644.075C1512.85 644.081 1512.62 644.089 1512.39 644.096C1512.13 644.104 1511.88 644.111 1511.62 644.12C1511.41 644.128 1511.2 644.138 1510.99 644.146C1510.7 644.159 1510.41 644.172 1510.12 644.187C1509.97 644.194 1509.82 644.202 1509.67 644.21C1509.34 644.228 1509.01 644.246 1508.67 644.267C1508.46 644.28 1508.26 644.295 1508.05 644.309C1507.79 644.326 1507.54 644.343 1507.28 644.362C1507.02 644.382 1506.76 644.403 1506.5 644.424C1506.28 644.441 1506.07 644.458 1505.86 644.477C1505.6 644.499 1505.35 644.522 1505.1 644.546C1504.86 644.568 1504.62 644.59 1504.38 644.614C1504.18 644.634 1503.98 644.656 1503.78 644.677C1503.47 644.708 1503.17 644.741 1502.87 644.774C1502.68 644.796 1502.49 644.819 1502.29 644.842C1502.06 644.869 1501.83 644.897 1501.6 644.926C1501.31 644.962 1501.02 644.998 1500.73 645.036C1500.55 645.06 1500.36 645.085 1500.18 645.11C1499.93 645.144 1499.68 645.179 1499.44 645.214C1499.16 645.253 1498.89 645.293 1498.61 645.334C1498.43 645.362 1498.24 645.39 1498.06 645.419C1497.8 645.46 1497.54 645.501 1497.27 645.544C1497.04 645.581 1496.81 645.619 1496.58 645.657C1496.36 645.695 1496.14 645.734 1495.92 645.772C1495.67 645.815 1495.43 645.858 1495.19 645.901C1494.96 645.943 1494.73 645.985 1494.5 646.028C1494.26 646.074 1494.02 646.119 1493.78 646.166C1493.57 646.207 1493.35 646.25 1493.14 646.292C1492.9 646.341 1492.65 646.39 1492.4 646.441C1492.16 646.492 1491.91 646.544 1491.67 646.597C1491.46 646.64 1491.26 646.682 1491.06 646.727C1490.76 646.793 1490.45 646.863 1490.15 646.932C1490 646.965 1489.86 646.997 1489.71 647.03C1489.38 647.106 1489.06 647.185 1488.73 647.264C1488.6 647.296 1488.46 647.328 1488.33 647.36C1487.95 647.453 1487.57 647.548 1487.19 647.645C1487.12 647.663 1487.05 647.68 1486.98 647.698C1486.72 647.766 1486.45 647.836 1486.19 647.906C1484.38 648.387 1482.58 648.91 1480.8 649.476C1480.61 649.538 1480.41 649.598 1480.22 649.661C1480 649.733 1479.78 649.808 1479.55 649.881C1479.33 649.954 1479.11 650.026 1478.89 650.101C1478.65 650.183 1478.41 650.268 1478.16 650.352C1477.98 650.415 1477.8 650.477 1477.61 650.541C1477.34 650.637 1477.07 650.734 1476.8 650.832C1476.63 650.893 1476.46 650.954 1476.29 651.017C1476.07 651.096 1475.85 651.176 1475.63 651.257C1475.41 651.339 1475.19 651.42 1474.97 651.504C1474.72 651.597 1474.48 651.692 1474.23 651.787C1474.06 651.853 1473.89 651.919 1473.72 651.986C1473.47 652.082 1473.23 652.18 1472.98 652.277C1472.79 652.355 1472.59 652.433 1472.4 652.512C1472.18 652.603 1471.95 652.696 1471.73 652.789C1471.51 652.877 1471.3 652.965 1471.09 653.055C1470.9 653.133 1470.72 653.211 1470.53 653.29C1470.29 653.394 1470.04 653.499 1469.8 653.604C1469.6 653.691 1469.4 653.778 1469.21 653.865C1469 653.956 1468.79 654.048 1468.59 654.141C1468.36 654.245 1468.12 654.349 1467.89 654.455C1467.73 654.531 1467.56 654.608 1467.39 654.685C1467.13 654.807 1466.86 654.93 1466.6 655.055C1466.46 655.123 1466.31 655.191 1466.17 655.26C1465.92 655.378 1465.67 655.498 1465.42 655.618C1465.21 655.723 1464.99 655.828 1464.78 655.934C1464.6 656.019 1464.43 656.105 1464.26 656.191C1464.02 656.31 1463.78 656.43 1463.54 656.55C1463.36 656.643 1463.18 656.738 1462.99 656.832C1462.79 656.935 1462.59 657.039 1462.39 657.144C1462.18 657.256 1461.96 657.368 1461.75 657.482C1461.53 657.598 1461.31 657.715 1461.09 657.832C1460.93 657.92 1460.76 658.009 1460.6 658.098C1460.3 658.261 1460 658.428 1459.7 658.594C1459.61 658.645 1459.52 658.696 1459.42 658.748C1459.11 658.922 1458.8 659.099 1458.49 659.275C1458.4 659.33 1458.3 659.384 1458.21 659.438C1457.92 659.603 1457.64 659.769 1457.35 659.936C1457.23 660.006 1457.11 660.075 1457 660.146C1456.73 660.302 1456.47 660.461 1456.2 660.62C1456.07 660.698 1455.94 660.775 1455.81 660.854C1455.24 661.202 1454.67 661.557 1454.11 661.915C1453.73 662.155 1453.35 662.398 1452.97 662.643C1452.38 663.029 1451.78 663.418 1451.2 663.814C1451.05 663.914 1450.9 664.015 1450.75 664.115C1450.52 664.272 1450.29 664.429 1450.07 664.587C1449.86 664.729 1449.66 664.873 1449.45 665.017C1449.3 665.122 1449.15 665.227 1449 665.333C1448.78 665.488 1448.56 665.644 1448.35 665.801C1448.18 665.921 1448.01 666.042 1447.84 666.163C1447.69 666.271 1447.55 666.381 1447.4 666.49C1447.16 666.663 1446.93 666.835 1446.7 667.009C1446.58 667.096 1446.46 667.184 1446.35 667.271C1446.1 667.459 1445.85 667.647 1445.6 667.836C1445.47 667.934 1445.35 668.032 1445.22 668.131C1445 668.297 1444.79 668.465 1444.57 668.633C1444.39 668.774 1444.21 668.915 1444.03 669.057C1443.86 669.191 1443.69 669.326 1443.52 669.462C1443.33 669.619 1443.13 669.778 1442.94 669.937C1442.79 670.054 1442.65 670.172 1442.5 670.29C1442.31 670.448 1442.12 670.607 1441.93 670.766C1441.73 670.932 1441.53 671.1 1441.33 671.268C1441.21 671.365 1441.1 671.463 1440.98 671.561C1440.74 671.766 1440.5 671.973 1440.26 672.181C1440.15 672.27 1440.05 672.359 1439.95 672.449C1439.7 672.666 1439.45 672.884 1439.2 673.103C1439.12 673.173 1439.04 673.245 1438.96 673.315C1438.72 673.531 1438.48 673.747 1438.24 673.965C1438.11 674.08 1437.98 674.195 1437.85 674.311C1437.66 674.488 1437.47 674.667 1437.27 674.846C1437.12 674.989 1436.96 675.131 1436.81 675.275C1436.67 675.404 1436.53 675.535 1436.4 675.665C1436.21 675.845 1436.01 676.025 1435.83 676.206C1435.66 676.369 1435.49 676.533 1435.32 676.696C1435.17 676.844 1435.01 676.992 1434.86 677.141C1434.69 677.311 1434.51 677.483 1434.34 677.654C1434.2 677.798 1434.05 677.94 1433.91 678.084C1433.71 678.279 1433.52 678.476 1433.32 678.673C1433.19 678.81 1433.05 678.948 1432.92 679.086C1432.75 679.263 1432.57 679.443 1432.4 679.621C1432.26 679.765 1432.12 679.908 1431.99 680.053C1430.41 681.704 1428.89 683.401 1427.42 685.143C1427.35 685.221 1427.29 685.3 1427.22 685.378C1427 685.64 1426.78 685.9 1426.56 686.164C1426.42 686.334 1426.28 686.504 1426.14 686.675C1425.99 686.861 1425.84 687.048 1425.69 687.235C1425.56 687.389 1425.44 687.544 1425.32 687.699C1425.16 687.896 1425 688.093 1424.84 688.291C1424.71 688.458 1424.58 688.627 1424.45 688.795C1424.29 688.996 1424.14 689.197 1423.98 689.399C1423.89 689.522 1423.79 689.645 1423.7 689.768C1423.51 690.02 1423.32 690.273 1423.13 690.527C1423.04 690.638 1422.96 690.748 1422.88 690.858C1422.7 691.103 1422.52 691.348 1422.33 691.595C1422.21 691.762 1422.09 691.929 1421.97 692.097C1421.86 692.246 1421.75 692.397 1421.65 692.547C1421.5 692.755 1421.35 692.963 1421.2 693.172C1421.04 693.393 1420.89 693.615 1420.73 693.838C1420.63 693.991 1420.52 694.144 1420.42 694.297C1420.28 694.49 1420.15 694.684 1420.02 694.879C1419.88 695.076 1419.75 695.274 1419.62 695.472C1419.48 695.669 1419.35 695.866 1419.22 696.064C1419.11 696.232 1419 696.401 1418.89 696.569C1418.75 696.782 1418.61 696.996 1418.47 697.21C1418.36 697.378 1418.26 697.547 1418.15 697.716C1417.99 697.964 1417.83 698.213 1417.68 698.462C1417.6 698.584 1417.52 698.705 1417.45 698.827C1417.29 699.084 1417.13 699.341 1416.97 699.6C1416.88 699.749 1416.79 699.898 1416.7 700.048C1416.55 700.292 1416.4 700.536 1416.26 700.781C1416.18 700.922 1416.09 701.061 1416.01 701.202C1415.84 701.485 1415.68 701.769 1415.51 702.053C1415.45 702.159 1415.39 702.265 1415.33 702.371C1415.15 702.679 1414.98 702.988 1414.8 703.297C1414.75 703.391 1414.7 703.485 1414.64 703.58C1414.47 703.898 1414.29 704.217 1414.12 704.536C1414.07 704.619 1414.02 704.701 1413.98 704.784C1413.84 705.035 1413.71 705.288 1413.58 705.54C1413.48 705.713 1413.39 705.885 1413.3 706.059C1413.2 706.239 1413.11 706.42 1413.02 706.601C1412.9 706.828 1412.78 707.054 1412.66 707.282C1412.04 708.499 1411.44 709.728 1410.86 710.97C1410.77 711.154 1410.69 711.34 1410.6 711.525C1410.49 711.759 1410.39 711.992 1410.28 712.227C1410.22 712.361 1410.16 712.496 1410.1 712.631C1409.77 713.363 1409.45 714.099 1409.14 714.839C1409.09 714.939 1409.05 715.041 1409.01 715.142C1408.89 715.433 1408.76 715.726 1408.64 716.019C1408.55 716.25 1408.46 716.482 1408.36 716.714C1408.28 716.908 1408.21 717.102 1408.13 717.296C1408.07 717.452 1408.01 717.609 1407.95 717.766C1407.83 718.055 1407.72 718.344 1407.61 718.634C1407.56 718.773 1407.5 718.913 1407.45 719.053C1407.34 719.338 1407.24 719.624 1407.13 719.91C1407.05 720.122 1406.97 720.334 1406.9 720.547C1406.82 720.759 1406.74 720.971 1406.67 721.184C1406.58 721.418 1406.5 721.653 1406.42 721.889C1406.35 722.103 1406.27 722.318 1406.2 722.533C1406.12 722.752 1406.05 722.972 1405.98 723.191C1405.91 723.397 1405.84 723.603 1405.77 723.809C1405.69 724.051 1405.61 724.295 1405.53 724.538C1405.47 724.742 1405.4 724.946 1405.34 725.15C1405.27 725.384 1405.19 725.618 1405.12 725.853C1405.05 726.077 1404.98 726.302 1404.92 726.526C1404.85 726.743 1404.79 726.959 1404.72 727.176C1404.66 727.39 1404.6 727.605 1404.53 727.82C1404.46 728.062 1404.4 728.303 1404.33 728.545C1404.27 728.744 1404.22 728.944 1404.16 729.144C1404.09 729.399 1404.02 729.655 1403.95 729.911C1403.89 730.155 1403.82 730.399 1403.76 730.643C1403.71 730.816 1403.67 730.989 1403.62 731.162C1403.55 731.451 1403.48 731.74 1403.41 732.029C1403.36 732.22 1403.31 732.411 1403.26 732.602C1403.21 732.841 1403.15 733.081 1403.09 733.32C1403.04 733.532 1402.99 733.744 1402.94 733.957C1402.88 734.241 1402.82 734.526 1402.75 734.812C1402.72 734.981 1402.68 735.15 1402.64 735.32C1402.58 735.599 1402.52 735.879 1402.46 736.159C1402.42 736.35 1402.38 736.541 1402.34 736.732C1401.97 738.576 1401.63 740.436 1401.35 742.311C1401.24 743.018 1401.14 743.728 1401.04 744.44C1401.01 744.679 1400.98 744.918 1400.95 745.157C1400.94 745.219 1400.93 745.28 1400.92 745.342C1400.87 745.765 1400.82 746.188 1400.77 746.612C1400.75 746.76 1400.74 746.908 1400.72 747.056C1400.68 747.379 1400.65 747.703 1400.61 748.027C1400.59 748.257 1400.57 748.486 1400.55 748.716C1400.53 748.939 1400.5 749.162 1400.48 749.386C1400.46 749.639 1400.44 749.892 1400.42 750.146C1400.4 750.39 1400.38 750.635 1400.36 750.88C1400.34 751.104 1400.32 751.328 1400.31 751.552C1400.29 751.714 1400.28 751.876 1400.27 752.038C1399.97 756.446 1396.42 760.039 1392 760.039H1352C1352 669.464 1425.43 596.039 1516 596.039Z" fill="white" stroke="black" id="n167"/>
</mask>
</defs>
  <g clip-path="url(#clip__asset)" transform="translate(-1324.0 -568.0)"><path d="M1516 572C1617.15 572 1699.64 651.878 1703.83 751.994C1704.02 756.408 1700.42 760 1696 760H1680C1680 669.425 1606.57 596 1516 596C1425.43 596 1352 669.425 1352 760H1336C1331.58 760 1327.98 756.408 1328.17 751.994C1332.36 651.878 1414.85 572 1516 572Z" fill="white" stroke="white" id="n146"/>
<path d="M1516 596C1606.57 596 1680 669.425 1680 760H1640C1635.58 760 1632.03 756.407 1631.73 751.999C1631.72 751.859 1631.71 751.718 1631.7 751.578C1631.68 751.297 1631.66 751.016 1631.63 750.735C1631.62 750.583 1631.61 750.431 1631.6 750.279C1631.57 749.964 1631.54 749.649 1631.51 749.334C1631.5 749.148 1631.48 748.961 1631.46 748.775C1631.43 748.483 1631.41 748.192 1631.38 747.9C1631.35 747.675 1631.33 747.45 1631.3 747.226C1631.28 747.003 1631.25 746.781 1631.23 746.56C1631.2 746.318 1631.17 746.078 1631.14 745.837C1631 744.643 1630.83 743.454 1630.65 742.271C1630.44 740.875 1630.2 739.486 1629.94 738.106C1629.87 737.758 1629.8 737.411 1629.73 737.064C1629.71 736.941 1629.68 736.817 1629.66 736.693C1629.62 736.502 1629.58 736.311 1629.54 736.12C1629.48 735.84 1629.42 735.56 1629.36 735.281C1629.32 735.111 1629.28 734.942 1629.25 734.772C1629.18 734.487 1629.12 734.202 1629.05 733.918C1629.01 733.705 1628.96 733.493 1628.91 733.281C1628.85 733.045 1628.79 732.808 1628.74 732.572C1628.68 732.321 1628.61 732.071 1628.55 731.821C1628.5 731.613 1628.45 731.404 1628.39 731.196C1628.33 730.958 1628.27 730.721 1628.21 730.483C1628.16 730.279 1628.1 730.076 1628.05 729.872C1627.98 729.616 1627.91 729.36 1627.84 729.104C1627.78 728.905 1627.73 728.705 1627.67 728.506C1627.6 728.264 1627.53 728.023 1627.46 727.781C1627.4 727.566 1627.34 727.351 1627.28 727.137C1627.21 726.92 1627.15 726.704 1627.08 726.487C1627.02 726.263 1626.95 726.038 1626.88 725.813C1626.81 725.579 1626.73 725.345 1626.66 725.111C1626.6 724.907 1626.53 724.703 1626.46 724.499C1626.39 724.255 1626.31 724.012 1626.23 723.77C1626.16 723.564 1626.09 723.358 1626.02 723.152C1625.95 722.933 1625.88 722.713 1625.8 722.494C1625.73 722.279 1625.65 722.064 1625.58 721.85C1625.5 721.614 1625.41 721.379 1625.33 721.145C1625.26 720.932 1625.18 720.72 1625.1 720.508C1625.02 720.295 1624.95 720.083 1624.87 719.871C1624.79 719.667 1624.72 719.463 1624.64 719.26C1624.55 719.009 1624.45 718.758 1624.36 718.508C1624.29 718.344 1624.23 718.181 1624.17 718.018C1624.07 717.76 1623.97 717.502 1623.87 717.245C1623.79 717.055 1623.71 716.865 1623.64 716.675C1623.54 716.443 1623.45 716.211 1623.35 715.979C1623.26 715.754 1623.17 715.529 1623.07 715.305C1622.99 715.111 1622.91 714.918 1622.83 714.725C1622.74 714.501 1622.64 714.278 1622.54 714.055C1622.45 713.848 1622.36 713.64 1622.27 713.434C1622.18 713.22 1622.09 713.008 1621.99 712.795C1621.9 712.591 1621.81 712.386 1621.72 712.183C1621.65 712.027 1621.57 711.873 1621.5 711.718C1620.95 710.521 1620.39 709.334 1619.8 708.159C1619.64 707.853 1619.49 707.548 1619.34 707.243C1619.22 707.015 1619.1 706.789 1618.98 706.562C1618.89 706.381 1618.8 706.2 1618.7 706.02C1618.61 705.846 1618.52 705.674 1618.42 705.501C1618.29 705.249 1618.16 704.996 1618.02 704.745C1617.97 704.662 1617.93 704.58 1617.88 704.497C1617.71 704.178 1617.53 703.859 1617.36 703.541C1617.3 703.446 1617.25 703.352 1617.2 703.258C1617.02 702.949 1616.85 702.64 1616.67 702.332C1616.61 702.226 1616.55 702.12 1616.49 702.014C1616.32 701.729 1616.16 701.446 1615.99 701.163C1615.91 701.022 1615.82 700.883 1615.74 700.742C1615.59 700.497 1615.45 700.253 1615.3 700.009C1615.21 699.859 1615.12 699.71 1615.03 699.561C1614.87 699.31 1614.72 699.059 1614.57 698.81C1614.44 698.608 1614.31 698.407 1614.19 698.206C1614.09 698.055 1614 697.904 1613.9 697.753C1613.77 697.545 1613.63 697.338 1613.5 697.131C1613.37 696.93 1613.24 696.73 1613.11 696.53C1613 696.362 1612.89 696.193 1612.78 696.025C1612.65 695.827 1612.51 695.63 1612.38 695.433C1612.25 695.235 1612.12 695.037 1611.98 694.84C1611.86 694.658 1611.73 694.476 1611.61 694.295C1611.48 694.104 1611.34 693.912 1611.21 693.722C1611.09 693.553 1610.98 693.384 1610.86 693.216C1610.69 692.979 1610.52 692.743 1610.35 692.508C1610.26 692.373 1610.16 692.238 1610.06 692.104C1609.91 691.898 1609.76 691.693 1609.62 691.489C1609.49 691.319 1609.36 691.15 1609.24 690.98C1609.1 690.79 1608.96 690.6 1608.82 690.411C1608.67 690.214 1608.52 690.018 1608.37 689.822C1608.25 689.664 1608.13 689.505 1608.01 689.348C1607.86 689.15 1607.7 688.953 1607.55 688.756C1607.42 688.588 1607.29 688.419 1607.16 688.252C1607 688.054 1606.84 687.857 1606.68 687.66C1606.56 687.505 1606.44 687.35 1606.31 687.196C1606.19 687.039 1606.06 686.884 1605.93 686.728C1605.48 686.181 1605.04 685.638 1604.58 685.1C1603.87 684.266 1603.16 683.444 1602.43 682.631C1602.09 682.25 1601.74 681.871 1601.4 681.494C1600.95 681.013 1600.51 680.535 1600.06 680.062C1599.86 679.855 1599.66 679.65 1599.46 679.444C1599.34 679.313 1599.21 679.181 1599.08 679.051C1598.9 678.865 1598.72 678.681 1598.54 678.497C1598.41 678.362 1598.27 678.227 1598.14 678.093C1597.98 677.929 1597.81 677.767 1597.65 677.604C1597.48 677.437 1597.31 677.268 1597.14 677.102C1596.99 676.953 1596.83 676.805 1596.68 676.657C1596.51 676.494 1596.34 676.33 1596.17 676.167C1595.98 675.986 1595.79 675.806 1595.6 675.626C1595.47 675.499 1595.33 675.372 1595.2 675.245C1595.02 675.074 1594.83 674.904 1594.65 674.734C1594.5 674.596 1594.35 674.459 1594.2 674.321C1594.04 674.178 1593.88 674.036 1593.73 673.894C1593.52 673.705 1593.31 673.516 1593.1 673.329C1592.98 673.221 1592.86 673.115 1592.73 673.008C1592.53 672.824 1592.32 672.64 1592.11 672.458C1591.98 672.344 1591.84 672.229 1591.71 672.115C1591.49 671.924 1591.27 671.733 1591.04 671.543C1590.9 671.419 1590.75 671.296 1590.61 671.173C1590.45 671.04 1590.29 670.907 1590.13 670.775C1589.92 670.597 1589.7 670.418 1589.48 670.241C1589.34 670.126 1589.2 670.012 1589.06 669.897C1588.87 669.739 1588.67 669.58 1588.47 669.423C1588.31 669.287 1588.14 669.152 1587.96 669.018C1587.79 668.876 1587.61 668.734 1587.43 668.594C1587.21 668.426 1587 668.258 1586.78 668.092C1586.65 667.993 1586.52 667.895 1586.4 667.797C1586.15 667.608 1585.9 667.42 1585.65 667.232C1585.54 667.145 1585.42 667.057 1585.3 666.97C1585.07 666.796 1584.84 666.624 1584.6 666.451C1584.45 666.342 1584.3 666.232 1584.16 666.124C1583.99 666.003 1583.82 665.882 1583.65 665.762C1583.43 665.605 1583.22 665.449 1583 665.294C1582.85 665.188 1582.7 665.083 1582.55 664.978C1582.34 664.834 1582.14 664.69 1581.93 664.548C1581.7 664.39 1581.48 664.233 1581.25 664.076C1581.1 663.976 1580.95 663.875 1580.8 663.775C1580.22 663.379 1579.62 662.989 1579.03 662.604C1578.65 662.359 1578.27 662.116 1577.89 661.876C1577.33 661.518 1576.76 661.163 1576.18 660.814C1576.06 660.736 1575.92 660.659 1575.79 660.581C1575.53 660.423 1575.27 660.264 1575.01 660.108C1574.85 660.015 1574.69 659.924 1574.53 659.832C1574.3 659.695 1574.07 659.557 1573.83 659.422C1573.69 659.34 1573.55 659.259 1573.4 659.178C1573.13 659.021 1572.85 658.864 1572.58 658.709C1572.48 658.657 1572.39 658.606 1572.3 658.555C1572 658.388 1571.7 658.222 1571.4 658.059C1571.23 657.969 1571.07 657.881 1570.91 657.793C1570.69 657.676 1570.47 657.559 1570.25 657.443C1570.04 657.329 1569.82 657.217 1569.61 657.104C1569.41 657 1569.21 656.896 1569.01 656.793C1568.82 656.698 1568.64 656.604 1568.46 656.511C1568.22 656.392 1567.99 656.275 1567.75 656.158C1567.56 656.059 1567.36 655.96 1567.16 655.862C1566.98 655.774 1566.8 655.686 1566.62 655.599C1566.35 655.469 1566.09 655.341 1565.82 655.214C1565.67 655.144 1565.52 655.074 1565.38 655.005C1565.15 654.899 1564.93 654.795 1564.7 654.69C1564.48 654.585 1564.25 654.481 1564.02 654.377C1563.81 654.282 1563.6 654.187 1563.39 654.093C1563.21 654.011 1563.03 653.93 1562.84 653.85C1562.63 653.753 1562.41 653.656 1562.19 653.561C1561.95 653.456 1561.71 653.354 1561.47 653.251C1561.28 653.172 1561.1 653.093 1560.91 653.016C1560.7 652.926 1560.49 652.838 1560.27 652.75C1560.05 652.657 1559.82 652.564 1559.6 652.473C1559.4 652.394 1559.21 652.316 1559.01 652.238C1558.77 652.141 1558.53 652.043 1558.28 651.947C1558.11 651.88 1557.94 651.814 1557.77 651.748C1557.52 651.653 1557.27 651.558 1557.03 651.465C1556.81 651.381 1556.59 651.3 1556.37 651.218C1556.15 651.137 1555.93 651.057 1555.71 650.978C1555.54 650.915 1555.37 650.854 1555.2 650.793C1554.93 650.695 1554.66 650.598 1554.38 650.502C1554.2 650.438 1554.02 650.376 1553.83 650.312C1553.59 650.229 1553.35 650.144 1553.1 650.062C1552.88 649.987 1552.66 649.915 1552.44 649.842C1552.22 649.769 1552 649.694 1551.78 649.622C1551.58 649.559 1551.39 649.499 1551.19 649.437C1549.4 648.865 1547.58 648.336 1545.75 647.851C1545.51 647.789 1545.28 647.726 1545.04 647.665C1544.91 647.632 1544.79 647.602 1544.66 647.569C1544.34 647.487 1544.02 647.405 1543.69 647.326C1543.52 647.284 1543.35 647.244 1543.18 647.203C1542.89 647.133 1542.6 647.064 1542.31 646.996C1542.14 646.958 1541.97 646.921 1541.81 646.883C1541.52 646.817 1541.23 646.751 1540.94 646.688C1540.74 646.643 1540.53 646.601 1540.33 646.558C1540.09 646.505 1539.84 646.453 1539.6 646.402C1539.35 646.351 1539.1 646.302 1538.86 646.253C1538.65 646.211 1538.43 646.168 1538.22 646.127C1537.98 646.08 1537.74 646.035 1537.5 645.989C1537.27 645.946 1537.04 645.904 1536.81 645.862C1536.57 645.819 1536.33 645.776 1536.08 645.733C1535.86 645.695 1535.64 645.656 1535.41 645.618C1535.18 645.58 1534.96 645.542 1534.73 645.505C1534.46 645.462 1534.2 645.421 1533.94 645.38C1533.75 645.351 1533.57 645.323 1533.39 645.295C1533.11 645.254 1532.84 645.214 1532.56 645.175C1532.32 645.14 1532.07 645.105 1531.82 645.071C1531.64 645.046 1531.45 645.021 1531.27 644.997C1530.98 644.959 1530.69 644.922 1530.4 644.887C1530.17 644.858 1529.94 644.831 1529.71 644.804C1529.51 644.78 1529.31 644.757 1529.12 644.734C1528.82 644.701 1528.53 644.669 1528.23 644.639C1528.03 644.617 1527.83 644.596 1527.62 644.575C1527.38 644.551 1527.14 644.529 1526.9 644.507C1526.65 644.483 1526.4 644.459 1526.14 644.438C1525.93 644.419 1525.71 644.402 1525.5 644.385C1525.24 644.364 1524.98 644.343 1524.72 644.323C1524.46 644.304 1524.21 644.287 1523.95 644.27C1523.74 644.255 1523.53 644.24 1523.33 644.228C1523 644.207 1522.67 644.19 1522.34 644.172C1522.19 644.164 1522.03 644.154 1521.88 644.146C1521.59 644.132 1521.3 644.121 1521.01 644.108C1520.8 644.099 1520.59 644.089 1520.38 644.081C1520.13 644.072 1519.87 644.065 1519.62 644.058C1519.38 644.05 1519.15 644.042 1518.92 644.036C1518.55 644.027 1518.19 644.021 1517.83 644.016C1517.72 644.014 1517.6 644.01 1517.48 644.009C1517.47 644.009 1517.45 644.009 1517.44 644.009L1516 644C1515.5 644 1515.01 644.003 1514.51 644.009C1514.4 644.01 1514.29 644.014 1514.18 644.016C1513.81 644.021 1513.45 644.027 1513.08 644.036C1512.85 644.042 1512.62 644.05 1512.39 644.057C1512.13 644.065 1511.88 644.071 1511.62 644.081C1511.41 644.089 1511.2 644.099 1510.99 644.107C1510.7 644.12 1510.41 644.133 1510.12 644.147C1509.97 644.155 1509.82 644.163 1509.67 644.171C1509.34 644.189 1509.01 644.207 1508.67 644.228C1508.46 644.24 1508.26 644.255 1508.05 644.27C1507.79 644.287 1507.54 644.304 1507.28 644.323C1507.02 644.343 1506.76 644.364 1506.5 644.385C1506.28 644.402 1506.07 644.419 1505.86 644.438C1505.6 644.459 1505.35 644.483 1505.1 644.507C1504.86 644.529 1504.62 644.551 1504.38 644.575C1504.18 644.595 1503.98 644.617 1503.78 644.638C1503.47 644.669 1503.17 644.701 1502.87 644.735C1502.68 644.757 1502.49 644.78 1502.29 644.803C1502.06 644.83 1501.83 644.858 1501.6 644.887C1501.31 644.922 1501.02 644.959 1500.73 644.997C1500.55 645.021 1500.36 645.046 1500.18 645.071C1499.93 645.105 1499.68 645.14 1499.44 645.175C1499.16 645.214 1498.89 645.254 1498.61 645.295C1498.43 645.323 1498.24 645.351 1498.06 645.38C1497.8 645.421 1497.54 645.462 1497.27 645.505C1497.04 645.542 1496.81 645.58 1496.58 645.618C1496.36 645.656 1496.14 645.695 1495.92 645.733C1495.67 645.776 1495.43 645.819 1495.19 645.862C1494.96 645.904 1494.73 645.946 1494.5 645.989C1494.26 646.035 1494.02 646.08 1493.78 646.127C1493.57 646.168 1493.35 646.211 1493.14 646.253C1492.9 646.302 1492.65 646.351 1492.4 646.402C1492.16 646.453 1491.91 646.505 1491.67 646.558C1491.46 646.601 1491.26 646.643 1491.06 646.688C1490.76 646.754 1490.45 646.823 1490.15 646.893C1490 646.926 1489.86 646.957 1489.71 646.991C1489.38 647.067 1489.06 647.146 1488.73 647.225C1488.6 647.257 1488.46 647.289 1488.33 647.321C1487.95 647.414 1487.57 647.509 1487.19 647.605C1487.12 647.624 1487.05 647.641 1486.98 647.659C1486.72 647.727 1486.45 647.797 1486.19 647.867C1484.38 648.348 1482.58 648.871 1480.8 649.437C1480.61 649.499 1480.41 649.559 1480.22 649.622C1480 649.694 1479.78 649.769 1479.55 649.842C1479.33 649.915 1479.11 649.987 1478.89 650.062C1478.65 650.144 1478.41 650.229 1478.16 650.312C1477.98 650.376 1477.8 650.438 1477.61 650.502C1477.34 650.598 1477.07 650.695 1476.8 650.793C1476.63 650.854 1476.46 650.915 1476.29 650.978C1476.07 651.057 1475.85 651.137 1475.63 651.218C1475.41 651.3 1475.19 651.381 1474.97 651.465C1474.72 651.558 1474.48 651.653 1474.23 651.748C1474.06 651.814 1473.89 651.88 1473.72 651.947C1473.47 652.043 1473.23 652.141 1472.98 652.238C1472.79 652.316 1472.59 652.394 1472.4 652.473C1472.18 652.564 1471.95 652.657 1471.73 652.75C1471.51 652.838 1471.3 652.926 1471.09 653.016C1470.9 653.093 1470.72 653.172 1470.53 653.251C1470.29 653.355 1470.04 653.46 1469.8 653.565C1469.6 653.652 1469.4 653.739 1469.21 653.826C1469 653.917 1468.79 654.009 1468.59 654.102C1468.36 654.206 1468.12 654.31 1467.89 654.416C1467.73 654.492 1467.56 654.569 1467.39 654.646C1467.13 654.768 1466.86 654.891 1466.6 655.016C1466.46 655.084 1466.31 655.152 1466.17 655.221C1465.92 655.339 1465.67 655.459 1465.42 655.579C1465.21 655.684 1464.99 655.789 1464.78 655.895C1464.6 655.98 1464.43 656.066 1464.26 656.152C1464.02 656.271 1463.78 656.39 1463.54 656.511C1463.36 656.604 1463.18 656.698 1462.99 656.793C1462.79 656.896 1462.59 657 1462.39 657.104C1462.18 657.217 1461.96 657.329 1461.75 657.443C1461.53 657.559 1461.31 657.676 1461.09 657.793C1460.93 657.881 1460.76 657.969 1460.6 658.059C1460.3 658.222 1460 658.388 1459.7 658.555C1459.61 658.606 1459.52 658.657 1459.42 658.709C1459.11 658.883 1458.8 659.059 1458.49 659.236C1458.4 659.291 1458.3 659.345 1458.21 659.399C1457.92 659.563 1457.64 659.73 1457.35 659.896C1457.23 659.967 1457.11 660.036 1457 660.106C1456.73 660.263 1456.47 660.422 1456.2 660.581C1456.07 660.659 1455.94 660.736 1455.81 660.814C1455.24 661.163 1454.67 661.518 1454.11 661.876C1453.73 662.116 1453.35 662.359 1452.97 662.604C1452.38 662.989 1451.78 663.379 1451.2 663.775C1451.05 663.875 1450.9 663.976 1450.75 664.076C1450.52 664.233 1450.29 664.39 1450.07 664.548C1449.86 664.69 1449.66 664.834 1449.45 664.978C1449.3 665.083 1449.15 665.188 1449 665.294C1448.78 665.449 1448.56 665.605 1448.35 665.762C1448.18 665.882 1448.01 666.003 1447.84 666.124C1447.69 666.232 1447.55 666.342 1447.4 666.451C1447.16 666.624 1446.93 666.796 1446.7 666.97C1446.58 667.057 1446.46 667.145 1446.35 667.232C1446.1 667.42 1445.85 667.608 1445.6 667.797C1445.47 667.895 1445.35 667.993 1445.22 668.092C1445 668.258 1444.79 668.426 1444.57 668.594C1444.39 668.734 1444.21 668.876 1444.03 669.018C1443.86 669.152 1443.69 669.287 1443.52 669.423C1443.33 669.58 1443.13 669.739 1442.94 669.897C1442.79 670.015 1442.65 670.133 1442.5 670.251C1442.31 670.409 1442.12 670.567 1441.93 670.727C1441.73 670.893 1441.53 671.061 1441.33 671.229C1441.21 671.326 1441.1 671.424 1440.98 671.521C1440.74 671.727 1440.5 671.934 1440.26 672.142C1440.15 672.231 1440.05 672.32 1439.95 672.41C1439.7 672.627 1439.45 672.845 1439.2 673.063C1439.12 673.134 1439.04 673.205 1438.96 673.276C1438.72 673.492 1438.48 673.708 1438.24 673.926C1438.11 674.041 1437.98 674.156 1437.85 674.271C1437.66 674.449 1437.47 674.628 1437.27 674.807C1437.12 674.95 1436.96 675.092 1436.81 675.236C1436.67 675.365 1436.53 675.496 1436.4 675.626C1436.21 675.806 1436.01 675.986 1435.83 676.167C1435.66 676.329 1435.49 676.494 1435.32 676.657C1435.17 676.805 1435.01 676.953 1434.86 677.102C1434.69 677.272 1434.51 677.444 1434.34 677.615C1434.2 677.759 1434.05 677.901 1433.91 678.045C1433.71 678.24 1433.52 678.437 1433.32 678.634C1433.19 678.771 1433.05 678.909 1432.92 679.047C1432.75 679.224 1432.57 679.404 1432.4 679.582C1432.26 679.726 1432.12 679.869 1431.99 680.014C1430.41 681.665 1428.89 683.362 1427.42 685.104C1427.35 685.181 1427.29 685.261 1427.22 685.339C1427 685.6 1426.78 685.861 1426.56 686.125C1426.42 686.295 1426.28 686.465 1426.14 686.636C1425.99 686.822 1425.84 687.009 1425.69 687.196C1425.56 687.35 1425.44 687.505 1425.32 687.66C1425.16 687.857 1425 688.054 1424.84 688.252C1424.71 688.419 1424.58 688.588 1424.45 688.756C1424.29 688.957 1424.14 689.158 1423.98 689.36C1423.89 689.483 1423.79 689.606 1423.7 689.729C1423.51 689.981 1423.32 690.234 1423.13 690.488C1423.04 690.598 1422.96 690.709 1422.88 690.819C1422.7 691.064 1422.52 691.309 1422.33 691.556C1422.21 691.723 1422.09 691.89 1421.97 692.058C1421.86 692.207 1421.75 692.358 1421.65 692.508C1421.5 692.716 1421.35 692.924 1421.2 693.133C1421.04 693.354 1420.89 693.576 1420.73 693.799C1420.63 693.951 1420.52 694.105 1420.42 694.258C1420.28 694.451 1420.15 694.645 1420.02 694.84C1419.88 695.037 1419.75 695.235 1419.62 695.433C1419.48 695.63 1419.35 695.827 1419.22 696.025C1419.11 696.193 1419 696.362 1418.89 696.53C1418.75 696.743 1418.61 696.957 1418.47 697.171C1418.36 697.339 1418.26 697.508 1418.15 697.677C1417.99 697.925 1417.83 698.174 1417.68 698.423C1417.6 698.545 1417.52 698.666 1417.45 698.788C1417.29 699.045 1417.13 699.302 1416.97 699.561C1416.88 699.71 1416.79 699.859 1416.7 700.009C1416.55 700.253 1416.4 700.497 1416.26 700.742C1416.18 700.883 1416.09 701.022 1416.01 701.163C1415.84 701.446 1415.68 701.729 1415.51 702.014C1415.45 702.12 1415.39 702.226 1415.33 702.332C1415.15 702.64 1414.98 702.949 1414.8 703.258C1414.75 703.352 1414.7 703.446 1414.64 703.541C1414.47 703.859 1414.29 704.178 1414.12 704.497C1414.07 704.58 1414.02 704.662 1413.98 704.745C1413.84 704.996 1413.71 705.249 1413.58 705.501C1413.48 705.674 1413.39 705.846 1413.3 706.02C1413.2 706.2 1413.11 706.381 1413.02 706.562C1412.9 706.789 1412.78 707.015 1412.66 707.243C1412.04 708.46 1411.44 709.689 1410.86 710.931C1410.77 711.115 1410.69 711.301 1410.6 711.486C1410.49 711.72 1410.39 711.953 1410.28 712.188C1410.22 712.322 1410.16 712.457 1410.1 712.592C1409.77 713.324 1409.45 714.06 1409.14 714.8C1409.09 714.9 1409.05 715.002 1409.01 715.103C1408.89 715.394 1408.76 715.686 1408.64 715.979C1408.55 716.211 1408.46 716.443 1408.36 716.675C1408.28 716.869 1408.21 717.062 1408.13 717.257C1408.07 717.413 1408.01 717.57 1407.95 717.727C1407.83 718.016 1407.72 718.305 1407.61 718.595C1407.56 718.734 1407.5 718.874 1407.45 719.014C1407.34 719.299 1407.24 719.585 1407.13 719.871C1407.05 720.083 1406.97 720.295 1406.9 720.508C1406.82 720.72 1406.74 720.932 1406.67 721.145C1406.58 721.379 1406.5 721.614 1406.42 721.85C1406.35 722.064 1406.27 722.279 1406.2 722.494C1406.12 722.713 1406.05 722.933 1405.98 723.152C1405.91 723.358 1405.84 723.564 1405.77 723.77C1405.69 724.012 1405.61 724.255 1405.53 724.499C1405.47 724.703 1405.4 724.907 1405.34 725.111C1405.27 725.345 1405.19 725.579 1405.12 725.813C1405.05 726.038 1404.98 726.263 1404.92 726.487C1404.85 726.704 1404.79 726.92 1404.72 727.137C1404.66 727.351 1404.6 727.566 1404.53 727.781C1404.46 728.023 1404.4 728.264 1404.33 728.506C1404.27 728.705 1404.22 728.905 1404.16 729.104C1404.09 729.36 1404.02 729.616 1403.95 729.872C1403.89 730.115 1403.82 730.359 1403.76 730.604C1403.71 730.777 1403.67 730.95 1403.62 731.123C1403.55 731.412 1403.48 731.701 1403.41 731.99C1403.36 732.181 1403.31 732.372 1403.26 732.562C1403.21 732.802 1403.15 733.041 1403.09 733.281C1403.04 733.493 1402.99 733.705 1402.94 733.918C1402.88 734.202 1402.82 734.487 1402.75 734.772C1402.72 734.942 1402.68 735.111 1402.64 735.281C1402.58 735.56 1402.52 735.84 1402.46 736.12C1402.42 736.311 1402.38 736.502 1402.34 736.693C1401.97 738.537 1401.63 740.397 1401.35 742.271C1401.24 742.979 1401.14 743.689 1401.04 744.401C1401.01 744.64 1400.98 744.879 1400.95 745.118C1400.94 745.18 1400.93 745.241 1400.92 745.303C1400.87 745.726 1400.82 746.149 1400.77 746.573C1400.75 746.721 1400.74 746.869 1400.72 747.017C1400.68 747.34 1400.65 747.664 1400.61 747.988C1400.59 748.218 1400.57 748.447 1400.55 748.677C1400.53 748.9 1400.5 749.123 1400.48 749.347C1400.46 749.6 1400.44 749.853 1400.42 750.106C1400.4 750.351 1400.38 750.596 1400.36 750.841C1400.34 751.065 1400.32 751.289 1400.31 751.513C1400.29 751.675 1400.28 751.837 1400.27 751.999C1399.97 756.407 1396.42 760 1392 760H1352C1352 669.425 1425.43 596 1516 596Z" fill="#F0F0F0" stroke="#F0F0F0" id="n147"/>
<path d="M1516 572C1617.15 572 1699.64 651.878 1703.83 751.994C1704.02 756.408 1700.42 760 1696 760H1640C1635.58 760 1632.03 756.407 1631.73 751.999C1627.62 691.666 1577.38 644 1516 644C1454.62 644 1404.38 691.666 1400.27 751.999C1399.97 756.407 1396.42 760 1392 760H1336C1331.58 760 1327.98 756.408 1328.17 751.994C1332.36 651.878 1414.85 572 1516 572Z" stroke="#BEBEBE" id="n148"/>
<g mask="url(#mask30_68_6728)" id="n150">
<mask id="mask31_68_6728" style="mask-type:alpha" maskUnits="userSpaceOnUse" x="1327" y="571" width="378" height="190">
<path d="M1704 760C1704 735.311 1699.14 710.865 1689.69 688.056C1680.24 665.246 1666.39 644.521 1648.94 627.064C1631.48 609.607 1610.75 595.759 1587.94 586.311C1565.14 576.863 1540.69 572 1516 572C1491.31 572 1466.86 576.863 1444.06 586.311C1421.25 595.759 1400.52 609.607 1383.06 627.064C1365.61 644.521 1351.76 665.246 1342.31 688.056C1332.86 710.865 1328 735.312 1328 760L1516 760H1704Z" fill="white" stroke="white" id="n151"/>
</mask>
<g mask="url(#mask31_68_6728)" id="n152">
<mask id="mask32_68_6728" style="mask-type:alpha" maskUnits="userSpaceOnUse" x="1260" y="504" width="512" height="512">
<path d="M1516 584C1613.2 584 1692 662.798 1692 760C1692 857.202 1613.2 936 1516 936C1418.8 936 1340 857.202 1340 760C1340 662.798 1418.8 584 1516 584ZM1516 592C1423.22 592 1348 667.216 1348 760C1348 852.784 1423.22 928 1516 928C1608.78 928 1684 852.784 1684 760C1684 667.216 1608.78 592 1516 592Z" fill="black" id="n153"/>
</mask>
<g mask="url(#mask32_68_6728)" id="n154">
<path d="M1516 560V760M1516 760V960M1516 760L1398.44 598.197M1516 760L1633.56 921.803M1516 760L1325.79 698.197M1516 760L1706.21 821.803M1516 760L1325.79 821.803M1516 760L1706.21 698.197M1516 760L1398.44 921.803M1516 760L1633.56 598.197M1516 760L1454.2 569.789M1516 760L1577.8 950.211M1516 760L1354.2 642.443M1516 760L1677.8 877.557M1516 760L1316 760M1516 760L1716 760M1516 760L1354.2 877.557M1516 760L1677.8 642.443M1516 760L1454.2 950.211M1516 760L1577.8 569.789" stroke="#BEBEBE" id="n155"/>
</g>
<mask id="mask33_68_6728" style="mask-type:alpha" maskUnits="userSpaceOnUse" x="1260" y="504" width="512" height="512">
<path d="M1516 568C1622.04 568 1708 653.961 1708 760C1708 866.039 1622.04 952 1516 952C1409.96 952 1324 866.039 1324 760C1324 653.961 1409.96 568 1516 568ZM1516 592C1423.22 592 1348 667.216 1348 760C1348 852.784 1423.22 928 1516 928C1608.78 928 1684 852.784 1684 760C1684 667.216 1608.78 592 1516 592Z" fill="black" id="n156"/>
</mask>
<g mask="url(#mask33_68_6728)" id="n157">
<path d="M1516 560V960M1316 760H1716" stroke="#BEBEBE" id="n158"/>
</g>
<mask id="mask34_68_6728" style="mask-type:alpha" maskUnits="userSpaceOnUse" x="1260" y="504" width="512" height="512">
<path d="M1516 568C1622.04 568 1708 653.961 1708 760C1708 866.039 1622.04 952 1516 952C1409.96 952 1324 866.039 1324 760C1324 653.961 1409.96 568 1516 568ZM1516 596C1425.43 596 1352 669.425 1352 760C1352 850.575 1425.43 924 1516 924C1606.57 924 1680 850.575 1680 760C1680 669.425 1606.57 596 1516 596Z" fill="black" id="n159"/>
</mask>
<g mask="url(#mask34_68_6728)" id="n160">
<path d="M1516 560V960" stroke="#BEBEBE" id="n161"/>
</g>
</g>
</g>
<path d="M1338.32 774.704C1338.32 775.4 1338.26 776.024 1338.15 776.576C1338.05 777.12 1337.88 777.58 1337.66 777.956C1337.43 778.332 1337.14 778.62 1336.78 778.82C1336.42 779.02 1335.99 779.12 1335.49 779.12C1334.86 779.12 1334.34 778.948 1333.91 778.604C1333.5 778.252 1333.19 777.748 1332.98 777.092C1332.78 776.428 1332.68 775.632 1332.68 774.704C1332.68 773.792 1332.77 773.008 1332.95 772.352C1333.14 771.688 1333.44 771.18 1333.85 770.828C1334.27 770.476 1334.81 770.3 1335.49 770.3C1336.13 770.3 1336.67 770.476 1337.08 770.828C1337.5 771.18 1337.81 771.684 1338.01 772.34C1338.21 772.996 1338.32 773.784 1338.32 774.704ZM1333.63 774.704C1333.63 775.512 1333.69 776.184 1333.81 776.72C1333.93 777.248 1334.13 777.648 1334.41 777.92C1334.68 778.184 1335.04 778.316 1335.49 778.316C1335.93 778.316 1336.29 778.184 1336.57 777.92C1336.84 777.656 1337.04 777.256 1337.17 776.72C1337.29 776.184 1337.36 775.512 1337.36 774.704C1337.36 773.912 1337.29 773.252 1337.17 772.724C1337.05 772.188 1336.85 771.784 1336.58 771.512C1336.31 771.24 1335.95 771.104 1335.49 771.104C1335.03 771.104 1334.67 771.244 1334.39 771.524C1334.12 771.796 1333.93 772.2 1333.81 772.736C1333.69 773.264 1333.63 773.92 1333.63 774.704Z" fill="#707070" id="n162"/>
<path d="M1687.4 777H1686.48V770.892C1686.48 770.66 1686.48 770.464 1686.48 770.304C1686.48 770.144 1686.49 769.996 1686.49 769.86C1686.5 769.716 1686.5 769.572 1686.51 769.428C1686.39 769.548 1686.28 769.652 1686.18 769.74C1686.07 769.82 1685.94 769.928 1685.79 770.064L1684.78 770.856L1684.29 770.22L1686.61 768.432H1687.4V777ZM1696.32 772.704C1696.32 773.4 1696.26 774.024 1696.15 774.576C1696.05 775.12 1695.88 775.58 1695.66 775.956C1695.43 776.332 1695.14 776.62 1694.78 776.82C1694.42 777.02 1693.99 777.12 1693.49 777.12C1692.86 777.12 1692.34 776.948 1691.91 776.604C1691.5 776.252 1691.19 775.748 1690.98 775.092C1690.78 774.428 1690.68 773.632 1690.68 772.704C1690.68 771.792 1690.77 771.008 1690.95 770.352C1691.14 769.688 1691.44 769.18 1691.85 768.828C1692.27 768.476 1692.81 768.3 1693.49 768.3C1694.13 768.3 1694.67 768.476 1695.08 768.828C1695.5 769.18 1695.81 769.684 1696.01 770.34C1696.21 770.996 1696.32 771.784 1696.32 772.704ZM1691.63 772.704C1691.63 773.512 1691.69 774.184 1691.81 774.72C1691.93 775.248 1692.13 775.648 1692.41 775.92C1692.68 776.184 1693.04 776.316 1693.49 776.316C1693.93 776.316 1694.29 776.184 1694.57 775.92C1694.84 775.656 1695.04 775.256 1695.17 774.72C1695.29 774.184 1695.36 773.512 1695.36 772.704C1695.36 771.912 1695.29 771.252 1695.17 770.724C1695.05 770.188 1694.85 769.784 1694.58 769.512C1694.31 769.24 1693.95 769.104 1693.49 769.104C1693.03 769.104 1692.67 769.244 1692.39 769.524C1692.12 769.796 1691.93 770.2 1691.81 770.736C1691.69 771.264 1691.63 771.92 1691.63 772.704ZM1703.19 772.704C1703.19 773.4 1703.13 774.024 1703.02 774.576C1702.91 775.12 1702.75 775.58 1702.53 775.956C1702.3 776.332 1702.01 776.62 1701.65 776.82C1701.29 777.02 1700.86 777.12 1700.35 777.12C1699.73 777.12 1699.21 776.948 1698.78 776.604C1698.37 776.252 1698.05 775.748 1697.85 775.092C1697.65 774.428 1697.55 773.632 1697.55 772.704C1697.55 771.792 1697.64 771.008 1697.82 770.352C1698.01 769.688 1698.31 769.18 1698.72 768.828C1699.14 768.476 1699.68 768.3 1700.35 768.3C1701 768.3 1701.53 768.476 1701.95 768.828C1702.37 769.18 1702.67 769.684 1702.87 770.34C1703.08 770.996 1703.19 771.784 1703.19 772.704ZM1698.49 772.704C1698.49 773.512 1698.55 774.184 1698.67 774.72C1698.8 775.248 1699 775.648 1699.27 775.92C1699.55 776.184 1699.91 776.316 1700.35 776.316C1700.8 776.316 1701.16 776.184 1701.43 775.92C1701.71 775.656 1701.91 775.256 1702.03 774.72C1702.16 774.184 1702.23 773.512 1702.23 772.704C1702.23 771.912 1702.16 771.252 1702.03 770.724C1701.91 770.188 1701.72 769.784 1701.45 769.512C1701.18 769.24 1700.82 769.104 1700.35 769.104C1699.9 769.104 1699.53 769.244 1699.26 769.524C1698.99 769.796 1698.79 770.2 1698.67 770.736C1698.55 771.264 1698.49 771.92 1698.49 772.704Z" fill="#707070" id="n163"/>
<path d="M1501.22 737H1497.14V721.564C1497.14 721.043 1497.14 720.533 1497.14 720.034C1497.16 719.513 1497.18 719.003 1497.21 718.504C1497.23 717.983 1497.25 717.495 1497.27 717.042C1497.05 717.291 1496.76 717.575 1496.42 717.892C1496.08 718.187 1495.73 718.493 1495.37 718.81L1492.65 720.986L1490.61 718.402L1497.85 712.724H1501.22V737ZM1525.11 737H1508.58V733.94L1514.8 727.65C1516.03 726.403 1517.03 725.338 1517.8 724.454C1518.59 723.547 1519.18 722.697 1519.56 721.904C1519.95 721.111 1520.14 720.238 1520.14 719.286C1520.14 718.153 1519.81 717.303 1519.16 716.736C1518.5 716.147 1517.64 715.852 1516.57 715.852C1515.51 715.852 1514.53 716.067 1513.65 716.498C1512.76 716.906 1511.85 717.484 1510.89 718.232L1508.68 715.546C1509.34 714.979 1510.06 714.458 1510.83 713.982C1511.6 713.506 1512.46 713.121 1513.41 712.826C1514.38 712.531 1515.5 712.384 1516.74 712.384C1518.31 712.384 1519.64 712.667 1520.75 713.234C1521.89 713.778 1522.76 714.537 1523.37 715.512C1523.98 716.487 1524.29 717.62 1524.29 718.912C1524.29 719.887 1524.13 720.805 1523.81 721.666C1523.52 722.527 1523.09 723.366 1522.52 724.182C1521.98 724.975 1521.3 725.803 1520.48 726.664C1519.67 727.503 1518.76 728.398 1517.76 729.35L1513.72 733.26V733.43H1525.11V737ZM1543.11 718.266C1543.11 719.377 1542.9 720.34 1542.46 721.156C1542.03 721.949 1541.43 722.607 1540.66 723.128C1539.89 723.627 1539 723.989 1537.98 724.216V724.318C1539.93 724.545 1541.39 725.145 1542.36 726.12C1543.36 727.095 1543.86 728.387 1543.86 729.996C1543.86 731.401 1543.52 732.659 1542.84 733.77C1542.16 734.881 1541.12 735.753 1539.71 736.388C1538.31 737.023 1536.5 737.34 1534.3 737.34C1532.99 737.34 1531.77 737.227 1530.63 737C1529.52 736.796 1528.46 736.467 1527.44 736.014V732.41C1528.48 732.909 1529.58 733.305 1530.73 733.6C1531.89 733.872 1532.99 734.008 1534.03 734.008C1536.03 734.008 1537.44 733.645 1538.28 732.92C1539.12 732.172 1539.54 731.141 1539.54 729.826C1539.54 728.987 1539.33 728.296 1538.89 727.752C1538.46 727.208 1537.78 726.811 1536.85 726.562C1535.93 726.29 1534.72 726.154 1533.25 726.154H1531.18V722.856H1533.28C1534.71 722.856 1535.83 722.697 1536.65 722.38C1537.49 722.04 1538.09 721.575 1538.45 720.986C1538.84 720.397 1539.03 719.717 1539.03 718.946C1539.03 717.949 1538.7 717.167 1538.04 716.6C1537.39 716.033 1536.41 715.75 1535.12 715.75C1534.3 715.75 1533.56 715.841 1532.88 716.022C1532.22 716.203 1531.61 716.441 1531.04 716.736C1530.5 717.031 1529.98 717.337 1529.48 717.654L1527.54 714.832C1528.15 714.379 1528.84 713.971 1529.61 713.608C1530.38 713.223 1531.23 712.928 1532.16 712.724C1533.11 712.497 1534.16 712.384 1535.29 712.384C1537.81 712.384 1539.73 712.917 1541.07 713.982C1542.43 715.047 1543.11 716.475 1543.11 718.266Z" fill="#535353" id="n164"/>
<path d="M1502.53 760V751.789H1503.93V758.804H1507.4V760H1502.53ZM1511.13 753.664C1511.94 753.664 1512.54 753.836 1512.95 754.181C1513.36 754.526 1513.56 755.07 1513.56 755.814V760H1512.58L1512.31 759.137H1512.26C1512.08 759.36 1511.9 759.548 1511.71 759.701C1511.52 759.847 1511.31 759.95 1511.06 760.012C1510.83 760.081 1510.53 760.115 1510.19 760.115C1509.82 760.115 1509.49 760.046 1509.19 759.908C1508.9 759.77 1508.67 759.559 1508.5 759.275C1508.33 758.992 1508.25 758.635 1508.25 758.206C1508.25 757.562 1508.48 757.079 1508.96 756.757C1509.43 756.427 1510.16 756.247 1511.12 756.216L1512.19 756.182V755.86C1512.19 755.446 1512.09 755.151 1511.89 754.974C1511.7 754.798 1511.43 754.71 1511.08 754.71C1510.76 754.71 1510.46 754.756 1510.17 754.848C1509.88 754.94 1509.59 755.051 1509.32 755.181L1508.88 754.204C1509.18 754.043 1509.52 753.913 1509.91 753.813C1510.3 753.713 1510.71 753.664 1511.13 753.664ZM1511.41 757.067C1510.75 757.09 1510.29 757.202 1510.04 757.401C1509.79 757.6 1509.66 757.872 1509.66 758.217C1509.66 758.516 1509.75 758.735 1509.94 758.873C1510.12 759.003 1510.35 759.068 1510.64 759.068C1511.08 759.068 1511.44 758.946 1511.74 758.7C1512.04 758.447 1512.19 758.072 1512.19 757.573V757.045L1511.41 757.067ZM1516.77 753.341C1516.77 753.587 1516.76 753.824 1516.74 754.054C1516.74 754.284 1516.73 754.465 1516.71 754.595H1516.77C1516.94 754.334 1517.18 754.116 1517.47 753.939C1517.77 753.755 1518.15 753.664 1518.62 753.664C1519.35 753.664 1519.94 753.936 1520.39 754.48C1520.84 755.017 1521.07 755.818 1521.07 756.883C1521.07 757.589 1520.97 758.183 1520.76 758.666C1520.55 759.149 1520.26 759.513 1519.88 759.758C1519.52 759.996 1519.08 760.115 1518.58 760.115C1518.12 760.115 1517.74 760.031 1517.46 759.862C1517.17 759.693 1516.94 759.494 1516.77 759.264H1516.68L1516.42 760H1515.39V751.26H1516.77V753.341ZM1518.24 754.779C1517.88 754.779 1517.59 754.852 1517.38 754.997C1517.16 755.143 1517.01 755.362 1516.92 755.653C1516.83 755.944 1516.78 756.316 1516.77 756.768V756.883C1516.77 757.558 1516.87 758.079 1517.09 758.447C1517.3 758.808 1517.7 758.988 1518.26 758.988C1518.71 758.988 1519.06 758.808 1519.3 758.447C1519.54 758.079 1519.65 757.55 1519.65 756.86C1519.65 756.17 1519.53 755.653 1519.29 755.308C1519.05 754.955 1518.7 754.779 1518.24 754.779ZM1525.06 753.664C1525.61 753.664 1526.09 753.778 1526.49 754.008C1526.89 754.231 1527.2 754.553 1527.42 754.974C1527.63 755.388 1527.74 755.891 1527.74 756.481V757.205H1523.61C1523.63 757.788 1523.79 758.24 1524.09 758.562C1524.4 758.877 1524.83 759.034 1525.37 759.034C1525.77 759.034 1526.12 758.996 1526.44 758.919C1526.76 758.842 1527.09 758.727 1527.43 758.574V759.689C1527.11 759.835 1526.79 759.942 1526.46 760.012C1526.14 760.081 1525.75 760.115 1525.3 760.115C1524.7 760.115 1524.16 760 1523.69 759.77C1523.22 759.532 1522.86 759.176 1522.6 758.7C1522.34 758.225 1522.21 757.635 1522.21 756.929C1522.21 756.224 1522.33 755.63 1522.56 755.147C1522.8 754.664 1523.13 754.296 1523.56 754.043C1523.99 753.79 1524.49 753.664 1525.06 753.664ZM1525.06 754.698C1524.65 754.698 1524.33 754.829 1524.08 755.089C1523.84 755.342 1523.69 755.722 1523.64 756.228H1526.39C1526.39 755.921 1526.34 755.657 1526.24 755.434C1526.15 755.204 1526.01 755.024 1525.81 754.894C1525.62 754.764 1525.37 754.698 1525.06 754.698ZM1530.59 760H1529.21V751.26H1530.59V760Z" fill="#535353" id="n165"/>
<path d="M1511.53 769.847V776H1510.79L1510.65 775.114H1510.62C1510.49 775.329 1510.32 775.513 1510.11 775.666C1509.91 775.812 1509.69 775.923 1509.43 776C1509.18 776.077 1508.91 776.115 1508.62 776.115C1508.13 776.115 1507.73 776.038 1507.4 775.885C1507.07 775.724 1506.82 775.479 1506.65 775.149C1506.48 774.819 1506.4 774.394 1506.4 773.872V769.847H1507.32V773.815C1507.32 774.329 1507.43 774.716 1507.66 774.976C1507.9 775.229 1508.26 775.356 1508.74 775.356C1509.2 775.356 1509.57 775.272 1509.84 775.103C1510.11 774.927 1510.31 774.67 1510.43 774.332C1510.56 773.995 1510.63 773.585 1510.63 773.102V769.847H1511.53ZM1516.41 769.732C1517.13 769.732 1517.67 769.913 1518.05 770.273C1518.43 770.626 1518.61 771.197 1518.61 771.986V776H1517.72V772.055C1517.72 771.526 1517.6 771.135 1517.36 770.882C1517.12 770.629 1516.76 770.503 1516.28 770.503C1515.6 770.503 1515.11 770.695 1514.83 771.078C1514.55 771.461 1514.4 772.021 1514.4 772.757V776H1513.51V769.847H1514.23L1514.37 770.756H1514.42C1514.55 770.534 1514.72 770.35 1514.92 770.204C1515.12 770.051 1515.35 769.936 1515.6 769.859C1515.85 769.775 1516.12 769.732 1516.41 769.732ZM1521.43 769.847V776H1520.54V769.847H1521.43ZM1521 767.547C1521.15 767.547 1521.28 767.597 1521.38 767.697C1521.48 767.797 1521.54 767.95 1521.54 768.157C1521.54 768.349 1521.48 768.498 1521.38 768.605C1521.28 768.705 1521.15 768.755 1521 768.755C1520.84 768.755 1520.7 768.705 1520.6 768.605C1520.5 768.498 1520.45 768.349 1520.45 768.157C1520.45 767.95 1520.5 767.797 1520.6 767.697C1520.7 767.597 1520.84 767.547 1521 767.547ZM1525.37 775.367C1525.53 775.367 1525.69 775.356 1525.84 775.333C1526 775.302 1526.13 775.272 1526.24 775.241V775.931C1526.13 775.985 1525.97 776.027 1525.78 776.058C1525.6 776.096 1525.41 776.115 1525.22 776.115C1524.9 776.115 1524.6 776.058 1524.34 775.942C1524.08 775.827 1523.87 775.636 1523.71 775.367C1523.56 775.091 1523.48 774.712 1523.48 774.229V770.56H1522.6V770.112L1523.49 769.767L1523.84 768.421H1524.39V769.847H1526.2V770.56H1524.39V774.206C1524.39 774.597 1524.47 774.888 1524.64 775.08C1524.82 775.272 1525.06 775.367 1525.37 775.367Z" fill="#535353" id="n166"/>
<g mask="url(#mask35_68_6728)" id="n168">
<path d="M1516 596C1561.29 596 1602.29 614.356 1631.97 644.034L1598.02 677.976C1577.03 656.984 1548.03 644 1516 644C1451.93 644 1400 695.935 1400 760C1400 824.065 1451.93 876 1516 876V924C1425.43 924 1352 850.575 1352 760C1352 669.425 1425.43 596 1516 596Z" fill="#BEBEBE" id="n169"/>
<path d="M1631.97 644.034L1632.32 644.388L1632.67 644.034L1632.32 643.681L1631.97 644.034ZM1598.02 677.976L1597.67 678.329L1598.02 678.683L1598.38 678.329L1598.02 677.976ZM1516 876H1516.5V875.5H1516V876ZM1516 924V924.5H1516.5V924H1516ZM1516 596V596.5C1561.15 596.5 1602.02 614.8 1631.61 644.388L1631.97 644.034L1632.32 643.681C1602.55 613.913 1561.43 595.5 1516 595.5V596ZM1631.97 644.034L1631.61 643.681L1597.67 677.622L1598.02 677.976L1598.38 678.329L1632.32 644.388L1631.97 644.034ZM1598.02 677.976L1598.38 677.622C1577.3 656.54 1548.17 643.5 1516 643.5V644V644.5C1547.89 644.5 1576.77 657.427 1597.67 678.329L1598.02 677.976ZM1516 644V643.5C1451.66 643.5 1399.5 695.659 1399.5 760H1400H1400.5C1400.5 696.211 1452.21 644.5 1516 644.5V644ZM1400 760H1399.5C1399.5 824.341 1451.66 876.5 1516 876.5V876V875.5C1452.21 875.5 1400.5 823.789 1400.5 760H1400ZM1516 876H1515.5V924H1516H1516.5V876H1516ZM1516 924V923.5C1425.7 923.5 1352.5 850.299 1352.5 760H1352H1351.5C1351.5 850.851 1425.15 924.5 1516 924.5V924ZM1352 760H1352.5C1352.5 669.701 1425.7 596.5 1516 596.5V596V595.5C1425.15 595.5 1351.5 669.149 1351.5 760H1352Z" fill="#BEBEBE" id="n170"/>
<rect x="1629.14" y="641.206" width="8" height="48" rx="4" transform="rotate(45 1629.14 641.206)" fill="#535353" stroke="#BEBEBE" id="n171"/>
</g>
</g>
</svg>
