<?xml version='1.0' encoding='utf-8'?>
<svg xmlns="http://www.w3.org/2000/svg" xmlns:xlink="http://www.w3.org/1999/xlink" width="384.0" height="216.0" viewBox="0 0 384.0 216.0" fill="none">
  <defs><clipPath id="clip__asset"><rect x="0" y="0" width="384.0" height="216.0"/></clipPath><mask id="mask43_68_6728" style="mask-type:luminance" maskUnits="userSpaceOnUse" x="1260" y="1368" width="512" height="512">
<path d="M1516 1436C1617.15 1436 1699.64 1515.88 1703.83 1615.99C1704.02 1620.41 1700.42 1624 1696 1624H1680C1680 1533.43 1606.57 1460 1516 1460C1425.43 1460 1352 1533.43 1352 1624H1336C1331.58 1624 1327.98 1620.41 1328.17 1615.99C1332.36 1515.88 1414.85 1436 1516 1436Z" fill="white" stroke="black" id="n200"/>
</mask>
<mask id="mask44_68_6728" style="mask-type:alpha" maskUnits="userSpaceOnUse" x="1327" y="1435" width="378" height="190">
<path d="M1704 1624C1704 1599.31 1699.14 1574.86 1689.69 1552.06C1680.24 1529.25 1666.39 1508.52 1648.94 1491.06C1631.48 1473.61 1610.75 1459.76 1587.94 1450.31C1565.14 1440.86 1540.69 1436 1516 1436C1491.31 1436 1466.86 1440.86 1444.06 1450.31C1421.25 1459.76 1400.52 1473.61 1383.06 1491.06C1365.61 1508.52 1351.76 1529.25 1342.31 1552.06C1332.86 1574.86 1328 1599.31 1328 1624L1516 1624H1704Z" fill="white" stroke="white" id="n202"/>
</mask>
<mask id="mask45_68_6728" style="mask-type:alpha" maskUnits="userSpaceOnUse" x="1260" y="1368" width="512" height="512">
<path d="M1516 1448C1613.2 1448 1692 1526.8 1692 1624C1692 1721.2 1613.2 1800 1516 1800C1418.8 1800 1340 1721.2 1340 1624C1340 1526.8 1418.8 1448 1516 1448ZM1516 1456C1423.22 1456 1348 1531.22 1348 1624C1348 1716.78 1423.22 1792 1516 1792C1608.78 1792 1684 1716.78 1684 1624C1684 1531.22 1608.78 1456 1516 1456Z" fill="black" id="n204"/>
</mask>
<mask id="mask46_68_6728" style="mask-type:alpha" maskUnits="userSpaceOnUse" x="1260" y="1368" width="512" height="512">
<path d="M1516 1432C1622.04 1432 1708 1517.96 1708 1624C1708 1730.04 1622.04 1816 1516 1816C1409.96 1816 1324 1730.04 1324 1624C1324 1517.96 1409.96 1432 1516 1432ZM1516 1456C1423.22 1456 1348 1531.22 1348 1624C1348 1716.78 1423.22 1792 1516 1792C1608.78 1792 1684 1716.78 1684 1624C1684 1531.22 1608.78 1456 1516 1456Z" fill="black" id="n207"/>
</mask>
<mask id="mask47_68_6728" style="mask-type:alpha" maskUnits="userSpaceOnUse" x="1260" y="1368" width="512" height="512">
<path d="M1516 1432C1622.04 1432 1708 1517.96 1708 1624C1708 1730.04 1622.04 1816 1516 1816C1409.96 1816 1324 1730.04 1324 1624C1324 1517.96 1409.96 1432 1516 1432ZM1516 1460C1425.43 1460 1352 1533.43 1352 1624C1352 1714.57 1425.43 1788 1516 1788C1606.57 1788 1680 1714.57 1680 1624C1680 1533.43 1606.57 1460 1516 1460Z" fill="black" id="n210"/>
</mask>
</defs>
  <g clip-path="url(#clip__asset)" transform="translate(-1324.0 -1432.0)"><path d="M1516 1436C1617.15 1436 1699.64 1515.88 1703.83 1615.99C1704.02 1620.41 1700.42 1624 1696 1624H1688C1683.58 1624 1680.02 1620.41 1679.81 1616C1679.8 1615.93 1679.8 1615.86 1679.8 1615.8C1679.78 1615.49 1679.76 1615.17 1679.75 1614.86C1679.72 1614.47 1679.7 1614.07 1679.68 1613.68C1679.66 1613.4 1679.64 1613.13 1679.62 1612.85C1679.6 1612.44 1679.57 1612.03 1679.54 1611.62C1679.52 1611.32 1679.49 1611.03 1679.47 1610.74C1679.44 1610.37 1679.41 1609.99 1679.38 1609.62C1679.35 1609.28 1679.31 1608.94 1679.28 1608.6C1679.25 1608.26 1679.22 1607.92 1679.19 1607.58C1679.15 1607.22 1679.11 1606.87 1679.08 1606.52C1679.04 1606.21 1679.01 1605.9 1678.98 1605.59C1678.93 1605.22 1678.89 1604.84 1678.85 1604.47C1678.81 1604.17 1678.77 1603.86 1678.74 1603.56C1678.69 1603.17 1678.64 1602.78 1678.59 1602.39C1678.55 1602.13 1678.52 1601.86 1678.48 1601.59C1678.42 1601.19 1678.37 1600.79 1678.31 1600.39C1678.27 1600.11 1678.23 1599.83 1678.19 1599.55C1678.13 1599.15 1678.07 1598.75 1678 1598.35C1677.96 1598.06 1677.91 1597.76 1677.86 1597.47C1677.8 1597.11 1677.74 1596.75 1677.68 1596.39C1677.64 1596.11 1677.59 1595.83 1677.54 1595.56C1677.47 1595.18 1677.41 1594.8 1677.34 1594.43C1677.29 1594.14 1677.23 1593.85 1677.18 1593.56C1677.11 1593.21 1677.05 1592.86 1676.98 1592.51C1676.91 1592.17 1676.84 1591.83 1676.77 1591.48C1676.71 1591.18 1676.65 1590.87 1676.59 1590.56C1676.51 1590.21 1676.44 1589.86 1676.36 1589.51C1676.3 1589.19 1676.23 1588.88 1676.16 1588.56C1676.09 1588.25 1676.02 1587.94 1675.95 1587.63C1675.87 1587.29 1675.8 1586.95 1675.72 1586.62C1675.62 1586.18 1675.51 1585.74 1675.41 1585.31C1675.36 1585.11 1675.31 1584.92 1675.27 1584.73C1675.18 1584.37 1675.09 1584.01 1675 1583.65C1674.92 1583.34 1674.84 1583.02 1674.75 1582.7C1674.67 1582.38 1674.58 1582.05 1674.5 1581.73C1674.42 1581.43 1674.34 1581.13 1674.26 1580.83C1674.16 1580.49 1674.07 1580.15 1673.98 1579.81C1673.88 1579.49 1673.79 1579.16 1673.7 1578.83C1673.61 1578.53 1673.52 1578.22 1673.43 1577.91C1673.34 1577.61 1673.26 1577.3 1673.17 1577C1673.06 1576.65 1672.95 1576.3 1672.84 1575.94C1672.75 1575.64 1672.66 1575.34 1672.57 1575.04C1672.48 1574.77 1672.39 1574.5 1672.31 1574.22C1672.19 1573.86 1672.08 1573.5 1671.96 1573.15C1671.85 1572.81 1671.74 1572.48 1671.63 1572.15C1671.54 1571.87 1671.45 1571.59 1671.35 1571.32C1671.01 1570.31 1670.66 1569.31 1670.3 1568.31C1669.76 1566.82 1669.2 1565.34 1668.62 1563.87C1668.14 1562.63 1667.64 1561.41 1667.12 1560.2C1667.02 1559.95 1666.92 1559.71 1666.81 1559.47C1666.66 1559.12 1666.51 1558.77 1666.36 1558.41C1666.25 1558.17 1666.14 1557.92 1666.03 1557.68C1665.88 1557.32 1665.72 1556.97 1665.56 1556.62C1665.42 1556.31 1665.28 1555.99 1665.13 1555.68C1665.01 1555.41 1664.89 1555.15 1664.76 1554.88C1664.56 1554.45 1664.36 1554.02 1664.16 1553.6C1664.08 1553.44 1664.01 1553.28 1663.93 1553.12C1663.79 1552.83 1663.65 1552.53 1663.5 1552.24C1663.34 1551.91 1663.18 1551.57 1663.02 1551.25C1662.9 1551.01 1662.79 1550.78 1662.67 1550.55C1662.51 1550.23 1662.35 1549.91 1662.19 1549.6C1662.01 1549.25 1661.84 1548.91 1661.66 1548.58C1661.54 1548.34 1661.42 1548.1 1661.29 1547.87C1661.14 1547.57 1660.98 1547.27 1660.82 1546.98C1660.66 1546.67 1660.5 1546.37 1660.34 1546.07C1660.2 1545.81 1660.05 1545.55 1659.91 1545.29C1659.74 1544.99 1659.57 1544.68 1659.4 1544.37C1659.26 1544.11 1659.11 1543.85 1658.96 1543.59C1658.79 1543.27 1658.61 1542.96 1658.43 1542.65C1658.29 1542.4 1658.14 1542.15 1658 1541.91C1657.82 1541.6 1657.65 1541.3 1657.47 1540.99C1657.31 1540.71 1657.14 1540.44 1656.98 1540.16C1656.81 1539.88 1656.64 1539.6 1656.47 1539.32C1656.31 1539.05 1656.14 1538.78 1655.98 1538.51C1655.8 1538.21 1655.62 1537.92 1655.44 1537.63C1655.29 1537.39 1655.13 1537.14 1654.98 1536.89C1654.79 1536.59 1654.59 1536.28 1654.4 1535.98C1654.24 1535.72 1654.07 1535.47 1653.91 1535.21C1653.72 1534.92 1653.53 1534.64 1653.34 1534.35C1653.18 1534.1 1653.02 1533.84 1652.85 1533.59C1652.67 1533.32 1652.48 1533.04 1652.29 1532.76C1652.1 1532.47 1651.91 1532.19 1651.71 1531.9C1651.56 1531.68 1651.41 1531.45 1651.25 1531.23C1651.05 1530.92 1650.84 1530.62 1650.62 1530.32C1650.45 1530.07 1650.27 1529.82 1650.1 1529.57C1649.91 1529.3 1649.72 1529.03 1649.52 1528.76C1649.33 1528.49 1649.13 1528.21 1648.94 1527.94C1648.76 1527.69 1648.58 1527.45 1648.4 1527.2C1648.21 1526.94 1648.02 1526.68 1647.82 1526.42C1647.62 1526.14 1647.41 1525.86 1647.2 1525.59C1647.04 1525.37 1646.87 1525.15 1646.71 1524.93C1646.48 1524.64 1646.26 1524.35 1646.04 1524.06C1645.87 1523.84 1645.7 1523.62 1645.53 1523.4C1645.29 1523.1 1645.06 1522.8 1644.82 1522.5C1644.65 1522.28 1644.48 1522.06 1644.3 1521.85C1644.09 1521.58 1643.88 1521.31 1643.67 1521.05C1643.47 1520.81 1643.27 1520.57 1643.08 1520.33C1642.84 1520.04 1642.61 1519.75 1642.37 1519.47C1642.23 1519.29 1642.08 1519.12 1641.94 1518.95C1641.69 1518.65 1641.44 1518.35 1641.18 1518.04C1640.94 1517.76 1640.69 1517.47 1640.45 1517.19C1640.28 1516.99 1640.11 1516.79 1639.94 1516.6C1639.69 1516.31 1639.45 1516.03 1639.2 1515.75C1639.01 1515.54 1638.82 1515.32 1638.63 1515.11C1638.38 1514.83 1638.13 1514.54 1637.87 1514.26C1637.7 1514.07 1637.53 1513.88 1637.35 1513.69C1637.1 1513.41 1636.84 1513.13 1636.59 1512.85C1634.79 1510.91 1632.95 1509 1631.06 1507.14C1630.92 1507 1630.78 1506.86 1630.64 1506.72C1630.21 1506.3 1629.77 1505.88 1629.33 1505.46C1629.31 1505.44 1629.29 1505.42 1629.27 1505.4C1629.02 1505.17 1628.78 1504.94 1628.54 1504.71C1628.29 1504.47 1628.04 1504.23 1627.79 1504C1627.62 1503.85 1627.46 1503.7 1627.3 1503.55C1626.99 1503.27 1626.69 1502.98 1626.38 1502.7C1626.12 1502.47 1625.85 1502.23 1625.59 1501.99C1625.39 1501.82 1625.2 1501.64 1625 1501.47C1624.7 1501.2 1624.4 1500.93 1624.09 1500.67C1623.9 1500.5 1623.71 1500.33 1623.52 1500.16C1623.26 1499.94 1623 1499.72 1622.75 1499.5C1622.51 1499.29 1622.27 1499.08 1622.03 1498.88C1621.75 1498.64 1621.47 1498.41 1621.19 1498.17C1620.99 1498.01 1620.8 1497.85 1620.61 1497.69C1620.29 1497.43 1619.98 1497.17 1619.67 1496.92C1619.47 1496.76 1619.27 1496.59 1619.07 1496.43C1618.8 1496.21 1618.53 1496 1618.26 1495.78C1618.01 1495.58 1617.76 1495.38 1617.51 1495.19C1617.27 1494.99 1617.02 1494.8 1616.78 1494.61C1616.52 1494.41 1616.26 1494.21 1616 1494.01C1615.72 1493.79 1615.45 1493.58 1615.17 1493.37C1614.94 1493.2 1614.71 1493.02 1614.48 1492.85C1614.2 1492.64 1613.93 1492.44 1613.65 1492.23C1613.39 1492.04 1613.13 1491.85 1612.87 1491.65C1612.62 1491.47 1612.38 1491.3 1612.13 1491.12C1611.86 1490.92 1611.58 1490.72 1611.3 1490.52C1611.04 1490.33 1610.78 1490.15 1610.53 1489.97C1610.27 1489.78 1610 1489.6 1609.74 1489.42C1609.45 1489.22 1609.17 1489.02 1608.88 1488.82C1608.64 1488.65 1608.4 1488.49 1608.15 1488.32C1607.88 1488.13 1607.6 1487.95 1607.33 1487.76C1607.04 1487.57 1606.75 1487.38 1606.46 1487.19C1606.22 1487.03 1605.98 1486.87 1605.73 1486.71C1605.43 1486.51 1605.13 1486.31 1604.83 1486.12C1604.59 1485.96 1604.35 1485.81 1604.11 1485.66C1603.77 1485.44 1603.44 1485.23 1603.1 1485.02C1602.88 1484.88 1602.66 1484.74 1602.44 1484.6C1602.15 1484.42 1601.86 1484.25 1601.57 1484.07C1601.3 1483.9 1601.03 1483.74 1600.76 1483.57C1600.47 1483.4 1600.19 1483.23 1599.9 1483.06C1599.63 1482.9 1599.36 1482.74 1599.09 1482.58C1598.77 1482.39 1598.45 1482.2 1598.12 1482.02C1597.9 1481.88 1597.67 1481.75 1597.44 1481.62C1597.1 1481.42 1596.76 1481.23 1596.42 1481.04C1596.19 1480.91 1595.96 1480.78 1595.73 1480.65C1595.39 1480.47 1595.06 1480.28 1594.73 1480.1C1594.49 1479.97 1594.24 1479.83 1594 1479.7C1593.67 1479.52 1593.33 1479.34 1593 1479.17C1592.76 1479.04 1592.52 1478.91 1592.28 1478.79C1591.94 1478.61 1591.6 1478.43 1591.26 1478.25C1591 1478.12 1590.74 1477.98 1590.48 1477.85C1590.24 1477.73 1590 1477.61 1589.76 1477.49C1589.43 1477.32 1589.1 1477.15 1588.77 1476.99C1588.5 1476.85 1588.23 1476.73 1587.96 1476.59C1587.63 1476.43 1587.3 1476.27 1586.97 1476.11C1586.78 1476.02 1586.59 1475.93 1586.41 1475.84C1586.01 1475.65 1585.61 1475.47 1585.22 1475.28C1582.25 1473.9 1579.23 1472.6 1576.17 1471.39C1575.91 1471.29 1575.65 1471.19 1575.39 1471.09C1575.07 1470.96 1574.75 1470.84 1574.43 1470.72C1574.07 1470.58 1573.7 1470.44 1573.34 1470.3C1573.07 1470.2 1572.8 1470.1 1572.53 1470C1572.13 1469.86 1571.73 1469.72 1571.33 1469.57C1571.13 1469.5 1570.94 1469.43 1570.74 1469.36C1570.42 1469.24 1570.1 1469.13 1569.78 1469.02C1569.42 1468.9 1569.07 1468.78 1568.71 1468.66C1568.52 1468.59 1568.32 1468.53 1568.13 1468.46C1567.71 1468.32 1567.3 1468.18 1566.89 1468.05C1566.6 1467.95 1566.31 1467.86 1566.02 1467.77C1565.68 1467.66 1565.34 1467.55 1565 1467.45C1564.73 1467.36 1564.46 1467.28 1564.19 1467.2C1563.81 1467.08 1563.43 1466.96 1563.05 1466.85C1562.82 1466.78 1562.59 1466.72 1562.37 1466.65C1561.95 1466.53 1561.54 1466.41 1561.13 1466.29C1560.89 1466.22 1560.64 1466.15 1560.4 1466.08C1560.02 1465.98 1559.64 1465.87 1559.26 1465.77C1558.95 1465.68 1558.63 1465.6 1558.32 1465.52C1558.02 1465.43 1557.71 1465.35 1557.41 1465.27C1557.06 1465.18 1556.71 1465.09 1556.36 1465.01C1556.05 1464.93 1555.73 1464.85 1555.42 1464.77C1555.09 1464.69 1554.77 1464.61 1554.45 1464.54C1554.14 1464.46 1553.83 1464.39 1553.52 1464.31C1553.17 1464.23 1552.82 1464.15 1552.47 1464.07C1552.14 1464 1551.81 1463.92 1551.48 1463.85C1551.19 1463.79 1550.91 1463.73 1550.63 1463.66C1550.24 1463.58 1549.86 1463.5 1549.48 1463.42C1549.19 1463.36 1548.9 1463.3 1548.61 1463.25C1548.26 1463.17 1547.9 1463.1 1547.54 1463.03C1547.24 1462.97 1546.93 1462.91 1546.63 1462.86C1546.27 1462.79 1545.91 1462.72 1545.55 1462.66C1545.24 1462.6 1544.93 1462.55 1544.62 1462.49C1544.29 1462.43 1543.96 1462.38 1543.63 1462.32C1543.27 1462.26 1542.92 1462.2 1542.57 1462.14C1542.25 1462.09 1541.94 1462.04 1541.62 1461.99C1541.29 1461.94 1540.97 1461.89 1540.64 1461.84C1540.27 1461.78 1539.91 1461.73 1539.54 1461.68C1539.23 1461.63 1538.92 1461.59 1538.61 1461.55C1538.26 1461.5 1537.9 1461.45 1537.55 1461.41C1537.23 1461.36 1536.91 1461.32 1536.59 1461.28C1536.24 1461.24 1535.9 1461.2 1535.55 1461.16C1535.21 1461.11 1534.87 1461.07 1534.53 1461.04C1534.21 1461 1533.88 1460.97 1533.56 1460.93C1533.21 1460.89 1532.86 1460.86 1532.51 1460.82C1532.19 1460.79 1531.87 1460.76 1531.55 1460.73C1531.18 1460.7 1530.81 1460.66 1530.44 1460.63C1530.08 1460.6 1529.72 1460.57 1529.36 1460.54C1529.07 1460.52 1528.78 1460.49 1528.48 1460.47C1528.04 1460.44 1527.59 1460.41 1527.14 1460.38C1526.89 1460.36 1526.65 1460.34 1526.4 1460.33C1525.96 1460.3 1525.52 1460.27 1525.08 1460.25C1524.83 1460.24 1524.59 1460.22 1524.34 1460.21C1523.95 1460.19 1523.55 1460.17 1523.16 1460.16C1522.85 1460.14 1522.54 1460.13 1522.23 1460.12C1521.88 1460.1 1521.53 1460.09 1521.17 1460.08C1520.83 1460.07 1520.49 1460.06 1520.16 1460.05C1519.64 1460.04 1519.13 1460.03 1518.61 1460.02C1518.44 1460.02 1518.27 1460.01 1518.1 1460.01C1518.09 1460.01 1518.07 1460.01 1518.06 1460.01L1516 1460C1515.3 1460 1514.6 1460 1513.89 1460.01C1513.73 1460.01 1513.56 1460.02 1513.39 1460.02C1512.87 1460.03 1512.36 1460.04 1511.84 1460.05C1511.51 1460.06 1511.17 1460.07 1510.84 1460.08C1510.48 1460.09 1510.12 1460.1 1509.76 1460.12C1509.47 1460.13 1509.17 1460.14 1508.87 1460.16C1508.46 1460.17 1508.06 1460.19 1507.66 1460.21C1507.42 1460.22 1507.18 1460.24 1506.94 1460.25C1506.49 1460.27 1506.04 1460.3 1505.6 1460.33C1505.35 1460.34 1505.11 1460.36 1504.86 1460.38C1504.41 1460.41 1503.96 1460.43 1503.51 1460.47C1503.22 1460.49 1502.93 1460.52 1502.64 1460.54C1502.28 1460.57 1501.92 1460.6 1501.56 1460.63C1501.19 1460.66 1500.81 1460.7 1500.43 1460.73C1500.12 1460.76 1499.81 1460.79 1499.5 1460.82C1499.14 1460.86 1498.78 1460.9 1498.42 1460.93C1498.1 1460.97 1497.79 1461 1497.47 1461.04C1497.13 1461.07 1496.79 1461.11 1496.45 1461.16C1496.1 1461.2 1495.75 1461.24 1495.41 1461.28C1495.09 1461.32 1494.77 1461.36 1494.45 1461.41C1494.09 1461.45 1493.74 1461.5 1493.39 1461.55C1493.08 1461.59 1492.78 1461.63 1492.48 1461.68C1492.1 1461.73 1491.72 1461.79 1491.34 1461.84C1491.03 1461.89 1490.72 1461.94 1490.4 1461.99C1490.08 1462.04 1489.75 1462.09 1489.43 1462.14C1489.07 1462.2 1488.72 1462.26 1488.37 1462.32C1488.04 1462.38 1487.71 1462.43 1487.38 1462.49C1487.07 1462.55 1486.75 1462.6 1486.44 1462.66C1486.08 1462.72 1485.73 1462.79 1485.38 1462.86C1485.07 1462.91 1484.76 1462.97 1484.45 1463.03C1484.1 1463.1 1483.74 1463.17 1483.38 1463.25C1483.1 1463.3 1482.81 1463.36 1482.52 1463.42C1482.14 1463.5 1481.75 1463.58 1481.37 1463.66C1481.09 1463.73 1480.8 1463.79 1480.52 1463.85C1480.19 1463.92 1479.85 1464 1479.52 1464.07C1479.18 1464.15 1478.84 1464.23 1478.5 1464.31C1478.17 1464.39 1477.84 1464.47 1477.5 1464.55C1477.21 1464.62 1476.91 1464.69 1476.62 1464.76C1476.28 1464.84 1475.94 1464.93 1475.61 1465.01C1475.27 1465.1 1474.93 1465.19 1474.6 1465.27C1474.28 1465.35 1473.97 1465.44 1473.66 1465.52C1473.36 1465.6 1473.06 1465.68 1472.76 1465.76C1472.37 1465.87 1471.97 1465.98 1471.58 1466.09C1471.35 1466.15 1471.11 1466.22 1470.87 1466.29C1470.45 1466.41 1470.03 1466.53 1469.61 1466.65C1469.39 1466.72 1469.17 1466.78 1468.95 1466.85C1468.57 1466.96 1468.19 1467.08 1467.81 1467.2C1467.54 1467.28 1467.27 1467.36 1467 1467.45C1466.66 1467.55 1466.32 1467.66 1465.98 1467.77C1465.69 1467.86 1465.4 1467.95 1465.11 1468.05C1464.75 1468.17 1464.4 1468.28 1464.04 1468.4C1463.76 1468.5 1463.48 1468.59 1463.2 1468.69C1462.92 1468.78 1462.65 1468.88 1462.37 1468.97C1462.01 1469.1 1461.64 1469.22 1461.28 1469.35C1461.03 1469.44 1460.78 1469.53 1460.53 1469.62C1460.18 1469.75 1459.82 1469.87 1459.47 1470C1459.17 1470.11 1458.88 1470.22 1458.59 1470.33C1458.26 1470.46 1457.93 1470.58 1457.6 1470.7C1457.19 1470.86 1456.78 1471.02 1456.38 1471.18C1456.2 1471.25 1456.01 1471.32 1455.83 1471.39C1452.76 1472.6 1449.73 1473.9 1446.75 1475.29C1446.51 1475.41 1446.26 1475.53 1446.02 1475.64C1445.68 1475.8 1445.34 1475.96 1445 1476.12C1444.71 1476.26 1444.43 1476.4 1444.15 1476.54C1443.84 1476.69 1443.53 1476.84 1443.23 1476.99C1442.95 1477.13 1442.67 1477.27 1442.39 1477.41C1442.08 1477.56 1441.78 1477.72 1441.48 1477.87C1441.23 1478 1440.99 1478.13 1440.74 1478.25C1440.4 1478.43 1440.05 1478.61 1439.71 1478.79C1439.48 1478.91 1439.24 1479.04 1439 1479.17C1438.67 1479.34 1438.33 1479.52 1438 1479.7C1437.76 1479.83 1437.51 1479.97 1437.27 1480.1C1436.94 1480.28 1436.6 1480.47 1436.27 1480.65C1436.04 1480.78 1435.81 1480.91 1435.58 1481.04C1435.24 1481.23 1434.89 1481.43 1434.55 1481.62C1434.35 1481.74 1434.15 1481.86 1433.94 1481.97C1433.58 1482.18 1433.22 1482.39 1432.86 1482.61C1432.64 1482.74 1432.42 1482.86 1432.21 1482.99C1431.87 1483.19 1431.53 1483.4 1431.2 1483.6C1430.95 1483.75 1430.71 1483.9 1430.47 1484.04C1430.17 1484.23 1429.86 1484.42 1429.56 1484.6C1429.34 1484.74 1429.12 1484.88 1428.9 1485.02C1428.56 1485.23 1428.23 1485.44 1427.89 1485.66C1427.65 1485.81 1427.41 1485.96 1427.17 1486.12C1426.86 1486.32 1426.56 1486.52 1426.25 1486.72C1426.03 1486.86 1425.81 1487.01 1425.59 1487.15C1425.26 1487.37 1424.93 1487.59 1424.61 1487.81C1424.39 1487.95 1424.18 1488.09 1423.97 1488.24C1423.68 1488.44 1423.38 1488.64 1423.09 1488.84C1422.79 1489.05 1422.49 1489.26 1422.19 1489.46C1421.99 1489.6 1421.8 1489.74 1421.61 1489.87C1421.3 1490.09 1420.99 1490.31 1420.68 1490.53C1420.41 1490.73 1420.14 1490.92 1419.87 1491.12C1419.62 1491.3 1419.38 1491.47 1419.13 1491.65C1418.86 1491.85 1418.59 1492.05 1418.32 1492.25C1418.07 1492.44 1417.82 1492.62 1417.58 1492.81C1417.3 1493.01 1417.03 1493.22 1416.76 1493.42C1416.51 1493.62 1416.25 1493.81 1416 1494.01C1415.75 1494.2 1415.51 1494.39 1415.26 1494.58C1415 1494.78 1414.74 1494.98 1414.49 1495.19C1414.22 1495.39 1413.96 1495.6 1413.7 1495.81C1413.45 1496.02 1413.19 1496.22 1412.93 1496.43C1412.72 1496.6 1412.51 1496.77 1412.29 1496.95C1412.01 1497.18 1411.72 1497.41 1411.44 1497.65C1411.19 1497.85 1410.95 1498.06 1410.7 1498.27C1410.46 1498.47 1410.22 1498.67 1409.98 1498.87C1409.74 1499.08 1409.5 1499.29 1409.25 1499.5C1408.99 1499.72 1408.74 1499.94 1408.48 1500.16C1408.27 1500.35 1408.05 1500.53 1407.84 1500.72C1407.58 1500.95 1407.31 1501.19 1407.04 1501.43C1406.73 1501.7 1406.42 1501.98 1406.11 1502.26C1405.96 1502.4 1405.82 1502.53 1405.67 1502.66C1404.84 1503.41 1404.03 1504.17 1403.21 1504.94C1403.07 1505.08 1402.92 1505.21 1402.78 1505.35C1402.54 1505.59 1402.29 1505.82 1402.05 1506.06C1401.82 1506.28 1401.59 1506.5 1401.36 1506.72C1401.17 1506.91 1400.98 1507.1 1400.79 1507.28C1400.54 1507.53 1400.29 1507.78 1400.03 1508.03L1399.97 1508.1C1399.74 1508.33 1399.51 1508.56 1399.28 1508.8C1399.06 1509.02 1398.85 1509.23 1398.63 1509.46C1396.82 1511.31 1395.05 1513.21 1393.32 1515.16C1393.21 1515.28 1393.1 1515.41 1392.99 1515.53C1392.68 1515.89 1392.37 1516.24 1392.06 1516.6C1391.89 1516.79 1391.72 1516.99 1391.55 1517.19C1391.31 1517.47 1391.06 1517.76 1390.81 1518.05C1390.62 1518.28 1390.42 1518.52 1390.23 1518.75C1390.01 1519.01 1389.79 1519.27 1389.58 1519.52C1389.38 1519.76 1389.18 1520.01 1388.99 1520.25C1388.77 1520.52 1388.55 1520.79 1388.33 1521.06C1388.15 1521.27 1387.98 1521.49 1387.81 1521.7C1387.58 1521.99 1387.36 1522.27 1387.13 1522.55C1386.93 1522.81 1386.72 1523.08 1386.52 1523.34C1386.33 1523.58 1386.14 1523.82 1385.96 1524.07C1385.76 1524.32 1385.57 1524.57 1385.38 1524.82C1385.17 1525.1 1384.95 1525.38 1384.74 1525.67C1384.58 1525.88 1384.42 1526.1 1384.26 1526.32C1384.03 1526.61 1383.81 1526.91 1383.59 1527.21C1383.43 1527.44 1383.26 1527.67 1383.09 1527.9C1382.87 1528.2 1382.65 1528.51 1382.44 1528.81C1382.27 1529.05 1382.1 1529.28 1381.94 1529.52C1381.74 1529.79 1381.55 1530.06 1381.36 1530.33C1381.18 1530.6 1380.99 1530.87 1380.81 1531.13C1380.62 1531.42 1380.42 1531.7 1380.23 1531.98C1380.06 1532.23 1379.9 1532.48 1379.73 1532.72C1379.53 1533.02 1379.33 1533.32 1379.13 1533.62C1378.99 1533.84 1378.85 1534.05 1378.71 1534.26C1378.48 1534.61 1378.26 1534.95 1378.04 1535.29C1377.9 1535.51 1377.76 1535.73 1377.62 1535.95C1377.42 1536.26 1377.22 1536.58 1377.02 1536.89C1376.87 1537.14 1376.71 1537.39 1376.56 1537.63C1376.38 1537.92 1376.2 1538.21 1376.02 1538.51C1375.86 1538.78 1375.69 1539.05 1375.53 1539.32C1375.36 1539.6 1375.19 1539.88 1375.02 1540.16C1374.86 1540.44 1374.69 1540.71 1374.53 1540.99C1374.34 1541.32 1374.15 1541.64 1373.96 1541.97C1373.84 1542.17 1373.73 1542.37 1373.61 1542.57C1373.39 1542.97 1373.16 1543.36 1372.94 1543.76C1372.84 1543.93 1372.75 1544.1 1372.65 1544.28C1372.44 1544.65 1372.23 1545.03 1372.03 1545.41C1371.91 1545.62 1371.79 1545.84 1371.67 1546.06C1371.49 1546.39 1371.31 1546.72 1371.14 1547.06C1371.01 1547.3 1370.88 1547.54 1370.75 1547.79C1370.57 1548.13 1370.39 1548.48 1370.21 1548.82C1370.09 1549.05 1369.97 1549.29 1369.85 1549.52C1369.68 1549.85 1369.51 1550.19 1369.35 1550.52C1369.21 1550.78 1369.08 1551.05 1368.95 1551.31C1368.79 1551.62 1368.64 1551.94 1368.49 1552.25C1368.36 1552.52 1368.23 1552.78 1368.1 1553.05C1367.92 1553.42 1367.74 1553.8 1367.56 1554.18C1367.47 1554.39 1367.37 1554.59 1367.27 1554.8C1367.12 1555.13 1366.97 1555.46 1366.82 1555.79C1366.69 1556.06 1366.56 1556.34 1366.44 1556.61C1366.28 1556.97 1366.12 1557.32 1365.97 1557.68C1365.86 1557.92 1365.75 1558.17 1365.64 1558.41C1365.49 1558.77 1365.34 1559.12 1365.18 1559.47C1365.08 1559.71 1364.98 1559.95 1364.87 1560.2C1364.36 1561.41 1363.86 1562.63 1363.38 1563.87C1362.76 1565.44 1362.16 1567.02 1361.59 1568.62C1361.5 1568.88 1361.4 1569.14 1361.31 1569.4C1361.2 1569.69 1361.1 1569.99 1361 1570.28C1360.88 1570.63 1360.76 1570.97 1360.65 1571.31C1360.55 1571.59 1360.46 1571.87 1360.37 1572.15C1360.26 1572.48 1360.15 1572.81 1360.04 1573.15C1359.92 1573.5 1359.81 1573.86 1359.69 1574.22C1359.61 1574.5 1359.52 1574.77 1359.43 1575.04C1359.33 1575.37 1359.23 1575.69 1359.13 1576.02C1359.04 1576.32 1358.95 1576.62 1358.86 1576.93C1358.76 1577.26 1358.66 1577.59 1358.57 1577.91C1358.47 1578.25 1358.37 1578.58 1358.28 1578.91C1358.22 1579.11 1358.16 1579.31 1358.11 1579.52C1357.98 1579.95 1357.86 1580.39 1357.74 1580.83C1357.66 1581.13 1357.58 1581.43 1357.5 1581.73C1357.42 1582.05 1357.33 1582.38 1357.25 1582.7C1357.16 1583.04 1357.07 1583.39 1356.98 1583.73C1356.91 1584.03 1356.83 1584.33 1356.76 1584.63C1356.67 1584.98 1356.59 1585.33 1356.5 1585.67C1356.43 1585.99 1356.35 1586.3 1356.28 1586.62C1356.21 1586.91 1356.15 1587.2 1356.08 1587.5C1355.99 1587.88 1355.9 1588.27 1355.82 1588.66C1355.76 1588.92 1355.71 1589.18 1355.65 1589.44C1355.57 1589.82 1355.49 1590.19 1355.41 1590.56C1355.35 1590.87 1355.29 1591.18 1355.23 1591.48C1355.15 1591.84 1355.08 1592.19 1355.02 1592.54C1354.96 1592.84 1354.9 1593.14 1354.84 1593.44C1354.77 1593.81 1354.7 1594.19 1354.63 1594.57C1354.58 1594.85 1354.54 1595.12 1354.49 1595.4C1354.42 1595.78 1354.35 1596.16 1354.29 1596.54C1354.24 1596.84 1354.19 1597.14 1354.14 1597.44C1354.08 1597.81 1354.02 1598.19 1353.96 1598.56C1353.92 1598.84 1353.87 1599.13 1353.83 1599.42C1353.77 1599.8 1353.72 1600.18 1353.66 1600.56C1353.62 1600.86 1353.58 1601.16 1353.54 1601.46C1353.49 1601.81 1353.44 1602.17 1353.39 1602.53C1353.35 1602.87 1353.31 1603.2 1353.27 1603.54C1353.22 1603.87 1353.18 1604.2 1353.15 1604.53C1353.11 1604.85 1353.07 1605.17 1353.03 1605.49C1352.99 1605.88 1352.95 1606.27 1352.91 1606.67C1352.88 1606.96 1352.85 1607.26 1352.82 1607.56C1352.78 1607.9 1352.75 1608.25 1352.72 1608.6C1352.68 1608.94 1352.65 1609.28 1352.62 1609.62C1352.59 1609.99 1352.56 1610.37 1352.53 1610.74C1352.51 1611.03 1352.48 1611.32 1352.46 1611.62C1352.43 1612.03 1352.4 1612.44 1352.38 1612.85C1352.36 1613.13 1352.34 1613.41 1352.32 1613.69C1352.3 1614.06 1352.28 1614.42 1352.26 1614.79C1352.24 1615.13 1352.22 1615.46 1352.2 1615.79C1352.2 1615.86 1352.19 1615.93 1352.19 1616C1351.98 1620.41 1348.42 1624 1344 1624H1336C1331.58 1624 1327.98 1620.41 1328.17 1615.99C1332.36 1515.88 1414.85 1436 1516 1436Z" fill="white" stroke="white" id="n198"/>
<path d="M1516 1436C1617.15 1436 1699.64 1515.88 1703.83 1615.99C1704.02 1620.41 1700.42 1624 1696 1624H1688C1683.58 1624 1680.02 1620.41 1679.81 1616C1675.64 1529.14 1603.89 1460 1516 1460C1428.11 1460 1356.36 1529.14 1352.19 1616C1351.98 1620.41 1348.42 1624 1344 1624H1336C1331.58 1624 1327.98 1620.41 1328.17 1615.99C1332.36 1515.88 1414.85 1436 1516 1436Z" stroke="#BEBEBE" id="n199"/>
<g mask="url(#mask43_68_6728)" id="n201">
<mask id="mask44_68_6728" style="mask-type:alpha" maskUnits="userSpaceOnUse" x="1327" y="1435" width="378" height="190">
<path d="M1704 1624C1704 1599.31 1699.14 1574.86 1689.69 1552.06C1680.24 1529.25 1666.39 1508.52 1648.94 1491.06C1631.48 1473.61 1610.75 1459.76 1587.94 1450.31C1565.14 1440.86 1540.69 1436 1516 1436C1491.31 1436 1466.86 1440.86 1444.06 1450.31C1421.25 1459.76 1400.52 1473.61 1383.06 1491.06C1365.61 1508.52 1351.76 1529.25 1342.31 1552.06C1332.86 1574.86 1328 1599.31 1328 1624L1516 1624H1704Z" fill="white" stroke="white" id="n202"/>
</mask>
<g mask="url(#mask44_68_6728)" id="n203">
<mask id="mask45_68_6728" style="mask-type:alpha" maskUnits="userSpaceOnUse" x="1260" y="1368" width="512" height="512">
<path d="M1516 1448C1613.2 1448 1692 1526.8 1692 1624C1692 1721.2 1613.2 1800 1516 1800C1418.8 1800 1340 1721.2 1340 1624C1340 1526.8 1418.8 1448 1516 1448ZM1516 1456C1423.22 1456 1348 1531.22 1348 1624C1348 1716.78 1423.22 1792 1516 1792C1608.78 1792 1684 1716.78 1684 1624C1684 1531.22 1608.78 1456 1516 1456Z" fill="black" id="n204"/>
</mask>
<g mask="url(#mask45_68_6728)" id="n205">
<path d="M1516 1424V1624M1516 1624V1824M1516 1624L1398.44 1462.2M1516 1624L1633.56 1785.8M1516 1624L1325.79 1562.2M1516 1624L1706.21 1685.8M1516 1624L1325.79 1685.8M1516 1624L1706.21 1562.2M1516 1624L1398.44 1785.8M1516 1624L1633.56 1462.2M1516 1624L1454.2 1433.79M1516 1624L1577.8 1814.21M1516 1624L1354.2 1506.44M1516 1624L1677.8 1741.56M1516 1624L1316 1624M1516 1624L1716 1624M1516 1624L1354.2 1741.56M1516 1624L1677.8 1506.44M1516 1624L1454.2 1814.21M1516 1624L1577.8 1433.79" stroke="#BEBEBE" id="n206"/>
</g>
<mask id="mask46_68_6728" style="mask-type:alpha" maskUnits="userSpaceOnUse" x="1260" y="1368" width="512" height="512">
<path d="M1516 1432C1622.04 1432 1708 1517.96 1708 1624C1708 1730.04 1622.04 1816 1516 1816C1409.96 1816 1324 1730.04 1324 1624C1324 1517.96 1409.96 1432 1516 1432ZM1516 1456C1423.22 1456 1348 1531.22 1348 1624C1348 1716.78 1423.22 1792 1516 1792C1608.78 1792 1684 1716.78 1684 1624C1684 1531.22 1608.78 1456 1516 1456Z" fill="black" id="n207"/>
</mask>
<g mask="url(#mask46_68_6728)" id="n208">
<path d="M1516 1424V1824M1316 1624H1716" stroke="#BEBEBE" id="n209"/>
</g>
<mask id="mask47_68_6728" style="mask-type:alpha" maskUnits="userSpaceOnUse" x="1260" y="1368" width="512" height="512">
<path d="M1516 1432C1622.04 1432 1708 1517.96 1708 1624C1708 1730.04 1622.04 1816 1516 1816C1409.96 1816 1324 1730.04 1324 1624C1324 1517.96 1409.96 1432 1516 1432ZM1516 1460C1425.43 1460 1352 1533.43 1352 1624C1352 1714.57 1425.43 1788 1516 1788C1606.57 1788 1680 1714.57 1680 1624C1680 1533.43 1606.57 1460 1516 1460Z" fill="black" id="n210"/>
</mask>
<g mask="url(#mask47_68_6728)" id="n211">
<path d="M1516 1424V1824" stroke="#BEBEBE" id="n212"/>
</g>
</g>
</g>
<path d="M1338.32 1638.7C1338.32 1639.4 1338.26 1640.02 1338.15 1640.58C1338.05 1641.12 1337.88 1641.58 1337.66 1641.96C1337.43 1642.33 1337.14 1642.62 1336.78 1642.82C1336.42 1643.02 1335.99 1643.12 1335.49 1643.12C1334.86 1643.12 1334.34 1642.95 1333.91 1642.6C1333.5 1642.25 1333.19 1641.75 1332.98 1641.09C1332.78 1640.43 1332.68 1639.63 1332.68 1638.7C1332.68 1637.79 1332.77 1637.01 1332.95 1636.35C1333.14 1635.69 1333.44 1635.18 1333.85 1634.83C1334.27 1634.48 1334.81 1634.3 1335.49 1634.3C1336.13 1634.3 1336.67 1634.48 1337.08 1634.83C1337.5 1635.18 1337.81 1635.68 1338.01 1636.34C1338.21 1637 1338.32 1637.78 1338.32 1638.7ZM1333.63 1638.7C1333.63 1639.51 1333.69 1640.18 1333.81 1640.72C1333.93 1641.25 1334.13 1641.65 1334.41 1641.92C1334.68 1642.18 1335.04 1642.32 1335.49 1642.32C1335.93 1642.32 1336.29 1642.18 1336.57 1641.92C1336.84 1641.66 1337.04 1641.26 1337.17 1640.72C1337.29 1640.18 1337.36 1639.51 1337.36 1638.7C1337.36 1637.91 1337.29 1637.25 1337.17 1636.72C1337.05 1636.19 1336.85 1635.78 1336.58 1635.51C1336.31 1635.24 1335.95 1635.1 1335.49 1635.1C1335.03 1635.1 1334.67 1635.24 1334.39 1635.52C1334.12 1635.8 1333.93 1636.2 1333.81 1636.74C1333.69 1637.26 1333.63 1637.92 1333.63 1638.7Z" fill="#707070" id="n213"/>
<path d="M1687.4 1641H1686.48V1634.89C1686.48 1634.66 1686.48 1634.46 1686.48 1634.3C1686.48 1634.14 1686.49 1634 1686.49 1633.86C1686.5 1633.72 1686.5 1633.57 1686.51 1633.43C1686.39 1633.55 1686.28 1633.65 1686.18 1633.74C1686.07 1633.82 1685.94 1633.93 1685.79 1634.06L1684.78 1634.86L1684.29 1634.22L1686.61 1632.43H1687.4V1641ZM1696.32 1636.7C1696.32 1637.4 1696.26 1638.02 1696.15 1638.58C1696.05 1639.12 1695.88 1639.58 1695.66 1639.96C1695.43 1640.33 1695.14 1640.62 1694.78 1640.82C1694.42 1641.02 1693.99 1641.12 1693.49 1641.12C1692.86 1641.12 1692.34 1640.95 1691.91 1640.6C1691.5 1640.25 1691.19 1639.75 1690.98 1639.09C1690.78 1638.43 1690.68 1637.63 1690.68 1636.7C1690.68 1635.79 1690.77 1635.01 1690.95 1634.35C1691.14 1633.69 1691.44 1633.18 1691.85 1632.83C1692.27 1632.48 1692.81 1632.3 1693.49 1632.3C1694.13 1632.3 1694.67 1632.48 1695.08 1632.83C1695.5 1633.18 1695.81 1633.68 1696.01 1634.34C1696.21 1635 1696.32 1635.78 1696.32 1636.7ZM1691.63 1636.7C1691.63 1637.51 1691.69 1638.18 1691.81 1638.72C1691.93 1639.25 1692.13 1639.65 1692.41 1639.92C1692.68 1640.18 1693.04 1640.32 1693.49 1640.32C1693.93 1640.32 1694.29 1640.18 1694.57 1639.92C1694.84 1639.66 1695.04 1639.26 1695.17 1638.72C1695.29 1638.18 1695.36 1637.51 1695.36 1636.7C1695.36 1635.91 1695.29 1635.25 1695.17 1634.72C1695.05 1634.19 1694.85 1633.78 1694.58 1633.51C1694.31 1633.24 1693.95 1633.1 1693.49 1633.1C1693.03 1633.1 1692.67 1633.24 1692.39 1633.52C1692.12 1633.8 1691.93 1634.2 1691.81 1634.74C1691.69 1635.26 1691.63 1635.92 1691.63 1636.7ZM1703.19 1636.7C1703.19 1637.4 1703.13 1638.02 1703.02 1638.58C1702.91 1639.12 1702.75 1639.58 1702.53 1639.96C1702.3 1640.33 1702.01 1640.62 1701.65 1640.82C1701.29 1641.02 1700.86 1641.12 1700.35 1641.12C1699.73 1641.12 1699.21 1640.95 1698.78 1640.6C1698.37 1640.25 1698.05 1639.75 1697.85 1639.09C1697.65 1638.43 1697.55 1637.63 1697.55 1636.7C1697.55 1635.79 1697.64 1635.01 1697.82 1634.35C1698.01 1633.69 1698.31 1633.18 1698.72 1632.83C1699.14 1632.48 1699.68 1632.3 1700.35 1632.3C1701 1632.3 1701.53 1632.48 1701.95 1632.83C1702.37 1633.18 1702.67 1633.68 1702.87 1634.34C1703.08 1635 1703.19 1635.78 1703.19 1636.7ZM1698.49 1636.7C1698.49 1637.51 1698.55 1638.18 1698.67 1638.72C1698.8 1639.25 1699 1639.65 1699.27 1639.92C1699.55 1640.18 1699.91 1640.32 1700.35 1640.32C1700.8 1640.32 1701.16 1640.18 1701.43 1639.92C1701.71 1639.66 1701.91 1639.26 1702.03 1638.72C1702.16 1638.18 1702.23 1637.51 1702.23 1636.7C1702.23 1635.91 1702.16 1635.25 1702.03 1634.72C1701.91 1634.19 1701.72 1633.78 1701.45 1633.51C1701.18 1633.24 1700.82 1633.1 1700.35 1633.1C1699.9 1633.1 1699.53 1633.24 1699.26 1633.52C1698.99 1633.8 1698.79 1634.2 1698.67 1634.74C1698.55 1635.26 1698.49 1635.92 1698.49 1636.7Z" fill="#707070" id="n214"/>
<rect x="1626.31" y="1508.03" width="8" height="166" rx="4" transform="rotate(45 1626.31 1508.03)" fill="#535353" stroke="#535353" id="n215"/>
<circle cx="1516" cy="1624" r="16" transform="rotate(45 1516 1624)" fill="#535353" id="n216"/>
</g>
</svg>
