<?xml version='1.0' encoding='utf-8'?>
<svg xmlns="http://www.w3.org/2000/svg" xmlns:xlink="http://www.w3.org/1999/xlink" width="384.0" height="384.0" viewBox="0 0 384.0 384.0" fill="none">
  <defs><clipPath id="clip__asset"><rect x="0" y="0" width="384.0" height="384.0"/></clipPath><mask id="mask24_68_6728" style="mask-type:luminance" maskUnits="userSpaceOnUse" x="632" y="1464" width="512" height="512">
<path fill-rule="evenodd" clip-rule="evenodd" d="M888 1532C991.83 1532 1076 1616.17 1076 1720C1076 1823.83 991.83 1908 888 1908C784.17 1908 700 1823.83 700 1720C700 1616.17 784.17 1532 888 1532ZM888 1556C797.425 1556 724 1629.43 724 1720C724 1810.57 797.425 1884 888 1884C978.575 1884 1052 1810.57 1052 1720C1052 1629.43 978.575 1556 888 1556Z" fill="white" stroke="black" id="n155"/>
</mask>
<mask id="mask25_68_6728" style="mask-type:alpha" maskUnits="userSpaceOnUse" x="632" y="1464" width="512" height="512">
<path d="M888 1528C994.039 1528 1080 1613.96 1080 1720C1080 1826.04 994.039 1912 888 1912C781.961 1912 696 1826.04 696 1720C696 1613.96 781.961 1528 888 1528ZM888 1552C795.216 1552 720 1627.22 720 1720C720 1812.78 795.216 1888 888 1888C980.784 1888 1056 1812.78 1056 1720C1056 1627.22 980.784 1552 888 1552Z" fill="black" id="n157"/>
</mask>
<mask id="mask26_68_6728" style="mask-type:alpha" maskUnits="userSpaceOnUse" x="632" y="1464" width="512" height="512">
<path d="M888 1528C994.039 1528 1080 1613.96 1080 1720C1080 1826.04 994.039 1912 888 1912C781.961 1912 696 1826.04 696 1720C696 1613.96 781.961 1528 888 1528ZM888 1556C797.425 1556 724 1629.43 724 1720C724 1810.57 797.425 1884 888 1884C978.575 1884 1052 1810.57 1052 1720C1052 1629.43 978.575 1556 888 1556Z" fill="black" id="n160"/>
</mask>
<mask id="mask27_68_6728" style="mask-type:luminance" maskUnits="userSpaceOnUse" x="632" y="1464" width="512" height="512">
<path d="M911.2 1580C915.68 1580 917.921 1580 919.632 1580.87C921.137 1581.64 922.361 1582.86 923.128 1584.37C924 1586.08 924 1588.32 924 1592.8L924 1847.2C924 1851.68 924 1853.92 923.128 1855.63C922.361 1857.14 921.137 1858.36 919.632 1859.13C917.921 1860 915.68 1860 911.2 1860H900L900 1580L911.2 1580Z" fill="white" stroke="black" id="n169"/>
<rect x="852" y="1716" width="72" height="8" fill="black" stroke="black" id="n170"/>
</mask>
</defs>
  <g clip-path="url(#clip__asset)" transform="translate(-696.0 -1528.0)"><path fill-rule="evenodd" clip-rule="evenodd" d="M888 1532C991.83 1532 1076 1616.17 1076 1720C1076 1823.83 991.83 1908 888 1908C784.17 1908 700 1823.83 700 1720C700 1616.17 784.17 1532 888 1532ZM888 1556C797.425 1556 724 1629.43 724 1720C724 1810.57 797.425 1884 888 1884C978.575 1884 1052 1810.57 1052 1720C1052 1629.43 978.575 1556 888 1556Z" fill="white" stroke="white" id="n153"/>
<path fill-rule="evenodd" clip-rule="evenodd" d="M888 1532C991.83 1532 1076 1616.17 1076 1720C1076 1823.83 991.83 1908 888 1908C784.17 1908 700 1823.83 700 1720C700 1616.17 784.17 1532 888 1532ZM888 1556C797.425 1556 724 1629.43 724 1720C724 1810.57 797.425 1884 888 1884C978.575 1884 1052 1810.57 1052 1720C1052 1629.43 978.575 1556 888 1556Z" stroke="#BEBEBE" id="n154"/>
<g mask="url(#mask24_68_6728)" id="n156">
<mask id="mask25_68_6728" style="mask-type:alpha" maskUnits="userSpaceOnUse" x="632" y="1464" width="512" height="512">
<path d="M888 1528C994.039 1528 1080 1613.96 1080 1720C1080 1826.04 994.039 1912 888 1912C781.961 1912 696 1826.04 696 1720C696 1613.96 781.961 1528 888 1528ZM888 1552C795.216 1552 720 1627.22 720 1720C720 1812.78 795.216 1888 888 1888C980.784 1888 1056 1812.78 1056 1720C1056 1627.22 980.784 1552 888 1552Z" fill="black" id="n157"/>
</mask>
<g mask="url(#mask25_68_6728)" id="n158">
<path d="M888 1520V1720M888 1720H688M888 1720V1920M888 1720H1088" stroke="#BEBEBE" id="n159"/>
</g>
<mask id="mask26_68_6728" style="mask-type:alpha" maskUnits="userSpaceOnUse" x="632" y="1464" width="512" height="512">
<path d="M888 1528C994.039 1528 1080 1613.96 1080 1720C1080 1826.04 994.039 1912 888 1912C781.961 1912 696 1826.04 696 1720C696 1613.96 781.961 1528 888 1528ZM888 1556C797.425 1556 724 1629.43 724 1720C724 1810.57 797.425 1884 888 1884C978.575 1884 1052 1810.57 1052 1720C1052 1629.43 978.575 1556 888 1556Z" fill="black" id="n160"/>
</mask>
<g mask="url(#mask26_68_6728)" id="n161">
<path d="M888 1520V1720" stroke="#BEBEBE" id="n162"/>
</g>
<rect x="884" y="1532" width="8" height="24" fill="#BEBEBE" id="n163"/>
</g>
<path d="M911.2 1580C915.68 1580 917.921 1580 919.632 1580.87C921.137 1581.64 922.361 1582.86 923.128 1584.37C924 1586.08 924 1588.32 924 1592.8L924 1847.2C924 1851.68 924 1853.92 923.128 1855.63C922.361 1857.14 921.137 1858.36 919.632 1859.13C917.921 1860 915.68 1860 911.2 1860H864.8C860.32 1860 858.079 1860 856.368 1859.13C854.863 1858.36 853.639 1857.14 852.872 1855.63C852 1853.92 852 1851.68 852 1847.2L852 1592.8C852 1588.32 852 1586.08 852.872 1584.37C853.639 1582.86 854.863 1581.64 856.368 1580.87C858.079 1580 860.32 1580 864.8 1580L911.2 1580Z" fill="white" stroke="white" id="n164"/>
<path d="M900 1580L900 1860H864.8C860.32 1860 858.079 1860 856.368 1859.13C854.863 1858.36 853.639 1857.14 852.872 1855.63C852 1853.92 852 1851.68 852 1847.2L852 1592.8C852 1588.32 852 1586.08 852.872 1584.37C853.639 1582.86 854.863 1581.64 856.368 1580.87C858.079 1580 860.32 1580 864.8 1580L900 1580Z" fill="#F0F0F0" stroke="#F0F0F0" id="n165"/>
<path d="M911.2 1580C915.68 1580 917.921 1580 919.632 1580.87C921.137 1581.64 922.361 1582.86 923.128 1584.37C924 1586.08 924 1588.32 924 1592.8L924 1847.2C924 1851.68 924 1853.92 923.128 1855.63C922.361 1857.14 921.137 1858.36 919.632 1859.13C917.921 1860 915.68 1860 911.2 1860H864.8C860.32 1860 858.079 1860 856.368 1859.13C854.863 1858.36 853.639 1857.14 852.872 1855.63C852 1853.92 852 1851.68 852 1847.2L852 1592.8C852 1588.32 852 1586.08 852.872 1584.37C853.639 1582.86 854.863 1581.64 856.368 1580.87C858.079 1580 860.32 1580 864.8 1580L911.2 1580Z" stroke="#BEBEBE" id="n166"/>
<rect x="852" y="1716" width="72" height="8" fill="#BEBEBE" stroke="#BEBEBE" id="n167"/>
<path d="M903.479 1573.38L889.308 1561.13C888.557 1560.48 887.443 1560.48 886.692 1561.13L872.521 1573.38C871.461 1574.3 872.127 1576 873.546 1576H902.454C903.873 1576 904.539 1574.3 903.479 1573.38Z" fill="#535353" id="n168"/>
<g mask="url(#mask27_68_6728)" id="n171">
<path d="M928 1648L904 1648M928 1716L904 1716M928 1580L904 1580" stroke="#BEBEBE" id="n172"/>
<path d="M928 1716L900 1716M928 1580L900 1580" stroke="#BEBEBE" id="n173"/>
<path d="M928 1792L904 1792M928 1860L904 1860M928 1724L904 1724" stroke="#BEBEBE" id="n174"/>
<path d="M928 1860L900 1860M928 1724L900 1724" stroke="#BEBEBE" id="n175"/>
</g>
<rect x="852" y="1716" width="72" height="8" fill="#2D548B" stroke="#2D548B" id="n176"/>
<path d="M927.1 1729.26C926.323 1729.61 925.337 1729.6 924.521 1729.05L912.949 1721.24C912.068 1720.64 912.068 1719.35 912.949 1718.75L924.521 1710.94C925.337 1710.39 926.323 1710.38 927.1 1710.73C927.877 1711.08 928.5 1711.82 928.5 1712.8L928.5 1727.19C928.5 1728.17 927.877 1728.91 927.1 1729.26Z" fill="#2D548B" stroke="white" stroke-linejoin="round" id="n177"/>
<path d="M897.263 1536.9C897.612 1537.68 897.603 1538.66 897.052 1539.48L889.243 1551.05C888.648 1551.93 887.352 1551.93 886.757 1551.05L878.948 1539.48C878.397 1538.66 878.388 1537.68 878.737 1536.9C879.087 1536.12 879.827 1535.5 880.803 1535.5L895.197 1535.5C896.173 1535.5 896.913 1536.12 897.263 1536.9Z" fill="#2D548B" stroke="white" stroke-linejoin="round" id="n178"/>
</g>
</svg>
