<?xml version='1.0' encoding='utf-8'?>
<svg xmlns="http://www.w3.org/2000/svg" xmlns:xlink="http://www.w3.org/1999/xlink" width="48.0" height="48.0" viewBox="0 0 48.0 48.0" fill="none">
  <defs><clipPath id="clip__asset"><rect x="0" y="0" width="48.0" height="48.0"/></clipPath><mask id="mask12_68_6728" style="mask-type:luminance" maskUnits="userSpaceOnUse" x="970" y="291" width="34" height="34">
<path d="M1001 292C1002.1 292 1003 292.895 1003 294L1003 322C1003 323.105 1002.1 324 1001 324H973C971.895 324 971 323.105 971 322L971 294C971 292.895 971.895 292 973 292L1001 292Z" fill="white" stroke="black" id="n118"/>
</mask>
<clipPath id="clip5_68_6728">
<rect width="32" height="32" fill="white" transform="matrix(-1 0 0 1 1003 292)" id="n449"/>
</clipPath>
</defs>
  <g clip-path="url(#clip__asset)" transform="translate(-963.0 -284.0)"><path d="M1001 292C1002.1 292 1003 292.895 1003 294L1003 322C1003 323.105 1002.1 324 1001 324H973C971.895 324 971 323.105 971 322L971 294C971 292.895 971.895 292 973 292L1001 292Z" fill="white" stroke="#BEBEBE" id="n116"/>
<path d="M1001 292C1002.1 292 1003 292.895 1003 294L1003 322C1003 323.105 1002.1 324 1001 324H973C971.895 324 971 323.105 971 322L971 294C971 292.895 971.895 292 973 292L1001 292Z" stroke="#BEBEBE" id="n117"/>
<g mask="url(#mask12_68_6728)" id="n119">
<g clip-path="url(#clip5_68_6728)" id="n120">
<path d="M971.906 312.218C971.604 312.865 971 312.019 971 312.019V292H1003.42V313.064C1002.92 313.064 1002.01 314.358 1001.46 314.358C1000.9 314.358 1001.05 312.666 1000.5 312.666C999.947 312.666 999.998 307.986 999.695 307.986C999.393 307.986 999.544 311.819 998.991 312.367C998.437 312.915 998.387 313.064 997.883 313.064C997.62 313.064 997.229 311.62 996.625 311.62C996.02 311.62 995.28 309.529 995.064 309.529C994.611 309.529 994.812 313.462 994.359 313.462C993.906 313.462 994.057 316.3 993.604 316.3C993.151 316.3 992.647 304.8 992.245 304.8C991.842 304.8 991.993 310.525 991.54 310.525C991.087 310.525 990.936 307.538 990.583 307.538C990.231 307.538 990.231 308.285 989.879 308.285C989.526 308.285 989.476 306.144 989.123 306.144C988.932 306.144 988.217 310.177 987.814 310.376C987.412 310.575 987.133 311.846 986.858 312.118C986.254 312.716 986.052 313.064 985.348 313.064C984.643 313.064 984.039 312.915 983.535 313.413C983.032 313.91 982.478 314.806 981.824 314.806C981.169 314.806 980.414 314.408 980.062 314.408C979.709 314.408 979.81 310.575 979.508 310.575C979.206 310.575 978.954 312.367 978.652 312.367C978.495 312.367 978.249 312.218 977.897 312.218C977.544 312.218 977.261 310.674 977.091 310.674C976.739 310.674 976.236 315.653 975.933 315.653C975.631 315.653 975.48 311.023 975.279 311.023C975.078 311.023 975.027 311.571 974.625 311.571C974.441 311.571 974.222 309.694 973.718 309.38C973.215 309.066 973.165 307.04 972.863 307.04C972.56 307.04 972.208 311.571 971.906 312.218Z" fill="#9CC1F5" id="n121"/>
<path d="M971 312.018C971 312.018 971.604 312.865 971.906 312.218C972.208 311.57 972.56 307.04 972.863 307.04C973.165 307.04 973.215 309.066 973.718 309.38C974.222 309.694 974.441 311.57 974.625 311.57C975.027 311.57 975.078 311.023 975.279 311.023C975.48 311.023 975.631 315.653 975.933 315.653C976.236 315.653 976.739 310.674 977.091 310.674C977.261 310.674 977.544 312.218 977.897 312.218C978.249 312.218 978.495 312.367 978.652 312.367C978.954 312.367 979.206 310.575 979.508 310.575C979.81 310.575 979.709 314.408 980.062 314.408C980.414 314.408 981.169 314.806 981.824 314.806C982.478 314.806 983.032 313.91 983.535 313.412C984.039 312.915 984.643 313.064 985.348 313.064C986.052 313.064 986.254 312.715 986.858 312.118C987.133 311.846 987.412 310.575 987.814 310.376C988.217 310.176 988.932 306.144 989.123 306.144C989.476 306.144 989.526 308.285 989.879 308.285C990.231 308.285 990.231 307.538 990.583 307.538C990.936 307.538 991.087 310.525 991.54 310.525C991.993 310.525 991.842 304.8 992.245 304.8C992.647 304.8 993.151 316.3 993.604 316.3C994.057 316.3 993.906 313.462 994.359 313.462C994.812 313.462 994.611 309.529 995.064 309.529C995.28 309.529 996.02 311.62 996.625 311.62C997.229 311.62 997.62 313.064 997.883 313.064C998.387 313.064 998.437 312.915 998.991 312.367C999.544 311.819 999.393 307.986 999.695 307.986C999.998 307.986 999.947 312.666 1000.5 312.666C1001.05 312.666 1000.9 314.358 1001.46 314.358C1002.01 314.358 1002.92 313.064 1003.42 313.064" stroke="#2D548B" stroke-linecap="square" id="n122"/>
</g>
</g>
<circle cx="1003" cy="313" r="2.5" fill="#2D548B" stroke="#F7F7F7" id="n123"/>
</g>
</svg>
