<?xml version='1.0' encoding='utf-8'?>
<svg xmlns="http://www.w3.org/2000/svg" xmlns:xlink="http://www.w3.org/1999/xlink" width="634.0" height="1026.0" viewBox="0 0 634.0 1026.0" fill="none">
  <defs><clipPath id="clip__asset"><rect x="0" y="0" width="634.0" height="1026.0"/></clipPath><clipPath id="clip116_68_6728">
<rect width="58" height="32" fill="white" transform="translate(5536 1140)" id="n1468"/>
</clipPath>
<clipPath id="clip117_68_6728">
<rect width="26" height="16" fill="white" transform="translate(5598 1140)" id="n1469"/>
</clipPath>
<clipPath id="clip118_68_6728">
<rect width="24" height="16" fill="white" transform="translate(5598 1156)" id="n1470"/>
</clipPath>
<clipPath id="clip119_68_6728">
<rect width="58" height="32" fill="white" transform="translate(5808 1140)" id="n1471"/>
</clipPath>
<clipPath id="clip120_68_6728">
<rect width="26" height="16" fill="white" transform="translate(5870 1140)" id="n1472"/>
</clipPath>
<clipPath id="clip121_68_6728">
<rect width="24" height="16" fill="white" transform="translate(5870 1156)" id="n1473"/>
</clipPath>
</defs>
  <g clip-path="url(#clip__asset)" transform="translate(-5440.0 -200.0)"><path d="M6065.03 200V200.5H6070C6071.93 200.5 6073.5 202.067 6073.5 204V208.99H6074V213.98H6073.5V223.961H6074V228.951H6073.5V238.932H6074V243.922H6073.5V253.902H6074V258.893H6073.5V268.873H6074V273.863H6073.5V283.844H6074V288.834H6073.5V298.814H6074V303.805H6073.5V313.784H6074V318.774H6073.5V328.755H6074V333.745H6073.5V343.726H6074V348.716H6073.5V358.696H6074V363.687H6073.5V373.667H6074V378.657H6073.5V388.638H6074V393.628H6073.5V403.608H6074V408.599H6073.5V418.579H6074V423.569H6073.5V433.55H6074V438.539H6073.5V448.52H6074V453.51H6073.5V463.49H6074V468.48H6073.5V478.461H6074V483.451H6073.5V493.432H6074V498.422H6073.5V508.402H6074V513.393H6073.5V523.373H6074V528.363H6073.5V538.344H6074V543.334H6073.5V553.314H6074V558.304H6073.5V568.284H6074V573.274H6073.5V583.255H6074V588.245H6073.5V598.226H6074V603.216H6073.5V613.196H6074V618.187H6073.5V628.167H6074V633.157H6073.5V643.138H6074V648.128H6073.5V658.108H6074V663.099H6073.5V673.079H6074V678.068H6073.5V688.049H6074V693.039H6073.5V703.02H6074V708.01H6073.5V717.99H6074V722.98H6073.5V732.961H6074V737.951H6073.5V747.932H6074V752.922H6073.5V762.902H6074V767.893H6073.5V777.873H6074V782.863H6073.5V792.843H6074V797.833H6073.5V807.813H6074V812.804H6073.5V822.784H6074V827.774H6073.5V837.755H6074V842.745H6073.5V852.726H6074V857.716H6073.5V867.696H6074V872.687H6073.5V882.667H6074V887.657H6073.5V897.638H6074V902.628H6073.5V912.607H6074V917.598H6073.5V927.578H6074V932.568H6073.5V942.549H6074V947.539H6073.5V957.52H6074V962.51H6073.5V972.49H6074V977.48H6073.5V987.461H6074V992.451H6073.5V1002.43H6074V1007.42H6073.5V1017.4H6074V1022.39H6073.5V1032.37H6074V1037.36H6073.5V1047.34H6074V1052.33H6073.5V1062.31H6074V1067.3H6073.5V1077.28H6074V1082.27H6073.5V1092.25H6074V1097.25H6073.5V1107.23H6074V1112.22H6073.5V1122.2H6074V1127.19H6073.5V1137.17H6074V1142.16H6073.5V1152.14H6074V1157.13H6073.5V1167.11H6074V1172.1H6073.5V1182.08H6074V1187.07H6073.5V1197.05H6074V1202.04H6073.5V1212.02H6074V1217.01H6073.5V1222C6073.5 1223.93 6071.93 1225.5 6070 1225.5H6065.03V1226H6060.06V1225.5H6050.13V1226H6045.16V1225.5H6035.22V1226H6030.25V1225.5H6020.32V1226H6015.35V1225.5H6005.41V1226H6000.45V1225.5H5990.51V1226H5985.54V1225.5H5975.6V1226H5970.64V1225.5H5960.7V1226H5955.73V1225.5H5945.79V1226H5940.83V1225.5H5930.89V1226H5925.92V1225.5H5915.98V1226H5911.02V1225.5H5901.08V1226H5896.11V1225.5H5886.17V1226H5881.21V1225.5H5871.27V1226H5866.3V1225.5H5856.37V1226H5851.4V1225.5H5841.46V1226H5836.49V1225.5H5826.56V1226H5821.59V1225.5H5811.65V1226H5806.68V1225.5H5796.75V1226H5791.78V1225.5H5781.84V1226H5776.87V1225.5H5766.94V1226H5761.97V1225.5H5752.03V1226H5747.06V1225.5H5737.13V1226H5732.16V1225.5H5722.22V1226H5717.25V1225.5H5707.32V1226H5702.35V1225.5H5692.41V1226H5687.44V1225.5H5677.51V1226H5672.54V1225.5H5662.6V1226H5657.63V1225.5H5647.7V1226H5642.73V1225.5H5632.79V1226H5627.83V1225.5H5617.89V1226H5612.92V1225.5H5602.98V1226H5598.02V1225.5H5588.08V1226H5583.11V1225.5H5573.17V1226H5568.21V1225.5H5558.27V1226H5553.3V1225.5H5543.37V1226H5538.4V1225.5H5528.46V1226H5523.49V1225.5H5513.56V1226H5508.59V1225.5H5498.65V1226H5493.68V1225.5H5483.75V1226H5478.78V1225.5H5468.84V1226H5463.87V1225.5H5453.94V1226H5448.97V1225.5H5444C5442.07 1225.5 5440.5 1223.93 5440.5 1222V1217.01H5440V1212.02H5440.5V1202.04H5440V1197.05H5440.5V1187.07H5440V1182.08H5440.5V1172.1H5440V1167.11H5440.5V1157.13H5440V1152.14H5440.5V1142.16H5440V1137.17H5440.5V1127.19H5440V1122.2H5440.5V1112.22H5440V1107.23H5440.5V1097.25H5440V1092.25H5440.5V1082.27H5440V1077.28H5440.5V1067.3H5440V1062.31H5440.5V1052.33H5440V1047.34H5440.5V1037.36H5440V1032.37H5440.5V1022.39H5440V1017.4H5440.5V1007.42H5440V1002.43H5440.5V992.45H5440V987.461H5440.5V977.48H5440V972.49H5440.5V962.51H5440V957.52H5440.5V947.539H5440V942.549H5440.5V932.568H5440V927.578H5440.5V917.598H5440V912.607H5440.5V902.627H5440V897.637H5440.5V887.656H5440V882.666H5440.5V872.686H5440V867.696H5440.5V857.716H5440V852.726H5440.5V842.745H5440V837.755H5440.5V827.774H5440V822.784H5440.5V812.804H5440V807.813H5440.5V797.833H5440V792.843H5440.5V782.862H5440V777.872H5440.5V767.892H5440V762.901H5440.5V752.921H5440V747.932H5440.5V737.951H5440V732.961H5440.5V722.98H5440V717.99H5440.5V708.01H5440V703.02H5440.5V693.039H5440V688.049H5440.5V678.068H5440V673.078H5440.5V663.098H5440V658.107H5440.5V648.127H5440V643.137H5440.5V633.157H5440V628.167H5440.5V618.187H5440V613.196H5440.5V603.216H5440V598.226H5440.5V588.245H5440V583.255H5440.5V573.274H5440V568.284H5440.5V558.304H5440V553.313H5440.5V543.333H5440V538.343H5440.5V528.362H5440V523.372H5440.5V513.393H5440V508.402H5440.5V498.422H5440V493.432H5440.5V483.451H5440V478.461H5440.5V468.48H5440V463.49H5440.5V453.51H5440V448.52H5440.5V438.539H5440V433.549H5440.5V423.568H5440V418.578H5440.5V408.598H5440V403.607H5440.5V393.627H5440V388.638H5440.5V378.657H5440V373.667H5440.5V363.687H5440V358.696H5440.5V348.716H5440V343.726H5440.5V333.745H5440V328.755H5440.5V318.774H5440V313.784H5440.5V303.804H5440V298.813H5440.5V288.833H5440V283.843H5440.5V273.862H5440V268.872H5440.5V258.893H5440V253.902H5440.5V243.922H5440V238.932H5440.5V228.951H5440V223.961H5440.5V213.98H5440V208.99H5440.5V204C5440.5 202.067 5442.07 200.5 5444 200.5H5448.97V200H5453.94V200.5H5463.87V200H5468.84V200.5H5478.78V200H5483.75V200.5H5493.68V200H5498.65V200.5H5508.59V200H5513.55V200.5H5523.49V200H5528.46V200.5H5538.4V200H5543.36V200.5H5553.3V200H5558.27V200.5H5568.21V200H5573.17V200.5H5583.11V200H5588.08V200.5H5598.02V200H5602.98V200.5H5612.92V200H5617.89V200.5H5627.83V200H5632.79V200.5H5642.73V200H5647.7V200.5H5657.63V200H5662.6V200.5H5672.54V200H5677.51V200.5H5687.44V200H5692.41V200.5H5702.35V200H5707.32V200.5H5717.25V200H5722.22V200.5H5732.16V200H5737.13V200.5H5747.06V200H5752.03V200.5H5761.97V200H5766.94V200.5H5776.87V200H5781.84V200.5H5791.78V200H5796.75V200.5H5806.68V200H5811.65V200.5H5821.59V200H5826.56V200.5H5836.49V200H5841.46V200.5H5851.4V200H5856.37V200.5H5866.3V200H5871.27V200.5H5881.21V200H5886.17V200.5H5896.11V200H5901.08V200.5H5911.02V200H5915.98V200.5H5925.92V200H5930.89V200.5H5940.83V200H5945.79V200.5H5955.73V200H5960.7V200.5H5970.63V200H5975.6V200.5H5985.54V200H5990.51V200.5H6000.44V200H6005.41V200.5H6015.35V200H6020.32V200.5H6030.25V200H6035.22V200.5H6045.16V200H6050.13V200.5H6060.06V200H6065.03Z" fill="#F7F7F7" id="n452"/>
<path d="M5565.22 353H5561.14V337.564C5561.14 337.043 5561.14 336.533 5561.14 336.034C5561.16 335.513 5561.18 335.003 5561.21 334.504C5561.23 333.983 5561.25 333.495 5561.27 333.042C5561.05 333.291 5560.76 333.575 5560.42 333.892C5560.08 334.187 5559.73 334.493 5559.37 334.81L5556.65 336.986L5554.61 334.402L5561.85 328.724H5565.22V353ZM5589.11 353H5572.58V349.94L5578.8 343.65C5580.03 342.403 5581.03 341.338 5581.8 340.454C5582.59 339.547 5583.18 338.697 5583.56 337.904C5583.95 337.111 5584.14 336.238 5584.14 335.286C5584.14 334.153 5583.81 333.303 5583.16 332.736C5582.5 332.147 5581.64 331.852 5580.57 331.852C5579.51 331.852 5578.53 332.067 5577.65 332.498C5576.76 332.906 5575.85 333.484 5574.89 334.232L5572.68 331.546C5573.34 330.979 5574.06 330.458 5574.83 329.982C5575.6 329.506 5576.46 329.121 5577.41 328.826C5578.38 328.531 5579.5 328.384 5580.74 328.384C5582.31 328.384 5583.64 328.667 5584.75 329.234C5585.89 329.778 5586.76 330.537 5587.37 331.512C5587.98 332.487 5588.29 333.62 5588.29 334.912C5588.29 335.887 5588.13 336.805 5587.81 337.666C5587.52 338.527 5587.09 339.366 5586.52 340.182C5585.98 340.975 5585.3 341.803 5584.48 342.664C5583.67 343.503 5582.76 344.398 5581.76 345.35L5577.72 349.26V349.43H5589.11V353ZM5607.11 334.266C5607.11 335.377 5606.9 336.34 5606.46 337.156C5606.03 337.949 5605.43 338.607 5604.66 339.128C5603.89 339.627 5603 339.989 5601.98 340.216V340.318C5603.93 340.545 5605.39 341.145 5606.36 342.12C5607.36 343.095 5607.86 344.387 5607.86 345.996C5607.86 347.401 5607.52 348.659 5606.84 349.77C5606.16 350.881 5605.12 351.753 5603.71 352.388C5602.31 353.023 5600.5 353.34 5598.3 353.34C5596.99 353.34 5595.77 353.227 5594.63 353C5593.52 352.796 5592.46 352.467 5591.44 352.014V348.41C5592.48 348.909 5593.58 349.305 5594.73 349.6C5595.89 349.872 5596.99 350.008 5598.03 350.008C5600.03 350.008 5601.44 349.645 5602.28 348.92C5603.12 348.172 5603.54 347.141 5603.54 345.826C5603.54 344.987 5603.33 344.296 5602.89 343.752C5602.46 343.208 5601.78 342.811 5600.85 342.562C5599.93 342.29 5598.72 342.154 5597.25 342.154H5595.18V338.856H5597.28C5598.71 338.856 5599.83 338.697 5600.65 338.38C5601.49 338.04 5602.09 337.575 5602.45 336.986C5602.84 336.397 5603.03 335.717 5603.03 334.946C5603.03 333.949 5602.7 333.167 5602.04 332.6C5601.39 332.033 5600.41 331.75 5599.12 331.75C5598.3 331.75 5597.56 331.841 5596.88 332.022C5596.22 332.203 5595.61 332.441 5595.04 332.736C5594.5 333.031 5593.98 333.337 5593.48 333.654L5591.54 330.832C5592.15 330.379 5592.84 329.971 5593.61 329.608C5594.38 329.223 5595.23 328.928 5596.16 328.724C5597.11 328.497 5598.16 328.384 5599.29 328.384C5601.81 328.384 5603.73 328.917 5605.07 329.982C5606.43 331.047 5607.11 332.475 5607.11 334.266Z" fill="#535353" id="n454"/>
<path d="M5566.03 460V451.789H5567.43V458.804H5570.9V460H5566.03ZM5574.63 453.664C5575.44 453.664 5576.04 453.836 5576.45 454.181C5576.86 454.526 5577.06 455.07 5577.06 455.814V460H5576.08L5575.81 459.137H5575.76C5575.58 459.36 5575.4 459.548 5575.21 459.701C5575.02 459.847 5574.81 459.95 5574.56 460.012C5574.33 460.081 5574.03 460.115 5573.69 460.115C5573.32 460.115 5572.99 460.046 5572.69 459.908C5572.4 459.77 5572.17 459.559 5572 459.275C5571.83 458.992 5571.75 458.635 5571.75 458.206C5571.75 457.562 5571.98 457.079 5572.46 456.757C5572.93 456.427 5573.66 456.247 5574.62 456.216L5575.69 456.182V455.86C5575.69 455.446 5575.59 455.151 5575.39 454.974C5575.2 454.798 5574.93 454.71 5574.58 454.71C5574.26 454.71 5573.96 454.756 5573.67 454.848C5573.38 454.94 5573.09 455.051 5572.82 455.181L5572.38 454.204C5572.68 454.043 5573.02 453.913 5573.41 453.813C5573.8 453.713 5574.21 453.664 5574.63 453.664ZM5574.91 457.067C5574.25 457.09 5573.79 457.202 5573.54 457.401C5573.29 457.6 5573.16 457.872 5573.16 458.217C5573.16 458.516 5573.25 458.735 5573.44 458.873C5573.62 459.003 5573.85 459.068 5574.14 459.068C5574.58 459.068 5574.94 458.946 5575.24 458.7C5575.54 458.447 5575.69 458.072 5575.69 457.573V457.045L5574.91 457.067ZM5580.27 453.341C5580.27 453.587 5580.26 453.824 5580.24 454.054C5580.24 454.284 5580.23 454.465 5580.21 454.595H5580.27C5580.44 454.334 5580.68 454.116 5580.97 453.939C5581.27 453.755 5581.65 453.664 5582.12 453.664C5582.85 453.664 5583.44 453.936 5583.89 454.48C5584.34 455.017 5584.57 455.818 5584.57 456.883C5584.57 457.589 5584.47 458.183 5584.26 458.666C5584.05 459.149 5583.76 459.513 5583.38 459.758C5583.02 459.996 5582.58 460.115 5582.08 460.115C5581.62 460.115 5581.24 460.031 5580.96 459.862C5580.67 459.693 5580.44 459.494 5580.27 459.264H5580.18L5579.92 460H5578.89V451.26H5580.27V453.341ZM5581.74 454.779C5581.38 454.779 5581.09 454.852 5580.88 454.997C5580.66 455.143 5580.51 455.362 5580.42 455.653C5580.33 455.944 5580.28 456.316 5580.27 456.768V456.883C5580.27 457.558 5580.37 458.079 5580.59 458.447C5580.8 458.808 5581.2 458.988 5581.76 458.988C5582.21 458.988 5582.56 458.808 5582.8 458.447C5583.04 458.079 5583.15 457.55 5583.15 456.86C5583.15 456.17 5583.03 455.653 5582.79 455.308C5582.55 454.955 5582.2 454.779 5581.74 454.779ZM5588.56 453.664C5589.11 453.664 5589.59 453.778 5589.99 454.008C5590.39 454.231 5590.7 454.553 5590.92 454.974C5591.13 455.388 5591.24 455.891 5591.24 456.481V457.205H5587.11C5587.13 457.788 5587.29 458.24 5587.59 458.562C5587.9 458.877 5588.33 459.034 5588.87 459.034C5589.27 459.034 5589.62 458.996 5589.94 458.919C5590.26 458.842 5590.59 458.727 5590.93 458.574V459.689C5590.61 459.835 5590.29 459.942 5589.96 460.012C5589.64 460.081 5589.25 460.115 5588.8 460.115C5588.2 460.115 5587.66 460 5587.19 459.77C5586.72 459.532 5586.36 459.176 5586.1 458.7C5585.84 458.225 5585.71 457.635 5585.71 456.929C5585.71 456.224 5585.83 455.63 5586.06 455.147C5586.3 454.664 5586.63 454.296 5587.06 454.043C5587.49 453.79 5587.99 453.664 5588.56 453.664ZM5588.56 454.698C5588.15 454.698 5587.83 454.829 5587.58 455.089C5587.34 455.342 5587.19 455.722 5587.14 456.228H5589.89C5589.89 455.921 5589.84 455.657 5589.74 455.434C5589.65 455.204 5589.51 455.024 5589.31 454.894C5589.12 454.764 5588.87 454.698 5588.56 454.698ZM5594.09 460H5592.71V451.26H5594.09V460Z" fill="#535353" id="n455"/>
<path d="M5575.53 469.847V476H5574.79L5574.65 475.114H5574.62C5574.49 475.329 5574.32 475.513 5574.11 475.666C5573.91 475.812 5573.69 475.923 5573.43 476C5573.18 476.077 5572.91 476.115 5572.62 476.115C5572.13 476.115 5571.73 476.038 5571.4 475.885C5571.07 475.724 5570.82 475.479 5570.65 475.149C5570.48 474.819 5570.4 474.394 5570.4 473.872V469.847H5571.32V473.815C5571.32 474.329 5571.43 474.716 5571.66 474.976C5571.9 475.229 5572.26 475.356 5572.74 475.356C5573.2 475.356 5573.57 475.272 5573.84 475.103C5574.11 474.927 5574.31 474.67 5574.43 474.332C5574.56 473.995 5574.63 473.585 5574.63 473.102V469.847H5575.53ZM5580.41 469.732C5581.13 469.732 5581.67 469.913 5582.05 470.273C5582.43 470.626 5582.61 471.197 5582.61 471.986V476H5581.72V472.055C5581.72 471.526 5581.6 471.135 5581.36 470.882C5581.12 470.629 5580.76 470.503 5580.28 470.503C5579.6 470.503 5579.11 470.695 5578.83 471.078C5578.55 471.461 5578.4 472.021 5578.4 472.757V476H5577.51V469.847H5578.23L5578.37 470.756H5578.42C5578.55 470.534 5578.72 470.35 5578.92 470.204C5579.12 470.051 5579.35 469.936 5579.6 469.859C5579.85 469.775 5580.12 469.732 5580.41 469.732ZM5585.43 469.847V476H5584.54V469.847H5585.43ZM5585 467.547C5585.15 467.547 5585.28 467.597 5585.38 467.697C5585.48 467.797 5585.54 467.95 5585.54 468.157C5585.54 468.349 5585.48 468.498 5585.38 468.605C5585.28 468.705 5585.15 468.755 5585 468.755C5584.84 468.755 5584.7 468.705 5584.6 468.605C5584.5 468.498 5584.45 468.349 5584.45 468.157C5584.45 467.95 5584.5 467.797 5584.6 467.697C5584.7 467.597 5584.84 467.547 5585 467.547ZM5589.37 475.367C5589.53 475.367 5589.69 475.356 5589.84 475.333C5590 475.302 5590.13 475.272 5590.24 475.241V475.931C5590.13 475.985 5589.97 476.027 5589.78 476.058C5589.6 476.096 5589.41 476.115 5589.22 476.115C5588.9 476.115 5588.6 476.058 5588.34 475.942C5588.08 475.827 5587.87 475.636 5587.71 475.367C5587.56 475.091 5587.48 474.712 5587.48 474.229V470.56H5586.6V470.112L5587.49 469.767L5587.84 468.421H5588.39V469.847H5590.2V470.56H5588.39V474.206C5588.39 474.597 5588.47 474.888 5588.64 475.08C5588.82 475.272 5589.06 475.367 5589.37 475.367Z" fill="#535353" id="n456"/>
<path d="M5837.22 353H5833.14V337.564C5833.14 337.043 5833.14 336.533 5833.14 336.034C5833.16 335.513 5833.18 335.003 5833.21 334.504C5833.23 333.983 5833.25 333.495 5833.27 333.042C5833.05 333.291 5832.76 333.575 5832.42 333.892C5832.08 334.187 5831.73 334.493 5831.37 334.81L5828.65 336.986L5826.61 334.402L5833.85 328.724H5837.22V353ZM5861.11 353H5844.58V349.94L5850.8 343.65C5852.03 342.403 5853.03 341.338 5853.8 340.454C5854.59 339.547 5855.18 338.697 5855.56 337.904C5855.95 337.111 5856.14 336.238 5856.14 335.286C5856.14 334.153 5855.81 333.303 5855.16 332.736C5854.5 332.147 5853.64 331.852 5852.57 331.852C5851.51 331.852 5850.53 332.067 5849.65 332.498C5848.76 332.906 5847.85 333.484 5846.89 334.232L5844.68 331.546C5845.34 330.979 5846.06 330.458 5846.83 329.982C5847.6 329.506 5848.46 329.121 5849.41 328.826C5850.38 328.531 5851.5 328.384 5852.74 328.384C5854.31 328.384 5855.64 328.667 5856.75 329.234C5857.89 329.778 5858.76 330.537 5859.37 331.512C5859.98 332.487 5860.29 333.62 5860.29 334.912C5860.29 335.887 5860.13 336.805 5859.81 337.666C5859.52 338.527 5859.09 339.366 5858.52 340.182C5857.98 340.975 5857.3 341.803 5856.48 342.664C5855.67 343.503 5854.76 344.398 5853.76 345.35L5849.72 349.26V349.43H5861.11V353ZM5879.11 334.266C5879.11 335.377 5878.9 336.34 5878.46 337.156C5878.03 337.949 5877.43 338.607 5876.66 339.128C5875.89 339.627 5875 339.989 5873.98 340.216V340.318C5875.93 340.545 5877.39 341.145 5878.36 342.12C5879.36 343.095 5879.86 344.387 5879.86 345.996C5879.86 347.401 5879.52 348.659 5878.84 349.77C5878.16 350.881 5877.12 351.753 5875.71 352.388C5874.31 353.023 5872.5 353.34 5870.3 353.34C5868.99 353.34 5867.77 353.227 5866.63 353C5865.52 352.796 5864.46 352.467 5863.44 352.014V348.41C5864.48 348.909 5865.58 349.305 5866.73 349.6C5867.89 349.872 5868.99 350.008 5870.03 350.008C5872.03 350.008 5873.44 349.645 5874.28 348.92C5875.12 348.172 5875.54 347.141 5875.54 345.826C5875.54 344.987 5875.33 344.296 5874.89 343.752C5874.46 343.208 5873.78 342.811 5872.85 342.562C5871.93 342.29 5870.72 342.154 5869.25 342.154H5867.18V338.856H5869.28C5870.71 338.856 5871.83 338.697 5872.65 338.38C5873.49 338.04 5874.09 337.575 5874.45 336.986C5874.84 336.397 5875.03 335.717 5875.03 334.946C5875.03 333.949 5874.7 333.167 5874.04 332.6C5873.39 332.033 5872.41 331.75 5871.12 331.75C5870.3 331.75 5869.56 331.841 5868.88 332.022C5868.22 332.203 5867.61 332.441 5867.04 332.736C5866.5 333.031 5865.98 333.337 5865.48 333.654L5863.54 330.832C5864.15 330.379 5864.84 329.971 5865.61 329.608C5866.38 329.223 5867.23 328.928 5868.16 328.724C5869.11 328.497 5870.16 328.384 5871.29 328.384C5873.81 328.384 5875.73 328.917 5877.07 329.982C5878.43 331.047 5879.11 332.475 5879.11 334.266Z" fill="#2D548B" id="n457"/>
<path d="M5838.03 460V451.789H5839.43V458.804H5842.9V460H5838.03ZM5846.63 453.664C5847.44 453.664 5848.04 453.836 5848.45 454.181C5848.86 454.526 5849.06 455.07 5849.06 455.814V460H5848.08L5847.81 459.137H5847.76C5847.58 459.36 5847.4 459.548 5847.21 459.701C5847.02 459.847 5846.81 459.95 5846.56 460.012C5846.33 460.081 5846.03 460.115 5845.69 460.115C5845.32 460.115 5844.99 460.046 5844.69 459.908C5844.4 459.77 5844.17 459.559 5844 459.275C5843.83 458.992 5843.75 458.635 5843.75 458.206C5843.75 457.562 5843.98 457.079 5844.46 456.757C5844.93 456.427 5845.66 456.247 5846.62 456.216L5847.69 456.182V455.86C5847.69 455.446 5847.59 455.151 5847.39 454.974C5847.2 454.798 5846.93 454.71 5846.58 454.71C5846.26 454.71 5845.96 454.756 5845.67 454.848C5845.38 454.94 5845.09 455.051 5844.82 455.181L5844.38 454.204C5844.68 454.043 5845.02 453.913 5845.41 453.813C5845.8 453.713 5846.21 453.664 5846.63 453.664ZM5846.91 457.067C5846.25 457.09 5845.79 457.202 5845.54 457.401C5845.29 457.6 5845.16 457.872 5845.16 458.217C5845.16 458.516 5845.25 458.735 5845.44 458.873C5845.62 459.003 5845.85 459.068 5846.14 459.068C5846.58 459.068 5846.94 458.946 5847.24 458.7C5847.54 458.447 5847.69 458.072 5847.69 457.573V457.045L5846.91 457.067ZM5852.27 453.341C5852.27 453.587 5852.26 453.824 5852.24 454.054C5852.24 454.284 5852.23 454.465 5852.21 454.595H5852.27C5852.44 454.334 5852.68 454.116 5852.97 453.939C5853.27 453.755 5853.65 453.664 5854.12 453.664C5854.85 453.664 5855.44 453.936 5855.89 454.48C5856.34 455.017 5856.57 455.818 5856.57 456.883C5856.57 457.589 5856.47 458.183 5856.26 458.666C5856.05 459.149 5855.76 459.513 5855.38 459.758C5855.02 459.996 5854.58 460.115 5854.08 460.115C5853.62 460.115 5853.24 460.031 5852.96 459.862C5852.67 459.693 5852.44 459.494 5852.27 459.264H5852.18L5851.92 460H5850.89V451.26H5852.27V453.341ZM5853.74 454.779C5853.38 454.779 5853.09 454.852 5852.88 454.997C5852.66 455.143 5852.51 455.362 5852.42 455.653C5852.33 455.944 5852.28 456.316 5852.27 456.768V456.883C5852.27 457.558 5852.37 458.079 5852.59 458.447C5852.8 458.808 5853.2 458.988 5853.76 458.988C5854.21 458.988 5854.56 458.808 5854.8 458.447C5855.04 458.079 5855.15 457.55 5855.15 456.86C5855.15 456.17 5855.03 455.653 5854.79 455.308C5854.55 454.955 5854.2 454.779 5853.74 454.779ZM5860.56 453.664C5861.11 453.664 5861.59 453.778 5861.99 454.008C5862.39 454.231 5862.7 454.553 5862.92 454.974C5863.13 455.388 5863.24 455.891 5863.24 456.481V457.205H5859.11C5859.13 457.788 5859.29 458.24 5859.59 458.562C5859.9 458.877 5860.33 459.034 5860.87 459.034C5861.27 459.034 5861.62 458.996 5861.94 458.919C5862.26 458.842 5862.59 458.727 5862.93 458.574V459.689C5862.61 459.835 5862.29 459.942 5861.96 460.012C5861.64 460.081 5861.25 460.115 5860.8 460.115C5860.2 460.115 5859.66 460 5859.19 459.77C5858.72 459.532 5858.36 459.176 5858.1 458.7C5857.84 458.225 5857.71 457.635 5857.71 456.929C5857.71 456.224 5857.83 455.63 5858.06 455.147C5858.3 454.664 5858.63 454.296 5859.06 454.043C5859.49 453.79 5859.99 453.664 5860.56 453.664ZM5860.56 454.698C5860.15 454.698 5859.83 454.829 5859.58 455.089C5859.34 455.342 5859.19 455.722 5859.14 456.228H5861.89C5861.89 455.921 5861.84 455.657 5861.74 455.434C5861.65 455.204 5861.51 455.024 5861.31 454.894C5861.12 454.764 5860.87 454.698 5860.56 454.698ZM5866.09 460H5864.71V451.26H5866.09V460Z" fill="#535353" id="n458"/>
<path d="M5847.53 469.847V476H5846.79L5846.65 475.114H5846.62C5846.49 475.329 5846.32 475.513 5846.11 475.666C5845.91 475.812 5845.69 475.923 5845.43 476C5845.18 476.077 5844.91 476.115 5844.62 476.115C5844.13 476.115 5843.73 476.038 5843.4 475.885C5843.07 475.724 5842.82 475.479 5842.65 475.149C5842.48 474.819 5842.4 474.394 5842.4 473.872V469.847H5843.32V473.815C5843.32 474.329 5843.43 474.716 5843.66 474.976C5843.9 475.229 5844.26 475.356 5844.74 475.356C5845.2 475.356 5845.57 475.272 5845.84 475.103C5846.11 474.927 5846.31 474.67 5846.43 474.332C5846.56 473.995 5846.63 473.585 5846.63 473.102V469.847H5847.53ZM5852.41 469.732C5853.13 469.732 5853.67 469.913 5854.05 470.273C5854.43 470.626 5854.61 471.197 5854.61 471.986V476H5853.72V472.055C5853.72 471.526 5853.6 471.135 5853.36 470.882C5853.12 470.629 5852.76 470.503 5852.28 470.503C5851.6 470.503 5851.11 470.695 5850.83 471.078C5850.55 471.461 5850.4 472.021 5850.4 472.757V476H5849.51V469.847H5850.23L5850.37 470.756H5850.42C5850.55 470.534 5850.72 470.35 5850.92 470.204C5851.12 470.051 5851.35 469.936 5851.6 469.859C5851.85 469.775 5852.12 469.732 5852.41 469.732ZM5857.43 469.847V476H5856.54V469.847H5857.43ZM5857 467.547C5857.15 467.547 5857.28 467.597 5857.38 467.697C5857.48 467.797 5857.54 467.95 5857.54 468.157C5857.54 468.349 5857.48 468.498 5857.38 468.605C5857.28 468.705 5857.15 468.755 5857 468.755C5856.84 468.755 5856.7 468.705 5856.6 468.605C5856.5 468.498 5856.45 468.349 5856.45 468.157C5856.45 467.95 5856.5 467.797 5856.6 467.697C5856.7 467.597 5856.84 467.547 5857 467.547ZM5861.37 475.367C5861.53 475.367 5861.69 475.356 5861.84 475.333C5862 475.302 5862.13 475.272 5862.24 475.241V475.931C5862.13 475.985 5861.97 476.027 5861.78 476.058C5861.6 476.096 5861.41 476.115 5861.22 476.115C5860.9 476.115 5860.6 476.058 5860.34 475.942C5860.08 475.827 5859.87 475.636 5859.71 475.367C5859.56 475.091 5859.48 474.712 5859.48 474.229V470.56H5858.6V470.112L5859.49 469.767L5859.84 468.421H5860.39V469.847H5862.2V470.56H5860.39V474.206C5860.39 474.597 5860.47 474.888 5860.64 475.08C5860.82 475.272 5861.06 475.367 5861.37 475.367Z" fill="#535353" id="n459"/>
<path d="M5565.22 784H5561.14V768.564C5561.14 768.043 5561.14 767.533 5561.14 767.034C5561.16 766.513 5561.18 766.003 5561.21 765.504C5561.23 764.983 5561.25 764.495 5561.27 764.042C5561.05 764.291 5560.76 764.575 5560.42 764.892C5560.08 765.187 5559.73 765.493 5559.37 765.81L5556.65 767.986L5554.61 765.402L5561.85 759.724H5565.22V784ZM5589.11 784H5572.58V780.94L5578.8 774.65C5580.03 773.403 5581.03 772.338 5581.8 771.454C5582.59 770.547 5583.18 769.697 5583.56 768.904C5583.95 768.111 5584.14 767.238 5584.14 766.286C5584.14 765.153 5583.81 764.303 5583.16 763.736C5582.5 763.147 5581.64 762.852 5580.57 762.852C5579.51 762.852 5578.53 763.067 5577.65 763.498C5576.76 763.906 5575.85 764.484 5574.89 765.232L5572.68 762.546C5573.34 761.979 5574.06 761.458 5574.83 760.982C5575.6 760.506 5576.46 760.121 5577.41 759.826C5578.38 759.531 5579.5 759.384 5580.74 759.384C5582.31 759.384 5583.64 759.667 5584.75 760.234C5585.89 760.778 5586.76 761.537 5587.37 762.512C5587.98 763.487 5588.29 764.62 5588.29 765.912C5588.29 766.887 5588.13 767.805 5587.81 768.666C5587.52 769.527 5587.09 770.366 5586.52 771.182C5585.98 771.975 5585.3 772.803 5584.48 773.664C5583.67 774.503 5582.76 775.398 5581.76 776.35L5577.72 780.26V780.43H5589.11V784ZM5607.11 765.266C5607.11 766.377 5606.9 767.34 5606.46 768.156C5606.03 768.949 5605.43 769.607 5604.66 770.128C5603.89 770.627 5603 770.989 5601.98 771.216V771.318C5603.93 771.545 5605.39 772.145 5606.36 773.12C5607.36 774.095 5607.86 775.387 5607.86 776.996C5607.86 778.401 5607.52 779.659 5606.84 780.77C5606.16 781.881 5605.12 782.753 5603.71 783.388C5602.31 784.023 5600.5 784.34 5598.3 784.34C5596.99 784.34 5595.77 784.227 5594.63 784C5593.52 783.796 5592.46 783.467 5591.44 783.014V779.41C5592.48 779.909 5593.58 780.305 5594.73 780.6C5595.89 780.872 5596.99 781.008 5598.03 781.008C5600.03 781.008 5601.44 780.645 5602.28 779.92C5603.12 779.172 5603.54 778.141 5603.54 776.826C5603.54 775.987 5603.33 775.296 5602.89 774.752C5602.46 774.208 5601.78 773.811 5600.85 773.562C5599.93 773.29 5598.72 773.154 5597.25 773.154H5595.18V769.856H5597.28C5598.71 769.856 5599.83 769.697 5600.65 769.38C5601.49 769.04 5602.09 768.575 5602.45 767.986C5602.84 767.397 5603.03 766.717 5603.03 765.946C5603.03 764.949 5602.7 764.167 5602.04 763.6C5601.39 763.033 5600.41 762.75 5599.12 762.75C5598.3 762.75 5597.56 762.841 5596.88 763.022C5596.22 763.203 5595.61 763.441 5595.04 763.736C5594.5 764.031 5593.98 764.337 5593.48 764.654L5591.54 761.832C5592.15 761.379 5592.84 760.971 5593.61 760.608C5594.38 760.223 5595.23 759.928 5596.16 759.724C5597.11 759.497 5598.16 759.384 5599.29 759.384C5601.81 759.384 5603.73 759.917 5605.07 760.982C5606.43 762.047 5607.11 763.475 5607.11 765.266Z" fill="#535353" id="n460"/>
<path d="M5566.53 807V798.789H5567.93V805.804H5571.4V807H5566.53ZM5575.13 800.664C5575.94 800.664 5576.54 800.836 5576.95 801.181C5577.36 801.526 5577.56 802.07 5577.56 802.814V807H5576.58L5576.31 806.137H5576.26C5576.08 806.36 5575.9 806.548 5575.71 806.701C5575.52 806.847 5575.31 806.95 5575.06 807.012C5574.83 807.081 5574.53 807.115 5574.19 807.115C5573.82 807.115 5573.49 807.046 5573.19 806.908C5572.9 806.77 5572.67 806.559 5572.5 806.275C5572.33 805.992 5572.25 805.635 5572.25 805.206C5572.25 804.562 5572.48 804.079 5572.96 803.757C5573.43 803.427 5574.16 803.247 5575.12 803.216L5576.19 803.182V802.86C5576.19 802.446 5576.09 802.151 5575.89 801.974C5575.7 801.798 5575.43 801.71 5575.08 801.71C5574.76 801.71 5574.46 801.756 5574.17 801.848C5573.88 801.94 5573.59 802.051 5573.32 802.181L5572.88 801.204C5573.18 801.043 5573.52 800.913 5573.91 800.813C5574.3 800.713 5574.71 800.664 5575.13 800.664ZM5575.41 804.067C5574.75 804.09 5574.29 804.202 5574.04 804.401C5573.79 804.6 5573.66 804.872 5573.66 805.217C5573.66 805.516 5573.75 805.735 5573.94 805.873C5574.12 806.003 5574.35 806.068 5574.64 806.068C5575.08 806.068 5575.44 805.946 5575.74 805.7C5576.04 805.447 5576.19 805.072 5576.19 804.573V804.045L5575.41 804.067ZM5580.77 800.341C5580.77 800.587 5580.76 800.824 5580.74 801.054C5580.74 801.284 5580.73 801.465 5580.71 801.595H5580.77C5580.94 801.334 5581.18 801.116 5581.47 800.939C5581.77 800.755 5582.15 800.664 5582.62 800.664C5583.35 800.664 5583.94 800.936 5584.39 801.48C5584.84 802.017 5585.07 802.818 5585.07 803.883C5585.07 804.589 5584.97 805.183 5584.76 805.666C5584.55 806.149 5584.26 806.513 5583.88 806.758C5583.52 806.996 5583.08 807.115 5582.58 807.115C5582.12 807.115 5581.74 807.031 5581.46 806.862C5581.17 806.693 5580.94 806.494 5580.77 806.264H5580.68L5580.42 807H5579.39V798.26H5580.77V800.341ZM5582.24 801.779C5581.88 801.779 5581.59 801.852 5581.38 801.997C5581.16 802.143 5581.01 802.362 5580.92 802.653C5580.83 802.944 5580.78 803.316 5580.77 803.768V803.883C5580.77 804.558 5580.87 805.079 5581.09 805.447C5581.3 805.808 5581.7 805.988 5582.26 805.988C5582.71 805.988 5583.06 805.808 5583.3 805.447C5583.54 805.079 5583.65 804.55 5583.65 803.86C5583.65 803.17 5583.53 802.653 5583.29 802.308C5583.05 801.955 5582.7 801.779 5582.24 801.779ZM5589.06 800.664C5589.61 800.664 5590.09 800.778 5590.49 801.008C5590.89 801.231 5591.2 801.553 5591.42 801.974C5591.63 802.388 5591.74 802.891 5591.74 803.481V804.205H5587.61C5587.63 804.788 5587.79 805.24 5588.09 805.562C5588.4 805.877 5588.83 806.034 5589.37 806.034C5589.77 806.034 5590.12 805.996 5590.44 805.919C5590.76 805.842 5591.09 805.727 5591.43 805.574V806.689C5591.11 806.835 5590.79 806.942 5590.46 807.012C5590.14 807.081 5589.75 807.115 5589.3 807.115C5588.7 807.115 5588.16 807 5587.69 806.77C5587.22 806.532 5586.86 806.176 5586.6 805.7C5586.34 805.225 5586.21 804.635 5586.21 803.929C5586.21 803.224 5586.33 802.63 5586.56 802.147C5586.8 801.664 5587.13 801.296 5587.56 801.043C5587.99 800.79 5588.49 800.664 5589.06 800.664ZM5589.06 801.698C5588.65 801.698 5588.33 801.829 5588.08 802.089C5587.84 802.342 5587.69 802.722 5587.64 803.228H5590.39C5590.39 802.921 5590.34 802.657 5590.24 802.434C5590.15 802.204 5590.01 802.024 5589.81 801.894C5589.62 801.764 5589.37 801.698 5589.06 801.698ZM5594.59 807H5593.21V798.26H5594.59V807Z" fill="#535353" id="n461"/>
<path d="M5575.53 816.847V823H5574.79L5574.65 822.114H5574.62C5574.49 822.329 5574.32 822.513 5574.11 822.666C5573.91 822.812 5573.69 822.923 5573.43 823C5573.18 823.077 5572.91 823.115 5572.62 823.115C5572.13 823.115 5571.73 823.038 5571.4 822.885C5571.07 822.724 5570.82 822.479 5570.65 822.149C5570.48 821.819 5570.4 821.394 5570.4 820.872V816.847H5571.32V820.815C5571.32 821.329 5571.43 821.716 5571.66 821.976C5571.9 822.229 5572.26 822.356 5572.74 822.356C5573.2 822.356 5573.57 822.272 5573.84 822.103C5574.11 821.927 5574.31 821.67 5574.43 821.332C5574.56 820.995 5574.63 820.585 5574.63 820.102V816.847H5575.53ZM5580.41 816.732C5581.13 816.732 5581.67 816.913 5582.05 817.273C5582.43 817.626 5582.61 818.197 5582.61 818.986V823H5581.72V819.055C5581.72 818.526 5581.6 818.135 5581.36 817.882C5581.12 817.629 5580.76 817.503 5580.28 817.503C5579.6 817.503 5579.11 817.695 5578.83 818.078C5578.55 818.461 5578.4 819.021 5578.4 819.757V823H5577.51V816.847H5578.23L5578.37 817.756H5578.42C5578.55 817.534 5578.72 817.35 5578.92 817.204C5579.12 817.051 5579.35 816.936 5579.6 816.859C5579.85 816.775 5580.12 816.732 5580.41 816.732ZM5585.43 816.847V823H5584.54V816.847H5585.43ZM5585 814.547C5585.15 814.547 5585.28 814.597 5585.38 814.697C5585.48 814.797 5585.54 814.95 5585.54 815.157C5585.54 815.349 5585.48 815.498 5585.38 815.605C5585.28 815.705 5585.15 815.755 5585 815.755C5584.84 815.755 5584.7 815.705 5584.6 815.605C5584.5 815.498 5584.45 815.349 5584.45 815.157C5584.45 814.95 5584.5 814.797 5584.6 814.697C5584.7 814.597 5584.84 814.547 5585 814.547ZM5589.37 822.367C5589.53 822.367 5589.69 822.356 5589.84 822.333C5590 822.302 5590.13 822.272 5590.24 822.241V822.931C5590.13 822.985 5589.97 823.027 5589.78 823.058C5589.6 823.096 5589.41 823.115 5589.22 823.115C5588.9 823.115 5588.6 823.058 5588.34 822.942C5588.08 822.827 5587.87 822.636 5587.71 822.367C5587.56 822.091 5587.48 821.712 5587.48 821.229V817.56H5586.6V817.112L5587.49 816.767L5587.84 815.421H5588.39V816.847H5590.2V817.56H5588.39V821.206C5588.39 821.597 5588.47 821.888 5588.64 822.08C5588.82 822.272 5589.06 822.367 5589.37 822.367Z" fill="#535353" id="n462"/>
<path d="M5837.22 784H5833.14V768.564C5833.14 768.043 5833.14 767.533 5833.14 767.034C5833.16 766.513 5833.18 766.003 5833.21 765.504C5833.23 764.983 5833.25 764.495 5833.27 764.042C5833.05 764.291 5832.76 764.575 5832.42 764.892C5832.08 765.187 5831.73 765.493 5831.37 765.81L5828.65 767.986L5826.61 765.402L5833.85 759.724H5837.22V784ZM5861.11 784H5844.58V780.94L5850.8 774.65C5852.03 773.403 5853.03 772.338 5853.8 771.454C5854.59 770.547 5855.18 769.697 5855.56 768.904C5855.95 768.111 5856.14 767.238 5856.14 766.286C5856.14 765.153 5855.81 764.303 5855.16 763.736C5854.5 763.147 5853.64 762.852 5852.57 762.852C5851.51 762.852 5850.53 763.067 5849.65 763.498C5848.76 763.906 5847.85 764.484 5846.89 765.232L5844.68 762.546C5845.34 761.979 5846.06 761.458 5846.83 760.982C5847.6 760.506 5848.46 760.121 5849.41 759.826C5850.38 759.531 5851.5 759.384 5852.74 759.384C5854.31 759.384 5855.64 759.667 5856.75 760.234C5857.89 760.778 5858.76 761.537 5859.37 762.512C5859.98 763.487 5860.29 764.62 5860.29 765.912C5860.29 766.887 5860.13 767.805 5859.81 768.666C5859.52 769.527 5859.09 770.366 5858.52 771.182C5857.98 771.975 5857.3 772.803 5856.48 773.664C5855.67 774.503 5854.76 775.398 5853.76 776.35L5849.72 780.26V780.43H5861.11V784ZM5879.11 765.266C5879.11 766.377 5878.9 767.34 5878.46 768.156C5878.03 768.949 5877.43 769.607 5876.66 770.128C5875.89 770.627 5875 770.989 5873.98 771.216V771.318C5875.93 771.545 5877.39 772.145 5878.36 773.12C5879.36 774.095 5879.86 775.387 5879.86 776.996C5879.86 778.401 5879.52 779.659 5878.84 780.77C5878.16 781.881 5877.12 782.753 5875.71 783.388C5874.31 784.023 5872.5 784.34 5870.3 784.34C5868.99 784.34 5867.77 784.227 5866.63 784C5865.52 783.796 5864.46 783.467 5863.44 783.014V779.41C5864.48 779.909 5865.58 780.305 5866.73 780.6C5867.89 780.872 5868.99 781.008 5870.03 781.008C5872.03 781.008 5873.44 780.645 5874.28 779.92C5875.12 779.172 5875.54 778.141 5875.54 776.826C5875.54 775.987 5875.33 775.296 5874.89 774.752C5874.46 774.208 5873.78 773.811 5872.85 773.562C5871.93 773.29 5870.72 773.154 5869.25 773.154H5867.18V769.856H5869.28C5870.71 769.856 5871.83 769.697 5872.65 769.38C5873.49 769.04 5874.09 768.575 5874.45 767.986C5874.84 767.397 5875.03 766.717 5875.03 765.946C5875.03 764.949 5874.7 764.167 5874.04 763.6C5873.39 763.033 5872.41 762.75 5871.12 762.75C5870.3 762.75 5869.56 762.841 5868.88 763.022C5868.22 763.203 5867.61 763.441 5867.04 763.736C5866.5 764.031 5865.98 764.337 5865.48 764.654L5863.54 761.832C5864.15 761.379 5864.84 760.971 5865.61 760.608C5866.38 760.223 5867.23 759.928 5868.16 759.724C5869.11 759.497 5870.16 759.384 5871.29 759.384C5873.81 759.384 5875.73 759.917 5877.07 760.982C5878.43 762.047 5879.11 763.475 5879.11 765.266Z" fill="#2D548B" id="n463"/>
<path d="M5838.53 807V798.789H5839.93V805.804H5843.4V807H5838.53ZM5847.13 800.664C5847.94 800.664 5848.54 800.836 5848.95 801.181C5849.36 801.526 5849.56 802.07 5849.56 802.814V807H5848.58L5848.31 806.137H5848.26C5848.08 806.36 5847.9 806.548 5847.71 806.701C5847.52 806.847 5847.31 806.95 5847.06 807.012C5846.83 807.081 5846.53 807.115 5846.19 807.115C5845.82 807.115 5845.49 807.046 5845.19 806.908C5844.9 806.77 5844.67 806.559 5844.5 806.275C5844.33 805.992 5844.25 805.635 5844.25 805.206C5844.25 804.562 5844.48 804.079 5844.96 803.757C5845.43 803.427 5846.16 803.247 5847.12 803.216L5848.19 803.182V802.86C5848.19 802.446 5848.09 802.151 5847.89 801.974C5847.7 801.798 5847.43 801.71 5847.08 801.71C5846.76 801.71 5846.46 801.756 5846.17 801.848C5845.88 801.94 5845.59 802.051 5845.32 802.181L5844.88 801.204C5845.18 801.043 5845.52 800.913 5845.91 800.813C5846.3 800.713 5846.71 800.664 5847.13 800.664ZM5847.41 804.067C5846.75 804.09 5846.29 804.202 5846.04 804.401C5845.79 804.6 5845.66 804.872 5845.66 805.217C5845.66 805.516 5845.75 805.735 5845.94 805.873C5846.12 806.003 5846.35 806.068 5846.64 806.068C5847.08 806.068 5847.44 805.946 5847.74 805.7C5848.04 805.447 5848.19 805.072 5848.19 804.573V804.045L5847.41 804.067ZM5852.77 800.341C5852.77 800.587 5852.76 800.824 5852.74 801.054C5852.74 801.284 5852.73 801.465 5852.71 801.595H5852.77C5852.94 801.334 5853.18 801.116 5853.47 800.939C5853.77 800.755 5854.15 800.664 5854.62 800.664C5855.35 800.664 5855.94 800.936 5856.39 801.48C5856.84 802.017 5857.07 802.818 5857.07 803.883C5857.07 804.589 5856.97 805.183 5856.76 805.666C5856.55 806.149 5856.26 806.513 5855.88 806.758C5855.52 806.996 5855.08 807.115 5854.58 807.115C5854.12 807.115 5853.74 807.031 5853.46 806.862C5853.17 806.693 5852.94 806.494 5852.77 806.264H5852.68L5852.42 807H5851.39V798.26H5852.77V800.341ZM5854.24 801.779C5853.88 801.779 5853.59 801.852 5853.38 801.997C5853.16 802.143 5853.01 802.362 5852.92 802.653C5852.83 802.944 5852.78 803.316 5852.77 803.768V803.883C5852.77 804.558 5852.87 805.079 5853.09 805.447C5853.3 805.808 5853.7 805.988 5854.26 805.988C5854.71 805.988 5855.06 805.808 5855.3 805.447C5855.54 805.079 5855.65 804.55 5855.65 803.86C5855.65 803.17 5855.53 802.653 5855.29 802.308C5855.05 801.955 5854.7 801.779 5854.24 801.779ZM5861.06 800.664C5861.61 800.664 5862.09 800.778 5862.49 801.008C5862.89 801.231 5863.2 801.553 5863.42 801.974C5863.63 802.388 5863.74 802.891 5863.74 803.481V804.205H5859.61C5859.63 804.788 5859.79 805.24 5860.09 805.562C5860.4 805.877 5860.83 806.034 5861.37 806.034C5861.77 806.034 5862.12 805.996 5862.44 805.919C5862.76 805.842 5863.09 805.727 5863.43 805.574V806.689C5863.11 806.835 5862.79 806.942 5862.46 807.012C5862.14 807.081 5861.75 807.115 5861.3 807.115C5860.7 807.115 5860.16 807 5859.69 806.77C5859.22 806.532 5858.86 806.176 5858.6 805.7C5858.34 805.225 5858.21 804.635 5858.21 803.929C5858.21 803.224 5858.33 802.63 5858.56 802.147C5858.8 801.664 5859.13 801.296 5859.56 801.043C5859.99 800.79 5860.49 800.664 5861.06 800.664ZM5861.06 801.698C5860.65 801.698 5860.33 801.829 5860.08 802.089C5859.84 802.342 5859.69 802.722 5859.64 803.228H5862.39C5862.39 802.921 5862.34 802.657 5862.24 802.434C5862.15 802.204 5862.01 802.024 5861.81 801.894C5861.62 801.764 5861.37 801.698 5861.06 801.698ZM5866.59 807H5865.21V798.26H5866.59V807Z" fill="#535353" id="n464"/>
<path d="M5847.53 816.847V823H5846.79L5846.65 822.114H5846.62C5846.49 822.329 5846.32 822.513 5846.11 822.666C5845.91 822.812 5845.69 822.923 5845.43 823C5845.18 823.077 5844.91 823.115 5844.62 823.115C5844.13 823.115 5843.73 823.038 5843.4 822.885C5843.07 822.724 5842.82 822.479 5842.65 822.149C5842.48 821.819 5842.4 821.394 5842.4 820.872V816.847H5843.32V820.815C5843.32 821.329 5843.43 821.716 5843.66 821.976C5843.9 822.229 5844.26 822.356 5844.74 822.356C5845.2 822.356 5845.57 822.272 5845.84 822.103C5846.11 821.927 5846.31 821.67 5846.43 821.332C5846.56 820.995 5846.63 820.585 5846.63 820.102V816.847H5847.53ZM5852.41 816.732C5853.13 816.732 5853.67 816.913 5854.05 817.273C5854.43 817.626 5854.61 818.197 5854.61 818.986V823H5853.72V819.055C5853.72 818.526 5853.6 818.135 5853.36 817.882C5853.12 817.629 5852.76 817.503 5852.28 817.503C5851.6 817.503 5851.11 817.695 5850.83 818.078C5850.55 818.461 5850.4 819.021 5850.4 819.757V823H5849.51V816.847H5850.23L5850.37 817.756H5850.42C5850.55 817.534 5850.72 817.35 5850.92 817.204C5851.12 817.051 5851.35 816.936 5851.6 816.859C5851.85 816.775 5852.12 816.732 5852.41 816.732ZM5857.43 816.847V823H5856.54V816.847H5857.43ZM5857 814.547C5857.15 814.547 5857.28 814.597 5857.38 814.697C5857.48 814.797 5857.54 814.95 5857.54 815.157C5857.54 815.349 5857.48 815.498 5857.38 815.605C5857.28 815.705 5857.15 815.755 5857 815.755C5856.84 815.755 5856.7 815.705 5856.6 815.605C5856.5 815.498 5856.45 815.349 5856.45 815.157C5856.45 814.95 5856.5 814.797 5856.6 814.697C5856.7 814.597 5856.84 814.547 5857 814.547ZM5861.37 822.367C5861.53 822.367 5861.69 822.356 5861.84 822.333C5862 822.302 5862.13 822.272 5862.24 822.241V822.931C5862.13 822.985 5861.97 823.027 5861.78 823.058C5861.6 823.096 5861.41 823.115 5861.22 823.115C5860.9 823.115 5860.6 823.058 5860.34 822.942C5860.08 822.827 5859.87 822.636 5859.71 822.367C5859.56 822.091 5859.48 821.712 5859.48 821.229V817.56H5858.6V817.112L5859.49 816.767L5859.84 815.421H5860.39V816.847H5862.2V817.56H5860.39V821.206C5860.39 821.597 5860.47 821.888 5860.64 822.08C5860.82 822.272 5861.06 822.367 5861.37 822.367Z" fill="#535353" id="n465"/>
<g clip-path="url(#clip116_68_6728)" id="n466">
<path d="M5549.09 1168H5545.01V1152.56C5545.01 1152.04 5545.01 1151.53 5545.01 1151.03C5545.03 1150.51 5545.06 1150 5545.08 1149.5C5545.1 1148.98 5545.12 1148.5 5545.15 1148.04C5544.92 1148.29 5544.64 1148.57 5544.3 1148.89C5543.96 1149.19 5543.6 1149.49 5543.24 1149.81L5540.52 1151.99L5538.48 1149.4L5545.72 1143.72H5549.09V1168ZM5572.98 1168H5556.45V1164.94L5562.68 1158.65C5563.9 1157.4 5564.9 1156.34 5565.67 1155.45C5566.46 1154.55 5567.05 1153.7 5567.44 1152.9C5567.82 1152.11 5568.01 1151.24 5568.01 1150.29C5568.01 1149.15 5567.68 1148.3 5567.03 1147.74C5566.37 1147.15 5565.51 1146.85 5564.44 1146.85C5563.38 1146.85 5562.4 1147.07 5561.52 1147.5C5560.64 1147.91 5559.72 1148.48 5558.77 1149.23L5556.56 1146.55C5557.21 1145.98 5557.93 1145.46 5558.7 1144.98C5559.47 1144.51 5560.33 1144.12 5561.28 1143.83C5562.26 1143.53 5563.37 1143.38 5564.61 1143.38C5566.18 1143.38 5567.51 1143.67 5568.63 1144.23C5569.76 1144.78 5570.63 1145.54 5571.24 1146.51C5571.86 1147.49 5572.16 1148.62 5572.16 1149.91C5572.16 1150.89 5572 1151.8 5571.69 1152.67C5571.39 1153.53 5570.96 1154.37 5570.39 1155.18C5569.85 1155.98 5569.17 1156.8 5568.35 1157.66C5567.54 1158.5 5566.63 1159.4 5565.63 1160.35L5561.59 1164.26V1164.43H5572.98V1168ZM5590.98 1149.27C5590.98 1150.38 5590.77 1151.34 5590.34 1152.16C5589.91 1152.95 5589.3 1153.61 5588.53 1154.13C5587.76 1154.63 5586.87 1154.99 5585.85 1155.22V1155.32C5587.8 1155.54 5589.26 1156.15 5590.23 1157.12C5591.23 1158.09 5591.73 1159.39 5591.73 1161C5591.73 1162.4 5591.39 1163.66 5590.71 1164.77C5590.03 1165.88 5588.99 1166.75 5587.58 1167.39C5586.18 1168.02 5584.37 1168.34 5582.18 1168.34C5580.86 1168.34 5579.64 1168.23 5578.5 1168C5577.39 1167.8 5576.33 1167.47 5575.31 1167.01V1163.41C5576.35 1163.91 5577.45 1164.31 5578.61 1164.6C5579.76 1164.87 5580.86 1165.01 5581.9 1165.01C5583.9 1165.01 5585.32 1164.65 5586.15 1163.92C5586.99 1163.17 5587.41 1162.14 5587.41 1160.83C5587.41 1159.99 5587.2 1159.3 5586.77 1158.75C5586.34 1158.21 5585.66 1157.81 5584.73 1157.56C5583.8 1157.29 5582.6 1157.15 5581.12 1157.15H5579.05V1153.86H5581.16C5582.58 1153.86 5583.71 1153.7 5584.52 1153.38C5585.36 1153.04 5585.96 1152.58 5586.32 1151.99C5586.71 1151.4 5586.9 1150.72 5586.9 1149.95C5586.9 1148.95 5586.57 1148.17 5585.92 1147.6C5585.26 1147.03 5584.28 1146.75 5582.99 1146.75C5582.18 1146.75 5581.43 1146.84 5580.75 1147.02C5580.09 1147.2 5579.48 1147.44 5578.91 1147.74C5578.37 1148.03 5577.85 1148.34 5577.35 1148.65L5575.41 1145.83C5576.02 1145.38 5576.71 1144.97 5577.48 1144.61C5578.25 1144.22 5579.1 1143.93 5580.03 1143.72C5580.99 1143.5 5582.03 1143.38 5583.16 1143.38C5585.68 1143.38 5587.6 1143.92 5588.94 1144.98C5590.3 1146.05 5590.98 1147.48 5590.98 1149.27Z" fill="#535353" id="n467"/>
</g>
<g clip-path="url(#clip117_68_6728)" id="n468">
<path d="M5605.59 1152H5604.19V1148.32H5600.47V1152H5599.07V1143.79H5600.47V1147.12H5604.19V1143.79H5605.59V1152ZM5614.44 1147.81C5614.44 1148.73 5614.27 1149.5 5613.91 1150.13C5613.57 1150.75 5613.07 1151.21 5612.42 1151.53C5611.77 1151.84 5610.98 1152 5610.05 1152H5607.74V1143.79H5610.29C5611.14 1143.79 5611.88 1143.94 5612.49 1144.25C5613.11 1144.56 5613.59 1145.01 5613.93 1145.61C5614.27 1146.2 5614.44 1146.93 5614.44 1147.81ZM5612.97 1147.86C5612.97 1147.19 5612.87 1146.64 5612.66 1146.22C5612.45 1145.79 5612.15 1145.47 5611.74 1145.27C5611.34 1145.07 5610.85 1144.96 5610.27 1144.96H5609.14V1150.83H5610.07C5611.05 1150.83 5611.77 1150.58 5612.25 1150.08C5612.73 1149.58 5612.97 1148.84 5612.97 1147.86ZM5619.53 1147.51H5622.59V1151.67C5622.15 1151.81 5621.7 1151.92 5621.24 1152C5620.78 1152.08 5620.26 1152.12 5619.68 1152.12C5618.85 1152.12 5618.15 1151.95 5617.56 1151.62C5616.99 1151.29 5616.55 1150.81 5616.25 1150.18C5615.95 1149.55 5615.8 1148.78 5615.8 1147.88C5615.8 1147.02 5615.97 1146.28 5616.31 1145.65C5616.65 1145.02 5617.13 1144.54 5617.76 1144.19C5618.4 1143.85 5619.17 1143.67 5620.08 1143.67C5620.53 1143.67 5620.96 1143.72 5621.37 1143.81C5621.79 1143.9 5622.18 1144.02 5622.52 1144.17L5622.04 1145.33C5621.77 1145.2 5621.46 1145.09 5621.12 1145.01C5620.77 1144.92 5620.42 1144.87 5620.05 1144.87C5619.47 1144.87 5618.98 1144.99 5618.55 1145.24C5618.14 1145.48 5617.82 1145.84 5617.6 1146.3C5617.38 1146.75 5617.27 1147.28 5617.27 1147.91C5617.27 1148.5 5617.35 1149.02 5617.53 1149.48C5617.71 1149.93 5617.98 1150.29 5618.36 1150.55C5618.74 1150.8 5619.24 1150.93 5619.85 1150.93C5620.06 1150.93 5620.24 1150.92 5620.39 1150.91C5620.55 1150.89 5620.7 1150.87 5620.83 1150.85C5620.96 1150.82 5621.08 1150.79 5621.2 1150.77V1148.72H5619.53V1147.51Z" fill="#535353" id="n469"/>
</g>
<g clip-path="url(#clip118_68_6728)" id="n470">
<path d="M5605.62 1163.81C5605.62 1164.73 5605.46 1165.5 5605.12 1166.13C5604.78 1166.75 5604.29 1167.21 5603.66 1167.53C5603.02 1167.84 5602.25 1168 5601.34 1168H5599.13V1159.79H5601.58C5602.42 1159.79 5603.14 1159.94 5603.74 1160.25C5604.34 1160.56 5604.81 1161.01 5605.13 1161.61C5605.46 1162.2 5605.62 1162.93 5605.62 1163.81ZM5604.65 1163.85C5604.65 1163.1 5604.52 1162.5 5604.28 1162.02C5604.03 1161.54 5603.67 1161.18 5603.19 1160.94C5602.71 1160.7 5602.13 1160.58 5601.44 1160.58H5600.05V1167.21H5601.22C5602.36 1167.21 5603.22 1166.93 5603.78 1166.37C5604.36 1165.8 5604.65 1164.96 5604.65 1163.85ZM5612.01 1168H5607.45V1159.79H5612.01V1160.61H5608.37V1163.3H5611.8V1164.1H5608.37V1167.18H5612.01V1168ZM5617.31 1163.71H5620.2V1167.68C5619.76 1167.82 5619.32 1167.93 5618.86 1168C5618.42 1168.08 5617.92 1168.12 5617.36 1168.12C5616.51 1168.12 5615.79 1167.95 5615.2 1167.61C5614.61 1167.27 5614.17 1166.79 5613.86 1166.16C5613.56 1165.52 5613.4 1164.77 5613.4 1163.89C5613.4 1163.04 5613.57 1162.3 5613.91 1161.67C5614.25 1161.05 5614.73 1160.56 5615.36 1160.2C5615.99 1159.85 5616.76 1159.67 5617.65 1159.67C5618.1 1159.67 5618.53 1159.72 5618.93 1159.8C5619.35 1159.88 5619.73 1160 5620.08 1160.16L5619.73 1160.96C5619.42 1160.82 5619.08 1160.71 5618.72 1160.63C5618.35 1160.54 5617.98 1160.49 5617.6 1160.49C5616.93 1160.49 5616.35 1160.63 5615.86 1160.92C5615.38 1161.19 5615.01 1161.59 5614.75 1162.1C5614.49 1162.61 5614.37 1163.2 5614.37 1163.89C5614.37 1164.59 5614.48 1165.2 5614.7 1165.71C5614.93 1166.22 5615.28 1166.61 5615.75 1166.9C5616.22 1167.17 5616.83 1167.31 5617.57 1167.31C5617.82 1167.31 5618.04 1167.3 5618.24 1167.29C5618.44 1167.26 5618.63 1167.23 5618.8 1167.19C5618.96 1167.16 5619.12 1167.12 5619.27 1167.08V1164.54H5617.31V1163.71Z" fill="#535353" id="n471"/>
</g>
<g clip-path="url(#clip119_68_6728)" id="n472">
<path d="M5821.09 1168H5817.01V1152.56C5817.01 1152.04 5817.01 1151.53 5817.01 1151.03C5817.03 1150.51 5817.06 1150 5817.08 1149.5C5817.1 1148.98 5817.12 1148.5 5817.15 1148.04C5816.92 1148.29 5816.64 1148.57 5816.3 1148.89C5815.96 1149.19 5815.6 1149.49 5815.24 1149.81L5812.52 1151.99L5810.48 1149.4L5817.72 1143.72H5821.09V1168ZM5844.98 1168H5828.45V1164.94L5834.68 1158.65C5835.9 1157.4 5836.9 1156.34 5837.67 1155.45C5838.46 1154.55 5839.05 1153.7 5839.44 1152.9C5839.82 1152.11 5840.01 1151.24 5840.01 1150.29C5840.01 1149.15 5839.68 1148.3 5839.03 1147.74C5838.37 1147.15 5837.51 1146.85 5836.44 1146.85C5835.38 1146.85 5834.4 1147.07 5833.52 1147.5C5832.64 1147.91 5831.72 1148.48 5830.77 1149.23L5828.56 1146.55C5829.21 1145.98 5829.93 1145.46 5830.7 1144.98C5831.47 1144.51 5832.33 1144.12 5833.28 1143.83C5834.26 1143.53 5835.37 1143.38 5836.61 1143.38C5838.18 1143.38 5839.51 1143.67 5840.63 1144.23C5841.76 1144.78 5842.63 1145.54 5843.24 1146.51C5843.86 1147.49 5844.16 1148.62 5844.16 1149.91C5844.16 1150.89 5844 1151.8 5843.69 1152.67C5843.39 1153.53 5842.96 1154.37 5842.39 1155.18C5841.85 1155.98 5841.17 1156.8 5840.35 1157.66C5839.54 1158.5 5838.63 1159.4 5837.63 1160.35L5833.59 1164.26V1164.43H5844.98V1168ZM5862.98 1149.27C5862.98 1150.38 5862.77 1151.34 5862.34 1152.16C5861.91 1152.95 5861.3 1153.61 5860.53 1154.13C5859.76 1154.63 5858.87 1154.99 5857.85 1155.22V1155.32C5859.8 1155.54 5861.26 1156.15 5862.23 1157.12C5863.23 1158.09 5863.73 1159.39 5863.73 1161C5863.73 1162.4 5863.39 1163.66 5862.71 1164.77C5862.03 1165.88 5860.99 1166.75 5859.58 1167.39C5858.18 1168.02 5856.37 1168.34 5854.18 1168.34C5852.86 1168.34 5851.64 1168.23 5850.5 1168C5849.39 1167.8 5848.33 1167.47 5847.31 1167.01V1163.41C5848.35 1163.91 5849.45 1164.31 5850.61 1164.6C5851.76 1164.87 5852.86 1165.01 5853.9 1165.01C5855.9 1165.01 5857.32 1164.65 5858.15 1163.92C5858.99 1163.17 5859.41 1162.14 5859.41 1160.83C5859.41 1159.99 5859.2 1159.3 5858.77 1158.75C5858.34 1158.21 5857.66 1157.81 5856.73 1157.56C5855.8 1157.29 5854.6 1157.15 5853.12 1157.15H5851.05V1153.86H5853.16C5854.58 1153.86 5855.71 1153.7 5856.52 1153.38C5857.36 1153.04 5857.96 1152.58 5858.32 1151.99C5858.71 1151.4 5858.9 1150.72 5858.9 1149.95C5858.9 1148.95 5858.57 1148.17 5857.92 1147.6C5857.26 1147.03 5856.28 1146.75 5854.99 1146.75C5854.18 1146.75 5853.43 1146.84 5852.75 1147.02C5852.09 1147.2 5851.48 1147.44 5850.91 1147.74C5850.37 1148.03 5849.85 1148.34 5849.35 1148.65L5847.41 1145.83C5848.02 1145.38 5848.71 1144.97 5849.48 1144.61C5850.25 1144.22 5851.1 1143.93 5852.03 1143.72C5852.99 1143.5 5854.03 1143.38 5855.16 1143.38C5857.68 1143.38 5859.6 1143.92 5860.94 1144.98C5862.3 1146.05 5862.98 1147.48 5862.98 1149.27Z" fill="#2D548B" id="n473"/>
</g>
<g clip-path="url(#clip120_68_6728)" id="n474">
<path d="M5877.59 1152H5876.19V1148.32H5872.47V1152H5871.07V1143.79H5872.47V1147.12H5876.19V1143.79H5877.59V1152ZM5886.44 1147.81C5886.44 1148.73 5886.27 1149.5 5885.91 1150.13C5885.57 1150.75 5885.07 1151.21 5884.42 1151.53C5883.77 1151.84 5882.98 1152 5882.05 1152H5879.74V1143.79H5882.29C5883.14 1143.79 5883.88 1143.94 5884.49 1144.25C5885.11 1144.56 5885.59 1145.01 5885.93 1145.61C5886.27 1146.2 5886.44 1146.93 5886.44 1147.81ZM5884.97 1147.86C5884.97 1147.19 5884.87 1146.64 5884.66 1146.22C5884.45 1145.79 5884.15 1145.47 5883.74 1145.27C5883.34 1145.07 5882.85 1144.96 5882.27 1144.96H5881.14V1150.83H5882.07C5883.05 1150.83 5883.77 1150.58 5884.25 1150.08C5884.73 1149.58 5884.97 1148.84 5884.97 1147.86ZM5891.53 1147.51H5894.59V1151.67C5894.15 1151.81 5893.7 1151.92 5893.24 1152C5892.78 1152.08 5892.26 1152.12 5891.68 1152.12C5890.85 1152.12 5890.15 1151.95 5889.56 1151.62C5888.99 1151.29 5888.55 1150.81 5888.25 1150.18C5887.95 1149.55 5887.8 1148.78 5887.8 1147.88C5887.8 1147.02 5887.97 1146.28 5888.31 1145.65C5888.65 1145.02 5889.13 1144.54 5889.76 1144.19C5890.4 1143.85 5891.17 1143.67 5892.08 1143.67C5892.53 1143.67 5892.96 1143.72 5893.37 1143.81C5893.79 1143.9 5894.18 1144.02 5894.52 1144.17L5894.04 1145.33C5893.77 1145.2 5893.46 1145.09 5893.12 1145.01C5892.77 1144.92 5892.42 1144.87 5892.05 1144.87C5891.47 1144.87 5890.98 1144.99 5890.55 1145.24C5890.14 1145.48 5889.82 1145.84 5889.6 1146.3C5889.38 1146.75 5889.27 1147.28 5889.27 1147.91C5889.27 1148.5 5889.35 1149.02 5889.53 1149.48C5889.71 1149.93 5889.98 1150.29 5890.36 1150.55C5890.74 1150.8 5891.24 1150.93 5891.85 1150.93C5892.06 1150.93 5892.24 1150.92 5892.39 1150.91C5892.55 1150.89 5892.7 1150.87 5892.83 1150.85C5892.96 1150.82 5893.08 1150.79 5893.2 1150.77V1148.72H5891.53V1147.51Z" fill="#535353" id="n475"/>
</g>
<g clip-path="url(#clip121_68_6728)" id="n476">
<path d="M5877.62 1163.81C5877.62 1164.73 5877.46 1165.5 5877.12 1166.13C5876.78 1166.75 5876.29 1167.21 5875.66 1167.53C5875.02 1167.84 5874.25 1168 5873.34 1168H5871.13V1159.79H5873.58C5874.42 1159.79 5875.14 1159.94 5875.74 1160.25C5876.34 1160.56 5876.81 1161.01 5877.13 1161.61C5877.46 1162.2 5877.62 1162.93 5877.62 1163.81ZM5876.65 1163.85C5876.65 1163.1 5876.52 1162.5 5876.28 1162.02C5876.03 1161.54 5875.67 1161.18 5875.19 1160.94C5874.71 1160.7 5874.13 1160.58 5873.44 1160.58H5872.05V1167.21H5873.22C5874.36 1167.21 5875.22 1166.93 5875.78 1166.37C5876.36 1165.8 5876.65 1164.96 5876.65 1163.85ZM5884.01 1168H5879.45V1159.79H5884.01V1160.61H5880.37V1163.3H5883.8V1164.1H5880.37V1167.18H5884.01V1168ZM5889.31 1163.71H5892.2V1167.68C5891.76 1167.82 5891.32 1167.93 5890.86 1168C5890.42 1168.08 5889.92 1168.12 5889.36 1168.12C5888.51 1168.12 5887.79 1167.95 5887.2 1167.61C5886.61 1167.27 5886.17 1166.79 5885.86 1166.16C5885.56 1165.52 5885.4 1164.77 5885.4 1163.89C5885.4 1163.04 5885.57 1162.3 5885.91 1161.67C5886.25 1161.05 5886.73 1160.56 5887.36 1160.2C5887.99 1159.85 5888.76 1159.67 5889.65 1159.67C5890.1 1159.67 5890.53 1159.72 5890.93 1159.8C5891.35 1159.88 5891.73 1160 5892.08 1160.16L5891.73 1160.96C5891.42 1160.82 5891.08 1160.71 5890.72 1160.63C5890.35 1160.54 5889.98 1160.49 5889.6 1160.49C5888.93 1160.49 5888.35 1160.63 5887.86 1160.92C5887.38 1161.19 5887.01 1161.59 5886.75 1162.1C5886.49 1162.61 5886.37 1163.2 5886.37 1163.89C5886.37 1164.59 5886.48 1165.2 5886.7 1165.71C5886.93 1166.22 5887.28 1166.61 5887.75 1166.9C5888.22 1167.17 5888.83 1167.31 5889.57 1167.31C5889.82 1167.31 5890.04 1167.3 5890.24 1167.29C5890.44 1167.26 5890.63 1167.23 5890.8 1167.19C5890.96 1167.16 5891.12 1167.12 5891.27 1167.08V1164.54H5889.31V1163.71Z" fill="#535353" id="n477"/>
</g>
</g>
</svg>
