<?xml version='1.0' encoding='utf-8'?>
<svg xmlns="http://www.w3.org/2000/svg" xmlns:xlink="http://www.w3.org/1999/xlink" width="160.0" height="32.0" viewBox="0 0 160.0 32.0" fill="none">
  <defs><clipPath id="clip__asset"><rect x="0" y="0" width="160.0" height="32.0"/></clipPath><clipPath id="clip468_68_6728">
<rect width="31" height="16" fill="white" transform="translate(2660 1177)" id="n1820"/>
</clipPath>
<clipPath id="clip469_68_6728">
<rect width="23" height="16" fill="white" transform="translate(2695 1177)" id="n1821"/>
</clipPath>
<clipPath id="clip470_68_6728">
<rect width="37" height="24" fill="white" transform="translate(2767 1169)" id="n1822"/>
</clipPath>
<clipPath id="clip471_68_6728">
<rect width="8" height="24" fill="white" transform="translate(2804 1169)" id="n1823"/>
</clipPath>
</defs>
  <g clip-path="url(#clip__asset)" transform="translate(-2656.0 -1165.0)"><rect x="2656.5" y="1165.5" width="159" height="31" rx="3.5" fill="#FFD2CB" id="n1257"/>
<rect x="2656.5" y="1165.5" width="159" height="31" rx="3.5" stroke="#707070" id="n1258"/>
<g clip-path="url(#clip468_68_6728)" id="n1259">
<path d="M2661.07 1189V1180.79H2662.47V1187.8H2665.93V1189H2661.07ZM2669.67 1182.66C2670.48 1182.66 2671.08 1182.84 2671.49 1183.18C2671.89 1183.53 2672.1 1184.07 2672.1 1184.81V1189H2671.12L2670.84 1188.14H2670.8C2670.62 1188.36 2670.44 1188.55 2670.25 1188.7C2670.06 1188.85 2669.85 1188.95 2669.6 1189.01C2669.36 1189.08 2669.07 1189.12 2668.73 1189.12C2668.36 1189.12 2668.03 1189.05 2667.73 1188.91C2667.44 1188.77 2667.21 1188.56 2667.04 1188.28C2666.87 1187.99 2666.78 1187.64 2666.78 1187.21C2666.78 1186.56 2667.02 1186.08 2667.5 1185.76C2667.97 1185.43 2668.69 1185.25 2669.66 1185.22L2670.73 1185.18V1184.86C2670.73 1184.45 2670.63 1184.15 2670.43 1183.97C2670.24 1183.8 2669.97 1183.71 2669.61 1183.71C2669.3 1183.71 2669 1183.76 2668.7 1183.85C2668.41 1183.94 2668.13 1184.05 2667.85 1184.18L2667.42 1183.2C2667.72 1183.04 2668.06 1182.91 2668.45 1182.81C2668.84 1182.71 2669.25 1182.66 2669.67 1182.66ZM2669.95 1186.07C2669.29 1186.09 2668.83 1186.2 2668.58 1186.4C2668.32 1186.6 2668.2 1186.87 2668.2 1187.22C2668.2 1187.52 2668.29 1187.73 2668.47 1187.87C2668.66 1188 2668.89 1188.07 2669.18 1188.07C2669.61 1188.07 2669.98 1187.95 2670.28 1187.7C2670.58 1187.45 2670.73 1187.07 2670.73 1186.57V1186.04L2669.95 1186.07ZM2675.31 1182.34C2675.31 1182.59 2675.3 1182.82 2675.28 1183.05C2675.27 1183.28 2675.26 1183.46 2675.25 1183.59H2675.31C2675.48 1183.33 2675.72 1183.12 2676.01 1182.94C2676.31 1182.76 2676.69 1182.66 2677.16 1182.66C2677.88 1182.66 2678.48 1182.94 2678.93 1183.48C2679.38 1184.02 2679.61 1184.82 2679.61 1185.88C2679.61 1186.59 2679.5 1187.18 2679.3 1187.67C2679.09 1188.15 2678.8 1188.51 2678.42 1188.76C2678.05 1189 2677.62 1189.12 2677.12 1189.12C2676.65 1189.12 2676.28 1189.03 2676 1188.86C2675.71 1188.69 2675.48 1188.49 2675.31 1188.26H2675.21L2674.96 1189H2673.93V1180.26H2675.31V1182.34ZM2676.78 1183.78C2676.42 1183.78 2676.13 1183.85 2675.91 1184C2675.7 1184.14 2675.55 1184.36 2675.45 1184.65C2675.36 1184.94 2675.31 1185.32 2675.31 1185.77V1185.88C2675.31 1186.56 2675.41 1187.08 2675.63 1187.45C2675.84 1187.81 2676.23 1187.99 2676.8 1187.99C2677.25 1187.99 2677.6 1187.81 2677.84 1187.45C2678.07 1187.08 2678.19 1186.55 2678.19 1185.86C2678.19 1185.17 2678.07 1184.65 2677.82 1184.31C2677.59 1183.96 2677.24 1183.78 2676.78 1183.78ZM2683.6 1182.66C2684.15 1182.66 2684.62 1182.78 2685.02 1183.01C2685.43 1183.23 2685.74 1183.55 2685.95 1183.97C2686.17 1184.39 2686.28 1184.89 2686.28 1185.48V1186.21H2682.15C2682.16 1186.79 2682.32 1187.24 2682.63 1187.56C2682.94 1187.88 2683.36 1188.03 2683.91 1188.03C2684.31 1188.03 2684.66 1188 2684.98 1187.92C2685.3 1187.84 2685.63 1187.73 2685.97 1187.57V1188.69C2685.65 1188.84 2685.33 1188.94 2685 1189.01C2684.68 1189.08 2684.29 1189.12 2683.84 1189.12C2683.23 1189.12 2682.7 1189 2682.23 1188.77C2681.76 1188.53 2681.4 1188.18 2681.14 1187.7C2680.88 1187.23 2680.74 1186.63 2680.74 1185.93C2680.74 1185.22 2680.86 1184.63 2681.1 1184.15C2681.34 1183.66 2681.67 1183.3 2682.1 1183.04C2682.53 1182.79 2683.03 1182.66 2683.6 1182.66ZM2683.6 1183.7C2683.19 1183.7 2682.86 1183.83 2682.62 1184.09C2682.37 1184.34 2682.23 1184.72 2682.18 1185.23H2684.93C2684.93 1184.92 2684.88 1184.66 2684.78 1184.43C2684.69 1184.2 2684.54 1184.02 2684.34 1183.89C2684.15 1183.76 2683.9 1183.7 2683.6 1183.7ZM2689.13 1189H2687.75V1180.26H2689.13V1189Z" fill="#707070" id="n1260"/>
</g>
<g clip-path="url(#clip469_68_6728)" id="n1261">
<path d="M2702.33 1186.1C2702.33 1186.68 2702.21 1187.21 2701.97 1187.67C2701.74 1188.12 2701.39 1188.47 2700.91 1188.74C2700.44 1188.99 2699.86 1189.12 2699.15 1189.12C2698.14 1189.12 2697.37 1188.84 2696.84 1188.3C2696.31 1187.75 2696.05 1187.01 2696.05 1186.08V1180.79H2696.97V1186.1C2696.97 1186.81 2697.15 1187.35 2697.53 1187.73C2697.91 1188.12 2698.46 1188.31 2699.2 1188.31C2699.7 1188.31 2700.12 1188.22 2700.44 1188.03C2700.77 1187.85 2701.01 1187.6 2701.16 1187.27C2701.33 1186.95 2701.41 1186.56 2701.41 1186.11V1180.79H2702.33V1186.1ZM2707.25 1182.73C2707.97 1182.73 2708.52 1182.91 2708.9 1183.27C2709.27 1183.63 2709.46 1184.2 2709.46 1184.99V1189H2708.56V1185.06C2708.56 1184.53 2708.45 1184.14 2708.21 1183.88C2707.97 1183.63 2707.61 1183.5 2707.13 1183.5C2706.44 1183.5 2705.96 1183.69 2705.68 1184.08C2705.39 1184.46 2705.25 1185.02 2705.25 1185.76V1189H2704.36V1182.85H2705.08L2705.22 1183.76H2705.26C2705.4 1183.53 2705.57 1183.35 2705.77 1183.2C2705.97 1183.05 2706.2 1182.94 2706.45 1182.86C2706.7 1182.77 2706.97 1182.73 2707.25 1182.73ZM2712.28 1182.85V1189H2711.39V1182.85H2712.28ZM2711.85 1180.55C2712 1180.55 2712.13 1180.6 2712.23 1180.7C2712.33 1180.8 2712.39 1180.95 2712.39 1181.16C2712.39 1181.35 2712.33 1181.5 2712.23 1181.61C2712.13 1181.71 2712 1181.75 2711.85 1181.75C2711.68 1181.75 2711.55 1181.71 2711.44 1181.61C2711.34 1181.5 2711.29 1181.35 2711.29 1181.16C2711.29 1180.95 2711.34 1180.8 2711.44 1180.7C2711.55 1180.6 2711.68 1180.55 2711.85 1180.55ZM2716.22 1188.37C2716.38 1188.37 2716.53 1188.36 2716.69 1188.33C2716.85 1188.3 2716.98 1188.27 2717.09 1188.24V1188.93C2716.97 1188.98 2716.82 1189.03 2716.63 1189.06C2716.45 1189.1 2716.26 1189.12 2716.07 1189.12C2715.74 1189.12 2715.45 1189.06 2715.19 1188.94C2714.93 1188.83 2714.72 1188.64 2714.56 1188.37C2714.41 1188.09 2714.33 1187.71 2714.33 1187.23V1183.56H2713.44V1183.11L2714.34 1182.77L2714.69 1181.42H2715.24V1182.85H2717.04V1183.56H2715.24V1187.21C2715.24 1187.6 2715.32 1187.89 2715.49 1188.08C2715.67 1188.27 2715.91 1188.37 2716.22 1188.37Z" fill="#707070" id="n1262"/>
</g>
<g clip-path="url(#clip470_68_6728)" id="n1263">
<path d="M2774.93 1189H2773.24V1177.8C2773.24 1177.38 2773.24 1177.02 2773.24 1176.72C2773.25 1176.43 2773.26 1176.16 2773.26 1175.91C2773.27 1175.65 2773.29 1175.38 2773.3 1175.12C2773.08 1175.34 2772.88 1175.53 2772.69 1175.69C2772.5 1175.84 2772.26 1176.03 2771.98 1176.28L2770.13 1177.74L2769.23 1176.57L2773.48 1173.29H2774.93V1189ZM2790.67 1189H2780.42V1187.57L2784.64 1183.24C2785.42 1182.46 2786.07 1181.76 2786.6 1181.15C2787.14 1180.53 2787.56 1179.92 2787.83 1179.32C2788.11 1178.72 2788.25 1178.05 2788.25 1177.32C2788.25 1176.42 2787.98 1175.74 2787.44 1175.27C2786.91 1174.79 2786.21 1174.55 2785.35 1174.55C2784.6 1174.55 2783.93 1174.68 2783.35 1174.94C2782.76 1175.21 2782.17 1175.57 2781.56 1176.04L2780.64 1174.88C2781.05 1174.52 2781.5 1174.22 2781.98 1173.95C2782.48 1173.67 2783.01 1173.46 2783.57 1173.31C2784.14 1173.15 2784.73 1173.07 2785.35 1173.07C2786.3 1173.07 2787.12 1173.24 2787.81 1173.58C2788.52 1173.92 2789.06 1174.4 2789.44 1175.03C2789.82 1175.65 2790.01 1176.38 2790.01 1177.23C2790.01 1177.86 2789.92 1178.45 2789.73 1179.01C2789.55 1179.55 2789.29 1180.09 2788.93 1180.62C2788.6 1181.13 2788.18 1181.66 2787.68 1182.2C2787.2 1182.73 2786.66 1183.29 2786.07 1183.87L2782.6 1187.35V1187.42H2790.67V1189ZM2802.19 1176.94C2802.19 1177.65 2802.05 1178.26 2801.77 1178.79C2801.51 1179.31 2801.13 1179.72 2800.63 1180.05C2800.14 1180.37 2799.57 1180.6 2798.91 1180.73V1180.82C2800.16 1180.96 2801.1 1181.36 2801.73 1182C2802.36 1182.65 2802.67 1183.5 2802.67 1184.56C2802.67 1185.47 2802.46 1186.27 2802.04 1186.98C2801.61 1187.68 2800.96 1188.23 2800.08 1188.63C2799.21 1189.02 2798.1 1189.22 2796.73 1189.22C2795.9 1189.22 2795.12 1189.15 2794.4 1189.02C2793.7 1188.89 2793.03 1188.67 2792.4 1188.36V1186.73C2793.05 1187.04 2793.75 1187.29 2794.51 1187.48C2795.29 1187.66 2796.04 1187.75 2796.76 1187.75C2798.19 1187.75 2799.23 1187.46 2799.88 1186.89C2800.53 1186.32 2800.85 1185.53 2800.85 1184.53C2800.85 1183.83 2800.67 1183.27 2800.32 1182.86C2799.97 1182.44 2799.45 1182.13 2798.78 1181.94C2798.11 1181.73 2797.3 1181.63 2796.36 1181.63H2794.8V1180.13H2796.38C2797.23 1180.13 2797.95 1180.01 2798.54 1179.76C2799.14 1179.51 2799.6 1179.16 2799.92 1178.7C2800.25 1178.23 2800.41 1177.68 2800.41 1177.05C2800.41 1176.25 2800.14 1175.63 2799.59 1175.21C2799.07 1174.77 2798.34 1174.55 2797.42 1174.55C2796.86 1174.55 2796.35 1174.6 2795.88 1174.72C2795.42 1174.82 2794.99 1174.98 2794.58 1175.18C2794.18 1175.37 2793.78 1175.61 2793.37 1175.89L2792.51 1174.7C2792.91 1174.41 2793.35 1174.14 2793.83 1173.89C2794.33 1173.64 2794.87 1173.44 2795.46 1173.29C2796.06 1173.15 2796.7 1173.07 2797.39 1173.07C2798.99 1173.07 2800.19 1173.43 2800.98 1174.15C2801.79 1174.87 2802.19 1175.8 2802.19 1176.94Z" fill="#535353" id="n1264"/>
</g>
<g clip-path="url(#clip471_68_6728)" id="n1265">
<path d="M2808 1179.74C2807.31 1179.74 2806.71 1179.6 2806.2 1179.32C2805.69 1179.04 2805.28 1178.65 2804.99 1178.15C2804.7 1177.66 2804.55 1177.08 2804.55 1176.42C2804.55 1175.74 2804.69 1175.15 2804.97 1174.66C2805.26 1174.16 2805.66 1173.77 2806.18 1173.49C2806.69 1173.21 2807.3 1173.07 2808 1173.07C2808.68 1173.07 2809.27 1173.22 2809.78 1173.51C2810.31 1173.79 2810.72 1174.18 2811.02 1174.68C2811.31 1175.18 2811.46 1175.76 2811.46 1176.42C2811.46 1177.08 2811.31 1177.66 2811.02 1178.15C2810.72 1178.65 2810.31 1179.04 2809.78 1179.32C2809.27 1179.6 2808.68 1179.74 2808 1179.74ZM2808.02 1178.57C2808.73 1178.57 2809.26 1178.37 2809.61 1177.98C2809.96 1177.57 2810.14 1177.05 2810.14 1176.42C2810.14 1175.98 2810.06 1175.59 2809.89 1175.27C2809.73 1174.95 2809.49 1174.7 2809.17 1174.52C2808.86 1174.33 2808.48 1174.24 2808.02 1174.24C2807.29 1174.24 2806.75 1174.44 2806.4 1174.83C2806.04 1175.23 2805.87 1175.76 2805.87 1176.42C2805.87 1177.05 2806.04 1177.57 2806.4 1177.98C2806.75 1178.37 2807.29 1178.57 2808.02 1178.57Z" fill="#535353" id="n1266"/>
</g>
</g>
</svg>
