<?xml version='1.0' encoding='utf-8'?>
<svg xmlns="http://www.w3.org/2000/svg" xmlns:xlink="http://www.w3.org/1999/xlink" width="160.0" height="20.0" viewBox="0 0 160.0 20.0" fill="none">
  <defs><clipPath id="clip__asset"><rect x="0" y="0" width="160.0" height="20.0"/></clipPath><clipPath id="clip381_68_6728">
<rect width="31" height="16" fill="white" transform="translate(2405 593)" id="n1733"/>
</clipPath>
<clipPath id="clip382_68_6728">
<rect width="28" height="20" fill="white" transform="translate(2500 589)" id="n1734"/>
</clipPath>
<clipPath id="clip383_68_6728">
<rect width="6" height="20" fill="white" transform="translate(2528 589)" id="n1735"/>
</clipPath>
<clipPath id="clip384_68_6728">
<rect width="23" height="16" fill="white" transform="translate(2534 593)" id="n1736"/>
</clipPath>
</defs>
  <g clip-path="url(#clip__asset)" transform="translate(-2401.0 -589.0)"><g clip-path="url(#clip381_68_6728)" id="n1068">
<path d="M2406.07 605V596.789H2407.47V603.804H2410.93V605H2406.07ZM2414.67 598.664C2415.48 598.664 2416.08 598.836 2416.49 599.181C2416.89 599.526 2417.1 600.07 2417.1 600.814V605H2416.12L2415.84 604.137H2415.8C2415.62 604.36 2415.44 604.548 2415.25 604.701C2415.06 604.847 2414.85 604.95 2414.6 605.012C2414.36 605.081 2414.07 605.115 2413.73 605.115C2413.36 605.115 2413.03 605.046 2412.73 604.908C2412.44 604.77 2412.21 604.559 2412.04 604.275C2411.87 603.992 2411.78 603.635 2411.78 603.206C2411.78 602.562 2412.02 602.079 2412.5 601.757C2412.97 601.427 2413.69 601.247 2414.66 601.216L2415.73 601.182V600.86C2415.73 600.446 2415.63 600.151 2415.43 599.974C2415.24 599.798 2414.97 599.71 2414.61 599.71C2414.3 599.71 2414 599.756 2413.7 599.848C2413.41 599.94 2413.13 600.051 2412.85 600.181L2412.42 599.204C2412.72 599.043 2413.06 598.913 2413.45 598.813C2413.84 598.713 2414.25 598.664 2414.67 598.664ZM2414.95 602.067C2414.29 602.09 2413.83 602.202 2413.58 602.401C2413.32 602.6 2413.2 602.872 2413.2 603.217C2413.2 603.516 2413.29 603.735 2413.47 603.873C2413.66 604.003 2413.89 604.068 2414.18 604.068C2414.61 604.068 2414.98 603.946 2415.28 603.7C2415.58 603.447 2415.73 603.072 2415.73 602.573V602.045L2414.95 602.067ZM2420.31 598.341C2420.31 598.587 2420.3 598.824 2420.28 599.054C2420.27 599.284 2420.26 599.465 2420.25 599.595H2420.31C2420.48 599.334 2420.72 599.116 2421.01 598.939C2421.31 598.755 2421.69 598.664 2422.16 598.664C2422.88 598.664 2423.48 598.936 2423.93 599.48C2424.38 600.017 2424.61 600.818 2424.61 601.883C2424.61 602.589 2424.5 603.183 2424.3 603.666C2424.09 604.149 2423.8 604.513 2423.42 604.758C2423.05 604.996 2422.62 605.115 2422.12 605.115C2421.65 605.115 2421.28 605.031 2421 604.862C2420.71 604.693 2420.48 604.494 2420.31 604.264H2420.21L2419.96 605H2418.93V596.26H2420.31V598.341ZM2421.78 599.779C2421.42 599.779 2421.13 599.852 2420.91 599.997C2420.7 600.143 2420.55 600.362 2420.45 600.653C2420.36 600.944 2420.31 601.316 2420.31 601.768V601.883C2420.31 602.558 2420.41 603.079 2420.63 603.447C2420.84 603.808 2421.23 603.988 2421.8 603.988C2422.25 603.988 2422.6 603.808 2422.84 603.447C2423.07 603.079 2423.19 602.55 2423.19 601.86C2423.19 601.17 2423.07 600.653 2422.82 600.308C2422.59 599.955 2422.24 599.779 2421.78 599.779ZM2428.6 598.664C2429.15 598.664 2429.62 598.778 2430.02 599.008C2430.43 599.231 2430.74 599.553 2430.95 599.974C2431.17 600.388 2431.28 600.891 2431.28 601.481V602.205H2427.15C2427.16 602.788 2427.32 603.24 2427.63 603.562C2427.94 603.877 2428.36 604.034 2428.91 604.034C2429.31 604.034 2429.66 603.996 2429.98 603.919C2430.3 603.842 2430.63 603.727 2430.97 603.574V604.689C2430.65 604.835 2430.33 604.942 2430 605.012C2429.68 605.081 2429.29 605.115 2428.84 605.115C2428.23 605.115 2427.7 605 2427.23 604.77C2426.76 604.532 2426.4 604.176 2426.14 603.7C2425.88 603.225 2425.74 602.635 2425.74 601.929C2425.74 601.224 2425.86 600.63 2426.1 600.147C2426.34 599.664 2426.67 599.296 2427.1 599.043C2427.53 598.79 2428.03 598.664 2428.6 598.664ZM2428.6 599.698C2428.19 599.698 2427.86 599.829 2427.62 600.089C2427.37 600.342 2427.23 600.722 2427.18 601.228H2429.93C2429.93 600.921 2429.88 600.657 2429.78 600.434C2429.69 600.204 2429.54 600.024 2429.34 599.894C2429.15 599.764 2428.9 599.698 2428.6 599.698ZM2434.13 605H2432.75V596.26H2434.13V605Z" fill="#707070" id="n1069"/>
</g>
<g clip-path="url(#clip382_68_6728)" id="n1070">
<path d="M2506.13 605H2504.9V596.856C2504.9 596.547 2504.9 596.285 2504.9 596.072C2504.91 595.859 2504.92 595.661 2504.92 595.48C2504.93 595.288 2504.94 595.096 2504.95 594.904C2504.79 595.064 2504.64 595.203 2504.5 595.32C2504.36 595.427 2504.19 595.571 2503.99 595.752L2502.64 596.808L2501.99 595.96L2505.08 593.576H2506.13V605ZM2517.94 605H2510.49V603.96L2513.56 600.808C2514.12 600.243 2514.6 599.736 2514.98 599.288C2515.38 598.84 2515.68 598.397 2515.88 597.96C2516.08 597.523 2516.18 597.037 2516.18 596.504C2516.18 595.853 2515.99 595.357 2515.59 595.016C2515.21 594.664 2514.7 594.488 2514.07 594.488C2513.53 594.488 2513.04 594.584 2512.62 594.776C2512.19 594.968 2511.76 595.235 2511.32 595.576L2510.65 594.728C2510.95 594.472 2511.27 594.248 2511.62 594.056C2511.99 593.853 2512.37 593.699 2512.78 593.592C2513.19 593.475 2513.62 593.416 2514.07 593.416C2514.76 593.416 2515.36 593.539 2515.86 593.784C2516.38 594.029 2516.77 594.381 2517.05 594.84C2517.32 595.288 2517.46 595.821 2517.46 596.44C2517.46 596.899 2517.39 597.331 2517.26 597.736C2517.13 598.131 2516.94 598.52 2516.68 598.904C2516.43 599.277 2516.13 599.661 2515.77 600.056C2515.42 600.44 2515.03 600.845 2514.6 601.272L2512.07 603.8V603.848H2517.94V605ZM2526.68 596.232C2526.68 596.744 2526.58 597.192 2526.38 597.576C2526.19 597.949 2525.91 598.253 2525.55 598.488C2525.2 598.723 2524.78 598.888 2524.3 598.984V599.048C2525.21 599.155 2525.89 599.443 2526.35 599.912C2526.81 600.381 2527.04 601 2527.04 601.768C2527.04 602.429 2526.88 603.016 2526.57 603.528C2526.26 604.04 2525.79 604.44 2525.15 604.728C2524.52 605.016 2523.71 605.16 2522.72 605.16C2522.11 605.16 2521.54 605.112 2521.02 605.016C2520.51 604.92 2520.02 604.76 2519.56 604.536V603.352C2520.03 603.576 2520.55 603.757 2521.1 603.896C2521.67 604.024 2522.21 604.088 2522.73 604.088C2523.78 604.088 2524.53 603.88 2525 603.464C2525.47 603.048 2525.71 602.477 2525.71 601.752C2525.71 601.24 2525.58 600.835 2525.32 600.536C2525.07 600.227 2524.69 600.003 2524.2 599.864C2523.71 599.715 2523.13 599.64 2522.44 599.64H2521.31V598.552H2522.46C2523.08 598.552 2523.6 598.461 2524.03 598.28C2524.47 598.099 2524.8 597.843 2525.04 597.512C2525.27 597.171 2525.39 596.771 2525.39 596.312C2525.39 595.725 2525.19 595.277 2524.8 594.968C2524.41 594.648 2523.88 594.488 2523.21 594.488C2522.81 594.488 2522.43 594.531 2522.09 594.616C2521.76 594.691 2521.45 594.803 2521.15 594.952C2520.86 595.091 2520.57 595.261 2520.27 595.464L2519.64 594.6C2519.93 594.387 2520.25 594.189 2520.6 594.008C2520.97 593.827 2521.36 593.683 2521.79 593.576C2522.23 593.469 2522.69 593.416 2523.2 593.416C2524.36 593.416 2525.23 593.677 2525.8 594.2C2526.39 594.723 2526.68 595.4 2526.68 596.232Z" fill="#2D548B" id="n1071"/>
</g>
<g clip-path="url(#clip383_68_6728)" id="n1072">
<path d="M2531 598.264C2530.5 598.264 2530.06 598.163 2529.69 597.96C2529.32 597.757 2529.02 597.475 2528.81 597.112C2528.6 596.749 2528.49 596.328 2528.49 595.848C2528.49 595.357 2528.59 594.931 2528.79 594.568C2529.01 594.205 2529.3 593.923 2529.67 593.72C2530.05 593.517 2530.49 593.416 2531 593.416C2531.49 593.416 2531.92 593.523 2532.3 593.736C2532.68 593.939 2532.98 594.221 2533.19 594.584C2533.41 594.947 2533.51 595.368 2533.51 595.848C2533.51 596.328 2533.41 596.749 2533.19 597.112C2532.98 597.475 2532.68 597.757 2532.3 597.96C2531.92 598.163 2531.49 598.264 2531 598.264ZM2531.02 597.416C2531.53 597.416 2531.91 597.272 2532.17 596.984C2532.43 596.685 2532.55 596.307 2532.55 595.848C2532.55 595.528 2532.5 595.251 2532.38 595.016C2532.26 594.781 2532.08 594.6 2531.85 594.472C2531.63 594.333 2531.35 594.264 2531.02 594.264C2530.48 594.264 2530.09 594.408 2529.83 594.696C2529.58 594.984 2529.45 595.368 2529.45 595.848C2529.45 596.307 2529.58 596.685 2529.83 596.984C2530.09 597.272 2530.48 597.416 2531.02 597.416Z" fill="#2D548B" id="n1073"/>
</g>
<g clip-path="url(#clip384_68_6728)" id="n1074">
<path d="M2541.33 602.102C2541.33 602.685 2541.21 603.206 2540.97 603.666C2540.74 604.118 2540.39 604.475 2539.91 604.735C2539.44 604.988 2538.86 605.115 2538.15 605.115C2537.14 605.115 2536.37 604.843 2535.84 604.298C2535.31 603.746 2535.05 603.007 2535.05 602.079V596.789H2535.97V602.102C2535.97 602.807 2536.15 603.352 2536.53 603.735C2536.91 604.118 2537.46 604.31 2538.2 604.31C2538.7 604.31 2539.12 604.218 2539.44 604.034C2539.77 603.85 2540.01 603.597 2540.16 603.275C2540.33 602.945 2540.41 602.558 2540.41 602.113V596.789H2541.33V602.102ZM2546.25 598.732C2546.97 598.732 2547.52 598.913 2547.9 599.273C2548.27 599.626 2548.46 600.197 2548.46 600.986V605H2547.56V601.055C2547.56 600.526 2547.45 600.135 2547.21 599.882C2546.97 599.629 2546.61 599.503 2546.13 599.503C2545.44 599.503 2544.96 599.695 2544.68 600.078C2544.39 600.461 2544.25 601.021 2544.25 601.757V605H2543.36V598.847H2544.08L2544.22 599.756H2544.26C2544.4 599.534 2544.57 599.35 2544.77 599.204C2544.97 599.051 2545.2 598.936 2545.45 598.859C2545.7 598.775 2545.97 598.732 2546.25 598.732ZM2551.28 598.847V605H2550.39V598.847H2551.28ZM2550.85 596.547C2551 596.547 2551.13 596.597 2551.23 596.697C2551.33 596.797 2551.39 596.95 2551.39 597.157C2551.39 597.349 2551.33 597.498 2551.23 597.605C2551.13 597.705 2551 597.755 2550.85 597.755C2550.68 597.755 2550.55 597.705 2550.44 597.605C2550.34 597.498 2550.29 597.349 2550.29 597.157C2550.29 596.95 2550.34 596.797 2550.44 596.697C2550.55 596.597 2550.68 596.547 2550.85 596.547ZM2555.22 604.367C2555.38 604.367 2555.53 604.356 2555.69 604.333C2555.85 604.302 2555.98 604.272 2556.09 604.241V604.931C2555.97 604.985 2555.82 605.027 2555.63 605.058C2555.45 605.096 2555.26 605.115 2555.07 605.115C2554.74 605.115 2554.45 605.058 2554.19 604.942C2553.93 604.827 2553.72 604.636 2553.56 604.367C2553.41 604.091 2553.33 603.712 2553.33 603.229V599.56H2552.44V599.112L2553.34 598.767L2553.69 597.421H2554.24V598.847H2556.04V599.56H2554.24V603.206C2554.24 603.597 2554.32 603.888 2554.49 604.08C2554.67 604.272 2554.91 604.367 2555.22 604.367Z" fill="#707070" id="n1075"/>
</g>
</g>
</svg>
