<?xml version='1.0' encoding='utf-8'?>
<svg xmlns="http://www.w3.org/2000/svg" xmlns:xlink="http://www.w3.org/1999/xlink" width="160.0" height="32.0" viewBox="0 0 160.0 32.0" fill="none">
  <defs><clipPath id="clip__asset"><rect x="0" y="0" width="160.0" height="32.0"/></clipPath><clipPath id="clip464_68_6728">
<rect width="31" height="16" fill="white" transform="translate(2660 997)" id="n1816"/>
</clipPath>
<clipPath id="clip465_68_6728">
<rect width="23" height="16" fill="white" transform="translate(2695 997)" id="n1817"/>
</clipPath>
<clipPath id="clip466_68_6728">
<rect width="37" height="24" fill="white" transform="translate(2767 989)" id="n1818"/>
</clipPath>
<clipPath id="clip467_68_6728">
<rect width="8" height="24" fill="white" transform="translate(2804 989)" id="n1819"/>
</clipPath>
</defs>
  <g clip-path="url(#clip__asset)" transform="translate(-2656.0 -985.0)"><rect x="2656.5" y="985.5" width="159" height="31" rx="3.5" fill="#FFF088" id="n1247"/>
<rect x="2656.5" y="985.5" width="159" height="31" rx="3.5" stroke="#707070" id="n1248"/>
<g clip-path="url(#clip464_68_6728)" id="n1249">
<path d="M2661.07 1009V1000.79H2662.47V1007.8H2665.93V1009H2661.07ZM2669.67 1002.66C2670.48 1002.66 2671.08 1002.84 2671.49 1003.18C2671.89 1003.53 2672.1 1004.07 2672.1 1004.81V1009H2671.12L2670.84 1008.14H2670.8C2670.62 1008.36 2670.44 1008.55 2670.25 1008.7C2670.06 1008.85 2669.85 1008.95 2669.6 1009.01C2669.36 1009.08 2669.07 1009.12 2668.73 1009.12C2668.36 1009.12 2668.03 1009.05 2667.73 1008.91C2667.44 1008.77 2667.21 1008.56 2667.04 1008.28C2666.87 1007.99 2666.78 1007.64 2666.78 1007.21C2666.78 1006.56 2667.02 1006.08 2667.5 1005.76C2667.97 1005.43 2668.69 1005.25 2669.66 1005.22L2670.73 1005.18V1004.86C2670.73 1004.45 2670.63 1004.15 2670.43 1003.97C2670.24 1003.8 2669.97 1003.71 2669.61 1003.71C2669.3 1003.71 2669 1003.76 2668.7 1003.85C2668.41 1003.94 2668.13 1004.05 2667.85 1004.18L2667.42 1003.2C2667.72 1003.04 2668.06 1002.91 2668.45 1002.81C2668.84 1002.71 2669.25 1002.66 2669.67 1002.66ZM2669.95 1006.07C2669.29 1006.09 2668.83 1006.2 2668.58 1006.4C2668.32 1006.6 2668.2 1006.87 2668.2 1007.22C2668.2 1007.52 2668.29 1007.73 2668.47 1007.87C2668.66 1008 2668.89 1008.07 2669.18 1008.07C2669.61 1008.07 2669.98 1007.95 2670.28 1007.7C2670.58 1007.45 2670.73 1007.07 2670.73 1006.57V1006.04L2669.95 1006.07ZM2675.31 1002.34C2675.31 1002.59 2675.3 1002.82 2675.28 1003.05C2675.27 1003.28 2675.26 1003.46 2675.25 1003.59H2675.31C2675.48 1003.33 2675.72 1003.12 2676.01 1002.94C2676.31 1002.76 2676.69 1002.66 2677.16 1002.66C2677.88 1002.66 2678.48 1002.94 2678.93 1003.48C2679.38 1004.02 2679.61 1004.82 2679.61 1005.88C2679.61 1006.59 2679.5 1007.18 2679.3 1007.67C2679.09 1008.15 2678.8 1008.51 2678.42 1008.76C2678.05 1009 2677.62 1009.12 2677.12 1009.12C2676.65 1009.12 2676.28 1009.03 2676 1008.86C2675.71 1008.69 2675.48 1008.49 2675.31 1008.26H2675.21L2674.96 1009H2673.93V1000.26H2675.31V1002.34ZM2676.78 1003.78C2676.42 1003.78 2676.13 1003.85 2675.91 1004C2675.7 1004.14 2675.55 1004.36 2675.45 1004.65C2675.36 1004.94 2675.31 1005.32 2675.31 1005.77V1005.88C2675.31 1006.56 2675.41 1007.08 2675.63 1007.45C2675.84 1007.81 2676.23 1007.99 2676.8 1007.99C2677.25 1007.99 2677.6 1007.81 2677.84 1007.45C2678.07 1007.08 2678.19 1006.55 2678.19 1005.86C2678.19 1005.17 2678.07 1004.65 2677.82 1004.31C2677.59 1003.96 2677.24 1003.78 2676.78 1003.78ZM2683.6 1002.66C2684.15 1002.66 2684.62 1002.78 2685.02 1003.01C2685.43 1003.23 2685.74 1003.55 2685.95 1003.97C2686.17 1004.39 2686.28 1004.89 2686.28 1005.48V1006.21H2682.15C2682.16 1006.79 2682.32 1007.24 2682.63 1007.56C2682.94 1007.88 2683.36 1008.03 2683.91 1008.03C2684.31 1008.03 2684.66 1008 2684.98 1007.92C2685.3 1007.84 2685.63 1007.73 2685.97 1007.57V1008.69C2685.65 1008.84 2685.33 1008.94 2685 1009.01C2684.68 1009.08 2684.29 1009.12 2683.84 1009.12C2683.23 1009.12 2682.7 1009 2682.23 1008.77C2681.76 1008.53 2681.4 1008.18 2681.14 1007.7C2680.88 1007.23 2680.74 1006.63 2680.74 1005.93C2680.74 1005.22 2680.86 1004.63 2681.1 1004.15C2681.34 1003.66 2681.67 1003.3 2682.1 1003.04C2682.53 1002.79 2683.03 1002.66 2683.6 1002.66ZM2683.6 1003.7C2683.19 1003.7 2682.86 1003.83 2682.62 1004.09C2682.37 1004.34 2682.23 1004.72 2682.18 1005.23H2684.93C2684.93 1004.92 2684.88 1004.66 2684.78 1004.43C2684.69 1004.2 2684.54 1004.02 2684.34 1003.89C2684.15 1003.76 2683.9 1003.7 2683.6 1003.7ZM2689.13 1009H2687.75V1000.26H2689.13V1009Z" fill="#707070" id="n1250"/>
</g>
<g clip-path="url(#clip465_68_6728)" id="n1251">
<path d="M2702.33 1006.1C2702.33 1006.68 2702.21 1007.21 2701.97 1007.67C2701.74 1008.12 2701.39 1008.47 2700.91 1008.74C2700.44 1008.99 2699.86 1009.12 2699.15 1009.12C2698.14 1009.12 2697.37 1008.84 2696.84 1008.3C2696.31 1007.75 2696.05 1007.01 2696.05 1006.08V1000.79H2696.97V1006.1C2696.97 1006.81 2697.15 1007.35 2697.53 1007.73C2697.91 1008.12 2698.46 1008.31 2699.2 1008.31C2699.7 1008.31 2700.12 1008.22 2700.44 1008.03C2700.77 1007.85 2701.01 1007.6 2701.16 1007.27C2701.33 1006.95 2701.41 1006.56 2701.41 1006.11V1000.79H2702.33V1006.1ZM2707.25 1002.73C2707.97 1002.73 2708.52 1002.91 2708.9 1003.27C2709.27 1003.63 2709.46 1004.2 2709.46 1004.99V1009H2708.56V1005.06C2708.56 1004.53 2708.45 1004.14 2708.21 1003.88C2707.97 1003.63 2707.61 1003.5 2707.13 1003.5C2706.44 1003.5 2705.96 1003.69 2705.68 1004.08C2705.39 1004.46 2705.25 1005.02 2705.25 1005.76V1009H2704.36V1002.85H2705.08L2705.22 1003.76H2705.26C2705.4 1003.53 2705.57 1003.35 2705.77 1003.2C2705.97 1003.05 2706.2 1002.94 2706.45 1002.86C2706.7 1002.77 2706.97 1002.73 2707.25 1002.73ZM2712.28 1002.85V1009H2711.39V1002.85H2712.28ZM2711.85 1000.55C2712 1000.55 2712.13 1000.6 2712.23 1000.7C2712.33 1000.8 2712.39 1000.95 2712.39 1001.16C2712.39 1001.35 2712.33 1001.5 2712.23 1001.61C2712.13 1001.71 2712 1001.75 2711.85 1001.75C2711.68 1001.75 2711.55 1001.71 2711.44 1001.61C2711.34 1001.5 2711.29 1001.35 2711.29 1001.16C2711.29 1000.95 2711.34 1000.8 2711.44 1000.7C2711.55 1000.6 2711.68 1000.55 2711.85 1000.55ZM2716.22 1008.37C2716.38 1008.37 2716.53 1008.36 2716.69 1008.33C2716.85 1008.3 2716.98 1008.27 2717.09 1008.24V1008.93C2716.97 1008.98 2716.82 1009.03 2716.63 1009.06C2716.45 1009.1 2716.26 1009.12 2716.07 1009.12C2715.74 1009.12 2715.45 1009.06 2715.19 1008.94C2714.93 1008.83 2714.72 1008.64 2714.56 1008.37C2714.41 1008.09 2714.33 1007.71 2714.33 1007.23V1003.56H2713.44V1003.11L2714.34 1002.77L2714.69 1001.42H2715.24V1002.85H2717.04V1003.56H2715.24V1007.21C2715.24 1007.6 2715.32 1007.89 2715.49 1008.08C2715.67 1008.27 2715.91 1008.37 2716.22 1008.37Z" fill="#707070" id="n1252"/>
</g>
<g clip-path="url(#clip466_68_6728)" id="n1253">
<path d="M2774.93 1009H2773.24V997.802C2773.24 997.377 2773.24 997.017 2773.24 996.724C2773.25 996.431 2773.26 996.159 2773.26 995.91C2773.27 995.646 2773.29 995.382 2773.3 995.118C2773.08 995.338 2772.88 995.529 2772.69 995.69C2772.5 995.837 2772.26 996.035 2771.98 996.284L2770.13 997.736L2769.23 996.57L2773.48 993.292H2774.93V1009ZM2790.67 1009H2780.42V1007.57L2784.64 1003.24C2785.42 1002.46 2786.07 1001.76 2786.6 1001.15C2787.14 1000.53 2787.56 999.921 2787.83 999.32C2788.11 998.719 2788.25 998.051 2788.25 997.318C2788.25 996.423 2787.98 995.741 2787.44 995.272C2786.91 994.788 2786.21 994.546 2785.35 994.546C2784.6 994.546 2783.93 994.678 2783.35 994.942C2782.76 995.206 2782.17 995.573 2781.56 996.042L2780.64 994.876C2781.05 994.524 2781.5 994.216 2781.98 993.952C2782.48 993.673 2783.01 993.461 2783.57 993.314C2784.14 993.153 2784.73 993.072 2785.35 993.072C2786.3 993.072 2787.12 993.241 2787.81 993.578C2788.52 993.915 2789.06 994.399 2789.44 995.03C2789.82 995.646 2790.01 996.379 2790.01 997.23C2790.01 997.861 2789.92 998.455 2789.73 999.012C2789.55 999.555 2789.29 1000.09 2788.93 1000.62C2788.6 1001.13 2788.18 1001.66 2787.68 1002.2C2787.2 1002.73 2786.66 1003.29 2786.07 1003.87L2782.6 1007.35V1007.42H2790.67V1009ZM2802.19 996.944C2802.19 997.648 2802.05 998.264 2801.77 998.792C2801.51 999.305 2801.13 999.723 2800.63 1000.05C2800.14 1000.37 2799.57 1000.6 2798.91 1000.73V1000.82C2800.16 1000.96 2801.1 1001.36 2801.73 1002C2802.36 1002.65 2802.67 1003.5 2802.67 1004.56C2802.67 1005.47 2802.46 1006.27 2802.04 1006.98C2801.61 1007.68 2800.96 1008.23 2800.08 1008.63C2799.21 1009.02 2798.1 1009.22 2796.73 1009.22C2795.9 1009.22 2795.12 1009.15 2794.4 1009.02C2793.7 1008.89 2793.03 1008.67 2792.4 1008.36V1006.73C2793.05 1007.04 2793.75 1007.29 2794.51 1007.48C2795.29 1007.66 2796.04 1007.75 2796.76 1007.75C2798.19 1007.75 2799.23 1007.46 2799.88 1006.89C2800.53 1006.32 2800.85 1005.53 2800.85 1004.53C2800.85 1003.83 2800.67 1003.27 2800.32 1002.86C2799.97 1002.44 2799.45 1002.13 2798.78 1001.94C2798.11 1001.73 2797.3 1001.63 2796.36 1001.63H2794.8V1000.13H2796.38C2797.23 1000.13 2797.95 1000.01 2798.54 999.76C2799.14 999.511 2799.6 999.159 2799.92 998.704C2800.25 998.235 2800.41 997.685 2800.41 997.054C2800.41 996.247 2800.14 995.631 2799.59 995.206C2799.07 994.766 2798.34 994.546 2797.42 994.546C2796.86 994.546 2796.35 994.605 2795.88 994.722C2795.42 994.825 2794.99 994.979 2794.58 995.184C2794.18 995.375 2793.78 995.609 2793.37 995.888L2792.51 994.7C2792.91 994.407 2793.35 994.135 2793.83 993.886C2794.33 993.637 2794.87 993.439 2795.46 993.292C2796.06 993.145 2796.7 993.072 2797.39 993.072C2798.99 993.072 2800.19 993.431 2800.98 994.15C2801.79 994.869 2802.19 995.8 2802.19 996.944Z" fill="#535353" id="n1254"/>
</g>
<g clip-path="url(#clip467_68_6728)" id="n1255">
<path d="M2808 999.738C2807.31 999.738 2806.71 999.599 2806.2 999.32C2805.69 999.041 2805.28 998.653 2804.99 998.154C2804.7 997.655 2804.55 997.076 2804.55 996.416C2804.55 995.741 2804.69 995.155 2804.97 994.656C2805.26 994.157 2805.66 993.769 2806.18 993.49C2806.69 993.211 2807.3 993.072 2808 993.072C2808.68 993.072 2809.27 993.219 2809.78 993.512C2810.31 993.791 2810.72 994.179 2811.02 994.678C2811.31 995.177 2811.46 995.756 2811.46 996.416C2811.46 997.076 2811.31 997.655 2811.02 998.154C2810.72 998.653 2810.31 999.041 2809.78 999.32C2809.27 999.599 2808.68 999.738 2808 999.738ZM2808.02 998.572C2808.73 998.572 2809.26 998.374 2809.61 997.978C2809.96 997.567 2810.14 997.047 2810.14 996.416C2810.14 995.976 2810.06 995.595 2809.89 995.272C2809.73 994.949 2809.49 994.7 2809.17 994.524C2808.86 994.333 2808.48 994.238 2808.02 994.238C2807.29 994.238 2806.75 994.436 2806.4 994.832C2806.04 995.228 2805.87 995.756 2805.87 996.416C2805.87 997.047 2806.04 997.567 2806.4 997.978C2806.75 998.374 2807.29 998.572 2808.02 998.572Z" fill="#535353" id="n1256"/>
</g>
</g>
</svg>
