<?xml version='1.0' encoding='utf-8'?>
<svg xmlns="http://www.w3.org/2000/svg" xmlns:xlink="http://www.w3.org/1999/xlink" width="384.0" height="216.0" viewBox="0 0 384.0 216.0" fill="none">
  <defs><clipPath id="clip__asset"><rect x="0" y="0" width="384.0" height="216.0"/></clipPath><mask id="mask95_68_6728" style="mask-type:alpha" maskUnits="userSpaceOnUse" x="6550" y="680" width="512" height="512">
<path d="M6806 1124C6739.29 1124 6680.69 1089.25 6647.32 1036.86C6644.95 1033.13 6646.27 1028.22 6650.1 1026.01L6698.6 998.006C6702.43 995.798 6707.3 997.124 6709.76 1000.78C6730.6 1031.68 6765.93 1052 6806 1052C6846.07 1052 6881.4 1031.68 6902.24 1000.78C6904.71 997.124 6909.57 995.798 6913.4 998.006L6961.9 1026.01C6965.73 1028.22 6967.06 1033.13 6964.68 1036.86C6931.31 1089.25 6872.72 1124 6806 1124Z" fill="white" stroke="black" id="n835"/>
</mask>
<mask id="mask96_68_6728" style="mask-type:luminance" maskUnits="userSpaceOnUse" x="6550" y="680" width="512" height="512">
<path d="M6806 1124C6739.29 1124 6680.69 1089.25 6647.32 1036.86C6644.94 1033.13 6646.27 1028.22 6650.1 1026.01L6663.95 1018.01C6692.31 1067.03 6745.3 1100 6806 1100C6866.7 1100 6919.69 1067.02 6948.05 1018.01L6961.9 1026.01C6965.73 1028.22 6967.06 1033.13 6964.68 1036.86C6931.31 1089.25 6872.72 1124 6806 1124Z" fill="white" stroke="black" id="n841"/>
</mask>
<mask id="mask97_68_6728" style="mask-type:alpha" maskUnits="userSpaceOnUse" x="6550" y="680" width="512" height="512">
<path d="M6806 744C6912.04 744 6998 829.961 6998 936C6998 1042.04 6912.04 1128 6806 1128C6699.96 1128 6614 1042.04 6614 936C6614 829.961 6699.96 744 6806 744ZM6806 768C6713.22 768 6638 843.216 6638 936C6638 1028.78 6713.22 1104 6806 1104C6898.78 1104 6974 1028.78 6974 936C6974 843.216 6898.78 768 6806 768Z" fill="black" id="n843"/>
</mask>
<mask id="mask98_68_6728" style="mask-type:alpha" maskUnits="userSpaceOnUse" x="6550" y="680" width="512" height="512">
<path d="M6806 744C6912.04 744 6998 829.961 6998 936C6998 1042.04 6912.04 1128 6806 1128C6699.96 1128 6614 1042.04 6614 936C6614 829.961 6699.96 744 6806 744ZM6806 772C6715.43 772 6642 845.425 6642 936C6642 1026.57 6715.43 1100 6806 1100C6896.57 1100 6970 1026.57 6970 936C6970 845.425 6896.57 772 6806 772Z" fill="black" id="n846"/>
</mask>
<mask id="mask99_68_6728" style="mask-type:alpha" maskUnits="userSpaceOnUse" x="6550" y="680" width="512" height="512">
<path d="M6806 1100C6745.3 1100 6692.31 1067.03 6663.95 1018.01L6698.61 998.006C6702.42 995.801 6707.28 997.121 6709.75 1000.77C6710.07 1001.24 6710.4 1001.71 6710.72 1002.18C6710.76 1002.24 6710.8 1002.29 6710.84 1002.35C6711.12 1002.75 6711.41 1003.16 6711.7 1003.56C6711.74 1003.63 6711.79 1003.69 6711.84 1003.76C6712.14 1004.17 6712.44 1004.58 6712.74 1005C6712.77 1005.03 6712.79 1005.06 6712.82 1005.09C6713.83 1006.46 6714.88 1007.81 6715.95 1009.13C6715.99 1009.17 6716.02 1009.21 6716.05 1009.25C6717.12 1010.56 6718.21 1011.84 6719.33 1013.09C6719.4 1013.18 6719.47 1013.26 6719.54 1013.34C6719.85 1013.68 6720.17 1014.03 6720.48 1014.37C6720.53 1014.43 6720.59 1014.49 6720.65 1014.55C6722.16 1016.2 6723.73 1017.8 6725.34 1019.36C6725.4 1019.42 6725.46 1019.48 6725.51 1019.53C6725.86 1019.87 6726.21 1020.2 6726.56 1020.53C6726.62 1020.58 6726.68 1020.64 6726.74 1020.7C6727.55 1021.46 6728.37 1022.2 6729.21 1022.94C6729.27 1023 6729.33 1023.05 6729.39 1023.1C6729.74 1023.41 6730.08 1023.71 6730.43 1024.01C6730.53 1024.09 6730.63 1024.18 6730.73 1024.26C6731.1 1024.58 6731.47 1024.89 6731.84 1025.2C6731.87 1025.22 6731.9 1025.25 6731.93 1025.27C6732.8 1026 6733.68 1026.71 6734.58 1027.41C6734.63 1027.45 6734.68 1027.49 6734.73 1027.53C6735.11 1027.82 6735.49 1028.11 6735.87 1028.4C6735.96 1028.47 6736.05 1028.54 6736.14 1028.61C6736.5 1028.88 6736.87 1029.16 6737.24 1029.43C6737.32 1029.49 6737.4 1029.55 6737.47 1029.6C6738.81 1030.58 6740.17 1031.53 6741.54 1032.46C6741.65 1032.53 6741.76 1032.6 6741.86 1032.67C6742.24 1032.92 6742.62 1033.17 6743 1033.41C6743.07 1033.46 6743.14 1033.5 6743.21 1033.55C6744.13 1034.15 6745.07 1034.73 6746.01 1035.3C6746.13 1035.38 6746.26 1035.45 6746.38 1035.53C6746.73 1035.73 6747.08 1035.94 6747.43 1036.15C6747.56 1036.22 6747.68 1036.3 6747.81 1036.37C6748.18 1036.58 6748.54 1036.79 6748.91 1037C6749.03 1037.06 6749.14 1037.13 6749.25 1037.19C6750.21 1037.73 6751.18 1038.26 6752.15 1038.77C6752.24 1038.81 6752.32 1038.86 6752.41 1038.9C6752.8 1039.11 6753.2 1039.31 6753.6 1039.51C6753.73 1039.58 6753.87 1039.65 6754 1039.72C6754.37 1039.9 6754.75 1040.09 6755.12 1040.27C6755.24 1040.33 6755.35 1040.38 6755.46 1040.44C6756.45 1040.92 6757.45 1041.38 6758.45 1041.84C6758.57 1041.89 6758.69 1041.94 6758.81 1042C6759.19 1042.17 6759.57 1042.33 6759.95 1042.5C6760.1 1042.56 6760.26 1042.63 6760.41 1042.7C6760.79 1042.86 6761.17 1043.02 6761.55 1043.18C6761.67 1043.23 6761.79 1043.28 6761.91 1043.33C6762.94 1043.75 6763.98 1044.16 6765.03 1044.56C6765.11 1044.58 6765.18 1044.61 6765.26 1044.64C6765.7 1044.81 6766.15 1044.97 6766.59 1045.13C6766.7 1045.17 6766.81 1045.21 6766.92 1045.25C6767.35 1045.4 6767.78 1045.56 6768.22 1045.71C6768.33 1045.74 6768.44 1045.78 6768.55 1045.82C6769.59 1046.18 6770.64 1046.52 6771.7 1046.84C6771.85 1046.89 6771.99 1046.93 6772.14 1046.98C6772.53 1047.1 6772.93 1047.22 6773.33 1047.33C6773.46 1047.37 6773.6 1047.41 6773.73 1047.45C6774.16 1047.57 6774.59 1047.7 6775.02 1047.82C6775.14 1047.85 6775.25 1047.88 6775.37 1047.91C6775.84 1048.04 6776.31 1048.17 6776.79 1048.29C6776.91 1048.32 6777.03 1048.35 6777.16 1048.38C6777.63 1048.5 6778.1 1048.62 6778.57 1048.74C6778.77 1048.79 6778.97 1048.83 6779.17 1048.88C6779.5 1048.96 6779.82 1049.03 6780.14 1049.11C6780.37 1049.16 6780.6 1049.21 6780.83 1049.26C6781.2 1049.34 6781.57 1049.42 6781.95 1049.5C6782.09 1049.53 6782.23 1049.56 6782.37 1049.59C6783.46 1049.82 6784.57 1050.03 6785.68 1050.22C6785.84 1050.25 6786 1050.28 6786.16 1050.31C6786.55 1050.37 6786.94 1050.44 6787.33 1050.5C6787.51 1050.53 6787.7 1050.56 6787.89 1050.59C6788.31 1050.66 6788.73 1050.72 6789.16 1050.79C6789.27 1050.8 6789.39 1050.82 6789.5 1050.83C6790.63 1050.99 6791.76 1051.14 6792.9 1051.27C6793.05 1051.28 6793.2 1051.3 6793.36 1051.32C6793.77 1051.36 6794.18 1051.4 6794.59 1051.44C6794.77 1051.46 6794.96 1051.48 6795.15 1051.5C6795.56 1051.54 6795.97 1051.57 6796.38 1051.6C6796.53 1051.62 6796.69 1051.63 6796.85 1051.64C6797.35 1051.68 6797.86 1051.72 6798.37 1051.75C6798.5 1051.76 6798.62 1051.77 6798.75 1051.78C6799.23 1051.81 6799.71 1051.83 6800.2 1051.86C6800.4 1051.87 6800.6 1051.87 6800.8 1051.88C6801.2 1051.9 6801.6 1051.92 6802 1051.93C6802.18 1051.94 6802.36 1051.94 6802.54 1051.95C6802.92 1051.96 6803.31 1051.97 6803.69 1051.98C6803.9 1051.98 6804.12 1051.98 6804.33 1051.99C6804.88 1052 6805.44 1052 6806 1052C6806.56 1052 6807.12 1052 6807.68 1051.99C6807.89 1051.98 6808.1 1051.98 6808.32 1051.98C6808.7 1051.97 6809.08 1051.96 6809.46 1051.95C6809.65 1051.94 6809.83 1051.94 6810.01 1051.93C6810.4 1051.92 6810.8 1051.9 6811.2 1051.88C6811.4 1051.87 6811.61 1051.87 6811.81 1051.86C6812.28 1051.83 6812.75 1051.81 6813.22 1051.78C6813.37 1051.77 6813.52 1051.76 6813.67 1051.75C6814.16 1051.72 6814.66 1051.68 6815.15 1051.64C6815.31 1051.63 6815.48 1051.62 6815.64 1051.6C6816.05 1051.57 6816.45 1051.54 6816.84 1051.5C6817.04 1051.48 6817.23 1051.46 6817.43 1051.44C6817.83 1051.4 6818.23 1051.36 6818.62 1051.32C6818.79 1051.3 6818.95 1051.28 6819.12 1051.27C6820.25 1051.14 6821.37 1051 6822.49 1050.84C6822.62 1050.82 6822.75 1050.8 6822.88 1050.78C6823.28 1050.72 6823.69 1050.66 6824.1 1050.59C6824.3 1050.56 6824.5 1050.53 6824.7 1050.5C6825.07 1050.44 6825.44 1050.38 6825.81 1050.31C6825.99 1050.28 6826.17 1050.25 6826.34 1050.22C6827.44 1050.03 6828.53 1049.82 6829.62 1049.59C6829.77 1049.56 6829.91 1049.53 6830.06 1049.5C6830.46 1049.42 6830.86 1049.33 6831.27 1049.24C6831.43 1049.2 6831.6 1049.16 6831.77 1049.13C6832.13 1049.05 6832.48 1048.96 6832.84 1048.88C6833.05 1048.83 6833.25 1048.78 6833.46 1048.73C6833.87 1048.63 6834.28 1048.53 6834.69 1048.42C6834.9 1048.37 6835.11 1048.32 6835.32 1048.26C6835.75 1048.15 6836.18 1048.04 6836.61 1047.92C6836.75 1047.88 6836.89 1047.84 6837.03 1047.8C6837.44 1047.69 6837.84 1047.58 6838.24 1047.46C6838.4 1047.41 6838.55 1047.37 6838.71 1047.32C6839.08 1047.22 6839.44 1047.11 6839.8 1047C6839.98 1046.94 6840.15 1046.89 6840.33 1046.84C6841.36 1046.52 6842.4 1046.18 6843.42 1045.83C6843.56 1045.78 6843.7 1045.74 6843.84 1045.69C6844.24 1045.55 6844.64 1045.41 6845.05 1045.26C6845.18 1045.22 6845.31 1045.17 6845.45 1045.12C6845.88 1044.96 6846.31 1044.81 6846.74 1044.64C6846.82 1044.61 6846.89 1044.59 6846.97 1044.56C6848.01 1044.16 6849.05 1043.75 6850.08 1043.33C6850.23 1043.27 6850.38 1043.21 6850.53 1043.15C6850.87 1043 6851.21 1042.86 6851.54 1042.72C6851.73 1042.64 6851.91 1042.56 6852.1 1042.48C6852.43 1042.33 6852.77 1042.18 6853.11 1042.03C6853.27 1041.96 6853.43 1041.89 6853.58 1041.82C6854.58 1041.38 6855.56 1040.91 6856.54 1040.44C6856.65 1040.39 6856.77 1040.33 6856.88 1040.27C6857.26 1040.09 6857.63 1039.9 6858 1039.72C6858.14 1039.65 6858.28 1039.58 6858.41 1039.51C6858.78 1039.32 6859.15 1039.13 6859.52 1038.94C6859.64 1038.88 6859.76 1038.82 6859.88 1038.75C6860.84 1038.25 6861.78 1037.74 6862.71 1037.21C6862.87 1037.13 6863.02 1037.04 6863.17 1036.95C6863.5 1036.77 6863.82 1036.59 6864.13 1036.4C6864.3 1036.31 6864.46 1036.21 6864.63 1036.12C6864.93 1035.94 6865.22 1035.76 6865.52 1035.58C6865.69 1035.48 6865.86 1035.38 6866.03 1035.28C6866.95 1034.72 6867.85 1034.16 6868.75 1033.58C6868.87 1033.5 6868.99 1033.43 6869.1 1033.35C6869.43 1033.14 6869.75 1032.92 6870.08 1032.71C6870.22 1032.61 6870.37 1032.52 6870.51 1032.42C6870.89 1032.17 6871.26 1031.92 6871.63 1031.66C6871.69 1031.62 6871.75 1031.58 6871.82 1031.53C6872.72 1030.91 6873.61 1030.28 6874.49 1029.63C6874.61 1029.54 6874.73 1029.45 6874.86 1029.36C6875.17 1029.13 6875.49 1028.89 6875.8 1028.66C6875.93 1028.56 6876.06 1028.46 6876.19 1028.36C6876.55 1028.09 6876.91 1027.81 6877.26 1027.53C6877.32 1027.49 6877.37 1027.45 6877.43 1027.41C6878.31 1026.72 6879.17 1026.02 6880.03 1025.31C6880.11 1025.24 6880.2 1025.17 6880.28 1025.1C6880.59 1024.84 6880.9 1024.58 6881.21 1024.32C6881.35 1024.2 6881.49 1024.08 6881.63 1023.95C6881.92 1023.71 6882.2 1023.46 6882.49 1023.21C6882.6 1023.11 6882.72 1023.01 6882.84 1022.9C6883.64 1022.19 6884.43 1021.47 6885.22 1020.74C6885.32 1020.64 6885.43 1020.54 6885.53 1020.44C6885.83 1020.16 6886.12 1019.88 6886.42 1019.6C6886.52 1019.5 6886.62 1019.4 6886.72 1019.3C6887.04 1019 6887.34 1018.7 6887.65 1018.39C6887.73 1018.32 6887.81 1018.24 6887.89 1018.16C6888.67 1017.38 6889.44 1016.59 6890.2 1015.79C6890.26 1015.73 6890.31 1015.67 6890.37 1015.61C6890.68 1015.29 6890.98 1014.96 6891.29 1014.62C6891.39 1014.52 6891.49 1014.41 6891.58 1014.3C6891.84 1014.02 6892.1 1013.74 6892.35 1013.46C6892.48 1013.32 6892.6 1013.18 6892.72 1013.04C6893.42 1012.26 6894.1 1011.46 6894.78 1010.66C6894.86 1010.57 6894.94 1010.47 6895.02 1010.38C6895.31 1010.03 6895.6 1009.68 6895.88 1009.33C6895.96 1009.24 6896.04 1009.15 6896.11 1009.05C6896.4 1008.69 6896.69 1008.33 6896.98 1007.97C6897.03 1007.91 6897.08 1007.84 6897.13 1007.78C6897.81 1006.92 6898.48 1006.04 6899.14 1005.16C6899.21 1005.06 6899.28 1004.96 6899.35 1004.87C6899.6 1004.53 6899.85 1004.19 6900.1 1003.85C6900.18 1003.73 6900.27 1003.61 6900.35 1003.49C6900.62 1003.12 6900.89 1002.74 6901.15 1002.36C6901.2 1002.3 6901.24 1002.24 6901.28 1002.18C6901.6 1001.72 6901.92 1001.26 6902.23 1000.8C6902.23 1000.8 6902.23 1000.79 6902.24 1000.79C6904.71 997.125 6909.57 995.798 6913.4 998.006L6948.05 1018.01C6919.69 1067.03 6866.7 1100 6806 1100Z" fill="white" stroke="black" id="n849"/>
</mask>
</defs>
  <g clip-path="url(#clip__asset)" transform="translate(-6614.0 -912.0)"><path d="M6806 1124C6739.29 1124 6680.69 1089.25 6647.32 1036.86C6644.94 1033.13 6646.27 1028.22 6650.1 1026.01L6663.95 1018.01C6692.31 1067.03 6745.3 1100 6806 1100C6866.7 1100 6919.69 1067.02 6948.05 1018.01L6961.9 1026.01C6965.73 1028.22 6967.06 1033.13 6964.68 1036.86C6931.31 1089.25 6872.72 1124 6806 1124Z" fill="white" stroke="white" id="n832"/>
<path d="M6806 1100C6745.3 1100 6692.31 1067.03 6663.95 1018.01L6698.61 998.006C6702.42 995.801 6707.28 997.121 6709.75 1000.77C6710.07 1001.24 6710.4 1001.71 6710.72 1002.18C6710.76 1002.24 6710.8 1002.29 6710.84 1002.35C6711.12 1002.75 6711.41 1003.16 6711.7 1003.56C6711.74 1003.63 6711.79 1003.69 6711.84 1003.76C6712.14 1004.17 6712.44 1004.58 6712.74 1005C6712.77 1005.03 6712.79 1005.06 6712.82 1005.09C6713.83 1006.46 6714.88 1007.81 6715.95 1009.13C6715.99 1009.17 6716.02 1009.21 6716.05 1009.25C6717.12 1010.56 6718.21 1011.84 6719.33 1013.09C6719.4 1013.18 6719.47 1013.26 6719.54 1013.34C6719.85 1013.68 6720.17 1014.03 6720.48 1014.37C6720.53 1014.43 6720.59 1014.49 6720.65 1014.55C6722.16 1016.2 6723.73 1017.8 6725.34 1019.36C6725.4 1019.42 6725.46 1019.48 6725.51 1019.53C6725.86 1019.87 6726.21 1020.2 6726.56 1020.53C6726.62 1020.58 6726.68 1020.64 6726.74 1020.7C6727.55 1021.46 6728.37 1022.2 6729.21 1022.94C6729.27 1023 6729.33 1023.05 6729.39 1023.1C6729.74 1023.41 6730.08 1023.71 6730.43 1024.01C6730.53 1024.09 6730.63 1024.18 6730.73 1024.26C6731.1 1024.58 6731.47 1024.89 6731.84 1025.2C6731.87 1025.22 6731.9 1025.25 6731.93 1025.27C6732.8 1026 6733.68 1026.71 6734.58 1027.41C6734.63 1027.45 6734.68 1027.49 6734.73 1027.53C6735.11 1027.82 6735.49 1028.11 6735.87 1028.4C6735.96 1028.47 6736.05 1028.54 6736.14 1028.61C6736.5 1028.88 6736.87 1029.16 6737.24 1029.43C6737.32 1029.49 6737.4 1029.55 6737.47 1029.6C6738.81 1030.58 6740.17 1031.53 6741.54 1032.46C6741.65 1032.53 6741.76 1032.6 6741.86 1032.67C6742.24 1032.92 6742.62 1033.17 6743 1033.41C6743.07 1033.46 6743.14 1033.5 6743.21 1033.55C6744.13 1034.15 6745.07 1034.73 6746.01 1035.3C6746.13 1035.38 6746.26 1035.45 6746.38 1035.53C6746.73 1035.73 6747.08 1035.94 6747.43 1036.15C6747.56 1036.22 6747.68 1036.3 6747.81 1036.37C6748.18 1036.58 6748.54 1036.79 6748.91 1037C6749.03 1037.06 6749.14 1037.13 6749.25 1037.19C6750.21 1037.73 6751.18 1038.26 6752.15 1038.77C6752.24 1038.81 6752.32 1038.86 6752.41 1038.9C6752.8 1039.11 6753.2 1039.31 6753.6 1039.51C6753.73 1039.58 6753.87 1039.65 6754 1039.72C6754.37 1039.9 6754.75 1040.09 6755.12 1040.27C6755.24 1040.33 6755.35 1040.38 6755.46 1040.44C6756.45 1040.92 6757.45 1041.38 6758.45 1041.84C6758.57 1041.89 6758.69 1041.94 6758.81 1042C6759.19 1042.17 6759.57 1042.33 6759.95 1042.5C6760.1 1042.56 6760.26 1042.63 6760.41 1042.7C6760.79 1042.86 6761.17 1043.02 6761.55 1043.18C6761.67 1043.23 6761.79 1043.28 6761.91 1043.33C6762.94 1043.75 6763.98 1044.16 6765.03 1044.56C6765.11 1044.58 6765.18 1044.61 6765.26 1044.64C6765.7 1044.81 6766.15 1044.97 6766.59 1045.13C6766.7 1045.17 6766.81 1045.21 6766.92 1045.25C6767.35 1045.4 6767.78 1045.56 6768.22 1045.71C6768.33 1045.74 6768.44 1045.78 6768.55 1045.82C6769.59 1046.18 6770.64 1046.52 6771.7 1046.84C6771.85 1046.89 6771.99 1046.93 6772.14 1046.98C6772.53 1047.1 6772.93 1047.22 6773.33 1047.33C6773.46 1047.37 6773.6 1047.41 6773.73 1047.45C6774.16 1047.57 6774.59 1047.7 6775.02 1047.82C6775.14 1047.85 6775.25 1047.88 6775.37 1047.91C6775.84 1048.04 6776.31 1048.17 6776.79 1048.29C6776.91 1048.32 6777.03 1048.35 6777.16 1048.38C6777.63 1048.5 6778.1 1048.62 6778.57 1048.74C6778.77 1048.79 6778.97 1048.83 6779.17 1048.88C6779.5 1048.96 6779.82 1049.03 6780.14 1049.11C6780.37 1049.16 6780.6 1049.21 6780.83 1049.26C6781.2 1049.34 6781.57 1049.42 6781.95 1049.5C6782.09 1049.53 6782.23 1049.56 6782.37 1049.59C6783.46 1049.82 6784.57 1050.03 6785.68 1050.22C6785.84 1050.25 6786 1050.28 6786.16 1050.31C6786.55 1050.37 6786.94 1050.44 6787.33 1050.5C6787.51 1050.53 6787.7 1050.56 6787.89 1050.59C6788.31 1050.66 6788.73 1050.72 6789.16 1050.79C6789.27 1050.8 6789.39 1050.82 6789.5 1050.83C6790.63 1050.99 6791.76 1051.14 6792.9 1051.27C6793.05 1051.28 6793.2 1051.3 6793.36 1051.32C6793.77 1051.36 6794.18 1051.4 6794.59 1051.44C6794.77 1051.46 6794.96 1051.48 6795.15 1051.5C6795.56 1051.54 6795.97 1051.57 6796.38 1051.6C6796.53 1051.62 6796.69 1051.63 6796.85 1051.64C6797.35 1051.68 6797.86 1051.72 6798.37 1051.75C6798.5 1051.76 6798.62 1051.77 6798.75 1051.78C6799.23 1051.81 6799.71 1051.83 6800.2 1051.86C6800.4 1051.87 6800.6 1051.87 6800.8 1051.88C6801.2 1051.9 6801.6 1051.92 6802 1051.93C6802.18 1051.94 6802.36 1051.94 6802.54 1051.95C6802.92 1051.96 6803.31 1051.97 6803.69 1051.98C6803.9 1051.98 6804.12 1051.98 6804.33 1051.99C6804.88 1052 6805.44 1052 6806 1052C6806.56 1052 6807.12 1052 6807.68 1051.99C6807.89 1051.98 6808.1 1051.98 6808.32 1051.98C6808.7 1051.97 6809.08 1051.96 6809.46 1051.95C6809.65 1051.94 6809.83 1051.94 6810.01 1051.93C6810.4 1051.92 6810.8 1051.9 6811.2 1051.88C6811.4 1051.87 6811.61 1051.87 6811.81 1051.86C6812.28 1051.83 6812.75 1051.81 6813.22 1051.78C6813.37 1051.77 6813.52 1051.76 6813.67 1051.75C6814.16 1051.72 6814.66 1051.68 6815.15 1051.64C6815.31 1051.63 6815.48 1051.62 6815.64 1051.6C6816.05 1051.57 6816.45 1051.54 6816.84 1051.5C6817.04 1051.48 6817.23 1051.46 6817.43 1051.44C6817.83 1051.4 6818.23 1051.36 6818.62 1051.32C6818.79 1051.3 6818.95 1051.28 6819.12 1051.27C6820.25 1051.14 6821.37 1051 6822.49 1050.84C6822.62 1050.82 6822.75 1050.8 6822.88 1050.78C6823.28 1050.72 6823.69 1050.66 6824.1 1050.59C6824.3 1050.56 6824.5 1050.53 6824.7 1050.5C6825.07 1050.44 6825.44 1050.38 6825.81 1050.31C6825.99 1050.28 6826.17 1050.25 6826.34 1050.22C6827.44 1050.03 6828.53 1049.82 6829.62 1049.59C6829.77 1049.56 6829.91 1049.53 6830.06 1049.5C6830.46 1049.42 6830.86 1049.33 6831.27 1049.24C6831.43 1049.2 6831.6 1049.16 6831.77 1049.13C6832.13 1049.05 6832.48 1048.96 6832.84 1048.88C6833.05 1048.83 6833.25 1048.78 6833.46 1048.73C6833.87 1048.63 6834.28 1048.53 6834.69 1048.42C6834.9 1048.37 6835.11 1048.32 6835.32 1048.26C6835.75 1048.15 6836.18 1048.04 6836.61 1047.92C6836.75 1047.88 6836.89 1047.84 6837.03 1047.8C6837.44 1047.69 6837.84 1047.58 6838.24 1047.46C6838.4 1047.41 6838.55 1047.37 6838.71 1047.32C6839.08 1047.22 6839.44 1047.11 6839.8 1047C6839.98 1046.94 6840.15 1046.89 6840.33 1046.84C6841.36 1046.52 6842.4 1046.18 6843.42 1045.83C6843.56 1045.78 6843.7 1045.74 6843.84 1045.69C6844.24 1045.55 6844.64 1045.41 6845.05 1045.26C6845.18 1045.22 6845.31 1045.17 6845.45 1045.12C6845.88 1044.96 6846.31 1044.81 6846.74 1044.64C6846.82 1044.61 6846.89 1044.59 6846.97 1044.56C6848.01 1044.16 6849.05 1043.75 6850.08 1043.33C6850.23 1043.27 6850.38 1043.21 6850.53 1043.15C6850.87 1043 6851.21 1042.86 6851.54 1042.72C6851.73 1042.64 6851.91 1042.56 6852.1 1042.48C6852.43 1042.33 6852.77 1042.18 6853.11 1042.03C6853.27 1041.96 6853.43 1041.89 6853.58 1041.82C6854.58 1041.38 6855.56 1040.91 6856.54 1040.44C6856.65 1040.39 6856.77 1040.33 6856.88 1040.27C6857.26 1040.09 6857.63 1039.9 6858 1039.72C6858.14 1039.65 6858.28 1039.58 6858.41 1039.51C6858.78 1039.32 6859.15 1039.13 6859.52 1038.94C6859.64 1038.88 6859.76 1038.82 6859.88 1038.75C6860.84 1038.25 6861.78 1037.74 6862.71 1037.21C6862.87 1037.13 6863.02 1037.04 6863.17 1036.95C6863.5 1036.77 6863.82 1036.59 6864.13 1036.4C6864.3 1036.31 6864.46 1036.21 6864.63 1036.12C6864.93 1035.94 6865.22 1035.76 6865.52 1035.58C6865.69 1035.48 6865.86 1035.38 6866.03 1035.28C6866.95 1034.72 6867.85 1034.16 6868.75 1033.58C6868.87 1033.5 6868.99 1033.43 6869.1 1033.35C6869.43 1033.14 6869.75 1032.92 6870.08 1032.71C6870.22 1032.61 6870.37 1032.52 6870.51 1032.42C6870.89 1032.17 6871.26 1031.92 6871.63 1031.66C6871.69 1031.62 6871.75 1031.58 6871.82 1031.53C6872.72 1030.91 6873.61 1030.28 6874.49 1029.63C6874.61 1029.54 6874.73 1029.45 6874.86 1029.36C6875.17 1029.13 6875.49 1028.89 6875.8 1028.66C6875.93 1028.56 6876.06 1028.46 6876.19 1028.36C6876.55 1028.09 6876.91 1027.81 6877.26 1027.53C6877.32 1027.49 6877.37 1027.45 6877.43 1027.41C6878.31 1026.72 6879.17 1026.02 6880.03 1025.31C6880.11 1025.24 6880.2 1025.17 6880.28 1025.1C6880.59 1024.84 6880.9 1024.58 6881.21 1024.32C6881.35 1024.2 6881.49 1024.08 6881.63 1023.95C6881.92 1023.71 6882.2 1023.46 6882.49 1023.21C6882.6 1023.11 6882.72 1023.01 6882.84 1022.9C6883.64 1022.19 6884.43 1021.47 6885.22 1020.74C6885.32 1020.64 6885.43 1020.54 6885.53 1020.44C6885.83 1020.16 6886.12 1019.88 6886.42 1019.6C6886.52 1019.5 6886.62 1019.4 6886.72 1019.3C6887.04 1019 6887.34 1018.7 6887.65 1018.39C6887.73 1018.32 6887.81 1018.24 6887.89 1018.16C6888.67 1017.38 6889.44 1016.59 6890.2 1015.79C6890.26 1015.73 6890.31 1015.67 6890.37 1015.61C6890.68 1015.29 6890.98 1014.96 6891.29 1014.62C6891.39 1014.52 6891.49 1014.41 6891.58 1014.3C6891.84 1014.02 6892.1 1013.74 6892.35 1013.46C6892.48 1013.32 6892.6 1013.18 6892.72 1013.04C6893.42 1012.26 6894.1 1011.46 6894.78 1010.66C6894.86 1010.57 6894.94 1010.47 6895.02 1010.38C6895.31 1010.03 6895.6 1009.68 6895.88 1009.33C6895.96 1009.24 6896.04 1009.15 6896.11 1009.05C6896.4 1008.69 6896.69 1008.33 6896.98 1007.97C6897.03 1007.91 6897.08 1007.84 6897.13 1007.78C6897.81 1006.92 6898.48 1006.04 6899.14 1005.16C6899.21 1005.06 6899.28 1004.96 6899.35 1004.87C6899.6 1004.53 6899.85 1004.19 6900.1 1003.85C6900.18 1003.73 6900.27 1003.61 6900.35 1003.49C6900.62 1003.12 6900.89 1002.74 6901.15 1002.36C6901.2 1002.3 6901.24 1002.24 6901.28 1002.18C6901.6 1001.72 6901.92 1001.26 6902.23 1000.8C6902.23 1000.8 6902.23 1000.79 6902.24 1000.79C6904.71 997.125 6909.57 995.798 6913.4 998.006L6948.05 1018.01C6919.69 1067.03 6866.7 1100 6806 1100Z" fill="#F0F0F0" stroke="#F0F0F0" id="n833"/>
<path d="M6806 1124C6739.29 1124 6680.69 1089.25 6647.32 1036.86C6644.95 1033.13 6646.27 1028.22 6650.1 1026.01L6698.6 998.006C6702.43 995.798 6707.3 997.124 6709.76 1000.78C6730.6 1031.68 6765.93 1052 6806 1052C6846.07 1052 6881.4 1031.68 6902.24 1000.78C6904.71 997.124 6909.57 995.798 6913.4 998.006L6961.9 1026.01C6965.73 1028.22 6967.06 1033.13 6964.68 1036.86C6931.31 1089.25 6872.72 1124 6806 1124Z" stroke="#BEBEBE" id="n834"/>
<g mask="url(#mask95_68_6728)" id="n836">
<path d="M7062 936L6550 936" stroke="#BEBEBE" stroke-linecap="square" id="n837"/>
<path d="M6806 1192L6806 680" stroke="#BEBEBE" stroke-linecap="square" id="n838"/>
</g>
<path d="M6806 1052L6806 936" stroke="#BEBEBE" stroke-linecap="round" id="n839"/>
<rect x="6802" y="1052" width="8" height="72" fill="#BEBEBE" id="n840"/>
<g mask="url(#mask96_68_6728)" id="n842">
<mask id="mask97_68_6728" style="mask-type:alpha" maskUnits="userSpaceOnUse" x="6550" y="680" width="512" height="512">
<path d="M6806 744C6912.04 744 6998 829.961 6998 936C6998 1042.04 6912.04 1128 6806 1128C6699.96 1128 6614 1042.04 6614 936C6614 829.961 6699.96 744 6806 744ZM6806 768C6713.22 768 6638 843.216 6638 936C6638 1028.78 6713.22 1104 6806 1104C6898.78 1104 6974 1028.78 6974 936C6974 843.216 6898.78 768 6806 768Z" fill="black" id="n843"/>
</mask>
<g mask="url(#mask97_68_6728)" id="n844">
<path d="M6806 736V936M6806 936L6706 762.795M6806 936L6632.79 836M6806 936H6606M6806 936L6632.79 1036M6806 936L6706 1109.21M6806 936V1136M6806 936L6906 1109.21M6806 936L6979.21 1036M6806 936H7006M6806 936L6979.21 836M6806 936L6906 762.795" stroke="#BEBEBE" id="n845"/>
</g>
<mask id="mask98_68_6728" style="mask-type:alpha" maskUnits="userSpaceOnUse" x="6550" y="680" width="512" height="512">
<path d="M6806 744C6912.04 744 6998 829.961 6998 936C6998 1042.04 6912.04 1128 6806 1128C6699.96 1128 6614 1042.04 6614 936C6614 829.961 6699.96 744 6806 744ZM6806 772C6715.43 772 6642 845.425 6642 936C6642 1026.57 6715.43 1100 6806 1100C6896.57 1100 6970 1026.57 6970 936C6970 845.425 6896.57 772 6806 772Z" fill="black" id="n846"/>
</mask>
<g mask="url(#mask98_68_6728)" id="n847">
<path d="M6806 736V1136" stroke="#BEBEBE" id="n848"/>
</g>
</g>
<g mask="url(#mask99_68_6728)" id="n850">
<path d="M6848.46 1094.45C6834.91 1098.07 6820.68 1100 6806 1100V1052C6816.39 1052 6826.45 1050.63 6836.03 1048.07L6848.46 1094.45Z" fill="#BEBEBE" id="n851"/>
<path d="M6848.46 1094.45L6848.59 1094.93L6849.07 1094.8L6848.94 1094.32L6848.46 1094.45ZM6806 1100H6805.5V1100.5H6806V1100ZM6806 1052V1051.5H6805.5V1052H6806ZM6836.03 1048.07L6836.51 1047.94L6836.38 1047.46L6835.9 1047.59L6836.03 1048.07ZM6848.46 1094.45L6848.33 1093.97C6834.83 1097.57 6820.64 1099.5 6806 1099.5V1100V1100.5C6820.73 1100.5 6835 1098.56 6848.59 1094.93L6848.46 1094.45ZM6806 1100H6806.5V1052H6806H6805.5V1100H6806ZM6806 1052V1052.5C6816.43 1052.5 6826.54 1051.13 6836.16 1048.56L6836.03 1048.07L6835.9 1047.59C6826.36 1050.14 6816.34 1051.5 6806 1051.5V1052ZM6836.03 1048.07L6835.55 1048.2L6847.97 1094.58L6848.46 1094.45L6848.94 1094.32L6836.51 1047.94L6836.03 1048.07Z" fill="#BEBEBE" id="n852"/>
</g>
<rect x="6802" y="1052" width="8" height="72" fill="#BEBEBE" stroke="#BEBEBE" id="n853"/>
<path d="M6851.56 1089.43L6822.53 933.571C6820.75 924.029 6811.22 918.022 6801.84 920.535C6792.47 923.047 6787.22 933.013 6790.45 942.166L6843.23 1091.66C6843.99 1093.79 6846.25 1094.99 6848.43 1094.4C6850.61 1093.82 6851.97 1091.65 6851.56 1089.43Z" fill="#535353" stroke="#BEBEBE" id="n854"/>
<path d="M6893.94 1107.51C6891.85 1108.72 6889.29 1106.91 6889.53 1104.52L6891.37 1086.29C6891.47 1085.27 6892.54 1084.65 6893.48 1085.07L6910.18 1092.6C6912.37 1093.59 6912.66 1096.7 6910.57 1097.91L6893.94 1107.51Z" fill="#535353" stroke="#F7F7F7" stroke-linejoin="round" id="n855"/>
</g>
</svg>
