<?xml version='1.0' encoding='utf-8'?>
<svg xmlns="http://www.w3.org/2000/svg" xmlns:xlink="http://www.w3.org/1999/xlink" width="47.0" height="60.0" viewBox="0 0 47.0 60.0" fill="none">
  <defs><clipPath id="clip__asset"><rect x="0" y="0" width="47.0" height="60.0"/></clipPath><clipPath id="clip335_68_6728">
<rect width="28" height="20" fill="white" transform="translate(1987 277)" id="n1687"/>
</clipPath>
<clipPath id="clip336_68_6728">
<rect width="31" height="16" fill="white" transform="translate(1987 297)" id="n1688"/>
</clipPath>
<clipPath id="clip337_68_6728">
<rect width="23" height="16" fill="white" transform="translate(1987 313)" id="n1689"/>
</clipPath>
</defs>
  <g clip-path="url(#clip__asset)" transform="translate(-1979.0 -273.0)"><g clip-path="url(#clip335_68_6728)" id="n962">
<path d="M1993.13 293H1991.9V284.856C1991.9 284.547 1991.9 284.285 1991.9 284.072C1991.91 283.859 1991.92 283.661 1991.92 283.48C1991.93 283.288 1991.94 283.096 1991.95 282.904C1991.79 283.064 1991.64 283.203 1991.5 283.32C1991.36 283.427 1991.19 283.571 1990.99 283.752L1989.64 284.808L1988.99 283.96L1992.08 281.576H1993.13V293ZM2004.94 293H1997.49V291.96L2000.56 288.808C2001.12 288.243 2001.6 287.736 2001.98 287.288C2002.38 286.84 2002.68 286.397 2002.88 285.96C2003.08 285.523 2003.18 285.037 2003.18 284.504C2003.18 283.853 2002.99 283.357 2002.59 283.016C2002.21 282.664 2001.7 282.488 2001.07 282.488C2000.53 282.488 2000.04 282.584 1999.62 282.776C1999.19 282.968 1998.76 283.235 1998.32 283.576L1997.65 282.728C1997.95 282.472 1998.27 282.248 1998.62 282.056C1998.99 281.853 1999.37 281.699 1999.78 281.592C2000.19 281.475 2000.62 281.416 2001.07 281.416C2001.76 281.416 2002.36 281.539 2002.86 281.784C2003.38 282.029 2003.77 282.381 2004.05 282.84C2004.32 283.288 2004.46 283.821 2004.46 284.44C2004.46 284.899 2004.39 285.331 2004.26 285.736C2004.13 286.131 2003.94 286.52 2003.68 286.904C2003.43 287.277 2003.13 287.661 2002.77 288.056C2002.42 288.44 2002.03 288.845 2001.6 289.272L1999.07 291.8V291.848H2004.94V293ZM2013.68 284.232C2013.68 284.744 2013.58 285.192 2013.38 285.576C2013.19 285.949 2012.91 286.253 2012.55 286.488C2012.2 286.723 2011.78 286.888 2011.3 286.984V287.048C2012.21 287.155 2012.89 287.443 2013.35 287.912C2013.81 288.381 2014.04 289 2014.04 289.768C2014.04 290.429 2013.88 291.016 2013.57 291.528C2013.26 292.04 2012.79 292.44 2012.15 292.728C2011.52 293.016 2010.71 293.16 2009.72 293.16C2009.11 293.16 2008.54 293.112 2008.02 293.016C2007.51 292.92 2007.02 292.76 2006.56 292.536V291.352C2007.03 291.576 2007.55 291.757 2008.1 291.896C2008.67 292.024 2009.21 292.088 2009.73 292.088C2010.78 292.088 2011.53 291.88 2012 291.464C2012.47 291.048 2012.71 290.477 2012.71 289.752C2012.71 289.24 2012.58 288.835 2012.32 288.536C2012.07 288.227 2011.69 288.003 2011.2 287.864C2010.71 287.715 2010.13 287.64 2009.44 287.64H2008.31V286.552H2009.46C2010.08 286.552 2010.6 286.461 2011.03 286.28C2011.47 286.099 2011.8 285.843 2012.04 285.512C2012.27 285.171 2012.39 284.771 2012.39 284.312C2012.39 283.725 2012.19 283.277 2011.8 282.968C2011.41 282.648 2010.88 282.488 2010.21 282.488C2009.81 282.488 2009.43 282.531 2009.09 282.616C2008.76 282.691 2008.45 282.803 2008.15 282.952C2007.86 283.091 2007.57 283.261 2007.27 283.464L2006.64 282.6C2006.93 282.387 2007.25 282.189 2007.6 282.008C2007.97 281.827 2008.36 281.683 2008.79 281.576C2009.23 281.469 2009.69 281.416 2010.2 281.416C2011.36 281.416 2012.23 281.677 2012.8 282.2C2013.39 282.723 2013.68 283.4 2013.68 284.232Z" fill="#535353" id="n963"/>
</g>
<g clip-path="url(#clip336_68_6728)" id="n964">
<path d="M1988.07 309V300.789H1989.47V307.804H1992.93V309H1988.07ZM1996.67 302.664C1997.48 302.664 1998.08 302.836 1998.49 303.181C1998.89 303.526 1999.1 304.07 1999.1 304.814V309H1998.12L1997.84 308.137H1997.8C1997.62 308.36 1997.44 308.548 1997.25 308.701C1997.06 308.847 1996.85 308.95 1996.6 309.012C1996.36 309.081 1996.07 309.115 1995.73 309.115C1995.36 309.115 1995.03 309.046 1994.73 308.908C1994.44 308.77 1994.21 308.559 1994.04 308.275C1993.87 307.992 1993.78 307.635 1993.78 307.206C1993.78 306.562 1994.02 306.079 1994.5 305.757C1994.97 305.427 1995.69 305.247 1996.66 305.216L1997.73 305.182V304.86C1997.73 304.446 1997.63 304.151 1997.43 303.974C1997.24 303.798 1996.97 303.71 1996.61 303.71C1996.3 303.71 1996 303.756 1995.7 303.848C1995.41 303.94 1995.13 304.051 1994.85 304.181L1994.42 303.204C1994.72 303.043 1995.06 302.913 1995.45 302.813C1995.84 302.713 1996.25 302.664 1996.67 302.664ZM1996.95 306.067C1996.29 306.09 1995.83 306.202 1995.58 306.401C1995.32 306.6 1995.2 306.872 1995.2 307.217C1995.2 307.516 1995.29 307.735 1995.47 307.873C1995.66 308.003 1995.89 308.068 1996.18 308.068C1996.61 308.068 1996.98 307.946 1997.28 307.7C1997.58 307.447 1997.73 307.072 1997.73 306.573V306.045L1996.95 306.067ZM2002.31 302.341C2002.31 302.587 2002.3 302.824 2002.28 303.054C2002.27 303.284 2002.26 303.465 2002.25 303.595H2002.31C2002.48 303.334 2002.72 303.116 2003.01 302.939C2003.31 302.755 2003.69 302.664 2004.16 302.664C2004.88 302.664 2005.48 302.936 2005.93 303.48C2006.38 304.017 2006.61 304.818 2006.61 305.883C2006.61 306.589 2006.5 307.183 2006.3 307.666C2006.09 308.149 2005.8 308.513 2005.42 308.758C2005.05 308.996 2004.62 309.115 2004.12 309.115C2003.65 309.115 2003.28 309.031 2003 308.862C2002.71 308.693 2002.48 308.494 2002.31 308.264H2002.21L2001.96 309H2000.93V300.26H2002.31V302.341ZM2003.78 303.779C2003.42 303.779 2003.13 303.852 2002.91 303.997C2002.7 304.143 2002.55 304.362 2002.45 304.653C2002.36 304.944 2002.31 305.316 2002.31 305.768V305.883C2002.31 306.558 2002.41 307.079 2002.63 307.447C2002.84 307.808 2003.23 307.988 2003.8 307.988C2004.25 307.988 2004.6 307.808 2004.84 307.447C2005.07 307.079 2005.19 306.55 2005.19 305.86C2005.19 305.17 2005.07 304.653 2004.82 304.308C2004.59 303.955 2004.24 303.779 2003.78 303.779ZM2010.6 302.664C2011.15 302.664 2011.62 302.778 2012.02 303.008C2012.43 303.231 2012.74 303.553 2012.95 303.974C2013.17 304.388 2013.28 304.891 2013.28 305.481V306.205H2009.15C2009.16 306.788 2009.32 307.24 2009.63 307.562C2009.94 307.877 2010.36 308.034 2010.91 308.034C2011.31 308.034 2011.66 307.996 2011.98 307.919C2012.3 307.842 2012.63 307.727 2012.97 307.574V308.689C2012.65 308.835 2012.33 308.942 2012 309.012C2011.68 309.081 2011.29 309.115 2010.84 309.115C2010.23 309.115 2009.7 309 2009.23 308.77C2008.76 308.532 2008.4 308.176 2008.14 307.7C2007.88 307.225 2007.74 306.635 2007.74 305.929C2007.74 305.224 2007.86 304.63 2008.1 304.147C2008.34 303.664 2008.67 303.296 2009.1 303.043C2009.53 302.79 2010.03 302.664 2010.6 302.664ZM2010.6 303.698C2010.19 303.698 2009.86 303.829 2009.62 304.089C2009.37 304.342 2009.23 304.722 2009.18 305.228H2011.93C2011.93 304.921 2011.88 304.657 2011.78 304.434C2011.69 304.204 2011.54 304.024 2011.34 303.894C2011.15 303.764 2010.9 303.698 2010.6 303.698ZM2016.13 309H2014.75V300.26H2016.13V309Z" fill="#535353" id="n965"/>
</g>
<g clip-path="url(#clip337_68_6728)" id="n966">
<path d="M1994.33 322.102C1994.33 322.685 1994.21 323.206 1993.97 323.666C1993.74 324.118 1993.39 324.475 1992.91 324.735C1992.44 324.988 1991.86 325.115 1991.15 325.115C1990.14 325.115 1989.37 324.843 1988.84 324.298C1988.31 323.746 1988.05 323.007 1988.05 322.079V316.789H1988.97V322.102C1988.97 322.807 1989.15 323.352 1989.53 323.735C1989.91 324.118 1990.46 324.31 1991.2 324.31C1991.7 324.31 1992.12 324.218 1992.44 324.034C1992.77 323.85 1993.01 323.597 1993.16 323.275C1993.33 322.945 1993.41 322.558 1993.41 322.113V316.789H1994.33V322.102ZM1999.25 318.732C1999.97 318.732 2000.52 318.913 2000.9 319.273C2001.27 319.626 2001.46 320.197 2001.46 320.986V325H2000.56V321.055C2000.56 320.526 2000.45 320.135 2000.21 319.882C1999.97 319.629 1999.61 319.503 1999.13 319.503C1998.44 319.503 1997.96 319.695 1997.68 320.078C1997.39 320.461 1997.25 321.021 1997.25 321.757V325H1996.36V318.847H1997.08L1997.22 319.756H1997.26C1997.4 319.534 1997.57 319.35 1997.77 319.204C1997.97 319.051 1998.2 318.936 1998.45 318.859C1998.7 318.775 1998.97 318.732 1999.25 318.732ZM2004.28 318.847V325H2003.39V318.847H2004.28ZM2003.85 316.547C2004 316.547 2004.13 316.597 2004.23 316.697C2004.33 316.797 2004.39 316.95 2004.39 317.157C2004.39 317.349 2004.33 317.498 2004.23 317.605C2004.13 317.705 2004 317.755 2003.85 317.755C2003.68 317.755 2003.55 317.705 2003.44 317.605C2003.34 317.498 2003.29 317.349 2003.29 317.157C2003.29 316.95 2003.34 316.797 2003.44 316.697C2003.55 316.597 2003.68 316.547 2003.85 316.547ZM2008.22 324.367C2008.38 324.367 2008.53 324.356 2008.69 324.333C2008.85 324.302 2008.98 324.272 2009.09 324.241V324.931C2008.97 324.985 2008.82 325.027 2008.63 325.058C2008.45 325.096 2008.26 325.115 2008.07 325.115C2007.74 325.115 2007.45 325.058 2007.19 324.942C2006.93 324.827 2006.72 324.636 2006.56 324.367C2006.41 324.091 2006.33 323.712 2006.33 323.229V319.56H2005.44V319.112L2006.34 318.767L2006.69 317.421H2007.24V318.847H2009.04V319.56H2007.24V323.206C2007.24 323.597 2007.32 323.888 2007.49 324.08C2007.67 324.272 2007.91 324.367 2008.22 324.367Z" fill="#535353" id="n967"/>
</g>
</g>
</svg>
