<?xml version='1.0' encoding='utf-8'?>
<svg xmlns="http://www.w3.org/2000/svg" xmlns:xlink="http://www.w3.org/1999/xlink" width="615.0" height="400.0" viewBox="0 0 615.0 400.0" fill="none">
  <defs><clipPath id="clip__asset"><rect x="0" y="0" width="615.0" height="400.0"/></clipPath><mask id="mask19_68_6728" style="mask-type:alpha" maskUnits="userSpaceOnUse" x="1685" y="249" width="10" height="30">
<path d="M1686 252C1686 250.895 1686.9 250 1688 250H1692C1693.1 250 1694 250.895 1694 252V276C1694 277.105 1693.1 278 1692 278H1688C1686.9 278 1686 277.105 1686 276V252Z" fill="#F0F0F0" stroke="#F0F0F0" id="n251"/>
</mask>
<mask id="mask20_68_6728" style="mask-type:alpha" maskUnits="userSpaceOnUse" x="1685" y="321" width="10" height="30">
<path d="M1686 324C1686 322.895 1686.9 322 1688 322H1692C1693.1 322 1694 322.895 1694 324V348C1694 349.105 1693.1 350 1692 350H1688C1686.9 350 1686 349.105 1686 348V324Z" fill="#F0F0F0" stroke="#F0F0F0" id="n257"/>
</mask>
<mask id="mask21_68_6728" style="mask-type:alpha" maskUnits="userSpaceOnUse" x="1798" y="261" width="38" height="10">
<path d="M1799 262H1835V268C1835 269.105 1834.1 270 1833 270H1801C1799.9 270 1799 269.105 1799 268V262Z" fill="#F0F0F0" stroke="#F0F0F0" id="n270"/>
</mask>
<mask id="mask22_68_6728" style="mask-type:alpha" maskUnits="userSpaceOnUse" x="1798" y="333" width="38" height="10">
<path d="M1799 334H1835V340C1835 341.105 1834.1 342 1833 342H1801C1799.9 342 1799 341.105 1799 340V334Z" fill="#F0F0F0" stroke="#F0F0F0" id="n278"/>
</mask>
<mask id="mask23_68_6728" style="mask-type:alpha" maskUnits="userSpaceOnUse" x="1920" y="247" width="34" height="34">
<rect x="1953" y="248" width="32" height="32" rx="2" transform="rotate(90 1953 248)" fill="white" stroke="#BEBEBE" id="n292"/>
</mask>
<mask id="mask24_68_6728" style="mask-type:alpha" maskUnits="userSpaceOnUse" x="1920" y="319" width="34" height="34">
<rect x="1953" y="320" width="32" height="32" rx="2" transform="rotate(90 1953 320)" fill="white" stroke="#BEBEBE" id="n305"/>
</mask>
<clipPath id="clip11_68_6728">
<rect width="48" height="48" fill="white" transform="translate(1666 384)" id="n455"/>
</clipPath>
</defs>
  <g clip-path="url(#clip__asset)" transform="translate(-1566.0 -120.0)"><path d="M1566 152C1566 134.327 1580.33 120 1598 120H2149C2166.67 120 2181 134.327 2181 152V488C2181 505.673 2166.67 520 2149 520H1598C1580.33 520 1566 505.673 1566 488V152Z" fill="#F7F7F7" id="n244"/>
<path d="M1598 120V121H2149V120V119H1598V120ZM2181 152H2180V488H2181H2182V152H2181ZM2149 520V519H1598V520V521H2149V520ZM1566 488H1567V152H1566H1565V488H1566ZM1598 520V519C1580.88 519 1567 505.121 1567 488H1566H1565C1565 506.225 1579.77 521 1598 521V520ZM2181 488H2180C2180 505.121 2166.12 519 2149 519V520V521C2167.23 521 2182 506.225 2182 488H2181ZM2149 120V121C2166.12 121 2180 134.879 2180 152H2181H2182C2182 133.775 2167.23 119 2149 119V120ZM1598 120V119C1579.77 119 1565 133.775 1565 152H1566H1567C1567 134.879 1580.88 121 1598 121V120Z" fill="black" fill-opacity="0.1" id="n245"/>
<path d="M1724.67 220V220.5H1730C1731.93 220.5 1733.5 222.067 1733.5 224V228.978H1734V233.955H1733.5V243.911H1734V248.889H1733.5V258.845H1734V263.822H1733.5V273.777H1734V278.756H1733.5V288.711H1734V293.688H1733.5V303.645H1734V308.622H1733.5V318.578H1734V323.556H1733.5V333.511H1734V338.489H1733.5V348.444H1734V353.422H1733.5V363.378H1734V368.355H1733.5V378.312H1734V383.289H1733.5V393.244H1734V398.223H1733.5V408.178H1734V413.155H1733.5V423.111H1734V428.089H1733.5V438.045H1734V443.022H1733.5V448C1733.5 449.933 1731.93 451.5 1730 451.5H1724.67V452H1719.33V451.5H1708.67V452H1703.33V451.5H1692.67V452H1687.33V451.5H1676.67V452H1671.33V451.5H1660.67V452H1655.33V451.5H1650C1648.07 451.5 1646.5 449.933 1646.5 448V443.022H1646V438.045H1646.5V428.089H1646V423.111H1646.5V413.155H1646V408.178H1646.5V398.223H1646V393.244H1646.5V383.289H1646V378.312H1646.5V368.355H1646V363.378H1646.5V353.422H1646V348.444H1646.5V338.489H1646V333.511H1646.5V323.556H1646V318.578H1646.5V308.622H1646V303.645H1646.5V293.688H1646V288.711H1646.5V278.756H1646V273.777H1646.5V263.822H1646V258.845H1646.5V248.889H1646V243.911H1646.5V233.955H1646V228.978H1646.5V224C1646.5 222.067 1648.07 220.5 1650 220.5H1655.33V220H1660.67V220.5H1671.33V220H1676.67V220.5H1687.33V220H1692.67V220.5H1703.33V220H1708.67V220.5H1719.33V220H1724.67Z" fill="#F7F7F7" id="n246"/>
<path d="M1689.59 241.57L1685.56 247.21C1685.33 247.54 1685.56 248 1685.97 248H1694.03C1694.44 248 1694.67 247.54 1694.44 247.21L1690.41 241.57C1690.21 241.291 1689.79 241.291 1689.59 241.57Z" fill="#BEBEBE" id="n248"/>
<circle cx="1690" cy="264" r="18" fill="white" stroke="#BEBEBE" id="n249"/>
<path d="M1686 252C1686 250.895 1686.9 250 1688 250H1692C1693.1 250 1694 250.895 1694 252V276C1694 277.105 1693.1 278 1692 278H1688C1686.9 278 1686 277.105 1686 276V252Z" fill="#F0F0F0" stroke="#F0F0F0" id="n250"/>
<g mask="url(#mask19_68_6728)" id="n252">
<rect x="1686" y="256" width="8" height="8" fill="#2D548B" stroke="#2D548B" id="n253"/>
</g>
<path d="M1689.59 313.57L1685.56 319.21C1685.33 319.54 1685.56 320 1685.97 320H1694.03C1694.44 320 1694.67 319.54 1694.44 319.21L1690.41 313.57C1690.21 313.291 1689.79 313.291 1689.59 313.57Z" fill="#BEBEBE" id="n254"/>
<circle cx="1690" cy="336" r="18" fill="white" stroke="#BEBEBE" id="n255"/>
<path d="M1686 324C1686 322.895 1686.9 322 1688 322H1692C1693.1 322 1694 322.895 1694 324V348C1694 349.105 1693.1 350 1692 350H1688C1686.9 350 1686 349.105 1686 348V324Z" fill="#F0F0F0" stroke="#F0F0F0" id="n256"/>
<g mask="url(#mask20_68_6728)" id="n258">
<rect x="1686" y="328" width="8" height="8" fill="#535353" stroke="#535353" id="n259"/>
</g>
<g clip-path="url(#clip11_68_6728)" id="n260">
<path fill-rule="evenodd" clip-rule="evenodd" d="M1686.13 390.417L1689.59 385.57C1689.79 385.291 1690.21 385.291 1690.41 385.57L1693.87 390.417C1692.62 390.144 1691.33 390 1690 390C1688.67 390 1687.38 390.144 1686.13 390.417Z" fill="#BEBEBE" id="n261"/>
<circle cx="1690" cy="408" r="18" stroke="#BEBEBE" id="n262"/>
<path d="M1686 396C1686 394.895 1686.9 394 1688 394H1692C1693.1 394 1694 394.895 1694 396V420C1694 421.105 1693.1 422 1692 422H1688C1686.9 422 1686 421.105 1686 420V396Z" stroke="#BEBEBE" id="n263"/>
<rect x="1686" y="407" width="8" height="2" fill="#BEBEBE" id="n264"/>
</g>
<path d="M1851.67 220V220.5H1857C1858.93 220.5 1860.5 222.067 1860.5 224V228.978H1861V233.955H1860.5V243.911H1861V248.889H1860.5V258.845H1861V263.822H1860.5V273.777H1861V278.756H1860.5V288.711H1861V293.688H1860.5V303.645H1861V308.622H1860.5V318.578H1861V323.556H1860.5V333.511H1861V338.489H1860.5V348.444H1861V353.422H1860.5V363.378H1861V368.355H1860.5V378.312H1861V383.289H1860.5V393.244H1861V398.223H1860.5V408.178H1861V413.155H1860.5V423.111H1861V428.089H1860.5V438.045H1861V443.022H1860.5V448C1860.5 449.933 1858.93 451.5 1857 451.5H1851.67V452H1846.33V451.5H1835.67V452H1830.33V451.5H1819.67V452H1814.33V451.5H1803.67V452H1798.33V451.5H1787.67V452H1782.33V451.5H1777C1775.07 451.5 1773.5 449.933 1773.5 448V443.022H1773V438.045H1773.5V428.089H1773V423.111H1773.5V413.155H1773V408.178H1773.5V398.223H1773V393.244H1773.5V383.289H1773V378.312H1773.5V368.355H1773V363.378H1773.5V353.422H1773V348.444H1773.5V338.489H1773V333.511H1773.5V323.556H1773V318.578H1773.5V308.622H1773V303.645H1773.5V293.688H1773V288.711H1773.5V278.756H1773V273.777H1773.5V263.822H1773V258.845H1773.5V248.889H1773V243.911H1773.5V233.955H1773V228.978H1773.5V224C1773.5 222.067 1775.07 220.5 1777 220.5H1782.33V220H1787.67V220.5H1798.33V220H1803.67V220.5H1814.33V220H1819.67V220.5H1830.33V220H1835.67V220.5H1846.33V220H1851.67Z" fill="#F7F7F7" id="n265"/>
<path d="M1799 260C1799 258.895 1799.9 258 1801 258H1833C1834.1 258 1835 258.895 1835 260V268C1835 269.105 1834.1 270 1833 270H1801C1799.9 270 1799 269.105 1799 268V260Z" fill="white" id="n267"/>
<path d="M1799 262H1835V268C1835 269.105 1834.1 270 1833 270H1801C1799.9 270 1799 269.105 1799 268V262Z" fill="#F0F0F0" stroke="#F0F0F0" id="n268"/>
<path d="M1799 260C1799 258.895 1799.9 258 1801 258H1833C1834.1 258 1835 258.895 1835 260V268C1835 269.105 1834.1 270 1833 270H1801C1799.9 270 1799 269.105 1799 268V260Z" stroke="#BEBEBE" id="n269"/>
<g mask="url(#mask21_68_6728)" id="n271">
<path d="M1811 262H1817V270H1811V262Z" fill="#2D548B" id="n272"/>
<path d="M1811 262V261.5H1810.5V262H1811ZM1811 270H1810.5V270.5H1811V270ZM1811 262.5H1817V261.5H1811V262.5ZM1817 269.5H1811V270.5H1817V269.5ZM1811.5 270V262H1810.5V270H1811.5Z" fill="#2D548B" id="n273"/>
</g>
<rect x="1816.5" y="258" width="1" height="12" rx="0.5" fill="#2D548B" stroke="#2D548B" id="n274"/>
<path d="M1799 332C1799 330.895 1799.9 330 1801 330H1833C1834.1 330 1835 330.895 1835 332V340C1835 341.105 1834.1 342 1833 342H1801C1799.9 342 1799 341.105 1799 340V332Z" fill="white" id="n275"/>
<path d="M1799 334H1835V340C1835 341.105 1834.1 342 1833 342H1801C1799.9 342 1799 341.105 1799 340V334Z" fill="#F0F0F0" stroke="#F0F0F0" id="n276"/>
<path d="M1799 332C1799 330.895 1799.9 330 1801 330H1833C1834.1 330 1835 330.895 1835 332V340C1835 341.105 1834.1 342 1833 342H1801C1799.9 342 1799 341.105 1799 340V332Z" stroke="#BEBEBE" id="n277"/>
<g mask="url(#mask22_68_6728)" id="n279">
<path d="M1811 334H1817V342H1811V334Z" fill="#535353" id="n280"/>
<path d="M1811 334V333.5H1810.5V334H1811ZM1811 342H1810.5V342.5H1811V342ZM1811 334.5H1817V333.5H1811V334.5ZM1817 341.5H1811V342.5H1817V341.5ZM1811.5 342V334H1810.5V342H1811.5Z" fill="#535353" id="n281"/>
</g>
<rect x="1816.5" y="330" width="1" height="12" rx="0.5" fill="#535353" stroke="#535353" id="n282"/>
<path d="M1799 404C1799 402.895 1799.9 402 1801 402H1833C1834.1 402 1835 402.895 1835 404V412C1835 413.105 1834.1 414 1833 414H1801C1799.9 414 1799 413.105 1799 412V404Z" stroke="#BEBEBE" id="n283"/>
<rect x="1816.5" y="402" width="1" height="12" rx="0.5" fill="#BEBEBE" stroke="#BEBEBE" id="n284"/>
<path d="M1971.67 220V220.5H1977C1978.93 220.5 1980.5 222.067 1980.5 224V228.978H1981V233.955H1980.5V243.911H1981V248.889H1980.5V258.845H1981V263.822H1980.5V273.777H1981V278.756H1980.5V288.711H1981V293.688H1980.5V303.645H1981V308.622H1980.5V318.578H1981V323.556H1980.5V333.511H1981V338.489H1980.5V348.444H1981V353.422H1980.5V363.378H1981V368.355H1980.5V378.312H1981V383.289H1980.5V393.244H1981V398.223H1980.5V408.178H1981V413.155H1980.5V423.111H1981V428.089H1980.5V438.045H1981V443.022H1980.5V448C1980.5 449.933 1978.93 451.5 1977 451.5H1971.67V452H1966.33V451.5H1955.67V452H1950.33V451.5H1939.67V452H1934.33V451.5H1923.67V452H1918.33V451.5H1907.67V452H1902.33V451.5H1897C1895.07 451.5 1893.5 449.933 1893.5 448V443.022H1893V438.045H1893.5V428.089H1893V423.111H1893.5V413.155H1893V408.178H1893.5V398.223H1893V393.244H1893.5V383.289H1893V378.312H1893.5V368.355H1893V363.378H1893.5V353.422H1893V348.444H1893.5V338.489H1893V333.511H1893.5V323.556H1893V318.578H1893.5V308.622H1893V303.645H1893.5V293.688H1893V288.711H1893.5V278.756H1893V273.777H1893.5V263.822H1893V258.845H1893.5V248.889H1893V243.911H1893.5V233.955H1893V228.978H1893.5V224C1893.5 222.067 1895.07 220.5 1897 220.5H1902.33V220H1907.67V220.5H1918.33V220H1923.67V220.5H1934.33V220H1939.67V220.5H1950.33V220H1955.67V220.5H1966.33V220H1971.67Z" fill="#F7F7F7" id="n285"/>
<path d="M1936.59 242.57L1932.56 248.21C1932.33 248.54 1932.56 249 1932.97 249H1941.03C1941.44 249 1941.67 248.54 1941.44 248.21L1937.41 242.57C1937.21 242.291 1936.79 242.291 1936.59 242.57Z" fill="#BEBEBE" id="n287"/>
<path d="M1951 248C1952.1 248 1953 248.895 1953 250L1953 278C1953 279.105 1952.1 280 1951 280H1923C1921.9 280 1921 279.105 1921 278L1921 250C1921 248.895 1921.9 248 1923 248L1951 248Z" fill="white" stroke="#BEBEBE" id="n288"/>
<rect x="1925" y="248" width="8" height="32" fill="#F0F0F0" stroke="#F0F0F0" id="n289"/>
<rect x="1941" y="248" width="8" height="32" fill="#F0F0F0" stroke="#F0F0F0" id="n290"/>
<path d="M1951 248C1952.1 248 1953 248.895 1953 250L1953 278C1953 279.105 1952.1 280 1951 280H1923C1921.9 280 1921 279.105 1921 278L1921 250C1921 248.895 1921.9 248 1923 248L1951 248Z" stroke="#BEBEBE" id="n291"/>
<g mask="url(#mask23_68_6728)" id="n293">
<rect x="1925" y="269" width="8" height="11" fill="#9CC1F5" stroke="#9CC1F5" id="n294"/>
<rect x="1921" y="279" width="12" height="1" fill="#9CC1F5" stroke="#9CC1F5" id="n295"/>
<rect x="1925" y="268" width="8" height="1" rx="0.5" fill="#2D548B" stroke="#2D548B" id="n296"/>
</g>
<path d="M1941 257H1949V264H1941V257Z" fill="#2D548B" id="n297"/>
<path d="M1941 257V256.5H1940.5V257H1941ZM1949 257H1949.5V256.5H1949V257ZM1941 257.5H1949V256.5H1941V257.5ZM1948.5 257V264H1949.5V257H1948.5ZM1941.5 264V257H1940.5V264H1941.5Z" fill="#2D548B" id="n298"/>
<rect x="1941" y="263.5" width="12" height="1" rx="0.5" fill="#2D548B" stroke="#2D548B" id="n299"/>
<path d="M1936.59 314.57L1932.56 320.21C1932.33 320.54 1932.56 321 1932.97 321H1941.03C1941.44 321 1941.67 320.54 1941.44 320.21L1937.41 314.57C1937.21 314.291 1936.79 314.291 1936.59 314.57Z" fill="#BEBEBE" id="n300"/>
<path d="M1951 320C1952.1 320 1953 320.895 1953 322L1953 350C1953 351.105 1952.1 352 1951 352H1923C1921.9 352 1921 351.105 1921 350L1921 322C1921 320.895 1921.9 320 1923 320L1951 320Z" fill="white" stroke="#BEBEBE" id="n301"/>
<rect x="1925" y="320" width="8" height="32" fill="#F0F0F0" stroke="#F0F0F0" id="n302"/>
<rect x="1941" y="320" width="8" height="32" fill="#F0F0F0" stroke="#F0F0F0" id="n303"/>
<path d="M1951 320C1952.1 320 1953 320.895 1953 322L1953 350C1953 351.105 1952.1 352 1951 352H1923C1921.9 352 1921 351.105 1921 350L1921 322C1921 320.895 1921.9 320 1923 320L1951 320Z" stroke="#BEBEBE" id="n304"/>
<g mask="url(#mask24_68_6728)" id="n306">
<rect x="1925" y="341" width="8" height="11" fill="#BEBEBE" stroke="#BEBEBE" id="n307"/>
<rect x="1921" y="351" width="12" height="1" fill="#BEBEBE" stroke="#BEBEBE" id="n308"/>
<rect x="1925" y="340" width="8" height="1" rx="0.5" fill="#535353" stroke="#535353" id="n309"/>
</g>
<path d="M1941 329H1949V336H1941V329Z" fill="#535353" id="n310"/>
<path d="M1941 329V328.5H1940.5V329H1941ZM1949 329H1949.5V328.5H1949V329ZM1941 329.5H1949V328.5H1941V329.5ZM1948.5 329V336H1949.5V329H1948.5ZM1941.5 336V329H1940.5V336H1941.5Z" fill="#535353" id="n311"/>
<rect x="1941" y="335.5" width="12" height="1" rx="0.5" fill="#535353" stroke="#535353" id="n312"/>
<path d="M1936.64 386.189L1933.08 391.286C1932.87 391.585 1933.08 392 1933.44 392H1940.56C1940.92 392 1941.13 391.585 1940.92 391.286L1937.36 386.189C1937.18 385.937 1936.82 385.937 1936.64 386.189Z" fill="#BEBEBE" id="n313"/>
<path d="M1951 392C1952.1 392 1953 392.895 1953 394L1953 422C1953 423.105 1952.1 424 1951 424H1923C1921.9 424 1921 423.105 1921 422L1921 394C1921 392.895 1921.9 392 1923 392L1951 392Z" stroke="#BEBEBE" id="n314"/>
<rect x="1933" y="392" width="8" height="32" stroke="#BEBEBE" id="n315"/>
<path d="M1951 392C1952.1 392 1953 392.895 1953 394L1953 422C1953 423.105 1952.1 424 1951 424H1923C1921.9 424 1921 423.105 1921 422L1921 394C1921 392.895 1921.9 392 1923 392L1951 392Z" stroke="#BEBEBE" id="n316"/>
<rect x="1941" y="407.5" width="12" height="1" rx="0.5" fill="#BEBEBE" stroke="#BEBEBE" id="n317"/>
<path d="M2091.67 220V220.5H2097C2098.93 220.5 2100.5 222.067 2100.5 224V228.978H2101V233.955H2100.5V243.911H2101V248.889H2100.5V258.845H2101V263.822H2100.5V273.777H2101V278.756H2100.5V288.711H2101V293.688H2100.5V303.645H2101V308.622H2100.5V318.578H2101V323.556H2100.5V333.511H2101V338.489H2100.5V348.444H2101V353.422H2100.5V363.378H2101V368.355H2100.5V378.312H2101V383.289H2100.5V393.244H2101V398.223H2100.5V408.178H2101V413.155H2100.5V423.111H2101V428.089H2100.5V438.045H2101V443.022H2100.5V448C2100.5 449.933 2098.93 451.5 2097 451.5H2091.67V452H2086.33V451.5H2075.67V452H2070.33V451.5H2059.67V452H2054.33V451.5H2043.67V452H2038.33V451.5H2027.67V452H2022.33V451.5H2017C2015.07 451.5 2013.5 449.933 2013.5 448V443.022H2013V438.045H2013.5V428.089H2013V423.111H2013.5V413.155H2013V408.178H2013.5V398.223H2013V393.244H2013.5V383.289H2013V378.312H2013.5V368.355H2013V363.378H2013.5V353.422H2013V348.444H2013.5V338.489H2013V333.511H2013.5V323.556H2013V318.578H2013.5V308.622H2013V303.645H2013.5V293.688H2013V288.711H2013.5V278.756H2013V273.777H2013.5V263.822H2013V258.845H2013.5V248.889H2013V243.911H2013.5V233.955H2013V228.978H2013.5V224C2013.5 222.067 2015.07 220.5 2017 220.5H2022.33V220H2027.67V220.5H2038.33V220H2043.67V220.5H2054.33V220H2059.67V220.5H2070.33V220H2075.67V220.5H2086.33V220H2091.67Z" fill="#F7F7F7" id="n318"/>
<path d="M2073 256C2074.1 256 2075.01 256.898 2074.89 257.996C2074.44 262.036 2072.63 265.826 2069.73 268.728C2066.35 272.104 2061.77 274 2057 274C2052.23 274 2047.65 272.104 2044.27 268.728C2041.37 265.826 2039.56 262.036 2039.11 257.996C2038.99 256.898 2039.9 256 2041 256L2073 256Z" fill="white" stroke="#BEBEBE" id="n320"/>
<path d="M2071 256C2071 259.713 2069.53 263.274 2066.9 265.899C2064.27 268.525 2060.71 270 2057 270C2053.29 270 2049.73 268.525 2047.1 265.899C2044.47 263.274 2043 259.713 2043 256L2057 256H2071Z" fill="#F0F0F0" stroke="#F0F0F0" id="n321"/>
<path d="M2057 256V274" stroke="#BEBEBE" stroke-width="2" id="n322"/>
<path d="M2073 256C2074.1 256 2075.01 256.898 2074.89 257.996C2074.44 262.036 2072.63 265.826 2069.73 268.728C2066.35 272.104 2061.77 274 2057 274C2052.23 274 2047.65 272.104 2044.27 268.728C2041.37 265.826 2039.56 262.036 2039.11 257.996C2038.99 256.898 2039.9 256 2041 256L2073 256Z" stroke="#BEBEBE" id="n323"/>
<path d="M2057 270C2058.84 270 2060.66 269.638 2062.36 268.934C2064.06 268.231 2065.6 267.2 2066.9 265.899L2057 256L2057 270Z" fill="#9CC1F5" stroke="#9CC1F5" id="n324"/>
<path d="M2056 274.473V255.5L2058 255.5V274.473C2057.67 274.491 2057.33 274.5 2057 274.5C2056.67 274.5 2056.33 274.491 2056 274.473Z" fill="#9CC1F5" id="n325"/>
<path d="M2059.13 253.879C2057.95 252.707 2056.05 252.707 2054.88 253.879C2053.71 255.05 2053.71 256.95 2054.88 258.121C2056.05 259.293 2066.78 265.913 2066.78 265.913C2066.82 265.942 2066.87 265.93 2066.9 265.899C2066.93 265.869 2066.95 265.82 2066.92 265.774C2066.86 265.684 2060.3 255.05 2059.13 253.879Z" fill="#2D548B" stroke="#2D548B" stroke-linecap="square" id="n326"/>
<path d="M2064.17 275.354C2063.33 275.781 2062.43 275.026 2062.56 274.16L2063.31 269.289C2063.34 269.13 2063.44 268.992 2063.58 268.919C2063.72 268.846 2063.89 268.846 2064.04 268.92L2068.42 271.177C2069.2 271.579 2069.28 272.749 2068.44 273.176L2064.17 275.354Z" fill="#2D548B" stroke="#F7F7F7" stroke-linejoin="round" id="n327"/>
<path d="M2073 328C2074.1 328 2075.01 328.898 2074.89 329.996C2074.44 334.036 2072.63 337.826 2069.73 340.728C2066.35 344.104 2061.77 346 2057 346C2052.23 346 2047.65 344.104 2044.27 340.728C2041.37 337.826 2039.56 334.036 2039.11 329.996C2038.99 328.898 2039.9 328 2041 328L2073 328Z" fill="white" stroke="#BEBEBE" id="n328"/>
<path d="M2071 328C2071 331.713 2069.53 335.274 2066.9 337.899C2064.27 340.525 2060.71 342 2057 342C2053.29 342 2049.73 340.525 2047.1 337.899C2044.47 335.274 2043 331.713 2043 328L2057 328H2071Z" fill="#F0F0F0" stroke="#F0F0F0" id="n329"/>
<path d="M2057 328V346" stroke="#BEBEBE" stroke-width="2" id="n330"/>
<path d="M2073 328C2074.1 328 2075.01 328.898 2074.89 329.996C2074.44 334.036 2072.63 337.826 2069.73 340.728C2066.35 344.104 2061.77 346 2057 346C2052.23 346 2047.65 344.104 2044.27 340.728C2041.37 337.826 2039.56 334.036 2039.11 329.996C2038.99 328.898 2039.9 328 2041 328L2073 328Z" stroke="#BEBEBE" id="n331"/>
<path d="M2057 342C2058.84 342 2060.66 341.638 2062.36 340.934C2064.06 340.231 2065.6 339.2 2066.9 337.899L2057 328L2057 342Z" fill="#BEBEBE" stroke="#BEBEBE" id="n332"/>
<path d="M2056 346.473V327.5L2058 327.5V346.473C2057.67 346.491 2057.33 346.5 2057 346.5C2056.67 346.5 2056.33 346.491 2056 346.473Z" fill="#BEBEBE" id="n333"/>
<path d="M2059.13 325.879C2057.95 324.707 2056.05 324.707 2054.88 325.879C2053.71 327.05 2053.71 328.95 2054.88 330.121C2056.05 331.293 2066.78 337.913 2066.78 337.913C2066.82 337.942 2066.87 337.93 2066.9 337.899C2066.93 337.869 2066.95 337.82 2066.92 337.774C2066.86 337.684 2060.3 327.05 2059.13 325.879Z" fill="#535353" stroke="#535353" stroke-linecap="square" id="n334"/>
<path d="M2064.17 347.354C2063.33 347.781 2062.43 347.026 2062.56 346.16L2063.31 341.289C2063.34 341.13 2063.44 340.992 2063.58 340.919C2063.72 340.846 2063.89 340.846 2064.04 340.92L2068.42 343.177C2069.2 343.579 2069.28 344.749 2068.44 345.176L2064.17 347.354Z" fill="#535353" stroke="#F7F7F7" stroke-linejoin="round" id="n335"/>
<path d="M2073 400C2074.1 400 2075.01 400.898 2074.89 401.996C2074.44 406.036 2072.63 409.826 2069.73 412.728C2066.35 416.104 2061.77 418 2057 418C2052.23 418 2047.65 416.104 2044.27 412.728C2041.37 409.826 2039.56 406.036 2039.11 401.996C2038.99 400.898 2039.9 400 2041 400L2073 400Z" stroke="#BEBEBE" id="n336"/>
<path d="M2057 400V418" stroke="#BEBEBE" stroke-width="2" id="n337"/>
<path d="M2073 400C2074.1 400 2075.01 400.898 2074.89 401.996C2074.44 406.036 2072.63 409.826 2069.73 412.728C2066.35 416.104 2061.77 418 2057 418C2052.23 418 2047.65 416.104 2044.27 412.728C2041.37 409.826 2039.56 406.036 2039.11 401.996C2038.99 400.898 2039.9 400 2041 400L2073 400Z" stroke="#BEBEBE" id="n338"/>
<path d="M2060 400C2060 398.343 2058.66 397 2057 397C2055.35 397 2054 398.343 2054 400C2054 401.657 2056.91 413.921 2056.91 413.921C2056.92 413.974 2056.96 414 2057 414C2057.05 414 2057.09 413.974 2057.1 413.921C2057.12 413.816 2060 401.657 2060 400Z" fill="#BEBEBE" stroke="#BEBEBE" stroke-linecap="square" id="n339"/>
<rect x="1569" y="123" width="66.5156" height="30" rx="3" fill="#F7F7F7" id="n432"/>
<rect x="1569.5" y="123.5" width="65.5156" height="29" rx="2.5" stroke="black" stroke-opacity="0.2" id="n433"/>
<path d="M1575.97 141V133H1578.67C1579.3 133 1579.81 133.113 1580.21 133.34C1580.61 133.564 1580.91 133.867 1581.1 134.25C1581.29 134.633 1581.39 135.06 1581.39 135.531C1581.39 136.003 1581.29 136.431 1581.1 136.816C1580.91 137.202 1580.62 137.509 1580.22 137.738C1579.82 137.965 1579.31 138.078 1578.69 138.078H1576.75V137.219H1578.66C1579.09 137.219 1579.43 137.145 1579.69 136.996C1579.95 136.848 1580.14 136.647 1580.26 136.395C1580.38 136.139 1580.44 135.852 1580.44 135.531C1580.44 135.211 1580.38 134.924 1580.26 134.672C1580.14 134.419 1579.95 134.221 1579.69 134.078C1579.42 133.932 1579.08 133.859 1578.64 133.859H1576.94V141H1575.97ZM1582.83 141V135H1583.72V135.906H1583.78C1583.89 135.609 1584.09 135.368 1584.37 135.184C1584.66 134.999 1584.98 134.906 1585.34 134.906C1585.41 134.906 1585.49 134.908 1585.6 134.91C1585.7 134.913 1585.77 134.917 1585.83 134.922V135.859C1585.79 135.852 1585.72 135.84 1585.61 135.824C1585.5 135.806 1585.39 135.797 1585.26 135.797C1584.97 135.797 1584.71 135.858 1584.48 135.98C1584.26 136.1 1584.08 136.267 1583.94 136.48C1583.81 136.691 1583.75 136.932 1583.75 137.203V141H1582.83ZM1589.17 141.125C1588.63 141.125 1588.16 140.996 1587.75 140.738C1587.34 140.48 1587.02 140.12 1586.79 139.656C1586.57 139.193 1586.46 138.651 1586.46 138.031C1586.46 137.406 1586.57 136.861 1586.79 136.395C1587.02 135.928 1587.34 135.566 1587.75 135.309C1588.16 135.051 1588.63 134.922 1589.17 134.922C1589.72 134.922 1590.19 135.051 1590.6 135.309C1591 135.566 1591.32 135.928 1591.55 136.395C1591.78 136.861 1591.89 137.406 1591.89 138.031C1591.89 138.651 1591.78 139.193 1591.55 139.656C1591.32 140.12 1591 140.48 1590.6 140.738C1590.19 140.996 1589.72 141.125 1589.17 141.125ZM1589.17 140.297C1589.59 140.297 1589.92 140.191 1590.19 139.98C1590.46 139.77 1590.65 139.492 1590.78 139.148C1590.91 138.805 1590.97 138.432 1590.97 138.031C1590.97 137.63 1590.91 137.257 1590.78 136.91C1590.65 136.564 1590.46 136.284 1590.19 136.07C1589.92 135.857 1589.59 135.75 1589.17 135.75C1588.76 135.75 1588.42 135.857 1588.16 136.07C1587.89 136.284 1587.7 136.564 1587.57 136.91C1587.44 137.257 1587.38 137.63 1587.38 138.031C1587.38 138.432 1587.44 138.805 1587.57 139.148C1587.7 139.492 1587.89 139.77 1588.16 139.98C1588.42 140.191 1588.76 140.297 1589.17 140.297ZM1593.3 143.25V135H1594.19V135.953H1594.3C1594.37 135.849 1594.46 135.716 1594.58 135.555C1594.7 135.391 1594.88 135.245 1595.1 135.117C1595.33 134.987 1595.64 134.922 1596.03 134.922C1596.54 134.922 1596.98 135.048 1597.37 135.301C1597.76 135.553 1598.06 135.911 1598.27 136.375C1598.49 136.839 1598.6 137.385 1598.6 138.016C1598.6 138.651 1598.49 139.202 1598.27 139.668C1598.06 140.132 1597.76 140.491 1597.37 140.746C1596.99 140.999 1596.55 141.125 1596.05 141.125C1595.66 141.125 1595.36 141.061 1595.12 140.934C1594.89 140.803 1594.71 140.656 1594.59 140.492C1594.46 140.326 1594.37 140.187 1594.3 140.078H1594.22V143.25H1593.3ZM1594.21 138C1594.21 138.453 1594.27 138.853 1594.41 139.199C1594.54 139.543 1594.73 139.812 1594.99 140.008C1595.24 140.201 1595.56 140.297 1595.92 140.297C1596.31 140.297 1596.63 140.195 1596.89 139.992C1597.15 139.786 1597.35 139.51 1597.48 139.164C1597.61 138.815 1597.67 138.427 1597.67 138C1597.67 137.578 1597.61 137.198 1597.48 136.859C1597.35 136.518 1597.16 136.249 1596.9 136.051C1596.64 135.85 1596.32 135.75 1595.92 135.75C1595.55 135.75 1595.23 135.845 1594.98 136.035C1594.72 136.223 1594.53 136.486 1594.4 136.824C1594.27 137.16 1594.21 137.552 1594.21 138ZM1603.78 138.547V135H1604.71V141H1603.78V139.984H1603.72C1603.58 140.289 1603.36 140.548 1603.07 140.762C1602.77 140.973 1602.39 141.078 1601.94 141.078C1601.57 141.078 1601.23 140.996 1600.94 140.832C1600.65 140.665 1600.42 140.415 1600.25 140.082C1600.09 139.746 1600 139.323 1600 138.812V135H1600.92V138.75C1600.92 139.187 1601.05 139.536 1601.29 139.797C1601.54 140.057 1601.85 140.187 1602.24 140.187C1602.47 140.187 1602.7 140.129 1602.94 140.012C1603.18 139.895 1603.38 139.715 1603.54 139.473C1603.7 139.23 1603.78 138.922 1603.78 138.547ZM1607.32 133V141H1606.39V133H1607.32ZM1613.25 136.344L1612.43 136.578C1612.37 136.44 1612.3 136.306 1612.2 136.176C1612.1 136.043 1611.96 135.934 1611.79 135.848C1611.62 135.762 1611.4 135.719 1611.13 135.719C1610.76 135.719 1610.46 135.803 1610.21 135.973C1609.97 136.139 1609.85 136.352 1609.85 136.609C1609.85 136.839 1609.93 137.02 1610.1 137.152C1610.27 137.285 1610.53 137.396 1610.88 137.484L1611.77 137.703C1612.31 137.833 1612.71 138.033 1612.97 138.301C1613.23 138.566 1613.36 138.909 1613.36 139.328C1613.36 139.672 1613.27 139.979 1613.07 140.25C1612.87 140.521 1612.6 140.734 1612.25 140.891C1611.9 141.047 1611.49 141.125 1611.02 141.125C1610.41 141.125 1609.9 140.992 1609.5 140.727C1609.1 140.461 1608.85 140.073 1608.74 139.562L1609.61 139.344C1609.7 139.667 1609.86 139.909 1610.09 140.07C1610.32 140.232 1610.63 140.312 1611 140.312C1611.43 140.312 1611.78 140.221 1612.03 140.039C1612.28 139.854 1612.41 139.633 1612.41 139.375C1612.41 139.167 1612.34 138.992 1612.19 138.852C1612.05 138.708 1611.82 138.602 1611.52 138.531L1610.52 138.297C1609.97 138.167 1609.57 137.965 1609.31 137.691C1609.05 137.415 1608.93 137.07 1608.93 136.656C1608.93 136.318 1609.02 136.018 1609.21 135.758C1609.4 135.497 1609.67 135.293 1610 135.145C1610.33 134.996 1610.71 134.922 1611.13 134.922C1611.72 134.922 1612.19 135.052 1612.53 135.312C1612.87 135.573 1613.11 135.917 1613.25 136.344ZM1614.75 141V135H1615.67V141H1614.75ZM1615.22 134C1615.04 134 1614.89 133.939 1614.76 133.816C1614.63 133.694 1614.56 133.547 1614.56 133.375C1614.56 133.203 1614.63 133.056 1614.76 132.934C1614.89 132.811 1615.04 132.75 1615.22 132.75C1615.4 132.75 1615.55 132.811 1615.68 132.934C1615.81 133.056 1615.88 133.203 1615.88 133.375C1615.88 133.547 1615.81 133.694 1615.68 133.816C1615.55 133.939 1615.4 134 1615.22 134ZM1619.8 141.125C1619.26 141.125 1618.78 140.996 1618.37 140.738C1617.97 140.48 1617.65 140.12 1617.42 139.656C1617.19 139.193 1617.08 138.651 1617.08 138.031C1617.08 137.406 1617.19 136.861 1617.42 136.395C1617.65 135.928 1617.97 135.566 1618.37 135.309C1618.78 135.051 1619.26 134.922 1619.8 134.922C1620.34 134.922 1620.82 135.051 1621.22 135.309C1621.63 135.566 1621.95 135.928 1622.17 136.395C1622.4 136.861 1622.52 137.406 1622.52 138.031C1622.52 138.651 1622.4 139.193 1622.17 139.656C1621.95 140.12 1621.63 140.48 1621.22 140.738C1620.82 140.996 1620.34 141.125 1619.8 141.125ZM1619.8 140.297C1620.21 140.297 1620.55 140.191 1620.82 139.98C1621.08 139.77 1621.28 139.492 1621.41 139.148C1621.53 138.805 1621.6 138.432 1621.6 138.031C1621.6 137.63 1621.53 137.257 1621.41 136.91C1621.28 136.564 1621.08 136.284 1620.82 136.07C1620.55 135.857 1620.21 135.75 1619.8 135.75C1619.39 135.75 1619.05 135.857 1618.78 136.07C1618.52 136.284 1618.32 136.564 1618.19 136.91C1618.07 137.257 1618 137.63 1618 138.031C1618 138.432 1618.07 138.805 1618.19 139.148C1618.32 139.492 1618.52 139.77 1618.78 139.98C1619.05 140.191 1619.39 140.297 1619.8 140.297ZM1624.85 137.391V141H1623.93V135H1624.82V135.937H1624.89C1625.04 135.633 1625.25 135.388 1625.54 135.203C1625.82 135.016 1626.19 134.922 1626.64 134.922C1627.05 134.922 1627.41 135.005 1627.71 135.172C1628.02 135.336 1628.25 135.586 1628.42 135.922C1628.59 136.255 1628.68 136.677 1628.68 137.188V141H1627.75V137.25C1627.75 136.779 1627.63 136.411 1627.39 136.148C1627.14 135.883 1626.81 135.75 1626.38 135.75C1626.08 135.75 1625.82 135.814 1625.59 135.941C1625.36 136.069 1625.18 136.255 1625.05 136.5C1624.91 136.745 1624.85 137.042 1624.85 137.391Z" fill="black" id="n434"/>
</g>
</svg>
