<?xml version='1.0' encoding='utf-8'?>
<svg xmlns="http://www.w3.org/2000/svg" xmlns:xlink="http://www.w3.org/1999/xlink" width="320.0" height="528.0" viewBox="0 0 320.0 528.0" fill="none">
  <defs><clipPath id="clip__asset"><rect x="0" y="0" width="320.0" height="528.0"/></clipPath><mask id="path-1023-inside-75_1702_11540" fill="white">
<path d="M4302 312H4622V568H4302V312Z" id="n1200"/>
</mask>
<mask id="path-1026-inside-76_1702_11540" fill="white">
<path d="M4326 341.6C4326 338.24 4326 336.56 4326.65 335.276C4327.23 334.147 4328.15 333.229 4329.28 332.654C4330.56 332 4332.24 332 4335.6 332H4348.4C4351.76 332 4353.44 332 4354.72 332.654C4355.85 333.229 4356.77 334.147 4357.35 335.276C4358 336.56 4358 338.24 4358 341.6V354.4C4358 357.76 4358 359.44 4357.35 360.724C4356.77 361.853 4355.85 362.771 4354.72 363.346C4353.44 364 4351.76 364 4348.4 364H4335.6C4332.24 364 4330.56 364 4329.28 363.346C4328.15 362.771 4327.23 361.853 4326.65 360.724C4326 359.44 4326 357.76 4326 354.4V341.6Z" id="n1202"/>
</mask>
<mask id="path-1033-inside-77_1702_11540" fill="white">
<path d="M4326 473.6C4326 470.24 4326 468.56 4326.65 467.276C4327.23 466.147 4328.15 465.229 4329.28 464.654C4330.56 464 4332.24 464 4335.6 464H4588.4C4591.76 464 4593.44 464 4594.72 464.654C4595.85 465.229 4596.77 466.147 4597.35 467.276C4598 468.56 4598 470.24 4598 473.6V486.4C4598 489.76 4598 491.44 4597.35 492.724C4596.77 493.853 4595.85 494.771 4594.72 495.346C4593.44 496 4591.76 496 4588.4 496H4335.6C4332.24 496 4330.56 496 4329.28 495.346C4328.15 494.771 4327.23 493.853 4326.65 492.724C4326 491.44 4326 489.76 4326 486.4V473.6Z" id="n1210"/>
</mask>
<mask id="path-1050-inside-78_1702_11540" fill="white">
<path d="M4302 776H4622V840H4302V776Z" id="n1229"/>
</mask>
<filter id="filter24_d_1702_11540" x="4286" y="300" width="352" height="560" filterUnits="userSpaceOnUse" color-interpolation-filters="sRGB">
<feFlood flood-opacity="0" result="BackgroundImageFix" id="n3288"/>
<feColorMatrix in="SourceAlpha" type="matrix" values="0 0 0 0 0 0 0 0 0 0 0 0 0 0 0 0 0 0 127 0" result="hardAlpha" id="n3289"/>
<feOffset dy="4" id="n3290"/>
<feGaussianBlur stdDeviation="8" id="n3291"/>
<feComposite in2="hardAlpha" operator="out" id="n3292"/>
<feColorMatrix type="matrix" values="0 0 0 0 0 0 0 0 0 0 0 0 0 0 0 0 0 0 0.32 0" id="n3293"/>
<feBlend mode="normal" in2="BackgroundImageFix" result="effect1_dropShadow_1702_11540" id="n3294"/>
<feBlend mode="normal" in="SourceGraphic" in2="effect1_dropShadow_1702_11540" result="shape" id="n3295"/>
</filter>
<clipPath id="clip28_1702_11540">
<path d="M4302 324C4302 317.373 4307.37 312 4314 312H4610C4616.63 312 4622 317.373 4622 324V828C4622 834.627 4616.63 840 4610 840H4314C4307.37 840 4302 834.627 4302 828V324Z" fill="white" id="n3463"/>
</clipPath>
</defs>
  <g clip-path="url(#clip__asset)" transform="translate(-4302.0 -312.0)"><g filter="url(#filter24_d_1702_11540)" id="n1197">
<g clip-path="url(#clip28_1702_11540)" id="n1198">
<path d="M4302 324C4302 317.373 4307.37 312 4314 312H4610C4616.63 312 4622 317.373 4622 324V828C4622 834.627 4616.63 840 4610 840H4314C4307.37 840 4302 834.627 4302 828V324Z" fill="#FCFCFC" id="n1199"/>
<mask id="path-1023-inside-75_1702_11540" fill="white">
<path d="M4302 312H4622V568H4302V312Z" id="n1200"/>
</mask>
<path d="M4622 568V567H4302V568V569H4622V568Z" fill="#DDDDDD" mask="url(#path-1023-inside-75_1702_11540)" id="n1201"/>
<mask id="path-1026-inside-76_1702_11540" fill="white">
<path d="M4326 341.6C4326 338.24 4326 336.56 4326.65 335.276C4327.23 334.147 4328.15 333.229 4329.28 332.654C4330.56 332 4332.24 332 4335.6 332H4348.4C4351.76 332 4353.44 332 4354.72 332.654C4355.85 333.229 4356.77 334.147 4357.35 335.276C4358 336.56 4358 338.24 4358 341.6V354.4C4358 357.76 4358 359.44 4357.35 360.724C4356.77 361.853 4355.85 362.771 4354.72 363.346C4353.44 364 4351.76 364 4348.4 364H4335.6C4332.24 364 4330.56 364 4329.28 363.346C4328.15 362.771 4327.23 361.853 4326.65 360.724C4326 359.44 4326 357.76 4326 354.4V341.6Z" id="n1202"/>
</mask>
<path d="M4326 341.6C4326 338.24 4326 336.56 4326.65 335.276C4327.23 334.147 4328.15 333.229 4329.28 332.654C4330.56 332 4332.24 332 4335.6 332H4348.4C4351.76 332 4353.44 332 4354.72 332.654C4355.85 333.229 4356.77 334.147 4357.35 335.276C4358 336.56 4358 338.24 4358 341.6V354.4C4358 357.76 4358 359.44 4357.35 360.724C4356.77 361.853 4355.85 362.771 4354.72 363.346C4353.44 364 4351.76 364 4348.4 364H4335.6C4332.24 364 4330.56 364 4329.28 363.346C4328.15 362.771 4327.23 361.853 4326.65 360.724C4326 359.44 4326 357.76 4326 354.4V341.6Z" fill="white" id="n1203"/>
<path d="M4329.28 363.346L4329.73 362.455L4329.28 363.346ZM4357.35 360.724L4358.24 361.178L4357.35 360.724ZM4354.72 363.346L4355.18 364.237L4354.72 363.346ZM4354.72 332.654L4354.27 333.545L4354.72 332.654ZM4357.35 335.276L4356.46 335.73L4357.35 335.276ZM4335.6 332V333H4348.4V332V331H4335.6V332ZM4358 341.6H4357V354.4H4358H4359V341.6H4358ZM4348.4 364V363H4335.6V364V365H4348.4V364ZM4326 354.4H4327V341.6H4326H4325V354.4H4326ZM4335.6 364V363C4333.9 363 4332.69 362.999 4331.74 362.922C4330.8 362.845 4330.21 362.698 4329.73 362.455L4329.28 363.346L4328.82 364.237C4329.63 364.648 4330.52 364.828 4331.58 364.915C4332.63 365.001 4333.94 365 4335.6 365V364ZM4326 354.4H4325C4325 356.064 4325 357.372 4325.09 358.422C4325.17 359.485 4325.35 360.372 4325.76 361.178L4326.65 360.724L4327.54 360.27C4327.3 359.793 4327.16 359.198 4327.08 358.259C4327 357.309 4327 356.097 4327 354.4H4326ZM4329.28 363.346L4329.73 362.455C4328.79 361.976 4328.02 361.211 4327.54 360.27L4326.65 360.724L4325.76 361.178C4326.43 362.495 4327.5 363.566 4328.82 364.237L4329.28 363.346ZM4358 354.4H4357C4357 356.097 4357 357.309 4356.92 358.259C4356.84 359.198 4356.7 359.793 4356.46 360.27L4357.35 360.724L4358.24 361.178C4358.65 360.372 4358.83 359.485 4358.91 358.422C4359 357.372 4359 356.064 4359 354.4H4358ZM4348.4 364V365C4350.06 365 4351.37 365.001 4352.42 364.915C4353.48 364.828 4354.37 364.648 4355.18 364.237L4354.72 363.346L4354.27 362.455C4353.79 362.698 4353.2 362.845 4352.26 362.922C4351.31 362.999 4350.1 363 4348.4 363V364ZM4357.35 360.724L4356.46 360.27C4355.98 361.211 4355.21 361.976 4354.27 362.455L4354.72 363.346L4355.18 364.237C4356.5 363.566 4357.57 362.495 4358.24 361.178L4357.35 360.724ZM4348.4 332V333C4350.1 333 4351.31 333.001 4352.26 333.078C4353.2 333.155 4353.79 333.302 4354.27 333.545L4354.72 332.654L4355.18 331.763C4354.37 331.352 4353.48 331.172 4352.42 331.085C4351.37 330.999 4350.06 331 4348.4 331V332ZM4358 341.6H4359C4359 339.936 4359 338.628 4358.91 337.578C4358.83 336.515 4358.65 335.628 4358.24 334.822L4357.35 335.276L4356.46 335.73C4356.7 336.207 4356.84 336.802 4356.92 337.741C4357 338.691 4357 339.903 4357 341.6H4358ZM4354.72 332.654L4354.27 333.545C4355.21 334.024 4355.98 334.789 4356.46 335.73L4357.35 335.276L4358.24 334.822C4357.57 333.505 4356.5 332.434 4355.18 331.763L4354.72 332.654ZM4335.6 332V331C4333.94 331 4332.63 330.999 4331.58 331.085C4330.52 331.172 4329.63 331.352 4328.82 331.763L4329.28 332.654L4329.73 333.545C4330.21 333.302 4330.8 333.155 4331.74 333.078C4332.69 333.001 4333.9 333 4335.6 333V332ZM4326 341.6H4327C4327 339.903 4327 338.691 4327.08 337.741C4327.16 336.802 4327.3 336.207 4327.54 335.73L4326.65 335.276L4325.76 334.822C4325.35 335.628 4325.17 336.515 4325.09 337.578C4325 338.628 4325 339.936 4325 341.6H4326ZM4329.28 332.654L4328.82 331.763C4327.5 332.434 4326.43 333.505 4325.76 334.822L4326.65 335.276L4327.54 335.73C4328.02 334.789 4328.79 334.024 4329.73 333.545L4329.28 332.654Z" fill="#BEBEBE" mask="url(#path-1026-inside-76_1702_11540)" id="n1204"/>
<path fill-rule="evenodd" clip-rule="evenodd" d="M4344 354L4345.41 352.59L4340.83 348L4345.41 343.41L4344 342L4338 348L4344 354Z" fill="#535353" id="n1205"/>
<path d="M4378.91 350.576C4379.89 350.576 4380.71 350.672 4381.38 350.864C4382.05 351.045 4382.55 351.344 4382.88 351.76C4383.22 352.176 4383.39 352.736 4383.39 353.44C4383.39 353.877 4383.32 354.272 4383.17 354.624C4383.02 354.976 4382.79 355.264 4382.5 355.488C4382.21 355.712 4381.86 355.861 4381.44 355.936V356.016C4381.87 356.091 4382.25 356.229 4382.59 356.432C4382.94 356.624 4383.22 356.907 4383.42 357.28C4383.63 357.643 4383.73 358.123 4383.73 358.72C4383.73 359.413 4383.56 360.005 4383.23 360.496C4382.9 360.987 4382.43 361.36 4381.82 361.616C4381.22 361.872 4380.49 362 4379.65 362H4375.49V350.576H4378.91ZM4379.18 355.264C4380.03 355.264 4380.6 355.131 4380.91 354.864C4381.23 354.597 4381.39 354.203 4381.39 353.68C4381.39 353.157 4381.2 352.784 4380.82 352.56C4380.44 352.325 4379.84 352.208 4379.01 352.208H4377.44V355.264H4379.18ZM4377.44 356.848V360.368H4379.38C4380.24 360.368 4380.84 360.203 4381.17 359.872C4381.51 359.531 4381.68 359.088 4381.68 358.544C4381.68 358.192 4381.61 357.893 4381.46 357.648C4381.31 357.392 4381.06 357.195 4380.7 357.056C4380.35 356.917 4379.88 356.848 4379.28 356.848H4377.44ZM4389.46 353.184C4390.58 353.184 4391.43 353.424 4391.99 353.904C4392.56 354.384 4392.84 355.141 4392.84 356.176V362H4391.48L4391.1 360.8H4391.03C4390.79 361.109 4390.53 361.371 4390.26 361.584C4390.01 361.787 4389.71 361.931 4389.37 362.016C4389.04 362.112 4388.63 362.16 4388.15 362.16C4387.64 362.16 4387.18 362.064 4386.76 361.872C4386.35 361.68 4386.03 361.387 4385.8 360.992C4385.57 360.597 4385.45 360.101 4385.45 359.504C4385.45 358.608 4385.78 357.936 4386.44 357.488C4387.1 357.029 4388.1 356.779 4389.45 356.736L4390.94 356.688V356.24C4390.94 355.664 4390.8 355.253 4390.52 355.008C4390.25 354.763 4389.87 354.64 4389.38 354.64C4388.95 354.64 4388.53 354.704 4388.12 354.832C4387.71 354.96 4387.32 355.115 4386.94 355.296L4386.33 353.936C4386.74 353.712 4387.22 353.531 4387.77 353.392C4388.31 353.253 4388.88 353.184 4389.46 353.184ZM4389.85 357.92C4388.93 357.952 4388.3 358.107 4387.94 358.384C4387.59 358.661 4387.42 359.04 4387.42 359.52C4387.42 359.936 4387.54 360.24 4387.8 360.432C4388.06 360.613 4388.38 360.704 4388.78 360.704C4389.38 360.704 4389.9 360.533 4390.31 360.192C4390.73 359.84 4390.94 359.317 4390.94 358.624V357.888L4389.85 357.92ZM4398.83 360.608C4399.07 360.608 4399.31 360.587 4399.55 360.544C4399.78 360.501 4400 360.448 4400.19 360.384V361.824C4399.99 361.92 4399.72 362 4399.39 362.064C4399.06 362.128 4398.71 362.16 4398.35 362.16C4397.87 362.16 4397.43 362.08 4397.04 361.92C4396.64 361.749 4396.32 361.467 4396.08 361.072C4395.84 360.667 4395.73 360.101 4395.73 359.376V354.8H4394.56V353.952L4395.82 353.264L4396.45 351.424H4397.65V353.344H4400.11V354.8H4397.65V359.36C4397.65 359.787 4397.75 360.101 4397.97 360.304C4398.19 360.507 4398.48 360.608 4398.83 360.608ZM4405.37 360.608C4405.62 360.608 4405.86 360.587 4406.09 360.544C4406.32 360.501 4406.54 360.448 4406.73 360.384V361.824C4406.53 361.92 4406.26 362 4405.93 362.064C4405.6 362.128 4405.25 362.16 4404.89 362.16C4404.41 362.16 4403.97 362.08 4403.58 361.92C4403.18 361.749 4402.86 361.467 4402.62 361.072C4402.38 360.667 4402.27 360.101 4402.27 359.376V354.8H4401.1V353.952L4402.36 353.264L4402.99 351.424H4404.19V353.344H4406.65V354.8H4404.19V359.36C4404.19 359.787 4404.29 360.101 4404.51 360.304C4404.73 360.507 4405.02 360.608 4405.37 360.608ZM4412.09 353.184C4412.85 353.184 4413.52 353.344 4414.07 353.664C4414.64 353.973 4415.07 354.421 4415.37 355.008C4415.67 355.584 4415.81 356.283 4415.81 357.104V358.112H4410.07C4410.09 358.923 4410.32 359.552 4410.74 360C4411.17 360.437 4411.76 360.656 4412.52 360.656C4413.07 360.656 4413.57 360.603 4414.01 360.496C4414.45 360.389 4414.91 360.229 4415.38 360.016V361.568C4414.95 361.771 4414.5 361.92 4414.04 362.016C4413.59 362.112 4413.05 362.16 4412.42 362.16C4411.58 362.16 4410.83 362 4410.18 361.68C4409.53 361.349 4409.03 360.853 4408.66 360.192C4408.3 359.531 4408.12 358.709 4408.12 357.728C4408.12 356.747 4408.28 355.92 4408.61 355.248C4408.95 354.576 4409.41 354.064 4410.01 353.712C4410.6 353.36 4411.3 353.184 4412.09 353.184ZM4412.09 354.624C4411.52 354.624 4411.07 354.805 4410.73 355.168C4410.39 355.52 4410.18 356.048 4410.12 356.752H4413.94C4413.94 356.325 4413.87 355.957 4413.73 355.648C4413.61 355.328 4413.4 355.077 4413.13 354.896C4412.86 354.715 4412.51 354.624 4412.09 354.624ZM4422.48 353.184C4422.62 353.184 4422.77 353.189 4422.94 353.2C4423.11 353.211 4423.26 353.232 4423.37 353.264L4423.2 355.056C4423.1 355.024 4422.97 355.003 4422.81 354.992C4422.67 354.971 4422.53 354.96 4422.4 354.96C4422.08 354.96 4421.77 355.013 4421.47 355.12C4421.18 355.227 4420.92 355.387 4420.69 355.6C4420.45 355.803 4420.27 356.064 4420.13 356.384C4420 356.693 4419.93 357.061 4419.93 357.488V362H4418.01V353.344H4419.52L4419.77 354.864H4419.87C4420.04 354.555 4420.25 354.272 4420.51 354.016C4420.77 353.76 4421.06 353.557 4421.39 353.408C4421.73 353.259 4422.09 353.184 4422.48 353.184ZM4423.82 353.344H4425.92L4427.66 358.24C4427.74 358.464 4427.81 358.683 4427.87 358.896C4427.93 359.099 4427.99 359.307 4428.03 359.52C4428.08 359.723 4428.13 359.931 4428.16 360.144H4428.21C4428.26 359.877 4428.33 359.573 4428.43 359.232C4428.53 358.891 4428.63 358.555 4428.73 358.224L4430.41 353.344H4432.48L4428.78 363.152C4428.57 363.717 4428.3 364.203 4427.98 364.608C4427.67 365.013 4427.3 365.317 4426.86 365.52C4426.44 365.733 4425.94 365.84 4425.39 365.84C4425.12 365.84 4424.89 365.824 4424.7 365.792C4424.51 365.771 4424.34 365.744 4424.19 365.712V364.192C4424.31 364.213 4424.45 364.235 4424.61 364.256C4424.78 364.277 4424.95 364.288 4425.13 364.288C4425.46 364.288 4425.75 364.219 4425.98 364.08C4426.23 363.952 4426.43 363.771 4426.59 363.536C4426.76 363.301 4426.9 363.04 4427.01 362.752L4427.29 361.984L4423.82 353.344Z" fill="#535353" id="n1206"/>
<path fill-rule="evenodd" clip-rule="evenodd" d="M4348 402C4346.9 402 4346 402.895 4346 404V406L4344 406C4341.79 406 4340 407.791 4340 410L4340 440C4340 442.209 4341.79 444 4344 444H4356C4358.21 444 4360 442.209 4360 440V410C4360 407.791 4358.21 406 4356 406L4354 406V404C4354 402.895 4353.1 402 4352 402L4348 402ZM4356 418V410L4344 410L4344 418H4356Z" fill="#2D548B" id="n1207"/>
<path d="M4386.47 436.5L4395.99 415.794H4383.48V412.224H4400.35V415.012L4390.86 436.5H4386.47ZM4410.97 411.918C4412.38 411.918 4413.65 412.133 4414.78 412.564C4415.92 412.995 4416.81 413.641 4417.47 414.502C4418.15 415.363 4418.49 416.44 4418.49 417.732C4418.49 418.707 4418.28 419.568 4417.88 420.316C4417.47 421.041 4416.92 421.676 4416.24 422.22C4415.59 422.764 4414.84 423.251 4414 423.682C4414.93 424.135 4415.79 424.668 4416.58 425.28C4417.38 425.869 4418.01 426.572 4418.49 427.388C4418.99 428.181 4419.24 429.122 4419.24 430.21C4419.24 431.547 4418.9 432.715 4418.22 433.712C4417.54 434.709 4416.57 435.48 4415.33 436.024C4414.1 436.568 4412.66 436.84 4411.01 436.84C4409.22 436.84 4407.7 436.579 4406.45 436.058C4405.23 435.537 4404.29 434.789 4403.63 433.814C4403 432.839 4402.68 431.683 4402.68 430.346C4402.68 429.235 4402.89 428.272 4403.32 427.456C4403.78 426.64 4404.37 425.937 4405.09 425.348C4405.82 424.736 4406.62 424.226 4407.51 423.818C4406.74 423.365 4406.04 422.855 4405.43 422.288C4404.82 421.699 4404.33 421.041 4403.97 420.316C4403.61 419.568 4403.43 418.695 4403.43 417.698C4403.43 416.429 4403.77 415.363 4404.45 414.502C4405.13 413.641 4406.03 412.995 4407.17 412.564C4408.32 412.133 4409.59 411.918 4410.97 411.918ZM4406.55 430.176C4406.55 431.196 4406.92 432.046 4407.64 432.726C4408.37 433.383 4409.47 433.712 4410.94 433.712C4411.91 433.712 4412.72 433.565 4413.35 433.27C4414.01 432.975 4414.51 432.556 4414.85 432.012C4415.19 431.468 4415.36 430.845 4415.36 430.142C4415.36 429.462 4415.17 428.861 4414.78 428.34C4414.4 427.796 4413.88 427.32 4413.22 426.912C4412.58 426.481 4411.87 426.085 4411.08 425.722L4410.6 425.518C4409.76 425.881 4409.04 426.289 4408.42 426.742C4407.81 427.195 4407.35 427.705 4407.03 428.272C4406.71 428.816 4406.55 429.451 4406.55 430.176ZM4410.94 415.012C4409.9 415.012 4409.04 415.273 4408.36 415.794C4407.7 416.293 4407.37 417.018 4407.37 417.97C4407.37 418.65 4407.53 419.239 4407.85 419.738C4408.19 420.237 4408.63 420.656 4409.17 420.996C4409.74 421.336 4410.35 421.665 4411.01 421.982C4411.67 421.687 4412.25 421.37 4412.78 421.03C4413.32 420.69 4413.75 420.271 4414.07 419.772C4414.39 419.273 4414.54 418.673 4414.54 417.97C4414.54 417.018 4414.2 416.293 4413.52 415.794C4412.87 415.273 4412.01 415.012 4410.94 415.012Z" fill="#1F1F1F" id="n1208"/>
<path d="M4423.27 428.174C4423.88 428.174 4424.34 428.4 4424.65 428.852C4424.96 429.297 4425.12 429.926 4425.12 430.738C4425.12 431.551 4424.97 432.187 4424.67 432.647C4424.37 433.1 4423.9 433.326 4423.27 433.326C4422.87 433.326 4422.54 433.222 4422.27 433.015C4422 432.808 4421.79 432.513 4421.66 432.13C4421.53 431.739 4421.46 431.275 4421.46 430.738C4421.46 429.926 4421.6 429.297 4421.89 428.852C4422.18 428.4 4422.64 428.174 4423.27 428.174ZM4423.28 429.128C4423.04 429.128 4422.87 429.263 4422.76 429.531C4422.65 429.799 4422.6 430.202 4422.6 430.738C4422.6 431.283 4422.65 431.693 4422.76 431.969C4422.87 432.237 4423.04 432.371 4423.27 432.371C4423.51 432.371 4423.69 432.237 4423.81 431.969C4423.92 431.693 4423.98 431.287 4423.98 430.75C4423.98 430.206 4423.92 429.799 4423.81 429.531C4423.69 429.263 4423.51 429.128 4423.28 429.128ZM4428.82 428.289L4424.27 436.5H4423.14L4427.69 428.289H4428.82ZM4428.67 431.451C4429.08 431.451 4429.41 431.555 4429.68 431.762C4429.96 431.961 4430.17 432.253 4430.3 432.636C4430.45 433.012 4430.52 433.472 4430.52 434.016C4430.52 434.829 4430.37 435.465 4430.07 435.925C4429.77 436.377 4429.31 436.604 4428.67 436.604C4428.28 436.604 4427.95 436.5 4427.67 436.293C4427.4 436.086 4427.2 435.791 4427.06 435.407C4426.93 435.016 4426.87 434.553 4426.87 434.016C4426.87 433.203 4427.01 432.575 4427.29 432.13C4427.58 431.678 4428.04 431.451 4428.67 431.451ZM4428.68 432.417C4428.44 432.417 4428.27 432.552 4428.16 432.82C4428.06 433.081 4428 433.483 4428 434.027C4428 434.572 4428.06 434.982 4428.16 435.258C4428.27 435.526 4428.44 435.66 4428.67 435.66C4428.92 435.66 4429.1 435.526 4429.21 435.258C4429.33 434.99 4429.38 434.579 4429.38 434.027C4429.38 433.483 4429.33 433.081 4429.21 432.82C4429.1 432.552 4428.92 432.417 4428.68 432.417Z" fill="#535353" id="n1209"/>
<mask id="path-1033-inside-77_1702_11540" fill="white">
<path d="M4326 473.6C4326 470.24 4326 468.56 4326.65 467.276C4327.23 466.147 4328.15 465.229 4329.28 464.654C4330.56 464 4332.24 464 4335.6 464H4588.4C4591.76 464 4593.44 464 4594.72 464.654C4595.85 465.229 4596.77 466.147 4597.35 467.276C4598 468.56 4598 470.24 4598 473.6V486.4C4598 489.76 4598 491.44 4597.35 492.724C4596.77 493.853 4595.85 494.771 4594.72 495.346C4593.44 496 4591.76 496 4588.4 496H4335.6C4332.24 496 4330.56 496 4329.28 495.346C4328.15 494.771 4327.23 493.853 4326.65 492.724C4326 491.44 4326 489.76 4326 486.4V473.6Z" id="n1210"/>
</mask>
<path d="M4326 473.6C4326 470.24 4326 468.56 4326.65 467.276C4327.23 466.147 4328.15 465.229 4329.28 464.654C4330.56 464 4332.24 464 4335.6 464H4588.4C4591.76 464 4593.44 464 4594.72 464.654C4595.85 465.229 4596.77 466.147 4597.35 467.276C4598 468.56 4598 470.24 4598 473.6V486.4C4598 489.76 4598 491.44 4597.35 492.724C4596.77 493.853 4595.85 494.771 4594.72 495.346C4593.44 496 4591.76 496 4588.4 496H4335.6C4332.24 496 4330.56 496 4329.28 495.346C4328.15 494.771 4327.23 493.853 4326.65 492.724C4326 491.44 4326 489.76 4326 486.4V473.6Z" fill="white" id="n1211"/>
<path d="M4329.28 495.346L4329.73 494.455L4329.28 495.346ZM4597.35 492.724L4596.46 492.27L4597.35 492.724ZM4594.72 495.346L4595.18 496.237L4594.72 495.346ZM4594.72 464.654L4595.18 463.763L4594.72 464.654ZM4597.35 467.276L4596.46 467.73L4597.35 467.276ZM4335.6 464V465H4588.4V464V463H4335.6V464ZM4598 473.6H4597V486.4H4598H4599V473.6H4598ZM4588.4 496V495H4335.6V496V497H4588.4V496ZM4326 486.4H4327V473.6H4326H4325V486.4H4326ZM4335.6 496V495C4333.9 495 4332.69 494.999 4331.74 494.922C4330.8 494.845 4330.21 494.698 4329.73 494.455L4329.28 495.346L4328.82 496.237C4329.63 496.648 4330.52 496.828 4331.58 496.915C4332.63 497.001 4333.94 497 4335.6 497V496ZM4326 486.4H4325C4325 488.064 4325 489.372 4325.09 490.422C4325.17 491.485 4325.35 492.372 4325.76 493.178L4326.65 492.724L4327.54 492.27C4327.3 491.793 4327.16 491.198 4327.08 490.259C4327 489.309 4327 488.097 4327 486.4H4326ZM4329.28 495.346L4329.73 494.455C4328.79 493.976 4328.02 493.211 4327.54 492.27L4326.65 492.724L4325.76 493.178C4326.43 494.495 4327.5 495.566 4328.82 496.237L4329.28 495.346ZM4598 486.4H4597C4597 488.097 4597 489.309 4596.92 490.259C4596.84 491.198 4596.7 491.793 4596.46 492.27L4597.35 492.724L4598.24 493.178C4598.65 492.372 4598.83 491.485 4598.91 490.422C4599 489.372 4599 488.064 4599 486.4H4598ZM4588.4 496V497C4590.06 497 4591.37 497.001 4592.42 496.915C4593.48 496.828 4594.37 496.648 4595.18 496.237L4594.72 495.346L4594.27 494.455C4593.79 494.698 4593.2 494.845 4592.26 494.922C4591.31 494.999 4590.1 495 4588.4 495V496ZM4597.35 492.724L4596.46 492.27C4595.98 493.211 4595.21 493.976 4594.27 494.455L4594.72 495.346L4595.18 496.237C4596.5 495.566 4597.57 494.495 4598.24 493.178L4597.35 492.724ZM4588.4 464V465C4590.1 465 4591.31 465.001 4592.26 465.078C4593.2 465.155 4593.79 465.302 4594.27 465.545L4594.72 464.654L4595.18 463.763C4594.37 463.352 4593.48 463.172 4592.42 463.085C4591.37 462.999 4590.06 463 4588.4 463V464ZM4598 473.6H4599C4599 471.936 4599 470.628 4598.91 469.578C4598.83 468.515 4598.65 467.628 4598.24 466.822L4597.35 467.276L4596.46 467.73C4596.7 468.207 4596.84 468.802 4596.92 469.741C4597 470.691 4597 471.903 4597 473.6H4598ZM4594.72 464.654L4594.27 465.545C4595.21 466.024 4595.98 466.789 4596.46 467.73L4597.35 467.276L4598.24 466.822C4597.57 465.505 4596.5 464.434 4595.18 463.763L4594.72 464.654ZM4335.6 464V463C4333.94 463 4332.63 462.999 4331.58 463.085C4330.52 463.172 4329.63 463.352 4328.82 463.763L4329.28 464.654L4329.73 465.545C4330.21 465.302 4330.8 465.155 4331.74 465.078C4332.69 465.001 4333.9 465 4335.6 465V464ZM4326 473.6H4327C4327 471.903 4327 470.691 4327.08 469.741C4327.16 468.802 4327.3 468.207 4327.54 467.73L4326.65 467.276L4325.76 466.822C4325.35 467.628 4325.17 468.515 4325.09 469.578C4325 470.628 4325 471.936 4325 473.6H4326ZM4329.28 464.654L4328.82 463.763C4327.5 464.434 4326.43 465.505 4325.76 466.822L4326.65 467.276L4327.54 467.73C4328.02 466.789 4328.79 466.024 4329.73 465.545L4329.28 464.654Z" fill="#BEBEBE" mask="url(#path-1033-inside-77_1702_11540)" id="n1212"/>
<path d="M4448 481.968C4448 482.757 4447.83 483.472 4447.5 484.112C4447.17 484.741 4446.66 485.243 4445.98 485.616C4445.3 485.979 4444.44 486.16 4443.4 486.16C4441.93 486.16 4440.81 485.776 4440.04 485.008C4439.28 484.229 4438.89 483.205 4438.89 481.936V474.576H4440.84V481.76C4440.84 482.699 4441.06 483.392 4441.5 483.84C4441.94 484.277 4442.59 484.496 4443.47 484.496C4444.08 484.496 4444.57 484.389 4444.94 484.176C4445.32 483.963 4445.61 483.653 4445.79 483.248C4445.97 482.832 4446.06 482.331 4446.06 481.744V474.576H4448V481.968ZM4456.56 483.52C4456.56 484.085 4456.42 484.565 4456.14 484.96C4455.86 485.355 4455.46 485.653 4454.93 485.856C4454.39 486.059 4453.74 486.16 4452.97 486.16C4452.38 486.16 4451.86 486.117 4451.42 486.032C4450.98 485.947 4450.57 485.813 4450.19 485.632V483.984C4450.6 484.187 4451.05 484.357 4451.57 484.496C4452.09 484.635 4452.58 484.704 4453.04 484.704C4453.62 484.704 4454.05 484.613 4454.3 484.432C4454.56 484.251 4454.69 484.011 4454.69 483.712C4454.69 483.531 4454.63 483.371 4454.53 483.232C4454.43 483.083 4454.24 482.928 4453.95 482.768C4453.67 482.608 4453.25 482.416 4452.69 482.192C4452.13 481.968 4451.67 481.749 4451.29 481.536C4450.93 481.312 4450.65 481.045 4450.46 480.736C4450.27 480.416 4450.17 480.016 4450.17 479.536C4450.17 478.768 4450.48 478.187 4451.09 477.792C4451.7 477.387 4452.52 477.184 4453.52 477.184C4454.05 477.184 4454.55 477.237 4455.02 477.344C4455.49 477.44 4455.96 477.595 4456.43 477.808L4455.82 479.248C4455.56 479.131 4455.29 479.029 4455.02 478.944C4454.77 478.848 4454.5 478.779 4454.24 478.736C4453.98 478.683 4453.72 478.656 4453.45 478.656C4453 478.656 4452.64 478.725 4452.4 478.864C4452.16 479.003 4452.05 479.195 4452.05 479.44C4452.05 479.632 4452.1 479.797 4452.22 479.936C4452.34 480.075 4452.54 480.213 4452.83 480.352C4453.12 480.491 4453.53 480.667 4454.06 480.88C4454.58 481.083 4455.03 481.291 4455.41 481.504C4455.78 481.717 4456.06 481.984 4456.25 482.304C4456.46 482.624 4456.56 483.029 4456.56 483.52ZM4461.94 477.184C4463.06 477.184 4463.9 477.424 4464.47 477.904C4465.03 478.384 4465.31 479.141 4465.31 480.176V486H4463.95L4463.57 484.8H4463.51C4463.26 485.109 4463.01 485.371 4462.74 485.584C4462.48 485.787 4462.18 485.931 4461.84 486.016C4461.51 486.112 4461.11 486.16 4460.63 486.16C4460.11 486.16 4459.65 486.064 4459.23 485.872C4458.83 485.68 4458.51 485.387 4458.27 484.992C4458.04 484.597 4457.92 484.101 4457.92 483.504C4457.92 482.608 4458.25 481.936 4458.91 481.488C4459.58 481.029 4460.58 480.779 4461.92 480.736L4463.41 480.688V480.24C4463.41 479.664 4463.27 479.253 4462.99 479.008C4462.73 478.763 4462.35 478.64 4461.86 478.64C4461.42 478.64 4461 478.704 4460.59 478.832C4460.19 478.96 4459.79 479.115 4459.41 479.296L4458.8 477.936C4459.22 477.712 4459.7 477.531 4460.24 477.392C4460.79 477.253 4461.35 477.184 4461.94 477.184ZM4462.32 481.92C4461.41 481.952 4460.77 482.107 4460.42 482.384C4460.07 482.661 4459.89 483.04 4459.89 483.52C4459.89 483.936 4460.02 484.24 4460.27 484.432C4460.53 484.613 4460.86 484.704 4461.25 484.704C4461.86 484.704 4462.37 484.533 4462.79 484.192C4463.2 483.84 4463.41 483.317 4463.41 482.624V481.888L4462.32 481.92ZM4470.8 477.184C4471.35 477.184 4471.84 477.291 4472.27 477.504C4472.71 477.717 4473.09 478.037 4473.39 478.464H4473.47L4473.67 477.344H4475.25V486.08C4475.25 486.901 4475.1 487.589 4474.79 488.144C4474.49 488.699 4474.03 489.12 4473.43 489.408C4472.82 489.696 4472.06 489.84 4471.14 489.84C4470.52 489.84 4469.95 489.797 4469.43 489.712C4468.9 489.637 4468.41 489.504 4467.95 489.312V487.696C4468.27 487.845 4468.61 487.968 4468.96 488.064C4469.31 488.171 4469.68 488.245 4470.07 488.288C4470.45 488.341 4470.85 488.368 4471.25 488.368C4471.92 488.368 4472.44 488.176 4472.8 487.792C4473.17 487.419 4473.35 486.88 4473.35 486.176V485.936C4473.35 485.776 4473.35 485.589 4473.36 485.376C4473.37 485.163 4473.38 484.992 4473.39 484.864H4473.33C4473.03 485.312 4472.67 485.643 4472.24 485.856C4471.82 486.059 4471.33 486.16 4470.77 486.16C4469.7 486.16 4468.87 485.765 4468.26 484.976C4467.66 484.187 4467.36 483.088 4467.36 481.68C4467.36 480.741 4467.5 479.936 4467.76 479.264C4468.04 478.592 4468.43 478.08 4468.95 477.728C4469.47 477.365 4470.09 477.184 4470.8 477.184ZM4471.28 478.752C4470.86 478.752 4470.5 478.869 4470.21 479.104C4469.92 479.328 4469.7 479.659 4469.55 480.096C4469.41 480.533 4469.33 481.072 4469.33 481.712C4469.33 482.672 4469.5 483.397 4469.83 483.888C4470.16 484.379 4470.65 484.624 4471.31 484.624C4471.69 484.624 4472 484.581 4472.26 484.496C4472.53 484.4 4472.74 484.245 4472.91 484.032C4473.09 483.819 4473.21 483.547 4473.3 483.216C4473.38 482.875 4473.43 482.469 4473.43 482V481.696C4473.43 480.992 4473.35 480.427 4473.2 480C4473.05 479.573 4472.82 479.259 4472.5 479.056C4472.19 478.853 4471.78 478.752 4471.28 478.752ZM4481.31 477.184C4482.08 477.184 4482.74 477.344 4483.3 477.664C4483.86 477.973 4484.3 478.421 4484.59 479.008C4484.89 479.584 4485.04 480.283 4485.04 481.104V482.112H4479.3C4479.32 482.923 4479.54 483.552 4479.97 484C4480.4 484.437 4480.99 484.656 4481.75 484.656C4482.3 484.656 4482.8 484.603 4483.23 484.496C4483.68 484.389 4484.14 484.229 4484.61 484.016V485.568C4484.17 485.771 4483.73 485.92 4483.27 486.016C4482.82 486.112 4482.28 486.16 4481.65 486.16C4480.81 486.16 4480.06 486 4479.41 485.68C4478.76 485.349 4478.25 484.853 4477.89 484.192C4477.53 483.531 4477.35 482.709 4477.35 481.728C4477.35 480.747 4477.51 479.92 4477.84 479.248C4478.17 478.576 4478.64 478.064 4479.23 477.712C4479.83 477.36 4480.53 477.184 4481.31 477.184ZM4481.31 478.624C4480.75 478.624 4480.3 478.805 4479.95 479.168C4479.61 479.52 4479.41 480.048 4479.35 480.752H4483.17C4483.17 480.325 4483.1 479.957 4482.96 479.648C4482.83 479.328 4482.63 479.077 4482.35 478.896C4482.09 478.715 4481.74 478.624 4481.31 478.624Z" fill="#1F1F1F" id="n1213"/>
<path d="M4338.8 530.576C4339.75 530.576 4340.54 530.672 4341.17 530.864C4341.81 531.045 4342.28 531.344 4342.59 531.76C4342.91 532.165 4343.07 532.709 4343.07 533.392C4343.07 533.84 4342.99 534.24 4342.82 534.592C4342.66 534.944 4342.41 535.237 4342.08 535.472C4341.76 535.696 4341.36 535.851 4340.88 535.936V536.016C4341.38 536.091 4341.82 536.235 4342.21 536.448C4342.6 536.661 4342.91 536.955 4343.12 537.328C4343.33 537.701 4343.44 538.176 4343.44 538.752C4343.44 539.456 4343.27 540.053 4342.94 540.544C4342.62 541.024 4342.17 541.387 4341.57 541.632C4340.98 541.877 4340.28 542 4339.46 542H4335.57V530.576H4338.8ZM4339.07 535.488C4340.07 535.488 4340.77 535.328 4341.15 535.008C4341.55 534.677 4341.74 534.187 4341.74 533.536C4341.74 532.875 4341.51 532.4 4341.06 532.112C4340.6 531.824 4339.86 531.68 4338.85 531.68H4336.85V535.488H4339.07ZM4336.85 536.576V540.912H4339.25C4340.27 540.912 4341 540.709 4341.42 540.304C4341.86 539.899 4342.08 539.349 4342.08 538.656C4342.08 538.219 4341.98 537.845 4341.78 537.536C4341.58 537.216 4341.27 536.976 4340.83 536.816C4340.41 536.656 4339.83 536.576 4339.12 536.576H4336.85ZM4348.84 533.296C4349.86 533.296 4350.62 533.531 4351.11 534C4351.6 534.459 4351.85 535.189 4351.85 536.192V542H4350.92L4350.68 540.72H4350.63C4350.4 541.029 4350.15 541.296 4349.88 541.52C4349.62 541.733 4349.32 541.893 4348.97 542C4348.63 542.107 4348.21 542.16 4347.72 542.16C4347.2 542.16 4346.73 542.069 4346.33 541.888C4345.92 541.707 4345.6 541.429 4345.37 541.056C4345.14 540.683 4345.03 540.219 4345.03 539.664C4345.03 538.811 4345.37 538.155 4346.04 537.696C4346.72 537.237 4347.75 536.987 4349.13 536.944L4350.62 536.88V536.352C4350.62 535.595 4350.46 535.067 4350.14 534.768C4349.83 534.469 4349.37 534.32 4348.78 534.32C4348.33 534.32 4347.9 534.384 4347.5 534.512C4347.1 534.64 4346.72 534.795 4346.34 534.976L4345.96 534.016C4346.34 533.813 4346.79 533.643 4347.29 533.504C4347.79 533.365 4348.31 533.296 4348.84 533.296ZM4349.29 537.824C4348.22 537.867 4347.46 538.043 4347.02 538.352C4346.57 538.661 4346.34 539.104 4346.34 539.68C4346.34 540.171 4346.49 540.539 4346.79 540.784C4347.1 541.019 4347.5 541.136 4347.99 541.136C4348.77 541.136 4349.4 540.923 4349.88 540.496C4350.36 540.059 4350.6 539.413 4350.6 538.56V537.776L4349.29 537.824ZM4357.24 541.12C4357.46 541.12 4357.68 541.104 4357.89 541.072C4358.12 541.029 4358.3 540.987 4358.45 540.944V541.904C4358.29 541.979 4358.08 542.037 4357.81 542.08C4357.56 542.133 4357.3 542.16 4357.03 542.16C4356.58 542.16 4356.18 542.08 4355.81 541.92C4355.45 541.76 4355.16 541.493 4354.93 541.12C4354.72 540.736 4354.61 540.208 4354.61 539.536V534.432H4353.38V533.808L4354.63 533.328L4355.11 531.456H4355.88V533.44H4358.39V534.432H4355.88V539.504C4355.88 540.048 4355.99 540.453 4356.23 540.72C4356.47 540.987 4356.81 541.12 4357.24 541.12ZM4362.92 541.12C4363.15 541.12 4363.37 541.104 4363.58 541.072C4363.8 541.029 4363.99 540.987 4364.14 540.944V541.904C4363.98 541.979 4363.77 542.037 4363.5 542.08C4363.24 542.133 4362.98 542.16 4362.72 542.16C4362.27 542.16 4361.86 542.08 4361.5 541.92C4361.14 541.76 4360.84 541.493 4360.62 541.12C4360.41 540.736 4360.3 540.208 4360.3 539.536V534.432H4359.07V533.808L4360.32 533.328L4360.8 531.456H4361.56V533.44H4364.08V534.432H4361.56V539.504C4361.56 540.048 4361.68 540.453 4361.92 540.72C4362.16 540.987 4362.5 541.12 4362.92 541.12ZM4369.17 533.28C4369.91 533.28 4370.53 533.445 4371.04 533.776C4371.57 534.096 4371.96 534.549 4372.23 535.136C4372.5 535.712 4372.64 536.389 4372.64 537.168V537.952H4366.71C4366.73 538.965 4366.98 539.744 4367.46 540.288C4367.95 540.821 4368.64 541.088 4369.54 541.088C4370.07 541.088 4370.55 541.04 4370.96 540.944C4371.38 540.837 4371.81 540.688 4372.26 540.496V541.6C4371.83 541.792 4371.41 541.931 4370.98 542.016C4370.55 542.112 4370.05 542.16 4369.48 542.16C4368.65 542.16 4367.93 541.995 4367.32 541.664C4366.71 541.323 4366.24 540.827 4365.91 540.176C4365.58 539.515 4365.41 538.72 4365.41 537.792C4365.41 536.875 4365.56 536.08 4365.86 535.408C4366.17 534.736 4366.61 534.213 4367.17 533.84C4367.74 533.467 4368.4 533.28 4369.17 533.28ZM4369.16 534.32C4368.45 534.32 4367.89 534.549 4367.48 535.008C4367.06 535.467 4366.81 536.112 4366.74 536.944H4371.33C4371.33 536.421 4371.25 535.968 4371.09 535.584C4370.94 535.189 4370.71 534.88 4370.39 534.656C4370.07 534.432 4369.66 534.32 4369.16 534.32ZM4378.68 533.296C4378.87 533.296 4379.05 533.307 4379.23 533.328C4379.42 533.339 4379.59 533.36 4379.74 533.392L4379.58 534.56C4379.43 534.517 4379.27 534.485 4379.1 534.464C4378.94 534.443 4378.78 534.432 4378.6 534.432C4378.26 534.432 4377.94 534.507 4377.63 534.656C4377.33 534.795 4377.06 534.992 4376.83 535.248C4376.6 535.504 4376.43 535.813 4376.3 536.176C4376.17 536.539 4376.11 536.944 4376.11 537.392V542H4374.84V533.44H4375.88L4376.01 535.024H4376.08C4376.25 534.704 4376.46 534.416 4376.7 534.16C4376.96 533.893 4377.25 533.685 4377.58 533.536C4377.92 533.376 4378.29 533.296 4378.68 533.296ZM4380 533.44H4381.34L4383.25 538.448C4383.36 538.747 4383.46 539.029 4383.55 539.296C4383.65 539.563 4383.73 539.819 4383.81 540.064C4383.88 540.299 4383.94 540.528 4383.98 540.752H4384.03C4384.11 540.496 4384.21 540.16 4384.34 539.744C4384.48 539.317 4384.62 538.885 4384.78 538.448L4386.59 533.44H4387.95L4384.21 543.28C4384.02 543.803 4383.79 544.256 4383.52 544.64C4383.26 545.024 4382.95 545.317 4382.58 545.52C4382.21 545.733 4381.77 545.84 4381.25 545.84C4381 545.84 4380.79 545.824 4380.61 545.792C4380.43 545.771 4380.26 545.744 4380.11 545.712V544.704C4380.24 544.725 4380.38 544.747 4380.54 544.768C4380.7 544.8 4380.88 544.816 4381.06 544.816C4381.38 544.816 4381.65 544.752 4381.89 544.624C4382.12 544.507 4382.33 544.325 4382.5 544.08C4382.67 543.845 4382.82 543.563 4382.94 543.232L4383.42 542.016L4380 533.44ZM4399.01 539.664C4399.01 540.208 4398.87 540.667 4398.59 541.04C4398.32 541.403 4397.93 541.68 4397.42 541.872C4396.92 542.064 4396.32 542.16 4395.61 542.16C4395.02 542.16 4394.5 542.112 4394.06 542.016C4393.62 541.92 4393.24 541.787 4392.91 541.616V540.464C4393.26 540.635 4393.68 540.789 4394.16 540.928C4394.65 541.067 4395.14 541.136 4395.65 541.136C4396.39 541.136 4396.93 541.013 4397.26 540.768C4397.6 540.523 4397.77 540.192 4397.77 539.776C4397.77 539.531 4397.7 539.317 4397.57 539.136C4397.44 538.955 4397.21 538.779 4396.89 538.608C4396.58 538.437 4396.15 538.251 4395.6 538.048C4395.05 537.845 4394.58 537.643 4394.19 537.44C4393.79 537.237 4393.49 536.987 4393.26 536.688C4393.05 536.389 4392.94 536.005 4392.94 535.536C4392.94 534.811 4393.23 534.256 4393.81 533.872C4394.39 533.477 4395.16 533.28 4396.11 533.28C4396.63 533.28 4397.12 533.333 4397.57 533.44C4398.01 533.536 4398.43 533.669 4398.81 533.84L4398.38 534.864C4398.16 534.757 4397.91 534.667 4397.65 534.592C4397.39 534.507 4397.12 534.443 4396.85 534.4C4396.58 534.347 4396.31 534.32 4396.03 534.32C4395.42 534.32 4394.95 534.421 4394.62 534.624C4394.3 534.827 4394.14 535.104 4394.14 535.456C4394.14 535.723 4394.22 535.947 4394.37 536.128C4394.51 536.299 4394.75 536.459 4395.09 536.608C4395.43 536.757 4395.86 536.933 4396.38 537.136C4396.91 537.328 4397.37 537.531 4397.76 537.744C4398.15 537.947 4398.46 538.203 4398.67 538.512C4398.89 538.811 4399.01 539.195 4399.01 539.664ZM4404.26 533.296C4405.29 533.296 4406.04 533.531 4406.53 534C4407.03 534.459 4407.27 535.189 4407.27 536.192V542H4406.34L4406.1 540.72H4406.05C4405.82 541.029 4405.57 541.296 4405.3 541.52C4405.05 541.733 4404.74 541.893 4404.39 542C4404.05 542.107 4403.63 542.16 4403.14 542.16C4402.62 542.16 4402.16 542.069 4401.75 541.888C4401.35 541.707 4401.03 541.429 4400.79 541.056C4400.57 540.683 4400.45 540.219 4400.45 539.664C4400.45 538.811 4400.79 538.155 4401.46 537.696C4402.15 537.237 4403.17 536.987 4404.55 536.944L4406.04 536.88V536.352C4406.04 535.595 4405.88 535.067 4405.56 534.768C4405.25 534.469 4404.8 534.32 4404.2 534.32C4403.75 534.32 4403.32 534.384 4402.92 534.512C4402.52 534.64 4402.14 534.795 4401.77 534.976L4401.38 534.016C4401.77 533.813 4402.21 533.643 4402.71 533.504C4403.21 533.365 4403.73 533.296 4404.26 533.296ZM4404.71 537.824C4403.64 537.867 4402.89 538.043 4402.44 538.352C4401.99 538.661 4401.77 539.104 4401.77 539.68C4401.77 540.171 4401.92 540.539 4402.21 540.784C4402.52 541.019 4402.92 541.136 4403.41 541.136C4404.19 541.136 4404.82 540.923 4405.3 540.496C4405.78 540.059 4406.02 539.413 4406.02 538.56V537.776L4404.71 537.824ZM4411.81 542L4408.56 533.44H4409.91L4411.81 538.672C4411.9 538.907 4411.99 539.163 4412.08 539.44C4412.18 539.707 4412.26 539.963 4412.32 540.208C4412.4 540.453 4412.45 540.667 4412.48 540.848H4412.55C4412.59 540.667 4412.65 540.453 4412.72 540.208C4412.81 539.952 4412.9 539.691 4412.99 539.424C4413.09 539.147 4413.18 538.896 4413.25 538.672L4415.15 533.44H4416.5L4413.23 542H4411.81ZM4419.12 533.44V542H4417.88V533.44H4419.12ZM4418.52 530.24C4418.73 530.24 4418.91 530.309 4419.04 530.448C4419.19 530.587 4419.27 530.8 4419.27 531.088C4419.27 531.355 4419.19 531.563 4419.04 531.712C4418.91 531.851 4418.73 531.92 4418.52 531.92C4418.29 531.92 4418.11 531.851 4417.96 531.712C4417.82 531.563 4417.75 531.355 4417.75 531.088C4417.75 530.8 4417.82 530.587 4417.96 530.448C4418.11 530.309 4418.29 530.24 4418.52 530.24ZM4425.91 533.28C4426.91 533.28 4427.67 533.531 4428.2 534.032C4428.72 534.523 4428.98 535.317 4428.98 536.416V542H4427.73V536.512C4427.73 535.776 4427.57 535.232 4427.24 534.88C4426.91 534.528 4426.4 534.352 4425.73 534.352C4424.78 534.352 4424.11 534.619 4423.72 535.152C4423.32 535.685 4423.12 536.464 4423.12 537.488V542H4421.88V533.44H4422.88L4423.08 534.704H4423.14C4423.33 534.395 4423.57 534.139 4423.84 533.936C4424.12 533.723 4424.44 533.563 4424.79 533.456C4425.14 533.339 4425.51 533.28 4425.91 533.28ZM4434.71 533.28C4435.31 533.28 4435.83 533.397 4436.28 533.632C4436.73 533.856 4437.11 534.187 4437.42 534.624H4437.5L4437.67 533.44H4438.67V542.176C4438.67 542.965 4438.53 543.632 4438.27 544.176C4438 544.731 4437.58 545.147 4437.02 545.424C4436.46 545.701 4435.75 545.84 4434.87 545.84C4434.25 545.84 4433.69 545.792 4433.18 545.696C4432.67 545.6 4432.21 545.467 4431.8 545.296V544.112C4432.08 544.251 4432.38 544.368 4432.71 544.464C4433.04 544.571 4433.4 544.651 4433.77 544.704C4434.15 544.757 4434.55 544.784 4434.95 544.784C4435.74 544.784 4436.35 544.56 4436.78 544.112C4437.2 543.664 4437.42 543.051 4437.42 542.272V541.888C4437.42 541.739 4437.42 541.547 4437.43 541.312C4437.44 541.067 4437.45 540.88 4437.47 540.752H4437.42C4437.13 541.221 4436.76 541.573 4436.3 541.808C4435.85 542.043 4435.32 542.16 4434.7 542.16C4433.59 542.16 4432.72 541.776 4432.11 541.008C4431.49 540.24 4431.18 539.157 4431.18 537.76C4431.18 536.843 4431.32 536.048 4431.59 535.376C4431.87 534.704 4432.27 534.187 4432.79 533.824C4433.33 533.461 4433.97 533.28 4434.71 533.28ZM4434.87 534.352C4434.36 534.352 4433.92 534.485 4433.56 534.752C4433.21 535.019 4432.94 535.408 4432.75 535.92C4432.56 536.421 4432.47 537.04 4432.47 537.776C4432.47 538.853 4432.68 539.68 4433.08 540.256C4433.5 540.832 4434.09 541.12 4434.87 541.12C4435.34 541.12 4435.74 541.056 4436.06 540.928C4436.38 540.8 4436.64 540.608 4436.84 540.352C4437.05 540.096 4437.2 539.776 4437.29 539.392C4437.39 539.008 4437.43 538.565 4437.43 538.064V537.664C4437.43 536.896 4437.34 536.272 4437.16 535.792C4436.99 535.301 4436.72 534.939 4436.35 534.704C4435.97 534.469 4435.48 534.352 4434.87 534.352ZM4454.83 533.28C4455.77 533.28 4456.47 533.525 4456.94 534.016C4457.42 534.507 4457.66 535.296 4457.66 536.384V542H4456.43V536.448C4456.43 535.744 4456.27 535.221 4455.96 534.88C4455.66 534.528 4455.22 534.352 4454.62 534.352C4453.8 534.352 4453.2 534.592 4452.81 535.072C4452.43 535.541 4452.24 536.251 4452.24 537.2V542H4451V536.448C4451 535.979 4450.93 535.589 4450.8 535.28C4450.66 534.96 4450.45 534.725 4450.19 534.576C4449.92 534.427 4449.59 534.352 4449.2 534.352C4448.63 534.352 4448.17 534.469 4447.82 534.704C4447.48 534.939 4447.23 535.285 4447.07 535.744C4446.91 536.192 4446.83 536.757 4446.83 537.44V542H4445.58V533.44H4446.59L4446.78 534.672H4446.84C4447.02 534.373 4447.24 534.123 4447.48 533.92C4447.74 533.707 4448.03 533.547 4448.35 533.44C4448.68 533.333 4449.03 533.28 4449.4 533.28C4450.05 533.28 4450.6 533.403 4451.04 533.648C4451.47 533.893 4451.79 534.267 4452 534.768H4452.06C4452.34 534.277 4452.72 533.909 4453.21 533.664C4453.7 533.408 4454.24 533.28 4454.83 533.28ZM4467.7 537.712C4467.7 538.405 4467.61 539.029 4467.43 539.584C4467.25 540.128 4466.99 540.592 4466.65 540.976C4466.31 541.36 4465.89 541.653 4465.4 541.856C4464.91 542.059 4464.36 542.16 4463.75 542.16C4463.18 542.16 4462.65 542.059 4462.17 541.856C4461.7 541.653 4461.29 541.36 4460.94 540.976C4460.6 540.592 4460.33 540.128 4460.14 539.584C4459.96 539.04 4459.86 538.416 4459.86 537.712C4459.86 536.773 4460.02 535.979 4460.33 535.328C4460.65 534.667 4461.1 534.16 4461.69 533.808C4462.29 533.456 4462.99 533.28 4463.8 533.28C4464.59 533.28 4465.27 533.456 4465.85 533.808C4466.44 534.16 4466.89 534.667 4467.21 535.328C4467.54 535.989 4467.7 536.784 4467.7 537.712ZM4461.16 537.712C4461.16 538.395 4461.25 538.992 4461.43 539.504C4461.62 540.016 4461.91 540.411 4462.3 540.688C4462.68 540.965 4463.17 541.104 4463.77 541.104C4464.38 541.104 4464.87 540.965 4465.26 540.688C4465.65 540.411 4465.94 540.016 4466.12 539.504C4466.3 538.992 4466.39 538.395 4466.39 537.712C4466.39 537.019 4466.3 536.427 4466.1 535.936C4465.92 535.435 4465.64 535.045 4465.26 534.768C4464.88 534.491 4464.39 534.352 4463.77 534.352C4462.87 534.352 4462.21 534.651 4461.78 535.248C4461.37 535.835 4461.16 536.656 4461.16 537.712ZM4472.98 542.16C4471.89 542.16 4471.03 541.792 4470.4 541.056C4469.77 540.309 4469.46 539.211 4469.46 537.76C4469.46 536.288 4469.78 535.173 4470.42 534.416C4471.06 533.659 4471.92 533.28 4473.01 533.28C4473.47 533.28 4473.87 533.344 4474.21 533.472C4474.55 533.589 4474.85 533.755 4475.09 533.968C4475.34 534.171 4475.54 534.4 4475.7 534.656H4475.78C4475.77 534.485 4475.75 534.261 4475.73 533.984C4475.71 533.696 4475.7 533.456 4475.7 533.264V529.84H4476.96V542H4475.94L4475.76 540.752H4475.7C4475.54 541.008 4475.33 541.243 4475.07 541.456C4474.83 541.669 4474.54 541.84 4474.19 541.968C4473.85 542.096 4473.45 542.16 4472.98 542.16ZM4473.17 541.104C4474.1 541.104 4474.75 540.843 4475.14 540.32C4475.52 539.797 4475.71 539.013 4475.71 537.968V537.744C4475.71 536.645 4475.53 535.803 4475.15 535.216C4474.78 534.629 4474.12 534.336 4473.17 534.336C4472.37 534.336 4471.77 534.645 4471.36 535.264C4470.96 535.872 4470.75 536.715 4470.75 537.792C4470.75 538.848 4470.95 539.664 4471.35 540.24C4471.75 540.816 4472.36 541.104 4473.17 541.104ZM4482.98 533.28C4483.72 533.28 4484.34 533.445 4484.86 533.776C4485.38 534.096 4485.77 534.549 4486.04 535.136C4486.32 535.712 4486.46 536.389 4486.46 537.168V537.952H4480.52C4480.54 538.965 4480.79 539.744 4481.27 540.288C4481.76 540.821 4482.46 541.088 4483.35 541.088C4483.89 541.088 4484.36 541.04 4484.78 540.944C4485.19 540.837 4485.62 540.688 4486.07 540.496V541.6C4485.65 541.792 4485.22 541.931 4484.79 542.016C4484.37 542.112 4483.86 542.16 4483.29 542.16C4482.47 542.16 4481.75 541.995 4481.13 541.664C4480.52 541.323 4480.05 540.827 4479.72 540.176C4479.39 539.515 4479.22 538.72 4479.22 537.792C4479.22 536.875 4479.37 536.08 4479.67 535.408C4479.98 534.736 4480.42 534.213 4480.98 533.84C4481.55 533.467 4482.22 533.28 4482.98 533.28ZM4482.97 534.32C4482.26 534.32 4481.7 534.549 4481.29 535.008C4480.87 535.467 4480.63 536.112 4480.55 536.944H4485.14C4485.14 536.421 4485.06 535.968 4484.9 535.584C4484.75 535.189 4484.52 534.88 4484.2 534.656C4483.88 534.432 4483.47 534.32 4482.97 534.32Z" fill="#1F1F1F" id="n1214"/>
<path d="M4562 524.5H4586C4592.35 524.5 4597.5 529.649 4597.5 536C4597.5 542.351 4592.35 547.5 4586 547.5H4562C4555.65 547.5 4550.5 542.351 4550.5 536C4550.5 529.649 4555.65 524.5 4562 524.5Z" fill="black" fill-opacity="0.04" id="n1215"/>
<path d="M4562 524.5H4586C4592.35 524.5 4597.5 529.649 4597.5 536C4597.5 542.351 4592.35 547.5 4586 547.5H4562C4555.65 547.5 4550.5 542.351 4550.5 536C4550.5 529.649 4555.65 524.5 4562 524.5Z" stroke="#8E8E8E" id="n1216"/>
<path fill-rule="evenodd" clip-rule="evenodd" d="M4562 542C4565.31 542 4568 539.314 4568 536C4568 532.686 4565.31 530 4562 530C4558.69 530 4556 532.686 4556 536C4556 539.314 4558.69 542 4562 542Z" fill="#535353" id="n1217"/>
<path d="M4332.43 602L4329.2 592.544H4329.14C4329.15 592.757 4329.16 593.056 4329.18 593.44C4329.21 593.813 4329.22 594.224 4329.23 594.672C4329.25 595.109 4329.26 595.525 4329.26 595.92V602H4327.49V590.576H4330.24L4333.33 599.616H4333.38L4336.59 590.576H4339.33V602H4337.46V595.824C4337.46 595.461 4337.46 595.072 4337.47 594.656C4337.49 594.229 4337.51 593.829 4337.52 593.456C4337.54 593.072 4337.56 592.773 4337.57 592.56H4337.5L4334.16 602H4332.43ZM4349.97 597.648C4349.97 598.373 4349.87 599.013 4349.68 599.568C4349.49 600.123 4349.21 600.597 4348.85 600.992C4348.5 601.376 4348.07 601.669 4347.55 601.872C4347.04 602.064 4346.47 602.16 4345.84 602.16C4345.26 602.16 4344.71 602.064 4344.21 601.872C4343.71 601.669 4343.28 601.376 4342.91 600.992C4342.55 600.597 4342.27 600.123 4342.07 599.568C4341.86 599.013 4341.76 598.373 4341.76 597.648C4341.76 596.688 4341.93 595.877 4342.26 595.216C4342.59 594.555 4343.06 594.053 4343.68 593.712C4344.3 593.36 4345.04 593.184 4345.89 593.184C4346.69 593.184 4347.39 593.36 4348 593.712C4348.61 594.053 4349.09 594.555 4349.44 595.216C4349.79 595.877 4349.97 596.688 4349.97 597.648ZM4343.73 597.648C4343.73 598.277 4343.81 598.811 4343.95 599.248C4344.1 599.685 4344.33 600.021 4344.64 600.256C4344.96 600.48 4345.37 600.592 4345.87 600.592C4346.37 600.592 4346.77 600.48 4347.07 600.256C4347.39 600.021 4347.63 599.685 4347.78 599.248C4347.93 598.811 4348 598.283 4348 597.664C4348 597.035 4347.93 596.507 4347.78 596.08C4347.63 595.643 4347.39 595.312 4347.07 595.088C4346.77 594.864 4346.36 594.752 4345.86 594.752C4345.11 594.752 4344.57 595.003 4344.23 595.504C4343.9 596.005 4343.73 596.72 4343.73 597.648ZM4355.1 602.16C4354.09 602.16 4353.27 601.787 4352.64 601.04C4352.02 600.283 4351.71 599.163 4351.71 597.68C4351.71 596.197 4352.02 595.077 4352.65 594.32C4353.28 593.563 4354.11 593.184 4355.15 593.184C4355.58 593.184 4355.95 593.243 4356.27 593.36C4356.6 593.467 4356.88 593.616 4357.12 593.808C4357.36 594 4357.57 594.213 4357.73 594.448H4357.82C4357.8 594.299 4357.77 594.075 4357.73 593.776C4357.69 593.467 4357.68 593.189 4357.68 592.944V589.84H4359.6V602H4358.11L4357.76 600.864H4357.68C4357.52 601.099 4357.32 601.317 4357.09 601.52C4356.85 601.712 4356.57 601.867 4356.24 601.984C4355.92 602.101 4355.54 602.16 4355.1 602.16ZM4355.65 600.608C4356.42 600.608 4356.97 600.389 4357.28 599.952C4357.6 599.504 4357.76 598.837 4357.77 597.952V597.696C4357.77 596.747 4357.62 596.021 4357.31 595.52C4357.01 595.008 4356.45 594.752 4355.63 594.752C4354.99 594.752 4354.5 595.013 4354.16 595.536C4353.83 596.059 4353.66 596.784 4353.66 597.712C4353.66 598.651 4353.83 599.371 4354.16 599.872C4354.5 600.363 4354.99 600.608 4355.65 600.608ZM4365.81 593.184C4366.58 593.184 4367.24 593.344 4367.8 593.664C4368.36 593.973 4368.79 594.421 4369.09 595.008C4369.39 595.584 4369.54 596.283 4369.54 597.104V598.112H4363.8C4363.82 598.923 4364.04 599.552 4364.47 600C4364.89 600.437 4365.49 600.656 4366.24 600.656C4366.8 600.656 4367.29 600.603 4367.73 600.496C4368.18 600.389 4368.64 600.229 4369.11 600.016V601.568C4368.67 601.771 4368.22 601.92 4367.76 602.016C4367.32 602.112 4366.78 602.16 4366.15 602.16C4365.31 602.16 4364.56 602 4363.91 601.68C4363.26 601.349 4362.75 600.853 4362.39 600.192C4362.03 599.531 4361.84 598.709 4361.84 597.728C4361.84 596.747 4362.01 595.92 4362.34 595.248C4362.67 594.576 4363.13 594.064 4363.73 593.712C4364.33 593.36 4365.02 593.184 4365.81 593.184ZM4365.81 594.624C4365.25 594.624 4364.79 594.805 4364.45 595.168C4364.11 595.52 4363.91 596.048 4363.84 596.752H4367.67C4367.67 596.325 4367.6 595.957 4367.46 595.648C4367.33 595.328 4367.13 595.077 4366.85 594.896C4366.59 594.715 4366.24 594.624 4365.81 594.624Z" fill="#535353" id="n1218"/>
<rect x="4330.5" y="636.5" width="23" height="23" rx="11.5" fill="black" fill-opacity="0.04" id="n1219"/>
<rect x="4330.5" y="636.5" width="23" height="23" rx="11.5" stroke="#8E8E8E" id="n1220"/>
<path d="M4368.58 654L4364.72 643.856H4364.66C4364.68 644.059 4364.69 644.315 4364.7 644.624C4364.73 644.923 4364.74 645.248 4364.74 645.6C4364.75 645.952 4364.75 646.315 4364.75 646.688V654H4363.57V642.576H4365.47L4369.12 652.128H4369.18L4372.88 642.576H4374.77V654H4373.5V646.592C4373.5 646.251 4373.51 645.915 4373.52 645.584C4373.53 645.253 4373.54 644.939 4373.55 644.64C4373.57 644.341 4373.59 644.085 4373.6 643.872H4373.54L4369.63 654H4368.58ZM4385.08 649.712C4385.08 650.405 4384.99 651.029 4384.81 651.584C4384.63 652.128 4384.37 652.592 4384.02 652.976C4383.68 653.36 4383.27 653.653 4382.78 653.856C4382.29 654.059 4381.74 654.16 4381.13 654.16C4380.55 654.16 4380.02 654.059 4379.54 653.856C4379.07 653.653 4378.66 653.36 4378.31 652.976C4377.97 652.592 4377.7 652.128 4377.51 651.584C4377.33 651.04 4377.24 650.416 4377.24 649.712C4377.24 648.773 4377.39 647.979 4377.7 647.328C4378.02 646.667 4378.48 646.16 4379.06 645.808C4379.66 645.456 4380.37 645.28 4381.18 645.28C4381.97 645.28 4382.65 645.456 4383.22 645.808C4383.81 646.16 4384.26 646.667 4384.58 647.328C4384.91 647.989 4385.08 648.784 4385.08 649.712ZM4378.54 649.712C4378.54 650.395 4378.63 650.992 4378.81 651.504C4379 652.016 4379.29 652.411 4379.67 652.688C4380.06 652.965 4380.55 653.104 4381.14 653.104C4381.75 653.104 4382.25 652.965 4382.63 652.688C4383.03 652.411 4383.31 652.016 4383.5 651.504C4383.68 650.992 4383.77 650.395 4383.77 649.712C4383.77 649.019 4383.67 648.427 4383.48 647.936C4383.3 647.435 4383.02 647.045 4382.63 646.768C4382.26 646.491 4381.76 646.352 4381.14 646.352C4380.25 646.352 4379.59 646.651 4379.16 647.248C4378.74 647.835 4378.54 648.656 4378.54 649.712ZM4390.35 654.16C4389.27 654.16 4388.41 653.792 4387.78 653.056C4387.15 652.309 4386.83 651.211 4386.83 649.76C4386.83 648.288 4387.15 647.173 4387.79 646.416C4388.43 645.659 4389.3 645.28 4390.39 645.28C4390.84 645.28 4391.24 645.344 4391.59 645.472C4391.93 645.589 4392.22 645.755 4392.47 645.968C4392.71 646.171 4392.91 646.4 4393.07 646.656H4393.15C4393.14 646.485 4393.13 646.261 4393.11 645.984C4393.08 645.696 4393.07 645.456 4393.07 645.264V641.84H4394.34V654H4393.31L4393.14 652.752H4393.07C4392.91 653.008 4392.71 653.243 4392.45 653.456C4392.2 653.669 4391.91 653.84 4391.57 653.968C4391.23 654.096 4390.82 654.16 4390.35 654.16ZM4390.55 653.104C4391.47 653.104 4392.13 652.843 4392.51 652.32C4392.9 651.797 4393.09 651.013 4393.09 649.968V649.744C4393.09 648.645 4392.9 647.803 4392.53 647.216C4392.16 646.629 4391.49 646.336 4390.55 646.336C4389.75 646.336 4389.14 646.645 4388.74 647.264C4388.33 647.872 4388.13 648.715 4388.13 649.792C4388.13 650.848 4388.33 651.664 4388.72 652.24C4389.13 652.816 4389.73 653.104 4390.55 653.104ZM4400.36 645.28C4401.1 645.28 4401.72 645.445 4402.23 645.776C4402.75 646.096 4403.15 646.549 4403.42 647.136C4403.69 647.712 4403.83 648.389 4403.83 649.168V649.952H4397.9C4397.92 650.965 4398.17 651.744 4398.65 652.288C4399.14 652.821 4399.83 653.088 4400.73 653.088C4401.26 653.088 4401.74 653.04 4402.15 652.944C4402.57 652.837 4403 652.688 4403.45 652.496V653.6C4403.02 653.792 4402.59 653.931 4402.17 654.016C4401.74 654.112 4401.24 654.16 4400.66 654.16C4399.84 654.16 4399.12 653.995 4398.5 653.664C4397.9 653.323 4397.43 652.827 4397.1 652.176C4396.76 651.515 4396.6 650.72 4396.6 649.792C4396.6 648.875 4396.75 648.08 4397.05 647.408C4397.36 646.736 4397.79 646.213 4398.36 645.84C4398.92 645.467 4399.59 645.28 4400.36 645.28ZM4400.34 646.32C4399.64 646.32 4399.08 646.549 4398.66 647.008C4398.25 647.467 4398 648.112 4397.93 648.944H4402.52C4402.52 648.421 4402.44 647.968 4402.28 647.584C4402.13 647.189 4401.9 646.88 4401.58 646.656C4401.26 646.432 4400.84 646.32 4400.34 646.32ZM4414.41 654H4413.18V645.856C4413.18 645.547 4413.18 645.285 4413.18 645.072C4413.19 644.859 4413.2 644.661 4413.2 644.48C4413.21 644.288 4413.22 644.096 4413.23 643.904C4413.07 644.064 4412.92 644.203 4412.78 644.32C4412.64 644.427 4412.47 644.571 4412.27 644.752L4410.92 645.808L4410.27 644.96L4413.36 642.576H4414.41V654Z" fill="#1F1F1F" id="n1221"/>
<rect x="4330.5" y="684.5" width="23" height="23" rx="11.5" fill="#2D548B" id="n1222"/>
<rect x="4330.5" y="684.5" width="23" height="23" rx="11.5" stroke="#1D3C67" id="n1223"/>
<path fill-rule="evenodd" clip-rule="evenodd" d="M4342 700C4344.21 700 4346 698.209 4346 696C4346 693.791 4344.21 692 4342 692C4339.79 692 4338 693.791 4338 696C4338 698.209 4339.79 700 4342 700Z" fill="white" id="n1224"/>
<path d="M4368.3 702L4365.44 692.928H4365.38C4365.39 693.141 4365.4 693.456 4365.42 693.872C4365.45 694.277 4365.47 694.72 4365.49 695.2C4365.51 695.669 4365.52 696.107 4365.52 696.512V702H4363.46V690.576H4366.62L4369.41 699.376H4369.46L4372.42 690.576H4375.57V702H4373.41V696.416C4373.41 696.043 4373.41 695.632 4373.42 695.184C4373.45 694.725 4373.46 694.293 4373.47 693.888C4373.49 693.472 4373.51 693.157 4373.52 692.944H4373.46L4370.42 702H4368.3ZM4386.17 697.632C4386.17 698.357 4386.07 699.003 4385.88 699.568C4385.69 700.123 4385.4 700.597 4385.03 700.992C4384.67 701.376 4384.23 701.669 4383.7 701.872C4383.19 702.064 4382.61 702.16 4381.96 702.16C4381.35 702.16 4380.79 702.064 4380.26 701.872C4379.75 701.669 4379.31 701.376 4378.94 700.992C4378.57 700.597 4378.28 700.117 4378.07 699.552C4377.87 698.987 4377.77 698.341 4377.77 697.616C4377.77 696.656 4377.94 695.845 4378.28 695.184C4378.62 694.512 4379.11 694 4379.74 693.648C4380.38 693.296 4381.13 693.12 4381.99 693.12C4382.81 693.12 4383.53 693.296 4384.15 693.648C4384.78 694 4385.27 694.512 4385.62 695.184C4385.99 695.845 4386.17 696.661 4386.17 697.632ZM4380.09 697.632C4380.09 698.219 4380.15 698.715 4380.28 699.12C4380.41 699.515 4380.61 699.813 4380.89 700.016C4381.18 700.219 4381.54 700.32 4381.98 700.32C4382.42 700.32 4382.78 700.219 4383.05 700.016C4383.32 699.813 4383.53 699.515 4383.66 699.12C4383.78 698.715 4383.85 698.219 4383.85 697.632C4383.85 697.035 4383.78 696.539 4383.66 696.144C4383.53 695.749 4383.32 695.456 4383.05 695.264C4382.77 695.061 4382.41 694.96 4381.96 694.96C4381.31 694.96 4380.83 695.184 4380.54 695.632C4380.24 696.08 4380.09 696.747 4380.09 697.632ZM4390.97 702.16C4389.99 702.16 4389.19 701.781 4388.57 701.024C4387.95 700.256 4387.64 699.136 4387.64 697.664C4387.64 696.171 4387.95 695.04 4388.57 694.272C4389.2 693.504 4390.02 693.12 4391.02 693.12C4391.44 693.12 4391.82 693.179 4392.14 693.296C4392.46 693.403 4392.73 693.552 4392.95 693.744C4393.19 693.936 4393.39 694.155 4393.55 694.4H4393.64C4393.61 694.229 4393.57 693.984 4393.53 693.664C4393.49 693.344 4393.47 693.024 4393.47 692.704V689.84H4395.74V702H4393.99L4393.56 700.864H4393.47C4393.32 701.099 4393.12 701.317 4392.89 701.52C4392.67 701.712 4392.39 701.867 4392.07 701.984C4391.76 702.101 4391.4 702.16 4390.97 702.16ZM4391.72 700.336C4392.42 700.336 4392.9 700.139 4393.18 699.744C4393.46 699.339 4393.6 698.736 4393.61 697.936V697.68C4393.61 696.795 4393.47 696.123 4393.19 695.664C4392.93 695.205 4392.43 694.976 4391.71 694.976C4391.15 694.976 4390.72 695.211 4390.41 695.68C4390.1 696.149 4389.95 696.821 4389.95 697.696C4389.95 698.56 4390.1 699.216 4390.41 699.664C4390.72 700.112 4391.16 700.336 4391.72 700.336ZM4401.83 693.12C4402.63 693.12 4403.32 693.275 4403.9 693.584C4404.47 693.893 4404.91 694.341 4405.22 694.928C4405.54 695.515 4405.7 696.229 4405.7 697.072V698.192H4400.04C4400.06 698.896 4400.26 699.451 4400.65 699.856C4401.04 700.251 4401.59 700.448 4402.28 700.448C4402.85 700.448 4403.35 700.395 4403.8 700.288C4404.26 700.171 4404.73 700 4405.22 699.776V701.536C4404.8 701.749 4404.35 701.904 4403.88 702C4403.41 702.107 4402.85 702.16 4402.18 702.16C4401.31 702.16 4400.54 702 4399.86 701.68C4399.2 701.349 4398.68 700.853 4398.3 700.192C4397.92 699.531 4397.74 698.704 4397.74 697.712C4397.74 696.688 4397.91 695.84 4398.25 695.168C4398.59 694.496 4399.06 693.989 4399.67 693.648C4400.29 693.296 4401.01 693.12 4401.83 693.12ZM4401.85 694.752C4401.36 694.752 4400.95 694.912 4400.63 695.232C4400.32 695.541 4400.14 696.021 4400.09 696.672H4403.54C4403.54 696.299 4403.48 695.968 4403.35 695.68C4403.23 695.392 4403.05 695.168 4402.79 695.008C4402.55 694.837 4402.23 694.752 4401.85 694.752ZM4419.15 702H4411.22V700.384L4414.1 697.472C4414.67 696.875 4415.14 696.373 4415.49 695.968C4415.85 695.563 4416.11 695.195 4416.27 694.864C4416.45 694.523 4416.53 694.155 4416.53 693.76C4416.53 693.28 4416.4 692.923 4416.13 692.688C4415.86 692.453 4415.51 692.336 4415.06 692.336C4414.61 692.336 4414.18 692.437 4413.76 692.64C4413.35 692.843 4412.91 693.131 4412.45 693.504L4411.2 692.016C4411.53 691.728 4411.88 691.467 4412.24 691.232C4412.61 690.987 4413.03 690.789 4413.51 690.64C4413.99 690.491 4414.56 690.416 4415.22 690.416C4415.97 690.416 4416.61 690.549 4417.14 690.816C4417.67 691.083 4418.08 691.451 4418.37 691.92C4418.67 692.379 4418.82 692.907 4418.82 693.504C4418.82 693.973 4418.74 694.411 4418.59 694.816C4418.46 695.221 4418.25 695.616 4417.97 696C4417.7 696.373 4417.37 696.763 4416.98 697.168C4416.59 697.563 4416.16 697.995 4415.67 698.464L4414.08 699.952V700.048H4419.15V702Z" fill="#1F1F1F" id="n1225"/>
<rect x="4330.5" y="732.5" width="23" height="23" rx="11.5" fill="black" fill-opacity="0.04" id="n1226"/>
<rect x="4330.5" y="732.5" width="23" height="23" rx="11.5" stroke="#8E8E8E" id="n1227"/>
<path d="M4368.58 750L4364.72 739.856H4364.66C4364.68 740.059 4364.69 740.315 4364.7 740.624C4364.73 740.923 4364.74 741.248 4364.74 741.6C4364.75 741.952 4364.75 742.315 4364.75 742.688V750H4363.57V738.576H4365.47L4369.12 748.128H4369.18L4372.88 738.576H4374.77V750H4373.5V742.592C4373.5 742.251 4373.51 741.915 4373.52 741.584C4373.53 741.253 4373.54 740.939 4373.55 740.64C4373.57 740.341 4373.59 740.085 4373.6 739.872H4373.54L4369.63 750H4368.58ZM4385.08 745.712C4385.08 746.405 4384.99 747.029 4384.81 747.584C4384.63 748.128 4384.37 748.592 4384.02 748.976C4383.68 749.36 4383.27 749.653 4382.78 749.856C4382.29 750.059 4381.74 750.16 4381.13 750.16C4380.55 750.16 4380.02 750.059 4379.54 749.856C4379.07 749.653 4378.66 749.36 4378.31 748.976C4377.97 748.592 4377.7 748.128 4377.51 747.584C4377.33 747.04 4377.24 746.416 4377.24 745.712C4377.24 744.773 4377.39 743.979 4377.7 743.328C4378.02 742.667 4378.48 742.16 4379.06 741.808C4379.66 741.456 4380.37 741.28 4381.18 741.28C4381.97 741.28 4382.65 741.456 4383.22 741.808C4383.81 742.16 4384.26 742.667 4384.58 743.328C4384.91 743.989 4385.08 744.784 4385.08 745.712ZM4378.54 745.712C4378.54 746.395 4378.63 746.992 4378.81 747.504C4379 748.016 4379.29 748.411 4379.67 748.688C4380.06 748.965 4380.55 749.104 4381.14 749.104C4381.75 749.104 4382.25 748.965 4382.63 748.688C4383.03 748.411 4383.31 748.016 4383.5 747.504C4383.68 746.992 4383.77 746.395 4383.77 745.712C4383.77 745.019 4383.67 744.427 4383.48 743.936C4383.3 743.435 4383.02 743.045 4382.63 742.768C4382.26 742.491 4381.76 742.352 4381.14 742.352C4380.25 742.352 4379.59 742.651 4379.16 743.248C4378.74 743.835 4378.54 744.656 4378.54 745.712ZM4390.35 750.16C4389.27 750.16 4388.41 749.792 4387.78 749.056C4387.15 748.309 4386.83 747.211 4386.83 745.76C4386.83 744.288 4387.15 743.173 4387.79 742.416C4388.43 741.659 4389.3 741.28 4390.39 741.28C4390.84 741.28 4391.24 741.344 4391.59 741.472C4391.93 741.589 4392.22 741.755 4392.47 741.968C4392.71 742.171 4392.91 742.4 4393.07 742.656H4393.15C4393.14 742.485 4393.13 742.261 4393.11 741.984C4393.08 741.696 4393.07 741.456 4393.07 741.264V737.84H4394.34V750H4393.31L4393.14 748.752H4393.07C4392.91 749.008 4392.71 749.243 4392.45 749.456C4392.2 749.669 4391.91 749.84 4391.57 749.968C4391.23 750.096 4390.82 750.16 4390.35 750.16ZM4390.55 749.104C4391.47 749.104 4392.13 748.843 4392.51 748.32C4392.9 747.797 4393.09 747.013 4393.09 745.968V745.744C4393.09 744.645 4392.9 743.803 4392.53 743.216C4392.16 742.629 4391.49 742.336 4390.55 742.336C4389.75 742.336 4389.14 742.645 4388.74 743.264C4388.33 743.872 4388.13 744.715 4388.13 745.792C4388.13 746.848 4388.33 747.664 4388.72 748.24C4389.13 748.816 4389.73 749.104 4390.55 749.104ZM4400.36 741.28C4401.1 741.28 4401.72 741.445 4402.23 741.776C4402.75 742.096 4403.15 742.549 4403.42 743.136C4403.69 743.712 4403.83 744.389 4403.83 745.168V745.952H4397.9C4397.92 746.965 4398.17 747.744 4398.65 748.288C4399.14 748.821 4399.83 749.088 4400.73 749.088C4401.26 749.088 4401.74 749.04 4402.15 748.944C4402.57 748.837 4403 748.688 4403.45 748.496V749.6C4403.02 749.792 4402.59 749.931 4402.17 750.016C4401.74 750.112 4401.24 750.16 4400.66 750.16C4399.84 750.16 4399.12 749.995 4398.5 749.664C4397.9 749.323 4397.43 748.827 4397.1 748.176C4396.76 747.515 4396.6 746.72 4396.6 745.792C4396.6 744.875 4396.75 744.08 4397.05 743.408C4397.36 742.736 4397.79 742.213 4398.36 741.84C4398.92 741.467 4399.59 741.28 4400.36 741.28ZM4400.34 742.32C4399.64 742.32 4399.08 742.549 4398.66 743.008C4398.25 743.467 4398 744.112 4397.93 744.944H4402.52C4402.52 744.421 4402.44 743.968 4402.28 743.584C4402.13 743.189 4401.9 742.88 4401.58 742.656C4401.26 742.432 4400.84 742.32 4400.34 742.32ZM4416.65 741.232C4416.65 741.744 4416.55 742.192 4416.35 742.576C4416.16 742.949 4415.88 743.253 4415.52 743.488C4415.16 743.723 4414.75 743.888 4414.27 743.984V744.048C4415.18 744.155 4415.86 744.443 4416.32 744.912C4416.78 745.381 4417 746 4417 746.768C4417 747.429 4416.85 748.016 4416.54 748.528C4416.23 749.04 4415.76 749.44 4415.12 749.728C4414.49 750.016 4413.68 750.16 4412.68 750.16C4412.08 750.16 4411.51 750.112 4410.99 750.016C4410.48 749.92 4409.99 749.76 4409.53 749.536V748.352C4410 748.576 4410.51 748.757 4411.07 748.896C4411.63 749.024 4412.18 749.088 4412.7 749.088C4413.75 749.088 4414.5 748.88 4414.97 748.464C4415.44 748.048 4415.68 747.477 4415.68 746.752C4415.68 746.24 4415.55 745.835 4415.29 745.536C4415.04 745.227 4414.66 745.003 4414.17 744.864C4413.68 744.715 4413.1 744.64 4412.41 744.64H4411.28V743.552H4412.43C4413.05 743.552 4413.57 743.461 4414 743.28C4414.43 743.099 4414.77 742.843 4415 742.512C4415.24 742.171 4415.36 741.771 4415.36 741.312C4415.36 740.725 4415.16 740.277 4414.76 739.968C4414.38 739.648 4413.85 739.488 4413.18 739.488C4412.78 739.488 4412.4 739.531 4412.06 739.616C4411.73 739.691 4411.42 739.803 4411.12 739.952C4410.83 740.091 4410.54 740.261 4410.24 740.464L4409.61 739.6C4409.9 739.387 4410.22 739.189 4410.57 739.008C4410.94 738.827 4411.33 738.683 4411.76 738.576C4412.19 738.469 4412.66 738.416 4413.16 738.416C4414.33 738.416 4415.2 738.677 4415.77 739.2C4416.36 739.723 4416.65 740.4 4416.65 741.232Z" fill="#1F1F1F" id="n1228"/>
<mask id="path-1050-inside-78_1702_11540" fill="white">
<path d="M4302 776H4622V840H4302V776Z" id="n1229"/>
</mask>
<path d="M4302 777H4622V775H4302V777Z" fill="#DDDDDD" mask="url(#path-1050-inside-78_1702_11540)" id="n1230"/>
<path d="M4339.25 818L4338.85 814.8C4338.63 814.717 4338.43 814.617 4338.24 814.5C4338.05 814.383 4337.86 814.258 4337.67 814.125L4334.7 815.375L4331.95 810.625L4334.52 808.675C4334.51 808.558 4334.5 808.446 4334.5 808.338V807.663C4334.5 807.554 4334.51 807.442 4334.52 807.325L4331.95 805.375L4334.7 800.625L4337.67 801.875C4337.86 801.742 4338.05 801.617 4338.25 801.5C4338.45 801.383 4338.65 801.283 4338.85 801.2L4339.25 798H4344.75L4345.15 801.2C4345.37 801.283 4345.57 801.383 4345.76 801.5C4345.95 801.617 4346.14 801.742 4346.32 801.875L4349.3 800.625L4352.05 805.375L4349.47 807.325C4349.49 807.442 4349.5 807.554 4349.5 807.663V808.338C4349.5 808.446 4349.48 808.558 4349.45 808.675L4352.02 810.625L4349.27 815.375L4346.32 814.125C4346.14 814.258 4345.95 814.383 4345.75 814.5C4345.55 814.617 4345.35 814.717 4345.15 814.8L4344.75 818H4339.25ZM4341 816H4342.97L4343.32 813.35C4343.84 813.217 4344.32 813.021 4344.76 812.762C4345.2 812.504 4345.61 812.192 4345.97 811.825L4348.45 812.85L4349.42 811.15L4347.27 809.525C4347.36 809.292 4347.42 809.046 4347.45 808.788C4347.48 808.529 4347.5 808.267 4347.5 808C4347.5 807.733 4347.48 807.471 4347.45 807.213C4347.42 806.954 4347.36 806.708 4347.27 806.475L4349.42 804.85L4348.45 803.15L4345.97 804.2C4345.61 803.817 4345.2 803.496 4344.76 803.238C4344.32 802.979 4343.84 802.783 4343.32 802.65L4343 800H4341.02L4340.67 802.65C4340.16 802.783 4339.68 802.979 4339.24 803.238C4338.8 803.496 4338.39 803.808 4338.02 804.175L4335.55 803.15L4334.57 804.85L4336.72 806.45C4336.64 806.7 4336.58 806.95 4336.55 807.2C4336.52 807.45 4336.5 807.717 4336.5 808C4336.5 808.267 4336.52 808.525 4336.55 808.775C4336.58 809.025 4336.64 809.275 4336.72 809.525L4334.57 811.15L4335.55 812.85L4338.02 811.8C4338.39 812.183 4338.8 812.504 4339.24 812.762C4339.68 813.021 4340.16 813.217 4340.67 813.35L4341 816Z" fill="#535353" id="n1231"/>
<path fill-rule="evenodd" clip-rule="evenodd" d="M4342 809.5C4342.83 809.5 4343.5 808.828 4343.5 808C4343.5 807.172 4342.83 806.5 4342 806.5C4341.17 806.5 4340.5 807.172 4340.5 808C4340.5 808.828 4341.17 809.5 4342 809.5ZM4342 811.5C4343.93 811.5 4345.5 809.933 4345.5 808C4345.5 806.067 4343.93 804.5 4342 804.5C4340.07 804.5 4338.5 806.067 4338.5 808C4338.5 809.933 4340.07 811.5 4342 811.5Z" fill="#535353" id="n1232"/>
<path d="M4370 810.976C4370 811.659 4369.83 812.235 4369.5 812.704C4369.17 813.173 4368.7 813.536 4368.08 813.792C4367.47 814.037 4366.76 814.16 4365.95 814.16C4365.53 814.16 4365.11 814.139 4364.72 814.096C4364.34 814.053 4363.98 813.995 4363.66 813.92C4363.35 813.835 4363.08 813.739 4362.83 813.632V812.384C4363.22 812.555 4363.69 812.709 4364.26 812.848C4364.82 812.976 4365.41 813.04 4366.02 813.04C4366.59 813.04 4367.08 812.965 4367.47 812.816C4367.88 812.656 4368.19 812.432 4368.4 812.144C4368.61 811.845 4368.72 811.488 4368.72 811.072C4368.72 810.677 4368.63 810.347 4368.45 810.08C4368.28 809.813 4367.99 809.573 4367.58 809.36C4367.18 809.136 4366.63 808.907 4365.95 808.672C4365.46 808.491 4365.03 808.299 4364.66 808.096C4364.29 807.893 4363.98 807.664 4363.73 807.408C4363.48 807.152 4363.3 806.853 4363.17 806.512C4363.04 806.171 4362.98 805.776 4362.98 805.328C4362.98 804.709 4363.13 804.187 4363.44 803.76C4363.75 803.323 4364.18 802.992 4364.72 802.768C4365.27 802.533 4365.9 802.416 4366.61 802.416C4367.23 802.416 4367.79 802.475 4368.3 802.592C4368.82 802.699 4369.29 802.853 4369.73 803.056L4369.31 804.144C4368.91 803.973 4368.47 803.835 4368 803.728C4367.54 803.611 4367.07 803.552 4366.58 803.552C4366.09 803.552 4365.67 803.627 4365.33 803.776C4364.99 803.915 4364.73 804.117 4364.54 804.384C4364.36 804.651 4364.27 804.965 4364.27 805.328C4364.27 805.744 4364.36 806.085 4364.53 806.352C4364.71 806.619 4364.99 806.853 4365.36 807.056C4365.74 807.259 4366.23 807.472 4366.83 807.696C4367.51 807.941 4368.09 808.203 4368.56 808.48C4369.03 808.757 4369.39 809.093 4369.63 809.488C4369.88 809.872 4370 810.368 4370 810.976ZM4375.42 805.28C4376.16 805.28 4376.78 805.445 4377.29 805.776C4377.82 806.096 4378.21 806.549 4378.48 807.136C4378.75 807.712 4378.89 808.389 4378.89 809.168V809.952H4372.96C4372.98 810.965 4373.23 811.744 4373.71 812.288C4374.2 812.821 4374.89 813.088 4375.79 813.088C4376.32 813.088 4376.8 813.04 4377.21 812.944C4377.63 812.837 4378.06 812.688 4378.51 812.496V813.6C4378.08 813.792 4377.66 813.931 4377.23 814.016C4376.8 814.112 4376.3 814.16 4375.73 814.16C4374.9 814.16 4374.18 813.995 4373.57 813.664C4372.96 813.323 4372.49 812.827 4372.16 812.176C4371.83 811.515 4371.66 810.72 4371.66 809.792C4371.66 808.875 4371.81 808.08 4372.11 807.408C4372.42 806.736 4372.86 806.213 4373.42 805.84C4373.99 805.467 4374.65 805.28 4375.42 805.28ZM4375.41 806.32C4374.7 806.32 4374.14 806.549 4373.73 807.008C4373.31 807.467 4373.06 808.112 4372.99 808.944H4377.58C4377.58 808.421 4377.5 807.968 4377.34 807.584C4377.19 807.189 4376.96 806.88 4376.64 806.656C4376.32 806.432 4375.91 806.32 4375.41 806.32ZM4383.81 813.12C4384.04 813.12 4384.26 813.104 4384.47 813.072C4384.69 813.029 4384.88 812.987 4385.03 812.944V813.904C4384.87 813.979 4384.66 814.037 4384.39 814.08C4384.13 814.133 4383.87 814.16 4383.61 814.16C4383.16 814.16 4382.75 814.08 4382.39 813.92C4382.03 813.76 4381.73 813.493 4381.51 813.12C4381.3 812.736 4381.19 812.208 4381.19 811.536V806.432H4379.96V805.808L4381.21 805.328L4381.69 803.456H4382.45V805.44H4384.97V806.432H4382.45V811.504C4382.45 812.048 4382.57 812.453 4382.81 812.72C4383.05 812.987 4383.39 813.12 4383.81 813.12ZM4389.5 813.12C4389.73 813.12 4389.94 813.104 4390.16 813.072C4390.38 813.029 4390.57 812.987 4390.72 812.944V813.904C4390.56 813.979 4390.34 814.037 4390.08 814.08C4389.82 814.133 4389.56 814.16 4389.29 814.16C4388.85 814.16 4388.44 814.08 4388.08 813.92C4387.72 813.76 4387.42 813.493 4387.2 813.12C4386.98 812.736 4386.88 812.208 4386.88 811.536V806.432H4385.65V805.808L4386.89 805.328L4387.37 803.456H4388.14V805.44H4390.65V806.432H4388.14V811.504C4388.14 812.048 4388.26 812.453 4388.49 812.72C4388.74 812.987 4389.08 813.12 4389.5 813.12ZM4393.72 805.44V814H4392.47V805.44H4393.72ZM4393.11 802.24C4393.32 802.24 4393.5 802.309 4393.64 802.448C4393.79 802.587 4393.86 802.8 4393.86 803.088C4393.86 803.355 4393.79 803.563 4393.64 803.712C4393.5 803.851 4393.32 803.92 4393.11 803.92C4392.89 803.92 4392.7 803.851 4392.55 803.712C4392.41 803.563 4392.34 803.355 4392.34 803.088C4392.34 802.8 4392.41 802.587 4392.55 802.448C4392.7 802.309 4392.89 802.24 4393.11 802.24ZM4400.5 805.28C4401.5 805.28 4402.27 805.531 4402.79 806.032C4403.31 806.523 4403.57 807.317 4403.57 808.416V814H4402.33V808.512C4402.33 807.776 4402.16 807.232 4401.83 806.88C4401.5 806.528 4401 806.352 4400.33 806.352C4399.38 806.352 4398.7 806.619 4398.31 807.152C4397.92 807.685 4397.72 808.464 4397.72 809.488V814H4396.47V805.44H4397.48L4397.67 806.704H4397.73C4397.93 806.395 4398.16 806.139 4398.44 805.936C4398.72 805.723 4399.03 805.563 4399.38 805.456C4399.73 805.339 4400.11 805.28 4400.5 805.28ZM4409.31 805.28C4409.9 805.28 4410.43 805.397 4410.88 805.632C4411.32 805.856 4411.7 806.187 4412.01 806.624H4412.09L4412.27 805.44H4413.26V814.176C4413.26 814.965 4413.13 815.632 4412.86 816.176C4412.59 816.731 4412.18 817.147 4411.61 817.424C4411.06 817.701 4410.34 817.84 4409.47 817.84C4408.85 817.84 4408.28 817.792 4407.77 817.696C4407.26 817.6 4406.8 817.467 4406.4 817.296V816.112C4406.67 816.251 4406.98 816.368 4407.31 816.464C4407.64 816.571 4407.99 816.651 4408.36 816.704C4408.75 816.757 4409.14 816.784 4409.55 816.784C4410.34 816.784 4410.94 816.56 4411.37 816.112C4411.8 815.664 4412.01 815.051 4412.01 814.272V813.888C4412.01 813.739 4412.02 813.547 4412.03 813.312C4412.04 813.067 4412.05 812.88 4412.06 812.752H4412.01C4411.72 813.221 4411.35 813.573 4410.89 813.808C4410.44 814.043 4409.91 814.16 4409.29 814.16C4408.18 814.16 4407.32 813.776 4406.7 813.008C4406.08 812.24 4405.77 811.157 4405.77 809.76C4405.77 808.843 4405.91 808.048 4406.19 807.376C4406.46 806.704 4406.86 806.187 4407.39 805.824C4407.92 805.461 4408.56 805.28 4409.31 805.28ZM4409.47 806.352C4408.96 806.352 4408.52 806.485 4408.16 806.752C4407.8 807.019 4407.53 807.408 4407.34 807.92C4407.16 808.421 4407.07 809.04 4407.07 809.776C4407.07 810.853 4407.27 811.68 4407.68 812.256C4408.09 812.832 4408.69 813.12 4409.47 813.12C4409.94 813.12 4410.33 813.056 4410.65 812.928C4410.97 812.8 4411.23 812.608 4411.44 812.352C4411.65 812.096 4411.8 811.776 4411.88 811.392C4411.98 811.008 4412.03 810.565 4412.03 810.064V809.664C4412.03 808.896 4411.94 808.272 4411.76 807.792C4411.58 807.301 4411.31 806.939 4410.94 806.704C4410.57 806.469 4410.08 806.352 4409.47 806.352ZM4421.54 811.664C4421.54 812.208 4421.4 812.667 4421.12 813.04C4420.85 813.403 4420.46 813.68 4419.95 813.872C4419.45 814.064 4418.85 814.16 4418.14 814.16C4417.55 814.16 4417.03 814.112 4416.59 814.016C4416.16 813.92 4415.77 813.787 4415.44 813.616V812.464C4415.79 812.635 4416.21 812.789 4416.69 812.928C4417.18 813.067 4417.68 813.136 4418.18 813.136C4418.92 813.136 4419.46 813.013 4419.79 812.768C4420.13 812.523 4420.3 812.192 4420.3 811.776C4420.3 811.531 4420.24 811.317 4420.1 811.136C4419.97 810.955 4419.74 810.779 4419.42 810.608C4419.12 810.437 4418.68 810.251 4418.13 810.048C4417.58 809.845 4417.12 809.643 4416.72 809.44C4416.33 809.237 4416.02 808.987 4415.79 808.688C4415.58 808.389 4415.47 808.005 4415.47 807.536C4415.47 806.811 4415.76 806.256 4416.34 805.872C4416.92 805.477 4417.69 805.28 4418.64 805.28C4419.16 805.28 4419.65 805.333 4420.1 805.44C4420.54 805.536 4420.96 805.669 4421.34 805.84L4420.91 806.864C4420.69 806.757 4420.44 806.667 4420.18 806.592C4419.92 806.507 4419.65 806.443 4419.38 806.4C4419.11 806.347 4418.84 806.32 4418.56 806.32C4417.95 806.32 4417.48 806.421 4417.15 806.624C4416.83 806.827 4416.67 807.104 4416.67 807.456C4416.67 807.723 4416.75 807.947 4416.9 808.128C4417.05 808.299 4417.29 808.459 4417.62 808.608C4417.96 808.757 4418.39 808.933 4418.91 809.136C4419.45 809.328 4419.9 809.531 4420.29 809.744C4420.68 809.947 4420.99 810.203 4421.2 810.512C4421.42 810.811 4421.54 811.195 4421.54 811.664Z" fill="#535353" id="n1233"/>
</g>
</g>
</g>
</svg>
