<?xml version='1.0' encoding='utf-8'?>
<svg xmlns="http://www.w3.org/2000/svg" xmlns:xlink="http://www.w3.org/1999/xlink" width="320.0" height="472.0" viewBox="0 0 320.0 472.0" fill="none">
  <defs><clipPath id="clip__asset"><rect x="0" y="0" width="320.0" height="472.0"/></clipPath><mask id="path-907-inside-65_1702_11540" fill="white">
<path d="M3614 928H3934V1128H3614V928Z" id="n1068"/>
</mask>
<mask id="path-910-inside-66_1702_11540" fill="white">
<path d="M3638 957.6C3638 954.24 3638 952.56 3638.65 951.276C3639.23 950.147 3640.15 949.229 3641.28 948.654C3642.56 948 3644.24 948 3647.6 948H3660.4C3663.76 948 3665.44 948 3666.72 948.654C3667.85 949.229 3668.77 950.147 3669.35 951.276C3670 952.56 3670 954.24 3670 957.6V970.4C3670 973.76 3670 975.44 3669.35 976.724C3668.77 977.853 3667.85 978.771 3666.72 979.346C3665.44 980 3663.76 980 3660.4 980H3647.6C3644.24 980 3642.56 980 3641.28 979.346C3640.15 978.771 3639.23 977.853 3638.65 976.724C3638 975.44 3638 973.76 3638 970.4V957.6Z" id="n1070"/>
</mask>
<mask id="path-922-outside-67_1702_11540" maskUnits="userSpaceOnUse" x="3714" y="1094" width="16" height="4" fill="black">
<rect fill="white" x="3714" y="1094" width="16" height="4" id="n1086"/>
<path d="M3714 1094H3726V1098H3714V1094Z" id="n1087"/>
</mask>
<mask id="path-936-inside-68_1702_11540" fill="white">
<path d="M3614 1336H3934V1400H3614V1336Z" id="n1101"/>
</mask>
<filter id="filter21_d_1702_11540" x="3598" y="916" width="352" height="504" filterUnits="userSpaceOnUse" color-interpolation-filters="sRGB">
<feFlood flood-opacity="0" result="BackgroundImageFix" id="n3264"/>
<feColorMatrix in="SourceAlpha" type="matrix" values="0 0 0 0 0 0 0 0 0 0 0 0 0 0 0 0 0 0 127 0" result="hardAlpha" id="n3265"/>
<feOffset dy="4" id="n3266"/>
<feGaussianBlur stdDeviation="8" id="n3267"/>
<feComposite in2="hardAlpha" operator="out" id="n3268"/>
<feColorMatrix type="matrix" values="0 0 0 0 0 0 0 0 0 0 0 0 0 0 0 0 0 0 0.32 0" id="n3269"/>
<feBlend mode="normal" in2="BackgroundImageFix" result="effect1_dropShadow_1702_11540" id="n3270"/>
<feBlend mode="normal" in="SourceGraphic" in2="effect1_dropShadow_1702_11540" result="shape" id="n3271"/>
</filter>
<clipPath id="clip25_1702_11540">
<path d="M3614 940C3614 933.373 3619.37 928 3626 928H3922C3928.63 928 3934 933.373 3934 940V1388C3934 1394.63 3928.63 1400 3922 1400H3626C3619.37 1400 3614 1394.63 3614 1388V940Z" fill="white" id="n3460"/>
</clipPath>
</defs>
  <g clip-path="url(#clip__asset)" transform="translate(-3614.0 -928.0)"><g filter="url(#filter21_d_1702_11540)" id="n1065">
<g clip-path="url(#clip25_1702_11540)" id="n1066">
<path d="M3614 940C3614 933.373 3619.37 928 3626 928H3922C3928.63 928 3934 933.373 3934 940V1388C3934 1394.63 3928.63 1400 3922 1400H3626C3619.37 1400 3614 1394.63 3614 1388V940Z" fill="#FCFCFC" id="n1067"/>
<mask id="path-907-inside-65_1702_11540" fill="white">
<path d="M3614 928H3934V1128H3614V928Z" id="n1068"/>
</mask>
<path d="M3934 1128V1127H3614V1128V1129H3934V1128Z" fill="#DDDDDD" mask="url(#path-907-inside-65_1702_11540)" id="n1069"/>
<mask id="path-910-inside-66_1702_11540" fill="white">
<path d="M3638 957.6C3638 954.24 3638 952.56 3638.65 951.276C3639.23 950.147 3640.15 949.229 3641.28 948.654C3642.56 948 3644.24 948 3647.6 948H3660.4C3663.76 948 3665.44 948 3666.72 948.654C3667.85 949.229 3668.77 950.147 3669.35 951.276C3670 952.56 3670 954.24 3670 957.6V970.4C3670 973.76 3670 975.44 3669.35 976.724C3668.77 977.853 3667.85 978.771 3666.72 979.346C3665.44 980 3663.76 980 3660.4 980H3647.6C3644.24 980 3642.56 980 3641.28 979.346C3640.15 978.771 3639.23 977.853 3638.65 976.724C3638 975.44 3638 973.76 3638 970.4V957.6Z" id="n1070"/>
</mask>
<path d="M3638 957.6C3638 954.24 3638 952.56 3638.65 951.276C3639.23 950.147 3640.15 949.229 3641.28 948.654C3642.56 948 3644.24 948 3647.6 948H3660.4C3663.76 948 3665.44 948 3666.72 948.654C3667.85 949.229 3668.77 950.147 3669.35 951.276C3670 952.56 3670 954.24 3670 957.6V970.4C3670 973.76 3670 975.44 3669.35 976.724C3668.77 977.853 3667.85 978.771 3666.72 979.346C3665.44 980 3663.76 980 3660.4 980H3647.6C3644.24 980 3642.56 980 3641.28 979.346C3640.15 978.771 3639.23 977.853 3638.65 976.724C3638 975.44 3638 973.76 3638 970.4V957.6Z" fill="white" id="n1071"/>
<path d="M3641.28 979.346L3641.73 978.455L3641.28 979.346ZM3669.35 976.724L3670.24 977.178L3669.35 976.724ZM3666.72 979.346L3667.18 980.237L3666.72 979.346ZM3666.72 948.654L3666.27 949.545L3666.72 948.654ZM3669.35 951.276L3668.46 951.73L3669.35 951.276ZM3647.6 948V949H3660.4V948V947H3647.6V948ZM3670 957.6H3669V970.4H3670H3671V957.6H3670ZM3660.4 980V979H3647.6V980V981H3660.4V980ZM3638 970.4H3639V957.6H3638H3637V970.4H3638ZM3647.6 980V979C3645.9 979 3644.69 978.999 3643.74 978.922C3642.8 978.845 3642.21 978.698 3641.73 978.455L3641.28 979.346L3640.82 980.237C3641.63 980.648 3642.52 980.828 3643.58 980.915C3644.63 981.001 3645.94 981 3647.6 981V980ZM3638 970.4H3637C3637 972.064 3637 973.372 3637.09 974.422C3637.17 975.485 3637.35 976.372 3637.76 977.178L3638.65 976.724L3639.54 976.27C3639.3 975.793 3639.16 975.198 3639.08 974.259C3639 973.309 3639 972.097 3639 970.4H3638ZM3641.28 979.346L3641.73 978.455C3640.79 977.976 3640.02 977.211 3639.54 976.27L3638.65 976.724L3637.76 977.178C3638.43 978.495 3639.5 979.566 3640.82 980.237L3641.28 979.346ZM3670 970.4H3669C3669 972.097 3669 973.309 3668.92 974.259C3668.84 975.198 3668.7 975.793 3668.46 976.27L3669.35 976.724L3670.24 977.178C3670.65 976.372 3670.83 975.485 3670.91 974.422C3671 973.372 3671 972.064 3671 970.4H3670ZM3660.4 980V981C3662.06 981 3663.37 981.001 3664.42 980.915C3665.48 980.828 3666.37 980.648 3667.18 980.237L3666.72 979.346L3666.27 978.455C3665.79 978.698 3665.2 978.845 3664.26 978.922C3663.31 978.999 3662.1 979 3660.4 979V980ZM3669.35 976.724L3668.46 976.27C3667.98 977.211 3667.21 977.976 3666.27 978.455L3666.72 979.346L3667.18 980.237C3668.5 979.566 3669.57 978.495 3670.24 977.178L3669.35 976.724ZM3660.4 948V949C3662.1 949 3663.31 949.001 3664.26 949.078C3665.2 949.155 3665.79 949.302 3666.27 949.545L3666.72 948.654L3667.18 947.763C3666.37 947.352 3665.48 947.172 3664.42 947.085C3663.37 946.999 3662.06 947 3660.4 947V948ZM3670 957.6H3671C3671 955.936 3671 954.628 3670.91 953.578C3670.83 952.515 3670.65 951.628 3670.24 950.822L3669.35 951.276L3668.46 951.73C3668.7 952.207 3668.84 952.802 3668.92 953.741C3669 954.691 3669 955.903 3669 957.6H3670ZM3666.72 948.654L3666.27 949.545C3667.21 950.024 3667.98 950.789 3668.46 951.73L3669.35 951.276L3670.24 950.822C3669.57 949.505 3668.5 948.434 3667.18 947.763L3666.72 948.654ZM3647.6 948V947C3645.94 947 3644.63 946.999 3643.58 947.085C3642.52 947.172 3641.63 947.352 3640.82 947.763L3641.28 948.654L3641.73 949.545C3642.21 949.302 3642.8 949.155 3643.74 949.078C3644.69 949.001 3645.9 949 3647.6 949V948ZM3638 957.6H3639C3639 955.903 3639 954.691 3639.08 953.741C3639.16 952.802 3639.3 952.207 3639.54 951.73L3638.65 951.276L3637.76 950.822C3637.35 951.628 3637.17 952.515 3637.09 953.578C3637 954.628 3637 955.936 3637 957.6H3638ZM3641.28 948.654L3640.82 947.763C3639.5 948.434 3638.43 949.505 3637.76 950.822L3638.65 951.276L3639.54 951.73C3640.02 950.789 3640.79 950.024 3641.73 949.545L3641.28 948.654Z" fill="#BEBEBE" mask="url(#path-910-inside-66_1702_11540)" id="n1072"/>
<path fill-rule="evenodd" clip-rule="evenodd" d="M3656 970L3657.41 968.59L3652.83 964L3657.41 959.41L3656 958L3650 964L3656 970Z" fill="#535353" id="n1073"/>
<path d="M3694.58 978L3693.47 974.896H3689.14L3688.06 978H3686L3690.24 966.528H3692.4L3696.64 978H3694.58ZM3691.92 970.176C3691.88 970.048 3691.81 969.856 3691.73 969.6C3691.65 969.344 3691.58 969.088 3691.5 968.832C3691.43 968.565 3691.37 968.341 3691.31 968.16C3691.26 968.373 3691.19 968.619 3691.12 968.896C3691.05 969.163 3690.97 969.413 3690.9 969.648C3690.83 969.883 3690.78 970.059 3690.74 970.176L3689.7 973.216H3692.98L3691.92 970.176ZM3705.72 969.344V978H3704.21L3703.94 976.88H3703.85C3703.66 977.179 3703.43 977.424 3703.14 977.616C3702.86 977.797 3702.56 977.931 3702.21 978.016C3701.87 978.112 3701.52 978.16 3701.14 978.16C3700.5 978.16 3699.95 978.048 3699.48 977.824C3699.01 977.6 3698.65 977.259 3698.41 976.8C3698.16 976.331 3698.04 975.728 3698.04 974.992V969.344H3699.96V974.64C3699.96 975.291 3700.09 975.781 3700.36 976.112C3700.62 976.443 3701.04 976.608 3701.61 976.608C3702.17 976.608 3702.61 976.491 3702.92 976.256C3703.24 976.021 3703.46 975.685 3703.59 975.248C3703.73 974.8 3703.8 974.256 3703.8 973.616V969.344H3705.72ZM3711.35 978.16C3710.34 978.16 3709.52 977.787 3708.89 977.04C3708.27 976.283 3707.96 975.163 3707.96 973.68C3707.96 972.197 3708.27 971.077 3708.9 970.32C3709.53 969.563 3710.36 969.184 3711.4 969.184C3711.83 969.184 3712.2 969.243 3712.52 969.36C3712.85 969.467 3713.13 969.616 3713.37 969.808C3713.61 970 3713.82 970.213 3713.98 970.448H3714.07C3714.05 970.299 3714.02 970.075 3713.98 969.776C3713.94 969.467 3713.93 969.189 3713.93 968.944V965.84H3715.85V978H3714.36L3714.01 976.864H3713.93C3713.77 977.099 3713.57 977.317 3713.34 977.52C3713.1 977.712 3712.82 977.867 3712.49 977.984C3712.17 978.101 3711.79 978.16 3711.35 978.16ZM3711.9 976.608C3712.67 976.608 3713.22 976.389 3713.53 975.952C3713.85 975.504 3714.01 974.837 3714.02 973.952V973.696C3714.02 972.747 3713.87 972.021 3713.56 971.52C3713.26 971.008 3712.7 970.752 3711.88 970.752C3711.24 970.752 3710.75 971.013 3710.41 971.536C3710.08 972.059 3709.91 972.784 3709.91 973.712C3709.91 974.651 3710.08 975.371 3710.41 975.872C3710.75 976.363 3711.24 976.608 3711.9 976.608ZM3720.51 969.344V978H3718.59V969.344H3720.51ZM3719.57 966.016C3719.85 966.016 3720.1 966.096 3720.32 966.256C3720.53 966.405 3720.64 966.672 3720.64 967.056C3720.64 967.429 3720.53 967.696 3720.32 967.856C3720.1 968.016 3719.85 968.096 3719.57 968.096C3719.27 968.096 3719.01 968.016 3718.8 967.856C3718.6 967.696 3718.49 967.429 3718.49 967.056C3718.49 966.672 3718.6 966.405 3718.8 966.256C3719.01 966.096 3719.27 966.016 3719.57 966.016ZM3730.98 973.648C3730.98 974.373 3730.89 975.013 3730.69 975.568C3730.5 976.123 3730.23 976.597 3729.86 976.992C3729.51 977.376 3729.08 977.669 3728.57 977.872C3728.05 978.064 3727.48 978.16 3726.85 978.16C3726.27 978.16 3725.72 978.064 3725.22 977.872C3724.72 977.669 3724.29 977.376 3723.93 976.992C3723.56 976.597 3723.28 976.123 3723.08 975.568C3722.88 975.013 3722.77 974.373 3722.77 973.648C3722.77 972.688 3722.94 971.877 3723.27 971.216C3723.6 970.555 3724.08 970.053 3724.69 969.712C3725.31 969.36 3726.05 969.184 3726.9 969.184C3727.7 969.184 3728.41 969.36 3729.01 969.712C3729.62 970.053 3730.1 970.555 3730.45 971.216C3730.81 971.877 3730.98 972.688 3730.98 973.648ZM3724.74 973.648C3724.74 974.277 3724.82 974.811 3724.97 975.248C3725.12 975.685 3725.35 976.021 3725.65 976.256C3725.97 976.48 3726.39 976.592 3726.89 976.592C3727.38 976.592 3727.78 976.48 3728.09 976.256C3728.41 976.021 3728.64 975.685 3728.79 975.248C3728.94 974.811 3729.01 974.283 3729.01 973.664C3729.01 973.035 3728.94 972.507 3728.79 972.08C3728.64 971.643 3728.41 971.312 3728.09 971.088C3727.78 970.864 3727.37 970.752 3726.87 970.752C3726.12 970.752 3725.58 971.003 3725.24 971.504C3724.91 972.005 3724.74 972.72 3724.74 973.648Z" fill="#535353" id="n1074"/>
<path fill-rule="evenodd" clip-rule="evenodd" d="M3641.61 1018.79L3638.79 1021.62L3649.17 1032H3648.4C3646.16 1032 3645.04 1032 3644.18 1032.44C3643.43 1032.82 3642.82 1033.43 3642.44 1034.18C3642 1035.04 3642 1036.16 3642 1038.4V1041.6C3642 1043.84 3642 1044.96 3642.44 1045.82C3642.82 1046.57 3643.43 1047.18 3644.18 1047.56C3645.04 1048 3646.16 1048 3648.4 1048H3654L3660.54 1054.54C3662.25 1056.25 3663.11 1057.11 3663.84 1057.17C3664.48 1057.22 3665.1 1056.96 3665.52 1056.47C3666 1055.91 3666 1054.7 3666 1052.27V1048.83L3678.38 1061.21L3681.21 1058.39L3666 1043.17V1027.73C3666 1025.3 3666 1024.09 3665.52 1023.53C3665.1 1023.04 3664.48 1022.78 3663.84 1022.83C3663.11 1022.89 3662.25 1023.75 3660.54 1025.46L3654.41 1031.59L3641.61 1018.79ZM3653.17 1036H3646C3646 1036 3646 1040.88 3646 1044H3655.66L3662 1050.34V1044.83L3653.17 1036ZM3662 1039.17L3657.24 1034.41L3662 1029.66V1039.17Z" fill="#2D548B" id="n1075"/>
<path d="M3678.77 1050.29C3679.51 1049.23 3680.13 1048.09 3680.63 1046.89C3681.53 1044.7 3682 1042.36 3682 1040C3682 1037.64 3681.53 1035.3 3680.63 1033.11C3679.72 1030.93 3678.4 1028.94 3676.73 1027.27C3675.06 1025.6 3673.07 1024.27 3670.89 1023.37C3670.59 1023.25 3670.3 1023.13 3670 1023.03V1027.35C3671.45 1028.04 3672.76 1028.97 3673.9 1030.1C3675.2 1031.4 3676.23 1032.94 3676.93 1034.64C3677.64 1036.34 3678 1038.16 3678 1040C3678 1041.84 3677.64 1043.66 3676.93 1045.36C3676.64 1046.07 3676.29 1046.75 3675.88 1047.4L3678.77 1050.29Z" fill="#2D548B" id="n1076"/>
<path d="M3672.76 1044.28L3670 1041.52V1033.07C3670.6 1033.42 3671.16 1033.85 3671.66 1034.34C3672.4 1035.09 3672.99 1035.97 3673.39 1036.94C3673.79 1037.91 3674 1038.95 3674 1040C3674 1041.05 3673.79 1042.09 3673.39 1043.06C3673.22 1043.48 3673 1043.89 3672.76 1044.28Z" fill="#2D548B" id="n1077"/>
<path d="M3707.86 1053L3700.99 1032.91H3700.86C3700.88 1033.36 3700.92 1033.99 3700.96 1034.81C3701.01 1035.6 3701.04 1036.48 3701.06 1037.43C3701.11 1038.36 3701.13 1039.24 3701.13 1040.08V1053H3697.36V1028.72H3703.2L3709.77 1047.93H3709.87L3716.7 1028.72H3722.52V1053H3718.54V1039.88C3718.54 1039.11 3718.55 1038.28 3718.57 1037.39C3718.62 1036.49 3718.65 1035.64 3718.67 1034.84C3718.72 1034.03 3718.75 1033.39 3718.78 1032.94H3718.64L3711.53 1053H3707.86ZM3744.11 1034.61V1053H3740.91L3740.33 1050.62H3740.13C3739.75 1051.25 3739.25 1051.78 3738.63 1052.18C3738.05 1052.57 3737.39 1052.85 3736.66 1053.03C3735.94 1053.24 3735.18 1053.34 3734.38 1053.34C3733.02 1053.34 3731.85 1053.1 3730.85 1052.63C3729.85 1052.15 3729.09 1051.42 3728.57 1050.45C3728.05 1049.45 3727.79 1048.17 3727.79 1046.61V1034.61H3731.87V1045.86C3731.87 1047.24 3732.15 1048.29 3732.72 1048.99C3733.29 1049.69 3734.17 1050.04 3735.37 1050.04C3736.57 1050.04 3737.5 1049.79 3738.16 1049.29C3738.84 1048.8 3739.31 1048.08 3739.59 1047.15C3739.88 1046.2 3740.03 1045.04 3740.03 1043.68V1034.61H3744.11ZM3756.11 1050.04C3756.63 1050.04 3757.14 1050 3757.64 1049.91C3758.14 1049.82 3758.59 1049.7 3759 1049.57V1052.63C3758.57 1052.83 3758 1053 3757.3 1053.14C3756.6 1053.27 3755.86 1053.34 3755.09 1053.34C3754.07 1053.34 3753.14 1053.17 3752.3 1052.83C3751.46 1052.47 3750.78 1051.87 3750.26 1051.03C3749.76 1050.17 3749.51 1048.97 3749.51 1047.42V1037.7H3747.03V1035.9L3749.72 1034.44L3751.04 1030.53H3753.59V1034.61H3758.83V1037.7H3753.59V1047.39C3753.59 1048.3 3753.82 1048.97 3754.27 1049.4C3754.75 1049.83 3755.36 1050.04 3756.11 1050.04ZM3769.56 1034.27C3771.2 1034.27 3772.6 1034.61 3773.78 1035.29C3774.98 1035.94 3775.9 1036.9 3776.53 1038.14C3777.17 1039.37 3777.49 1040.85 3777.49 1042.6V1044.74H3765.28C3765.33 1046.46 3765.8 1047.8 3766.71 1048.75C3767.62 1049.68 3768.87 1050.14 3770.48 1050.14C3771.66 1050.14 3772.72 1050.03 3773.64 1049.8C3774.6 1049.58 3775.57 1049.24 3776.57 1048.78V1052.08C3775.64 1052.51 3774.69 1052.83 3773.71 1053.03C3772.76 1053.24 3771.62 1053.34 3770.28 1053.34C3768.49 1053.34 3766.9 1053 3765.52 1052.32C3764.14 1051.62 3763.06 1050.56 3762.29 1049.16C3761.52 1047.75 3761.13 1046.01 3761.13 1043.92C3761.13 1041.84 3761.48 1040.08 3762.19 1038.65C3762.89 1037.22 3763.88 1036.14 3765.14 1035.39C3766.41 1034.64 3767.89 1034.27 3769.56 1034.27ZM3769.56 1037.33C3768.36 1037.33 3767.4 1037.71 3766.67 1038.48C3765.95 1039.23 3765.52 1040.35 3765.38 1041.85H3773.51C3773.51 1040.94 3773.36 1040.16 3773.07 1039.5C3772.79 1038.82 3772.36 1038.29 3771.77 1037.9C3771.21 1037.52 3770.47 1037.33 3769.56 1037.33ZM3787.5 1053.34C3785.34 1053.34 3783.6 1052.55 3782.26 1050.96C3780.95 1049.35 3780.29 1046.97 3780.29 1043.82C3780.29 1040.67 3780.96 1038.29 3782.29 1036.68C3783.63 1035.07 3785.4 1034.27 3787.6 1034.27C3788.51 1034.27 3789.3 1034.39 3789.98 1034.64C3790.68 1034.87 3791.28 1035.18 3791.78 1035.59C3792.3 1036 3792.73 1036.45 3793.07 1036.95H3793.28C3793.23 1036.63 3793.16 1036.16 3793.07 1035.52C3793 1034.87 3792.97 1034.28 3792.97 1033.76V1027.16H3797.05V1053H3793.89L3793.14 1050.59H3792.97C3792.63 1051.08 3792.21 1051.55 3791.71 1051.98C3791.21 1052.39 3790.61 1052.72 3789.91 1052.97C3789.23 1053.22 3788.43 1053.34 3787.5 1053.34ZM3788.65 1050.04C3790.31 1050.04 3791.46 1049.58 3792.12 1048.65C3792.8 1047.7 3793.15 1046.28 3793.17 1044.4V1043.85C3793.17 1041.84 3792.85 1040.3 3792.19 1039.23C3791.55 1038.14 3790.36 1037.6 3788.62 1037.6C3787.26 1037.6 3786.22 1038.15 3785.49 1039.26C3784.79 1040.37 3784.44 1041.92 3784.44 1043.89C3784.44 1045.88 3784.79 1047.41 3785.49 1048.48C3786.22 1049.52 3787.27 1050.04 3788.65 1050.04Z" fill="#535353" id="n1078"/>
<path d="M3638 1089.6C3638 1086.24 3638 1084.56 3638.65 1083.28C3639.23 1082.15 3640.15 1081.23 3641.28 1080.65C3642.56 1080 3644.24 1080 3647.6 1080H3676.4C3679.76 1080 3681.44 1080 3682.72 1080.65C3683.85 1081.23 3684.77 1082.15 3685.35 1083.28C3686 1084.56 3686 1086.24 3686 1089.6V1102.4C3686 1105.76 3686 1107.44 3685.35 1108.72C3684.77 1109.85 3683.85 1110.77 3682.72 1111.35C3681.44 1112 3679.76 1112 3676.4 1112H3647.6C3644.24 1112 3642.56 1112 3641.28 1111.35C3640.15 1110.77 3639.23 1109.85 3638.65 1108.72C3638 1107.44 3638 1105.76 3638 1102.4V1089.6Z" fill="black" fill-opacity="0.04" id="n1079"/>
<path d="M3647.6 1080.5H3676.4C3678.09 1080.5 3679.32 1080.5 3680.3 1080.58C3681.27 1080.66 3681.94 1080.81 3682.5 1081.1C3683.53 1081.63 3684.37 1082.47 3684.9 1083.5C3685.19 1084.06 3685.34 1084.73 3685.42 1085.7C3685.5 1086.68 3685.5 1087.91 3685.5 1089.6V1102.4C3685.5 1104.09 3685.5 1105.32 3685.42 1106.3C3685.34 1107.27 3685.19 1107.94 3684.9 1108.5C3684.37 1109.53 3683.53 1110.37 3682.5 1110.9C3681.94 1111.19 3681.27 1111.34 3680.3 1111.42C3679.32 1111.5 3678.09 1111.5 3676.4 1111.5H3647.6C3645.91 1111.5 3644.68 1111.5 3643.7 1111.42C3642.73 1111.34 3642.06 1111.19 3641.5 1110.9C3640.47 1110.37 3639.63 1109.53 3639.1 1108.5C3638.81 1107.94 3638.66 1107.27 3638.58 1106.3C3638.5 1105.32 3638.5 1104.09 3638.5 1102.4V1089.6C3638.5 1087.91 3638.5 1086.68 3638.58 1085.7C3638.66 1084.73 3638.81 1084.06 3639.1 1083.5C3639.63 1082.47 3640.47 1081.63 3641.5 1081.1C3642.06 1080.81 3642.73 1080.66 3643.7 1080.58C3644.68 1080.5 3645.91 1080.5 3647.6 1080.5Z" stroke="black" stroke-opacity="0.1" id="n1080"/>
<path fill-rule="evenodd" clip-rule="evenodd" d="M3651.81 1085.39L3650.39 1086.81L3655.59 1092H3655.2C3654.08 1092 3653.52 1092 3653.09 1092.22C3652.72 1092.41 3652.41 1092.72 3652.22 1093.09C3652 1093.52 3652 1094.08 3652 1095.2V1096.8C3652 1097.92 3652 1098.48 3652.22 1098.91C3652.41 1099.28 3652.72 1099.59 3653.09 1099.78C3653.52 1100 3654.08 1100 3655.2 1100H3658L3661.27 1103.27C3662.13 1104.13 3662.55 1104.55 3662.92 1104.58C3663.24 1104.61 3663.55 1104.48 3663.76 1104.24C3664 1103.95 3664 1103.35 3664 1102.14V1100.41L3670.19 1106.61L3671.61 1105.19L3664 1097.59V1089.86C3664 1088.65 3664 1088.05 3663.76 1087.76C3663.55 1087.52 3663.24 1087.39 3662.92 1087.42C3662.55 1087.45 3662.13 1087.87 3661.27 1088.73L3658.21 1091.79L3651.81 1085.39ZM3657.59 1094H3654C3654 1094 3654 1096.44 3654 1098H3658.83L3662 1101.17V1098.41L3657.59 1094ZM3662 1095.59L3659.62 1093.21L3662 1090.83V1095.59Z" fill="#535353" id="n1081"/>
<path d="M3670.39 1101.14C3670.75 1100.61 3671.07 1100.04 3671.31 1099.44C3671.77 1098.35 3672 1097.18 3672 1096C3672 1094.82 3671.77 1093.65 3671.31 1092.56C3670.86 1091.46 3670.2 1090.47 3669.36 1089.64C3668.53 1088.8 3667.54 1088.14 3666.44 1087.68C3666.3 1087.62 3666.15 1087.57 3666 1087.51V1089.68C3666.72 1090.02 3667.38 1090.48 3667.95 1091.05C3668.6 1091.7 3669.12 1092.47 3669.47 1093.32C3669.82 1094.17 3670 1095.08 3670 1096C3670 1096.92 3669.82 1097.83 3669.47 1098.68C3669.32 1099.03 3669.14 1099.38 3668.94 1099.7L3670.39 1101.14Z" fill="#535353" id="n1082"/>
<path d="M3667.38 1098.14L3666 1096.76V1092.54C3666.3 1092.71 3666.58 1092.92 3666.83 1093.17C3667.2 1093.54 3667.49 1093.98 3667.7 1094.47C3667.9 1094.95 3668 1095.47 3668 1096C3668 1096.53 3667.9 1097.05 3667.7 1097.53C3667.61 1097.74 3667.5 1097.95 3667.38 1098.14Z" fill="#535353" id="n1083"/>
<path d="M3716 1095H3888C3888.55 1095 3889 1095.45 3889 1096C3889 1096.55 3888.55 1097 3888 1097H3716C3715.45 1097 3715 1096.55 3715 1096C3715 1095.45 3715.45 1095 3716 1095Z" stroke="black" stroke-opacity="0.1" stroke-width="2" id="n1084"/>
<path d="M3714 1096C3714 1094.9 3714.9 1094 3716 1094H3726V1098H3716C3714.9 1098 3714 1097.1 3714 1096Z" fill="#BEBEBE" id="n1085"/>
<mask id="path-922-outside-67_1702_11540" maskUnits="userSpaceOnUse" x="3714" y="1094" width="16" height="4" fill="black">
<rect fill="white" x="3714" y="1094" width="16" height="4" id="n1086"/>
<path d="M3714 1094H3726V1098H3714V1094Z" id="n1087"/>
</mask>
<path d="M3726 1094H3722V1098H3726H3730V1094H3726Z" fill="#F7F7F7" mask="url(#path-922-outside-67_1702_11540)" id="n1088"/>
<path d="M3714 1086C3714 1082.69 3716.69 1080 3720 1080C3723.31 1080 3726 1082.69 3726 1086V1106C3726 1109.31 3723.31 1112 3720 1112C3716.69 1112 3714 1109.31 3714 1106V1086Z" fill="#BEBEBE" id="n1089"/>
<path d="M3649.66 1156.27C3649.66 1157.16 3649.55 1157.96 3649.33 1158.69C3649.11 1159.4 3648.78 1160.02 3648.34 1160.54C3647.9 1161.07 3647.34 1161.47 3646.67 1161.74C3646 1162.02 3645.22 1162.16 3644.32 1162.16C3643.4 1162.16 3642.6 1162.02 3641.92 1161.74C3641.25 1161.46 3640.69 1161.06 3640.26 1160.54C3639.82 1160.02 3639.49 1159.4 3639.26 1158.67C3639.05 1157.95 3638.94 1157.14 3638.94 1156.26C3638.94 1155.07 3639.14 1154.04 3639.52 1153.17C3639.91 1152.29 3640.51 1151.62 3641.3 1151.14C3642.1 1150.65 3643.11 1150.4 3644.34 1150.4C3645.52 1150.4 3646.51 1150.65 3647.3 1151.14C3648.09 1151.62 3648.68 1152.3 3649.07 1153.18C3649.47 1154.06 3649.66 1155.09 3649.66 1156.27ZM3641.01 1156.27C3641.01 1157.15 3641.13 1157.9 3641.36 1158.54C3641.59 1159.17 3641.96 1159.66 3642.45 1160C3642.94 1160.33 3643.56 1160.5 3644.32 1160.5C3645.09 1160.5 3645.71 1160.33 3646.19 1160C3646.68 1159.66 3647.04 1159.17 3647.26 1158.54C3647.5 1157.9 3647.62 1157.15 3647.62 1156.27C3647.62 1154.96 3647.35 1153.93 3646.83 1153.18C3646.32 1152.44 3645.49 1152.06 3644.34 1152.06C3643.57 1152.06 3642.94 1152.23 3642.45 1152.58C3641.96 1152.91 3641.59 1153.39 3641.36 1154.02C3641.13 1154.65 3641.01 1155.4 3641.01 1156.27ZM3659.69 1153.34V1162H3658.18L3657.91 1160.88H3657.82C3657.63 1161.18 3657.4 1161.42 3657.11 1161.62C3656.83 1161.8 3656.52 1161.93 3656.18 1162.02C3655.84 1162.11 3655.48 1162.16 3655.11 1162.16C3654.47 1162.16 3653.92 1162.05 3653.45 1161.82C3652.98 1161.6 3652.62 1161.26 3652.37 1160.8C3652.13 1160.33 3652.01 1159.73 3652.01 1158.99V1153.34H3653.93V1158.64C3653.93 1159.29 3654.06 1159.78 3654.33 1160.11C3654.59 1160.44 3655.01 1160.61 3655.57 1160.61C3656.14 1160.61 3656.58 1160.49 3656.89 1160.26C3657.21 1160.02 3657.43 1159.69 3657.56 1159.25C3657.7 1158.8 3657.77 1158.26 3657.77 1157.62V1153.34H3659.69ZM3665.72 1160.61C3665.97 1160.61 3666.21 1160.59 3666.44 1160.54C3666.67 1160.5 3666.89 1160.45 3667.08 1160.38V1161.82C3666.88 1161.92 3666.61 1162 3666.28 1162.06C3665.95 1162.13 3665.6 1162.16 3665.24 1162.16C3664.76 1162.16 3664.32 1162.08 3663.93 1161.92C3663.53 1161.75 3663.21 1161.47 3662.97 1161.07C3662.73 1160.67 3662.62 1160.1 3662.62 1159.38V1154.8H3661.45V1153.95L3662.71 1153.26L3663.34 1151.42H3664.54V1153.34H3667V1154.8H3664.54V1159.36C3664.54 1159.79 3664.64 1160.1 3664.86 1160.3C3665.08 1160.51 3665.37 1160.61 3665.72 1160.61ZM3673.46 1153.18C3674.47 1153.18 3675.3 1153.56 3675.92 1154.3C3676.55 1155.05 3676.87 1156.17 3676.87 1157.65C3676.87 1158.63 3676.72 1159.46 3676.42 1160.13C3676.13 1160.8 3675.73 1161.31 3675.22 1161.65C3674.71 1161.99 3674.11 1162.16 3673.41 1162.16C3673 1162.16 3672.62 1162.11 3672.29 1162C3671.97 1161.88 3671.7 1161.74 3671.48 1161.57C3671.25 1161.39 3671.06 1161.19 3670.88 1160.98H3670.77C3670.8 1161.17 3670.83 1161.39 3670.85 1161.63C3670.87 1161.88 3670.88 1162.11 3670.88 1162.32V1165.84H3668.96V1153.34H3670.53L3670.8 1154.5H3670.88C3671.06 1154.25 3671.25 1154.03 3671.48 1153.84C3671.71 1153.64 3671.99 1153.48 3672.31 1153.36C3672.64 1153.24 3673.02 1153.18 3673.46 1153.18ZM3672.93 1154.74C3672.44 1154.74 3672.05 1154.84 3671.75 1155.04C3671.46 1155.23 3671.25 1155.53 3671.11 1155.92C3670.97 1156.3 3670.9 1156.79 3670.88 1157.38V1157.65C3670.88 1158.28 3670.95 1158.81 3671.08 1159.25C3671.2 1159.69 3671.42 1160.02 3671.72 1160.26C3672.03 1160.48 3672.44 1160.59 3672.96 1160.59C3673.4 1160.59 3673.76 1160.47 3674.04 1160.22C3674.32 1159.98 3674.54 1159.64 3674.68 1159.2C3674.83 1158.75 3674.9 1158.23 3674.9 1157.63C3674.9 1156.71 3674.74 1156.01 3674.42 1155.5C3674.1 1154.99 3673.6 1154.74 3672.93 1154.74ZM3686.72 1153.34V1162H3685.21L3684.94 1160.88H3684.84C3684.66 1161.18 3684.43 1161.42 3684.14 1161.62C3683.86 1161.8 3683.55 1161.93 3683.21 1162.02C3682.87 1162.11 3682.51 1162.16 3682.14 1162.16C3681.5 1162.16 3680.94 1162.05 3680.48 1161.82C3680.01 1161.6 3679.65 1161.26 3679.4 1160.8C3679.16 1160.33 3679.04 1159.73 3679.04 1158.99V1153.34H3680.96V1158.64C3680.96 1159.29 3681.09 1159.78 3681.36 1160.11C3681.62 1160.44 3682.04 1160.61 3682.6 1160.61C3683.17 1160.61 3683.61 1160.49 3683.92 1160.26C3684.24 1160.02 3684.46 1159.69 3684.59 1159.25C3684.73 1158.8 3684.8 1158.26 3684.8 1157.62V1153.34H3686.72ZM3692.75 1160.61C3692.99 1160.61 3693.23 1160.59 3693.47 1160.54C3693.7 1160.5 3693.92 1160.45 3694.11 1160.38V1161.82C3693.91 1161.92 3693.64 1162 3693.31 1162.06C3692.98 1162.13 3692.63 1162.16 3692.27 1162.16C3691.79 1162.16 3691.35 1162.08 3690.96 1161.92C3690.56 1161.75 3690.24 1161.47 3690 1161.07C3689.76 1160.67 3689.64 1160.1 3689.64 1159.38V1154.8H3688.48V1153.95L3689.74 1153.26L3690.36 1151.42H3691.56V1153.34H3694.03V1154.8H3691.56V1159.36C3691.56 1159.79 3691.67 1160.1 3691.88 1160.3C3692.11 1160.51 3692.4 1160.61 3692.75 1160.61Z" fill="#535353" id="n1090"/>
<rect x="3642.5" y="1196.5" width="23" height="23" rx="11.5" fill="black" fill-opacity="0.04" id="n1091"/>
<rect x="3642.5" y="1196.5" width="23" height="23" rx="11.5" stroke="#8E8E8E" id="n1092"/>
<path d="M3685.44 1208.27C3685.44 1209.16 3685.33 1209.96 3685.1 1210.69C3684.89 1211.4 3684.57 1212.02 3684.13 1212.54C3683.69 1213.07 3683.14 1213.47 3682.48 1213.74C3681.83 1214.02 3681.08 1214.16 3680.22 1214.16C3679.34 1214.16 3678.57 1214.02 3677.9 1213.74C3677.25 1213.46 3676.71 1213.06 3676.27 1212.54C3675.83 1212.02 3675.51 1211.4 3675.3 1210.67C3675.08 1209.95 3674.98 1209.14 3674.98 1208.26C3674.98 1207.08 3675.17 1206.06 3675.55 1205.18C3675.95 1204.31 3676.53 1203.63 3677.31 1203.14C3678.09 1202.65 3679.07 1202.4 3680.24 1202.4C3681.37 1202.4 3682.32 1202.64 3683.09 1203.12C3683.87 1203.6 3684.45 1204.28 3684.85 1205.17C3685.24 1206.04 3685.44 1207.08 3685.44 1208.27ZM3676.34 1208.27C3676.34 1209.24 3676.47 1210.09 3676.75 1210.8C3677.03 1211.51 3677.46 1212.07 3678.03 1212.46C3678.61 1212.85 3679.34 1213.04 3680.22 1213.04C3681.11 1213.04 3681.83 1212.85 3682.4 1212.46C3682.98 1212.07 3683.4 1211.52 3683.68 1210.82C3683.96 1210.1 3684.1 1209.25 3684.1 1208.27C3684.1 1206.79 3683.78 1205.63 3683.15 1204.8C3682.53 1203.96 3681.56 1203.54 3680.24 1203.54C3679.35 1203.54 3678.62 1203.73 3678.03 1204.11C3677.46 1204.5 3677.03 1205.04 3676.75 1205.74C3676.47 1206.45 3676.34 1207.29 3676.34 1208.27ZM3694.84 1205.44V1214H3693.81L3693.62 1212.77H3693.57C3693.39 1213.07 3693.16 1213.32 3692.87 1213.54C3692.59 1213.74 3692.28 1213.89 3691.93 1214C3691.57 1214.11 3691.19 1214.16 3690.79 1214.16C3690.12 1214.16 3689.55 1214.05 3689.09 1213.84C3688.63 1213.62 3688.29 1213.27 3688.05 1212.82C3687.82 1212.36 3687.7 1211.77 3687.7 1211.04V1205.44H3688.98V1210.96C3688.98 1211.67 3689.14 1212.21 3689.46 1212.58C3689.79 1212.93 3690.29 1213.1 3690.97 1213.1C3691.61 1213.1 3692.11 1212.99 3692.49 1212.75C3692.87 1212.51 3693.15 1212.15 3693.32 1211.68C3693.5 1211.21 3693.59 1210.64 3693.59 1209.97V1205.44H3694.84ZM3700.31 1213.12C3700.54 1213.12 3700.76 1213.1 3700.97 1213.07C3701.19 1213.03 3701.38 1212.99 3701.53 1212.94V1213.9C3701.37 1213.98 3701.16 1214.04 3700.89 1214.08C3700.63 1214.13 3700.37 1214.16 3700.11 1214.16C3699.66 1214.16 3699.25 1214.08 3698.89 1213.92C3698.53 1213.76 3698.23 1213.49 3698.01 1213.12C3697.8 1212.74 3697.69 1212.21 3697.69 1211.54V1206.43H3696.46V1205.81L3697.71 1205.33L3698.19 1203.46H3698.95V1205.44H3701.47V1206.43H3698.95V1211.5C3698.95 1212.05 3699.07 1212.45 3699.31 1212.72C3699.55 1212.99 3699.89 1213.12 3700.31 1213.12ZM3707.28 1205.28C3708.35 1205.28 3709.2 1205.65 3709.83 1206.38C3710.47 1207.12 3710.79 1208.22 3710.79 1209.7C3710.79 1210.67 3710.64 1211.49 3710.34 1212.16C3710.05 1212.82 3709.64 1213.32 3709.11 1213.66C3708.58 1213.99 3707.96 1214.16 3707.25 1214.16C3706.79 1214.16 3706.39 1214.1 3706.03 1213.97C3705.68 1213.84 3705.38 1213.67 3705.14 1213.47C3704.9 1213.27 3704.71 1213.05 3704.55 1212.8H3704.45C3704.47 1213 3704.49 1213.25 3704.51 1213.54C3704.54 1213.82 3704.55 1214.08 3704.55 1214.3V1217.82H3703.28V1205.44H3704.31L3704.48 1206.74H3704.55C3704.71 1206.47 3704.91 1206.23 3705.15 1206.02C3705.4 1205.79 3705.69 1205.62 3706.03 1205.49C3706.39 1205.35 3706.8 1205.28 3707.28 1205.28ZM3707.06 1206.35C3706.47 1206.35 3705.99 1206.47 3705.62 1206.7C3705.26 1206.94 3704.98 1207.29 3704.8 1207.74C3704.63 1208.2 3704.55 1208.78 3704.55 1209.47V1209.71C3704.55 1210.45 3704.63 1211.07 3704.79 1211.57C3704.95 1212.07 3705.21 1212.45 3705.59 1212.72C3705.96 1212.98 3706.46 1213.1 3707.07 1213.1C3707.61 1213.1 3708.05 1212.96 3708.4 1212.67C3708.76 1212.38 3709.04 1211.98 3709.22 1211.47C3709.4 1210.96 3709.49 1210.36 3709.49 1209.68C3709.49 1208.65 3709.29 1207.83 3708.88 1207.25C3708.49 1206.65 3707.88 1206.35 3707.06 1206.35ZM3720.07 1205.44V1214H3719.05L3718.86 1212.77H3718.81C3718.63 1213.07 3718.39 1213.32 3718.1 1213.54C3717.83 1213.74 3717.51 1213.89 3717.16 1214C3716.81 1214.11 3716.43 1214.16 3716.02 1214.16C3715.35 1214.16 3714.79 1214.05 3714.33 1213.84C3713.87 1213.62 3713.52 1213.27 3713.29 1212.82C3713.05 1212.36 3712.94 1211.77 3712.94 1211.04V1205.44H3714.22V1210.96C3714.22 1211.67 3714.38 1212.21 3714.7 1212.58C3715.03 1212.93 3715.53 1213.1 3716.2 1213.1C3716.84 1213.1 3717.35 1212.99 3717.72 1212.75C3718.1 1212.51 3718.38 1212.15 3718.55 1211.68C3718.73 1211.21 3718.82 1210.64 3718.82 1209.97V1205.44H3720.07ZM3725.55 1213.12C3725.77 1213.12 3725.99 1213.1 3726.21 1213.07C3726.43 1213.03 3726.62 1212.99 3726.77 1212.94V1213.9C3726.61 1213.98 3726.39 1214.04 3726.13 1214.08C3725.87 1214.13 3725.61 1214.16 3725.34 1214.16C3724.89 1214.16 3724.49 1214.08 3724.13 1213.92C3723.76 1213.76 3723.47 1213.49 3723.25 1213.12C3723.03 1212.74 3722.93 1212.21 3722.93 1211.54V1206.43H3721.69V1205.81L3722.94 1205.33L3723.42 1203.46H3724.19V1205.44H3726.7V1206.43H3724.19V1211.5C3724.19 1212.05 3724.31 1212.45 3724.54 1212.72C3724.79 1212.99 3725.12 1213.12 3725.55 1213.12ZM3736.9 1214H3735.66V1205.86C3735.66 1205.55 3735.66 1205.29 3735.66 1205.07C3735.68 1204.86 3735.68 1204.66 3735.68 1204.48C3735.69 1204.29 3735.7 1204.1 3735.71 1203.9C3735.55 1204.06 3735.4 1204.2 3735.26 1204.32C3735.13 1204.43 3734.96 1204.57 3734.75 1204.75L3733.41 1205.81L3732.75 1204.96L3735.84 1202.58H3736.9V1214Z" fill="#1F1F1F" id="n1093"/>
<rect x="3642.5" y="1244.5" width="23" height="23" rx="11.5" fill="#2D548B" id="n1094"/>
<rect x="3642.5" y="1244.5" width="23" height="23" rx="11.5" stroke="#1D3C67" id="n1095"/>
<path fill-rule="evenodd" clip-rule="evenodd" d="M3654 1260C3656.21 1260 3658 1258.21 3658 1256C3658 1253.79 3656.21 1252 3654 1252C3651.79 1252 3650 1253.79 3650 1256C3650 1258.21 3651.79 1260 3654 1260Z" fill="white" id="n1096"/>
<path d="M3685.78 1256.27C3685.78 1257.16 3685.66 1257.96 3685.44 1258.69C3685.23 1259.4 3684.9 1260.02 3684.45 1260.54C3684.01 1261.07 3683.45 1261.47 3682.77 1261.74C3682.09 1262.02 3681.28 1262.16 3680.35 1262.16C3679.43 1262.16 3678.63 1262.02 3677.94 1261.74C3677.25 1261.46 3676.69 1261.06 3676.24 1260.54C3675.8 1260.02 3675.47 1259.4 3675.25 1258.67C3675.03 1257.95 3674.93 1257.14 3674.93 1256.26C3674.93 1255.07 3675.12 1254.04 3675.5 1253.17C3675.9 1252.29 3676.5 1251.62 3677.3 1251.14C3678.11 1250.65 3679.13 1250.4 3680.37 1250.4C3681.59 1250.4 3682.61 1250.65 3683.41 1251.14C3684.21 1251.62 3684.8 1252.3 3685.18 1253.18C3685.58 1254.06 3685.78 1255.09 3685.78 1256.27ZM3677.36 1256.27C3677.36 1257.09 3677.46 1257.8 3677.66 1258.38C3677.88 1258.97 3678.2 1259.42 3678.64 1259.74C3679.09 1260.06 3679.66 1260.22 3680.35 1260.22C3681.07 1260.22 3681.64 1260.06 3682.08 1259.74C3682.52 1259.42 3682.84 1258.97 3683.04 1258.38C3683.24 1257.8 3683.34 1257.09 3683.34 1256.27C3683.34 1255.05 3683.11 1254.09 3682.64 1253.39C3682.18 1252.69 3681.42 1252.34 3680.37 1252.34C3679.66 1252.34 3679.09 1252.5 3678.64 1252.82C3678.2 1253.13 3677.88 1253.57 3677.66 1254.16C3677.46 1254.75 3677.36 1255.45 3677.36 1256.27ZM3695.89 1253.28V1262H3694.14L3693.82 1260.88H3693.71C3693.53 1261.18 3693.3 1261.42 3693.01 1261.62C3692.73 1261.8 3692.42 1261.93 3692.08 1262.02C3691.74 1262.11 3691.39 1262.16 3691.02 1262.16C3690.39 1262.16 3689.84 1262.05 3689.38 1261.82C3688.91 1261.6 3688.54 1261.25 3688.29 1260.78C3688.03 1260.31 3687.9 1259.71 3687.9 1258.98V1253.28H3690.19V1258.43C3690.19 1259.06 3690.3 1259.54 3690.53 1259.86C3690.76 1260.18 3691.14 1260.34 3691.65 1260.34C3692.16 1260.34 3692.55 1260.22 3692.83 1260C3693.12 1259.78 3693.32 1259.45 3693.44 1259.02C3693.56 1258.59 3693.62 1258.06 3693.62 1257.44V1253.28H3695.89ZM3702 1260.34C3702.26 1260.34 3702.51 1260.31 3702.76 1260.27C3703 1260.22 3703.24 1260.15 3703.48 1260.08V1261.78C3703.23 1261.88 3702.92 1261.97 3702.55 1262.05C3702.19 1262.12 3701.79 1262.16 3701.36 1262.16C3700.85 1262.16 3700.39 1262.07 3699.99 1261.9C3699.58 1261.73 3699.26 1261.44 3699.01 1261.02C3698.78 1260.61 3698.66 1260.03 3698.66 1259.3V1254.99H3697.51V1254.03L3698.82 1253.25L3699.49 1251.41H3700.93V1253.28H3703.38V1254.99H3700.93V1259.28C3700.93 1259.64 3701.03 1259.91 3701.22 1260.08C3701.42 1260.25 3701.68 1260.34 3702 1260.34ZM3710 1253.12C3710.99 1253.12 3711.79 1253.5 3712.4 1254.27C3713.02 1255.03 3713.33 1256.15 3713.33 1257.63C3713.33 1258.61 3713.18 1259.45 3712.9 1260.13C3712.61 1260.8 3712.21 1261.31 3711.7 1261.65C3711.2 1261.99 3710.61 1262.16 3709.95 1262.16C3709.53 1262.16 3709.16 1262.11 3708.85 1262C3708.55 1261.89 3708.29 1261.75 3708.06 1261.58C3707.85 1261.4 3707.66 1261.22 3707.5 1261.02H3707.38C3707.42 1261.23 3707.45 1261.44 3707.47 1261.66C3707.49 1261.89 3707.5 1262.11 3707.5 1262.32V1265.84H3705.23V1253.28H3707.07L3707.39 1254.42H3707.5C3707.66 1254.18 3707.86 1253.97 3708.08 1253.78C3708.3 1253.57 3708.58 1253.41 3708.9 1253.3C3709.22 1253.18 3709.58 1253.12 3710 1253.12ZM3709.3 1254.94C3708.86 1254.94 3708.51 1255.03 3708.26 1255.22C3708 1255.39 3707.81 1255.65 3707.7 1256.02C3707.58 1256.37 3707.52 1256.82 3707.5 1257.36V1257.62C3707.5 1258.19 3707.56 1258.68 3707.66 1259.09C3707.78 1259.48 3707.97 1259.79 3708.24 1260C3708.51 1260.2 3708.87 1260.3 3709.33 1260.3C3709.71 1260.3 3710.03 1260.2 3710.27 1260C3710.52 1259.79 3710.7 1259.48 3710.82 1259.07C3710.94 1258.66 3711.01 1258.17 3711.01 1257.6C3711.01 1256.73 3710.87 1256.06 3710.59 1255.62C3710.32 1255.17 3709.88 1254.94 3709.3 1254.94ZM3723.25 1253.28V1262H3721.5L3721.18 1260.88H3721.07C3720.89 1261.18 3720.65 1261.42 3720.37 1261.62C3720.09 1261.8 3719.78 1261.93 3719.44 1262.02C3719.1 1262.11 3718.75 1262.16 3718.38 1262.16C3717.75 1262.16 3717.2 1262.05 3716.73 1261.82C3716.27 1261.6 3715.9 1261.25 3715.65 1260.78C3715.39 1260.31 3715.26 1259.71 3715.26 1258.98V1253.28H3717.55V1258.43C3717.55 1259.06 3717.66 1259.54 3717.89 1259.86C3718.12 1260.18 3718.49 1260.34 3719.01 1260.34C3719.52 1260.34 3719.91 1260.22 3720.19 1260C3720.48 1259.78 3720.68 1259.45 3720.8 1259.02C3720.92 1258.59 3720.97 1258.06 3720.97 1257.44V1253.28H3723.25ZM3729.36 1260.34C3729.62 1260.34 3729.87 1260.31 3730.12 1260.27C3730.36 1260.22 3730.6 1260.15 3730.84 1260.08V1261.78C3730.59 1261.88 3730.28 1261.97 3729.91 1262.05C3729.54 1262.12 3729.15 1262.16 3728.72 1262.16C3728.21 1262.16 3727.75 1262.07 3727.35 1261.9C3726.94 1261.73 3726.62 1261.44 3726.37 1261.02C3726.14 1260.61 3726.02 1260.03 3726.02 1259.3V1254.99H3724.87V1254.03L3726.18 1253.25L3726.85 1251.41H3728.29V1253.28H3730.74V1254.99H3728.29V1259.28C3728.29 1259.64 3728.39 1259.91 3728.58 1260.08C3728.78 1260.25 3729.04 1260.34 3729.36 1260.34ZM3744.08 1262H3736.14V1260.38L3739.02 1257.47C3739.6 1256.87 3740.06 1256.37 3740.41 1255.97C3740.78 1255.56 3741.04 1255.19 3741.2 1254.86C3741.37 1254.52 3741.45 1254.15 3741.45 1253.76C3741.45 1253.28 3741.32 1252.92 3741.05 1252.69C3740.79 1252.45 3740.43 1252.34 3739.98 1252.34C3739.53 1252.34 3739.1 1252.44 3738.68 1252.64C3738.27 1252.84 3737.83 1253.13 3737.37 1253.5L3736.12 1252.02C3736.46 1251.73 3736.8 1251.47 3737.16 1251.23C3737.53 1250.99 3737.95 1250.79 3738.43 1250.64C3738.91 1250.49 3739.48 1250.42 3740.14 1250.42C3740.89 1250.42 3741.53 1250.55 3742.06 1250.82C3742.59 1251.08 3743 1251.45 3743.29 1251.92C3743.59 1252.38 3743.74 1252.91 3743.74 1253.5C3743.74 1253.97 3743.67 1254.41 3743.52 1254.82C3743.38 1255.22 3743.17 1255.62 3742.89 1256C3742.63 1256.37 3742.3 1256.76 3741.9 1257.17C3741.52 1257.56 3741.08 1257.99 3740.59 1258.46L3739 1259.95V1260.05H3744.08V1262Z" fill="#1F1F1F" id="n1097"/>
<rect x="3642.5" y="1292.5" width="23" height="23" rx="11.5" fill="black" fill-opacity="0.04" id="n1098"/>
<rect x="3642.5" y="1292.5" width="23" height="23" rx="11.5" stroke="#8E8E8E" id="n1099"/>
<path d="M3685.44 1304.27C3685.44 1305.16 3685.33 1305.96 3685.1 1306.69C3684.89 1307.4 3684.57 1308.02 3684.13 1308.54C3683.69 1309.07 3683.14 1309.47 3682.48 1309.74C3681.83 1310.02 3681.08 1310.16 3680.22 1310.16C3679.34 1310.16 3678.57 1310.02 3677.9 1309.74C3677.25 1309.46 3676.71 1309.06 3676.27 1308.54C3675.83 1308.02 3675.51 1307.4 3675.3 1306.67C3675.08 1305.95 3674.98 1305.14 3674.98 1304.26C3674.98 1303.08 3675.17 1302.06 3675.55 1301.18C3675.95 1300.31 3676.53 1299.63 3677.31 1299.14C3678.09 1298.65 3679.07 1298.4 3680.24 1298.4C3681.37 1298.4 3682.32 1298.64 3683.09 1299.12C3683.87 1299.6 3684.45 1300.28 3684.85 1301.17C3685.24 1302.04 3685.44 1303.08 3685.44 1304.27ZM3676.34 1304.27C3676.34 1305.24 3676.47 1306.09 3676.75 1306.8C3677.03 1307.51 3677.46 1308.07 3678.03 1308.46C3678.61 1308.85 3679.34 1309.04 3680.22 1309.04C3681.11 1309.04 3681.83 1308.85 3682.4 1308.46C3682.98 1308.07 3683.4 1307.52 3683.68 1306.82C3683.96 1306.1 3684.1 1305.25 3684.1 1304.27C3684.1 1302.79 3683.78 1301.63 3683.15 1300.8C3682.53 1299.96 3681.56 1299.54 3680.24 1299.54C3679.35 1299.54 3678.62 1299.73 3678.03 1300.11C3677.46 1300.5 3677.03 1301.04 3676.75 1301.74C3676.47 1302.45 3676.34 1303.29 3676.34 1304.27ZM3694.84 1301.44V1310H3693.81L3693.62 1308.77H3693.57C3693.39 1309.07 3693.16 1309.32 3692.87 1309.54C3692.59 1309.74 3692.28 1309.89 3691.93 1310C3691.57 1310.11 3691.19 1310.16 3690.79 1310.16C3690.12 1310.16 3689.55 1310.05 3689.09 1309.84C3688.63 1309.62 3688.29 1309.27 3688.05 1308.82C3687.82 1308.36 3687.7 1307.77 3687.7 1307.04V1301.44H3688.98V1306.96C3688.98 1307.67 3689.14 1308.21 3689.46 1308.58C3689.79 1308.93 3690.29 1309.1 3690.97 1309.1C3691.61 1309.1 3692.11 1308.99 3692.49 1308.75C3692.87 1308.51 3693.15 1308.15 3693.32 1307.68C3693.5 1307.21 3693.59 1306.64 3693.59 1305.97V1301.44H3694.84ZM3700.31 1309.12C3700.54 1309.12 3700.76 1309.1 3700.97 1309.07C3701.19 1309.03 3701.38 1308.99 3701.53 1308.94V1309.9C3701.37 1309.98 3701.16 1310.04 3700.89 1310.08C3700.63 1310.13 3700.37 1310.16 3700.11 1310.16C3699.66 1310.16 3699.25 1310.08 3698.89 1309.92C3698.53 1309.76 3698.23 1309.49 3698.01 1309.12C3697.8 1308.74 3697.69 1308.21 3697.69 1307.54V1302.43H3696.46V1301.81L3697.71 1301.33L3698.19 1299.46H3698.95V1301.44H3701.47V1302.43H3698.95V1307.5C3698.95 1308.05 3699.07 1308.45 3699.31 1308.72C3699.55 1308.99 3699.89 1309.12 3700.31 1309.12ZM3707.28 1301.28C3708.35 1301.28 3709.2 1301.65 3709.83 1302.38C3710.47 1303.12 3710.79 1304.22 3710.79 1305.7C3710.79 1306.67 3710.64 1307.49 3710.34 1308.16C3710.05 1308.82 3709.64 1309.32 3709.11 1309.66C3708.58 1309.99 3707.96 1310.16 3707.25 1310.16C3706.79 1310.16 3706.39 1310.1 3706.03 1309.97C3705.68 1309.84 3705.38 1309.67 3705.14 1309.47C3704.9 1309.27 3704.71 1309.05 3704.55 1308.8H3704.45C3704.47 1309 3704.49 1309.25 3704.51 1309.54C3704.54 1309.82 3704.55 1310.08 3704.55 1310.3V1313.82H3703.28V1301.44H3704.31L3704.48 1302.74H3704.55C3704.71 1302.47 3704.91 1302.23 3705.15 1302.02C3705.4 1301.79 3705.69 1301.62 3706.03 1301.49C3706.39 1301.35 3706.8 1301.28 3707.28 1301.28ZM3707.06 1302.35C3706.47 1302.35 3705.99 1302.47 3705.62 1302.7C3705.26 1302.94 3704.98 1303.29 3704.8 1303.74C3704.63 1304.2 3704.55 1304.78 3704.55 1305.47V1305.71C3704.55 1306.45 3704.63 1307.07 3704.79 1307.57C3704.95 1308.07 3705.21 1308.45 3705.59 1308.72C3705.96 1308.98 3706.46 1309.1 3707.07 1309.1C3707.61 1309.1 3708.05 1308.96 3708.4 1308.67C3708.76 1308.38 3709.04 1307.98 3709.22 1307.47C3709.4 1306.96 3709.49 1306.36 3709.49 1305.68C3709.49 1304.65 3709.29 1303.83 3708.88 1303.25C3708.49 1302.65 3707.88 1302.35 3707.06 1302.35ZM3720.07 1301.44V1310H3719.05L3718.86 1308.77H3718.81C3718.63 1309.07 3718.39 1309.32 3718.1 1309.54C3717.83 1309.74 3717.51 1309.89 3717.16 1310C3716.81 1310.11 3716.43 1310.16 3716.02 1310.16C3715.35 1310.16 3714.79 1310.05 3714.33 1309.84C3713.87 1309.62 3713.52 1309.27 3713.29 1308.82C3713.05 1308.36 3712.94 1307.77 3712.94 1307.04V1301.44H3714.22V1306.96C3714.22 1307.67 3714.38 1308.21 3714.7 1308.58C3715.03 1308.93 3715.53 1309.1 3716.2 1309.1C3716.84 1309.1 3717.35 1308.99 3717.72 1308.75C3718.1 1308.51 3718.38 1308.15 3718.55 1307.68C3718.73 1307.21 3718.82 1306.64 3718.82 1305.97V1301.44H3720.07ZM3725.55 1309.12C3725.77 1309.12 3725.99 1309.1 3726.21 1309.07C3726.43 1309.03 3726.62 1308.99 3726.77 1308.94V1309.9C3726.61 1309.98 3726.39 1310.04 3726.13 1310.08C3725.87 1310.13 3725.61 1310.16 3725.34 1310.16C3724.89 1310.16 3724.49 1310.08 3724.13 1309.92C3723.76 1309.76 3723.47 1309.49 3723.25 1309.12C3723.03 1308.74 3722.93 1308.21 3722.93 1307.54V1302.43H3721.69V1301.81L3722.94 1301.33L3723.42 1299.46H3724.19V1301.44H3726.7V1302.43H3724.19V1307.5C3724.19 1308.05 3724.31 1308.45 3724.54 1308.72C3724.79 1308.99 3725.12 1309.12 3725.55 1309.12ZM3739.14 1301.23C3739.14 1301.74 3739.04 1302.19 3738.83 1302.58C3738.64 1302.95 3738.36 1303.25 3738 1303.49C3737.65 1303.72 3737.23 1303.89 3736.75 1303.98V1304.05C3737.66 1304.15 3738.34 1304.44 3738.8 1304.91C3739.26 1305.38 3739.49 1306 3739.49 1306.77C3739.49 1307.43 3739.33 1308.02 3739.02 1308.53C3738.72 1309.04 3738.24 1309.44 3737.6 1309.73C3736.97 1310.02 3736.16 1310.16 3735.17 1310.16C3734.56 1310.16 3734 1310.11 3733.47 1310.02C3732.96 1309.92 3732.48 1309.76 3732.02 1309.54V1308.35C3732.49 1308.58 3733 1308.76 3733.55 1308.9C3734.12 1309.02 3734.66 1309.09 3735.18 1309.09C3736.23 1309.09 3736.99 1308.88 3737.46 1308.46C3737.93 1308.05 3738.16 1307.48 3738.16 1306.75C3738.16 1306.24 3738.03 1305.83 3737.78 1305.54C3737.52 1305.23 3737.15 1305 3736.66 1304.86C3736.17 1304.71 3735.58 1304.64 3734.9 1304.64H3733.76V1303.55H3734.91C3735.53 1303.55 3736.05 1303.46 3736.48 1303.28C3736.92 1303.1 3737.25 1302.84 3737.49 1302.51C3737.72 1302.17 3737.84 1301.77 3737.84 1301.31C3737.84 1300.73 3737.64 1300.28 3737.25 1299.97C3736.86 1299.65 3736.34 1299.49 3735.66 1299.49C3735.26 1299.49 3734.89 1299.53 3734.54 1299.62C3734.21 1299.69 3733.9 1299.8 3733.6 1299.95C3733.31 1300.09 3733.02 1300.26 3732.72 1300.46L3732.1 1299.6C3732.38 1299.39 3732.7 1299.19 3733.06 1299.01C3733.42 1298.83 3733.81 1298.68 3734.24 1298.58C3734.68 1298.47 3735.15 1298.42 3735.65 1298.42C3736.81 1298.42 3737.68 1298.68 3738.26 1299.2C3738.84 1299.72 3739.14 1300.4 3739.14 1301.23Z" fill="#1F1F1F" id="n1100"/>
<mask id="path-936-inside-68_1702_11540" fill="white">
<path d="M3614 1336H3934V1400H3614V1336Z" id="n1101"/>
</mask>
<path d="M3614 1337H3934V1335H3614V1337Z" fill="#DDDDDD" mask="url(#path-936-inside-68_1702_11540)" id="n1102"/>
<path d="M3651.25 1378L3650.85 1374.8C3650.63 1374.72 3650.43 1374.62 3650.24 1374.5C3650.05 1374.38 3649.86 1374.26 3649.68 1374.12L3646.7 1375.38L3643.95 1370.62L3646.53 1368.68C3646.51 1368.56 3646.5 1368.45 3646.5 1368.34V1367.66C3646.5 1367.55 3646.51 1367.44 3646.53 1367.32L3643.95 1365.38L3646.7 1360.62L3649.68 1361.88C3649.86 1361.74 3650.05 1361.62 3650.25 1361.5C3650.45 1361.38 3650.65 1361.28 3650.85 1361.2L3651.25 1358H3656.75L3657.15 1361.2C3657.37 1361.28 3657.57 1361.38 3657.76 1361.5C3657.95 1361.62 3658.14 1361.74 3658.33 1361.88L3661.3 1360.62L3664.05 1365.38L3661.48 1367.32C3661.49 1367.44 3661.5 1367.55 3661.5 1367.66V1368.34C3661.5 1368.45 3661.48 1368.56 3661.45 1368.68L3664.03 1370.62L3661.28 1375.38L3658.33 1374.12C3658.14 1374.26 3657.95 1374.38 3657.75 1374.5C3657.55 1374.62 3657.35 1374.72 3657.15 1374.8L3656.75 1378H3651.25ZM3653 1376H3654.98L3655.33 1373.35C3655.84 1373.22 3656.32 1373.02 3656.76 1372.76C3657.2 1372.5 3657.61 1372.19 3657.98 1371.82L3660.45 1372.85L3661.43 1371.15L3659.28 1369.53C3659.36 1369.29 3659.42 1369.05 3659.45 1368.79C3659.48 1368.53 3659.5 1368.27 3659.5 1368C3659.5 1367.73 3659.48 1367.47 3659.45 1367.21C3659.42 1366.95 3659.36 1366.71 3659.28 1366.48L3661.43 1364.85L3660.45 1363.15L3657.98 1364.2C3657.61 1363.82 3657.2 1363.5 3656.76 1363.24C3656.32 1362.98 3655.84 1362.78 3655.33 1362.65L3655 1360H3653.03L3652.68 1362.65C3652.16 1362.78 3651.68 1362.98 3651.24 1363.24C3650.8 1363.5 3650.39 1363.81 3650.03 1364.18L3647.55 1363.15L3646.58 1364.85L3648.73 1366.45C3648.64 1366.7 3648.58 1366.95 3648.55 1367.2C3648.52 1367.45 3648.5 1367.72 3648.5 1368C3648.5 1368.27 3648.52 1368.53 3648.55 1368.78C3648.58 1369.03 3648.64 1369.28 3648.73 1369.53L3646.58 1371.15L3647.55 1372.85L3650.03 1371.8C3650.39 1372.18 3650.8 1372.5 3651.24 1372.76C3651.68 1373.02 3652.16 1373.22 3652.68 1373.35L3653 1376Z" fill="#535353" id="n1103"/>
<path fill-rule="evenodd" clip-rule="evenodd" d="M3654 1369.5C3654.83 1369.5 3655.5 1368.83 3655.5 1368C3655.5 1367.17 3654.83 1366.5 3654 1366.5C3653.17 1366.5 3652.5 1367.17 3652.5 1368C3652.5 1368.83 3653.17 1369.5 3654 1369.5ZM3654 1371.5C3655.93 1371.5 3657.5 1369.93 3657.5 1368C3657.5 1366.07 3655.93 1364.5 3654 1364.5C3652.07 1364.5 3650.5 1366.07 3650.5 1368C3650.5 1369.93 3652.07 1371.5 3654 1371.5Z" fill="#535353" id="n1104"/>
<path d="M3682 1370.98C3682 1371.66 3681.83 1372.23 3681.5 1372.7C3681.17 1373.17 3680.7 1373.54 3680.08 1373.79C3679.47 1374.04 3678.76 1374.16 3677.95 1374.16C3677.53 1374.16 3677.11 1374.14 3676.72 1374.1C3676.34 1374.05 3675.98 1373.99 3675.66 1373.92C3675.35 1373.83 3675.08 1373.74 3674.83 1373.63V1372.38C3675.22 1372.55 3675.69 1372.71 3676.26 1372.85C3676.82 1372.98 3677.41 1373.04 3678.02 1373.04C3678.59 1373.04 3679.08 1372.97 3679.47 1372.82C3679.88 1372.66 3680.19 1372.43 3680.4 1372.14C3680.61 1371.85 3680.72 1371.49 3680.72 1371.07C3680.72 1370.68 3680.63 1370.35 3680.45 1370.08C3680.28 1369.81 3679.99 1369.57 3679.58 1369.36C3679.18 1369.14 3678.63 1368.91 3677.95 1368.67C3677.46 1368.49 3677.03 1368.3 3676.66 1368.1C3676.29 1367.89 3675.98 1367.66 3675.73 1367.41C3675.48 1367.15 3675.3 1366.85 3675.17 1366.51C3675.04 1366.17 3674.98 1365.78 3674.98 1365.33C3674.98 1364.71 3675.13 1364.19 3675.44 1363.76C3675.75 1363.32 3676.18 1362.99 3676.72 1362.77C3677.27 1362.53 3677.9 1362.42 3678.61 1362.42C3679.23 1362.42 3679.79 1362.47 3680.3 1362.59C3680.82 1362.7 3681.29 1362.85 3681.73 1363.06L3681.31 1364.14C3680.91 1363.97 3680.47 1363.83 3680 1363.73C3679.54 1363.61 3679.07 1363.55 3678.58 1363.55C3678.09 1363.55 3677.67 1363.63 3677.33 1363.78C3676.99 1363.91 3676.73 1364.12 3676.54 1364.38C3676.36 1364.65 3676.27 1364.97 3676.27 1365.33C3676.27 1365.74 3676.36 1366.09 3676.53 1366.35C3676.71 1366.62 3676.99 1366.85 3677.36 1367.06C3677.74 1367.26 3678.23 1367.47 3678.83 1367.7C3679.51 1367.94 3680.09 1368.2 3680.56 1368.48C3681.03 1368.76 3681.39 1369.09 3681.63 1369.49C3681.88 1369.87 3682 1370.37 3682 1370.98ZM3687.42 1365.28C3688.16 1365.28 3688.78 1365.45 3689.29 1365.78C3689.82 1366.1 3690.21 1366.55 3690.48 1367.14C3690.75 1367.71 3690.89 1368.39 3690.89 1369.17V1369.95H3684.96C3684.98 1370.97 3685.23 1371.74 3685.71 1372.29C3686.2 1372.82 3686.89 1373.09 3687.79 1373.09C3688.32 1373.09 3688.8 1373.04 3689.21 1372.94C3689.63 1372.84 3690.06 1372.69 3690.51 1372.5V1373.6C3690.08 1373.79 3689.66 1373.93 3689.23 1374.02C3688.8 1374.11 3688.3 1374.16 3687.73 1374.16C3686.9 1374.16 3686.18 1373.99 3685.57 1373.66C3684.96 1373.32 3684.49 1372.83 3684.16 1372.18C3683.83 1371.51 3683.66 1370.72 3683.66 1369.79C3683.66 1368.87 3683.81 1368.08 3684.11 1367.41C3684.42 1366.74 3684.86 1366.21 3685.42 1365.84C3685.99 1365.47 3686.65 1365.28 3687.42 1365.28ZM3687.41 1366.32C3686.7 1366.32 3686.14 1366.55 3685.73 1367.01C3685.31 1367.47 3685.06 1368.11 3684.99 1368.94H3689.58C3689.58 1368.42 3689.5 1367.97 3689.34 1367.58C3689.19 1367.19 3688.96 1366.88 3688.64 1366.66C3688.32 1366.43 3687.91 1366.32 3687.41 1366.32ZM3695.81 1373.12C3696.04 1373.12 3696.26 1373.1 3696.47 1373.07C3696.69 1373.03 3696.88 1372.99 3697.03 1372.94V1373.9C3696.87 1373.98 3696.66 1374.04 3696.39 1374.08C3696.13 1374.13 3695.87 1374.16 3695.61 1374.16C3695.16 1374.16 3694.75 1374.08 3694.39 1373.92C3694.03 1373.76 3693.73 1373.49 3693.51 1373.12C3693.3 1372.74 3693.19 1372.21 3693.19 1371.54V1366.43H3691.96V1365.81L3693.21 1365.33L3693.69 1363.46H3694.45V1365.44H3696.97V1366.43H3694.45V1371.5C3694.45 1372.05 3694.57 1372.45 3694.81 1372.72C3695.05 1372.99 3695.39 1373.12 3695.81 1373.12ZM3701.5 1373.12C3701.73 1373.12 3701.94 1373.1 3702.16 1373.07C3702.38 1373.03 3702.57 1372.99 3702.72 1372.94V1373.9C3702.56 1373.98 3702.34 1374.04 3702.08 1374.08C3701.82 1374.13 3701.56 1374.16 3701.29 1374.16C3700.85 1374.16 3700.44 1374.08 3700.08 1373.92C3699.72 1373.76 3699.42 1373.49 3699.2 1373.12C3698.98 1372.74 3698.88 1372.21 3698.88 1371.54V1366.43H3697.65V1365.81L3698.89 1365.33L3699.37 1363.46H3700.14V1365.44H3702.65V1366.43H3700.14V1371.5C3700.14 1372.05 3700.26 1372.45 3700.49 1372.72C3700.74 1372.99 3701.08 1373.12 3701.5 1373.12ZM3705.72 1365.44V1374H3704.47V1365.44H3705.72ZM3705.11 1362.24C3705.32 1362.24 3705.5 1362.31 3705.64 1362.45C3705.79 1362.59 3705.86 1362.8 3705.86 1363.09C3705.86 1363.35 3705.79 1363.56 3705.64 1363.71C3705.5 1363.85 3705.32 1363.92 3705.11 1363.92C3704.89 1363.92 3704.7 1363.85 3704.55 1363.71C3704.41 1363.56 3704.34 1363.35 3704.34 1363.09C3704.34 1362.8 3704.41 1362.59 3704.55 1362.45C3704.7 1362.31 3704.89 1362.24 3705.11 1362.24ZM3712.5 1365.28C3713.5 1365.28 3714.27 1365.53 3714.79 1366.03C3715.31 1366.52 3715.57 1367.32 3715.57 1368.42V1374H3714.33V1368.51C3714.33 1367.78 3714.16 1367.23 3713.83 1366.88C3713.5 1366.53 3713 1366.35 3712.33 1366.35C3711.38 1366.35 3710.7 1366.62 3710.31 1367.15C3709.92 1367.69 3709.72 1368.46 3709.72 1369.49V1374H3708.47V1365.44H3709.48L3709.67 1366.7H3709.73C3709.93 1366.39 3710.16 1366.14 3710.44 1365.94C3710.72 1365.72 3711.03 1365.56 3711.38 1365.46C3711.73 1365.34 3712.11 1365.28 3712.5 1365.28ZM3721.31 1365.28C3721.9 1365.28 3722.43 1365.4 3722.88 1365.63C3723.32 1365.86 3723.7 1366.19 3724.01 1366.62H3724.09L3724.27 1365.44H3725.26V1374.18C3725.26 1374.97 3725.13 1375.63 3724.86 1376.18C3724.59 1376.73 3724.18 1377.15 3723.61 1377.42C3723.06 1377.7 3722.34 1377.84 3721.47 1377.84C3720.85 1377.84 3720.28 1377.79 3719.77 1377.7C3719.26 1377.6 3718.8 1377.47 3718.4 1377.3V1376.11C3718.67 1376.25 3718.98 1376.37 3719.31 1376.46C3719.64 1376.57 3719.99 1376.65 3720.36 1376.7C3720.75 1376.76 3721.14 1376.78 3721.55 1376.78C3722.34 1376.78 3722.94 1376.56 3723.37 1376.11C3723.8 1375.66 3724.01 1375.05 3724.01 1374.27V1373.89C3724.01 1373.74 3724.02 1373.55 3724.03 1373.31C3724.04 1373.07 3724.05 1372.88 3724.06 1372.75H3724.01C3723.72 1373.22 3723.35 1373.57 3722.89 1373.81C3722.44 1374.04 3721.91 1374.16 3721.29 1374.16C3720.18 1374.16 3719.32 1373.78 3718.7 1373.01C3718.08 1372.24 3717.77 1371.16 3717.77 1369.76C3717.77 1368.84 3717.91 1368.05 3718.19 1367.38C3718.46 1366.7 3718.86 1366.19 3719.39 1365.82C3719.92 1365.46 3720.56 1365.28 3721.31 1365.28ZM3721.47 1366.35C3720.96 1366.35 3720.52 1366.49 3720.16 1366.75C3719.8 1367.02 3719.53 1367.41 3719.34 1367.92C3719.16 1368.42 3719.07 1369.04 3719.07 1369.78C3719.07 1370.85 3719.27 1371.68 3719.68 1372.26C3720.09 1372.83 3720.69 1373.12 3721.47 1373.12C3721.94 1373.12 3722.33 1373.06 3722.65 1372.93C3722.97 1372.8 3723.23 1372.61 3723.44 1372.35C3723.65 1372.1 3723.8 1371.78 3723.88 1371.39C3723.98 1371.01 3724.03 1370.57 3724.03 1370.06V1369.66C3724.03 1368.9 3723.94 1368.27 3723.76 1367.79C3723.58 1367.3 3723.31 1366.94 3722.94 1366.7C3722.57 1366.47 3722.08 1366.35 3721.47 1366.35ZM3733.54 1371.66C3733.54 1372.21 3733.4 1372.67 3733.12 1373.04C3732.85 1373.4 3732.46 1373.68 3731.95 1373.87C3731.45 1374.06 3730.85 1374.16 3730.14 1374.16C3729.55 1374.16 3729.03 1374.11 3728.59 1374.02C3728.16 1373.92 3727.77 1373.79 3727.44 1373.62V1372.46C3727.79 1372.63 3728.21 1372.79 3728.69 1372.93C3729.18 1373.07 3729.68 1373.14 3730.18 1373.14C3730.92 1373.14 3731.46 1373.01 3731.79 1372.77C3732.13 1372.52 3732.3 1372.19 3732.3 1371.78C3732.3 1371.53 3732.24 1371.32 3732.1 1371.14C3731.97 1370.95 3731.74 1370.78 3731.42 1370.61C3731.12 1370.44 3730.68 1370.25 3730.13 1370.05C3729.58 1369.85 3729.12 1369.64 3728.72 1369.44C3728.33 1369.24 3728.02 1368.99 3727.79 1368.69C3727.58 1368.39 3727.47 1368.01 3727.47 1367.54C3727.47 1366.81 3727.76 1366.26 3728.34 1365.87C3728.92 1365.48 3729.69 1365.28 3730.64 1365.28C3731.16 1365.28 3731.65 1365.33 3732.1 1365.44C3732.54 1365.54 3732.96 1365.67 3733.34 1365.84L3732.91 1366.86C3732.69 1366.76 3732.44 1366.67 3732.18 1366.59C3731.92 1366.51 3731.65 1366.44 3731.38 1366.4C3731.11 1366.35 3730.84 1366.32 3730.56 1366.32C3729.95 1366.32 3729.48 1366.42 3729.15 1366.62C3728.83 1366.83 3728.67 1367.1 3728.67 1367.46C3728.67 1367.72 3728.75 1367.95 3728.9 1368.13C3729.05 1368.3 3729.29 1368.46 3729.62 1368.61C3729.96 1368.76 3730.39 1368.93 3730.91 1369.14C3731.45 1369.33 3731.9 1369.53 3732.29 1369.74C3732.68 1369.95 3732.99 1370.2 3733.2 1370.51C3733.42 1370.81 3733.54 1371.19 3733.54 1371.66Z" fill="#535353" id="n1105"/>
</g>
</g>
</g>
</svg>
