<?xml version='1.0' encoding='utf-8'?>
<svg xmlns="http://www.w3.org/2000/svg" xmlns:xlink="http://www.w3.org/1999/xlink" width="384.0" height="384.0" viewBox="0 0 384.0 384.0" fill="none">
  <defs><clipPath id="clip__asset"><rect x="0" y="0" width="384.0" height="384.0"/></clipPath><mask id="mask150_68_6728" style="mask-type:alpha" maskUnits="userSpaceOnUse" x="3642" y="2179" width="512" height="512">
<path fill-rule="evenodd" clip-rule="evenodd" d="M3898 2271C3988.57 2271 4062 2344.43 4062 2435C4062 2525.57 3988.57 2599 3898 2599C3807.43 2599 3734 2525.57 3734 2435C3734 2344.43 3807.43 2271 3898 2271ZM3898 2319C3833.93 2319 3782 2370.93 3782 2435C3782 2499.07 3833.93 2551 3898 2551C3962.07 2551 4014 2499.07 4014 2435C4014 2370.93 3962.07 2319 3898 2319Z" fill="white" stroke="black" id="n1257"/>
</mask>
<mask id="mask151_68_6728" style="mask-type:luminance" maskUnits="userSpaceOnUse" x="3642" y="2179" width="512" height="512">
<path fill-rule="evenodd" clip-rule="evenodd" d="M3898 2247C4001.83 2247 4086 2331.17 4086 2435C4086 2538.83 4001.83 2623 3898 2623C3794.17 2623 3710 2538.83 3710 2435C3710 2331.17 3794.17 2247 3898 2247ZM3898 2271C3807.43 2271 3734 2344.43 3734 2435C3734 2525.57 3807.43 2599 3898 2599C3988.57 2599 4062 2525.57 4062 2435C4062 2344.43 3988.57 2271 3898 2271Z" fill="white" stroke="black" id="n1261"/>
</mask>
<mask id="mask152_68_6728" style="mask-type:alpha" maskUnits="userSpaceOnUse" x="3642" y="2179" width="512" height="512">
<path d="M3898 2243C4004.04 2243 4090 2328.96 4090 2435C4090 2541.04 4004.04 2627 3898 2627C3791.96 2627 3706 2541.04 3706 2435C3706 2328.96 3791.96 2243 3898 2243ZM3898 2267C3805.22 2267 3730 2342.22 3730 2435C3730 2527.78 3805.22 2603 3898 2603C3990.78 2603 4066 2527.78 4066 2435C4066 2342.22 3990.78 2267 3898 2267Z" fill="black" id="n1263"/>
</mask>
<mask id="mask153_68_6728" style="mask-type:alpha" maskUnits="userSpaceOnUse" x="3642" y="2179" width="512" height="512">
<path d="M3898 2243C4004.04 2243 4090 2328.96 4090 2435C4090 2541.04 4004.04 2627 3898 2627C3791.96 2627 3706 2541.04 3706 2435C3706 2328.96 3791.96 2243 3898 2243ZM3898 2271C3807.43 2271 3734 2344.43 3734 2435C3734 2525.57 3807.43 2599 3898 2599C3988.57 2599 4062 2525.57 4062 2435C4062 2344.43 3988.57 2271 3898 2271Z" fill="black" id="n1266"/>
</mask>
<mask id="path-874-outside-29_68_6728" maskUnits="userSpaceOnUse" x="3992.06" y="2338.91" width="54.3731" height="52.1769" fill="black">
<rect fill="white" x="3992.06" y="2338.91" width="54.3731" height="52.1769" id="n1270"/>
<path d="M4035.56 2354.5C4036.45 2354.38 4037.04 2355.41 4036.49 2356.12L4012.2 2387.37C4011.03 2388.87 4008.62 2387.98 4008.65 2386.05L4008.85 2371L3995.72 2363.65C3994.03 2362.72 3994.47 2360.18 3996.35 2359.92L4035.56 2354.5ZM4002.89 2363.05L4012.89 2368.67L4012.75 2380.14L4028.82 2359.47L4002.89 2363.05Z" id="n1271"/>
</mask>
<clipPath id="clip63_68_6728">
<rect width="26" height="16" fill="white" transform="translate(3873 2409)" id="n2842"/>
</clipPath>
<clipPath id="clip64_68_6728">
<rect width="24" height="16" fill="white" transform="translate(3903 2409)" id="n2843"/>
</clipPath>
<clipPath id="clip65_68_6728">
<rect width="25" height="16" fill="white" transform="translate(3874 2481)" id="n2844"/>
</clipPath>
<clipPath id="clip66_68_6728">
<rect width="24" height="16" fill="white" transform="translate(3903 2481)" id="n2845"/>
</clipPath>
</defs>
  <g clip-path="url(#clip__asset)" transform="translate(-3706.0 -2243.0)"><path fill-rule="evenodd" clip-rule="evenodd" d="M3898 2247C4001.83 2247 4086 2331.17 4086 2435C4086 2538.83 4001.83 2623 3898 2623C3794.17 2623 3710 2538.83 3710 2435C3710 2331.17 3794.17 2247 3898 2247ZM3898 2271C3807.43 2271 3734 2344.43 3734 2435C3734 2525.57 3807.43 2599 3898 2599C3988.57 2599 4062 2525.57 4062 2435C4062 2344.43 3988.57 2271 3898 2271Z" fill="white" stroke="white" id="n1254"/>
<path fill-rule="evenodd" clip-rule="evenodd" d="M3898 2271C3988.57 2271 4062 2344.43 4062 2435C4062 2525.57 3988.57 2599 3898 2599C3807.43 2599 3734 2525.57 3734 2435C3734 2344.43 3807.43 2271 3898 2271ZM3898 2319C3833.93 2319 3782 2370.93 3782 2435C3782 2499.07 3833.93 2551 3898 2551C3962.07 2551 4014 2499.07 4014 2435C4014 2370.93 3962.07 2319 3898 2319Z" fill="#F0F0F0" stroke="#F0F0F0" id="n1255"/>
<path fill-rule="evenodd" clip-rule="evenodd" d="M3898 2247C4001.83 2247 4086 2331.17 4086 2435C4086 2538.83 4001.83 2623 3898 2623C3794.17 2623 3710 2538.83 3710 2435C3710 2331.17 3794.17 2247 3898 2247ZM3898 2319C3833.93 2319 3782 2370.93 3782 2435C3782 2499.07 3833.93 2551 3898 2551C3962.07 2551 4014 2499.07 4014 2435C4014 2370.93 3962.07 2319 3898 2319Z" stroke="#BEBEBE" id="n1256"/>
<g mask="url(#mask150_68_6728)" id="n1258">
<path d="M3642 2435H4154" stroke="#BEBEBE" stroke-linecap="square" id="n1259"/>
<path d="M3898 2179L3898 2691" stroke="#BEBEBE" stroke-linecap="square" id="n1260"/>
</g>
<g mask="url(#mask151_68_6728)" id="n1262">
<mask id="mask152_68_6728" style="mask-type:alpha" maskUnits="userSpaceOnUse" x="3642" y="2179" width="512" height="512">
<path d="M3898 2243C4004.04 2243 4090 2328.96 4090 2435C4090 2541.04 4004.04 2627 3898 2627C3791.96 2627 3706 2541.04 3706 2435C3706 2328.96 3791.96 2243 3898 2243ZM3898 2267C3805.22 2267 3730 2342.22 3730 2435C3730 2527.78 3805.22 2603 3898 2603C3990.78 2603 4066 2527.78 4066 2435C4066 2342.22 3990.78 2267 3898 2267Z" fill="black" id="n1263"/>
</mask>
<g mask="url(#mask152_68_6728)" id="n1264">
<path d="M3898 2235V2435M3898 2435L3756.58 2293.58M3898 2435H3698M3898 2435L3756.58 2576.42M3898 2435V2635M3898 2435L4039.42 2576.42M3898 2435H4098M3898 2435L4039.42 2293.58" stroke="#BEBEBE" id="n1265"/>
</g>
<mask id="mask153_68_6728" style="mask-type:alpha" maskUnits="userSpaceOnUse" x="3642" y="2179" width="512" height="512">
<path d="M3898 2243C4004.04 2243 4090 2328.96 4090 2435C4090 2541.04 4004.04 2627 3898 2627C3791.96 2627 3706 2541.04 3706 2435C3706 2328.96 3791.96 2243 3898 2243ZM3898 2271C3807.43 2271 3734 2344.43 3734 2435C3734 2525.57 3807.43 2599 3898 2599C3988.57 2599 4062 2525.57 4062 2435C4062 2344.43 3988.57 2271 3898 2271Z" fill="black" id="n1266"/>
</mask>
<g mask="url(#mask153_68_6728)" id="n1267">
<path d="M3898 2235V2435M3898 2435H3698M3898 2435V2635M3898 2435H4098" stroke="#BEBEBE" id="n1268"/>
</g>
</g>
<path d="M3896.37 2250.28C3897.17 2249.16 3898.83 2249.16 3899.62 2250.28L3915.05 2271.88C3909.45 2271.3 3903.76 2271 3898 2271C3892.24 2271 3886.55 2271.3 3880.94 2271.88L3896.37 2250.28Z" fill="#BEBEBE" id="n1269"/>
<path d="M4035.56 2354.5C4036.45 2354.38 4037.04 2355.41 4036.49 2356.12L4012.2 2387.37C4011.03 2388.87 4008.62 2387.98 4008.65 2386.05L4008.85 2371L3995.72 2363.65C3994.03 2362.72 3994.47 2360.18 3996.35 2359.92L4035.56 2354.5ZM4002.89 2363.05L4012.89 2368.67L4012.75 2380.14L4028.82 2359.47L4002.89 2363.05Z" fill="#535353" id="n1272"/>
<path d="M4035.56 2354.5L4035.42 2353.51L4035.42 2353.51L4035.56 2354.5ZM4036.49 2356.12L4037.28 2356.73L4037.28 2356.73L4036.49 2356.12ZM4012.2 2387.37L4011.41 2386.75L4011.41 2386.75L4012.2 2387.37ZM4008.65 2386.05L4009.65 2386.07L4009.65 2386.07L4008.65 2386.05ZM4008.85 2371L4009.85 2371.01L4009.86 2370.42L4009.34 2370.13L4008.85 2371ZM3995.72 2363.65L3996.2 2362.78L3996.2 2362.78L3995.72 2363.65ZM3996.35 2359.92L3996.49 2360.91L3996.49 2360.91L3996.35 2359.92ZM4002.89 2363.05L4002.75 2362.06L3999.8 2362.47L4002.4 2363.92L4002.89 2363.05ZM4012.89 2368.67L4013.89 2368.68L4013.9 2368.09L4013.38 2367.8L4012.89 2368.67ZM4012.75 2380.14L4011.75 2380.13L4011.72 2383.1L4013.54 2380.76L4012.75 2380.14ZM4028.82 2359.47L4029.61 2360.08L4031.12 2358.14L4028.68 2358.48L4028.82 2359.47ZM4035.56 2354.5L4035.7 2355.49C4035.7 2355.49 4035.7 2355.49 4035.7 2355.49C4035.7 2355.49 4035.7 2355.49 4035.7 2355.49C4035.7 2355.49 4035.69 2355.49 4035.69 2355.49C4035.69 2355.49 4035.69 2355.49 4035.69 2355.49C4035.69 2355.49 4035.7 2355.5 4035.7 2355.5C4035.7 2355.51 4035.7 2355.51 4035.7 2355.51C4035.7 2355.52 4035.7 2355.52 4035.7 2355.51C4035.7 2355.51 4035.7 2355.51 4035.71 2355.5C4035.71 2355.5 4035.71 2355.5 4035.71 2355.5C4035.71 2355.5 4035.71 2355.5 4035.7 2355.51L4036.49 2356.12L4037.28 2356.73C4038.38 2355.32 4037.2 2353.27 4035.42 2353.51L4035.56 2354.5ZM4036.49 2356.12L4035.7 2355.51L4011.41 2386.75L4012.2 2387.37L4012.99 2387.98L4037.28 2356.73L4036.49 2356.12ZM4012.2 2387.37L4011.41 2386.75C4010.87 2387.45 4009.63 2387.1 4009.65 2386.07L4008.65 2386.05L4007.65 2386.03C4007.6 2388.86 4011.19 2390.29 4012.99 2387.98L4012.2 2387.37ZM4008.65 2386.05L4009.65 2386.07L4009.85 2371.01L4008.85 2371L4007.85 2370.99L4007.65 2386.04L4008.65 2386.05ZM4008.85 2371L4009.34 2370.13L3996.2 2362.78L3995.72 2363.65L3995.23 2364.52L4008.36 2371.87L4008.85 2371ZM3995.72 2363.65L3996.2 2362.78C3995.3 2362.28 3995.62 2361.03 3996.49 2360.91L3996.35 2359.92L3996.22 2358.92C3993.31 2359.33 3992.76 2363.16 3995.23 2364.52L3995.72 2363.65ZM3996.35 2359.92L3996.49 2360.91L4035.7 2355.49L4035.56 2354.5L4035.42 2353.51L3996.22 2358.92L3996.35 2359.92ZM4002.89 2363.05L4002.4 2363.92L4012.4 2369.54L4012.89 2368.67L4013.38 2367.8L4003.37 2362.18L4002.89 2363.05ZM4012.89 2368.67L4011.89 2368.66L4011.75 2380.13L4012.75 2380.14L4013.75 2380.15L4013.89 2368.68L4012.89 2368.67ZM4012.75 2380.14L4013.54 2380.76L4029.61 2360.08L4028.82 2359.47L4028.03 2358.86L4011.96 2379.53L4012.75 2380.14ZM4028.82 2359.47L4028.68 2358.48L4002.75 2362.06L4002.89 2363.05L4003.02 2364.04L4028.96 2360.46L4028.82 2359.47Z" fill="#F7F7F7" mask="url(#path-874-outside-29_68_6728)" id="n1273"/>
<path d="M3976.57 2296.11C3977.63 2295.29 3979.18 2296.18 3978.99 2297.51L3973.58 2336.71C3973.25 2339.11 3970.06 2339.6 3968.91 2337.53L3968.91 2337.53L3961.71 2324.65L3946.96 2324.85C3944.58 2324.89 3943.42 2321.89 3945.33 2320.4L3976.57 2296.11Z" fill="#535353" stroke="#F7F7F7" id="n1274"/>
<path d="M3998.07 2281.11C3997.97 2282.11 3997.37 2283.12 3996.32 2283.64L3983.77 2289.76C3982.5 2290.38 3981 2289.51 3980.9 2288.1L3979.92 2274.17C3979.84 2273 3980.42 2271.98 3981.23 2271.39C3982.05 2270.8 3983.22 2270.58 3984.27 2271.19L3996.73 2278.38C3997.78 2278.99 3998.17 2280.11 3998.07 2281.11Z" fill="#535353" stroke="white" stroke-width="2" stroke-linejoin="round" id="n1275"/>
<path d="M3882.09 2403H3878.01V2387.56C3878.01 2387.04 3878.01 2386.53 3878.01 2386.03C3878.03 2385.51 3878.06 2385 3878.08 2384.5C3878.1 2383.98 3878.12 2383.5 3878.15 2383.04C3877.92 2383.29 3877.64 2383.58 3877.3 2383.89C3876.96 2384.19 3876.6 2384.49 3876.24 2384.81L3873.52 2386.99L3871.48 2384.4L3878.72 2378.72H3882.09V2403ZM3905.98 2403H3889.45V2399.94L3895.68 2393.65C3896.9 2392.4 3897.9 2391.34 3898.67 2390.45C3899.46 2389.55 3900.05 2388.7 3900.44 2387.9C3900.82 2387.11 3901.01 2386.24 3901.01 2385.29C3901.01 2384.15 3900.68 2383.3 3900.03 2382.74C3899.37 2382.15 3898.51 2381.85 3897.44 2381.85C3896.38 2381.85 3895.4 2382.07 3894.52 2382.5C3893.64 2382.91 3892.72 2383.48 3891.77 2384.23L3889.56 2381.55C3890.21 2380.98 3890.93 2380.46 3891.7 2379.98C3892.47 2379.51 3893.33 2379.12 3894.28 2378.83C3895.26 2378.53 3896.37 2378.38 3897.61 2378.38C3899.18 2378.38 3900.51 2378.67 3901.63 2379.23C3902.76 2379.78 3903.63 2380.54 3904.24 2381.51C3904.86 2382.49 3905.16 2383.62 3905.16 2384.91C3905.16 2385.89 3905 2386.81 3904.69 2387.67C3904.39 2388.53 3903.96 2389.37 3903.39 2390.18C3902.85 2390.98 3902.17 2391.8 3901.35 2392.66C3900.54 2393.5 3899.63 2394.4 3898.63 2395.35L3894.59 2399.26V2399.43H3905.98V2403ZM3923.98 2384.27C3923.98 2385.38 3923.77 2386.34 3923.34 2387.16C3922.91 2387.95 3922.3 2388.61 3921.53 2389.13C3920.76 2389.63 3919.87 2389.99 3918.85 2390.22V2390.32C3920.8 2390.55 3922.26 2391.15 3923.23 2392.12C3924.23 2393.1 3924.73 2394.39 3924.73 2396C3924.73 2397.4 3924.39 2398.66 3923.71 2399.77C3923.03 2400.88 3921.99 2401.75 3920.58 2402.39C3919.18 2403.02 3917.37 2403.34 3915.18 2403.34C3913.86 2403.34 3912.64 2403.23 3911.5 2403C3910.39 2402.8 3909.33 2402.47 3908.31 2402.01V2398.41C3909.35 2398.91 3910.45 2399.31 3911.61 2399.6C3912.76 2399.87 3913.86 2400.01 3914.9 2400.01C3916.9 2400.01 3918.32 2399.65 3919.15 2398.92C3919.99 2398.17 3920.41 2397.14 3920.41 2395.83C3920.41 2394.99 3920.2 2394.3 3919.77 2393.75C3919.34 2393.21 3918.66 2392.81 3917.73 2392.56C3916.8 2392.29 3915.6 2392.15 3914.12 2392.15H3912.05V2388.86H3914.16C3915.58 2388.86 3916.71 2388.7 3917.52 2388.38C3918.36 2388.04 3918.96 2387.58 3919.32 2386.99C3919.71 2386.4 3919.9 2385.72 3919.9 2384.95C3919.9 2383.95 3919.57 2383.17 3918.92 2382.6C3918.26 2382.03 3917.28 2381.75 3915.99 2381.75C3915.18 2381.75 3914.43 2381.84 3913.75 2382.02C3913.09 2382.2 3912.48 2382.44 3911.91 2382.74C3911.37 2383.03 3910.85 2383.34 3910.35 2383.65L3908.41 2380.83C3909.02 2380.38 3909.71 2379.97 3910.48 2379.61C3911.25 2379.22 3912.1 2378.93 3913.03 2378.72C3913.99 2378.5 3915.03 2378.38 3916.16 2378.38C3918.68 2378.38 3920.6 2378.92 3921.94 2379.98C3923.3 2381.05 3923.98 2382.48 3923.98 2384.27Z" fill="#535353" id="n1276"/>
<g clip-path="url(#clip63_68_6728)" id="n1277">
<path d="M3880.59 2421H3879.19V2417.32H3875.47V2421H3874.07V2412.79H3875.47V2416.12H3879.19V2412.79H3880.59V2421ZM3889.44 2416.81C3889.44 2417.73 3889.27 2418.51 3888.91 2419.13C3888.57 2419.75 3888.07 2420.22 3887.42 2420.53C3886.77 2420.84 3885.98 2421 3885.05 2421H3882.74V2412.79H3885.29C3886.14 2412.79 3886.88 2412.94 3887.49 2413.25C3888.11 2413.56 3888.59 2414.01 3888.93 2414.61C3889.27 2415.2 3889.44 2415.93 3889.44 2416.81ZM3887.97 2416.86C3887.97 2416.19 3887.87 2415.65 3887.66 2415.22C3887.45 2414.79 3887.15 2414.47 3886.74 2414.27C3886.34 2414.07 3885.85 2413.96 3885.27 2413.96H3884.14V2419.83H3885.07C3886.05 2419.83 3886.77 2419.58 3887.25 2419.08C3887.73 2418.58 3887.97 2417.84 3887.97 2416.86ZM3894.53 2416.52H3897.59V2420.67C3897.15 2420.81 3896.7 2420.92 3896.24 2421C3895.78 2421.08 3895.26 2421.12 3894.68 2421.12C3893.85 2421.12 3893.15 2420.95 3892.56 2420.62C3891.99 2420.29 3891.55 2419.81 3891.25 2419.18C3890.95 2418.55 3890.8 2417.78 3890.8 2416.88C3890.8 2416.03 3890.97 2415.28 3891.31 2414.65C3891.65 2414.02 3892.13 2413.54 3892.76 2413.19C3893.4 2412.85 3894.17 2412.67 3895.08 2412.67C3895.53 2412.67 3895.96 2412.72 3896.37 2412.81C3896.79 2412.9 3897.18 2413.02 3897.52 2413.17L3897.04 2414.33C3896.77 2414.2 3896.46 2414.09 3896.12 2414.01C3895.77 2413.92 3895.42 2413.87 3895.05 2413.87C3894.47 2413.87 3893.98 2413.99 3893.55 2414.24C3893.14 2414.48 3892.82 2414.84 3892.6 2415.3C3892.38 2415.75 3892.27 2416.29 3892.27 2416.91C3892.27 2417.5 3892.35 2418.02 3892.53 2418.48C3892.71 2418.93 3892.98 2419.29 3893.36 2419.55C3893.74 2419.8 3894.24 2419.93 3894.85 2419.93C3895.06 2419.93 3895.24 2419.92 3895.39 2419.91C3895.55 2419.89 3895.7 2419.87 3895.83 2419.85C3895.96 2419.82 3896.08 2419.79 3896.2 2419.77V2417.72H3894.53V2416.52Z" fill="#535353" id="n1278"/>
</g>
<g clip-path="url(#clip64_68_6728)" id="n1279">
<path d="M3910.62 2416.81C3910.62 2417.73 3910.46 2418.51 3910.12 2419.13C3909.78 2419.75 3909.29 2420.22 3908.66 2420.53C3908.02 2420.84 3907.25 2421 3906.34 2421H3904.13V2412.79H3906.58C3907.42 2412.79 3908.14 2412.94 3908.74 2413.25C3909.34 2413.56 3909.81 2414.01 3910.13 2414.61C3910.46 2415.2 3910.62 2415.93 3910.62 2416.81ZM3909.65 2416.85C3909.65 2416.11 3909.52 2415.5 3909.28 2415.02C3909.03 2414.54 3908.67 2414.18 3908.19 2413.94C3907.71 2413.7 3907.13 2413.58 3906.44 2413.58H3905.05V2420.21H3906.22C3907.36 2420.21 3908.22 2419.93 3908.78 2419.37C3909.36 2418.8 3909.65 2417.96 3909.65 2416.85ZM3917.01 2421H3912.45V2412.79H3917.01V2413.61H3913.37V2416.3H3916.8V2417.1H3913.37V2420.18H3917.01V2421ZM3922.31 2416.71H3925.2V2420.68C3924.76 2420.82 3924.32 2420.93 3923.86 2421C3923.42 2421.08 3922.92 2421.12 3922.36 2421.12C3921.51 2421.12 3920.79 2420.95 3920.2 2420.61C3919.61 2420.27 3919.17 2419.79 3918.86 2419.16C3918.56 2418.52 3918.4 2417.77 3918.4 2416.9C3918.4 2416.04 3918.57 2415.3 3918.91 2414.68C3919.25 2414.05 3919.73 2413.56 3920.36 2413.2C3920.99 2412.85 3921.76 2412.67 3922.65 2412.67C3923.1 2412.67 3923.53 2412.72 3923.93 2412.8C3924.35 2412.89 3924.73 2413 3925.08 2413.16L3924.73 2413.96C3924.42 2413.82 3924.08 2413.71 3923.72 2413.63C3923.35 2413.54 3922.98 2413.49 3922.6 2413.49C3921.93 2413.49 3921.35 2413.63 3920.86 2413.92C3920.38 2414.19 3920.01 2414.59 3919.75 2415.1C3919.49 2415.61 3919.37 2416.21 3919.37 2416.9C3919.37 2417.59 3919.48 2418.2 3919.7 2418.71C3919.93 2419.22 3920.28 2419.61 3920.75 2419.9C3921.22 2420.17 3921.83 2420.31 3922.57 2420.31C3922.82 2420.31 3923.04 2420.3 3923.24 2420.29C3923.44 2420.26 3923.63 2420.23 3923.8 2420.2C3923.96 2420.16 3924.12 2420.12 3924.27 2420.08V2417.54H3922.31V2416.71Z" fill="#535353" id="n1280"/>
</g>
<path d="M3798 2435H3998" stroke="#DDDDDD" id="n1281"/>
<path d="M3882.09 2475H3878.01V2459.56C3878.01 2459.04 3878.01 2458.53 3878.01 2458.03C3878.03 2457.51 3878.06 2457 3878.08 2456.5C3878.1 2455.98 3878.12 2455.5 3878.15 2455.04C3877.92 2455.29 3877.64 2455.58 3877.3 2455.89C3876.96 2456.19 3876.6 2456.49 3876.24 2456.81L3873.52 2458.99L3871.48 2456.4L3878.72 2450.72H3882.09V2475ZM3905.98 2475H3889.45V2471.94L3895.68 2465.65C3896.9 2464.4 3897.9 2463.34 3898.67 2462.45C3899.46 2461.55 3900.05 2460.7 3900.44 2459.9C3900.82 2459.11 3901.01 2458.24 3901.01 2457.29C3901.01 2456.15 3900.68 2455.3 3900.03 2454.74C3899.37 2454.15 3898.51 2453.85 3897.44 2453.85C3896.38 2453.85 3895.4 2454.07 3894.52 2454.5C3893.64 2454.91 3892.72 2455.48 3891.77 2456.23L3889.56 2453.55C3890.21 2452.98 3890.93 2452.46 3891.7 2451.98C3892.47 2451.51 3893.33 2451.12 3894.28 2450.83C3895.26 2450.53 3896.37 2450.38 3897.61 2450.38C3899.18 2450.38 3900.51 2450.67 3901.63 2451.23C3902.76 2451.78 3903.63 2452.54 3904.24 2453.51C3904.86 2454.49 3905.16 2455.62 3905.16 2456.91C3905.16 2457.89 3905 2458.81 3904.69 2459.67C3904.39 2460.53 3903.96 2461.37 3903.39 2462.18C3902.85 2462.98 3902.17 2463.8 3901.35 2464.66C3900.54 2465.5 3899.63 2466.4 3898.63 2467.35L3894.59 2471.26V2471.43H3905.98V2475ZM3923.98 2456.27C3923.98 2457.38 3923.77 2458.34 3923.34 2459.16C3922.91 2459.95 3922.3 2460.61 3921.53 2461.13C3920.76 2461.63 3919.87 2461.99 3918.85 2462.22V2462.32C3920.8 2462.55 3922.26 2463.15 3923.23 2464.12C3924.23 2465.1 3924.73 2466.39 3924.73 2468C3924.73 2469.4 3924.39 2470.66 3923.71 2471.77C3923.03 2472.88 3921.99 2473.75 3920.58 2474.39C3919.18 2475.02 3917.37 2475.34 3915.18 2475.34C3913.86 2475.34 3912.64 2475.23 3911.5 2475C3910.39 2474.8 3909.33 2474.47 3908.31 2474.01V2470.41C3909.35 2470.91 3910.45 2471.31 3911.61 2471.6C3912.76 2471.87 3913.86 2472.01 3914.9 2472.01C3916.9 2472.01 3918.32 2471.65 3919.15 2470.92C3919.99 2470.17 3920.41 2469.14 3920.41 2467.83C3920.41 2466.99 3920.2 2466.3 3919.77 2465.75C3919.34 2465.21 3918.66 2464.81 3917.73 2464.56C3916.8 2464.29 3915.6 2464.15 3914.12 2464.15H3912.05V2460.86H3914.16C3915.58 2460.86 3916.71 2460.7 3917.52 2460.38C3918.36 2460.04 3918.96 2459.58 3919.32 2458.99C3919.71 2458.4 3919.9 2457.72 3919.9 2456.95C3919.9 2455.95 3919.57 2455.17 3918.92 2454.6C3918.26 2454.03 3917.28 2453.75 3915.99 2453.75C3915.18 2453.75 3914.43 2453.84 3913.75 2454.02C3913.09 2454.2 3912.48 2454.44 3911.91 2454.74C3911.37 2455.03 3910.85 2455.34 3910.35 2455.65L3908.41 2452.83C3909.02 2452.38 3909.71 2451.97 3910.48 2451.61C3911.25 2451.22 3912.1 2450.93 3913.03 2450.72C3913.99 2450.5 3915.03 2450.38 3916.16 2450.38C3918.68 2450.38 3920.6 2450.92 3921.94 2451.98C3923.3 2453.05 3923.98 2454.48 3923.98 2456.27Z" fill="#535353" id="n1282"/>
<g clip-path="url(#clip65_68_6728)" id="n1283">
<path d="M3878.58 2485.87C3878.19 2485.87 3877.85 2485.94 3877.54 2486.08C3877.24 2486.22 3876.99 2486.42 3876.78 2486.69C3876.58 2486.95 3876.42 2487.27 3876.3 2487.64C3876.19 2488.02 3876.14 2488.44 3876.14 2488.91C3876.14 2489.54 3876.23 2490.08 3876.4 2490.53C3876.58 2490.98 3876.85 2491.33 3877.21 2491.56C3877.57 2491.8 3878.02 2491.92 3878.57 2491.92C3878.92 2491.92 3879.26 2491.89 3879.58 2491.82C3879.91 2491.75 3880.25 2491.66 3880.6 2491.54V2492.74C3880.26 2492.87 3879.93 2492.96 3879.59 2493.02C3879.25 2493.09 3878.86 2493.12 3878.42 2493.12C3877.57 2493.12 3876.88 2492.94 3876.32 2492.6C3875.77 2492.25 3875.36 2491.76 3875.08 2491.13C3874.81 2490.49 3874.68 2489.75 3874.68 2488.9C3874.68 2488.27 3874.76 2487.71 3874.93 2487.19C3875.11 2486.68 3875.36 2486.24 3875.69 2485.86C3876.02 2485.48 3876.43 2485.19 3876.91 2484.99C3877.39 2484.78 3877.95 2484.67 3878.58 2484.67C3878.99 2484.67 3879.4 2484.72 3879.8 2484.82C3880.2 2484.92 3880.58 2485.04 3880.92 2485.2L3880.43 2486.37C3880.14 2486.24 3879.85 2486.12 3879.53 2486.02C3879.22 2485.92 3878.91 2485.87 3878.58 2485.87ZM3889.46 2488.88C3889.46 2489.52 3889.38 2490.1 3889.22 2490.62C3889.06 2491.13 3888.83 2491.58 3888.5 2491.95C3888.19 2492.33 3887.79 2492.62 3887.31 2492.82C3886.83 2493.02 3886.26 2493.12 3885.62 2493.12C3884.96 2493.12 3884.38 2493.02 3883.89 2492.82C3883.41 2492.61 3883.01 2492.32 3882.7 2491.95C3882.38 2491.58 3882.14 2491.13 3881.98 2490.61C3881.83 2490.09 3881.75 2489.51 3881.75 2488.87C3881.75 2488.02 3881.89 2487.28 3882.17 2486.65C3882.45 2486.02 3882.88 2485.54 3883.44 2485.19C3884.02 2484.84 3884.75 2484.66 3885.63 2484.66C3886.48 2484.66 3887.19 2484.84 3887.76 2485.19C3888.32 2485.54 3888.75 2486.03 3889.03 2486.66C3889.32 2487.29 3889.46 2488.03 3889.46 2488.88ZM3883.24 2488.88C3883.24 2489.51 3883.32 2490.06 3883.49 2490.52C3883.66 2490.97 3883.92 2491.32 3884.27 2491.56C3884.62 2491.8 3885.07 2491.92 3885.62 2491.92C3886.17 2491.92 3886.62 2491.8 3886.96 2491.56C3887.32 2491.32 3887.57 2490.97 3887.73 2490.52C3887.9 2490.06 3887.99 2489.51 3887.99 2488.88C3887.99 2487.94 3887.8 2487.2 3887.42 2486.66C3887.06 2486.13 3886.46 2485.86 3885.63 2485.86C3885.08 2485.86 3884.62 2485.98 3884.27 2486.23C3883.92 2486.47 3883.66 2486.81 3883.49 2487.26C3883.32 2487.71 3883.24 2488.26 3883.24 2488.88ZM3894.55 2488.52H3897.61V2492.67C3897.18 2492.81 3896.73 2492.92 3896.27 2493C3895.81 2493.08 3895.29 2493.12 3894.7 2493.12C3893.88 2493.12 3893.17 2492.95 3892.59 2492.62C3892.01 2492.29 3891.58 2491.81 3891.28 2491.18C3890.98 2490.55 3890.83 2489.78 3890.83 2488.88C3890.83 2488.03 3891 2487.28 3891.33 2486.65C3891.67 2486.02 3892.15 2485.54 3892.78 2485.19C3893.42 2484.85 3894.19 2484.67 3895.11 2484.67C3895.55 2484.67 3895.98 2484.72 3896.39 2484.81C3896.82 2484.9 3897.2 2485.02 3897.54 2485.17L3897.06 2486.33C3896.79 2486.2 3896.49 2486.09 3896.14 2486.01C3895.8 2485.92 3895.44 2485.87 3895.07 2485.87C3894.5 2485.87 3894 2485.99 3893.58 2486.24C3893.16 2486.48 3892.84 2486.84 3892.62 2487.3C3892.4 2487.75 3892.29 2488.29 3892.29 2488.91C3892.29 2489.5 3892.38 2490.02 3892.55 2490.48C3892.73 2490.93 3893.01 2491.29 3893.38 2491.55C3893.76 2491.8 3894.26 2491.93 3894.88 2491.93C3895.08 2491.93 3895.26 2491.92 3895.42 2491.91C3895.58 2491.89 3895.72 2491.87 3895.85 2491.85C3895.98 2491.82 3896.11 2491.79 3896.22 2491.77V2489.72H3894.55V2488.52Z" fill="#535353" id="n1284"/>
</g>
<g clip-path="url(#clip66_68_6728)" id="n1285">
<path d="M3910.62 2488.81C3910.62 2489.73 3910.46 2490.51 3910.12 2491.13C3909.78 2491.75 3909.29 2492.22 3908.66 2492.53C3908.02 2492.84 3907.25 2493 3906.34 2493H3904.13V2484.79H3906.58C3907.42 2484.79 3908.14 2484.94 3908.74 2485.25C3909.34 2485.56 3909.81 2486.01 3910.13 2486.61C3910.46 2487.2 3910.62 2487.93 3910.62 2488.81ZM3909.65 2488.85C3909.65 2488.11 3909.52 2487.5 3909.28 2487.02C3909.03 2486.54 3908.67 2486.18 3908.19 2485.94C3907.71 2485.7 3907.13 2485.58 3906.44 2485.58H3905.05V2492.21H3906.22C3907.36 2492.21 3908.22 2491.93 3908.78 2491.37C3909.36 2490.8 3909.65 2489.96 3909.65 2488.85ZM3917.01 2493H3912.45V2484.79H3917.01V2485.61H3913.37V2488.3H3916.8V2489.1H3913.37V2492.18H3917.01V2493ZM3922.31 2488.71H3925.2V2492.68C3924.76 2492.82 3924.32 2492.93 3923.86 2493C3923.42 2493.08 3922.92 2493.12 3922.36 2493.12C3921.51 2493.12 3920.79 2492.95 3920.2 2492.61C3919.61 2492.27 3919.17 2491.79 3918.86 2491.16C3918.56 2490.52 3918.4 2489.77 3918.4 2488.9C3918.4 2488.04 3918.57 2487.3 3918.91 2486.68C3919.25 2486.05 3919.73 2485.56 3920.36 2485.2C3920.99 2484.85 3921.76 2484.67 3922.65 2484.67C3923.1 2484.67 3923.53 2484.72 3923.93 2484.8C3924.35 2484.89 3924.73 2485 3925.08 2485.16L3924.73 2485.96C3924.42 2485.82 3924.08 2485.71 3923.72 2485.63C3923.35 2485.54 3922.98 2485.49 3922.6 2485.49C3921.93 2485.49 3921.35 2485.63 3920.86 2485.92C3920.38 2486.19 3920.01 2486.59 3919.75 2487.1C3919.49 2487.61 3919.37 2488.21 3919.37 2488.9C3919.37 2489.59 3919.48 2490.2 3919.7 2490.71C3919.93 2491.22 3920.28 2491.61 3920.75 2491.9C3921.22 2492.17 3921.83 2492.31 3922.57 2492.31C3922.82 2492.31 3923.04 2492.3 3923.24 2492.29C3923.44 2492.26 3923.63 2492.23 3923.8 2492.2C3923.96 2492.16 3924.12 2492.12 3924.27 2492.08V2489.54H3922.31V2488.71Z" fill="#535353" id="n1286"/>
</g>
</g>
</svg>
