<?xml version='1.0' encoding='utf-8'?>
<svg xmlns="http://www.w3.org/2000/svg" xmlns:xlink="http://www.w3.org/1999/xlink" width="848.0" height="560.0" viewBox="0 0 848.0 560.0" fill="none">
  <defs><clipPath id="clip__asset"><rect x="0" y="0" width="848.0" height="560.0"/></clipPath><clipPath id="clip81_68_6728">
<rect width="96" height="96" fill="white" transform="translate(13500 771)" id="n2860"/>
</clipPath>
<clipPath id="clip82_68_6728">
<rect width="96" height="96" fill="white" transform="translate(13644 771)" id="n2861"/>
</clipPath>
<clipPath id="clip83_68_6728">
<rect width="96" height="96" fill="white" transform="translate(13788 771)" id="n2862"/>
</clipPath>
<clipPath id="clip84_68_6728">
<rect width="96" height="96" fill="white" transform="translate(13932 771)" id="n2863"/>
</clipPath>
<clipPath id="clip85_68_6728">
<rect width="96" height="96" fill="white" transform="translate(14076 771)" id="n2864"/>
</clipPath>
<clipPath id="clip86_68_6728">
<rect width="96" height="96" fill="white" transform="translate(14220 771)" id="n2865"/>
</clipPath>
<clipPath id="clip87_68_6728">
<rect width="96" height="96" fill="white" transform="translate(13500 915)" id="n2866"/>
</clipPath>
<clipPath id="clip88_68_6728">
<rect width="96" height="96" fill="white" transform="translate(13644 915)" id="n2867"/>
</clipPath>
<clipPath id="clip89_68_6728">
<rect width="96" height="96" fill="white" transform="translate(13788 915)" id="n2868"/>
</clipPath>
<clipPath id="clip90_68_6728">
<rect width="96" height="96" fill="white" transform="translate(13932 915)" id="n2869"/>
</clipPath>
<clipPath id="clip91_68_6728">
<rect width="96" height="96" fill="white" transform="translate(14076 915)" id="n2870"/>
</clipPath>
<clipPath id="clip92_68_6728">
<rect width="96" height="96" fill="white" transform="translate(14220 915)" id="n2871"/>
</clipPath>
<clipPath id="clip93_68_6728">
<rect width="96" height="96" fill="white" transform="translate(13500 1059)" id="n2872"/>
</clipPath>
<clipPath id="clip94_68_6728">
<rect width="96" height="96" fill="white" transform="translate(13644 1059)" id="n2873"/>
</clipPath>
<clipPath id="clip95_68_6728">
<rect width="96" height="96" fill="white" transform="translate(13788 1059)" id="n2874"/>
</clipPath>
<clipPath id="clip96_68_6728">
<rect width="96" height="96" fill="white" transform="translate(13932 1059)" id="n2875"/>
</clipPath>
<clipPath id="clip97_68_6728">
<rect width="96" height="96" fill="white" transform="translate(14076 1059)" id="n2876"/>
</clipPath>
<clipPath id="clip98_68_6728">
<rect width="96" height="96" fill="white" transform="translate(14220 1059)" id="n2877"/>
</clipPath>
<clipPath id="clip99_68_6728">
<rect width="96" height="96" fill="white" transform="translate(13500 1203)" id="n2878"/>
</clipPath>
<clipPath id="clip100_68_6728">
<rect width="96" height="96" fill="white" transform="translate(13644 1203)" id="n2879"/>
</clipPath>
<clipPath id="clip101_68_6728">
<rect width="96" height="96" fill="white" transform="translate(13788 1203)" id="n2880"/>
</clipPath>
<clipPath id="clip102_68_6728">
<rect width="96" height="96" fill="white" transform="translate(13932 1203)" id="n2881"/>
</clipPath>
<clipPath id="clip103_68_6728">
<rect width="96" height="96" fill="white" transform="translate(14076 1203)" id="n2882"/>
</clipPath>
<clipPath id="clip104_68_6728">
<rect width="96" height="96" fill="white" transform="translate(14220 1203)" id="n2883"/>
</clipPath>
</defs>
  <g clip-path="url(#clip__asset)" transform="translate(-13484.0 -755.0)"><path d="M14323 755V755.5H14328C14329.9 755.5 14331.5 757.067 14331.5 759V763.974H14332V768.946H14331.5V778.892H14332V783.865H14331.5V793.811H14332V798.784H14331.5V808.729H14332V813.703H14331.5V823.648H14332V828.622H14331.5V838.567H14332V843.541H14331.5V853.486H14332V858.46H14331.5V868.405H14332V873.379H14331.5V883.324H14332V888.298H14331.5V898.243H14332V903.216H14331.5V913.162H14332V918.135H14331.5V928.081H14332V933.054H14331.5V943H14332V947.973H14331.5V957.919H14332V962.892H14331.5V972.838H14332V977.811H14331.5V987.757H14332V992.729H14331.5V1002.68H14332V1007.65H14331.5V1017.59H14332V1022.57H14331.5V1032.51H14332V1037.49H14331.5V1047.43H14332V1052.41H14331.5V1062.35H14332V1067.32H14331.5V1077.27H14332V1082.24H14331.5V1092.19H14332V1097.16H14331.5V1107.11H14332V1112.08H14331.5V1122.03H14332V1127H14331.5V1136.95H14332V1141.92H14331.5V1151.87H14332V1156.84H14331.5V1166.78H14332V1171.76H14331.5V1181.7H14332V1186.68H14331.5V1196.62H14332V1201.59H14331.5V1211.54H14332V1216.51H14331.5V1226.46H14332V1231.43H14331.5V1241.38H14332V1246.35H14331.5V1256.3H14332V1261.27H14331.5V1271.22H14332V1276.19H14331.5V1286.13H14332V1291.11H14331.5V1301.05H14332V1306.03H14331.5V1311C14331.5 1312.93 14329.9 1314.5 14328 1314.5H14323V1315H14318V1314.5H14308V1315H14303V1314.5H14293V1315H14288V1314.5H14278V1315H14273V1314.5H14263V1315H14258V1314.5H14248V1315H14243V1314.5H14233V1315H14228V1314.5H14218V1315H14213V1314.5H14203V1315H14198V1314.5H14188V1315H14183V1314.5H14173V1315H14168V1314.5H14158V1315H14153V1314.5H14143V1315H14138V1314.5H14128V1315H14123V1314.5H14113V1315H14108V1314.5H14098V1315H14093V1314.5H14083V1315H14078V1314.5H14068V1315H14063V1314.5H14053V1315H14048V1314.5H14038V1315H14033V1314.5H14023V1315H14018V1314.5H14008V1315H14003V1314.5H13993V1315H13988V1314.5H13978V1315H13973V1314.5H13963V1315H13958V1314.5H13948V1315H13943V1314.5H13933V1315H13928V1314.5H13918V1315H13913V1314.5H13903V1315H13898V1314.5H13888V1315H13883V1314.5H13873V1315H13868V1314.5H13858V1315H13853V1314.5H13843V1315H13838V1314.5H13828V1315H13823V1314.5H13813V1315H13808V1314.5H13798V1315H13793V1314.5H13783V1315H13778V1314.5H13768V1315H13763V1314.5H13753V1315H13748V1314.5H13738V1315H13733V1314.5H13723V1315H13718V1314.5H13708V1315H13703V1314.5H13693V1315H13688V1314.5H13678V1315H13673V1314.5H13663V1315H13658V1314.5H13648V1315H13643V1314.5H13633V1315H13628V1314.5H13618V1315H13613V1314.5H13603V1315H13598V1314.5H13588V1315H13583V1314.5H13573V1315H13568V1314.5H13558V1315H13553V1314.5H13543V1315H13538V1314.5H13528V1315H13523V1314.5H13513V1315H13508V1314.5H13498V1315H13493V1314.5H13488C13486.1 1314.5 13484.5 1312.93 13484.5 1311V1306.03H13484V1301.05H13484.5V1291.11H13484V1286.13H13484.5V1276.19H13484V1271.22H13484.5V1261.27H13484V1256.3H13484.5V1246.35H13484V1241.38H13484.5V1231.43H13484V1226.46H13484.5V1216.51H13484V1211.54H13484.5V1201.59H13484V1196.62H13484.5V1186.68H13484V1181.7H13484.5V1171.76H13484V1166.78H13484.5V1156.84H13484V1151.87H13484.5V1141.92H13484V1136.95H13484.5V1127H13484V1122.03H13484.5V1112.08H13484V1107.11H13484.5V1097.16H13484V1092.19H13484.5V1082.24H13484V1077.27H13484.5V1067.32H13484V1062.35H13484.5V1052.41H13484V1047.43H13484.5V1037.49H13484V1032.51H13484.5V1022.57H13484V1017.59H13484.5V1007.65H13484V1002.68H13484.5V992.729H13484V987.757H13484.5V977.811H13484V972.838H13484.5V962.892H13484V957.919H13484.5V947.973H13484V943H13484.5V933.054H13484V928.081H13484.5V918.135H13484V913.162H13484.5V903.216H13484V898.243H13484.5V888.297H13484V883.324H13484.5V873.378H13484V868.405H13484.5V858.459H13484V853.486H13484.5V843.541H13484V838.567H13484.5V828.622H13484V823.648H13484.5V813.703H13484V808.729H13484.5V798.784H13484V793.811H13484.5V783.865H13484V778.892H13484.5V768.946H13484V763.973H13484.5V759C13484.5 757.067 13486.1 755.5 13488 755.5H13493V755H13498V755.5H13508V755H13513V755.5H13523V755H13528V755.5H13538V755H13543V755.5H13553V755H13558V755.5H13568V755H13573V755.5H13583V755H13588V755.5H13598V755H13603V755.5H13613V755H13618V755.5H13628V755H13633V755.5H13643V755H13648V755.5H13658V755H13663V755.5H13673V755H13678V755.5H13688V755H13693V755.5H13703V755H13708V755.5H13718V755H13723V755.5H13733V755H13738V755.5H13748V755H13753V755.5H13763V755H13768V755.5H13778V755H13783V755.5H13793V755H13798V755.5H13808V755H13813V755.5H13823V755H13828V755.5H13838V755H13843V755.5H13853V755H13858V755.5H13868V755H13873V755.5H13883V755H13888V755.5H13898V755H13903V755.5H13913V755H13918V755.5H13928V755H13933V755.5H13943V755H13948V755.5H13958V755H13963V755.5H13973V755H13978V755.5H13988V755H13993V755.5H14003V755H14008V755.5H14018V755H14023V755.5H14033V755H14038V755.5H14048V755H14053V755.5H14063V755H14068V755.5H14078V755H14083V755.5H14093V755H14098V755.5H14108V755H14113V755.5H14123V755H14128V755.5H14138V755H14143V755.5H14153V755H14158V755.5H14168V755H14173V755.5H14183V755H14188V755.5H14198V755H14203V755.5H14213V755H14218V755.5H14228V755H14233V755.5H14243V755H14248V755.5H14258V755H14263V755.5H14273V755H14278V755.5H14288V755H14293V755.5H14303V755H14308V755.5H14318V755H14323Z" fill="#F7F7F7" id="n1767"/>
<g clip-path="url(#clip81_68_6728)" id="n1769">
<path d="M13576 795L13548 779L13520 795L13520 811L13548 795L13576 811L13576 795Z" fill="#F0F0F0" id="n1770"/>
<path d="M13576 819L13548 803L13520 819L13520 835L13548 819L13576 835L13576 819Z" fill="#F0F0F0" id="n1771"/>
<path d="M13548 827L13576 843L13576 859L13548 843L13520 859L13520 843L13548 827Z" fill="#F0F0F0" id="n1772"/>
<path d="M13576 795L13548 779L13520 795L13520 811L13548 795L13576 811L13576 795Z" stroke="#BEBEBE" stroke-linecap="square" id="n1773"/>
<path d="M13576 819L13548 803L13520 819L13520 835L13548 819L13576 835L13576 819Z" stroke="#BEBEBE" stroke-linecap="square" id="n1774"/>
<path d="M13548 827L13576 843L13576 859L13548 843L13520 859L13520 843L13548 827Z" stroke="#BEBEBE" stroke-linecap="square" id="n1775"/>
<path d="M13576 843L13548 827L13520 843L13520 859L13548 843L13576 859L13576 843Z" fill="#2D548B" id="n1776"/>
</g>
<g clip-path="url(#clip82_68_6728)" id="n1777">
<path d="M13720 795L13692 779L13664 795L13664 811L13692 795L13720 811L13720 795Z" fill="#F0F0F0" id="n1778"/>
<path d="M13720 819L13692 803L13664 819L13664 835L13692 819L13720 835L13720 819Z" fill="#F0F0F0" id="n1779"/>
<path d="M13692 827L13720 843L13720 859L13692 843L13664 859L13664 843L13692 827Z" fill="#F0F0F0" id="n1780"/>
<path d="M13720 795L13692 779L13664 795L13664 811L13692 795L13720 811L13720 795Z" stroke="#BEBEBE" stroke-linecap="square" id="n1781"/>
<path d="M13720 819L13692 803L13664 819L13664 835L13692 819L13720 835L13720 819Z" stroke="#BEBEBE" stroke-linecap="square" id="n1782"/>
<path d="M13692 827L13720 843L13720 859L13692 843L13664 859L13664 843L13692 827Z" stroke="#BEBEBE" stroke-linecap="square" id="n1783"/>
<path d="M13720 819L13692 803L13664 819L13664 835L13692 819L13720 835L13720 819Z" fill="#2D548B" id="n1784"/>
<path d="M13720 843L13692 827L13664 843L13664 859L13692 843L13720 859L13720 843Z" fill="#2D548B" id="n1785"/>
</g>
<g clip-path="url(#clip83_68_6728)" id="n1786">
<path d="M13864 795L13836 779L13808 795L13808 811L13836 795L13864 811L13864 795Z" fill="#F0F0F0" id="n1787"/>
<path d="M13864 819L13836 803L13808 819L13808 835L13836 819L13864 835L13864 819Z" fill="#F0F0F0" id="n1788"/>
<path d="M13836 827L13864 843L13864 859L13836 843L13808 859L13808 843L13836 827Z" fill="#F0F0F0" id="n1789"/>
<path d="M13864 795L13836 779L13808 795L13808 811L13836 795L13864 811L13864 795Z" stroke="#BEBEBE" stroke-linecap="square" id="n1790"/>
<path d="M13864 819L13836 803L13808 819L13808 835L13836 819L13864 835L13864 819Z" stroke="#BEBEBE" stroke-linecap="square" id="n1791"/>
<path d="M13836 827L13864 843L13864 859L13836 843L13808 859L13808 843L13836 827Z" stroke="#BEBEBE" stroke-linecap="square" id="n1792"/>
<path d="M13864 795L13836 779L13808 795L13808 811L13836 795L13864 811L13864 795Z" fill="#2D548B" id="n1793"/>
<path d="M13864 819L13836 803L13808 819L13808 835L13836 819L13864 835L13864 819Z" fill="#2D548B" id="n1794"/>
<path d="M13836 827L13864 843L13864 859L13836 843L13808 859L13808 843L13836 827Z" fill="#2D548B" id="n1795"/>
</g>
<g clip-path="url(#clip84_68_6728)" id="n1796">
<path d="M14008 795L13980 779L13952 795L13952 811L13980 795L14008 811L14008 795Z" fill="#F0F0F0" id="n1797"/>
<path d="M14008 819L13980 803L13952 819L13952 835L13980 819L14008 835L14008 819Z" fill="#F0F0F0" id="n1798"/>
<path d="M13980 827L14008 843L14008 859L13980 843L13952 859L13952 843L13980 827Z" fill="#F0F0F0" id="n1799"/>
<path d="M14008 795L13980 779L13952 795L13952 811L13980 795L14008 811L14008 795Z" stroke="#BEBEBE" stroke-linecap="square" id="n1800"/>
<path d="M14008 819L13980 803L13952 819L13952 835L13980 819L14008 835L14008 819Z" stroke="#BEBEBE" stroke-linecap="square" id="n1801"/>
<path d="M13980 827L14008 843L14008 859L13980 843L13952 859L13952 843L13980 827Z" stroke="#BEBEBE" stroke-linecap="square" id="n1802"/>
<path d="M14008 843L13980 827L13952 843L13952 859L13980 843L14008 859L14008 843Z" fill="#00805E" id="n1803"/>
</g>
<g clip-path="url(#clip85_68_6728)" id="n1804">
<path d="M14152 795L14124 779L14096 795L14096 811L14124 795L14152 811L14152 795Z" fill="#F0F0F0" id="n1805"/>
<path d="M14152 819L14124 803L14096 819L14096 835L14124 819L14152 835L14152 819Z" fill="#F0F0F0" id="n1806"/>
<path d="M14124 827L14152 843L14152 859L14124 843L14096 859L14096 843L14124 827Z" fill="#F0F0F0" id="n1807"/>
<path d="M14152 795L14124 779L14096 795L14096 811L14124 795L14152 811L14152 795Z" stroke="#BEBEBE" stroke-linecap="square" id="n1808"/>
<path d="M14152 819L14124 803L14096 819L14096 835L14124 819L14152 835L14152 819Z" stroke="#BEBEBE" stroke-linecap="square" id="n1809"/>
<path d="M14124 827L14152 843L14152 859L14124 843L14096 859L14096 843L14124 827Z" stroke="#BEBEBE" stroke-linecap="square" id="n1810"/>
<path d="M14152 819L14124 803L14096 819L14096 835L14124 819L14152 835L14152 819Z" fill="#00805E" id="n1811"/>
<path d="M14152 843L14124 827L14096 843L14096 859L14124 843L14152 859L14152 843Z" fill="#00805E" id="n1812"/>
</g>
<g clip-path="url(#clip86_68_6728)" id="n1813">
<path d="M14296 795L14268 779L14240 795L14240 811L14268 795L14296 811L14296 795Z" fill="#F0F0F0" id="n1814"/>
<path d="M14296 819L14268 803L14240 819L14240 835L14268 819L14296 835L14296 819Z" fill="#F0F0F0" id="n1815"/>
<path d="M14268 827L14296 843L14296 859L14268 843L14240 859L14240 843L14268 827Z" fill="#F0F0F0" id="n1816"/>
<path d="M14296 795L14268 779L14240 795L14240 811L14268 795L14296 811L14296 795Z" stroke="#BEBEBE" stroke-linecap="square" id="n1817"/>
<path d="M14296 819L14268 803L14240 819L14240 835L14268 819L14296 835L14296 819Z" stroke="#BEBEBE" stroke-linecap="square" id="n1818"/>
<path d="M14268 827L14296 843L14296 859L14268 843L14240 859L14240 843L14268 827Z" stroke="#BEBEBE" stroke-linecap="square" id="n1819"/>
<path d="M14296 795L14268 779L14240 795L14240 811L14268 795L14296 811L14296 795Z" fill="#00805E" id="n1820"/>
<path d="M14296 819L14268 803L14240 819L14240 835L14268 819L14296 835L14296 819Z" fill="#00805E" id="n1821"/>
<path d="M14268 827L14296 843L14296 859L14268 843L14240 859L14240 843L14268 827Z" fill="#00805E" id="n1822"/>
</g>
<g clip-path="url(#clip87_68_6728)" id="n1823">
<path d="M13520 987L13548 1003L13576 987L13576 971L13548 987L13520 971L13520 987Z" fill="#F0F0F0" id="n1824"/>
<path d="M13520 963L13548 979L13576 963L13576 947L13548 963L13520 947L13520 963Z" fill="#F0F0F0" id="n1825"/>
<path d="M13548 955L13520 939L13520 923L13548 939L13576 923L13576 939L13548 955Z" fill="#F0F0F0" id="n1826"/>
<path d="M13520 987L13548 1003L13576 987L13576 971L13548 987L13520 971L13520 987Z" stroke="#BEBEBE" stroke-linecap="square" id="n1827"/>
<path d="M13520 963L13548 979L13576 963L13576 947L13548 963L13520 947L13520 963Z" stroke="#BEBEBE" stroke-linecap="square" id="n1828"/>
<path d="M13548 955L13520 939L13520 923L13548 939L13576 923L13576 939L13548 955Z" stroke="#BEBEBE" stroke-linecap="square" id="n1829"/>
<path d="M13520 939L13548 955L13576 939L13576 923L13548 939L13520 923L13520 939Z" fill="#2D548B" id="n1830"/>
</g>
<g clip-path="url(#clip88_68_6728)" id="n1831">
<path d="M13664 987L13692 1003L13720 987L13720 971L13692 987L13664 971L13664 987Z" fill="#F0F0F0" id="n1832"/>
<path d="M13664 963L13692 979L13720 963L13720 947L13692 963L13664 947L13664 963Z" fill="#F0F0F0" id="n1833"/>
<path d="M13692 955L13664 939L13664 923L13692 939L13720 923L13720 939L13692 955Z" fill="#F0F0F0" id="n1834"/>
<path d="M13664 987L13692 1003L13720 987L13720 971L13692 987L13664 971L13664 987Z" stroke="#BEBEBE" stroke-linecap="square" id="n1835"/>
<path d="M13664 963L13692 979L13720 963L13720 947L13692 963L13664 947L13664 963Z" stroke="#BEBEBE" stroke-linecap="square" id="n1836"/>
<path d="M13692 955L13664 939L13664 923L13692 939L13720 923L13720 939L13692 955Z" stroke="#BEBEBE" stroke-linecap="square" id="n1837"/>
<path d="M13664 963L13692 979L13720 963L13720 947L13692 963L13664 947L13664 963Z" fill="#2D548B" id="n1838"/>
<path d="M13664 939L13692 955L13720 939L13720 923L13692 939L13664 923L13664 939Z" fill="#2D548B" id="n1839"/>
</g>
<g clip-path="url(#clip89_68_6728)" id="n1840">
<path d="M13808 987L13836 1003L13864 987L13864 971L13836 987L13808 971L13808 987Z" fill="#F0F0F0" id="n1841"/>
<path d="M13808 963L13836 979L13864 963L13864 947L13836 963L13808 947L13808 963Z" fill="#F0F0F0" id="n1842"/>
<path d="M13836 955L13808 939L13808 923L13836 939L13864 923L13864 939L13836 955Z" fill="#F0F0F0" id="n1843"/>
<path d="M13808 987L13836 1003L13864 987L13864 971L13836 987L13808 971L13808 987Z" stroke="#BEBEBE" stroke-linecap="square" id="n1844"/>
<path d="M13808 963L13836 979L13864 963L13864 947L13836 963L13808 947L13808 963Z" stroke="#BEBEBE" stroke-linecap="square" id="n1845"/>
<path d="M13836 955L13808 939L13808 923L13836 939L13864 923L13864 939L13836 955Z" stroke="#BEBEBE" stroke-linecap="square" id="n1846"/>
<path d="M13808 987L13836 1003L13864 987L13864 971L13836 987L13808 971L13808 987Z" fill="#2D548B" id="n1847"/>
<path d="M13808 963L13836 979L13864 963L13864 947L13836 963L13808 947L13808 963Z" fill="#2D548B" id="n1848"/>
<path d="M13836 955L13808 939L13808 923L13836 939L13864 923L13864 939L13836 955Z" fill="#2D548B" id="n1849"/>
</g>
<g clip-path="url(#clip90_68_6728)" id="n1850">
<path d="M13952 987L13980 1003L14008 987L14008 971L13980 987L13952 971L13952 987Z" fill="#F0F0F0" id="n1851"/>
<path d="M13952 963L13980 979L14008 963L14008 947L13980 963L13952 947L13952 963Z" fill="#F0F0F0" id="n1852"/>
<path d="M13980 955L13952 939L13952 923L13980 939L14008 923L14008 939L13980 955Z" fill="#F0F0F0" id="n1853"/>
<path d="M13952 987L13980 1003L14008 987L14008 971L13980 987L13952 971L13952 987Z" stroke="#BEBEBE" stroke-linecap="square" id="n1854"/>
<path d="M13952 963L13980 979L14008 963L14008 947L13980 963L13952 947L13952 963Z" stroke="#BEBEBE" stroke-linecap="square" id="n1855"/>
<path d="M13980 955L13952 939L13952 923L13980 939L14008 923L14008 939L13980 955Z" stroke="#BEBEBE" stroke-linecap="square" id="n1856"/>
<path d="M13952 939L13980 955L14008 939L14008 923L13980 939L13952 923L13952 939Z" fill="#AF5655" id="n1857"/>
</g>
<g clip-path="url(#clip91_68_6728)" id="n1858">
<path d="M14096 987L14124 1003L14152 987L14152 971L14124 987L14096 971L14096 987Z" fill="#F0F0F0" id="n1859"/>
<path d="M14096 963L14124 979L14152 963L14152 947L14124 963L14096 947L14096 963Z" fill="#F0F0F0" id="n1860"/>
<path d="M14124 955L14096 939L14096 923L14124 939L14152 923L14152 939L14124 955Z" fill="#F0F0F0" id="n1861"/>
<path d="M14096 987L14124 1003L14152 987L14152 971L14124 987L14096 971L14096 987Z" stroke="#BEBEBE" stroke-linecap="square" id="n1862"/>
<path d="M14096 963L14124 979L14152 963L14152 947L14124 963L14096 947L14096 963Z" stroke="#BEBEBE" stroke-linecap="square" id="n1863"/>
<path d="M14124 955L14096 939L14096 923L14124 939L14152 923L14152 939L14124 955Z" stroke="#BEBEBE" stroke-linecap="square" id="n1864"/>
<path d="M14096 963L14124 979L14152 963L14152 947L14124 963L14096 947L14096 963Z" fill="#AF5655" id="n1865"/>
<path d="M14096 939L14124 955L14152 939L14152 923L14124 939L14096 923L14096 939Z" fill="#AF5655" id="n1866"/>
</g>
<g clip-path="url(#clip92_68_6728)" id="n1867">
<path d="M14240 987L14268 1003L14296 987L14296 971L14268 987L14240 971L14240 987Z" fill="#F0F0F0" id="n1868"/>
<path d="M14240 963L14268 979L14296 963L14296 947L14268 963L14240 947L14240 963Z" fill="#F0F0F0" id="n1869"/>
<path d="M14268 955L14240 939L14240 923L14268 939L14296 923L14296 939L14268 955Z" fill="#F0F0F0" id="n1870"/>
<path d="M14240 987L14268 1003L14296 987L14296 971L14268 987L14240 971L14240 987Z" stroke="#BEBEBE" stroke-linecap="square" id="n1871"/>
<path d="M14240 963L14268 979L14296 963L14296 947L14268 963L14240 947L14240 963Z" stroke="#BEBEBE" stroke-linecap="square" id="n1872"/>
<path d="M14268 955L14240 939L14240 923L14268 939L14296 923L14296 939L14268 955Z" stroke="#BEBEBE" stroke-linecap="square" id="n1873"/>
<path d="M14240 987L14268 1003L14296 987L14296 971L14268 987L14240 971L14240 987Z" fill="#AF5655" id="n1874"/>
<path d="M14240 963L14268 979L14296 963L14296 947L14268 963L14240 947L14240 963Z" fill="#AF5655" id="n1875"/>
<path d="M14268 955L14240 939L14240 923L14268 939L14296 923L14296 939L14268 955Z" fill="#AF5655" id="n1876"/>
</g>
<g clip-path="url(#clip93_68_6728)" id="n1877">
<path d="M13572 1135L13588 1107L13572 1079L13556 1079L13572 1107L13556 1135L13572 1135Z" fill="#F0F0F0" id="n1878"/>
<path d="M13548 1135L13564 1107L13548 1079L13532 1079L13548 1107L13532 1135L13548 1135Z" fill="#F0F0F0" id="n1879"/>
<path d="M13540 1107L13524 1135L13508 1135L13524 1107L13508 1079L13524 1079L13540 1107Z" fill="#F0F0F0" id="n1880"/>
<path d="M13572 1135L13588 1107L13572 1079L13556 1079L13572 1107L13556 1135L13572 1135Z" stroke="#BEBEBE" stroke-linecap="square" id="n1881"/>
<path d="M13548 1135L13564 1107L13548 1079L13532 1079L13548 1107L13532 1135L13548 1135Z" stroke="#BEBEBE" stroke-linecap="square" id="n1882"/>
<path d="M13540 1107L13524 1135L13508 1135L13524 1107L13508 1079L13524 1079L13540 1107Z" stroke="#BEBEBE" stroke-linecap="square" id="n1883"/>
<path d="M13524 1135L13540 1107L13524 1079L13508 1079L13524 1107L13508 1135L13524 1135Z" fill="#2D548B" id="n1884"/>
</g>
<g clip-path="url(#clip94_68_6728)" id="n1885">
<path d="M13716 1135L13732 1107L13716 1079L13700 1079L13716 1107L13700 1135L13716 1135Z" fill="#F0F0F0" id="n1886"/>
<path d="M13692 1135L13708 1107L13692 1079L13676 1079L13692 1107L13676 1135L13692 1135Z" fill="#F0F0F0" id="n1887"/>
<path d="M13684 1107L13668 1135L13652 1135L13668 1107L13652 1079L13668 1079L13684 1107Z" fill="#F0F0F0" id="n1888"/>
<path d="M13716 1135L13732 1107L13716 1079L13700 1079L13716 1107L13700 1135L13716 1135Z" stroke="#BEBEBE" stroke-linecap="square" id="n1889"/>
<path d="M13692 1135L13708 1107L13692 1079L13676 1079L13692 1107L13676 1135L13692 1135Z" stroke="#BEBEBE" stroke-linecap="square" id="n1890"/>
<path d="M13684 1107L13668 1135L13652 1135L13668 1107L13652 1079L13668 1079L13684 1107Z" stroke="#BEBEBE" stroke-linecap="square" id="n1891"/>
<path d="M13692 1135L13708 1107L13692 1079L13676 1079L13692 1107L13676 1135L13692 1135Z" fill="#2D548B" id="n1892"/>
<path d="M13668 1135L13684 1107L13668 1079L13652 1079L13668 1107L13652 1135L13668 1135Z" fill="#2D548B" id="n1893"/>
</g>
<g clip-path="url(#clip95_68_6728)" id="n1894">
<path d="M13860 1135L13876 1107L13860 1079L13844 1079L13860 1107L13844 1135L13860 1135Z" fill="#F0F0F0" id="n1895"/>
<path d="M13836 1135L13852 1107L13836 1079L13820 1079L13836 1107L13820 1135L13836 1135Z" fill="#F0F0F0" id="n1896"/>
<path d="M13828 1107L13812 1135L13796 1135L13812 1107L13796 1079L13812 1079L13828 1107Z" fill="#F0F0F0" id="n1897"/>
<path d="M13860 1135L13876 1107L13860 1079L13844 1079L13860 1107L13844 1135L13860 1135Z" stroke="#BEBEBE" stroke-linecap="square" id="n1898"/>
<path d="M13836 1135L13852 1107L13836 1079L13820 1079L13836 1107L13820 1135L13836 1135Z" stroke="#BEBEBE" stroke-linecap="square" id="n1899"/>
<path d="M13828 1107L13812 1135L13796 1135L13812 1107L13796 1079L13812 1079L13828 1107Z" stroke="#BEBEBE" stroke-linecap="square" id="n1900"/>
<path d="M13860 1135L13876 1107L13860 1079L13844 1079L13860 1107L13844 1135L13860 1135Z" fill="#2D548B" id="n1901"/>
<path d="M13836 1135L13852 1107L13836 1079L13820 1079L13836 1107L13820 1135L13836 1135Z" fill="#2D548B" id="n1902"/>
<path d="M13828 1107L13812 1135L13796 1135L13812 1107L13796 1079L13812 1079L13828 1107Z" fill="#2D548B" id="n1903"/>
</g>
<g clip-path="url(#clip96_68_6728)" id="n1904">
<path d="M14004 1135L14020 1107L14004 1079L13988 1079L14004 1107L13988 1135L14004 1135Z" fill="#F0F0F0" id="n1905"/>
<path d="M13980 1135L13996 1107L13980 1079L13964 1079L13980 1107L13964 1135L13980 1135Z" fill="#F0F0F0" id="n1906"/>
<path d="M13972 1107L13956 1135L13940 1135L13956 1107L13940 1079L13956 1079L13972 1107Z" fill="#F0F0F0" id="n1907"/>
<path d="M14004 1135L14020 1107L14004 1079L13988 1079L14004 1107L13988 1135L14004 1135Z" stroke="#BEBEBE" stroke-linecap="square" id="n1908"/>
<path d="M13980 1135L13996 1107L13980 1079L13964 1079L13980 1107L13964 1135L13980 1135Z" stroke="#BEBEBE" stroke-linecap="square" id="n1909"/>
<path d="M13972 1107L13956 1135L13940 1135L13956 1107L13940 1079L13956 1079L13972 1107Z" stroke="#BEBEBE" stroke-linecap="square" id="n1910"/>
<path d="M13956 1135L13972 1107L13956 1079L13940 1079L13956 1107L13940 1135L13956 1135Z" fill="#00805E" id="n1911"/>
</g>
<g clip-path="url(#clip97_68_6728)" id="n1912">
<path d="M14148 1135L14164 1107L14148 1079L14132 1079L14148 1107L14132 1135L14148 1135Z" fill="#F0F0F0" id="n1913"/>
<path d="M14124 1135L14140 1107L14124 1079L14108 1079L14124 1107L14108 1135L14124 1135Z" fill="#F0F0F0" id="n1914"/>
<path d="M14116 1107L14100 1135L14084 1135L14100 1107L14084 1079L14100 1079L14116 1107Z" fill="#F0F0F0" id="n1915"/>
<path d="M14148 1135L14164 1107L14148 1079L14132 1079L14148 1107L14132 1135L14148 1135Z" stroke="#BEBEBE" stroke-linecap="square" id="n1916"/>
<path d="M14124 1135L14140 1107L14124 1079L14108 1079L14124 1107L14108 1135L14124 1135Z" stroke="#BEBEBE" stroke-linecap="square" id="n1917"/>
<path d="M14116 1107L14100 1135L14084 1135L14100 1107L14084 1079L14100 1079L14116 1107Z" stroke="#BEBEBE" stroke-linecap="square" id="n1918"/>
<path d="M14124 1135L14140 1107L14124 1079L14108 1079L14124 1107L14108 1135L14124 1135Z" fill="#00805E" id="n1919"/>
<path d="M14100 1135L14116 1107L14100 1079L14084 1079L14100 1107L14084 1135L14100 1135Z" fill="#00805E" id="n1920"/>
</g>
<g clip-path="url(#clip98_68_6728)" id="n1921">
<path d="M14292 1135L14308 1107L14292 1079L14276 1079L14292 1107L14276 1135L14292 1135Z" fill="#F0F0F0" id="n1922"/>
<path d="M14268 1135L14284 1107L14268 1079L14252 1079L14268 1107L14252 1135L14268 1135Z" fill="#F0F0F0" id="n1923"/>
<path d="M14260 1107L14244 1135L14228 1135L14244 1107L14228 1079L14244 1079L14260 1107Z" fill="#F0F0F0" id="n1924"/>
<path d="M14292 1135L14308 1107L14292 1079L14276 1079L14292 1107L14276 1135L14292 1135Z" stroke="#BEBEBE" stroke-linecap="square" id="n1925"/>
<path d="M14268 1135L14284 1107L14268 1079L14252 1079L14268 1107L14252 1135L14268 1135Z" stroke="#BEBEBE" stroke-linecap="square" id="n1926"/>
<path d="M14260 1107L14244 1135L14228 1135L14244 1107L14228 1079L14244 1079L14260 1107Z" stroke="#BEBEBE" stroke-linecap="square" id="n1927"/>
<path d="M14292 1135L14308 1107L14292 1079L14276 1079L14292 1107L14276 1135L14292 1135Z" fill="#00805E" id="n1928"/>
<path d="M14268 1135L14284 1107L14268 1079L14252 1079L14268 1107L14252 1135L14268 1135Z" fill="#00805E" id="n1929"/>
<path d="M14260 1107L14244 1135L14228 1135L14244 1107L14228 1079L14244 1079L14260 1107Z" fill="#00805E" id="n1930"/>
</g>
<g clip-path="url(#clip99_68_6728)" id="n1931">
<path d="M13524 1223L13508 1251L13524 1279L13540 1279L13524 1251L13540 1223L13524 1223Z" fill="#F0F0F0" id="n1932"/>
<path d="M13548 1223L13532 1251L13548 1279L13564 1279L13548 1251L13564 1223L13548 1223Z" fill="#F0F0F0" id="n1933"/>
<path d="M13556 1251L13572 1223L13588 1223L13572 1251L13588 1279L13572 1279L13556 1251Z" fill="#F0F0F0" id="n1934"/>
<path d="M13524 1223L13508 1251L13524 1279L13540 1279L13524 1251L13540 1223L13524 1223Z" stroke="#BEBEBE" stroke-linecap="square" id="n1935"/>
<path d="M13548 1223L13532 1251L13548 1279L13564 1279L13548 1251L13564 1223L13548 1223Z" stroke="#BEBEBE" stroke-linecap="square" id="n1936"/>
<path d="M13556 1251L13572 1223L13588 1223L13572 1251L13588 1279L13572 1279L13556 1251Z" stroke="#BEBEBE" stroke-linecap="square" id="n1937"/>
<path d="M13572 1223L13556 1251L13572 1279L13588 1279L13572 1251L13588 1223L13572 1223Z" fill="#2D548B" id="n1938"/>
</g>
<g clip-path="url(#clip100_68_6728)" id="n1939">
<path d="M13668 1223L13652 1251L13668 1279L13684 1279L13668 1251L13684 1223L13668 1223Z" fill="#F0F0F0" id="n1940"/>
<path d="M13692 1223L13676 1251L13692 1279L13708 1279L13692 1251L13708 1223L13692 1223Z" fill="#F0F0F0" id="n1941"/>
<path d="M13700 1251L13716 1223L13732 1223L13716 1251L13732 1279L13716 1279L13700 1251Z" fill="#F0F0F0" id="n1942"/>
<path d="M13668 1223L13652 1251L13668 1279L13684 1279L13668 1251L13684 1223L13668 1223Z" stroke="#BEBEBE" stroke-linecap="square" id="n1943"/>
<path d="M13692 1223L13676 1251L13692 1279L13708 1279L13692 1251L13708 1223L13692 1223Z" stroke="#BEBEBE" stroke-linecap="square" id="n1944"/>
<path d="M13700 1251L13716 1223L13732 1223L13716 1251L13732 1279L13716 1279L13700 1251Z" stroke="#BEBEBE" stroke-linecap="square" id="n1945"/>
<path d="M13692 1223L13676 1251L13692 1279L13708 1279L13692 1251L13708 1223L13692 1223Z" fill="#2D548B" id="n1946"/>
<path d="M13716 1223L13700 1251L13716 1279L13732 1279L13716 1251L13732 1223L13716 1223Z" fill="#2D548B" id="n1947"/>
</g>
<g clip-path="url(#clip101_68_6728)" id="n1948">
<path d="M13812 1223L13796 1251L13812 1279L13828 1279L13812 1251L13828 1223L13812 1223Z" fill="#F0F0F0" id="n1949"/>
<path d="M13836 1223L13820 1251L13836 1279L13852 1279L13836 1251L13852 1223L13836 1223Z" fill="#F0F0F0" id="n1950"/>
<path d="M13844 1251L13860 1223L13876 1223L13860 1251L13876 1279L13860 1279L13844 1251Z" fill="#F0F0F0" id="n1951"/>
<path d="M13812 1223L13796 1251L13812 1279L13828 1279L13812 1251L13828 1223L13812 1223Z" stroke="#BEBEBE" stroke-linecap="square" id="n1952"/>
<path d="M13836 1223L13820 1251L13836 1279L13852 1279L13836 1251L13852 1223L13836 1223Z" stroke="#BEBEBE" stroke-linecap="square" id="n1953"/>
<path d="M13844 1251L13860 1223L13876 1223L13860 1251L13876 1279L13860 1279L13844 1251Z" stroke="#BEBEBE" stroke-linecap="square" id="n1954"/>
<path d="M13812 1223L13796 1251L13812 1279L13828 1279L13812 1251L13828 1223L13812 1223Z" fill="#2D548B" id="n1955"/>
<path d="M13836 1223L13820 1251L13836 1279L13852 1279L13836 1251L13852 1223L13836 1223Z" fill="#2D548B" id="n1956"/>
<path d="M13844 1251L13860 1223L13876 1223L13860 1251L13876 1279L13860 1279L13844 1251Z" fill="#2D548B" id="n1957"/>
</g>
<g clip-path="url(#clip102_68_6728)" id="n1958">
<path d="M13956 1223L13940 1251L13956 1279L13972 1279L13956 1251L13972 1223L13956 1223Z" fill="#F0F0F0" id="n1959"/>
<path d="M13980 1223L13964 1251L13980 1279L13996 1279L13980 1251L13996 1223L13980 1223Z" fill="#F0F0F0" id="n1960"/>
<path d="M13988 1251L14004 1223L14020 1223L14004 1251L14020 1279L14004 1279L13988 1251Z" fill="#F0F0F0" id="n1961"/>
<path d="M13956 1223L13940 1251L13956 1279L13972 1279L13956 1251L13972 1223L13956 1223Z" stroke="#BEBEBE" stroke-linecap="square" id="n1962"/>
<path d="M13980 1223L13964 1251L13980 1279L13996 1279L13980 1251L13996 1223L13980 1223Z" stroke="#BEBEBE" stroke-linecap="square" id="n1963"/>
<path d="M13988 1251L14004 1223L14020 1223L14004 1251L14020 1279L14004 1279L13988 1251Z" stroke="#BEBEBE" stroke-linecap="square" id="n1964"/>
<path d="M14004 1223L13988 1251L14004 1279L14020 1279L14004 1251L14020 1223L14004 1223Z" fill="#AF5655" id="n1965"/>
</g>
<g clip-path="url(#clip103_68_6728)" id="n1966">
<path d="M14100 1223L14084 1251L14100 1279L14116 1279L14100 1251L14116 1223L14100 1223Z" fill="#F0F0F0" id="n1967"/>
<path d="M14124 1223L14108 1251L14124 1279L14140 1279L14124 1251L14140 1223L14124 1223Z" fill="#F0F0F0" id="n1968"/>
<path d="M14132 1251L14148 1223L14164 1223L14148 1251L14164 1279L14148 1279L14132 1251Z" fill="#F0F0F0" id="n1969"/>
<path d="M14100 1223L14084 1251L14100 1279L14116 1279L14100 1251L14116 1223L14100 1223Z" stroke="#BEBEBE" stroke-linecap="square" id="n1970"/>
<path d="M14124 1223L14108 1251L14124 1279L14140 1279L14124 1251L14140 1223L14124 1223Z" stroke="#BEBEBE" stroke-linecap="square" id="n1971"/>
<path d="M14132 1251L14148 1223L14164 1223L14148 1251L14164 1279L14148 1279L14132 1251Z" stroke="#BEBEBE" stroke-linecap="square" id="n1972"/>
<path d="M14124 1223L14108 1251L14124 1279L14140 1279L14124 1251L14140 1223L14124 1223Z" fill="#AF5655" id="n1973"/>
<path d="M14148 1223L14132 1251L14148 1279L14164 1279L14148 1251L14164 1223L14148 1223Z" fill="#AF5655" id="n1974"/>
</g>
<g clip-path="url(#clip104_68_6728)" id="n1975">
<path d="M14244 1223L14228 1251L14244 1279L14260 1279L14244 1251L14260 1223L14244 1223Z" fill="#F0F0F0" id="n1976"/>
<path d="M14268 1223L14252 1251L14268 1279L14284 1279L14268 1251L14284 1223L14268 1223Z" fill="#F0F0F0" id="n1977"/>
<path d="M14276 1251L14292 1223L14308 1223L14292 1251L14308 1279L14292 1279L14276 1251Z" fill="#F0F0F0" id="n1978"/>
<path d="M14244 1223L14228 1251L14244 1279L14260 1279L14244 1251L14260 1223L14244 1223Z" stroke="#BEBEBE" stroke-linecap="square" id="n1979"/>
<path d="M14268 1223L14252 1251L14268 1279L14284 1279L14268 1251L14284 1223L14268 1223Z" stroke="#BEBEBE" stroke-linecap="square" id="n1980"/>
<path d="M14276 1251L14292 1223L14308 1223L14292 1251L14308 1279L14292 1279L14276 1251Z" stroke="#BEBEBE" stroke-linecap="square" id="n1981"/>
<path d="M14244 1223L14228 1251L14244 1279L14260 1279L14244 1251L14260 1223L14244 1223Z" fill="#AF5655" id="n1982"/>
<path d="M14268 1223L14252 1251L14268 1279L14284 1279L14268 1251L14284 1223L14268 1223Z" fill="#AF5655" id="n1983"/>
<path d="M14276 1251L14292 1223L14308 1223L14292 1251L14308 1279L14292 1279L14276 1251Z" fill="#AF5655" id="n1984"/>
</g>
</g>
</svg>
