<?xml version='1.0' encoding='utf-8'?>
<svg xmlns="http://www.w3.org/2000/svg" xmlns:xlink="http://www.w3.org/1999/xlink" width="201.0" height="155.0" viewBox="0 0 201.0 155.0" fill="none">
  <defs>
    <clipPath id="clip__asset">
      <rect x="0" y="0" width="201.0" height="155.0"/>
    </clipPath>
  </defs>
  <g clip-path="url(#clip__asset)" transform="translate(-17502.0 -948.0)"><rect x="17502" y="948" width="201" height="155" stroke="#DDDDDD" id="n2923"/>
<path d="M17672.6 956.5H17685.4C17687.1 956.5 17688.3 956.5 17689.3 956.58C17690.3 956.659 17690.9 956.815 17691.5 957.1C17692.5 957.627 17693.4 958.468 17693.9 959.503C17694.2 960.062 17694.3 960.731 17694.4 961.7C17694.5 962.676 17694.5 963.912 17694.5 965.6V978.4C17694.5 980.088 17694.5 981.324 17694.4 982.3C17694.3 983.269 17694.2 983.938 17693.9 984.497C17693.4 985.532 17692.5 986.373 17691.5 986.9C17690.9 987.185 17690.3 987.341 17689.3 987.42C17688.3 987.5 17687.1 987.5 17685.4 987.5H17672.6C17670.9 987.5 17669.7 987.5 17668.7 987.42C17667.7 987.341 17667.1 987.185 17666.5 986.9C17665.5 986.373 17664.6 985.532 17664.1 984.497C17663.8 983.938 17663.7 983.269 17663.6 982.3C17663.5 981.324 17663.5 980.088 17663.5 978.4V965.6C17663.5 963.912 17663.5 962.676 17663.6 961.7C17663.7 960.731 17663.8 960.062 17664.1 959.503C17664.6 958.468 17665.5 957.627 17666.5 957.1C17667.1 956.815 17667.7 956.659 17668.7 956.58C17669.7 956.5 17670.9 956.5 17672.6 956.5Z" fill="#BEBEBE" id="n2924"/>
<path d="M17672.6 956.5H17685.4C17687.1 956.5 17688.3 956.5 17689.3 956.58C17690.3 956.659 17690.9 956.815 17691.5 957.1C17692.5 957.627 17693.4 958.468 17693.9 959.503C17694.2 960.062 17694.3 960.731 17694.4 961.7C17694.5 962.676 17694.5 963.912 17694.5 965.6V978.4C17694.5 980.088 17694.5 981.324 17694.4 982.3C17694.3 983.269 17694.2 983.938 17693.9 984.497C17693.4 985.532 17692.5 986.373 17691.5 986.9C17690.9 987.185 17690.3 987.341 17689.3 987.42C17688.3 987.5 17687.1 987.5 17685.4 987.5H17672.6C17670.9 987.5 17669.7 987.5 17668.7 987.42C17667.7 987.341 17667.1 987.185 17666.5 986.9C17665.5 986.373 17664.6 985.532 17664.1 984.497C17663.8 983.938 17663.7 983.269 17663.6 982.3C17663.5 981.324 17663.5 980.088 17663.5 978.4V965.6C17663.5 963.912 17663.5 962.676 17663.6 961.7C17663.7 960.731 17663.8 960.062 17664.1 959.503C17664.6 958.468 17665.5 957.627 17666.5 957.1C17667.1 956.815 17667.7 956.659 17668.7 956.58C17669.7 956.5 17670.9 956.5 17672.6 956.5Z" stroke="#BEBEBE" id="n2925"/>
<path d="M17678 969.152C17678 969.675 17677.9 970.128 17677.7 970.512C17677.5 970.885 17677.2 971.195 17676.8 971.44C17676.4 971.685 17676 971.867 17675.5 971.984V972.032C17676.5 972.139 17677.2 972.421 17677.6 972.88C17678.1 973.328 17678.3 973.931 17678.3 974.688C17678.3 975.349 17678.2 975.941 17677.8 976.464C17677.5 976.987 17677 977.403 17676.3 977.712C17675.7 978.011 17674.8 978.16 17673.7 978.16C17673.1 978.16 17672.5 978.107 17672 978C17671.5 977.893 17670.9 977.739 17670.5 977.536V975.568C17671 975.813 17671.5 976 17672 976.128C17672.5 976.256 17673.1 976.32 17673.5 976.32C17674.4 976.32 17675 976.165 17675.4 975.856C17675.7 975.547 17675.9 975.109 17675.9 974.544C17675.9 974.213 17675.8 973.936 17675.7 973.712C17675.5 973.477 17675.2 973.307 17674.8 973.2C17674.4 973.083 17673.8 973.024 17673.1 973.024H17672.2V971.232H17673.1C17673.8 971.232 17674.4 971.163 17674.7 971.024C17675.1 970.885 17675.4 970.699 17675.5 970.464C17675.7 970.219 17675.7 969.941 17675.7 969.632C17675.7 969.205 17675.6 968.875 17675.3 968.64C17675.1 968.405 17674.6 968.288 17674 968.288C17673.7 968.288 17673.3 968.331 17673 968.416C17672.7 968.501 17672.5 968.613 17672.2 968.752C17672 968.88 17671.7 969.003 17671.6 969.12L17670.5 967.536C17670.8 967.323 17671.1 967.131 17671.5 966.96C17671.8 966.789 17672.3 966.656 17672.7 966.56C17673.1 966.464 17673.6 966.416 17674.2 966.416C17675.4 966.416 17676.3 966.656 17677 967.136C17677.6 967.616 17678 968.288 17678 969.152ZM17685.5 978H17683.2V971.232C17683.2 971.04 17683.2 970.816 17683.2 970.56C17683.2 970.293 17683.2 970.021 17683.2 969.744C17683.3 969.467 17683.3 969.216 17683.3 968.992C17683.2 969.077 17683.1 969.2 17682.9 969.36C17682.7 969.52 17682.6 969.664 17682.4 969.792L17681.1 970.848L17680 969.44L17683.6 966.576H17685.5V978Z" fill="white" id="n2926"/>
<path d="M17520.3 1012.7C17520.3 1013.4 17520.2 1014.02 17520.1 1014.58C17520 1015.12 17519.8 1015.58 17519.6 1015.96C17519.4 1016.33 17519.1 1016.62 17518.7 1016.82C17518.4 1017.02 17517.9 1017.12 17517.4 1017.12C17516.8 1017.12 17516.3 1016.95 17515.8 1016.6C17515.4 1016.25 17515.1 1015.75 17514.9 1015.09C17514.7 1014.43 17514.6 1013.63 17514.6 1012.7C17514.6 1011.79 17514.7 1011.01 17514.9 1010.35C17515.1 1009.69 17515.4 1009.18 17515.8 1008.83C17516.2 1008.48 17516.7 1008.3 17517.4 1008.3C17518.1 1008.3 17518.6 1008.48 17519 1008.83C17519.4 1009.18 17519.7 1009.68 17519.9 1010.34C17520.1 1011 17520.3 1011.78 17520.3 1012.7ZM17515.6 1012.7C17515.6 1013.51 17515.6 1014.18 17515.7 1014.72C17515.9 1015.25 17516.1 1015.65 17516.3 1015.92C17516.6 1016.18 17517 1016.32 17517.4 1016.32C17517.9 1016.32 17518.2 1016.18 17518.5 1015.92C17518.8 1015.66 17519 1015.26 17519.1 1014.72C17519.2 1014.18 17519.3 1013.51 17519.3 1012.7C17519.3 1011.91 17519.2 1011.25 17519.1 1010.72C17519 1010.19 17518.8 1009.78 17518.5 1009.51C17518.2 1009.24 17517.9 1009.1 17517.4 1009.1C17517 1009.1 17516.6 1009.24 17516.3 1009.52C17516.1 1009.8 17515.9 1010.2 17515.7 1010.74C17515.6 1011.26 17515.6 1011.92 17515.6 1012.7ZM17522.6 1017L17526.1 1009.3H17521.4V1008.43H17527.1V1009.15L17523.6 1017H17522.6ZM17528.6 1016.41C17528.6 1016.14 17528.7 1015.95 17528.8 1015.84C17528.9 1015.72 17529.1 1015.67 17529.3 1015.67C17529.5 1015.67 17529.6 1015.72 17529.8 1015.84C17529.9 1015.95 17530 1016.14 17530 1016.41C17530 1016.67 17529.9 1016.86 17529.8 1016.98C17529.6 1017.1 17529.5 1017.16 17529.3 1017.16C17529.1 1017.16 17528.9 1017.1 17528.8 1016.98C17528.7 1016.86 17528.6 1016.67 17528.6 1016.41ZM17528.6 1011.18C17528.6 1010.91 17528.7 1010.72 17528.8 1010.6C17528.9 1010.49 17529.1 1010.44 17529.3 1010.44C17529.5 1010.44 17529.6 1010.49 17529.8 1010.6C17529.9 1010.72 17530 1010.91 17530 1011.18C17530 1011.44 17529.9 1011.64 17529.8 1011.76C17529.6 1011.88 17529.5 1011.94 17529.3 1011.94C17529.1 1011.94 17528.9 1011.88 17528.8 1011.76C17528.7 1011.64 17528.6 1011.44 17528.6 1011.18ZM17537.1 1012.7C17537.1 1013.4 17537.1 1014.02 17536.9 1014.58C17536.8 1015.12 17536.7 1015.58 17536.5 1015.96C17536.2 1016.33 17535.9 1016.62 17535.6 1016.82C17535.2 1017.02 17534.8 1017.12 17534.3 1017.12C17533.7 1017.12 17533.1 1016.95 17532.7 1016.6C17532.3 1016.25 17532 1015.75 17531.8 1015.09C17531.6 1014.43 17531.5 1013.63 17531.5 1012.7C17531.5 1011.79 17531.6 1011.01 17531.8 1010.35C17531.9 1009.69 17532.2 1009.18 17532.7 1008.83C17533.1 1008.48 17533.6 1008.3 17534.3 1008.3C17534.9 1008.3 17535.5 1008.48 17535.9 1008.83C17536.3 1009.18 17536.6 1009.68 17536.8 1010.34C17537 1011 17537.1 1011.78 17537.1 1012.7ZM17532.4 1012.7C17532.4 1013.51 17532.5 1014.18 17532.6 1014.72C17532.7 1015.25 17532.9 1015.65 17533.2 1015.92C17533.5 1016.18 17533.8 1016.32 17534.3 1016.32C17534.7 1016.32 17535.1 1016.18 17535.4 1015.92C17535.6 1015.66 17535.8 1015.26 17536 1014.72C17536.1 1014.18 17536.2 1013.51 17536.2 1012.7C17536.2 1011.91 17536.1 1011.25 17536 1010.72C17535.8 1010.19 17535.6 1009.78 17535.4 1009.51C17535.1 1009.24 17534.7 1009.1 17534.3 1009.1C17533.8 1009.1 17533.5 1009.24 17533.2 1009.52C17532.9 1009.8 17532.7 1010.2 17532.6 1010.74C17532.5 1011.26 17532.4 1011.92 17532.4 1012.7ZM17544 1012.7C17544 1013.4 17543.9 1014.02 17543.8 1014.58C17543.7 1015.12 17543.5 1015.58 17543.3 1015.96C17543.1 1016.33 17542.8 1016.62 17542.4 1016.82C17542.1 1017.02 17541.7 1017.12 17541.2 1017.12C17540.5 1017.12 17540 1016.95 17539.6 1016.6C17539.2 1016.25 17538.9 1015.75 17538.6 1015.09C17538.4 1014.43 17538.3 1013.63 17538.3 1012.7C17538.3 1011.79 17538.4 1011.01 17538.6 1010.35C17538.8 1009.69 17539.1 1009.18 17539.5 1008.83C17539.9 1008.48 17540.5 1008.3 17541.2 1008.3C17541.8 1008.3 17542.3 1008.48 17542.7 1008.83C17543.2 1009.18 17543.5 1009.68 17543.7 1010.34C17543.9 1011 17544 1011.78 17544 1012.7ZM17539.3 1012.7C17539.3 1013.51 17539.4 1014.18 17539.5 1014.72C17539.6 1015.25 17539.8 1015.65 17540.1 1015.92C17540.3 1016.18 17540.7 1016.32 17541.2 1016.32C17541.6 1016.32 17542 1016.18 17542.2 1015.92C17542.5 1015.66 17542.7 1015.26 17542.8 1014.72C17543 1014.18 17543 1013.51 17543 1012.7C17543 1011.91 17543 1011.25 17542.8 1010.72C17542.7 1010.19 17542.5 1009.78 17542.2 1009.51C17542 1009.24 17541.6 1009.1 17541.2 1009.1C17540.7 1009.1 17540.3 1009.24 17540.1 1009.52C17539.8 1009.8 17539.6 1010.2 17539.5 1010.74C17539.4 1011.26 17539.3 1011.92 17539.3 1012.7Z" fill="#BEBEBE" id="n2927"/>
<path d="M17547.5 1014.19V1013.35H17552.5V1014.19H17547.5Z" fill="#BEBEBE" id="n2928"/>
<path d="M17559.2 1017H17558.3V1010.89C17558.3 1010.66 17558.3 1010.46 17558.3 1010.3C17558.3 1010.14 17558.3 1010 17558.3 1009.86C17558.3 1009.72 17558.3 1009.57 17558.3 1009.43C17558.2 1009.55 17558.1 1009.65 17558 1009.74C17557.9 1009.82 17557.7 1009.93 17557.6 1010.06L17556.6 1010.86L17556.1 1010.22L17558.4 1008.43H17559.2V1017ZM17568.1 1012.7C17568.1 1013.4 17568.1 1014.02 17568 1014.58C17567.8 1015.12 17567.7 1015.58 17567.5 1015.96C17567.2 1016.33 17566.9 1016.62 17566.6 1016.82C17566.2 1017.02 17565.8 1017.12 17565.3 1017.12C17564.7 1017.12 17564.1 1016.95 17563.7 1016.6C17563.3 1016.25 17563 1015.75 17562.8 1015.09C17562.6 1014.43 17562.5 1013.63 17562.5 1012.7C17562.5 1011.79 17562.6 1011.01 17562.8 1010.35C17562.9 1009.69 17563.2 1009.18 17563.7 1008.83C17564.1 1008.48 17564.6 1008.3 17565.3 1008.3C17565.9 1008.3 17566.5 1008.48 17566.9 1008.83C17567.3 1009.18 17567.6 1009.68 17567.8 1010.34C17568 1011 17568.1 1011.78 17568.1 1012.7ZM17563.4 1012.7C17563.4 1013.51 17563.5 1014.18 17563.6 1014.72C17563.7 1015.25 17563.9 1015.65 17564.2 1015.92C17564.5 1016.18 17564.8 1016.32 17565.3 1016.32C17565.7 1016.32 17566.1 1016.18 17566.4 1015.92C17566.6 1015.66 17566.8 1015.26 17567 1014.72C17567.1 1014.18 17567.2 1013.51 17567.2 1012.7C17567.2 1011.91 17567.1 1011.25 17567 1010.72C17566.8 1010.19 17566.7 1009.78 17566.4 1009.51C17566.1 1009.24 17565.8 1009.1 17565.3 1009.1C17564.8 1009.1 17564.5 1009.24 17564.2 1009.52C17563.9 1009.8 17563.7 1010.2 17563.6 1010.74C17563.5 1011.26 17563.4 1011.92 17563.4 1012.7ZM17569.6 1016.41C17569.6 1016.14 17569.7 1015.95 17569.8 1015.84C17569.9 1015.72 17570.1 1015.67 17570.3 1015.67C17570.5 1015.67 17570.6 1015.72 17570.8 1015.84C17570.9 1015.95 17571 1016.14 17571 1016.41C17571 1016.67 17570.9 1016.86 17570.8 1016.98C17570.6 1017.1 17570.5 1017.16 17570.3 1017.16C17570.1 1017.16 17569.9 1017.1 17569.8 1016.98C17569.7 1016.86 17569.6 1016.67 17569.6 1016.41ZM17569.6 1011.18C17569.6 1010.91 17569.7 1010.72 17569.8 1010.6C17569.9 1010.49 17570.1 1010.44 17570.3 1010.44C17570.5 1010.44 17570.6 1010.49 17570.8 1010.6C17570.9 1010.72 17571 1010.91 17571 1011.18C17571 1011.44 17570.9 1011.64 17570.8 1011.76C17570.6 1011.88 17570.5 1011.94 17570.3 1011.94C17570.1 1011.94 17569.9 1011.88 17569.8 1011.76C17569.7 1011.64 17569.6 1011.44 17569.6 1011.18ZM17578.1 1012.7C17578.1 1013.4 17578.1 1014.02 17577.9 1014.58C17577.8 1015.12 17577.7 1015.58 17577.5 1015.96C17577.2 1016.33 17576.9 1016.62 17576.6 1016.82C17576.2 1017.02 17575.8 1017.12 17575.3 1017.12C17574.7 1017.12 17574.1 1016.95 17573.7 1016.6C17573.3 1016.25 17573 1015.75 17572.8 1015.09C17572.6 1014.43 17572.5 1013.63 17572.5 1012.7C17572.5 1011.79 17572.6 1011.01 17572.8 1010.35C17572.9 1009.69 17573.2 1009.18 17573.7 1008.83C17574.1 1008.48 17574.6 1008.3 17575.3 1008.3C17575.9 1008.3 17576.5 1008.48 17576.9 1008.83C17577.3 1009.18 17577.6 1009.68 17577.8 1010.34C17578 1011 17578.1 1011.78 17578.1 1012.7ZM17573.4 1012.7C17573.4 1013.51 17573.5 1014.18 17573.6 1014.72C17573.7 1015.25 17573.9 1015.65 17574.2 1015.92C17574.5 1016.18 17574.8 1016.32 17575.3 1016.32C17575.7 1016.32 17576.1 1016.18 17576.4 1015.92C17576.6 1015.66 17576.8 1015.26 17577 1014.72C17577.1 1014.18 17577.2 1013.51 17577.2 1012.7C17577.2 1011.91 17577.1 1011.25 17577 1010.72C17576.8 1010.19 17576.6 1009.78 17576.4 1009.51C17576.1 1009.24 17575.7 1009.1 17575.3 1009.1C17574.8 1009.1 17574.5 1009.24 17574.2 1009.52C17573.9 1009.8 17573.7 1010.2 17573.6 1010.74C17573.5 1011.26 17573.4 1011.92 17573.4 1012.7ZM17585 1012.7C17585 1013.4 17584.9 1014.02 17584.8 1014.58C17584.7 1015.12 17584.5 1015.58 17584.3 1015.96C17584.1 1016.33 17583.8 1016.62 17583.4 1016.82C17583.1 1017.02 17582.7 1017.12 17582.2 1017.12C17581.5 1017.12 17581 1016.95 17580.6 1016.6C17580.2 1016.25 17579.9 1015.75 17579.6 1015.09C17579.4 1014.43 17579.3 1013.63 17579.3 1012.7C17579.3 1011.79 17579.4 1011.01 17579.6 1010.35C17579.8 1009.69 17580.1 1009.18 17580.5 1008.83C17580.9 1008.48 17581.5 1008.3 17582.2 1008.3C17582.8 1008.3 17583.3 1008.48 17583.7 1008.83C17584.2 1009.18 17584.5 1009.68 17584.7 1010.34C17584.9 1011 17585 1011.78 17585 1012.7ZM17580.3 1012.7C17580.3 1013.51 17580.4 1014.18 17580.5 1014.72C17580.6 1015.25 17580.8 1015.65 17581.1 1015.92C17581.3 1016.18 17581.7 1016.32 17582.2 1016.32C17582.6 1016.32 17583 1016.18 17583.2 1015.92C17583.5 1015.66 17583.7 1015.26 17583.8 1014.72C17584 1014.18 17584 1013.51 17584 1012.7C17584 1011.91 17584 1011.25 17583.8 1010.72C17583.7 1010.19 17583.5 1009.78 17583.2 1009.51C17583 1009.24 17582.6 1009.1 17582.2 1009.1C17581.7 1009.1 17581.3 1009.24 17581.1 1009.52C17580.8 1009.8 17580.6 1010.2 17580.5 1010.74C17580.4 1011.26 17580.3 1011.92 17580.3 1012.7Z" fill="#BEBEBE" id="n2929"/>
<path d="M17520.3 1033L17519.7 1030.89H17516.5L17515.9 1033H17514L17517.1 1024.4H17519.1L17522.2 1033H17520.3ZM17518.6 1027.37C17518.6 1027.24 17518.5 1027.08 17518.4 1026.88C17518.4 1026.67 17518.3 1026.46 17518.2 1026.26C17518.2 1026.04 17518.1 1025.86 17518.1 1025.7C17518.1 1025.86 17518 1026.06 17517.9 1026.29C17517.9 1026.52 17517.8 1026.73 17517.8 1026.94C17517.7 1027.14 17517.7 1027.28 17517.6 1027.37L17517 1029.44H17519.3L17518.6 1027.37ZM17526.7 1026.34C17527.5 1026.34 17528.1 1026.63 17528.5 1027.2C17529 1027.77 17529.2 1028.61 17529.2 1029.72C17529.2 1030.46 17529.1 1031.08 17528.9 1031.6C17528.7 1032.1 17528.4 1032.48 17528 1032.74C17527.6 1032.99 17527.2 1033.12 17526.7 1033.12C17526.4 1033.12 17526.1 1033.08 17525.9 1033C17525.6 1032.92 17525.4 1032.82 17525.3 1032.69C17525.1 1032.55 17525 1032.41 17524.9 1032.27H17524.8C17524.8 1032.42 17524.8 1032.58 17524.8 1032.75C17524.8 1032.92 17524.9 1033.08 17524.9 1033.24V1035.88H17523.2V1026.46H17524.5L17524.8 1027.31H17524.9C17525 1027.14 17525.1 1026.98 17525.3 1026.83C17525.5 1026.68 17525.7 1026.56 17525.9 1026.47C17526.1 1026.38 17526.4 1026.34 17526.7 1026.34ZM17526.2 1027.71C17525.9 1027.71 17525.6 1027.78 17525.4 1027.91C17525.2 1028.04 17525.1 1028.24 17525 1028.51C17524.9 1028.78 17524.9 1029.11 17524.9 1029.52V1029.71C17524.9 1030.14 17524.9 1030.51 17525 1030.82C17525.1 1031.11 17525.2 1031.34 17525.4 1031.5C17525.6 1031.65 17525.9 1031.73 17526.2 1031.73C17526.5 1031.73 17526.7 1031.65 17526.9 1031.5C17527.1 1031.34 17527.3 1031.11 17527.3 1030.8C17527.4 1030.49 17527.5 1030.12 17527.5 1029.7C17527.5 1029.04 17527.4 1028.55 17527.2 1028.21C17527 1027.88 17526.6 1027.71 17526.2 1027.71ZM17534.3 1026.34C17535 1026.34 17535.6 1026.63 17536.1 1027.2C17536.6 1027.77 17536.8 1028.61 17536.8 1029.72C17536.8 1030.46 17536.7 1031.08 17536.5 1031.6C17536.3 1032.1 17536 1032.48 17535.6 1032.74C17535.2 1032.99 17534.8 1033.12 17534.3 1033.12C17533.9 1033.12 17533.7 1033.08 17533.4 1033C17533.2 1032.92 17533 1032.82 17532.8 1032.69C17532.7 1032.55 17532.5 1032.41 17532.4 1032.27H17532.3C17532.4 1032.42 17532.4 1032.58 17532.4 1032.75C17532.4 1032.92 17532.4 1033.08 17532.4 1033.24V1035.88H17530.7V1026.46H17532.1L17532.3 1027.31H17532.4C17532.5 1027.14 17532.7 1026.98 17532.9 1026.83C17533 1026.68 17533.2 1026.56 17533.5 1026.47C17533.7 1026.38 17534 1026.34 17534.3 1026.34ZM17533.8 1027.71C17533.4 1027.71 17533.2 1027.78 17533 1027.91C17532.8 1028.04 17532.7 1028.24 17532.6 1028.51C17532.5 1028.78 17532.4 1029.11 17532.4 1029.52V1029.71C17532.4 1030.14 17532.5 1030.51 17532.5 1030.82C17532.6 1031.11 17532.8 1031.34 17533 1031.5C17533.2 1031.65 17533.4 1031.73 17533.8 1031.73C17534.1 1031.73 17534.3 1031.65 17534.5 1031.5C17534.7 1031.34 17534.8 1031.11 17534.9 1030.8C17535 1030.49 17535.1 1030.12 17535.1 1029.7C17535.1 1029.04 17534.9 1028.55 17534.7 1028.21C17534.5 1027.88 17534.2 1027.71 17533.8 1027.71ZM17544.2 1029.72C17544.2 1030.27 17544.1 1030.75 17544 1031.18C17543.8 1031.59 17543.6 1031.95 17543.3 1032.24C17543.1 1032.53 17542.7 1032.75 17542.3 1032.9C17542 1033.05 17541.5 1033.12 17541 1033.12C17540.6 1033.12 17540.2 1033.05 17539.8 1032.9C17539.4 1032.75 17539.1 1032.53 17538.8 1032.24C17538.5 1031.95 17538.3 1031.59 17538.1 1031.16C17538 1030.74 17537.9 1030.26 17537.9 1029.71C17537.9 1028.99 17538 1028.38 17538.3 1027.89C17538.5 1027.38 17538.9 1027 17539.4 1026.74C17539.9 1026.47 17540.4 1026.34 17541.1 1026.34C17541.7 1026.34 17542.2 1026.47 17542.7 1026.74C17543.2 1027 17543.5 1027.38 17543.8 1027.89C17544.1 1028.38 17544.2 1029 17544.2 1029.72ZM17539.6 1029.72C17539.6 1030.16 17539.7 1030.54 17539.8 1030.84C17539.9 1031.14 17540 1031.36 17540.2 1031.51C17540.5 1031.66 17540.7 1031.74 17541.1 1031.74C17541.4 1031.74 17541.7 1031.66 17541.9 1031.51C17542.1 1031.36 17542.2 1031.14 17542.3 1030.84C17542.4 1030.54 17542.5 1030.16 17542.5 1029.72C17542.5 1029.28 17542.4 1028.9 17542.3 1028.61C17542.2 1028.31 17542.1 1028.09 17541.9 1027.95C17541.6 1027.8 17541.4 1027.72 17541 1027.72C17540.6 1027.72 17540.2 1027.89 17540 1028.22C17539.7 1028.56 17539.6 1029.06 17539.6 1029.72ZM17547.4 1026.46V1033H17545.7V1026.46H17547.4ZM17546.6 1023.92C17546.8 1023.92 17547 1023.98 17547.2 1024.1C17547.4 1024.22 17547.5 1024.44 17547.5 1024.77C17547.5 1025.08 17547.4 1025.3 17547.2 1025.43C17547 1025.56 17546.8 1025.62 17546.6 1025.62C17546.3 1025.62 17546.1 1025.56 17545.9 1025.43C17545.7 1025.3 17545.6 1025.08 17545.6 1024.77C17545.6 1024.44 17545.7 1024.22 17545.9 1024.1C17546.1 1023.98 17546.3 1023.92 17546.6 1023.92ZM17552.9 1026.34C17553.7 1026.34 17554.2 1026.53 17554.6 1026.92C17555.1 1027.29 17555.3 1027.9 17555.3 1028.74V1033H17553.6V1029.14C17553.6 1028.66 17553.5 1028.31 17553.3 1028.07C17553.1 1027.83 17552.8 1027.71 17552.5 1027.71C17551.9 1027.71 17551.5 1027.9 17551.3 1028.27C17551.1 1028.65 17551 1029.19 17551 1029.89V1033H17549.3V1026.46H17550.6L17550.8 1027.3H17550.9C17551.1 1027.08 17551.2 1026.9 17551.5 1026.76C17551.7 1026.62 17551.9 1026.51 17552.2 1026.45C17552.4 1026.38 17552.7 1026.34 17552.9 1026.34ZM17559.8 1031.75C17560 1031.75 17560.2 1031.74 17560.4 1031.7C17560.6 1031.66 17560.8 1031.62 17560.9 1031.56V1032.83C17560.7 1032.91 17560.5 1032.98 17560.2 1033.04C17560 1033.09 17559.7 1033.12 17559.3 1033.12C17559 1033.12 17558.6 1033.06 17558.3 1032.93C17558 1032.8 17557.8 1032.58 17557.6 1032.27C17557.4 1031.96 17557.3 1031.52 17557.3 1030.97V1027.74H17556.5V1027.02L17557.4 1026.44L17557.9 1025.06H17559V1026.46H17560.9V1027.74H17559V1030.96C17559 1031.23 17559.1 1031.43 17559.2 1031.56C17559.4 1031.69 17559.6 1031.75 17559.8 1031.75ZM17569.9 1026.34C17570.6 1026.34 17571.2 1026.53 17571.5 1026.92C17571.9 1027.29 17572.1 1027.9 17572.1 1028.74V1033H17570.4V1029.14C17570.4 1028.66 17570.3 1028.31 17570.2 1028.07C17570 1027.83 17569.7 1027.71 17569.4 1027.71C17568.9 1027.71 17568.5 1027.88 17568.3 1028.22C17568.1 1028.56 17568 1029.05 17568 1029.69V1033H17566.3V1029.14C17566.3 1028.82 17566.3 1028.56 17566.2 1028.36C17566.1 1028.14 17566 1027.98 17565.9 1027.88C17565.7 1027.76 17565.5 1027.71 17565.3 1027.71C17565 1027.71 17564.7 1027.79 17564.5 1027.96C17564.3 1028.13 17564.2 1028.38 17564.1 1028.7C17564 1029.02 17563.9 1029.42 17563.9 1029.88V1033H17562.2V1026.46H17563.6L17563.8 1027.3H17563.9C17564 1027.08 17564.2 1026.9 17564.4 1026.76C17564.6 1026.62 17564.8 1026.51 17565 1026.45C17565.3 1026.38 17565.5 1026.34 17565.8 1026.34C17566.3 1026.34 17566.7 1026.42 17567 1026.58C17567.3 1026.74 17567.6 1026.98 17567.8 1027.31H17567.9C17568.1 1026.98 17568.4 1026.73 17568.7 1026.58C17569.1 1026.42 17569.5 1026.34 17569.9 1026.34ZM17576.6 1026.34C17577.2 1026.34 17577.8 1026.46 17578.2 1026.69C17578.6 1026.92 17579 1027.26 17579.2 1027.7C17579.4 1028.14 17579.5 1028.67 17579.5 1029.3V1030.14H17575.3C17575.3 1030.67 17575.5 1031.09 17575.8 1031.39C17576 1031.69 17576.5 1031.84 17577 1031.84C17577.4 1031.84 17577.8 1031.8 17578.1 1031.72C17578.5 1031.63 17578.8 1031.5 17579.2 1031.33V1032.65C17578.9 1032.81 17578.5 1032.93 17578.2 1033C17577.8 1033.08 17577.4 1033.12 17576.9 1033.12C17576.2 1033.12 17575.7 1033 17575.2 1032.76C17574.7 1032.51 17574.3 1032.14 17574 1031.64C17573.7 1031.15 17573.6 1030.53 17573.6 1029.78C17573.6 1029.02 17573.7 1028.38 17574 1027.88C17574.2 1027.37 17574.6 1026.99 17575 1026.74C17575.5 1026.47 17576 1026.34 17576.6 1026.34ZM17576.7 1027.56C17576.3 1027.56 17576 1027.68 17575.7 1027.92C17575.5 1028.16 17575.4 1028.52 17575.3 1029H17577.9C17577.9 1028.72 17577.9 1028.48 17577.8 1028.26C17577.7 1028.04 17577.6 1027.88 17577.4 1027.76C17577.2 1027.63 17576.9 1027.56 17576.7 1027.56ZM17584.7 1026.34C17585.4 1026.34 17585.9 1026.53 17586.4 1026.92C17586.8 1027.29 17587 1027.9 17587 1028.74V1033H17585.3V1029.14C17585.3 1028.66 17585.2 1028.31 17585 1028.07C17584.9 1027.83 17584.6 1027.71 17584.2 1027.71C17583.6 1027.71 17583.2 1027.9 17583 1028.27C17582.8 1028.65 17582.7 1029.19 17582.7 1029.89V1033H17581V1026.46H17582.3L17582.6 1027.3H17582.7C17582.8 1027.08 17583 1026.9 17583.2 1026.76C17583.4 1026.62 17583.6 1026.51 17583.9 1026.45C17584.1 1026.38 17584.4 1026.34 17584.7 1026.34ZM17591.5 1031.75C17591.7 1031.75 17591.9 1031.74 17592.1 1031.7C17592.3 1031.66 17592.5 1031.62 17592.7 1031.56V1032.83C17592.5 1032.91 17592.2 1032.98 17592 1033.04C17591.7 1033.09 17591.4 1033.12 17591.1 1033.12C17590.7 1033.12 17590.3 1033.06 17590 1032.93C17589.7 1032.8 17589.5 1032.58 17589.3 1032.27C17589.1 1031.96 17589 1031.52 17589 1030.97V1027.74H17588.2V1027.02L17589.2 1026.44L17589.7 1025.06H17590.7V1026.46H17592.6V1027.74H17590.7V1030.96C17590.7 1031.23 17590.8 1031.43 17591 1031.56C17591.1 1031.69 17591.3 1031.75 17591.5 1031.75ZM17599.8 1031.75C17600 1031.75 17600.2 1031.74 17600.3 1031.7C17600.5 1031.66 17600.7 1031.62 17600.9 1031.56V1032.83C17600.7 1032.91 17600.5 1032.98 17600.2 1033.04C17599.9 1033.09 17599.6 1033.12 17599.3 1033.12C17598.9 1033.12 17598.6 1033.06 17598.3 1032.93C17598 1032.8 17597.7 1032.58 17597.5 1032.27C17597.4 1031.96 17597.3 1031.52 17597.3 1030.97V1027.74H17596.4V1027.02L17597.4 1026.44L17597.9 1025.06H17599V1026.46H17600.8V1027.74H17599V1030.96C17599 1031.23 17599 1031.43 17599.2 1031.56C17599.3 1031.69 17599.5 1031.75 17599.8 1031.75ZM17603.9 1026.46V1033H17602.2V1026.46H17603.9ZM17603 1023.92C17603.3 1023.92 17603.5 1023.98 17603.7 1024.1C17603.9 1024.22 17604 1024.44 17604 1024.77C17604 1025.08 17603.9 1025.3 17603.7 1025.43C17603.5 1025.56 17603.3 1025.62 17603 1025.62C17602.8 1025.62 17602.6 1025.56 17602.4 1025.43C17602.2 1025.3 17602.1 1025.08 17602.1 1024.77C17602.1 1024.44 17602.2 1024.22 17602.4 1024.1C17602.6 1023.98 17602.8 1023.92 17603 1023.92ZM17608.5 1031.75C17608.7 1031.75 17608.9 1031.74 17609 1031.7C17609.2 1031.66 17609.4 1031.62 17609.6 1031.56V1032.83C17609.4 1032.91 17609.2 1032.98 17608.9 1033.04C17608.6 1033.09 17608.3 1033.12 17608 1033.12C17607.6 1033.12 17607.3 1033.06 17607 1032.93C17606.7 1032.8 17606.4 1032.58 17606.2 1032.27C17606.1 1031.96 17606 1031.52 17606 1030.97V1027.74H17605.1V1027.02L17606.1 1026.44L17606.6 1025.06H17607.7V1026.46H17609.5V1027.74H17607.7V1030.96C17607.7 1031.23 17607.7 1031.43 17607.9 1031.56C17608 1031.69 17608.2 1031.75 17608.5 1031.75ZM17612.6 1033H17610.9V1023.88H17612.6V1033ZM17617.2 1026.34C17617.8 1026.34 17618.3 1026.46 17618.7 1026.69C17619.2 1026.92 17619.5 1027.26 17619.7 1027.7C17620 1028.14 17620.1 1028.67 17620.1 1029.3V1030.14H17615.8C17615.8 1030.67 17616 1031.09 17616.3 1031.39C17616.6 1031.69 17617 1031.84 17617.5 1031.84C17617.9 1031.84 17618.3 1031.8 17618.7 1031.72C17619 1031.63 17619.4 1031.5 17619.7 1031.33V1032.65C17619.4 1032.81 17619.1 1032.93 17618.7 1033C17618.4 1033.08 17617.9 1033.12 17617.4 1033.12C17616.8 1033.12 17616.2 1033 17615.7 1032.76C17615.2 1032.51 17614.8 1032.14 17614.5 1031.64C17614.2 1031.15 17614.1 1030.53 17614.1 1029.78C17614.1 1029.02 17614.2 1028.38 17614.5 1027.88C17614.7 1027.37 17615.1 1026.99 17615.6 1026.74C17616 1026.47 17616.6 1026.34 17617.2 1026.34ZM17617.2 1027.56C17616.8 1027.56 17616.5 1027.68 17616.3 1027.92C17616 1028.16 17615.9 1028.52 17615.9 1029H17618.5C17618.5 1028.72 17618.4 1028.48 17618.3 1028.26C17618.2 1028.04 17618.1 1027.88 17617.9 1027.76C17617.7 1027.63 17617.5 1027.56 17617.2 1027.56Z" fill="#BEBEBE" id="n2930"/>
</g>
</svg>
