<?xml version='1.0' encoding='utf-8'?>
<svg xmlns="http://www.w3.org/2000/svg" xmlns:xlink="http://www.w3.org/1999/xlink" width="201.0" height="155.0" viewBox="0 0 201.0 155.0" fill="none">
  <defs>
    <clipPath id="clip__asset">
      <rect x="0" y="0" width="201.0" height="155.0"/>
    </clipPath>
  </defs>
  <g clip-path="url(#clip__asset)" transform="translate(-17277.0 -948.0)"><rect x="17277" y="948" width="201" height="155" stroke="#DDDDDD" id="n2917"/>
<path d="M17453 969.152C17453 969.675 17452.9 970.128 17452.7 970.512C17452.5 970.885 17452.2 971.195 17451.8 971.44C17451.4 971.685 17451 971.867 17450.5 971.984V972.032C17451.5 972.139 17452.2 972.421 17452.6 972.88C17453.1 973.328 17453.3 973.931 17453.3 974.688C17453.3 975.349 17453.2 975.941 17452.8 976.464C17452.5 976.987 17452 977.403 17451.3 977.712C17450.7 978.011 17449.8 978.16 17448.7 978.16C17448.1 978.16 17447.5 978.107 17447 978C17446.5 977.893 17445.9 977.739 17445.5 977.536V975.568C17446 975.813 17446.5 976 17447 976.128C17447.5 976.256 17448.1 976.32 17448.5 976.32C17449.4 976.32 17450 976.165 17450.4 975.856C17450.7 975.547 17450.9 975.109 17450.9 974.544C17450.9 974.213 17450.8 973.936 17450.7 973.712C17450.5 973.477 17450.2 973.307 17449.8 973.2C17449.4 973.083 17448.8 973.024 17448.1 973.024H17447.2V971.232H17448.1C17448.8 971.232 17449.4 971.163 17449.7 971.024C17450.1 970.885 17450.4 970.699 17450.5 970.464C17450.7 970.219 17450.7 969.941 17450.7 969.632C17450.7 969.205 17450.6 968.875 17450.3 968.64C17450.1 968.405 17449.6 968.288 17449 968.288C17448.7 968.288 17448.3 968.331 17448 968.416C17447.7 968.501 17447.5 968.613 17447.2 968.752C17447 968.88 17446.7 969.003 17446.6 969.12L17445.5 967.536C17445.8 967.323 17446.1 967.131 17446.5 966.96C17446.8 966.789 17447.3 966.656 17447.7 966.56C17448.1 966.464 17448.6 966.416 17449.2 966.416C17450.4 966.416 17451.3 966.656 17452 967.136C17452.6 967.616 17453 968.288 17453 969.152ZM17460.5 978H17458.2V971.232C17458.2 971.04 17458.2 970.816 17458.2 970.56C17458.2 970.293 17458.2 970.021 17458.2 969.744C17458.3 969.467 17458.3 969.216 17458.3 968.992C17458.2 969.077 17458.1 969.2 17457.9 969.36C17457.7 969.52 17457.6 969.664 17457.4 969.792L17456.1 970.848L17455 969.44L17458.6 966.576H17460.5V978Z" fill="#BEBEBE" id="n2918"/>
<path d="M17295.3 1012.7C17295.3 1013.4 17295.2 1014.02 17295.1 1014.58C17295 1015.12 17294.8 1015.58 17294.6 1015.96C17294.4 1016.33 17294.1 1016.62 17293.7 1016.82C17293.4 1017.02 17292.9 1017.12 17292.4 1017.12C17291.8 1017.12 17291.3 1016.95 17290.8 1016.6C17290.4 1016.25 17290.1 1015.75 17289.9 1015.09C17289.7 1014.43 17289.6 1013.63 17289.6 1012.7C17289.6 1011.79 17289.7 1011.01 17289.9 1010.35C17290.1 1009.69 17290.4 1009.18 17290.8 1008.83C17291.2 1008.48 17291.7 1008.3 17292.4 1008.3C17293.1 1008.3 17293.6 1008.48 17294 1008.83C17294.4 1009.18 17294.7 1009.68 17294.9 1010.34C17295.1 1011 17295.3 1011.78 17295.3 1012.7ZM17290.6 1012.7C17290.6 1013.51 17290.6 1014.18 17290.7 1014.72C17290.9 1015.25 17291.1 1015.65 17291.3 1015.92C17291.6 1016.18 17292 1016.32 17292.4 1016.32C17292.9 1016.32 17293.2 1016.18 17293.5 1015.92C17293.8 1015.66 17294 1015.26 17294.1 1014.72C17294.2 1014.18 17294.3 1013.51 17294.3 1012.7C17294.3 1011.91 17294.2 1011.25 17294.1 1010.72C17294 1010.19 17293.8 1009.78 17293.5 1009.51C17293.2 1009.24 17292.9 1009.1 17292.4 1009.1C17292 1009.1 17291.6 1009.24 17291.3 1009.52C17291.1 1009.8 17290.9 1010.2 17290.7 1010.74C17290.6 1011.26 17290.6 1011.92 17290.6 1012.7ZM17297.6 1017L17301.1 1009.3H17296.4V1008.43H17302.1V1009.15L17298.6 1017H17297.6ZM17303.6 1016.41C17303.6 1016.14 17303.7 1015.95 17303.8 1015.84C17303.9 1015.72 17304.1 1015.67 17304.3 1015.67C17304.5 1015.67 17304.6 1015.72 17304.8 1015.84C17304.9 1015.95 17305 1016.14 17305 1016.41C17305 1016.67 17304.9 1016.86 17304.8 1016.98C17304.6 1017.1 17304.5 1017.16 17304.3 1017.16C17304.1 1017.16 17303.9 1017.1 17303.8 1016.98C17303.7 1016.86 17303.6 1016.67 17303.6 1016.41ZM17303.6 1011.18C17303.6 1010.91 17303.7 1010.72 17303.8 1010.6C17303.9 1010.49 17304.1 1010.44 17304.3 1010.44C17304.5 1010.44 17304.6 1010.49 17304.8 1010.6C17304.9 1010.72 17305 1010.91 17305 1011.18C17305 1011.44 17304.9 1011.64 17304.8 1011.76C17304.6 1011.88 17304.5 1011.94 17304.3 1011.94C17304.1 1011.94 17303.9 1011.88 17303.8 1011.76C17303.7 1011.64 17303.6 1011.44 17303.6 1011.18ZM17312.1 1012.7C17312.1 1013.4 17312.1 1014.02 17311.9 1014.58C17311.8 1015.12 17311.7 1015.58 17311.5 1015.96C17311.2 1016.33 17310.9 1016.62 17310.6 1016.82C17310.2 1017.02 17309.8 1017.12 17309.3 1017.12C17308.7 1017.12 17308.1 1016.95 17307.7 1016.6C17307.3 1016.25 17307 1015.75 17306.8 1015.09C17306.6 1014.43 17306.5 1013.63 17306.5 1012.7C17306.5 1011.79 17306.6 1011.01 17306.8 1010.35C17306.9 1009.69 17307.2 1009.18 17307.7 1008.83C17308.1 1008.48 17308.6 1008.3 17309.3 1008.3C17309.9 1008.3 17310.5 1008.48 17310.9 1008.83C17311.3 1009.18 17311.6 1009.68 17311.8 1010.34C17312 1011 17312.1 1011.78 17312.1 1012.7ZM17307.4 1012.7C17307.4 1013.51 17307.5 1014.18 17307.6 1014.72C17307.7 1015.25 17307.9 1015.65 17308.2 1015.92C17308.5 1016.18 17308.8 1016.32 17309.3 1016.32C17309.7 1016.32 17310.1 1016.18 17310.4 1015.92C17310.6 1015.66 17310.8 1015.26 17311 1014.72C17311.1 1014.18 17311.2 1013.51 17311.2 1012.7C17311.2 1011.91 17311.1 1011.25 17311 1010.72C17310.8 1010.19 17310.6 1009.78 17310.4 1009.51C17310.1 1009.24 17309.7 1009.1 17309.3 1009.1C17308.8 1009.1 17308.5 1009.24 17308.2 1009.52C17307.9 1009.8 17307.7 1010.2 17307.6 1010.74C17307.5 1011.26 17307.4 1011.92 17307.4 1012.7ZM17319 1012.7C17319 1013.4 17318.9 1014.02 17318.8 1014.58C17318.7 1015.12 17318.5 1015.58 17318.3 1015.96C17318.1 1016.33 17317.8 1016.62 17317.4 1016.82C17317.1 1017.02 17316.7 1017.12 17316.2 1017.12C17315.5 1017.12 17315 1016.95 17314.6 1016.6C17314.2 1016.25 17313.9 1015.75 17313.6 1015.09C17313.4 1014.43 17313.3 1013.63 17313.3 1012.7C17313.3 1011.79 17313.4 1011.01 17313.6 1010.35C17313.8 1009.69 17314.1 1009.18 17314.5 1008.83C17314.9 1008.48 17315.5 1008.3 17316.2 1008.3C17316.8 1008.3 17317.3 1008.48 17317.7 1008.83C17318.2 1009.18 17318.5 1009.68 17318.7 1010.34C17318.9 1011 17319 1011.78 17319 1012.7ZM17314.3 1012.7C17314.3 1013.51 17314.4 1014.18 17314.5 1014.72C17314.6 1015.25 17314.8 1015.65 17315.1 1015.92C17315.3 1016.18 17315.7 1016.32 17316.2 1016.32C17316.6 1016.32 17317 1016.18 17317.2 1015.92C17317.5 1015.66 17317.7 1015.26 17317.8 1014.72C17318 1014.18 17318 1013.51 17318 1012.7C17318 1011.91 17318 1011.25 17317.8 1010.72C17317.7 1010.19 17317.5 1009.78 17317.2 1009.51C17317 1009.24 17316.6 1009.1 17316.2 1009.1C17315.7 1009.1 17315.3 1009.24 17315.1 1009.52C17314.8 1009.8 17314.6 1010.2 17314.5 1010.74C17314.4 1011.26 17314.3 1011.92 17314.3 1012.7Z" fill="#BEBEBE" id="n2919"/>
<path d="M17322.5 1014.19V1013.35H17327.5V1014.19H17322.5Z" fill="#BEBEBE" id="n2920"/>
<path d="M17334.2 1017H17333.3V1010.89C17333.3 1010.66 17333.3 1010.46 17333.3 1010.3C17333.3 1010.14 17333.3 1010 17333.3 1009.86C17333.3 1009.72 17333.3 1009.57 17333.3 1009.43C17333.2 1009.55 17333.1 1009.65 17333 1009.74C17332.9 1009.82 17332.7 1009.93 17332.6 1010.06L17331.6 1010.86L17331.1 1010.22L17333.4 1008.43H17334.2V1017ZM17343.1 1012.7C17343.1 1013.4 17343.1 1014.02 17343 1014.58C17342.8 1015.12 17342.7 1015.58 17342.5 1015.96C17342.2 1016.33 17341.9 1016.62 17341.6 1016.82C17341.2 1017.02 17340.8 1017.12 17340.3 1017.12C17339.7 1017.12 17339.1 1016.95 17338.7 1016.6C17338.3 1016.25 17338 1015.75 17337.8 1015.09C17337.6 1014.43 17337.5 1013.63 17337.5 1012.7C17337.5 1011.79 17337.6 1011.01 17337.8 1010.35C17337.9 1009.69 17338.2 1009.18 17338.7 1008.83C17339.1 1008.48 17339.6 1008.3 17340.3 1008.3C17340.9 1008.3 17341.5 1008.48 17341.9 1008.83C17342.3 1009.18 17342.6 1009.68 17342.8 1010.34C17343 1011 17343.1 1011.78 17343.1 1012.7ZM17338.4 1012.7C17338.4 1013.51 17338.5 1014.18 17338.6 1014.72C17338.7 1015.25 17338.9 1015.65 17339.2 1015.92C17339.5 1016.18 17339.8 1016.32 17340.3 1016.32C17340.7 1016.32 17341.1 1016.18 17341.4 1015.92C17341.6 1015.66 17341.8 1015.26 17342 1014.72C17342.1 1014.18 17342.2 1013.51 17342.2 1012.7C17342.2 1011.91 17342.1 1011.25 17342 1010.72C17341.8 1010.19 17341.7 1009.78 17341.4 1009.51C17341.1 1009.24 17340.8 1009.1 17340.3 1009.1C17339.8 1009.1 17339.5 1009.24 17339.2 1009.52C17338.9 1009.8 17338.7 1010.2 17338.6 1010.74C17338.5 1011.26 17338.4 1011.92 17338.4 1012.7ZM17344.6 1016.41C17344.6 1016.14 17344.7 1015.95 17344.8 1015.84C17344.9 1015.72 17345.1 1015.67 17345.3 1015.67C17345.5 1015.67 17345.6 1015.72 17345.8 1015.84C17345.9 1015.95 17346 1016.14 17346 1016.41C17346 1016.67 17345.9 1016.86 17345.8 1016.98C17345.6 1017.1 17345.5 1017.16 17345.3 1017.16C17345.1 1017.16 17344.9 1017.1 17344.8 1016.98C17344.7 1016.86 17344.6 1016.67 17344.6 1016.41ZM17344.6 1011.18C17344.6 1010.91 17344.7 1010.72 17344.8 1010.6C17344.9 1010.49 17345.1 1010.44 17345.3 1010.44C17345.5 1010.44 17345.6 1010.49 17345.8 1010.6C17345.9 1010.72 17346 1010.91 17346 1011.18C17346 1011.44 17345.9 1011.64 17345.8 1011.76C17345.6 1011.88 17345.5 1011.94 17345.3 1011.94C17345.1 1011.94 17344.9 1011.88 17344.8 1011.76C17344.7 1011.64 17344.6 1011.44 17344.6 1011.18ZM17353.1 1012.7C17353.1 1013.4 17353.1 1014.02 17352.9 1014.58C17352.8 1015.12 17352.7 1015.58 17352.5 1015.96C17352.2 1016.33 17351.9 1016.62 17351.6 1016.82C17351.2 1017.02 17350.8 1017.12 17350.3 1017.12C17349.7 1017.12 17349.1 1016.95 17348.7 1016.6C17348.3 1016.25 17348 1015.75 17347.8 1015.09C17347.6 1014.43 17347.5 1013.63 17347.5 1012.7C17347.5 1011.79 17347.6 1011.01 17347.8 1010.35C17347.9 1009.69 17348.2 1009.18 17348.7 1008.83C17349.1 1008.48 17349.6 1008.3 17350.3 1008.3C17350.9 1008.3 17351.5 1008.48 17351.9 1008.83C17352.3 1009.18 17352.6 1009.68 17352.8 1010.34C17353 1011 17353.1 1011.78 17353.1 1012.7ZM17348.4 1012.7C17348.4 1013.51 17348.5 1014.18 17348.6 1014.72C17348.7 1015.25 17348.9 1015.65 17349.2 1015.92C17349.5 1016.18 17349.8 1016.32 17350.3 1016.32C17350.7 1016.32 17351.1 1016.18 17351.4 1015.92C17351.6 1015.66 17351.8 1015.26 17352 1014.72C17352.1 1014.18 17352.2 1013.51 17352.2 1012.7C17352.2 1011.91 17352.1 1011.25 17352 1010.72C17351.8 1010.19 17351.6 1009.78 17351.4 1009.51C17351.1 1009.24 17350.7 1009.1 17350.3 1009.1C17349.8 1009.1 17349.5 1009.24 17349.2 1009.52C17348.9 1009.8 17348.7 1010.2 17348.6 1010.74C17348.5 1011.26 17348.4 1011.92 17348.4 1012.7ZM17360 1012.7C17360 1013.4 17359.9 1014.02 17359.8 1014.58C17359.7 1015.12 17359.5 1015.58 17359.3 1015.96C17359.1 1016.33 17358.8 1016.62 17358.4 1016.82C17358.1 1017.02 17357.7 1017.12 17357.2 1017.12C17356.5 1017.12 17356 1016.95 17355.6 1016.6C17355.2 1016.25 17354.9 1015.75 17354.6 1015.09C17354.4 1014.43 17354.3 1013.63 17354.3 1012.7C17354.3 1011.79 17354.4 1011.01 17354.6 1010.35C17354.8 1009.69 17355.1 1009.18 17355.5 1008.83C17355.9 1008.48 17356.5 1008.3 17357.2 1008.3C17357.8 1008.3 17358.3 1008.48 17358.7 1008.83C17359.2 1009.18 17359.5 1009.68 17359.7 1010.34C17359.9 1011 17360 1011.78 17360 1012.7ZM17355.3 1012.7C17355.3 1013.51 17355.4 1014.18 17355.5 1014.72C17355.6 1015.25 17355.8 1015.65 17356.1 1015.92C17356.3 1016.18 17356.7 1016.32 17357.2 1016.32C17357.6 1016.32 17358 1016.18 17358.2 1015.92C17358.5 1015.66 17358.7 1015.26 17358.8 1014.72C17359 1014.18 17359 1013.51 17359 1012.7C17359 1011.91 17359 1011.25 17358.8 1010.72C17358.7 1010.19 17358.5 1009.78 17358.2 1009.51C17358 1009.24 17357.6 1009.1 17357.2 1009.1C17356.7 1009.1 17356.3 1009.24 17356.1 1009.52C17355.8 1009.8 17355.6 1010.2 17355.5 1010.74C17355.4 1011.26 17355.3 1011.92 17355.3 1012.7Z" fill="#BEBEBE" id="n2921"/>
<path d="M17295.3 1033L17294.7 1030.89H17291.5L17290.9 1033H17289L17292.1 1024.4H17294.1L17297.2 1033H17295.3ZM17293.6 1027.37C17293.6 1027.24 17293.5 1027.08 17293.4 1026.88C17293.4 1026.67 17293.3 1026.46 17293.2 1026.26C17293.2 1026.04 17293.1 1025.86 17293.1 1025.7C17293.1 1025.86 17293 1026.06 17292.9 1026.29C17292.9 1026.52 17292.8 1026.73 17292.8 1026.94C17292.7 1027.14 17292.7 1027.28 17292.6 1027.37L17292 1029.44H17294.3L17293.6 1027.37ZM17301.7 1026.34C17302.5 1026.34 17303.1 1026.63 17303.5 1027.2C17304 1027.77 17304.2 1028.61 17304.2 1029.72C17304.2 1030.46 17304.1 1031.08 17303.9 1031.6C17303.7 1032.1 17303.4 1032.48 17303 1032.74C17302.6 1032.99 17302.2 1033.12 17301.7 1033.12C17301.4 1033.12 17301.1 1033.08 17300.9 1033C17300.6 1032.92 17300.4 1032.82 17300.3 1032.69C17300.1 1032.55 17300 1032.41 17299.9 1032.27H17299.8C17299.8 1032.42 17299.8 1032.58 17299.8 1032.75C17299.8 1032.92 17299.9 1033.08 17299.9 1033.24V1035.88H17298.2V1026.46H17299.5L17299.8 1027.31H17299.9C17300 1027.14 17300.1 1026.98 17300.3 1026.83C17300.5 1026.68 17300.7 1026.56 17300.9 1026.47C17301.1 1026.38 17301.4 1026.34 17301.7 1026.34ZM17301.2 1027.71C17300.9 1027.71 17300.6 1027.78 17300.4 1027.91C17300.2 1028.04 17300.1 1028.24 17300 1028.51C17299.9 1028.78 17299.9 1029.11 17299.9 1029.52V1029.71C17299.9 1030.14 17299.9 1030.51 17300 1030.82C17300.1 1031.11 17300.2 1031.34 17300.4 1031.5C17300.6 1031.65 17300.9 1031.73 17301.2 1031.73C17301.5 1031.73 17301.7 1031.65 17301.9 1031.5C17302.1 1031.34 17302.3 1031.11 17302.3 1030.8C17302.4 1030.49 17302.5 1030.12 17302.5 1029.7C17302.5 1029.04 17302.4 1028.55 17302.2 1028.21C17302 1027.88 17301.6 1027.71 17301.2 1027.71ZM17309.3 1026.34C17310 1026.34 17310.6 1026.63 17311.1 1027.2C17311.6 1027.77 17311.8 1028.61 17311.8 1029.72C17311.8 1030.46 17311.7 1031.08 17311.5 1031.6C17311.3 1032.1 17311 1032.48 17310.6 1032.74C17310.2 1032.99 17309.8 1033.12 17309.3 1033.12C17308.9 1033.12 17308.7 1033.08 17308.4 1033C17308.2 1032.92 17308 1032.82 17307.8 1032.69C17307.7 1032.55 17307.5 1032.41 17307.4 1032.27H17307.3C17307.4 1032.42 17307.4 1032.58 17307.4 1032.75C17307.4 1032.92 17307.4 1033.08 17307.4 1033.24V1035.88H17305.7V1026.46H17307.1L17307.3 1027.31H17307.4C17307.5 1027.14 17307.7 1026.98 17307.9 1026.83C17308 1026.68 17308.2 1026.56 17308.5 1026.47C17308.7 1026.38 17309 1026.34 17309.3 1026.34ZM17308.8 1027.71C17308.4 1027.71 17308.2 1027.78 17308 1027.91C17307.8 1028.04 17307.7 1028.24 17307.6 1028.51C17307.5 1028.78 17307.4 1029.11 17307.4 1029.52V1029.71C17307.4 1030.14 17307.5 1030.51 17307.5 1030.82C17307.6 1031.11 17307.8 1031.34 17308 1031.5C17308.2 1031.65 17308.4 1031.73 17308.8 1031.73C17309.1 1031.73 17309.3 1031.65 17309.5 1031.5C17309.7 1031.34 17309.8 1031.11 17309.9 1030.8C17310 1030.49 17310.1 1030.12 17310.1 1029.7C17310.1 1029.04 17309.9 1028.55 17309.7 1028.21C17309.5 1027.88 17309.2 1027.71 17308.8 1027.71ZM17319.2 1029.72C17319.2 1030.27 17319.1 1030.75 17319 1031.18C17318.8 1031.59 17318.6 1031.95 17318.3 1032.24C17318.1 1032.53 17317.7 1032.75 17317.3 1032.9C17317 1033.05 17316.5 1033.12 17316 1033.12C17315.6 1033.12 17315.2 1033.05 17314.8 1032.9C17314.4 1032.75 17314.1 1032.53 17313.8 1032.24C17313.5 1031.95 17313.3 1031.59 17313.1 1031.16C17313 1030.74 17312.9 1030.26 17312.9 1029.71C17312.9 1028.99 17313 1028.38 17313.3 1027.89C17313.5 1027.38 17313.9 1027 17314.4 1026.74C17314.9 1026.47 17315.4 1026.34 17316.1 1026.34C17316.7 1026.34 17317.2 1026.47 17317.7 1026.74C17318.2 1027 17318.5 1027.38 17318.8 1027.89C17319.1 1028.38 17319.2 1029 17319.2 1029.72ZM17314.6 1029.72C17314.6 1030.16 17314.7 1030.54 17314.8 1030.84C17314.9 1031.14 17315 1031.36 17315.2 1031.51C17315.5 1031.66 17315.7 1031.74 17316.1 1031.74C17316.4 1031.74 17316.7 1031.66 17316.9 1031.51C17317.1 1031.36 17317.2 1031.14 17317.3 1030.84C17317.4 1030.54 17317.5 1030.16 17317.5 1029.72C17317.5 1029.28 17317.4 1028.9 17317.3 1028.61C17317.2 1028.31 17317.1 1028.09 17316.9 1027.95C17316.6 1027.8 17316.4 1027.72 17316 1027.72C17315.6 1027.72 17315.2 1027.89 17315 1028.22C17314.7 1028.56 17314.6 1029.06 17314.6 1029.72ZM17322.4 1026.46V1033H17320.7V1026.46H17322.4ZM17321.6 1023.92C17321.8 1023.92 17322 1023.98 17322.2 1024.1C17322.4 1024.22 17322.5 1024.44 17322.5 1024.77C17322.5 1025.08 17322.4 1025.3 17322.2 1025.43C17322 1025.56 17321.8 1025.62 17321.6 1025.62C17321.3 1025.62 17321.1 1025.56 17320.9 1025.43C17320.7 1025.3 17320.6 1025.08 17320.6 1024.77C17320.6 1024.44 17320.7 1024.22 17320.9 1024.1C17321.1 1023.98 17321.3 1023.92 17321.6 1023.92ZM17327.9 1026.34C17328.7 1026.34 17329.2 1026.53 17329.6 1026.92C17330.1 1027.29 17330.3 1027.9 17330.3 1028.74V1033H17328.6V1029.14C17328.6 1028.66 17328.5 1028.31 17328.3 1028.07C17328.1 1027.83 17327.8 1027.71 17327.5 1027.71C17326.9 1027.71 17326.5 1027.9 17326.3 1028.27C17326.1 1028.65 17326 1029.19 17326 1029.89V1033H17324.3V1026.46H17325.6L17325.8 1027.3H17325.9C17326.1 1027.08 17326.2 1026.9 17326.5 1026.76C17326.7 1026.62 17326.9 1026.51 17327.2 1026.45C17327.4 1026.38 17327.7 1026.34 17327.9 1026.34ZM17334.8 1031.75C17335 1031.75 17335.2 1031.74 17335.4 1031.7C17335.6 1031.66 17335.8 1031.62 17335.9 1031.56V1032.83C17335.7 1032.91 17335.5 1032.98 17335.2 1033.04C17335 1033.09 17334.7 1033.12 17334.3 1033.12C17334 1033.12 17333.6 1033.06 17333.3 1032.93C17333 1032.8 17332.8 1032.58 17332.6 1032.27C17332.4 1031.96 17332.3 1031.52 17332.3 1030.97V1027.74H17331.5V1027.02L17332.4 1026.44L17332.9 1025.06H17334V1026.46H17335.9V1027.74H17334V1030.96C17334 1031.23 17334.1 1031.43 17334.2 1031.56C17334.4 1031.69 17334.6 1031.75 17334.8 1031.75ZM17344.9 1026.34C17345.6 1026.34 17346.2 1026.53 17346.5 1026.92C17346.9 1027.29 17347.1 1027.9 17347.1 1028.74V1033H17345.4V1029.14C17345.4 1028.66 17345.3 1028.31 17345.2 1028.07C17345 1027.83 17344.7 1027.71 17344.4 1027.71C17343.9 1027.71 17343.5 1027.88 17343.3 1028.22C17343.1 1028.56 17343 1029.05 17343 1029.69V1033H17341.3V1029.14C17341.3 1028.82 17341.3 1028.56 17341.2 1028.36C17341.1 1028.14 17341 1027.98 17340.9 1027.88C17340.7 1027.76 17340.5 1027.71 17340.3 1027.71C17340 1027.71 17339.7 1027.79 17339.5 1027.96C17339.3 1028.13 17339.2 1028.38 17339.1 1028.7C17339 1029.02 17338.9 1029.42 17338.9 1029.88V1033H17337.2V1026.46H17338.6L17338.8 1027.3H17338.9C17339 1027.08 17339.2 1026.9 17339.4 1026.76C17339.6 1026.62 17339.8 1026.51 17340 1026.45C17340.3 1026.38 17340.5 1026.34 17340.8 1026.34C17341.3 1026.34 17341.7 1026.42 17342 1026.58C17342.3 1026.74 17342.6 1026.98 17342.8 1027.31H17342.9C17343.1 1026.98 17343.4 1026.73 17343.7 1026.58C17344.1 1026.42 17344.5 1026.34 17344.9 1026.34ZM17351.6 1026.34C17352.2 1026.34 17352.8 1026.46 17353.2 1026.69C17353.6 1026.92 17354 1027.26 17354.2 1027.7C17354.4 1028.14 17354.5 1028.67 17354.5 1029.3V1030.14H17350.3C17350.3 1030.67 17350.5 1031.09 17350.8 1031.39C17351 1031.69 17351.5 1031.84 17352 1031.84C17352.4 1031.84 17352.8 1031.8 17353.1 1031.72C17353.5 1031.63 17353.8 1031.5 17354.2 1031.33V1032.65C17353.9 1032.81 17353.5 1032.93 17353.2 1033C17352.8 1033.08 17352.4 1033.12 17351.9 1033.12C17351.2 1033.12 17350.7 1033 17350.2 1032.76C17349.7 1032.51 17349.3 1032.14 17349 1031.64C17348.7 1031.15 17348.6 1030.53 17348.6 1029.78C17348.6 1029.02 17348.7 1028.38 17349 1027.88C17349.2 1027.37 17349.6 1026.99 17350 1026.74C17350.5 1026.47 17351 1026.34 17351.6 1026.34ZM17351.7 1027.56C17351.3 1027.56 17351 1027.68 17350.7 1027.92C17350.5 1028.16 17350.4 1028.52 17350.3 1029H17352.9C17352.9 1028.72 17352.9 1028.48 17352.8 1028.26C17352.7 1028.04 17352.6 1027.88 17352.4 1027.76C17352.2 1027.63 17351.9 1027.56 17351.7 1027.56ZM17359.7 1026.34C17360.4 1026.34 17360.9 1026.53 17361.4 1026.92C17361.8 1027.29 17362 1027.9 17362 1028.74V1033H17360.3V1029.14C17360.3 1028.66 17360.2 1028.31 17360 1028.07C17359.9 1027.83 17359.6 1027.71 17359.2 1027.71C17358.6 1027.71 17358.2 1027.9 17358 1028.27C17357.8 1028.65 17357.7 1029.19 17357.7 1029.89V1033H17356V1026.46H17357.3L17357.6 1027.3H17357.7C17357.8 1027.08 17358 1026.9 17358.2 1026.76C17358.4 1026.62 17358.6 1026.51 17358.9 1026.45C17359.1 1026.38 17359.4 1026.34 17359.7 1026.34ZM17366.5 1031.75C17366.7 1031.75 17366.9 1031.74 17367.1 1031.7C17367.3 1031.66 17367.5 1031.62 17367.7 1031.56V1032.83C17367.5 1032.91 17367.2 1032.98 17367 1033.04C17366.7 1033.09 17366.4 1033.12 17366.1 1033.12C17365.7 1033.12 17365.3 1033.06 17365 1032.93C17364.7 1032.8 17364.5 1032.58 17364.3 1032.27C17364.1 1031.96 17364 1031.52 17364 1030.97V1027.74H17363.2V1027.02L17364.2 1026.44L17364.7 1025.06H17365.7V1026.46H17367.6V1027.74H17365.7V1030.96C17365.7 1031.23 17365.8 1031.43 17366 1031.56C17366.1 1031.69 17366.3 1031.75 17366.5 1031.75ZM17374.8 1031.75C17375 1031.75 17375.2 1031.74 17375.3 1031.7C17375.5 1031.66 17375.7 1031.62 17375.9 1031.56V1032.83C17375.7 1032.91 17375.5 1032.98 17375.2 1033.04C17374.9 1033.09 17374.6 1033.12 17374.3 1033.12C17373.9 1033.12 17373.6 1033.06 17373.3 1032.93C17373 1032.8 17372.7 1032.58 17372.5 1032.27C17372.4 1031.96 17372.3 1031.52 17372.3 1030.97V1027.74H17371.4V1027.02L17372.4 1026.44L17372.9 1025.06H17374V1026.46H17375.8V1027.74H17374V1030.96C17374 1031.23 17374 1031.43 17374.2 1031.56C17374.3 1031.69 17374.5 1031.75 17374.8 1031.75ZM17378.9 1026.46V1033H17377.2V1026.46H17378.9ZM17378 1023.92C17378.3 1023.92 17378.5 1023.98 17378.7 1024.1C17378.9 1024.22 17379 1024.44 17379 1024.77C17379 1025.08 17378.9 1025.3 17378.7 1025.43C17378.5 1025.56 17378.3 1025.62 17378 1025.62C17377.8 1025.62 17377.6 1025.56 17377.4 1025.43C17377.2 1025.3 17377.1 1025.08 17377.1 1024.77C17377.1 1024.44 17377.2 1024.22 17377.4 1024.1C17377.6 1023.98 17377.8 1023.92 17378 1023.92ZM17383.5 1031.75C17383.7 1031.75 17383.9 1031.74 17384 1031.7C17384.2 1031.66 17384.4 1031.62 17384.6 1031.56V1032.83C17384.4 1032.91 17384.2 1032.98 17383.9 1033.04C17383.6 1033.09 17383.3 1033.12 17383 1033.12C17382.6 1033.12 17382.3 1033.06 17382 1032.93C17381.7 1032.8 17381.4 1032.58 17381.2 1032.27C17381.1 1031.96 17381 1031.52 17381 1030.97V1027.74H17380.1V1027.02L17381.1 1026.44L17381.6 1025.06H17382.7V1026.46H17384.5V1027.74H17382.7V1030.96C17382.7 1031.23 17382.7 1031.43 17382.9 1031.56C17383 1031.69 17383.2 1031.75 17383.5 1031.75ZM17387.6 1033H17385.9V1023.88H17387.6V1033ZM17392.2 1026.34C17392.8 1026.34 17393.3 1026.46 17393.7 1026.69C17394.2 1026.92 17394.5 1027.26 17394.7 1027.7C17395 1028.14 17395.1 1028.67 17395.1 1029.3V1030.14H17390.8C17390.8 1030.67 17391 1031.09 17391.3 1031.39C17391.6 1031.69 17392 1031.84 17392.5 1031.84C17392.9 1031.84 17393.3 1031.8 17393.7 1031.72C17394 1031.63 17394.4 1031.5 17394.7 1031.33V1032.65C17394.4 1032.81 17394.1 1032.93 17393.7 1033C17393.4 1033.08 17392.9 1033.12 17392.4 1033.12C17391.8 1033.12 17391.2 1033 17390.7 1032.76C17390.2 1032.51 17389.8 1032.14 17389.5 1031.64C17389.2 1031.15 17389.1 1030.53 17389.1 1029.78C17389.1 1029.02 17389.2 1028.38 17389.5 1027.88C17389.7 1027.37 17390.1 1026.99 17390.6 1026.74C17391 1026.47 17391.6 1026.34 17392.2 1026.34ZM17392.2 1027.56C17391.8 1027.56 17391.5 1027.68 17391.3 1027.92C17391 1028.16 17390.9 1028.52 17390.9 1029H17393.5C17393.5 1028.72 17393.4 1028.48 17393.3 1028.26C17393.2 1028.04 17393.1 1027.88 17392.9 1027.76C17392.7 1027.63 17392.5 1027.56 17392.2 1027.56Z" fill="#BEBEBE" id="n2922"/>
</g>
</svg>
