<?xml version='1.0' encoding='utf-8'?>
<svg xmlns="http://www.w3.org/2000/svg" xmlns:xlink="http://www.w3.org/1999/xlink" width="384.0" height="384.0" viewBox="0 0 384.0 384.0" fill="none">
  <defs><clipPath id="clip__asset"><rect x="0" y="0" width="384.0" height="384.0"/></clipPath><mask id="mask16_68_6728" style="mask-type:luminance" maskUnits="userSpaceOnUse" x="8121" y="952" width="26" height="512">
<path d="M8133.2 1040C8137.68 1040 8139.92 1040 8141.63 1040.87C8143.14 1041.64 8144.36 1042.86 8145.13 1044.37C8146 1046.08 8146 1048.32 8146 1052.8L8146 1363.2C8146 1367.68 8146 1369.92 8145.13 1371.63C8144.36 1373.14 8143.14 1374.36 8141.63 1375.13C8139.92 1376 8137.68 1376 8133.2 1376L8122 1376L8122 1040L8133.2 1040Z" fill="white" stroke="black" id="n145"/>
</mask>
<mask id="mask17_68_6728" style="mask-type:alpha" maskUnits="userSpaceOnUse" x="7854" y="952" width="512" height="512">
<path d="M8122 1040L8122 1376L8086.8 1376C8082.32 1376 8080.08 1376 8078.37 1375.13C8076.86 1374.36 8075.64 1373.14 8074.87 1371.63C8074 1369.92 8074 1367.68 8074 1363.2L8074 1052.8C8074 1048.32 8074 1046.08 8074.87 1044.37C8075.64 1042.86 8076.86 1041.64 8078.37 1040.87C8080.08 1040 8082.32 1040 8086.8 1040L8122 1040Z" fill="white" stroke="black" id="n150"/>
</mask>
<mask id="mask18_68_6728" style="mask-type:luminance" maskUnits="userSpaceOnUse" x="7809" y="952" width="26" height="512">
<path d="M7822.8 1376C7818.32 1376 7816.08 1376 7814.37 1375.13C7812.86 1374.36 7811.64 1373.14 7810.87 1371.63C7810 1369.92 7810 1367.68 7810 1363.2L7810 1052.8C7810 1048.32 7810 1046.08 7810.87 1044.37C7811.64 1042.86 7812.86 1041.64 7814.37 1040.87C7816.08 1040 7818.32 1040 7822.8 1040L7834 1040L7834 1376L7822.8 1376Z" fill="white" stroke="black" id="n158"/>
</mask>
<mask id="mask19_68_6728" style="mask-type:alpha" maskUnits="userSpaceOnUse" x="7590" y="952" width="512" height="512">
<path d="M7834 1040L7834 1376L7869.2 1376C7873.68 1376 7875.92 1376 7877.63 1375.13C7879.14 1374.36 7880.36 1373.14 7881.13 1371.63C7882 1369.92 7882 1367.68 7882 1363.2L7882 1052.8C7882 1048.32 7882 1046.08 7881.13 1044.37C7880.36 1042.86 7879.14 1041.64 7877.63 1040.87C7875.92 1040 7873.68 1040 7869.2 1040L7834 1040Z" fill="white" stroke="black" id="n162"/>
</mask>
</defs>
  <g clip-path="url(#clip__asset)" transform="translate(-7786.0 -1016.0)"><path d="M8074 1208H7882" stroke="#BEBEBE" stroke-linecap="round" id="n135"/>
<path d="M8074 1376H7882" stroke="#BEBEBE" stroke-linecap="round" id="n136"/>
<path d="M8074 1040H7882" stroke="#BEBEBE" stroke-linecap="round" id="n137"/>
<rect x="7884" y="1208" width="188" height="168" fill="#F0F0F0" id="n138"/>
<path d="M8044.47 1218.25L7913.59 1219.39L7913.55 1214.9L7903.73 1211.65L7903.65 1202.34L7991.77 1201.57L8005.92 1187.17L8004.25 1182.29L8002.62 1182.31L8004.24 1181.07L8007.1 1181.04L8007.08 1179L8007.89 1179L8004.54 1168.42L8006.98 1168.4L8012.79 1178.95C8016.58 1178.92 8020.37 1179.3 8024.09 1180.09L8033.21 1182.04L8031.17 1182.06L8028.77 1186.97L8034.94 1193.04L8051.26 1192.9C8051.26 1192.9 8048.07 1196.91 8046.43 1200.08C8045.07 1202.7 8043.23 1207.25 8043.23 1207.25L8047.46 1206.44C8049.92 1205.97 8052.21 1207.84 8052.23 1210.35C8052.27 1214.68 8048.79 1218.21 8044.47 1218.25Z" fill="white" id="n139"/>
<path d="M7903.73 1211.65L8052.23 1210.35M7903.73 1211.65L7913.55 1214.9L7913.59 1219.39L8044.47 1218.25C8048.79 1218.21 8052.27 1214.68 8052.23 1210.35M7903.73 1211.65L7903.65 1202.34L7991.77 1201.57M8052.23 1210.35C8052.21 1207.84 8049.92 1205.97 8047.46 1206.44L8043.23 1207.25C8043.23 1207.25 8045.07 1202.7 8046.43 1200.08C8048.07 1196.91 8051.26 1192.9 8051.26 1192.9L8034.94 1193.04M7991.77 1201.57L7997.07 1201.53L8005.16 1193.3L8034.94 1193.04M7991.77 1201.57L8005.92 1187.17M8005.92 1187.17L8028.77 1186.97M8005.92 1187.17L8004.25 1182.29L8031.17 1182.06L8028.77 1186.97M8028.77 1186.97L8034.94 1193.04M8012.79 1178.95L8006.98 1168.4L8004.54 1168.42L8007.89 1179M8012.79 1178.95L8007.89 1179M8012.79 1178.95C8016.58 1178.92 8020.37 1179.3 8024.09 1180.09L8033.21 1182.04L8002.62 1182.31L8004.24 1181.07L8007.1 1181.04L8007.08 1179L8007.89 1179" stroke="#8E8E8E" id="n140"/>
<path d="M8133.2 1040C8137.68 1040 8139.92 1040 8141.63 1040.87C8143.14 1041.64 8144.36 1042.86 8145.13 1044.37C8146 1046.08 8146 1048.32 8146 1052.8L8146 1363.2C8146 1367.68 8146 1369.92 8145.13 1371.63C8144.36 1373.14 8143.14 1374.36 8141.63 1375.13C8139.92 1376 8137.68 1376 8133.2 1376L8086.8 1376C8082.32 1376 8080.08 1376 8078.37 1375.13C8076.86 1374.36 8075.64 1373.14 8074.87 1371.63C8074 1369.92 8074 1367.68 8074 1363.2L8074 1052.8C8074 1048.32 8074 1046.08 8074.87 1044.37C8075.64 1042.86 8076.86 1041.64 8078.37 1040.87C8080.08 1040 8082.32 1040 8086.8 1040L8133.2 1040Z" fill="white" stroke="white" id="n141"/>
<path d="M8122 1040L8122 1376L8086.8 1376C8082.32 1376 8080.08 1376 8078.37 1375.13C8076.86 1374.36 8075.64 1373.14 8074.87 1371.63C8074 1369.92 8074 1367.68 8074 1363.2L8074 1052.8C8074 1048.32 8074 1046.08 8074.87 1044.37C8075.64 1042.86 8076.86 1041.64 8078.37 1040.87C8080.08 1040 8082.32 1040 8086.8 1040L8122 1040Z" fill="#F0F0F0" stroke="#F0F0F0" id="n142"/>
<path d="M8133.2 1040C8137.68 1040 8139.92 1040 8141.63 1040.87C8143.14 1041.64 8144.36 1042.86 8145.13 1044.37C8146 1046.08 8146 1048.32 8146 1052.8L8146 1363.2C8146 1367.68 8146 1369.92 8145.13 1371.63C8144.36 1373.14 8143.14 1374.36 8141.63 1375.13C8139.92 1376 8137.68 1376 8133.2 1376L8086.8 1376C8082.32 1376 8080.08 1376 8078.37 1375.13C8076.86 1374.36 8075.64 1373.14 8074.87 1371.63C8074 1369.92 8074 1367.68 8074 1363.2L8074 1052.8C8074 1048.32 8074 1046.08 8074.87 1044.37C8075.64 1042.86 8076.86 1041.64 8078.37 1040.87C8080.08 1040 8082.32 1040 8086.8 1040L8133.2 1040Z" stroke="#BEBEBE" id="n143"/>
<path d="M8146 1208L8074 1208" stroke="#BEBEBE" stroke-linecap="square" id="n144"/>
<g mask="url(#mask16_68_6728)" id="n146">
<path d="M8134 1208L8126 1208M8134 1224.8L8126 1224.8M8134 1241.6L8126 1241.6M8134 1258.4L8126 1258.4M8134 1275.2L8126 1275.2M8134 1292L8126 1292M8134 1308.8L8126 1308.8M8134 1325.6L8126 1325.6M8134 1342.4L8126 1342.4M8134 1359.2L8126 1359.2M8134 1376L8126 1376M8134 1191.2L8126 1191.2M8134 1174.4L8126 1174.4M8134 1157.6L8126 1157.6M8134 1140.8L8126 1140.8M8134 1124L8126 1124M8134 1107.2L8126 1107.2M8134 1090.4L8126 1090.4M8134 1073.6L8126 1073.6M8134 1056.8L8126 1056.8M8134 1040L8126 1040" stroke="#BEBEBE" id="n147"/>
<path d="M8150 1208L8126 1208M8150 1292L8126 1292M8150 1376L8126 1376M8150 1124L8126 1124M8150 1040L8126 1040" stroke="#BEBEBE" id="n148"/>
<path d="M8150 1208L8122 1208" stroke="#BEBEBE" id="n149"/>
</g>
<g mask="url(#mask17_68_6728)" id="n151">
<rect width="48" height="42" transform="matrix(1 0 0 -1 8074 1250)" fill="#9CC1F5" stroke="#9CC1F5" id="n152"/>
<rect width="48" height="8" rx="4" transform="matrix(1 0 0 -1 8074 1253.72)" fill="#2D548B" stroke="#9CC1F5" id="n153"/>
</g>
<path d="M7822.8 1376C7818.32 1376 7816.08 1376 7814.37 1375.13C7812.86 1374.36 7811.64 1373.14 7810.87 1371.63C7810 1369.92 7810 1367.68 7810 1363.2L7810 1052.8C7810 1048.32 7810 1046.08 7810.87 1044.37C7811.64 1042.86 7812.86 1041.64 7814.37 1040.87C7816.08 1040 7818.32 1040 7822.8 1040L7869.2 1040C7873.68 1040 7875.92 1040 7877.63 1040.87C7879.14 1041.64 7880.36 1042.86 7881.13 1044.37C7882 1046.08 7882 1048.32 7882 1052.8L7882 1363.2C7882 1367.68 7882 1369.92 7881.13 1371.63C7880.36 1373.14 7879.14 1374.36 7877.63 1375.13C7875.92 1376 7873.68 1376 7869.2 1376L7822.8 1376Z" fill="white" stroke="white" id="n154"/>
<path d="M7834 1376L7834 1040L7869.2 1040C7873.68 1040 7875.92 1040 7877.63 1040.87C7879.14 1041.64 7880.36 1042.86 7881.13 1044.37C7882 1046.08 7882 1048.32 7882 1052.8L7882 1363.2C7882 1367.68 7882 1369.92 7881.13 1371.63C7880.36 1373.14 7879.14 1374.36 7877.63 1375.13C7875.92 1376 7873.68 1376 7869.2 1376L7834 1376Z" fill="#F0F0F0" stroke="#F0F0F0" id="n155"/>
<path d="M7822.8 1376C7818.32 1376 7816.08 1376 7814.37 1375.13C7812.86 1374.36 7811.64 1373.14 7810.87 1371.63C7810 1369.92 7810 1367.68 7810 1363.2L7810 1052.8C7810 1048.32 7810 1046.08 7810.87 1044.37C7811.64 1042.86 7812.86 1041.64 7814.37 1040.87C7816.08 1040 7818.32 1040 7822.8 1040L7869.2 1040C7873.68 1040 7875.92 1040 7877.63 1040.87C7879.14 1041.64 7880.36 1042.86 7881.13 1044.37C7882 1046.08 7882 1048.32 7882 1052.8L7882 1363.2C7882 1367.68 7882 1369.92 7881.13 1371.63C7880.36 1373.14 7879.14 1374.36 7877.63 1375.13C7875.92 1376 7873.68 1376 7869.2 1376L7822.8 1376Z" stroke="#BEBEBE" id="n156"/>
<path d="M7810 1208L7882 1208" stroke="#BEBEBE" stroke-linecap="square" id="n157"/>
<g mask="url(#mask18_68_6728)" id="n159">
<path d="M7822 1208L7830 1208M7822 1191.2L7830 1191.2M7822 1174.4L7830 1174.4M7822 1157.6L7830 1157.6M7822 1140.8L7830 1140.8M7822 1124L7830 1124M7822 1107.2L7830 1107.2M7822 1090.4L7830 1090.4M7822 1073.6L7830 1073.6M7822 1056.8L7830 1056.8M7822 1040L7830 1040M7822 1224.8L7830 1224.8M7822 1241.6L7830 1241.6M7822 1258.4L7830 1258.4M7822 1275.2L7830 1275.2M7822 1292L7830 1292M7822 1308.8L7830 1308.8M7822 1325.6L7830 1325.6M7822 1342.4L7830 1342.4M7822 1359.2L7830 1359.2M7822 1376L7830 1376" stroke="#BEBEBE" id="n160"/>
<path d="M7806 1208L7830 1208M7806 1124L7830 1124M7806 1040L7830 1040M7806 1292L7830 1292M7806 1376L7830 1376" stroke="#BEBEBE" id="n161"/>
</g>
<g mask="url(#mask19_68_6728)" id="n163">
<rect width="48" height="84" transform="matrix(1 0 0 -1 7834 1292)" fill="#9CC1F5" stroke="#9CC1F5" id="n164"/>
<rect width="48" height="8" rx="4" transform="matrix(1 0 0 -1 7834 1295.72)" fill="#2D548B" stroke="#9CC1F5" id="n165"/>
</g>
</g>
</svg>
