<?xml version='1.0' encoding='utf-8'?>
<svg xmlns="http://www.w3.org/2000/svg" xmlns:xlink="http://www.w3.org/1999/xlink" width="160.0" height="160.0" viewBox="0 0 160.0 160.0" fill="none">
  <defs>
    <clipPath id="clip__asset">
      <rect x="0" y="0" width="160.0" height="160.0"/>
    </clipPath>
  </defs>
  <g clip-path="url(#clip__asset)" transform="translate(-4104.0 -472.0)"><ellipse cx="4184" cy="533" rx="4" ry="4" transform="rotate(90 4184 533)" fill="#8E8E8E" id="n6"/>
<path d="M4190 532C4191.1 532 4192 532.895 4192 534L4192 558C4192 559.105 4191.1 560 4190 560L4178 560C4176.9 560 4176 559.105 4176 558L4176 534C4176 532.895 4176.9 532 4178 532L4190 532Z" fill="white" stroke="#8E8E8E" id="n7"/>
<path d="M4217.61 518.52C4217.68 518.429 4217.56 518.313 4217.47 518.379L4196.03 533.752C4193.99 535.214 4191.55 536 4189.04 536H4178C4175.4 536 4172.88 535.158 4170.8 533.6L4150.52 518.391C4150.43 518.322 4150.31 518.435 4150.38 518.528L4165.75 539.971C4167.21 542.009 4168 544.454 4168 546.963V557.037C4168 559.545 4167.21 561.991 4165.75 564.029L4150.38 585.472C4150.31 585.565 4150.43 585.679 4150.52 585.61L4170.8 570.4C4172.88 568.842 4175.4 568 4178 568H4189.04C4191.55 568 4193.99 568.786 4196.03 570.248L4217.47 585.622C4217.56 585.688 4217.68 585.572 4217.61 585.48L4202.4 565.201C4200.84 563.124 4200 560.597 4200 558.001V545.999C4200 543.403 4200.84 540.876 4202.4 538.799L4217.61 518.52Z" fill="white" stroke="#8E8E8E" id="n8"/>
<path fill-rule="evenodd" clip-rule="evenodd" d="M4149.62 513C4148.53 513 4147.52 513.35 4146.7 513.942L4146.3 513.596C4145.87 513.217 4145.3 513.044 4144.72 513.119L4128.01 515.334C4127.25 515.435 4126.61 515.965 4126.37 516.696L4126.05 517.689C4125.84 518.336 4126.32 519 4127 519H4144.72C4145.19 521.282 4147.2 523 4149.62 523C4150.71 523 4151.72 522.649 4152.55 522.056L4152.94 522.403C4153.37 522.782 4153.95 522.956 4154.52 522.881L4171.23 520.665C4171.99 520.564 4172.63 520.034 4172.87 519.303L4173.19 518.31C4173.41 517.664 4172.92 517 4172.24 517H4154.52C4154.06 514.718 4152.04 513 4149.62 513ZM4147.89 519C4148.24 519.597 4148.88 520 4149.62 520C4149.8 520 4149.96 519.975 4150.12 519.935L4151.77 521.375C4151.15 521.77 4150.41 522 4149.62 522C4147.76 522 4146.19 520.725 4145.75 519H4147.89ZM4149.62 514C4151.49 514 4153.05 515.275 4153.5 517H4151.35C4151.01 516.403 4150.36 516 4149.62 516C4149.45 516 4149.29 516.024 4149.13 516.064L4147.48 514.623C4148.1 514.229 4148.83 514 4149.62 514Z" fill="#8E8E8E" id="n9"/>
<path fill-rule="evenodd" clip-rule="evenodd" d="M4144.2 563.15C4143.52 563.114 4143 563.751 4143.18 564.408L4147.77 581.526C4145.68 582.564 4144.54 584.957 4145.17 587.293C4145.45 588.348 4146.05 589.232 4146.84 589.873L4146.61 590.344C4146.35 590.861 4146.33 591.462 4146.55 591.994L4153.02 607.562C4153.31 608.272 4153.99 608.751 4154.76 608.792L4155.8 608.848C4156.48 608.884 4157 608.248 4156.82 607.591L4152.23 590.473C4154.32 589.435 4155.46 587.042 4154.83 584.706C4154.55 583.652 4153.95 582.768 4153.16 582.127L4153.4 581.654C4153.65 581.137 4153.67 580.537 4153.45 580.005L4146.98 564.436C4146.69 563.726 4146.01 563.247 4145.24 563.206L4144.2 563.15ZM4152.71 583.056C4153.25 583.553 4153.66 584.203 4153.86 584.964C4154.35 586.765 4153.52 588.608 4151.97 589.483L4151.41 587.412C4151.9 586.923 4152.12 586.196 4151.93 585.482C4151.89 585.316 4151.82 585.161 4151.74 585.018L4152.71 583.056ZM4148.59 584.586C4148.1 585.075 4147.88 585.802 4148.07 586.517C4148.11 586.683 4148.18 586.838 4148.26 586.981L4147.29 588.944C4146.75 588.447 4146.34 587.797 4146.14 587.035C4145.65 585.235 4146.48 583.392 4148.03 582.516L4148.59 584.586Z" fill="#8E8E8E" id="n10"/>
<path fill-rule="evenodd" clip-rule="evenodd" d="M4200.62 504.886C4199.91 504.592 4199.09 504.732 4198.52 505.246L4197.74 505.944C4197.24 506.399 4197.32 507.215 4197.91 507.555L4213.26 516.415C4212.52 518.623 4213.41 521.12 4215.5 522.329C4216.44 522.875 4217.49 523.076 4218.5 522.973L4218.67 523.472C4218.86 524.017 4219.27 524.455 4219.8 524.675L4235.38 531.111C4236.09 531.405 4236.91 531.265 4237.48 530.751L4238.26 530.053C4238.76 529.598 4238.68 528.784 4238.09 528.444L4222.74 519.583C4223.48 517.375 4222.59 514.878 4220.5 513.669C4219.56 513.124 4218.51 512.922 4217.5 513.024L4217.33 512.525C4217.14 511.981 4216.73 511.543 4216.2 511.323L4200.62 504.886ZM4216 518C4216 518.69 4216.36 519.362 4217 519.731C4217.15 519.817 4217.31 519.88 4217.46 519.924L4218.17 521.994C4217.44 522.026 4216.68 521.858 4216 521.463C4214.39 520.531 4213.67 518.644 4214.14 516.928L4216 518ZM4217.83 514.003C4218.57 513.972 4219.32 514.141 4220 514.535C4221.61 515.467 4222.33 517.354 4221.85 519.07L4220 517.998C4220 517.308 4219.64 516.637 4219 516.267C4218.85 516.181 4218.69 516.118 4218.54 516.074L4217.83 514.003Z" fill="#8E8E8E" id="n11"/>
<path fill-rule="evenodd" clip-rule="evenodd" d="M4238.57 574.481C4238.43 573.816 4237.68 573.482 4237.09 573.822L4221.74 582.683C4220.2 580.938 4217.59 580.459 4215.5 581.668C4214.55 582.214 4213.86 583.022 4213.44 583.947L4212.92 583.844C4212.36 583.732 4211.77 583.87 4211.32 584.221L4197.95 594.495C4197.34 594.964 4197.06 595.741 4197.21 596.494L4197.43 597.516C4197.57 598.181 4198.32 598.515 4198.91 598.176L4214.26 589.314C4215.8 591.059 4218.41 591.537 4220.5 590.328C4221.44 589.783 4222.14 588.976 4222.56 588.052L4223.08 588.153C4223.64 588.265 4224.23 588.127 4224.68 587.776L4238.05 577.503C4238.66 577.034 4238.94 576.255 4238.79 575.503L4238.57 574.481ZM4221.54 587.851C4221.2 588.502 4220.68 589.069 4220 589.463C4218.39 590.395 4216.39 590.074 4215.14 588.802L4217 587.729C4217.6 588.074 4218.36 588.1 4219 587.73C4219.15 587.644 4219.28 587.54 4219.4 587.426L4221.54 587.851ZM4216 582.534C4217.61 581.602 4219.61 581.923 4220.86 583.195L4219 584.267C4218.4 583.923 4217.64 583.897 4217 584.266C4216.85 584.353 4216.72 584.457 4216.6 584.572L4214.46 584.147C4214.79 583.496 4215.32 582.929 4216 582.534Z" fill="#8E8E8E" id="n12"/>
<path d="M4187.5 544C4187.5 544.276 4187.28 544.5 4187 544.5C4186.72 544.5 4186.5 544.276 4186.5 544L4187 544L4187.5 544ZM4185.5 544C4185.5 544.276 4185.28 544.5 4185 544.5C4184.72 544.5 4184.5 544.276 4184.5 544L4185 544L4185.5 544ZM4183.5 544C4183.5 544.276 4183.28 544.5 4183 544.5C4182.72 544.5 4182.5 544.276 4182.5 544L4183 544L4183.5 544ZM4181.5 544C4181.5 544.276 4181.28 544.5 4181 544.5C4180.72 544.5 4180.5 544.276 4180.5 544L4181 544L4181.5 544ZM4187 544L4186.5 544L4186.5 536L4187 536L4187.5 536L4187.5 544L4187 544ZM4185 544L4184.5 544L4184.5 536L4185 536L4185.5 536L4185.5 544L4185 544ZM4183 544L4182.5 544L4182.5 536L4183 536L4183.5 536L4183.5 544L4183 544ZM4181 544L4180.5 544L4180.5 536L4181 536L4181.5 536L4181.5 544L4181 544Z" fill="#8E8E8E" id="n13"/>
<path d="M4180.5 560C4180.5 559.724 4180.72 559.5 4181 559.5C4181.28 559.5 4181.5 559.724 4181.5 560L4181 560L4180.5 560ZM4182.5 560C4182.5 559.724 4182.72 559.5 4183 559.5C4183.28 559.5 4183.5 559.724 4183.5 560L4183 560L4182.5 560ZM4184.5 560C4184.5 559.724 4184.72 559.5 4185 559.5C4185.28 559.5 4185.5 559.724 4185.5 560L4185 560L4184.5 560ZM4186.5 560C4186.5 559.724 4186.72 559.5 4187 559.5C4187.28 559.5 4187.5 559.724 4187.5 560L4187 560L4186.5 560ZM4181 560L4181.5 560L4181.5 568L4181 568L4180.5 568L4180.5 560L4181 560ZM4183 560L4183.5 560L4183.5 568L4183 568L4182.5 568L4182.5 560L4183 560ZM4185 560L4185.5 560L4185.5 568L4185 568L4184.5 568L4184.5 560L4185 560ZM4187 560L4187.5 560L4187.5 568L4187 568L4186.5 568L4186.5 560L4187 560Z" fill="#8E8E8E" id="n14"/>
</g>
</svg>
