<?xml version='1.0' encoding='utf-8'?>
<svg xmlns="http://www.w3.org/2000/svg" xmlns:xlink="http://www.w3.org/1999/xlink" width="512.0" height="512.0" viewBox="0 0 512.0 512.0" fill="none">
  <defs><clipPath id="clip__asset"><rect x="0" y="0" width="512.0" height="512.0"/></clipPath><mask id="path-648-inside-54_68_6728" fill="white">
<path d="M21565.6 1181.33C21564.5 1182.22 21563 1182.08 21562.1 1181.03L21554.4 1171.83C21553.5 1170.78 21553.6 1169.2 21554.7 1168.31C21555.7 1167.42 21557.3 1167.56 21558.2 1168.62L21565.9 1177.81C21566.8 1178.87 21566.7 1180.45 21565.6 1181.33Z" id="n810"/>
</mask>
<mask id="path-650-inside-55_68_6728" fill="white">
<path d="M21328.4 1181.33C21327.3 1180.45 21327.2 1178.87 21328.1 1177.81L21335.8 1168.62C21336.7 1167.56 21338.3 1167.42 21339.3 1168.31C21340.4 1169.2 21340.5 1170.78 21339.6 1171.83L21331.9 1181.03C21331 1182.08 21329.5 1182.22 21328.4 1181.33Z" id="n813"/>
</mask>
</defs>
  <g clip-path="url(#clip__asset)" transform="translate(-21191.0 -784.0)"><path d="M21565.6 1181.33C21564.5 1182.22 21563 1182.08 21562.1 1181.03L21554.4 1171.83C21553.5 1170.78 21553.6 1169.2 21554.7 1168.31C21555.7 1167.42 21557.3 1167.56 21558.2 1168.62L21565.9 1177.81C21566.8 1178.87 21566.7 1180.45 21565.6 1181.33Z" fill="#BEBEBE" id="n811"/>
<path d="M21565.9 1177.81L21566.7 1177.17L21565.9 1177.81ZM21565.6 1181.33L21565 1180.57C21564.3 1181.1 21563.4 1181.02 21562.8 1180.38L21562.1 1181.03L21561.3 1181.67C21562.6 1183.15 21564.8 1183.34 21566.2 1182.1L21565.6 1181.33ZM21562.1 1181.03L21562.8 1180.38L21555.1 1171.19L21554.4 1171.83L21553.6 1172.48L21561.3 1181.67L21562.1 1181.03ZM21554.4 1171.83L21555.1 1171.19C21554.6 1170.56 21554.7 1169.61 21555.3 1169.08L21554.7 1168.31L21554 1167.54C21552.5 1168.79 21552.4 1170.99 21553.6 1172.48L21554.4 1171.83ZM21554.7 1168.31L21555.3 1169.08C21555.9 1168.54 21556.9 1168.63 21557.4 1169.26L21558.2 1168.62L21559 1167.98C21557.7 1166.5 21555.5 1166.3 21554 1167.54L21554.7 1168.31ZM21558.2 1168.62L21557.4 1169.26L21565.1 1178.45L21565.9 1177.81L21566.7 1177.17L21559 1167.98L21558.2 1168.62ZM21565.9 1177.81L21565.1 1178.45C21565.7 1179.09 21565.6 1180.03 21565 1180.57L21565.6 1181.33L21566.2 1182.1C21567.7 1180.86 21567.9 1178.65 21566.7 1177.17L21565.9 1177.81Z" fill="#BEBEBE" mask="url(#path-648-inside-54_68_6728)" id="n812"/>
<path d="M21328.4 1181.33C21327.3 1180.45 21327.2 1178.87 21328.1 1177.81L21335.8 1168.62C21336.7 1167.56 21338.3 1167.42 21339.3 1168.31C21340.4 1169.2 21340.5 1170.78 21339.6 1171.83L21331.9 1181.03C21331 1182.08 21329.5 1182.22 21328.4 1181.33Z" fill="#BEBEBE" id="n814"/>
<path d="M21328.1 1177.81L21328.9 1178.46L21328.1 1177.81ZM21335.8 1168.62L21335 1167.98L21335.8 1168.62ZM21339.6 1171.83L21340.4 1172.48L21339.6 1171.83ZM21331.9 1181.03L21331.2 1180.38L21331.9 1181.03ZM21328.4 1181.33L21329 1180.57C21328.4 1180.04 21328.3 1179.09 21328.9 1178.46L21328.1 1177.81L21327.3 1177.17C21326.1 1178.65 21326.3 1180.86 21327.8 1182.1L21328.4 1181.33ZM21328.1 1177.81L21328.9 1178.46L21336.6 1169.26L21335.8 1168.62L21335 1167.98L21327.3 1177.17L21328.1 1177.81ZM21335.8 1168.62L21336.6 1169.26C21337.1 1168.63 21338.1 1168.55 21338.7 1169.08L21339.3 1168.31L21340 1167.55C21338.5 1166.3 21336.3 1166.5 21335 1167.98L21335.8 1168.62ZM21339.3 1168.31L21338.7 1169.08C21339.3 1169.61 21339.4 1170.56 21338.9 1171.19L21339.6 1171.83L21340.4 1172.48C21341.7 1171 21341.5 1168.79 21340 1167.55L21339.3 1168.31ZM21339.6 1171.83L21338.9 1171.19L21331.2 1180.38L21331.9 1181.03L21332.7 1181.67L21340.4 1172.48L21339.6 1171.83ZM21331.9 1181.03L21331.2 1180.38C21330.6 1181.02 21329.7 1181.1 21329 1180.57L21328.4 1181.33L21327.8 1182.1C21329.2 1183.34 21331.5 1183.15 21332.7 1181.67L21331.9 1181.03Z" fill="#BEBEBE" mask="url(#path-650-inside-55_68_6728)" id="n815"/>
</g>
</svg>
