<?xml version='1.0' encoding='utf-8'?>
<svg xmlns="http://www.w3.org/2000/svg" xmlns:xlink="http://www.w3.org/1999/xlink" width="48.0" height="48.0" viewBox="0 0 48.0 48.0" fill="none">
  <defs><clipPath id="clip__asset"><rect x="0" y="0" width="48.0" height="48.0"/></clipPath><mask id="mask33_68_6728" style="mask-type:luminance" maskUnits="userSpaceOnUse" x="2386" y="225" width="38" height="32">
<path d="M2393.69 255.314C2392.91 256.095 2391.63 256.101 2390.94 255.238C2389.15 252.995 2387.91 250.347 2387.35 247.512C2386.65 244.02 2387.01 240.401 2388.37 237.112C2389.73 233.823 2392.04 231.011 2395 229.034C2397.96 227.056 2401.44 226 2405 226C2408.56 226 2412.04 227.056 2415 229.034C2417.96 231.011 2420.27 233.823 2421.63 237.112C2422.99 240.401 2423.35 244.02 2422.65 247.512C2422.09 250.347 2420.85 252.995 2419.06 255.238C2418.37 256.101 2417.09 256.095 2416.31 255.314L2406.41 245.414C2405.63 244.633 2404.37 244.633 2403.59 245.414L2393.69 255.314Z" fill="white" stroke="black" id="n393"/>
</mask>
</defs>
  <g clip-path="url(#clip__asset)" transform="translate(-2381.0 -220.0)"><path d="M2393.69 255.314C2392.91 256.095 2391.63 256.101 2390.94 255.238C2389.15 252.995 2387.91 250.347 2387.35 247.512C2386.65 244.02 2387.01 240.401 2388.37 237.112C2389.73 233.823 2392.04 231.011 2395 229.034C2397.96 227.056 2401.44 226 2405 226C2408.56 226 2412.04 227.056 2415 229.034C2417.96 231.011 2420.27 233.823 2421.63 237.112C2422.99 240.401 2423.35 244.02 2422.65 247.512C2422.09 250.347 2420.85 252.995 2419.06 255.238C2418.37 256.101 2417.09 256.095 2416.31 255.314L2406.41 245.414C2405.63 244.633 2404.37 244.633 2403.59 245.414L2393.69 255.314Z" fill="white" stroke="#BEBEBE" id="n392"/>
<g mask="url(#mask33_68_6728)" id="n394">
<path d="M2392.27 256.728C2390.6 255.056 2389.27 253.072 2388.37 250.888C2387.47 248.704 2387 246.364 2387 244C2387 241.636 2387.47 239.296 2388.37 237.112C2389.27 234.928 2390.6 232.944 2392.27 231.272L2405 244L2392.27 256.728Z" fill="#9CC1F5" id="n395"/>
</g>
<rect x="2390.86" y="231.979" width="3" height="21" rx="1.5" transform="rotate(-45 2390.86 231.979)" fill="#2D548B" stroke="#F7F7F7" id="n396"/>
<circle cx="2405" cy="244.003" r="3" transform="rotate(-45 2405 244.003)" fill="#2D548B" id="n397"/>
<path d="M2404.33 254.667H2405.67V257.334H2408.33V258.667H2405.67V261.334H2404.33V258.667H2401.67V257.334H2404.33V254.667Z" fill="#535353" id="n398"/>
<path fill-rule="evenodd" clip-rule="evenodd" d="M2398.07 257.011L2404.01 251.075C2404.55 250.531 2405.45 250.531 2405.99 251.075L2411.93 257.011C2412.47 257.555 2412.47 258.446 2411.93 258.99L2405.99 264.926C2405.45 265.47 2404.55 265.47 2404.01 264.926L2398.07 258.99C2397.53 258.446 2397.53 257.555 2398.07 257.011ZM2405 252L2399 258L2405 264L2411 258L2405 252Z" fill="#535353" id="n399"/>
</g>
</svg>
