<?xml version='1.0' encoding='utf-8'?>
<svg xmlns="http://www.w3.org/2000/svg" xmlns:xlink="http://www.w3.org/1999/xlink" width="384.0" height="88.0" viewBox="0 0 384.0 88.0" fill="none">
  <defs><clipPath id="clip__asset"><rect x="0" y="0" width="384.0" height="88.0"/></clipPath><mask id="mask132_68_6728" style="mask-type:luminance" maskUnits="userSpaceOnUse" x="3048" y="623" width="512" height="26">
<path d="M3136 636.8C3136 632.32 3136 630.079 3136.87 628.368C3137.64 626.863 3138.86 625.639 3140.37 624.872C3142.08 624 3144.32 624 3148.8 624H3459.2C3463.68 624 3465.92 624 3467.63 624.872C3469.14 625.639 3470.36 626.863 3471.13 628.368C3472 630.079 3472 632.32 3472 636.8V648H3136V636.8Z" fill="white" stroke="black" id="n856"/>
</mask>
<mask id="mask133_68_6728" style="mask-type:alpha" maskUnits="userSpaceOnUse" x="3048" y="647" width="512" height="50">
<path d="M3136 648H3472V683.2C3472 687.68 3472 689.921 3471.13 691.632C3470.36 693.137 3469.14 694.361 3467.63 695.128C3465.92 696 3463.68 696 3459.2 696H3148.8C3144.32 696 3142.08 696 3140.37 695.128C3138.86 694.361 3137.64 693.137 3136.87 691.632C3136 689.921 3136 687.68 3136 683.2V648Z" fill="white" stroke="black" id="n866"/>
</mask>
</defs>
  <g clip-path="url(#clip__asset)" transform="translate(-3112.0 -616.0)"><path d="M3136 636.8C3136 632.32 3136 630.079 3136.87 628.368C3137.64 626.863 3138.86 625.639 3140.37 624.872C3142.08 624 3144.32 624 3148.8 624H3459.2C3463.68 624 3465.92 624 3467.63 624.872C3469.14 625.639 3470.36 626.863 3471.13 628.368C3472 630.079 3472 632.32 3472 636.8V683.2C3472 687.68 3472 689.921 3471.13 691.632C3470.36 693.137 3469.14 694.361 3467.63 695.128C3465.92 696 3463.68 696 3459.2 696H3148.8C3144.32 696 3142.08 696 3140.37 695.128C3138.86 694.361 3137.64 693.137 3136.87 691.632C3136 689.921 3136 687.68 3136 683.2V636.8Z" fill="white" stroke="white" id="n852"/>
<path d="M3136 648H3472V683.2C3472 687.68 3472 689.921 3471.13 691.632C3470.36 693.137 3469.14 694.361 3467.63 695.128C3465.92 696 3463.68 696 3459.2 696H3148.8C3144.32 696 3142.08 696 3140.37 695.128C3138.86 694.361 3137.64 693.137 3136.87 691.632C3136 689.921 3136 687.68 3136 683.2V648Z" fill="#F0F0F0" stroke="#F0F0F0" id="n853"/>
<path d="M3136 636.8C3136 632.32 3136 630.079 3136.87 628.368C3137.64 626.863 3138.86 625.639 3140.37 624.872C3142.08 624 3144.32 624 3148.8 624H3459.2C3463.68 624 3465.92 624 3467.63 624.872C3469.14 625.639 3470.36 626.863 3471.13 628.368C3472 630.079 3472 632.32 3472 636.8V683.2C3472 687.68 3472 689.921 3471.13 691.632C3470.36 693.137 3469.14 694.361 3467.63 695.128C3465.92 696 3463.68 696 3459.2 696H3148.8C3144.32 696 3142.08 696 3140.37 695.128C3138.86 694.361 3137.64 693.137 3136.87 691.632C3136 689.921 3136 687.68 3136 683.2V636.8Z" stroke="#BEBEBE" id="n854"/>
<path d="M3304 624V696" stroke="#BEBEBE" stroke-linecap="square" id="n855"/>
<g mask="url(#mask132_68_6728)" id="n857">
<path d="M3304 636V644M3320.8 636V644M3337.6 636V644M3354.4 636V644M3371.2 636V644M3388 636V644M3404.8 636V644M3421.6 636V644M3438.4 636V644M3455.2 636V644M3472 636V644M3287.2 636V644M3270.4 636V644M3253.6 636V644M3236.8 636V644M3220 636V644M3203.2 636V644M3186.4 636V644M3169.6 636V644M3152.8 636V644M3136 636V644" stroke="#BEBEBE" id="n858"/>
<path d="M3304 620V644M3388 620V644M3472 620V644M3220 620V644M3136 620V644" stroke="#BEBEBE" id="n859"/>
<path d="M3304 620V648" stroke="#BEBEBE" id="n860"/>
</g>
<g mask="url(#mask133_68_6728)" id="n867">
<rect x="3388" y="648" width="48" height="84" transform="rotate(90 3388 648)" fill="#535353" stroke="#535353" id="n868"/>
</g>
<path d="M3397.26 628.9C3397.61 629.677 3397.6 630.663 3397.05 631.479L3389.24 643.051C3388.64 643.932 3387.35 643.932 3386.75 643.051L3378.94 631.479C3378.39 630.663 3378.38 629.677 3378.73 628.9C3379.08 628.123 3379.82 627.5 3380.8 627.5L3395.19 627.5C3396.17 627.5 3396.91 628.123 3397.26 628.9Z" fill="#535353" stroke="white" stroke-linejoin="round" id="n869"/>
</g>
</svg>
