<?xml version='1.0' encoding='utf-8'?>
<svg xmlns="http://www.w3.org/2000/svg" xmlns:xlink="http://www.w3.org/1999/xlink" width="384.0" height="88.0" viewBox="0 0 384.0 88.0" fill="none">
  <defs><clipPath id="clip__asset"><rect x="0" y="0" width="384.0" height="88.0"/></clipPath><mask id="mask122_68_6728" style="mask-type:luminance" maskUnits="userSpaceOnUse" x="2568" y="1056" width="512" height="26">
<path d="M2656 1069.8C2656 1065.32 2656 1063.08 2656.87 1061.37C2657.64 1059.86 2658.86 1058.64 2660.37 1057.87C2662.08 1057 2664.32 1057 2668.8 1057H2979.2C2983.68 1057 2985.92 1057 2987.63 1057.87C2989.14 1058.64 2990.36 1059.86 2991.13 1061.37C2992 1063.08 2992 1065.32 2992 1069.8V1081H2656V1069.8Z" fill="white" stroke="black" id="n782"/>
</mask>
<mask id="mask123_68_6728" style="mask-type:alpha" maskUnits="userSpaceOnUse" x="2568" y="1080" width="512" height="50">
<path d="M2656 1081H2992V1116.2C2992 1120.68 2992 1122.92 2991.13 1124.63C2990.36 1126.14 2989.14 1127.36 2987.63 1128.13C2985.92 1129 2983.68 1129 2979.2 1129H2668.8C2664.32 1129 2662.08 1129 2660.37 1128.13C2658.86 1127.36 2657.64 1126.14 2656.87 1124.63C2656 1122.92 2656 1120.68 2656 1116.2V1081Z" fill="white" stroke="black" id="n789"/>
</mask>
</defs>
  <g clip-path="url(#clip__asset)" transform="translate(-2632.0 -1049.0)"><path d="M2656 1069.8C2656 1065.32 2656 1063.08 2656.87 1061.37C2657.64 1059.86 2658.86 1058.64 2660.37 1057.87C2662.08 1057 2664.32 1057 2668.8 1057H2979.2C2983.68 1057 2985.92 1057 2987.63 1057.87C2989.14 1058.64 2990.36 1059.86 2991.13 1061.37C2992 1063.08 2992 1065.32 2992 1069.8V1116.2C2992 1120.68 2992 1122.92 2991.13 1124.63C2990.36 1126.14 2989.14 1127.36 2987.63 1128.13C2985.92 1129 2983.68 1129 2979.2 1129H2668.8C2664.32 1129 2662.08 1129 2660.37 1128.13C2658.86 1127.36 2657.64 1126.14 2656.87 1124.63C2656 1122.92 2656 1120.68 2656 1116.2V1069.8Z" fill="white" stroke="white" id="n779"/>
<path d="M2656 1081H2992V1116.2C2992 1120.68 2992 1122.92 2991.13 1124.63C2990.36 1126.14 2989.14 1127.36 2987.63 1128.13C2985.92 1129 2983.68 1129 2979.2 1129H2668.8C2664.32 1129 2662.08 1129 2660.37 1128.13C2658.86 1127.36 2657.64 1126.14 2656.87 1124.63C2656 1122.92 2656 1120.68 2656 1116.2V1081Z" fill="#F0F0F0" stroke="#F0F0F0" id="n780"/>
<path d="M2656 1069.8C2656 1065.32 2656 1063.08 2656.87 1061.37C2657.64 1059.86 2658.86 1058.64 2660.37 1057.87C2662.08 1057 2664.32 1057 2668.8 1057H2979.2C2983.68 1057 2985.92 1057 2987.63 1057.87C2989.14 1058.64 2990.36 1059.86 2991.13 1061.37C2992 1063.08 2992 1065.32 2992 1069.8V1116.2C2992 1120.68 2992 1122.92 2991.13 1124.63C2990.36 1126.14 2989.14 1127.36 2987.63 1128.13C2985.92 1129 2983.68 1129 2979.2 1129H2668.8C2664.32 1129 2662.08 1129 2660.37 1128.13C2658.86 1127.36 2657.64 1126.14 2656.87 1124.63C2656 1122.92 2656 1120.68 2656 1116.2V1069.8Z" stroke="#BEBEBE" id="n781"/>
<g mask="url(#mask122_68_6728)" id="n783">
<path d="M2824 1069V1077M2857.6 1069V1077M2891.2 1069V1077M2924.8 1069V1077M2958.4 1069V1077M2992 1069V1077M2790.4 1069V1077M2756.8 1069V1077M2723.2 1069V1077M2689.6 1069V1077M2656 1069V1077" stroke="#BEBEBE" id="n784"/>
<path d="M2824 1053V1077M2992 1053V1077M2656 1053V1077" stroke="#BEBEBE" id="n785"/>
</g>
<g mask="url(#mask123_68_6728)" id="n790">
<rect x="2908" y="1081" width="48" height="252" transform="rotate(90 2908 1081)" fill="#BEBEBE" stroke="#BEBEBE" id="n791"/>
<rect x="2912.44" y="1081" width="48" height="8" rx="4" transform="rotate(90 2912.44 1081)" fill="#535353" stroke="#BEBEBE" id="n792"/>
</g>
<path d="M2917.26 1061.9C2917.61 1062.68 2917.6 1063.66 2917.05 1064.48L2909.24 1076.05C2908.64 1076.93 2907.35 1076.93 2906.75 1076.05L2898.94 1064.48C2898.39 1063.66 2898.38 1062.68 2898.73 1061.9C2899.08 1061.12 2899.82 1060.5 2900.8 1060.5L2915.19 1060.5C2916.17 1060.5 2916.91 1061.12 2917.26 1061.9Z" fill="#535353" stroke="white" stroke-linejoin="round" id="n793"/>
</g>
</svg>
