<?xml version='1.0' encoding='utf-8'?>
<svg xmlns="http://www.w3.org/2000/svg" xmlns:xlink="http://www.w3.org/1999/xlink" width="384.0" height="88.0" viewBox="0 0 384.0 88.0" fill="none">
  <defs><clipPath id="clip__asset"><rect x="0" y="0" width="384.0" height="88.0"/></clipPath><mask id="mask124_68_6728" style="mask-type:luminance" maskUnits="userSpaceOnUse" x="2568" y="888" width="512" height="26">
<path d="M2656 900.2C2656 904.68 2656 906.921 2656.87 908.632C2657.64 910.137 2658.86 911.361 2660.37 912.128C2662.08 913 2664.32 913 2668.8 913H2979.2C2983.68 913 2985.92 913 2987.63 912.128C2989.14 911.361 2990.36 910.137 2991.13 908.632C2992 906.921 2992 904.68 2992 900.2V889H2656V900.2Z" fill="white" stroke="black" id="n797"/>
</mask>
<mask id="mask125_68_6728" style="mask-type:alpha" maskUnits="userSpaceOnUse" x="2568" y="840" width="512" height="50">
<path d="M2656 889H2992V853.8C2992 849.32 2992 847.079 2991.13 845.368C2990.36 843.863 2989.14 842.639 2987.63 841.872C2985.92 841 2983.68 841 2979.2 841H2668.8C2664.32 841 2662.08 841 2660.37 841.872C2658.86 842.639 2657.64 843.863 2656.87 845.368C2656 847.079 2656 849.32 2656 853.8V889Z" fill="white" stroke="black" id="n804"/>
</mask>
</defs>
  <g clip-path="url(#clip__asset)" transform="translate(-2632.0 -833.0)"><path d="M2656 900.2C2656 904.68 2656 906.921 2656.87 908.632C2657.64 910.137 2658.86 911.361 2660.37 912.128C2662.08 913 2664.32 913 2668.8 913H2979.2C2983.68 913 2985.92 913 2987.63 912.128C2989.14 911.361 2990.36 910.137 2991.13 908.632C2992 906.921 2992 904.68 2992 900.2V853.8C2992 849.32 2992 847.079 2991.13 845.368C2990.36 843.863 2989.14 842.639 2987.63 841.872C2985.92 841 2983.68 841 2979.2 841H2668.8C2664.32 841 2662.08 841 2660.37 841.872C2658.86 842.639 2657.64 843.863 2656.87 845.368C2656 847.079 2656 849.32 2656 853.8V900.2Z" fill="white" stroke="white" id="n794"/>
<path d="M2656 889H2992V853.8C2992 849.32 2992 847.079 2991.13 845.368C2990.36 843.863 2989.14 842.639 2987.63 841.872C2985.92 841 2983.68 841 2979.2 841H2668.8C2664.32 841 2662.08 841 2660.37 841.872C2658.86 842.639 2657.64 843.863 2656.87 845.368C2656 847.079 2656 849.32 2656 853.8V889Z" fill="#F0F0F0" stroke="#F0F0F0" id="n795"/>
<path d="M2656 900.2C2656 904.68 2656 906.921 2656.87 908.632C2657.64 910.137 2658.86 911.361 2660.37 912.128C2662.08 913 2664.32 913 2668.8 913H2979.2C2983.68 913 2985.92 913 2987.63 912.128C2989.14 911.361 2990.36 910.137 2991.13 908.632C2992 906.921 2992 904.68 2992 900.2V853.8C2992 849.32 2992 847.079 2991.13 845.368C2990.36 843.863 2989.14 842.639 2987.63 841.872C2985.92 841 2983.68 841 2979.2 841H2668.8C2664.32 841 2662.08 841 2660.37 841.872C2658.86 842.639 2657.64 843.863 2656.87 845.368C2656 847.079 2656 849.32 2656 853.8V900.2Z" stroke="#BEBEBE" id="n796"/>
<g mask="url(#mask124_68_6728)" id="n798">
<path d="M2824 901L2824 893M2790.4 901L2790.4 893M2756.8 901L2756.8 893M2723.2 901L2723.2 893M2689.6 901L2689.6 893M2656 901L2656 893M2857.6 901L2857.6 893M2891.2 901L2891.2 893M2924.8 901L2924.8 893M2958.4 901L2958.4 893M2992 901L2992 893" stroke="#BEBEBE" id="n799"/>
<path d="M2824 917L2824 893M2656 917L2656 893M2992 917L2992 893" stroke="#BEBEBE" id="n800"/>
</g>
<g mask="url(#mask125_68_6728)" id="n805">
<rect x="2908" y="841" width="48" height="252" transform="rotate(90 2908 841)" fill="#535353" stroke="#535353" id="n806"/>
</g>
<path d="M2917.26 908.1C2917.61 907.323 2917.6 906.337 2917.05 905.521L2909.24 893.949C2908.64 893.068 2907.35 893.068 2906.75 893.949L2898.94 905.521C2898.39 906.337 2898.38 907.323 2898.73 908.1C2899.08 908.877 2899.82 909.5 2900.8 909.5L2915.19 909.5C2916.17 909.5 2916.91 908.877 2917.26 908.1Z" fill="#535353" stroke="white" stroke-linejoin="round" id="n807"/>
</g>
</svg>
