<?xml version='1.0' encoding='utf-8'?>
<svg xmlns="http://www.w3.org/2000/svg" xmlns:xlink="http://www.w3.org/1999/xlink" width="384.0" height="88.0" viewBox="0 0 384.0 88.0" fill="none">
  <defs><clipPath id="clip__asset"><rect x="0" y="0" width="384.0" height="88.0"/></clipPath><mask id="mask138_68_6728" style="mask-type:luminance" maskUnits="userSpaceOnUse" x="3048" y="1320" width="512" height="26">
<path d="M3136 1332.2C3136 1336.68 3136 1338.92 3136.87 1340.63C3137.64 1342.14 3138.86 1343.36 3140.37 1344.13C3142.08 1345 3144.32 1345 3148.8 1345H3459.2C3463.68 1345 3465.92 1345 3467.63 1344.13C3469.14 1343.36 3470.36 1342.14 3471.13 1340.63C3472 1338.92 3472 1336.68 3472 1332.2V1321H3136V1332.2Z" fill="white" stroke="black" id="n911"/>
</mask>
<mask id="mask139_68_6728" style="mask-type:alpha" maskUnits="userSpaceOnUse" x="3048" y="1272" width="512" height="73">
<path d="M3136 1321H3472V1285.8C3472 1281.32 3472 1279.08 3471.13 1277.37C3470.36 1275.86 3469.14 1274.64 3467.63 1273.87C3465.92 1273 3463.68 1273 3459.2 1273H3148.8C3144.32 1273 3142.08 1273 3140.37 1273.87C3138.86 1274.64 3137.64 1275.86 3136.87 1277.37C3136 1279.08 3136 1281.32 3136 1285.8V1321Z" fill="white" stroke="black" id="n921"/>
</mask>
</defs>
  <g clip-path="url(#clip__asset)" transform="translate(-3112.0 -1265.0)"><path d="M3136 1332.2C3136 1336.68 3136 1338.92 3136.87 1340.63C3137.64 1342.14 3138.86 1343.36 3140.37 1344.13C3142.08 1345 3144.32 1345 3148.8 1345H3459.2C3463.68 1345 3465.92 1345 3467.63 1344.13C3469.14 1343.36 3470.36 1342.14 3471.13 1340.63C3472 1338.92 3472 1336.68 3472 1332.2V1285.8C3472 1281.32 3472 1279.08 3471.13 1277.37C3470.36 1275.86 3469.14 1274.64 3467.63 1273.87C3465.92 1273 3463.68 1273 3459.2 1273H3148.8C3144.32 1273 3142.08 1273 3140.37 1273.87C3138.86 1274.64 3137.64 1275.86 3136.87 1277.37C3136 1279.08 3136 1281.32 3136 1285.8V1332.2Z" fill="white" stroke="white" id="n907"/>
<path d="M3136 1321H3472V1285.8C3472 1281.32 3472 1279.08 3471.13 1277.37C3470.36 1275.86 3469.14 1274.64 3467.63 1273.87C3465.92 1273 3463.68 1273 3459.2 1273H3148.8C3144.32 1273 3142.08 1273 3140.37 1273.87C3138.86 1274.64 3137.64 1275.86 3136.87 1277.37C3136 1279.08 3136 1281.32 3136 1285.8V1321Z" fill="#F0F0F0" stroke="#F0F0F0" id="n908"/>
<path d="M3136 1332.2C3136 1336.68 3136 1338.92 3136.87 1340.63C3137.64 1342.14 3138.86 1343.36 3140.37 1344.13C3142.08 1345 3144.32 1345 3148.8 1345H3459.2C3463.68 1345 3465.92 1345 3467.63 1344.13C3469.14 1343.36 3470.36 1342.14 3471.13 1340.63C3472 1338.92 3472 1336.68 3472 1332.2V1285.8C3472 1281.32 3472 1279.08 3471.13 1277.37C3470.36 1275.86 3469.14 1274.64 3467.63 1273.87C3465.92 1273 3463.68 1273 3459.2 1273H3148.8C3144.32 1273 3142.08 1273 3140.37 1273.87C3138.86 1274.64 3137.64 1275.86 3136.87 1277.37C3136 1279.08 3136 1281.32 3136 1285.8V1332.2Z" stroke="#BEBEBE" id="n909"/>
<path d="M3304 1345V1273" stroke="#BEBEBE" stroke-linecap="square" id="n910"/>
<g mask="url(#mask138_68_6728)" id="n912">
<path d="M3304 1333V1325M3320.8 1333V1325M3337.6 1333V1325M3354.4 1333V1325M3371.2 1333V1325M3388 1333V1325M3404.8 1333V1325M3421.6 1333V1325M3438.4 1333V1325M3455.2 1333V1325M3472 1333V1325M3287.2 1333V1325M3270.4 1333V1325M3253.6 1333V1325M3236.8 1333V1325M3220 1333V1325M3203.2 1333V1325M3186.4 1333V1325M3169.6 1333V1325M3152.8 1333V1325M3136 1333V1325" stroke="#BEBEBE" id="n913"/>
<path d="M3304 1349V1325M3388 1349V1325M3472 1349V1325M3220 1349V1325M3136 1349V1325" stroke="#BEBEBE" id="n914"/>
<path d="M3304 1349V1321" stroke="#BEBEBE" id="n915"/>
</g>
<g mask="url(#mask139_68_6728)" id="n922">
<rect x="3388" y="1273" width="48" height="84" transform="rotate(90 3388 1273)" fill="#BEBEBE" stroke="#BEBEBE" id="n923"/>
<rect x="3391.72" y="1273" width="48" height="8" rx="4" transform="rotate(90 3391.72 1273)" fill="#535353" stroke="#BEBEBE" id="n924"/>
</g>
<path d="M3397.26 1340.1C3397.61 1339.32 3397.6 1338.34 3397.05 1337.52L3389.24 1325.95C3388.64 1325.07 3387.35 1325.07 3386.75 1325.95L3378.94 1337.52C3378.39 1338.34 3378.38 1339.32 3378.73 1340.1C3379.08 1340.88 3379.82 1341.5 3380.8 1341.5L3395.19 1341.5C3396.17 1341.5 3396.91 1340.88 3397.26 1340.1Z" fill="#535353" stroke="white" stroke-linejoin="round" id="n925"/>
</g>
</svg>
