<?xml version='1.0' encoding='utf-8'?>
<svg xmlns="http://www.w3.org/2000/svg" xmlns:xlink="http://www.w3.org/1999/xlink" width="384.0" height="88.0" viewBox="0 0 384.0 88.0" fill="none">
  <defs><clipPath id="clip__asset"><rect x="0" y="0" width="384.0" height="88.0"/></clipPath><mask id="mask148_68_6728" style="mask-type:luminance" maskUnits="userSpaceOnUse" x="3528" y="623" width="512" height="26">
<path d="M3616 636.8C3616 632.32 3616 630.079 3616.87 628.368C3617.64 626.863 3618.86 625.639 3620.37 624.872C3622.08 624 3624.32 624 3628.8 624H3939.2C3943.68 624 3945.92 624 3947.63 624.872C3949.14 625.639 3950.36 626.863 3951.13 628.368C3952 630.079 3952 632.32 3952 636.8V648H3616V636.8Z" fill="white" stroke="black" id="n1003"/>
</mask>
<mask id="mask149_68_6728" style="mask-type:alpha" maskUnits="userSpaceOnUse" x="3528" y="647" width="512" height="50">
<path d="M3616 648H3952V683.2C3952 687.68 3952 689.921 3951.13 691.632C3950.36 693.137 3949.14 694.361 3947.63 695.128C3945.92 696 3943.68 696 3939.2 696H3628.8C3624.32 696 3622.08 696 3620.37 695.128C3618.86 694.361 3617.64 693.137 3616.87 691.632C3616 689.921 3616 687.68 3616 683.2V648Z" fill="white" stroke="black" id="n1010"/>
</mask>
</defs>
  <g clip-path="url(#clip__asset)" transform="translate(-3592.0 -616.0)"><path d="M3616 636.8C3616 632.32 3616 630.079 3616.87 628.368C3617.64 626.863 3618.86 625.639 3620.37 624.872C3622.08 624 3624.32 624 3628.8 624H3939.2C3943.68 624 3945.92 624 3947.63 624.872C3949.14 625.639 3950.36 626.863 3951.13 628.368C3952 630.079 3952 632.32 3952 636.8V683.2C3952 687.68 3952 689.921 3951.13 691.632C3950.36 693.137 3949.14 694.361 3947.63 695.128C3945.92 696 3943.68 696 3939.2 696H3628.8C3624.32 696 3622.08 696 3620.37 695.128C3618.86 694.361 3617.64 693.137 3616.87 691.632C3616 689.921 3616 687.68 3616 683.2V636.8Z" fill="white" stroke="white" id="n1000"/>
<path d="M3616 648H3952V683.2C3952 687.68 3952 689.921 3951.13 691.632C3950.36 693.137 3949.14 694.361 3947.63 695.128C3945.92 696 3943.68 696 3939.2 696H3628.8C3624.32 696 3622.08 696 3620.37 695.128C3618.86 694.361 3617.64 693.137 3616.87 691.632C3616 689.921 3616 687.68 3616 683.2V648Z" fill="#F0F0F0" stroke="#F0F0F0" id="n1001"/>
<path d="M3616 636.8C3616 632.32 3616 630.079 3616.87 628.368C3617.64 626.863 3618.86 625.639 3620.37 624.872C3622.08 624 3624.32 624 3628.8 624H3939.2C3943.68 624 3945.92 624 3947.63 624.872C3949.14 625.639 3950.36 626.863 3951.13 628.368C3952 630.079 3952 632.32 3952 636.8V683.2C3952 687.68 3952 689.921 3951.13 691.632C3950.36 693.137 3949.14 694.361 3947.63 695.128C3945.92 696 3943.68 696 3939.2 696H3628.8C3624.32 696 3622.08 696 3620.37 695.128C3618.86 694.361 3617.64 693.137 3616.87 691.632C3616 689.921 3616 687.68 3616 683.2V636.8Z" stroke="#BEBEBE" id="n1002"/>
<g mask="url(#mask148_68_6728)" id="n1004">
<path d="M3784 636V644M3817.6 636V644M3851.2 636V644M3884.8 636V644M3918.4 636V644M3952 636V644M3750.4 636V644M3716.8 636V644M3683.2 636V644M3649.6 636V644M3616 636V644" stroke="#BEBEBE" id="n1005"/>
<path d="M3784 620V644M3952 620V644M3616 620V644" stroke="#BEBEBE" id="n1006"/>
</g>
<g mask="url(#mask149_68_6728)" id="n1011">
<rect x="3868" y="648" width="48" height="252" transform="rotate(90 3868 648)" fill="#2D548B" stroke="#2D548B" id="n1012"/>
</g>
<path d="M3877.26 628.9C3877.61 629.677 3877.6 630.663 3877.05 631.479L3869.24 643.051C3868.64 643.932 3867.35 643.932 3866.75 643.051L3858.94 631.479C3858.39 630.663 3858.38 629.677 3858.73 628.9C3859.08 628.123 3859.82 627.5 3860.8 627.5L3875.19 627.5C3876.17 627.5 3876.91 628.123 3877.26 628.9Z" fill="#2D548B" stroke="white" stroke-linejoin="round" id="n1013"/>
</g>
</svg>
