<?xml version='1.0' encoding='utf-8'?>
<svg xmlns="http://www.w3.org/2000/svg" xmlns:xlink="http://www.w3.org/1999/xlink" width="384.0" height="384.0" viewBox="0 0 384.0 384.0" fill="none">
  <defs><clipPath id="clip__asset"><rect x="0" y="0" width="384.0" height="384.0"/></clipPath><mask id="mask144_68_6728" style="mask-type:luminance" maskUnits="userSpaceOnUse" x="3584" y="504" width="512" height="512">
<path d="M3840 948C3889.04 948 3933.69 929.226 3967.16 898.473C3970.42 895.483 3970.4 890.403 3967.28 887.279L3955.97 875.966C3926.29 905.644 3885.29 924 3840 924C3794.71 924 3753.71 905.644 3724.03 875.966L3712.72 887.279C3709.6 890.403 3709.59 895.482 3712.84 898.472C3746.31 929.225 3790.96 948 3840 948Z" fill="white" id="n1266"/>
<path d="M3840 948V948.5V948.5V948ZM3967.16 898.473L3967.5 898.841V898.841L3967.16 898.473ZM3967.28 887.279L3967.63 886.926V886.926L3967.28 887.279ZM3955.97 875.966L3955.61 875.612L3955.97 875.259L3956.32 875.612L3955.97 875.966ZM3840 924V924.5V924.5V924ZM3724.03 875.966L3723.68 875.612L3724.03 875.259L3724.39 875.612L3724.03 875.966ZM3712.72 887.279L3712.37 886.926L3712.37 886.926L3712.72 887.279ZM3712.84 898.472L3712.5 898.84L3712.5 898.84L3712.84 898.472ZM3840 948V947.5C3888.91 947.5 3933.44 928.776 3966.82 898.104L3967.16 898.473L3967.5 898.841C3933.94 929.676 3889.17 948.5 3840 948.5V948ZM3967.16 898.473L3966.82 898.104C3969.86 895.317 3969.86 890.566 3966.93 887.633L3967.28 887.279L3967.63 886.926C3970.95 890.241 3970.97 895.65 3967.5 898.841L3967.16 898.473ZM3967.28 887.279L3966.93 887.633L3955.61 876.319L3955.97 875.966L3956.32 875.612L3967.63 886.926L3967.28 887.279ZM3955.97 875.966L3956.32 876.319C3926.55 906.087 3885.43 924.5 3840 924.5V924V923.5C3885.15 923.5 3926.02 905.2 3955.61 875.612L3955.97 875.966ZM3840 924V924.5C3794.58 924.5 3753.45 906.087 3723.68 876.319L3724.03 875.966L3724.39 875.612C3753.98 905.2 3794.85 923.5 3840 923.5V924ZM3724.03 875.966L3724.39 876.319L3713.07 887.633L3712.72 887.279L3712.37 886.926L3723.68 875.612L3724.03 875.966ZM3712.72 887.279L3713.07 887.633C3710.14 890.566 3710.14 895.316 3713.18 898.104L3712.84 898.472L3712.5 898.84C3709.03 895.649 3709.05 890.241 3712.37 886.926L3712.72 887.279ZM3712.84 898.472L3713.18 898.103C3746.56 928.775 3791.09 947.5 3840 947.5V948V948.5C3790.83 948.5 3746.06 929.674 3712.5 898.84L3712.84 898.472Z" fill="black" id="n1267"/>
</mask>
<mask id="mask145_68_6728" style="mask-type:alpha" maskUnits="userSpaceOnUse" x="3584" y="504" width="512" height="512">
<path d="M3840 584C3937.2 584 4016 662.798 4016 760C4016 857.202 3937.2 936 3840 936C3742.8 936 3664 857.202 3664 760C3664 662.798 3742.8 584 3840 584ZM3840 592C3747.22 592 3672 667.216 3672 760C3672 852.784 3747.22 928 3840 928C3932.78 928 4008 852.784 4008 760C4008 667.216 3932.78 592 3840 592Z" fill="black" id="n1269"/>
</mask>
<mask id="mask146_68_6728" style="mask-type:alpha" maskUnits="userSpaceOnUse" x="3584" y="504" width="512" height="512">
<path d="M3840 568C3946.04 568 4032 653.961 4032 760C4032 866.039 3946.04 952 3840 952C3733.96 952 3648 866.039 3648 760C3648 653.961 3733.96 568 3840 568ZM3840 592C3747.22 592 3672 667.216 3672 760C3672 852.784 3747.22 928 3840 928C3932.78 928 4008 852.784 4008 760C4008 667.216 3932.78 592 3840 592Z" fill="black" id="n1272"/>
</mask>
<mask id="mask147_68_6728" style="mask-type:alpha" maskUnits="userSpaceOnUse" x="3584" y="504" width="512" height="512">
<path d="M3840 568C3946.04 568 4032 653.961 4032 760C4032 866.039 3946.04 952 3840 952C3733.96 952 3648 866.039 3648 760C3648 653.961 3733.96 568 3840 568ZM3840 596C3749.43 596 3676 669.425 3676 760C3676 850.575 3749.43 924 3840 924C3930.57 924 4004 850.575 4004 760C4004 669.425 3930.57 596 3840 596Z" fill="black" id="n1275"/>
</mask>
<mask id="mask148_68_6728" style="mask-type:luminance" maskUnits="userSpaceOnUse" x="3584" y="504" width="512" height="512">
<path d="M4028 760.001C4028 728.604 4020.3 699.005 4006.69 672.988C4004.65 669.075 3999.74 667.775 3995.92 669.983L3982.05 677.989C3996.01 702.114 4004 730.124 4004 760.001C4004 789.878 3996.01 817.888 3982.05 842.013L3995.92 850.018C3999.74 852.226 4004.65 850.926 4006.69 847.013C4020.3 820.996 4028 791.397 4028 760.001Z" fill="white" stroke="black" id="n1282"/>
</mask>
<mask id="mask149_68_6728" style="mask-type:alpha" maskUnits="userSpaceOnUse" x="3584" y="504" width="512" height="512">
<path d="M3840 584C3937.2 584 4016 662.798 4016 760C4016 857.202 3937.2 936 3840 936C3742.8 936 3664 857.202 3664 760C3664 662.798 3742.8 584 3840 584ZM3840 592C3747.22 592 3672 667.216 3672 760C3672 852.784 3747.22 928 3840 928C3932.78 928 4008 852.784 4008 760C4008 667.216 3932.78 592 3840 592Z" fill="black" id="n1284"/>
</mask>
<mask id="mask150_68_6728" style="mask-type:alpha" maskUnits="userSpaceOnUse" x="3584" y="504" width="512" height="512">
<path d="M3840 568C3946.04 568 4032 653.961 4032 760C4032 866.039 3946.04 952 3840 952C3733.96 952 3648 866.039 3648 760C3648 653.961 3733.96 568 3840 568ZM3840 592C3747.22 592 3672 667.216 3672 760C3672 852.784 3747.22 928 3840 928C3932.78 928 4008 852.784 4008 760C4008 667.216 3932.78 592 3840 592Z" fill="black" id="n1287"/>
</mask>
<mask id="mask151_68_6728" style="mask-type:alpha" maskUnits="userSpaceOnUse" x="3584" y="504" width="512" height="512">
<path d="M3840 568C3946.04 568 4032 653.961 4032 760C4032 866.039 3946.04 952 3840 952C3733.96 952 3648 866.039 3648 760C3648 653.961 3733.96 568 3840 568ZM3840 596C3749.43 596 3676 669.425 3676 760C3676 850.575 3749.43 924 3840 924C3930.57 924 4004 850.575 4004 760C4004 669.425 3930.57 596 3840 596Z" fill="black" id="n1290"/>
</mask>
</defs>
  <g clip-path="url(#clip__asset)" transform="translate(-3648.0 -568.0)"><path d="M3840 948C3790.96 948 3746.31 929.226 3712.84 898.473C3709.58 895.483 3709.6 890.403 3712.72 887.279L3724.03 875.966C3753.71 905.644 3794.71 924 3840 924C3885.29 924 3926.29 905.644 3955.97 875.966L3967.28 887.279C3970.4 890.403 3970.41 895.482 3967.16 898.472C3933.69 929.225 3889.04 948 3840 948Z" fill="white" stroke="white" id="n1262"/>
<path d="M3840 924C3794.71 924 3753.71 905.644 3724.03 875.967L3752.32 847.682C3755.44 844.558 3760.49 844.582 3763.82 847.484C3763.9 847.552 3763.98 847.618 3764.05 847.686C3764.09 847.719 3764.13 847.753 3764.17 847.786C3764.46 848.037 3764.75 848.286 3765.04 848.534C3765.15 848.62 3765.25 848.705 3765.35 848.791C3765.55 848.962 3765.76 849.133 3765.96 849.303C3766.15 849.457 3766.34 849.611 3766.52 849.765C3766.69 849.902 3766.86 850.039 3767.03 850.176C3767.16 850.287 3767.3 850.398 3767.44 850.509C3767.68 850.703 3767.92 850.896 3768.17 851.089C3768.28 851.179 3768.4 851.269 3768.51 851.358C3768.77 851.563 3769.03 851.767 3769.3 851.97C3769.38 852.032 3769.46 852.095 3769.54 852.157C3770.62 852.983 3771.71 853.792 3772.82 854.58C3772.91 854.639 3772.99 854.697 3773.07 854.756C3773.36 854.958 3773.64 855.158 3773.93 855.357C3774.02 855.423 3774.12 855.488 3774.21 855.553C3774.49 855.745 3774.77 855.936 3775.05 856.126C3775.16 856.2 3775.27 856.274 3775.38 856.348C3775.65 856.531 3775.93 856.714 3776.2 856.895C3776.29 856.955 3776.38 857.015 3776.48 857.075C3776.76 857.261 3777.04 857.447 3777.33 857.631C3777.43 857.696 3777.53 857.761 3777.63 857.825C3777.92 858.007 3778.2 858.187 3778.49 858.366C3778.61 858.439 3778.72 858.512 3778.84 858.585C3779.09 858.739 3779.34 858.891 3779.58 859.043C3779.71 859.12 3779.84 859.198 3779.96 859.275C3780.29 859.474 3780.62 859.67 3780.95 859.865C3780.99 859.892 3781.04 859.92 3781.09 859.947C3782.65 860.869 3784.23 861.754 3785.83 862.604C3786 862.689 3786.16 862.774 3786.32 862.859C3786.58 862.995 3786.84 863.13 3787.1 863.264C3787.21 863.318 3787.31 863.372 3787.42 863.426C3787.72 863.58 3788.03 863.734 3788.33 863.886C3788.44 863.94 3788.55 863.994 3788.66 864.048C3788.94 864.186 3789.22 864.324 3789.5 864.46C3789.65 864.534 3789.81 864.608 3789.96 864.682C3790.21 864.802 3790.46 864.92 3790.71 865.038C3790.89 865.122 3791.07 865.205 3791.25 865.287C3791.47 865.393 3791.7 865.497 3791.93 865.602C3792.09 865.676 3792.26 865.75 3792.42 865.824C3792.71 865.953 3792.99 866.08 3793.28 866.207C3793.41 866.262 3793.53 866.318 3793.66 866.372C3793.98 866.513 3794.3 866.651 3794.63 866.789C3794.72 866.828 3794.81 866.868 3794.9 866.906C3796.16 867.439 3797.43 867.951 3798.72 868.439C3798.86 868.494 3799.01 868.547 3799.15 868.602C3799.43 868.706 3799.7 868.809 3799.98 868.911C3800.18 868.986 3800.39 869.059 3800.59 869.133C3800.79 869.204 3800.99 869.276 3801.18 869.346C3801.42 869.431 3801.66 869.515 3801.9 869.599C3802.11 869.671 3802.32 869.742 3802.53 869.813C3802.73 869.883 3802.94 869.952 3803.14 870.02C3803.36 870.093 3803.58 870.166 3803.8 870.237C3804.01 870.308 3804.23 870.379 3804.44 870.448C3804.67 870.521 3804.89 870.592 3805.12 870.663C3805.33 870.73 3805.54 870.795 3805.75 870.86C3806 870.936 3806.24 871.01 3806.49 871.084C3806.66 871.137 3806.84 871.189 3807.01 871.241C3807.27 871.319 3807.54 871.395 3807.8 871.472C3807.99 871.526 3808.18 871.581 3808.37 871.635C3808.63 871.708 3808.89 871.779 3809.14 871.851C3809.32 871.899 3809.5 871.948 3809.67 871.996C3810.55 872.233 3811.43 872.46 3812.32 872.677C3812.51 872.723 3812.7 872.768 3812.89 872.813C3813.14 872.874 3813.4 872.935 3813.65 872.993C3813.85 873.04 3814.05 873.085 3814.25 873.13C3814.5 873.188 3814.76 873.246 3815.02 873.303C3815.19 873.341 3815.37 873.378 3815.54 873.415C3815.82 873.477 3816.11 873.537 3816.4 873.597C3816.58 873.634 3816.76 873.671 3816.94 873.708C3817.2 873.76 3817.46 873.812 3817.72 873.862C3817.93 873.903 3818.14 873.943 3818.35 873.982C3818.58 874.026 3818.82 874.07 3819.05 874.112C3819.28 874.155 3819.52 874.197 3819.75 874.238C3819.98 874.278 3820.2 874.317 3820.43 874.355C3820.64 874.392 3820.86 874.428 3821.07 874.463C3821.39 874.516 3821.72 874.567 3822.04 874.617C3822.16 874.636 3822.28 874.655 3822.4 874.674C3822.75 874.727 3823.1 874.777 3823.45 874.827C3823.57 874.846 3823.7 874.865 3823.83 874.883C3824.08 874.917 3824.33 874.95 3824.57 874.982C3824.96 875.034 3825.35 875.082 3825.73 875.13C3826.04 875.167 3826.34 875.205 3826.65 875.24C3826.75 875.252 3826.86 875.263 3826.96 875.274C3827.3 875.312 3827.63 875.348 3827.96 875.383C3828.22 875.41 3828.48 875.435 3828.75 875.46C3828.94 875.479 3829.14 875.498 3829.34 875.517C3829.59 875.539 3829.83 875.56 3830.08 875.581C3830.32 875.602 3830.57 875.622 3830.81 875.641C3831.02 875.657 3831.22 875.672 3831.43 875.687C3831.7 875.707 3831.97 875.726 3832.25 875.744C3832.45 875.757 3832.65 875.77 3832.85 875.782C3833.14 875.8 3833.43 875.816 3833.72 875.832C3833.89 875.841 3834.06 875.849 3834.22 875.857C3834.53 875.873 3834.84 875.887 3835.15 875.899C3835.33 875.907 3835.51 875.914 3835.69 875.921C3836.02 875.933 3836.35 875.943 3836.68 875.952C3836.82 875.956 3836.96 875.96 3837.09 875.964C3837.49 875.974 3837.9 875.982 3838.3 875.987C3838.38 875.988 3838.45 875.99 3838.53 875.991C3839.02 875.997 3839.51 876 3840 876C3840.49 876 3840.98 875.997 3841.46 875.991C3841.55 875.99 3841.63 875.988 3841.71 875.986C3842.11 875.981 3842.51 875.974 3842.9 875.964C3843.04 875.96 3843.19 875.956 3843.33 875.952C3843.65 875.943 3843.98 875.933 3844.31 875.921C3844.49 875.914 3844.67 875.907 3844.85 875.899C3845.16 875.887 3845.47 875.873 3845.77 875.858C3845.94 875.85 3846.11 875.84 3846.29 875.831C3846.57 875.816 3846.86 875.8 3847.14 875.782C3847.35 875.77 3847.55 875.757 3847.76 875.743C3848.03 875.726 3848.29 875.708 3848.56 875.688C3848.77 875.673 3848.99 875.656 3849.2 875.64C3849.43 875.621 3849.67 875.602 3849.9 875.582C3850.16 875.561 3850.41 875.539 3850.66 875.516C3850.85 875.499 3851.04 875.481 3851.22 875.463C3851.5 875.437 3851.77 875.41 3852.04 875.382C3852.35 875.351 3852.65 875.318 3852.95 875.284C3853.09 875.269 3853.22 875.254 3853.36 875.238C3853.64 875.207 3853.91 875.172 3854.19 875.139C3854.65 875.083 3855.11 875.024 3855.57 874.963C3855.76 874.937 3855.96 874.912 3856.15 874.885C3856.31 874.863 3856.47 874.839 3856.63 874.816C3856.95 874.771 3857.26 874.724 3857.58 874.676C3857.72 874.655 3857.86 874.633 3858 874.611C3858.31 874.563 3858.62 874.514 3858.93 874.463C3859.15 874.426 3859.37 874.388 3859.6 874.35C3859.81 874.314 3860.02 874.278 3860.23 874.241C3860.47 874.198 3860.72 874.155 3860.96 874.11C3861.19 874.068 3861.42 874.026 3861.65 873.982C3861.86 873.943 3862.07 873.903 3862.28 873.862C3862.53 873.812 3862.79 873.762 3863.04 873.71C3863.24 873.671 3863.43 873.632 3863.62 873.593C3863.89 873.536 3864.16 873.479 3864.43 873.421C3864.62 873.382 3864.8 873.342 3864.98 873.302C3865.24 873.245 3865.5 873.188 3865.75 873.13C3865.95 873.085 3866.15 873.04 3866.35 872.993C3866.6 872.935 3866.86 872.874 3867.11 872.813C3867.3 872.768 3867.49 872.723 3867.68 872.677C3868.56 872.462 3869.43 872.237 3870.3 872.002C3870.52 871.944 3870.73 871.883 3870.95 871.824C3871.17 871.761 3871.4 871.699 3871.63 871.635C3871.82 871.581 3872.01 871.526 3872.2 871.472C3872.46 871.396 3872.72 871.321 3872.98 871.243C3873.18 871.186 3873.37 871.126 3873.57 871.067C3873.78 871.003 3873.99 870.94 3874.2 870.875C3874.48 870.789 3874.76 870.701 3875.04 870.613C3875.17 870.57 3875.31 870.527 3875.45 870.483C3875.71 870.399 3875.97 870.313 3876.24 870.227C3876.44 870.158 3876.65 870.09 3876.86 870.021C3877.06 869.952 3877.27 869.883 3877.47 869.813C3877.68 869.742 3877.89 869.671 3878.09 869.599C3878.34 869.515 3878.58 869.431 3878.82 869.346C3879.01 869.276 3879.21 869.204 3879.41 869.133C3879.61 869.059 3879.82 868.986 3880.02 868.911C3880.24 868.831 3880.46 868.749 3880.67 868.667C3880.9 868.581 3881.13 868.496 3881.36 868.409C3881.42 868.386 3881.48 868.361 3881.54 868.337C3882.52 867.964 3883.48 867.579 3884.44 867.182C3884.65 867.095 3884.86 867.009 3885.06 866.921C3885.2 866.865 3885.33 866.808 3885.46 866.751C3885.75 866.627 3886.04 866.504 3886.33 866.378C3886.51 866.301 3886.68 866.222 3886.86 866.144C3887.07 866.051 3887.28 865.96 3887.49 865.866C3887.72 865.76 3887.96 865.653 3888.19 865.545C3888.35 865.472 3888.51 865.398 3888.67 865.324C3888.93 865.203 3889.19 865.081 3889.46 864.958C3889.59 864.896 3889.72 864.835 3889.85 864.772C3890.11 864.649 3890.36 864.525 3890.62 864.399C3890.8 864.315 3890.97 864.23 3891.14 864.145C3891.35 864.041 3891.56 863.939 3891.77 863.834C3891.97 863.737 3892.16 863.639 3892.35 863.541C3892.56 863.433 3892.78 863.327 3892.99 863.218C3893.14 863.138 3893.3 863.057 3893.45 862.977C3894.09 862.646 3894.72 862.311 3895.35 861.97C3895.73 861.761 3896.11 861.551 3896.49 861.338C3896.54 861.31 3896.59 861.28 3896.64 861.252C3896.98 861.062 3897.32 860.872 3897.66 860.679C3897.81 860.592 3897.96 860.504 3898.11 860.417C3898.35 860.277 3898.59 860.137 3898.83 859.995C3898.98 859.906 3899.13 859.816 3899.28 859.726C3899.51 859.59 3899.74 859.454 3899.97 859.316C3900.14 859.212 3900.31 859.107 3900.48 859.002C3900.69 858.873 3900.9 858.744 3901.11 858.614C3901.29 858.503 3901.47 858.391 3901.65 858.279C3901.83 858.168 3902 858.055 3902.18 857.942C3902.4 857.801 3902.62 857.659 3902.84 857.517C3902.99 857.42 3903.14 857.324 3903.29 857.227C3903.5 857.093 3903.7 856.958 3903.91 856.823C3904.08 856.707 3904.26 856.59 3904.43 856.473C3904.63 856.34 3904.83 856.208 3905.02 856.074C3905.23 855.932 3905.44 855.788 3905.65 855.644C3905.79 855.546 3905.94 855.45 3906.08 855.353C3906.28 855.211 3906.48 855.068 3906.69 854.926C3907.39 854.431 3908.08 853.929 3908.78 853.42C3908.96 853.286 3909.14 853.153 3909.32 853.018C3909.49 852.892 3909.65 852.765 3909.82 852.639C3910.01 852.496 3910.2 852.354 3910.39 852.211C3910.57 852.073 3910.75 851.932 3910.93 851.793C3911.09 851.668 3911.25 851.544 3911.41 851.419C3911.6 851.275 3911.78 851.13 3911.96 850.985C3912.14 850.844 3912.32 850.701 3912.5 850.559C3912.67 850.421 3912.84 850.283 3913.01 850.145C3913.17 850.018 3913.32 849.892 3913.48 849.765C3913.66 849.611 3913.85 849.457 3914.04 849.303C3914.22 849.148 3914.41 848.993 3914.59 848.837C3914.73 848.719 3914.87 848.602 3915.01 848.483C3915.23 848.301 3915.44 848.117 3915.66 847.933C3915.77 847.831 3915.89 847.731 3916.01 847.629C3916.06 847.58 3916.12 847.532 3916.18 847.483C3919.51 844.581 3924.56 844.557 3927.68 847.682L3955.96 875.967C3926.29 905.645 3885.29 924 3840 924Z" fill="#F0F0F0" stroke="#F0F0F0" id="n1263"/>
<path d="M3839.5 948L3839.5 948.5L3840.5 948.5L3840.5 948L3840 948L3839.5 948ZM3840 948L3840.5 948L3840.5 876L3840 876L3839.5 876L3839.5 948L3840 948Z" fill="#BEBEBE" id="n1264"/>
<path d="M3840 948C3790.96 948 3746.31 929.226 3712.84 898.472C3709.59 895.483 3709.6 890.404 3712.72 887.28L3752.32 847.681C3755.44 844.557 3760.49 844.58 3763.82 847.483C3784.2 865.244 3810.85 876 3840 876C3869.16 876 3895.8 865.244 3916.18 847.483C3919.51 844.58 3924.56 844.557 3927.68 847.681L3967.28 887.28C3970.4 890.404 3970.42 895.483 3967.16 898.472C3933.69 929.225 3889.04 948 3840 948Z" stroke="#BEBEBE" id="n1265"/>
<g mask="url(#mask144_68_6728)" id="n1268">
<mask id="mask145_68_6728" style="mask-type:alpha" maskUnits="userSpaceOnUse" x="3584" y="504" width="512" height="512">
<path d="M3840 584C3937.2 584 4016 662.798 4016 760C4016 857.202 3937.2 936 3840 936C3742.8 936 3664 857.202 3664 760C3664 662.798 3742.8 584 3840 584ZM3840 592C3747.22 592 3672 667.216 3672 760C3672 852.784 3747.22 928 3840 928C3932.78 928 4008 852.784 4008 760C4008 667.216 3932.78 592 3840 592Z" fill="black" id="n1269"/>
</mask>
<g mask="url(#mask145_68_6728)" id="n1270">
<path d="M3840 560V760M3840 760L3822.57 560.761M3840 760L3805.27 563.038M3840 760L3788.24 566.815M3840 760L3771.6 572.062M3840 760L3755.48 578.739M3840 760L3740 586.795M3840 760L3725.28 596.17M3840 760L3711.44 606.791M3840 760L3698.58 618.579M3840 760L3686.79 631.442M3840 760L3676.17 645.285M3840 760L3666.79 660M3840 760L3658.74 675.476M3840 760L3652.06 691.596M3840 760L3646.81 708.236M3840 760L3643.04 725.27M3840 760L3640.76 742.569M3840 760H3640M3840 760L3640.76 777.431M3840 760L3643.04 794.729M3840 760L3646.81 811.764M3840 760L3652.06 828.404M3840 760L3658.74 844.524M3840 760L3666.79 860M3840 760L3676.17 874.715M3840 760L3686.79 888.557M3840 760L3698.58 901.421M3840 760L3711.44 913.209M3840 760L3725.28 923.83M3840 760L3740 933.205M3840 760L3755.48 941.262M3840 760L3771.6 947.938M3840 760L3788.24 953.185M3840 760L3805.27 956.961M3840 760L3822.57 959.239M3840 760V960M3840 760L3857.43 959.239M3840 760L3874.73 956.962M3840 760L3891.76 953.185M3840 760L3908.4 947.938M3840 760L3924.52 941.261M3840 760L3940 933.205M3840 760L3954.72 923.831M3840 760L3968.56 913.209M3840 760L3981.42 901.421M3840 760L3993.21 888.558M3840 760L4003.83 874.715M3840 760L4013.21 860M3840 760L4021.26 844.524M3840 760L4027.94 828.404M3840 760L4033.19 811.764M3840 760L4036.96 794.73M3840 760L4039.24 777.431M3840 760H4040M3840 760L4039.24 742.569M3840 760L4036.96 725.271M3840 760L4033.19 708.236M3840 760L4027.94 691.596M3840 760L4021.26 675.476M3840 760L4013.21 660M3840 760L4003.83 645.285M3840 760L3993.21 631.443M3840 760L3981.42 618.579M3840 760L3968.56 606.791M3840 760L3954.72 596.17M3840 760L3940 586.795M3840 760L3924.52 578.738M3840 760L3908.4 572.062M3840 760L3891.76 566.815M3840 760L3874.73 563.039M3840 760L3857.43 560.761" stroke="#BEBEBE" id="n1271"/>
</g>
<mask id="mask146_68_6728" style="mask-type:alpha" maskUnits="userSpaceOnUse" x="3584" y="504" width="512" height="512">
<path d="M3840 568C3946.04 568 4032 653.961 4032 760C4032 866.039 3946.04 952 3840 952C3733.96 952 3648 866.039 3648 760C3648 653.961 3733.96 568 3840 568ZM3840 592C3747.22 592 3672 667.216 3672 760C3672 852.784 3747.22 928 3840 928C3932.78 928 4008 852.784 4008 760C4008 667.216 3932.78 592 3840 592Z" fill="black" id="n1272"/>
</mask>
<g mask="url(#mask146_68_6728)" id="n1273">
<path d="M3840 560V760M3840 760L3698.58 618.579M3840 760H3640M3840 760L3698.58 901.421M3840 760V960M3840 760L3981.42 901.421M3840 760H4040M3840 760L3981.42 618.579" stroke="#BEBEBE" id="n1274"/>
</g>
<mask id="mask147_68_6728" style="mask-type:alpha" maskUnits="userSpaceOnUse" x="3584" y="504" width="512" height="512">
<path d="M3840 568C3946.04 568 4032 653.961 4032 760C4032 866.039 3946.04 952 3840 952C3733.96 952 3648 866.039 3648 760C3648 653.961 3733.96 568 3840 568ZM3840 596C3749.43 596 3676 669.425 3676 760C3676 850.575 3749.43 924 3840 924C3930.57 924 4004 850.575 4004 760C4004 669.425 3930.57 596 3840 596Z" fill="black" id="n1275"/>
</mask>
<g mask="url(#mask147_68_6728)" id="n1276">
<path d="M3840 560V760M3840 760H3640M3840 760V960M3840 760H4040" stroke="#BEBEBE" id="n1277"/>
</g>
</g>
<path d="M4028 759.999C4028 791.396 4020.3 820.995 4006.69 847.012C4004.65 850.925 3999.74 852.225 3995.92 850.017L3982.05 842.011C3996.01 817.886 4004 789.876 4004 759.999C4004 730.122 3996.01 702.112 3982.05 677.987L3995.92 669.982C3999.74 667.774 4004.65 669.074 4006.69 672.987C4020.3 699.004 4028 728.603 4028 759.999Z" fill="white" stroke="white" id="n1278"/>
<path d="M4004 760.001C4004 789.878 3996.01 817.888 3982.05 842.013L3947.41 822.013C3943.58 819.802 3942.3 814.916 3944.24 810.945C3944.26 810.916 3944.27 810.887 3944.28 810.858C3944.5 810.425 3944.7 809.991 3944.91 809.555C3944.93 809.523 3944.94 809.492 3944.96 809.46C3946.09 807.059 3947.14 804.613 3948.11 802.125C3948.12 802.1 3948.13 802.074 3948.14 802.049C3948.31 801.613 3948.48 801.176 3948.64 800.737C3948.68 800.627 3948.73 800.517 3948.77 800.406C3948.92 799.997 3949.07 799.586 3949.22 799.175C3949.24 799.119 3949.26 799.063 3949.28 799.007C3949.44 798.537 3949.61 798.067 3949.77 797.595C3949.78 797.567 3949.79 797.539 3949.8 797.512C3950.31 796.006 3950.8 794.485 3951.25 792.952C3951.28 792.869 3951.3 792.785 3951.33 792.701C3951.46 792.247 3951.59 791.791 3951.72 791.334C3951.72 791.318 3951.73 791.303 3951.73 791.287C3951.86 790.819 3951.99 790.349 3952.11 789.878C3952.14 789.769 3952.17 789.661 3952.2 789.552C3952.3 789.156 3952.41 788.759 3952.51 788.361C3952.53 788.247 3952.56 788.133 3952.59 788.019C3952.69 787.605 3952.79 787.191 3952.89 786.776C3952.92 786.671 3952.94 786.566 3952.97 786.461C3953.06 786.064 3953.15 785.665 3953.24 785.267C3953.27 785.14 3953.3 785.014 3953.32 784.888C3953.55 783.849 3953.76 782.806 3953.96 781.757C3953.97 781.705 3953.98 781.653 3953.99 781.602C3954.08 781.133 3954.16 780.664 3954.25 780.194C3954.27 780.084 3954.29 779.974 3954.3 779.863C3954.37 779.49 3954.43 779.116 3954.49 778.741C3954.53 778.521 3954.56 778.301 3954.6 778.08C3954.64 777.793 3954.69 777.506 3954.73 777.219C3954.76 776.998 3954.79 776.778 3954.83 776.557C3954.88 776.211 3954.92 775.864 3954.97 775.518C3954.99 775.353 3955.01 775.188 3955.04 775.022C3955.09 774.641 3955.13 774.259 3955.18 773.876C3955.19 773.723 3955.21 773.571 3955.23 773.418C3955.35 772.368 3955.46 771.314 3955.55 770.256C3955.57 770.099 3955.58 769.942 3955.59 769.785C3955.62 769.423 3955.65 769.06 3955.68 768.697C3955.69 768.48 3955.71 768.262 3955.72 768.045C3955.74 767.734 3955.77 767.424 3955.78 767.112C3955.8 766.87 3955.81 766.628 3955.83 766.386C3955.84 766.112 3955.85 765.837 3955.87 765.563C3955.88 765.313 3955.89 765.063 3955.9 764.813C3955.91 764.468 3955.93 764.123 3955.94 763.777C3955.94 763.605 3955.95 763.432 3955.95 763.259C3955.96 762.871 3955.97 762.483 3955.98 762.094C3955.98 761.935 3955.99 761.776 3955.99 761.617C3956 761.079 3956 760.541 3956 760.001C3956 759.461 3956 758.922 3955.99 758.384C3955.99 758.225 3955.98 758.066 3955.98 757.907C3955.97 757.518 3955.96 757.13 3955.95 756.742C3955.95 756.569 3955.94 756.396 3955.94 756.224C3955.93 755.878 3955.91 755.533 3955.9 755.188C3955.89 754.938 3955.88 754.688 3955.87 754.438C3955.85 754.164 3955.84 753.889 3955.83 753.615C3955.81 753.373 3955.8 753.131 3955.78 752.889C3955.77 752.577 3955.74 752.267 3955.72 751.956C3955.71 751.738 3955.69 751.521 3955.68 751.304C3955.65 750.941 3955.62 750.578 3955.59 750.216C3955.58 750.059 3955.57 749.902 3955.55 749.745C3955.46 748.69 3955.35 747.639 3955.23 746.592C3955.21 746.422 3955.19 746.253 3955.17 746.083C3955.13 745.718 3955.08 745.354 3955.04 744.99C3955.01 744.813 3954.99 744.636 3954.97 744.459C3954.92 744.121 3954.88 743.783 3954.83 743.446C3954.8 743.225 3954.76 743.003 3954.73 742.782C3954.69 742.495 3954.64 742.208 3954.6 741.921C3954.56 741.693 3954.53 741.466 3954.49 741.239C3954.44 740.931 3954.39 740.622 3954.33 740.314C3954.3 740.115 3954.27 739.916 3954.23 739.718C3954.16 739.307 3954.08 738.897 3954.01 738.488C3953.99 738.402 3953.98 738.315 3953.96 738.229C3953.76 737.185 3953.55 736.147 3953.32 735.113C3953.29 734.959 3953.25 734.805 3953.22 734.65C3953.14 734.308 3953.07 733.967 3952.99 733.626C3952.94 733.417 3952.89 733.208 3952.84 732.999C3952.77 732.703 3952.7 732.407 3952.63 732.112C3952.57 731.898 3952.52 731.684 3952.46 731.471C3952.38 731.15 3952.3 730.83 3952.22 730.51C3952.18 730.367 3952.14 730.224 3952.1 730.081C3952 729.697 3951.9 729.315 3951.79 728.933C3951.76 728.803 3951.72 728.674 3951.68 728.545C3951.57 728.143 3951.45 727.743 3951.34 727.343C3951.31 727.244 3951.28 727.146 3951.25 727.048C3950.8 725.525 3950.32 724.015 3949.81 722.52C3949.79 722.458 3949.77 722.396 3949.75 722.334C3949.6 721.898 3949.44 721.462 3949.29 721.028C3949.26 720.939 3949.23 720.851 3949.19 720.762C3949.06 720.387 3948.92 720.014 3948.78 719.642C3948.73 719.502 3948.68 719.362 3948.63 719.223C3948.48 718.821 3948.32 718.422 3948.17 718.022C3948.15 717.961 3948.12 717.899 3948.1 717.838C3947.92 717.392 3947.75 716.948 3947.57 716.505C3947.55 716.459 3947.53 716.413 3947.51 716.367C3946.92 714.907 3946.3 713.463 3945.65 712.033C3945.61 711.951 3945.57 711.869 3945.53 711.786C3945.35 711.385 3945.17 710.985 3944.98 710.587C3944.95 710.517 3944.91 710.447 3944.88 710.377C3944.69 709.989 3944.51 709.602 3944.32 709.216C3944.29 709.163 3944.27 709.109 3944.24 709.056C3942.3 705.085 3943.58 700.198 3947.41 697.987L3982.05 677.988C3996.01 702.114 4004 730.124 4004 760.001Z" fill="#F0F0F0" stroke="#F0F0F0" id="n1279"/>
<path d="M4028 760.5L4028.5 760.5L4028.5 759.5L4028 759.5L4028 760L4028 760.5ZM4028 760L4028 759.5L3956 759.5L3956 760L3956 760.5L4028 760.5L4028 760Z" fill="#BEBEBE" id="n1280"/>
<path d="M4028 760C4028 791.396 4020.3 820.995 4006.69 847.012C4004.65 850.925 3999.74 852.225 3995.92 850.017L3947.41 822.011C3943.58 819.8 3942.3 814.914 3944.24 810.944C3951.77 795.566 3956 778.277 3956 760C3956 741.722 3951.77 724.432 3944.24 709.054C3942.3 705.083 3943.58 700.197 3947.41 697.986L3995.92 669.982C3999.74 667.774 4004.65 669.074 4006.69 672.987C4020.3 699.004 4028 728.603 4028 760Z" stroke="#BEBEBE" id="n1281"/>
<g mask="url(#mask148_68_6728)" id="n1283">
<mask id="mask149_68_6728" style="mask-type:alpha" maskUnits="userSpaceOnUse" x="3584" y="504" width="512" height="512">
<path d="M3840 584C3937.2 584 4016 662.798 4016 760C4016 857.202 3937.2 936 3840 936C3742.8 936 3664 857.202 3664 760C3664 662.798 3742.8 584 3840 584ZM3840 592C3747.22 592 3672 667.216 3672 760C3672 852.784 3747.22 928 3840 928C3932.78 928 4008 852.784 4008 760C4008 667.216 3932.78 592 3840 592Z" fill="black" id="n1284"/>
</mask>
<g mask="url(#mask149_68_6728)" id="n1285">
<path d="M3840 560V760M3840 760L3822.57 560.761M3840 760L3805.27 563.038M3840 760L3788.24 566.815M3840 760L3771.6 572.062M3840 760L3755.48 578.739M3840 760L3740 586.795M3840 760L3725.28 596.17M3840 760L3711.44 606.791M3840 760L3698.58 618.579M3840 760L3686.79 631.442M3840 760L3676.17 645.285M3840 760L3666.79 660M3840 760L3658.74 675.476M3840 760L3652.06 691.596M3840 760L3646.81 708.236M3840 760L3643.04 725.27M3840 760L3640.76 742.569M3840 760H3640M3840 760L3640.76 777.431M3840 760L3643.04 794.729M3840 760L3646.81 811.764M3840 760L3652.06 828.404M3840 760L3658.74 844.524M3840 760L3666.79 860M3840 760L3676.17 874.715M3840 760L3686.79 888.557M3840 760L3698.58 901.421M3840 760L3711.44 913.209M3840 760L3725.28 923.83M3840 760L3740 933.205M3840 760L3755.48 941.262M3840 760L3771.6 947.938M3840 760L3788.24 953.185M3840 760L3805.27 956.961M3840 760L3822.57 959.239M3840 760V960M3840 760L3857.43 959.239M3840 760L3874.73 956.962M3840 760L3891.76 953.185M3840 760L3908.4 947.938M3840 760L3924.52 941.261M3840 760L3940 933.205M3840 760L3954.72 923.831M3840 760L3968.56 913.209M3840 760L3981.42 901.421M3840 760L3993.21 888.558M3840 760L4003.83 874.715M3840 760L4013.21 860M3840 760L4021.26 844.524M3840 760L4027.94 828.404M3840 760L4033.19 811.764M3840 760L4036.96 794.73M3840 760L4039.24 777.431M3840 760H4040M3840 760L4039.24 742.569M3840 760L4036.96 725.271M3840 760L4033.19 708.236M3840 760L4027.94 691.596M3840 760L4021.26 675.476M3840 760L4013.21 660M3840 760L4003.83 645.285M3840 760L3993.21 631.443M3840 760L3981.42 618.579M3840 760L3968.56 606.791M3840 760L3954.72 596.17M3840 760L3940 586.795M3840 760L3924.52 578.738M3840 760L3908.4 572.062M3840 760L3891.76 566.815M3840 760L3874.73 563.039M3840 760L3857.43 560.761" stroke="#BEBEBE" id="n1286"/>
</g>
<mask id="mask150_68_6728" style="mask-type:alpha" maskUnits="userSpaceOnUse" x="3584" y="504" width="512" height="512">
<path d="M3840 568C3946.04 568 4032 653.961 4032 760C4032 866.039 3946.04 952 3840 952C3733.96 952 3648 866.039 3648 760C3648 653.961 3733.96 568 3840 568ZM3840 592C3747.22 592 3672 667.216 3672 760C3672 852.784 3747.22 928 3840 928C3932.78 928 4008 852.784 4008 760C4008 667.216 3932.78 592 3840 592Z" fill="black" id="n1287"/>
</mask>
<g mask="url(#mask150_68_6728)" id="n1288">
<path d="M3840 560V760M3840 760L3740 586.795M3840 760L3666.79 660M3840 760H3640M3840 760L3666.79 860M3840 760L3740 933.205M3840 760V960M3840 760L3940 933.205M3840 760L4013.21 860M3840 760H4040M3840 760L4013.21 660M3840 760L3940 586.795" stroke="#BEBEBE" id="n1289"/>
</g>
<mask id="mask151_68_6728" style="mask-type:alpha" maskUnits="userSpaceOnUse" x="3584" y="504" width="512" height="512">
<path d="M3840 568C3946.04 568 4032 653.961 4032 760C4032 866.039 3946.04 952 3840 952C3733.96 952 3648 866.039 3648 760C3648 653.961 3733.96 568 3840 568ZM3840 596C3749.43 596 3676 669.425 3676 760C3676 850.575 3749.43 924 3840 924C3930.57 924 4004 850.575 4004 760C4004 669.425 3930.57 596 3840 596Z" fill="black" id="n1290"/>
</mask>
<g mask="url(#mask151_68_6728)" id="n1291">
<path d="M3840 560V760M3840 760H3640M3840 760V960M3840 760H4040" stroke="#BEBEBE" id="n1292"/>
</g>
</g>
<path d="M3652 760L3956 760" stroke="#BEBEBE" stroke-linecap="square" id="n1293"/>
<path d="M4002.81 666C3989.43 642.824 3971.26 622.772 3949.51 607.185C3927.75 591.597 3902.92 580.833 3876.68 575.612C3850.43 570.392 3823.37 570.834 3797.31 576.911C3771.25 582.988 3746.78 594.559 3725.55 610.85C3704.32 627.141 3686.81 647.776 3674.2 671.377C3661.58 694.978 3654.15 721.001 3652.4 747.704C3650.65 774.408 3654.62 801.177 3664.05 826.223C3673.48 851.269 3688.14 874.013 3707.06 892.936" stroke="#BEBEBE" stroke-linecap="round" id="n1294"/>
<path d="M3840 876L3840 572" stroke="#BEBEBE" stroke-linecap="square" id="n1295"/>
<path d="M4004 760.001C4004 774.683 4002.07 788.915 3998.45 802.456L3952.07 790.029C3952.09 789.979 3952.1 789.928 3952.11 789.878C3952.14 789.769 3952.17 789.661 3952.2 789.552C3952.3 789.156 3952.41 788.759 3952.51 788.361C3952.53 788.247 3952.56 788.133 3952.59 788.019C3952.69 787.605 3952.79 787.191 3952.89 786.776C3952.92 786.671 3952.94 786.566 3952.97 786.461C3953.06 786.064 3953.15 785.665 3953.24 785.267C3953.27 785.14 3953.3 785.014 3953.32 784.888C3953.55 783.849 3953.76 782.806 3953.96 781.757C3953.97 781.705 3953.98 781.653 3953.99 781.602C3954.08 781.133 3954.16 780.664 3954.25 780.194C3954.27 780.084 3954.29 779.974 3954.3 779.863C3954.37 779.49 3954.43 779.116 3954.49 778.741C3954.53 778.521 3954.56 778.301 3954.6 778.08C3954.64 777.793 3954.69 777.506 3954.73 777.219C3954.76 776.998 3954.79 776.778 3954.83 776.557C3954.88 776.211 3954.92 775.864 3954.97 775.518C3954.99 775.353 3955.01 775.188 3955.04 775.022C3955.09 774.641 3955.13 774.259 3955.18 773.876C3955.19 773.723 3955.21 773.571 3955.23 773.418C3955.35 772.368 3955.46 771.314 3955.55 770.256C3955.57 770.099 3955.58 769.942 3955.59 769.785C3955.62 769.423 3955.65 769.06 3955.68 768.697C3955.69 768.48 3955.71 768.263 3955.72 768.045C3955.74 767.734 3955.77 767.424 3955.78 767.112C3955.8 766.87 3955.81 766.628 3955.83 766.386C3955.84 766.112 3955.85 765.837 3955.87 765.563C3955.88 765.313 3955.89 765.063 3955.9 764.813C3955.91 764.468 3955.93 764.123 3955.94 763.777C3955.94 763.605 3955.95 763.432 3955.95 763.259C3955.96 762.871 3955.97 762.483 3955.98 762.094C3955.98 761.935 3955.99 761.776 3955.99 761.617C3956 761.079 3956 760.541 3956 760.001C3956 759.461 3956 758.922 3955.99 758.384C3955.99 758.225 3955.98 758.066 3955.98 757.907C3955.97 757.518 3955.96 757.13 3955.95 756.742C3955.95 756.569 3955.94 756.396 3955.94 756.224C3955.93 755.878 3955.91 755.533 3955.9 755.188C3955.89 754.938 3955.88 754.688 3955.87 754.438C3955.85 754.164 3955.84 753.889 3955.83 753.615C3955.81 753.373 3955.8 753.131 3955.78 752.889C3955.77 752.577 3955.74 752.267 3955.72 751.956C3955.71 751.738 3955.69 751.521 3955.68 751.304C3955.65 750.941 3955.62 750.578 3955.59 750.216C3955.58 750.059 3955.57 749.902 3955.55 749.745C3955.46 748.69 3955.35 747.639 3955.23 746.592C3955.21 746.422 3955.19 746.253 3955.17 746.083C3955.13 745.718 3955.08 745.354 3955.04 744.99C3955.01 744.813 3954.99 744.636 3954.97 744.459C3954.92 744.121 3954.88 743.783 3954.83 743.446C3954.8 743.225 3954.76 743.003 3954.73 742.782C3954.69 742.495 3954.64 742.208 3954.6 741.921C3954.56 741.693 3954.53 741.466 3954.49 741.239C3954.44 740.931 3954.39 740.622 3954.33 740.314C3954.3 740.115 3954.27 739.916 3954.23 739.718C3954.16 739.307 3954.08 738.897 3954.01 738.488C3953.99 738.402 3953.98 738.315 3953.96 738.229C3953.76 737.185 3953.55 736.147 3953.32 735.113C3953.29 734.959 3953.25 734.805 3953.22 734.65C3953.14 734.308 3953.07 733.967 3952.99 733.626C3952.94 733.417 3952.89 733.208 3952.84 732.999C3952.77 732.703 3952.7 732.407 3952.63 732.112C3952.57 731.898 3952.52 731.684 3952.46 731.471C3952.38 731.15 3952.3 730.83 3952.22 730.51C3952.18 730.367 3952.14 730.224 3952.1 730.081C3952.09 730.044 3952.08 730.007 3952.07 729.97L3998.45 717.543C4002.07 731.085 4004 745.317 4004 760.001Z" fill="#9CC1F5" id="n1296"/>
<path d="M3998.45 802.456L3998.32 802.939L3998.8 803.069L3998.93 802.585L3998.45 802.456ZM3952.07 790.029L3951.59 789.9L3951.46 790.383L3951.94 790.512L3952.07 790.029ZM3952.11 789.878L3951.63 789.749L3951.63 789.749L3952.11 789.878ZM3952.2 789.552L3952.68 789.679L3952.68 789.679L3952.2 789.552ZM3952.51 788.361L3952.02 788.239L3952.02 788.239L3952.51 788.361ZM3952.59 788.019L3953.08 788.139L3953.08 788.139L3952.59 788.019ZM3952.89 786.776L3952.41 786.661L3952.41 786.661L3952.89 786.776ZM3952.97 786.461L3953.45 786.575L3953.45 786.575L3952.97 786.461ZM3953.24 785.267L3952.75 785.158L3952.75 785.158L3953.24 785.267ZM3953.32 784.888L3953.81 784.994L3953.81 784.994L3953.32 784.888ZM3953.96 781.757L3953.47 781.664L3953.47 781.664L3953.96 781.757ZM3953.99 781.602L3954.48 781.694L3954.48 781.694L3953.99 781.602ZM3954.25 780.194L3953.75 780.108L3953.75 780.108L3954.25 780.194ZM3954.3 779.863L3954.8 779.948V779.948L3954.3 779.863ZM3954.49 778.741L3954 778.661L3954 778.661L3954.49 778.741ZM3954.6 778.08L3955.09 778.157L3955.09 778.157L3954.6 778.08ZM3954.73 777.219L3954.23 777.145L3954.23 777.145L3954.73 777.219ZM3954.83 776.557L3955.32 776.627L3955.32 776.627L3954.83 776.557ZM3954.97 775.518L3954.47 775.451V775.451L3954.97 775.518ZM3955.04 775.022L3955.53 775.087L3955.53 775.087L3955.04 775.022ZM3955.18 773.876L3954.68 773.817L3954.68 773.817L3955.18 773.876ZM3955.23 773.418L3955.73 773.475L3955.73 773.475L3955.23 773.418ZM3955.55 770.256L3955.05 770.212L3955.05 770.212L3955.55 770.256ZM3955.59 769.785L3956.09 769.827V769.827L3955.59 769.785ZM3955.68 768.697L3955.18 768.66L3955.18 768.66L3955.68 768.697ZM3955.72 768.045L3956.22 768.079L3956.22 768.079L3955.72 768.045ZM3955.78 767.112L3955.29 767.082L3955.29 767.082L3955.78 767.112ZM3955.83 766.386L3956.32 766.413L3956.32 766.413L3955.83 766.386ZM3955.87 765.563L3955.37 765.539V765.539L3955.87 765.563ZM3955.9 764.813L3956.4 764.833V764.833L3955.9 764.813ZM3955.94 763.777L3955.44 763.761V763.761L3955.94 763.777ZM3955.95 763.259L3956.45 763.273L3956.45 763.273L3955.95 763.259ZM3955.98 762.094L3955.48 762.085V762.085L3955.98 762.094ZM3955.99 761.617L3956.49 761.624V761.624L3955.99 761.617ZM3955.99 758.384L3956.49 758.377V758.377L3955.99 758.384ZM3955.98 757.907L3955.48 757.916V757.916L3955.98 757.907ZM3955.95 756.742L3956.45 756.728V756.728L3955.95 756.742ZM3955.94 756.224L3955.44 756.24V756.24L3955.94 756.224ZM3955.9 755.188L3956.4 755.168V755.168L3955.9 755.188ZM3955.87 754.438L3955.37 754.462V754.462L3955.87 754.438ZM3955.83 753.615L3956.32 753.588L3956.32 753.588L3955.83 753.615ZM3955.78 752.889L3955.29 752.919V752.919L3955.78 752.889ZM3955.72 751.956L3956.22 751.922L3956.22 751.922L3955.72 751.956ZM3955.68 751.304L3955.18 751.341V751.341L3955.68 751.304ZM3955.59 750.216L3956.09 750.174V750.174L3955.59 750.216ZM3955.55 749.745L3955.05 749.789V749.789L3955.55 749.745ZM3955.23 746.592L3955.73 746.535V746.535L3955.23 746.592ZM3955.17 746.083L3954.68 746.142V746.142L3955.17 746.083ZM3955.04 744.99L3955.53 744.926V744.926L3955.04 744.99ZM3954.97 744.459L3954.47 744.525V744.525L3954.97 744.459ZM3954.83 743.446L3955.32 743.376V743.376L3954.83 743.446ZM3954.73 742.782L3954.23 742.856V742.856L3954.73 742.782ZM3954.6 741.921L3955.09 741.844L3955.09 741.844L3954.6 741.921ZM3954.49 741.239L3954 741.32V741.32L3954.49 741.239ZM3954.33 740.314L3954.83 740.23L3954.83 740.23L3954.33 740.314ZM3954.23 739.718L3953.74 739.805V739.805L3954.23 739.718ZM3954.01 738.488L3954.5 738.396V738.396L3954.01 738.488ZM3953.96 738.229L3953.47 738.322L3953.47 738.322L3953.96 738.229ZM3953.32 735.113L3953.81 735.006L3953.81 735.006L3953.32 735.113ZM3953.22 734.65L3952.73 734.759L3952.73 734.759L3953.22 734.65ZM3952.99 733.626L3953.47 733.513L3953.47 733.513L3952.99 733.626ZM3952.84 732.999L3952.35 733.115L3952.35 733.115L3952.84 732.999ZM3952.63 732.112L3953.11 731.993L3953.11 731.992L3952.63 732.112ZM3952.46 731.471L3951.98 731.593V731.593L3952.46 731.471ZM3952.22 730.51L3952.7 730.383L3952.7 730.383L3952.22 730.51ZM3952.1 730.081L3951.62 730.21L3951.62 730.21L3952.1 730.081ZM3952.07 729.97L3951.94 729.487L3951.46 729.616L3951.59 730.099L3952.07 729.97ZM3998.45 717.543L3998.93 717.414L3998.8 716.931L3998.32 717.06L3998.45 717.543ZM4004 760.001L4003.5 760.001C4003.5 774.639 4001.57 788.827 3997.97 802.327L3998.45 802.456L3998.93 802.585C4002.56 789.002 4004.5 774.728 4004.5 760.001L4004 760.001ZM3998.45 802.456L3998.58 801.973L3952.2 789.546L3952.07 790.029L3951.94 790.512L3998.32 802.939L3998.45 802.456ZM3952.07 790.029L3952.56 790.158C3952.56 790.133 3952.59 790.04 3952.6 790.006L3952.11 789.878L3951.63 789.749C3951.61 789.817 3951.61 789.825 3951.59 789.9L3952.07 790.029ZM3952.11 789.878L3952.6 790.006C3952.63 789.897 3952.66 789.787 3952.68 789.679L3952.2 789.552L3951.72 789.425C3951.69 789.534 3951.66 789.642 3951.63 789.749L3952.11 789.878ZM3952.2 789.552L3952.68 789.679C3952.79 789.281 3952.89 788.882 3952.99 788.483L3952.51 788.361L3952.02 788.239C3951.92 788.636 3951.82 789.031 3951.72 789.425L3952.2 789.552ZM3952.51 788.361L3952.99 788.483C3953.02 788.37 3953.05 788.254 3953.08 788.139L3952.59 788.019L3952.11 787.898C3952.08 788.012 3952.05 788.124 3952.02 788.239L3952.51 788.361ZM3952.59 788.019L3953.08 788.139C3953.18 787.724 3953.28 787.308 3953.38 786.891L3952.89 786.776L3952.41 786.661C3952.31 787.075 3952.21 787.487 3952.11 787.898L3952.59 788.019ZM3952.89 786.776L3953.38 786.891C3953.4 786.795 3953.43 786.678 3953.45 786.575L3952.97 786.461L3952.48 786.347C3952.46 786.455 3952.43 786.548 3952.41 786.661L3952.89 786.776ZM3952.97 786.461L3953.45 786.575C3953.55 786.175 3953.64 785.774 3953.73 785.375L3953.24 785.267L3952.75 785.158C3952.66 785.557 3952.57 785.953 3952.48 786.347L3952.97 786.461ZM3953.24 785.267L3953.73 785.375C3953.75 785.257 3953.78 785.119 3953.81 784.994L3953.32 784.888L3952.83 784.781C3952.81 784.909 3952.78 785.023 3952.75 785.158L3953.24 785.267ZM3953.32 784.888L3953.81 784.994C3954.04 783.952 3954.25 782.903 3954.45 781.85L3953.96 781.757L3953.47 781.664C3953.27 782.708 3953.06 783.747 3952.83 784.781L3953.32 784.888ZM3953.96 781.757L3954.45 781.85C3954.46 781.821 3954.46 781.793 3954.47 781.767C3954.47 781.741 3954.48 781.717 3954.48 781.694L3953.99 781.602L3953.5 781.509C3953.49 781.537 3953.49 781.566 3953.48 781.591C3953.48 781.617 3953.48 781.641 3953.47 781.664L3953.96 781.757ZM3953.99 781.602L3954.48 781.694C3954.57 781.224 3954.66 780.753 3954.74 780.281L3954.25 780.194L3953.75 780.108C3953.67 780.576 3953.59 781.043 3953.5 781.509L3953.99 781.602ZM3954.25 780.194L3954.74 780.281C3954.76 780.17 3954.78 780.059 3954.8 779.948L3954.3 779.863L3953.81 779.778C3953.79 779.888 3953.77 779.998 3953.75 780.108L3954.25 780.194ZM3954.3 779.863L3954.8 779.948C3954.86 779.573 3954.92 779.197 3954.99 778.821L3954.49 778.741L3954 778.661C3953.94 779.034 3953.88 779.407 3953.81 779.778L3954.3 779.863ZM3954.49 778.741L3954.99 778.821C3955.02 778.6 3955.06 778.379 3955.09 778.157L3954.6 778.08L3954.1 778.003C3954.07 778.222 3954.03 778.442 3954 778.661L3954.49 778.741ZM3954.6 778.08L3955.09 778.157C3955.14 777.87 3955.18 777.581 3955.22 777.292L3954.73 777.219L3954.23 777.145C3954.19 777.431 3954.15 777.717 3954.1 778.003L3954.6 778.08ZM3954.73 777.219L3955.22 777.292C3955.26 777.071 3955.29 776.849 3955.32 776.627L3954.83 776.557L3954.33 776.486C3954.3 776.706 3954.27 776.925 3954.23 777.145L3954.73 777.219ZM3954.83 776.557L3955.32 776.627C3955.37 776.28 3955.42 775.932 3955.47 775.584L3954.97 775.518L3954.47 775.451C3954.43 775.797 3954.38 776.142 3954.33 776.486L3954.83 776.557ZM3954.97 775.518L3955.47 775.584C3955.49 775.423 3955.51 775.253 3955.53 775.087L3955.04 775.022L3954.54 774.958C3954.52 775.123 3954.5 775.282 3954.47 775.451L3954.97 775.518ZM3955.04 775.022L3955.53 775.087C3955.58 774.702 3955.63 774.318 3955.67 773.935L3955.18 773.876L3954.68 773.817C3954.63 774.2 3954.59 774.58 3954.54 774.958L3955.04 775.022ZM3955.18 773.876L3955.67 773.935C3955.69 773.793 3955.71 773.626 3955.73 773.475L3955.23 773.418L3954.74 773.361C3954.72 773.516 3954.7 773.654 3954.68 773.817L3955.18 773.876ZM3955.23 773.418L3955.73 773.475C3955.85 772.421 3955.96 771.362 3956.05 770.299L3955.55 770.256L3955.05 770.212C3954.96 771.266 3954.86 772.316 3954.74 773.361L3955.23 773.418ZM3955.55 770.256L3956.05 770.3C3956.06 770.142 3956.08 769.979 3956.09 769.827L3955.59 769.785L3955.09 769.744C3955.08 769.905 3955.07 770.056 3955.05 770.212L3955.55 770.256ZM3955.59 769.785L3956.09 769.827C3956.12 769.464 3956.15 769.1 3956.18 768.734L3955.68 768.697L3955.18 768.66C3955.15 769.021 3955.12 769.382 3955.09 769.744L3955.59 769.785ZM3955.68 768.697L3956.18 768.734C3956.19 768.515 3956.21 768.294 3956.22 768.079L3955.72 768.045L3955.22 768.011C3955.21 768.231 3955.2 768.445 3955.18 768.66L3955.68 768.697ZM3955.72 768.045L3956.22 768.079C3956.24 767.768 3956.26 767.455 3956.28 767.142L3955.78 767.112L3955.29 767.082C3955.27 767.392 3955.25 767.701 3955.22 768.011L3955.72 768.045ZM3955.78 767.112L3956.28 767.142C3956.3 766.899 3956.31 766.655 3956.32 766.413L3955.83 766.386L3955.33 766.359C3955.31 766.601 3955.3 766.842 3955.29 767.082L3955.78 767.112ZM3955.83 766.386L3956.32 766.413C3956.34 766.138 3956.35 765.862 3956.37 765.586L3955.87 765.563L3955.37 765.539C3955.35 765.812 3955.34 766.085 3955.33 766.359L3955.83 766.386ZM3955.87 765.563L3956.37 765.586C3956.38 765.335 3956.39 765.084 3956.4 764.833L3955.9 764.813L3955.4 764.792C3955.39 765.041 3955.38 765.29 3955.37 765.539L3955.87 765.563ZM3955.9 764.813L3956.4 764.833C3956.41 764.486 3956.43 764.14 3956.44 763.793L3955.94 763.777L3955.44 763.761C3955.43 764.106 3955.41 764.449 3955.4 764.792L3955.9 764.813ZM3955.94 763.777L3956.44 763.793C3956.44 763.624 3956.45 763.447 3956.45 763.273L3955.95 763.259L3955.45 763.245C3955.45 763.417 3955.44 763.585 3955.44 763.761L3955.94 763.777ZM3955.95 763.259L3956.45 763.273C3956.46 762.882 3956.47 762.492 3956.48 762.103L3955.98 762.094L3955.48 762.085C3955.47 762.473 3955.46 762.86 3955.45 763.245L3955.95 763.259ZM3955.98 762.094L3956.48 762.103C3956.48 761.949 3956.49 761.784 3956.49 761.624L3955.99 761.617L3955.49 761.61C3955.49 761.769 3955.48 761.921 3955.48 762.085L3955.98 762.094ZM3955.99 761.617L3956.49 761.624C3956.5 761.084 3956.5 760.543 3956.5 760.001L3956 760.001L3955.5 760.001C3955.5 760.538 3955.5 761.074 3955.49 761.61L3955.99 761.617ZM3956 760.001L3956.5 760.001C3956.5 759.458 3956.5 758.917 3956.49 758.377L3955.99 758.384L3955.49 758.391C3955.5 758.927 3955.5 759.464 3955.5 760.001L3956 760.001ZM3955.99 758.384L3956.49 758.377C3956.49 758.217 3956.48 758.052 3956.48 757.898L3955.98 757.907L3955.48 757.916C3955.48 758.08 3955.49 758.232 3955.49 758.391L3955.99 758.384ZM3955.98 757.907L3956.48 757.898C3956.47 757.509 3956.46 757.119 3956.45 756.728L3955.95 756.742L3955.45 756.756C3955.46 757.141 3955.47 757.528 3955.48 757.916L3955.98 757.907ZM3955.95 756.742L3956.45 756.728C3956.45 756.554 3956.44 756.377 3956.44 756.208L3955.94 756.224L3955.44 756.24C3955.44 756.416 3955.45 756.584 3955.45 756.756L3955.95 756.742ZM3955.94 756.224L3956.44 756.208C3956.43 755.861 3956.41 755.515 3956.4 755.168L3955.9 755.188L3955.4 755.209C3955.41 755.552 3955.43 755.895 3955.44 756.24L3955.94 756.224ZM3955.9 755.188L3956.4 755.168C3956.39 754.917 3956.38 754.665 3956.37 754.415L3955.87 754.438L3955.37 754.462C3955.38 754.711 3955.39 754.96 3955.4 755.209L3955.9 755.188ZM3955.87 754.438L3956.37 754.415C3956.35 754.139 3956.34 753.863 3956.32 753.588L3955.83 753.615L3955.33 753.642C3955.34 753.916 3955.35 754.189 3955.37 754.462L3955.87 754.438ZM3955.83 753.615L3956.32 753.588C3956.31 753.346 3956.3 753.102 3956.28 752.858L3955.78 752.889L3955.29 752.919C3955.3 753.159 3955.31 753.4 3955.33 753.642L3955.83 753.615ZM3955.78 752.889L3956.28 752.858C3956.26 752.546 3956.24 752.233 3956.22 751.922L3955.72 751.956L3955.22 751.99C3955.25 752.3 3955.27 752.609 3955.29 752.919L3955.78 752.889ZM3955.72 751.956L3956.22 751.922C3956.21 751.707 3956.19 751.486 3956.18 751.267L3955.68 751.304L3955.18 751.341C3955.2 751.556 3955.21 751.77 3955.22 751.99L3955.72 751.956ZM3955.68 751.304L3956.18 751.267C3956.15 750.901 3956.12 750.537 3956.09 750.174L3955.59 750.216L3955.09 750.257C3955.12 750.619 3955.15 750.98 3955.18 751.341L3955.68 751.304ZM3955.59 750.216L3956.09 750.174C3956.08 750.022 3956.06 749.859 3956.05 749.701L3955.55 749.745L3955.05 749.789C3955.07 749.945 3955.08 750.096 3955.09 750.257L3955.59 750.216ZM3955.55 749.745L3956.05 749.701C3955.96 748.642 3955.85 747.586 3955.73 746.535L3955.23 746.592L3954.74 746.649C3954.86 747.691 3954.96 748.738 3955.05 749.789L3955.55 749.745ZM3955.23 746.592L3955.73 746.535C3955.71 746.365 3955.69 746.186 3955.67 746.024L3955.17 746.083L3954.68 746.142C3954.7 746.319 3954.72 746.479 3954.74 746.649L3955.23 746.592ZM3955.17 746.083L3955.67 746.024C3955.62 745.659 3955.58 745.292 3955.53 744.926L3955.04 744.99L3954.54 745.054C3954.59 745.416 3954.63 745.778 3954.68 746.142L3955.17 746.083ZM3955.04 744.99L3955.53 744.926C3955.51 744.748 3955.49 744.569 3955.46 744.393L3954.97 744.459L3954.47 744.525C3954.49 744.703 3954.52 744.878 3954.54 745.054L3955.04 744.99ZM3954.97 744.459L3955.46 744.393C3955.42 744.054 3955.37 743.715 3955.32 743.376L3954.83 743.446L3954.33 743.517C3954.38 743.852 3954.43 744.188 3954.47 744.525L3954.97 744.459ZM3954.83 743.446L3955.32 743.376C3955.29 743.152 3955.26 742.929 3955.22 742.709L3954.73 742.782L3954.23 742.856C3954.27 743.078 3954.3 743.297 3954.33 743.517L3954.83 743.446ZM3954.73 742.782L3955.22 742.709C3955.18 742.42 3955.14 742.131 3955.09 741.844L3954.6 741.921L3954.1 741.998C3954.15 742.284 3954.19 742.57 3954.23 742.856L3954.73 742.782ZM3954.6 741.921L3955.09 741.844C3955.06 741.616 3955.02 741.387 3954.98 741.159L3954.49 741.239L3954 741.32C3954.03 741.545 3954.07 741.771 3954.1 741.998L3954.6 741.921ZM3954.49 741.239L3954.98 741.159C3954.93 740.849 3954.88 740.539 3954.83 740.23L3954.33 740.314L3953.84 740.399C3953.89 740.705 3953.95 741.012 3954 741.32L3954.49 741.239ZM3954.33 740.314L3954.83 740.23C3954.79 740.033 3954.76 739.831 3954.72 739.631L3954.23 739.718L3953.74 739.805C3953.77 740.002 3953.81 740.198 3953.84 740.399L3954.33 740.314ZM3954.23 739.718L3954.72 739.631C3954.65 739.218 3954.58 738.806 3954.5 738.396L3954.01 738.488L3953.52 738.58C3953.59 738.989 3953.67 739.396 3953.74 739.805L3954.23 739.718ZM3954.01 738.488L3954.5 738.396C3954.49 738.326 3954.47 738.214 3954.45 738.135L3953.96 738.229L3953.47 738.322C3953.49 738.416 3953.5 738.478 3953.52 738.58L3954.01 738.488ZM3953.96 738.229L3954.45 738.135C3954.25 737.087 3954.04 736.044 3953.81 735.006L3953.32 735.113L3952.84 735.22C3953.06 736.249 3953.27 737.283 3953.47 738.322L3953.96 738.229ZM3953.32 735.113L3953.81 735.006C3953.78 734.855 3953.74 734.684 3953.71 734.542L3953.22 734.65L3952.73 734.759C3952.77 734.925 3952.8 735.063 3952.84 735.22L3953.32 735.113ZM3953.22 734.65L3953.71 734.542C3953.63 734.199 3953.55 733.856 3953.47 733.513L3952.99 733.626L3952.5 733.739C3952.58 734.078 3952.66 734.418 3952.73 734.759L3953.22 734.65ZM3952.99 733.626L3953.47 733.513C3953.43 733.302 3953.37 733.091 3953.33 732.883L3952.84 732.999L3952.35 733.115C3952.4 733.324 3952.45 733.532 3952.5 733.739L3952.99 733.626ZM3952.84 732.999L3953.33 732.883C3953.25 732.587 3953.18 732.29 3953.11 731.993L3952.63 732.112L3952.14 732.232C3952.21 732.525 3952.28 732.819 3952.35 733.115L3952.84 732.999ZM3952.63 732.112L3953.11 731.992C3953.06 731.777 3953 731.561 3952.95 731.348L3952.46 731.471L3951.98 731.593C3952.03 731.808 3952.09 732.02 3952.14 732.232L3952.63 732.112ZM3952.46 731.471L3952.95 731.348C3952.87 731.026 3952.78 730.704 3952.7 730.383L3952.22 730.51L3951.73 730.637C3951.82 730.955 3951.9 731.274 3951.98 731.593L3952.46 731.471ZM3952.22 730.51L3952.7 730.383C3952.66 730.239 3952.62 730.096 3952.59 729.952L3952.1 730.081L3951.62 730.21C3951.66 730.352 3951.7 730.494 3951.73 730.637L3952.22 730.51ZM3952.1 730.081L3952.59 729.952C3952.58 729.933 3952.56 729.867 3952.56 729.841L3952.07 729.97L3951.59 730.099C3951.6 730.147 3951.61 730.155 3951.62 730.21L3952.1 730.081ZM3952.07 729.97L3952.2 730.453L3998.58 718.026L3998.45 717.543L3998.32 717.06L3951.94 729.487L3952.07 729.97ZM3998.45 717.543L3997.97 717.672C4001.58 731.172 4003.5 745.361 4003.5 760.001L4004 760.001L4004.5 760.001C4004.5 745.273 4002.56 730.998 3998.93 717.414L3998.45 717.543Z" fill="#9CC1F5" id="n1297"/>
<rect x="4004" y="756" width="8" height="48" rx="4" transform="rotate(90 4004 756)" fill="#2D548B" stroke="#9CC1F5" id="n1298"/>
<path d="M3840 759C3839.45 759 3839 759.448 3839 760C3839 760.552 3839.45 761 3840 761L3840 760L3840 759ZM3960 760L3960 759L3840 759L3840 760L3840 761L3960 761L3960 760Z" fill="#2D548B" id="n1299"/>
<path d="M3934.48 760V760.965C3934.48 765.936 3930.45 769.965 3925.48 769.965H3757.94V764.254L3745.48 760V748.158H3857.63L3875.8 729.985L3873.73 723.754H3871.65L3873.73 722.196H3877.36V719.6H3878.4L3874.25 706.1H3877.36L3884.63 719.6C3889.46 719.6 3894.28 720.129 3899 721.177L3910.59 723.754H3908L3904.88 729.985L3912.67 737.773H3933.44C3933.44 737.773 3929.33 742.841 3927.21 746.86C3925.46 750.177 3923.05 755.946 3923.05 755.946L3928.45 754.966C3931.59 754.395 3934.48 756.808 3934.48 760Z" fill="white" id="n1300"/>
<path d="M3745.48 760H3934.48M3745.48 760L3757.94 764.254V769.965H3925.48C3930.45 769.965 3934.48 765.936 3934.48 760.965V760M3745.48 760V748.158H3857.63M3934.48 760C3934.48 756.808 3931.59 754.395 3928.45 754.966L3923.05 755.946C3923.05 755.946 3925.46 750.177 3927.21 746.86C3929.33 742.841 3933.44 737.773 3933.44 737.773H3912.67M3857.63 748.158H3864.38L3874.77 737.773H3912.67M3857.63 748.158L3875.8 729.985M3875.8 729.985H3904.88M3875.8 729.985L3873.73 723.754H3908L3904.88 729.985M3904.88 729.985L3912.67 737.773M3884.63 719.6L3877.36 706.1H3874.25L3878.4 719.6M3884.63 719.6H3878.4M3884.63 719.6C3889.46 719.6 3894.28 720.129 3899 721.177L3910.59 723.754H3871.65L3873.73 722.196H3877.36V719.6H3878.4" stroke="#8E8E8E" id="n1301"/>
<path d="M3840 924C3825.32 924 3811.09 922.068 3797.54 918.449L3809.97 872.074C3810.75 872.283 3811.53 872.484 3812.32 872.677C3812.51 872.723 3812.7 872.768 3812.89 872.813C3813.14 872.874 3813.4 872.935 3813.65 872.993C3813.85 873.04 3814.05 873.085 3814.25 873.13C3814.5 873.188 3814.76 873.246 3815.02 873.303C3815.19 873.341 3815.37 873.378 3815.54 873.415C3815.82 873.477 3816.11 873.537 3816.4 873.597C3816.58 873.634 3816.76 873.671 3816.94 873.708C3817.2 873.76 3817.46 873.812 3817.72 873.862C3817.93 873.903 3818.14 873.943 3818.35 873.982C3818.58 874.026 3818.82 874.07 3819.05 874.112C3819.28 874.155 3819.52 874.197 3819.75 874.238C3819.98 874.278 3820.2 874.317 3820.43 874.355C3820.64 874.392 3820.86 874.428 3821.07 874.463C3821.39 874.516 3821.72 874.567 3822.04 874.617C3822.16 874.636 3822.28 874.655 3822.4 874.674C3822.75 874.727 3823.1 874.777 3823.45 874.827C3823.57 874.846 3823.7 874.865 3823.83 874.883C3824.08 874.917 3824.33 874.95 3824.57 874.982C3824.96 875.034 3825.35 875.082 3825.73 875.13C3826.04 875.167 3826.34 875.205 3826.65 875.24C3826.75 875.252 3826.86 875.263 3826.96 875.274C3827.3 875.312 3827.63 875.348 3827.96 875.383C3828.22 875.41 3828.48 875.435 3828.75 875.46C3828.94 875.479 3829.14 875.498 3829.34 875.517C3829.59 875.539 3829.83 875.56 3830.08 875.581C3830.32 875.602 3830.57 875.622 3830.81 875.641C3831.02 875.657 3831.22 875.672 3831.43 875.687C3831.7 875.707 3831.97 875.726 3832.25 875.744C3832.45 875.757 3832.65 875.77 3832.85 875.782C3833.14 875.8 3833.43 875.816 3833.72 875.832C3833.89 875.841 3834.06 875.849 3834.22 875.857C3834.53 875.873 3834.84 875.887 3835.15 875.899C3835.33 875.907 3835.51 875.914 3835.69 875.921C3836.02 875.933 3836.35 875.943 3836.68 875.952C3836.82 875.956 3836.96 875.96 3837.09 875.964C3837.49 875.974 3837.9 875.982 3838.3 875.987C3838.38 875.988 3838.45 875.99 3838.53 875.991C3839.02 875.997 3839.51 876 3840 876C3840.49 876 3840.98 875.997 3841.46 875.991C3841.55 875.99 3841.63 875.988 3841.71 875.986C3842.11 875.981 3842.51 875.974 3842.9 875.964C3843.04 875.96 3843.19 875.956 3843.33 875.952C3843.65 875.943 3843.98 875.933 3844.31 875.921C3844.49 875.914 3844.67 875.907 3844.85 875.899C3845.16 875.887 3845.47 875.873 3845.77 875.858C3845.94 875.85 3846.11 875.84 3846.29 875.831C3846.57 875.816 3846.86 875.8 3847.14 875.782C3847.35 875.77 3847.55 875.757 3847.76 875.743C3848.03 875.726 3848.29 875.708 3848.56 875.688C3848.77 875.673 3848.99 875.656 3849.2 875.64C3849.43 875.621 3849.67 875.602 3849.9 875.582C3850.16 875.561 3850.41 875.539 3850.66 875.516C3850.85 875.499 3851.04 875.481 3851.22 875.463C3851.5 875.437 3851.77 875.41 3852.04 875.382C3852.35 875.351 3852.65 875.318 3852.95 875.284C3853.09 875.269 3853.22 875.254 3853.36 875.238C3853.64 875.207 3853.91 875.172 3854.19 875.139C3854.65 875.083 3855.11 875.024 3855.57 874.963C3855.76 874.937 3855.96 874.912 3856.15 874.885C3856.31 874.863 3856.47 874.839 3856.63 874.816C3856.95 874.771 3857.26 874.724 3857.58 874.676C3857.72 874.655 3857.86 874.633 3858 874.611C3858.31 874.563 3858.62 874.514 3858.93 874.463C3859.15 874.426 3859.37 874.388 3859.6 874.35C3859.81 874.314 3860.02 874.278 3860.23 874.241C3860.47 874.198 3860.72 874.155 3860.96 874.11C3861.19 874.068 3861.42 874.026 3861.65 873.982C3861.86 873.943 3862.07 873.903 3862.28 873.862C3862.53 873.812 3862.79 873.762 3863.04 873.71C3863.24 873.671 3863.43 873.632 3863.62 873.593C3863.89 873.536 3864.16 873.479 3864.43 873.421C3864.62 873.382 3864.8 873.342 3864.98 873.302C3865.24 873.245 3865.5 873.188 3865.75 873.13C3865.95 873.085 3866.15 873.04 3866.35 872.993C3866.6 872.935 3866.86 872.874 3867.11 872.813C3867.3 872.768 3867.49 872.723 3867.68 872.677C3868.47 872.484 3869.25 872.283 3870.03 872.074L3882.46 918.449C3868.91 922.069 3854.68 924 3840 924Z" fill="#9CC1F5" id="n1302"/>
<path d="M3797.54 918.449L3797.06 918.32L3796.93 918.803L3797.41 918.932L3797.54 918.449ZM3809.97 872.074L3810.1 871.591L3809.62 871.462L3809.49 871.945L3809.97 872.074ZM3812.32 872.677L3812.44 872.191L3812.44 872.191L3812.32 872.677ZM3812.89 872.813L3812.78 873.3L3812.78 873.3L3812.89 872.813ZM3813.65 872.993L3813.76 872.506L3813.76 872.506L3813.65 872.993ZM3814.25 873.13L3814.14 873.618L3814.14 873.618L3814.25 873.13ZM3815.02 873.303L3815.13 872.814V872.814L3815.02 873.303ZM3815.54 873.415L3815.43 873.904V873.904L3815.54 873.415ZM3816.4 873.597L3816.5 873.107V873.107L3816.4 873.597ZM3816.94 873.708L3816.84 874.198V874.198L3816.94 873.708ZM3817.72 873.862L3817.82 873.371V873.371L3817.72 873.862ZM3818.35 873.982L3818.26 874.474V874.474L3818.35 873.982ZM3819.05 874.112L3819.14 873.62V873.62L3819.05 874.112ZM3819.75 874.238L3819.67 874.731L3819.67 874.731L3819.75 874.238ZM3820.43 874.355L3820.52 873.863V873.863L3820.43 874.355ZM3821.07 874.463L3820.99 874.956V874.956L3821.07 874.463ZM3822.04 874.617L3822.12 874.123L3822.12 874.123L3822.04 874.617ZM3822.4 874.674L3822.33 875.168V875.168L3822.4 874.674ZM3823.45 874.827L3823.52 874.332L3823.52 874.332L3823.45 874.827ZM3823.83 874.883L3823.76 875.378V875.378L3823.83 874.883ZM3824.57 874.982L3824.64 874.487V874.487L3824.57 874.982ZM3825.73 875.13L3825.67 875.626L3825.67 875.626L3825.73 875.13ZM3826.65 875.24L3826.7 874.743V874.743L3826.65 875.24ZM3826.96 875.274L3826.91 875.771L3826.91 875.771L3826.96 875.274ZM3827.96 875.383L3828.02 874.885V874.885L3827.96 875.383ZM3828.75 875.46L3828.7 875.958L3828.7 875.958L3828.75 875.46ZM3829.34 875.517L3829.39 875.019V875.019L3829.34 875.517ZM3830.08 875.581L3830.04 876.079V876.079L3830.08 875.581ZM3830.81 875.641L3830.85 875.142V875.142L3830.81 875.641ZM3831.43 875.687L3831.39 876.186L3831.39 876.186L3831.43 875.687ZM3832.25 875.744L3832.28 875.245V875.245L3832.25 875.744ZM3832.85 875.782L3832.82 876.281V876.281L3832.85 875.782ZM3833.72 875.832L3833.75 875.333V875.333L3833.72 875.832ZM3834.22 875.857L3834.2 876.357V876.357L3834.22 875.857ZM3835.15 875.899L3835.17 875.4V875.4L3835.15 875.899ZM3835.69 875.921L3835.67 876.421V876.421L3835.69 875.921ZM3836.68 875.952L3836.69 875.452V875.452L3836.68 875.952ZM3837.09 875.964L3837.08 876.464V876.464L3837.09 875.964ZM3838.3 875.987L3838.31 875.487V875.487L3838.3 875.987ZM3838.53 875.991L3838.53 876.491V876.491L3838.53 875.991ZM3840 876L3840 876.5V876.5L3840 876ZM3841.46 875.991L3841.46 875.491V875.491L3841.46 875.991ZM3841.71 875.986L3841.72 876.486V876.486L3841.71 875.986ZM3842.9 875.964L3842.89 875.464V875.464L3842.9 875.964ZM3843.33 875.952L3843.34 876.452L3843.34 876.452L3843.33 875.952ZM3844.31 875.921L3844.29 875.421V875.421L3844.31 875.921ZM3844.85 875.899L3844.87 876.399L3844.87 876.399L3844.85 875.899ZM3845.77 875.858L3845.75 875.359V875.359L3845.77 875.858ZM3846.29 875.831L3846.31 876.33L3846.31 876.33L3846.29 875.831ZM3847.14 875.782L3847.11 875.283L3847.11 875.283L3847.14 875.782ZM3847.76 875.743L3847.79 876.242L3847.79 876.242L3847.76 875.743ZM3848.56 875.688L3848.52 875.19L3848.52 875.19L3848.56 875.688ZM3849.2 875.64L3849.24 876.138L3849.24 876.138L3849.2 875.64ZM3849.9 875.582L3849.86 875.084L3849.86 875.084L3849.9 875.582ZM3850.66 875.516L3850.71 876.014L3850.71 876.014L3850.66 875.516ZM3851.22 875.463L3851.17 874.965L3851.17 874.965L3851.22 875.463ZM3852.04 875.382L3852.1 875.879L3852.1 875.879L3852.04 875.382ZM3852.95 875.284L3852.89 874.787L3852.89 874.787L3852.95 875.284ZM3853.36 875.238L3853.42 875.735L3853.42 875.735L3853.36 875.238ZM3854.19 875.139L3854.13 874.642L3854.13 874.642L3854.19 875.139ZM3855.57 874.963L3855.63 875.458L3855.63 875.458L3855.57 874.963ZM3856.15 874.885L3856.08 874.39L3856.08 874.39L3856.15 874.885ZM3856.63 874.816L3856.7 875.311L3856.7 875.311L3856.63 874.816ZM3857.58 874.676L3857.51 874.181L3857.51 874.181L3857.58 874.676ZM3858 874.611L3858.07 875.105L3858.07 875.105L3858 874.611ZM3858.93 874.463L3858.84 873.969L3858.84 873.969L3858.93 874.463ZM3859.6 874.35L3859.68 874.843L3859.68 874.843L3859.6 874.35ZM3860.23 874.241L3860.14 873.749L3860.14 873.749L3860.23 874.241ZM3860.96 874.11L3861.05 874.602L3861.05 874.602L3860.96 874.11ZM3861.65 873.982L3861.55 873.491L3861.55 873.491L3861.65 873.982ZM3862.28 873.862L3862.37 874.353L3862.37 874.353L3862.28 873.862ZM3863.04 873.71L3862.95 873.22L3862.95 873.22L3863.04 873.71ZM3863.62 873.593L3863.72 874.082L3863.72 874.082L3863.62 873.593ZM3864.43 873.421L3864.33 872.932L3864.33 872.932L3864.43 873.421ZM3864.98 873.302L3865.09 873.79L3865.09 873.79L3864.98 873.302ZM3865.75 873.13L3865.64 872.642L3865.64 872.642L3865.75 873.13ZM3866.35 872.993L3866.46 873.48L3866.46 873.48L3866.35 872.993ZM3867.11 872.813L3866.99 872.327L3866.99 872.327L3867.11 872.813ZM3867.68 872.677L3867.8 873.162L3867.8 873.162L3867.68 872.677ZM3870.03 872.074L3870.51 871.945L3870.38 871.462L3869.9 871.591L3870.03 872.074ZM3882.46 918.449L3882.59 918.932L3883.07 918.803L3882.94 918.32L3882.46 918.449ZM3840 924L3840 923.5C3825.36 923.5 3811.17 921.574 3797.67 917.966L3797.54 918.449L3797.41 918.932C3811 922.562 3825.27 924.5 3840 924.5L3840 924ZM3797.54 918.449L3798.03 918.579L3810.45 872.204L3809.97 872.074L3809.49 871.945L3797.06 918.32L3797.54 918.449ZM3809.97 872.074L3809.84 872.557C3810.62 872.766 3811.41 872.969 3812.2 873.162L3812.32 872.677L3812.44 872.191C3811.66 872 3810.88 871.799 3810.1 871.591L3809.97 872.074ZM3812.32 872.677L3812.2 873.162C3812.39 873.209 3812.59 873.255 3812.78 873.3L3812.89 872.813L3813.01 872.327C3812.81 872.28 3812.63 872.238 3812.44 872.191L3812.32 872.677ZM3812.89 872.813L3812.78 873.3C3813.03 873.36 3813.28 873.421 3813.53 873.48L3813.65 872.993L3813.76 872.506C3813.51 872.448 3813.26 872.388 3813.01 872.327L3812.89 872.813ZM3813.65 872.993L3813.53 873.48C3813.74 873.527 3813.94 873.572 3814.14 873.618L3814.25 873.13L3814.36 872.642C3814.16 872.597 3813.96 872.552 3813.76 872.506L3813.65 872.993ZM3814.25 873.13L3814.14 873.618C3814.39 873.676 3814.65 873.734 3814.91 873.791L3815.02 873.303L3815.13 872.814C3814.87 872.758 3814.61 872.7 3814.36 872.642L3814.25 873.13ZM3815.02 873.303L3814.91 873.791C3815.09 873.829 3815.26 873.867 3815.43 873.904L3815.54 873.415L3815.64 872.926C3815.47 872.889 3815.3 872.852 3815.13 872.814L3815.02 873.303ZM3815.54 873.415L3815.43 873.904C3815.72 873.966 3816.01 874.027 3816.3 874.086L3816.4 873.597L3816.5 873.107C3816.21 873.048 3815.93 872.987 3815.64 872.926L3815.54 873.415ZM3816.4 873.597L3816.3 874.086C3816.48 874.124 3816.66 874.161 3816.84 874.198L3816.94 873.708L3817.04 873.218C3816.86 873.182 3816.68 873.144 3816.5 873.107L3816.4 873.597ZM3816.94 873.708L3816.84 874.198C3817.11 874.251 3817.37 874.302 3817.63 874.353L3817.72 873.862L3817.82 873.371C3817.56 873.321 3817.3 873.27 3817.04 873.218L3816.94 873.708ZM3817.72 873.862L3817.63 874.353C3817.84 874.394 3818.05 874.434 3818.26 874.474L3818.35 873.982L3818.44 873.491C3818.24 873.452 3818.03 873.412 3817.82 873.371L3817.72 873.862ZM3818.35 873.982L3818.26 874.474C3818.49 874.518 3818.72 874.561 3818.96 874.604L3819.05 874.112L3819.14 873.62C3818.91 873.578 3818.68 873.535 3818.44 873.491L3818.35 873.982ZM3819.05 874.112L3818.96 874.604C3819.19 874.647 3819.43 874.689 3819.67 874.731L3819.75 874.238L3819.84 873.746C3819.6 873.705 3819.37 873.663 3819.14 873.62L3819.05 874.112ZM3819.75 874.238L3819.67 874.731C3819.89 874.771 3820.12 874.81 3820.35 874.848L3820.43 874.355L3820.52 873.863C3820.29 873.824 3820.06 873.785 3819.84 873.746L3819.75 874.238ZM3820.43 874.355L3820.35 874.848C3820.56 874.884 3820.77 874.921 3820.99 874.956L3821.07 874.463L3821.15 873.969C3820.94 873.935 3820.73 873.899 3820.52 873.863L3820.43 874.355ZM3821.07 874.463L3820.99 874.956C3821.31 875.01 3821.64 875.061 3821.96 875.111L3822.04 874.617L3822.12 874.123C3821.79 874.073 3821.47 874.022 3821.15 873.969L3821.07 874.463ZM3822.04 874.617L3821.96 875.111C3822.08 875.13 3822.21 875.15 3822.33 875.168L3822.4 874.674L3822.48 874.18C3822.36 874.161 3822.24 874.142 3822.12 874.123L3822.04 874.617ZM3822.4 874.674L3822.33 875.168C3822.68 875.221 3823.03 875.272 3823.37 875.322L3823.45 874.827L3823.52 874.332C3823.17 874.283 3822.82 874.232 3822.48 874.18L3822.4 874.674ZM3823.45 874.827L3823.37 875.322C3823.5 875.34 3823.63 875.36 3823.76 875.378L3823.83 874.883L3823.9 874.388C3823.77 874.37 3823.65 874.351 3823.52 874.332L3823.45 874.827ZM3823.83 874.883L3823.76 875.378C3824.01 875.413 3824.26 875.445 3824.51 875.478L3824.57 874.982L3824.64 874.487C3824.39 874.454 3824.15 874.422 3823.9 874.388L3823.83 874.883ZM3824.57 874.982L3824.51 875.478C3824.9 875.53 3825.28 875.579 3825.67 875.626L3825.73 875.13L3825.79 874.634C3825.41 874.586 3825.02 874.538 3824.64 874.487L3824.57 874.982ZM3825.73 875.13L3825.67 875.626C3825.97 875.663 3826.28 875.702 3826.59 875.737L3826.65 875.24L3826.7 874.743C3826.4 874.709 3826.1 874.671 3825.79 874.634L3825.73 875.13ZM3826.65 875.24L3826.59 875.737C3826.69 875.748 3826.82 875.761 3826.91 875.771L3826.96 875.274L3827.02 874.778C3826.9 874.764 3826.82 874.756 3826.7 874.743L3826.65 875.24ZM3826.96 875.274L3826.91 875.771C3827.24 875.809 3827.58 875.845 3827.91 875.88L3827.96 875.383L3828.02 874.885C3827.68 874.851 3827.35 874.815 3827.02 874.778L3826.96 875.274ZM3827.96 875.383L3827.91 875.88C3828.18 875.907 3828.44 875.933 3828.7 875.958L3828.75 875.46L3828.79 874.962C3828.53 874.937 3828.27 874.912 3828.02 874.885L3827.96 875.383ZM3828.75 875.46L3828.7 875.958C3828.9 875.977 3829.1 875.996 3829.3 876.015L3829.34 875.517L3829.39 875.019C3829.19 875.001 3828.99 874.981 3828.79 874.962L3828.75 875.46ZM3829.34 875.517L3829.3 876.015C3829.55 876.037 3829.79 876.058 3830.04 876.079L3830.08 875.581L3830.12 875.083C3829.88 875.062 3829.63 875.041 3829.39 875.019L3829.34 875.517ZM3830.08 875.581L3830.04 876.079C3830.28 876.1 3830.53 876.12 3830.77 876.139L3830.81 875.641L3830.85 875.142C3830.61 875.123 3830.36 875.103 3830.12 875.083L3830.08 875.581ZM3830.81 875.641L3830.77 876.139C3830.98 876.155 3831.18 876.171 3831.39 876.186L3831.43 875.687L3831.47 875.189C3831.26 875.174 3831.05 875.158 3830.85 875.142L3830.81 875.641ZM3831.43 875.687L3831.39 876.186C3831.67 876.206 3831.94 876.225 3832.22 876.243L3832.25 875.744L3832.28 875.245C3832.01 875.227 3831.74 875.209 3831.47 875.189L3831.43 875.687ZM3832.25 875.744L3832.22 876.243C3832.42 876.256 3832.62 876.269 3832.82 876.281L3832.85 875.782L3832.88 875.283C3832.68 875.271 3832.48 875.258 3832.28 875.245L3832.25 875.744ZM3832.85 875.782L3832.82 876.281C3833.11 876.299 3833.4 876.316 3833.7 876.331L3833.72 875.832L3833.75 875.333C3833.46 875.317 3833.17 875.301 3832.88 875.283L3832.85 875.782ZM3833.72 875.832L3833.7 876.331C3833.86 876.34 3834.03 876.349 3834.2 876.357L3834.22 875.857L3834.25 875.358C3834.08 875.35 3833.92 875.342 3833.75 875.333L3833.72 875.832ZM3834.22 875.857L3834.2 876.357C3834.51 876.372 3834.82 876.386 3835.13 876.399L3835.15 875.899L3835.17 875.4C3834.86 875.387 3834.55 875.373 3834.25 875.358L3834.22 875.857ZM3835.15 875.899L3835.13 876.399C3835.31 876.406 3835.49 876.414 3835.67 876.421L3835.69 875.921L3835.71 875.421C3835.53 875.415 3835.35 875.407 3835.17 875.4L3835.15 875.899ZM3835.69 875.921L3835.67 876.421C3836 876.433 3836.33 876.443 3836.66 876.452L3836.68 875.952L3836.69 875.452C3836.36 875.443 3836.04 875.433 3835.71 875.421L3835.69 875.921ZM3836.68 875.952L3836.66 876.452C3836.8 876.456 3836.94 876.46 3837.08 876.464L3837.09 875.964L3837.11 875.464C3836.97 875.461 3836.83 875.456 3836.69 875.452L3836.68 875.952ZM3837.09 875.964L3837.08 876.464C3837.48 876.474 3837.89 876.481 3838.29 876.487L3838.3 875.987L3838.31 875.487C3837.9 875.482 3837.51 875.474 3837.11 875.464L3837.09 875.964ZM3838.3 875.987L3838.29 876.487C3838.36 876.488 3838.45 876.49 3838.53 876.491L3838.53 875.991L3838.54 875.491C3838.46 875.49 3838.39 875.489 3838.31 875.487L3838.3 875.987ZM3838.53 875.991L3838.53 876.491C3839.02 876.497 3839.51 876.5 3840 876.5L3840 876L3840 875.5C3839.51 875.5 3839.02 875.497 3838.54 875.491L3838.53 875.991ZM3840 876L3840 876.5C3840.49 876.5 3840.98 876.497 3841.47 876.491L3841.46 875.991L3841.46 875.491C3840.97 875.497 3840.49 875.5 3840 875.5L3840 876ZM3841.46 875.991L3841.47 876.491C3841.53 876.49 3841.67 876.487 3841.72 876.486L3841.71 875.986L3841.7 875.486C3841.59 875.488 3841.56 875.49 3841.46 875.491L3841.46 875.991ZM3841.71 875.986L3841.72 876.486C3842.12 876.48 3842.52 876.474 3842.92 876.464L3842.9 875.964L3842.89 875.464C3842.5 875.474 3842.1 875.481 3841.7 875.486L3841.71 875.986ZM3842.9 875.964L3842.92 876.464C3843.06 876.46 3843.2 876.456 3843.34 876.452L3843.33 875.952L3843.31 875.452C3843.17 875.456 3843.03 875.461 3842.89 875.464L3842.9 875.964ZM3843.33 875.952L3843.34 876.452C3843.67 876.443 3844 876.433 3844.33 876.421L3844.31 875.921L3844.29 875.421C3843.96 875.433 3843.64 875.443 3843.31 875.452L3843.33 875.952ZM3844.31 875.921L3844.33 876.421C3844.51 876.414 3844.69 876.406 3844.87 876.399L3844.85 875.899L3844.83 875.4C3844.65 875.407 3844.47 875.415 3844.29 875.421L3844.31 875.921ZM3844.85 875.899L3844.87 876.399C3845.18 876.386 3845.49 876.373 3845.8 876.358L3845.77 875.858L3845.75 875.359C3845.44 875.374 3845.14 875.387 3844.83 875.4L3844.85 875.899ZM3845.77 875.858L3845.8 876.358C3845.97 876.349 3846.14 876.339 3846.31 876.33L3846.29 875.831L3846.26 875.332C3846.08 875.341 3845.92 875.351 3845.75 875.359L3845.77 875.858ZM3846.29 875.831L3846.31 876.33C3846.6 876.315 3846.89 876.299 3847.17 876.281L3847.14 875.782L3847.11 875.283C3846.83 875.3 3846.54 875.317 3846.26 875.332L3846.29 875.831ZM3847.14 875.782L3847.17 876.281C3847.38 876.269 3847.59 876.256 3847.79 876.242L3847.76 875.743L3847.73 875.244C3847.52 875.258 3847.32 875.271 3847.11 875.283L3847.14 875.782ZM3847.76 875.743L3847.79 876.242C3848.06 876.225 3848.33 876.207 3848.59 876.187L3848.56 875.688L3848.52 875.19C3848.26 875.209 3847.99 875.227 3847.73 875.244L3847.76 875.743ZM3848.56 875.688L3848.59 876.187C3848.81 876.171 3849.02 876.155 3849.24 876.138L3849.2 875.64L3849.16 875.141C3848.95 875.158 3848.73 875.174 3848.52 875.19L3848.56 875.688ZM3849.2 875.64L3849.24 876.138C3849.47 876.12 3849.71 876.1 3849.94 876.08L3849.9 875.582L3849.86 875.084C3849.63 875.104 3849.39 875.123 3849.16 875.141L3849.2 875.64ZM3849.9 875.582L3849.94 876.08C3850.2 876.059 3850.45 876.037 3850.71 876.014L3850.66 875.516L3850.62 875.018C3850.37 875.041 3850.11 875.062 3849.86 875.084L3849.9 875.582ZM3850.66 875.516L3850.71 876.014C3850.9 875.996 3851.08 875.978 3851.27 875.961L3851.22 875.463L3851.17 874.965C3850.99 874.983 3850.8 875.001 3850.62 875.018L3850.66 875.516ZM3851.22 875.463L3851.27 875.961C3851.54 875.934 3851.82 875.908 3852.1 875.879L3852.04 875.382L3851.99 874.884C3851.72 874.913 3851.45 874.939 3851.17 874.965L3851.22 875.463ZM3852.04 875.382L3852.1 875.879C3852.4 875.848 3852.7 875.815 3853 875.781L3852.95 875.284L3852.89 874.787C3852.59 874.821 3852.29 874.854 3851.99 874.884L3852.04 875.382ZM3852.95 875.284L3853 875.781C3853.14 875.766 3853.28 875.751 3853.42 875.735L3853.36 875.238L3853.3 874.742C3853.17 874.757 3853.03 874.772 3852.89 874.787L3852.95 875.284ZM3853.36 875.238L3853.42 875.735C3853.7 875.703 3853.98 875.669 3854.25 875.635L3854.19 875.139L3854.13 874.642C3853.85 874.676 3853.58 874.71 3853.3 874.742L3853.36 875.238ZM3854.19 875.139L3854.25 875.635C3854.71 875.579 3855.17 875.52 3855.63 875.458L3855.57 874.963L3855.5 874.467C3855.04 874.528 3854.59 874.587 3854.13 874.642L3854.19 875.139ZM3855.57 874.963L3855.63 875.458C3855.82 875.433 3856.03 875.407 3856.22 875.38L3856.15 874.885L3856.08 874.39C3855.89 874.417 3855.7 874.44 3855.5 874.467L3855.57 874.963ZM3856.15 874.885L3856.22 875.38C3856.38 875.358 3856.55 875.333 3856.7 875.311L3856.63 874.816L3856.55 874.321C3856.39 874.345 3856.24 874.368 3856.08 874.39L3856.15 874.885ZM3856.63 874.816L3856.7 875.311C3857.02 875.265 3857.34 875.219 3857.66 875.17L3857.58 874.676L3857.51 874.181C3857.19 874.23 3856.87 874.276 3856.55 874.321L3856.63 874.816ZM3857.58 874.676L3857.66 875.17C3857.8 875.149 3857.94 875.126 3858.07 875.105L3858 874.611L3857.92 874.117C3857.78 874.139 3857.64 874.161 3857.51 874.181L3857.58 874.676ZM3858 874.611L3858.07 875.105C3858.38 875.057 3858.7 875.007 3859.01 874.956L3858.93 874.463L3858.84 873.969C3858.54 874.02 3858.23 874.069 3857.92 874.117L3858 874.611ZM3858.93 874.463L3859.01 874.956C3859.23 874.919 3859.46 874.881 3859.68 874.843L3859.6 874.35L3859.51 873.857C3859.29 873.895 3859.07 873.933 3858.84 873.969L3858.93 874.463ZM3859.6 874.35L3859.68 874.843C3859.89 874.807 3860.1 874.771 3860.32 874.734L3860.23 874.241L3860.14 873.749C3859.93 873.785 3859.73 873.821 3859.51 873.857L3859.6 874.35ZM3860.23 874.241L3860.32 874.734C3860.56 874.691 3860.8 874.647 3861.05 874.602L3860.96 874.11L3860.87 873.618C3860.63 873.663 3860.39 873.706 3860.14 873.749L3860.23 874.241ZM3860.96 874.11L3861.05 874.602C3861.28 874.56 3861.51 874.517 3861.74 874.474L3861.65 873.982L3861.55 873.491C3861.33 873.534 3861.1 873.577 3860.87 873.618L3860.96 874.11ZM3861.65 873.982L3861.74 874.474C3861.95 874.434 3862.16 874.394 3862.37 874.353L3862.28 873.862L3862.18 873.372C3861.97 873.412 3861.76 873.452 3861.55 873.491L3861.65 873.982ZM3862.28 873.862L3862.37 874.353C3862.63 874.303 3862.89 874.252 3863.14 874.2L3863.04 873.71L3862.95 873.22C3862.69 873.271 3862.44 873.322 3862.18 873.372L3862.28 873.862ZM3863.04 873.71L3863.14 874.2C3863.34 874.161 3863.53 874.122 3863.72 874.082L3863.62 873.593L3863.52 873.103C3863.33 873.143 3863.14 873.181 3862.95 873.22L3863.04 873.71ZM3863.62 873.593L3863.72 874.082C3863.99 874.026 3864.27 873.968 3864.54 873.91L3864.43 873.421L3864.33 872.932C3864.06 872.99 3863.79 873.047 3863.52 873.103L3863.62 873.593ZM3864.43 873.421L3864.54 873.91C3864.72 873.87 3864.91 873.831 3865.09 873.79L3864.98 873.302L3864.88 872.813C3864.69 872.853 3864.51 872.893 3864.33 872.932L3864.43 873.421ZM3864.98 873.302L3865.09 873.79C3865.35 873.733 3865.61 873.676 3865.86 873.618L3865.75 873.13L3865.64 872.642C3865.39 872.7 3865.13 872.757 3864.88 872.813L3864.98 873.302ZM3865.75 873.13L3865.86 873.618C3866.06 873.572 3866.26 873.527 3866.46 873.48L3866.35 872.993L3866.24 872.506C3866.04 872.552 3865.84 872.597 3865.64 872.642L3865.75 873.13ZM3866.35 872.993L3866.46 873.48C3866.72 873.421 3866.97 873.36 3867.22 873.3L3867.11 872.813L3866.99 872.327C3866.74 872.388 3866.49 872.448 3866.24 872.506L3866.35 872.993ZM3867.11 872.813L3867.22 873.3C3867.41 873.255 3867.61 873.209 3867.8 873.162L3867.68 872.677L3867.56 872.191C3867.37 872.238 3867.19 872.28 3866.99 872.327L3867.11 872.813ZM3867.68 872.677L3867.8 873.162C3868.59 872.969 3869.38 872.767 3870.16 872.557L3870.03 872.074L3869.9 871.591C3869.12 871.799 3868.34 871.999 3867.56 872.191L3867.68 872.677ZM3870.03 872.074L3869.55 872.204L3881.97 918.579L3882.46 918.449L3882.94 918.32L3870.51 871.945L3870.03 872.074ZM3882.46 918.449L3882.33 917.966C3868.83 921.575 3854.64 923.5 3840 923.5L3840 924L3840 924.5C3854.73 924.5 3869 922.563 3882.59 918.932L3882.46 918.449Z" fill="#9CC1F5" id="n1303"/>
<rect x="3844" y="924" width="8" height="48" rx="4" transform="rotate(-180 3844 924)" fill="#2D548B" stroke="#9CC1F5" id="n1304"/>
<path d="M3841 760C3841 759.448 3840.55 759 3840 759C3839.45 759 3839 759.448 3839 760L3840 760L3841 760ZM3840 880L3841 880L3841 760L3840 760L3839 760L3839 880L3840 880Z" fill="#2D548B" id="n1305"/>
<path d="M3840 757.136V769.8C3840 769.8 3845.24 762.789 3843.86 760C3843.07 758.388 3840 757.136 3840 757.136Z" fill="white" id="n1306"/>
<path d="M3840 769.8V757.136C3840 757.136 3837.02 758.356 3836.17 759.936C3836.16 759.957 3836.15 759.979 3836.14 760C3834.76 762.789 3840 769.8 3840 769.8Z" fill="white" id="n1307"/>
<path d="M3840 769.8H3856.68C3858.89 769.8 3860.68 768.009 3860.68 765.8V760H3843.86C3845.24 762.789 3840 769.8 3840 769.8Z" fill="white" id="n1308"/>
<path d="M3819.32 759.936V765.8C3819.32 768.009 3821.11 769.8 3823.32 769.8H3840C3840 769.8 3834.76 762.789 3836.14 760C3836.15 759.979 3836.16 759.957 3836.17 759.936H3819.32Z" fill="white" id="n1309"/>
<path d="M3822.77 737.6H3819.32V751.6V759.936H3836.17C3837.02 758.356 3840 757.136 3840 757.136L3840 737.6H3822.77Z" fill="white" id="n1310"/>
<path d="M3860.68 737.6H3857.23H3840L3840 757.136C3840 757.136 3843.07 758.388 3843.86 760H3860.68V759.936V751.6V737.6Z" fill="white" id="n1311"/>
<path d="M3857.23 737.6V728.85H3822.77V737.6H3840H3857.23Z" fill="white" id="n1312"/>
<path d="M3857.23 728.85L3860.68 721.691H3819.32L3822.77 728.85H3857.23Z" fill="white" id="n1313"/>
<path d="M3819.32 721.691H3860.68H3862.4L3857.23 716.918H3848.44H3845.85H3834.15H3831.56H3822.77L3817.6 721.691H3819.32Z" fill="white" id="n1314"/>
<path d="M3843.45 705.4H3836.55L3831.56 716.918H3834.15L3838.28 707.389H3841.72L3845.85 716.918H3848.44L3843.45 705.4Z" fill="white" id="n1315"/>
<path d="M3857.23 737.6H3860.68V751.6V759.936V760M3857.23 737.6V728.85M3857.23 737.6H3840M3857.23 728.85L3860.68 721.691M3857.23 728.85H3822.77M3860.68 721.691H3819.32M3860.68 721.691H3862.4L3857.23 716.918H3848.44M3819.32 721.691L3822.77 728.85M3819.32 721.691H3817.6L3822.77 716.918H3831.56M3822.77 728.85V737.6M3822.77 737.6H3819.32V751.6V759.936M3822.77 737.6H3840M3831.56 716.918H3848.44M3831.56 716.918L3836.55 705.4H3843.45L3848.44 716.918M3831.56 716.918H3834.15M3848.44 716.918H3845.85M3819.32 759.936V765.8C3819.32 768.009 3821.11 769.8 3823.32 769.8H3840M3819.32 759.936H3836.17M3834.15 716.918L3838.28 707.389H3841.72L3845.85 716.918M3834.15 716.918H3845.85M3840 737.6L3840 757.136M3840 769.8H3856.68C3858.89 769.8 3860.68 768.009 3860.68 765.8V760M3840 769.8V757.136M3840 769.8C3840 769.8 3845.24 762.789 3843.86 760M3840 769.8C3840 769.8 3834.76 762.789 3836.14 760C3836.15 759.979 3836.16 759.957 3836.17 759.936M3840 757.136C3840 757.136 3843.07 758.388 3843.86 760M3840 757.136C3840 757.136 3837.02 758.356 3836.17 759.936M3843.86 760H3860.68M3833.82 748.8L3833.05 747.4H3828.41L3829.19 748.8H3833.82ZM3845.41 748.8L3846.18 747.4H3850.81L3850.04 748.8H3845.41Z" stroke="#8E8E8E" id="n1316"/>
</g>
</svg>
