<?xml version='1.0' encoding='utf-8'?>
<svg xmlns="http://www.w3.org/2000/svg" xmlns:xlink="http://www.w3.org/1999/xlink" width="384.0" height="384.0" viewBox="0 0 384.0 384.0" fill="none">
  <defs><clipPath id="clip__asset"><rect x="0" y="0" width="384.0" height="384.0"/></clipPath><mask id="mask128_68_6728" style="mask-type:luminance" maskUnits="userSpaceOnUse" x="3136" y="504" width="512" height="512">
<path d="M3392 948C3441.04 948 3485.69 929.226 3519.16 898.473C3522.42 895.483 3522.4 890.403 3519.28 887.279L3507.97 875.966C3478.29 905.644 3437.29 924 3392 924C3346.71 924 3305.71 905.644 3276.03 875.966L3264.72 887.279C3261.6 890.403 3261.59 895.482 3264.84 898.472C3298.31 929.225 3342.96 948 3392 948Z" fill="white" id="n1162"/>
<path d="M3392 948V948.5V948.5V948ZM3519.16 898.473L3519.5 898.841V898.841L3519.16 898.473ZM3519.28 887.279L3519.63 886.926V886.926L3519.28 887.279ZM3507.97 875.966L3507.61 875.612L3507.97 875.259L3508.32 875.612L3507.97 875.966ZM3392 924V924.5V924.5V924ZM3276.03 875.966L3275.68 875.612L3276.03 875.259L3276.39 875.612L3276.03 875.966ZM3264.72 887.279L3264.37 886.926L3264.37 886.926L3264.72 887.279ZM3264.84 898.472L3264.5 898.84L3264.5 898.84L3264.84 898.472ZM3392 948V947.5C3440.91 947.5 3485.44 928.776 3518.82 898.104L3519.16 898.473L3519.5 898.841C3485.94 929.676 3441.17 948.5 3392 948.5V948ZM3519.16 898.473L3518.82 898.104C3521.86 895.317 3521.86 890.566 3518.93 887.633L3519.28 887.279L3519.63 886.926C3522.95 890.241 3522.97 895.65 3519.5 898.841L3519.16 898.473ZM3519.28 887.279L3518.93 887.633L3507.61 876.319L3507.97 875.966L3508.32 875.612L3519.63 886.926L3519.28 887.279ZM3507.97 875.966L3508.32 876.319C3478.55 906.087 3437.43 924.5 3392 924.5V924V923.5C3437.15 923.5 3478.02 905.2 3507.61 875.612L3507.97 875.966ZM3392 924V924.5C3346.58 924.5 3305.45 906.087 3275.68 876.319L3276.03 875.966L3276.39 875.612C3305.98 905.2 3346.85 923.5 3392 923.5V924ZM3276.03 875.966L3276.39 876.319L3265.07 887.633L3264.72 887.279L3264.37 886.926L3275.68 875.612L3276.03 875.966ZM3264.72 887.279L3265.07 887.633C3262.14 890.566 3262.14 895.316 3265.18 898.104L3264.84 898.472L3264.5 898.84C3261.03 895.649 3261.05 890.241 3264.37 886.926L3264.72 887.279ZM3264.84 898.472L3265.18 898.103C3298.56 928.775 3343.09 947.5 3392 947.5V948V948.5C3342.83 948.5 3298.06 929.674 3264.5 898.84L3264.84 898.472Z" fill="black" id="n1163"/>
</mask>
<mask id="mask129_68_6728" style="mask-type:alpha" maskUnits="userSpaceOnUse" x="3136" y="504" width="512" height="512">
<path d="M3392 584C3489.2 584 3568 662.798 3568 760C3568 857.202 3489.2 936 3392 936C3294.8 936 3216 857.202 3216 760C3216 662.798 3294.8 584 3392 584ZM3392 592C3299.22 592 3224 667.216 3224 760C3224 852.784 3299.22 928 3392 928C3484.78 928 3560 852.784 3560 760C3560 667.216 3484.78 592 3392 592Z" fill="black" id="n1165"/>
</mask>
<mask id="mask130_68_6728" style="mask-type:alpha" maskUnits="userSpaceOnUse" x="3136" y="504" width="512" height="512">
<path d="M3392 568C3498.04 568 3584 653.961 3584 760C3584 866.039 3498.04 952 3392 952C3285.96 952 3200 866.039 3200 760C3200 653.961 3285.96 568 3392 568ZM3392 592C3299.22 592 3224 667.216 3224 760C3224 852.784 3299.22 928 3392 928C3484.78 928 3560 852.784 3560 760C3560 667.216 3484.78 592 3392 592Z" fill="black" id="n1168"/>
</mask>
<mask id="mask131_68_6728" style="mask-type:alpha" maskUnits="userSpaceOnUse" x="3136" y="504" width="512" height="512">
<path d="M3392 568C3498.04 568 3584 653.961 3584 760C3584 866.039 3498.04 952 3392 952C3285.96 952 3200 866.039 3200 760C3200 653.961 3285.96 568 3392 568ZM3392 596C3301.43 596 3228 669.425 3228 760C3228 850.575 3301.43 924 3392 924C3482.57 924 3556 850.575 3556 760C3556 669.425 3482.57 596 3392 596Z" fill="black" id="n1171"/>
</mask>
<mask id="mask132_68_6728" style="mask-type:luminance" maskUnits="userSpaceOnUse" x="3136" y="504" width="512" height="512">
<path d="M3580 760.001C3580 728.604 3572.3 699.005 3558.69 672.988C3556.65 669.075 3551.74 667.775 3547.92 669.983L3534.05 677.989C3548.01 702.114 3556 730.124 3556 760.001C3556 789.878 3548.01 817.888 3534.05 842.013L3547.92 850.018C3551.74 852.226 3556.65 850.926 3558.69 847.013C3572.3 820.996 3580 791.397 3580 760.001Z" fill="white" stroke="black" id="n1178"/>
</mask>
<mask id="mask133_68_6728" style="mask-type:alpha" maskUnits="userSpaceOnUse" x="3136" y="504" width="512" height="512">
<path d="M3392 584C3489.2 584 3568 662.798 3568 760C3568 857.202 3489.2 936 3392 936C3294.8 936 3216 857.202 3216 760C3216 662.798 3294.8 584 3392 584ZM3392 592C3299.22 592 3224 667.216 3224 760C3224 852.784 3299.22 928 3392 928C3484.78 928 3560 852.784 3560 760C3560 667.216 3484.78 592 3392 592Z" fill="black" id="n1180"/>
</mask>
<mask id="mask134_68_6728" style="mask-type:alpha" maskUnits="userSpaceOnUse" x="3136" y="504" width="512" height="512">
<path d="M3392 568C3498.04 568 3584 653.961 3584 760C3584 866.039 3498.04 952 3392 952C3285.96 952 3200 866.039 3200 760C3200 653.961 3285.96 568 3392 568ZM3392 592C3299.22 592 3224 667.216 3224 760C3224 852.784 3299.22 928 3392 928C3484.78 928 3560 852.784 3560 760C3560 667.216 3484.78 592 3392 592Z" fill="black" id="n1183"/>
</mask>
<mask id="mask135_68_6728" style="mask-type:alpha" maskUnits="userSpaceOnUse" x="3136" y="504" width="512" height="512">
<path d="M3392 568C3498.04 568 3584 653.961 3584 760C3584 866.039 3498.04 952 3392 952C3285.96 952 3200 866.039 3200 760C3200 653.961 3285.96 568 3392 568ZM3392 596C3301.43 596 3228 669.425 3228 760C3228 850.575 3301.43 924 3392 924C3482.57 924 3556 850.575 3556 760C3556 669.425 3482.57 596 3392 596Z" fill="black" id="n1186"/>
</mask>
</defs>
  <g clip-path="url(#clip__asset)" transform="translate(-3200.0 -568.0)"><path d="M3392 948C3342.96 948 3298.31 929.226 3264.84 898.473C3261.58 895.483 3261.6 890.403 3264.72 887.279L3276.03 875.966C3305.71 905.644 3346.71 924 3392 924C3437.29 924 3478.29 905.644 3507.97 875.966L3519.28 887.279C3522.4 890.403 3522.41 895.482 3519.16 898.472C3485.69 929.225 3441.04 948 3392 948Z" fill="white" stroke="white" id="n1158"/>
<path d="M3392 924C3346.71 924 3305.71 905.644 3276.03 875.967L3304.32 847.682C3307.44 844.558 3312.49 844.582 3315.82 847.484C3315.9 847.552 3315.98 847.618 3316.05 847.686C3316.09 847.719 3316.13 847.753 3316.17 847.786C3316.46 848.037 3316.75 848.286 3317.04 848.534C3317.15 848.62 3317.25 848.705 3317.35 848.791C3317.55 848.962 3317.76 849.133 3317.96 849.303C3318.15 849.457 3318.34 849.611 3318.52 849.765C3318.69 849.902 3318.86 850.039 3319.03 850.176C3319.16 850.287 3319.3 850.398 3319.44 850.509C3319.68 850.703 3319.92 850.896 3320.17 851.089C3320.28 851.179 3320.4 851.269 3320.51 851.358C3320.77 851.563 3321.03 851.767 3321.3 851.97C3321.38 852.032 3321.46 852.095 3321.54 852.157C3322.62 852.983 3323.71 853.792 3324.82 854.58C3324.91 854.639 3324.99 854.697 3325.07 854.756C3325.36 854.958 3325.64 855.158 3325.93 855.357C3326.02 855.423 3326.12 855.488 3326.21 855.553C3326.49 855.745 3326.77 855.936 3327.05 856.126C3327.16 856.2 3327.27 856.274 3327.38 856.348C3327.65 856.531 3327.93 856.714 3328.2 856.895C3328.29 856.955 3328.38 857.015 3328.48 857.075C3328.76 857.261 3329.04 857.447 3329.33 857.631C3329.43 857.696 3329.53 857.761 3329.63 857.825C3329.92 858.007 3330.2 858.187 3330.49 858.366C3330.61 858.439 3330.72 858.512 3330.84 858.585C3331.09 858.739 3331.34 858.891 3331.58 859.043C3331.71 859.12 3331.84 859.198 3331.96 859.275C3332.29 859.474 3332.62 859.67 3332.95 859.865C3332.99 859.892 3333.04 859.92 3333.09 859.947C3334.65 860.869 3336.23 861.754 3337.83 862.604C3338 862.689 3338.16 862.774 3338.32 862.859C3338.58 862.995 3338.84 863.13 3339.1 863.264C3339.21 863.318 3339.31 863.372 3339.42 863.426C3339.72 863.58 3340.03 863.734 3340.33 863.886C3340.44 863.94 3340.55 863.994 3340.66 864.048C3340.94 864.186 3341.22 864.324 3341.5 864.46C3341.65 864.534 3341.81 864.608 3341.96 864.682C3342.21 864.802 3342.46 864.92 3342.71 865.038C3342.89 865.122 3343.07 865.205 3343.25 865.287C3343.47 865.393 3343.7 865.497 3343.93 865.602C3344.09 865.676 3344.26 865.75 3344.42 865.824C3344.71 865.953 3344.99 866.08 3345.28 866.207C3345.41 866.262 3345.53 866.318 3345.66 866.372C3345.98 866.513 3346.3 866.651 3346.63 866.789C3346.72 866.828 3346.81 866.868 3346.9 866.906C3348.16 867.439 3349.43 867.951 3350.72 868.439C3350.86 868.494 3351.01 868.547 3351.15 868.602C3351.43 868.706 3351.7 868.809 3351.98 868.911C3352.18 868.986 3352.39 869.059 3352.59 869.133C3352.79 869.204 3352.99 869.276 3353.18 869.346C3353.42 869.431 3353.66 869.515 3353.9 869.599C3354.11 869.671 3354.32 869.742 3354.53 869.813C3354.73 869.883 3354.94 869.952 3355.14 870.02C3355.36 870.093 3355.58 870.166 3355.8 870.237C3356.01 870.308 3356.23 870.379 3356.44 870.448C3356.67 870.521 3356.89 870.592 3357.12 870.663C3357.33 870.73 3357.54 870.795 3357.75 870.86C3358 870.936 3358.24 871.01 3358.49 871.084C3358.66 871.137 3358.84 871.189 3359.01 871.241C3359.27 871.319 3359.54 871.395 3359.8 871.472C3359.99 871.526 3360.18 871.581 3360.37 871.635C3360.63 871.708 3360.89 871.779 3361.14 871.851C3361.32 871.899 3361.5 871.948 3361.67 871.996C3362.55 872.233 3363.43 872.46 3364.32 872.677C3364.51 872.723 3364.7 872.768 3364.89 872.813C3365.14 872.874 3365.4 872.935 3365.65 872.993C3365.85 873.04 3366.05 873.085 3366.25 873.13C3366.5 873.188 3366.76 873.246 3367.02 873.303C3367.19 873.341 3367.37 873.378 3367.54 873.415C3367.82 873.477 3368.11 873.537 3368.4 873.597C3368.58 873.634 3368.76 873.671 3368.94 873.708C3369.2 873.76 3369.46 873.812 3369.72 873.862C3369.93 873.903 3370.14 873.943 3370.35 873.982C3370.58 874.026 3370.82 874.07 3371.05 874.112C3371.28 874.155 3371.52 874.197 3371.75 874.238C3371.98 874.278 3372.2 874.317 3372.43 874.355C3372.64 874.392 3372.86 874.428 3373.07 874.463C3373.39 874.516 3373.72 874.567 3374.04 874.617C3374.16 874.636 3374.28 874.655 3374.4 874.674C3374.75 874.727 3375.1 874.777 3375.45 874.827C3375.57 874.846 3375.7 874.865 3375.83 874.883C3376.08 874.917 3376.33 874.95 3376.57 874.982C3376.96 875.034 3377.35 875.082 3377.73 875.13C3378.04 875.167 3378.34 875.205 3378.65 875.24C3378.75 875.252 3378.86 875.263 3378.96 875.274C3379.3 875.312 3379.63 875.348 3379.96 875.383C3380.22 875.41 3380.48 875.435 3380.75 875.46C3380.94 875.479 3381.14 875.498 3381.34 875.517C3381.59 875.539 3381.83 875.56 3382.08 875.581C3382.32 875.602 3382.57 875.622 3382.81 875.641C3383.02 875.657 3383.22 875.672 3383.43 875.687C3383.7 875.707 3383.97 875.726 3384.25 875.744C3384.45 875.757 3384.65 875.77 3384.85 875.782C3385.14 875.8 3385.43 875.816 3385.72 875.832C3385.89 875.841 3386.06 875.849 3386.22 875.857C3386.53 875.873 3386.84 875.887 3387.15 875.899C3387.33 875.907 3387.51 875.914 3387.69 875.921C3388.02 875.933 3388.35 875.943 3388.68 875.952C3388.82 875.956 3388.96 875.96 3389.09 875.964C3389.49 875.974 3389.9 875.982 3390.3 875.987C3390.38 875.988 3390.45 875.99 3390.53 875.991C3391.02 875.997 3391.51 876 3392 876C3392.49 876 3392.98 875.997 3393.46 875.991C3393.55 875.99 3393.63 875.988 3393.71 875.986C3394.11 875.981 3394.51 875.974 3394.9 875.964C3395.04 875.96 3395.19 875.956 3395.33 875.952C3395.65 875.943 3395.98 875.933 3396.31 875.921C3396.49 875.914 3396.67 875.907 3396.85 875.899C3397.16 875.887 3397.47 875.873 3397.77 875.858C3397.94 875.85 3398.11 875.84 3398.29 875.831C3398.57 875.816 3398.86 875.8 3399.14 875.782C3399.35 875.77 3399.55 875.757 3399.76 875.743C3400.03 875.726 3400.29 875.708 3400.56 875.688C3400.77 875.673 3400.99 875.656 3401.2 875.64C3401.43 875.621 3401.67 875.602 3401.9 875.582C3402.16 875.561 3402.41 875.539 3402.66 875.516C3402.85 875.499 3403.04 875.481 3403.22 875.463C3403.5 875.437 3403.77 875.41 3404.04 875.382C3404.35 875.351 3404.65 875.318 3404.95 875.284C3405.09 875.269 3405.22 875.254 3405.36 875.238C3405.64 875.207 3405.91 875.172 3406.19 875.139C3406.65 875.083 3407.11 875.024 3407.57 874.963C3407.76 874.937 3407.96 874.912 3408.15 874.885C3408.31 874.863 3408.47 874.839 3408.63 874.816C3408.95 874.771 3409.26 874.724 3409.58 874.676C3409.72 874.655 3409.86 874.633 3410 874.611C3410.31 874.563 3410.62 874.514 3410.93 874.463C3411.15 874.426 3411.37 874.388 3411.6 874.35C3411.81 874.314 3412.02 874.278 3412.23 874.241C3412.47 874.198 3412.72 874.155 3412.96 874.11C3413.19 874.068 3413.42 874.026 3413.65 873.982C3413.86 873.943 3414.07 873.903 3414.28 873.862C3414.53 873.812 3414.79 873.762 3415.04 873.71C3415.24 873.671 3415.43 873.632 3415.62 873.593C3415.89 873.536 3416.16 873.479 3416.43 873.421C3416.62 873.382 3416.8 873.342 3416.98 873.302C3417.24 873.245 3417.5 873.188 3417.75 873.13C3417.95 873.085 3418.15 873.04 3418.35 872.993C3418.6 872.935 3418.86 872.874 3419.11 872.813C3419.3 872.768 3419.49 872.723 3419.68 872.677C3420.56 872.462 3421.43 872.237 3422.3 872.002C3422.52 871.944 3422.73 871.883 3422.95 871.824C3423.17 871.761 3423.4 871.699 3423.63 871.635C3423.82 871.581 3424.01 871.526 3424.2 871.472C3424.46 871.396 3424.72 871.321 3424.98 871.243C3425.18 871.186 3425.37 871.126 3425.57 871.067C3425.78 871.003 3425.99 870.94 3426.2 870.875C3426.48 870.789 3426.76 870.701 3427.04 870.613C3427.17 870.57 3427.31 870.527 3427.45 870.483C3427.71 870.399 3427.97 870.313 3428.24 870.227C3428.44 870.158 3428.65 870.09 3428.86 870.021C3429.06 869.952 3429.27 869.883 3429.47 869.813C3429.68 869.742 3429.89 869.671 3430.09 869.599C3430.34 869.515 3430.58 869.431 3430.82 869.346C3431.01 869.276 3431.21 869.204 3431.41 869.133C3431.61 869.059 3431.82 868.986 3432.02 868.911C3432.24 868.831 3432.46 868.749 3432.67 868.667C3432.9 868.581 3433.13 868.496 3433.36 868.409C3433.42 868.386 3433.48 868.361 3433.54 868.337C3434.52 867.964 3435.48 867.579 3436.44 867.182C3436.65 867.095 3436.86 867.009 3437.06 866.921C3437.2 866.865 3437.33 866.808 3437.46 866.751C3437.75 866.627 3438.04 866.504 3438.33 866.378C3438.51 866.301 3438.68 866.222 3438.86 866.144C3439.07 866.051 3439.28 865.96 3439.49 865.866C3439.72 865.76 3439.96 865.653 3440.19 865.545C3440.35 865.472 3440.51 865.398 3440.67 865.324C3440.93 865.203 3441.19 865.081 3441.46 864.958C3441.59 864.896 3441.72 864.835 3441.85 864.772C3442.11 864.649 3442.36 864.525 3442.62 864.399C3442.8 864.315 3442.97 864.23 3443.14 864.145C3443.35 864.041 3443.56 863.939 3443.77 863.834C3443.97 863.737 3444.16 863.639 3444.35 863.541C3444.56 863.433 3444.78 863.327 3444.99 863.218C3445.14 863.138 3445.3 863.057 3445.45 862.977C3446.09 862.646 3446.72 862.311 3447.35 861.97C3447.73 861.761 3448.11 861.551 3448.49 861.338C3448.54 861.31 3448.59 861.28 3448.64 861.252C3448.98 861.062 3449.32 860.872 3449.66 860.679C3449.81 860.592 3449.96 860.504 3450.11 860.417C3450.35 860.277 3450.59 860.137 3450.83 859.995C3450.98 859.906 3451.13 859.816 3451.28 859.726C3451.51 859.59 3451.74 859.454 3451.97 859.316C3452.14 859.212 3452.31 859.107 3452.48 859.002C3452.69 858.873 3452.9 858.744 3453.11 858.614C3453.29 858.503 3453.47 858.391 3453.65 858.279C3453.83 858.168 3454 858.055 3454.18 857.942C3454.4 857.801 3454.62 857.659 3454.84 857.517C3454.99 857.42 3455.14 857.324 3455.29 857.227C3455.5 857.093 3455.7 856.958 3455.91 856.823C3456.08 856.707 3456.26 856.59 3456.43 856.473C3456.63 856.34 3456.83 856.208 3457.02 856.074C3457.23 855.932 3457.44 855.788 3457.65 855.644C3457.79 855.546 3457.94 855.45 3458.08 855.353C3458.28 855.211 3458.48 855.068 3458.69 854.926C3459.39 854.431 3460.08 853.929 3460.78 853.42C3460.96 853.286 3461.14 853.153 3461.32 853.018C3461.49 852.892 3461.65 852.765 3461.82 852.639C3462.01 852.496 3462.2 852.354 3462.39 852.211C3462.57 852.073 3462.75 851.932 3462.93 851.793C3463.09 851.668 3463.25 851.544 3463.41 851.419C3463.6 851.275 3463.78 851.13 3463.96 850.985C3464.14 850.844 3464.32 850.701 3464.5 850.559C3464.67 850.421 3464.84 850.283 3465.01 850.145C3465.17 850.018 3465.32 849.892 3465.48 849.765C3465.66 849.611 3465.85 849.457 3466.04 849.303C3466.22 849.148 3466.41 848.993 3466.59 848.837C3466.73 848.719 3466.87 848.602 3467.01 848.483C3467.23 848.301 3467.44 848.117 3467.66 847.933C3467.77 847.831 3467.89 847.731 3468.01 847.629C3468.06 847.58 3468.12 847.532 3468.18 847.483C3471.51 844.581 3476.56 844.557 3479.68 847.682L3507.96 875.967C3478.29 905.645 3437.29 924 3392 924Z" fill="#F0F0F0" stroke="#F0F0F0" id="n1159"/>
<path d="M3391.5 948L3391.5 948.5L3392.5 948.5L3392.5 948L3392 948L3391.5 948ZM3392 948L3392.5 948L3392.5 876L3392 876L3391.5 876L3391.5 948L3392 948Z" fill="#BEBEBE" id="n1160"/>
<path d="M3392 948C3342.96 948 3298.31 929.226 3264.84 898.472C3261.59 895.483 3261.6 890.404 3264.72 887.28L3304.32 847.681C3307.44 844.557 3312.49 844.58 3315.82 847.483C3336.2 865.244 3362.85 876 3392 876C3421.16 876 3447.8 865.244 3468.18 847.483C3471.51 844.58 3476.56 844.557 3479.68 847.681L3519.28 887.28C3522.4 890.404 3522.42 895.483 3519.16 898.472C3485.69 929.225 3441.04 948 3392 948Z" stroke="#BEBEBE" id="n1161"/>
<g mask="url(#mask128_68_6728)" id="n1164">
<mask id="mask129_68_6728" style="mask-type:alpha" maskUnits="userSpaceOnUse" x="3136" y="504" width="512" height="512">
<path d="M3392 584C3489.2 584 3568 662.798 3568 760C3568 857.202 3489.2 936 3392 936C3294.8 936 3216 857.202 3216 760C3216 662.798 3294.8 584 3392 584ZM3392 592C3299.22 592 3224 667.216 3224 760C3224 852.784 3299.22 928 3392 928C3484.78 928 3560 852.784 3560 760C3560 667.216 3484.78 592 3392 592Z" fill="black" id="n1165"/>
</mask>
<g mask="url(#mask129_68_6728)" id="n1166">
<path d="M3392 560V760M3392 760L3374.57 560.761M3392 760L3357.27 563.038M3392 760L3340.24 566.815M3392 760L3323.6 572.062M3392 760L3307.48 578.739M3392 760L3292 586.795M3392 760L3277.28 596.17M3392 760L3263.44 606.791M3392 760L3250.58 618.579M3392 760L3238.79 631.442M3392 760L3228.17 645.285M3392 760L3218.79 660M3392 760L3210.74 675.476M3392 760L3204.06 691.596M3392 760L3198.81 708.236M3392 760L3195.04 725.27M3392 760L3192.76 742.569M3392 760H3192M3392 760L3192.76 777.431M3392 760L3195.04 794.729M3392 760L3198.81 811.764M3392 760L3204.06 828.404M3392 760L3210.74 844.524M3392 760L3218.79 860M3392 760L3228.17 874.715M3392 760L3238.79 888.557M3392 760L3250.58 901.421M3392 760L3263.44 913.209M3392 760L3277.28 923.83M3392 760L3292 933.205M3392 760L3307.48 941.262M3392 760L3323.6 947.938M3392 760L3340.24 953.185M3392 760L3357.27 956.961M3392 760L3374.57 959.239M3392 760V960M3392 760L3409.43 959.239M3392 760L3426.73 956.962M3392 760L3443.76 953.185M3392 760L3460.4 947.938M3392 760L3476.52 941.261M3392 760L3492 933.205M3392 760L3506.72 923.831M3392 760L3520.56 913.209M3392 760L3533.42 901.421M3392 760L3545.21 888.558M3392 760L3555.83 874.715M3392 760L3565.21 860M3392 760L3573.26 844.524M3392 760L3579.94 828.404M3392 760L3585.19 811.764M3392 760L3588.96 794.73M3392 760L3591.24 777.431M3392 760H3592M3392 760L3591.24 742.569M3392 760L3588.96 725.271M3392 760L3585.19 708.236M3392 760L3579.94 691.596M3392 760L3573.26 675.476M3392 760L3565.21 660M3392 760L3555.83 645.285M3392 760L3545.21 631.443M3392 760L3533.42 618.579M3392 760L3520.56 606.791M3392 760L3506.72 596.17M3392 760L3492 586.795M3392 760L3476.52 578.738M3392 760L3460.4 572.062M3392 760L3443.76 566.815M3392 760L3426.73 563.039M3392 760L3409.43 560.761" stroke="#BEBEBE" id="n1167"/>
</g>
<mask id="mask130_68_6728" style="mask-type:alpha" maskUnits="userSpaceOnUse" x="3136" y="504" width="512" height="512">
<path d="M3392 568C3498.04 568 3584 653.961 3584 760C3584 866.039 3498.04 952 3392 952C3285.96 952 3200 866.039 3200 760C3200 653.961 3285.96 568 3392 568ZM3392 592C3299.22 592 3224 667.216 3224 760C3224 852.784 3299.22 928 3392 928C3484.78 928 3560 852.784 3560 760C3560 667.216 3484.78 592 3392 592Z" fill="black" id="n1168"/>
</mask>
<g mask="url(#mask130_68_6728)" id="n1169">
<path d="M3392 560V760M3392 760L3250.58 618.579M3392 760H3192M3392 760L3250.58 901.421M3392 760V960M3392 760L3533.42 901.421M3392 760H3592M3392 760L3533.42 618.579" stroke="#BEBEBE" id="n1170"/>
</g>
<mask id="mask131_68_6728" style="mask-type:alpha" maskUnits="userSpaceOnUse" x="3136" y="504" width="512" height="512">
<path d="M3392 568C3498.04 568 3584 653.961 3584 760C3584 866.039 3498.04 952 3392 952C3285.96 952 3200 866.039 3200 760C3200 653.961 3285.96 568 3392 568ZM3392 596C3301.43 596 3228 669.425 3228 760C3228 850.575 3301.43 924 3392 924C3482.57 924 3556 850.575 3556 760C3556 669.425 3482.57 596 3392 596Z" fill="black" id="n1171"/>
</mask>
<g mask="url(#mask131_68_6728)" id="n1172">
<path d="M3392 560V760M3392 760H3192M3392 760V960M3392 760H3592" stroke="#BEBEBE" id="n1173"/>
</g>
</g>
<path d="M3580 759.999C3580 791.396 3572.3 820.995 3558.69 847.012C3556.65 850.925 3551.74 852.225 3547.92 850.017L3534.05 842.011C3548.01 817.886 3556 789.876 3556 759.999C3556 730.122 3548.01 702.112 3534.05 677.987L3547.92 669.982C3551.74 667.774 3556.65 669.074 3558.69 672.987C3572.3 699.004 3580 728.603 3580 759.999Z" fill="white" stroke="white" id="n1174"/>
<path d="M3556 760.001C3556 789.878 3548.01 817.888 3534.05 842.013L3499.41 822.013C3495.58 819.802 3494.3 814.916 3496.24 810.945C3496.26 810.916 3496.27 810.887 3496.28 810.858C3496.5 810.425 3496.7 809.991 3496.91 809.555C3496.93 809.523 3496.94 809.492 3496.96 809.46C3498.09 807.059 3499.14 804.613 3500.11 802.125C3500.12 802.1 3500.13 802.074 3500.14 802.049C3500.31 801.613 3500.48 801.176 3500.64 800.737C3500.68 800.627 3500.73 800.517 3500.77 800.406C3500.92 799.997 3501.07 799.586 3501.22 799.175C3501.24 799.119 3501.26 799.063 3501.28 799.007C3501.44 798.537 3501.61 798.067 3501.77 797.595C3501.78 797.567 3501.79 797.539 3501.8 797.512C3502.31 796.006 3502.8 794.485 3503.25 792.952C3503.28 792.869 3503.3 792.785 3503.33 792.701C3503.46 792.247 3503.59 791.791 3503.72 791.334C3503.72 791.318 3503.73 791.303 3503.73 791.287C3503.86 790.819 3503.99 790.349 3504.11 789.878C3504.14 789.769 3504.17 789.661 3504.2 789.552C3504.3 789.156 3504.41 788.759 3504.51 788.361C3504.53 788.247 3504.56 788.133 3504.59 788.019C3504.69 787.605 3504.79 787.191 3504.89 786.776C3504.92 786.671 3504.94 786.566 3504.97 786.461C3505.06 786.064 3505.15 785.665 3505.24 785.267C3505.27 785.14 3505.3 785.014 3505.32 784.888C3505.55 783.849 3505.76 782.806 3505.96 781.757C3505.97 781.705 3505.98 781.653 3505.99 781.602C3506.08 781.133 3506.16 780.664 3506.25 780.194C3506.27 780.084 3506.29 779.974 3506.3 779.863C3506.37 779.49 3506.43 779.116 3506.49 778.741C3506.53 778.521 3506.56 778.301 3506.6 778.08C3506.64 777.793 3506.69 777.506 3506.73 777.219C3506.76 776.998 3506.79 776.778 3506.83 776.557C3506.88 776.211 3506.92 775.864 3506.97 775.518C3506.99 775.353 3507.01 775.188 3507.04 775.022C3507.09 774.641 3507.13 774.259 3507.18 773.876C3507.19 773.723 3507.21 773.571 3507.23 773.418C3507.35 772.368 3507.46 771.314 3507.55 770.256C3507.57 770.099 3507.58 769.942 3507.59 769.785C3507.62 769.423 3507.65 769.06 3507.68 768.697C3507.69 768.48 3507.71 768.262 3507.72 768.045C3507.74 767.734 3507.77 767.424 3507.78 767.112C3507.8 766.87 3507.81 766.628 3507.83 766.386C3507.84 766.112 3507.85 765.837 3507.87 765.563C3507.88 765.313 3507.89 765.063 3507.9 764.813C3507.91 764.468 3507.93 764.123 3507.94 763.777C3507.94 763.605 3507.95 763.432 3507.95 763.259C3507.96 762.871 3507.97 762.483 3507.98 762.094C3507.98 761.935 3507.99 761.776 3507.99 761.617C3508 761.079 3508 760.541 3508 760.001C3508 759.461 3508 758.922 3507.99 758.384C3507.99 758.225 3507.98 758.066 3507.98 757.907C3507.97 757.518 3507.96 757.13 3507.95 756.742C3507.95 756.569 3507.94 756.396 3507.94 756.224C3507.93 755.878 3507.91 755.533 3507.9 755.188C3507.89 754.938 3507.88 754.688 3507.87 754.438C3507.85 754.164 3507.84 753.889 3507.83 753.615C3507.81 753.373 3507.8 753.131 3507.78 752.889C3507.77 752.577 3507.74 752.267 3507.72 751.956C3507.71 751.738 3507.69 751.521 3507.68 751.304C3507.65 750.941 3507.62 750.578 3507.59 750.216C3507.58 750.059 3507.57 749.902 3507.55 749.745C3507.46 748.69 3507.35 747.639 3507.23 746.592C3507.21 746.422 3507.19 746.253 3507.17 746.083C3507.13 745.718 3507.08 745.354 3507.04 744.99C3507.01 744.813 3506.99 744.636 3506.97 744.459C3506.92 744.121 3506.88 743.783 3506.83 743.446C3506.8 743.225 3506.76 743.003 3506.73 742.782C3506.69 742.495 3506.64 742.208 3506.6 741.921C3506.56 741.693 3506.53 741.466 3506.49 741.239C3506.44 740.931 3506.39 740.622 3506.33 740.314C3506.3 740.115 3506.27 739.916 3506.23 739.718C3506.16 739.307 3506.08 738.897 3506.01 738.488C3505.99 738.402 3505.98 738.315 3505.96 738.229C3505.76 737.185 3505.55 736.147 3505.32 735.113C3505.29 734.959 3505.25 734.805 3505.22 734.65C3505.14 734.308 3505.07 733.967 3504.99 733.626C3504.94 733.417 3504.89 733.208 3504.84 732.999C3504.77 732.703 3504.7 732.407 3504.63 732.112C3504.57 731.898 3504.52 731.684 3504.46 731.471C3504.38 731.15 3504.3 730.83 3504.22 730.51C3504.18 730.367 3504.14 730.224 3504.1 730.081C3504 729.697 3503.9 729.315 3503.79 728.933C3503.76 728.803 3503.72 728.674 3503.68 728.545C3503.57 728.143 3503.45 727.743 3503.34 727.343C3503.31 727.244 3503.28 727.146 3503.25 727.048C3502.8 725.525 3502.32 724.015 3501.81 722.52C3501.79 722.458 3501.77 722.396 3501.75 722.334C3501.6 721.898 3501.44 721.462 3501.29 721.028C3501.26 720.939 3501.23 720.851 3501.19 720.762C3501.06 720.387 3500.92 720.014 3500.78 719.642C3500.73 719.502 3500.68 719.362 3500.63 719.223C3500.48 718.821 3500.32 718.422 3500.17 718.022C3500.15 717.961 3500.12 717.899 3500.1 717.838C3499.92 717.392 3499.75 716.948 3499.57 716.505C3499.55 716.459 3499.53 716.413 3499.51 716.367C3498.92 714.907 3498.3 713.463 3497.65 712.033C3497.61 711.951 3497.57 711.869 3497.53 711.786C3497.35 711.385 3497.17 710.985 3496.98 710.587C3496.95 710.517 3496.91 710.447 3496.88 710.377C3496.69 709.989 3496.51 709.602 3496.32 709.216C3496.29 709.163 3496.27 709.109 3496.24 709.056C3494.3 705.085 3495.58 700.198 3499.41 697.987L3534.05 677.988C3548.01 702.114 3556 730.124 3556 760.001Z" fill="#F0F0F0" stroke="#F0F0F0" id="n1175"/>
<path d="M3580 760.5L3580.5 760.5L3580.5 759.5L3580 759.5L3580 760L3580 760.5ZM3580 760L3580 759.5L3508 759.5L3508 760L3508 760.5L3580 760.5L3580 760Z" fill="#BEBEBE" id="n1176"/>
<path d="M3580 760C3580 791.396 3572.3 820.995 3558.69 847.012C3556.65 850.925 3551.74 852.225 3547.92 850.017L3499.41 822.011C3495.58 819.8 3494.3 814.914 3496.24 810.944C3503.77 795.566 3508 778.277 3508 760C3508 741.722 3503.77 724.432 3496.24 709.054C3494.3 705.083 3495.58 700.197 3499.41 697.986L3547.92 669.982C3551.74 667.774 3556.65 669.074 3558.69 672.987C3572.3 699.004 3580 728.603 3580 760Z" stroke="#BEBEBE" id="n1177"/>
<g mask="url(#mask132_68_6728)" id="n1179">
<mask id="mask133_68_6728" style="mask-type:alpha" maskUnits="userSpaceOnUse" x="3136" y="504" width="512" height="512">
<path d="M3392 584C3489.2 584 3568 662.798 3568 760C3568 857.202 3489.2 936 3392 936C3294.8 936 3216 857.202 3216 760C3216 662.798 3294.8 584 3392 584ZM3392 592C3299.22 592 3224 667.216 3224 760C3224 852.784 3299.22 928 3392 928C3484.78 928 3560 852.784 3560 760C3560 667.216 3484.78 592 3392 592Z" fill="black" id="n1180"/>
</mask>
<g mask="url(#mask133_68_6728)" id="n1181">
<path d="M3392 560V760M3392 760L3374.57 560.761M3392 760L3357.27 563.038M3392 760L3340.24 566.815M3392 760L3323.6 572.062M3392 760L3307.48 578.739M3392 760L3292 586.795M3392 760L3277.28 596.17M3392 760L3263.44 606.791M3392 760L3250.58 618.579M3392 760L3238.79 631.442M3392 760L3228.17 645.285M3392 760L3218.79 660M3392 760L3210.74 675.476M3392 760L3204.06 691.596M3392 760L3198.81 708.236M3392 760L3195.04 725.27M3392 760L3192.76 742.569M3392 760H3192M3392 760L3192.76 777.431M3392 760L3195.04 794.729M3392 760L3198.81 811.764M3392 760L3204.06 828.404M3392 760L3210.74 844.524M3392 760L3218.79 860M3392 760L3228.17 874.715M3392 760L3238.79 888.557M3392 760L3250.58 901.421M3392 760L3263.44 913.209M3392 760L3277.28 923.83M3392 760L3292 933.205M3392 760L3307.48 941.262M3392 760L3323.6 947.938M3392 760L3340.24 953.185M3392 760L3357.27 956.961M3392 760L3374.57 959.239M3392 760V960M3392 760L3409.43 959.239M3392 760L3426.73 956.962M3392 760L3443.76 953.185M3392 760L3460.4 947.938M3392 760L3476.52 941.261M3392 760L3492 933.205M3392 760L3506.72 923.831M3392 760L3520.56 913.209M3392 760L3533.42 901.421M3392 760L3545.21 888.558M3392 760L3555.83 874.715M3392 760L3565.21 860M3392 760L3573.26 844.524M3392 760L3579.94 828.404M3392 760L3585.19 811.764M3392 760L3588.96 794.73M3392 760L3591.24 777.431M3392 760H3592M3392 760L3591.24 742.569M3392 760L3588.96 725.271M3392 760L3585.19 708.236M3392 760L3579.94 691.596M3392 760L3573.26 675.476M3392 760L3565.21 660M3392 760L3555.83 645.285M3392 760L3545.21 631.443M3392 760L3533.42 618.579M3392 760L3520.56 606.791M3392 760L3506.72 596.17M3392 760L3492 586.795M3392 760L3476.52 578.738M3392 760L3460.4 572.062M3392 760L3443.76 566.815M3392 760L3426.73 563.039M3392 760L3409.43 560.761" stroke="#BEBEBE" id="n1182"/>
</g>
<mask id="mask134_68_6728" style="mask-type:alpha" maskUnits="userSpaceOnUse" x="3136" y="504" width="512" height="512">
<path d="M3392 568C3498.04 568 3584 653.961 3584 760C3584 866.039 3498.04 952 3392 952C3285.96 952 3200 866.039 3200 760C3200 653.961 3285.96 568 3392 568ZM3392 592C3299.22 592 3224 667.216 3224 760C3224 852.784 3299.22 928 3392 928C3484.78 928 3560 852.784 3560 760C3560 667.216 3484.78 592 3392 592Z" fill="black" id="n1183"/>
</mask>
<g mask="url(#mask134_68_6728)" id="n1184">
<path d="M3392 560V760M3392 760L3292 586.795M3392 760L3218.79 660M3392 760H3192M3392 760L3218.79 860M3392 760L3292 933.205M3392 760V960M3392 760L3492 933.205M3392 760L3565.21 860M3392 760H3592M3392 760L3565.21 660M3392 760L3492 586.795" stroke="#BEBEBE" id="n1185"/>
</g>
<mask id="mask135_68_6728" style="mask-type:alpha" maskUnits="userSpaceOnUse" x="3136" y="504" width="512" height="512">
<path d="M3392 568C3498.04 568 3584 653.961 3584 760C3584 866.039 3498.04 952 3392 952C3285.96 952 3200 866.039 3200 760C3200 653.961 3285.96 568 3392 568ZM3392 596C3301.43 596 3228 669.425 3228 760C3228 850.575 3301.43 924 3392 924C3482.57 924 3556 850.575 3556 760C3556 669.425 3482.57 596 3392 596Z" fill="black" id="n1186"/>
</mask>
<g mask="url(#mask135_68_6728)" id="n1187">
<path d="M3392 560V760M3392 760H3192M3392 760V960M3392 760H3592" stroke="#BEBEBE" id="n1188"/>
</g>
</g>
<path d="M3204 760L3508 760" stroke="#BEBEBE" stroke-linecap="square" id="n1189"/>
<path d="M3554.81 666C3541.43 642.824 3523.26 622.772 3501.51 607.185C3479.75 591.597 3454.92 580.833 3428.68 575.612C3402.43 570.392 3375.37 570.834 3349.31 576.911C3323.25 582.988 3298.78 594.559 3277.55 610.85C3256.32 627.141 3238.81 647.776 3226.2 671.377C3213.58 694.978 3206.15 721.001 3204.4 747.704C3202.65 774.408 3206.62 801.177 3216.05 826.223C3225.48 851.269 3240.14 874.013 3259.06 892.936" stroke="#BEBEBE" stroke-linecap="round" id="n1190"/>
<path d="M3392 876L3392 572" stroke="#BEBEBE" stroke-linecap="square" id="n1191"/>
<path d="M3556 760.001C3556 769.869 3555.13 779.533 3553.46 788.921L3506.2 780.455C3506.22 780.368 3506.23 780.281 3506.25 780.194C3506.27 780.084 3506.29 779.974 3506.3 779.863C3506.37 779.49 3506.43 779.116 3506.49 778.741C3506.53 778.521 3506.56 778.301 3506.6 778.08C3506.64 777.793 3506.69 777.506 3506.73 777.219C3506.76 776.998 3506.79 776.778 3506.83 776.557C3506.88 776.211 3506.92 775.864 3506.97 775.518C3506.99 775.353 3507.01 775.188 3507.04 775.022C3507.09 774.641 3507.13 774.259 3507.18 773.876C3507.19 773.723 3507.21 773.571 3507.23 773.418C3507.35 772.368 3507.46 771.314 3507.55 770.256C3507.57 770.099 3507.58 769.942 3507.59 769.785C3507.62 769.423 3507.65 769.06 3507.68 768.697C3507.69 768.48 3507.71 768.263 3507.72 768.045C3507.74 767.734 3507.77 767.424 3507.78 767.112C3507.8 766.87 3507.81 766.628 3507.83 766.386C3507.84 766.112 3507.85 765.837 3507.87 765.563C3507.88 765.313 3507.89 765.063 3507.9 764.813C3507.91 764.468 3507.93 764.123 3507.94 763.777C3507.94 763.605 3507.95 763.432 3507.95 763.259C3507.96 762.871 3507.97 762.483 3507.98 762.094C3507.98 761.935 3507.99 761.776 3507.99 761.617C3508 761.079 3508 760.541 3508 760.001C3508 759.461 3508 758.922 3507.99 758.384C3507.99 758.225 3507.98 758.066 3507.98 757.907C3507.97 757.518 3507.96 757.13 3507.95 756.742C3507.95 756.569 3507.94 756.396 3507.94 756.224C3507.93 755.878 3507.91 755.533 3507.9 755.188C3507.89 754.938 3507.88 754.688 3507.87 754.438C3507.85 754.164 3507.84 753.889 3507.83 753.615C3507.81 753.373 3507.8 753.131 3507.78 752.889C3507.77 752.577 3507.74 752.267 3507.72 751.956C3507.71 751.738 3507.69 751.521 3507.68 751.304C3507.65 750.941 3507.62 750.578 3507.59 750.216C3507.58 750.059 3507.57 749.902 3507.55 749.745C3507.46 748.69 3507.35 747.639 3507.23 746.592C3507.21 746.422 3507.19 746.253 3507.17 746.083C3507.13 745.718 3507.08 745.354 3507.04 744.99C3507.01 744.813 3506.99 744.636 3506.97 744.459C3506.92 744.121 3506.88 743.783 3506.83 743.446C3506.8 743.225 3506.76 743.003 3506.73 742.782C3506.69 742.495 3506.64 742.208 3506.6 741.921C3506.56 741.693 3506.53 741.466 3506.49 741.239C3506.44 740.931 3506.39 740.622 3506.33 740.314C3506.3 740.115 3506.27 739.916 3506.23 739.718C3506.2 739.561 3506.18 739.405 3506.15 739.249L3553.38 730.662C3555.1 740.181 3556 749.986 3556 760.001Z" fill="#BEBEBE" id="n1192"/>
<path d="M3553.46 788.921L3553.37 789.413L3553.86 789.501L3553.95 789.008L3553.46 788.921ZM3506.2 780.455L3505.71 780.368L3505.62 780.859L3506.11 780.947L3506.2 780.455ZM3506.25 780.194L3505.75 780.108L3505.75 780.108L3506.25 780.194ZM3506.3 779.863L3506.8 779.948L3506.8 779.948L3506.3 779.863ZM3506.49 778.741L3506 778.661V778.661L3506.49 778.741ZM3506.6 778.08L3507.09 778.157L3507.09 778.157L3506.6 778.08ZM3506.73 777.219L3506.23 777.145L3506.23 777.145L3506.73 777.219ZM3506.83 776.557L3507.32 776.627L3507.32 776.627L3506.83 776.557ZM3506.97 775.518L3506.47 775.451L3506.47 775.451L3506.97 775.518ZM3507.04 775.022L3507.53 775.087L3507.53 775.087L3507.04 775.022ZM3507.18 773.876L3506.68 773.817L3506.68 773.817L3507.18 773.876ZM3507.23 773.418L3507.73 773.475V773.475L3507.23 773.418ZM3507.55 770.256L3507.05 770.212V770.212L3507.55 770.256ZM3507.59 769.785L3508.09 769.827L3508.09 769.827L3507.59 769.785ZM3507.68 768.697L3507.18 768.66V768.66L3507.68 768.697ZM3507.72 768.045L3508.22 768.079L3508.22 768.079L3507.72 768.045ZM3507.78 767.112L3507.29 767.082V767.082L3507.78 767.112ZM3507.83 766.386L3508.32 766.413L3508.32 766.413L3507.83 766.386ZM3507.87 765.563L3507.37 765.539V765.539L3507.87 765.563ZM3507.9 764.813L3508.4 764.833V764.833L3507.9 764.813ZM3507.94 763.777L3507.44 763.761V763.761L3507.94 763.777ZM3507.95 763.259L3508.45 763.273V763.273L3507.95 763.259ZM3507.98 762.094L3507.48 762.085V762.085L3507.98 762.094ZM3507.99 761.617L3508.49 761.624V761.624L3507.99 761.617ZM3507.99 758.384L3508.49 758.377V758.377L3507.99 758.384ZM3507.98 757.907L3507.48 757.916V757.916L3507.98 757.907ZM3507.95 756.742L3508.45 756.728V756.728L3507.95 756.742ZM3507.94 756.224L3507.44 756.24V756.24L3507.94 756.224ZM3507.9 755.188L3508.4 755.168V755.168L3507.9 755.188ZM3507.87 754.438L3507.37 754.462V754.462L3507.87 754.438ZM3507.83 753.615L3508.32 753.588L3508.32 753.588L3507.83 753.615ZM3507.78 752.889L3507.29 752.919V752.919L3507.78 752.889ZM3507.72 751.956L3508.22 751.922L3508.22 751.922L3507.72 751.956ZM3507.68 751.304L3507.18 751.341V751.341L3507.68 751.304ZM3507.59 750.216L3508.09 750.174V750.174L3507.59 750.216ZM3507.55 749.745L3507.05 749.789V749.789L3507.55 749.745ZM3507.23 746.592L3507.73 746.535V746.535L3507.23 746.592ZM3507.17 746.083L3506.68 746.142L3506.68 746.142L3507.17 746.083ZM3507.04 744.99L3507.53 744.926L3507.53 744.926L3507.04 744.99ZM3506.97 744.459L3506.47 744.525V744.525L3506.97 744.459ZM3506.83 743.446L3507.32 743.376V743.376L3506.83 743.446ZM3506.73 742.782L3506.23 742.856V742.856L3506.73 742.782ZM3506.6 741.921L3507.09 741.844L3507.09 741.844L3506.6 741.921ZM3506.49 741.239L3506 741.32V741.32L3506.49 741.239ZM3506.33 740.314L3506.83 740.23L3506.83 740.23L3506.33 740.314ZM3506.23 739.718L3505.74 739.805V739.805L3506.23 739.718ZM3506.15 739.249L3506.06 738.757L3505.57 738.847L3505.66 739.338L3506.15 739.249ZM3553.38 730.662L3553.87 730.573L3553.78 730.081L3553.29 730.17L3553.38 730.662ZM3556 760.001L3555.5 760.001C3555.5 769.839 3554.63 779.474 3552.96 788.833L3553.46 788.921L3553.95 789.008C3555.62 779.592 3556.5 769.898 3556.5 760.001L3556 760.001ZM3553.46 788.921L3553.55 788.429L3506.29 779.963L3506.2 780.455L3506.11 780.947L3553.37 789.413L3553.46 788.921ZM3506.2 780.455L3506.69 780.543C3506.71 780.464 3506.72 780.365 3506.74 780.281L3506.25 780.194L3505.75 780.108C3505.74 780.198 3505.72 780.272 3505.71 780.368L3506.2 780.455ZM3506.25 780.194L3506.74 780.281C3506.76 780.17 3506.78 780.059 3506.8 779.948L3506.3 779.863L3505.81 779.778C3505.79 779.888 3505.77 779.998 3505.75 780.108L3506.25 780.194ZM3506.3 779.863L3506.8 779.948C3506.86 779.573 3506.92 779.197 3506.99 778.821L3506.49 778.741L3506 778.661C3505.94 779.034 3505.88 779.407 3505.81 779.778L3506.3 779.863ZM3506.49 778.741L3506.99 778.821C3507.02 778.6 3507.06 778.379 3507.09 778.157L3506.6 778.08L3506.1 778.003C3506.07 778.222 3506.03 778.442 3506 778.661L3506.49 778.741ZM3506.6 778.08L3507.09 778.157C3507.14 777.87 3507.18 777.581 3507.22 777.292L3506.73 777.219L3506.23 777.145C3506.19 777.431 3506.15 777.717 3506.1 778.003L3506.6 778.08ZM3506.73 777.219L3507.22 777.292C3507.26 777.071 3507.29 776.849 3507.32 776.627L3506.83 776.557L3506.33 776.486C3506.3 776.706 3506.27 776.925 3506.23 777.145L3506.73 777.219ZM3506.83 776.557L3507.32 776.627C3507.37 776.28 3507.42 775.932 3507.47 775.584L3506.97 775.518L3506.47 775.451C3506.43 775.797 3506.38 776.142 3506.33 776.486L3506.83 776.557ZM3506.97 775.518L3507.47 775.584C3507.49 775.423 3507.51 775.253 3507.53 775.087L3507.04 775.022L3506.54 774.958C3506.52 775.123 3506.5 775.282 3506.47 775.451L3506.97 775.518ZM3507.04 775.022L3507.53 775.087C3507.58 774.702 3507.63 774.318 3507.67 773.935L3507.18 773.876L3506.68 773.817C3506.63 774.2 3506.59 774.58 3506.54 774.958L3507.04 775.022ZM3507.18 773.876L3507.67 773.935C3507.69 773.793 3507.71 773.626 3507.73 773.475L3507.23 773.418L3506.74 773.361C3506.72 773.516 3506.7 773.654 3506.68 773.817L3507.18 773.876ZM3507.23 773.418L3507.73 773.475C3507.85 772.421 3507.96 771.362 3508.05 770.299L3507.55 770.256L3507.05 770.212C3506.96 771.266 3506.86 772.316 3506.74 773.361L3507.23 773.418ZM3507.55 770.256L3508.05 770.3C3508.06 770.142 3508.08 769.979 3508.09 769.827L3507.59 769.785L3507.09 769.744C3507.08 769.905 3507.07 770.056 3507.05 770.212L3507.55 770.256ZM3507.59 769.785L3508.09 769.827C3508.12 769.464 3508.15 769.1 3508.18 768.734L3507.68 768.697L3507.18 768.66C3507.15 769.021 3507.12 769.382 3507.09 769.744L3507.59 769.785ZM3507.68 768.697L3508.18 768.734C3508.19 768.515 3508.21 768.294 3508.22 768.079L3507.72 768.045L3507.22 768.011C3507.21 768.231 3507.2 768.445 3507.18 768.66L3507.68 768.697ZM3507.72 768.045L3508.22 768.079C3508.24 767.768 3508.26 767.455 3508.28 767.142L3507.78 767.112L3507.29 767.082C3507.27 767.392 3507.25 767.701 3507.22 768.011L3507.72 768.045ZM3507.78 767.112L3508.28 767.142C3508.3 766.899 3508.31 766.655 3508.32 766.413L3507.83 766.386L3507.33 766.359C3507.31 766.601 3507.3 766.842 3507.29 767.082L3507.78 767.112ZM3507.83 766.386L3508.32 766.413C3508.34 766.138 3508.35 765.862 3508.37 765.586L3507.87 765.563L3507.37 765.539C3507.35 765.812 3507.34 766.085 3507.33 766.359L3507.83 766.386ZM3507.87 765.563L3508.37 765.586C3508.38 765.335 3508.39 765.084 3508.4 764.833L3507.9 764.813L3507.4 764.792C3507.39 765.041 3507.38 765.29 3507.37 765.539L3507.87 765.563ZM3507.9 764.813L3508.4 764.833C3508.41 764.486 3508.43 764.14 3508.44 763.793L3507.94 763.777L3507.44 763.761C3507.43 764.106 3507.41 764.449 3507.4 764.792L3507.9 764.813ZM3507.94 763.777L3508.44 763.793C3508.44 763.624 3508.45 763.447 3508.45 763.273L3507.95 763.259L3507.45 763.245C3507.45 763.417 3507.44 763.585 3507.44 763.761L3507.94 763.777ZM3507.95 763.259L3508.45 763.273C3508.46 762.882 3508.47 762.492 3508.48 762.103L3507.98 762.094L3507.48 762.085C3507.47 762.473 3507.46 762.86 3507.45 763.245L3507.95 763.259ZM3507.98 762.094L3508.48 762.103C3508.48 761.949 3508.49 761.784 3508.49 761.624L3507.99 761.617L3507.49 761.61C3507.49 761.769 3507.48 761.921 3507.48 762.085L3507.98 762.094ZM3507.99 761.617L3508.49 761.624C3508.5 761.084 3508.5 760.543 3508.5 760.001L3508 760.001L3507.5 760.001C3507.5 760.538 3507.5 761.074 3507.49 761.61L3507.99 761.617ZM3508 760.001L3508.5 760.001C3508.5 759.458 3508.5 758.917 3508.49 758.377L3507.99 758.384L3507.49 758.391C3507.5 758.927 3507.5 759.464 3507.5 760.001L3508 760.001ZM3507.99 758.384L3508.49 758.377C3508.49 758.217 3508.48 758.052 3508.48 757.898L3507.98 757.907L3507.48 757.916C3507.48 758.08 3507.49 758.232 3507.49 758.391L3507.99 758.384ZM3507.98 757.907L3508.48 757.898C3508.47 757.509 3508.46 757.119 3508.45 756.728L3507.95 756.742L3507.45 756.756C3507.46 757.141 3507.47 757.528 3507.48 757.916L3507.98 757.907ZM3507.95 756.742L3508.45 756.728C3508.45 756.554 3508.44 756.377 3508.44 756.208L3507.94 756.224L3507.44 756.24C3507.44 756.416 3507.45 756.584 3507.45 756.756L3507.95 756.742ZM3507.94 756.224L3508.44 756.208C3508.43 755.861 3508.41 755.515 3508.4 755.168L3507.9 755.188L3507.4 755.209C3507.41 755.552 3507.43 755.895 3507.44 756.24L3507.94 756.224ZM3507.9 755.188L3508.4 755.168C3508.39 754.917 3508.38 754.665 3508.37 754.415L3507.87 754.438L3507.37 754.462C3507.38 754.711 3507.39 754.96 3507.4 755.209L3507.9 755.188ZM3507.87 754.438L3508.37 754.415C3508.35 754.139 3508.34 753.863 3508.32 753.588L3507.83 753.615L3507.33 753.642C3507.34 753.916 3507.35 754.189 3507.37 754.462L3507.87 754.438ZM3507.83 753.615L3508.32 753.588C3508.31 753.346 3508.3 753.102 3508.28 752.858L3507.78 752.889L3507.29 752.919C3507.3 753.159 3507.31 753.4 3507.33 753.642L3507.83 753.615ZM3507.78 752.889L3508.28 752.858C3508.26 752.546 3508.24 752.233 3508.22 751.922L3507.72 751.956L3507.22 751.99C3507.25 752.3 3507.27 752.609 3507.29 752.919L3507.78 752.889ZM3507.72 751.956L3508.22 751.922C3508.21 751.707 3508.19 751.486 3508.18 751.267L3507.68 751.304L3507.18 751.341C3507.2 751.556 3507.21 751.77 3507.22 751.99L3507.72 751.956ZM3507.68 751.304L3508.18 751.267C3508.15 750.901 3508.12 750.537 3508.09 750.174L3507.59 750.216L3507.09 750.257C3507.12 750.619 3507.15 750.98 3507.18 751.341L3507.68 751.304ZM3507.59 750.216L3508.09 750.174C3508.08 750.022 3508.06 749.859 3508.05 749.701L3507.55 749.745L3507.05 749.789C3507.07 749.945 3507.08 750.096 3507.09 750.257L3507.59 750.216ZM3507.55 749.745L3508.05 749.701C3507.96 748.642 3507.85 747.586 3507.73 746.535L3507.23 746.592L3506.74 746.649C3506.86 747.691 3506.96 748.738 3507.05 749.789L3507.55 749.745ZM3507.23 746.592L3507.73 746.535C3507.71 746.365 3507.69 746.186 3507.67 746.024L3507.17 746.083L3506.68 746.142C3506.7 746.319 3506.72 746.479 3506.74 746.649L3507.23 746.592ZM3507.17 746.083L3507.67 746.024C3507.62 745.659 3507.58 745.292 3507.53 744.926L3507.04 744.99L3506.54 745.054C3506.59 745.416 3506.63 745.778 3506.68 746.142L3507.17 746.083ZM3507.04 744.99L3507.53 744.926C3507.51 744.748 3507.49 744.569 3507.46 744.393L3506.97 744.459L3506.47 744.525C3506.49 744.703 3506.52 744.878 3506.54 745.054L3507.04 744.99ZM3506.97 744.459L3507.46 744.393C3507.42 744.054 3507.37 743.715 3507.32 743.376L3506.83 743.446L3506.33 743.517C3506.38 743.852 3506.43 744.188 3506.47 744.525L3506.97 744.459ZM3506.83 743.446L3507.32 743.376C3507.29 743.152 3507.26 742.929 3507.22 742.709L3506.73 742.782L3506.23 742.856C3506.27 743.078 3506.3 743.297 3506.33 743.517L3506.83 743.446ZM3506.73 742.782L3507.22 742.709C3507.18 742.42 3507.14 742.131 3507.09 741.844L3506.6 741.921L3506.1 741.998C3506.15 742.284 3506.19 742.57 3506.23 742.856L3506.73 742.782ZM3506.6 741.921L3507.09 741.844C3507.06 741.616 3507.02 741.387 3506.98 741.159L3506.49 741.239L3506 741.32C3506.03 741.545 3506.07 741.771 3506.1 741.998L3506.6 741.921ZM3506.49 741.239L3506.98 741.159C3506.93 740.849 3506.88 740.539 3506.83 740.23L3506.33 740.314L3505.84 740.399C3505.89 740.705 3505.95 741.012 3506 741.32L3506.49 741.239ZM3506.33 740.314L3506.83 740.23C3506.79 740.033 3506.76 739.831 3506.72 739.631L3506.23 739.718L3505.74 739.805C3505.77 740.002 3505.81 740.198 3505.84 740.399L3506.33 740.314ZM3506.23 739.718L3506.72 739.631C3506.7 739.473 3506.67 739.313 3506.64 739.16L3506.15 739.249L3505.66 739.338C3505.68 739.497 3505.71 739.65 3505.74 739.805L3506.23 739.718ZM3506.15 739.249L3506.24 739.741L3553.47 731.154L3553.38 730.662L3553.29 730.17L3506.06 738.757L3506.15 739.249ZM3553.38 730.662L3552.89 730.751C3554.6 740.241 3555.5 750.016 3555.5 760.001L3556 760.001L3556.5 760.001C3556.5 749.956 3555.6 740.122 3553.87 730.573L3553.38 730.662Z" fill="#BEBEBE" id="n1193"/>
<rect x="3556" y="756" width="8" height="48" rx="4" transform="rotate(90 3556 756)" fill="#535353" stroke="#BEBEBE" id="n1194"/>
<path d="M3392 759C3391.45 759 3391 759.448 3391 760C3391 760.552 3391.45 761 3392 761L3392 760L3392 759ZM3531 760L3531 759L3392 759L3392 760L3392 761L3531 761L3531 760Z" fill="#535353" id="n1195"/>
<path d="M3486.48 760V760.965C3486.48 765.936 3482.45 769.965 3477.48 769.965H3309.94V764.254L3297.48 760V748.158H3409.63L3427.8 729.985L3425.73 723.754H3423.65L3425.73 722.196H3429.36V719.6H3430.4L3426.25 706.1H3429.36L3436.63 719.6C3441.46 719.6 3446.28 720.129 3451 721.177L3462.59 723.754H3460L3456.88 729.985L3464.67 737.773H3485.44C3485.44 737.773 3481.33 742.841 3479.21 746.86C3477.46 750.177 3475.05 755.946 3475.05 755.946L3480.45 754.966C3483.59 754.395 3486.48 756.808 3486.48 760Z" fill="white" id="n1196"/>
<path d="M3297.48 760H3486.48M3297.48 760L3309.94 764.254V769.965H3477.48C3482.45 769.965 3486.48 765.936 3486.48 760.965V760M3297.48 760V748.158H3409.63M3486.48 760C3486.48 756.808 3483.59 754.395 3480.45 754.966L3475.05 755.946C3475.05 755.946 3477.46 750.177 3479.21 746.86C3481.33 742.841 3485.44 737.773 3485.44 737.773H3464.67M3409.63 748.158H3416.38L3426.77 737.773H3464.67M3409.63 748.158L3427.8 729.985M3427.8 729.985H3456.88M3427.8 729.985L3425.73 723.754H3460L3456.88 729.985M3456.88 729.985L3464.67 737.773M3436.63 719.6L3429.36 706.1H3426.25L3430.4 719.6M3436.63 719.6H3430.4M3436.63 719.6C3441.46 719.6 3446.28 720.129 3451 721.177L3462.59 723.754H3423.65L3425.73 722.196H3429.36V719.6H3430.4" stroke="#8E8E8E" id="n1197"/>
<path d="M3392 924C3377.32 924 3363.09 922.068 3349.54 918.449L3361.97 872.074C3362.75 872.283 3363.53 872.484 3364.32 872.677C3364.51 872.723 3364.7 872.768 3364.89 872.813C3365.14 872.874 3365.4 872.935 3365.65 872.993C3365.85 873.04 3366.05 873.085 3366.25 873.13C3366.5 873.188 3366.76 873.246 3367.02 873.303C3367.19 873.341 3367.37 873.378 3367.54 873.415C3367.82 873.477 3368.11 873.537 3368.4 873.597C3368.58 873.634 3368.76 873.671 3368.94 873.708C3369.2 873.76 3369.46 873.812 3369.72 873.862C3369.93 873.903 3370.14 873.943 3370.35 873.982C3370.58 874.026 3370.82 874.07 3371.05 874.112C3371.28 874.155 3371.52 874.197 3371.75 874.238C3371.98 874.278 3372.2 874.317 3372.43 874.355C3372.64 874.392 3372.86 874.428 3373.07 874.463C3373.39 874.516 3373.72 874.567 3374.04 874.617C3374.16 874.636 3374.28 874.655 3374.4 874.674C3374.75 874.727 3375.1 874.777 3375.45 874.827C3375.57 874.846 3375.7 874.865 3375.83 874.883C3376.08 874.917 3376.33 874.95 3376.57 874.982C3376.96 875.034 3377.35 875.082 3377.73 875.13C3378.04 875.167 3378.34 875.205 3378.65 875.24C3378.75 875.252 3378.86 875.263 3378.96 875.274C3379.3 875.312 3379.63 875.348 3379.96 875.383C3380.22 875.41 3380.48 875.435 3380.75 875.46C3380.94 875.479 3381.14 875.498 3381.34 875.517C3381.59 875.539 3381.83 875.56 3382.08 875.581C3382.32 875.602 3382.57 875.622 3382.81 875.641C3383.02 875.657 3383.22 875.672 3383.43 875.687C3383.7 875.707 3383.97 875.726 3384.25 875.744C3384.45 875.757 3384.65 875.77 3384.85 875.782C3385.14 875.8 3385.43 875.816 3385.72 875.832C3385.89 875.841 3386.06 875.849 3386.22 875.857C3386.53 875.873 3386.84 875.887 3387.15 875.899C3387.33 875.907 3387.51 875.914 3387.69 875.921C3388.02 875.933 3388.35 875.943 3388.68 875.952C3388.82 875.956 3388.96 875.96 3389.09 875.964C3389.49 875.974 3389.9 875.982 3390.3 875.987C3390.38 875.988 3390.45 875.99 3390.53 875.991C3391.02 875.997 3391.51 876 3392 876C3392.49 876 3392.98 875.997 3393.46 875.991C3393.55 875.99 3393.63 875.988 3393.71 875.986C3394.11 875.981 3394.51 875.974 3394.9 875.964C3395.04 875.96 3395.19 875.956 3395.33 875.952C3395.65 875.943 3395.98 875.933 3396.31 875.921C3396.49 875.914 3396.67 875.907 3396.85 875.899C3397.16 875.887 3397.47 875.873 3397.77 875.858C3397.94 875.85 3398.11 875.84 3398.29 875.831C3398.57 875.816 3398.86 875.8 3399.14 875.782C3399.35 875.77 3399.55 875.757 3399.76 875.743C3400.03 875.726 3400.29 875.708 3400.56 875.688C3400.77 875.673 3400.99 875.656 3401.2 875.64C3401.43 875.621 3401.67 875.602 3401.9 875.582C3402.16 875.561 3402.41 875.539 3402.66 875.516C3402.85 875.499 3403.04 875.481 3403.22 875.463C3403.5 875.437 3403.77 875.41 3404.04 875.382C3404.35 875.351 3404.65 875.318 3404.95 875.284C3405.09 875.269 3405.22 875.254 3405.36 875.238C3405.64 875.207 3405.91 875.172 3406.19 875.139C3406.65 875.083 3407.11 875.024 3407.57 874.963C3407.76 874.937 3407.96 874.912 3408.15 874.885C3408.31 874.863 3408.47 874.839 3408.63 874.816C3408.95 874.771 3409.26 874.724 3409.58 874.676C3409.72 874.655 3409.86 874.633 3410 874.611C3410.31 874.563 3410.62 874.514 3410.93 874.463C3411.15 874.426 3411.37 874.388 3411.6 874.35C3411.81 874.314 3412.02 874.278 3412.23 874.241C3412.47 874.198 3412.72 874.155 3412.96 874.11C3413.19 874.068 3413.42 874.026 3413.65 873.982C3413.86 873.943 3414.07 873.903 3414.28 873.862C3414.53 873.812 3414.79 873.762 3415.04 873.71C3415.24 873.671 3415.43 873.632 3415.62 873.593C3415.89 873.536 3416.16 873.479 3416.43 873.421C3416.62 873.382 3416.8 873.342 3416.98 873.302C3417.24 873.245 3417.5 873.188 3417.75 873.13C3417.95 873.085 3418.15 873.04 3418.35 872.993C3418.6 872.935 3418.86 872.874 3419.11 872.813C3419.3 872.768 3419.49 872.723 3419.68 872.677C3420.47 872.484 3421.25 872.283 3422.03 872.074L3434.46 918.449C3420.91 922.069 3406.68 924 3392 924Z" fill="#BEBEBE" id="n1198"/>
<path d="M3349.54 918.449L3349.06 918.32L3348.93 918.803L3349.41 918.932L3349.54 918.449ZM3361.97 872.074L3362.1 871.591L3361.62 871.462L3361.49 871.945L3361.97 872.074ZM3364.32 872.677L3364.44 872.191L3364.44 872.191L3364.32 872.677ZM3364.89 872.813L3364.78 873.3L3364.78 873.3L3364.89 872.813ZM3365.65 872.993L3365.76 872.506L3365.76 872.506L3365.65 872.993ZM3366.25 873.13L3366.14 873.618L3366.14 873.618L3366.25 873.13ZM3367.02 873.303L3367.13 872.814V872.814L3367.02 873.303ZM3367.54 873.415L3367.43 873.904V873.904L3367.54 873.415ZM3368.4 873.597L3368.5 873.107V873.107L3368.4 873.597ZM3368.94 873.708L3368.84 874.198V874.198L3368.94 873.708ZM3369.72 873.862L3369.82 873.371V873.371L3369.72 873.862ZM3370.35 873.982L3370.26 874.474V874.474L3370.35 873.982ZM3371.05 874.112L3371.14 873.62V873.62L3371.05 874.112ZM3371.75 874.238L3371.67 874.731L3371.67 874.731L3371.75 874.238ZM3372.43 874.355L3372.52 873.863V873.863L3372.43 874.355ZM3373.07 874.463L3372.99 874.956V874.956L3373.07 874.463ZM3374.04 874.617L3374.12 874.123L3374.12 874.123L3374.04 874.617ZM3374.4 874.674L3374.33 875.168V875.168L3374.4 874.674ZM3375.45 874.827L3375.52 874.332L3375.52 874.332L3375.45 874.827ZM3375.83 874.883L3375.76 875.378V875.378L3375.83 874.883ZM3376.57 874.982L3376.64 874.487V874.487L3376.57 874.982ZM3377.73 875.13L3377.67 875.626L3377.67 875.626L3377.73 875.13ZM3378.65 875.24L3378.7 874.743V874.743L3378.65 875.24ZM3378.96 875.274L3378.91 875.771L3378.91 875.771L3378.96 875.274ZM3379.96 875.383L3380.02 874.885V874.885L3379.96 875.383ZM3380.75 875.46L3380.7 875.958L3380.7 875.958L3380.75 875.46ZM3381.34 875.517L3381.39 875.019V875.019L3381.34 875.517ZM3382.08 875.581L3382.04 876.079V876.079L3382.08 875.581ZM3382.81 875.641L3382.85 875.142V875.142L3382.81 875.641ZM3383.43 875.687L3383.39 876.186L3383.39 876.186L3383.43 875.687ZM3384.25 875.744L3384.28 875.245V875.245L3384.25 875.744ZM3384.85 875.782L3384.82 876.281V876.281L3384.85 875.782ZM3385.72 875.832L3385.75 875.333V875.333L3385.72 875.832ZM3386.22 875.857L3386.2 876.357V876.357L3386.22 875.857ZM3387.15 875.899L3387.17 875.4V875.4L3387.15 875.899ZM3387.69 875.921L3387.67 876.421V876.421L3387.69 875.921ZM3388.68 875.952L3388.69 875.452V875.452L3388.68 875.952ZM3389.09 875.964L3389.08 876.464V876.464L3389.09 875.964ZM3390.3 875.987L3390.31 875.487V875.487L3390.3 875.987ZM3390.53 875.991L3390.53 876.491V876.491L3390.53 875.991ZM3392 876L3392 876.5V876.5L3392 876ZM3393.46 875.991L3393.46 875.491V875.491L3393.46 875.991ZM3393.71 875.986L3393.72 876.486V876.486L3393.71 875.986ZM3394.9 875.964L3394.89 875.464V875.464L3394.9 875.964ZM3395.33 875.952L3395.34 876.452L3395.34 876.452L3395.33 875.952ZM3396.31 875.921L3396.29 875.421V875.421L3396.31 875.921ZM3396.85 875.899L3396.87 876.399L3396.87 876.399L3396.85 875.899ZM3397.77 875.858L3397.75 875.359V875.359L3397.77 875.858ZM3398.29 875.831L3398.31 876.33L3398.31 876.33L3398.29 875.831ZM3399.14 875.782L3399.11 875.283L3399.11 875.283L3399.14 875.782ZM3399.76 875.743L3399.79 876.242L3399.79 876.242L3399.76 875.743ZM3400.56 875.688L3400.52 875.19L3400.52 875.19L3400.56 875.688ZM3401.2 875.64L3401.24 876.138L3401.24 876.138L3401.2 875.64ZM3401.9 875.582L3401.86 875.084L3401.86 875.084L3401.9 875.582ZM3402.66 875.516L3402.71 876.014L3402.71 876.014L3402.66 875.516ZM3403.22 875.463L3403.17 874.965L3403.17 874.965L3403.22 875.463ZM3404.04 875.382L3404.1 875.879L3404.1 875.879L3404.04 875.382ZM3404.95 875.284L3404.89 874.787L3404.89 874.787L3404.95 875.284ZM3405.36 875.238L3405.42 875.735L3405.42 875.735L3405.36 875.238ZM3406.19 875.139L3406.13 874.642L3406.13 874.642L3406.19 875.139ZM3407.57 874.963L3407.63 875.458L3407.63 875.458L3407.57 874.963ZM3408.15 874.885L3408.08 874.39L3408.08 874.39L3408.15 874.885ZM3408.63 874.816L3408.7 875.311L3408.7 875.311L3408.63 874.816ZM3409.58 874.676L3409.51 874.181L3409.51 874.181L3409.58 874.676ZM3410 874.611L3410.07 875.105L3410.07 875.105L3410 874.611ZM3410.93 874.463L3410.84 873.969L3410.84 873.969L3410.93 874.463ZM3411.6 874.35L3411.68 874.843L3411.68 874.843L3411.6 874.35ZM3412.23 874.241L3412.14 873.749L3412.14 873.749L3412.23 874.241ZM3412.96 874.11L3413.05 874.602L3413.05 874.602L3412.96 874.11ZM3413.65 873.982L3413.55 873.491L3413.55 873.491L3413.65 873.982ZM3414.28 873.862L3414.37 874.353L3414.37 874.353L3414.28 873.862ZM3415.04 873.71L3414.95 873.22L3414.95 873.22L3415.04 873.71ZM3415.62 873.593L3415.72 874.082L3415.72 874.082L3415.62 873.593ZM3416.43 873.421L3416.33 872.932L3416.33 872.932L3416.43 873.421ZM3416.98 873.302L3417.09 873.79L3417.09 873.79L3416.98 873.302ZM3417.75 873.13L3417.64 872.642L3417.64 872.642L3417.75 873.13ZM3418.35 872.993L3418.46 873.48L3418.46 873.48L3418.35 872.993ZM3419.11 872.813L3418.99 872.327L3418.99 872.327L3419.11 872.813ZM3419.68 872.677L3419.8 873.162L3419.8 873.162L3419.68 872.677ZM3422.03 872.074L3422.51 871.945L3422.38 871.462L3421.9 871.591L3422.03 872.074ZM3434.46 918.449L3434.59 918.932L3435.07 918.803L3434.94 918.32L3434.46 918.449ZM3392 924L3392 923.5C3377.36 923.5 3363.17 921.574 3349.67 917.966L3349.54 918.449L3349.41 918.932C3363 922.562 3377.27 924.5 3392 924.5L3392 924ZM3349.54 918.449L3350.03 918.579L3362.45 872.204L3361.97 872.074L3361.49 871.945L3349.06 918.32L3349.54 918.449ZM3361.97 872.074L3361.84 872.557C3362.62 872.766 3363.41 872.969 3364.2 873.162L3364.32 872.677L3364.44 872.191C3363.66 872 3362.88 871.799 3362.1 871.591L3361.97 872.074ZM3364.32 872.677L3364.2 873.162C3364.39 873.209 3364.59 873.255 3364.78 873.3L3364.89 872.813L3365.01 872.327C3364.81 872.28 3364.63 872.238 3364.44 872.191L3364.32 872.677ZM3364.89 872.813L3364.78 873.3C3365.03 873.36 3365.28 873.421 3365.53 873.48L3365.65 872.993L3365.76 872.506C3365.51 872.448 3365.26 872.388 3365.01 872.327L3364.89 872.813ZM3365.65 872.993L3365.53 873.48C3365.74 873.527 3365.94 873.572 3366.14 873.618L3366.25 873.13L3366.36 872.642C3366.16 872.597 3365.96 872.552 3365.76 872.506L3365.65 872.993ZM3366.25 873.13L3366.14 873.618C3366.39 873.676 3366.65 873.734 3366.91 873.791L3367.02 873.303L3367.13 872.814C3366.87 872.758 3366.61 872.7 3366.36 872.642L3366.25 873.13ZM3367.02 873.303L3366.91 873.791C3367.09 873.829 3367.26 873.867 3367.43 873.904L3367.54 873.415L3367.64 872.926C3367.47 872.889 3367.3 872.852 3367.13 872.814L3367.02 873.303ZM3367.54 873.415L3367.43 873.904C3367.72 873.966 3368.01 874.027 3368.3 874.086L3368.4 873.597L3368.5 873.107C3368.21 873.048 3367.93 872.987 3367.64 872.926L3367.54 873.415ZM3368.4 873.597L3368.3 874.086C3368.48 874.124 3368.66 874.161 3368.84 874.198L3368.94 873.708L3369.04 873.218C3368.86 873.182 3368.68 873.144 3368.5 873.107L3368.4 873.597ZM3368.94 873.708L3368.84 874.198C3369.11 874.251 3369.37 874.302 3369.63 874.353L3369.72 873.862L3369.82 873.371C3369.56 873.321 3369.3 873.27 3369.04 873.218L3368.94 873.708ZM3369.72 873.862L3369.63 874.353C3369.84 874.394 3370.05 874.434 3370.26 874.474L3370.35 873.982L3370.44 873.491C3370.24 873.452 3370.03 873.412 3369.82 873.371L3369.72 873.862ZM3370.35 873.982L3370.26 874.474C3370.49 874.518 3370.72 874.561 3370.96 874.604L3371.05 874.112L3371.14 873.62C3370.91 873.578 3370.68 873.535 3370.44 873.491L3370.35 873.982ZM3371.05 874.112L3370.96 874.604C3371.19 874.647 3371.43 874.689 3371.67 874.731L3371.75 874.238L3371.84 873.746C3371.6 873.705 3371.37 873.663 3371.14 873.62L3371.05 874.112ZM3371.75 874.238L3371.67 874.731C3371.89 874.771 3372.12 874.81 3372.35 874.848L3372.43 874.355L3372.52 873.863C3372.29 873.824 3372.06 873.785 3371.84 873.746L3371.75 874.238ZM3372.43 874.355L3372.35 874.848C3372.56 874.884 3372.77 874.921 3372.99 874.956L3373.07 874.463L3373.15 873.969C3372.94 873.935 3372.73 873.899 3372.52 873.863L3372.43 874.355ZM3373.07 874.463L3372.99 874.956C3373.31 875.01 3373.64 875.061 3373.96 875.111L3374.04 874.617L3374.12 874.123C3373.79 874.073 3373.47 874.022 3373.15 873.969L3373.07 874.463ZM3374.04 874.617L3373.96 875.111C3374.08 875.13 3374.21 875.15 3374.33 875.168L3374.4 874.674L3374.48 874.18C3374.36 874.161 3374.24 874.142 3374.12 874.123L3374.04 874.617ZM3374.4 874.674L3374.33 875.168C3374.68 875.221 3375.03 875.272 3375.37 875.322L3375.45 874.827L3375.52 874.332C3375.17 874.283 3374.82 874.232 3374.48 874.18L3374.4 874.674ZM3375.45 874.827L3375.37 875.322C3375.5 875.34 3375.63 875.36 3375.76 875.378L3375.83 874.883L3375.9 874.388C3375.77 874.37 3375.65 874.351 3375.52 874.332L3375.45 874.827ZM3375.83 874.883L3375.76 875.378C3376.01 875.413 3376.26 875.445 3376.51 875.478L3376.57 874.982L3376.64 874.487C3376.39 874.454 3376.15 874.422 3375.9 874.388L3375.83 874.883ZM3376.57 874.982L3376.51 875.478C3376.9 875.53 3377.28 875.579 3377.67 875.626L3377.73 875.13L3377.79 874.634C3377.41 874.586 3377.02 874.538 3376.64 874.487L3376.57 874.982ZM3377.73 875.13L3377.67 875.626C3377.97 875.663 3378.28 875.702 3378.59 875.737L3378.65 875.24L3378.7 874.743C3378.4 874.709 3378.1 874.671 3377.79 874.634L3377.73 875.13ZM3378.65 875.24L3378.59 875.737C3378.69 875.748 3378.82 875.761 3378.91 875.771L3378.96 875.274L3379.02 874.778C3378.9 874.764 3378.82 874.756 3378.7 874.743L3378.65 875.24ZM3378.96 875.274L3378.91 875.771C3379.24 875.809 3379.58 875.845 3379.91 875.88L3379.96 875.383L3380.02 874.885C3379.68 874.851 3379.35 874.815 3379.02 874.778L3378.96 875.274ZM3379.96 875.383L3379.91 875.88C3380.18 875.907 3380.44 875.933 3380.7 875.958L3380.75 875.46L3380.79 874.962C3380.53 874.937 3380.27 874.912 3380.02 874.885L3379.96 875.383ZM3380.75 875.46L3380.7 875.958C3380.9 875.977 3381.1 875.996 3381.3 876.015L3381.34 875.517L3381.39 875.019C3381.19 875.001 3380.99 874.981 3380.79 874.962L3380.75 875.46ZM3381.34 875.517L3381.3 876.015C3381.55 876.037 3381.79 876.058 3382.04 876.079L3382.08 875.581L3382.12 875.083C3381.88 875.062 3381.63 875.041 3381.39 875.019L3381.34 875.517ZM3382.08 875.581L3382.04 876.079C3382.28 876.1 3382.53 876.12 3382.77 876.139L3382.81 875.641L3382.85 875.142C3382.61 875.123 3382.36 875.103 3382.12 875.083L3382.08 875.581ZM3382.81 875.641L3382.77 876.139C3382.98 876.155 3383.18 876.171 3383.39 876.186L3383.43 875.687L3383.47 875.189C3383.26 875.174 3383.05 875.158 3382.85 875.142L3382.81 875.641ZM3383.43 875.687L3383.39 876.186C3383.67 876.206 3383.94 876.225 3384.22 876.243L3384.25 875.744L3384.28 875.245C3384.01 875.227 3383.74 875.209 3383.47 875.189L3383.43 875.687ZM3384.25 875.744L3384.22 876.243C3384.42 876.256 3384.62 876.269 3384.82 876.281L3384.85 875.782L3384.88 875.283C3384.68 875.271 3384.48 875.258 3384.28 875.245L3384.25 875.744ZM3384.85 875.782L3384.82 876.281C3385.11 876.299 3385.4 876.316 3385.7 876.331L3385.72 875.832L3385.75 875.333C3385.46 875.317 3385.17 875.301 3384.88 875.283L3384.85 875.782ZM3385.72 875.832L3385.7 876.331C3385.86 876.34 3386.03 876.349 3386.2 876.357L3386.22 875.857L3386.25 875.358C3386.08 875.35 3385.92 875.342 3385.75 875.333L3385.72 875.832ZM3386.22 875.857L3386.2 876.357C3386.51 876.372 3386.82 876.386 3387.13 876.399L3387.15 875.899L3387.17 875.4C3386.86 875.387 3386.55 875.373 3386.25 875.358L3386.22 875.857ZM3387.15 875.899L3387.13 876.399C3387.31 876.406 3387.49 876.414 3387.67 876.421L3387.69 875.921L3387.71 875.421C3387.53 875.415 3387.35 875.407 3387.17 875.4L3387.15 875.899ZM3387.69 875.921L3387.67 876.421C3388 876.433 3388.33 876.443 3388.66 876.452L3388.68 875.952L3388.69 875.452C3388.36 875.443 3388.04 875.433 3387.71 875.421L3387.69 875.921ZM3388.68 875.952L3388.66 876.452C3388.8 876.456 3388.94 876.46 3389.08 876.464L3389.09 875.964L3389.11 875.464C3388.97 875.461 3388.83 875.456 3388.69 875.452L3388.68 875.952ZM3389.09 875.964L3389.08 876.464C3389.48 876.474 3389.89 876.481 3390.29 876.487L3390.3 875.987L3390.31 875.487C3389.9 875.482 3389.51 875.474 3389.11 875.464L3389.09 875.964ZM3390.3 875.987L3390.29 876.487C3390.36 876.488 3390.45 876.49 3390.53 876.491L3390.53 875.991L3390.54 875.491C3390.46 875.49 3390.39 875.489 3390.31 875.487L3390.3 875.987ZM3390.53 875.991L3390.53 876.491C3391.02 876.497 3391.51 876.5 3392 876.5L3392 876L3392 875.5C3391.51 875.5 3391.02 875.497 3390.54 875.491L3390.53 875.991ZM3392 876L3392 876.5C3392.49 876.5 3392.98 876.497 3393.47 876.491L3393.46 875.991L3393.46 875.491C3392.97 875.497 3392.49 875.5 3392 875.5L3392 876ZM3393.46 875.991L3393.47 876.491C3393.53 876.49 3393.67 876.487 3393.72 876.486L3393.71 875.986L3393.7 875.486C3393.59 875.488 3393.56 875.49 3393.46 875.491L3393.46 875.991ZM3393.71 875.986L3393.72 876.486C3394.12 876.48 3394.52 876.474 3394.92 876.464L3394.9 875.964L3394.89 875.464C3394.5 875.474 3394.1 875.481 3393.7 875.486L3393.71 875.986ZM3394.9 875.964L3394.92 876.464C3395.06 876.46 3395.2 876.456 3395.34 876.452L3395.33 875.952L3395.31 875.452C3395.17 875.456 3395.03 875.461 3394.89 875.464L3394.9 875.964ZM3395.33 875.952L3395.34 876.452C3395.67 876.443 3396 876.433 3396.33 876.421L3396.31 875.921L3396.29 875.421C3395.96 875.433 3395.64 875.443 3395.31 875.452L3395.33 875.952ZM3396.31 875.921L3396.33 876.421C3396.51 876.414 3396.69 876.406 3396.87 876.399L3396.85 875.899L3396.83 875.4C3396.65 875.407 3396.47 875.415 3396.29 875.421L3396.31 875.921ZM3396.85 875.899L3396.87 876.399C3397.18 876.386 3397.49 876.373 3397.8 876.358L3397.77 875.858L3397.75 875.359C3397.44 875.374 3397.14 875.387 3396.83 875.4L3396.85 875.899ZM3397.77 875.858L3397.8 876.358C3397.97 876.349 3398.14 876.339 3398.31 876.33L3398.29 875.831L3398.26 875.332C3398.08 875.341 3397.92 875.351 3397.75 875.359L3397.77 875.858ZM3398.29 875.831L3398.31 876.33C3398.6 876.315 3398.89 876.299 3399.17 876.281L3399.14 875.782L3399.11 875.283C3398.83 875.3 3398.54 875.317 3398.26 875.332L3398.29 875.831ZM3399.14 875.782L3399.17 876.281C3399.38 876.269 3399.59 876.256 3399.79 876.242L3399.76 875.743L3399.73 875.244C3399.52 875.258 3399.32 875.271 3399.11 875.283L3399.14 875.782ZM3399.76 875.743L3399.79 876.242C3400.06 876.225 3400.33 876.207 3400.59 876.187L3400.56 875.688L3400.52 875.19C3400.26 875.209 3399.99 875.227 3399.73 875.244L3399.76 875.743ZM3400.56 875.688L3400.59 876.187C3400.81 876.171 3401.02 876.155 3401.24 876.138L3401.2 875.64L3401.16 875.141C3400.95 875.158 3400.73 875.174 3400.52 875.19L3400.56 875.688ZM3401.2 875.64L3401.24 876.138C3401.47 876.12 3401.71 876.1 3401.94 876.08L3401.9 875.582L3401.86 875.084C3401.63 875.104 3401.39 875.123 3401.16 875.141L3401.2 875.64ZM3401.9 875.582L3401.94 876.08C3402.2 876.059 3402.45 876.037 3402.71 876.014L3402.66 875.516L3402.62 875.018C3402.37 875.041 3402.11 875.062 3401.86 875.084L3401.9 875.582ZM3402.66 875.516L3402.71 876.014C3402.9 875.996 3403.08 875.978 3403.27 875.961L3403.22 875.463L3403.17 874.965C3402.99 874.983 3402.8 875.001 3402.62 875.018L3402.66 875.516ZM3403.22 875.463L3403.27 875.961C3403.54 875.934 3403.82 875.908 3404.1 875.879L3404.04 875.382L3403.99 874.884C3403.72 874.913 3403.45 874.939 3403.17 874.965L3403.22 875.463ZM3404.04 875.382L3404.1 875.879C3404.4 875.848 3404.7 875.815 3405 875.781L3404.95 875.284L3404.89 874.787C3404.59 874.821 3404.29 874.854 3403.99 874.884L3404.04 875.382ZM3404.95 875.284L3405 875.781C3405.14 875.766 3405.28 875.751 3405.42 875.735L3405.36 875.238L3405.3 874.742C3405.17 874.757 3405.03 874.772 3404.89 874.787L3404.95 875.284ZM3405.36 875.238L3405.42 875.735C3405.7 875.703 3405.98 875.669 3406.25 875.635L3406.19 875.139L3406.13 874.642C3405.85 874.676 3405.58 874.71 3405.3 874.742L3405.36 875.238ZM3406.19 875.139L3406.25 875.635C3406.71 875.579 3407.17 875.52 3407.63 875.458L3407.57 874.963L3407.5 874.467C3407.04 874.528 3406.59 874.587 3406.13 874.642L3406.19 875.139ZM3407.57 874.963L3407.63 875.458C3407.82 875.433 3408.03 875.407 3408.22 875.38L3408.15 874.885L3408.08 874.39C3407.89 874.417 3407.7 874.44 3407.5 874.467L3407.57 874.963ZM3408.15 874.885L3408.22 875.38C3408.38 875.358 3408.55 875.333 3408.7 875.311L3408.63 874.816L3408.55 874.321C3408.39 874.345 3408.24 874.368 3408.08 874.39L3408.15 874.885ZM3408.63 874.816L3408.7 875.311C3409.02 875.265 3409.34 875.219 3409.66 875.17L3409.58 874.676L3409.51 874.181C3409.19 874.23 3408.87 874.276 3408.55 874.321L3408.63 874.816ZM3409.58 874.676L3409.66 875.17C3409.8 875.149 3409.94 875.126 3410.07 875.105L3410 874.611L3409.92 874.117C3409.78 874.139 3409.64 874.161 3409.51 874.181L3409.58 874.676ZM3410 874.611L3410.07 875.105C3410.38 875.057 3410.7 875.007 3411.01 874.956L3410.93 874.463L3410.84 873.969C3410.54 874.02 3410.23 874.069 3409.92 874.117L3410 874.611ZM3410.93 874.463L3411.01 874.956C3411.23 874.919 3411.46 874.881 3411.68 874.843L3411.6 874.35L3411.51 873.857C3411.29 873.895 3411.07 873.933 3410.84 873.969L3410.93 874.463ZM3411.6 874.35L3411.68 874.843C3411.89 874.807 3412.1 874.771 3412.32 874.734L3412.23 874.241L3412.14 873.749C3411.93 873.785 3411.73 873.821 3411.51 873.857L3411.6 874.35ZM3412.23 874.241L3412.32 874.734C3412.56 874.691 3412.8 874.647 3413.05 874.602L3412.96 874.11L3412.87 873.618C3412.63 873.663 3412.39 873.706 3412.14 873.749L3412.23 874.241ZM3412.96 874.11L3413.05 874.602C3413.28 874.56 3413.51 874.517 3413.74 874.474L3413.65 873.982L3413.55 873.491C3413.33 873.534 3413.1 873.577 3412.87 873.618L3412.96 874.11ZM3413.65 873.982L3413.74 874.474C3413.95 874.434 3414.16 874.394 3414.37 874.353L3414.28 873.862L3414.18 873.372C3413.97 873.412 3413.76 873.452 3413.55 873.491L3413.65 873.982ZM3414.28 873.862L3414.37 874.353C3414.63 874.303 3414.89 874.252 3415.14 874.2L3415.04 873.71L3414.95 873.22C3414.69 873.271 3414.44 873.322 3414.18 873.372L3414.28 873.862ZM3415.04 873.71L3415.14 874.2C3415.34 874.161 3415.53 874.122 3415.72 874.082L3415.62 873.593L3415.52 873.103C3415.33 873.143 3415.14 873.181 3414.95 873.22L3415.04 873.71ZM3415.62 873.593L3415.72 874.082C3415.99 874.026 3416.27 873.968 3416.54 873.91L3416.43 873.421L3416.33 872.932C3416.06 872.99 3415.79 873.047 3415.52 873.103L3415.62 873.593ZM3416.43 873.421L3416.54 873.91C3416.72 873.87 3416.91 873.831 3417.09 873.79L3416.98 873.302L3416.88 872.813C3416.69 872.853 3416.51 872.893 3416.33 872.932L3416.43 873.421ZM3416.98 873.302L3417.09 873.79C3417.35 873.733 3417.61 873.676 3417.86 873.618L3417.75 873.13L3417.64 872.642C3417.39 872.7 3417.13 872.757 3416.88 872.813L3416.98 873.302ZM3417.75 873.13L3417.86 873.618C3418.06 873.572 3418.26 873.527 3418.46 873.48L3418.35 872.993L3418.24 872.506C3418.04 872.552 3417.84 872.597 3417.64 872.642L3417.75 873.13ZM3418.35 872.993L3418.46 873.48C3418.72 873.421 3418.97 873.36 3419.22 873.3L3419.11 872.813L3418.99 872.327C3418.74 872.388 3418.49 872.448 3418.24 872.506L3418.35 872.993ZM3419.11 872.813L3419.22 873.3C3419.41 873.255 3419.61 873.209 3419.8 873.162L3419.68 872.677L3419.56 872.191C3419.37 872.238 3419.19 872.28 3418.99 872.327L3419.11 872.813ZM3419.68 872.677L3419.8 873.162C3420.59 872.969 3421.38 872.767 3422.16 872.557L3422.03 872.074L3421.9 871.591C3421.12 871.799 3420.34 871.999 3419.56 872.191L3419.68 872.677ZM3422.03 872.074L3421.55 872.204L3433.97 918.579L3434.46 918.449L3434.94 918.32L3422.51 871.945L3422.03 872.074ZM3434.46 918.449L3434.33 917.966C3420.83 921.575 3406.64 923.5 3392 923.5L3392 924L3392 924.5C3406.73 924.5 3421 922.563 3434.59 918.932L3434.46 918.449Z" fill="#BEBEBE" id="n1199"/>
<rect x="3396" y="924" width="8" height="48" rx="4" transform="rotate(-180 3396 924)" fill="#535353" stroke="#BEBEBE" id="n1200"/>
<path d="M3393 760C3393 759.448 3392.55 759 3392 759C3391.45 759 3391 759.448 3391 760L3392 760L3393 760ZM3392 899L3393 899L3393 760L3392 760L3391 760L3391 899L3392 899Z" fill="#535353" id="n1201"/>
<path d="M3392 757.136V769.8C3392 769.8 3397.24 762.789 3395.86 760C3395.07 758.388 3392 757.136 3392 757.136Z" fill="white" id="n1202"/>
<path d="M3392 769.8V757.136C3392 757.136 3389.02 758.356 3388.17 759.936C3388.16 759.957 3388.15 759.979 3388.14 760C3386.76 762.789 3392 769.8 3392 769.8Z" fill="white" id="n1203"/>
<path d="M3392 769.8H3408.68C3410.89 769.8 3412.68 768.009 3412.68 765.8V760H3395.86C3397.24 762.789 3392 769.8 3392 769.8Z" fill="white" id="n1204"/>
<path d="M3371.32 759.936V765.8C3371.32 768.009 3373.11 769.8 3375.32 769.8H3392C3392 769.8 3386.76 762.789 3388.14 760C3388.15 759.979 3388.16 759.957 3388.17 759.936H3371.32Z" fill="white" id="n1205"/>
<path d="M3374.77 737.6H3371.32V751.6V759.936H3388.17C3389.02 758.356 3392 757.136 3392 757.136L3392 737.6H3374.77Z" fill="white" id="n1206"/>
<path d="M3412.68 737.6H3409.23H3392L3392 757.136C3392 757.136 3395.07 758.388 3395.86 760H3412.68V759.936V751.6V737.6Z" fill="white" id="n1207"/>
<path d="M3409.23 737.6V728.85H3374.77V737.6H3392H3409.23Z" fill="white" id="n1208"/>
<path d="M3409.23 728.85L3412.68 721.691H3371.32L3374.77 728.85H3409.23Z" fill="white" id="n1209"/>
<path d="M3371.32 721.691H3412.68H3414.4L3409.23 716.918H3400.44H3397.85H3386.15H3383.56H3374.77L3369.6 721.691H3371.32Z" fill="white" id="n1210"/>
<path d="M3395.45 705.4H3388.55L3383.56 716.918H3386.15L3390.28 707.389H3393.72L3397.85 716.918H3400.44L3395.45 705.4Z" fill="white" id="n1211"/>
<path d="M3409.23 737.6H3412.68V751.6V759.936V760M3409.23 737.6V728.85M3409.23 737.6H3392M3409.23 728.85L3412.68 721.691M3409.23 728.85H3374.77M3412.68 721.691H3371.32M3412.68 721.691H3414.4L3409.23 716.918H3400.44M3371.32 721.691L3374.77 728.85M3371.32 721.691H3369.6L3374.77 716.918H3383.56M3374.77 728.85V737.6M3374.77 737.6H3371.32V751.6V759.936M3374.77 737.6H3392M3383.56 716.918H3400.44M3383.56 716.918L3388.55 705.4H3395.45L3400.44 716.918M3383.56 716.918H3386.15M3400.44 716.918H3397.85M3371.32 759.936V765.8C3371.32 768.009 3373.11 769.8 3375.32 769.8H3392M3371.32 759.936H3388.17M3386.15 716.918L3390.28 707.389H3393.72L3397.85 716.918M3386.15 716.918H3397.85M3392 737.6L3392 757.136M3392 769.8H3408.68C3410.89 769.8 3412.68 768.009 3412.68 765.8V760M3392 769.8V757.136M3392 769.8C3392 769.8 3397.24 762.789 3395.86 760M3392 769.8C3392 769.8 3386.76 762.789 3388.14 760C3388.15 759.979 3388.16 759.957 3388.17 759.936M3392 757.136C3392 757.136 3395.07 758.388 3395.86 760M3392 757.136C3392 757.136 3389.02 758.356 3388.17 759.936M3395.86 760H3412.68M3385.82 748.8L3385.05 747.4H3380.41L3381.19 748.8H3385.82ZM3397.41 748.8L3398.18 747.4H3402.81L3402.04 748.8H3397.41Z" stroke="#8E8E8E" id="n1212"/>
</g>
</svg>
