<?xml version='1.0' encoding='utf-8'?>
<svg xmlns="http://www.w3.org/2000/svg" xmlns:xlink="http://www.w3.org/1999/xlink" width="48.0" height="48.0" viewBox="0 0 48.0 48.0" fill="none">
  <defs>
    <clipPath id="clip__asset">
      <rect x="0" y="0" width="48.0" height="48.0"/>
    </clipPath>
  </defs>
  <g clip-path="url(#clip__asset)" transform="translate(-1844.0 -408.0)"><path d="M1852 425.6C1852 422.24 1852 420.56 1852.65 419.276C1853.23 418.147 1854.15 417.229 1855.28 416.654C1856.56 416 1858.24 416 1861.6 416H1874.4C1877.76 416 1879.44 416 1880.72 416.654C1881.85 417.229 1882.77 418.147 1883.35 419.276C1884 420.56 1884 422.24 1884 425.6V438.4C1884 441.76 1884 443.44 1883.35 444.724C1882.77 445.853 1881.85 446.771 1880.72 447.346C1879.44 448 1877.76 448 1874.4 448H1861.6C1858.24 448 1856.56 448 1855.28 447.346C1854.15 446.771 1853.23 445.853 1852.65 444.724C1852 443.44 1852 441.76 1852 438.4V425.6Z" fill="black" fill-opacity="0.04" id="n744"/>
<path d="M1859 428V430H1869V428H1859ZM1863 432V434H1859V436H1863V438H1865V432H1863ZM1877 436V434H1867V436H1877ZM1871 432H1873V430H1877V428H1873V426H1871V432Z" fill="#535353" id="n745"/>
</g>
</svg>
