<?xml version='1.0' encoding='utf-8'?>
<svg xmlns="http://www.w3.org/2000/svg" xmlns:xlink="http://www.w3.org/1999/xlink" width="266.0" height="48.0" viewBox="0 0 266.0 48.0" fill="none">
  <defs><clipPath id="clip__asset"><rect x="0" y="0" width="266.0" height="48.0"/></clipPath><mask id="path-682-inside-39_1702_11540" fill="white">
<path d="M2172 329.6C2172 326.24 2172 324.56 2172.65 323.276C2173.23 322.147 2174.15 321.229 2175.28 320.654C2176.56 320 2178.24 320 2181.6 320H2251V352H2181.6C2178.24 352 2176.56 352 2175.28 351.346C2174.15 350.771 2173.23 349.853 2172.65 348.724C2172 347.44 2172 345.76 2172 342.4V329.6Z" id="n820"/>
</mask>
<mask id="path-686-inside-40_1702_11540" fill="white">
<path d="M2251 320H2326V352H2251V320Z" id="n826"/>
</mask>
<mask id="path-690-inside-41_1702_11540" fill="white">
<path d="M2326 320H2412.4C2415.76 320 2417.44 320 2418.72 320.654C2419.85 321.229 2420.77 322.147 2421.35 323.276C2422 324.56 2422 326.24 2422 329.6V342.4C2422 345.76 2422 347.44 2421.35 348.724C2420.77 349.853 2419.85 350.771 2418.72 351.346C2417.44 352 2415.76 352 2412.4 352H2326V320Z" id="n833"/>
</mask>
</defs>
  <g clip-path="url(#clip__asset)" transform="translate(-2164.0 -312.0)"><path d="M2172 329.6C2172 326.24 2172 324.56 2172.65 323.276C2173.23 322.147 2174.15 321.229 2175.28 320.654C2176.56 320 2178.24 320 2181.6 320H2251V352H2181.6C2178.24 352 2176.56 352 2175.28 351.346C2174.15 350.771 2173.23 349.853 2172.65 348.724C2172 347.44 2172 345.76 2172 342.4V329.6Z" fill="white" id="n821"/>
<path d="M2171 326C2171 322.134 2174.13 319 2178 319H2251V321H2178C2175.24 321 2173 323.239 2173 326H2171ZM2251 353H2178C2174.13 353 2171 349.866 2171 346H2173C2173 348.761 2175.24 351 2178 351H2251V353ZM2178 353C2174.13 353 2171 349.866 2171 346V326C2171 322.134 2174.13 319 2178 319V321C2175.24 321 2173 323.239 2173 326V346C2173 348.761 2175.24 351 2178 351V353ZM2251 320V352V320Z" fill="#BEBEBE" mask="url(#path-682-inside-39_1702_11540)" id="n822"/>
<path fill-rule="evenodd" clip-rule="evenodd" d="M2192 326C2190.34 326 2189 327.343 2189 329V335.5C2189 337.157 2190.34 338.5 2192 338.5C2193.66 338.5 2195 337.157 2195 335.5V329C2195 327.343 2193.66 326 2192 326ZM2193 335.5V329C2193 328.448 2192.55 328 2192 328C2191.45 328 2191 328.448 2191 329V335.5C2191 336.052 2191.45 336.5 2192 336.5C2192.55 336.5 2193 336.052 2193 335.5Z" fill="#535353" id="n823"/>
<path d="M2192 340C2189.24 340 2187 337.761 2187 335H2185C2185 338.526 2187.61 341.444 2191 341.929V346H2193V341.929C2196.39 341.444 2199 338.526 2199 335H2197C2197 337.761 2194.76 340 2192 340Z" fill="#535353" id="n824"/>
<path d="M2223.66 336.272C2223.66 337.157 2223.55 337.963 2223.33 338.688C2223.11 339.403 2222.78 340.021 2222.34 340.544C2221.9 341.067 2221.34 341.467 2220.67 341.744C2220 342.021 2219.22 342.16 2218.32 342.16C2217.4 342.16 2216.6 342.021 2215.92 341.744C2215.25 341.456 2214.69 341.056 2214.26 340.544C2213.82 340.021 2213.49 339.397 2213.26 338.672C2213.05 337.947 2212.94 337.141 2212.94 336.256C2212.94 335.072 2213.14 334.043 2213.52 333.168C2213.91 332.293 2214.51 331.616 2215.3 331.136C2216.1 330.645 2217.11 330.4 2218.34 330.4C2219.52 330.4 2220.51 330.645 2221.3 331.136C2222.09 331.616 2222.68 332.299 2223.07 333.184C2223.47 334.059 2223.66 335.088 2223.66 336.272ZM2215.01 336.272C2215.01 337.147 2215.13 337.904 2215.36 338.544C2215.59 339.173 2215.96 339.659 2216.45 340C2216.94 340.331 2217.56 340.496 2218.32 340.496C2219.09 340.496 2219.71 340.331 2220.19 340C2220.68 339.659 2221.04 339.173 2221.26 338.544C2221.5 337.904 2221.62 337.147 2221.62 336.272C2221.62 334.96 2221.35 333.931 2220.83 333.184C2220.32 332.437 2219.49 332.064 2218.34 332.064C2217.57 332.064 2216.94 332.235 2216.45 332.576C2215.96 332.907 2215.59 333.387 2215.36 334.016C2215.13 334.645 2215.01 335.397 2215.01 336.272ZM2230.5 333.184C2231.47 333.184 2232.23 333.435 2232.77 333.936C2233.32 334.437 2233.6 335.243 2233.6 336.352V342H2231.68V336.72C2231.68 336.059 2231.55 335.563 2231.28 335.232C2231.01 334.901 2230.6 334.736 2230.03 334.736C2229.2 334.736 2228.63 334.997 2228.31 335.52C2228 336.032 2227.84 336.768 2227.84 337.728V342H2225.92V333.344H2227.43L2227.7 334.48H2227.79C2227.99 334.181 2228.22 333.936 2228.5 333.744C2228.79 333.552 2229.1 333.413 2229.44 333.328C2229.78 333.232 2230.13 333.184 2230.5 333.184Z" fill="#1F1F1F" id="n825"/>
<path d="M2251 320H2326V352H2251V320Z" fill="white" id="n827"/>
<path d="M2251 320V319H2250V320H2251ZM2251 352H2250V353H2251V352ZM2251 320V321H2326V320V319H2251V320ZM2326 352V351H2251V352V353H2326V352ZM2251 352H2252V320H2251H2250V352H2251Z" fill="#BEBEBE" mask="url(#path-686-inside-40_1702_11540)" id="n828"/>
<path fill-rule="evenodd" clip-rule="evenodd" d="M2270.27 343.268L2267 340H2264.2C2263.08 340 2262.52 340 2262.09 339.782C2261.72 339.59 2261.41 339.284 2261.22 338.908C2261 338.48 2261 337.92 2261 336.8V335.2C2261 334.08 2261 333.52 2261.22 333.092C2261.41 332.716 2261.72 332.41 2262.09 332.218C2262.52 332 2263.08 332 2264.2 332H2267L2270.27 328.731C2271.13 327.874 2271.55 327.446 2271.92 327.417C2272.24 327.392 2272.55 327.521 2272.76 327.765C2273 328.045 2273 328.651 2273 329.863V342.137C2273 343.349 2273 343.955 2272.76 344.235C2272.55 344.479 2272.24 344.608 2271.92 344.583C2271.55 344.554 2271.13 344.125 2270.27 343.268ZM2267.83 334L2271 330.828V341.171L2267.83 338H2263V334H2267.83Z" fill="#535353" id="n829"/>
<path d="M2275 329.675C2275.72 330.018 2276.38 330.483 2276.95 331.05C2277.6 331.7 2278.12 332.472 2278.47 333.321C2278.82 334.17 2279 335.081 2279 336C2279 336.919 2278.82 337.829 2278.47 338.679C2278.12 339.528 2277.6 340.3 2276.95 340.95C2276.38 341.517 2275.72 341.982 2275 342.324V344.485C2275.15 344.432 2275.3 344.376 2275.44 344.315C2276.54 343.863 2277.53 343.2 2278.36 342.364C2279.2 341.528 2279.86 340.536 2280.31 339.444C2280.77 338.352 2281 337.182 2281 336C2281 334.818 2280.77 333.648 2280.31 332.556C2279.86 331.464 2279.2 330.472 2278.36 329.636C2277.53 328.8 2276.54 328.137 2275.44 327.685C2275.3 327.624 2275.15 327.567 2275 327.515V329.675Z" fill="#535353" id="n830"/>
<path d="M2275 339.464V332.536C2275.3 332.71 2275.58 332.924 2275.83 333.172C2276.2 333.543 2276.49 333.984 2276.7 334.469C2276.9 334.954 2277 335.475 2277 336C2277 336.525 2276.9 337.045 2276.7 337.531C2276.49 338.016 2276.2 338.457 2275.83 338.828C2275.58 339.076 2275.3 339.29 2275 339.464Z" fill="#535353" id="n831"/>
<path d="M2291.72 337.136C2291.72 336.475 2291.76 335.824 2291.85 335.184C2291.94 334.544 2292.11 333.941 2292.34 333.376C2292.58 332.8 2292.9 332.293 2293.32 331.856C2293.74 331.408 2294.26 331.061 2294.89 330.816C2295.52 330.56 2296.29 330.432 2297.21 330.432C2297.43 330.432 2297.68 330.443 2297.96 330.464C2298.25 330.485 2298.49 330.517 2298.68 330.56V332.144C2298.48 332.091 2298.25 332.048 2298.01 332.016C2297.77 331.984 2297.54 331.968 2297.3 331.968C2296.58 331.968 2295.98 332.075 2295.5 332.288C2295.03 332.491 2294.65 332.779 2294.38 333.152C2294.1 333.515 2293.9 333.941 2293.77 334.432C2293.65 334.923 2293.58 335.461 2293.54 336.048H2293.64C2293.8 335.792 2293.99 335.563 2294.22 335.36C2294.45 335.157 2294.73 334.997 2295.06 334.88C2295.41 334.763 2295.79 334.704 2296.23 334.704C2296.89 334.704 2297.47 334.843 2297.96 335.12C2298.45 335.397 2298.83 335.803 2299.1 336.336C2299.37 336.859 2299.51 337.499 2299.51 338.256C2299.51 339.056 2299.36 339.749 2299.05 340.336C2298.75 340.923 2298.32 341.376 2297.75 341.696C2297.2 342.005 2296.53 342.16 2295.75 342.16C2295.19 342.16 2294.66 342.059 2294.17 341.856C2293.68 341.653 2293.25 341.349 2292.87 340.944C2292.51 340.528 2292.23 340.005 2292.02 339.376C2291.82 338.736 2291.72 337.989 2291.72 337.136ZM2295.72 340.576C2296.29 340.576 2296.74 340.389 2297.1 340.016C2297.45 339.643 2297.62 339.061 2297.62 338.272C2297.62 337.632 2297.47 337.131 2297.16 336.768C2296.85 336.395 2296.39 336.208 2295.77 336.208C2295.34 336.208 2294.97 336.299 2294.65 336.48C2294.34 336.661 2294.09 336.891 2293.91 337.168C2293.74 337.445 2293.66 337.733 2293.66 338.032C2293.66 338.341 2293.7 338.645 2293.78 338.944C2293.87 339.243 2294 339.52 2294.17 339.776C2294.35 340.021 2294.57 340.219 2294.82 340.368C2295.08 340.507 2295.38 340.576 2295.72 340.576ZM2304.76 334.848C2305.5 334.848 2306.15 334.981 2306.7 335.248C2307.27 335.515 2307.7 335.899 2308.01 336.4C2308.33 336.901 2308.49 337.52 2308.49 338.256C2308.49 339.067 2308.32 339.765 2307.98 340.352C2307.64 340.928 2307.14 341.376 2306.48 341.696C2305.83 342.005 2305.02 342.16 2304.06 342.16C2303.47 342.16 2302.92 342.107 2302.4 342C2301.87 341.893 2301.43 341.739 2301.05 341.536V339.808C2301.44 340.032 2301.91 340.213 2302.46 340.352C2303.01 340.491 2303.54 340.56 2304.03 340.56C2304.55 340.56 2305 340.485 2305.37 340.336C2305.75 340.187 2306.03 339.957 2306.22 339.648C2306.42 339.328 2306.52 338.923 2306.52 338.432C2306.52 337.781 2306.32 337.285 2305.9 336.944C2305.49 336.603 2304.85 336.432 2303.96 336.432C2303.67 336.432 2303.34 336.459 2302.99 336.512C2302.64 336.565 2302.35 336.619 2302.12 336.672L2301.29 336.192L2301.72 330.576H2307.69V332.256H2303.4L2303.16 335.008C2303.35 334.976 2303.56 334.944 2303.82 334.912C2304.08 334.869 2304.39 334.848 2304.76 334.848Z" fill="#1F1F1F" id="n832"/>
<path d="M2326 320H2412.4C2415.76 320 2417.44 320 2418.72 320.654C2419.85 321.229 2420.77 322.147 2421.35 323.276C2422 324.56 2422 326.24 2422 329.6V342.4C2422 345.76 2422 347.44 2421.35 348.724C2420.77 349.853 2419.85 350.771 2418.72 351.346C2417.44 352 2415.76 352 2412.4 352H2326V320Z" fill="white" id="n834"/>
<path d="M2326 320V319H2325V320H2326ZM2326 352H2325V353H2326V352ZM2421.35 348.724L2422.24 349.178L2421.35 348.724ZM2418.72 351.346L2419.18 352.237L2418.72 351.346ZM2418.72 320.654L2418.27 321.545L2418.72 320.654ZM2421.35 323.276L2420.46 323.73L2421.35 323.276ZM2326 321H2412.4V319H2326V321ZM2421 329.6V342.4H2423V329.6H2421ZM2412.4 351H2326V353H2412.4V351ZM2327 352V320H2325V352H2327ZM2421 342.4C2421 344.097 2421 345.309 2420.92 346.259C2420.84 347.198 2420.7 347.793 2420.46 348.27L2422.24 349.178C2422.65 348.372 2422.83 347.485 2422.91 346.422C2423 345.372 2423 344.064 2423 342.4H2421ZM2412.4 353C2414.06 353 2415.37 353.001 2416.42 352.915C2417.48 352.828 2418.37 352.648 2419.18 352.237L2418.27 350.455C2417.79 350.698 2417.2 350.845 2416.26 350.922C2415.31 350.999 2414.1 351 2412.4 351V353ZM2420.46 348.27C2419.98 349.211 2419.21 349.976 2418.27 350.455L2419.18 352.237C2420.5 351.566 2421.57 350.495 2422.24 349.178L2420.46 348.27ZM2412.4 321C2414.1 321 2415.31 321.001 2416.26 321.078C2417.2 321.155 2417.79 321.302 2418.27 321.545L2419.18 319.763C2418.37 319.352 2417.48 319.172 2416.42 319.085C2415.37 318.999 2414.06 319 2412.4 319V321ZM2423 329.6C2423 327.936 2423 326.628 2422.91 325.578C2422.83 324.515 2422.65 323.628 2422.24 322.822L2420.46 323.73C2420.7 324.207 2420.84 324.802 2420.92 325.741C2421 326.691 2421 327.903 2421 329.6H2423ZM2418.27 321.545C2419.21 322.024 2419.98 322.789 2420.46 323.73L2422.24 322.822C2421.57 321.505 2420.5 320.434 2419.18 319.763L2418.27 321.545Z" fill="#BEBEBE" mask="url(#path-690-inside-41_1702_11540)" id="n835"/>
<path fill-rule="evenodd" clip-rule="evenodd" d="M2335 332.776L2337 334.776C2341.97 329.806 2350.03 329.806 2355 334.776L2357 332.776C2350.93 326.706 2341.08 326.706 2335 332.776ZM2343 340.776L2346 343.776L2349 340.776C2347.35 339.116 2344.66 339.116 2343 340.776ZM2341 338.776L2339 336.776C2342.87 332.916 2349.14 332.916 2353 336.776L2351 338.776C2348.24 336.016 2343.76 336.016 2341 338.776Z" fill="#535353" id="n836"/>
<path d="M2365.87 328.575C2365.48 328.185 2365.48 327.552 2365.87 327.161L2367.99 325.04C2368.38 324.649 2369.01 324.649 2369.4 325.04L2373.65 329.282C2374.04 329.673 2374.04 330.306 2373.65 330.697L2373.29 331.05L2374 331.757L2376.83 328.929C2377.22 328.538 2377.85 328.538 2378.24 328.929L2381.07 331.757C2381.46 332.148 2381.46 332.781 2381.07 333.171L2378.24 336L2378.95 336.707L2379.3 336.353C2379.69 335.963 2380.33 335.963 2380.72 336.353L2384.96 340.596C2385.35 340.987 2385.35 341.62 2384.96 342.01L2382.84 344.132C2382.45 344.522 2381.82 344.522 2381.42 344.132L2377.18 339.889C2376.79 339.498 2376.79 338.865 2377.18 338.475L2377.54 338.121L2376.83 337.414L2375.41 338.828C2375.02 339.219 2374.39 339.219 2374 338.828L2371.17 336C2370.78 335.609 2370.78 334.976 2371.17 334.586L2372.59 333.171L2371.88 332.464L2371.53 332.818C2371.13 333.208 2370.5 333.208 2370.11 332.818L2365.87 328.575Z" fill="#535353" id="n837"/>
<path d="M2370.46 339.536C2370.93 340 2371.48 340.368 2372.09 340.619C2372.69 340.871 2373.34 341 2374 341V343C2373.08 343 2372.17 342.819 2371.32 342.467C2370.47 342.115 2369.7 341.6 2369.05 340.95C2368.4 340.3 2367.88 339.528 2367.53 338.679C2367.18 337.83 2367 336.919 2367 336L2369 336C2369 336.657 2369.13 337.307 2369.38 337.913C2369.63 338.52 2370 339.071 2370.46 339.536Z" fill="#535353" id="n838"/>
<path d="M2367.64 342.364C2368.47 343.2 2369.46 343.863 2370.56 344.315C2371.65 344.767 2372.82 345 2374 345L2374 347C2372.56 347 2371.12 346.716 2369.79 346.163C2368.46 345.61 2367.24 344.8 2366.22 343.778C2365.2 342.757 2364.39 341.544 2363.84 340.21C2363.28 338.875 2363 337.445 2363 336L2365 336C2365 337.182 2365.23 338.352 2365.68 339.444C2366.14 340.536 2366.8 341.528 2367.64 342.364Z" fill="#535353" id="n839"/>
<path fill-rule="evenodd" clip-rule="evenodd" d="M2401 325C2400.45 325 2400 325.448 2400 326V327L2399 327C2397.9 327 2397 327.895 2397 329L2397 344C2397 345.105 2397.9 346 2399 346H2405C2406.1 346 2407 345.105 2407 344V329C2407 327.895 2406.1 327 2405 327L2404 327V326C2404 325.448 2403.55 325 2403 325L2401 325ZM2405 333V329L2399 329L2399 333H2405Z" fill="#535353" id="n840"/>
</g>
</svg>
