<?xml version='1.0' encoding='utf-8'?>
<svg xmlns="http://www.w3.org/2000/svg" xmlns:xlink="http://www.w3.org/1999/xlink" width="544.0" height="1112.0" viewBox="0 0 544.0 1112.0" fill="none">
  <defs><clipPath id="clip__asset"><rect x="0" y="0" width="544.0" height="1112.0"/></clipPath><mask id="mask6_68_6728" style="mask-type:alpha" maskUnits="userSpaceOnUse" x="2668" y="216" width="512" height="512">
<path d="M2781.97 554C2796.37 578.931 2817.07 599.634 2842 614.028C2866.93 628.422 2895.21 636 2924 636C2952.79 636 2981.07 628.422 3006 614.028C3030.93 599.634 3051.63 578.931 3066.03 554L2924 472L2781.97 554Z" fill="white" stroke="#BEBEBE" id="n138"/>
</mask>
<mask id="path-114-inside-12_68_6728" fill="white">
<path d="M3072.98 558.012C3074.89 559.117 3075.55 561.569 3074.4 563.457C3043.51 614.151 2987.71 648.001 2924 648.001C2860.29 648.001 2804.49 614.151 2773.6 563.457C2772.45 561.569 2773.11 559.117 2775.02 558.012C2776.94 556.908 2779.38 557.565 2780.53 559.449C2810.03 607.756 2863.25 640.001 2924 640.001C2984.75 640.001 3037.97 607.756 3067.47 559.449C3068.62 557.565 3071.06 556.908 3072.98 558.012Z" id="n142"/>
</mask>
<mask id="mask7_68_6728" style="mask-type:alpha" maskUnits="userSpaceOnUse" x="2668" y="216" width="512" height="512">
<circle cx="2924" cy="472" r="164" fill="white" stroke="black" id="n145"/>
</mask>
<mask id="path-119-inside-13_68_6728" fill="white">
<path d="M2953.87 302.584C2954.26 300.41 2956.33 298.952 2958.5 299.383C2986.68 304.984 3012.45 317.319 3034.04 334.639C3035.76 336.021 3035.98 338.547 3034.56 340.238C3033.14 341.931 3030.62 342.147 3028.89 340.766C3008.36 324.333 2983.89 312.618 2957.11 307.267C2954.95 306.833 2953.49 304.761 2953.87 302.584Z" id="n149"/>
</mask>
<mask id="path-121-inside-14_68_6728" fill="white">
<path d="M3083.78 1132.25C3083.09 1133.44 3081.56 1133.85 3080.37 1133.16L3069.97 1127.16C3068.78 1126.47 3068.37 1124.94 3069.06 1123.75C3069.75 1122.55 3071.28 1122.14 3072.47 1122.83L3082.87 1128.83C3084.06 1129.52 3084.47 1131.05 3083.78 1132.25Z" id="n152"/>
</mask>
<mask id="path-123-inside-15_68_6728" fill="white">
<path d="M2793.54 909.539C2794.51 908.563 2796.1 908.563 2797.07 909.539L2805.56 918.024C2806.54 919 2806.54 920.583 2805.56 921.56C2804.58 922.536 2803 922.536 2802.02 921.56L2793.54 913.074C2792.56 912.098 2792.56 910.515 2793.54 909.539Z" id="n155"/>
</mask>
<mask id="mask8_68_6728" style="mask-type:alpha" maskUnits="userSpaceOnUse" x="2574" y="690" width="700" height="700">
<circle cx="2924" cy="1040" r="164" transform="rotate(30 2924 1040)" fill="white" stroke="black" id="n158"/>
</mask>
<mask id="path-127-inside-16_68_6728" fill="white">
<path d="M3016.25 880.217C3020.31 882.564 3021.71 887.763 3019.36 891.828C3017.01 895.893 3011.81 897.286 3007.75 894.939C3003.68 892.592 3002.29 887.393 3004.64 883.328C3006.99 879.263 3012.18 877.87 3016.25 880.217Z" id="n161"/>
</mask>
<clipPath id="clip10_68_6728">
<rect x="2652" y="200" width="544" height="1112" rx="5" fill="white" id="n2031"/>
</clipPath>
<pattern id="pattern1_68_6728" patternUnits="userSpaceOnUse" patternTransform="matrix(8 0 0 16 252 252)" preserveAspectRatio="none" viewBox="0 0 16 32" width="1" height="1">
<use xlink:href="#pattern1_68_6728_inner" transform="translate(-16 0)" id="n2186"/>
<g id="pattern1_68_6728_inner">
<rect x="6" y="6" width="4" height="4" fill="#BEBEBE" id="n2187"/>
</g>
<use xlink:href="#pattern1_68_6728_inner" transform="translate(-8 16)" id="n2188"/>
<use xlink:href="#pattern1_68_6728_inner" transform="translate(8 16)" id="n2189"/>
</pattern><g id="pattern1_68_6728_inner">
<rect x="6" y="6" width="4" height="4" fill="#BEBEBE" id="n2187"/>
</g>
</defs>
  <g clip-path="url(#clip__asset)" transform="translate(-2652.0 -200.0)"><g clip-path="url(#clip10_68_6728)" id="n136">
<rect x="2652" y="200" width="544" height="1112" rx="5" fill="#F0F0F0" id="n137"/>
<mask id="mask6_68_6728" style="mask-type:alpha" maskUnits="userSpaceOnUse" x="2668" y="216" width="512" height="512">
<path d="M2781.97 554C2796.37 578.931 2817.07 599.634 2842 614.028C2866.93 628.422 2895.21 636 2924 636C2952.79 636 2981.07 628.422 3006 614.028C3030.93 599.634 3051.63 578.931 3066.03 554L2924 472L2781.97 554Z" fill="white" stroke="#BEBEBE" id="n138"/>
</mask>
<g mask="url(#mask6_68_6728)" id="n139">
<rect width="512" height="512" transform="translate(2668 216)" fill="url(#pattern1_68_6728)" id="n140"/>
<path d="M2702.3 600C2724.77 638.917 2757.08 671.234 2796 693.703C2834.92 716.171 2879.06 728 2924 728C2968.94 728 3013.08 716.171 3052 693.702C3090.92 671.234 3123.23 638.917 3145.7 600L2924 472L2702.3 600Z" stroke="#BEBEBE" id="n141"/>
</g>
<mask id="path-114-inside-12_68_6728" fill="white">
<path d="M3072.98 558.012C3074.89 559.117 3075.55 561.569 3074.4 563.457C3043.51 614.151 2987.71 648.001 2924 648.001C2860.29 648.001 2804.49 614.151 2773.6 563.457C2772.45 561.569 2773.11 559.117 2775.02 558.012C2776.94 556.908 2779.38 557.565 2780.53 559.449C2810.03 607.756 2863.25 640.001 2924 640.001C2984.75 640.001 3037.97 607.756 3067.47 559.449C3068.62 557.565 3071.06 556.908 3072.98 558.012Z" id="n142"/>
</mask>
<path d="M3072.98 558.012C3074.89 559.117 3075.55 561.569 3074.4 563.457C3043.51 614.151 2987.71 648.001 2924 648.001C2860.29 648.001 2804.49 614.151 2773.6 563.457C2772.45 561.569 2773.11 559.117 2775.02 558.012C2776.94 556.908 2779.38 557.565 2780.53 559.449C2810.03 607.756 2863.25 640.001 2924 640.001C2984.75 640.001 3037.97 607.756 3067.47 559.449C3068.62 557.565 3071.06 556.908 3072.98 558.012Z" fill="#BEBEBE" id="n143"/>
<path d="M2924 648.001V649.001V649.001V648.001ZM2924 640.001V641.001V641.001V640.001ZM3067.47 559.449L3066.62 558.928L3067.47 559.449ZM3072.98 558.012L3073.48 557.146L3072.98 558.012ZM3074.4 563.457L3075.25 563.978L3074.4 563.457ZM3074.4 563.457L3073.54 562.937C3042.83 613.345 2987.34 647.001 2924 647.001V648.001V649.001C2988.07 649.001 3044.19 614.957 3075.25 563.978L3074.4 563.457ZM2924 648.001V647.001C2860.66 647.001 2805.17 613.345 2774.46 562.937L2773.6 563.457L2772.75 563.978C2803.81 614.957 2859.93 649.001 2924 649.001V648.001ZM2780.53 559.449L2779.67 559.971C2809.36 608.563 2862.89 641.001 2924 641.001V640.001V639.001C2863.61 639.001 2810.71 606.95 2781.38 558.928L2780.53 559.449ZM2924 640.001V641.001C2985.11 641.001 3038.64 608.562 3068.33 559.971L3067.47 559.449L3066.62 558.928C3037.29 606.95 2984.39 639.001 2924 639.001V640.001ZM2775.02 558.012L2775.52 558.878C2776.95 558.053 2778.8 558.536 2779.67 559.971L2780.53 559.449L2781.38 558.928C2779.96 556.594 2776.92 555.763 2774.52 557.146L2775.02 558.012ZM2773.6 563.457L2774.46 562.937C2773.6 561.541 2774.08 559.71 2775.52 558.878L2775.02 558.012L2774.52 557.146C2772.14 558.524 2771.3 561.598 2772.75 563.978L2773.6 563.457ZM3067.47 559.449L3068.33 559.971C3069.2 558.536 3071.05 558.053 3072.48 558.878L3072.98 558.012L3073.48 557.146C3071.08 555.763 3068.04 556.594 3066.62 558.928L3067.47 559.449ZM3074.4 563.457L3075.25 563.978C3076.7 561.598 3075.86 558.524 3073.48 557.146L3072.98 558.012L3072.48 558.878C3073.92 559.71 3074.4 561.541 3073.54 562.937L3074.4 563.457Z" fill="#BEBEBE" mask="url(#path-114-inside-12_68_6728)" id="n144"/>
<mask id="mask7_68_6728" style="mask-type:alpha" maskUnits="userSpaceOnUse" x="2668" y="216" width="512" height="512">
<circle cx="2924" cy="472" r="164" fill="white" stroke="black" id="n145"/>
</mask>
<g mask="url(#mask7_68_6728)" id="n146">
<path d="M3088.55 275.893C3054.13 247.007 3012.71 227.693 2968.45 219.889L2924 472L3088.55 275.893Z" stroke="white" id="n147"/>
<path d="M3088.55 275.893C3054.13 247.007 3012.71 227.693 2968.45 219.889L2924 472L3088.55 275.893Z" stroke="#2D548B" stroke-dasharray="1 2" id="n148"/>
</g>
<mask id="path-119-inside-13_68_6728" fill="white">
<path d="M2953.87 302.584C2954.26 300.41 2956.33 298.952 2958.5 299.383C2986.68 304.984 3012.45 317.319 3034.04 334.639C3035.76 336.021 3035.98 338.547 3034.56 340.238C3033.14 341.931 3030.62 342.147 3028.89 340.766C3008.36 324.333 2983.89 312.618 2957.11 307.267C2954.95 306.833 2953.49 304.761 2953.87 302.584Z" id="n149"/>
</mask>
<path d="M2953.87 302.584C2954.26 300.41 2956.33 298.952 2958.5 299.383C2986.68 304.984 3012.45 317.319 3034.04 334.639C3035.76 336.021 3035.98 338.547 3034.56 340.238C3033.14 341.931 3030.62 342.147 3028.89 340.766C3008.36 324.333 2983.89 312.618 2957.11 307.267C2954.95 306.833 2953.49 304.761 2953.87 302.584Z" fill="#2D548B" id="n150"/>
<path d="M3034.56 340.238L3035.33 340.881L3034.56 340.238ZM3028.89 340.766L3028.27 341.547L3028.89 340.766ZM3034.04 334.639L3033.41 335.419L3034.04 334.639ZM2958.5 299.383L2958.3 300.363C2986.33 305.933 3011.94 318.197 3033.41 335.419L3034.04 334.639L3034.67 333.859C3012.95 316.441 2987.04 304.036 2958.69 298.402L2958.5 299.383ZM3028.89 340.766L3029.52 339.986C3008.86 323.455 2984.24 311.67 2957.31 306.286L2957.11 307.267L2956.92 308.247C2983.53 313.567 3007.86 325.211 3028.27 341.547L3028.89 340.766ZM2957.11 307.267L2957.31 306.286C2955.66 305.956 2954.57 304.385 2954.86 302.757L2953.87 302.584L2952.89 302.41C2952.41 305.138 2954.23 307.71 2956.92 308.247L2957.11 307.267ZM3034.56 340.238L3033.79 339.596C3032.73 340.861 3030.83 341.037 3029.52 339.986L3028.89 340.766L3028.27 341.547C3030.41 343.258 3033.55 343.002 3035.33 340.881L3034.56 340.238ZM3034.04 334.639L3033.41 335.419C3034.69 336.441 3034.86 338.322 3033.79 339.596L3034.56 340.238L3035.33 340.881C3037.1 338.771 3036.84 335.601 3034.67 333.859L3034.04 334.639ZM2958.5 299.383L2958.69 298.402C2955.96 297.859 2953.37 299.698 2952.89 302.41L2953.87 302.584L2954.86 302.757C2955.15 301.121 2956.7 300.045 2958.3 300.363L2958.5 299.383Z" fill="#2D548B" mask="url(#path-119-inside-13_68_6728)" id="n151"/>
<mask id="path-121-inside-14_68_6728" fill="white">
<path d="M3083.78 1132.25C3083.09 1133.44 3081.56 1133.85 3080.37 1133.16L3069.97 1127.16C3068.78 1126.47 3068.37 1124.94 3069.06 1123.75C3069.75 1122.55 3071.28 1122.14 3072.47 1122.83L3082.87 1128.83C3084.06 1129.52 3084.47 1131.05 3083.78 1132.25Z" id="n152"/>
</mask>
<path d="M3083.78 1132.25C3083.09 1133.44 3081.56 1133.85 3080.37 1133.16L3069.97 1127.16C3068.78 1126.47 3068.37 1124.94 3069.06 1123.75C3069.75 1122.55 3071.28 1122.14 3072.47 1122.83L3082.87 1128.83C3084.06 1129.52 3084.47 1131.05 3083.78 1132.25Z" fill="#BEBEBE" id="n153"/>
<path d="M3082.87 1128.83L3083.37 1127.97L3082.87 1128.83ZM3083.78 1132.25L3082.91 1131.75C3082.5 1132.47 3081.58 1132.71 3080.87 1132.3L3080.37 1133.16L3079.87 1134.03C3081.54 1135 3083.68 1134.42 3084.65 1132.75L3083.78 1132.25ZM3080.37 1133.16L3080.87 1132.3L3070.47 1126.3L3069.97 1127.16L3069.47 1128.03L3079.87 1134.03L3080.37 1133.16ZM3069.97 1127.16L3070.47 1126.3C3069.76 1125.88 3069.51 1124.97 3069.92 1124.25L3069.06 1123.75L3068.19 1123.25C3067.23 1124.92 3067.8 1127.06 3069.47 1128.03L3069.97 1127.16ZM3069.06 1123.75L3069.92 1124.25C3070.34 1123.53 3071.26 1123.29 3071.97 1123.7L3072.47 1122.83L3072.97 1121.97C3071.3 1121 3069.16 1121.58 3068.19 1123.25L3069.06 1123.75ZM3072.47 1122.83L3071.97 1123.7L3082.37 1129.7L3082.87 1128.83L3083.37 1127.97L3072.97 1121.97L3072.47 1122.83ZM3082.87 1128.83L3082.37 1129.7C3083.08 1130.11 3083.33 1131.03 3082.91 1131.75L3083.78 1132.25L3084.65 1132.75C3085.61 1131.08 3085.04 1128.93 3083.37 1127.97L3082.87 1128.83Z" fill="#BEBEBE" mask="url(#path-121-inside-14_68_6728)" id="n154"/>
<mask id="path-123-inside-15_68_6728" fill="white">
<path d="M2793.54 909.539C2794.51 908.563 2796.1 908.563 2797.07 909.539L2805.56 918.024C2806.54 919 2806.54 920.583 2805.56 921.56C2804.58 922.536 2803 922.536 2802.02 921.56L2793.54 913.074C2792.56 912.098 2792.56 910.515 2793.54 909.539Z" id="n155"/>
</mask>
<path d="M2793.54 909.539C2794.51 908.563 2796.1 908.563 2797.07 909.539L2805.56 918.024C2806.54 919 2806.54 920.583 2805.56 921.56C2804.58 922.536 2803 922.536 2802.02 921.56L2793.54 913.074C2792.56 912.098 2792.56 910.515 2793.54 909.539Z" fill="#BEBEBE" id="n156"/>
<path d="M2793.54 913.074L2792.83 913.782L2793.54 913.074ZM2793.54 909.539L2794.25 910.246C2794.83 909.66 2795.78 909.66 2796.37 910.246L2797.07 909.539L2797.78 908.832C2796.41 907.465 2794.2 907.465 2792.83 908.832L2793.54 909.539ZM2797.07 909.539L2796.37 910.246L2804.85 918.731L2805.56 918.024L2806.27 917.317L2797.78 908.832L2797.07 909.539ZM2805.56 918.024L2804.85 918.731C2805.44 919.317 2805.44 920.267 2804.85 920.853L2805.56 921.56L2806.27 922.267C2807.63 920.9 2807.63 918.684 2806.27 917.317L2805.56 918.024ZM2805.56 921.56L2804.85 920.853C2804.27 921.438 2803.32 921.438 2802.73 920.853L2802.02 921.56L2801.32 922.267C2802.68 923.634 2804.9 923.634 2806.27 922.267L2805.56 921.56ZM2802.02 921.56L2802.73 920.853L2794.25 912.367L2793.54 913.074L2792.83 913.782L2801.32 922.267L2802.02 921.56ZM2793.54 913.074L2794.25 912.367C2793.66 911.782 2793.66 910.832 2794.25 910.246L2793.54 909.539L2792.83 908.832C2791.46 910.199 2791.46 912.415 2792.83 913.782L2793.54 913.074Z" fill="#BEBEBE" mask="url(#path-123-inside-15_68_6728)" id="n157"/>
<mask id="mask8_68_6728" style="mask-type:alpha" maskUnits="userSpaceOnUse" x="2574" y="690" width="700" height="700">
<circle cx="2924" cy="1040" r="164" transform="rotate(30 2924 1040)" fill="white" stroke="black" id="n158"/>
</mask>
<g mask="url(#mask8_68_6728)" id="n159">
<path d="M2924 1040L3052 818.297" stroke="#BEBEBE" stroke-linecap="square" stroke-dasharray="1 1" id="n160"/>
</g>
<mask id="path-127-inside-16_68_6728" fill="white">
<path d="M3016.25 880.217C3020.31 882.564 3021.71 887.763 3019.36 891.828C3017.01 895.893 3011.81 897.286 3007.75 894.939C3003.68 892.592 3002.29 887.393 3004.64 883.328C3006.99 879.263 3012.18 877.87 3016.25 880.217Z" id="n161"/>
</mask>
<path d="M3016.25 880.217C3020.31 882.564 3021.71 887.763 3019.36 891.828C3017.01 895.893 3011.81 897.286 3007.75 894.939C3003.68 892.592 3002.29 887.393 3004.64 883.328C3006.99 879.263 3012.18 877.87 3016.25 880.217Z" fill="#CADEFC" id="n162"/>
<path d="M3016.25 880.217L3015.75 881.083C3019.34 883.154 3020.57 887.741 3018.49 891.328L3019.36 891.828L3020.23 892.328C3022.85 887.784 3021.29 881.974 3016.75 879.351L3016.25 880.217ZM3019.36 891.828L3018.49 891.328C3016.42 894.915 3011.84 896.144 3008.25 894.073L3007.75 894.939L3007.25 895.805C3011.79 898.429 3017.6 896.872 3020.23 892.328L3019.36 891.828ZM3007.75 894.939L3008.25 894.073C3004.66 892.002 3003.43 887.415 3005.5 883.828L3004.64 883.328L3003.77 882.828C3001.15 887.372 3002.71 893.182 3007.25 895.805L3007.75 894.939ZM3004.64 883.328L3005.5 883.828C3007.58 880.241 3012.16 879.012 3015.75 881.083L3016.25 880.217L3016.75 879.351C3012.21 876.727 3006.4 878.284 3003.77 882.828L3004.64 883.328Z" fill="#2D548B" mask="url(#path-127-inside-16_68_6728)" id="n163"/>
</g>
</g>
</svg>
