<?xml version='1.0' encoding='utf-8'?>
<svg xmlns="http://www.w3.org/2000/svg" xmlns:xlink="http://www.w3.org/1999/xlink" width="320.0" height="248.0" viewBox="0 0 320.0 248.0" fill="none">
  <defs><clipPath id="clip__asset"><rect x="0" y="0" width="320.0" height="248.0"/></clipPath><mask id="path-1069-inside-57_1702_11540" fill="white">
<path d="M11399 228H11719V380H11399V228Z" id="n1333"/>
</mask>
</defs>
  <g clip-path="url(#clip__asset)" transform="translate(-11399.0 -228.0)"><path d="M11399 228V229H11719V228V227H11399V228ZM11719 380V379H11399V380V381H11719V380Z" fill="#DDDDDD" mask="url(#path-1069-inside-57_1702_11540)" id="n1334"/>
<path d="M11417 252.995V250.997H11419V252.995H11417Z" fill="#535353" id="n1335"/>
<path d="M11417 256.992V254.993H11419V256.992H11417Z" fill="#535353" id="n1336"/>
<path d="M11417 248.998V247H11419V248.998H11417Z" fill="#535353" id="n1337"/>
<path d="M11421 252.995V250.997H11428L11427.4 252.126L11427 252.995H11421Z" fill="#535353" id="n1338"/>
<path d="M11421 256.992V254.993H11426L11425 256.992H11421Z" fill="#535353" id="n1339"/>
<path d="M11421 248.998V247H11434.8V248.998H11421Z" fill="#535353" id="n1340"/>
<path fill-rule="evenodd" clip-rule="evenodd" d="M11436.9 262.719L11431.3 251.491C11431 250.836 11430 250.836 11429.7 251.491L11424.1 262.719C11423.8 263.315 11424.2 264 11424.9 264H11436.1C11436.8 264 11437.2 263.315 11436.9 262.719ZM11429.7 262.5H11431.2V261H11429.7V262.5ZM11429.7 259.5H11431.2V255H11429.7V259.5Z" fill="#535353" id="n1341"/>
<path d="M11455.7 262L11454.3 258.336H11449.7L11448.3 262H11447L11451.5 250.528H11452.6L11457.1 262H11455.7ZM11452.6 253.536C11452.5 253.451 11452.5 253.301 11452.4 253.088C11452.3 252.875 11452.3 252.656 11452.2 252.432C11452.1 252.197 11452.1 252.011 11452 251.872C11452 252.085 11451.9 252.299 11451.8 252.512C11451.8 252.715 11451.7 252.907 11451.7 253.088C11451.6 253.259 11451.6 253.413 11451.5 253.552L11450.2 257.2H11453.9L11452.6 253.536ZM11459.7 262H11458.5V249.84H11459.7V262ZM11465.7 253.28C11466.5 253.28 11467.1 253.445 11467.6 253.776C11468.1 254.096 11468.5 254.549 11468.8 255.136C11469.1 255.712 11469.2 256.389 11469.2 257.168V257.952H11463.3C11463.3 258.965 11463.5 259.744 11464 260.288C11464.5 260.821 11465.2 261.088 11466.1 261.088C11466.6 261.088 11467.1 261.04 11467.5 260.944C11467.9 260.837 11468.4 260.688 11468.8 260.496V261.6C11468.4 261.792 11468 261.931 11467.5 262.016C11467.1 262.112 11466.6 262.16 11466 262.16C11465.2 262.16 11464.5 261.995 11463.9 261.664C11463.3 261.323 11462.8 260.827 11462.5 260.176C11462.1 259.515 11462 258.72 11462 257.792C11462 256.875 11462.1 256.08 11462.4 255.408C11462.7 254.736 11463.2 254.213 11463.7 253.84C11464.3 253.467 11465 253.28 11465.7 253.28ZM11465.7 254.32C11465 254.32 11464.5 254.549 11464 255.008C11463.6 255.467 11463.4 256.112 11463.3 256.944H11467.9C11467.9 256.421 11467.8 255.968 11467.7 255.584C11467.5 255.189 11467.3 254.88 11467 254.656C11466.6 254.432 11466.2 254.32 11465.7 254.32ZM11475.2 253.296C11475.4 253.296 11475.6 253.307 11475.8 253.328C11476 253.339 11476.2 253.36 11476.3 253.392L11476.1 254.56C11476 254.517 11475.8 254.485 11475.7 254.464C11475.5 254.443 11475.3 254.432 11475.2 254.432C11474.8 254.432 11474.5 254.507 11474.2 254.656C11473.9 254.795 11473.6 254.992 11473.4 255.248C11473.2 255.504 11473 255.813 11472.9 256.176C11472.7 256.539 11472.7 256.944 11472.7 257.392V262H11471.4V253.44H11472.4L11472.6 255.024H11472.6C11472.8 254.704 11473 254.416 11473.3 254.16C11473.5 253.893 11473.8 253.685 11474.1 253.536C11474.5 253.376 11474.9 253.296 11475.2 253.296ZM11480.6 261.12C11480.9 261.12 11481.1 261.104 11481.3 261.072C11481.5 261.029 11481.7 260.987 11481.9 260.944V261.904C11481.7 261.979 11481.5 262.037 11481.2 262.08C11481 262.133 11480.7 262.16 11480.4 262.16C11480 262.16 11479.6 262.08 11479.2 261.92C11478.9 261.76 11478.6 261.493 11478.3 261.12C11478.1 260.736 11478 260.208 11478 259.536V254.432H11476.8V253.808L11478 253.328L11478.5 251.456H11479.3V253.44H11481.8V254.432H11479.3V259.504C11479.3 260.048 11479.4 260.453 11479.6 260.72C11479.9 260.987 11480.2 261.12 11480.6 261.12ZM11489.1 259.664C11489.1 260.208 11489 260.667 11488.7 261.04C11488.4 261.403 11488.1 261.68 11487.5 261.872C11487 262.064 11486.4 262.16 11485.7 262.16C11485.1 262.16 11484.6 262.112 11484.2 262.016C11483.7 261.92 11483.4 261.787 11483 261.616V260.464C11483.4 260.635 11483.8 260.789 11484.3 260.928C11484.8 261.067 11485.3 261.136 11485.8 261.136C11486.5 261.136 11487.1 261.013 11487.4 260.768C11487.7 260.523 11487.9 260.192 11487.9 259.776C11487.9 259.531 11487.8 259.317 11487.7 259.136C11487.6 258.955 11487.3 258.779 11487 258.608C11486.7 258.437 11486.3 258.251 11485.7 258.048C11485.2 257.845 11484.7 257.643 11484.3 257.44C11483.9 257.237 11483.6 256.987 11483.4 256.688C11483.2 256.389 11483.1 256.005 11483.1 255.536C11483.1 254.811 11483.4 254.256 11483.9 253.872C11484.5 253.477 11485.3 253.28 11486.2 253.28C11486.8 253.28 11487.2 253.333 11487.7 253.44C11488.1 253.536 11488.6 253.669 11488.9 253.84L11488.5 254.864C11488.3 254.757 11488 254.667 11487.8 254.592C11487.5 254.507 11487.2 254.443 11487 254.4C11486.7 254.347 11486.4 254.32 11486.2 254.32C11485.5 254.32 11485.1 254.421 11484.7 254.624C11484.4 254.827 11484.3 255.104 11484.3 255.456C11484.3 255.723 11484.3 255.947 11484.5 256.128C11484.6 256.299 11484.9 256.459 11485.2 256.608C11485.6 256.757 11486 256.933 11486.5 257.136C11487 257.328 11487.5 257.531 11487.9 257.744C11488.3 257.947 11488.6 258.203 11488.8 258.512C11489 258.811 11489.1 259.195 11489.1 259.664Z" fill="#535353" id="n1342"/>
<path d="M11426 310H11428V308H11426V310Z" fill="#535353" id="n1343"/>
<path d="M11427 298C11424.8 298 11423 299.79 11423 302H11425C11425 300.9 11425.9 300 11427 300C11428.1 300 11429 300.9 11429 302C11429 304 11426 303.75 11426 307H11428C11428 304.75 11431 304.5 11431 302C11431 299.79 11429.2 298 11427 298Z" fill="#535353" id="n1344"/>
<path fill-rule="evenodd" clip-rule="evenodd" d="M11427 294C11421.5 294 11417 298.48 11417 304C11417 309.52 11421.5 314 11427 314C11432.5 314 11437 309.52 11437 304C11437 298.48 11432.5 294 11427 294ZM11427 312C11422.6 312 11419 308.41 11419 304C11419 299.59 11422.6 296 11427 296C11431.4 296 11435 299.59 11435 304C11435 308.41 11431.4 312 11427 312Z" fill="#535353" id="n1345"/>
<path d="M11457.2 310H11455.9V304.592H11449.8V310H11448.6V298.576H11449.8V303.472H11455.9V298.576H11457.2V310ZM11463.4 301.28C11464.2 301.28 11464.8 301.445 11465.3 301.776C11465.8 302.096 11466.2 302.549 11466.5 303.136C11466.8 303.712 11466.9 304.389 11466.9 305.168V305.952H11461C11461 306.965 11461.2 307.744 11461.7 308.288C11462.2 308.821 11462.9 309.088 11463.8 309.088C11464.3 309.088 11464.8 309.04 11465.2 308.944C11465.6 308.837 11466.1 308.688 11466.5 308.496V309.6C11466.1 309.792 11465.7 309.931 11465.2 310.016C11464.8 310.112 11464.3 310.16 11463.7 310.16C11462.9 310.16 11462.2 309.995 11461.6 309.664C11461 309.323 11460.5 308.827 11460.2 308.176C11459.8 307.515 11459.7 306.72 11459.7 305.792C11459.7 304.875 11459.8 304.08 11460.1 303.408C11460.4 302.736 11460.9 302.213 11461.4 301.84C11462 301.467 11462.7 301.28 11463.4 301.28ZM11463.4 302.32C11462.7 302.32 11462.2 302.549 11461.7 303.008C11461.3 303.467 11461.1 304.112 11461 304.944H11465.6C11465.6 304.421 11465.5 303.968 11465.4 303.584C11465.2 303.189 11465 302.88 11464.7 302.656C11464.3 302.432 11463.9 302.32 11463.4 302.32ZM11470.4 310H11469.1V297.84H11470.4V310ZM11477.1 301.28C11478.2 301.28 11479 301.648 11479.7 302.384C11480.3 303.12 11480.6 304.224 11480.6 305.696C11480.6 306.667 11480.5 307.488 11480.2 308.16C11479.9 308.821 11479.5 309.323 11478.9 309.664C11478.4 309.995 11477.8 310.16 11477.1 310.16C11476.6 310.16 11476.2 310.096 11475.9 309.968C11475.5 309.84 11475.2 309.675 11475 309.472C11474.7 309.269 11474.5 309.045 11474.4 308.8H11474.3C11474.3 309.003 11474.3 309.248 11474.3 309.536C11474.4 309.824 11474.4 310.08 11474.4 310.304V313.824H11473.1V301.44H11474.1L11474.3 302.736H11474.4C11474.5 302.469 11474.7 302.229 11475 302.016C11475.2 301.792 11475.5 301.616 11475.9 301.488C11476.2 301.349 11476.6 301.28 11477.1 301.28ZM11476.9 302.352C11476.3 302.352 11475.8 302.469 11475.4 302.704C11475.1 302.939 11474.8 303.285 11474.6 303.744C11474.5 304.203 11474.4 304.779 11474.4 305.472V305.712C11474.4 306.448 11474.5 307.067 11474.6 307.568C11474.8 308.069 11475 308.453 11475.4 308.72C11475.8 308.976 11476.3 309.104 11476.9 309.104C11477.4 309.104 11477.9 308.96 11478.2 308.672C11478.6 308.384 11478.9 307.984 11479 307.472C11479.2 306.96 11479.3 306.363 11479.3 305.68C11479.3 304.645 11479.1 303.835 11478.7 303.248C11478.3 302.651 11477.7 302.352 11476.9 302.352Z" fill="#535353" id="n1346"/>
<path d="M11424.3 362L11423.9 358.8C11423.6 358.717 11423.4 358.617 11423.2 358.5C11423 358.383 11422.9 358.258 11422.7 358.125L11419.7 359.375L11417 354.625L11419.5 352.675C11419.5 352.558 11419.5 352.446 11419.5 352.338V351.663C11419.5 351.554 11419.5 351.442 11419.5 351.325L11417 349.375L11419.7 344.625L11422.7 345.875C11422.9 345.742 11423.1 345.617 11423.3 345.5C11423.5 345.383 11423.7 345.283 11423.9 345.2L11424.3 342H11429.8L11430.2 345.2C11430.4 345.283 11430.6 345.383 11430.8 345.5C11431 345.617 11431.1 345.742 11431.3 345.875L11434.3 344.625L11437.1 349.375L11434.5 351.325C11434.5 351.442 11434.5 351.554 11434.5 351.663V352.338C11434.5 352.446 11434.5 352.558 11434.5 352.675L11437 354.625L11434.3 359.375L11431.3 358.125C11431.1 358.258 11431 358.383 11430.8 358.5C11430.6 358.617 11430.4 358.717 11430.2 358.8L11429.8 362H11424.3ZM11426 360H11428L11428.3 357.35C11428.8 357.217 11429.3 357.021 11429.8 356.762C11430.2 356.504 11430.6 356.192 11431 355.825L11433.5 356.85L11434.4 355.15L11432.3 353.525C11432.4 353.292 11432.4 353.046 11432.5 352.788C11432.5 352.529 11432.5 352.267 11432.5 352C11432.5 351.733 11432.5 351.471 11432.5 351.213C11432.4 350.954 11432.4 350.708 11432.3 350.475L11434.4 348.85L11433.5 347.15L11431 348.2C11430.6 347.817 11430.2 347.496 11429.8 347.238C11429.3 346.979 11428.8 346.783 11428.3 346.65L11428 344H11426L11425.7 346.65C11425.2 346.783 11424.7 346.979 11424.2 347.238C11423.8 347.496 11423.4 347.808 11423 348.175L11420.6 347.15L11419.6 348.85L11421.7 350.45C11421.6 350.7 11421.6 350.95 11421.6 351.2C11421.5 351.45 11421.5 351.717 11421.5 352C11421.5 352.267 11421.5 352.525 11421.6 352.775C11421.6 353.025 11421.6 353.275 11421.7 353.525L11419.6 355.15L11420.6 356.85L11423 355.8C11423.4 356.183 11423.8 356.504 11424.2 356.762C11424.7 357.021 11425.2 357.217 11425.7 357.35L11426 360Z" fill="#535353" id="n1347"/>
<path fill-rule="evenodd" clip-rule="evenodd" d="M11427 353.5C11427.8 353.5 11428.5 352.828 11428.5 352C11428.5 351.172 11427.8 350.5 11427 350.5C11426.2 350.5 11425.5 351.172 11425.5 352C11425.5 352.828 11426.2 353.5 11427 353.5ZM11427 355.5C11428.9 355.5 11430.5 353.933 11430.5 352C11430.5 350.067 11428.9 348.5 11427 348.5C11425.1 348.5 11423.5 350.067 11423.5 352C11423.5 353.933 11425.1 355.5 11427 355.5Z" fill="#535353" id="n1348"/>
<path d="M11455 354.976C11455 355.659 11454.8 356.235 11454.5 356.704C11454.2 357.173 11453.7 357.536 11453.1 357.792C11452.5 358.037 11451.8 358.16 11451 358.16C11450.5 358.16 11450.1 358.139 11449.7 358.096C11449.3 358.053 11449 357.995 11448.7 357.92C11448.4 357.835 11448.1 357.739 11447.8 357.632V356.384C11448.2 356.555 11448.7 356.709 11449.3 356.848C11449.8 356.976 11450.4 357.04 11451 357.04C11451.6 357.04 11452.1 356.965 11452.5 356.816C11452.9 356.656 11453.2 356.432 11453.4 356.144C11453.6 355.845 11453.7 355.488 11453.7 355.072C11453.7 354.677 11453.6 354.347 11453.4 354.08C11453.3 353.813 11453 353.573 11452.6 353.36C11452.2 353.136 11451.6 352.907 11451 352.672C11450.5 352.491 11450 352.299 11449.7 352.096C11449.3 351.893 11449 351.664 11448.7 351.408C11448.5 351.152 11448.3 350.853 11448.2 350.512C11448 350.171 11448 349.776 11448 349.328C11448 348.709 11448.1 348.187 11448.4 347.76C11448.7 347.323 11449.2 346.992 11449.7 346.768C11450.3 346.533 11450.9 346.416 11451.6 346.416C11452.2 346.416 11452.8 346.475 11453.3 346.592C11453.8 346.699 11454.3 346.853 11454.7 347.056L11454.3 348.144C11453.9 347.973 11453.5 347.835 11453 347.728C11452.5 347.611 11452.1 347.552 11451.6 347.552C11451.1 347.552 11450.7 347.627 11450.3 347.776C11450 347.915 11449.7 348.117 11449.5 348.384C11449.4 348.651 11449.3 348.965 11449.3 349.328C11449.3 349.744 11449.4 350.085 11449.5 350.352C11449.7 350.619 11450 350.853 11450.4 351.056C11450.7 351.259 11451.2 351.472 11451.8 351.696C11452.5 351.941 11453.1 352.203 11453.6 352.48C11454 352.757 11454.4 353.093 11454.6 353.488C11454.9 353.872 11455 354.368 11455 354.976ZM11460.4 349.28C11461.2 349.28 11461.8 349.445 11462.3 349.776C11462.8 350.096 11463.2 350.549 11463.5 351.136C11463.8 351.712 11463.9 352.389 11463.9 353.168V353.952H11458C11458 354.965 11458.2 355.744 11458.7 356.288C11459.2 356.821 11459.9 357.088 11460.8 357.088C11461.3 357.088 11461.8 357.04 11462.2 356.944C11462.6 356.837 11463.1 356.688 11463.5 356.496V357.6C11463.1 357.792 11462.7 357.931 11462.2 358.016C11461.8 358.112 11461.3 358.16 11460.7 358.16C11459.9 358.16 11459.2 357.995 11458.6 357.664C11458 357.323 11457.5 356.827 11457.2 356.176C11456.8 355.515 11456.7 354.72 11456.7 353.792C11456.7 352.875 11456.8 352.08 11457.1 351.408C11457.4 350.736 11457.9 350.213 11458.4 349.84C11459 349.467 11459.7 349.28 11460.4 349.28ZM11460.4 350.32C11459.7 350.32 11459.1 350.549 11458.7 351.008C11458.3 351.467 11458.1 352.112 11458 352.944H11462.6C11462.6 352.421 11462.5 351.968 11462.3 351.584C11462.2 351.189 11462 350.88 11461.6 350.656C11461.3 350.432 11460.9 350.32 11460.4 350.32ZM11468.8 357.12C11469 357.12 11469.3 357.104 11469.5 357.072C11469.7 357.029 11469.9 356.987 11470 356.944V357.904C11469.9 357.979 11469.7 358.037 11469.4 358.08C11469.1 358.133 11468.9 358.16 11468.6 358.16C11468.2 358.16 11467.8 358.08 11467.4 357.92C11467 357.76 11466.7 357.493 11466.5 357.12C11466.3 356.736 11466.2 356.208 11466.2 355.536V350.432H11465V349.808L11466.2 349.328L11466.7 347.456H11467.5V349.44H11470V350.432H11467.5V355.504C11467.5 356.048 11467.6 356.453 11467.8 356.72C11468.1 356.987 11468.4 357.12 11468.8 357.12ZM11474.5 357.12C11474.7 357.12 11474.9 357.104 11475.2 357.072C11475.4 357.029 11475.6 356.987 11475.7 356.944V357.904C11475.6 357.979 11475.3 358.037 11475.1 358.08C11474.8 358.133 11474.6 358.16 11474.3 358.16C11473.8 358.16 11473.4 358.08 11473.1 357.92C11472.7 357.76 11472.4 357.493 11472.2 357.12C11472 356.736 11471.9 356.208 11471.9 355.536V350.432H11470.6V349.808L11471.9 349.328L11472.4 347.456H11473.1V349.44H11475.7V350.432H11473.1V355.504C11473.1 356.048 11473.3 356.453 11473.5 356.72C11473.7 356.987 11474.1 357.12 11474.5 357.12ZM11478.7 349.44V358H11477.5V349.44H11478.7ZM11478.1 346.24C11478.3 346.24 11478.5 346.309 11478.6 346.448C11478.8 346.587 11478.9 346.8 11478.9 347.088C11478.9 347.355 11478.8 347.563 11478.6 347.712C11478.5 347.851 11478.3 347.92 11478.1 347.92C11477.9 347.92 11477.7 347.851 11477.5 347.712C11477.4 347.563 11477.3 347.355 11477.3 347.088C11477.3 346.8 11477.4 346.587 11477.5 346.448C11477.7 346.309 11477.9 346.24 11478.1 346.24ZM11485.5 349.28C11486.5 349.28 11487.3 349.531 11487.8 350.032C11488.3 350.523 11488.6 351.317 11488.6 352.416V358H11487.3V352.512C11487.3 351.776 11487.2 351.232 11486.8 350.88C11486.5 350.528 11486 350.352 11485.3 350.352C11484.4 350.352 11483.7 350.619 11483.3 351.152C11482.9 351.685 11482.7 352.464 11482.7 353.488V358H11481.5V349.44H11482.5L11482.7 350.704H11482.7C11482.9 350.395 11483.2 350.139 11483.4 349.936C11483.7 349.723 11484 349.563 11484.4 349.456C11484.7 349.339 11485.1 349.28 11485.5 349.28ZM11494.3 349.28C11494.9 349.28 11495.4 349.397 11495.9 349.632C11496.3 349.856 11496.7 350.187 11497 350.624H11497.1L11497.3 349.44H11498.3V358.176C11498.3 358.965 11498.1 359.632 11497.9 360.176C11497.6 360.731 11497.2 361.147 11496.6 361.424C11496.1 361.701 11495.3 361.84 11494.5 361.84C11493.8 361.84 11493.3 361.792 11492.8 361.696C11492.3 361.6 11491.8 361.467 11491.4 361.296V360.112C11491.7 360.251 11492 360.368 11492.3 360.464C11492.6 360.571 11493 360.651 11493.4 360.704C11493.7 360.757 11494.1 360.784 11494.5 360.784C11495.3 360.784 11495.9 360.56 11496.4 360.112C11496.8 359.664 11497 359.051 11497 358.272V357.888C11497 357.739 11497 357.547 11497 357.312C11497 357.067 11497 356.88 11497.1 356.752H11497C11496.7 357.221 11496.3 357.573 11495.9 357.808C11495.4 358.043 11494.9 358.16 11494.3 358.16C11493.2 358.16 11492.3 357.776 11491.7 357.008C11491.1 356.24 11490.8 355.157 11490.8 353.76C11490.8 352.843 11490.9 352.048 11491.2 351.376C11491.5 350.704 11491.9 350.187 11492.4 349.824C11492.9 349.461 11493.6 349.28 11494.3 349.28ZM11494.5 350.352C11494 350.352 11493.5 350.485 11493.2 350.752C11492.8 351.019 11492.5 351.408 11492.3 351.92C11492.2 352.421 11492.1 353.04 11492.1 353.776C11492.1 354.853 11492.3 355.68 11492.7 356.256C11493.1 356.832 11493.7 357.12 11494.5 357.12C11494.9 357.12 11495.3 357.056 11495.7 356.928C11496 356.8 11496.2 356.608 11496.4 356.352C11496.6 356.096 11496.8 355.776 11496.9 355.392C11497 355.008 11497 354.565 11497 354.064V353.664C11497 352.896 11496.9 352.272 11496.8 351.792C11496.6 351.301 11496.3 350.939 11495.9 350.704C11495.6 350.469 11495.1 350.352 11494.5 350.352ZM11506.5 355.664C11506.5 356.208 11506.4 356.667 11506.1 357.04C11505.9 357.403 11505.5 357.68 11505 357.872C11504.5 358.064 11503.8 358.16 11503.1 358.16C11502.5 358.16 11502 358.112 11501.6 358.016C11501.2 357.92 11500.8 357.787 11500.4 357.616V356.464C11500.8 356.635 11501.2 356.789 11501.7 356.928C11502.2 357.067 11502.7 357.136 11503.2 357.136C11503.9 357.136 11504.5 357.013 11504.8 356.768C11505.1 356.523 11505.3 356.192 11505.3 355.776C11505.3 355.531 11505.2 355.317 11505.1 355.136C11505 354.955 11504.7 354.779 11504.4 354.608C11504.1 354.437 11503.7 354.251 11503.1 354.048C11502.6 353.845 11502.1 353.643 11501.7 353.44C11501.3 353.237 11501 352.987 11500.8 352.688C11500.6 352.389 11500.5 352.005 11500.5 351.536C11500.5 350.811 11500.8 350.256 11501.3 349.872C11501.9 349.477 11502.7 349.28 11503.6 349.28C11504.2 349.28 11504.6 349.333 11505.1 349.44C11505.5 349.536 11506 349.669 11506.3 349.84L11505.9 350.864C11505.7 350.757 11505.4 350.667 11505.2 350.592C11504.9 350.507 11504.7 350.443 11504.4 350.4C11504.1 350.347 11503.8 350.32 11503.6 350.32C11503 350.32 11502.5 350.421 11502.2 350.624C11501.8 350.827 11501.7 351.104 11501.7 351.456C11501.7 351.723 11501.7 351.947 11501.9 352.128C11502 352.299 11502.3 352.459 11502.6 352.608C11503 352.757 11503.4 352.933 11503.9 353.136C11504.4 353.328 11504.9 353.531 11505.3 353.744C11505.7 353.947 11506 354.203 11506.2 354.512C11506.4 354.811 11506.5 355.195 11506.5 355.664Z" fill="#535353" id="n1349"/>
<path fill-rule="evenodd" clip-rule="evenodd" d="M11480 452C11493.8 452 11505 440.807 11505 427C11505 413.193 11493.8 402 11480 402C11466.2 402 11455 413.193 11455 427C11455 440.807 11466.2 452 11480 452ZM11478.5 409.5H11481.5V414.5H11487.5V423L11480 418.5L11472.5 423V414.5H11478.5V409.5ZM11492.5 429.107L11480 422L11467.5 429.107L11472.7 440.613H11487.3L11492.5 429.107Z" fill="#1F1F1F" id="n1350"/>
<path d="M11570.2 408.393C11572 408.393 11572.8 407.665 11572.8 406.209C11572.8 405.481 11572.6 404.931 11572.2 404.559C11571.8 404.186 11571.1 404 11570.2 404C11569.3 404 11568.6 404.182 11568.2 404.546C11567.8 404.91 11567.6 405.464 11567.6 406.209C11567.6 407.665 11568.4 408.393 11570.2 408.393Z" fill="#1F1F1F" id="n1351"/>
<path d="M11518.9 416.111V424.173H11514.4V405.612H11521.1L11525 418.79H11525.1L11528.9 405.612H11535.6V424.173H11530.9V416.035C11530.9 415.612 11531 415.142 11531 414.626C11531 414.11 11531 412.844 11531.1 410.83H11531L11527.3 424.173H11522.5L11518.7 410.805H11518.6C11518.8 413.081 11518.9 414.85 11518.9 416.111Z" fill="#1F1F1F" id="n1352"/>
<path fill-rule="evenodd" clip-rule="evenodd" d="M11545.5 423.97C11544.9 424.274 11544 424.427 11542.9 424.427C11541.5 424.427 11540.4 424.021 11539.7 423.208C11538.9 422.396 11538.5 421.253 11538.5 419.78C11538.5 418.248 11539 417.108 11540.1 416.359C11541.2 415.61 11542.7 415.189 11544.7 415.096L11547.1 415.02V414.816C11547.1 413.632 11546.5 413.039 11545.4 413.039C11544.3 413.039 11543 413.395 11541.4 414.105L11539.9 410.83C11541.6 409.967 11543.7 409.535 11546.3 409.535C11548.1 409.535 11549.6 409.992 11550.6 410.906C11551.6 411.82 11552.1 413.098 11552.1 414.74V424.173H11548.6L11547.7 422.269H11547.6C11546.9 423.098 11546.2 423.665 11545.5 423.97ZM11545 420.923C11544 420.923 11543.6 420.483 11543.6 419.603C11543.6 418.46 11544.4 417.859 11546 417.8L11547.1 417.749V418.866C11547.1 419.476 11546.9 419.971 11546.5 420.352C11546.1 420.732 11545.6 420.923 11545 420.923Z" fill="#1F1F1F" id="n1353"/>
<path d="M11560.4 417.102V424.173H11555.5V409.789H11559.2L11559.9 412.087H11560.2C11560.6 411.325 11561.2 410.709 11561.9 410.24C11562.6 409.77 11563.4 409.535 11564.1 409.535C11564.6 409.535 11565 409.569 11565.4 409.637L11565.7 409.688L11565.2 414.372C11564.8 414.271 11564.2 414.22 11563.5 414.22C11562.4 414.22 11561.7 414.467 11561.2 414.962C11560.7 415.458 11560.4 416.171 11560.4 417.102Z" fill="#1F1F1F" id="n1354"/>
<path d="M11572.7 409.789V424.173H11567.7V409.789H11572.7Z" fill="#1F1F1F" id="n1355"/>
<path d="M11581.5 424.427C11582.3 424.427 11583 424.365 11583.7 424.243C11584.3 424.12 11584.9 423.915 11585.6 423.627V420.009C11584.6 420.339 11583.8 420.504 11583.2 420.504C11582.3 420.504 11581.8 420.038 11581.8 419.107V413.509H11585.3V409.789H11581.8V406.907H11578.6L11577.3 409.929L11575.1 411.49V413.509H11576.8V419.438C11576.8 421.13 11577.2 422.385 11577.9 423.202C11578.7 424.018 11579.9 424.427 11581.5 424.427Z" fill="#1F1F1F" id="n1356"/>
<path d="M11593.3 406.209C11593.3 407.665 11592.4 408.393 11590.6 408.393C11588.9 408.393 11588 407.665 11588 406.209C11588 405.464 11588.2 404.91 11588.6 404.546C11589 404.182 11589.7 404 11590.6 404C11591.5 404 11592.2 404.186 11592.6 404.559C11593 404.931 11593.3 405.481 11593.3 406.209Z" fill="#1F1F1F" id="n1357"/>
<path d="M11593.1 424.173V409.789H11588.1V424.173H11593.1Z" fill="#1F1F1F" id="n1358"/>
<path d="M11601.5 417.876V424.173H11596.5V409.789H11600.3L11600.9 411.566H11601.2C11601.6 410.906 11602.1 410.403 11602.8 410.056C11603.6 409.709 11604.4 409.535 11605.3 409.535C11607.4 409.535 11608.8 410.166 11609.7 411.427H11610.1C11610.5 410.834 11611 410.371 11611.8 410.037C11612.5 409.702 11613.3 409.535 11614.2 409.535C11615.9 409.535 11617.1 409.971 11617.9 410.843C11618.7 411.715 11619.2 413.039 11619.2 414.816V424.173H11614.2V416.353C11614.2 415.379 11614.1 414.649 11613.8 414.163C11613.5 413.676 11613.1 413.433 11612.5 413.433C11611.8 413.433 11611.2 413.758 11610.9 414.41C11610.5 415.062 11610.3 416.082 11610.3 417.47V424.173H11605.3V416.353C11605.3 415.379 11605.2 414.649 11605 414.163C11604.7 413.676 11604.3 413.433 11603.7 413.433C11603 413.433 11602.4 413.78 11602 414.474C11601.7 415.168 11601.5 416.302 11601.5 417.876Z" fill="#1F1F1F" id="n1359"/>
<path fill-rule="evenodd" clip-rule="evenodd" d="M11629.5 424.427C11630.6 424.427 11631.6 424.351 11632.4 424.198C11633.3 424.046 11634.1 423.771 11634.9 423.373V419.806C11634 420.203 11633.2 420.485 11632.5 420.65C11631.7 420.815 11630.9 420.897 11630.1 420.897C11629.1 420.897 11628.4 420.669 11627.8 420.212C11627.3 419.755 11627 419.124 11626.9 418.32H11635.8V416.111C11635.8 413.987 11635.2 412.36 11634 411.23C11632.8 410.1 11631.2 409.535 11629 409.535C11626.7 409.535 11625 410.185 11623.8 411.484C11622.5 412.783 11621.9 414.647 11621.9 417.076C11621.9 419.429 11622.6 421.242 11623.9 422.516C11625.2 423.79 11627.1 424.427 11629.5 424.427ZM11627 415.197H11631.3C11631.3 414.503 11631.1 413.949 11630.7 413.534C11630.3 413.119 11629.8 412.912 11629.2 412.912C11628.6 412.912 11628.1 413.096 11627.7 413.464C11627.3 413.833 11627.1 414.41 11627 415.197Z" fill="#1F1F1F" id="n1360"/>
<path d="M11527.3 447.703C11526 448.186 11524.4 448.427 11522.6 448.427C11519.8 448.427 11517.7 447.597 11516.2 445.938C11514.7 444.28 11514 441.923 11514 438.867C11514 436.954 11514.4 435.279 11515.1 433.84C11515.8 432.401 11516.8 431.292 11518.2 430.514C11519.5 429.735 11521.1 429.346 11522.9 429.346C11524.9 429.346 11526.6 429.701 11528 430.412L11527.1 432.266C11525.7 431.605 11524.3 431.275 11522.9 431.275C11520.9 431.275 11519.3 431.955 11518.1 433.313C11516.9 434.671 11516.3 436.531 11516.3 438.893C11516.3 441.322 11516.9 443.198 11518 444.523C11519.2 445.847 11520.8 446.51 11522.9 446.51C11524.2 446.51 11525.7 446.277 11527.3 445.812V447.703Z" fill="#1F1F1F" id="n1361"/>
<path fill-rule="evenodd" clip-rule="evenodd" d="M11541.3 446.516C11540.2 447.79 11538.6 448.427 11536.6 448.427C11535.4 448.427 11534.3 448.135 11533.3 447.551C11532.3 446.967 11531.6 446.129 11531.1 445.037C11530.5 443.945 11530.3 442.667 11530.3 441.203C11530.3 438.935 11530.8 437.168 11532 435.903C11533.1 434.638 11534.7 434.005 11536.7 434.005C11538.6 434.005 11540.2 434.652 11541.3 435.947C11542.5 437.242 11543.1 438.994 11543.1 441.203C11543.1 443.471 11542.5 445.242 11541.3 446.516ZM11536.7 446.662C11535.3 446.662 11534.2 446.197 11533.5 445.266C11532.8 444.335 11532.5 442.98 11532.5 441.203C11532.5 439.409 11532.8 438.059 11533.5 437.153C11534.2 436.248 11535.3 435.795 11536.6 435.795C11538 435.795 11539.1 436.254 11539.8 437.172C11540.5 438.091 11540.9 439.434 11540.9 441.203C11540.9 442.989 11540.5 444.345 11539.8 445.272C11539.1 446.199 11538 446.662 11536.7 446.662Z" fill="#1F1F1F" id="n1362"/>
<path d="M11549.8 436.982C11549.2 437.773 11548.9 439.07 11548.9 440.873V448.173H11546.8V434.259H11548.5L11548.8 436.163H11548.9C11549.3 435.486 11549.9 434.957 11550.6 434.576C11551.3 434.195 11552.1 434.005 11553 434.005C11555.2 434.005 11556.6 434.792 11557.3 436.366H11557.4C11557.8 435.638 11558.4 435.063 11559.2 434.64C11560 434.216 11560.9 434.005 11561.9 434.005C11563.5 434.005 11564.6 434.409 11565.4 435.217C11566.2 436.026 11566.6 437.318 11566.6 439.096V448.173H11564.5V439.121C11564.5 438.012 11564.3 437.181 11563.8 436.626C11563.3 436.072 11562.6 435.795 11561.6 435.795C11560.3 435.795 11559.3 436.172 11558.7 436.925C11558 437.678 11557.7 438.838 11557.7 440.403V448.173H11555.6V439.121C11555.6 438.012 11555.4 437.181 11554.9 436.626C11554.4 436.072 11553.7 435.795 11552.7 435.795C11551.4 435.795 11550.4 436.191 11549.8 436.982Z" fill="#1F1F1F" id="n1363"/>
<path fill-rule="evenodd" clip-rule="evenodd" d="M11573 454.419V448.693C11573 447.965 11573 447.195 11572.9 446.383H11573C11573.6 447.077 11574.2 447.591 11574.9 447.925C11575.7 448.26 11576.5 448.427 11577.4 448.427C11579.2 448.427 11580.6 447.794 11581.7 446.529C11582.7 445.264 11583.2 443.488 11583.2 441.203C11583.2 438.926 11582.7 437.158 11581.7 435.896C11580.7 434.635 11579.3 434.005 11577.4 434.005C11576.5 434.005 11575.7 434.174 11574.9 434.513C11574.2 434.851 11573.6 435.401 11573 436.163H11572.9L11572.7 434.259H11570.9V454.419H11573ZM11574 445.399C11574.7 446.241 11575.7 446.662 11577.2 446.662C11578.4 446.662 11579.3 446.175 11580 445.202C11580.7 444.229 11581 442.887 11581 441.178C11581 439.443 11580.7 438.112 11580 437.185C11579.3 436.258 11578.3 435.795 11577.1 435.795C11575.7 435.795 11574.7 436.188 11574 436.976C11573.4 437.763 11573.1 439.015 11573 440.733V441.203C11573 443.158 11573.4 444.557 11574 445.399Z" fill="#1F1F1F" id="n1364"/>
<path fill-rule="evenodd" clip-rule="evenodd" d="M11590.2 448.427C11591.3 448.427 11592.1 448.272 11592.8 447.963C11593.5 447.654 11594.2 447.064 11594.9 446.192H11595L11595.4 448.173H11597V438.677C11597 437.052 11596.6 435.871 11595.8 435.135C11595 434.398 11593.8 434.03 11592.1 434.03C11591.3 434.03 11590.5 434.136 11589.6 434.348C11588.8 434.559 11588.1 434.851 11587.4 435.224L11588 436.836C11589.5 436.125 11590.8 435.77 11592 435.77C11593 435.77 11593.8 436.03 11594.2 436.55C11594.7 437.071 11594.9 437.877 11594.9 438.969V439.832L11592.6 439.908C11588.1 440.044 11585.8 441.516 11585.8 444.326C11585.8 445.638 11586.2 446.649 11587 447.36C11587.8 448.071 11588.9 448.427 11590.2 448.427ZM11588.7 446.091C11589.2 446.489 11589.8 446.688 11590.7 446.688C11592 446.688 11593 446.328 11593.8 445.608C11594.5 444.889 11594.9 443.882 11594.9 442.587V441.33L11592.8 441.419C11591.1 441.478 11589.9 441.738 11589.1 442.2C11588.4 442.661 11588 443.378 11588 444.352C11588 445.113 11588.3 445.693 11588.7 446.091Z" fill="#1F1F1F" id="n1365"/>
<path d="M11603.4 440.873C11603.4 439.062 11603.8 437.763 11604.5 436.976C11605.1 436.188 11606.2 435.795 11607.7 435.795C11608.8 435.795 11609.6 436.074 11610.1 436.633C11610.6 437.191 11610.9 438.038 11610.9 439.172V448.173H11613V439.096C11613 437.318 11612.5 436.026 11611.7 435.217C11610.8 434.409 11609.6 434.005 11607.9 434.005C11607 434.005 11606.1 434.193 11605.3 434.57C11604.5 434.946 11603.9 435.478 11603.5 436.163H11603.4L11603 434.259H11601.3V448.173H11603.4V440.873Z" fill="#1F1F1F" id="n1366"/>
<path d="M11620.1 453.435C11619.3 454.091 11618.3 454.419 11617.2 454.419C11616.5 454.419 11615.9 454.347 11615.3 454.203V452.515C11615.7 452.616 11616.2 452.667 11616.8 452.667C11618.3 452.667 11619.3 451.854 11619.9 450.229L11620.7 448.249L11615.1 434.259H11617.3L11620.4 442.193C11621.1 444.005 11621.5 445.312 11621.6 446.116H11621.7C11621.8 445.685 11622.1 444.946 11622.4 443.901C11622.8 442.856 11623.9 439.642 11625.9 434.259H11628.1L11622.2 450.103C11621.6 451.668 11620.9 452.779 11620.1 453.435Z" fill="#1F1F1F" id="n1367"/>
</g>
</svg>
