<?xml version='1.0' encoding='utf-8'?>
<svg xmlns="http://www.w3.org/2000/svg" xmlns:xlink="http://www.w3.org/1999/xlink" width="384.0" height="160.0" viewBox="0 0 384.0 160.0" fill="none">
  <defs><clipPath id="clip__asset"><rect x="0" y="0" width="384.0" height="160.0"/></clipPath><mask id="mask100_68_6728" style="mask-type:alpha" maskUnits="userSpaceOnUse" x="8318" y="974" width="512" height="512">
<path d="M8574 1042C8640.71 1042 8699.31 1076.75 8732.68 1129.14C8735.05 1132.87 8733.73 1137.78 8729.9 1139.99L8681.4 1167.99C8677.57 1170.2 8672.7 1168.88 8670.24 1165.22C8649.4 1134.32 8614.07 1114 8574 1114C8533.93 1114 8498.6 1134.32 8477.76 1165.22C8475.29 1168.88 8470.43 1170.2 8466.6 1167.99L8418.1 1139.99C8414.27 1137.78 8412.94 1132.87 8415.32 1129.14C8448.69 1076.75 8507.28 1042 8574 1042Z" fill="white" stroke="black" id="n847"/>
</mask>
<mask id="mask101_68_6728" style="mask-type:luminance" maskUnits="userSpaceOnUse" x="8318" y="974" width="512" height="512">
<path d="M8574 1042C8640.71 1042 8699.31 1076.75 8732.68 1129.14C8735.06 1132.87 8733.73 1137.78 8729.9 1139.99L8716.05 1147.99C8687.69 1098.97 8634.7 1066 8574 1066C8513.3 1066 8460.31 1098.98 8431.95 1147.99L8418.1 1139.99C8414.27 1137.78 8412.94 1132.87 8415.32 1129.14C8448.69 1076.75 8507.28 1042 8574 1042Z" fill="white" stroke="black" id="n851"/>
</mask>
<mask id="mask102_68_6728" style="mask-type:alpha" maskUnits="userSpaceOnUse" x="8318" y="974" width="512" height="512">
<path d="M8574 1046C8675.62 1046 8758 1128.38 8758 1230C8758 1331.62 8675.62 1414 8574 1414C8472.38 1414 8390 1331.62 8390 1230C8390 1128.38 8472.38 1046 8574 1046ZM8574 1070C8485.63 1070 8414 1141.63 8414 1230C8414 1318.37 8485.63 1390 8574 1390C8662.37 1390 8734 1318.37 8734 1230C8734 1141.63 8662.37 1070 8574 1070Z" fill="black" id="n853"/>
</mask>
<mask id="mask103_68_6728" style="mask-type:alpha" maskUnits="userSpaceOnUse" x="8318" y="974" width="512" height="512">
<path d="M8574 1038C8680.04 1038 8766 1123.96 8766 1230C8766 1336.04 8680.04 1422 8574 1422C8467.96 1422 8382 1336.04 8382 1230C8382 1123.96 8467.96 1038 8574 1038ZM8574 1066C8483.43 1066 8410 1139.43 8410 1230C8410 1320.57 8483.43 1394 8574 1394C8664.57 1394 8738 1320.57 8738 1230C8738 1139.43 8664.57 1066 8574 1066Z" fill="black" id="n856"/>
</mask>
<mask id="mask104_68_6728" style="mask-type:alpha" maskUnits="userSpaceOnUse" x="8318" y="974" width="513" height="512">
<path d="M8574 1066C8634.7 1066 8687.69 1098.97 8716.05 1147.99L8681.39 1167.99C8677.58 1170.2 8672.72 1168.88 8670.25 1165.23C8669.93 1164.76 8669.6 1164.29 8669.28 1163.82C8669.24 1163.76 8669.2 1163.71 8669.16 1163.65C8668.88 1163.25 8668.59 1162.84 8668.3 1162.44C8668.26 1162.37 8668.21 1162.31 8668.16 1162.24C8667.86 1161.83 8667.56 1161.42 8667.26 1161C8667.23 1160.97 8667.21 1160.94 8667.18 1160.91C8666.17 1159.54 8665.12 1158.19 8664.05 1156.87C8664.01 1156.83 8663.98 1156.79 8663.95 1156.75C8662.88 1155.44 8661.79 1154.16 8660.67 1152.91C8660.6 1152.82 8660.53 1152.74 8660.46 1152.66C8660.15 1152.32 8659.83 1151.97 8659.52 1151.63C8659.47 1151.57 8659.41 1151.51 8659.35 1151.45C8657.84 1149.8 8656.27 1148.2 8654.66 1146.64C8654.6 1146.58 8654.54 1146.52 8654.49 1146.47C8654.14 1146.13 8653.79 1145.8 8653.44 1145.47C8653.38 1145.42 8653.32 1145.36 8653.26 1145.3C8652.45 1144.54 8651.63 1143.8 8650.79 1143.06C8650.73 1143 8650.67 1142.95 8650.61 1142.9C8650.26 1142.59 8649.92 1142.29 8649.57 1141.99C8649.47 1141.91 8649.37 1141.82 8649.27 1141.74C8648.9 1141.42 8648.53 1141.11 8648.16 1140.8C8648.13 1140.78 8648.1 1140.75 8648.07 1140.73C8647.2 1140 8646.32 1139.29 8645.42 1138.59C8645.37 1138.55 8645.32 1138.51 8645.27 1138.47C8644.89 1138.18 8644.51 1137.89 8644.13 1137.6C8644.04 1137.53 8643.95 1137.46 8643.86 1137.39C8643.5 1137.11 8643.13 1136.84 8642.76 1136.57C8642.68 1136.51 8642.6 1136.45 8642.53 1136.4C8641.19 1135.42 8639.83 1134.47 8638.46 1133.54C8638.35 1133.47 8638.24 1133.4 8638.14 1133.33C8637.76 1133.08 8637.38 1132.83 8637 1132.59C8636.93 1132.54 8636.86 1132.5 8636.79 1132.45C8635.87 1131.85 8634.93 1131.27 8633.99 1130.7C8633.87 1130.62 8633.74 1130.55 8633.62 1130.47C8633.27 1130.27 8632.92 1130.06 8632.57 1129.85C8632.44 1129.78 8632.32 1129.7 8632.19 1129.63C8631.82 1129.42 8631.46 1129.21 8631.09 1129C8630.97 1128.94 8630.86 1128.87 8630.75 1128.81C8629.79 1128.27 8628.82 1127.74 8627.85 1127.23C8627.76 1127.19 8627.68 1127.14 8627.59 1127.1C8627.2 1126.89 8626.8 1126.69 8626.4 1126.49C8626.27 1126.42 8626.13 1126.35 8626 1126.28C8625.63 1126.1 8625.25 1125.91 8624.88 1125.73C8624.77 1125.67 8624.65 1125.62 8624.54 1125.56C8623.55 1125.08 8622.55 1124.62 8621.55 1124.16C8621.43 1124.11 8621.31 1124.06 8621.19 1124C8620.81 1123.83 8620.43 1123.67 8620.05 1123.5C8619.9 1123.44 8619.74 1123.37 8619.59 1123.3C8619.21 1123.14 8618.83 1122.98 8618.45 1122.82C8618.33 1122.77 8618.21 1122.72 8618.09 1122.67C8617.06 1122.25 8616.02 1121.84 8614.97 1121.44C8614.89 1121.42 8614.82 1121.39 8614.74 1121.36C8614.3 1121.19 8613.85 1121.03 8613.41 1120.87C8613.3 1120.83 8613.19 1120.79 8613.08 1120.75C8612.65 1120.6 8612.22 1120.44 8611.78 1120.29C8611.67 1120.26 8611.56 1120.22 8611.45 1120.18C8610.41 1119.82 8609.36 1119.48 8608.3 1119.16C8608.15 1119.11 8608.01 1119.07 8607.86 1119.02C8607.47 1118.9 8607.07 1118.78 8606.67 1118.67C8606.54 1118.63 8606.4 1118.59 8606.27 1118.55C8605.84 1118.43 8605.41 1118.3 8604.98 1118.18C8604.86 1118.15 8604.75 1118.12 8604.63 1118.09C8604.16 1117.96 8603.69 1117.83 8603.21 1117.71C8603.09 1117.68 8602.97 1117.65 8602.84 1117.62C8602.37 1117.5 8601.9 1117.38 8601.43 1117.26C8601.23 1117.21 8601.03 1117.17 8600.83 1117.12C8600.5 1117.04 8600.18 1116.97 8599.86 1116.89C8599.63 1116.84 8599.4 1116.79 8599.17 1116.74C8598.8 1116.66 8598.43 1116.58 8598.05 1116.5C8597.91 1116.47 8597.77 1116.44 8597.63 1116.41C8596.54 1116.18 8595.43 1115.97 8594.32 1115.78C8594.16 1115.75 8594 1115.72 8593.84 1115.69C8593.45 1115.63 8593.06 1115.56 8592.67 1115.5C8592.49 1115.47 8592.3 1115.44 8592.11 1115.41C8591.69 1115.34 8591.27 1115.28 8590.84 1115.21C8590.73 1115.2 8590.61 1115.18 8590.5 1115.17C8589.37 1115.01 8588.24 1114.86 8587.1 1114.73C8586.95 1114.72 8586.8 1114.7 8586.64 1114.68C8586.23 1114.64 8585.82 1114.6 8585.41 1114.56C8585.23 1114.54 8585.04 1114.52 8584.85 1114.5C8584.44 1114.46 8584.03 1114.43 8583.62 1114.4C8583.47 1114.38 8583.31 1114.37 8583.15 1114.36C8582.65 1114.32 8582.14 1114.28 8581.63 1114.25C8581.5 1114.24 8581.38 1114.23 8581.25 1114.22C8580.77 1114.19 8580.29 1114.17 8579.8 1114.14C8579.6 1114.13 8579.4 1114.13 8579.2 1114.12C8578.8 1114.1 8578.4 1114.08 8578 1114.07C8577.82 1114.06 8577.64 1114.06 8577.46 1114.05C8577.08 1114.04 8576.69 1114.03 8576.31 1114.02C8576.1 1114.02 8575.88 1114.02 8575.67 1114.01C8575.12 1114 8574.56 1114 8574 1114C8573.44 1114 8572.88 1114 8572.32 1114.01C8572.11 1114.02 8571.9 1114.02 8571.68 1114.02C8571.3 1114.03 8570.92 1114.04 8570.54 1114.05C8570.35 1114.06 8570.17 1114.06 8569.99 1114.07C8569.6 1114.08 8569.2 1114.1 8568.8 1114.12C8568.6 1114.13 8568.39 1114.13 8568.19 1114.14C8567.72 1114.17 8567.25 1114.19 8566.78 1114.22C8566.63 1114.23 8566.48 1114.24 8566.33 1114.25C8565.84 1114.28 8565.34 1114.32 8564.85 1114.36C8564.69 1114.37 8564.52 1114.38 8564.36 1114.4C8563.95 1114.43 8563.55 1114.46 8563.16 1114.5C8562.96 1114.52 8562.77 1114.54 8562.57 1114.56C8562.17 1114.6 8561.77 1114.64 8561.38 1114.68C8561.21 1114.7 8561.05 1114.72 8560.88 1114.73C8559.75 1114.86 8558.63 1115 8557.51 1115.16C8557.38 1115.18 8557.25 1115.2 8557.12 1115.22C8556.72 1115.28 8556.31 1115.34 8555.9 1115.41C8555.7 1115.44 8555.5 1115.47 8555.3 1115.5C8554.93 1115.56 8554.56 1115.62 8554.19 1115.69C8554.01 1115.72 8553.83 1115.75 8553.66 1115.78C8552.56 1115.97 8551.47 1116.18 8550.38 1116.41C8550.23 1116.44 8550.09 1116.47 8549.94 1116.5C8549.54 1116.58 8549.14 1116.67 8548.73 1116.76C8548.57 1116.8 8548.4 1116.84 8548.23 1116.87C8547.87 1116.95 8547.52 1117.04 8547.16 1117.12C8546.95 1117.17 8546.75 1117.22 8546.55 1117.27C8546.13 1117.37 8545.72 1117.47 8545.31 1117.58C8545.1 1117.63 8544.89 1117.68 8544.68 1117.74C8544.25 1117.85 8543.82 1117.96 8543.39 1118.08C8543.25 1118.12 8543.11 1118.16 8542.97 1118.2C8542.56 1118.31 8542.16 1118.42 8541.76 1118.54C8541.6 1118.59 8541.45 1118.63 8541.29 1118.68C8540.92 1118.78 8540.56 1118.89 8540.2 1119C8540.02 1119.06 8539.85 1119.11 8539.67 1119.16C8538.64 1119.48 8537.6 1119.82 8536.58 1120.17C8536.44 1120.22 8536.3 1120.26 8536.16 1120.31C8535.76 1120.45 8535.36 1120.59 8534.95 1120.74C8534.82 1120.78 8534.69 1120.83 8534.55 1120.88C8534.12 1121.04 8533.69 1121.19 8533.26 1121.36C8533.18 1121.39 8533.11 1121.41 8533.03 1121.44C8531.99 1121.84 8530.95 1122.25 8529.92 1122.67C8529.77 1122.73 8529.62 1122.79 8529.47 1122.85C8529.13 1123 8528.79 1123.14 8528.46 1123.28C8528.27 1123.36 8528.09 1123.44 8527.9 1123.52C8527.57 1123.67 8527.23 1123.82 8526.89 1123.97C8526.73 1124.04 8526.57 1124.11 8526.42 1124.18C8525.42 1124.62 8524.44 1125.09 8523.46 1125.56C8523.35 1125.61 8523.23 1125.67 8523.12 1125.73C8522.74 1125.91 8522.37 1126.1 8522 1126.28C8521.86 1126.35 8521.72 1126.42 8521.59 1126.49C8521.22 1126.68 8520.85 1126.87 8520.48 1127.06C8520.36 1127.12 8520.24 1127.18 8520.12 1127.25C8519.16 1127.75 8518.22 1128.26 8517.29 1128.79C8517.13 1128.87 8516.98 1128.96 8516.83 1129.05C8516.51 1129.23 8516.18 1129.41 8515.87 1129.6C8515.7 1129.69 8515.54 1129.79 8515.37 1129.88C8515.08 1130.06 8514.78 1130.24 8514.48 1130.42C8514.31 1130.52 8514.14 1130.62 8513.97 1130.72C8513.05 1131.28 8512.15 1131.84 8511.25 1132.42C8511.13 1132.5 8511.01 1132.57 8510.9 1132.65C8510.57 1132.86 8510.25 1133.08 8509.92 1133.29C8509.78 1133.39 8509.63 1133.48 8509.49 1133.58C8509.11 1133.83 8508.74 1134.08 8508.37 1134.34C8508.31 1134.38 8508.25 1134.42 8508.18 1134.47C8507.28 1135.09 8506.39 1135.72 8505.51 1136.37C8505.39 1136.46 8505.27 1136.55 8505.14 1136.64C8504.83 1136.87 8504.51 1137.11 8504.2 1137.34C8504.07 1137.44 8503.94 1137.54 8503.81 1137.64C8503.45 1137.91 8503.09 1138.19 8502.74 1138.47C8502.68 1138.51 8502.63 1138.55 8502.57 1138.59C8501.69 1139.28 8500.83 1139.98 8499.97 1140.69C8499.89 1140.76 8499.8 1140.83 8499.72 1140.9C8499.41 1141.16 8499.1 1141.42 8498.8 1141.68C8498.65 1141.8 8498.51 1141.92 8498.37 1142.05C8498.08 1142.29 8497.8 1142.54 8497.51 1142.79C8497.4 1142.89 8497.28 1142.99 8497.16 1143.1C8496.36 1143.81 8495.57 1144.53 8494.78 1145.26C8494.68 1145.36 8494.57 1145.46 8494.47 1145.56C8494.17 1145.84 8493.88 1146.12 8493.58 1146.4C8493.48 1146.5 8493.38 1146.6 8493.28 1146.7C8492.96 1147 8492.66 1147.3 8492.35 1147.61C8492.27 1147.68 8492.19 1147.76 8492.11 1147.84C8491.33 1148.62 8490.56 1149.41 8489.8 1150.21C8489.74 1150.27 8489.69 1150.33 8489.63 1150.39C8489.32 1150.71 8489.02 1151.04 8488.71 1151.38C8488.61 1151.48 8488.51 1151.59 8488.42 1151.7C8488.16 1151.98 8487.9 1152.26 8487.65 1152.54C8487.52 1152.68 8487.4 1152.82 8487.28 1152.96C8486.58 1153.74 8485.9 1154.54 8485.22 1155.34C8485.14 1155.43 8485.06 1155.53 8484.98 1155.62C8484.69 1155.97 8484.4 1156.32 8484.12 1156.67C8484.04 1156.76 8483.96 1156.85 8483.89 1156.95C8483.6 1157.31 8483.31 1157.67 8483.02 1158.03C8482.97 1158.09 8482.92 1158.16 8482.87 1158.22C8482.19 1159.08 8481.52 1159.96 8480.86 1160.84C8480.79 1160.94 8480.72 1161.04 8480.65 1161.13C8480.4 1161.47 8480.15 1161.81 8479.9 1162.15C8479.82 1162.27 8479.73 1162.39 8479.65 1162.51C8479.38 1162.88 8479.11 1163.26 8478.85 1163.64C8478.8 1163.7 8478.76 1163.76 8478.72 1163.82C8478.4 1164.28 8478.08 1164.74 8477.77 1165.2C8477.77 1165.2 8477.77 1165.21 8477.76 1165.21C8475.29 1168.88 8470.43 1170.2 8466.6 1167.99L8431.95 1147.99C8460.31 1098.97 8513.3 1066 8574 1066Z" fill="white" stroke="black" id="n859"/>
</mask>
<clipPath id="clip38_68_6728">
<rect width="23" height="16" fill="white" transform="translate(8536.5 1172)" id="n2817"/>
</clipPath>
<clipPath id="clip39_68_6728">
<rect width="48" height="16" fill="white" transform="translate(8563.5 1172)" id="n2818"/>
</clipPath>
</defs>
  <g clip-path="url(#clip__asset)" transform="translate(-8382.0 -1038.0)"><path d="M8574 1042C8640.71 1042 8699.31 1076.75 8732.68 1129.14C8735.06 1132.87 8733.73 1137.78 8729.9 1139.99L8716.05 1147.99C8687.69 1098.97 8634.7 1066 8574 1066C8513.3 1066 8460.31 1098.98 8431.95 1147.99L8418.1 1139.99C8414.27 1137.78 8412.94 1132.87 8415.32 1129.14C8448.69 1076.75 8507.28 1042 8574 1042Z" fill="white" stroke="white" id="n844"/>
<path d="M8574 1066C8634.7 1066 8687.69 1098.97 8716.05 1147.99L8681.39 1167.99C8677.58 1170.2 8672.72 1168.88 8670.25 1165.23C8669.93 1164.76 8669.6 1164.29 8669.28 1163.82C8669.24 1163.76 8669.2 1163.71 8669.16 1163.65C8668.88 1163.25 8668.59 1162.84 8668.3 1162.44C8668.26 1162.37 8668.21 1162.31 8668.16 1162.24C8667.86 1161.83 8667.56 1161.42 8667.26 1161C8667.23 1160.97 8667.21 1160.94 8667.18 1160.91C8666.17 1159.54 8665.12 1158.19 8664.05 1156.87C8664.01 1156.83 8663.98 1156.79 8663.95 1156.75C8662.88 1155.44 8661.79 1154.16 8660.67 1152.91C8660.6 1152.82 8660.53 1152.74 8660.46 1152.66C8660.15 1152.32 8659.83 1151.97 8659.52 1151.63C8659.47 1151.57 8659.41 1151.51 8659.35 1151.45C8657.84 1149.8 8656.27 1148.2 8654.66 1146.64C8654.6 1146.58 8654.54 1146.52 8654.49 1146.47C8654.14 1146.13 8653.79 1145.8 8653.44 1145.47C8653.38 1145.42 8653.32 1145.36 8653.26 1145.3C8652.45 1144.54 8651.63 1143.8 8650.79 1143.06C8650.73 1143 8650.67 1142.95 8650.61 1142.9C8650.26 1142.59 8649.92 1142.29 8649.57 1141.99C8649.47 1141.91 8649.37 1141.82 8649.27 1141.74C8648.9 1141.42 8648.53 1141.11 8648.16 1140.8C8648.13 1140.78 8648.1 1140.75 8648.07 1140.73C8647.2 1140 8646.32 1139.29 8645.42 1138.59C8645.37 1138.55 8645.32 1138.51 8645.27 1138.47C8644.89 1138.18 8644.51 1137.89 8644.13 1137.6C8644.04 1137.53 8643.95 1137.46 8643.86 1137.39C8643.5 1137.11 8643.13 1136.84 8642.76 1136.57C8642.68 1136.51 8642.6 1136.45 8642.53 1136.4C8641.19 1135.42 8639.83 1134.47 8638.46 1133.54C8638.35 1133.47 8638.24 1133.4 8638.14 1133.33C8637.76 1133.08 8637.38 1132.83 8637 1132.59C8636.93 1132.54 8636.86 1132.5 8636.79 1132.45C8635.87 1131.85 8634.93 1131.27 8633.99 1130.7C8633.87 1130.62 8633.74 1130.55 8633.62 1130.47C8633.27 1130.27 8632.92 1130.06 8632.57 1129.85C8632.44 1129.78 8632.32 1129.7 8632.19 1129.63C8631.82 1129.42 8631.46 1129.21 8631.09 1129C8630.97 1128.94 8630.86 1128.87 8630.75 1128.81C8629.79 1128.27 8628.82 1127.74 8627.85 1127.23C8627.76 1127.19 8627.68 1127.14 8627.59 1127.1C8627.2 1126.89 8626.8 1126.69 8626.4 1126.49C8626.27 1126.42 8626.13 1126.35 8626 1126.28C8625.63 1126.1 8625.25 1125.91 8624.88 1125.73C8624.76 1125.67 8624.65 1125.62 8624.54 1125.56C8623.55 1125.08 8622.55 1124.62 8621.55 1124.16C8621.43 1124.11 8621.31 1124.06 8621.19 1124C8620.81 1123.83 8620.43 1123.67 8620.05 1123.5C8619.9 1123.44 8619.74 1123.37 8619.59 1123.3C8619.21 1123.14 8618.83 1122.98 8618.45 1122.82C8618.33 1122.77 8618.21 1122.72 8618.09 1122.67C8617.06 1122.25 8616.02 1121.84 8614.97 1121.44C8614.89 1121.42 8614.82 1121.39 8614.74 1121.36C8614.3 1121.19 8613.85 1121.03 8613.41 1120.87C8613.3 1120.83 8613.19 1120.79 8613.08 1120.75C8612.65 1120.6 8612.22 1120.44 8611.78 1120.29C8611.67 1120.26 8611.56 1120.22 8611.45 1120.18C8610.41 1119.82 8609.36 1119.48 8608.3 1119.16C8608.15 1119.11 8608.01 1119.07 8607.86 1119.02C8607.47 1118.9 8607.07 1118.78 8606.67 1118.67C8606.54 1118.63 8606.4 1118.59 8606.27 1118.55C8605.84 1118.43 8605.41 1118.3 8604.98 1118.18C8604.86 1118.15 8604.75 1118.12 8604.63 1118.09C8604.16 1117.96 8603.69 1117.83 8603.21 1117.71C8603.09 1117.68 8602.97 1117.65 8602.84 1117.62C8602.37 1117.5 8601.9 1117.38 8601.43 1117.26C8601.23 1117.21 8601.03 1117.17 8600.83 1117.12C8600.5 1117.04 8600.18 1116.97 8599.86 1116.89C8599.63 1116.84 8599.4 1116.79 8599.17 1116.74C8598.8 1116.66 8598.43 1116.58 8598.05 1116.5C8597.91 1116.47 8597.77 1116.44 8597.63 1116.41C8596.54 1116.18 8595.43 1115.97 8594.32 1115.78C8594.16 1115.75 8594 1115.72 8593.84 1115.69C8593.45 1115.63 8593.06 1115.56 8592.67 1115.5C8592.49 1115.47 8592.3 1115.44 8592.11 1115.41C8591.69 1115.34 8591.27 1115.28 8590.84 1115.21C8590.73 1115.2 8590.61 1115.18 8590.5 1115.17C8589.37 1115.01 8588.24 1114.86 8587.1 1114.73C8586.95 1114.72 8586.8 1114.7 8586.64 1114.68C8586.23 1114.64 8585.82 1114.6 8585.41 1114.56C8585.23 1114.54 8585.04 1114.52 8584.85 1114.5C8584.44 1114.46 8584.03 1114.43 8583.62 1114.4C8583.47 1114.38 8583.31 1114.37 8583.15 1114.36C8582.65 1114.32 8582.14 1114.28 8581.63 1114.25C8581.5 1114.24 8581.38 1114.23 8581.25 1114.22C8580.77 1114.19 8580.29 1114.17 8579.8 1114.14C8579.6 1114.13 8579.4 1114.13 8579.2 1114.12C8578.8 1114.1 8578.4 1114.08 8578 1114.07C8577.82 1114.06 8577.64 1114.06 8577.46 1114.05C8577.08 1114.04 8576.69 1114.03 8576.31 1114.02C8576.1 1114.02 8575.88 1114.02 8575.67 1114.01C8575.12 1114 8574.56 1114 8574 1114C8573.44 1114 8572.88 1114 8572.32 1114.01C8572.11 1114.02 8571.9 1114.02 8571.68 1114.02C8571.3 1114.03 8570.92 1114.04 8570.54 1114.05C8570.35 1114.06 8570.17 1114.06 8569.99 1114.07C8569.6 1114.08 8569.2 1114.1 8568.8 1114.12C8568.6 1114.13 8568.39 1114.13 8568.19 1114.14C8567.72 1114.17 8567.25 1114.19 8566.78 1114.22C8566.63 1114.23 8566.48 1114.24 8566.33 1114.25C8565.84 1114.28 8565.34 1114.32 8564.85 1114.36C8564.69 1114.37 8564.52 1114.38 8564.36 1114.4C8563.95 1114.43 8563.55 1114.46 8563.16 1114.5C8562.96 1114.52 8562.77 1114.54 8562.57 1114.56C8562.17 1114.6 8561.77 1114.64 8561.38 1114.68C8561.21 1114.7 8561.05 1114.72 8560.88 1114.73C8559.75 1114.86 8558.63 1115 8557.51 1115.16C8557.38 1115.18 8557.25 1115.2 8557.12 1115.22C8556.72 1115.28 8556.31 1115.34 8555.9 1115.41C8555.7 1115.44 8555.5 1115.47 8555.3 1115.5C8554.93 1115.56 8554.56 1115.62 8554.19 1115.69C8554.01 1115.72 8553.83 1115.75 8553.66 1115.78C8552.56 1115.97 8551.47 1116.18 8550.38 1116.41C8550.23 1116.44 8550.09 1116.47 8549.94 1116.5C8549.54 1116.58 8549.14 1116.67 8548.73 1116.76C8548.57 1116.8 8548.4 1116.84 8548.23 1116.87C8547.87 1116.95 8547.52 1117.04 8547.16 1117.12C8546.95 1117.17 8546.75 1117.22 8546.54 1117.27C8546.13 1117.37 8545.72 1117.47 8545.31 1117.58C8545.1 1117.63 8544.89 1117.68 8544.68 1117.74C8544.25 1117.85 8543.82 1117.96 8543.39 1118.08C8543.25 1118.12 8543.11 1118.16 8542.97 1118.2C8542.56 1118.31 8542.16 1118.42 8541.76 1118.54C8541.6 1118.59 8541.45 1118.63 8541.29 1118.68C8540.92 1118.78 8540.56 1118.89 8540.2 1119C8540.02 1119.06 8539.85 1119.11 8539.67 1119.16C8538.64 1119.48 8537.6 1119.82 8536.58 1120.17C8536.44 1120.22 8536.3 1120.26 8536.16 1120.31C8535.76 1120.45 8535.36 1120.59 8534.95 1120.74C8534.82 1120.78 8534.69 1120.83 8534.55 1120.88C8534.12 1121.04 8533.69 1121.19 8533.26 1121.36C8533.18 1121.39 8533.11 1121.41 8533.03 1121.44C8531.99 1121.84 8530.95 1122.25 8529.92 1122.67C8529.77 1122.73 8529.62 1122.79 8529.47 1122.85C8529.13 1123 8528.79 1123.14 8528.46 1123.28C8528.27 1123.36 8528.09 1123.44 8527.9 1123.52C8527.57 1123.67 8527.23 1123.82 8526.89 1123.97C8526.73 1124.04 8526.57 1124.11 8526.42 1124.18C8525.42 1124.62 8524.44 1125.09 8523.46 1125.56C8523.35 1125.61 8523.23 1125.67 8523.12 1125.73C8522.74 1125.91 8522.37 1126.1 8522 1126.28C8521.86 1126.35 8521.72 1126.42 8521.59 1126.49C8521.22 1126.68 8520.85 1126.87 8520.48 1127.06C8520.36 1127.12 8520.24 1127.18 8520.12 1127.25C8519.16 1127.75 8518.22 1128.26 8517.29 1128.79C8517.13 1128.87 8516.98 1128.96 8516.83 1129.05C8516.5 1129.23 8516.18 1129.41 8515.87 1129.6C8515.7 1129.69 8515.54 1129.79 8515.37 1129.88C8515.07 1130.06 8514.78 1130.24 8514.48 1130.42C8514.31 1130.52 8514.14 1130.62 8513.97 1130.72C8513.05 1131.28 8512.15 1131.84 8511.25 1132.42C8511.13 1132.5 8511.01 1132.57 8510.9 1132.65C8510.57 1132.86 8510.25 1133.08 8509.92 1133.29C8509.78 1133.39 8509.63 1133.48 8509.49 1133.58C8509.11 1133.83 8508.74 1134.08 8508.37 1134.34C8508.31 1134.38 8508.25 1134.42 8508.18 1134.47C8507.28 1135.09 8506.39 1135.72 8505.51 1136.37C8505.39 1136.46 8505.27 1136.55 8505.14 1136.64C8504.83 1136.87 8504.51 1137.11 8504.2 1137.34C8504.07 1137.44 8503.94 1137.54 8503.81 1137.64C8503.45 1137.91 8503.09 1138.19 8502.74 1138.47C8502.68 1138.51 8502.63 1138.55 8502.57 1138.59C8501.69 1139.28 8500.83 1139.98 8499.97 1140.69C8499.89 1140.76 8499.8 1140.83 8499.72 1140.9C8499.41 1141.16 8499.1 1141.42 8498.79 1141.68C8498.65 1141.8 8498.51 1141.92 8498.37 1142.05C8498.08 1142.29 8497.8 1142.54 8497.51 1142.79C8497.4 1142.89 8497.28 1142.99 8497.16 1143.1C8496.36 1143.81 8495.57 1144.53 8494.78 1145.26C8494.68 1145.36 8494.57 1145.46 8494.47 1145.56C8494.17 1145.84 8493.88 1146.12 8493.58 1146.4C8493.48 1146.5 8493.38 1146.6 8493.28 1146.7C8492.96 1147 8492.66 1147.3 8492.35 1147.61C8492.27 1147.68 8492.19 1147.76 8492.11 1147.84C8491.33 1148.62 8490.56 1149.41 8489.8 1150.21C8489.74 1150.27 8489.69 1150.33 8489.63 1150.39C8489.32 1150.71 8489.02 1151.04 8488.71 1151.38C8488.61 1151.48 8488.51 1151.59 8488.42 1151.7C8488.16 1151.98 8487.9 1152.26 8487.65 1152.54C8487.52 1152.68 8487.4 1152.82 8487.28 1152.96C8486.58 1153.74 8485.9 1154.54 8485.22 1155.34C8485.14 1155.43 8485.06 1155.53 8484.98 1155.62C8484.69 1155.97 8484.4 1156.32 8484.12 1156.67C8484.04 1156.76 8483.96 1156.85 8483.89 1156.95C8483.6 1157.31 8483.31 1157.67 8483.02 1158.03C8482.97 1158.09 8482.92 1158.16 8482.87 1158.22C8482.19 1159.08 8481.52 1159.96 8480.86 1160.84C8480.79 1160.94 8480.72 1161.04 8480.65 1161.13C8480.4 1161.47 8480.15 1161.81 8479.9 1162.15C8479.82 1162.27 8479.73 1162.39 8479.65 1162.51C8479.38 1162.88 8479.11 1163.26 8478.85 1163.64C8478.8 1163.7 8478.76 1163.76 8478.72 1163.82C8478.4 1164.28 8478.08 1164.74 8477.77 1165.2C8477.77 1165.2 8477.77 1165.21 8477.76 1165.21C8475.29 1168.88 8470.43 1170.2 8466.6 1167.99L8431.95 1147.99C8460.31 1098.97 8513.3 1066 8574 1066Z" fill="#F0F0F0" stroke="#F0F0F0" id="n845"/>
<path d="M8574 1042C8640.71 1042 8699.31 1076.75 8732.68 1129.14C8735.05 1132.87 8733.73 1137.78 8729.9 1139.99L8681.4 1167.99C8677.57 1170.2 8672.7 1168.88 8670.24 1165.22C8649.4 1134.32 8614.07 1114 8574 1114C8533.93 1114 8498.6 1134.32 8477.76 1165.22C8475.29 1168.88 8470.43 1170.2 8466.6 1167.99L8418.1 1139.99C8414.27 1137.78 8412.94 1132.87 8415.32 1129.14C8448.69 1076.75 8507.28 1042 8574 1042Z" stroke="#BEBEBE" id="n846"/>
<g mask="url(#mask100_68_6728)" id="n848">
<path d="M8318 1230H8830" stroke="#BEBEBE" stroke-linecap="square" id="n849"/>
<path d="M8574 974L8574 1486" stroke="#BEBEBE" stroke-linecap="square" id="n850"/>
</g>
<g mask="url(#mask101_68_6728)" id="n852">
<mask id="mask102_68_6728" style="mask-type:alpha" maskUnits="userSpaceOnUse" x="8318" y="974" width="512" height="512">
<path d="M8574 1046C8675.62 1046 8758 1128.38 8758 1230C8758 1331.62 8675.62 1414 8574 1414C8472.38 1414 8390 1331.62 8390 1230C8390 1128.38 8472.38 1046 8574 1046ZM8574 1070C8485.63 1070 8414 1141.63 8414 1230C8414 1318.37 8485.63 1390 8574 1390C8662.37 1390 8734 1318.37 8734 1230C8734 1141.63 8662.37 1070 8574 1070Z" fill="black" id="n853"/>
</mask>
<g mask="url(#mask102_68_6728)" id="n854">
<path d="M8574 1030V1230M8574 1230L8432.58 1088.58M8574 1230H8374M8574 1230L8432.58 1371.42M8574 1230V1430M8574 1230L8715.42 1371.42M8574 1230H8774M8574 1230L8715.42 1088.58" stroke="#BEBEBE" id="n855"/>
</g>
<mask id="mask103_68_6728" style="mask-type:alpha" maskUnits="userSpaceOnUse" x="8318" y="974" width="512" height="512">
<path d="M8574 1038C8680.04 1038 8766 1123.96 8766 1230C8766 1336.04 8680.04 1422 8574 1422C8467.96 1422 8382 1336.04 8382 1230C8382 1123.96 8467.96 1038 8574 1038ZM8574 1066C8483.43 1066 8410 1139.43 8410 1230C8410 1320.57 8483.43 1394 8574 1394C8664.57 1394 8738 1320.57 8738 1230C8738 1139.43 8664.57 1066 8574 1066Z" fill="black" id="n856"/>
</mask>
<g mask="url(#mask103_68_6728)" id="n857">
<path d="M8574 1030V1230M8574 1230H8374M8574 1230V1430M8574 1230H8774" stroke="#BEBEBE" id="n858"/>
</g>
</g>
<g mask="url(#mask104_68_6728)" id="n860">
<path d="M8574 1066C8619.29 1066 8660.29 1084.36 8689.97 1114.03L8656.02 1147.98C8635.03 1126.98 8606.03 1114 8574 1114V1066Z" fill="#9CC1F5" id="n861"/>
<path d="M8574 1066V1065.5H8573.5V1066H8574ZM8689.97 1114.03L8690.32 1114.39L8690.67 1114.03L8690.32 1113.68L8689.97 1114.03ZM8656.02 1147.98L8655.67 1148.33L8656.02 1148.68L8656.38 1148.33L8656.02 1147.98ZM8574 1114H8573.5V1114.5H8574V1114ZM8574 1066V1066.5C8619.15 1066.5 8660.02 1084.8 8689.61 1114.39L8689.97 1114.03L8690.32 1113.68C8660.55 1083.91 8619.43 1065.5 8574 1065.5V1066ZM8689.97 1114.03L8689.61 1113.68L8655.67 1147.62L8656.02 1147.98L8656.38 1148.33L8690.32 1114.39L8689.97 1114.03ZM8656.02 1147.98L8656.38 1147.62C8635.3 1126.54 8606.17 1113.5 8574 1113.5V1114V1114.5C8605.89 1114.5 8634.77 1127.43 8655.67 1148.33L8656.02 1147.98ZM8574 1114H8574.5V1066H8574H8573.5V1114H8574Z" fill="#9CC1F5" id="n862"/>
<rect x="8687.14" y="1111.21" width="8" height="48" rx="4" transform="rotate(45 8687.14 1111.21)" fill="#2D548B" stroke="#9CC1F5" id="n863"/>
</g>
<path d="M8558.09 1166H8554.01V1150.56C8554.01 1150.04 8554.01 1149.53 8554.01 1149.03C8554.03 1148.51 8554.06 1148 8554.08 1147.5C8554.1 1146.98 8554.12 1146.5 8554.15 1146.04C8553.92 1146.29 8553.64 1146.57 8553.3 1146.89C8552.96 1147.19 8552.6 1147.49 8552.24 1147.81L8549.52 1149.99L8547.48 1147.4L8554.72 1141.72H8558.09V1166ZM8581.98 1166H8565.45V1162.94L8571.68 1156.65C8572.9 1155.4 8573.9 1154.34 8574.67 1153.45C8575.46 1152.55 8576.05 1151.7 8576.44 1150.9C8576.82 1150.11 8577.01 1149.24 8577.01 1148.29C8577.01 1147.15 8576.68 1146.3 8576.03 1145.74C8575.37 1145.15 8574.51 1144.85 8573.44 1144.85C8572.38 1144.85 8571.4 1145.07 8570.52 1145.5C8569.64 1145.91 8568.72 1146.48 8567.77 1147.23L8565.56 1144.55C8566.21 1143.98 8566.93 1143.46 8567.7 1142.98C8568.47 1142.51 8569.33 1142.12 8570.28 1141.83C8571.26 1141.53 8572.37 1141.38 8573.61 1141.38C8575.18 1141.38 8576.51 1141.67 8577.63 1142.23C8578.76 1142.78 8579.63 1143.54 8580.24 1144.51C8580.86 1145.49 8581.16 1146.62 8581.16 1147.91C8581.16 1148.89 8581 1149.8 8580.69 1150.67C8580.39 1151.53 8579.96 1152.37 8579.39 1153.18C8578.85 1153.98 8578.17 1154.8 8577.35 1155.66C8576.54 1156.5 8575.63 1157.4 8574.63 1158.35L8570.59 1162.26V1162.43H8581.98V1166ZM8599.98 1147.27C8599.98 1148.38 8599.77 1149.34 8599.34 1150.16C8598.91 1150.95 8598.3 1151.61 8597.53 1152.13C8596.76 1152.63 8595.87 1152.99 8594.85 1153.22V1153.32C8596.8 1153.54 8598.26 1154.15 8599.23 1155.12C8600.23 1156.09 8600.73 1157.39 8600.73 1159C8600.73 1160.4 8600.39 1161.66 8599.71 1162.77C8599.03 1163.88 8597.99 1164.75 8596.58 1165.39C8595.18 1166.02 8593.37 1166.34 8591.18 1166.34C8589.86 1166.34 8588.64 1166.23 8587.5 1166C8586.39 1165.8 8585.33 1165.47 8584.31 1165.01V1161.41C8585.35 1161.91 8586.45 1162.31 8587.61 1162.6C8588.76 1162.87 8589.86 1163.01 8590.9 1163.01C8592.9 1163.01 8594.32 1162.65 8595.15 1161.92C8595.99 1161.17 8596.41 1160.14 8596.41 1158.83C8596.41 1157.99 8596.2 1157.3 8595.77 1156.75C8595.34 1156.21 8594.66 1155.81 8593.73 1155.56C8592.8 1155.29 8591.6 1155.15 8590.12 1155.15H8588.05V1151.86H8590.16C8591.58 1151.86 8592.71 1151.7 8593.52 1151.38C8594.36 1151.04 8594.96 1150.58 8595.32 1149.99C8595.71 1149.4 8595.9 1148.72 8595.9 1147.95C8595.9 1146.95 8595.57 1146.17 8594.92 1145.6C8594.26 1145.03 8593.28 1144.75 8591.99 1144.75C8591.18 1144.75 8590.43 1144.84 8589.75 1145.02C8589.09 1145.2 8588.48 1145.44 8587.91 1145.74C8587.37 1146.03 8586.85 1146.34 8586.35 1146.65L8584.41 1143.83C8585.02 1143.38 8585.71 1142.97 8586.48 1142.61C8587.25 1142.22 8588.1 1141.93 8589.03 1141.72C8589.99 1141.5 8591.03 1141.38 8592.16 1141.38C8594.68 1141.38 8596.6 1141.92 8597.94 1142.98C8599.3 1144.05 8599.98 1145.48 8599.98 1147.27Z" fill="#2D548B" id="n864"/>
<g clip-path="url(#clip38_68_6728)" id="n865">
<path d="M8539.9 1175.79C8540.62 1175.79 8541.2 1175.88 8541.66 1176.05C8542.13 1176.23 8542.48 1176.5 8542.7 1176.86C8542.93 1177.21 8543.04 1177.66 8543.04 1178.19C8543.04 1178.6 8542.97 1178.94 8542.81 1179.23C8542.67 1179.51 8542.47 1179.74 8542.23 1179.93C8541.99 1180.11 8541.73 1180.26 8541.46 1180.38L8543.8 1184H8542.22L8540.24 1180.73H8538.97V1184H8537.57V1175.79H8539.9ZM8539.81 1176.96H8538.97V1179.57H8539.86C8540.27 1179.57 8540.61 1179.52 8540.86 1179.42C8541.12 1179.32 8541.31 1179.17 8541.43 1178.97C8541.56 1178.78 8541.62 1178.53 8541.62 1178.24C8541.62 1177.93 8541.55 1177.69 8541.42 1177.5C8541.29 1177.31 8541.09 1177.17 8540.82 1177.09C8540.56 1177 8540.23 1176.96 8539.81 1176.96ZM8552.26 1179.88C8552.26 1180.52 8552.18 1181.1 8552.02 1181.62C8551.87 1182.13 8551.63 1182.58 8551.31 1182.95C8550.99 1183.33 8550.59 1183.62 8550.11 1183.82C8549.63 1184.02 8549.06 1184.12 8548.42 1184.12C8547.76 1184.12 8547.19 1184.02 8546.7 1183.82C8546.21 1183.61 8545.81 1183.32 8545.5 1182.95C8545.19 1182.58 8544.95 1182.13 8544.79 1181.61C8544.63 1181.09 8544.56 1180.51 8544.56 1179.87C8544.56 1179.02 8544.69 1178.28 8544.97 1177.65C8545.25 1177.02 8545.68 1176.54 8546.25 1176.19C8546.82 1175.84 8547.55 1175.66 8548.43 1175.66C8549.28 1175.66 8549.99 1175.84 8550.56 1176.19C8551.13 1176.54 8551.55 1177.03 8551.84 1177.66C8552.12 1178.29 8552.26 1179.03 8552.26 1179.88ZM8546.04 1179.88C8546.04 1180.51 8546.12 1181.06 8546.29 1181.52C8546.46 1181.97 8546.72 1182.32 8547.08 1182.56C8547.43 1182.8 8547.88 1182.92 8548.42 1182.92C8548.97 1182.92 8549.42 1182.8 8549.77 1182.56C8550.12 1182.32 8550.38 1181.97 8550.54 1181.52C8550.71 1181.06 8550.79 1180.51 8550.79 1179.88C8550.79 1178.94 8550.6 1178.2 8550.23 1177.66C8549.86 1177.13 8549.26 1176.86 8548.43 1176.86C8547.88 1176.86 8547.43 1176.98 8547.08 1177.23C8546.72 1177.46 8546.46 1177.81 8546.29 1178.26C8546.12 1178.71 8546.04 1179.25 8546.04 1179.88ZM8556.57 1184H8555.17V1176.98H8552.78V1175.79H8558.95V1176.98H8556.57V1184Z" fill="#535353" id="n866"/>
</g>
<g clip-path="url(#clip39_68_6728)" id="n867">
<path d="M8571.12 1179.81C8571.12 1180.73 8570.96 1181.5 8570.62 1182.13C8570.28 1182.75 8569.79 1183.21 8569.16 1183.53C8568.52 1183.84 8567.75 1184 8566.84 1184H8564.63V1175.79H8567.08C8567.92 1175.79 8568.64 1175.94 8569.24 1176.25C8569.84 1176.56 8570.31 1177.01 8570.63 1177.61C8570.96 1178.2 8571.12 1178.93 8571.12 1179.81ZM8570.15 1179.85C8570.15 1179.1 8570.02 1178.5 8569.78 1178.02C8569.53 1177.54 8569.17 1177.18 8568.69 1176.94C8568.21 1176.7 8567.63 1176.58 8566.94 1176.58H8565.55V1183.21H8566.72C8567.86 1183.21 8568.72 1182.93 8569.28 1182.37C8569.86 1181.8 8570.15 1180.96 8570.15 1179.85ZM8577.51 1184H8572.95V1175.79H8577.51V1176.61H8573.87V1179.3H8577.3V1180.1H8573.87V1183.18H8577.51V1184ZM8582.81 1179.71H8585.7V1183.68C8585.26 1183.82 8584.82 1183.93 8584.36 1184C8583.92 1184.08 8583.42 1184.12 8582.86 1184.12C8582.01 1184.12 8581.29 1183.95 8580.7 1183.61C8580.11 1183.27 8579.67 1182.79 8579.36 1182.16C8579.06 1181.52 8578.9 1180.77 8578.9 1179.89C8578.9 1179.04 8579.07 1178.3 8579.41 1177.67C8579.75 1177.05 8580.23 1176.56 8580.86 1176.2C8581.49 1175.85 8582.26 1175.67 8583.15 1175.67C8583.6 1175.67 8584.03 1175.72 8584.43 1175.8C8584.85 1175.88 8585.23 1176 8585.58 1176.16L8585.23 1176.96C8584.92 1176.82 8584.58 1176.71 8584.22 1176.63C8583.85 1176.54 8583.48 1176.49 8583.1 1176.49C8582.43 1176.49 8581.85 1176.63 8581.36 1176.92C8580.88 1177.19 8580.51 1177.59 8580.25 1178.1C8579.99 1178.61 8579.87 1179.2 8579.87 1179.89C8579.87 1180.59 8579.98 1181.2 8580.2 1181.71C8580.43 1182.22 8580.78 1182.61 8581.25 1182.9C8581.72 1183.17 8582.33 1183.31 8583.07 1183.31C8583.32 1183.31 8583.54 1183.3 8583.74 1183.29C8583.94 1183.26 8584.13 1183.23 8584.3 1183.19C8584.46 1183.16 8584.62 1183.12 8584.77 1183.08V1180.54H8582.81V1179.71ZM8590.63 1175.79L8587.57 1184H8586.67L8589.74 1175.79H8590.63ZM8598.38 1177.73C8599.06 1177.73 8599.56 1177.91 8599.9 1178.26C8600.24 1178.61 8600.42 1179.18 8600.42 1179.96V1184H8599.53V1180.01C8599.53 1179.5 8599.42 1179.13 8599.2 1178.88C8598.98 1178.63 8598.66 1178.5 8598.23 1178.5C8597.64 1178.5 8597.21 1178.68 8596.93 1179.02C8596.66 1179.36 8596.52 1179.87 8596.52 1180.55V1184H8595.63V1180.01C8595.63 1179.67 8595.58 1179.39 8595.48 1179.17C8595.38 1178.94 8595.24 1178.77 8595.05 1178.66C8594.85 1178.56 8594.62 1178.5 8594.33 1178.5C8593.93 1178.5 8593.6 1178.59 8593.34 1178.76C8593.1 1178.92 8592.92 1179.17 8592.8 1179.5C8592.69 1179.83 8592.63 1180.23 8592.63 1180.72V1184H8591.73V1177.85H8592.46L8592.6 1178.73H8592.64C8592.77 1178.52 8592.93 1178.34 8593.1 1178.19C8593.29 1178.04 8593.49 1177.92 8593.72 1177.85C8593.96 1177.77 8594.21 1177.73 8594.48 1177.73C8594.95 1177.73 8595.34 1177.82 8595.66 1178C8595.97 1178.17 8596.2 1178.44 8596.35 1178.8H8596.39C8596.59 1178.45 8596.87 1178.18 8597.22 1178.01C8597.57 1177.82 8597.96 1177.73 8598.38 1177.73ZM8603.24 1177.85V1184H8602.35V1177.85H8603.24ZM8602.81 1175.55C8602.96 1175.55 8603.09 1175.6 8603.19 1175.7C8603.29 1175.8 8603.35 1175.95 8603.35 1176.16C8603.35 1176.35 8603.29 1176.5 8603.19 1176.61C8603.09 1176.71 8602.96 1176.75 8602.81 1176.75C8602.65 1176.75 8602.51 1176.71 8602.4 1176.61C8602.3 1176.5 8602.25 1176.35 8602.25 1176.16C8602.25 1175.95 8602.3 1175.8 8602.4 1175.7C8602.51 1175.6 8602.65 1175.55 8602.81 1175.55ZM8608.12 1177.73C8608.84 1177.73 8609.39 1177.91 8609.76 1178.27C8610.14 1178.63 8610.33 1179.2 8610.33 1179.99V1184H8609.43V1180.06C8609.43 1179.53 8609.31 1179.14 8609.07 1178.88C8608.84 1178.63 8608.48 1178.5 8607.99 1178.5C8607.31 1178.5 8606.83 1178.69 8606.54 1179.08C8606.26 1179.46 8606.12 1180.02 8606.12 1180.76V1184H8605.22V1177.85H8605.95L8606.08 1178.76H8606.13C8606.27 1178.53 8606.44 1178.35 8606.64 1178.2C8606.84 1178.05 8607.06 1177.94 8607.31 1177.86C8607.57 1177.77 8607.84 1177.73 8608.12 1177.73Z" fill="#535353" id="n868"/>
</g>
</g>
</svg>
