<?xml version='1.0' encoding='utf-8'?>
<svg xmlns="http://www.w3.org/2000/svg" xmlns:xlink="http://www.w3.org/1999/xlink" width="384.0" height="384.0" viewBox="0 0 384.0 384.0" fill="none">
  <defs><clipPath id="clip__asset"><rect x="0" y="0" width="384.0" height="384.0"/></clipPath><mask id="mask22_68_6728" style="mask-type:luminance" maskUnits="userSpaceOnUse" x="184" y="1368" width="512" height="512">
<path d="M440 1436C543.83 1436 628 1520.17 628 1624C628 1673.04 609.226 1717.69 578.473 1751.16C575.483 1754.42 570.404 1754.4 567.279 1751.28L555.966 1739.97C585.644 1710.29 604 1669.29 604 1624C604 1533.43 530.575 1460 440 1460C349.425 1460 276 1533.43 276 1624C276 1669.29 294.356 1710.29 324.034 1739.97L312.721 1751.28C309.597 1754.4 304.517 1754.42 301.527 1751.16C270.774 1717.69 252 1673.04 252 1624C252 1520.17 336.17 1436 440 1436Z" fill="white" stroke="black" id="n105"/>
</mask>
<mask id="mask23_68_6728" style="mask-type:alpha" maskUnits="userSpaceOnUse" x="184" y="1368" width="512" height="512">
<path d="M440 1448C537.202 1448 616 1526.8 616 1624C616 1721.2 537.202 1800 440 1800C342.798 1800 264 1721.2 264 1624C264 1526.8 342.798 1448 440 1448ZM440 1456C347.216 1456 272 1531.22 272 1624C272 1716.78 347.216 1792 440 1792C532.784 1792 608 1716.78 608 1624C608 1531.22 532.784 1456 440 1456Z" fill="black" id="n107"/>
</mask>
<mask id="mask24_68_6728" style="mask-type:alpha" maskUnits="userSpaceOnUse" x="184" y="1368" width="512" height="512">
<path d="M440 1432C546.039 1432 632 1517.96 632 1624C632 1730.04 546.039 1816 440 1816C333.961 1816 248 1730.04 248 1624C248 1517.96 333.961 1432 440 1432ZM440 1456C347.216 1456 272 1531.22 272 1624C272 1716.78 347.216 1792 440 1792C532.784 1792 608 1716.78 608 1624C608 1531.22 532.784 1456 440 1456Z" fill="black" id="n110"/>
</mask>
<mask id="mask25_68_6728" style="mask-type:alpha" maskUnits="userSpaceOnUse" x="184" y="1368" width="512" height="512">
<path d="M440 1432C546.039 1432 632 1517.96 632 1624C632 1730.04 546.039 1816 440 1816C333.961 1816 248 1730.04 248 1624C248 1517.96 333.961 1432 440 1432ZM440 1460C349.425 1460 276 1533.43 276 1624C276 1714.57 349.425 1788 440 1788C530.575 1788 604 1714.57 604 1624C604 1533.43 530.575 1460 440 1460Z" fill="black" id="n113"/>
</mask>
</defs>
  <g clip-path="url(#clip__asset)" transform="translate(-248.0 -1432.0)"><path d="M440 1436C543.83 1436 628 1520.17 628 1624C628 1673.04 609.226 1717.69 578.473 1751.16C575.483 1754.42 570.404 1754.4 567.279 1751.28L561.623 1745.62C558.499 1742.5 558.514 1737.45 561.483 1734.17C562.759 1732.77 564.01 1731.34 565.237 1729.89C565.37 1729.73 565.502 1729.57 565.634 1729.42C565.896 1729.1 566.157 1728.79 566.417 1728.48C566.641 1728.21 566.864 1727.93 567.087 1727.66C567.275 1727.43 567.463 1727.2 567.65 1726.97C567.823 1726.76 567.993 1726.54 568.165 1726.33C568.385 1726.05 568.605 1725.78 568.823 1725.5C569.012 1725.26 569.199 1725.02 569.386 1724.78C569.594 1724.51 569.801 1724.25 570.007 1723.98C570.185 1723.75 570.362 1723.52 570.539 1723.29C570.756 1723 570.973 1722.71 571.188 1722.43C571.34 1722.23 571.49 1722.02 571.641 1721.82C571.887 1721.49 572.132 1721.16 572.376 1720.83C572.515 1720.64 572.655 1720.45 572.793 1720.26C573.018 1719.95 573.24 1719.64 573.463 1719.33C573.612 1719.12 573.762 1718.91 573.91 1718.7C574.142 1718.37 574.372 1718.04 574.602 1717.71C574.74 1717.52 574.879 1717.32 575.017 1717.12C575.256 1716.77 575.492 1716.42 575.729 1716.08C575.855 1715.89 575.983 1715.71 576.108 1715.52C576.349 1715.16 576.587 1714.8 576.824 1714.44C576.937 1714.27 577.049 1714.11 577.161 1713.94C577.413 1713.55 577.661 1713.17 577.909 1712.78C578.006 1712.63 578.105 1712.48 578.201 1712.33C579.24 1710.71 580.251 1709.07 581.233 1707.41C581.329 1707.25 581.423 1707.09 581.519 1706.92C581.76 1706.51 582.002 1706.1 582.24 1705.68C582.345 1705.5 582.449 1705.32 582.554 1705.13C582.764 1704.77 582.975 1704.4 583.183 1704.02C583.266 1703.88 583.347 1703.73 583.43 1703.58C583.668 1703.15 583.907 1702.72 584.142 1702.29C584.214 1702.15 584.285 1702.02 584.357 1701.89C584.587 1701.46 584.816 1701.04 585.042 1700.61C585.139 1700.43 585.235 1700.24 585.332 1700.06C585.527 1699.69 585.722 1699.31 585.914 1698.94C586.025 1698.72 586.136 1698.51 586.246 1698.29C586.424 1697.94 586.602 1697.59 586.777 1697.24C586.902 1696.99 587.027 1696.74 587.15 1696.49C587.302 1696.18 587.452 1695.87 587.602 1695.56C587.737 1695.28 587.872 1695 588.006 1694.72C588.159 1694.4 588.311 1694.08 588.462 1693.76C588.573 1693.53 588.684 1693.29 588.794 1693.05C588.968 1692.68 589.14 1692.3 589.312 1691.93C589.411 1691.71 589.512 1691.49 589.61 1691.27C589.777 1690.9 589.941 1690.53 590.104 1690.16C590.201 1689.94 590.298 1689.72 590.394 1689.5C590.559 1689.13 590.722 1688.75 590.885 1688.36C590.979 1688.14 591.075 1687.92 591.168 1687.7C591.347 1687.28 591.523 1686.85 591.698 1686.42C591.766 1686.26 591.834 1686.1 591.901 1685.93C592.635 1684.13 593.339 1682.32 594.01 1680.49C594.1 1680.24 594.188 1680 594.277 1679.75C594.412 1679.38 594.547 1679.01 594.679 1678.63C594.759 1678.41 594.836 1678.18 594.915 1677.95C595.054 1677.55 595.193 1677.15 595.329 1676.75C595.397 1676.55 595.465 1676.35 595.532 1676.15C595.669 1675.74 595.805 1675.33 595.938 1674.92C596.024 1674.66 596.108 1674.4 596.192 1674.13C596.304 1673.78 596.416 1673.44 596.525 1673.08C596.608 1672.82 596.689 1672.56 596.77 1672.3C596.889 1671.91 597.008 1671.52 597.125 1671.13C597.191 1670.91 597.255 1670.69 597.319 1670.47C597.439 1670.07 597.557 1669.66 597.674 1669.25C597.741 1669.02 597.808 1668.79 597.874 1668.55C597.987 1668.15 598.099 1667.75 598.209 1667.34C598.273 1667.11 598.338 1666.87 598.401 1666.63C598.506 1666.25 598.608 1665.86 598.71 1665.47C598.775 1665.22 598.84 1664.97 598.903 1664.72C599.008 1664.31 599.11 1663.9 599.211 1663.49C599.269 1663.26 599.327 1663.02 599.384 1662.79C599.468 1662.44 599.55 1662.1 599.632 1661.75C599.707 1661.43 599.782 1661.11 599.855 1660.79C599.941 1660.42 600.024 1660.04 600.106 1659.67C600.16 1659.43 600.214 1659.19 600.267 1658.95C600.831 1656.35 601.336 1653.72 601.775 1651.08C601.817 1650.83 601.854 1650.58 601.895 1650.33C601.957 1649.94 602.02 1649.55 602.08 1649.16C602.131 1648.83 602.179 1648.5 602.229 1648.16C602.274 1647.85 602.321 1647.54 602.365 1647.23C602.421 1646.84 602.475 1646.44 602.528 1646.05C602.565 1645.78 602.601 1645.5 602.636 1645.23C602.681 1644.89 602.723 1644.54 602.766 1644.19C602.805 1643.87 602.845 1643.55 602.883 1643.22C602.918 1642.92 602.952 1642.62 602.986 1642.31C603.03 1641.92 603.073 1641.53 603.113 1641.13C603.142 1640.86 603.169 1640.58 603.196 1640.31C603.233 1639.94 603.268 1639.56 603.303 1639.19C603.332 1638.87 603.36 1638.56 603.388 1638.24C603.419 1637.88 603.449 1637.51 603.478 1637.15C603.501 1636.85 603.524 1636.55 603.546 1636.26C603.575 1635.87 603.602 1635.48 603.628 1635.09C603.647 1634.81 603.665 1634.53 603.683 1634.25C603.708 1633.83 603.731 1633.41 603.754 1632.99C603.768 1632.73 603.783 1632.47 603.796 1632.2C603.815 1631.82 603.831 1631.43 603.848 1631.04C603.86 1630.74 603.875 1630.44 603.886 1630.13C603.901 1629.71 603.914 1629.28 603.927 1628.85C603.934 1628.61 603.942 1628.37 603.948 1628.13C603.962 1627.58 603.971 1627.03 603.979 1626.48C603.981 1626.35 603.985 1626.21 603.986 1626.08C603.995 1625.39 604 1624.69 604 1624C604 1533.43 530.575 1460 440 1460C349.425 1460 276 1533.43 276 1624C276 1624.69 276.004 1625.39 276.013 1626.08C276.014 1626.21 276.019 1626.35 276.021 1626.48C276.029 1627.03 276.037 1627.58 276.051 1628.13C276.057 1628.37 276.065 1628.61 276.072 1628.85C276.085 1629.28 276.098 1629.71 276.113 1630.13C276.124 1630.44 276.139 1630.74 276.151 1631.04C276.168 1631.43 276.184 1631.82 276.203 1632.2C276.216 1632.47 276.231 1632.73 276.245 1632.99C276.268 1633.41 276.291 1633.83 276.316 1634.25C276.334 1634.53 276.352 1634.81 276.371 1635.09C276.397 1635.48 276.424 1635.87 276.453 1636.26C276.475 1636.55 276.498 1636.85 276.521 1637.15C276.55 1637.51 276.58 1637.88 276.611 1638.24C276.639 1638.56 276.667 1638.87 276.696 1639.19C276.731 1639.56 276.766 1639.94 276.803 1640.31C276.83 1640.58 276.857 1640.86 276.886 1641.13C276.927 1641.53 276.969 1641.92 277.013 1642.31C277.047 1642.62 277.081 1642.92 277.116 1643.22C277.154 1643.55 277.194 1643.87 277.233 1644.19C277.276 1644.54 277.318 1644.89 277.363 1645.23C277.398 1645.5 277.435 1645.78 277.472 1646.05C277.525 1646.44 277.578 1646.84 277.634 1647.23C277.678 1647.54 277.725 1647.85 277.771 1648.16C277.82 1648.5 277.868 1648.83 277.919 1649.16C277.979 1649.55 278.042 1649.94 278.104 1650.33C278.145 1650.58 278.183 1650.83 278.225 1651.08C278.664 1653.72 279.168 1656.35 279.732 1658.95C279.785 1659.19 279.839 1659.43 279.893 1659.67C279.975 1660.04 280.058 1660.42 280.144 1660.79C280.217 1661.11 280.292 1661.43 280.367 1661.75C280.449 1662.1 280.531 1662.44 280.615 1662.79C280.672 1663.02 280.73 1663.26 280.788 1663.49C280.889 1663.9 280.991 1664.31 281.096 1664.72C281.159 1664.97 281.224 1665.22 281.289 1665.47C281.391 1665.86 281.493 1666.25 281.598 1666.63C281.661 1666.87 281.726 1667.11 281.79 1667.34C281.9 1667.75 282.012 1668.15 282.125 1668.55C282.191 1668.79 282.258 1669.02 282.325 1669.25C282.442 1669.66 282.56 1670.07 282.68 1670.47C282.744 1670.69 282.808 1670.91 282.874 1671.13C282.991 1671.52 283.11 1671.91 283.229 1672.3C283.31 1672.56 283.391 1672.82 283.474 1673.08C283.583 1673.44 283.695 1673.78 283.807 1674.13C283.891 1674.4 283.975 1674.66 284.061 1674.92C284.194 1675.33 284.33 1675.74 284.467 1676.15C284.534 1676.35 284.602 1676.55 284.67 1676.75C284.806 1677.15 284.945 1677.55 285.084 1677.95C285.163 1678.18 285.24 1678.41 285.32 1678.63C285.452 1679.01 285.587 1679.38 285.722 1679.75C285.811 1680 285.899 1680.24 285.989 1680.49C286.66 1682.32 287.364 1684.13 288.098 1685.93C288.165 1686.1 288.233 1686.26 288.301 1686.42C288.476 1686.85 288.652 1687.28 288.831 1687.7C288.924 1687.92 289.02 1688.14 289.114 1688.36C289.277 1688.75 289.44 1689.13 289.605 1689.5C289.701 1689.72 289.798 1689.94 289.895 1690.16C290.058 1690.53 290.222 1690.9 290.389 1691.27C290.487 1691.49 290.588 1691.71 290.688 1691.93C290.859 1692.3 291.031 1692.68 291.205 1693.05C291.315 1693.29 291.426 1693.53 291.537 1693.76C291.688 1694.08 291.84 1694.4 291.993 1694.72C292.127 1695 292.262 1695.28 292.397 1695.56C292.547 1695.87 292.697 1696.18 292.849 1696.49C292.972 1696.74 293.097 1696.99 293.222 1697.24C293.397 1697.59 293.575 1697.94 293.753 1698.29C293.863 1698.51 293.974 1698.72 294.085 1698.94C294.277 1699.31 294.472 1699.69 294.667 1700.06C294.764 1700.24 294.86 1700.43 294.957 1700.61C295.183 1701.04 295.412 1701.46 295.642 1701.89C295.714 1702.02 295.785 1702.15 295.857 1702.29C296.092 1702.72 296.331 1703.15 296.569 1703.58C296.652 1703.73 296.733 1703.88 296.816 1704.02C297.024 1704.4 297.236 1704.77 297.446 1705.13C297.551 1705.32 297.654 1705.5 297.759 1705.68C297.997 1706.1 298.239 1706.51 298.48 1706.92C298.576 1707.09 298.67 1707.25 298.766 1707.41C299.748 1709.07 300.759 1710.71 301.798 1712.33C301.894 1712.48 301.993 1712.63 302.09 1712.78C302.338 1713.17 302.586 1713.55 302.838 1713.94C302.95 1714.11 303.062 1714.27 303.175 1714.44C303.413 1714.8 303.651 1715.16 303.892 1715.52C304.017 1715.71 304.144 1715.89 304.271 1716.08C304.507 1716.42 304.743 1716.77 304.982 1717.12C305.12 1717.32 305.259 1717.52 305.397 1717.71C305.627 1718.04 305.857 1718.37 306.089 1718.7C306.237 1718.91 306.387 1719.12 306.536 1719.33C306.759 1719.64 306.981 1719.95 307.206 1720.26C307.344 1720.45 307.484 1720.64 307.623 1720.83C307.867 1721.16 308.112 1721.49 308.358 1721.82C308.509 1722.02 308.659 1722.23 308.811 1722.43C309.026 1722.71 309.243 1723 309.46 1723.29C309.637 1723.52 309.814 1723.75 309.992 1723.98C310.198 1724.25 310.406 1724.51 310.613 1724.78C310.8 1725.02 310.987 1725.26 311.176 1725.5C311.394 1725.78 311.614 1726.05 311.834 1726.33C312.006 1726.54 312.176 1726.76 312.349 1726.97C312.536 1727.2 312.725 1727.43 312.913 1727.66C313.136 1727.93 313.358 1728.21 313.582 1728.48C313.842 1728.79 314.103 1729.1 314.365 1729.42C314.498 1729.57 314.629 1729.73 314.762 1729.89C315.989 1731.34 317.241 1732.77 318.517 1734.17C321.486 1737.45 321.501 1742.5 318.377 1745.62L312.721 1751.28C309.597 1754.4 304.517 1754.42 301.527 1751.16C270.774 1717.69 252 1673.04 252 1624C252 1520.17 336.17 1436 440 1436Z" fill="white" id="n103"/>
<path d="M440 1436C543.83 1436 628 1520.17 628 1624C628 1673.04 609.226 1717.69 578.472 1751.16C575.483 1754.42 570.404 1754.4 567.28 1751.28L561.623 1745.62C558.498 1742.5 558.514 1737.45 561.483 1734.17C587.902 1705.06 604 1666.41 604 1624C604 1533.43 530.575 1460 440 1460C349.425 1460 276 1533.43 276 1624C276 1666.41 292.098 1705.06 318.517 1734.17C321.486 1737.45 321.502 1742.5 318.377 1745.62L312.72 1751.28C309.596 1754.4 304.517 1754.42 301.528 1751.16C270.774 1717.69 252 1673.04 252 1624C252 1520.17 336.17 1436 440 1436Z" stroke="#BEBEBE" id="n104"/>
<g mask="url(#mask22_68_6728)" id="n106">
<mask id="mask23_68_6728" style="mask-type:alpha" maskUnits="userSpaceOnUse" x="184" y="1368" width="512" height="512">
<path d="M440 1448C537.202 1448 616 1526.8 616 1624C616 1721.2 537.202 1800 440 1800C342.798 1800 264 1721.2 264 1624C264 1526.8 342.798 1448 440 1448ZM440 1456C347.216 1456 272 1531.22 272 1624C272 1716.78 347.216 1792 440 1792C532.784 1792 608 1716.78 608 1624C608 1531.22 532.784 1456 440 1456Z" fill="black" id="n107"/>
</mask>
<g mask="url(#mask23_68_6728)" id="n108">
<path d="M440.001 1424L440.001 1624M440.001 1624L349.202 1445.8M440.001 1624L278.197 1506.44M440.001 1624L242.463 1592.71M440.001 1624L249.789 1685.8M440.001 1624L298.579 1765.42M440.001 1624L530.798 1445.8M440.001 1624L601.804 1506.44M440.001 1624L637.538 1592.71M440.001 1624L630.212 1685.8M440.001 1624L581.422 1765.42" stroke="#BEBEBE" id="n109"/>
</g>
<mask id="mask24_68_6728" style="mask-type:alpha" maskUnits="userSpaceOnUse" x="184" y="1368" width="512" height="512">
<path d="M440 1432C546.039 1432 632 1517.96 632 1624C632 1730.04 546.039 1816 440 1816C333.961 1816 248 1730.04 248 1624C248 1517.96 333.961 1432 440 1432ZM440 1456C347.216 1456 272 1531.22 272 1624C272 1716.78 347.216 1792 440 1792C532.784 1792 608 1716.78 608 1624C608 1531.22 532.784 1456 440 1456Z" fill="black" id="n110"/>
</mask>
<g mask="url(#mask24_68_6728)" id="n111">
<path d="M440.001 1424L440.001 1624M440.001 1624L298.579 1765.42M440.001 1624L581.422 1765.42" stroke="#BEBEBE" id="n112"/>
</g>
<mask id="mask25_68_6728" style="mask-type:alpha" maskUnits="userSpaceOnUse" x="184" y="1368" width="512" height="512">
<path d="M440 1432C546.039 1432 632 1517.96 632 1624C632 1730.04 546.039 1816 440 1816C333.961 1816 248 1730.04 248 1624C248 1517.96 333.961 1432 440 1432ZM440 1460C349.425 1460 276 1533.43 276 1624C276 1714.57 349.425 1788 440 1788C530.575 1788 604 1714.57 604 1624C604 1533.43 530.575 1460 440 1460Z" fill="black" id="n113"/>
</mask>
<g mask="url(#mask25_68_6728)" id="n114">
<path d="M440 1424V1624" stroke="#BEBEBE" id="n115"/>
</g>
</g>
<path d="M326.318 1756.7C326.318 1757.4 326.262 1758.02 326.15 1758.58C326.046 1759.12 325.882 1759.58 325.658 1759.96C325.434 1760.33 325.142 1760.62 324.782 1760.82C324.422 1761.02 323.99 1761.12 323.486 1761.12C322.862 1761.12 322.338 1760.95 321.914 1760.6C321.498 1760.25 321.186 1759.75 320.978 1759.09C320.778 1758.43 320.678 1757.63 320.678 1756.7C320.678 1755.79 320.77 1755.01 320.954 1754.35C321.138 1753.69 321.438 1753.18 321.854 1752.83C322.27 1752.48 322.814 1752.3 323.486 1752.3C324.134 1752.3 324.666 1752.48 325.082 1752.83C325.498 1753.18 325.806 1753.68 326.006 1754.34C326.214 1755 326.318 1755.78 326.318 1756.7ZM321.626 1756.7C321.626 1757.51 321.686 1758.18 321.806 1758.72C321.934 1759.25 322.134 1759.65 322.406 1759.92C322.678 1760.18 323.038 1760.32 323.486 1760.32C323.934 1760.32 324.294 1760.18 324.566 1759.92C324.838 1759.66 325.038 1759.26 325.166 1758.72C325.294 1758.18 325.358 1757.51 325.358 1756.7C325.358 1755.91 325.294 1755.25 325.166 1754.72C325.046 1754.19 324.85 1753.78 324.578 1753.51C324.314 1753.24 323.95 1753.1 323.486 1753.1C323.03 1753.1 322.666 1753.24 322.394 1753.52C322.122 1753.8 321.926 1754.2 321.806 1754.74C321.686 1755.26 321.626 1755.92 321.626 1756.7Z" fill="#707070" id="n116"/>
<path d="M543.598 1761H542.674V1754.89C542.674 1754.66 542.674 1754.46 542.674 1754.3C542.682 1754.14 542.686 1754 542.686 1753.86C542.694 1753.72 542.702 1753.57 542.71 1753.43C542.59 1753.55 542.478 1753.65 542.374 1753.74C542.27 1753.82 542.142 1753.93 541.99 1754.06L540.982 1754.86L540.49 1754.22L542.806 1752.43H543.598V1761ZM552.518 1756.7C552.518 1757.4 552.462 1758.02 552.35 1758.58C552.246 1759.12 552.082 1759.58 551.858 1759.96C551.634 1760.33 551.342 1760.62 550.982 1760.82C550.622 1761.02 550.19 1761.12 549.686 1761.12C549.062 1761.12 548.538 1760.95 548.114 1760.6C547.698 1760.25 547.386 1759.75 547.178 1759.09C546.978 1758.43 546.878 1757.63 546.878 1756.7C546.878 1755.79 546.97 1755.01 547.154 1754.35C547.338 1753.69 547.638 1753.18 548.054 1752.83C548.47 1752.48 549.014 1752.3 549.686 1752.3C550.334 1752.3 550.866 1752.48 551.282 1752.83C551.698 1753.18 552.006 1753.68 552.206 1754.34C552.414 1755 552.518 1755.78 552.518 1756.7ZM547.826 1756.7C547.826 1757.51 547.886 1758.18 548.006 1758.72C548.134 1759.25 548.334 1759.65 548.606 1759.92C548.878 1760.18 549.238 1760.32 549.686 1760.32C550.134 1760.32 550.494 1760.18 550.766 1759.92C551.038 1759.66 551.238 1759.26 551.366 1758.72C551.494 1758.18 551.558 1757.51 551.558 1756.7C551.558 1755.91 551.494 1755.25 551.366 1754.72C551.246 1754.19 551.05 1753.78 550.778 1753.51C550.514 1753.24 550.15 1753.1 549.686 1753.1C549.23 1753.1 548.866 1753.24 548.594 1753.52C548.322 1753.8 548.126 1754.2 548.006 1754.74C547.886 1755.26 547.826 1755.92 547.826 1756.7ZM559.385 1756.7C559.385 1757.4 559.329 1758.02 559.217 1758.58C559.113 1759.12 558.949 1759.58 558.725 1759.96C558.501 1760.33 558.209 1760.62 557.849 1760.82C557.489 1761.02 557.057 1761.12 556.553 1761.12C555.929 1761.12 555.405 1760.95 554.981 1760.6C554.565 1760.25 554.253 1759.75 554.045 1759.09C553.845 1758.43 553.745 1757.63 553.745 1756.7C553.745 1755.79 553.837 1755.01 554.021 1754.35C554.205 1753.69 554.505 1753.18 554.921 1752.83C555.337 1752.48 555.881 1752.3 556.553 1752.3C557.201 1752.3 557.733 1752.48 558.149 1752.83C558.565 1753.18 558.873 1753.68 559.073 1754.34C559.281 1755 559.385 1755.78 559.385 1756.7ZM554.693 1756.7C554.693 1757.51 554.753 1758.18 554.873 1758.72C555.001 1759.25 555.201 1759.65 555.473 1759.92C555.745 1760.18 556.105 1760.32 556.553 1760.32C557.001 1760.32 557.361 1760.18 557.633 1759.92C557.905 1759.66 558.105 1759.26 558.233 1758.72C558.361 1758.18 558.425 1757.51 558.425 1756.7C558.425 1755.91 558.361 1755.25 558.233 1754.72C558.113 1754.19 557.917 1753.78 557.645 1753.51C557.381 1753.24 557.017 1753.1 556.553 1753.1C556.097 1753.1 555.733 1753.24 555.461 1753.52C555.189 1753.8 554.993 1754.2 554.873 1754.74C554.753 1755.26 554.693 1755.92 554.693 1756.7Z" fill="#707070" id="n117"/>
<path d="M425.219 1721H421.139V1705.56C421.139 1705.04 421.139 1704.53 421.139 1704.03C421.162 1703.51 421.184 1703 421.207 1702.5C421.23 1701.98 421.252 1701.5 421.275 1701.04C421.048 1701.29 420.765 1701.57 420.425 1701.89C420.085 1702.19 419.734 1702.49 419.371 1702.81L416.651 1704.99L414.611 1702.4L421.853 1696.72H425.219V1721ZM449.106 1721H432.582V1717.94L438.804 1711.65C440.028 1710.4 441.025 1709.34 441.796 1708.45C442.589 1707.55 443.179 1706.7 443.564 1705.9C443.949 1705.11 444.142 1704.24 444.142 1703.29C444.142 1702.15 443.813 1701.3 443.156 1700.74C442.499 1700.15 441.637 1699.85 440.572 1699.85C439.507 1699.85 438.532 1700.07 437.648 1700.5C436.764 1700.91 435.846 1701.48 434.894 1702.23L432.684 1699.55C433.341 1698.98 434.055 1698.46 434.826 1697.98C435.597 1697.51 436.458 1697.12 437.41 1696.83C438.385 1696.53 439.495 1696.38 440.742 1696.38C442.306 1696.38 443.643 1696.67 444.754 1697.23C445.887 1697.78 446.76 1698.54 447.372 1699.51C447.984 1700.49 448.29 1701.62 448.29 1702.91C448.29 1703.89 448.131 1704.8 447.814 1705.67C447.519 1706.53 447.089 1707.37 446.522 1708.18C445.978 1708.98 445.298 1709.8 444.482 1710.66C443.666 1711.5 442.759 1712.4 441.762 1713.35L437.716 1717.26V1717.43H449.106V1721ZM467.111 1702.27C467.111 1703.38 466.896 1704.34 466.465 1705.16C466.034 1705.95 465.434 1706.61 464.663 1707.13C463.892 1707.63 462.997 1707.99 461.977 1708.22V1708.32C463.926 1708.54 465.388 1709.15 466.363 1710.12C467.36 1711.09 467.859 1712.39 467.859 1714C467.859 1715.4 467.519 1716.66 466.839 1717.77C466.159 1718.88 465.116 1719.75 463.711 1720.39C462.306 1721.02 460.504 1721.34 458.305 1721.34C456.99 1721.34 455.766 1721.23 454.633 1721C453.522 1720.8 452.457 1720.47 451.437 1720.01V1716.41C452.48 1716.91 453.579 1717.31 454.735 1717.6C455.891 1717.87 456.99 1718.01 458.033 1718.01C460.028 1718.01 461.444 1717.65 462.283 1716.92C463.122 1716.17 463.541 1715.14 463.541 1713.83C463.541 1712.99 463.326 1712.3 462.895 1711.75C462.464 1711.21 461.784 1710.81 460.855 1710.56C459.926 1710.29 458.724 1710.15 457.251 1710.15H455.177V1706.86H457.285C458.713 1706.86 459.835 1706.7 460.651 1706.38C461.49 1706.04 462.09 1705.58 462.453 1704.99C462.838 1704.4 463.031 1703.72 463.031 1702.95C463.031 1701.95 462.702 1701.17 462.045 1700.6C461.388 1700.03 460.413 1699.75 459.121 1699.75C458.305 1699.75 457.557 1699.84 456.877 1700.02C456.22 1700.2 455.608 1700.44 455.041 1700.74C454.497 1701.03 453.976 1701.34 453.477 1701.65L451.539 1698.83C452.151 1698.38 452.842 1697.97 453.613 1697.61C454.384 1697.22 455.234 1696.93 456.163 1696.72C457.115 1696.5 458.158 1696.38 459.291 1696.38C461.807 1696.38 463.734 1696.92 465.071 1697.98C466.431 1699.05 467.111 1700.48 467.111 1702.27Z" fill="#535353" id="n118"/>
<path d="M426.532 1744V1735.79H427.935V1742.8H431.396V1744H426.532ZM435.133 1737.66C435.938 1737.66 436.543 1737.84 436.95 1738.18C437.356 1738.53 437.559 1739.07 437.559 1739.81V1744H436.582L436.306 1743.14H436.26C436.083 1743.36 435.899 1743.55 435.708 1743.7C435.524 1743.85 435.309 1743.95 435.064 1744.01C434.826 1744.08 434.535 1744.12 434.19 1744.12C433.822 1744.12 433.488 1744.05 433.189 1743.91C432.898 1743.77 432.668 1743.56 432.499 1743.28C432.331 1742.99 432.246 1742.64 432.246 1742.21C432.246 1741.56 432.484 1741.08 432.959 1740.76C433.435 1740.43 434.155 1740.25 435.121 1740.22L436.191 1740.18V1739.86C436.191 1739.45 436.091 1739.15 435.892 1738.97C435.7 1738.8 435.428 1738.71 435.075 1738.71C434.761 1738.71 434.458 1738.76 434.167 1738.85C433.875 1738.94 433.592 1739.05 433.316 1739.18L432.879 1738.2C433.178 1738.04 433.523 1737.91 433.914 1737.81C434.305 1737.71 434.711 1737.66 435.133 1737.66ZM435.409 1741.07C434.749 1741.09 434.293 1741.2 434.04 1741.4C433.787 1741.6 433.661 1741.87 433.661 1742.22C433.661 1742.52 433.753 1742.73 433.937 1742.87C434.121 1743 434.355 1743.07 434.638 1743.07C435.075 1743.07 435.443 1742.95 435.742 1742.7C436.041 1742.45 436.191 1742.07 436.191 1741.57V1741.04L435.409 1741.07ZM440.768 1737.34C440.768 1737.59 440.76 1737.82 440.745 1738.05C440.737 1738.28 440.725 1738.46 440.71 1738.59H440.768C440.944 1738.33 441.178 1738.12 441.469 1737.94C441.768 1737.76 442.151 1737.66 442.619 1737.66C443.347 1737.66 443.938 1737.94 444.39 1738.48C444.842 1739.02 445.069 1739.82 445.069 1740.88C445.069 1741.59 444.965 1742.18 444.758 1742.67C444.551 1743.15 444.26 1743.51 443.884 1743.76C443.516 1744 443.083 1744.12 442.585 1744.12C442.117 1744.12 441.741 1744.03 441.458 1743.86C441.174 1743.69 440.944 1743.49 440.768 1743.26H440.676L440.423 1744H439.388V1735.26H440.768V1737.34ZM442.24 1738.78C441.879 1738.78 441.592 1738.85 441.377 1739C441.162 1739.14 441.009 1739.36 440.917 1739.65C440.825 1739.94 440.775 1740.32 440.768 1740.77V1740.88C440.768 1741.56 440.875 1742.08 441.09 1742.45C441.304 1742.81 441.695 1742.99 442.263 1742.99C442.715 1742.99 443.06 1742.81 443.298 1742.45C443.535 1742.08 443.654 1741.55 443.654 1740.86C443.654 1740.17 443.531 1739.65 443.286 1739.31C443.048 1738.96 442.7 1738.78 442.24 1738.78ZM449.059 1737.66C449.611 1737.66 450.087 1737.78 450.485 1738.01C450.892 1738.23 451.202 1738.55 451.417 1738.97C451.631 1739.39 451.739 1739.89 451.739 1740.48V1741.21H447.61C447.626 1741.79 447.787 1742.24 448.093 1742.56C448.4 1742.88 448.825 1743.03 449.37 1743.03C449.768 1743.03 450.125 1743 450.439 1742.92C450.761 1742.84 451.091 1742.73 451.428 1742.57V1743.69C451.114 1743.84 450.792 1743.94 450.462 1744.01C450.14 1744.08 449.753 1744.12 449.301 1744.12C448.695 1744.12 448.158 1744 447.691 1743.77C447.223 1743.53 446.859 1743.18 446.598 1742.7C446.338 1742.23 446.207 1741.63 446.207 1740.93C446.207 1740.22 446.326 1739.63 446.564 1739.15C446.801 1738.66 447.135 1738.3 447.564 1738.04C447.994 1737.79 448.492 1737.66 449.059 1737.66ZM449.059 1738.7C448.653 1738.7 448.327 1738.83 448.082 1739.09C447.836 1739.34 447.691 1739.72 447.645 1740.23H450.393C450.393 1739.92 450.343 1739.66 450.244 1739.43C450.152 1739.2 450.006 1739.02 449.807 1738.89C449.615 1738.76 449.366 1738.7 449.059 1738.7ZM454.592 1744H453.212V1735.26H454.592V1744Z" fill="#535353" id="n119"/>
<path d="M435.526 1753.85V1760H434.79L434.652 1759.11H434.617C434.487 1759.33 434.318 1759.51 434.111 1759.67C433.912 1759.81 433.686 1759.92 433.433 1760C433.18 1760.08 432.908 1760.12 432.616 1760.12C432.133 1760.12 431.727 1760.04 431.397 1759.88C431.068 1759.72 430.818 1759.48 430.65 1759.15C430.481 1758.82 430.397 1758.39 430.397 1757.87V1753.85H431.317V1757.81C431.317 1758.33 431.432 1758.72 431.662 1758.98C431.899 1759.23 432.26 1759.36 432.743 1759.36C433.203 1759.36 433.567 1759.27 433.835 1759.1C434.111 1758.93 434.311 1758.67 434.433 1758.33C434.564 1758 434.629 1757.58 434.629 1757.1V1753.85H435.526ZM440.406 1753.73C441.126 1753.73 441.674 1753.91 442.05 1754.27C442.426 1754.63 442.614 1755.2 442.614 1755.99V1760H441.717V1756.06C441.717 1755.53 441.598 1755.14 441.36 1754.88C441.122 1754.63 440.762 1754.5 440.279 1754.5C439.597 1754.5 439.114 1754.69 438.83 1755.08C438.546 1755.46 438.405 1756.02 438.405 1756.76V1760H437.508V1753.85H438.232L438.37 1754.76H438.416C438.554 1754.53 438.723 1754.35 438.922 1754.2C439.121 1754.05 439.348 1753.94 439.601 1753.86C439.854 1753.77 440.122 1753.73 440.406 1753.73ZM445.435 1753.85V1760H444.538V1753.85H445.435ZM444.998 1751.55C445.151 1751.55 445.278 1751.6 445.377 1751.7C445.485 1751.8 445.538 1751.95 445.538 1752.16C445.538 1752.35 445.485 1752.5 445.377 1752.61C445.278 1752.71 445.151 1752.75 444.998 1752.75C444.837 1752.75 444.703 1752.71 444.595 1752.61C444.496 1752.5 444.446 1752.35 444.446 1752.16C444.446 1751.95 444.496 1751.8 444.595 1751.7C444.703 1751.6 444.837 1751.55 444.998 1751.55ZM449.368 1759.37C449.529 1759.37 449.686 1759.36 449.839 1759.33C450 1759.3 450.134 1759.27 450.242 1759.24V1759.93C450.127 1759.98 449.973 1760.03 449.782 1760.06C449.598 1760.1 449.41 1760.12 449.218 1760.12C448.896 1760.12 448.605 1760.06 448.344 1759.94C448.084 1759.83 447.873 1759.64 447.712 1759.37C447.558 1759.09 447.482 1758.71 447.482 1758.23V1754.56H446.596V1754.11L447.493 1753.77L447.838 1752.42H448.39V1753.85H450.196V1754.56H448.39V1758.21C448.39 1758.6 448.475 1758.89 448.643 1759.08C448.82 1759.27 449.061 1759.37 449.368 1759.37Z" fill="#535353" id="n120"/>
<rect x="550.309" y="1508.03" width="8" height="166" rx="4" transform="rotate(45 550.309 1508.03)" fill="#535353" stroke="#535353" id="n121"/>
<circle cx="440" cy="1624" r="16" transform="rotate(45 440 1624)" fill="#535353" id="n122"/>
</g>
</svg>
