<?xml version='1.0' encoding='utf-8'?>
<svg xmlns="http://www.w3.org/2000/svg" xmlns:xlink="http://www.w3.org/1999/xlink" width="160.0" height="160.0" viewBox="0 0 160.0 160.0" fill="none">
  <defs><clipPath id="clip__asset"><rect x="0" y="0" width="160.0" height="160.0"/></clipPath><mask id="path-209-inside-4_68_6728" fill="white">
<path d="M3369 288C3365.32 288 3362.77 290.864 3361 294.879V295H3377V294.889C3375.23 290.869 3372.68 288 3369 288Z" id="n297"/>
</mask>
</defs>
  <g clip-path="url(#clip__asset)" transform="translate(-3281.0 -240.0)"><path d="M3401 359.5C3401 351.492 3394.51 345 3386.5 345C3378.49 345 3372 351.492 3372 359.5V366H3401V359.5Z" fill="#8E8E8E" id="n281"/>
<circle cx="6" cy="6" r="6" transform="matrix(-1 0 0 1 3418 296)" fill="#8E8E8E" id="n282"/>
<path d="M3412 292.5H3388C3387.17 292.5 3386.5 293.172 3386.5 294V310C3386.5 310.828 3387.17 311.5 3388 311.5H3412C3412.83 311.5 3413.5 310.828 3413.5 310V294C3413.5 293.172 3412.83 292.5 3412 292.5Z" fill="white" stroke="#8E8E8E" id="n283"/>
<path d="M3410 296H3404M3410 300H3404M3410 304H3404M3410 308H3404" stroke="#8E8E8E" stroke-linecap="round" id="n284"/>
<path d="M3417.18 340C3417.18 340.552 3417.63 341 3418.18 341H3426.33C3426.82 341 3427.24 340.647 3427.32 340.164L3427.65 338.164C3427.76 337.555 3427.29 337 3426.67 337H3424.18C3423.63 337 3423.18 336.552 3423.18 336V334C3423.18 333.448 3423.63 333 3424.18 333H3427.67C3428.16 333 3428.57 332.647 3428.65 332.164L3428.99 330.164C3429.09 329.555 3428.62 329 3428 329H3418.18C3417.63 329 3417.18 329.448 3417.18 330V340Z" fill="#8E8E8E" id="n285"/>
<path d="M3393.58 355.809L3405.46 332.627C3406.99 329.636 3405.91 325.968 3403 324.287C3400.09 322.607 3396.37 323.504 3394.55 326.327L3380.41 348.208C3378.05 351.864 3379.23 356.752 3383 358.928C3386.77 361.104 3391.59 359.682 3393.58 355.809Z" fill="white" stroke="#8E8E8E" id="n286"/>
<path d="M3418.45 333.109L3401.58 326.345C3399.11 325.355 3396.33 326.745 3395.64 329.314C3394.96 331.883 3396.67 334.476 3399.3 334.853L3417.3 337.433C3418.43 337.594 3419.5 336.887 3419.79 335.784C3420.09 334.682 3419.51 333.533 3418.45 333.109Z" fill="white" stroke="#8E8E8E" id="n287"/>
<circle cx="2" cy="2" r="2" transform="matrix(-0.258819 0.965926 0.965926 0.258819 3398.1 327.9)" fill="#8E8E8E" id="n288"/>
<path d="M3293 364V320M3384.5 366L3391 319M3346.5 319L3340 366" stroke="#8E8E8E" stroke-width="4" id="n289"/>
<path d="M3390.06 325.822L3385.22 360.822C3384.81 363.79 3382.27 366 3379.27 366H3346.89C3343.25 366 3340.44 362.784 3340.94 359.178L3345.78 324.178C3346.19 321.21 3348.73 319 3351.73 319H3384.11C3387.75 319 3390.56 322.216 3390.06 325.822Z" stroke="#8E8E8E" stroke-width="4" id="n290"/>
<path d="M3340.52 362.218L3345.71 324.685C3346.13 321.68 3343.79 319 3340.76 319H3306.54C3303.24 319 3301.36 322.775 3303.35 325.41L3332.69 364.259C3333.51 365.355 3334.81 366 3336.18 366C3338.37 366 3340.22 364.386 3340.52 362.218Z" stroke="#8E8E8E" stroke-width="4" id="n291"/>
<path d="M3293 360V322.676C3293 320.646 3294.65 319 3296.68 319C3297.83 319 3298.92 319.541 3299.61 320.461L3329.16 359.59C3331.15 362.225 3329.27 366 3325.97 366H3299C3295.69 366 3293 363.314 3293 360Z" stroke="#8E8E8E" stroke-width="4" id="n292"/>
<path d="M3411.06 284.803L3396.71 302.263C3395.78 303.399 3395.18 304.77 3394.97 306.226L3393.04 320H3291C3289.9 320 3289 319.105 3289 318V276C3289 273.791 3290.79 272 3293 272H3383.95C3384.65 272 3385.34 272.091 3386.01 272.27L3408.99 278.399C3411.81 279.148 3412.9 282.554 3411.06 284.803Z" fill="white" stroke="#8E8E8E" id="n293"/>
<path d="M3381 320C3381 320 3381.29 288 3369 288C3356.71 288 3357 320 3357 320" stroke="#8E8E8E" id="n294"/>
<path d="M3413 366C3413 364.895 3412.1 364 3411 364H3291V368H3411C3412.1 368 3413 367.105 3413 366Z" fill="#8E8E8E" id="n295"/>
<path d="M3413 362C3413 360.895 3412.1 360 3411 360H3291V366C3291 367.105 3291.9 368 3293 368H3411C3412.1 368 3413 367.105 3413 366V362Z" fill="#8E8E8E" id="n296"/>
<path d="M3369 288C3365.32 288 3362.77 290.864 3361 294.879V295H3377V294.889C3375.23 290.869 3372.68 288 3369 288Z" fill="white" id="n298"/>
<path d="M3361 294.879H3360V294.668L3360.09 294.476L3361 294.879ZM3361 295V296H3360V295H3361ZM3377 295H3378V296H3377V295ZM3377 294.889L3377.92 294.486L3378 294.678V294.889H3377ZM3369 288V289C3365.95 289 3363.65 291.356 3361.92 295.282L3361 294.879L3360.09 294.476C3361.9 290.373 3364.69 287 3369 287V288ZM3361 294.879H3362V295H3361H3360V294.879H3361ZM3361 295V294H3377V295V296H3361V295ZM3377 295H3376V294.889H3377H3378V295H3377ZM3377 294.889L3376.09 295.292C3374.36 291.359 3372.05 289 3369 289V288V287C3373.31 287 3376.11 290.379 3377.92 294.486L3377 294.889Z" fill="#8E8E8E" mask="url(#path-209-inside-4_68_6728)" id="n299"/>
<path d="M3369 293.5C3366.82 293.5 3364.86 293.722 3363.46 294.071C3362.76 294.247 3362.23 294.448 3361.88 294.652C3361.71 294.754 3361.61 294.845 3361.55 294.914C3361.52 294.947 3361.51 294.97 3361.5 294.983C3361.5 294.99 3361.5 294.994 3361.5 294.996V295.004C3361.5 295.006 3361.5 295.01 3361.5 295.017C3361.51 295.03 3361.52 295.053 3361.55 295.086C3361.61 295.155 3361.71 295.246 3361.88 295.348C3362.23 295.552 3362.76 295.753 3363.46 295.929C3364.86 296.278 3366.82 296.5 3369 296.5C3371.18 296.5 3373.14 296.278 3374.54 295.929C3375.24 295.753 3375.77 295.552 3376.12 295.348C3376.29 295.246 3376.39 295.155 3376.45 295.086C3376.48 295.053 3376.49 295.03 3376.5 295.017C3376.5 295.01 3376.5 295.006 3376.5 295.004V294.996C3376.5 294.994 3376.5 294.99 3376.5 294.983C3376.49 294.97 3376.48 294.947 3376.45 294.914C3376.39 294.845 3376.29 294.754 3376.12 294.652C3375.77 294.448 3375.24 294.247 3374.54 294.071C3373.14 293.722 3371.18 293.5 3369 293.5Z" fill="#8E8E8E" stroke="#8E8E8E" id="n300"/>
</g>
</svg>
