<?xml version='1.0' encoding='utf-8'?>
<svg xmlns="http://www.w3.org/2000/svg" xmlns:xlink="http://www.w3.org/1999/xlink" width="384.0" height="168.0" viewBox="0 0 384.0 168.0" fill="none">
  <defs><clipPath id="clip__asset"><rect x="0" y="0" width="384.0" height="168.0"/></clipPath><mask id="mask128_68_6728" style="mask-type:luminance" maskUnits="userSpaceOnUse" x="9347" y="823" width="512" height="26">
<path d="M9435 836.8C9435 832.32 9435 830.079 9435.87 828.368C9436.64 826.863 9437.86 825.639 9439.37 824.872C9441.08 824 9443.32 824 9447.8 824H9758.2C9762.68 824 9764.92 824 9766.63 824.872C9768.14 825.639 9769.36 826.863 9770.13 828.368C9771 830.079 9771 832.32 9771 836.8V848H9435V836.8Z" fill="white" stroke="black" id="n1071"/>
</mask>
<mask id="mask129_68_6728" style="mask-type:alpha" maskUnits="userSpaceOnUse" x="9347" y="847" width="512" height="50">
<path d="M9435 848H9771V883.2C9771 887.68 9771 889.921 9770.13 891.632C9769.36 893.137 9768.14 894.361 9766.63 895.128C9764.92 896 9762.68 896 9758.2 896H9447.8C9443.32 896 9441.08 896 9439.37 895.128C9437.86 894.361 9436.64 893.137 9435.87 891.632C9435 889.921 9435 887.68 9435 883.2V848Z" fill="white" stroke="black" id="n1080"/>
</mask>
<clipPath id="clip56_68_6728">
<rect width="23" height="16" fill="white" transform="translate(9565.5 950)" id="n2835"/>
</clipPath>
<clipPath id="clip57_68_6728">
<rect width="48" height="16" fill="white" transform="translate(9592.5 950)" id="n2836"/>
</clipPath>
</defs>
  <g clip-path="url(#clip__asset)" transform="translate(-9411.0 -804.0)"><path d="M9435 836.8C9435 832.32 9435 830.079 9435.87 828.368C9436.64 826.863 9437.86 825.639 9439.37 824.872C9441.08 824 9443.32 824 9447.8 824H9758.2C9762.68 824 9764.92 824 9766.63 824.872C9768.14 825.639 9769.36 826.863 9770.13 828.368C9771 830.079 9771 832.32 9771 836.8V883.2C9771 887.68 9771 889.921 9770.13 891.632C9769.36 893.137 9768.14 894.361 9766.63 895.128C9764.92 896 9762.68 896 9758.2 896H9447.8C9443.32 896 9441.08 896 9439.37 895.128C9437.86 894.361 9436.64 893.137 9435.87 891.632C9435 889.921 9435 887.68 9435 883.2V836.8Z" fill="white" stroke="white" id="n1067"/>
<path d="M9435 848H9771V883.2C9771 887.68 9771 889.921 9770.13 891.632C9769.36 893.137 9768.14 894.361 9766.63 895.128C9764.92 896 9762.68 896 9758.2 896H9447.8C9443.32 896 9441.08 896 9439.37 895.128C9437.86 894.361 9436.64 893.137 9435.87 891.632C9435 889.921 9435 887.68 9435 883.2V848Z" fill="#F0F0F0" stroke="#F0F0F0" id="n1068"/>
<path d="M9435 836.8C9435 832.32 9435 830.079 9435.87 828.368C9436.64 826.863 9437.86 825.639 9439.37 824.872C9441.08 824 9443.32 824 9447.8 824H9758.2C9762.68 824 9764.92 824 9766.63 824.872C9768.14 825.639 9769.36 826.863 9770.13 828.368C9771 830.079 9771 832.32 9771 836.8V883.2C9771 887.68 9771 889.921 9770.13 891.632C9769.36 893.137 9768.14 894.361 9766.63 895.128C9764.92 896 9762.68 896 9758.2 896H9447.8C9443.32 896 9441.08 896 9439.37 895.128C9437.86 894.361 9436.64 893.137 9435.87 891.632C9435 889.921 9435 887.68 9435 883.2V836.8Z" stroke="#BEBEBE" id="n1069"/>
<path d="M9603 824V896" stroke="#BEBEBE" stroke-linecap="square" id="n1070"/>
<g mask="url(#mask128_68_6728)" id="n1072">
<path d="M9603 836V844M9619.8 836V844M9636.6 836V844M9653.4 836V844M9670.2 836V844M9687 836V844M9703.8 836V844M9720.6 836V844M9737.4 836V844M9754.2 836V844M9771 836V844M9586.2 836V844M9569.4 836V844M9552.6 836V844M9535.8 836V844M9519 836V844M9502.2 836V844M9485.4 836V844M9468.6 836V844M9451.8 836V844M9435 836V844" stroke="#BEBEBE" id="n1073"/>
<path d="M9603 820V844M9687 820V844M9771 820V844M9519 820V844M9435 820V844" stroke="#BEBEBE" id="n1074"/>
</g>
<path d="M9426.68 812.192V811.352H9429.58V812.192H9426.68ZM9436.27 810.08C9436.27 810.608 9436.23 811.12 9436.15 811.616C9436.08 812.112 9435.95 812.572 9435.78 812.996C9435.6 813.42 9435.37 813.792 9435.07 814.112C9434.77 814.432 9434.41 814.68 9433.97 814.856C9433.53 815.032 9433 815.12 9432.38 815.12C9432.21 815.12 9432.02 815.108 9431.81 815.084C9431.59 815.068 9431.41 815.04 9431.28 815V814.184C9431.42 814.232 9431.59 814.272 9431.78 814.304C9431.98 814.328 9432.18 814.34 9432.37 814.34C9432.91 814.34 9433.37 814.252 9433.74 814.076C9434.11 813.892 9434.4 813.64 9434.63 813.32C9434.86 812.992 9435.03 812.608 9435.13 812.168C9435.24 811.72 9435.31 811.236 9435.32 810.716H9435.25C9435.14 810.908 9434.99 811.088 9434.79 811.256C9434.6 811.416 9434.37 811.544 9434.1 811.64C9433.83 811.736 9433.51 811.784 9433.14 811.784C9432.64 811.784 9432.21 811.68 9431.83 811.472C9431.46 811.264 9431.18 810.968 9430.98 810.584C9430.78 810.2 9430.68 809.736 9430.68 809.192C9430.68 808.6 9430.79 808.088 9431.01 807.656C9431.24 807.224 9431.55 806.892 9431.95 806.66C9432.36 806.428 9432.84 806.312 9433.39 806.312C9433.81 806.312 9434.2 806.396 9434.55 806.564C9434.91 806.724 9435.21 806.964 9435.47 807.284C9435.72 807.604 9435.92 808 9436.05 808.472C9436.2 808.936 9436.27 809.472 9436.27 810.08ZM9433.39 807.116C9432.85 807.116 9432.42 807.288 9432.09 807.632C9431.77 807.976 9431.61 808.492 9431.61 809.18C9431.61 809.756 9431.75 810.208 9432.03 810.536C9432.31 810.864 9432.75 811.028 9433.33 811.028C9433.74 811.028 9434.09 810.948 9434.37 810.788C9434.67 810.628 9434.9 810.424 9435.06 810.176C9435.23 809.928 9435.31 809.672 9435.31 809.408C9435.31 809.16 9435.27 808.9 9435.19 808.628C9435.12 808.356 9435 808.108 9434.84 807.884C9434.69 807.652 9434.49 807.468 9434.24 807.332C9434 807.188 9433.72 807.116 9433.39 807.116ZM9443.19 810.704C9443.19 811.4 9443.13 812.024 9443.02 812.576C9442.91 813.12 9442.75 813.58 9442.53 813.956C9442.3 814.332 9442.01 814.62 9441.65 814.82C9441.29 815.02 9440.86 815.12 9440.35 815.12C9439.73 815.12 9439.21 814.948 9438.78 814.604C9438.37 814.252 9438.05 813.748 9437.85 813.092C9437.65 812.428 9437.55 811.632 9437.55 810.704C9437.55 809.792 9437.64 809.008 9437.82 808.352C9438.01 807.688 9438.31 807.18 9438.72 806.828C9439.14 806.476 9439.68 806.3 9440.35 806.3C9441 806.3 9441.53 806.476 9441.95 806.828C9442.37 807.18 9442.67 807.684 9442.87 808.34C9443.08 808.996 9443.19 809.784 9443.19 810.704ZM9438.49 810.704C9438.49 811.512 9438.55 812.184 9438.67 812.72C9438.8 813.248 9439 813.648 9439.27 813.92C9439.55 814.184 9439.91 814.316 9440.35 814.316C9440.8 814.316 9441.16 814.184 9441.43 813.92C9441.71 813.656 9441.91 813.256 9442.03 812.72C9442.16 812.184 9442.23 811.512 9442.23 810.704C9442.23 809.912 9442.16 809.252 9442.03 808.724C9441.91 808.188 9441.72 807.784 9441.45 807.512C9441.18 807.24 9440.82 807.104 9440.35 807.104C9439.9 807.104 9439.53 807.244 9439.26 807.524C9438.99 807.796 9438.79 808.2 9438.67 808.736C9438.55 809.264 9438.49 809.92 9438.49 810.704Z" fill="#707070" id="n1075"/>
<path d="M9510.68 812.192V811.352H9513.58V812.192H9510.68ZM9520.7 812.996H9519.41V815H9518.49V812.996H9514.33V812.204L9518.42 806.384H9519.41V812.144H9520.7V812.996ZM9518.49 809.3C9518.49 809.084 9518.49 808.892 9518.49 808.724C9518.49 808.548 9518.5 808.388 9518.51 808.244C9518.51 808.092 9518.52 807.948 9518.52 807.812C9518.53 807.668 9518.53 807.532 9518.54 807.404H9518.49C9518.42 807.564 9518.34 807.732 9518.24 807.908C9518.15 808.076 9518.05 808.228 9517.94 808.364L9515.27 812.144H9518.49V809.3ZM9524.23 809.768C9524.82 809.768 9525.32 809.868 9525.75 810.068C9526.18 810.268 9526.51 810.556 9526.74 810.932C9526.97 811.3 9527.09 811.752 9527.09 812.288C9527.09 812.872 9526.96 813.376 9526.71 813.8C9526.46 814.224 9526.09 814.552 9525.61 814.784C9525.14 815.008 9524.58 815.12 9523.92 815.12C9523.47 815.12 9523.06 815.08 9522.67 815C9522.3 814.912 9521.98 814.796 9521.71 814.652V813.752C9521.99 813.92 9522.33 814.056 9522.73 814.16C9523.14 814.264 9523.54 814.316 9523.93 814.316C9524.37 814.316 9524.76 814.244 9525.09 814.1C9525.41 813.956 9525.67 813.74 9525.85 813.452C9526.04 813.164 9526.13 812.804 9526.13 812.372C9526.13 811.796 9525.95 811.352 9525.59 811.04C9525.24 810.72 9524.69 810.56 9523.93 810.56C9523.69 810.56 9523.43 810.584 9523.13 810.632C9522.84 810.672 9522.6 810.716 9522.41 810.764L9521.93 810.452L9522.25 806.432H9526.51V807.296H9523.06L9522.84 809.912C9522.99 809.888 9523.18 809.86 9523.42 809.828C9523.66 809.788 9523.93 809.768 9524.23 809.768Z" fill="#707070" id="n1076"/>
<path d="M9605.82 810.704C9605.82 811.4 9605.76 812.024 9605.65 812.576C9605.55 813.12 9605.38 813.58 9605.16 813.956C9604.93 814.332 9604.64 814.62 9604.28 814.82C9603.92 815.02 9603.49 815.12 9602.99 815.12C9602.36 815.12 9601.84 814.948 9601.41 814.604C9601 814.252 9600.69 813.748 9600.48 813.092C9600.28 812.428 9600.18 811.632 9600.18 810.704C9600.18 809.792 9600.27 809.008 9600.45 808.352C9600.64 807.688 9600.94 807.18 9601.35 806.828C9601.77 806.476 9602.31 806.3 9602.99 806.3C9603.63 806.3 9604.17 806.476 9604.58 806.828C9605 807.18 9605.31 807.684 9605.51 808.34C9605.71 808.996 9605.82 809.784 9605.82 810.704ZM9601.13 810.704C9601.13 811.512 9601.19 812.184 9601.31 812.72C9601.43 813.248 9601.63 813.648 9601.91 813.92C9602.18 814.184 9602.54 814.316 9602.99 814.316C9603.43 814.316 9603.79 814.184 9604.07 813.92C9604.34 813.656 9604.54 813.256 9604.67 812.72C9604.79 812.184 9604.86 811.512 9604.86 810.704C9604.86 809.912 9604.79 809.252 9604.67 808.724C9604.55 808.188 9604.35 807.784 9604.08 807.512C9603.81 807.24 9603.45 807.104 9602.99 807.104C9602.53 807.104 9602.17 807.244 9601.89 807.524C9601.62 807.796 9601.43 808.2 9601.31 808.736C9601.19 809.264 9601.13 809.92 9601.13 810.704Z" fill="#707070" id="n1077"/>
<path d="M9686.77 812.996H9685.47V815H9684.56V812.996H9680.4V812.204L9684.49 806.384H9685.47V812.144H9686.77V812.996ZM9684.56 809.3C9684.56 809.084 9684.56 808.892 9684.56 808.724C9684.56 808.548 9684.56 808.388 9684.57 808.244C9684.58 808.092 9684.58 807.948 9684.58 807.812C9684.59 807.668 9684.6 807.532 9684.61 807.404H9684.56C9684.49 807.564 9684.4 807.732 9684.31 807.908C9684.21 808.076 9684.11 808.228 9684.01 808.364L9681.33 812.144H9684.56V809.3ZM9690.3 809.768C9690.88 809.768 9691.39 809.868 9691.81 810.068C9692.24 810.268 9692.58 810.556 9692.81 810.932C9693.04 811.3 9693.16 811.752 9693.16 812.288C9693.16 812.872 9693.03 813.376 9692.77 813.8C9692.52 814.224 9692.16 814.552 9691.68 814.784C9691.21 815.008 9690.64 815.12 9689.99 815.12C9689.54 815.12 9689.12 815.08 9688.74 815C9688.36 814.912 9688.04 814.796 9687.78 814.652V813.752C9688.06 813.92 9688.4 814.056 9688.8 814.16C9689.21 814.264 9689.61 814.316 9690 814.316C9690.44 814.316 9690.82 814.244 9691.15 814.1C9691.48 813.956 9691.74 813.74 9691.92 813.452C9692.1 813.164 9692.2 812.804 9692.2 812.372C9692.2 811.796 9692.02 811.352 9691.66 811.04C9691.3 810.72 9690.75 810.56 9690 810.56C9689.76 810.56 9689.49 810.584 9689.2 810.632C9688.91 810.672 9688.67 810.716 9688.48 810.764L9688 810.452L9688.32 806.432H9692.58V807.296H9689.12L9688.91 809.912C9689.05 809.888 9689.24 809.86 9689.48 809.828C9689.72 809.788 9690 809.768 9690.3 809.768Z" fill="#707070" id="n1078"/>
<path d="M9770.34 810.08C9770.34 810.608 9770.3 811.12 9770.22 811.616C9770.14 812.112 9770.02 812.572 9769.84 812.996C9769.67 813.42 9769.43 813.792 9769.14 814.112C9768.84 814.432 9768.47 814.68 9768.03 814.856C9767.59 815.032 9767.06 815.12 9766.45 815.12C9766.28 815.12 9766.09 815.108 9765.87 815.084C9765.66 815.068 9765.48 815.04 9765.34 815V814.184C9765.49 814.232 9765.66 814.272 9765.85 814.304C9766.05 814.328 9766.24 814.34 9766.44 814.34C9766.98 814.34 9767.44 814.252 9767.8 814.076C9768.17 813.892 9768.47 813.64 9768.69 813.32C9768.92 812.992 9769.09 812.608 9769.2 812.168C9769.31 811.72 9769.37 811.236 9769.39 810.716H9769.32C9769.2 810.908 9769.05 811.088 9768.86 811.256C9768.67 811.416 9768.44 811.544 9768.16 811.64C9767.89 811.736 9767.57 811.784 9767.2 811.784C9766.71 811.784 9766.27 811.68 9765.9 811.472C9765.53 811.264 9765.24 810.968 9765.04 810.584C9764.84 810.2 9764.74 809.736 9764.74 809.192C9764.74 808.6 9764.86 808.088 9765.08 807.656C9765.3 807.224 9765.62 806.892 9766.02 806.66C9766.42 806.428 9766.9 806.312 9767.46 806.312C9767.88 806.312 9768.27 806.396 9768.62 806.564C9768.97 806.724 9769.28 806.964 9769.53 807.284C9769.79 807.604 9769.98 808 9770.12 808.472C9770.26 808.936 9770.34 809.472 9770.34 810.08ZM9767.46 807.116C9766.92 807.116 9766.49 807.288 9766.16 807.632C9765.84 807.976 9765.68 808.492 9765.68 809.18C9765.68 809.756 9765.82 810.208 9766.1 810.536C9766.38 810.864 9766.81 811.028 9767.4 811.028C9767.8 811.028 9768.15 810.948 9768.44 810.788C9768.74 810.628 9768.96 810.424 9769.12 810.176C9769.29 809.928 9769.38 809.672 9769.38 809.408C9769.38 809.16 9769.34 808.9 9769.26 808.628C9769.18 808.356 9769.07 808.108 9768.91 807.884C9768.76 807.652 9768.56 807.468 9768.31 807.332C9768.07 807.188 9767.78 807.116 9767.46 807.116ZM9777.25 810.704C9777.25 811.4 9777.2 812.024 9777.08 812.576C9776.98 813.12 9776.82 813.58 9776.59 813.956C9776.37 814.332 9776.08 814.62 9775.72 814.82C9775.36 815.02 9774.92 815.12 9774.42 815.12C9773.8 815.12 9773.27 814.948 9772.85 814.604C9772.43 814.252 9772.12 813.748 9771.91 813.092C9771.71 812.428 9771.61 811.632 9771.61 810.704C9771.61 809.792 9771.7 809.008 9771.89 808.352C9772.07 807.688 9772.37 807.18 9772.79 806.828C9773.2 806.476 9773.75 806.3 9774.42 806.3C9775.07 806.3 9775.6 806.476 9776.02 806.828C9776.43 807.18 9776.74 807.684 9776.94 808.34C9777.15 808.996 9777.25 809.784 9777.25 810.704ZM9772.56 810.704C9772.56 811.512 9772.62 812.184 9772.74 812.72C9772.87 813.248 9773.07 813.648 9773.34 813.92C9773.61 814.184 9773.97 814.316 9774.42 814.316C9774.87 814.316 9775.23 814.184 9775.5 813.92C9775.77 813.656 9775.97 813.256 9776.1 812.72C9776.23 812.184 9776.29 811.512 9776.29 810.704C9776.29 809.912 9776.23 809.252 9776.1 808.724C9775.98 808.188 9775.78 807.784 9775.51 807.512C9775.25 807.24 9774.88 807.104 9774.42 807.104C9773.96 807.104 9773.6 807.244 9773.33 807.524C9773.06 807.796 9772.86 808.2 9772.74 808.736C9772.62 809.264 9772.56 809.92 9772.56 810.704Z" fill="#707070" id="n1079"/>
<g mask="url(#mask129_68_6728)" id="n1081">
<rect x="9687" y="848" width="48" height="84" transform="rotate(90 9687 848)" fill="#BEBEBE" stroke="#BEBEBE" id="n1082"/>
<rect x="9690.72" y="848" width="48" height="8" rx="4" transform="rotate(90 9690.72 848)" fill="#535353" stroke="#BEBEBE" id="n1083"/>
</g>
<path d="M9587.09 944H9583.01V928.564C9583.01 928.043 9583.01 927.533 9583.01 927.034C9583.03 926.513 9583.06 926.003 9583.08 925.504C9583.1 924.983 9583.12 924.495 9583.15 924.042C9582.92 924.291 9582.64 924.575 9582.3 924.892C9581.96 925.187 9581.6 925.493 9581.24 925.81L9578.52 927.986L9576.48 925.402L9583.72 919.724H9587.09V944ZM9610.98 944H9594.45V940.94L9600.68 934.65C9601.9 933.403 9602.9 932.338 9603.67 931.454C9604.46 930.547 9605.05 929.697 9605.44 928.904C9605.82 928.111 9606.01 927.238 9606.01 926.286C9606.01 925.153 9605.68 924.303 9605.03 923.736C9604.37 923.147 9603.51 922.852 9602.44 922.852C9601.38 922.852 9600.4 923.067 9599.52 923.498C9598.64 923.906 9597.72 924.484 9596.77 925.232L9594.56 922.546C9595.21 921.979 9595.93 921.458 9596.7 920.982C9597.47 920.506 9598.33 920.121 9599.28 919.826C9600.26 919.531 9601.37 919.384 9602.61 919.384C9604.18 919.384 9605.51 919.667 9606.63 920.234C9607.76 920.778 9608.63 921.537 9609.24 922.512C9609.86 923.487 9610.16 924.62 9610.16 925.912C9610.16 926.887 9610 927.805 9609.69 928.666C9609.39 929.527 9608.96 930.366 9608.39 931.182C9607.85 931.975 9607.17 932.803 9606.35 933.664C9605.54 934.503 9604.63 935.398 9603.63 936.35L9599.59 940.26V940.43H9610.98V944ZM9628.98 925.266C9628.98 926.377 9628.77 927.34 9628.34 928.156C9627.91 928.949 9627.3 929.607 9626.53 930.128C9625.76 930.627 9624.87 930.989 9623.85 931.216V931.318C9625.8 931.545 9627.26 932.145 9628.23 933.12C9629.23 934.095 9629.73 935.387 9629.73 936.996C9629.73 938.401 9629.39 939.659 9628.71 940.77C9628.03 941.881 9626.99 942.753 9625.58 943.388C9624.18 944.023 9622.37 944.34 9620.18 944.34C9618.86 944.34 9617.64 944.227 9616.5 944C9615.39 943.796 9614.33 943.467 9613.31 943.014V939.41C9614.35 939.909 9615.45 940.305 9616.61 940.6C9617.76 940.872 9618.86 941.008 9619.9 941.008C9621.9 941.008 9623.32 940.645 9624.15 939.92C9624.99 939.172 9625.41 938.141 9625.41 936.826C9625.41 935.987 9625.2 935.296 9624.77 934.752C9624.34 934.208 9623.66 933.811 9622.73 933.562C9621.8 933.29 9620.6 933.154 9619.12 933.154H9617.05V929.856H9619.16C9620.58 929.856 9621.71 929.697 9622.52 929.38C9623.36 929.04 9623.96 928.575 9624.32 927.986C9624.71 927.397 9624.9 926.717 9624.9 925.946C9624.9 924.949 9624.57 924.167 9623.92 923.6C9623.26 923.033 9622.28 922.75 9620.99 922.75C9620.18 922.75 9619.43 922.841 9618.75 923.022C9618.09 923.203 9617.48 923.441 9616.91 923.736C9616.37 924.031 9615.85 924.337 9615.35 924.654L9613.41 921.832C9614.02 921.379 9614.71 920.971 9615.48 920.608C9616.25 920.223 9617.1 919.928 9618.03 919.724C9618.99 919.497 9620.03 919.384 9621.16 919.384C9623.68 919.384 9625.6 919.917 9626.94 920.982C9628.3 922.047 9628.98 923.475 9628.98 925.266Z" fill="#535353" id="n1084"/>
<g clip-path="url(#clip56_68_6728)" id="n1085">
<path d="M9568.9 953.789C9569.62 953.789 9570.2 953.877 9570.66 954.053C9571.13 954.23 9571.48 954.498 9571.7 954.858C9571.93 955.211 9572.04 955.656 9572.04 956.193C9572.04 956.599 9571.97 956.944 9571.81 957.227C9571.67 957.511 9571.47 957.745 9571.23 957.929C9570.99 958.113 9570.73 958.262 9570.46 958.377L9572.8 962H9571.22L9569.24 958.734H9567.97V962H9566.57V953.789H9568.9ZM9568.81 954.962H9567.97V957.572H9568.86C9569.27 957.572 9569.61 957.523 9569.86 957.423C9570.12 957.323 9570.31 957.174 9570.43 956.974C9570.56 956.775 9570.62 956.53 9570.62 956.238C9570.62 955.932 9570.55 955.686 9570.42 955.503C9570.29 955.311 9570.09 955.173 9569.82 955.088C9569.56 955.004 9569.23 954.962 9568.81 954.962ZM9581.26 957.883C9581.26 958.519 9581.18 959.098 9581.02 959.619C9580.87 960.133 9580.63 960.578 9580.31 960.953C9579.99 961.329 9579.59 961.617 9579.11 961.816C9578.63 962.015 9578.06 962.115 9577.42 962.115C9576.76 962.115 9576.19 962.015 9575.7 961.816C9575.21 961.609 9574.81 961.321 9574.5 960.953C9574.19 960.578 9573.95 960.129 9573.79 959.608C9573.63 959.087 9573.56 958.508 9573.56 957.871C9573.56 957.02 9573.69 956.281 9573.97 955.652C9574.25 955.023 9574.68 954.536 9575.25 954.191C9575.82 953.839 9576.55 953.662 9577.43 953.662C9578.28 953.662 9578.99 953.839 9579.56 954.191C9580.13 954.536 9580.55 955.027 9580.84 955.664C9581.12 956.292 9581.26 957.032 9581.26 957.883ZM9575.04 957.883C9575.04 958.512 9575.12 959.056 9575.29 959.516C9575.46 959.968 9575.72 960.317 9576.08 960.562C9576.43 960.8 9576.88 960.919 9577.42 960.919C9577.97 960.919 9578.42 960.8 9578.77 960.562C9579.12 960.317 9579.38 959.968 9579.54 959.516C9579.71 959.056 9579.79 958.512 9579.79 957.883C9579.79 956.94 9579.6 956.2 9579.23 955.664C9578.86 955.127 9578.26 954.858 9577.43 954.858C9576.88 954.858 9576.43 954.981 9576.08 955.226C9575.72 955.464 9575.46 955.809 9575.29 956.261C9575.12 956.714 9575.04 957.254 9575.04 957.883ZM9585.57 962H9584.17V954.985H9581.78V953.789H9587.95V954.985H9585.57V962Z" fill="#535353" id="n1086"/>
</g>
<g clip-path="url(#clip57_68_6728)" id="n1087">
<path d="M9600.12 957.814C9600.12 958.734 9599.96 959.504 9599.62 960.125C9599.28 960.746 9598.79 961.214 9598.16 961.528C9597.52 961.843 9596.75 962 9595.84 962H9593.63V953.789H9596.08C9596.92 953.789 9597.64 953.942 9598.24 954.249C9598.84 954.556 9599.31 955.008 9599.63 955.606C9599.96 956.196 9600.12 956.932 9600.12 957.814ZM9599.15 957.848C9599.15 957.105 9599.02 956.495 9598.78 956.02C9598.53 955.537 9598.17 955.177 9597.69 954.939C9597.21 954.701 9596.63 954.582 9595.94 954.582H9594.55V961.206H9595.72C9596.86 961.206 9597.72 960.927 9598.28 960.367C9598.86 959.8 9599.15 958.96 9599.15 957.848ZM9606.51 962H9601.95V953.789H9606.51V954.605H9602.87V957.296H9606.3V958.101H9602.87V961.183H9606.51V962ZM9611.81 957.71H9614.7V961.678C9614.26 961.824 9613.82 961.931 9613.36 962C9612.92 962.077 9612.42 962.115 9611.86 962.115C9611.01 962.115 9610.29 961.946 9609.7 961.609C9609.11 961.272 9608.67 960.789 9608.36 960.16C9608.06 959.524 9607.9 958.768 9607.9 957.894C9607.9 957.043 9608.07 956.304 9608.41 955.675C9608.75 955.046 9609.23 954.556 9609.86 954.203C9610.49 953.85 9611.26 953.674 9612.15 953.674C9612.6 953.674 9613.03 953.716 9613.43 953.8C9613.85 953.885 9614.23 954.004 9614.58 954.157L9614.23 954.962C9613.92 954.824 9613.58 954.713 9613.22 954.628C9612.85 954.536 9612.48 954.49 9612.1 954.49C9611.43 954.49 9610.85 954.632 9610.36 954.916C9609.88 955.192 9609.51 955.587 9609.25 956.1C9608.99 956.606 9608.87 957.204 9608.87 957.894C9608.87 958.592 9608.98 959.198 9609.2 959.711C9609.43 960.217 9609.78 960.612 9610.25 960.896C9610.72 961.172 9611.33 961.31 9612.07 961.31C9612.32 961.31 9612.54 961.302 9612.74 961.287C9612.94 961.264 9613.13 961.233 9613.3 961.195C9613.46 961.157 9613.62 961.118 9613.77 961.08V958.538H9611.81V957.71ZM9619.63 953.789L9616.57 962H9615.67L9618.74 953.789H9619.63ZM9627.38 955.732C9628.06 955.732 9628.56 955.909 9628.9 956.261C9629.24 956.614 9629.42 957.181 9629.42 957.963V962H9628.53V958.009C9628.53 957.503 9628.42 957.128 9628.2 956.882C9627.98 956.629 9627.66 956.503 9627.23 956.503C9626.64 956.503 9626.21 956.675 9625.93 957.02C9625.66 957.358 9625.52 957.868 9625.52 958.55V962H9624.63V958.009C9624.63 957.672 9624.58 957.392 9624.48 957.17C9624.38 956.94 9624.24 956.771 9624.05 956.664C9623.85 956.557 9623.62 956.503 9623.33 956.503C9622.93 956.503 9622.6 956.587 9622.34 956.756C9622.1 956.925 9621.92 957.174 9621.8 957.503C9621.69 957.825 9621.63 958.232 9621.63 958.722V962H9620.73V955.847H9621.46L9621.6 956.733H9621.64C9621.77 956.518 9621.93 956.338 9622.1 956.193C9622.29 956.039 9622.49 955.924 9622.72 955.847C9622.96 955.771 9623.21 955.732 9623.48 955.732C9623.95 955.732 9624.34 955.821 9624.66 955.997C9624.97 956.173 9625.2 956.442 9625.35 956.802H9625.39C9625.59 956.449 9625.87 956.185 9626.22 956.008C9626.57 955.824 9626.96 955.732 9627.38 955.732ZM9632.24 955.847V962H9631.35V955.847H9632.24ZM9631.81 953.547C9631.96 953.547 9632.09 953.597 9632.19 953.697C9632.29 953.797 9632.35 953.95 9632.35 954.157C9632.35 954.349 9632.29 954.498 9632.19 954.605C9632.09 954.705 9631.96 954.755 9631.81 954.755C9631.65 954.755 9631.51 954.705 9631.4 954.605C9631.3 954.498 9631.25 954.349 9631.25 954.157C9631.25 953.95 9631.3 953.797 9631.4 953.697C9631.51 953.597 9631.65 953.547 9631.81 953.547ZM9637.12 955.732C9637.84 955.732 9638.39 955.913 9638.76 956.273C9639.14 956.626 9639.33 957.197 9639.33 957.986V962H9638.43V958.055C9638.43 957.526 9638.31 957.135 9638.07 956.882C9637.84 956.629 9637.48 956.503 9636.99 956.503C9636.31 956.503 9635.83 956.695 9635.54 957.078C9635.26 957.461 9635.12 958.021 9635.12 958.757V962H9634.22V955.847H9634.95L9635.08 956.756H9635.13C9635.27 956.534 9635.44 956.35 9635.64 956.204C9635.84 956.051 9636.06 955.936 9636.31 955.859C9636.57 955.775 9636.84 955.732 9637.12 955.732Z" fill="#535353" id="n1088"/>
</g>
</g>
</svg>
