<?xml version='1.0' encoding='utf-8'?>
<svg xmlns="http://www.w3.org/2000/svg" xmlns:xlink="http://www.w3.org/1999/xlink" width="384.0" height="168.0" viewBox="0 0 384.0 168.0" fill="none">
  <defs><clipPath id="clip__asset"><rect x="0" y="0" width="384.0" height="168.0"/></clipPath><mask id="mask132_68_6728" style="mask-type:luminance" maskUnits="userSpaceOnUse" x="9347" y="1039" width="512" height="26">
<path d="M9435 1052.8C9435 1048.32 9435 1046.08 9435.87 1044.37C9436.64 1042.86 9437.86 1041.64 9439.37 1040.87C9441.08 1040 9443.32 1040 9447.8 1040H9758.2C9762.68 1040 9764.92 1040 9766.63 1040.87C9768.14 1041.64 9769.36 1042.86 9770.13 1044.37C9771 1046.08 9771 1048.32 9771 1052.8V1064H9435V1052.8Z" fill="white" stroke="black" id="n1115"/>
</mask>
<mask id="mask133_68_6728" style="mask-type:alpha" maskUnits="userSpaceOnUse" x="9347" y="1063" width="512" height="50">
<path d="M9435 1064H9771V1099.2C9771 1103.68 9771 1105.92 9770.13 1107.63C9769.36 1109.14 9768.14 1110.36 9766.63 1111.13C9764.92 1112 9762.68 1112 9758.2 1112H9447.8C9443.32 1112 9441.08 1112 9439.37 1111.13C9437.86 1110.36 9436.64 1109.14 9435.87 1107.63C9435 1105.92 9435 1103.68 9435 1099.2V1064Z" fill="white" stroke="black" id="n1124"/>
</mask>
<clipPath id="clip60_68_6728">
<rect width="23" height="16" fill="white" transform="translate(9565.5 1166)" id="n2839"/>
</clipPath>
<clipPath id="clip61_68_6728">
<rect width="48" height="16" fill="white" transform="translate(9592.5 1166)" id="n2840"/>
</clipPath>
</defs>
  <g clip-path="url(#clip__asset)" transform="translate(-9411.0 -1020.0)"><path d="M9435 1052.8C9435 1048.32 9435 1046.08 9435.87 1044.37C9436.64 1042.86 9437.86 1041.64 9439.37 1040.87C9441.08 1040 9443.32 1040 9447.8 1040H9758.2C9762.68 1040 9764.92 1040 9766.63 1040.87C9768.14 1041.64 9769.36 1042.86 9770.13 1044.37C9771 1046.08 9771 1048.32 9771 1052.8V1099.2C9771 1103.68 9771 1105.92 9770.13 1107.63C9769.36 1109.14 9768.14 1110.36 9766.63 1111.13C9764.92 1112 9762.68 1112 9758.2 1112H9447.8C9443.32 1112 9441.08 1112 9439.37 1111.13C9437.86 1110.36 9436.64 1109.14 9435.87 1107.63C9435 1105.92 9435 1103.68 9435 1099.2V1052.8Z" fill="white" stroke="white" id="n1111"/>
<path d="M9435 1064H9771V1099.2C9771 1103.68 9771 1105.92 9770.13 1107.63C9769.36 1109.14 9768.14 1110.36 9766.63 1111.13C9764.92 1112 9762.68 1112 9758.2 1112H9447.8C9443.32 1112 9441.08 1112 9439.37 1111.13C9437.86 1110.36 9436.64 1109.14 9435.87 1107.63C9435 1105.92 9435 1103.68 9435 1099.2V1064Z" fill="#F0F0F0" stroke="#F0F0F0" id="n1112"/>
<path d="M9435 1052.8C9435 1048.32 9435 1046.08 9435.87 1044.37C9436.64 1042.86 9437.86 1041.64 9439.37 1040.87C9441.08 1040 9443.32 1040 9447.8 1040H9758.2C9762.68 1040 9764.92 1040 9766.63 1040.87C9768.14 1041.64 9769.36 1042.86 9770.13 1044.37C9771 1046.08 9771 1048.32 9771 1052.8V1099.2C9771 1103.68 9771 1105.92 9770.13 1107.63C9769.36 1109.14 9768.14 1110.36 9766.63 1111.13C9764.92 1112 9762.68 1112 9758.2 1112H9447.8C9443.32 1112 9441.08 1112 9439.37 1111.13C9437.86 1110.36 9436.64 1109.14 9435.87 1107.63C9435 1105.92 9435 1103.68 9435 1099.2V1052.8Z" stroke="#BEBEBE" id="n1113"/>
<path d="M9603 1040V1112" stroke="#BEBEBE" stroke-linecap="square" id="n1114"/>
<g mask="url(#mask132_68_6728)" id="n1116">
<path d="M9603 1052V1060M9619.8 1052V1060M9636.6 1052V1060M9653.4 1052V1060M9670.2 1052V1060M9687 1052V1060M9703.8 1052V1060M9720.6 1052V1060M9737.4 1052V1060M9754.2 1052V1060M9771 1052V1060M9586.2 1052V1060M9569.4 1052V1060M9552.6 1052V1060M9535.8 1052V1060M9519 1052V1060M9502.2 1052V1060M9485.4 1052V1060M9468.6 1052V1060M9451.8 1052V1060M9435 1052V1060" stroke="#BEBEBE" id="n1117"/>
<path d="M9603 1036V1060M9687 1036V1060M9771 1036V1060M9519 1036V1060M9435 1036V1060" stroke="#BEBEBE" id="n1118"/>
</g>
<path d="M9426.68 1028.19V1027.35H9429.58V1028.19H9426.68ZM9436.27 1026.08C9436.27 1026.61 9436.23 1027.12 9436.15 1027.62C9436.08 1028.11 9435.95 1028.57 9435.78 1029C9435.6 1029.42 9435.37 1029.79 9435.07 1030.11C9434.77 1030.43 9434.41 1030.68 9433.97 1030.86C9433.53 1031.03 9433 1031.12 9432.38 1031.12C9432.21 1031.12 9432.02 1031.11 9431.81 1031.08C9431.59 1031.07 9431.41 1031.04 9431.28 1031V1030.18C9431.42 1030.23 9431.59 1030.27 9431.78 1030.3C9431.98 1030.33 9432.18 1030.34 9432.37 1030.34C9432.91 1030.34 9433.37 1030.25 9433.74 1030.08C9434.11 1029.89 9434.4 1029.64 9434.63 1029.32C9434.86 1028.99 9435.03 1028.61 9435.13 1028.17C9435.24 1027.72 9435.31 1027.24 9435.32 1026.72H9435.25C9435.14 1026.91 9434.99 1027.09 9434.79 1027.26C9434.6 1027.42 9434.37 1027.54 9434.1 1027.64C9433.83 1027.74 9433.51 1027.78 9433.14 1027.78C9432.64 1027.78 9432.21 1027.68 9431.83 1027.47C9431.46 1027.26 9431.18 1026.97 9430.98 1026.58C9430.78 1026.2 9430.68 1025.74 9430.68 1025.19C9430.68 1024.6 9430.79 1024.09 9431.01 1023.66C9431.24 1023.22 9431.55 1022.89 9431.95 1022.66C9432.36 1022.43 9432.84 1022.31 9433.39 1022.31C9433.81 1022.31 9434.2 1022.4 9434.55 1022.56C9434.91 1022.72 9435.21 1022.96 9435.47 1023.28C9435.72 1023.6 9435.92 1024 9436.05 1024.47C9436.2 1024.94 9436.27 1025.47 9436.27 1026.08ZM9433.39 1023.12C9432.85 1023.12 9432.42 1023.29 9432.09 1023.63C9431.77 1023.98 9431.61 1024.49 9431.61 1025.18C9431.61 1025.76 9431.75 1026.21 9432.03 1026.54C9432.31 1026.86 9432.75 1027.03 9433.33 1027.03C9433.74 1027.03 9434.09 1026.95 9434.37 1026.79C9434.67 1026.63 9434.9 1026.42 9435.06 1026.18C9435.23 1025.93 9435.31 1025.67 9435.31 1025.41C9435.31 1025.16 9435.27 1024.9 9435.19 1024.63C9435.12 1024.36 9435 1024.11 9434.84 1023.88C9434.69 1023.65 9434.49 1023.47 9434.24 1023.33C9434 1023.19 9433.72 1023.12 9433.39 1023.12ZM9443.19 1026.7C9443.19 1027.4 9443.13 1028.02 9443.02 1028.58C9442.91 1029.12 9442.75 1029.58 9442.53 1029.96C9442.3 1030.33 9442.01 1030.62 9441.65 1030.82C9441.29 1031.02 9440.86 1031.12 9440.35 1031.12C9439.73 1031.12 9439.21 1030.95 9438.78 1030.6C9438.37 1030.25 9438.05 1029.75 9437.85 1029.09C9437.65 1028.43 9437.55 1027.63 9437.55 1026.7C9437.55 1025.79 9437.64 1025.01 9437.82 1024.35C9438.01 1023.69 9438.31 1023.18 9438.72 1022.83C9439.14 1022.48 9439.68 1022.3 9440.35 1022.3C9441 1022.3 9441.53 1022.48 9441.95 1022.83C9442.37 1023.18 9442.67 1023.68 9442.87 1024.34C9443.08 1025 9443.19 1025.78 9443.19 1026.7ZM9438.49 1026.7C9438.49 1027.51 9438.55 1028.18 9438.67 1028.72C9438.8 1029.25 9439 1029.65 9439.27 1029.92C9439.55 1030.18 9439.91 1030.32 9440.35 1030.32C9440.8 1030.32 9441.16 1030.18 9441.43 1029.92C9441.71 1029.66 9441.91 1029.26 9442.03 1028.72C9442.16 1028.18 9442.23 1027.51 9442.23 1026.7C9442.23 1025.91 9442.16 1025.25 9442.03 1024.72C9441.91 1024.19 9441.72 1023.78 9441.45 1023.51C9441.18 1023.24 9440.82 1023.1 9440.35 1023.1C9439.9 1023.1 9439.53 1023.24 9439.26 1023.52C9438.99 1023.8 9438.79 1024.2 9438.67 1024.74C9438.55 1025.26 9438.49 1025.92 9438.49 1026.7Z" fill="#707070" id="n1119"/>
<path d="M9510.68 1028.19V1027.35H9513.58V1028.19H9510.68ZM9520.7 1029H9519.41V1031H9518.49V1029H9514.33V1028.2L9518.42 1022.38H9519.41V1028.14H9520.7V1029ZM9518.49 1025.3C9518.49 1025.08 9518.49 1024.89 9518.49 1024.72C9518.49 1024.55 9518.5 1024.39 9518.51 1024.24C9518.51 1024.09 9518.52 1023.95 9518.52 1023.81C9518.53 1023.67 9518.53 1023.53 9518.54 1023.4H9518.49C9518.42 1023.56 9518.34 1023.73 9518.24 1023.91C9518.15 1024.08 9518.05 1024.23 9517.94 1024.36L9515.27 1028.14H9518.49V1025.3ZM9524.23 1025.77C9524.82 1025.77 9525.32 1025.87 9525.75 1026.07C9526.18 1026.27 9526.51 1026.56 9526.74 1026.93C9526.97 1027.3 9527.09 1027.75 9527.09 1028.29C9527.09 1028.87 9526.96 1029.38 9526.71 1029.8C9526.46 1030.22 9526.09 1030.55 9525.61 1030.78C9525.14 1031.01 9524.58 1031.12 9523.92 1031.12C9523.47 1031.12 9523.06 1031.08 9522.67 1031C9522.3 1030.91 9521.98 1030.8 9521.71 1030.65V1029.75C9521.99 1029.92 9522.33 1030.06 9522.73 1030.16C9523.14 1030.26 9523.54 1030.32 9523.93 1030.32C9524.37 1030.32 9524.76 1030.24 9525.09 1030.1C9525.41 1029.96 9525.67 1029.74 9525.85 1029.45C9526.04 1029.16 9526.13 1028.8 9526.13 1028.37C9526.13 1027.8 9525.95 1027.35 9525.59 1027.04C9525.24 1026.72 9524.69 1026.56 9523.93 1026.56C9523.69 1026.56 9523.43 1026.58 9523.13 1026.63C9522.84 1026.67 9522.6 1026.72 9522.41 1026.76L9521.93 1026.45L9522.25 1022.43H9526.51V1023.3H9523.06L9522.84 1025.91C9522.99 1025.89 9523.18 1025.86 9523.42 1025.83C9523.66 1025.79 9523.93 1025.77 9524.23 1025.77Z" fill="#707070" id="n1120"/>
<path d="M9605.82 1026.7C9605.82 1027.4 9605.76 1028.02 9605.65 1028.58C9605.55 1029.12 9605.38 1029.58 9605.16 1029.96C9604.93 1030.33 9604.64 1030.62 9604.28 1030.82C9603.92 1031.02 9603.49 1031.12 9602.99 1031.12C9602.36 1031.12 9601.84 1030.95 9601.41 1030.6C9601 1030.25 9600.69 1029.75 9600.48 1029.09C9600.28 1028.43 9600.18 1027.63 9600.18 1026.7C9600.18 1025.79 9600.27 1025.01 9600.45 1024.35C9600.64 1023.69 9600.94 1023.18 9601.35 1022.83C9601.77 1022.48 9602.31 1022.3 9602.99 1022.3C9603.63 1022.3 9604.17 1022.48 9604.58 1022.83C9605 1023.18 9605.31 1023.68 9605.51 1024.34C9605.71 1025 9605.82 1025.78 9605.82 1026.7ZM9601.13 1026.7C9601.13 1027.51 9601.19 1028.18 9601.31 1028.72C9601.43 1029.25 9601.63 1029.65 9601.91 1029.92C9602.18 1030.18 9602.54 1030.32 9602.99 1030.32C9603.43 1030.32 9603.79 1030.18 9604.07 1029.92C9604.34 1029.66 9604.54 1029.26 9604.67 1028.72C9604.79 1028.18 9604.86 1027.51 9604.86 1026.7C9604.86 1025.91 9604.79 1025.25 9604.67 1024.72C9604.55 1024.19 9604.35 1023.78 9604.08 1023.51C9603.81 1023.24 9603.45 1023.1 9602.99 1023.1C9602.53 1023.1 9602.17 1023.24 9601.89 1023.52C9601.62 1023.8 9601.43 1024.2 9601.31 1024.74C9601.19 1025.26 9601.13 1025.92 9601.13 1026.7Z" fill="#707070" id="n1121"/>
<path d="M9686.77 1029H9685.47V1031H9684.56V1029H9680.4V1028.2L9684.49 1022.38H9685.47V1028.14H9686.77V1029ZM9684.56 1025.3C9684.56 1025.08 9684.56 1024.89 9684.56 1024.72C9684.56 1024.55 9684.56 1024.39 9684.57 1024.24C9684.58 1024.09 9684.58 1023.95 9684.58 1023.81C9684.59 1023.67 9684.6 1023.53 9684.61 1023.4H9684.56C9684.49 1023.56 9684.4 1023.73 9684.31 1023.91C9684.21 1024.08 9684.11 1024.23 9684.01 1024.36L9681.33 1028.14H9684.56V1025.3ZM9690.3 1025.77C9690.88 1025.77 9691.39 1025.87 9691.81 1026.07C9692.24 1026.27 9692.58 1026.56 9692.81 1026.93C9693.04 1027.3 9693.16 1027.75 9693.16 1028.29C9693.16 1028.87 9693.03 1029.38 9692.77 1029.8C9692.52 1030.22 9692.16 1030.55 9691.68 1030.78C9691.21 1031.01 9690.64 1031.12 9689.99 1031.12C9689.54 1031.12 9689.12 1031.08 9688.74 1031C9688.36 1030.91 9688.04 1030.8 9687.78 1030.65V1029.75C9688.06 1029.92 9688.4 1030.06 9688.8 1030.16C9689.21 1030.26 9689.61 1030.32 9690 1030.32C9690.44 1030.32 9690.82 1030.24 9691.15 1030.1C9691.48 1029.96 9691.74 1029.74 9691.92 1029.45C9692.1 1029.16 9692.2 1028.8 9692.2 1028.37C9692.2 1027.8 9692.02 1027.35 9691.66 1027.04C9691.3 1026.72 9690.75 1026.56 9690 1026.56C9689.76 1026.56 9689.49 1026.58 9689.2 1026.63C9688.91 1026.67 9688.67 1026.72 9688.48 1026.76L9688 1026.45L9688.32 1022.43H9692.58V1023.3H9689.12L9688.91 1025.91C9689.05 1025.89 9689.24 1025.86 9689.48 1025.83C9689.72 1025.79 9690 1025.77 9690.3 1025.77Z" fill="#707070" id="n1122"/>
<path d="M9770.34 1026.08C9770.34 1026.61 9770.3 1027.12 9770.22 1027.62C9770.14 1028.11 9770.02 1028.57 9769.84 1029C9769.67 1029.42 9769.43 1029.79 9769.14 1030.11C9768.84 1030.43 9768.47 1030.68 9768.03 1030.86C9767.59 1031.03 9767.06 1031.12 9766.45 1031.12C9766.28 1031.12 9766.09 1031.11 9765.87 1031.08C9765.66 1031.07 9765.48 1031.04 9765.34 1031V1030.18C9765.49 1030.23 9765.66 1030.27 9765.85 1030.3C9766.05 1030.33 9766.24 1030.34 9766.44 1030.34C9766.98 1030.34 9767.44 1030.25 9767.8 1030.08C9768.17 1029.89 9768.47 1029.64 9768.69 1029.32C9768.92 1028.99 9769.09 1028.61 9769.2 1028.17C9769.31 1027.72 9769.37 1027.24 9769.39 1026.72H9769.32C9769.2 1026.91 9769.05 1027.09 9768.86 1027.26C9768.67 1027.42 9768.44 1027.54 9768.16 1027.64C9767.89 1027.74 9767.57 1027.78 9767.2 1027.78C9766.71 1027.78 9766.27 1027.68 9765.9 1027.47C9765.53 1027.26 9765.24 1026.97 9765.04 1026.58C9764.84 1026.2 9764.74 1025.74 9764.74 1025.19C9764.74 1024.6 9764.86 1024.09 9765.08 1023.66C9765.3 1023.22 9765.62 1022.89 9766.02 1022.66C9766.42 1022.43 9766.9 1022.31 9767.46 1022.31C9767.88 1022.31 9768.27 1022.4 9768.62 1022.56C9768.97 1022.72 9769.28 1022.96 9769.53 1023.28C9769.79 1023.6 9769.98 1024 9770.12 1024.47C9770.26 1024.94 9770.34 1025.47 9770.34 1026.08ZM9767.46 1023.12C9766.92 1023.12 9766.49 1023.29 9766.16 1023.63C9765.84 1023.98 9765.68 1024.49 9765.68 1025.18C9765.68 1025.76 9765.82 1026.21 9766.1 1026.54C9766.38 1026.86 9766.81 1027.03 9767.4 1027.03C9767.8 1027.03 9768.15 1026.95 9768.44 1026.79C9768.74 1026.63 9768.96 1026.42 9769.12 1026.18C9769.29 1025.93 9769.38 1025.67 9769.38 1025.41C9769.38 1025.16 9769.34 1024.9 9769.26 1024.63C9769.18 1024.36 9769.07 1024.11 9768.91 1023.88C9768.76 1023.65 9768.56 1023.47 9768.31 1023.33C9768.07 1023.19 9767.78 1023.12 9767.46 1023.12ZM9777.25 1026.7C9777.25 1027.4 9777.2 1028.02 9777.08 1028.58C9776.98 1029.12 9776.82 1029.58 9776.59 1029.96C9776.37 1030.33 9776.08 1030.62 9775.72 1030.82C9775.36 1031.02 9774.92 1031.12 9774.42 1031.12C9773.8 1031.12 9773.27 1030.95 9772.85 1030.6C9772.43 1030.25 9772.12 1029.75 9771.91 1029.09C9771.71 1028.43 9771.61 1027.63 9771.61 1026.7C9771.61 1025.79 9771.7 1025.01 9771.89 1024.35C9772.07 1023.69 9772.37 1023.18 9772.79 1022.83C9773.2 1022.48 9773.75 1022.3 9774.42 1022.3C9775.07 1022.3 9775.6 1022.48 9776.02 1022.83C9776.43 1023.18 9776.74 1023.68 9776.94 1024.34C9777.15 1025 9777.25 1025.78 9777.25 1026.7ZM9772.56 1026.7C9772.56 1027.51 9772.62 1028.18 9772.74 1028.72C9772.87 1029.25 9773.07 1029.65 9773.34 1029.92C9773.61 1030.18 9773.97 1030.32 9774.42 1030.32C9774.87 1030.32 9775.23 1030.18 9775.5 1029.92C9775.77 1029.66 9775.97 1029.26 9776.1 1028.72C9776.23 1028.18 9776.29 1027.51 9776.29 1026.7C9776.29 1025.91 9776.23 1025.25 9776.1 1024.72C9775.98 1024.19 9775.78 1023.78 9775.51 1023.51C9775.25 1023.24 9774.88 1023.1 9774.42 1023.1C9773.96 1023.1 9773.6 1023.24 9773.33 1023.52C9773.06 1023.8 9772.86 1024.2 9772.74 1024.74C9772.62 1025.26 9772.56 1025.92 9772.56 1026.7Z" fill="#707070" id="n1123"/>
<g mask="url(#mask133_68_6728)" id="n1125">
<rect x="9687" y="1064" width="48" height="84" transform="rotate(90 9687 1064)" fill="#9CC1F5" stroke="#9CC1F5" id="n1126"/>
<rect x="9690.72" y="1064" width="48" height="8" rx="4" transform="rotate(90 9690.72 1064)" fill="#2D548B" stroke="#9CC1F5" id="n1127"/>
</g>
<path d="M9587.09 1160H9583.01V1144.56C9583.01 1144.04 9583.01 1143.53 9583.01 1143.03C9583.03 1142.51 9583.06 1142 9583.08 1141.5C9583.1 1140.98 9583.12 1140.5 9583.15 1140.04C9582.92 1140.29 9582.64 1140.57 9582.3 1140.89C9581.96 1141.19 9581.6 1141.49 9581.24 1141.81L9578.52 1143.99L9576.48 1141.4L9583.72 1135.72H9587.09V1160ZM9610.98 1160H9594.45V1156.94L9600.68 1150.65C9601.9 1149.4 9602.9 1148.34 9603.67 1147.45C9604.46 1146.55 9605.05 1145.7 9605.44 1144.9C9605.82 1144.11 9606.01 1143.24 9606.01 1142.29C9606.01 1141.15 9605.68 1140.3 9605.03 1139.74C9604.37 1139.15 9603.51 1138.85 9602.44 1138.85C9601.38 1138.85 9600.4 1139.07 9599.52 1139.5C9598.64 1139.91 9597.72 1140.48 9596.77 1141.23L9594.56 1138.55C9595.21 1137.98 9595.93 1137.46 9596.7 1136.98C9597.47 1136.51 9598.33 1136.12 9599.28 1135.83C9600.26 1135.53 9601.37 1135.38 9602.61 1135.38C9604.18 1135.38 9605.51 1135.67 9606.63 1136.23C9607.76 1136.78 9608.63 1137.54 9609.24 1138.51C9609.86 1139.49 9610.16 1140.62 9610.16 1141.91C9610.16 1142.89 9610 1143.8 9609.69 1144.67C9609.39 1145.53 9608.96 1146.37 9608.39 1147.18C9607.85 1147.98 9607.17 1148.8 9606.35 1149.66C9605.54 1150.5 9604.63 1151.4 9603.63 1152.35L9599.59 1156.26V1156.43H9610.98V1160ZM9628.98 1141.27C9628.98 1142.38 9628.77 1143.34 9628.34 1144.16C9627.91 1144.95 9627.3 1145.61 9626.53 1146.13C9625.76 1146.63 9624.87 1146.99 9623.85 1147.22V1147.32C9625.8 1147.54 9627.26 1148.15 9628.23 1149.12C9629.23 1150.09 9629.73 1151.39 9629.73 1153C9629.73 1154.4 9629.39 1155.66 9628.71 1156.77C9628.03 1157.88 9626.99 1158.75 9625.58 1159.39C9624.18 1160.02 9622.37 1160.34 9620.18 1160.34C9618.86 1160.34 9617.64 1160.23 9616.5 1160C9615.39 1159.8 9614.33 1159.47 9613.31 1159.01V1155.41C9614.35 1155.91 9615.45 1156.31 9616.61 1156.6C9617.76 1156.87 9618.86 1157.01 9619.9 1157.01C9621.9 1157.01 9623.32 1156.65 9624.15 1155.92C9624.99 1155.17 9625.41 1154.14 9625.41 1152.83C9625.41 1151.99 9625.2 1151.3 9624.77 1150.75C9624.34 1150.21 9623.66 1149.81 9622.73 1149.56C9621.8 1149.29 9620.6 1149.15 9619.12 1149.15H9617.05V1145.86H9619.16C9620.58 1145.86 9621.71 1145.7 9622.52 1145.38C9623.36 1145.04 9623.96 1144.58 9624.32 1143.99C9624.71 1143.4 9624.9 1142.72 9624.9 1141.95C9624.9 1140.95 9624.57 1140.17 9623.92 1139.6C9623.26 1139.03 9622.28 1138.75 9620.99 1138.75C9620.18 1138.75 9619.43 1138.84 9618.75 1139.02C9618.09 1139.2 9617.48 1139.44 9616.91 1139.74C9616.37 1140.03 9615.85 1140.34 9615.35 1140.65L9613.41 1137.83C9614.02 1137.38 9614.71 1136.97 9615.48 1136.61C9616.25 1136.22 9617.1 1135.93 9618.03 1135.72C9618.99 1135.5 9620.03 1135.38 9621.16 1135.38C9623.68 1135.38 9625.6 1135.92 9626.94 1136.98C9628.3 1138.05 9628.98 1139.48 9628.98 1141.27Z" fill="#2D548B" id="n1128"/>
<g clip-path="url(#clip60_68_6728)" id="n1129">
<path d="M9568.9 1169.79C9569.62 1169.79 9570.2 1169.88 9570.66 1170.05C9571.13 1170.23 9571.48 1170.5 9571.7 1170.86C9571.93 1171.21 9572.04 1171.66 9572.04 1172.19C9572.04 1172.6 9571.97 1172.94 9571.81 1173.23C9571.67 1173.51 9571.47 1173.74 9571.23 1173.93C9570.99 1174.11 9570.73 1174.26 9570.46 1174.38L9572.8 1178H9571.22L9569.24 1174.73H9567.97V1178H9566.57V1169.79H9568.9ZM9568.81 1170.96H9567.97V1173.57H9568.86C9569.27 1173.57 9569.61 1173.52 9569.86 1173.42C9570.12 1173.32 9570.31 1173.17 9570.43 1172.97C9570.56 1172.78 9570.62 1172.53 9570.62 1172.24C9570.62 1171.93 9570.55 1171.69 9570.42 1171.5C9570.29 1171.31 9570.09 1171.17 9569.82 1171.09C9569.56 1171 9569.23 1170.96 9568.81 1170.96ZM9581.26 1173.88C9581.26 1174.52 9581.18 1175.1 9581.02 1175.62C9580.87 1176.13 9580.63 1176.58 9580.31 1176.95C9579.99 1177.33 9579.59 1177.62 9579.11 1177.82C9578.63 1178.02 9578.06 1178.12 9577.42 1178.12C9576.76 1178.12 9576.19 1178.02 9575.7 1177.82C9575.21 1177.61 9574.81 1177.32 9574.5 1176.95C9574.19 1176.58 9573.95 1176.13 9573.79 1175.61C9573.63 1175.09 9573.56 1174.51 9573.56 1173.87C9573.56 1173.02 9573.69 1172.28 9573.97 1171.65C9574.25 1171.02 9574.68 1170.54 9575.25 1170.19C9575.82 1169.84 9576.55 1169.66 9577.43 1169.66C9578.28 1169.66 9578.99 1169.84 9579.56 1170.19C9580.13 1170.54 9580.55 1171.03 9580.84 1171.66C9581.12 1172.29 9581.26 1173.03 9581.26 1173.88ZM9575.04 1173.88C9575.04 1174.51 9575.12 1175.06 9575.29 1175.52C9575.46 1175.97 9575.72 1176.32 9576.08 1176.56C9576.43 1176.8 9576.88 1176.92 9577.42 1176.92C9577.97 1176.92 9578.42 1176.8 9578.77 1176.56C9579.12 1176.32 9579.38 1175.97 9579.54 1175.52C9579.71 1175.06 9579.79 1174.51 9579.79 1173.88C9579.79 1172.94 9579.6 1172.2 9579.23 1171.66C9578.86 1171.13 9578.26 1170.86 9577.43 1170.86C9576.88 1170.86 9576.43 1170.98 9576.08 1171.23C9575.72 1171.46 9575.46 1171.81 9575.29 1172.26C9575.12 1172.71 9575.04 1173.25 9575.04 1173.88ZM9585.57 1178H9584.17V1170.98H9581.78V1169.79H9587.95V1170.98H9585.57V1178Z" fill="#535353" id="n1130"/>
</g>
<g clip-path="url(#clip61_68_6728)" id="n1131">
<path d="M9600.12 1173.81C9600.12 1174.73 9599.96 1175.5 9599.62 1176.13C9599.28 1176.75 9598.79 1177.21 9598.16 1177.53C9597.52 1177.84 9596.75 1178 9595.84 1178H9593.63V1169.79H9596.08C9596.92 1169.79 9597.64 1169.94 9598.24 1170.25C9598.84 1170.56 9599.31 1171.01 9599.63 1171.61C9599.96 1172.2 9600.12 1172.93 9600.12 1173.81ZM9599.15 1173.85C9599.15 1173.1 9599.02 1172.5 9598.78 1172.02C9598.53 1171.54 9598.17 1171.18 9597.69 1170.94C9597.21 1170.7 9596.63 1170.58 9595.94 1170.58H9594.55V1177.21H9595.72C9596.86 1177.21 9597.72 1176.93 9598.28 1176.37C9598.86 1175.8 9599.15 1174.96 9599.15 1173.85ZM9606.51 1178H9601.95V1169.79H9606.51V1170.61H9602.87V1173.3H9606.3V1174.1H9602.87V1177.18H9606.51V1178ZM9611.81 1173.71H9614.7V1177.68C9614.26 1177.82 9613.82 1177.93 9613.36 1178C9612.92 1178.08 9612.42 1178.12 9611.86 1178.12C9611.01 1178.12 9610.29 1177.95 9609.7 1177.61C9609.11 1177.27 9608.67 1176.79 9608.36 1176.16C9608.06 1175.52 9607.9 1174.77 9607.9 1173.89C9607.9 1173.04 9608.07 1172.3 9608.41 1171.67C9608.75 1171.05 9609.23 1170.56 9609.86 1170.2C9610.49 1169.85 9611.26 1169.67 9612.15 1169.67C9612.6 1169.67 9613.03 1169.72 9613.43 1169.8C9613.85 1169.88 9614.23 1170 9614.58 1170.16L9614.23 1170.96C9613.92 1170.82 9613.58 1170.71 9613.22 1170.63C9612.85 1170.54 9612.48 1170.49 9612.1 1170.49C9611.43 1170.49 9610.85 1170.63 9610.36 1170.92C9609.88 1171.19 9609.51 1171.59 9609.25 1172.1C9608.99 1172.61 9608.87 1173.2 9608.87 1173.89C9608.87 1174.59 9608.98 1175.2 9609.2 1175.71C9609.43 1176.22 9609.78 1176.61 9610.25 1176.9C9610.72 1177.17 9611.33 1177.31 9612.07 1177.31C9612.32 1177.31 9612.54 1177.3 9612.74 1177.29C9612.94 1177.26 9613.13 1177.23 9613.3 1177.19C9613.46 1177.16 9613.62 1177.12 9613.77 1177.08V1174.54H9611.81V1173.71ZM9619.63 1169.79L9616.57 1178H9615.67L9618.74 1169.79H9619.63ZM9627.38 1171.73C9628.06 1171.73 9628.56 1171.91 9628.9 1172.26C9629.24 1172.61 9629.42 1173.18 9629.42 1173.96V1178H9628.53V1174.01C9628.53 1173.5 9628.42 1173.13 9628.2 1172.88C9627.98 1172.63 9627.66 1172.5 9627.23 1172.5C9626.64 1172.5 9626.21 1172.68 9625.93 1173.02C9625.66 1173.36 9625.52 1173.87 9625.52 1174.55V1178H9624.63V1174.01C9624.63 1173.67 9624.58 1173.39 9624.48 1173.17C9624.38 1172.94 9624.24 1172.77 9624.05 1172.66C9623.85 1172.56 9623.62 1172.5 9623.33 1172.5C9622.93 1172.5 9622.6 1172.59 9622.34 1172.76C9622.1 1172.92 9621.92 1173.17 9621.8 1173.5C9621.69 1173.83 9621.63 1174.23 9621.63 1174.72V1178H9620.73V1171.85H9621.46L9621.6 1172.73H9621.64C9621.77 1172.52 9621.93 1172.34 9622.1 1172.19C9622.29 1172.04 9622.49 1171.92 9622.72 1171.85C9622.96 1171.77 9623.21 1171.73 9623.48 1171.73C9623.95 1171.73 9624.34 1171.82 9624.66 1172C9624.97 1172.17 9625.2 1172.44 9625.35 1172.8H9625.39C9625.59 1172.45 9625.87 1172.18 9626.22 1172.01C9626.57 1171.82 9626.96 1171.73 9627.38 1171.73ZM9632.24 1171.85V1178H9631.35V1171.85H9632.24ZM9631.81 1169.55C9631.96 1169.55 9632.09 1169.6 9632.19 1169.7C9632.29 1169.8 9632.35 1169.95 9632.35 1170.16C9632.35 1170.35 9632.29 1170.5 9632.19 1170.61C9632.09 1170.71 9631.96 1170.75 9631.81 1170.75C9631.65 1170.75 9631.51 1170.71 9631.4 1170.61C9631.3 1170.5 9631.25 1170.35 9631.25 1170.16C9631.25 1169.95 9631.3 1169.8 9631.4 1169.7C9631.51 1169.6 9631.65 1169.55 9631.81 1169.55ZM9637.12 1171.73C9637.84 1171.73 9638.39 1171.91 9638.76 1172.27C9639.14 1172.63 9639.33 1173.2 9639.33 1173.99V1178H9638.43V1174.06C9638.43 1173.53 9638.31 1173.14 9638.07 1172.88C9637.84 1172.63 9637.48 1172.5 9636.99 1172.5C9636.31 1172.5 9635.83 1172.69 9635.54 1173.08C9635.26 1173.46 9635.12 1174.02 9635.12 1174.76V1178H9634.22V1171.85H9634.95L9635.08 1172.76H9635.13C9635.27 1172.53 9635.44 1172.35 9635.64 1172.2C9635.84 1172.05 9636.06 1171.94 9636.31 1171.86C9636.57 1171.77 9636.84 1171.73 9637.12 1171.73Z" fill="#535353" id="n1132"/>
</g>
</g>
</svg>
