<?xml version='1.0' encoding='utf-8'?>
<svg xmlns="http://www.w3.org/2000/svg" xmlns:xlink="http://www.w3.org/1999/xlink" width="512.0" height="512.0" viewBox="0 0 512.0 512.0" fill="none">
  <defs><clipPath id="clip__asset"><rect x="0" y="0" width="512.0" height="512.0"/></clipPath><mask id="mask108_68_6728" style="mask-type:luminance" maskUnits="userSpaceOnUse" x="8328" y="1112" width="512" height="512">
<path fill-rule="evenodd" clip-rule="evenodd" d="M8584 1552C8685.62 1552 8768 1469.62 8768 1368C8768 1266.38 8685.62 1184 8584 1184C8482.38 1184 8400 1266.38 8400 1368C8400 1469.62 8482.38 1552 8584 1552ZM8584 1528C8672.37 1528 8744 1456.37 8744 1368C8744 1279.63 8672.37 1208 8584 1208C8495.63 1208 8424 1279.63 8424 1368C8424 1456.37 8495.63 1528 8584 1528Z" fill="white" id="n642"/>
<path d="M8768 1368H8767.5C8767.5 1469.34 8685.34 1551.5 8584 1551.5V1552V1552.5C8685.9 1552.5 8768.5 1469.9 8768.5 1368H8768ZM8584 1184V1184.5C8685.34 1184.5 8767.5 1266.66 8767.5 1368H8768H8768.5C8768.5 1266.1 8685.9 1183.5 8584 1183.5V1184ZM8400 1368H8400.5C8400.5 1266.66 8482.66 1184.5 8584 1184.5V1184V1183.5C8482.1 1183.5 8399.5 1266.1 8399.5 1368H8400ZM8584 1552V1551.5C8482.66 1551.5 8400.5 1469.34 8400.5 1368H8400H8399.5C8399.5 1469.9 8482.1 1552.5 8584 1552.5V1552ZM8744 1368H8743.5C8743.5 1456.09 8672.09 1527.5 8584 1527.5V1528V1528.5C8672.64 1528.5 8744.5 1456.64 8744.5 1368H8744ZM8584 1208V1208.5C8672.09 1208.5 8743.5 1279.91 8743.5 1368H8744H8744.5C8744.5 1279.36 8672.64 1207.5 8584 1207.5V1208ZM8424 1368H8424.5C8424.5 1279.91 8495.91 1208.5 8584 1208.5V1208V1207.5C8495.36 1207.5 8423.5 1279.36 8423.5 1368H8424ZM8584 1528V1527.5C8495.91 1527.5 8424.5 1456.09 8424.5 1368H8424H8423.5C8423.5 1456.64 8495.36 1528.5 8584 1528.5V1528Z" fill="black" id="n643"/>
</mask>
<mask id="mask109_68_6728" style="mask-type:alpha" maskUnits="userSpaceOnUse" x="8328" y="1112" width="512" height="512">
<path d="M8584 1188C8683.41 1188 8764 1268.59 8764 1368C8764 1467.41 8683.41 1548 8584 1548C8484.59 1548 8404 1467.41 8404 1368C8404 1268.59 8484.59 1188 8584 1188ZM8584 1192C8486.8 1192 8408 1270.8 8408 1368C8408 1465.2 8486.8 1544 8584 1544C8681.2 1544 8760 1465.2 8760 1368C8760 1270.8 8681.2 1192 8584 1192Z" fill="white" id="n645"/>
</mask>
<mask id="mask110_68_6728" style="mask-type:alpha" maskUnits="userSpaceOnUse" x="8328" y="1112" width="512" height="512">
<path d="M8584 1188C8683.41 1188 8764 1268.59 8764 1368C8764 1467.41 8683.41 1548 8584 1548C8484.59 1548 8404 1467.41 8404 1368C8404 1268.59 8484.59 1188 8584 1188ZM8584 1196C8489.01 1196 8412 1273.01 8412 1368C8412 1462.99 8489.01 1540 8584 1540C8678.99 1540 8756 1462.99 8756 1368C8756 1273.01 8678.99 1196 8584 1196Z" fill="white" id="n648"/>
</mask>
<mask id="mask111_68_6728" style="mask-type:alpha" maskUnits="userSpaceOnUse" x="8328" y="1112" width="512" height="512">
<path d="M8584 1188C8683.41 1188 8764 1268.59 8764 1368C8764 1467.41 8683.41 1548 8584 1548C8484.59 1548 8404 1467.41 8404 1368C8404 1268.59 8484.59 1188 8584 1188ZM8584 1208C8495.63 1208 8424 1279.63 8424 1368C8424 1456.37 8495.63 1528 8584 1528C8672.37 1528 8744 1456.37 8744 1368C8744 1279.63 8672.37 1208 8584 1208Z" fill="white" id="n651"/>
</mask>
<mask id="mask112_68_6728" style="mask-type:alpha" maskUnits="userSpaceOnUse" x="8328" y="1112" width="512" height="512">
<path d="M8584 1180C8687.83 1180 8772 1264.17 8772 1368C8772 1471.83 8687.83 1556 8584 1556C8480.17 1556 8396 1471.83 8396 1368C8396 1264.17 8480.17 1180 8584 1180ZM8584 1208C8495.63 1208 8424 1279.63 8424 1368C8424 1456.37 8495.63 1528 8584 1528C8672.37 1528 8744 1456.37 8744 1368C8744 1279.63 8672.37 1208 8584 1208Z" fill="white" id="n654"/>
</mask>
</defs>
  <g clip-path="url(#clip__asset)" transform="translate(-8328.0 -1112.0)"><path d="M8584 1184C8685.62 1184 8768 1266.38 8768 1368C8768 1469.62 8685.62 1552 8584 1552C8482.38 1552 8400 1469.62 8400 1368C8400 1266.38 8482.38 1184 8584 1184ZM8584 1208C8495.63 1208 8424 1279.63 8424 1368C8424 1456.37 8495.63 1528 8584 1528C8672.37 1528 8744 1456.37 8744 1368C8744 1279.63 8672.37 1208 8584 1208Z" fill="white" id="n627"/>
<path d="M8584 1184V1184.5C8685.34 1184.5 8767.5 1266.66 8767.5 1368H8768H8768.5C8768.5 1266.1 8685.9 1183.5 8584 1183.5V1184ZM8768 1368H8767.5C8767.5 1469.34 8685.34 1551.5 8584 1551.5V1552V1552.5C8685.9 1552.5 8768.5 1469.9 8768.5 1368H8768ZM8584 1552V1551.5C8482.66 1551.5 8400.5 1469.34 8400.5 1368H8400H8399.5C8399.5 1469.9 8482.1 1552.5 8584 1552.5V1552ZM8400 1368H8400.5C8400.5 1266.66 8482.66 1184.5 8584 1184.5V1184V1183.5C8482.1 1183.5 8399.5 1266.1 8399.5 1368H8400ZM8584 1208V1207.5C8495.36 1207.5 8423.5 1279.36 8423.5 1368H8424H8424.5C8424.5 1279.91 8495.91 1208.5 8584 1208.5V1208ZM8424 1368H8423.5C8423.5 1456.64 8495.36 1528.5 8584 1528.5V1528V1527.5C8495.91 1527.5 8424.5 1456.09 8424.5 1368H8424ZM8584 1528V1528.5C8672.64 1528.5 8744.5 1456.64 8744.5 1368H8744H8743.5C8743.5 1456.09 8672.09 1527.5 8584 1527.5V1528ZM8744 1368H8744.5C8744.5 1279.36 8672.64 1207.5 8584 1207.5V1208V1208.5C8672.09 1208.5 8743.5 1279.91 8743.5 1368H8744Z" fill="#BEBEBE" id="n628"/>
<path d="M8584 1257V1257.5C8645.03 1257.5 8694.5 1306.97 8694.5 1368H8695H8695.5C8695.5 1306.42 8645.58 1256.5 8584 1256.5V1257ZM8695 1368H8694.5C8694.5 1429.03 8645.03 1478.5 8584 1478.5V1479V1479.5C8645.58 1479.5 8695.5 1429.58 8695.5 1368H8695ZM8584 1479V1478.5C8522.97 1478.5 8473.5 1429.03 8473.5 1368H8473H8472.5C8472.5 1429.58 8522.42 1479.5 8584 1479.5V1479ZM8473 1368H8473.5C8473.5 1306.97 8522.97 1257.5 8584 1257.5V1257V1256.5C8522.42 1256.5 8472.5 1306.42 8472.5 1368H8473ZM8584 1304V1303.5C8548.38 1303.5 8519.5 1332.38 8519.5 1368H8520H8520.5C8520.5 1332.93 8548.93 1304.5 8584 1304.5V1304ZM8520 1368H8519.5C8519.5 1403.62 8548.38 1432.5 8584 1432.5V1432V1431.5C8548.93 1431.5 8520.5 1403.07 8520.5 1368H8520ZM8584 1432V1432.5C8619.62 1432.5 8648.5 1403.62 8648.5 1368H8648H8647.5C8647.5 1403.07 8619.07 1431.5 8584 1431.5V1432ZM8648 1368H8648.5C8648.5 1332.38 8619.62 1303.5 8584 1303.5V1304V1304.5C8619.07 1304.5 8647.5 1332.93 8647.5 1368H8648Z" fill="#BEBEBE" id="n629"/>
<path d="M8581.33 1223H8580.41V1216.89C8580.41 1216.66 8580.41 1216.46 8580.41 1216.3C8580.42 1216.14 8580.42 1216 8580.42 1215.86C8580.43 1215.72 8580.44 1215.57 8580.44 1215.43C8580.32 1215.55 8580.21 1215.65 8580.11 1215.74C8580 1215.82 8579.88 1215.93 8579.72 1216.06L8578.72 1216.86L8578.22 1216.22L8580.54 1214.43H8581.33V1223ZM8590.19 1223H8584.6V1222.22L8586.9 1219.86C8587.33 1219.43 8587.68 1219.05 8587.97 1218.72C8588.27 1218.38 8588.49 1218.05 8588.64 1217.72C8588.8 1217.39 8588.87 1217.03 8588.87 1216.63C8588.87 1216.14 8588.72 1215.77 8588.43 1215.51C8588.14 1215.25 8587.76 1215.12 8587.29 1215.12C8586.88 1215.12 8586.52 1215.19 8586.2 1215.33C8585.88 1215.48 8585.55 1215.68 8585.22 1215.93L8584.72 1215.3C8584.94 1215.1 8585.19 1214.94 8585.45 1214.79C8585.72 1214.64 8586.01 1214.52 8586.32 1214.44C8586.63 1214.36 8586.95 1214.31 8587.29 1214.31C8587.81 1214.31 8588.26 1214.4 8588.63 1214.59C8589.02 1214.77 8589.31 1215.04 8589.52 1215.38C8589.73 1215.72 8589.83 1216.12 8589.83 1216.58C8589.83 1216.92 8589.78 1217.25 8589.68 1217.55C8589.58 1217.85 8589.44 1218.14 8589.24 1218.43C8589.06 1218.71 8588.83 1219 8588.56 1219.29C8588.3 1219.58 8588 1219.88 8587.68 1220.2L8585.79 1222.1V1222.14H8590.19V1223Z" fill="#707070" id="n630"/>
<path d="M8581.25 1519.34C8581.25 1518.81 8581.29 1518.3 8581.36 1517.82C8581.44 1517.32 8581.57 1516.86 8581.74 1516.44C8581.92 1516.01 8582.15 1515.64 8582.45 1515.32C8582.75 1515 8583.11 1514.75 8583.54 1514.58C8583.98 1514.4 8584.51 1514.31 8585.13 1514.31C8585.3 1514.31 8585.49 1514.32 8585.69 1514.34C8585.9 1514.35 8586.07 1514.38 8586.19 1514.42V1515.24C8586.05 1515.19 8585.89 1515.15 8585.7 1515.13C8585.52 1515.1 8585.33 1515.09 8585.14 1515.09C8584.6 1515.09 8584.15 1515.18 8583.77 1515.37C8583.4 1515.54 8583.11 1515.8 8582.88 1516.12C8582.66 1516.45 8582.49 1516.84 8582.38 1517.28C8582.27 1517.72 8582.21 1518.2 8582.19 1518.72H8582.26C8582.38 1518.52 8582.53 1518.35 8582.71 1518.19C8582.91 1518.02 8583.14 1517.89 8583.41 1517.79C8583.68 1517.7 8584 1517.65 8584.36 1517.65C8584.85 1517.65 8585.29 1517.75 8585.65 1517.96C8586.03 1518.17 8586.32 1518.46 8586.53 1518.85C8586.74 1519.23 8586.84 1519.7 8586.84 1520.25C8586.84 1520.84 8586.73 1521.34 8586.51 1521.78C8586.29 1522.21 8585.98 1522.54 8585.58 1522.77C8585.18 1523 8584.7 1523.12 8584.14 1523.12C8583.72 1523.12 8583.33 1523.04 8582.98 1522.88C8582.63 1522.72 8582.32 1522.48 8582.05 1522.16C8581.8 1521.84 8581.6 1521.44 8581.45 1520.97C8581.32 1520.5 8581.25 1519.96 8581.25 1519.34ZM8584.13 1522.32C8584.67 1522.32 8585.11 1522.15 8585.43 1521.81C8585.75 1521.47 8585.91 1520.95 8585.91 1520.25C8585.91 1519.68 8585.76 1519.24 8585.47 1518.91C8585.19 1518.57 8584.75 1518.4 8584.18 1518.4C8583.78 1518.4 8583.43 1518.48 8583.13 1518.64C8582.85 1518.8 8582.62 1519.01 8582.45 1519.26C8582.29 1519.5 8582.21 1519.76 8582.21 1520.01C8582.21 1520.28 8582.25 1520.54 8582.32 1520.82C8582.4 1521.08 8582.52 1521.33 8582.68 1521.56C8582.84 1521.78 8583.04 1521.97 8583.28 1522.11C8583.52 1522.25 8583.8 1522.32 8584.13 1522.32Z" fill="#707070" id="n631"/>
<path d="M8738.95 1366.42C8738.95 1366.81 8738.87 1367.14 8738.72 1367.43C8738.57 1367.71 8738.37 1367.94 8738.09 1368.12C8737.83 1368.29 8737.52 1368.42 8737.16 1368.49V1368.54C8737.84 1368.62 8738.35 1368.83 8738.69 1369.18C8739.04 1369.54 8739.21 1370 8739.21 1370.58C8739.21 1371.07 8739.09 1371.51 8738.86 1371.9C8738.63 1372.28 8738.27 1372.58 8737.79 1372.8C8737.32 1373.01 8736.71 1373.12 8735.97 1373.12C8735.51 1373.12 8735.09 1373.08 8734.7 1373.01C8734.31 1372.94 8733.95 1372.82 8733.61 1372.65V1371.76C8733.96 1371.93 8734.34 1372.07 8734.76 1372.17C8735.18 1372.27 8735.59 1372.32 8735.98 1372.32C8736.77 1372.32 8737.33 1372.16 8737.69 1371.85C8738.04 1371.54 8738.21 1371.11 8738.21 1370.56C8738.21 1370.18 8738.12 1369.88 8737.93 1369.65C8737.73 1369.42 8737.45 1369.25 8737.09 1369.15C8736.72 1369.04 8736.28 1368.98 8735.77 1368.98H8734.91V1368.16H8735.78C8736.24 1368.16 8736.63 1368.1 8736.95 1367.96C8737.28 1367.82 8737.53 1367.63 8737.71 1367.38C8737.89 1367.13 8737.97 1366.83 8737.97 1366.48C8737.97 1366.04 8737.83 1365.71 8737.53 1365.48C8737.24 1365.24 8736.85 1365.12 8736.34 1365.12C8736.04 1365.12 8735.76 1365.15 8735.5 1365.21C8735.25 1365.27 8735.02 1365.35 8734.79 1365.46C8734.58 1365.57 8734.36 1365.7 8734.13 1365.85L8733.67 1365.2C8733.88 1365.04 8734.12 1364.89 8734.39 1364.76C8734.66 1364.62 8734.95 1364.51 8735.27 1364.43C8735.6 1364.35 8735.95 1364.31 8736.33 1364.31C8737.2 1364.31 8737.85 1364.51 8738.29 1364.9C8738.73 1365.29 8738.95 1365.8 8738.95 1366.42Z" fill="#707070" id="n632"/>
<path d="M8434.27 1368.08C8434.27 1368.61 8434.23 1369.12 8434.15 1369.62C8434.08 1370.11 8433.95 1370.57 8433.78 1371C8433.6 1371.42 8433.37 1371.79 8433.07 1372.11C8432.77 1372.43 8432.41 1372.68 8431.97 1372.86C8431.53 1373.03 8431 1373.12 8430.38 1373.12C8430.21 1373.12 8430.02 1373.11 8429.81 1373.08C8429.59 1373.07 8429.41 1373.04 8429.28 1373V1372.18C8429.42 1372.23 8429.59 1372.27 8429.78 1372.3C8429.98 1372.33 8430.18 1372.34 8430.37 1372.34C8430.91 1372.34 8431.37 1372.25 8431.74 1372.08C8432.11 1371.89 8432.4 1371.64 8432.63 1371.32C8432.86 1370.99 8433.03 1370.61 8433.13 1370.17C8433.24 1369.72 8433.31 1369.24 8433.32 1368.72H8433.25C8433.14 1368.91 8432.99 1369.09 8432.79 1369.26C8432.6 1369.42 8432.37 1369.54 8432.1 1369.64C8431.83 1369.74 8431.51 1369.78 8431.14 1369.78C8430.64 1369.78 8430.21 1369.68 8429.83 1369.47C8429.46 1369.26 8429.18 1368.97 8428.98 1368.58C8428.78 1368.2 8428.68 1367.74 8428.68 1367.19C8428.68 1366.6 8428.79 1366.09 8429.01 1365.66C8429.24 1365.22 8429.55 1364.89 8429.95 1364.66C8430.36 1364.43 8430.84 1364.31 8431.39 1364.31C8431.81 1364.31 8432.2 1364.4 8432.55 1364.56C8432.91 1364.72 8433.21 1364.96 8433.47 1365.28C8433.72 1365.6 8433.92 1366 8434.05 1366.47C8434.2 1366.94 8434.27 1367.47 8434.27 1368.08ZM8431.39 1365.12C8430.85 1365.12 8430.42 1365.29 8430.09 1365.63C8429.77 1365.98 8429.61 1366.49 8429.61 1367.18C8429.61 1367.76 8429.75 1368.21 8430.03 1368.54C8430.31 1368.86 8430.75 1369.03 8431.33 1369.03C8431.74 1369.03 8432.09 1368.95 8432.37 1368.79C8432.67 1368.63 8432.9 1368.42 8433.06 1368.18C8433.23 1367.93 8433.31 1367.67 8433.31 1367.41C8433.31 1367.16 8433.27 1366.9 8433.19 1366.63C8433.12 1366.36 8433 1366.11 8432.84 1365.88C8432.69 1365.65 8432.49 1365.47 8432.24 1365.33C8432 1365.19 8431.72 1365.12 8431.39 1365.12Z" fill="#707070" id="n633"/>
<path d="M8452.43 1298L8451.51 1298L8451.51 1291.89C8451.51 1291.66 8451.51 1291.46 8451.51 1291.3C8451.51 1291.14 8451.52 1291 8451.52 1290.86C8451.53 1290.72 8451.53 1290.57 8451.54 1290.43C8451.42 1290.55 8451.31 1290.65 8451.21 1290.74C8451.1 1290.82 8450.97 1290.93 8450.82 1291.06L8449.81 1291.86L8449.32 1291.22L8451.64 1289.43L8452.43 1289.43L8452.43 1298ZM8461.35 1293.7C8461.35 1294.4 8461.29 1295.02 8461.18 1295.58C8461.08 1296.12 8460.91 1296.58 8460.69 1296.96C8460.47 1297.33 8460.17 1297.62 8459.81 1297.82C8459.45 1298.02 8459.02 1298.12 8458.52 1298.12C8457.89 1298.12 8457.37 1297.95 8456.95 1297.6C8456.53 1297.25 8456.22 1296.75 8456.01 1296.09C8455.81 1295.43 8455.71 1294.63 8455.71 1293.7C8455.71 1292.79 8455.8 1292.01 8455.99 1291.35C8456.17 1290.69 8456.47 1290.18 8456.89 1289.83C8457.3 1289.48 8457.85 1289.3 8458.52 1289.3C8459.17 1289.3 8459.7 1289.48 8460.11 1289.83C8460.53 1290.18 8460.84 1290.68 8461.04 1291.34C8461.25 1292 8461.35 1292.78 8461.35 1293.7ZM8456.66 1293.7C8456.66 1294.51 8456.72 1295.18 8456.84 1295.72C8456.97 1296.25 8457.17 1296.65 8457.44 1296.92C8457.71 1297.18 8458.07 1297.32 8458.52 1297.32C8458.97 1297.32 8459.33 1297.18 8459.6 1296.92C8459.87 1296.66 8460.07 1296.26 8460.2 1295.72C8460.33 1295.18 8460.39 1294.51 8460.39 1293.7C8460.39 1292.91 8460.33 1292.25 8460.2 1291.72C8460.08 1291.19 8459.88 1290.78 8459.61 1290.51C8459.35 1290.24 8458.98 1290.1 8458.52 1290.1C8458.06 1290.1 8457.7 1290.24 8457.43 1290.52C8457.15 1290.8 8456.96 1291.2 8456.84 1291.74C8456.72 1292.26 8456.66 1292.92 8456.66 1293.7Z" fill="#707070" id="n634"/>
<path d="M8714.61 1446L8713.31 1446L8713.31 1448L8712.4 1448L8712.4 1446L8708.23 1446L8708.23 1445.2L8712.33 1439.38L8713.31 1439.38L8713.31 1445.14L8714.61 1445.14L8714.61 1446ZM8712.4 1442.3C8712.4 1442.08 8712.4 1441.89 8712.4 1441.72C8712.4 1441.55 8712.4 1441.39 8712.41 1441.24C8712.42 1441.09 8712.42 1440.95 8712.42 1440.81C8712.43 1440.67 8712.44 1440.53 8712.45 1440.4L8712.4 1440.4C8712.33 1440.56 8712.24 1440.73 8712.15 1440.91C8712.05 1441.08 8711.95 1441.23 8711.85 1441.36L8709.17 1445.14L8712.4 1445.14L8712.4 1442.3Z" fill="#707070" id="n635"/>
<path d="M8662.27 1243.1L8661.34 1243.1L8661.34 1236.99C8661.34 1236.76 8661.34 1236.56 8661.34 1236.4C8661.35 1236.24 8661.36 1236.09 8661.36 1235.96C8661.36 1235.81 8661.37 1235.67 8661.38 1235.52C8661.26 1235.64 8661.15 1235.75 8661.04 1235.84C8660.94 1235.92 8660.81 1236.02 8660.66 1236.16L8659.65 1236.95L8659.16 1236.32L8661.48 1234.53L8662.27 1234.53L8662.27 1243.1Z" fill="#707070" id="n636"/>
<path d="M8504.78 1502.9L8508.31 1495.2L8503.62 1495.2L8503.62 1494.34L8509.32 1494.34L8509.32 1495.06L8505.83 1502.9L8504.78 1502.9Z" fill="#707070" id="n637"/>
<path d="M8507.34 1243.1H8506.41V1236.99C8506.41 1236.76 8506.41 1236.56 8506.41 1236.4C8506.42 1236.24 8506.42 1236.09 8506.42 1235.96C8506.43 1235.81 8506.44 1235.67 8506.45 1235.52C8506.33 1235.64 8506.22 1235.75 8506.11 1235.84C8506.01 1235.92 8505.88 1236.02 8505.73 1236.16L8504.72 1236.95L8504.23 1236.32L8506.54 1234.53H8507.34V1243.1ZM8514.2 1243.1H8513.28V1236.99C8513.28 1236.76 8513.28 1236.56 8513.28 1236.4C8513.29 1236.24 8513.29 1236.09 8513.29 1235.96C8513.3 1235.81 8513.31 1235.67 8513.31 1235.52C8513.19 1235.64 8513.08 1235.75 8512.98 1235.84C8512.87 1235.92 8512.75 1236.02 8512.59 1236.16L8511.59 1236.95L8511.09 1236.32L8513.41 1234.53H8514.2V1243.1Z" fill="#707070" id="n638"/>
<path d="M8661.37 1497.67C8661.95 1497.67 8662.46 1497.77 8662.88 1497.97C8663.31 1498.17 8663.64 1498.46 8663.88 1498.84C8664.11 1499.2 8664.22 1499.66 8664.22 1500.19C8664.22 1500.78 8664.1 1501.28 8663.84 1501.7C8663.59 1502.13 8663.23 1502.46 8662.75 1502.69C8662.28 1502.91 8661.71 1503.02 8661.06 1503.02C8660.61 1503.02 8660.19 1502.98 8659.81 1502.9C8659.43 1502.82 8659.11 1502.7 8658.85 1502.56V1501.66C8659.13 1501.82 8659.47 1501.96 8659.87 1502.06C8660.28 1502.17 8660.68 1502.22 8661.07 1502.22C8661.51 1502.22 8661.89 1502.15 8662.22 1502C8662.55 1501.86 8662.8 1501.64 8662.99 1501.36C8663.17 1501.07 8663.26 1500.71 8663.26 1500.28C8663.26 1499.7 8663.08 1499.26 8662.72 1498.94C8662.37 1498.62 8661.82 1498.46 8661.07 1498.46C8660.83 1498.46 8660.56 1498.49 8660.26 1498.54C8659.98 1498.58 8659.74 1498.62 8659.54 1498.67L8659.06 1498.36L8659.39 1494.34H8663.65V1495.2H8660.19L8659.98 1497.82C8660.12 1497.79 8660.31 1497.76 8660.55 1497.73C8660.79 1497.69 8661.06 1497.67 8661.37 1497.67Z" fill="#707070" id="n639"/>
<path d="M8719.16 1298H8713.57V1297.22L8715.87 1294.86C8716.3 1294.43 8716.65 1294.05 8716.94 1293.72C8717.24 1293.38 8717.46 1293.05 8717.61 1292.72C8717.77 1292.39 8717.84 1292.03 8717.84 1291.63C8717.84 1291.14 8717.69 1290.77 8717.4 1290.51C8717.11 1290.25 8716.73 1290.12 8716.26 1290.12C8715.85 1290.12 8715.49 1290.19 8715.17 1290.33C8714.85 1290.48 8714.52 1290.68 8714.19 1290.93L8713.69 1290.3C8713.91 1290.1 8714.16 1289.94 8714.42 1289.79C8714.69 1289.64 8714.98 1289.52 8715.29 1289.44C8715.6 1289.36 8715.92 1289.31 8716.26 1289.31C8716.78 1289.31 8717.23 1289.4 8717.6 1289.59C8717.99 1289.77 8718.28 1290.04 8718.49 1290.38C8718.7 1290.72 8718.8 1291.12 8718.8 1291.58C8718.8 1291.92 8718.75 1292.25 8718.65 1292.55C8718.55 1292.85 8718.41 1293.14 8718.21 1293.43C8718.03 1293.71 8717.8 1294 8717.53 1294.29C8717.27 1294.58 8716.97 1294.88 8716.65 1295.2L8714.76 1297.1V1297.14H8719.16V1298Z" fill="#707070" id="n640"/>
<path d="M8451.58 1439.31C8452.08 1439.31 8452.52 1439.39 8452.89 1439.55C8453.28 1439.7 8453.58 1439.93 8453.79 1440.24C8454.01 1440.54 8454.12 1440.91 8454.12 1441.35C8454.12 1441.7 8454.04 1442 8453.89 1442.25C8453.74 1442.51 8453.54 1442.74 8453.29 1442.94C8453.03 1443.13 8452.75 1443.3 8452.44 1443.45C8452.8 1443.62 8453.14 1443.81 8453.43 1444.03C8453.73 1444.24 8453.96 1444.48 8454.13 1444.77C8454.3 1445.05 8454.39 1445.39 8454.39 1445.79C8454.39 1446.27 8454.28 1446.68 8454.04 1447.03C8453.81 1447.37 8453.48 1447.64 8453.06 1447.83C8452.64 1448.02 8452.16 1448.12 8451.61 1448.12C8451.01 1448.12 8450.5 1448.03 8450.07 1447.84C8449.65 1447.66 8449.32 1447.4 8449.1 1447.06C8448.88 1446.72 8448.78 1446.31 8448.78 1445.83C8448.78 1445.43 8448.86 1445.08 8449.03 1444.8C8449.2 1444.5 8449.42 1444.25 8449.7 1444.04C8449.99 1443.83 8450.3 1443.66 8450.62 1443.51C8450.34 1443.35 8450.07 1443.17 8449.83 1442.97C8449.59 1442.77 8449.4 1442.54 8449.26 1442.28C8449.12 1442.01 8449.05 1441.7 8449.05 1441.34C8449.05 1440.91 8449.16 1440.54 8449.38 1440.25C8449.6 1439.94 8449.9 1439.71 8450.28 1439.55C8450.66 1439.39 8451.1 1439.31 8451.58 1439.31ZM8449.7 1445.84C8449.7 1446.28 8449.86 1446.64 8450.17 1446.93C8450.49 1447.22 8450.96 1447.36 8451.58 1447.36C8451.98 1447.36 8452.32 1447.3 8452.6 1447.17C8452.88 1447.04 8453.1 1446.85 8453.24 1446.62C8453.39 1446.38 8453.47 1446.1 8453.47 1445.79C8453.47 1445.5 8453.39 1445.25 8453.24 1445.04C8453.1 1444.81 8452.89 1444.62 8452.62 1444.45C8452.34 1444.27 8452.02 1444.12 8451.63 1443.98L8451.43 1443.9C8451.06 1444.05 8450.75 1444.22 8450.49 1444.4C8450.24 1444.58 8450.04 1444.78 8449.9 1445.01C8449.77 1445.24 8449.7 1445.52 8449.7 1445.84ZM8451.57 1440.08C8451.11 1440.08 8450.72 1440.19 8450.42 1440.42C8450.12 1440.64 8449.98 1440.96 8449.98 1441.39C8449.98 1441.68 8450.05 1441.94 8450.19 1442.14C8450.34 1442.35 8450.54 1442.53 8450.79 1442.67C8451.04 1442.82 8451.32 1442.96 8451.63 1443.09C8451.94 1442.96 8452.2 1442.82 8452.42 1442.67C8452.66 1442.52 8452.84 1442.34 8452.98 1442.13C8453.11 1441.92 8453.18 1441.67 8453.18 1441.38C8453.18 1440.95 8453.03 1440.63 8452.74 1440.42C8452.45 1440.19 8452.06 1440.08 8451.57 1440.08Z" fill="#707070" id="n641"/>
<g mask="url(#mask108_68_6728)" id="n644">
<mask id="mask109_68_6728" style="mask-type:alpha" maskUnits="userSpaceOnUse" x="8328" y="1112" width="512" height="512">
<path d="M8584 1188C8683.41 1188 8764 1268.59 8764 1368C8764 1467.41 8683.41 1548 8584 1548C8484.59 1548 8404 1467.41 8404 1368C8404 1268.59 8484.59 1188 8584 1188ZM8584 1192C8486.8 1192 8408 1270.8 8408 1368C8408 1465.2 8486.8 1544 8584 1544C8681.2 1544 8760 1465.2 8760 1368C8760 1270.8 8681.2 1192 8584 1192Z" fill="white" id="n645"/>
</mask>
<g mask="url(#mask109_68_6728)" id="n646">
<path d="M8584 1168L8584 1368M8584 1368L8584 1568M8584 1368L8563.1 1169.1M8584 1368L8604.91 1566.9M8584 1368L8522.2 1177.79M8584 1368L8645.81 1558.21M8584 1368L8502.65 1185.29M8584 1368L8665.35 1550.71M8584 1368L8484 1194.8M8584 1368L8684 1541.21M8584 1368L8466.44 1206.2M8584 1368L8701.56 1529.8M8584 1368L8450.17 1219.37M8584 1368L8717.83 1516.63M8584 1368L8435.37 1234.18M8584 1368L8732.63 1501.83M8584 1368L8422.2 1250.45M8584 1368L8745.8 1485.56M8584 1368L8410.79 1268M8584 1368L8757.2 1468M8584 1368L8401.29 1286.66M8584 1368L8766.71 1449.35M8584 1368L8393.79 1306.2M8584 1368L8774.21 1429.81M8584 1368L8388.37 1326.42M8584 1368L8779.63 1409.59M8584 1368L8385.1 1347.1M8584 1368L8782.91 1388.91M8584 1368L8384 1368.01M8584 1368L8784 1368.01M8584 1368L8385.1 1388.91M8584 1368L8782.9 1347.1M8584 1368L8388.37 1409.59M8584 1368L8779.63 1326.42M8584 1368L8393.79 1429.81M8584 1368L8774.21 1306.2M8584 1368L8401.29 1449.35M8584 1368L8766.71 1286.66M8584 1368L8410.8 1468.01M8584 1368L8757.21 1268.01M8584 1368L8422.2 1485.57M8584 1368L8745.8 1250.45M8584 1368L8435.37 1501.83M8584 1368L8732.63 1234.18M8584 1368L8450.18 1516.64M8584 1368L8717.83 1219.38M8584 1368L8466.45 1529.81M8584 1368L8701.56 1206.21M8584 1368L8484 1541.21M8584 1368L8684 1194.8M8584 1368L8502.66 1550.72M8584 1368L8665.35 1185.3M8584 1368L8522.2 1558.22M8584 1368L8645.81 1177.8M8584 1368L8542.42 1563.64M8584 1368L8625.59 1172.38M8584 1368L8542.42 1172.37M8584 1368L8625.59 1563.63M8584 1368L8563.1 1566.91M8584 1368L8604.91 1169.1" stroke="#BEBEBE" id="n647"/>
</g>
<mask id="mask110_68_6728" style="mask-type:alpha" maskUnits="userSpaceOnUse" x="8328" y="1112" width="512" height="512">
<path d="M8584 1188C8683.41 1188 8764 1268.59 8764 1368C8764 1467.41 8683.41 1548 8584 1548C8484.59 1548 8404 1467.41 8404 1368C8404 1268.59 8484.59 1188 8584 1188ZM8584 1196C8489.01 1196 8412 1273.01 8412 1368C8412 1462.99 8489.01 1540 8584 1540C8678.99 1540 8756 1462.99 8756 1368C8756 1273.01 8678.99 1196 8584 1196Z" fill="white" id="n648"/>
</mask>
<g mask="url(#mask110_68_6728)" id="n649">
<path d="M8584 1168L8584 1368M8584 1568L8584 1368M8484 1194.79L8584 1368M8684 1541.21L8584 1368M8410.79 1268L8584 1368M8757.21 1468L8584 1368M8384 1368H8584M8784 1368L8584 1368M8410.79 1468L8584 1368M8757.21 1268L8584 1368M8484 1541.21L8584 1368M8684 1194.79L8584 1368" stroke="#BEBEBE" id="n650"/>
</g>
<mask id="mask111_68_6728" style="mask-type:alpha" maskUnits="userSpaceOnUse" x="8328" y="1112" width="512" height="512">
<path d="M8584 1188C8683.41 1188 8764 1268.59 8764 1368C8764 1467.41 8683.41 1548 8584 1548C8484.59 1548 8404 1467.41 8404 1368C8404 1268.59 8484.59 1188 8584 1188ZM8584 1208C8495.63 1208 8424 1279.63 8424 1368C8424 1456.37 8495.63 1528 8584 1528C8672.37 1528 8744 1456.37 8744 1368C8744 1279.63 8672.37 1208 8584 1208Z" fill="white" id="n651"/>
</mask>
<g mask="url(#mask111_68_6728)" id="n652">
<path d="M8784 1368H8584M8384 1368L8584 1368M8584 1168V1368M8584 1568V1368" stroke="#BEBEBE" id="n653"/>
</g>
<mask id="mask112_68_6728" style="mask-type:alpha" maskUnits="userSpaceOnUse" x="8328" y="1112" width="512" height="512">
<path d="M8584 1180C8687.83 1180 8772 1264.17 8772 1368C8772 1471.83 8687.83 1556 8584 1556C8480.17 1556 8396 1471.83 8396 1368C8396 1264.17 8480.17 1180 8584 1180ZM8584 1208C8495.63 1208 8424 1279.63 8424 1368C8424 1456.37 8495.63 1528 8584 1528C8672.37 1528 8744 1456.37 8744 1368C8744 1279.63 8672.37 1208 8584 1208Z" fill="white" id="n654"/>
</mask>
<g mask="url(#mask112_68_6728)" id="n655">
<path d="M8584 1168V1368M8584 1368H8384M8584 1368V1568M8584 1368H8784" stroke="#BEBEBE" id="n656"/>
</g>
</g>
<rect x="8718.6" y="1289.13" width="2" height="156" rx="0.999999" transform="rotate(60 8718.6 1289.13)" fill="#535353" stroke="#535353" stroke-width="2" id="n657"/>
<rect x="8717.1" y="1286.53" width="8" height="132" rx="4" transform="rotate(60 8717.1 1286.53)" fill="white" stroke="#535353" stroke-width="4" id="n658"/>
<rect x="8585.46" y="1362.53" width="8" height="8" rx="4" transform="rotate(60 8585.46 1362.53)" fill="#535353" stroke="#535353" stroke-width="4" id="n659"/>
<rect x="8562.71" y="1356.86" width="2" height="24" rx="0.999999" transform="rotate(-60 8562.71 1356.86)" fill="#535353" stroke="#535353" stroke-width="2" id="n660"/>
<rect x="8490.2" y="1318.46" width="8" height="82" rx="4" transform="rotate(-60 8490.2 1318.46)" fill="#535353" stroke="#535353" stroke-width="4" id="n661"/>
<rect x="8578.54" y="1369.46" width="8" height="8" rx="4" transform="rotate(-60 8578.54 1369.46)" fill="#535353" stroke="#535353" stroke-width="4" id="n662"/>
<rect x="8586.5" y="1525.49" width="5" height="175" rx="2.5" transform="rotate(-180 8586.5 1525.49)" fill="#2D548B" stroke="white" stroke-width="3" id="n663"/>
<rect x="8585" y="1523.99" width="2" height="172" rx="0.999999" transform="rotate(-180 8585 1523.99)" fill="#2D548B" stroke="#2D548B" stroke-width="2" id="n664"/>
<rect x="8590" y="1373.99" width="12" height="12" rx="6" transform="rotate(-180 8590 1373.99)" fill="white" stroke="#2D548B" stroke-width="4" id="n665"/>
</g>
</svg>
