<?xml version='1.0' encoding='utf-8'?>
<svg xmlns="http://www.w3.org/2000/svg" xmlns:xlink="http://www.w3.org/1999/xlink" width="66.0" height="312.0" viewBox="0 0 66.0 312.0" fill="none">
  <defs>
    <clipPath id="clip__asset">
      <rect x="0" y="0" width="66.0" height="312.0"/>
    </clipPath>
  </defs>
  <g clip-path="url(#clip__asset)" transform="translate(-10292.54 -1875.28)"><circle cx="10307" cy="1976" r="12" stroke="#BEBEBE" id="n258"/>
<path d="M10336 1976C10336 1992.02 10323 2005 10307 2005C10291 2005 10278 1992.02 10278 1976C10278 1959.98 10291 1947 10307 1947C10323 1947 10336 1959.98 10336 1976Z" stroke="#BEBEBE" id="n260"/>
<path d="M10307 1720L10307 2232" stroke="#BEBEBE" stroke-linecap="square" id="n275"/>
<path d="M10309.7 2180.73C10309.7 2181.24 10309.6 2181.68 10309.3 2182.03C10309.1 2182.38 10308.7 2182.65 10308.3 2182.84C10307.8 2183.03 10307.3 2183.12 10306.7 2183.12C10306.4 2183.12 10306 2183.1 10305.8 2183.07C10305.5 2183.04 10305.2 2183 10305 2182.94C10304.7 2182.88 10304.5 2182.8 10304.3 2182.72V2181.79C10304.6 2181.92 10305 2182.03 10305.4 2182.14C10305.8 2182.23 10306.3 2182.28 10306.7 2182.28C10307.2 2182.28 10307.5 2182.22 10307.8 2182.11C10308.1 2181.99 10308.4 2181.82 10308.5 2181.61C10308.7 2181.38 10308.8 2181.12 10308.8 2180.8C10308.8 2180.51 10308.7 2180.26 10308.5 2180.06C10308.4 2179.86 10308.2 2179.68 10307.9 2179.52C10307.6 2179.35 10307.2 2179.18 10306.7 2179C10306.3 2178.87 10306 2178.72 10305.7 2178.57C10305.4 2178.42 10305.2 2178.25 10305 2178.06C10304.8 2177.86 10304.7 2177.64 10304.6 2177.38C10304.5 2177.13 10304.4 2176.83 10304.4 2176.5C10304.4 2176.03 10304.6 2175.64 10304.8 2175.32C10305 2174.99 10305.3 2174.74 10305.8 2174.58C10306.2 2174.4 10306.6 2174.31 10307.2 2174.31C10307.6 2174.31 10308.1 2174.36 10308.4 2174.44C10308.8 2174.52 10309.2 2174.64 10309.5 2174.79L10309.2 2175.61C10308.9 2175.48 10308.6 2175.38 10308.2 2175.3C10307.9 2175.21 10307.5 2175.16 10307.1 2175.16C10306.8 2175.16 10306.5 2175.22 10306.2 2175.33C10306 2175.44 10305.8 2175.59 10305.6 2175.79C10305.5 2175.99 10305.4 2176.22 10305.4 2176.5C10305.4 2176.81 10305.5 2177.06 10305.6 2177.26C10305.7 2177.46 10306 2177.64 10306.2 2177.79C10306.5 2177.94 10306.9 2178.1 10307.3 2178.27C10307.8 2178.46 10308.3 2178.65 10308.6 2178.86C10309 2179.07 10309.3 2179.32 10309.4 2179.62C10309.6 2179.9 10309.7 2180.28 10309.7 2180.73Z" fill="#707070" id="n285"/>
<path d="M10298.3 1974.89L10293.3 1956.16C10288.2 1937.09 10296 1935 10296 1935C10296 1935 10303.8 1932.9 10308.9 1951.96L10315.6 1976.94L10325 2011.82C10325.3 2012.88 10324.6 2013.98 10323.6 2014.27L10323.5 2014.27L10311.8 2017.42L10311.8 2017.42C10310.7 2017.71 10309.6 2017.08 10309.3 2016.01L10298.3 1974.89Z" fill="white" id="n290"/>
<path d="M10298.3 1974.89L10299.9 1970.25L10299 1966.96L10309.7 1964.08L10312.7 1975.25L10315.6 1976.94M10315.6 1976.94L10325 2011.82C10325.3 2012.88 10324.6 2013.98 10323.6 2014.27L10323.5 2014.27L10311.8 2017.42L10311.8 2017.42C10310.7 2017.71 10309.6 2017.08 10309.3 2016.01L10293.3 1956.16C10288.2 1937.09 10296 1935 10296 1935C10296 1935 10303.8 1932.9 10308.9 1951.96L10315.6 1976.94Z" stroke="#8E8E8E" id="n291"/>
<path d="M10298 1963.13L10294 1964.17L10292.6 1958.96L10295.9 1955.3L10296.7 1948.08L10301.9 1946.69L10306.3 1952.51L10310.9 1954.07L10312.3 1959.28L10308.4 1960.33L10307 1962.81L10300.4 1964.56L10298 1963.13Z" fill="white" id="n292"/>
<path d="M10300.4 1964.56L10298 1963.13L10294 1964.17L10292.6 1958.96L10295.9 1955.3L10296.7 1948.08M10300.4 1964.56L10307 1962.81M10300.4 1964.56L10298 1955.43C10297.5 1952.84 10296.7 1948.08 10296.7 1948.08M10307 1962.81L10308.4 1960.33L10312.3 1959.28L10310.9 1954.07L10306.3 1952.51L10301.9 1946.69M10307 1962.81L10304.5 1953.68C10303.7 1951.17 10301.9 1946.69 10301.9 1946.69M10301.9 1946.69L10296.7 1948.08" stroke="#8E8E8E" id="n293"/>
<path d="M10305.5 1957.52L10306.4 1960.78L10305.3 1961.78L10301.4 1962.83L10299.9 1962.53L10299 1959.27L10300.8 1960.88L10304.8 1959.83L10305.5 1957.52Z" fill="white" id="n294"/>
<path d="M10304.8 1959.83L10305.5 1957.52L10306.4 1960.78L10305.3 1961.78M10304.8 1959.83L10300.8 1960.88M10304.8 1959.83L10305.3 1961.78M10300.8 1960.88L10299 1959.27L10299.9 1962.53L10301.4 1962.83M10300.8 1960.88L10301.4 1962.83M10301.4 1962.83L10305.3 1961.78" stroke="#8E8E8E" id="n295"/>
<path d="M10313 1976C10313 1979.31 10310.3 1982 10307 1982C10303.7 1982 10301 1979.31 10301 1976C10301 1972.69 10303.7 1970 10307 1970C10310.3 1970 10313 1972.69 10313 1976Z" fill="#535353" stroke="#F7F7F7" stroke-width="4" id="n297"/>
</g>
</svg>
