<?xml version='1.0' encoding='utf-8'?>
<svg xmlns="http://www.w3.org/2000/svg" xmlns:xlink="http://www.w3.org/1999/xlink" width="320.0" height="600.0" viewBox="0 0 320.0 600.0" fill="none">
  <defs><clipPath id="clip__asset"><rect x="0" y="0" width="320.0" height="600.0"/></clipPath><mask id="path-1425-inside-119_1702_11540" fill="white">
<path d="M6809 232H7129V504H6809V232Z" id="n1803"/>
</mask>
<mask id="path-1436-inside-120_1702_11540" fill="white">
<path d="M6833 405.6C6833 402.24 6833 400.56 6833.65 399.276C6834.23 398.147 6835.15 397.229 6836.28 396.654C6837.56 396 6839.24 396 6842.6 396H6901V428H6842.6C6839.24 428 6837.56 428 6836.28 427.346C6835.15 426.771 6834.23 425.853 6833.65 424.724C6833 423.44 6833 421.76 6833 418.4V405.6Z" id="n1813"/>
</mask>
<mask id="path-1439-inside-121_1702_11540" fill="white">
<path d="M6901 396H6969V428H6901V396Z" id="n1818"/>
</mask>
<mask id="path-1442-inside-122_1702_11540" fill="white">
<path d="M6969 396H7037V428H6969V396Z" id="n1822"/>
</mask>
<mask id="path-1446-inside-123_1702_11540" fill="white">
<path d="M7037 396H7095.4C7098.76 396 7100.44 396 7101.72 396.654C7102.85 397.229 7103.77 398.147 7104.35 399.276C7105 400.56 7105 402.24 7105 405.6V418.4C7105 421.76 7105 423.44 7104.35 424.724C7103.77 425.853 7102.85 426.771 7101.72 427.346C7100.44 428 7098.76 428 7095.4 428H7037V396Z" id="n1826"/>
</mask>
<mask id="path-1460-inside-124_1702_11540" fill="white">
<path d="M6833 665.6C6833 662.24 6833 660.56 6833.65 659.276C6834.23 658.147 6835.15 657.229 6836.28 656.654C6837.56 656 6839.24 656 6842.6 656H6969V704H6842.6C6839.24 704 6837.56 704 6836.28 703.346C6835.15 702.771 6834.23 701.853 6833.65 700.724C6833 699.44 6833 697.76 6833 694.4V665.6Z" id="n1845"/>
</mask>
<mask id="path-1464-inside-125_1702_11540" fill="white">
<path d="M6969 656H7095.4C7098.76 656 7100.44 656 7101.72 656.654C7102.85 657.229 7103.77 658.147 7104.35 659.276C7105 660.56 7105 662.24 7105 665.6V694.4C7105 697.76 7105 699.44 7104.35 700.724C7103.77 701.853 7102.85 702.771 7101.72 703.346C7100.44 704 7098.76 704 7095.4 704H6969V656Z" id="n1850"/>
</mask>
<mask id="path-1472-inside-126_1702_11540" fill="white">
<path d="M6809 768H7129V832H6809V768Z" id="n1862"/>
</mask>
<filter id="filter35_d_1702_11540" x="6793" y="220" width="352" height="632" filterUnits="userSpaceOnUse" color-interpolation-filters="sRGB">
<feFlood flood-opacity="0" result="BackgroundImageFix" id="n3376"/>
<feColorMatrix in="SourceAlpha" type="matrix" values="0 0 0 0 0 0 0 0 0 0 0 0 0 0 0 0 0 0 127 0" result="hardAlpha" id="n3377"/>
<feOffset dy="4" id="n3378"/>
<feGaussianBlur stdDeviation="8" id="n3379"/>
<feComposite in2="hardAlpha" operator="out" id="n3380"/>
<feColorMatrix type="matrix" values="0 0 0 0 0 0 0 0 0 0 0 0 0 0 0 0 0 0 0.32 0" id="n3381"/>
<feBlend mode="normal" in2="BackgroundImageFix" result="effect1_dropShadow_1702_11540" id="n3382"/>
<feBlend mode="normal" in="SourceGraphic" in2="effect1_dropShadow_1702_11540" result="shape" id="n3383"/>
</filter>
<clipPath id="clip53_1702_11540">
<path d="M6809 244C6809 237.373 6814.37 232 6821 232H7117C7123.63 232 7129 237.373 7129 244V820C7129 826.627 7123.63 832 7117 832H6821C6814.37 832 6809 826.627 6809 820V244Z" fill="white" id="n3488"/>
</clipPath>
</defs>
  <g clip-path="url(#clip__asset)" transform="translate(-6809.0 -232.0)"><g filter="url(#filter35_d_1702_11540)" id="n1800">
<g clip-path="url(#clip53_1702_11540)" id="n1801">
<path d="M6809 244C6809 237.373 6814.37 232 6821 232H7117C7123.63 232 7129 237.373 7129 244V820C7129 826.627 7123.63 832 7117 832H6821C6814.37 832 6809 826.627 6809 820V244Z" fill="#FCFCFC" id="n1802"/>
<mask id="path-1425-inside-119_1702_11540" fill="white">
<path d="M6809 232H7129V504H6809V232Z" id="n1803"/>
</mask>
<path d="M7129 504V503H6809V504V505H7129V504Z" fill="#DDDDDD" mask="url(#path-1425-inside-119_1702_11540)" id="n1804"/>
<path d="M6837.91 254.576C6838.89 254.576 6839.71 254.672 6840.38 254.864C6841.05 255.045 6841.55 255.344 6841.88 255.76C6842.22 256.176 6842.39 256.736 6842.39 257.44C6842.39 257.877 6842.32 258.272 6842.17 258.624C6842.02 258.976 6841.79 259.264 6841.5 259.488C6841.21 259.712 6840.86 259.861 6840.44 259.936V260.016C6840.87 260.091 6841.25 260.229 6841.59 260.432C6841.94 260.624 6842.22 260.907 6842.42 261.28C6842.63 261.643 6842.73 262.123 6842.73 262.72C6842.73 263.413 6842.56 264.005 6842.23 264.496C6841.9 264.987 6841.43 265.36 6840.82 265.616C6840.22 265.872 6839.49 266 6838.65 266H6834.49V254.576H6837.91ZM6838.18 259.264C6839.03 259.264 6839.6 259.131 6839.91 258.864C6840.23 258.597 6840.39 258.203 6840.39 257.68C6840.39 257.157 6840.2 256.784 6839.82 256.56C6839.44 256.325 6838.84 256.208 6838.01 256.208H6836.44V259.264H6838.18ZM6836.44 260.848V264.368H6838.38C6839.24 264.368 6839.84 264.203 6840.17 263.872C6840.51 263.531 6840.68 263.088 6840.68 262.544C6840.68 262.192 6840.61 261.893 6840.46 261.648C6840.31 261.392 6840.06 261.195 6839.7 261.056C6839.35 260.917 6838.88 260.848 6838.28 260.848H6836.44ZM6849.5 257.184C6849.64 257.184 6849.8 257.189 6849.97 257.2C6850.14 257.211 6850.28 257.232 6850.4 257.264L6850.22 259.056C6850.13 259.024 6850 259.003 6849.84 258.992C6849.69 258.971 6849.55 258.96 6849.42 258.96C6849.1 258.96 6848.79 259.013 6848.5 259.12C6848.21 259.227 6847.95 259.387 6847.71 259.6C6847.48 259.803 6847.29 260.064 6847.15 260.384C6847.02 260.693 6846.96 261.061 6846.96 261.488V266H6845.04V257.344H6846.54L6846.8 258.864H6846.9C6847.07 258.555 6847.28 258.272 6847.54 258.016C6847.79 257.76 6848.09 257.557 6848.42 257.408C6848.76 257.259 6849.12 257.184 6849.5 257.184ZM6854.06 257.344V266H6852.14V257.344H6854.06ZM6853.12 254.016C6853.41 254.016 6853.66 254.096 6853.87 254.256C6854.08 254.405 6854.19 254.672 6854.19 255.056C6854.19 255.429 6854.08 255.696 6853.87 255.856C6853.66 256.016 6853.41 256.096 6853.12 256.096C6852.82 256.096 6852.56 256.016 6852.35 255.856C6852.15 255.696 6852.05 255.429 6852.05 255.056C6852.05 254.672 6852.15 254.405 6852.35 254.256C6852.56 254.096 6852.82 254.016 6853.12 254.016ZM6858.74 266H6856.82V253.84H6858.74V266ZM6863.43 266H6861.51V253.84H6863.43V266ZM6868.11 257.344V266H6866.19V257.344H6868.11ZM6867.16 254.016C6867.45 254.016 6867.7 254.096 6867.91 254.256C6868.13 254.405 6868.23 254.672 6868.23 255.056C6868.23 255.429 6868.13 255.696 6867.91 255.856C6867.7 256.016 6867.45 256.096 6867.16 256.096C6866.86 256.096 6866.61 256.016 6866.39 255.856C6866.19 255.696 6866.09 255.429 6866.09 255.056C6866.09 254.672 6866.19 254.405 6866.39 254.256C6866.61 254.096 6866.86 254.016 6867.16 254.016ZM6874.29 257.184C6875.41 257.184 6876.25 257.424 6876.82 257.904C6877.39 258.384 6877.67 259.141 6877.67 260.176V266H6876.31L6875.92 264.8H6875.86C6875.61 265.109 6875.36 265.371 6875.09 265.584C6874.84 265.787 6874.54 265.931 6874.2 266.016C6873.87 266.112 6873.46 266.16 6872.98 266.16C6872.47 266.16 6872 266.064 6871.59 265.872C6871.18 265.68 6870.86 265.387 6870.63 264.992C6870.39 264.597 6870.28 264.101 6870.28 263.504C6870.28 262.608 6870.61 261.936 6871.27 261.488C6871.93 261.029 6872.93 260.779 6874.28 260.736L6875.76 260.688V260.24C6875.76 259.664 6875.63 259.253 6875.35 259.008C6875.08 258.763 6874.7 258.64 6874.21 258.64C6873.77 258.64 6873.35 258.704 6872.95 258.832C6872.54 258.96 6872.15 259.115 6871.76 259.296L6871.16 257.936C6871.57 257.712 6872.05 257.531 6872.6 257.392C6873.14 257.253 6873.71 257.184 6874.29 257.184ZM6874.68 261.92C6873.76 261.952 6873.12 262.107 6872.77 262.384C6872.42 262.661 6872.24 263.04 6872.24 263.52C6872.24 263.936 6872.37 264.24 6872.63 264.432C6872.88 264.613 6873.21 264.704 6873.6 264.704C6874.21 264.704 6874.72 264.533 6875.14 264.192C6875.56 263.84 6875.76 263.317 6875.76 262.624V261.888L6874.68 261.92ZM6884.94 257.184C6885.91 257.184 6886.67 257.435 6887.21 257.936C6887.76 258.437 6888.04 259.243 6888.04 260.352V266H6886.12V260.72C6886.12 260.059 6885.99 259.563 6885.72 259.232C6885.45 258.901 6885.04 258.736 6884.47 258.736C6883.64 258.736 6883.07 258.997 6882.75 259.52C6882.44 260.032 6882.28 260.768 6882.28 261.728V266H6880.36V257.344H6881.87L6882.14 258.48H6882.23C6882.43 258.181 6882.66 257.936 6882.94 257.744C6883.23 257.552 6883.54 257.413 6883.88 257.328C6884.22 257.232 6884.57 257.184 6884.94 257.184ZM6894.22 266.16C6893.41 266.16 6892.7 266.005 6892.09 265.696C6891.49 265.376 6891.03 264.891 6890.7 264.24C6890.38 263.579 6890.22 262.736 6890.22 261.712C6890.22 260.656 6890.39 259.797 6890.75 259.136C6891.11 258.464 6891.6 257.973 6892.22 257.664C6892.85 257.344 6893.57 257.184 6894.38 257.184C6894.9 257.184 6895.37 257.237 6895.79 257.344C6896.21 257.44 6896.58 257.563 6896.87 257.712L6896.3 259.232C6895.98 259.104 6895.65 258.997 6895.32 258.912C6894.99 258.816 6894.67 258.768 6894.36 258.768C6893.87 258.768 6893.46 258.88 6893.13 259.104C6892.81 259.328 6892.57 259.659 6892.41 260.096C6892.26 260.523 6892.19 261.056 6892.19 261.696C6892.19 262.325 6892.27 262.853 6892.43 263.28C6892.59 263.707 6892.83 264.027 6893.15 264.24C6893.47 264.453 6893.86 264.56 6894.31 264.56C6894.81 264.56 6895.24 264.507 6895.61 264.4C6895.98 264.283 6896.34 264.128 6896.67 263.936V265.6C6896.34 265.792 6895.98 265.931 6895.61 266.016C6895.24 266.112 6894.77 266.16 6894.22 266.16ZM6902.31 257.184C6903.07 257.184 6903.73 257.344 6904.29 257.664C6904.85 257.973 6905.29 258.421 6905.59 259.008C6905.88 259.584 6906.03 260.283 6906.03 261.104V262.112H6900.29C6900.31 262.923 6900.53 263.552 6900.96 264C6901.39 264.437 6901.98 264.656 6902.74 264.656C6903.29 264.656 6903.79 264.603 6904.23 264.496C6904.67 264.389 6905.13 264.229 6905.6 264.016V265.568C6905.16 265.771 6904.72 265.92 6904.26 266.016C6903.81 266.112 6903.27 266.16 6902.64 266.16C6901.8 266.16 6901.05 266 6900.4 265.68C6899.75 265.349 6899.24 264.853 6898.88 264.192C6898.52 263.531 6898.34 262.709 6898.34 261.728C6898.34 260.747 6898.5 259.92 6898.83 259.248C6899.16 258.576 6899.63 258.064 6900.23 257.712C6900.82 257.36 6901.52 257.184 6902.31 257.184ZM6902.31 258.624C6901.74 258.624 6901.29 258.805 6900.95 259.168C6900.6 259.52 6900.4 260.048 6900.34 260.752H6904.16C6904.16 260.325 6904.09 259.957 6903.95 259.648C6903.83 259.328 6903.62 259.077 6903.35 258.896C6903.08 258.715 6902.73 258.624 6902.31 258.624Z" fill="#535353" id="n1805"/>
<path fill-rule="evenodd" clip-rule="evenodd" d="M6934.17 322.352C6934.16 322.346 6934.15 322.34 6934.15 322.334C6932.7 320.892 6930.7 320 6928.5 320C6926.3 320 6924.3 320.892 6922.85 322.334C6922.85 322.34 6922.84 322.346 6922.83 322.352C6921.39 323.799 6920.5 325.796 6920.5 328C6920.5 332.418 6924.08 336 6928.5 336C6932.92 336 6936.5 332.418 6936.5 328C6936.5 325.796 6935.61 323.799 6934.17 322.352ZM6928.5 332C6930.71 332 6932.5 330.209 6932.5 328C6932.5 325.791 6930.71 324 6928.5 324C6926.29 324 6924.5 325.791 6924.5 328C6924.5 330.209 6926.29 332 6928.5 332ZM6941.23 312.444L6944.06 315.272L6938.4 320.929L6936.97 319.503L6935.57 318.101L6941.23 312.444ZM6912.94 315.272L6915.77 312.444L6921.43 318.101L6920.03 319.503L6920 319.526L6918.6 320.929L6912.94 315.272ZM6918.6 335.071L6921.43 337.9L6915.77 343.556L6912.94 340.728L6918.6 335.071ZM6938.4 335.071L6944.06 340.728L6941.23 343.556L6935.57 337.899L6938.4 335.071ZM6926.5 308H6930.5V316H6926.5V308ZM6908.5 330V326H6916.5V330H6908.5ZM6930.5 348H6926.5V340H6930.5V348ZM6948.5 326V330H6940.5V326H6948.5Z" fill="#2D548B" id="n1806"/>
<path d="M6973.9 340.5H6969.82V325.064C6969.82 324.543 6969.82 324.033 6969.82 323.534C6969.85 323.013 6969.87 322.503 6969.89 322.004C6969.92 321.483 6969.94 320.995 6969.96 320.542C6969.73 320.791 6969.45 321.075 6969.11 321.392C6968.77 321.687 6968.42 321.993 6968.06 322.31L6965.34 324.486L6963.3 321.902L6970.54 316.224H6973.9V340.5ZM6981.3 330.164C6981.3 328.759 6981.39 327.376 6981.57 326.016C6981.78 324.656 6982.13 323.375 6982.63 322.174C6983.13 320.95 6983.82 319.873 6984.7 318.944C6985.59 317.992 6986.7 317.255 6988.03 316.734C6989.37 316.19 6991.01 315.918 6992.96 315.918C6993.44 315.918 6993.97 315.941 6994.56 315.986C6995.17 316.031 6995.68 316.099 6996.09 316.19V319.556C6995.66 319.443 6995.18 319.352 6994.66 319.284C6994.16 319.216 6993.67 319.182 6993.17 319.182C6991.63 319.182 6990.35 319.409 6989.33 319.862C6988.33 320.293 6987.53 320.905 6986.95 321.698C6986.36 322.469 6985.93 323.375 6985.65 324.418C6985.4 325.461 6985.25 326.605 6985.18 327.852H6985.38C6985.72 327.308 6986.13 326.821 6986.61 326.39C6987.1 325.959 6987.7 325.619 6988.41 325.37C6989.13 325.121 6989.96 324.996 6990.89 324.996C6992.29 324.996 6993.52 325.291 6994.56 325.88C6995.6 326.469 6996.41 327.331 6996.98 328.464C6997.56 329.575 6997.86 330.935 6997.86 332.544C6997.86 334.244 6997.53 335.717 6996.87 336.964C6996.24 338.211 6995.32 339.174 6994.12 339.854C6992.94 340.511 6991.52 340.84 6989.87 340.84C6988.67 340.84 6987.55 340.625 6986.5 340.194C6985.46 339.763 6984.54 339.117 6983.75 338.256C6982.98 337.372 6982.38 336.261 6981.95 334.924C6981.52 333.564 6981.3 331.977 6981.3 330.164ZM6989.8 337.474C6991 337.474 6991.98 337.077 6992.73 336.284C6993.47 335.491 6993.85 334.255 6993.85 332.578C6993.85 331.218 6993.52 330.153 6992.86 329.382C6992.2 328.589 6991.22 328.192 6989.9 328.192C6989 328.192 6988.2 328.385 6987.52 328.77C6986.87 329.155 6986.34 329.643 6985.96 330.232C6985.6 330.821 6985.42 331.433 6985.42 332.068C6985.42 332.725 6985.51 333.371 6985.69 334.006C6985.87 334.641 6986.14 335.23 6986.5 335.774C6986.89 336.295 6987.35 336.715 6987.9 337.032C6988.44 337.327 6989.08 337.474 6989.8 337.474ZM7016.71 328.328C7016.71 330.3 7016.57 332.057 7016.27 333.598C7015.98 335.139 7015.5 336.454 7014.84 337.542C7014.19 338.607 7013.33 339.423 7012.26 339.99C7011.22 340.557 7009.94 340.84 7008.42 340.84C7006.54 340.84 7004.98 340.341 7003.76 339.344C7002.54 338.347 7001.63 336.919 7001.04 335.06C7000.45 333.179 7000.16 330.935 7000.16 328.328C7000.16 325.721 7000.43 323.489 7000.97 321.63C7001.52 319.771 7002.39 318.343 7003.59 317.346C7004.81 316.349 7006.42 315.85 7008.42 315.85C7010.3 315.85 7011.85 316.349 7013.08 317.346C7014.3 318.321 7015.21 319.749 7015.8 321.63C7016.41 323.489 7016.71 325.721 7016.71 328.328ZM7004.27 328.362C7004.27 330.379 7004.4 332.068 7004.64 333.428C7004.92 334.765 7005.35 335.774 7005.94 336.454C7006.55 337.111 7007.38 337.44 7008.42 337.44C7009.46 337.44 7010.28 337.111 7010.87 336.454C7011.48 335.797 7011.92 334.788 7012.19 333.428C7012.46 332.068 7012.6 330.368 7012.6 328.328C7012.6 326.311 7012.46 324.633 7012.19 323.296C7011.92 321.936 7011.48 320.927 7010.87 320.27C7010.28 319.59 7009.46 319.25 7008.42 319.25C7007.38 319.25 7006.55 319.59 7005.94 320.27C7005.35 320.927 7004.92 321.936 7004.64 323.296C7004.4 324.633 7004.27 326.322 7004.27 328.362Z" fill="#1F1F1F" id="n1807"/>
<path d="M7020.81 340.5H7019.43V331.76H7020.81V340.5ZM7029.77 334.164C7030.48 334.164 7031.01 334.344 7031.36 334.704C7031.72 335.064 7031.9 335.643 7031.9 336.44V340.5H7030.52V336.682C7030.52 336.222 7030.43 335.873 7030.26 335.635C7030.08 335.398 7029.8 335.279 7029.43 335.279C7028.91 335.279 7028.53 335.448 7028.31 335.785C7028.09 336.115 7027.98 336.598 7027.98 337.234V340.5H7026.61V336.693C7026.61 336.379 7026.57 336.118 7026.48 335.911C7026.41 335.704 7026.29 335.547 7026.13 335.44C7025.97 335.333 7025.76 335.279 7025.51 335.279C7025.15 335.279 7024.86 335.363 7024.65 335.532C7024.45 335.701 7024.3 335.942 7024.21 336.256C7024.11 336.571 7024.07 336.962 7024.07 337.429V340.5H7022.69V334.278H7023.77L7023.96 335.095H7024.03C7024.16 334.88 7024.33 334.704 7024.52 334.566C7024.71 334.428 7024.92 334.328 7025.15 334.267C7025.38 334.198 7025.62 334.164 7025.86 334.164C7026.33 334.164 7026.72 334.244 7027.04 334.405C7027.36 334.558 7027.6 334.804 7027.76 335.141H7027.86C7028.06 334.804 7028.33 334.558 7028.68 334.405C7029.03 334.244 7029.4 334.164 7029.77 334.164Z" fill="#535353" id="n1808"/>
<rect x="6833" y="370" width="272" height="4" rx="2" fill="#DDDDDD" id="n1809"/>
<rect x="6833" y="370" width="92" height="4" rx="2" fill="#2D548B" id="n1810"/>
<path d="M6913 372C6913 368.686 6915.69 366 6919 366C6922.31 366 6925 368.686 6925 372C6925 375.314 6922.31 378 6919 378C6915.69 378 6913 375.314 6913 372Z" fill="#2D548B" id="n1811"/>
<path d="M6919 378V376C6916.79 376 6915 374.209 6915 372H6913H6911C6911 376.418 6914.58 380 6919 380V378ZM6925 372H6923C6923 374.209 6921.21 376 6919 376V378V380C6923.42 380 6927 376.418 6927 372H6925ZM6919 366V368C6921.21 368 6923 369.791 6923 372H6925H6927C6927 367.582 6923.42 364 6919 364V366ZM6919 366V364C6914.58 364 6911 367.582 6911 372H6913H6915C6915 369.791 6916.79 368 6919 368V366Z" fill="#FCFCFC" id="n1812"/>
<mask id="path-1436-inside-120_1702_11540" fill="white">
<path d="M6833 405.6C6833 402.24 6833 400.56 6833.65 399.276C6834.23 398.147 6835.15 397.229 6836.28 396.654C6837.56 396 6839.24 396 6842.6 396H6901V428H6842.6C6839.24 428 6837.56 428 6836.28 427.346C6835.15 426.771 6834.23 425.853 6833.65 424.724C6833 423.44 6833 421.76 6833 418.4V405.6Z" id="n1813"/>
</mask>
<path d="M6833 405.6C6833 402.24 6833 400.56 6833.65 399.276C6834.23 398.147 6835.15 397.229 6836.28 396.654C6837.56 396 6839.24 396 6842.6 396H6901V428H6842.6C6839.24 428 6837.56 428 6836.28 427.346C6835.15 426.771 6834.23 425.853 6833.65 424.724C6833 423.44 6833 421.76 6833 418.4V405.6Z" fill="white" id="n1814"/>
<path d="M6832 402C6832 398.134 6835.13 395 6839 395H6901V397H6839C6836.24 397 6834 399.239 6834 402H6832ZM6901 429H6839C6835.13 429 6832 425.866 6832 422H6834C6834 424.761 6836.24 427 6839 427H6901V429ZM6839 429C6835.13 429 6832 425.866 6832 422V402C6832 398.134 6835.13 395 6839 395V397C6836.24 397 6834 399.239 6834 402V422C6834 424.761 6836.24 427 6839 427V429ZM6901 396V428V396Z" fill="#BEBEBE" mask="url(#path-1436-inside-120_1702_11540)" id="n1815"/>
<path d="M6873.41 416.59L6872 418L6866 412L6872 406L6873.41 407.41L6868.83 412L6873.41 416.59Z" fill="#535353" id="n1816"/>
<path d="M6867.41 416.59L6866 418L6860 412L6866 406L6867.41 407.41L6862.83 412L6867.41 416.59Z" fill="#535353" id="n1817"/>
<mask id="path-1439-inside-121_1702_11540" fill="white">
<path d="M6901 396H6969V428H6901V396Z" id="n1818"/>
</mask>
<path d="M6901 396H6969V428H6901V396Z" fill="white" id="n1819"/>
<path d="M6901 396V395H6900V396H6901ZM6901 428H6900V429H6901V428ZM6901 396V397H6969V396V395H6901V396ZM6969 428V427H6901V428V429H6969V428ZM6901 428H6902V396H6901H6900V428H6901Z" fill="#BEBEBE" mask="url(#path-1439-inside-121_1702_11540)" id="n1820"/>
<path fill-rule="evenodd" clip-rule="evenodd" d="M6937 418L6938.41 416.59L6933.83 412L6938.41 407.41L6937 406L6931 412L6937 418Z" fill="#535353" id="n1821"/>
<mask id="path-1442-inside-122_1702_11540" fill="white">
<path d="M6969 396H7037V428H6969V396Z" id="n1822"/>
</mask>
<path d="M6969 396H7037V428H6969V396Z" fill="white" id="n1823"/>
<path d="M6969 396V395H6968V396H6969ZM6969 428H6968V429H6969V428ZM6969 396V397H7037V396V395H6969V396ZM7037 428V427H6969V428V429H7037V428ZM6969 428H6970V396H6969H6968V428H6969Z" fill="#BEBEBE" mask="url(#path-1442-inside-122_1702_11540)" id="n1824"/>
<path d="M6999.59 407.41L7001 406L7007 412L7001 418L6999.59 416.59L7004.17 412L6999.59 407.41Z" fill="#535353" id="n1825"/>
<mask id="path-1446-inside-123_1702_11540" fill="white">
<path d="M7037 396H7095.4C7098.76 396 7100.44 396 7101.72 396.654C7102.85 397.229 7103.77 398.147 7104.35 399.276C7105 400.56 7105 402.24 7105 405.6V418.4C7105 421.76 7105 423.44 7104.35 424.724C7103.77 425.853 7102.85 426.771 7101.72 427.346C7100.44 428 7098.76 428 7095.4 428H7037V396Z" id="n1826"/>
</mask>
<path d="M7037 396H7095.4C7098.76 396 7100.44 396 7101.72 396.654C7102.85 397.229 7103.77 398.147 7104.35 399.276C7105 400.56 7105 402.24 7105 405.6V418.4C7105 421.76 7105 423.44 7104.35 424.724C7103.77 425.853 7102.85 426.771 7101.72 427.346C7100.44 428 7098.76 428 7095.4 428H7037V396Z" fill="white" id="n1827"/>
<path d="M7037 396V395H7036V396H7037ZM7037 428H7036V429H7037V428ZM7104.35 424.724L7105.24 425.178L7104.35 424.724ZM7101.72 427.346L7102.18 428.237L7101.72 427.346ZM7101.72 396.654L7102.18 395.763L7101.72 396.654ZM7104.35 399.276L7105.24 398.822L7104.35 399.276ZM7037 396V397H7095.4V396V395H7037V396ZM7105 405.6H7104V418.4H7105H7106V405.6H7105ZM7095.4 428V427H7037V428V429H7095.4V428ZM7037 428H7038V396H7037H7036V428H7037ZM7105 418.4H7104C7104 420.097 7104 421.309 7103.92 422.259C7103.84 423.198 7103.7 423.793 7103.46 424.27L7104.35 424.724L7105.24 425.178C7105.65 424.372 7105.83 423.485 7105.91 422.422C7106 421.372 7106 420.064 7106 418.4H7105ZM7095.4 428V429C7097.06 429 7098.37 429.001 7099.42 428.915C7100.48 428.828 7101.37 428.648 7102.18 428.237L7101.72 427.346L7101.27 426.455C7100.79 426.698 7100.2 426.845 7099.26 426.922C7098.31 426.999 7097.1 427 7095.4 427V428ZM7104.35 424.724L7103.46 424.27C7102.98 425.211 7102.21 425.976 7101.27 426.455L7101.72 427.346L7102.18 428.237C7103.5 427.566 7104.57 426.495 7105.24 425.178L7104.35 424.724ZM7095.4 396V397C7097.1 397 7098.31 397.001 7099.26 397.078C7100.2 397.155 7100.79 397.302 7101.27 397.545L7101.72 396.654L7102.18 395.763C7101.37 395.352 7100.48 395.172 7099.42 395.085C7098.37 394.999 7097.06 395 7095.4 395V396ZM7105 405.6H7106C7106 403.936 7106 402.628 7105.91 401.578C7105.83 400.515 7105.65 399.628 7105.24 398.822L7104.35 399.276L7103.46 399.73C7103.7 400.207 7103.84 400.802 7103.92 401.741C7104 402.691 7104 403.903 7104 405.6H7105ZM7101.72 396.654L7101.27 397.545C7102.21 398.024 7102.98 398.789 7103.46 399.73L7104.35 399.276L7105.24 398.822C7104.57 397.505 7103.5 396.434 7102.18 395.763L7101.72 396.654Z" fill="#BEBEBE" mask="url(#path-1446-inside-123_1702_11540)" id="n1828"/>
<path d="M7064 407.41L7065.41 406L7071.41 412L7065.41 418L7064 416.59L7068.58 412L7064 407.41Z" fill="#535353" id="n1829"/>
<path d="M7070 407.41L7071.41 406L7077.41 412L7071.41 418L7070 416.59L7074.58 412L7070 407.41Z" fill="#535353" id="n1830"/>
<path d="M6840 475H6844V477H6840C6837.24 477 6835 474.76 6835 472C6835 469.24 6837.24 467 6840 467H6844V469H6840C6838.35 469 6837 470.35 6837 472C6837 473.65 6838.35 475 6840 475Z" fill="#535353" id="n1831"/>
<path d="M6846 467H6850C6852.76 467 6855 469.24 6855 472C6855 474.76 6852.76 477 6850 477H6846V475H6850C6851.65 475 6853 473.65 6853 472C6853 470.35 6851.65 469 6850 469H6846V467Z" fill="#535353" id="n1832"/>
<path d="M6849 471H6841V473H6849V471Z" fill="#535353" id="n1833"/>
<path d="M6866.57 478V466.576H6867.85V476.848H6872.95V478H6866.57ZM6875.97 469.44V478H6874.72V469.44H6875.97ZM6875.36 466.24C6875.57 466.24 6875.75 466.309 6875.89 466.448C6876.04 466.587 6876.11 466.8 6876.11 467.088C6876.11 467.355 6876.04 467.563 6875.89 467.712C6875.75 467.851 6875.57 467.92 6875.36 467.92C6875.14 467.92 6874.95 467.851 6874.8 467.712C6874.66 467.563 6874.59 467.355 6874.59 467.088C6874.59 466.8 6874.66 466.587 6874.8 466.448C6874.95 466.309 6875.14 466.24 6875.36 466.24ZM6882.75 469.28C6883.75 469.28 6884.52 469.531 6885.04 470.032C6885.56 470.523 6885.82 471.317 6885.82 472.416V478H6884.58V472.512C6884.58 471.776 6884.41 471.232 6884.08 470.88C6883.75 470.528 6883.25 470.352 6882.58 470.352C6881.63 470.352 6880.95 470.619 6880.56 471.152C6880.17 471.685 6879.97 472.464 6879.97 473.488V478H6878.72V469.44H6879.73L6879.92 470.704H6879.98C6880.18 470.395 6880.41 470.139 6880.69 469.936C6880.97 469.723 6881.28 469.563 6881.63 469.456C6881.98 469.339 6882.36 469.28 6882.75 469.28ZM6889.75 472.144C6889.75 472.368 6889.74 472.635 6889.72 472.944C6889.71 473.243 6889.7 473.515 6889.69 473.76H6889.73C6889.81 473.664 6889.9 473.541 6890.02 473.392C6890.15 473.243 6890.28 473.088 6890.41 472.928C6890.53 472.768 6890.65 472.635 6890.74 472.528L6893.64 469.44H6895.11L6891.67 473.104L6895.37 478H6893.85L6890.81 473.92L6889.75 474.912V478H6888.5V465.84H6889.75V472.144Z" fill="#1F1F1F" id="n1834"/>
<path d="M7069 460.5H7093C7099.35 460.5 7104.5 465.649 7104.5 472C7104.5 478.351 7099.35 483.5 7093 483.5H7069C7062.65 483.5 7057.5 478.351 7057.5 472C7057.5 465.649 7062.65 460.5 7069 460.5Z" fill="black" fill-opacity="0.04" id="n1835"/>
<path d="M7069 460.5H7093C7099.35 460.5 7104.5 465.649 7104.5 472C7104.5 478.351 7099.35 483.5 7093 483.5H7069C7062.65 483.5 7057.5 478.351 7057.5 472C7057.5 465.649 7062.65 460.5 7069 460.5Z" stroke="#8E8E8E" id="n1836"/>
<path fill-rule="evenodd" clip-rule="evenodd" d="M7069 478C7072.31 478 7075 475.314 7075 472C7075 468.686 7072.31 466 7069 466C7065.69 466 7063 468.686 7063 472C7063 475.314 7065.69 478 7069 478Z" fill="#535353" id="n1837"/>
<path d="M6843.82 532.176C6843.82 533.456 6843.57 534.528 6843.08 535.392C6842.6 536.256 6841.91 536.907 6841 537.344C6840.09 537.781 6838.99 538 6837.7 538H6834.49V526.576H6838.04C6839.22 526.576 6840.24 526.789 6841.1 527.216C6841.96 527.643 6842.63 528.272 6843.1 529.104C6843.58 529.925 6843.82 530.949 6843.82 532.176ZM6841.77 532.24C6841.77 531.312 6841.62 530.549 6841.34 529.952C6841.05 529.355 6840.62 528.917 6840.06 528.64C6839.5 528.352 6838.82 528.208 6838.01 528.208H6836.44V536.368H6837.74C6839.09 536.368 6840.1 536.021 6840.76 535.328C6841.43 534.635 6841.77 533.605 6841.77 532.24ZM6849.64 529.184C6850.76 529.184 6851.6 529.424 6852.16 529.904C6852.73 530.384 6853.01 531.141 6853.01 532.176V538H6851.65L6851.27 536.8H6851.2C6850.96 537.109 6850.7 537.371 6850.44 537.584C6850.18 537.787 6849.88 537.931 6849.54 538.016C6849.21 538.112 6848.8 538.16 6848.32 538.16C6847.81 538.16 6847.35 538.064 6846.93 537.872C6846.53 537.68 6846.21 537.387 6845.97 536.992C6845.74 536.597 6845.62 536.101 6845.62 535.504C6845.62 534.608 6845.95 533.936 6846.61 533.488C6847.27 533.029 6848.28 532.779 6849.62 532.736L6851.11 532.688V532.24C6851.11 531.664 6850.97 531.253 6850.69 531.008C6850.42 530.763 6850.05 530.64 6849.56 530.64C6849.12 530.64 6848.7 530.704 6848.29 530.832C6847.89 530.96 6847.49 531.115 6847.11 531.296L6846.5 529.936C6846.92 529.712 6847.4 529.531 6847.94 529.392C6848.48 529.253 6849.05 529.184 6849.64 529.184ZM6850.02 533.92C6849.1 533.952 6848.47 534.107 6848.12 534.384C6847.76 534.661 6847.59 535.04 6847.59 535.52C6847.59 535.936 6847.72 536.24 6847.97 536.432C6848.23 536.613 6848.55 536.704 6848.95 536.704C6849.56 536.704 6850.07 536.533 6850.48 536.192C6850.9 535.84 6851.11 535.317 6851.11 534.624V533.888L6850.02 533.92ZM6854.41 529.344H6856.51L6858.25 534.24C6858.32 534.464 6858.39 534.683 6858.46 534.896C6858.52 535.099 6858.57 535.307 6858.62 535.52C6858.67 535.723 6858.71 535.931 6858.75 536.144H6858.79C6858.85 535.877 6858.92 535.573 6859.02 535.232C6859.11 534.891 6859.21 534.555 6859.32 534.224L6861 529.344H6863.07L6859.37 539.152C6859.16 539.717 6858.89 540.203 6858.57 540.608C6858.26 541.013 6857.89 541.317 6857.45 541.52C6857.02 541.733 6856.53 541.84 6855.98 541.84C6855.71 541.84 6855.48 541.824 6855.29 541.792C6855.1 541.771 6854.93 541.744 6854.78 541.712V540.192C6854.89 540.213 6855.03 540.235 6855.19 540.256C6855.36 540.277 6855.54 540.288 6855.72 540.288C6856.05 540.288 6856.33 540.219 6856.57 540.08C6856.81 539.952 6857.02 539.771 6857.18 539.536C6857.35 539.301 6857.49 539.04 6857.59 538.752L6857.88 537.984L6854.41 529.344ZM6869.39 526.576L6865.14 538H6863.34L6867.6 526.576H6869.39ZM6880.77 538H6878.37L6872.85 528.96H6872.78C6872.79 529.184 6872.8 529.424 6872.81 529.68C6872.84 529.936 6872.85 530.203 6872.86 530.48C6872.87 530.747 6872.88 531.024 6872.89 531.312C6872.91 531.589 6872.92 531.867 6872.93 532.144V538H6871.15V526.576H6873.55L6879.05 535.568H6879.1C6879.09 535.365 6879.08 535.141 6879.07 534.896C6879.06 534.651 6879.05 534.395 6879.04 534.128C6879.04 533.851 6879.03 533.573 6879.02 533.296C6879.01 533.008 6879 532.736 6878.99 532.48V526.576H6880.77V538ZM6885.64 529.344V538H6883.72V529.344H6885.64ZM6884.69 526.016C6884.98 526.016 6885.23 526.096 6885.45 526.256C6885.66 526.405 6885.77 526.672 6885.77 527.056C6885.77 527.429 6885.66 527.696 6885.45 527.856C6885.23 528.016 6884.98 528.096 6884.69 528.096C6884.4 528.096 6884.14 528.016 6883.93 527.856C6883.72 527.696 6883.62 527.429 6883.62 527.056C6883.62 526.672 6883.72 526.405 6883.93 526.256C6884.14 526.096 6884.4 526.016 6884.69 526.016ZM6891.34 529.184C6891.89 529.184 6892.38 529.291 6892.82 529.504C6893.25 529.717 6893.63 530.037 6893.94 530.464H6894.02L6894.21 529.344H6895.79V538.08C6895.79 538.901 6895.64 539.589 6895.33 540.144C6895.03 540.699 6894.58 541.12 6893.97 541.408C6893.36 541.696 6892.6 541.84 6891.68 541.84C6891.06 541.84 6890.49 541.797 6889.97 541.712C6889.44 541.637 6888.95 541.504 6888.5 541.312V539.696C6888.82 539.845 6889.15 539.968 6889.5 540.064C6889.86 540.171 6890.22 540.245 6890.61 540.288C6890.99 540.341 6891.39 540.368 6891.79 540.368C6892.46 540.368 6892.98 540.176 6893.34 539.792C6893.71 539.419 6893.89 538.88 6893.89 538.176V537.936C6893.89 537.776 6893.89 537.589 6893.9 537.376C6893.91 537.163 6893.92 536.992 6893.94 536.864H6893.87C6893.57 537.312 6893.21 537.643 6892.78 537.856C6892.36 538.059 6891.87 538.16 6891.31 538.16C6890.24 538.16 6889.41 537.765 6888.8 536.976C6888.2 536.187 6887.9 535.088 6887.9 533.68C6887.9 532.741 6888.04 531.936 6888.3 531.264C6888.58 530.592 6888.98 530.08 6889.49 529.728C6890.01 529.365 6890.63 529.184 6891.34 529.184ZM6891.82 530.752C6891.4 530.752 6891.04 530.869 6890.75 531.104C6890.46 531.328 6890.24 531.659 6890.1 532.096C6889.95 532.533 6889.87 533.072 6889.87 533.712C6889.87 534.672 6890.04 535.397 6890.37 535.888C6890.7 536.379 6891.19 536.624 6891.86 536.624C6892.23 536.624 6892.54 536.581 6892.8 536.496C6893.07 536.4 6893.28 536.245 6893.46 536.032C6893.63 535.819 6893.75 535.547 6893.84 535.216C6893.92 534.875 6893.97 534.469 6893.97 534V533.696C6893.97 532.992 6893.89 532.427 6893.74 532C6893.59 531.573 6893.36 531.259 6893.04 531.056C6892.73 530.853 6892.32 530.752 6891.82 530.752ZM6900.45 528.832C6900.45 529.152 6900.44 529.467 6900.42 529.776C6900.4 530.085 6900.38 530.325 6900.36 530.496H6900.47C6900.66 530.197 6900.89 529.952 6901.16 529.76C6901.42 529.568 6901.72 529.424 6902.04 529.328C6902.37 529.232 6902.71 529.184 6903.08 529.184C6903.73 529.184 6904.29 529.296 6904.76 529.52C6905.23 529.744 6905.58 530.091 6905.83 530.56C6906.09 531.019 6906.21 531.616 6906.21 532.352V538H6904.29V532.72C6904.29 532.048 6904.16 531.552 6903.89 531.232C6903.63 530.901 6903.21 530.736 6902.65 530.736C6902.09 530.736 6901.65 530.853 6901.33 531.088C6901.02 531.323 6900.8 531.664 6900.66 532.112C6900.52 532.549 6900.45 533.093 6900.45 533.744V538H6898.53V525.84H6900.45V528.832ZM6912.18 536.608C6912.43 536.608 6912.67 536.587 6912.9 536.544C6913.14 536.501 6913.35 536.448 6913.54 536.384V537.824C6913.34 537.92 6913.07 538 6912.74 538.064C6912.41 538.128 6912.07 538.16 6911.7 538.16C6911.22 538.16 6910.79 538.08 6910.39 537.92C6910 537.749 6909.68 537.467 6909.43 537.072C6909.2 536.667 6909.08 536.101 6909.08 535.376V530.8H6907.91V529.952L6909.17 529.264L6909.8 527.424H6911V529.344H6913.46V530.8H6911V535.36C6911 535.787 6911.11 536.101 6911.32 536.304C6911.54 536.507 6911.83 536.608 6912.18 536.608Z" fill="#535353" id="n1838"/>
<path fill-rule="evenodd" clip-rule="evenodd" d="M6938.34 573.338C6939.06 572.513 6940.41 572.951 6940.51 574.042L6941.06 579.937C6941.13 580.687 6941.84 581.204 6942.58 581.037L6948.33 579.726C6949.4 579.484 6950.24 580.637 6949.68 581.582L6946.67 586.684C6946.29 587.334 6946.56 588.172 6947.25 588.469L6952.67 590.803C6953.67 591.235 6953.67 592.663 6952.67 593.1L6947.99 595.14C6949.45 596.502 6950.52 598.301 6951.03 600.325C6953.42 601.393 6955 603.89 6955 606.649C6955 610.364 6952.1 613.5 6948.42 613.5H6928.76C6926.98 613.5 6925.29 612.775 6924.05 611.477C6922.74 610.17 6922.04 608.411 6922 606.534L6922 606.516V606.424C6922 605.347 6922.24 604.304 6922.69 603.357L6918.66 604.274C6917.6 604.517 6916.76 603.364 6917.32 602.419L6920.33 597.316C6920.71 596.667 6920.44 595.828 6919.75 595.531L6914.33 593.197C6913.33 592.765 6913.33 591.337 6914.33 590.9L6919.75 588.539C6920.44 588.238 6920.71 587.398 6920.33 586.751L6917.32 581.663C6916.76 580.721 6917.6 579.564 6918.67 579.801L6924.42 581.083C6925.16 581.246 6925.87 580.726 6925.94 579.975L6926.49 574.078C6926.59 572.986 6927.94 572.541 6928.67 573.362L6932.56 577.798C6933.06 578.362 6933.94 578.36 6934.44 577.793L6938.34 573.338ZM6927.05 599.647C6927.5 599.526 6927.97 599.453 6928.45 599.43C6929.33 598.04 6930.86 597.14 6932.61 597.14C6932.77 597.14 6932.95 597.149 6933.12 597.167C6934.91 594.306 6937.99 592.5 6941.39 592.5C6942.11 592.5 6942.8 592.58 6943.48 592.732C6943.81 588.24 6941.05 583.934 6936.58 582.486C6931.32 580.786 6925.69 583.667 6923.99 588.922C6922.7 592.903 6924.04 597.105 6927.05 599.647ZM6935.23 599.542C6936.41 597.043 6938.8 595.5 6941.39 595.5C6944.72 595.5 6947.68 598.114 6948.24 601.682L6948.39 602.638L6949.33 602.894C6950.82 603.301 6952 604.803 6952 606.649C6952 608.847 6950.31 610.5 6948.42 610.5H6928.76C6927.8 610.5 6926.88 610.109 6926.21 609.399L6926.2 609.38L6926.18 609.361C6925.46 608.652 6925.03 607.656 6925 606.481V606.424C6925 605.381 6925.39 604.392 6926.09 603.617C6926.8 602.838 6927.74 602.423 6928.76 602.423C6928.98 602.423 6929.03 602.426 6929.1 602.438L6930.35 602.658L6930.77 601.465C6931.06 600.653 6931.78 600.14 6932.61 600.14C6932.85 600.14 6933.06 600.181 6933.27 600.274L6934.61 600.866L6935.23 599.542Z" fill="#2D548B" id="n1839"/>
<path d="M6988.86 592.624C6988.86 595.344 6988.34 597.622 6987.29 599.458C6986.27 601.294 6984.8 602.677 6982.87 603.606C6980.95 604.535 6978.61 605 6975.87 605H6969.04V580.724H6976.58C6979.1 580.724 6981.26 581.177 6983.08 582.084C6984.91 582.991 6986.33 584.328 6987.33 586.096C6988.35 587.841 6988.86 590.017 6988.86 592.624ZM6984.51 592.76C6984.51 590.788 6984.2 589.167 6983.59 587.898C6982.98 586.629 6982.07 585.699 6980.87 585.11C6979.69 584.498 6978.24 584.192 6976.52 584.192H6973.18V601.532H6975.94C6978.82 601.532 6980.96 600.795 6982.36 599.322C6983.79 597.849 6984.51 595.661 6984.51 592.76ZM7000.41 586.266C7002.79 586.266 7004.58 586.776 7005.78 587.796C7006.98 588.816 7007.58 590.425 7007.58 592.624V605H7004.69L7003.87 602.45H7003.74C7003.22 603.107 7002.67 603.663 7002.11 604.116C7001.56 604.547 7000.93 604.853 7000.2 605.034C6999.5 605.238 6998.64 605.34 6997.62 605.34C6996.53 605.34 6995.54 605.136 6994.66 604.728C6993.8 604.32 6993.12 603.697 6992.62 602.858C6992.12 602.019 6991.87 600.965 6991.87 599.696C6991.87 597.792 6992.57 596.364 6993.98 595.412C6995.39 594.437 6997.52 593.905 7000.37 593.814L7003.53 593.712V592.76C7003.53 591.536 7003.24 590.663 7002.65 590.142C7002.08 589.621 7001.28 589.36 7000.24 589.36C6999.31 589.36 6998.41 589.496 6997.55 589.768C6996.69 590.04 6995.85 590.369 6995.03 590.754L6993.74 587.864C6994.63 587.388 6995.65 587.003 6996.8 586.708C6997.96 586.413 6999.16 586.266 7000.41 586.266ZM7001.22 596.33C6999.27 596.398 6997.92 596.727 6997.18 597.316C6996.43 597.905 6996.05 598.71 6996.05 599.73C6996.05 600.614 6996.33 601.26 6996.87 601.668C6997.41 602.053 6998.11 602.246 6998.94 602.246C7000.24 602.246 7001.32 601.883 7002.21 601.158C7003.09 600.41 7003.53 599.299 7003.53 597.826V596.262L7001.22 596.33ZM7009.73 586.606H7014.19L7017.89 597.01C7018.05 597.486 7018.2 597.951 7018.33 598.404C7018.47 598.835 7018.58 599.277 7018.67 599.73C7018.79 600.161 7018.88 600.603 7018.95 601.056H7019.05C7019.16 600.489 7019.32 599.843 7019.52 599.118C7019.73 598.393 7019.94 597.679 7020.17 596.976L7023.74 586.606H7028.13L7020.27 607.448C7019.82 608.649 7019.25 609.681 7018.57 610.542C7017.91 611.403 7017.12 612.049 7016.19 612.48C7015.28 612.933 7014.24 613.16 7013.06 613.16C7012.5 613.16 7012.01 613.126 7011.6 613.058C7011.19 613.013 7010.83 612.956 7010.51 612.888V609.658C7010.76 609.703 7011.06 609.749 7011.4 609.794C7011.76 609.839 7012.13 609.862 7012.52 609.862C7013.22 609.862 7013.82 609.715 7014.32 609.42C7014.84 609.148 7015.27 608.763 7015.61 608.264C7015.98 607.765 7016.27 607.21 7016.5 606.598L7017.11 604.966L7009.73 586.606Z" fill="#1F1F1F" id="n1840"/>
<circle cx="6945" cy="628" r="4" fill="#DDDDDD" id="n1841"/>
<circle cx="6961" cy="628" r="4" fill="#DDDDDD" id="n1842"/>
<circle cx="6977" cy="628" r="4" fill="#2D548B" id="n1843"/>
<circle cx="6993" cy="628" r="4" fill="#DDDDDD" id="n1844"/>
<mask id="path-1460-inside-124_1702_11540" fill="white">
<path d="M6833 665.6C6833 662.24 6833 660.56 6833.65 659.276C6834.23 658.147 6835.15 657.229 6836.28 656.654C6837.56 656 6839.24 656 6842.6 656H6969V704H6842.6C6839.24 704 6837.56 704 6836.28 703.346C6835.15 702.771 6834.23 701.853 6833.65 700.724C6833 699.44 6833 697.76 6833 694.4V665.6Z" id="n1845"/>
</mask>
<path d="M6833 665.6C6833 662.24 6833 660.56 6833.65 659.276C6834.23 658.147 6835.15 657.229 6836.28 656.654C6837.56 656 6839.24 656 6842.6 656H6969V704H6842.6C6839.24 704 6837.56 704 6836.28 703.346C6835.15 702.771 6834.23 701.853 6833.65 700.724C6833 699.44 6833 697.76 6833 694.4V665.6Z" fill="white" id="n1846"/>
<path d="M6832 662C6832 658.134 6835.13 655 6839 655H6969V657H6839C6836.24 657 6834 659.239 6834 662H6832ZM6969 705H6839C6835.13 705 6832 701.866 6832 698H6834C6834 700.761 6836.24 703 6839 703H6969V705ZM6839 705C6835.13 705 6832 701.866 6832 698V662C6832 658.134 6835.13 655 6839 655V657C6836.24 657 6834 659.239 6834 662V698C6834 700.761 6836.24 703 6839 703V705ZM6969 656V704V656Z" fill="#BEBEBE" mask="url(#path-1460-inside-124_1702_11540)" id="n1847"/>
<path fill-rule="evenodd" clip-rule="evenodd" d="M6875 686L6876.41 684.59L6871.83 680L6876.41 675.41L6875 674L6869 680L6875 686Z" fill="#535353" id="n1848"/>
<path d="M6903.82 680.176C6903.82 681.456 6903.57 682.528 6903.08 683.392C6902.6 684.256 6901.91 684.907 6901 685.344C6900.09 685.781 6898.99 686 6897.7 686H6894.49V674.576H6898.04C6899.22 674.576 6900.24 674.789 6901.1 675.216C6901.96 675.643 6902.63 676.272 6903.1 677.104C6903.58 677.925 6903.82 678.949 6903.82 680.176ZM6901.77 680.24C6901.77 679.312 6901.62 678.549 6901.34 677.952C6901.05 677.355 6900.62 676.917 6900.06 676.64C6899.5 676.352 6898.82 676.208 6898.01 676.208H6896.44V684.368H6897.74C6899.09 684.368 6900.1 684.021 6900.76 683.328C6901.43 682.635 6901.77 681.605 6901.77 680.24ZM6913.68 677.344V686H6912.17L6911.9 684.88H6911.81C6911.62 685.179 6911.39 685.424 6911.1 685.616C6910.82 685.797 6910.51 685.931 6910.17 686.016C6909.83 686.112 6909.47 686.16 6909.1 686.16C6908.46 686.16 6907.91 686.048 6907.44 685.824C6906.97 685.6 6906.61 685.259 6906.37 684.8C6906.12 684.331 6906 683.728 6906 682.992V677.344H6907.92V682.64C6907.92 683.291 6908.05 683.781 6908.32 684.112C6908.58 684.443 6909 684.608 6909.57 684.608C6910.13 684.608 6910.57 684.491 6910.88 684.256C6911.2 684.021 6911.42 683.685 6911.55 683.248C6911.69 682.8 6911.76 682.256 6911.76 681.616V677.344H6913.68ZM6922.12 683.52C6922.12 684.085 6921.98 684.565 6921.7 684.96C6921.43 685.355 6921.02 685.653 6920.49 685.856C6919.96 686.059 6919.3 686.16 6918.54 686.16C6917.94 686.16 6917.42 686.117 6916.98 686.032C6916.55 685.947 6916.14 685.813 6915.75 685.632V683.984C6916.16 684.187 6916.62 684.357 6917.13 684.496C6917.65 684.635 6918.14 684.704 6918.6 684.704C6919.19 684.704 6919.61 684.613 6919.86 684.432C6920.12 684.251 6920.25 684.011 6920.25 683.712C6920.25 683.531 6920.2 683.371 6920.09 683.232C6919.99 683.083 6919.8 682.928 6919.51 682.768C6919.24 682.608 6918.81 682.416 6918.25 682.192C6917.69 681.968 6917.23 681.749 6916.86 681.536C6916.49 681.312 6916.22 681.045 6916.02 680.736C6915.83 680.416 6915.74 680.016 6915.74 679.536C6915.74 678.768 6916.04 678.187 6916.65 677.792C6917.27 677.387 6918.08 677.184 6919.08 677.184C6919.61 677.184 6920.12 677.237 6920.58 677.344C6921.05 677.44 6921.52 677.595 6921.99 677.808L6921.38 679.248C6921.12 679.131 6920.85 679.029 6920.58 678.944C6920.33 678.848 6920.07 678.779 6919.8 678.736C6919.54 678.683 6919.28 678.656 6919.02 678.656C6918.56 678.656 6918.21 678.725 6917.96 678.864C6917.73 679.003 6917.61 679.195 6917.61 679.44C6917.61 679.632 6917.67 679.797 6917.78 679.936C6917.9 680.075 6918.1 680.213 6918.39 680.352C6918.68 680.491 6919.09 680.667 6919.62 680.88C6920.15 681.083 6920.6 681.291 6920.97 681.504C6921.34 681.717 6921.62 681.984 6921.82 682.304C6922.02 682.624 6922.12 683.029 6922.12 683.52ZM6926 679.712C6926 679.968 6925.99 680.251 6925.97 680.56C6925.94 680.859 6925.92 681.141 6925.9 681.408H6925.95C6926.03 681.291 6926.14 681.157 6926.25 681.008C6926.37 680.848 6926.49 680.688 6926.62 680.528C6926.75 680.368 6926.87 680.229 6926.97 680.112L6929.57 677.344H6931.76L6928.29 681.072L6931.98 686H6929.73L6926.99 682.24L6926 683.072V686H6924.08V673.84H6926V679.712Z" fill="#1F1F1F" id="n1849"/>
<mask id="path-1464-inside-125_1702_11540" fill="white">
<path d="M6969 656H7095.4C7098.76 656 7100.44 656 7101.72 656.654C7102.85 657.229 7103.77 658.147 7104.35 659.276C7105 660.56 7105 662.24 7105 665.6V694.4C7105 697.76 7105 699.44 7104.35 700.724C7103.77 701.853 7102.85 702.771 7101.72 703.346C7100.44 704 7098.76 704 7095.4 704H6969V656Z" id="n1850"/>
</mask>
<path d="M6969 656H7095.4C7098.76 656 7100.44 656 7101.72 656.654C7102.85 657.229 7103.77 658.147 7104.35 659.276C7105 660.56 7105 662.24 7105 665.6V694.4C7105 697.76 7105 699.44 7104.35 700.724C7103.77 701.853 7102.85 702.771 7101.72 703.346C7100.44 704 7098.76 704 7095.4 704H6969V656Z" fill="white" id="n1851"/>
<path d="M6969 656V655H6968V656H6969ZM6969 704H6968V705H6969V704ZM7104.35 700.724L7103.46 700.27L7104.35 700.724ZM7101.72 703.346L7102.18 704.237L7101.72 703.346ZM7101.72 656.654L7101.27 657.545L7101.72 656.654ZM7104.35 659.276L7105.24 658.822L7104.35 659.276ZM6969 656V657H7095.4V656V655H6969V656ZM7105 665.6H7104V694.4H7105H7106V665.6H7105ZM7095.4 704V703H6969V704V705H7095.4V704ZM6969 704H6970V656H6969H6968V704H6969ZM7105 694.4H7104C7104 696.097 7104 697.309 7103.92 698.259C7103.84 699.198 7103.7 699.793 7103.46 700.27L7104.35 700.724L7105.24 701.178C7105.65 700.372 7105.83 699.485 7105.91 698.422C7106 697.372 7106 696.064 7106 694.4H7105ZM7095.4 704V705C7097.06 705 7098.37 705.001 7099.42 704.915C7100.48 704.828 7101.37 704.648 7102.18 704.237L7101.72 703.346L7101.27 702.455C7100.79 702.698 7100.2 702.845 7099.26 702.922C7098.31 702.999 7097.1 703 7095.4 703V704ZM7104.35 700.724L7103.46 700.27C7102.98 701.211 7102.21 701.976 7101.27 702.455L7101.72 703.346L7102.18 704.237C7103.5 703.566 7104.57 702.495 7105.24 701.178L7104.35 700.724ZM7095.4 656V657C7097.1 657 7098.31 657.001 7099.26 657.078C7100.2 657.155 7100.79 657.302 7101.27 657.545L7101.72 656.654L7102.18 655.763C7101.37 655.352 7100.48 655.172 7099.42 655.085C7098.37 654.999 7097.06 655 7095.4 655V656ZM7105 665.6H7106C7106 663.936 7106 662.628 7105.91 661.578C7105.83 660.515 7105.65 659.628 7105.24 658.822L7104.35 659.276L7103.46 659.73C7103.7 660.207 7103.84 660.802 7103.92 661.741C7104 662.691 7104 663.903 7104 665.6H7105ZM7101.72 656.654L7101.27 657.545C7102.21 658.024 7102.98 658.789 7103.46 659.73L7104.35 659.276L7105.24 658.822C7104.57 657.505 7103.5 656.434 7102.18 655.763L7101.72 656.654Z" fill="#BEBEBE" mask="url(#path-1464-inside-125_1702_11540)" id="n1852"/>
<path d="M7005.41 674.576C7006.39 674.576 7007.21 674.672 7007.88 674.864C7008.55 675.045 7009.05 675.344 7009.38 675.76C7009.72 676.176 7009.89 676.736 7009.89 677.44C7009.89 677.877 7009.82 678.272 7009.67 678.624C7009.52 678.976 7009.29 679.264 7009 679.488C7008.71 679.712 7008.36 679.861 7007.94 679.936V680.016C7008.37 680.091 7008.75 680.229 7009.09 680.432C7009.44 680.624 7009.72 680.907 7009.92 681.28C7010.13 681.643 7010.23 682.123 7010.23 682.72C7010.23 683.413 7010.06 684.005 7009.73 684.496C7009.4 684.987 7008.93 685.36 7008.32 685.616C7007.72 685.872 7006.99 686 7006.15 686H7001.99V674.576H7005.41ZM7005.68 679.264C7006.53 679.264 7007.1 679.131 7007.41 678.864C7007.73 678.597 7007.89 678.203 7007.89 677.68C7007.89 677.157 7007.7 676.784 7007.32 676.56C7006.94 676.325 7006.34 676.208 7005.51 676.208H7003.94V679.264H7005.68ZM7003.94 680.848V684.368H7005.88C7006.74 684.368 7007.34 684.203 7007.67 683.872C7008.01 683.531 7008.18 683.088 7008.18 682.544C7008.18 682.192 7008.11 681.893 7007.96 681.648C7007.81 681.392 7007.56 681.195 7007.2 681.056C7006.85 680.917 7006.38 680.848 7005.78 680.848H7003.94ZM7016.85 677.184C7016.99 677.184 7017.15 677.189 7017.32 677.2C7017.49 677.211 7017.63 677.232 7017.75 677.264L7017.57 679.056C7017.48 679.024 7017.35 679.003 7017.19 678.992C7017.04 678.971 7016.9 678.96 7016.77 678.96C7016.45 678.96 7016.14 679.013 7015.85 679.12C7015.56 679.227 7015.3 679.387 7015.06 679.6C7014.83 679.803 7014.64 680.064 7014.5 680.384C7014.37 680.693 7014.31 681.061 7014.31 681.488V686H7012.39V677.344H7013.89L7014.15 678.864H7014.25C7014.42 678.555 7014.63 678.272 7014.89 678.016C7015.14 677.76 7015.44 677.557 7015.77 677.408C7016.11 677.259 7016.47 677.184 7016.85 677.184ZM7021.26 677.344V686H7019.34V677.344H7021.26ZM7020.32 674.016C7020.61 674.016 7020.86 674.096 7021.07 674.256C7021.28 674.405 7021.39 674.672 7021.39 675.056C7021.39 675.429 7021.28 675.696 7021.07 675.856C7020.86 676.016 7020.61 676.096 7020.32 676.096C7020.02 676.096 7019.76 676.016 7019.55 675.856C7019.35 675.696 7019.25 675.429 7019.25 675.056C7019.25 674.672 7019.35 674.405 7019.55 674.256C7019.76 674.096 7020.02 674.016 7020.32 674.016ZM7026.82 677.184C7027.36 677.184 7027.85 677.291 7028.29 677.504C7028.73 677.717 7029.1 678.037 7029.41 678.464H7029.49L7029.68 677.344H7031.27V686.08C7031.27 686.901 7031.11 687.589 7030.8 688.144C7030.5 688.699 7030.05 689.12 7029.44 689.408C7028.83 689.696 7028.07 689.84 7027.15 689.84C7026.54 689.84 7025.96 689.797 7025.44 689.712C7024.92 689.637 7024.43 689.504 7023.97 689.312V687.696C7024.29 687.845 7024.63 687.968 7024.98 688.064C7025.33 688.171 7025.7 688.245 7026.08 688.288C7026.47 688.341 7026.86 688.368 7027.27 688.368C7027.94 688.368 7028.46 688.176 7028.82 687.792C7029.18 687.419 7029.36 686.88 7029.36 686.176V685.936C7029.36 685.776 7029.37 685.589 7029.38 685.376C7029.39 685.163 7029.4 684.992 7029.41 684.864H7029.35C7029.05 685.312 7028.68 685.643 7028.26 685.856C7027.83 686.059 7027.34 686.16 7026.79 686.16C7025.72 686.16 7024.88 685.765 7024.27 684.976C7023.68 684.187 7023.38 683.088 7023.38 681.68C7023.38 680.741 7023.51 679.936 7023.78 679.264C7024.06 678.592 7024.45 678.08 7024.96 677.728C7025.48 677.365 7026.1 677.184 7026.82 677.184ZM7027.3 678.752C7026.87 678.752 7026.51 678.869 7026.23 679.104C7025.94 679.328 7025.72 679.659 7025.57 680.096C7025.42 680.533 7025.35 681.072 7025.35 681.712C7025.35 682.672 7025.51 683.397 7025.84 683.888C7026.17 684.379 7026.67 684.624 7027.33 684.624C7027.7 684.624 7028.02 684.581 7028.27 684.496C7028.54 684.4 7028.76 684.245 7028.93 684.032C7029.1 683.819 7029.23 683.547 7029.31 683.216C7029.4 682.875 7029.44 682.469 7029.44 682V681.696C7029.44 680.992 7029.37 680.427 7029.22 680C7029.07 679.573 7028.83 679.259 7028.51 679.056C7028.2 678.853 7027.8 678.752 7027.3 678.752ZM7035.78 676.832C7035.78 677.152 7035.77 677.467 7035.75 677.776C7035.73 678.085 7035.7 678.325 7035.68 678.496H7035.79C7035.99 678.197 7036.22 677.952 7036.48 677.76C7036.75 677.568 7037.04 677.424 7037.36 677.328C7037.69 677.232 7038.04 677.184 7038.4 677.184C7039.05 677.184 7039.61 677.296 7040.08 677.52C7040.55 677.744 7040.91 678.091 7041.15 678.56C7041.41 679.019 7041.54 679.616 7041.54 680.352V686H7039.62V680.72C7039.62 680.048 7039.49 679.552 7039.22 679.232C7038.95 678.901 7038.54 678.736 7037.97 678.736C7037.42 678.736 7036.98 678.853 7036.66 679.088C7036.35 679.323 7036.13 679.664 7035.99 680.112C7035.85 680.549 7035.78 681.093 7035.78 681.744V686H7033.86V673.84H7035.78V676.832ZM7047.36 684.608C7047.6 684.608 7047.84 684.587 7048.08 684.544C7048.31 684.501 7048.53 684.448 7048.72 684.384V685.824C7048.51 685.92 7048.25 686 7047.92 686.064C7047.59 686.128 7047.24 686.16 7046.88 686.16C7046.4 686.16 7045.96 686.08 7045.57 685.92C7045.17 685.749 7044.85 685.467 7044.61 685.072C7044.37 684.667 7044.25 684.101 7044.25 683.376V678.8H7043.09V677.952L7044.35 677.264L7044.97 675.424H7046.17V677.344H7048.64V678.8H7046.17V683.36C7046.17 683.787 7046.28 684.101 7046.49 684.304C7046.72 684.507 7047.01 684.608 7047.36 684.608Z" fill="#1F1F1F" id="n1853"/>
<path d="M7070.09 675.41L7071.5 674L7077.5 680L7071.5 686L7070.09 684.59L7074.67 680L7070.09 675.41Z" fill="#535353" id="n1854"/>
<path d="M6840 739H6844V741H6840C6837.24 741 6835 738.76 6835 736C6835 733.24 6837.24 731 6840 731H6844V733H6840C6838.35 733 6837 734.35 6837 736C6837 737.65 6838.35 739 6840 739Z" fill="#535353" id="n1855"/>
<path d="M6846 731H6850C6852.76 731 6855 733.24 6855 736C6855 738.76 6852.76 741 6850 741H6846V739H6850C6851.65 739 6853 737.65 6853 736C6853 734.35 6851.65 733 6850 733H6846V731Z" fill="#535353" id="n1856"/>
<path d="M6849 735H6841V737H6849V735Z" fill="#535353" id="n1857"/>
<path d="M6866.57 742V730.576H6867.85V740.848H6872.95V742H6866.57ZM6875.97 733.44V742H6874.72V733.44H6875.97ZM6875.36 730.24C6875.57 730.24 6875.75 730.309 6875.89 730.448C6876.04 730.587 6876.11 730.8 6876.11 731.088C6876.11 731.355 6876.04 731.563 6875.89 731.712C6875.75 731.851 6875.57 731.92 6875.36 731.92C6875.14 731.92 6874.95 731.851 6874.8 731.712C6874.66 731.563 6874.59 731.355 6874.59 731.088C6874.59 730.8 6874.66 730.587 6874.8 730.448C6874.95 730.309 6875.14 730.24 6875.36 730.24ZM6882.75 733.28C6883.75 733.28 6884.52 733.531 6885.04 734.032C6885.56 734.523 6885.82 735.317 6885.82 736.416V742H6884.58V736.512C6884.58 735.776 6884.41 735.232 6884.08 734.88C6883.75 734.528 6883.25 734.352 6882.58 734.352C6881.63 734.352 6880.95 734.619 6880.56 735.152C6880.17 735.685 6879.97 736.464 6879.97 737.488V742H6878.72V733.44H6879.73L6879.92 734.704H6879.98C6880.18 734.395 6880.41 734.139 6880.69 733.936C6880.97 733.723 6881.28 733.563 6881.63 733.456C6881.98 733.339 6882.36 733.28 6882.75 733.28ZM6889.75 736.144C6889.75 736.368 6889.74 736.635 6889.72 736.944C6889.71 737.243 6889.7 737.515 6889.69 737.76H6889.73C6889.81 737.664 6889.9 737.541 6890.02 737.392C6890.15 737.243 6890.28 737.088 6890.41 736.928C6890.53 736.768 6890.65 736.635 6890.74 736.528L6893.64 733.44H6895.11L6891.67 737.104L6895.37 742H6893.85L6890.81 737.92L6889.75 738.912V742H6888.5V729.84H6889.75V736.144Z" fill="#1F1F1F" id="n1858"/>
<path d="M7069 724.5H7093C7099.35 724.5 7104.5 729.649 7104.5 736C7104.5 742.351 7099.35 747.5 7093 747.5H7069C7062.65 747.5 7057.5 742.351 7057.5 736C7057.5 729.649 7062.65 724.5 7069 724.5Z" fill="black" fill-opacity="0.04" id="n1859"/>
<path d="M7069 724.5H7093C7099.35 724.5 7104.5 729.649 7104.5 736C7104.5 742.351 7099.35 747.5 7093 747.5H7069C7062.65 747.5 7057.5 742.351 7057.5 736C7057.5 729.649 7062.65 724.5 7069 724.5Z" stroke="#8E8E8E" id="n1860"/>
<path fill-rule="evenodd" clip-rule="evenodd" d="M7069 742C7072.31 742 7075 739.314 7075 736C7075 732.686 7072.31 730 7069 730C7065.69 730 7063 732.686 7063 736C7063 739.314 7065.69 742 7069 742Z" fill="#535353" id="n1861"/>
<mask id="path-1472-inside-126_1702_11540" fill="white">
<path d="M6809 768H7129V832H6809V768Z" id="n1862"/>
</mask>
<path d="M6809 769H7129V767H6809V769Z" fill="#DDDDDD" mask="url(#path-1472-inside-126_1702_11540)" id="n1863"/>
<path d="M6855 782.5C6864.66 782.5 6872.5 790.335 6872.5 800C6872.5 809.665 6864.66 817.5 6855 817.5C6845.34 817.5 6837.5 809.665 6837.5 800C6837.5 790.335 6845.34 782.5 6855 782.5Z" fill="white" id="n1864"/>
<path d="M6855 782.5C6864.66 782.5 6872.5 790.335 6872.5 800C6872.5 809.665 6864.66 817.5 6855 817.5C6845.34 817.5 6837.5 809.665 6837.5 800C6837.5 790.335 6845.34 782.5 6855 782.5Z" stroke="#BEBEBE" id="n1865"/>
<path fill-rule="evenodd" clip-rule="evenodd" d="M6863 791H6847C6845.9 791 6845 791.9 6845 793V803C6845 804.1 6845.9 805 6847 805H6853V807H6851V809H6859V807H6857V805H6863C6864.1 805 6865 804.1 6865 803V793C6865 791.9 6864.1 791 6863 791ZM6847 803H6863V793H6847V803Z" fill="#535353" id="n1866"/>
<path d="M6889 802.976C6889 803.659 6888.83 804.235 6888.5 804.704C6888.17 805.173 6887.7 805.536 6887.08 805.792C6886.47 806.037 6885.76 806.16 6884.95 806.16C6884.53 806.16 6884.11 806.139 6883.72 806.096C6883.34 806.053 6882.98 805.995 6882.66 805.92C6882.35 805.835 6882.08 805.739 6881.83 805.632V804.384C6882.22 804.555 6882.69 804.709 6883.26 804.848C6883.82 804.976 6884.41 805.04 6885.02 805.04C6885.59 805.04 6886.08 804.965 6886.47 804.816C6886.88 804.656 6887.19 804.432 6887.4 804.144C6887.61 803.845 6887.72 803.488 6887.72 803.072C6887.72 802.677 6887.63 802.347 6887.45 802.08C6887.28 801.813 6886.99 801.573 6886.58 801.36C6886.18 801.136 6885.63 800.907 6884.95 800.672C6884.46 800.491 6884.03 800.299 6883.66 800.096C6883.29 799.893 6882.98 799.664 6882.73 799.408C6882.48 799.152 6882.3 798.853 6882.17 798.512C6882.04 798.171 6881.98 797.776 6881.98 797.328C6881.98 796.709 6882.13 796.187 6882.44 795.76C6882.75 795.323 6883.18 794.992 6883.72 794.768C6884.27 794.533 6884.9 794.416 6885.61 794.416C6886.23 794.416 6886.79 794.475 6887.3 794.592C6887.82 794.699 6888.29 794.853 6888.73 795.056L6888.31 796.144C6887.91 795.973 6887.47 795.835 6887 795.728C6886.54 795.611 6886.07 795.552 6885.58 795.552C6885.09 795.552 6884.67 795.627 6884.33 795.776C6883.99 795.915 6883.73 796.117 6883.54 796.384C6883.36 796.651 6883.27 796.965 6883.27 797.328C6883.27 797.744 6883.36 798.085 6883.53 798.352C6883.71 798.619 6883.99 798.853 6884.36 799.056C6884.74 799.259 6885.23 799.472 6885.83 799.696C6886.51 799.941 6887.09 800.203 6887.56 800.48C6888.03 800.757 6888.39 801.093 6888.63 801.488C6888.88 801.872 6889 802.368 6889 802.976ZM6894.57 806.16C6893.79 806.16 6893.1 806 6892.52 805.68C6891.93 805.36 6891.47 804.875 6891.14 804.224C6890.82 803.573 6890.66 802.757 6890.66 801.776C6890.66 800.741 6890.83 799.893 6891.17 799.232C6891.53 798.571 6892.01 798.08 6892.61 797.76C6893.22 797.44 6893.91 797.28 6894.69 797.28C6895.12 797.28 6895.53 797.323 6895.93 797.408C6896.32 797.493 6896.65 797.6 6896.9 797.728L6896.53 798.784C6896.27 798.677 6895.96 798.587 6895.62 798.512C6895.28 798.427 6894.96 798.384 6894.66 798.384C6894.06 798.384 6893.56 798.517 6893.16 798.784C6892.75 799.04 6892.45 799.419 6892.25 799.92C6892.05 800.421 6891.96 801.035 6891.96 801.76C6891.96 802.443 6892.05 803.035 6892.25 803.536C6892.44 804.037 6892.73 804.421 6893.11 804.688C6893.49 804.944 6893.97 805.072 6894.55 805.072C6895.01 805.072 6895.42 805.024 6895.78 804.928C6896.14 804.832 6896.47 804.715 6896.77 804.576V805.696C6896.49 805.845 6896.17 805.957 6895.81 806.032C6895.47 806.117 6895.06 806.16 6894.57 806.16ZM6902.64 797.296C6902.82 797.296 6903 797.307 6903.18 797.328C6903.37 797.339 6903.54 797.36 6903.69 797.392L6903.53 798.56C6903.38 798.517 6903.22 798.485 6903.05 798.464C6902.89 798.443 6902.73 798.432 6902.56 798.432C6902.22 798.432 6901.89 798.507 6901.58 798.656C6901.28 798.795 6901.02 798.992 6900.78 799.248C6900.56 799.504 6900.38 799.813 6900.25 800.176C6900.13 800.539 6900.06 800.944 6900.06 801.392V806H6898.8V797.44H6899.84L6899.97 799.024H6900.03C6900.2 798.704 6900.41 798.416 6900.65 798.16C6900.91 797.893 6901.2 797.685 6901.53 797.536C6901.88 797.376 6902.24 797.296 6902.64 797.296ZM6908.28 797.28C6909.02 797.28 6909.64 797.445 6910.15 797.776C6910.68 798.096 6911.07 798.549 6911.34 799.136C6911.61 799.712 6911.75 800.389 6911.75 801.168V801.952H6905.82C6905.84 802.965 6906.09 803.744 6906.57 804.288C6907.06 804.821 6907.75 805.088 6908.65 805.088C6909.18 805.088 6909.66 805.04 6910.07 804.944C6910.49 804.837 6910.92 804.688 6911.37 804.496V805.6C6910.94 805.792 6910.52 805.931 6910.09 806.016C6909.66 806.112 6909.16 806.16 6908.59 806.16C6907.76 806.16 6907.04 805.995 6906.43 805.664C6905.82 805.323 6905.35 804.827 6905.02 804.176C6904.69 803.515 6904.52 802.72 6904.52 801.792C6904.52 800.875 6904.67 800.08 6904.97 799.408C6905.28 798.736 6905.72 798.213 6906.28 797.84C6906.85 797.467 6907.51 797.28 6908.28 797.28ZM6908.27 798.32C6907.56 798.32 6907 798.549 6906.59 799.008C6906.17 799.467 6905.92 800.112 6905.85 800.944H6910.44C6910.44 800.421 6910.36 799.968 6910.2 799.584C6910.05 799.189 6909.82 798.88 6909.5 798.656C6909.18 798.432 6908.77 798.32 6908.27 798.32ZM6917.23 797.28C6917.97 797.28 6918.59 797.445 6919.11 797.776C6919.63 798.096 6920.02 798.549 6920.29 799.136C6920.57 799.712 6920.71 800.389 6920.71 801.168V801.952H6914.77C6914.79 802.965 6915.04 803.744 6915.52 804.288C6916.01 804.821 6916.71 805.088 6917.6 805.088C6918.14 805.088 6918.61 805.04 6919.03 804.944C6919.44 804.837 6919.87 804.688 6920.32 804.496V805.6C6919.9 805.792 6919.47 805.931 6919.04 806.016C6918.62 806.112 6918.11 806.16 6917.54 806.16C6916.72 806.16 6916 805.995 6915.38 805.664C6914.77 805.323 6914.3 804.827 6913.97 804.176C6913.64 803.515 6913.47 802.72 6913.47 801.792C6913.47 800.875 6913.62 800.08 6913.92 799.408C6914.23 798.736 6914.67 798.213 6915.23 797.84C6915.8 797.467 6916.47 797.28 6917.23 797.28ZM6917.22 798.32C6916.51 798.32 6915.95 798.549 6915.54 799.008C6915.12 799.467 6914.88 800.112 6914.8 800.944H6919.39C6919.39 800.421 6919.31 799.968 6919.15 799.584C6919 799.189 6918.77 798.88 6918.45 798.656C6918.13 798.432 6917.72 798.32 6917.22 798.32ZM6926.94 797.28C6927.94 797.28 6928.7 797.531 6929.23 798.032C6929.75 798.523 6930.01 799.317 6930.01 800.416V806H6928.76V800.512C6928.76 799.776 6928.6 799.232 6928.27 798.88C6927.94 798.528 6927.44 798.352 6926.76 798.352C6925.81 798.352 6925.14 798.619 6924.75 799.152C6924.35 799.685 6924.16 800.464 6924.16 801.488V806H6922.91V797.44H6923.92L6924.11 798.704H6924.17C6924.36 798.395 6924.6 798.139 6924.88 797.936C6925.15 797.723 6925.47 797.563 6925.82 797.456C6926.17 797.339 6926.54 797.28 6926.94 797.28ZM6940.27 806.16C6939.49 806.16 6938.81 806 6938.22 805.68C6937.63 805.36 6937.18 804.875 6936.84 804.224C6936.52 803.573 6936.36 802.757 6936.36 801.776C6936.36 800.741 6936.54 799.893 6936.88 799.232C6937.23 798.571 6937.71 798.08 6938.32 797.76C6938.92 797.44 6939.62 797.28 6940.4 797.28C6940.82 797.28 6941.23 797.323 6941.63 797.408C6942.02 797.493 6942.35 797.6 6942.6 797.728L6942.24 798.784C6941.97 798.677 6941.67 798.587 6941.32 798.512C6940.98 798.427 6940.66 798.384 6940.36 798.384C6939.77 798.384 6939.27 798.517 6938.86 798.784C6938.46 799.04 6938.15 799.419 6937.95 799.92C6937.76 800.421 6937.66 801.035 6937.66 801.76C6937.66 802.443 6937.76 803.035 6937.95 803.536C6938.14 804.037 6938.43 804.421 6938.81 804.688C6939.2 804.944 6939.68 805.072 6940.25 805.072C6940.71 805.072 6941.12 805.024 6941.48 804.928C6941.85 804.832 6942.18 804.715 6942.48 804.576V805.696C6942.19 805.845 6941.87 805.957 6941.52 806.032C6941.18 806.117 6940.76 806.16 6940.27 806.16ZM6951.86 801.712C6951.86 802.405 6951.77 803.029 6951.59 803.584C6951.41 804.128 6951.15 804.592 6950.81 804.976C6950.46 805.36 6950.05 805.653 6949.56 805.856C6949.07 806.059 6948.52 806.16 6947.91 806.16C6947.33 806.16 6946.81 806.059 6946.33 805.856C6945.86 805.653 6945.45 805.36 6945.09 804.976C6944.75 804.592 6944.49 804.128 6944.29 803.584C6944.11 803.04 6944.02 802.416 6944.02 801.712C6944.02 800.773 6944.18 799.979 6944.49 799.328C6944.81 798.667 6945.26 798.16 6945.85 797.808C6946.44 797.456 6947.15 797.28 6947.96 797.28C6948.75 797.28 6949.43 797.456 6950.01 797.808C6950.59 798.16 6951.05 798.667 6951.37 799.328C6951.7 799.989 6951.86 800.784 6951.86 801.712ZM6945.32 801.712C6945.32 802.395 6945.41 802.992 6945.59 803.504C6945.78 804.016 6946.07 804.411 6946.45 804.688C6946.84 804.965 6947.33 805.104 6947.93 805.104C6948.53 805.104 6949.03 804.965 6949.41 804.688C6949.81 804.411 6950.1 804.016 6950.28 803.504C6950.46 802.992 6950.55 802.395 6950.55 801.712C6950.55 801.019 6950.45 800.427 6950.26 799.936C6950.08 799.435 6949.8 799.045 6949.41 798.768C6949.04 798.491 6948.54 798.352 6947.93 798.352C6947.03 798.352 6946.37 798.651 6945.94 799.248C6945.53 799.835 6945.32 800.656 6945.32 801.712ZM6958.13 797.28C6959.13 797.28 6959.89 797.531 6960.41 798.032C6960.94 798.523 6961.2 799.317 6961.2 800.416V806H6959.95V800.512C6959.95 799.776 6959.79 799.232 6959.45 798.88C6959.12 798.528 6958.62 798.352 6957.95 798.352C6957 798.352 6956.33 798.619 6955.93 799.152C6955.54 799.685 6955.34 800.464 6955.34 801.488V806H6954.09V797.44H6955.1L6955.29 798.704H6955.36C6955.55 798.395 6955.79 798.139 6956.06 797.936C6956.34 797.723 6956.65 797.563 6957.01 797.456C6957.36 797.339 6957.73 797.28 6958.13 797.28ZM6966.6 805.12C6966.82 805.12 6967.04 805.104 6967.25 805.072C6967.48 805.029 6967.66 804.987 6967.81 804.944V805.904C6967.65 805.979 6967.44 806.037 6967.17 806.08C6966.92 806.133 6966.65 806.16 6966.39 806.16C6965.94 806.16 6965.53 806.08 6965.17 805.92C6964.81 805.76 6964.52 805.493 6964.29 805.12C6964.08 804.736 6963.97 804.208 6963.97 803.536V798.432H6962.74V797.808L6963.99 797.328L6964.47 795.456H6965.24V797.44H6967.75V798.432H6965.24V803.504C6965.24 804.048 6965.35 804.453 6965.59 804.72C6965.83 804.987 6966.17 805.12 6966.6 805.12ZM6973.4 797.296C6973.58 797.296 6973.77 797.307 6973.95 797.328C6974.14 797.339 6974.31 797.36 6974.46 797.392L6974.3 798.56C6974.15 798.517 6973.99 798.485 6973.82 798.464C6973.66 798.443 6973.49 798.432 6973.32 798.432C6972.98 798.432 6972.66 798.507 6972.35 798.656C6972.05 798.795 6971.78 798.992 6971.55 799.248C6971.32 799.504 6971.15 799.813 6971.02 800.176C6970.89 800.539 6970.83 800.944 6970.83 801.392V806H6969.56V797.44H6970.6L6970.73 799.024H6970.8C6970.97 798.704 6971.17 798.416 6971.42 798.16C6971.68 797.893 6971.97 797.685 6972.3 797.536C6972.64 797.376 6973.01 797.296 6973.4 797.296ZM6983.13 801.712C6983.13 802.405 6983.04 803.029 6982.85 803.584C6982.67 804.128 6982.41 804.592 6982.07 804.976C6981.73 805.36 6981.31 805.653 6980.82 805.856C6980.33 806.059 6979.78 806.16 6979.17 806.16C6978.6 806.16 6978.07 806.059 6977.59 805.856C6977.12 805.653 6976.71 805.36 6976.36 804.976C6976.02 804.592 6975.75 804.128 6975.56 803.584C6975.38 803.04 6975.29 802.416 6975.29 801.712C6975.29 800.773 6975.44 799.979 6975.75 799.328C6976.07 798.667 6976.52 798.16 6977.11 797.808C6977.71 797.456 6978.41 797.28 6979.22 797.28C6980.01 797.28 6980.69 797.456 6981.27 797.808C6981.86 798.16 6982.31 798.667 6982.63 799.328C6982.96 799.989 6983.13 800.784 6983.13 801.712ZM6976.58 801.712C6976.58 802.395 6976.67 802.992 6976.85 803.504C6977.05 804.016 6977.33 804.411 6977.72 804.688C6978.1 804.965 6978.59 805.104 6979.19 805.104C6979.8 805.104 6980.29 804.965 6980.68 804.688C6981.07 804.411 6981.36 804.016 6981.54 803.504C6981.72 802.992 6981.81 802.395 6981.81 801.712C6981.81 801.019 6981.72 800.427 6981.53 799.936C6981.35 799.435 6981.06 799.045 6980.68 798.768C6980.31 798.491 6979.81 798.352 6979.19 798.352C6978.29 798.352 6977.63 798.651 6977.21 799.248C6976.79 799.835 6976.58 800.656 6976.58 801.712ZM6986.62 806H6985.36V793.84H6986.62V806Z" fill="#535353" id="n1867"/>
</g>
</g>
</g>
</svg>
