<?xml version='1.0' encoding='utf-8'?>
<svg xmlns="http://www.w3.org/2000/svg" xmlns:xlink="http://www.w3.org/1999/xlink" width="792.0" height="144.0" viewBox="0 0 792.0 144.0" fill="none">
  <defs><clipPath id="clip__asset"><rect x="0" y="0" width="792.0" height="144.0"/></clipPath><mask id="mask85_68_6728" style="mask-type:alpha" maskUnits="userSpaceOnUse" x="7062" y="336" width="512" height="512">
<path d="M7318 780C7251.29 780 7192.69 745.248 7159.32 692.859C7156.95 689.13 7158.27 684.221 7162.1 682.011L7210.6 654.006C7214.43 651.798 7219.3 653.124 7221.76 656.785C7242.6 687.681 7277.93 708 7318 708C7358.07 708 7393.4 687.681 7414.24 656.785C7416.71 653.124 7421.57 651.798 7425.4 654.006L7473.9 682.011C7477.73 684.221 7479.06 689.13 7476.68 692.859C7443.31 745.247 7384.72 780 7318 780Z" fill="white" stroke="black" id="n787"/>
</mask>
<mask id="mask86_68_6728" style="mask-type:luminance" maskUnits="userSpaceOnUse" x="7062" y="336" width="512" height="512">
<path d="M7318 780C7251.29 780 7192.69 745.248 7159.32 692.859C7156.94 689.13 7158.27 684.221 7162.1 682.011L7175.95 674.014C7204.31 723.025 7257.3 756 7318 756C7378.7 756 7431.69 723.025 7460.05 674.013L7473.9 682.011C7477.73 684.221 7479.06 689.13 7476.68 692.859C7443.31 745.248 7384.72 780 7318 780Z" fill="white" stroke="black" id="n793"/>
</mask>
<mask id="mask87_68_6728" style="mask-type:alpha" maskUnits="userSpaceOnUse" x="7062" y="336" width="512" height="512">
<path d="M7318 400C7424.04 400 7510 485.961 7510 592C7510 698.039 7424.04 784 7318 784C7211.96 784 7126 698.039 7126 592C7126 485.961 7211.96 400 7318 400ZM7318 424C7225.22 424 7150 499.216 7150 592C7150 684.784 7225.22 760 7318 760C7410.78 760 7486 684.784 7486 592C7486 499.216 7410.78 424 7318 424Z" fill="black" id="n795"/>
</mask>
<mask id="mask88_68_6728" style="mask-type:alpha" maskUnits="userSpaceOnUse" x="7062" y="336" width="512" height="512">
<path d="M7318 400C7424.04 400 7510 485.961 7510 592C7510 698.039 7424.04 784 7318 784C7211.96 784 7126 698.039 7126 592C7126 485.961 7211.96 400 7318 400ZM7318 428C7227.43 428 7154 501.425 7154 592C7154 682.575 7227.43 756 7318 756C7408.57 756 7482 682.575 7482 592C7482 501.425 7408.57 428 7318 428Z" fill="black" id="n798"/>
</mask>
<mask id="mask89_68_6728" style="mask-type:alpha" maskUnits="userSpaceOnUse" x="7062" y="336" width="512" height="512">
<path d="M7318 756C7257.3 756 7204.31 723.025 7175.95 674.014L7210.61 654.006C7214.42 651.801 7219.28 653.121 7221.75 656.77C7222.07 657.243 7222.4 657.712 7222.72 658.18C7222.76 658.235 7222.8 658.291 7222.84 658.347C7223.12 658.753 7223.41 659.158 7223.7 659.561C7223.74 659.626 7223.79 659.692 7223.84 659.758C7224.14 660.172 7224.44 660.585 7224.74 660.995C7224.77 661.027 7224.79 661.06 7224.82 661.092C7225.83 662.46 7226.88 663.806 7227.95 665.127C7227.99 665.169 7228.02 665.21 7228.05 665.252C7229.12 666.557 7230.21 667.838 7231.33 669.095C7231.4 669.175 7231.47 669.256 7231.54 669.336C7231.85 669.682 7232.17 670.027 7232.48 670.37C7232.53 670.431 7232.59 670.49 7232.65 670.551C7234.16 672.2 7235.73 673.805 7237.34 675.363C7237.4 675.42 7237.46 675.476 7237.51 675.532C7237.86 675.867 7238.21 676.199 7238.56 676.529C7238.62 676.585 7238.68 676.641 7238.74 676.696C7239.55 677.456 7240.37 678.205 7241.21 678.941C7241.27 678.996 7241.33 679.049 7241.39 679.103C7241.74 679.406 7242.08 679.707 7242.43 680.006C7242.53 680.092 7242.63 680.177 7242.73 680.263C7243.1 680.576 7243.47 680.888 7243.84 681.197C7243.87 681.222 7243.9 681.247 7243.93 681.271C7244.8 681.997 7245.68 682.709 7246.58 683.409C7246.63 683.448 7246.68 683.486 7246.73 683.525C7247.11 683.82 7247.49 684.112 7247.87 684.402C7247.96 684.471 7248.05 684.54 7248.14 684.608C7248.5 684.885 7248.87 685.159 7249.24 685.432C7249.32 685.489 7249.4 685.547 7249.47 685.603C7250.81 686.582 7252.17 687.533 7253.54 688.455C7253.65 688.526 7253.76 688.596 7253.86 688.667C7254.24 688.918 7254.62 689.167 7255 689.414C7255.07 689.459 7255.14 689.505 7255.21 689.55C7256.13 690.147 7257.07 690.731 7258.01 691.302C7258.13 691.377 7258.26 691.451 7258.38 691.525C7258.73 691.735 7259.08 691.942 7259.43 692.148C7259.56 692.222 7259.68 692.295 7259.81 692.368C7260.18 692.581 7260.54 692.792 7260.91 693.001C7261.03 693.065 7261.14 693.129 7261.25 693.192C7262.21 693.731 7263.18 694.258 7264.15 694.77C7264.24 694.815 7264.32 694.858 7264.41 694.902C7264.8 695.109 7265.2 695.313 7265.6 695.515C7265.73 695.582 7265.87 695.65 7266 695.717C7266.37 695.904 7266.75 696.09 7267.12 696.273C7267.24 696.329 7267.35 696.385 7267.46 696.439C7268.45 696.919 7269.45 697.385 7270.45 697.837C7270.57 697.891 7270.69 697.944 7270.81 697.997C7271.19 698.166 7271.57 698.333 7271.95 698.498C7272.1 698.564 7272.26 698.63 7272.41 698.695C7272.79 698.858 7273.17 699.019 7273.55 699.178C7273.67 699.227 7273.79 699.277 7273.91 699.326C7274.94 699.75 7275.98 700.161 7277.03 700.556C7277.11 700.585 7277.18 700.613 7277.26 700.642C7277.7 700.808 7278.15 700.971 7278.59 701.132C7278.7 701.171 7278.81 701.21 7278.92 701.249C7279.35 701.404 7279.78 701.557 7280.22 701.707C7280.33 701.745 7280.44 701.783 7280.55 701.82C7281.59 702.176 7282.64 702.518 7283.7 702.845C7283.85 702.89 7283.99 702.933 7284.14 702.978C7284.53 703.098 7284.93 703.217 7285.33 703.334C7285.46 703.373 7285.6 703.412 7285.73 703.45C7286.16 703.575 7286.59 703.697 7287.02 703.816C7287.14 703.848 7287.25 703.881 7287.37 703.912C7287.84 704.041 7288.31 704.166 7288.79 704.289C7288.91 704.321 7289.03 704.353 7289.16 704.385C7289.63 704.505 7290.1 704.622 7290.57 704.736C7290.77 704.785 7290.97 704.833 7291.17 704.881C7291.5 704.957 7291.82 705.032 7292.14 705.105C7292.37 705.158 7292.6 705.21 7292.83 705.261C7293.2 705.343 7293.57 705.422 7293.95 705.501C7294.09 705.53 7294.23 705.561 7294.37 705.59C7295.46 705.817 7296.57 706.029 7297.68 706.225C7297.84 706.253 7298 706.28 7298.16 706.308C7298.55 706.375 7298.94 706.44 7299.33 706.503C7299.51 706.533 7299.7 706.562 7299.89 706.592C7300.31 706.658 7300.73 706.723 7301.16 706.785C7301.27 706.802 7301.39 706.818 7301.5 706.834C7302.63 706.995 7303.76 707.139 7304.9 707.267C7305.05 707.284 7305.2 707.301 7305.36 707.317C7305.77 707.362 7306.18 707.404 7306.59 707.444C7306.77 707.463 7306.96 707.481 7307.15 707.498C7307.56 707.536 7307.97 707.571 7308.38 707.604C7308.53 707.617 7308.69 707.631 7308.85 707.644C7309.35 707.683 7309.86 707.72 7310.37 707.753C7310.5 707.761 7310.62 707.769 7310.75 707.776C7311.23 707.806 7311.71 707.833 7312.2 707.856C7312.4 707.866 7312.6 707.875 7312.8 707.884C7313.2 707.901 7313.6 707.917 7314 707.931C7314.18 707.937 7314.36 707.942 7314.54 707.947C7314.92 707.959 7315.31 707.968 7315.69 707.976C7315.9 707.98 7316.12 707.984 7316.33 707.987C7316.88 707.995 7317.44 708 7318 708C7318.56 708 7319.12 707.995 7319.68 707.987C7319.89 707.984 7320.1 707.98 7320.32 707.976C7320.7 707.968 7321.08 707.958 7321.46 707.947C7321.65 707.942 7321.83 707.937 7322.01 707.931C7322.4 707.917 7322.8 707.901 7323.2 707.884C7323.4 707.875 7323.61 707.867 7323.81 707.856C7324.28 707.833 7324.75 707.807 7325.22 707.778C7325.37 707.769 7325.52 707.76 7325.67 707.75C7326.16 707.718 7326.66 707.683 7327.15 707.645C7327.31 707.632 7327.48 707.617 7327.64 707.604C7328.05 707.571 7328.45 707.536 7328.84 707.499C7329.04 707.481 7329.23 707.462 7329.43 707.443C7329.83 707.404 7330.23 707.362 7330.62 707.319C7330.79 707.301 7330.95 707.284 7331.12 707.266C7332.25 707.138 7333.37 706.995 7334.49 706.836C7334.62 706.818 7334.75 706.798 7334.88 706.779C7335.28 706.72 7335.69 706.658 7336.1 706.595C7336.3 706.563 7336.5 706.532 7336.7 706.5C7337.07 706.44 7337.44 706.377 7337.81 706.313C7337.99 706.283 7338.17 706.254 7338.34 706.223C7339.44 706.028 7340.53 705.818 7341.62 705.593C7341.77 705.563 7341.91 705.532 7342.06 705.501C7342.46 705.416 7342.86 705.329 7343.27 705.239C7343.43 705.202 7343.6 705.165 7343.77 705.127C7344.13 705.045 7344.48 704.962 7344.84 704.877C7345.05 704.829 7345.25 704.781 7345.46 704.731C7345.87 704.631 7346.28 704.528 7346.69 704.424C7346.9 704.37 7347.11 704.316 7347.32 704.262C7347.75 704.149 7348.18 704.035 7348.61 703.918C7348.75 703.88 7348.89 703.841 7349.03 703.802C7349.44 703.69 7349.84 703.576 7350.24 703.46C7350.4 703.415 7350.55 703.369 7350.71 703.323C7351.08 703.216 7351.44 703.107 7351.8 702.996C7351.98 702.943 7352.15 702.891 7352.33 702.838C7353.36 702.516 7354.4 702.18 7355.42 701.83C7355.56 701.783 7355.7 701.735 7355.84 701.687C7356.24 701.548 7356.64 701.407 7357.05 701.264C7357.18 701.216 7357.31 701.168 7357.45 701.119C7357.88 700.964 7358.31 700.805 7358.74 700.645C7358.82 700.615 7358.89 700.585 7358.97 700.556C7360.01 700.163 7361.05 699.755 7362.08 699.333C7362.23 699.271 7362.38 699.208 7362.53 699.145C7362.87 699.004 7363.21 698.861 7363.54 698.717C7363.73 698.638 7363.91 698.558 7364.1 698.479C7364.43 698.332 7364.77 698.184 7365.11 698.034C7365.27 697.963 7365.43 697.894 7365.58 697.822C7366.58 697.375 7367.56 696.914 7368.54 696.44C7368.65 696.385 7368.77 696.329 7368.88 696.273C7369.26 696.09 7369.63 695.904 7370 695.717C7370.14 695.649 7370.28 695.58 7370.41 695.512C7370.78 695.324 7371.15 695.135 7371.52 694.943C7371.64 694.88 7371.76 694.817 7371.88 694.753C7372.84 694.253 7373.78 693.739 7374.71 693.214C7374.87 693.128 7375.02 693.04 7375.17 692.953C7375.5 692.771 7375.82 692.588 7376.13 692.402C7376.3 692.307 7376.46 692.211 7376.63 692.115C7376.93 691.94 7377.22 691.763 7377.52 691.585C7377.69 691.483 7377.86 691.382 7378.03 691.279C7378.95 690.724 7379.85 690.157 7380.75 689.577C7380.87 689.502 7380.99 689.425 7381.1 689.35C7381.43 689.138 7381.75 688.925 7382.08 688.71C7382.22 688.613 7382.37 688.517 7382.51 688.42C7382.89 688.17 7383.26 687.918 7383.63 687.664C7383.69 687.62 7383.75 687.576 7383.82 687.532C7384.72 686.912 7385.61 686.28 7386.49 685.635C7386.61 685.544 7386.73 685.452 7386.86 685.361C7387.17 685.129 7387.49 684.894 7387.8 684.658C7387.93 684.56 7388.06 684.461 7388.19 684.361C7388.55 684.087 7388.91 683.812 7389.26 683.534C7389.32 683.492 7389.37 683.45 7389.43 683.408C7390.31 682.721 7391.17 682.021 7392.03 681.309C7392.11 681.241 7392.2 681.172 7392.28 681.104C7392.59 680.844 7392.9 680.584 7393.21 680.321C7393.35 680.199 7393.49 680.077 7393.63 679.954C7393.92 679.708 7394.2 679.461 7394.49 679.212C7394.6 679.109 7394.72 679.006 7394.84 678.902C7395.64 678.192 7396.43 677.472 7397.22 676.74C7397.32 676.641 7397.43 676.54 7397.53 676.44C7397.83 676.162 7398.12 675.883 7398.42 675.602C7398.52 675.502 7398.62 675.403 7398.72 675.304C7399.04 675.002 7399.34 674.699 7399.65 674.395C7399.73 674.316 7399.81 674.239 7399.89 674.16C7400.67 673.38 7401.44 672.587 7402.2 671.785C7402.26 671.728 7402.31 671.671 7402.37 671.613C7402.68 671.285 7402.98 670.956 7403.29 670.624C7403.39 670.517 7403.49 670.41 7403.58 670.303C7403.84 670.022 7404.1 669.739 7404.35 669.455C7404.48 669.318 7404.6 669.182 7404.72 669.045C7405.42 668.26 7406.1 667.465 7406.78 666.661C7406.86 666.567 7406.94 666.473 7407.02 666.378C7407.31 666.031 7407.6 665.682 7407.88 665.332C7407.96 665.239 7408.04 665.145 7408.11 665.052C7408.4 664.693 7408.69 664.332 7408.98 663.97C7409.03 663.907 7409.08 663.845 7409.13 663.782C7409.81 662.917 7410.48 662.041 7411.14 661.156C7411.21 661.061 7411.28 660.965 7411.35 660.869C7411.6 660.531 7411.85 660.192 7412.1 659.852C7412.18 659.732 7412.27 659.612 7412.35 659.492C7412.62 659.117 7412.89 658.74 7413.15 658.361C7413.2 658.3 7413.24 658.239 7413.28 658.178C7413.6 657.722 7413.92 657.263 7414.23 656.803C7414.23 656.797 7414.23 656.791 7414.24 656.785C7416.71 653.125 7421.57 651.798 7425.4 654.006L7460.05 674.014C7431.69 723.025 7378.7 756 7318 756Z" fill="white" stroke="black" id="n801"/>
</mask>
<mask id="mask90_68_6728" style="mask-type:alpha" maskUnits="userSpaceOnUse" x="6550" y="336" width="512" height="512">
<path d="M6806 780C6739.29 780 6680.69 745.248 6647.32 692.859C6644.95 689.13 6646.27 684.221 6650.1 682.011L6698.6 654.006C6702.43 651.798 6707.3 653.124 6709.76 656.785C6730.6 687.681 6765.93 708 6806 708C6846.07 708 6881.4 687.681 6902.24 656.785C6904.71 653.124 6909.57 651.798 6913.4 654.006L6961.9 682.011C6965.73 684.221 6967.06 689.13 6964.68 692.859C6931.31 745.247 6872.72 780 6806 780Z" fill="white" stroke="black" id="n811"/>
</mask>
<mask id="mask91_68_6728" style="mask-type:luminance" maskUnits="userSpaceOnUse" x="6550" y="336" width="512" height="512">
<path d="M6806 780C6739.29 780 6680.69 745.248 6647.32 692.859C6644.94 689.13 6646.27 684.221 6650.1 682.011L6663.95 674.014C6692.31 723.025 6745.3 756 6806 756C6866.7 756 6919.69 723.025 6948.05 674.013L6961.9 682.011C6965.73 684.221 6967.06 689.13 6964.68 692.859C6931.31 745.248 6872.72 780 6806 780Z" fill="white" stroke="black" id="n817"/>
</mask>
<mask id="mask92_68_6728" style="mask-type:alpha" maskUnits="userSpaceOnUse" x="6550" y="336" width="512" height="512">
<path d="M6806 400C6912.04 400 6998 485.961 6998 592C6998 698.039 6912.04 784 6806 784C6699.96 784 6614 698.039 6614 592C6614 485.961 6699.96 400 6806 400ZM6806 424C6713.22 424 6638 499.216 6638 592C6638 684.784 6713.22 760 6806 760C6898.78 760 6974 684.784 6974 592C6974 499.216 6898.78 424 6806 424Z" fill="black" id="n819"/>
</mask>
<mask id="mask93_68_6728" style="mask-type:alpha" maskUnits="userSpaceOnUse" x="6550" y="336" width="512" height="512">
<path d="M6806 400C6912.04 400 6998 485.961 6998 592C6998 698.039 6912.04 784 6806 784C6699.96 784 6614 698.039 6614 592C6614 485.961 6699.96 400 6806 400ZM6806 428C6715.43 428 6642 501.425 6642 592C6642 682.575 6715.43 756 6806 756C6896.57 756 6970 682.575 6970 592C6970 501.425 6896.57 428 6806 428Z" fill="black" id="n822"/>
</mask>
<mask id="mask94_68_6728" style="mask-type:alpha" maskUnits="userSpaceOnUse" x="6550" y="336" width="512" height="512">
<path d="M6806 756C6745.3 756 6692.31 723.025 6663.95 674.014L6698.61 654.006C6702.42 651.801 6707.28 653.121 6709.75 656.77C6710.07 657.243 6710.4 657.712 6710.72 658.18C6710.76 658.235 6710.8 658.291 6710.84 658.347C6711.12 658.753 6711.41 659.158 6711.7 659.561C6711.74 659.626 6711.79 659.692 6711.84 659.758C6712.14 660.172 6712.44 660.585 6712.74 660.995C6712.77 661.027 6712.79 661.06 6712.82 661.092C6713.83 662.46 6714.88 663.806 6715.95 665.127C6715.99 665.169 6716.02 665.21 6716.05 665.252C6717.12 666.557 6718.21 667.838 6719.33 669.095C6719.4 669.175 6719.47 669.256 6719.54 669.336C6719.85 669.682 6720.17 670.027 6720.48 670.37C6720.53 670.431 6720.59 670.49 6720.65 670.551C6722.16 672.2 6723.73 673.805 6725.34 675.363C6725.4 675.42 6725.46 675.476 6725.51 675.532C6725.86 675.867 6726.21 676.199 6726.56 676.529C6726.62 676.585 6726.68 676.641 6726.74 676.696C6727.55 677.456 6728.37 678.205 6729.21 678.941C6729.27 678.996 6729.33 679.049 6729.39 679.103C6729.74 679.406 6730.08 679.707 6730.43 680.006C6730.53 680.092 6730.63 680.177 6730.73 680.263C6731.1 680.576 6731.47 680.888 6731.84 681.197C6731.87 681.222 6731.9 681.247 6731.93 681.271C6732.8 681.997 6733.68 682.709 6734.58 683.409C6734.63 683.448 6734.68 683.486 6734.73 683.525C6735.11 683.82 6735.49 684.112 6735.87 684.402C6735.96 684.471 6736.05 684.54 6736.14 684.608C6736.5 684.885 6736.87 685.159 6737.24 685.432C6737.32 685.489 6737.4 685.547 6737.47 685.603C6738.81 686.582 6740.17 687.533 6741.54 688.455C6741.65 688.526 6741.76 688.596 6741.86 688.667C6742.24 688.918 6742.62 689.167 6743 689.414C6743.07 689.459 6743.14 689.505 6743.21 689.55C6744.13 690.147 6745.07 690.731 6746.01 691.302C6746.13 691.377 6746.26 691.451 6746.38 691.525C6746.73 691.735 6747.08 691.942 6747.43 692.148C6747.56 692.222 6747.68 692.295 6747.81 692.368C6748.18 692.581 6748.54 692.792 6748.91 693.001C6749.03 693.065 6749.14 693.129 6749.25 693.192C6750.21 693.731 6751.18 694.258 6752.15 694.77C6752.24 694.815 6752.32 694.858 6752.41 694.902C6752.8 695.109 6753.2 695.313 6753.6 695.515C6753.73 695.582 6753.87 695.65 6754 695.717C6754.37 695.904 6754.75 696.09 6755.12 696.273C6755.24 696.329 6755.35 696.385 6755.46 696.439C6756.45 696.919 6757.45 697.385 6758.45 697.837C6758.57 697.891 6758.69 697.944 6758.81 697.997C6759.19 698.166 6759.57 698.333 6759.95 698.498C6760.1 698.564 6760.26 698.63 6760.41 698.695C6760.79 698.858 6761.17 699.019 6761.55 699.178C6761.67 699.227 6761.79 699.277 6761.91 699.326C6762.94 699.75 6763.98 700.161 6765.03 700.556C6765.11 700.585 6765.18 700.613 6765.26 700.642C6765.7 700.808 6766.15 700.971 6766.59 701.132C6766.7 701.171 6766.81 701.21 6766.92 701.249C6767.35 701.404 6767.78 701.557 6768.22 701.707C6768.33 701.745 6768.44 701.783 6768.55 701.82C6769.59 702.176 6770.64 702.518 6771.7 702.845C6771.85 702.89 6771.99 702.933 6772.14 702.978C6772.53 703.098 6772.93 703.217 6773.33 703.334C6773.46 703.373 6773.6 703.412 6773.73 703.45C6774.16 703.575 6774.59 703.697 6775.02 703.816C6775.14 703.848 6775.25 703.881 6775.37 703.912C6775.84 704.041 6776.31 704.166 6776.79 704.289C6776.91 704.321 6777.03 704.353 6777.16 704.385C6777.63 704.505 6778.1 704.622 6778.57 704.736C6778.77 704.785 6778.97 704.833 6779.17 704.881C6779.5 704.957 6779.82 705.032 6780.14 705.105C6780.37 705.158 6780.6 705.21 6780.83 705.261C6781.2 705.343 6781.57 705.422 6781.95 705.501C6782.09 705.53 6782.23 705.561 6782.37 705.59C6783.46 705.817 6784.57 706.029 6785.68 706.225C6785.84 706.253 6786 706.28 6786.16 706.308C6786.55 706.375 6786.94 706.44 6787.33 706.503C6787.51 706.533 6787.7 706.562 6787.89 706.592C6788.31 706.658 6788.73 706.723 6789.16 706.785C6789.27 706.802 6789.39 706.818 6789.5 706.834C6790.63 706.995 6791.76 707.139 6792.9 707.267C6793.05 707.284 6793.2 707.301 6793.36 707.317C6793.77 707.362 6794.18 707.404 6794.59 707.444C6794.77 707.463 6794.96 707.481 6795.15 707.498C6795.56 707.536 6795.97 707.571 6796.38 707.604C6796.53 707.617 6796.69 707.631 6796.85 707.644C6797.35 707.683 6797.86 707.72 6798.37 707.753C6798.5 707.761 6798.62 707.769 6798.75 707.776C6799.23 707.806 6799.71 707.833 6800.2 707.856C6800.4 707.866 6800.6 707.875 6800.8 707.884C6801.2 707.901 6801.6 707.917 6802 707.931C6802.18 707.937 6802.36 707.942 6802.54 707.947C6802.92 707.959 6803.31 707.968 6803.69 707.976C6803.9 707.98 6804.12 707.984 6804.33 707.987C6804.88 707.995 6805.44 708 6806 708C6806.56 708 6807.12 707.995 6807.68 707.987C6807.89 707.984 6808.1 707.98 6808.32 707.976C6808.7 707.968 6809.08 707.958 6809.46 707.947C6809.65 707.942 6809.83 707.937 6810.01 707.931C6810.4 707.917 6810.8 707.901 6811.2 707.884C6811.4 707.875 6811.61 707.867 6811.81 707.856C6812.28 707.833 6812.75 707.807 6813.22 707.778C6813.37 707.769 6813.52 707.76 6813.67 707.75C6814.16 707.718 6814.66 707.683 6815.15 707.645C6815.31 707.632 6815.48 707.617 6815.64 707.604C6816.05 707.571 6816.45 707.536 6816.84 707.499C6817.04 707.481 6817.23 707.462 6817.43 707.443C6817.83 707.404 6818.23 707.362 6818.62 707.319C6818.79 707.301 6818.95 707.284 6819.12 707.266C6820.25 707.138 6821.37 706.995 6822.49 706.836C6822.62 706.818 6822.75 706.798 6822.88 706.779C6823.28 706.72 6823.69 706.658 6824.1 706.595C6824.3 706.563 6824.5 706.532 6824.7 706.5C6825.07 706.44 6825.44 706.377 6825.81 706.313C6825.99 706.283 6826.17 706.254 6826.34 706.223C6827.44 706.028 6828.53 705.818 6829.62 705.593C6829.77 705.563 6829.91 705.532 6830.06 705.501C6830.46 705.416 6830.86 705.329 6831.27 705.239C6831.43 705.202 6831.6 705.165 6831.77 705.127C6832.13 705.045 6832.48 704.962 6832.84 704.877C6833.05 704.829 6833.25 704.781 6833.46 704.731C6833.87 704.631 6834.28 704.528 6834.69 704.424C6834.9 704.37 6835.11 704.316 6835.32 704.262C6835.75 704.149 6836.18 704.035 6836.61 703.918C6836.75 703.88 6836.89 703.841 6837.03 703.802C6837.44 703.69 6837.84 703.576 6838.24 703.46C6838.4 703.415 6838.55 703.369 6838.71 703.323C6839.08 703.216 6839.44 703.107 6839.8 702.996C6839.98 702.943 6840.15 702.891 6840.33 702.838C6841.36 702.516 6842.4 702.18 6843.42 701.83C6843.56 701.783 6843.7 701.735 6843.84 701.687C6844.24 701.548 6844.64 701.407 6845.05 701.264C6845.18 701.216 6845.31 701.168 6845.45 701.119C6845.88 700.964 6846.31 700.805 6846.74 700.645C6846.82 700.615 6846.89 700.585 6846.97 700.556C6848.01 700.163 6849.05 699.755 6850.08 699.333C6850.23 699.271 6850.38 699.208 6850.53 699.145C6850.87 699.004 6851.21 698.861 6851.54 698.717C6851.73 698.638 6851.91 698.558 6852.1 698.479C6852.43 698.332 6852.77 698.184 6853.11 698.034C6853.27 697.963 6853.43 697.894 6853.58 697.822C6854.58 697.375 6855.56 696.914 6856.54 696.44C6856.65 696.385 6856.77 696.329 6856.88 696.273C6857.26 696.09 6857.63 695.904 6858 695.717C6858.14 695.649 6858.28 695.58 6858.41 695.512C6858.78 695.324 6859.15 695.135 6859.52 694.943C6859.64 694.88 6859.76 694.817 6859.88 694.753C6860.84 694.253 6861.78 693.739 6862.71 693.214C6862.87 693.128 6863.02 693.04 6863.17 692.953C6863.5 692.771 6863.82 692.588 6864.13 692.402C6864.3 692.307 6864.46 692.211 6864.63 692.115C6864.93 691.94 6865.22 691.763 6865.52 691.585C6865.69 691.483 6865.86 691.382 6866.03 691.279C6866.95 690.724 6867.85 690.157 6868.75 689.577C6868.87 689.502 6868.99 689.425 6869.1 689.35C6869.43 689.138 6869.75 688.925 6870.08 688.71C6870.22 688.613 6870.37 688.517 6870.51 688.42C6870.89 688.17 6871.26 687.918 6871.63 687.664C6871.69 687.62 6871.75 687.576 6871.82 687.532C6872.72 686.912 6873.61 686.28 6874.49 685.635C6874.61 685.544 6874.73 685.452 6874.86 685.361C6875.17 685.129 6875.49 684.894 6875.8 684.658C6875.93 684.56 6876.06 684.461 6876.19 684.361C6876.55 684.087 6876.91 683.812 6877.26 683.534C6877.32 683.492 6877.37 683.45 6877.43 683.408C6878.31 682.721 6879.17 682.021 6880.03 681.309C6880.11 681.241 6880.2 681.172 6880.28 681.104C6880.59 680.844 6880.9 680.584 6881.21 680.321C6881.35 680.199 6881.49 680.077 6881.63 679.954C6881.92 679.708 6882.2 679.461 6882.49 679.212C6882.6 679.109 6882.72 679.006 6882.84 678.902C6883.64 678.192 6884.43 677.472 6885.22 676.74C6885.32 676.641 6885.43 676.54 6885.53 676.44C6885.83 676.162 6886.12 675.883 6886.42 675.602C6886.52 675.502 6886.62 675.403 6886.72 675.304C6887.04 675.002 6887.34 674.699 6887.65 674.395C6887.73 674.316 6887.81 674.239 6887.89 674.16C6888.67 673.38 6889.44 672.587 6890.2 671.785C6890.26 671.728 6890.31 671.671 6890.37 671.613C6890.68 671.285 6890.98 670.956 6891.29 670.624C6891.39 670.517 6891.49 670.41 6891.58 670.303C6891.84 670.022 6892.1 669.739 6892.35 669.455C6892.48 669.318 6892.6 669.182 6892.72 669.045C6893.42 668.26 6894.1 667.465 6894.78 666.661C6894.86 666.567 6894.94 666.473 6895.02 666.378C6895.31 666.031 6895.6 665.682 6895.88 665.332C6895.96 665.239 6896.04 665.145 6896.11 665.052C6896.4 664.693 6896.69 664.332 6896.98 663.97C6897.03 663.907 6897.08 663.845 6897.13 663.782C6897.81 662.917 6898.48 662.041 6899.14 661.156C6899.21 661.061 6899.28 660.965 6899.35 660.869C6899.6 660.531 6899.85 660.192 6900.1 659.852C6900.18 659.732 6900.27 659.612 6900.35 659.492C6900.62 659.117 6900.89 658.74 6901.15 658.361C6901.2 658.3 6901.24 658.239 6901.28 658.178C6901.6 657.722 6901.92 657.263 6902.23 656.803C6902.23 656.797 6902.23 656.791 6902.24 656.785C6904.71 653.125 6909.57 651.798 6913.4 654.006L6948.05 674.014C6919.69 723.025 6866.7 756 6806 756Z" fill="white" stroke="black" id="n825"/>
</mask>
</defs>
  <g clip-path="url(#clip__asset)" transform="translate(-6646.0 -600.0)"><path d="M7318 780C7251.29 780 7192.69 745.248 7159.32 692.859C7156.94 689.13 7158.27 684.221 7162.1 682.011L7175.95 674.014C7204.31 723.025 7257.3 756 7318 756C7378.7 756 7431.69 723.025 7460.05 674.013L7473.9 682.011C7477.73 684.221 7479.06 689.13 7476.68 692.859C7443.31 745.248 7384.72 780 7318 780Z" fill="white" stroke="white" id="n784"/>
<path d="M7318 756C7257.3 756 7204.31 723.025 7175.95 674.014L7210.61 654.006C7214.42 651.801 7219.28 653.121 7221.75 656.77C7222.07 657.243 7222.4 657.712 7222.72 658.18C7222.76 658.235 7222.8 658.291 7222.84 658.347C7223.12 658.753 7223.41 659.158 7223.7 659.561C7223.74 659.626 7223.79 659.692 7223.84 659.758C7224.14 660.172 7224.44 660.585 7224.74 660.995C7224.77 661.027 7224.79 661.06 7224.82 661.092C7225.83 662.46 7226.88 663.806 7227.95 665.127C7227.99 665.169 7228.02 665.21 7228.05 665.252C7229.12 666.557 7230.21 667.838 7231.33 669.095C7231.4 669.175 7231.47 669.256 7231.54 669.336C7231.85 669.682 7232.17 670.027 7232.48 670.37C7232.53 670.431 7232.59 670.49 7232.65 670.551C7234.16 672.2 7235.73 673.805 7237.34 675.363C7237.4 675.42 7237.46 675.476 7237.51 675.532C7237.86 675.867 7238.21 676.199 7238.56 676.529C7238.62 676.585 7238.68 676.641 7238.74 676.696C7239.55 677.456 7240.37 678.205 7241.21 678.941C7241.27 678.996 7241.33 679.049 7241.39 679.103C7241.74 679.406 7242.08 679.707 7242.43 680.006C7242.53 680.092 7242.63 680.177 7242.73 680.263C7243.1 680.576 7243.47 680.888 7243.84 681.197C7243.87 681.222 7243.9 681.247 7243.93 681.271C7244.8 681.997 7245.68 682.709 7246.58 683.409C7246.63 683.448 7246.68 683.486 7246.73 683.525C7247.11 683.82 7247.49 684.112 7247.87 684.402C7247.96 684.471 7248.05 684.54 7248.14 684.608C7248.5 684.885 7248.87 685.159 7249.24 685.432C7249.32 685.489 7249.4 685.547 7249.47 685.603C7250.81 686.582 7252.17 687.533 7253.54 688.455C7253.65 688.526 7253.76 688.596 7253.86 688.667C7254.24 688.918 7254.62 689.167 7255 689.414C7255.07 689.459 7255.14 689.505 7255.21 689.55C7256.13 690.147 7257.07 690.731 7258.01 691.302C7258.13 691.377 7258.26 691.451 7258.38 691.525C7258.73 691.735 7259.08 691.942 7259.43 692.148C7259.56 692.222 7259.68 692.295 7259.81 692.368C7260.18 692.581 7260.54 692.792 7260.91 693.001C7261.03 693.065 7261.14 693.129 7261.25 693.192C7262.21 693.731 7263.18 694.258 7264.15 694.77C7264.24 694.815 7264.32 694.858 7264.41 694.902C7264.8 695.109 7265.2 695.313 7265.6 695.515C7265.73 695.582 7265.87 695.65 7266 695.717C7266.37 695.904 7266.75 696.09 7267.12 696.273C7267.24 696.329 7267.35 696.385 7267.46 696.439C7268.45 696.919 7269.45 697.385 7270.45 697.837C7270.57 697.891 7270.69 697.944 7270.81 697.997C7271.19 698.166 7271.57 698.333 7271.95 698.498C7272.1 698.564 7272.26 698.63 7272.41 698.695C7272.79 698.858 7273.17 699.019 7273.55 699.178C7273.67 699.227 7273.79 699.277 7273.91 699.326C7274.94 699.75 7275.98 700.161 7277.03 700.556C7277.11 700.585 7277.18 700.613 7277.26 700.642C7277.7 700.808 7278.15 700.971 7278.59 701.132C7278.7 701.171 7278.81 701.21 7278.92 701.249C7279.35 701.404 7279.78 701.557 7280.22 701.707C7280.33 701.745 7280.44 701.783 7280.55 701.82C7281.59 702.176 7282.64 702.518 7283.7 702.845C7283.85 702.89 7283.99 702.933 7284.14 702.978C7284.53 703.098 7284.93 703.217 7285.33 703.334C7285.46 703.373 7285.6 703.412 7285.73 703.45C7286.16 703.575 7286.59 703.697 7287.02 703.816C7287.14 703.848 7287.25 703.881 7287.37 703.912C7287.84 704.041 7288.31 704.166 7288.79 704.289C7288.91 704.321 7289.03 704.353 7289.16 704.385C7289.63 704.505 7290.1 704.622 7290.57 704.736C7290.77 704.785 7290.97 704.833 7291.17 704.881C7291.5 704.957 7291.82 705.032 7292.14 705.105C7292.37 705.158 7292.6 705.21 7292.83 705.261C7293.2 705.343 7293.57 705.422 7293.95 705.501C7294.09 705.53 7294.23 705.561 7294.37 705.59C7295.46 705.817 7296.57 706.029 7297.68 706.225C7297.84 706.253 7298 706.28 7298.16 706.308C7298.55 706.375 7298.94 706.44 7299.33 706.503C7299.51 706.533 7299.7 706.562 7299.89 706.592C7300.31 706.658 7300.73 706.723 7301.16 706.785C7301.27 706.802 7301.39 706.818 7301.5 706.834C7302.63 706.995 7303.76 707.139 7304.9 707.267C7305.05 707.284 7305.2 707.301 7305.36 707.317C7305.77 707.362 7306.18 707.404 7306.59 707.444C7306.77 707.463 7306.96 707.481 7307.15 707.498C7307.56 707.536 7307.97 707.571 7308.38 707.604C7308.53 707.617 7308.69 707.631 7308.85 707.644C7309.35 707.683 7309.86 707.72 7310.37 707.753C7310.5 707.761 7310.62 707.769 7310.75 707.776C7311.23 707.806 7311.71 707.833 7312.2 707.856C7312.4 707.866 7312.6 707.875 7312.8 707.884C7313.2 707.901 7313.6 707.917 7314 707.931C7314.18 707.937 7314.36 707.942 7314.54 707.947C7314.92 707.959 7315.31 707.968 7315.69 707.976C7315.9 707.98 7316.12 707.984 7316.33 707.987C7316.88 707.995 7317.44 708 7318 708C7318.56 708 7319.12 707.995 7319.68 707.987C7319.89 707.984 7320.1 707.98 7320.32 707.976C7320.7 707.968 7321.08 707.958 7321.46 707.947C7321.65 707.942 7321.83 707.937 7322.01 707.931C7322.4 707.917 7322.8 707.901 7323.2 707.884C7323.4 707.875 7323.61 707.867 7323.81 707.856C7324.28 707.833 7324.75 707.807 7325.22 707.778C7325.37 707.769 7325.52 707.76 7325.67 707.75C7326.16 707.718 7326.66 707.683 7327.15 707.645C7327.31 707.632 7327.48 707.617 7327.64 707.604C7328.05 707.571 7328.45 707.536 7328.84 707.499C7329.04 707.481 7329.23 707.462 7329.43 707.443C7329.83 707.404 7330.23 707.362 7330.62 707.319C7330.79 707.301 7330.95 707.284 7331.12 707.266C7332.25 707.138 7333.37 706.995 7334.49 706.836C7334.62 706.818 7334.75 706.798 7334.88 706.779C7335.28 706.72 7335.69 706.658 7336.1 706.595C7336.3 706.563 7336.5 706.532 7336.7 706.5C7337.07 706.44 7337.44 706.377 7337.81 706.313C7337.99 706.283 7338.17 706.254 7338.34 706.223C7339.44 706.028 7340.53 705.818 7341.62 705.593C7341.77 705.563 7341.91 705.532 7342.06 705.501C7342.46 705.416 7342.86 705.329 7343.27 705.239C7343.43 705.202 7343.6 705.165 7343.77 705.127C7344.13 705.045 7344.48 704.962 7344.84 704.877C7345.05 704.829 7345.25 704.781 7345.46 704.731C7345.87 704.631 7346.28 704.528 7346.69 704.424C7346.9 704.37 7347.11 704.316 7347.32 704.262C7347.75 704.149 7348.18 704.035 7348.61 703.918C7348.75 703.88 7348.89 703.841 7349.03 703.802C7349.44 703.69 7349.84 703.576 7350.24 703.46C7350.4 703.415 7350.55 703.369 7350.71 703.323C7351.08 703.216 7351.44 703.107 7351.8 702.996C7351.98 702.943 7352.15 702.891 7352.33 702.838C7353.36 702.516 7354.4 702.18 7355.42 701.83C7355.56 701.783 7355.7 701.735 7355.84 701.687C7356.24 701.548 7356.64 701.407 7357.05 701.264C7357.18 701.216 7357.31 701.168 7357.45 701.119C7357.88 700.964 7358.31 700.805 7358.74 700.645C7358.82 700.615 7358.89 700.585 7358.97 700.556C7360.01 700.163 7361.05 699.755 7362.08 699.333C7362.23 699.271 7362.38 699.208 7362.53 699.145C7362.87 699.004 7363.21 698.861 7363.54 698.717C7363.73 698.638 7363.91 698.558 7364.1 698.479C7364.43 698.332 7364.77 698.184 7365.11 698.034C7365.27 697.963 7365.43 697.894 7365.58 697.822C7366.58 697.375 7367.56 696.914 7368.54 696.44C7368.65 696.385 7368.77 696.329 7368.88 696.273C7369.26 696.09 7369.63 695.904 7370 695.717C7370.14 695.649 7370.28 695.58 7370.41 695.512C7370.78 695.324 7371.15 695.135 7371.52 694.943C7371.64 694.88 7371.76 694.817 7371.88 694.753C7372.84 694.253 7373.78 693.739 7374.71 693.214C7374.87 693.128 7375.02 693.04 7375.17 692.953C7375.5 692.771 7375.82 692.588 7376.13 692.402C7376.3 692.307 7376.46 692.211 7376.63 692.115C7376.93 691.94 7377.22 691.763 7377.52 691.585C7377.69 691.483 7377.86 691.382 7378.03 691.279C7378.95 690.724 7379.85 690.157 7380.75 689.577C7380.87 689.502 7380.99 689.425 7381.1 689.35C7381.43 689.138 7381.75 688.925 7382.08 688.71C7382.22 688.613 7382.37 688.517 7382.51 688.42C7382.89 688.17 7383.26 687.918 7383.63 687.664C7383.69 687.62 7383.75 687.576 7383.82 687.532C7384.72 686.912 7385.61 686.28 7386.49 685.635C7386.61 685.544 7386.73 685.452 7386.86 685.361C7387.17 685.129 7387.49 684.894 7387.8 684.658C7387.93 684.56 7388.06 684.461 7388.19 684.361C7388.55 684.087 7388.91 683.812 7389.26 683.534C7389.32 683.492 7389.37 683.45 7389.43 683.408C7390.31 682.721 7391.17 682.021 7392.03 681.309C7392.11 681.241 7392.2 681.172 7392.28 681.104C7392.59 680.844 7392.9 680.584 7393.21 680.321C7393.35 680.199 7393.49 680.077 7393.63 679.954C7393.92 679.708 7394.2 679.461 7394.49 679.212C7394.6 679.109 7394.72 679.006 7394.84 678.902C7395.64 678.192 7396.43 677.472 7397.22 676.74C7397.32 676.641 7397.43 676.54 7397.53 676.44C7397.83 676.162 7398.12 675.883 7398.42 675.602C7398.52 675.502 7398.62 675.403 7398.72 675.304C7399.04 675.002 7399.34 674.699 7399.65 674.395C7399.73 674.316 7399.81 674.239 7399.89 674.16C7400.67 673.38 7401.44 672.587 7402.2 671.785C7402.26 671.728 7402.31 671.671 7402.37 671.613C7402.68 671.285 7402.98 670.956 7403.29 670.624C7403.39 670.517 7403.49 670.41 7403.58 670.303C7403.84 670.022 7404.1 669.739 7404.35 669.455C7404.48 669.318 7404.6 669.182 7404.72 669.045C7405.42 668.26 7406.1 667.465 7406.78 666.661C7406.86 666.567 7406.94 666.473 7407.02 666.378C7407.31 666.031 7407.6 665.682 7407.88 665.332C7407.96 665.239 7408.04 665.145 7408.11 665.052C7408.4 664.693 7408.69 664.332 7408.98 663.97C7409.03 663.907 7409.08 663.845 7409.13 663.782C7409.81 662.917 7410.48 662.041 7411.14 661.156C7411.21 661.061 7411.28 660.965 7411.35 660.869C7411.6 660.531 7411.85 660.192 7412.1 659.852C7412.18 659.732 7412.27 659.612 7412.35 659.492C7412.62 659.117 7412.89 658.74 7413.15 658.361C7413.2 658.3 7413.24 658.239 7413.28 658.178C7413.6 657.722 7413.92 657.263 7414.23 656.803C7414.23 656.797 7414.23 656.791 7414.24 656.785C7416.71 653.125 7421.57 651.798 7425.4 654.006L7460.05 674.014C7431.69 723.025 7378.7 756 7318 756Z" fill="#F0F0F0" stroke="#F0F0F0" id="n785"/>
<path d="M7318 780C7251.29 780 7192.69 745.248 7159.32 692.859C7156.95 689.13 7158.27 684.221 7162.1 682.011L7210.6 654.006C7214.43 651.798 7219.3 653.124 7221.76 656.785C7242.6 687.681 7277.93 708 7318 708C7358.07 708 7393.4 687.681 7414.24 656.785C7416.71 653.124 7421.57 651.798 7425.4 654.006L7473.9 682.011C7477.73 684.221 7479.06 689.13 7476.68 692.859C7443.31 745.247 7384.72 780 7318 780Z" stroke="#BEBEBE" id="n786"/>
<g mask="url(#mask85_68_6728)" id="n788">
<path d="M7574 592L7062 592" stroke="#BEBEBE" stroke-linecap="square" id="n789"/>
<path d="M7318 848L7318 336" stroke="#BEBEBE" stroke-linecap="square" id="n790"/>
</g>
<path d="M7318 708L7318 592" stroke="#BEBEBE" stroke-linecap="round" id="n791"/>
<rect x="7314" y="708" width="8" height="72" fill="#BEBEBE" id="n792"/>
<g mask="url(#mask86_68_6728)" id="n794">
<mask id="mask87_68_6728" style="mask-type:alpha" maskUnits="userSpaceOnUse" x="7062" y="336" width="512" height="512">
<path d="M7318 400C7424.04 400 7510 485.961 7510 592C7510 698.039 7424.04 784 7318 784C7211.96 784 7126 698.039 7126 592C7126 485.961 7211.96 400 7318 400ZM7318 424C7225.22 424 7150 499.216 7150 592C7150 684.784 7225.22 760 7318 760C7410.78 760 7486 684.784 7486 592C7486 499.216 7410.78 424 7318 424Z" fill="black" id="n795"/>
</mask>
<g mask="url(#mask87_68_6728)" id="n796">
<path d="M7318 392V592M7318 592L7218 418.795M7318 592L7144.79 492M7318 592H7118M7318 592L7144.79 692M7318 592L7218 765.205M7318 592V792M7318 592L7418 765.205M7318 592L7491.21 692M7318 592H7518M7318 592L7491.21 492M7318 592L7418 418.795" stroke="#BEBEBE" id="n797"/>
</g>
<mask id="mask88_68_6728" style="mask-type:alpha" maskUnits="userSpaceOnUse" x="7062" y="336" width="512" height="512">
<path d="M7318 400C7424.04 400 7510 485.961 7510 592C7510 698.039 7424.04 784 7318 784C7211.96 784 7126 698.039 7126 592C7126 485.961 7211.96 400 7318 400ZM7318 428C7227.43 428 7154 501.425 7154 592C7154 682.575 7227.43 756 7318 756C7408.57 756 7482 682.575 7482 592C7482 501.425 7408.57 428 7318 428Z" fill="black" id="n798"/>
</mask>
<g mask="url(#mask88_68_6728)" id="n799">
<path d="M7318 392V792" stroke="#BEBEBE" id="n800"/>
</g>
</g>
<g mask="url(#mask89_68_6728)" id="n802">
<path d="M7360.46 750.448C7346.91 754.068 7332.68 756 7318 756V708C7328.39 708 7338.45 706.633 7348.03 704.073L7360.46 750.448Z" fill="#9CC1F5" id="n803"/>
<path d="M7360.46 750.448L7360.59 750.931L7361.07 750.802L7360.94 750.319L7360.46 750.448ZM7318 756H7317.5V756.5H7318V756ZM7318 708V707.5H7317.5V708H7318ZM7348.03 704.073L7348.51 703.944L7348.38 703.461L7347.9 703.59L7348.03 704.073ZM7360.46 750.448L7360.33 749.965C7346.83 753.573 7332.64 755.5 7318 755.5V756V756.5C7332.73 756.5 7347 754.562 7360.59 750.931L7360.46 750.448ZM7318 756H7318.5V708H7318H7317.5V756H7318ZM7318 708V708.5C7328.43 708.5 7338.54 707.127 7348.16 704.556L7348.03 704.073L7347.9 703.59C7338.36 706.139 7328.34 707.5 7318 707.5V708ZM7348.03 704.073L7347.55 704.203L7359.97 750.578L7360.46 750.448L7360.94 750.319L7348.51 703.944L7348.03 704.073Z" fill="#9CC1F5" id="n804"/>
</g>
<rect x="7314" y="708" width="8" height="72" fill="#9CC1F5" stroke="#9CC1F5" id="n805"/>
<path d="M7363.56 745.434L7334.53 589.571C7332.75 580.029 7323.22 574.022 7313.84 576.535C7304.47 579.047 7299.22 589.013 7302.45 598.166L7355.23 747.665C7355.99 749.794 7358.25 750.986 7360.43 750.401C7362.61 749.817 7363.97 747.653 7363.56 745.434Z" fill="#2D548B" stroke="#9CC1F5" id="n806"/>
<path d="M6806 780C6739.29 780 6680.69 745.248 6647.32 692.859C6644.94 689.13 6646.27 684.221 6650.1 682.011L6663.95 674.014C6692.31 723.025 6745.3 756 6806 756C6866.7 756 6919.69 723.025 6948.05 674.013L6961.9 682.011C6965.73 684.221 6967.06 689.13 6964.68 692.859C6931.31 745.248 6872.72 780 6806 780Z" fill="white" stroke="white" id="n808"/>
<path d="M6806 756C6745.3 756 6692.31 723.025 6663.95 674.014L6698.61 654.006C6702.42 651.801 6707.28 653.121 6709.75 656.77C6710.07 657.243 6710.4 657.712 6710.72 658.18C6710.76 658.235 6710.8 658.291 6710.84 658.347C6711.12 658.753 6711.41 659.158 6711.7 659.561C6711.74 659.626 6711.79 659.692 6711.84 659.758C6712.14 660.172 6712.44 660.585 6712.74 660.995C6712.77 661.027 6712.79 661.06 6712.82 661.092C6713.83 662.46 6714.88 663.806 6715.95 665.127C6715.99 665.169 6716.02 665.21 6716.05 665.252C6717.12 666.557 6718.21 667.838 6719.33 669.095C6719.4 669.175 6719.47 669.256 6719.54 669.336C6719.85 669.682 6720.17 670.027 6720.48 670.37C6720.53 670.431 6720.59 670.49 6720.65 670.551C6722.16 672.2 6723.73 673.805 6725.34 675.363C6725.4 675.42 6725.46 675.476 6725.51 675.532C6725.86 675.867 6726.21 676.199 6726.56 676.529C6726.62 676.585 6726.68 676.641 6726.74 676.696C6727.55 677.456 6728.37 678.205 6729.21 678.941C6729.27 678.996 6729.33 679.049 6729.39 679.103C6729.74 679.406 6730.08 679.707 6730.43 680.006C6730.53 680.092 6730.63 680.177 6730.73 680.263C6731.1 680.576 6731.47 680.888 6731.84 681.197C6731.87 681.222 6731.9 681.247 6731.93 681.271C6732.8 681.997 6733.68 682.709 6734.58 683.409C6734.63 683.448 6734.68 683.486 6734.73 683.525C6735.11 683.82 6735.49 684.112 6735.87 684.402C6735.96 684.471 6736.05 684.54 6736.14 684.608C6736.5 684.885 6736.87 685.159 6737.24 685.432C6737.32 685.489 6737.4 685.547 6737.47 685.603C6738.81 686.582 6740.17 687.533 6741.54 688.455C6741.65 688.526 6741.76 688.596 6741.86 688.667C6742.24 688.918 6742.62 689.167 6743 689.414C6743.07 689.459 6743.14 689.505 6743.21 689.55C6744.13 690.147 6745.07 690.731 6746.01 691.302C6746.13 691.377 6746.26 691.451 6746.38 691.525C6746.73 691.735 6747.08 691.942 6747.43 692.148C6747.56 692.222 6747.68 692.295 6747.81 692.368C6748.18 692.581 6748.54 692.792 6748.91 693.001C6749.03 693.065 6749.14 693.129 6749.25 693.192C6750.21 693.731 6751.18 694.258 6752.15 694.77C6752.24 694.815 6752.32 694.858 6752.41 694.902C6752.8 695.109 6753.2 695.313 6753.6 695.515C6753.73 695.582 6753.87 695.65 6754 695.717C6754.37 695.904 6754.75 696.09 6755.12 696.273C6755.24 696.329 6755.35 696.385 6755.46 696.439C6756.45 696.919 6757.45 697.385 6758.45 697.837C6758.57 697.891 6758.69 697.944 6758.81 697.997C6759.19 698.166 6759.57 698.333 6759.95 698.498C6760.1 698.564 6760.26 698.63 6760.41 698.695C6760.79 698.858 6761.17 699.019 6761.55 699.178C6761.67 699.227 6761.79 699.277 6761.91 699.326C6762.94 699.75 6763.98 700.161 6765.03 700.556C6765.11 700.585 6765.18 700.613 6765.26 700.642C6765.7 700.808 6766.15 700.971 6766.59 701.132C6766.7 701.171 6766.81 701.21 6766.92 701.249C6767.35 701.404 6767.78 701.557 6768.22 701.707C6768.33 701.745 6768.44 701.783 6768.55 701.82C6769.59 702.176 6770.64 702.518 6771.7 702.845C6771.85 702.89 6771.99 702.933 6772.14 702.978C6772.53 703.098 6772.93 703.217 6773.33 703.334C6773.46 703.373 6773.6 703.412 6773.73 703.45C6774.16 703.575 6774.59 703.697 6775.02 703.816C6775.14 703.848 6775.25 703.881 6775.37 703.912C6775.84 704.041 6776.31 704.166 6776.79 704.289C6776.91 704.321 6777.03 704.353 6777.16 704.385C6777.63 704.505 6778.1 704.622 6778.57 704.736C6778.77 704.785 6778.97 704.833 6779.17 704.881C6779.5 704.957 6779.82 705.032 6780.14 705.105C6780.37 705.158 6780.6 705.21 6780.83 705.261C6781.2 705.343 6781.57 705.422 6781.95 705.501C6782.09 705.53 6782.23 705.561 6782.37 705.59C6783.46 705.817 6784.57 706.029 6785.68 706.225C6785.84 706.253 6786 706.28 6786.16 706.308C6786.55 706.375 6786.94 706.44 6787.33 706.503C6787.51 706.533 6787.7 706.562 6787.89 706.592C6788.31 706.658 6788.73 706.723 6789.16 706.785C6789.27 706.802 6789.39 706.818 6789.5 706.834C6790.63 706.995 6791.76 707.139 6792.9 707.267C6793.05 707.284 6793.2 707.301 6793.36 707.317C6793.77 707.362 6794.18 707.404 6794.59 707.444C6794.77 707.463 6794.96 707.481 6795.15 707.498C6795.56 707.536 6795.97 707.571 6796.38 707.604C6796.53 707.617 6796.69 707.631 6796.85 707.644C6797.35 707.683 6797.86 707.72 6798.37 707.753C6798.5 707.761 6798.62 707.769 6798.75 707.776C6799.23 707.806 6799.71 707.833 6800.2 707.856C6800.4 707.866 6800.6 707.875 6800.8 707.884C6801.2 707.901 6801.6 707.917 6802 707.931C6802.18 707.937 6802.36 707.942 6802.54 707.947C6802.92 707.959 6803.31 707.968 6803.69 707.976C6803.9 707.98 6804.12 707.984 6804.33 707.987C6804.88 707.995 6805.44 708 6806 708C6806.56 708 6807.12 707.995 6807.68 707.987C6807.89 707.984 6808.1 707.98 6808.32 707.976C6808.7 707.968 6809.08 707.958 6809.46 707.947C6809.65 707.942 6809.83 707.937 6810.01 707.931C6810.4 707.917 6810.8 707.901 6811.2 707.884C6811.4 707.875 6811.61 707.867 6811.81 707.856C6812.28 707.833 6812.75 707.807 6813.22 707.778C6813.37 707.769 6813.52 707.76 6813.67 707.75C6814.16 707.718 6814.66 707.683 6815.15 707.645C6815.31 707.632 6815.48 707.617 6815.64 707.604C6816.05 707.571 6816.45 707.536 6816.84 707.499C6817.04 707.481 6817.23 707.462 6817.43 707.443C6817.83 707.404 6818.23 707.362 6818.62 707.319C6818.79 707.301 6818.95 707.284 6819.12 707.266C6820.25 707.138 6821.37 706.995 6822.49 706.836C6822.62 706.818 6822.75 706.798 6822.88 706.779C6823.28 706.72 6823.69 706.658 6824.1 706.595C6824.3 706.563 6824.5 706.532 6824.7 706.5C6825.07 706.44 6825.44 706.377 6825.81 706.313C6825.99 706.283 6826.17 706.254 6826.34 706.223C6827.44 706.028 6828.53 705.818 6829.62 705.593C6829.77 705.563 6829.91 705.532 6830.06 705.501C6830.46 705.416 6830.86 705.329 6831.27 705.239C6831.43 705.202 6831.6 705.165 6831.77 705.127C6832.13 705.045 6832.48 704.962 6832.84 704.877C6833.05 704.829 6833.25 704.781 6833.46 704.731C6833.87 704.631 6834.28 704.528 6834.69 704.424C6834.9 704.37 6835.11 704.316 6835.32 704.262C6835.75 704.149 6836.18 704.035 6836.61 703.918C6836.75 703.88 6836.89 703.841 6837.03 703.802C6837.44 703.69 6837.84 703.576 6838.24 703.46C6838.4 703.415 6838.55 703.369 6838.71 703.323C6839.08 703.216 6839.44 703.107 6839.8 702.996C6839.98 702.943 6840.15 702.891 6840.33 702.838C6841.36 702.516 6842.4 702.18 6843.42 701.83C6843.56 701.783 6843.7 701.735 6843.84 701.687C6844.24 701.548 6844.64 701.407 6845.05 701.264C6845.18 701.216 6845.31 701.168 6845.45 701.119C6845.88 700.964 6846.31 700.805 6846.74 700.645C6846.82 700.615 6846.89 700.585 6846.97 700.556C6848.01 700.163 6849.05 699.755 6850.08 699.333C6850.23 699.271 6850.38 699.208 6850.53 699.145C6850.87 699.004 6851.21 698.861 6851.54 698.717C6851.73 698.638 6851.91 698.558 6852.1 698.479C6852.43 698.332 6852.77 698.184 6853.11 698.034C6853.27 697.963 6853.43 697.894 6853.58 697.822C6854.58 697.375 6855.56 696.914 6856.54 696.44C6856.65 696.385 6856.77 696.329 6856.88 696.273C6857.26 696.09 6857.63 695.904 6858 695.717C6858.14 695.649 6858.28 695.58 6858.41 695.512C6858.78 695.324 6859.15 695.135 6859.52 694.943C6859.64 694.88 6859.76 694.817 6859.88 694.753C6860.84 694.253 6861.78 693.739 6862.71 693.214C6862.87 693.128 6863.02 693.04 6863.17 692.953C6863.5 692.771 6863.82 692.588 6864.13 692.402C6864.3 692.307 6864.46 692.211 6864.63 692.115C6864.93 691.94 6865.22 691.763 6865.52 691.585C6865.69 691.483 6865.86 691.382 6866.03 691.279C6866.95 690.724 6867.85 690.157 6868.75 689.577C6868.87 689.502 6868.99 689.425 6869.1 689.35C6869.43 689.138 6869.75 688.925 6870.08 688.71C6870.22 688.613 6870.37 688.517 6870.51 688.42C6870.89 688.17 6871.26 687.918 6871.63 687.664C6871.69 687.62 6871.75 687.576 6871.82 687.532C6872.72 686.912 6873.61 686.28 6874.49 685.635C6874.61 685.544 6874.73 685.452 6874.86 685.361C6875.17 685.129 6875.49 684.894 6875.8 684.658C6875.93 684.56 6876.06 684.461 6876.19 684.361C6876.55 684.087 6876.91 683.812 6877.26 683.534C6877.32 683.492 6877.37 683.45 6877.43 683.408C6878.31 682.721 6879.17 682.021 6880.03 681.309C6880.11 681.241 6880.2 681.172 6880.28 681.104C6880.59 680.844 6880.9 680.584 6881.21 680.321C6881.35 680.199 6881.49 680.077 6881.63 679.954C6881.92 679.708 6882.2 679.461 6882.49 679.212C6882.6 679.109 6882.72 679.006 6882.84 678.902C6883.64 678.192 6884.43 677.472 6885.22 676.74C6885.32 676.641 6885.43 676.54 6885.53 676.44C6885.83 676.162 6886.12 675.883 6886.42 675.602C6886.52 675.502 6886.62 675.403 6886.72 675.304C6887.04 675.002 6887.34 674.699 6887.65 674.395C6887.73 674.316 6887.81 674.239 6887.89 674.16C6888.67 673.38 6889.44 672.587 6890.2 671.785C6890.26 671.728 6890.31 671.671 6890.37 671.613C6890.68 671.285 6890.98 670.956 6891.29 670.624C6891.39 670.517 6891.49 670.41 6891.58 670.303C6891.84 670.022 6892.1 669.739 6892.35 669.455C6892.48 669.318 6892.6 669.182 6892.72 669.045C6893.42 668.26 6894.1 667.465 6894.78 666.661C6894.86 666.567 6894.94 666.473 6895.02 666.378C6895.31 666.031 6895.6 665.682 6895.88 665.332C6895.96 665.239 6896.04 665.145 6896.11 665.052C6896.4 664.693 6896.69 664.332 6896.98 663.97C6897.03 663.907 6897.08 663.845 6897.13 663.782C6897.81 662.917 6898.48 662.041 6899.14 661.156C6899.21 661.061 6899.28 660.965 6899.35 660.869C6899.6 660.531 6899.85 660.192 6900.1 659.852C6900.18 659.732 6900.27 659.612 6900.35 659.492C6900.62 659.117 6900.89 658.74 6901.15 658.361C6901.2 658.3 6901.24 658.239 6901.28 658.178C6901.6 657.722 6901.92 657.263 6902.23 656.803C6902.23 656.797 6902.23 656.791 6902.24 656.785C6904.71 653.125 6909.57 651.798 6913.4 654.006L6948.05 674.014C6919.69 723.025 6866.7 756 6806 756Z" fill="#F0F0F0" stroke="#F0F0F0" id="n809"/>
<path d="M6806 780C6739.29 780 6680.69 745.248 6647.32 692.859C6644.95 689.13 6646.27 684.221 6650.1 682.011L6698.6 654.006C6702.43 651.798 6707.3 653.124 6709.76 656.785C6730.6 687.681 6765.93 708 6806 708C6846.07 708 6881.4 687.681 6902.24 656.785C6904.71 653.124 6909.57 651.798 6913.4 654.006L6961.9 682.011C6965.73 684.221 6967.06 689.13 6964.68 692.859C6931.31 745.247 6872.72 780 6806 780Z" stroke="#BEBEBE" id="n810"/>
<g mask="url(#mask90_68_6728)" id="n812">
<path d="M7062 592L6550 592" stroke="#BEBEBE" stroke-linecap="square" id="n813"/>
<path d="M6806 848L6806 336" stroke="#BEBEBE" stroke-linecap="square" id="n814"/>
</g>
<path d="M6806 708L6806 592" stroke="#BEBEBE" stroke-linecap="round" id="n815"/>
<rect x="6802" y="708" width="8" height="72" fill="#BEBEBE" id="n816"/>
<g mask="url(#mask91_68_6728)" id="n818">
<mask id="mask92_68_6728" style="mask-type:alpha" maskUnits="userSpaceOnUse" x="6550" y="336" width="512" height="512">
<path d="M6806 400C6912.04 400 6998 485.961 6998 592C6998 698.039 6912.04 784 6806 784C6699.96 784 6614 698.039 6614 592C6614 485.961 6699.96 400 6806 400ZM6806 424C6713.22 424 6638 499.216 6638 592C6638 684.784 6713.22 760 6806 760C6898.78 760 6974 684.784 6974 592C6974 499.216 6898.78 424 6806 424Z" fill="black" id="n819"/>
</mask>
<g mask="url(#mask92_68_6728)" id="n820">
<path d="M6806 392V592M6806 592L6706 418.795M6806 592L6632.79 492M6806 592H6606M6806 592L6632.79 692M6806 592L6706 765.205M6806 592V792M6806 592L6906 765.205M6806 592L6979.21 692M6806 592H7006M6806 592L6979.21 492M6806 592L6906 418.795" stroke="#BEBEBE" id="n821"/>
</g>
<mask id="mask93_68_6728" style="mask-type:alpha" maskUnits="userSpaceOnUse" x="6550" y="336" width="512" height="512">
<path d="M6806 400C6912.04 400 6998 485.961 6998 592C6998 698.039 6912.04 784 6806 784C6699.96 784 6614 698.039 6614 592C6614 485.961 6699.96 400 6806 400ZM6806 428C6715.43 428 6642 501.425 6642 592C6642 682.575 6715.43 756 6806 756C6896.57 756 6970 682.575 6970 592C6970 501.425 6896.57 428 6806 428Z" fill="black" id="n822"/>
</mask>
<g mask="url(#mask93_68_6728)" id="n823">
<path d="M6806 392V792" stroke="#BEBEBE" id="n824"/>
</g>
</g>
<g mask="url(#mask94_68_6728)" id="n826">
<path d="M6848.46 750.448C6834.91 754.068 6820.68 756 6806 756V708C6816.39 708 6826.45 706.633 6836.03 704.073L6848.46 750.448Z" fill="#BEBEBE" id="n827"/>
<path d="M6848.46 750.448L6848.59 750.931L6849.07 750.802L6848.94 750.319L6848.46 750.448ZM6806 756H6805.5V756.5H6806V756ZM6806 708V707.5H6805.5V708H6806ZM6836.03 704.073L6836.51 703.944L6836.38 703.461L6835.9 703.59L6836.03 704.073ZM6848.46 750.448L6848.33 749.965C6834.83 753.573 6820.64 755.5 6806 755.5V756V756.5C6820.73 756.5 6835 754.562 6848.59 750.931L6848.46 750.448ZM6806 756H6806.5V708H6806H6805.5V756H6806ZM6806 708V708.5C6816.43 708.5 6826.54 707.127 6836.16 704.556L6836.03 704.073L6835.9 703.59C6826.36 706.139 6816.34 707.5 6806 707.5V708ZM6836.03 704.073L6835.55 704.203L6847.97 750.578L6848.46 750.448L6848.94 750.319L6836.51 703.944L6836.03 704.073Z" fill="#BEBEBE" id="n828"/>
</g>
<rect x="6802" y="708" width="8" height="72" fill="#BEBEBE" stroke="#BEBEBE" id="n829"/>
<path d="M6851.56 745.434L6822.53 589.571C6820.75 580.029 6811.22 574.022 6801.84 576.535C6792.47 579.047 6787.22 589.013 6790.45 598.166L6843.23 747.665C6843.99 749.794 6846.25 750.986 6848.43 750.401C6850.61 749.817 6851.97 747.653 6851.56 745.434Z" fill="#535353" stroke="#BEBEBE" id="n830"/>
</g>
</svg>
