<?xml version='1.0' encoding='utf-8'?>
<svg xmlns="http://www.w3.org/2000/svg" xmlns:xlink="http://www.w3.org/1999/xlink" width="384.0" height="144.0" viewBox="0 0 384.0 144.0" fill="none">
  <defs><clipPath id="clip__asset"><rect x="0" y="0" width="384.0" height="144.0"/></clipPath><mask id="mask161_68_6728" style="mask-type:alpha" maskUnits="userSpaceOnUse" x="7574" y="1712" width="512" height="512">
<path d="M7830 2156C7763.29 2156 7704.69 2121.25 7671.32 2068.86C7668.95 2065.13 7670.27 2060.22 7674.1 2058.01L7722.6 2030.01C7726.43 2027.8 7731.3 2029.12 7733.76 2032.78C7754.6 2063.68 7789.93 2084 7830 2084C7870.07 2084 7905.4 2063.68 7926.24 2032.78C7928.71 2029.12 7933.57 2027.8 7937.4 2030.01L7985.9 2058.01C7989.73 2060.22 7991.06 2065.13 7988.68 2068.86C7955.31 2121.25 7896.72 2156 7830 2156Z" fill="white" stroke="black" id="n1123"/>
</mask>
<mask id="mask162_68_6728" style="mask-type:luminance" maskUnits="userSpaceOnUse" x="7574" y="1712" width="512" height="512">
<path d="M7830 2156C7763.29 2156 7704.69 2121.25 7671.32 2068.86C7668.94 2065.13 7670.27 2060.22 7674.1 2058.01L7687.95 2050.01C7716.31 2099.03 7769.3 2132 7830 2132C7890.7 2132 7943.69 2099.02 7972.05 2050.01L7985.9 2058.01C7989.73 2060.22 7991.06 2065.13 7988.68 2068.86C7955.31 2121.25 7896.72 2156 7830 2156Z" fill="white" stroke="black" id="n1128"/>
</mask>
<mask id="mask163_68_6728" style="mask-type:alpha" maskUnits="userSpaceOnUse" x="7574" y="1712" width="512" height="512">
<path d="M7830 1776C7936.04 1776 8022 1861.96 8022 1968C8022 2074.04 7936.04 2160 7830 2160C7723.96 2160 7638 2074.04 7638 1968C7638 1861.96 7723.96 1776 7830 1776ZM7830 1800C7737.22 1800 7662 1875.22 7662 1968C7662 2060.78 7737.22 2136 7830 2136C7922.78 2136 7998 2060.78 7998 1968C7998 1875.22 7922.78 1800 7830 1800Z" fill="black" id="n1130"/>
</mask>
<mask id="mask164_68_6728" style="mask-type:alpha" maskUnits="userSpaceOnUse" x="7574" y="1712" width="512" height="512">
<path d="M7830 1776C7936.04 1776 8022 1861.96 8022 1968C8022 2074.04 7936.04 2160 7830 2160C7723.96 2160 7638 2074.04 7638 1968C7638 1861.96 7723.96 1776 7830 1776ZM7830 1804C7739.43 1804 7666 1877.43 7666 1968C7666 2058.57 7739.43 2132 7830 2132C7920.57 2132 7994 2058.57 7994 1968C7994 1877.43 7920.57 1804 7830 1804Z" fill="black" id="n1133"/>
</mask>
</defs>
  <g clip-path="url(#clip__asset)" transform="translate(-7638.0 -2016.0)"><path d="M7830 2156C7763.29 2156 7704.69 2121.25 7671.32 2068.86C7668.95 2065.13 7670.27 2060.22 7674.1 2058.01L7722.6 2030.01C7726.43 2027.8 7731.3 2029.12 7733.76 2032.78C7754.6 2063.68 7789.93 2084 7830 2084C7870.07 2084 7905.4 2063.68 7926.24 2032.78C7928.71 2029.12 7933.57 2027.8 7937.4 2030.01L7985.9 2058.01C7989.73 2060.22 7991.06 2065.13 7988.68 2068.86C7955.31 2121.25 7896.72 2156 7830 2156Z" stroke="#BEBEBE" id="n1122"/>
<g mask="url(#mask161_68_6728)" id="n1124">
<path d="M8086 1968L7574 1968" stroke="#BEBEBE" stroke-linecap="square" id="n1125"/>
<path d="M7830 2224L7830 1712" stroke="#BEBEBE" stroke-linecap="square" id="n1126"/>
</g>
<rect x="7826" y="2084" width="8" height="72" fill="#BEBEBE" id="n1127"/>
<g mask="url(#mask162_68_6728)" id="n1129">
<mask id="mask163_68_6728" style="mask-type:alpha" maskUnits="userSpaceOnUse" x="7574" y="1712" width="512" height="512">
<path d="M7830 1776C7936.04 1776 8022 1861.96 8022 1968C8022 2074.04 7936.04 2160 7830 2160C7723.96 2160 7638 2074.04 7638 1968C7638 1861.96 7723.96 1776 7830 1776ZM7830 1800C7737.22 1800 7662 1875.22 7662 1968C7662 2060.78 7737.22 2136 7830 2136C7922.78 2136 7998 2060.78 7998 1968C7998 1875.22 7922.78 1800 7830 1800Z" fill="black" id="n1130"/>
</mask>
<g mask="url(#mask163_68_6728)" id="n1131">
<path d="M7830 1768V1968M7830 1968L7730 1794.79M7830 1968L7656.79 1868M7830 1968H7630M7830 1968L7656.79 2068M7830 1968L7730 2141.21M7830 1968V2168M7830 1968L7930 2141.21M7830 1968L8003.21 2068M7830 1968H8030M7830 1968L8003.21 1868M7830 1968L7930 1794.79" stroke="#BEBEBE" id="n1132"/>
</g>
<mask id="mask164_68_6728" style="mask-type:alpha" maskUnits="userSpaceOnUse" x="7574" y="1712" width="512" height="512">
<path d="M7830 1776C7936.04 1776 8022 1861.96 8022 1968C8022 2074.04 7936.04 2160 7830 2160C7723.96 2160 7638 2074.04 7638 1968C7638 1861.96 7723.96 1776 7830 1776ZM7830 1804C7739.43 1804 7666 1877.43 7666 1968C7666 2058.57 7739.43 2132 7830 2132C7920.57 2132 7994 2058.57 7994 1968C7994 1877.43 7920.57 1804 7830 1804Z" fill="black" id="n1133"/>
</mask>
<g mask="url(#mask164_68_6728)" id="n1134">
<path d="M7830 1768V2168" stroke="#BEBEBE" id="n1135"/>
</g>
</g>
<path d="M7820.28 2159.3C7819.87 2158.39 7819.88 2157.22 7820.53 2156.24L7828.34 2144.67C7829.14 2143.49 7830.87 2143.49 7831.66 2144.67L7839.47 2156.24C7840.12 2157.22 7840.13 2158.39 7839.72 2159.3C7839.31 2160.22 7838.41 2161 7837.2 2161L7822.8 2161C7821.59 2161 7820.7 2160.22 7820.28 2159.3Z" fill="#BEBEBE" stroke="white" stroke-width="2" stroke-linejoin="round" id="n1136"/>
</g>
</svg>
