<?xml version='1.0' encoding='utf-8'?>
<svg xmlns="http://www.w3.org/2000/svg" xmlns:xlink="http://www.w3.org/1999/xlink" width="384.0" height="216.0" viewBox="0 0 384.0 216.0" fill="none">
  <defs><clipPath id="clip__asset"><rect x="0" y="0" width="384.0" height="216.0"/></clipPath><mask id="mask125_68_6728" style="mask-type:alpha" maskUnits="userSpaceOnUse" x="7066" y="1712" width="512" height="512">
<path d="M7322 2156C7255.29 2156 7196.69 2121.25 7163.32 2068.86C7160.95 2065.13 7162.27 2060.22 7166.1 2058.01L7214.6 2030.01C7218.43 2027.8 7223.3 2029.12 7225.76 2032.78C7246.6 2063.68 7281.93 2084 7322 2084C7362.07 2084 7397.4 2063.68 7418.24 2032.78C7420.71 2029.12 7425.57 2027.8 7429.4 2030.01L7477.9 2058.01C7481.73 2060.22 7483.06 2065.13 7480.68 2068.86C7447.31 2121.25 7388.72 2156 7322 2156Z" fill="white" stroke="black" id="n979"/>
</mask>
<mask id="mask126_68_6728" style="mask-type:luminance" maskUnits="userSpaceOnUse" x="7066" y="1712" width="512" height="512">
<path d="M7322 2156C7255.29 2156 7196.69 2121.25 7163.32 2068.86C7160.94 2065.13 7162.27 2060.22 7166.1 2058.01L7179.95 2050.01C7208.31 2099.03 7261.3 2132 7322 2132C7382.7 2132 7435.69 2099.02 7464.05 2050.01L7477.9 2058.01C7481.73 2060.22 7483.06 2065.13 7480.68 2068.86C7447.31 2121.25 7388.72 2156 7322 2156Z" fill="white" stroke="black" id="n985"/>
</mask>
<mask id="mask127_68_6728" style="mask-type:alpha" maskUnits="userSpaceOnUse" x="7066" y="1712" width="512" height="512">
<path d="M7322 1776C7428.04 1776 7514 1861.96 7514 1968C7514 2074.04 7428.04 2160 7322 2160C7215.96 2160 7130 2074.04 7130 1968C7130 1861.96 7215.96 1776 7322 1776ZM7322 1800C7229.22 1800 7154 1875.22 7154 1968C7154 2060.78 7229.22 2136 7322 2136C7414.78 2136 7490 2060.78 7490 1968C7490 1875.22 7414.78 1800 7322 1800Z" fill="black" id="n987"/>
</mask>
<mask id="mask128_68_6728" style="mask-type:alpha" maskUnits="userSpaceOnUse" x="7066" y="1712" width="512" height="512">
<path d="M7322 1776C7428.04 1776 7514 1861.96 7514 1968C7514 2074.04 7428.04 2160 7322 2160C7215.96 2160 7130 2074.04 7130 1968C7130 1861.96 7215.96 1776 7322 1776ZM7322 1804C7231.43 1804 7158 1877.43 7158 1968C7158 2058.57 7231.43 2132 7322 2132C7412.57 2132 7486 2058.57 7486 1968C7486 1877.43 7412.57 1804 7322 1804Z" fill="black" id="n990"/>
</mask>
</defs>
  <g clip-path="url(#clip__asset)" transform="translate(-7130.0 -1944.0)"><path d="M7322 2156C7255.29 2156 7196.69 2121.25 7163.32 2068.86C7160.95 2065.13 7162.27 2060.22 7166.1 2058.01L7214.6 2030.01C7218.43 2027.8 7223.3 2029.12 7225.76 2032.78C7246.6 2063.68 7281.93 2084 7322 2084C7362.07 2084 7397.4 2063.68 7418.24 2032.78C7420.71 2029.12 7425.57 2027.8 7429.4 2030.01L7477.9 2058.01C7481.73 2060.22 7483.06 2065.13 7480.68 2068.86C7447.31 2121.25 7388.72 2156 7322 2156Z" stroke="#BEBEBE" id="n978"/>
<g mask="url(#mask125_68_6728)" id="n980">
<path d="M7578 1968L7066 1968" stroke="#BEBEBE" stroke-linecap="square" id="n981"/>
<path d="M7322 2224L7322 1712" stroke="#BEBEBE" stroke-linecap="square" id="n982"/>
</g>
<path d="M7322 2084L7322 1968" stroke="#BEBEBE" stroke-linecap="round" id="n983"/>
<rect x="7318" y="2084" width="8" height="72" fill="#BEBEBE" id="n984"/>
<g mask="url(#mask126_68_6728)" id="n986">
<mask id="mask127_68_6728" style="mask-type:alpha" maskUnits="userSpaceOnUse" x="7066" y="1712" width="512" height="512">
<path d="M7322 1776C7428.04 1776 7514 1861.96 7514 1968C7514 2074.04 7428.04 2160 7322 2160C7215.96 2160 7130 2074.04 7130 1968C7130 1861.96 7215.96 1776 7322 1776ZM7322 1800C7229.22 1800 7154 1875.22 7154 1968C7154 2060.78 7229.22 2136 7322 2136C7414.78 2136 7490 2060.78 7490 1968C7490 1875.22 7414.78 1800 7322 1800Z" fill="black" id="n987"/>
</mask>
<g mask="url(#mask127_68_6728)" id="n988">
<path d="M7322 1768V1968M7322 1968L7222 1794.79M7322 1968L7148.79 1868M7322 1968H7122M7322 1968L7148.79 2068M7322 1968L7222 2141.21M7322 1968V2168M7322 1968L7422 2141.21M7322 1968L7495.21 2068M7322 1968H7522M7322 1968L7495.21 1868M7322 1968L7422 1794.79" stroke="#BEBEBE" id="n989"/>
</g>
<mask id="mask128_68_6728" style="mask-type:alpha" maskUnits="userSpaceOnUse" x="7066" y="1712" width="512" height="512">
<path d="M7322 1776C7428.04 1776 7514 1861.96 7514 1968C7514 2074.04 7428.04 2160 7322 2160C7215.96 2160 7130 2074.04 7130 1968C7130 1861.96 7215.96 1776 7322 1776ZM7322 1804C7231.43 1804 7158 1877.43 7158 1968C7158 2058.57 7231.43 2132 7322 2132C7412.57 2132 7486 2058.57 7486 1968C7486 1877.43 7412.57 1804 7322 1804Z" fill="black" id="n990"/>
</mask>
<g mask="url(#mask128_68_6728)" id="n991">
<path d="M7322 1768V2168" stroke="#BEBEBE" id="n992"/>
</g>
</g>
<rect x="7318" y="2084" width="8" height="72" fill="#BEBEBE" stroke="#BEBEBE" id="n993"/>
<path d="M7326.29 2128L7338.59 1969.94C7339.34 1960.26 7331.69 1951.99 7321.98 1951.99C7312.28 1951.99 7304.63 1960.26 7305.38 1969.94L7317.67 2128C7317.85 2130.25 7319.73 2131.99 7321.98 2131.99C7324.24 2131.99 7326.12 2130.25 7326.29 2128Z" fill="#BEBEBE" stroke="#BEBEBE" id="n994"/>
<path d="M7312.28 2159.3C7311.87 2158.39 7311.88 2157.22 7312.53 2156.24L7320.34 2144.67C7321.14 2143.49 7322.87 2143.49 7323.66 2144.67L7331.47 2156.24C7332.12 2157.22 7332.13 2158.39 7331.72 2159.3C7331.31 2160.22 7330.41 2161 7329.2 2161L7314.8 2161C7313.59 2161 7312.7 2160.22 7312.28 2159.3Z" fill="#BEBEBE" stroke="white" stroke-width="2" stroke-linejoin="round" id="n995"/>
</g>
</svg>
