<?xml version='1.0' encoding='utf-8'?>
<svg xmlns="http://www.w3.org/2000/svg" xmlns:xlink="http://www.w3.org/1999/xlink" width="384.0" height="144.0" viewBox="0 0 384.0 144.0" fill="none">
  <defs><clipPath id="clip__asset"><rect x="0" y="0" width="384.0" height="144.0"/></clipPath><mask id="mask135_68_6728" style="mask-type:alpha" maskUnits="userSpaceOnUse" x="8086" y="336" width="512" height="512">
<path d="M8342 780C8275.29 780 8216.69 745.248 8183.32 692.859C8180.95 689.13 8182.27 684.221 8186.1 682.011L8234.6 654.006C8238.43 651.798 8243.3 653.124 8245.76 656.785C8266.6 687.681 8301.93 708 8342 708C8382.07 708 8417.4 687.681 8438.24 656.785C8440.71 653.124 8445.57 651.798 8449.4 654.006L8497.9 682.011C8501.73 684.221 8503.06 689.13 8500.68 692.859C8467.31 745.247 8408.72 780 8342 780Z" fill="white" stroke="black" id="n1022"/>
</mask>
<mask id="mask136_68_6728" style="mask-type:luminance" maskUnits="userSpaceOnUse" x="8086" y="336" width="512" height="512">
<path d="M8342 780C8275.29 780 8216.69 745.248 8183.32 692.859C8180.94 689.13 8182.27 684.221 8186.1 682.011L8199.95 674.014C8228.31 723.025 8281.3 756 8342 756C8402.7 756 8455.69 723.025 8484.05 674.013L8497.9 682.011C8501.73 684.221 8503.06 689.13 8500.68 692.859C8467.31 745.248 8408.72 780 8342 780Z" fill="white" stroke="black" id="n1027"/>
</mask>
<mask id="mask137_68_6728" style="mask-type:alpha" maskUnits="userSpaceOnUse" x="8086" y="336" width="512" height="512">
<path d="M8342 400C8448.04 400 8534 485.961 8534 592C8534 698.039 8448.04 784 8342 784C8235.96 784 8150 698.039 8150 592C8150 485.961 8235.96 400 8342 400ZM8342 424C8249.22 424 8174 499.216 8174 592C8174 684.784 8249.22 760 8342 760C8434.78 760 8510 684.784 8510 592C8510 499.216 8434.78 424 8342 424Z" fill="black" id="n1029"/>
</mask>
<mask id="mask138_68_6728" style="mask-type:alpha" maskUnits="userSpaceOnUse" x="8086" y="336" width="512" height="512">
<path d="M8342 400C8448.04 400 8534 485.961 8534 592C8534 698.039 8448.04 784 8342 784C8235.96 784 8150 698.039 8150 592C8150 485.961 8235.96 400 8342 400ZM8342 428C8251.43 428 8178 501.425 8178 592C8178 682.575 8251.43 756 8342 756C8432.57 756 8506 682.575 8506 592C8506 501.425 8432.57 428 8342 428Z" fill="black" id="n1032"/>
</mask>
<mask id="mask139_68_6728" style="mask-type:alpha" maskUnits="userSpaceOnUse" x="8086" y="336" width="512" height="512">
<path d="M8342 756C8281.3 756 8228.31 723.025 8199.95 674.014L8234.61 654.006C8238.42 651.801 8243.28 653.121 8245.75 656.77C8246.07 657.243 8246.4 657.712 8246.72 658.18C8246.76 658.235 8246.8 658.291 8246.84 658.347C8247.12 658.753 8247.41 659.158 8247.7 659.561C8247.74 659.626 8247.79 659.692 8247.84 659.758C8248.14 660.172 8248.44 660.585 8248.74 660.995C8248.77 661.027 8248.79 661.06 8248.82 661.092C8249.83 662.46 8250.88 663.806 8251.95 665.127C8251.99 665.169 8252.02 665.21 8252.05 665.252C8253.12 666.557 8254.21 667.838 8255.33 669.095C8255.4 669.175 8255.47 669.256 8255.54 669.336C8255.85 669.682 8256.17 670.027 8256.48 670.37C8256.53 670.431 8256.59 670.49 8256.65 670.551C8258.16 672.2 8259.73 673.805 8261.34 675.363C8261.4 675.42 8261.46 675.476 8261.51 675.532C8261.86 675.867 8262.21 676.199 8262.56 676.529C8262.62 676.585 8262.68 676.641 8262.74 676.696C8263.55 677.456 8264.37 678.205 8265.21 678.941C8265.27 678.996 8265.33 679.049 8265.39 679.103C8265.74 679.406 8266.08 679.707 8266.43 680.006C8266.53 680.092 8266.63 680.177 8266.73 680.263C8267.1 680.576 8267.47 680.888 8267.84 681.197C8267.87 681.222 8267.9 681.247 8267.93 681.271C8268.8 681.997 8269.68 682.709 8270.58 683.409C8270.63 683.448 8270.68 683.486 8270.73 683.525C8271.11 683.82 8271.49 684.112 8271.87 684.402C8271.96 684.471 8272.05 684.54 8272.14 684.608C8272.5 684.885 8272.87 685.159 8273.24 685.432C8273.32 685.489 8273.4 685.547 8273.47 685.603C8274.81 686.582 8276.17 687.533 8277.54 688.455C8277.65 688.526 8277.76 688.596 8277.86 688.667C8278.24 688.918 8278.62 689.167 8279 689.414C8279.07 689.459 8279.14 689.505 8279.21 689.55C8280.13 690.147 8281.07 690.731 8282.01 691.302C8282.13 691.377 8282.26 691.451 8282.38 691.525C8282.73 691.735 8283.08 691.942 8283.43 692.148C8283.56 692.222 8283.68 692.295 8283.81 692.368C8284.18 692.581 8284.54 692.792 8284.91 693.001C8285.03 693.065 8285.14 693.129 8285.25 693.192C8286.21 693.731 8287.18 694.258 8288.15 694.77C8288.24 694.815 8288.32 694.858 8288.41 694.902C8288.8 695.109 8289.2 695.313 8289.6 695.515C8289.73 695.582 8289.87 695.65 8290 695.717C8290.37 695.904 8290.75 696.09 8291.12 696.273C8291.24 696.329 8291.35 696.385 8291.46 696.439C8292.45 696.919 8293.45 697.385 8294.45 697.837C8294.57 697.891 8294.69 697.944 8294.81 697.997C8295.19 698.166 8295.57 698.333 8295.95 698.498C8296.1 698.564 8296.26 698.63 8296.41 698.695C8296.79 698.858 8297.17 699.019 8297.55 699.178C8297.67 699.227 8297.79 699.277 8297.91 699.326C8298.94 699.75 8299.98 700.161 8301.03 700.556C8301.11 700.585 8301.18 700.613 8301.26 700.642C8301.7 700.808 8302.15 700.971 8302.59 701.132C8302.7 701.171 8302.81 701.21 8302.92 701.249C8303.35 701.404 8303.78 701.557 8304.22 701.707C8304.33 701.745 8304.44 701.783 8304.55 701.82C8305.59 702.176 8306.64 702.518 8307.7 702.845C8307.85 702.89 8307.99 702.933 8308.14 702.978C8308.53 703.098 8308.93 703.217 8309.33 703.334C8309.46 703.373 8309.6 703.412 8309.73 703.45C8310.16 703.575 8310.59 703.697 8311.02 703.816C8311.14 703.848 8311.25 703.881 8311.37 703.912C8311.84 704.041 8312.31 704.166 8312.79 704.289C8312.91 704.321 8313.03 704.353 8313.16 704.385C8313.63 704.505 8314.1 704.622 8314.57 704.736C8314.77 704.785 8314.97 704.833 8315.17 704.881C8315.5 704.957 8315.82 705.032 8316.14 705.105C8316.37 705.158 8316.6 705.21 8316.83 705.261C8317.2 705.343 8317.57 705.422 8317.95 705.501C8318.09 705.53 8318.23 705.561 8318.37 705.59C8319.46 705.817 8320.57 706.029 8321.68 706.225C8321.84 706.253 8322 706.28 8322.16 706.308C8322.55 706.375 8322.94 706.44 8323.33 706.503C8323.51 706.533 8323.7 706.562 8323.89 706.592C8324.31 706.658 8324.73 706.723 8325.16 706.785C8325.27 706.802 8325.39 706.818 8325.5 706.834C8326.63 706.995 8327.76 707.139 8328.9 707.267C8329.05 707.284 8329.2 707.301 8329.36 707.317C8329.77 707.362 8330.18 707.404 8330.59 707.444C8330.77 707.463 8330.96 707.481 8331.15 707.498C8331.56 707.536 8331.97 707.571 8332.38 707.604C8332.53 707.617 8332.69 707.631 8332.85 707.644C8333.35 707.683 8333.86 707.72 8334.37 707.753C8334.5 707.761 8334.62 707.769 8334.75 707.776C8335.23 707.806 8335.71 707.833 8336.2 707.856C8336.4 707.866 8336.6 707.875 8336.8 707.884C8337.2 707.901 8337.6 707.917 8338 707.931C8338.18 707.937 8338.36 707.942 8338.54 707.947C8338.92 707.959 8339.31 707.968 8339.69 707.976C8339.9 707.98 8340.12 707.984 8340.33 707.987C8340.88 707.995 8341.44 708 8342 708C8342.56 708 8343.12 707.995 8343.68 707.987C8343.89 707.984 8344.1 707.98 8344.32 707.976C8344.7 707.968 8345.08 707.958 8345.46 707.947C8345.65 707.942 8345.83 707.937 8346.01 707.931C8346.4 707.917 8346.8 707.901 8347.2 707.884C8347.4 707.875 8347.61 707.867 8347.81 707.856C8348.28 707.833 8348.75 707.807 8349.22 707.778C8349.37 707.769 8349.52 707.76 8349.67 707.75C8350.16 707.718 8350.66 707.683 8351.15 707.645C8351.31 707.632 8351.48 707.617 8351.64 707.604C8352.05 707.571 8352.45 707.536 8352.84 707.499C8353.04 707.481 8353.23 707.462 8353.43 707.443C8353.83 707.404 8354.23 707.362 8354.62 707.319C8354.79 707.301 8354.95 707.284 8355.12 707.266C8356.25 707.138 8357.37 706.995 8358.49 706.836C8358.62 706.818 8358.75 706.798 8358.88 706.779C8359.28 706.72 8359.69 706.658 8360.1 706.595C8360.3 706.563 8360.5 706.532 8360.7 706.5C8361.07 706.44 8361.44 706.377 8361.81 706.313C8361.99 706.283 8362.17 706.254 8362.34 706.223C8363.44 706.028 8364.53 705.818 8365.62 705.593C8365.77 705.563 8365.91 705.532 8366.06 705.501C8366.46 705.416 8366.86 705.329 8367.27 705.239C8367.43 705.202 8367.6 705.165 8367.77 705.127C8368.13 705.045 8368.48 704.962 8368.84 704.877C8369.05 704.829 8369.25 704.781 8369.46 704.731C8369.87 704.631 8370.28 704.528 8370.69 704.424C8370.9 704.37 8371.11 704.316 8371.32 704.262C8371.75 704.149 8372.18 704.035 8372.61 703.918C8372.75 703.88 8372.89 703.841 8373.03 703.802C8373.44 703.69 8373.84 703.576 8374.24 703.46C8374.4 703.415 8374.55 703.369 8374.71 703.323C8375.08 703.216 8375.44 703.107 8375.8 702.996C8375.98 702.943 8376.15 702.891 8376.33 702.838C8377.36 702.516 8378.4 702.18 8379.42 701.83C8379.56 701.783 8379.7 701.735 8379.84 701.687C8380.24 701.548 8380.64 701.407 8381.05 701.264C8381.18 701.216 8381.31 701.168 8381.45 701.119C8381.88 700.964 8382.31 700.805 8382.74 700.645C8382.82 700.615 8382.89 700.585 8382.97 700.556C8384.01 700.163 8385.05 699.755 8386.08 699.333C8386.23 699.271 8386.38 699.208 8386.53 699.145C8386.87 699.004 8387.21 698.861 8387.54 698.717C8387.73 698.638 8387.91 698.558 8388.1 698.479C8388.43 698.332 8388.77 698.184 8389.11 698.034C8389.27 697.963 8389.43 697.894 8389.58 697.822C8390.58 697.375 8391.56 696.914 8392.54 696.44C8392.65 696.385 8392.77 696.329 8392.88 696.273C8393.26 696.09 8393.63 695.904 8394 695.717C8394.14 695.649 8394.28 695.58 8394.41 695.512C8394.78 695.324 8395.15 695.135 8395.52 694.943C8395.64 694.88 8395.76 694.817 8395.88 694.753C8396.84 694.253 8397.78 693.739 8398.71 693.214C8398.87 693.128 8399.02 693.04 8399.17 692.953C8399.5 692.771 8399.82 692.588 8400.13 692.402C8400.3 692.307 8400.46 692.211 8400.63 692.115C8400.93 691.94 8401.22 691.763 8401.52 691.585C8401.69 691.483 8401.86 691.382 8402.03 691.279C8402.95 690.724 8403.85 690.157 8404.75 689.577C8404.87 689.502 8404.99 689.425 8405.1 689.35C8405.43 689.138 8405.75 688.925 8406.08 688.71C8406.22 688.613 8406.37 688.517 8406.51 688.42C8406.89 688.17 8407.26 687.918 8407.63 687.664C8407.69 687.62 8407.75 687.576 8407.82 687.532C8408.72 686.912 8409.61 686.28 8410.49 685.635C8410.61 685.544 8410.73 685.452 8410.86 685.361C8411.17 685.129 8411.49 684.894 8411.8 684.658C8411.93 684.56 8412.06 684.461 8412.19 684.361C8412.55 684.087 8412.91 683.812 8413.26 683.534C8413.32 683.492 8413.37 683.45 8413.43 683.408C8414.31 682.721 8415.17 682.021 8416.03 681.309C8416.11 681.241 8416.2 681.172 8416.28 681.104C8416.59 680.844 8416.9 680.584 8417.21 680.321C8417.35 680.199 8417.49 680.077 8417.63 679.954C8417.92 679.708 8418.2 679.461 8418.49 679.212C8418.6 679.109 8418.72 679.006 8418.84 678.902C8419.64 678.192 8420.43 677.472 8421.22 676.74C8421.32 676.641 8421.43 676.54 8421.53 676.44C8421.83 676.162 8422.12 675.883 8422.42 675.602C8422.52 675.502 8422.62 675.403 8422.72 675.304C8423.04 675.002 8423.34 674.699 8423.65 674.395C8423.73 674.316 8423.81 674.239 8423.89 674.16C8424.67 673.38 8425.44 672.587 8426.2 671.785C8426.26 671.728 8426.31 671.671 8426.37 671.613C8426.68 671.285 8426.98 670.956 8427.29 670.624C8427.39 670.517 8427.49 670.41 8427.58 670.303C8427.84 670.022 8428.1 669.739 8428.35 669.455C8428.48 669.318 8428.6 669.182 8428.72 669.045C8429.42 668.26 8430.1 667.465 8430.78 666.661C8430.86 666.567 8430.94 666.473 8431.02 666.378C8431.31 666.031 8431.6 665.682 8431.88 665.332C8431.96 665.239 8432.04 665.145 8432.11 665.052C8432.4 664.693 8432.69 664.332 8432.98 663.97C8433.03 663.907 8433.08 663.845 8433.13 663.782C8433.81 662.917 8434.48 662.041 8435.14 661.156C8435.21 661.061 8435.28 660.965 8435.35 660.869C8435.6 660.531 8435.85 660.192 8436.1 659.852C8436.18 659.732 8436.27 659.612 8436.35 659.492C8436.62 659.117 8436.89 658.74 8437.15 658.361C8437.2 658.3 8437.24 658.239 8437.28 658.178C8437.6 657.722 8437.92 657.263 8438.23 656.803C8438.23 656.797 8438.23 656.791 8438.24 656.785C8440.71 653.125 8445.57 651.798 8449.4 654.006L8484.05 674.014C8455.69 723.025 8402.7 756 8342 756Z" fill="white" stroke="black" id="n1035"/>
</mask>
<mask id="mask140_68_6728" style="mask-type:alpha" maskUnits="userSpaceOnUse" x="8341" y="591" width="68" height="258">
<path d="M8342 848C8364.37 848 8386.65 845.067 8408.26 839.277L8342 592L8342 848Z" fill="#9CC1F5" stroke="#9CC1F5" id="n1037"/>
</mask>
</defs>
  <g clip-path="url(#clip__asset)" transform="translate(-8150.0 -640.0)"><path d="M8342 780C8275.29 780 8216.69 745.248 8183.32 692.859C8180.94 689.13 8182.27 684.221 8186.1 682.011L8199.95 674.014C8228.31 723.025 8281.3 756 8342 756C8402.7 756 8455.69 723.025 8484.05 674.013L8497.9 682.011C8501.73 684.221 8503.06 689.13 8500.68 692.859C8467.31 745.248 8408.72 780 8342 780Z" fill="white" stroke="white" id="n1019"/>
<path d="M8342 756C8281.3 756 8228.31 723.025 8199.95 674.014L8234.61 654.006C8238.42 651.801 8243.28 653.121 8245.75 656.77C8246.07 657.243 8246.4 657.712 8246.72 658.18C8246.76 658.235 8246.8 658.291 8246.84 658.347C8247.12 658.753 8247.41 659.158 8247.7 659.561C8247.74 659.626 8247.79 659.692 8247.84 659.758C8248.14 660.172 8248.44 660.585 8248.74 660.995C8248.77 661.027 8248.79 661.06 8248.82 661.092C8249.83 662.46 8250.88 663.806 8251.95 665.127C8251.99 665.169 8252.02 665.21 8252.05 665.252C8253.12 666.557 8254.21 667.838 8255.33 669.095C8255.4 669.175 8255.47 669.256 8255.54 669.336C8255.85 669.682 8256.17 670.027 8256.48 670.37C8256.53 670.431 8256.59 670.49 8256.65 670.551C8258.16 672.2 8259.73 673.805 8261.34 675.363C8261.4 675.42 8261.46 675.476 8261.51 675.532C8261.86 675.867 8262.21 676.199 8262.56 676.529C8262.62 676.585 8262.68 676.641 8262.74 676.696C8263.55 677.456 8264.37 678.205 8265.21 678.941C8265.27 678.996 8265.33 679.049 8265.39 679.103C8265.74 679.406 8266.08 679.707 8266.43 680.006C8266.53 680.092 8266.63 680.177 8266.73 680.263C8267.1 680.576 8267.47 680.888 8267.84 681.197C8267.87 681.222 8267.9 681.247 8267.93 681.271C8268.8 681.997 8269.68 682.709 8270.58 683.409C8270.63 683.448 8270.68 683.486 8270.73 683.525C8271.11 683.82 8271.49 684.112 8271.87 684.402C8271.96 684.471 8272.05 684.54 8272.14 684.608C8272.5 684.885 8272.87 685.159 8273.24 685.432C8273.32 685.489 8273.4 685.547 8273.47 685.603C8274.81 686.582 8276.17 687.533 8277.54 688.455C8277.65 688.526 8277.76 688.596 8277.86 688.667C8278.24 688.918 8278.62 689.167 8279 689.414C8279.07 689.459 8279.14 689.505 8279.21 689.55C8280.13 690.147 8281.07 690.731 8282.01 691.302C8282.13 691.377 8282.26 691.451 8282.38 691.525C8282.73 691.735 8283.08 691.942 8283.43 692.148C8283.56 692.222 8283.68 692.295 8283.81 692.368C8284.18 692.581 8284.54 692.792 8284.91 693.001C8285.03 693.065 8285.14 693.129 8285.25 693.192C8286.21 693.731 8287.18 694.258 8288.15 694.77C8288.24 694.815 8288.32 694.858 8288.41 694.902C8288.8 695.109 8289.2 695.313 8289.6 695.515C8289.73 695.582 8289.87 695.65 8290 695.717C8290.37 695.904 8290.75 696.09 8291.12 696.273C8291.24 696.329 8291.35 696.385 8291.46 696.439C8292.45 696.919 8293.45 697.385 8294.45 697.837C8294.57 697.891 8294.69 697.944 8294.81 697.997C8295.19 698.166 8295.57 698.333 8295.95 698.498C8296.1 698.564 8296.26 698.63 8296.41 698.695C8296.79 698.858 8297.17 699.019 8297.55 699.178C8297.67 699.227 8297.79 699.277 8297.91 699.326C8298.94 699.75 8299.98 700.161 8301.03 700.556C8301.11 700.585 8301.18 700.613 8301.26 700.642C8301.7 700.808 8302.15 700.971 8302.59 701.132C8302.7 701.171 8302.81 701.21 8302.92 701.249C8303.35 701.404 8303.78 701.557 8304.22 701.707C8304.33 701.745 8304.44 701.783 8304.55 701.82C8305.59 702.176 8306.64 702.518 8307.7 702.845C8307.85 702.89 8307.99 702.933 8308.14 702.978C8308.53 703.098 8308.93 703.217 8309.33 703.334C8309.46 703.373 8309.6 703.412 8309.73 703.45C8310.16 703.575 8310.59 703.697 8311.02 703.816C8311.14 703.848 8311.25 703.881 8311.37 703.912C8311.84 704.041 8312.31 704.166 8312.79 704.289C8312.91 704.321 8313.03 704.353 8313.16 704.385C8313.63 704.505 8314.1 704.622 8314.57 704.736C8314.77 704.785 8314.97 704.833 8315.17 704.881C8315.5 704.957 8315.82 705.032 8316.14 705.105C8316.37 705.158 8316.6 705.21 8316.83 705.261C8317.2 705.343 8317.57 705.422 8317.95 705.501C8318.09 705.53 8318.23 705.561 8318.37 705.59C8319.46 705.817 8320.57 706.029 8321.68 706.225C8321.84 706.253 8322 706.28 8322.16 706.308C8322.55 706.375 8322.94 706.44 8323.33 706.503C8323.51 706.533 8323.7 706.562 8323.89 706.592C8324.31 706.658 8324.73 706.723 8325.16 706.785C8325.27 706.802 8325.39 706.818 8325.5 706.834C8326.63 706.995 8327.76 707.139 8328.9 707.267C8329.05 707.284 8329.2 707.301 8329.36 707.317C8329.77 707.362 8330.18 707.404 8330.59 707.444C8330.77 707.463 8330.96 707.481 8331.15 707.498C8331.56 707.536 8331.97 707.571 8332.38 707.604C8332.53 707.617 8332.69 707.631 8332.85 707.644C8333.35 707.683 8333.86 707.72 8334.37 707.753C8334.5 707.761 8334.62 707.769 8334.75 707.776C8335.23 707.806 8335.71 707.833 8336.2 707.856C8336.4 707.866 8336.6 707.875 8336.8 707.884C8337.2 707.901 8337.6 707.917 8338 707.931C8338.18 707.937 8338.36 707.942 8338.54 707.947C8338.92 707.959 8339.31 707.968 8339.69 707.976C8339.9 707.98 8340.12 707.984 8340.33 707.987C8340.88 707.995 8341.44 708 8342 708C8342.56 708 8343.12 707.995 8343.68 707.987C8343.89 707.984 8344.1 707.98 8344.32 707.976C8344.7 707.968 8345.08 707.958 8345.46 707.947C8345.65 707.942 8345.83 707.937 8346.01 707.931C8346.4 707.917 8346.8 707.901 8347.2 707.884C8347.4 707.875 8347.61 707.867 8347.81 707.856C8348.28 707.833 8348.75 707.807 8349.22 707.778C8349.37 707.769 8349.52 707.76 8349.67 707.75C8350.16 707.718 8350.66 707.683 8351.15 707.645C8351.31 707.632 8351.48 707.617 8351.64 707.604C8352.05 707.571 8352.45 707.536 8352.84 707.499C8353.04 707.481 8353.23 707.462 8353.43 707.443C8353.83 707.404 8354.23 707.362 8354.62 707.319C8354.79 707.301 8354.95 707.284 8355.12 707.266C8356.25 707.138 8357.37 706.995 8358.49 706.836C8358.62 706.818 8358.75 706.798 8358.88 706.779C8359.28 706.72 8359.69 706.658 8360.1 706.595C8360.3 706.563 8360.5 706.532 8360.7 706.5C8361.07 706.44 8361.44 706.377 8361.81 706.313C8361.99 706.283 8362.17 706.254 8362.34 706.223C8363.44 706.028 8364.53 705.818 8365.62 705.593C8365.77 705.563 8365.91 705.532 8366.06 705.501C8366.46 705.416 8366.86 705.329 8367.27 705.239C8367.43 705.202 8367.6 705.165 8367.77 705.127C8368.13 705.045 8368.48 704.962 8368.84 704.877C8369.05 704.829 8369.25 704.781 8369.46 704.731C8369.87 704.631 8370.28 704.528 8370.69 704.424C8370.9 704.37 8371.11 704.316 8371.32 704.262C8371.75 704.149 8372.18 704.035 8372.61 703.918C8372.75 703.88 8372.89 703.841 8373.03 703.802C8373.44 703.69 8373.84 703.576 8374.24 703.46C8374.4 703.415 8374.55 703.369 8374.71 703.323C8375.08 703.216 8375.44 703.107 8375.8 702.996C8375.98 702.943 8376.15 702.891 8376.33 702.838C8377.36 702.516 8378.4 702.18 8379.42 701.83C8379.56 701.783 8379.7 701.735 8379.84 701.687C8380.24 701.548 8380.64 701.407 8381.05 701.264C8381.18 701.216 8381.31 701.168 8381.45 701.119C8381.88 700.964 8382.31 700.805 8382.74 700.645C8382.82 700.615 8382.89 700.585 8382.97 700.556C8384.01 700.163 8385.05 699.755 8386.08 699.333C8386.23 699.271 8386.38 699.208 8386.53 699.145C8386.87 699.004 8387.21 698.861 8387.54 698.717C8387.73 698.638 8387.91 698.558 8388.1 698.479C8388.43 698.332 8388.77 698.184 8389.11 698.034C8389.27 697.963 8389.43 697.894 8389.58 697.822C8390.58 697.375 8391.56 696.914 8392.54 696.44C8392.65 696.385 8392.77 696.329 8392.88 696.273C8393.26 696.09 8393.63 695.904 8394 695.717C8394.14 695.649 8394.28 695.58 8394.41 695.512C8394.78 695.324 8395.15 695.135 8395.52 694.943C8395.64 694.88 8395.76 694.817 8395.88 694.753C8396.84 694.253 8397.78 693.739 8398.71 693.214C8398.87 693.128 8399.02 693.04 8399.17 692.953C8399.5 692.771 8399.82 692.588 8400.13 692.402C8400.3 692.307 8400.46 692.211 8400.63 692.115C8400.93 691.94 8401.22 691.763 8401.52 691.585C8401.69 691.483 8401.86 691.382 8402.03 691.279C8402.95 690.724 8403.85 690.157 8404.75 689.577C8404.87 689.502 8404.99 689.425 8405.1 689.35C8405.43 689.138 8405.75 688.925 8406.08 688.71C8406.22 688.613 8406.37 688.517 8406.51 688.42C8406.89 688.17 8407.26 687.918 8407.63 687.664C8407.69 687.62 8407.75 687.576 8407.82 687.532C8408.72 686.912 8409.61 686.28 8410.49 685.635C8410.61 685.544 8410.73 685.452 8410.86 685.361C8411.17 685.129 8411.49 684.894 8411.8 684.658C8411.93 684.56 8412.06 684.461 8412.19 684.361C8412.55 684.087 8412.91 683.812 8413.26 683.534C8413.32 683.492 8413.37 683.45 8413.43 683.408C8414.31 682.721 8415.17 682.021 8416.03 681.309C8416.11 681.241 8416.2 681.172 8416.28 681.104C8416.59 680.844 8416.9 680.584 8417.21 680.321C8417.35 680.199 8417.49 680.077 8417.63 679.954C8417.92 679.708 8418.2 679.461 8418.49 679.212C8418.6 679.109 8418.72 679.006 8418.84 678.902C8419.64 678.192 8420.43 677.472 8421.22 676.74C8421.32 676.641 8421.43 676.54 8421.53 676.44C8421.83 676.162 8422.12 675.883 8422.42 675.602C8422.52 675.502 8422.62 675.403 8422.72 675.304C8423.04 675.002 8423.34 674.699 8423.65 674.395C8423.73 674.316 8423.81 674.239 8423.89 674.16C8424.67 673.38 8425.44 672.587 8426.2 671.785C8426.26 671.728 8426.31 671.671 8426.37 671.613C8426.68 671.285 8426.98 670.956 8427.29 670.624C8427.39 670.517 8427.49 670.41 8427.58 670.303C8427.84 670.022 8428.1 669.739 8428.35 669.455C8428.48 669.318 8428.6 669.182 8428.72 669.045C8429.42 668.26 8430.1 667.465 8430.78 666.661C8430.86 666.567 8430.94 666.473 8431.02 666.378C8431.31 666.031 8431.6 665.682 8431.88 665.332C8431.96 665.239 8432.04 665.145 8432.11 665.052C8432.4 664.693 8432.69 664.332 8432.98 663.97C8433.03 663.907 8433.08 663.845 8433.13 663.782C8433.81 662.917 8434.48 662.041 8435.14 661.156C8435.21 661.061 8435.28 660.965 8435.35 660.869C8435.6 660.531 8435.85 660.192 8436.1 659.852C8436.18 659.732 8436.27 659.612 8436.35 659.492C8436.62 659.117 8436.89 658.74 8437.15 658.361C8437.2 658.3 8437.24 658.239 8437.28 658.178C8437.6 657.722 8437.92 657.263 8438.23 656.803C8438.23 656.797 8438.23 656.791 8438.24 656.785C8440.71 653.125 8445.57 651.798 8449.4 654.006L8484.05 674.014C8455.69 723.025 8402.7 756 8342 756Z" fill="#F0F0F0" stroke="#F0F0F0" id="n1020"/>
<path d="M8342 780C8275.29 780 8216.69 745.248 8183.32 692.859C8180.95 689.13 8182.27 684.221 8186.1 682.011L8234.6 654.006C8238.43 651.798 8243.3 653.124 8245.76 656.785C8266.6 687.681 8301.93 708 8342 708C8382.07 708 8417.4 687.681 8438.24 656.785C8440.71 653.124 8445.57 651.798 8449.4 654.006L8497.9 682.011C8501.73 684.221 8503.06 689.13 8500.68 692.859C8467.31 745.247 8408.72 780 8342 780Z" stroke="#BEBEBE" id="n1021"/>
<g mask="url(#mask135_68_6728)" id="n1023">
<path d="M8598 592L8086 592" stroke="#BEBEBE" stroke-linecap="square" id="n1024"/>
<path d="M8342 848L8342 336" stroke="#BEBEBE" stroke-linecap="square" id="n1025"/>
</g>
<rect x="8338" y="708" width="8" height="72" fill="#BEBEBE" id="n1026"/>
<g mask="url(#mask136_68_6728)" id="n1028">
<mask id="mask137_68_6728" style="mask-type:alpha" maskUnits="userSpaceOnUse" x="8086" y="336" width="512" height="512">
<path d="M8342 400C8448.04 400 8534 485.961 8534 592C8534 698.039 8448.04 784 8342 784C8235.96 784 8150 698.039 8150 592C8150 485.961 8235.96 400 8342 400ZM8342 424C8249.22 424 8174 499.216 8174 592C8174 684.784 8249.22 760 8342 760C8434.78 760 8510 684.784 8510 592C8510 499.216 8434.78 424 8342 424Z" fill="black" id="n1029"/>
</mask>
<g mask="url(#mask137_68_6728)" id="n1030">
<path d="M8342 392V592M8342 592L8242 418.795M8342 592L8168.79 492M8342 592H8142M8342 592L8168.79 692M8342 592L8242 765.205M8342 592V792M8342 592L8442 765.205M8342 592L8515.21 692M8342 592H8542M8342 592L8515.21 492M8342 592L8442 418.795" stroke="#BEBEBE" id="n1031"/>
</g>
<mask id="mask138_68_6728" style="mask-type:alpha" maskUnits="userSpaceOnUse" x="8086" y="336" width="512" height="512">
<path d="M8342 400C8448.04 400 8534 485.961 8534 592C8534 698.039 8448.04 784 8342 784C8235.96 784 8150 698.039 8150 592C8150 485.961 8235.96 400 8342 400ZM8342 428C8251.43 428 8178 501.425 8178 592C8178 682.575 8251.43 756 8342 756C8432.57 756 8506 682.575 8506 592C8506 501.425 8432.57 428 8342 428Z" fill="black" id="n1032"/>
</mask>
<g mask="url(#mask138_68_6728)" id="n1033">
<path d="M8342 392V792" stroke="#BEBEBE" id="n1034"/>
</g>
</g>
<g mask="url(#mask139_68_6728)" id="n1036">
<mask id="mask140_68_6728" style="mask-type:alpha" maskUnits="userSpaceOnUse" x="8341" y="591" width="68" height="258">
<path d="M8342 848C8364.37 848 8386.65 845.067 8408.26 839.277L8342 592L8342 848Z" fill="#9CC1F5" stroke="#9CC1F5" id="n1037"/>
</mask>
<g mask="url(#mask140_68_6728)" id="n1038">
<path fill-rule="evenodd" clip-rule="evenodd" d="M8342 428C8432.57 428 8506 501.425 8506 592C8506 682.575 8432.57 756 8342 756C8251.43 756 8178 682.575 8178 592C8178 501.425 8251.43 428 8342 428ZM8342 476C8277.93 476 8226 527.935 8226 592C8226 656.065 8277.93 708 8342 708C8406.07 708 8458 656.065 8458 592C8458 527.935 8406.07 476 8342 476Z" fill="#2D548B" stroke="#2D548B" id="n1039"/>
</g>
</g>
<rect x="8338" y="708" width="8" height="72" fill="#2D548B" stroke="#2D548B" id="n1040"/>
<path d="M8380.06 771.574C8379.42 770.794 8379.12 769.661 8379.51 768.549L8384.05 755.351C8384.52 754.011 8386.19 753.563 8387.26 754.493L8397.79 763.649C8398.68 764.42 8398.99 765.55 8398.83 766.544C8398.67 767.539 8398 768.521 8396.83 768.834L8382.93 772.559C8381.76 772.873 8380.69 772.356 8380.06 771.574Z" fill="#2D548B" stroke="white" stroke-width="2" stroke-linejoin="round" id="n1041"/>
</g>
</svg>
