<?xml version='1.0' encoding='utf-8'?>
<svg xmlns="http://www.w3.org/2000/svg" xmlns:xlink="http://www.w3.org/1999/xlink" width="384.0" height="144.0" viewBox="0 0 384.0 144.0" fill="none">
  <defs><clipPath id="clip__asset"><rect x="0" y="0" width="384.0" height="144.0"/></clipPath><mask id="mask157_68_6728" style="mask-type:alpha" maskUnits="userSpaceOnUse" x="8086" y="1368" width="512" height="512">
<path d="M8342 1812C8275.29 1812 8216.69 1777.25 8183.32 1724.86C8180.95 1721.13 8182.27 1716.22 8186.1 1714.01L8234.6 1686.01C8238.43 1683.8 8243.3 1685.12 8245.76 1688.78C8266.6 1719.68 8301.93 1740 8342 1740C8382.07 1740 8417.4 1719.68 8438.24 1688.78C8440.71 1685.12 8445.57 1683.8 8449.4 1686.01L8497.9 1714.01C8501.73 1716.22 8503.06 1721.13 8500.68 1724.86C8467.31 1777.25 8408.72 1812 8342 1812Z" fill="white" stroke="black" id="n1108"/>
</mask>
<mask id="mask158_68_6728" style="mask-type:luminance" maskUnits="userSpaceOnUse" x="8086" y="1368" width="512" height="512">
<path d="M8342 1812C8275.29 1812 8216.69 1777.25 8183.32 1724.86C8180.94 1721.13 8182.27 1716.22 8186.1 1714.01L8199.95 1706.01C8228.31 1755.03 8281.3 1788 8342 1788C8402.7 1788 8455.69 1755.02 8484.05 1706.01L8497.9 1714.01C8501.73 1716.22 8503.06 1721.13 8500.68 1724.86C8467.31 1777.25 8408.72 1812 8342 1812Z" fill="white" stroke="black" id="n1113"/>
</mask>
<mask id="mask159_68_6728" style="mask-type:alpha" maskUnits="userSpaceOnUse" x="8086" y="1368" width="512" height="512">
<path d="M8342 1432C8448.04 1432 8534 1517.96 8534 1624C8534 1730.04 8448.04 1816 8342 1816C8235.96 1816 8150 1730.04 8150 1624C8150 1517.96 8235.96 1432 8342 1432ZM8342 1456C8249.22 1456 8174 1531.22 8174 1624C8174 1716.78 8249.22 1792 8342 1792C8434.78 1792 8510 1716.78 8510 1624C8510 1531.22 8434.78 1456 8342 1456Z" fill="black" id="n1115"/>
</mask>
<mask id="mask160_68_6728" style="mask-type:alpha" maskUnits="userSpaceOnUse" x="8086" y="1368" width="512" height="512">
<path d="M8342 1432C8448.04 1432 8534 1517.96 8534 1624C8534 1730.04 8448.04 1816 8342 1816C8235.96 1816 8150 1730.04 8150 1624C8150 1517.96 8235.96 1432 8342 1432ZM8342 1460C8251.43 1460 8178 1533.43 8178 1624C8178 1714.57 8251.43 1788 8342 1788C8432.57 1788 8506 1714.57 8506 1624C8506 1533.43 8432.57 1460 8342 1460Z" fill="black" id="n1118"/>
</mask>
</defs>
  <g clip-path="url(#clip__asset)" transform="translate(-8150.0 -1672.0)"><path d="M8342 1812C8275.29 1812 8216.69 1777.25 8183.32 1724.86C8180.94 1721.13 8182.27 1716.22 8186.1 1714.01L8199.95 1706.01C8228.31 1755.03 8281.3 1788 8342 1788C8402.7 1788 8455.69 1755.02 8484.05 1706.01L8497.9 1714.01C8501.73 1716.22 8503.06 1721.13 8500.68 1724.86C8467.31 1777.25 8408.72 1812 8342 1812Z" fill="white" stroke="white" id="n1105"/>
<path d="M8342 1788C8281.3 1788 8228.31 1755.03 8199.95 1706.01L8234.61 1686.01C8238.42 1683.8 8243.28 1685.12 8245.75 1688.77C8246.07 1689.24 8246.4 1689.71 8246.72 1690.18C8246.76 1690.24 8246.8 1690.29 8246.84 1690.35C8247.12 1690.75 8247.41 1691.16 8247.7 1691.56C8247.74 1691.63 8247.79 1691.69 8247.84 1691.76C8248.14 1692.17 8248.44 1692.58 8248.74 1693C8248.77 1693.03 8248.79 1693.06 8248.82 1693.09C8249.83 1694.46 8250.88 1695.81 8251.95 1697.13C8251.99 1697.17 8252.02 1697.21 8252.05 1697.25C8253.12 1698.56 8254.21 1699.84 8255.33 1701.09C8255.4 1701.18 8255.47 1701.26 8255.54 1701.34C8255.85 1701.68 8256.17 1702.03 8256.48 1702.37C8256.53 1702.43 8256.59 1702.49 8256.65 1702.55C8258.16 1704.2 8259.73 1705.8 8261.34 1707.36C8261.4 1707.42 8261.46 1707.48 8261.51 1707.53C8261.86 1707.87 8262.21 1708.2 8262.56 1708.53C8262.62 1708.58 8262.68 1708.64 8262.74 1708.7C8263.55 1709.46 8264.37 1710.2 8265.21 1710.94C8265.27 1711 8265.33 1711.05 8265.39 1711.1C8265.74 1711.41 8266.08 1711.71 8266.43 1712.01C8266.53 1712.09 8266.63 1712.18 8266.73 1712.26C8267.1 1712.58 8267.47 1712.89 8267.84 1713.2C8267.87 1713.22 8267.9 1713.25 8267.93 1713.27C8268.8 1714 8269.68 1714.71 8270.58 1715.41C8270.63 1715.45 8270.68 1715.49 8270.73 1715.53C8271.11 1715.82 8271.49 1716.11 8271.87 1716.4C8271.96 1716.47 8272.05 1716.54 8272.14 1716.61C8272.5 1716.88 8272.87 1717.16 8273.24 1717.43C8273.32 1717.49 8273.4 1717.55 8273.47 1717.6C8274.81 1718.58 8276.17 1719.53 8277.54 1720.46C8277.65 1720.53 8277.76 1720.6 8277.86 1720.67C8278.24 1720.92 8278.62 1721.17 8279 1721.41C8279.07 1721.46 8279.14 1721.5 8279.21 1721.55C8280.13 1722.15 8281.07 1722.73 8282.01 1723.3C8282.13 1723.38 8282.26 1723.45 8282.38 1723.53C8282.73 1723.73 8283.08 1723.94 8283.43 1724.15C8283.56 1724.22 8283.68 1724.3 8283.81 1724.37C8284.18 1724.58 8284.54 1724.79 8284.91 1725C8285.03 1725.06 8285.14 1725.13 8285.25 1725.19C8286.21 1725.73 8287.18 1726.26 8288.15 1726.77C8288.24 1726.81 8288.32 1726.86 8288.41 1726.9C8288.8 1727.11 8289.2 1727.31 8289.6 1727.51C8289.73 1727.58 8289.87 1727.65 8290 1727.72C8290.37 1727.9 8290.75 1728.09 8291.12 1728.27C8291.24 1728.33 8291.35 1728.38 8291.46 1728.44C8292.45 1728.92 8293.45 1729.38 8294.45 1729.84C8294.57 1729.89 8294.69 1729.94 8294.81 1730C8295.19 1730.17 8295.57 1730.33 8295.95 1730.5C8296.1 1730.56 8296.26 1730.63 8296.41 1730.7C8296.79 1730.86 8297.17 1731.02 8297.55 1731.18C8297.67 1731.23 8297.79 1731.28 8297.91 1731.33C8298.94 1731.75 8299.98 1732.16 8301.03 1732.56C8301.11 1732.58 8301.18 1732.61 8301.26 1732.64C8301.7 1732.81 8302.15 1732.97 8302.59 1733.13C8302.7 1733.17 8302.81 1733.21 8302.92 1733.25C8303.35 1733.4 8303.78 1733.56 8304.22 1733.71C8304.33 1733.74 8304.44 1733.78 8304.55 1733.82C8305.59 1734.18 8306.64 1734.52 8307.7 1734.84C8307.85 1734.89 8307.99 1734.93 8308.14 1734.98C8308.53 1735.1 8308.93 1735.22 8309.33 1735.33C8309.46 1735.37 8309.6 1735.41 8309.73 1735.45C8310.16 1735.57 8310.59 1735.7 8311.02 1735.82C8311.14 1735.85 8311.25 1735.88 8311.37 1735.91C8311.84 1736.04 8312.31 1736.17 8312.79 1736.29C8312.91 1736.32 8313.03 1736.35 8313.16 1736.38C8313.63 1736.5 8314.1 1736.62 8314.57 1736.74C8314.77 1736.79 8314.97 1736.83 8315.17 1736.88C8315.5 1736.96 8315.82 1737.03 8316.14 1737.11C8316.37 1737.16 8316.6 1737.21 8316.83 1737.26C8317.2 1737.34 8317.57 1737.42 8317.95 1737.5C8318.09 1737.53 8318.23 1737.56 8318.37 1737.59C8319.46 1737.82 8320.57 1738.03 8321.68 1738.22C8321.84 1738.25 8322 1738.28 8322.16 1738.31C8322.55 1738.37 8322.94 1738.44 8323.33 1738.5C8323.51 1738.53 8323.7 1738.56 8323.89 1738.59C8324.31 1738.66 8324.73 1738.72 8325.16 1738.79C8325.27 1738.8 8325.39 1738.82 8325.5 1738.83C8326.63 1738.99 8327.76 1739.14 8328.9 1739.27C8329.05 1739.28 8329.2 1739.3 8329.36 1739.32C8329.77 1739.36 8330.18 1739.4 8330.59 1739.44C8330.77 1739.46 8330.96 1739.48 8331.15 1739.5C8331.56 1739.54 8331.97 1739.57 8332.38 1739.6C8332.53 1739.62 8332.69 1739.63 8332.85 1739.64C8333.35 1739.68 8333.86 1739.72 8334.37 1739.75C8334.5 1739.76 8334.62 1739.77 8334.75 1739.78C8335.23 1739.81 8335.71 1739.83 8336.2 1739.86C8336.4 1739.87 8336.6 1739.87 8336.8 1739.88C8337.2 1739.9 8337.6 1739.92 8338 1739.93C8338.18 1739.94 8338.36 1739.94 8338.54 1739.95C8338.92 1739.96 8339.31 1739.97 8339.69 1739.98C8339.9 1739.98 8340.12 1739.98 8340.33 1739.99C8340.88 1740 8341.44 1740 8342 1740C8342.56 1740 8343.12 1740 8343.68 1739.99C8343.89 1739.98 8344.1 1739.98 8344.32 1739.98C8344.7 1739.97 8345.08 1739.96 8345.46 1739.95C8345.65 1739.94 8345.83 1739.94 8346.01 1739.93C8346.4 1739.92 8346.8 1739.9 8347.2 1739.88C8347.4 1739.87 8347.61 1739.87 8347.81 1739.86C8348.28 1739.83 8348.75 1739.81 8349.22 1739.78C8349.37 1739.77 8349.52 1739.76 8349.67 1739.75C8350.16 1739.72 8350.66 1739.68 8351.15 1739.64C8351.31 1739.63 8351.48 1739.62 8351.64 1739.6C8352.05 1739.57 8352.45 1739.54 8352.84 1739.5C8353.04 1739.48 8353.23 1739.46 8353.43 1739.44C8353.83 1739.4 8354.23 1739.36 8354.62 1739.32C8354.79 1739.3 8354.95 1739.28 8355.12 1739.27C8356.25 1739.14 8357.37 1739 8358.49 1738.84C8358.62 1738.82 8358.75 1738.8 8358.88 1738.78C8359.28 1738.72 8359.69 1738.66 8360.1 1738.59C8360.3 1738.56 8360.5 1738.53 8360.7 1738.5C8361.07 1738.44 8361.44 1738.38 8361.81 1738.31C8361.99 1738.28 8362.17 1738.25 8362.34 1738.22C8363.44 1738.03 8364.53 1737.82 8365.62 1737.59C8365.77 1737.56 8365.91 1737.53 8366.06 1737.5C8366.46 1737.42 8366.86 1737.33 8367.27 1737.24C8367.43 1737.2 8367.6 1737.16 8367.77 1737.13C8368.13 1737.05 8368.48 1736.96 8368.84 1736.88C8369.05 1736.83 8369.25 1736.78 8369.46 1736.73C8369.87 1736.63 8370.28 1736.53 8370.69 1736.42C8370.9 1736.37 8371.11 1736.32 8371.32 1736.26C8371.75 1736.15 8372.18 1736.04 8372.61 1735.92C8372.75 1735.88 8372.89 1735.84 8373.03 1735.8C8373.44 1735.69 8373.84 1735.58 8374.24 1735.46C8374.4 1735.41 8374.55 1735.37 8374.71 1735.32C8375.08 1735.22 8375.44 1735.11 8375.8 1735C8375.98 1734.94 8376.15 1734.89 8376.33 1734.84C8377.36 1734.52 8378.4 1734.18 8379.42 1733.83C8379.56 1733.78 8379.7 1733.74 8379.84 1733.69C8380.24 1733.55 8380.64 1733.41 8381.05 1733.26C8381.18 1733.22 8381.31 1733.17 8381.45 1733.12C8381.88 1732.96 8382.31 1732.81 8382.74 1732.64C8382.82 1732.61 8382.89 1732.59 8382.97 1732.56C8384.01 1732.16 8385.05 1731.75 8386.08 1731.33C8386.23 1731.27 8386.38 1731.21 8386.53 1731.15C8386.87 1731 8387.21 1730.86 8387.54 1730.72C8387.73 1730.64 8387.91 1730.56 8388.1 1730.48C8388.43 1730.33 8388.77 1730.18 8389.11 1730.03C8389.27 1729.96 8389.43 1729.89 8389.58 1729.82C8390.58 1729.38 8391.56 1728.91 8392.54 1728.44C8392.65 1728.39 8392.77 1728.33 8392.88 1728.27C8393.26 1728.09 8393.63 1727.9 8394 1727.72C8394.14 1727.65 8394.28 1727.58 8394.41 1727.51C8394.78 1727.32 8395.15 1727.13 8395.52 1726.94C8395.64 1726.88 8395.76 1726.82 8395.88 1726.75C8396.84 1726.25 8397.78 1725.74 8398.71 1725.21C8398.87 1725.13 8399.02 1725.04 8399.17 1724.95C8399.5 1724.77 8399.82 1724.59 8400.13 1724.4C8400.3 1724.31 8400.46 1724.21 8400.63 1724.12C8400.93 1723.94 8401.22 1723.76 8401.52 1723.58C8401.69 1723.48 8401.86 1723.38 8402.03 1723.28C8402.95 1722.72 8403.85 1722.16 8404.75 1721.58C8404.87 1721.5 8404.99 1721.43 8405.1 1721.35C8405.43 1721.14 8405.75 1720.92 8406.08 1720.71C8406.22 1720.61 8406.37 1720.52 8406.51 1720.42C8406.89 1720.17 8407.26 1719.92 8407.63 1719.66C8407.69 1719.62 8407.75 1719.58 8407.82 1719.53C8408.72 1718.91 8409.61 1718.28 8410.49 1717.63C8410.61 1717.54 8410.73 1717.45 8410.86 1717.36C8411.17 1717.13 8411.49 1716.89 8411.8 1716.66C8411.93 1716.56 8412.06 1716.46 8412.19 1716.36C8412.55 1716.09 8412.91 1715.81 8413.26 1715.53C8413.32 1715.49 8413.37 1715.45 8413.43 1715.41C8414.31 1714.72 8415.17 1714.02 8416.03 1713.31C8416.11 1713.24 8416.2 1713.17 8416.28 1713.1C8416.59 1712.84 8416.9 1712.58 8417.21 1712.32C8417.35 1712.2 8417.49 1712.08 8417.63 1711.95C8417.92 1711.71 8418.2 1711.46 8418.49 1711.21C8418.6 1711.11 8418.72 1711.01 8418.84 1710.9C8419.64 1710.19 8420.43 1709.47 8421.22 1708.74C8421.32 1708.64 8421.43 1708.54 8421.53 1708.44C8421.83 1708.16 8422.12 1707.88 8422.42 1707.6C8422.52 1707.5 8422.62 1707.4 8422.72 1707.3C8423.04 1707 8423.34 1706.7 8423.65 1706.39C8423.73 1706.32 8423.81 1706.24 8423.89 1706.16C8424.67 1705.38 8425.44 1704.59 8426.2 1703.79C8426.26 1703.73 8426.31 1703.67 8426.37 1703.61C8426.68 1703.29 8426.98 1702.96 8427.29 1702.62C8427.39 1702.52 8427.49 1702.41 8427.58 1702.3C8427.84 1702.02 8428.1 1701.74 8428.35 1701.46C8428.48 1701.32 8428.6 1701.18 8428.72 1701.04C8429.42 1700.26 8430.1 1699.46 8430.78 1698.66C8430.86 1698.57 8430.94 1698.47 8431.02 1698.38C8431.31 1698.03 8431.6 1697.68 8431.88 1697.33C8431.96 1697.24 8432.04 1697.15 8432.11 1697.05C8432.4 1696.69 8432.69 1696.33 8432.98 1695.97C8433.03 1695.91 8433.08 1695.84 8433.13 1695.78C8433.81 1694.92 8434.48 1694.04 8435.14 1693.16C8435.21 1693.06 8435.28 1692.96 8435.35 1692.87C8435.6 1692.53 8435.85 1692.19 8436.1 1691.85C8436.18 1691.73 8436.27 1691.61 8436.35 1691.49C8436.62 1691.12 8436.89 1690.74 8437.15 1690.36C8437.2 1690.3 8437.24 1690.24 8437.28 1690.18C8437.6 1689.72 8437.92 1689.26 8438.23 1688.8C8438.23 1688.8 8438.23 1688.79 8438.24 1688.79C8440.71 1685.12 8445.57 1683.8 8449.4 1686.01L8484.05 1706.01C8455.69 1755.03 8402.7 1788 8342 1788Z" fill="#F0F0F0" stroke="#F0F0F0" id="n1106"/>
<path d="M8342 1812C8275.29 1812 8216.69 1777.25 8183.32 1724.86C8180.95 1721.13 8182.27 1716.22 8186.1 1714.01L8234.6 1686.01C8238.43 1683.8 8243.3 1685.12 8245.76 1688.78C8266.6 1719.68 8301.93 1740 8342 1740C8382.07 1740 8417.4 1719.68 8438.24 1688.78C8440.71 1685.12 8445.57 1683.8 8449.4 1686.01L8497.9 1714.01C8501.73 1716.22 8503.06 1721.13 8500.68 1724.86C8467.31 1777.25 8408.72 1812 8342 1812Z" stroke="#BEBEBE" id="n1107"/>
<g mask="url(#mask157_68_6728)" id="n1109">
<path d="M8598 1624L8086 1624" stroke="#BEBEBE" stroke-linecap="square" id="n1110"/>
<path d="M8342 1880L8342 1368" stroke="#BEBEBE" stroke-linecap="square" id="n1111"/>
</g>
<rect x="8338" y="1740" width="8" height="72" fill="#BEBEBE" id="n1112"/>
<g mask="url(#mask158_68_6728)" id="n1114">
<mask id="mask159_68_6728" style="mask-type:alpha" maskUnits="userSpaceOnUse" x="8086" y="1368" width="512" height="512">
<path d="M8342 1432C8448.04 1432 8534 1517.96 8534 1624C8534 1730.04 8448.04 1816 8342 1816C8235.96 1816 8150 1730.04 8150 1624C8150 1517.96 8235.96 1432 8342 1432ZM8342 1456C8249.22 1456 8174 1531.22 8174 1624C8174 1716.78 8249.22 1792 8342 1792C8434.78 1792 8510 1716.78 8510 1624C8510 1531.22 8434.78 1456 8342 1456Z" fill="black" id="n1115"/>
</mask>
<g mask="url(#mask159_68_6728)" id="n1116">
<path d="M8342 1424V1624M8342 1624L8242 1450.79M8342 1624L8168.79 1524M8342 1624H8142M8342 1624L8168.79 1724M8342 1624L8242 1797.21M8342 1624V1824M8342 1624L8442 1797.21M8342 1624L8515.21 1724M8342 1624H8542M8342 1624L8515.21 1524M8342 1624L8442 1450.79" stroke="#BEBEBE" id="n1117"/>
</g>
<mask id="mask160_68_6728" style="mask-type:alpha" maskUnits="userSpaceOnUse" x="8086" y="1368" width="512" height="512">
<path d="M8342 1432C8448.04 1432 8534 1517.96 8534 1624C8534 1730.04 8448.04 1816 8342 1816C8235.96 1816 8150 1730.04 8150 1624C8150 1517.96 8235.96 1432 8342 1432ZM8342 1460C8251.43 1460 8178 1533.43 8178 1624C8178 1714.57 8251.43 1788 8342 1788C8432.57 1788 8506 1714.57 8506 1624C8506 1533.43 8432.57 1460 8342 1460Z" fill="black" id="n1118"/>
</mask>
<g mask="url(#mask160_68_6728)" id="n1119">
<path d="M8342 1424V1824" stroke="#BEBEBE" id="n1120"/>
</g>
</g>
<path d="M8332.28 1815.3C8331.87 1814.39 8331.88 1813.22 8332.53 1812.24L8340.34 1800.67C8341.14 1799.49 8342.87 1799.49 8343.66 1800.67L8351.47 1812.24C8352.12 1813.22 8352.13 1814.39 8351.72 1815.3C8351.31 1816.22 8350.41 1817 8349.2 1817L8334.8 1817C8333.59 1817 8332.7 1816.22 8332.28 1815.3Z" fill="#2D548B" stroke="white" stroke-width="2" stroke-linejoin="round" id="n1121"/>
</g>
</svg>
