<?xml version='1.0' encoding='utf-8'?>
<svg xmlns="http://www.w3.org/2000/svg" xmlns:xlink="http://www.w3.org/1999/xlink" width="384.0" height="144.0" viewBox="0 0 384.0 144.0" fill="none">
  <defs><clipPath id="clip__asset"><rect x="0" y="0" width="384.0" height="144.0"/></clipPath><mask id="mask165_68_6728" style="mask-type:alpha" maskUnits="userSpaceOnUse" x="8086" y="1712" width="512" height="512">
<path d="M8342 2156C8275.29 2156 8216.69 2121.25 8183.32 2068.86C8180.95 2065.13 8182.27 2060.22 8186.1 2058.01L8234.6 2030.01C8238.43 2027.8 8243.3 2029.12 8245.76 2032.78C8266.6 2063.68 8301.93 2084 8342 2084C8382.07 2084 8417.4 2063.68 8438.24 2032.78C8440.71 2029.12 8445.57 2027.8 8449.4 2030.01L8497.9 2058.01C8501.73 2060.22 8503.06 2065.13 8500.68 2068.86C8467.31 2121.25 8408.72 2156 8342 2156Z" fill="white" stroke="black" id="n1138"/>
</mask>
<mask id="mask166_68_6728" style="mask-type:luminance" maskUnits="userSpaceOnUse" x="8086" y="1712" width="512" height="512">
<path d="M8342 2156C8275.29 2156 8216.69 2121.25 8183.32 2068.86C8180.94 2065.13 8182.27 2060.22 8186.1 2058.01L8199.95 2050.01C8228.31 2099.03 8281.3 2132 8342 2132C8402.7 2132 8455.69 2099.02 8484.05 2050.01L8497.9 2058.01C8501.73 2060.22 8503.06 2065.13 8500.68 2068.86C8467.31 2121.25 8408.72 2156 8342 2156Z" fill="white" stroke="black" id="n1143"/>
</mask>
<mask id="mask167_68_6728" style="mask-type:alpha" maskUnits="userSpaceOnUse" x="8086" y="1712" width="512" height="512">
<path d="M8342 1776C8448.04 1776 8534 1861.96 8534 1968C8534 2074.04 8448.04 2160 8342 2160C8235.96 2160 8150 2074.04 8150 1968C8150 1861.96 8235.96 1776 8342 1776ZM8342 1800C8249.22 1800 8174 1875.22 8174 1968C8174 2060.78 8249.22 2136 8342 2136C8434.78 2136 8510 2060.78 8510 1968C8510 1875.22 8434.78 1800 8342 1800Z" fill="black" id="n1145"/>
</mask>
<mask id="mask168_68_6728" style="mask-type:alpha" maskUnits="userSpaceOnUse" x="8086" y="1712" width="512" height="512">
<path d="M8342 1776C8448.04 1776 8534 1861.96 8534 1968C8534 2074.04 8448.04 2160 8342 2160C8235.96 2160 8150 2074.04 8150 1968C8150 1861.96 8235.96 1776 8342 1776ZM8342 1804C8251.43 1804 8178 1877.43 8178 1968C8178 2058.57 8251.43 2132 8342 2132C8432.57 2132 8506 2058.57 8506 1968C8506 1877.43 8432.57 1804 8342 1804Z" fill="black" id="n1148"/>
</mask>
</defs>
  <g clip-path="url(#clip__asset)" transform="translate(-8150.0 -2016.0)"><path d="M8342 2156C8275.29 2156 8216.69 2121.25 8183.32 2068.86C8180.95 2065.13 8182.27 2060.22 8186.1 2058.01L8234.6 2030.01C8238.43 2027.8 8243.3 2029.12 8245.76 2032.78C8266.6 2063.68 8301.93 2084 8342 2084C8382.07 2084 8417.4 2063.68 8438.24 2032.78C8440.71 2029.12 8445.57 2027.8 8449.4 2030.01L8497.9 2058.01C8501.73 2060.22 8503.06 2065.13 8500.68 2068.86C8467.31 2121.25 8408.72 2156 8342 2156Z" stroke="#BEBEBE" id="n1137"/>
<g mask="url(#mask165_68_6728)" id="n1139">
<path d="M8598 1968L8086 1968" stroke="#BEBEBE" stroke-linecap="square" id="n1140"/>
<path d="M8342 2224L8342 1712" stroke="#BEBEBE" stroke-linecap="square" id="n1141"/>
</g>
<rect x="8338" y="2084" width="8" height="72" fill="#BEBEBE" id="n1142"/>
<g mask="url(#mask166_68_6728)" id="n1144">
<mask id="mask167_68_6728" style="mask-type:alpha" maskUnits="userSpaceOnUse" x="8086" y="1712" width="512" height="512">
<path d="M8342 1776C8448.04 1776 8534 1861.96 8534 1968C8534 2074.04 8448.04 2160 8342 2160C8235.96 2160 8150 2074.04 8150 1968C8150 1861.96 8235.96 1776 8342 1776ZM8342 1800C8249.22 1800 8174 1875.22 8174 1968C8174 2060.78 8249.22 2136 8342 2136C8434.78 2136 8510 2060.78 8510 1968C8510 1875.22 8434.78 1800 8342 1800Z" fill="black" id="n1145"/>
</mask>
<g mask="url(#mask167_68_6728)" id="n1146">
<path d="M8342 1768V1968M8342 1968L8242 1794.79M8342 1968L8168.79 1868M8342 1968H8142M8342 1968L8168.79 2068M8342 1968L8242 2141.21M8342 1968V2168M8342 1968L8442 2141.21M8342 1968L8515.21 2068M8342 1968H8542M8342 1968L8515.21 1868M8342 1968L8442 1794.79" stroke="#BEBEBE" id="n1147"/>
</g>
<mask id="mask168_68_6728" style="mask-type:alpha" maskUnits="userSpaceOnUse" x="8086" y="1712" width="512" height="512">
<path d="M8342 1776C8448.04 1776 8534 1861.96 8534 1968C8534 2074.04 8448.04 2160 8342 2160C8235.96 2160 8150 2074.04 8150 1968C8150 1861.96 8235.96 1776 8342 1776ZM8342 1804C8251.43 1804 8178 1877.43 8178 1968C8178 2058.57 8251.43 2132 8342 2132C8432.57 2132 8506 2058.57 8506 1968C8506 1877.43 8432.57 1804 8342 1804Z" fill="black" id="n1148"/>
</mask>
<g mask="url(#mask168_68_6728)" id="n1149">
<path d="M8342 1768V2168" stroke="#BEBEBE" id="n1150"/>
</g>
</g>
<path d="M8332.28 2159.3C8331.87 2158.39 8331.88 2157.22 8332.53 2156.24L8340.34 2144.67C8341.14 2143.49 8342.87 2143.49 8343.66 2144.67L8351.47 2156.24C8352.12 2157.22 8352.13 2158.39 8351.72 2159.3C8351.31 2160.22 8350.41 2161 8349.2 2161L8334.8 2161C8333.59 2161 8332.7 2160.22 8332.28 2159.3Z" fill="#BEBEBE" stroke="white" stroke-width="2" stroke-linejoin="round" id="n1151"/>
</g>
</svg>
