<?xml version='1.0' encoding='utf-8'?>
<svg xmlns="http://www.w3.org/2000/svg" xmlns:xlink="http://www.w3.org/1999/xlink" width="384.0" height="216.0" viewBox="0 0 384.0 216.0" fill="none">
  <defs><clipPath id="clip__asset"><rect x="0" y="0" width="384.0" height="216.0"/></clipPath><mask id="mask109_68_6728" style="mask-type:alpha" maskUnits="userSpaceOnUse" x="7066" y="1024" width="512" height="512">
<path d="M7322 1468C7255.29 1468 7196.69 1433.25 7163.32 1380.86C7160.95 1377.13 7162.27 1372.22 7166.1 1370.01L7214.6 1342.01C7218.43 1339.8 7223.3 1341.12 7225.76 1344.78C7246.6 1375.68 7281.93 1396 7322 1396C7362.07 1396 7397.4 1375.68 7418.24 1344.78C7420.71 1341.12 7425.57 1339.8 7429.4 1342.01L7477.9 1370.01C7481.73 1372.22 7483.06 1377.13 7480.68 1380.86C7447.31 1433.25 7388.72 1468 7322 1468Z" fill="white" stroke="black" id="n903"/>
</mask>
<mask id="mask110_68_6728" style="mask-type:luminance" maskUnits="userSpaceOnUse" x="7066" y="1024" width="512" height="512">
<path d="M7322 1468C7255.29 1468 7196.69 1433.25 7163.32 1380.86C7160.94 1377.13 7162.27 1372.22 7166.1 1370.01L7179.95 1362.01C7208.31 1411.03 7261.3 1444 7322 1444C7382.7 1444 7435.69 1411.02 7464.05 1362.01L7477.9 1370.01C7481.73 1372.22 7483.06 1377.13 7480.68 1380.86C7447.31 1433.25 7388.72 1468 7322 1468Z" fill="white" stroke="black" id="n909"/>
</mask>
<mask id="mask111_68_6728" style="mask-type:alpha" maskUnits="userSpaceOnUse" x="7066" y="1024" width="512" height="512">
<path d="M7322 1088C7428.04 1088 7514 1173.96 7514 1280C7514 1386.04 7428.04 1472 7322 1472C7215.96 1472 7130 1386.04 7130 1280C7130 1173.96 7215.96 1088 7322 1088ZM7322 1112C7229.22 1112 7154 1187.22 7154 1280C7154 1372.78 7229.22 1448 7322 1448C7414.78 1448 7490 1372.78 7490 1280C7490 1187.22 7414.78 1112 7322 1112Z" fill="black" id="n911"/>
</mask>
<mask id="mask112_68_6728" style="mask-type:alpha" maskUnits="userSpaceOnUse" x="7066" y="1024" width="512" height="512">
<path d="M7322 1088C7428.04 1088 7514 1173.96 7514 1280C7514 1386.04 7428.04 1472 7322 1472C7215.96 1472 7130 1386.04 7130 1280C7130 1173.96 7215.96 1088 7322 1088ZM7322 1116C7231.43 1116 7158 1189.43 7158 1280C7158 1370.57 7231.43 1444 7322 1444C7412.57 1444 7486 1370.57 7486 1280C7486 1189.43 7412.57 1116 7322 1116Z" fill="black" id="n914"/>
</mask>
</defs>
  <g clip-path="url(#clip__asset)" transform="translate(-7130.0 -1256.0)"><path d="M7322 1468C7255.29 1468 7196.69 1433.25 7163.32 1380.86C7160.94 1377.13 7162.27 1372.22 7166.1 1370.01L7179.95 1362.01C7208.31 1411.03 7261.3 1444 7322 1444C7382.7 1444 7435.69 1411.02 7464.05 1362.01L7477.9 1370.01C7481.73 1372.22 7483.06 1377.13 7480.68 1380.86C7447.31 1433.25 7388.72 1468 7322 1468Z" fill="white" stroke="white" id="n900"/>
<path d="M7322 1444C7261.3 1444 7208.31 1411.03 7179.95 1362.01L7214.61 1342.01C7218.42 1339.8 7223.28 1341.12 7225.75 1344.77C7226.07 1345.24 7226.4 1345.71 7226.72 1346.18C7226.76 1346.24 7226.8 1346.29 7226.84 1346.35C7227.12 1346.75 7227.41 1347.16 7227.7 1347.56C7227.74 1347.63 7227.79 1347.69 7227.84 1347.76C7228.14 1348.17 7228.44 1348.58 7228.74 1349C7228.77 1349.03 7228.79 1349.06 7228.82 1349.09C7229.83 1350.46 7230.88 1351.81 7231.95 1353.13C7231.99 1353.17 7232.02 1353.21 7232.05 1353.25C7233.12 1354.56 7234.21 1355.84 7235.33 1357.09C7235.4 1357.18 7235.47 1357.26 7235.54 1357.34C7235.85 1357.68 7236.17 1358.03 7236.48 1358.37C7236.53 1358.43 7236.59 1358.49 7236.65 1358.55C7238.16 1360.2 7239.73 1361.8 7241.34 1363.36C7241.4 1363.42 7241.46 1363.48 7241.51 1363.53C7241.86 1363.87 7242.21 1364.2 7242.56 1364.53C7242.62 1364.58 7242.68 1364.64 7242.74 1364.7C7243.55 1365.46 7244.37 1366.2 7245.21 1366.94C7245.27 1367 7245.33 1367.05 7245.39 1367.1C7245.74 1367.41 7246.08 1367.71 7246.43 1368.01C7246.53 1368.09 7246.63 1368.18 7246.73 1368.26C7247.1 1368.58 7247.47 1368.89 7247.84 1369.2C7247.87 1369.22 7247.9 1369.25 7247.93 1369.27C7248.8 1370 7249.68 1370.71 7250.58 1371.41C7250.63 1371.45 7250.68 1371.49 7250.73 1371.53C7251.11 1371.82 7251.49 1372.11 7251.87 1372.4C7251.96 1372.47 7252.05 1372.54 7252.14 1372.61C7252.5 1372.88 7252.87 1373.16 7253.24 1373.43C7253.32 1373.49 7253.4 1373.55 7253.47 1373.6C7254.81 1374.58 7256.17 1375.53 7257.54 1376.46C7257.65 1376.53 7257.76 1376.6 7257.86 1376.67C7258.24 1376.92 7258.62 1377.17 7259 1377.41C7259.07 1377.46 7259.14 1377.5 7259.21 1377.55C7260.13 1378.15 7261.07 1378.73 7262.01 1379.3C7262.13 1379.38 7262.26 1379.45 7262.38 1379.53C7262.73 1379.73 7263.08 1379.94 7263.43 1380.15C7263.56 1380.22 7263.68 1380.3 7263.81 1380.37C7264.18 1380.58 7264.54 1380.79 7264.91 1381C7265.03 1381.06 7265.14 1381.13 7265.25 1381.19C7266.21 1381.73 7267.18 1382.26 7268.15 1382.77C7268.24 1382.81 7268.32 1382.86 7268.41 1382.9C7268.8 1383.11 7269.2 1383.31 7269.6 1383.51C7269.73 1383.58 7269.87 1383.65 7270 1383.72C7270.37 1383.9 7270.75 1384.09 7271.12 1384.27C7271.24 1384.33 7271.35 1384.38 7271.46 1384.44C7272.45 1384.92 7273.45 1385.38 7274.45 1385.84C7274.57 1385.89 7274.69 1385.94 7274.81 1386C7275.19 1386.17 7275.57 1386.33 7275.95 1386.5C7276.1 1386.56 7276.26 1386.63 7276.41 1386.7C7276.79 1386.86 7277.17 1387.02 7277.55 1387.18C7277.67 1387.23 7277.79 1387.28 7277.91 1387.33C7278.94 1387.75 7279.98 1388.16 7281.03 1388.56C7281.11 1388.58 7281.18 1388.61 7281.26 1388.64C7281.7 1388.81 7282.15 1388.97 7282.59 1389.13C7282.7 1389.17 7282.81 1389.21 7282.92 1389.25C7283.35 1389.4 7283.78 1389.56 7284.22 1389.71C7284.33 1389.74 7284.44 1389.78 7284.55 1389.82C7285.59 1390.18 7286.64 1390.52 7287.7 1390.84C7287.85 1390.89 7287.99 1390.93 7288.14 1390.98C7288.53 1391.1 7288.93 1391.22 7289.33 1391.33C7289.46 1391.37 7289.6 1391.41 7289.73 1391.45C7290.16 1391.57 7290.59 1391.7 7291.02 1391.82C7291.14 1391.85 7291.25 1391.88 7291.37 1391.91C7291.84 1392.04 7292.31 1392.17 7292.79 1392.29C7292.91 1392.32 7293.03 1392.35 7293.16 1392.38C7293.63 1392.5 7294.1 1392.62 7294.57 1392.74C7294.77 1392.79 7294.97 1392.83 7295.17 1392.88C7295.5 1392.96 7295.82 1393.03 7296.14 1393.11C7296.37 1393.16 7296.6 1393.21 7296.83 1393.26C7297.2 1393.34 7297.57 1393.42 7297.95 1393.5C7298.09 1393.53 7298.23 1393.56 7298.37 1393.59C7299.46 1393.82 7300.57 1394.03 7301.68 1394.22C7301.84 1394.25 7302 1394.28 7302.16 1394.31C7302.55 1394.37 7302.94 1394.44 7303.33 1394.5C7303.51 1394.53 7303.7 1394.56 7303.89 1394.59C7304.31 1394.66 7304.73 1394.72 7305.16 1394.79C7305.27 1394.8 7305.39 1394.82 7305.5 1394.83C7306.63 1394.99 7307.76 1395.14 7308.9 1395.27C7309.05 1395.28 7309.2 1395.3 7309.36 1395.32C7309.77 1395.36 7310.18 1395.4 7310.59 1395.44C7310.77 1395.46 7310.96 1395.48 7311.15 1395.5C7311.56 1395.54 7311.97 1395.57 7312.38 1395.6C7312.53 1395.62 7312.69 1395.63 7312.85 1395.64C7313.35 1395.68 7313.86 1395.72 7314.37 1395.75C7314.5 1395.76 7314.62 1395.77 7314.75 1395.78C7315.23 1395.81 7315.71 1395.83 7316.2 1395.86C7316.4 1395.87 7316.6 1395.87 7316.8 1395.88C7317.2 1395.9 7317.6 1395.92 7318 1395.93C7318.18 1395.94 7318.36 1395.94 7318.54 1395.95C7318.92 1395.96 7319.31 1395.97 7319.69 1395.98C7319.9 1395.98 7320.12 1395.98 7320.33 1395.99C7320.88 1396 7321.44 1396 7322 1396C7322.56 1396 7323.12 1396 7323.68 1395.99C7323.89 1395.98 7324.1 1395.98 7324.32 1395.98C7324.7 1395.97 7325.08 1395.96 7325.46 1395.95C7325.65 1395.94 7325.83 1395.94 7326.01 1395.93C7326.4 1395.92 7326.8 1395.9 7327.2 1395.88C7327.4 1395.87 7327.61 1395.87 7327.81 1395.86C7328.28 1395.83 7328.75 1395.81 7329.22 1395.78C7329.37 1395.77 7329.52 1395.76 7329.67 1395.75C7330.16 1395.72 7330.66 1395.68 7331.15 1395.64C7331.31 1395.63 7331.48 1395.62 7331.64 1395.6C7332.05 1395.57 7332.45 1395.54 7332.84 1395.5C7333.04 1395.48 7333.23 1395.46 7333.43 1395.44C7333.83 1395.4 7334.23 1395.36 7334.62 1395.32C7334.79 1395.3 7334.95 1395.28 7335.12 1395.27C7336.25 1395.14 7337.37 1395 7338.49 1394.84C7338.62 1394.82 7338.75 1394.8 7338.88 1394.78C7339.28 1394.72 7339.69 1394.66 7340.1 1394.59C7340.3 1394.56 7340.5 1394.53 7340.7 1394.5C7341.07 1394.44 7341.44 1394.38 7341.81 1394.31C7341.99 1394.28 7342.17 1394.25 7342.34 1394.22C7343.44 1394.03 7344.53 1393.82 7345.62 1393.59C7345.77 1393.56 7345.91 1393.53 7346.06 1393.5C7346.46 1393.42 7346.86 1393.33 7347.27 1393.24C7347.43 1393.2 7347.6 1393.16 7347.77 1393.13C7348.13 1393.05 7348.48 1392.96 7348.84 1392.88C7349.05 1392.83 7349.25 1392.78 7349.46 1392.73C7349.87 1392.63 7350.28 1392.53 7350.69 1392.42C7350.9 1392.37 7351.11 1392.32 7351.32 1392.26C7351.75 1392.15 7352.18 1392.04 7352.61 1391.92C7352.75 1391.88 7352.89 1391.84 7353.03 1391.8C7353.44 1391.69 7353.84 1391.58 7354.24 1391.46C7354.4 1391.41 7354.55 1391.37 7354.71 1391.32C7355.08 1391.22 7355.44 1391.11 7355.8 1391C7355.98 1390.94 7356.15 1390.89 7356.33 1390.84C7357.36 1390.52 7358.4 1390.18 7359.42 1389.83C7359.56 1389.78 7359.7 1389.74 7359.84 1389.69C7360.24 1389.55 7360.64 1389.41 7361.05 1389.26C7361.18 1389.22 7361.31 1389.17 7361.45 1389.12C7361.88 1388.96 7362.31 1388.81 7362.74 1388.64C7362.82 1388.61 7362.89 1388.59 7362.97 1388.56C7364.01 1388.16 7365.05 1387.75 7366.08 1387.33C7366.23 1387.27 7366.38 1387.21 7366.53 1387.15C7366.87 1387 7367.21 1386.86 7367.54 1386.72C7367.73 1386.64 7367.91 1386.56 7368.1 1386.48C7368.43 1386.33 7368.77 1386.18 7369.11 1386.03C7369.27 1385.96 7369.43 1385.89 7369.58 1385.82C7370.58 1385.38 7371.56 1384.91 7372.54 1384.44C7372.65 1384.39 7372.77 1384.33 7372.88 1384.27C7373.26 1384.09 7373.63 1383.9 7374 1383.72C7374.14 1383.65 7374.28 1383.58 7374.41 1383.51C7374.78 1383.32 7375.15 1383.13 7375.52 1382.94C7375.64 1382.88 7375.76 1382.82 7375.88 1382.75C7376.84 1382.25 7377.78 1381.74 7378.71 1381.21C7378.87 1381.13 7379.02 1381.04 7379.17 1380.95C7379.5 1380.77 7379.82 1380.59 7380.13 1380.4C7380.3 1380.31 7380.46 1380.21 7380.63 1380.12C7380.93 1379.94 7381.22 1379.76 7381.52 1379.58C7381.69 1379.48 7381.86 1379.38 7382.03 1379.28C7382.95 1378.72 7383.85 1378.16 7384.75 1377.58C7384.87 1377.5 7384.99 1377.43 7385.1 1377.35C7385.43 1377.14 7385.75 1376.92 7386.08 1376.71C7386.22 1376.61 7386.37 1376.52 7386.51 1376.42C7386.89 1376.17 7387.26 1375.92 7387.63 1375.66C7387.69 1375.62 7387.75 1375.58 7387.82 1375.53C7388.72 1374.91 7389.61 1374.28 7390.49 1373.63C7390.61 1373.54 7390.73 1373.45 7390.86 1373.36C7391.17 1373.13 7391.49 1372.89 7391.8 1372.66C7391.93 1372.56 7392.06 1372.46 7392.19 1372.36C7392.55 1372.09 7392.91 1371.81 7393.26 1371.53C7393.32 1371.49 7393.37 1371.45 7393.43 1371.41C7394.31 1370.72 7395.17 1370.02 7396.03 1369.31C7396.11 1369.24 7396.2 1369.17 7396.28 1369.1C7396.59 1368.84 7396.9 1368.58 7397.21 1368.32C7397.35 1368.2 7397.49 1368.08 7397.63 1367.95C7397.92 1367.71 7398.2 1367.46 7398.49 1367.21C7398.6 1367.11 7398.72 1367.01 7398.84 1366.9C7399.64 1366.19 7400.43 1365.47 7401.22 1364.74C7401.32 1364.64 7401.43 1364.54 7401.53 1364.44C7401.83 1364.16 7402.12 1363.88 7402.42 1363.6C7402.52 1363.5 7402.62 1363.4 7402.72 1363.3C7403.04 1363 7403.34 1362.7 7403.65 1362.39C7403.73 1362.32 7403.81 1362.24 7403.89 1362.16C7404.67 1361.38 7405.44 1360.59 7406.2 1359.79C7406.26 1359.73 7406.31 1359.67 7406.37 1359.61C7406.68 1359.29 7406.98 1358.96 7407.29 1358.62C7407.39 1358.52 7407.49 1358.41 7407.58 1358.3C7407.84 1358.02 7408.1 1357.74 7408.35 1357.46C7408.48 1357.32 7408.6 1357.18 7408.72 1357.04C7409.42 1356.26 7410.1 1355.46 7410.78 1354.66C7410.86 1354.57 7410.94 1354.47 7411.02 1354.38C7411.31 1354.03 7411.6 1353.68 7411.88 1353.33C7411.96 1353.24 7412.04 1353.15 7412.11 1353.05C7412.4 1352.69 7412.69 1352.33 7412.98 1351.97C7413.03 1351.91 7413.08 1351.84 7413.13 1351.78C7413.81 1350.92 7414.48 1350.04 7415.14 1349.16C7415.21 1349.06 7415.28 1348.96 7415.35 1348.87C7415.6 1348.53 7415.85 1348.19 7416.1 1347.85C7416.18 1347.73 7416.27 1347.61 7416.35 1347.49C7416.62 1347.12 7416.89 1346.74 7417.15 1346.36C7417.2 1346.3 7417.24 1346.24 7417.28 1346.18C7417.6 1345.72 7417.92 1345.26 7418.23 1344.8C7418.23 1344.8 7418.23 1344.79 7418.24 1344.79C7420.71 1341.12 7425.57 1339.8 7429.4 1342.01L7464.05 1362.01C7435.69 1411.03 7382.7 1444 7322 1444Z" fill="#F0F0F0" stroke="#F0F0F0" id="n901"/>
<path d="M7322 1468C7255.29 1468 7196.69 1433.25 7163.32 1380.86C7160.95 1377.13 7162.27 1372.22 7166.1 1370.01L7214.6 1342.01C7218.43 1339.8 7223.3 1341.12 7225.76 1344.78C7246.6 1375.68 7281.93 1396 7322 1396C7362.07 1396 7397.4 1375.68 7418.24 1344.78C7420.71 1341.12 7425.57 1339.8 7429.4 1342.01L7477.9 1370.01C7481.73 1372.22 7483.06 1377.13 7480.68 1380.86C7447.31 1433.25 7388.72 1468 7322 1468Z" stroke="#BEBEBE" id="n902"/>
<g mask="url(#mask109_68_6728)" id="n904">
<path d="M7578 1280L7066 1280" stroke="#BEBEBE" stroke-linecap="square" id="n905"/>
<path d="M7322 1536L7322 1024" stroke="#BEBEBE" stroke-linecap="square" id="n906"/>
</g>
<path d="M7322 1396L7322 1280" stroke="#BEBEBE" stroke-linecap="round" id="n907"/>
<rect x="7318" y="1396" width="8" height="72" fill="#BEBEBE" id="n908"/>
<g mask="url(#mask110_68_6728)" id="n910">
<mask id="mask111_68_6728" style="mask-type:alpha" maskUnits="userSpaceOnUse" x="7066" y="1024" width="512" height="512">
<path d="M7322 1088C7428.04 1088 7514 1173.96 7514 1280C7514 1386.04 7428.04 1472 7322 1472C7215.96 1472 7130 1386.04 7130 1280C7130 1173.96 7215.96 1088 7322 1088ZM7322 1112C7229.22 1112 7154 1187.22 7154 1280C7154 1372.78 7229.22 1448 7322 1448C7414.78 1448 7490 1372.78 7490 1280C7490 1187.22 7414.78 1112 7322 1112Z" fill="black" id="n911"/>
</mask>
<g mask="url(#mask111_68_6728)" id="n912">
<path d="M7322 1080V1280M7322 1280L7222 1106.79M7322 1280L7148.79 1180M7322 1280H7122M7322 1280L7148.79 1380M7322 1280L7222 1453.21M7322 1280V1480M7322 1280L7422 1453.21M7322 1280L7495.21 1380M7322 1280H7522M7322 1280L7495.21 1180M7322 1280L7422 1106.79" stroke="#BEBEBE" id="n913"/>
</g>
<mask id="mask112_68_6728" style="mask-type:alpha" maskUnits="userSpaceOnUse" x="7066" y="1024" width="512" height="512">
<path d="M7322 1088C7428.04 1088 7514 1173.96 7514 1280C7514 1386.04 7428.04 1472 7322 1472C7215.96 1472 7130 1386.04 7130 1280C7130 1173.96 7215.96 1088 7322 1088ZM7322 1116C7231.43 1116 7158 1189.43 7158 1280C7158 1370.57 7231.43 1444 7322 1444C7412.57 1444 7486 1370.57 7486 1280C7486 1189.43 7412.57 1116 7322 1116Z" fill="black" id="n914"/>
</mask>
<g mask="url(#mask112_68_6728)" id="n915">
<path d="M7322 1080V1480" stroke="#BEBEBE" id="n916"/>
</g>
</g>
<rect x="7318" y="1396" width="8" height="72" fill="#BEBEBE" stroke="#BEBEBE" id="n917"/>
<path d="M7326.29 1440L7338.59 1281.94C7339.34 1272.26 7331.69 1263.99 7321.98 1263.99C7312.28 1263.99 7304.63 1272.26 7305.38 1281.94L7317.67 1440C7317.85 1442.25 7319.73 1443.99 7321.98 1443.99C7324.24 1443.99 7326.12 1442.25 7326.29 1440Z" fill="#2D548B" stroke="#2D548B" id="n918"/>
<path d="M7312.28 1471.3C7311.87 1470.39 7311.88 1469.22 7312.53 1468.24L7320.34 1456.67C7321.14 1455.49 7322.87 1455.49 7323.66 1456.67L7331.47 1468.24C7332.12 1469.22 7332.13 1470.39 7331.72 1471.3C7331.31 1472.22 7330.41 1473 7329.2 1473L7314.8 1473C7313.59 1473 7312.7 1472.22 7312.28 1471.3Z" fill="#2D548B" stroke="white" stroke-width="2" stroke-linejoin="round" id="n919"/>
</g>
</svg>
