<?xml version='1.0' encoding='utf-8'?>
<svg xmlns="http://www.w3.org/2000/svg" xmlns:xlink="http://www.w3.org/1999/xlink" width="88.0" height="185.0" viewBox="0 0 88.0 185.0" fill="none">
  <defs><clipPath id="clip__asset"><rect x="0" y="0" width="88.0" height="185.0"/></clipPath><mask id="mask9_68_6728" style="mask-type:alpha" maskUnits="userSpaceOnUse" x="545" y="220" width="48" height="48">
<path fill-rule="evenodd" clip-rule="evenodd" d="M569 260C577.837 260 585 252.837 585 244C585 235.163 577.837 228 569 228C560.163 228 553 235.163 553 244C553 252.837 560.163 260 569 260ZM569 258C576.732 258 583 251.732 583 244C583 236.268 576.732 230 569 230C561.268 230 555 236.268 555 244C555 251.732 561.268 258 569 258Z" fill="white" id="n74"/>
</mask>
<mask id="mask10_68_6728" style="mask-type:alpha" maskUnits="userSpaceOnUse" x="531" y="206" width="76" height="76">
<path fill-rule="evenodd" clip-rule="evenodd" d="M569 262C578.941 262 587 253.941 587 244C587 234.059 578.941 226 569 226C559.059 226 551 234.059 551 244C551 253.941 559.059 262 569 262ZM569 256C575.627 256 581 250.627 581 244C581 237.373 575.627 232 569 232C562.373 232 557 237.373 557 244C557 250.627 562.373 256 569 256Z" fill="white" id="n77"/>
</mask>
</defs>
  <g clip-path="url(#clip__asset)" transform="translate(-525.0 -200.0)"><path d="M603.667 200V200.5H609C610.933 200.5 612.5 202.067 612.5 204V208.917H613V213.833H612.5V223.667H613V228.583H612.5V238.417H613V243.333H612.5V253.167H613V258.083H612.5V267.917H613V272.833H612.5V282.667H613V287.583H612.5V297.417H613V302.333H612.5V312.167H613V317.083H612.5V326.917H613V331.833H612.5V341.667H613V346.583H612.5V356.417H613V361.333H612.5V371.167H613V376.083H612.5V381C612.5 382.933 610.933 384.5 609 384.5H603.667V385H598.333V384.5H587.667V385H582.333V384.5H571.667V385H566.333V384.5H555.667V385H550.333V384.5H539.667V385H534.333V384.5H529C527.067 384.5 525.5 382.933 525.5 381V376.083H525V371.167H525.5V361.333H525V356.417H525.5V346.583H525V341.667H525.5V331.833H525V326.917H525.5V317.083H525V312.167H525.5V302.333H525V297.417H525.5V287.583H525V282.667H525.5V272.833H525V267.917H525.5V258.083H525V253.167H525.5V243.333H525V238.417H525.5V228.583H525V223.667H525.5V213.833H525V208.917H525.5V204C525.5 202.067 527.067 200.5 529 200.5H534.333V200H539.667V200.5H550.333V200H555.667V200.5H566.333V200H571.667V200.5H582.333V200H587.667V200.5H598.333V200H603.667Z" fill="#F7F7F7" id="n70"/>
<path d="M568.593 221.57L564.565 227.209C564.328 227.54 564.565 228 564.972 228H573.028C573.435 228 573.672 227.54 573.435 227.209L569.407 221.57C569.207 221.29 568.793 221.29 568.593 221.57Z" fill="#BEBEBE" id="n72"/>
<circle cx="569" cy="244" r="18" fill="white" stroke="#BEBEBE" id="n73"/>
<g mask="url(#mask9_68_6728)" id="n75">
<path d="M569 220V244M569 244L564.832 220.365M569 244L560.792 221.447M569 244L557 223.215M569 244L553.573 225.615M569 244L550.615 228.573M569 244L548.215 232M569 244L546.447 235.792M569 244L545.365 239.832M569 244H545M569 244L545.365 248.168M569 244L546.447 252.209M569 244L548.215 256M569 244L550.615 259.427M569 244L553.573 262.385M569 244L557 264.785M569 244L560.791 266.553M569 244L564.832 267.635M569 244V268M569 244L573.168 267.635M569 244L577.209 266.553M569 244L581 264.785M569 244L584.427 262.385M569 244L587.385 259.427M569 244L589.785 256M569 244L591.553 252.208M569 244L592.635 248.168M569 244H593M569 244L592.635 239.832M569 244L591.553 235.792M569 244L589.785 232M569 244L587.385 228.573M569 244L584.427 225.615M569 244L581 223.215M569 244L577.208 221.447M569 244L573.168 220.365" stroke="#BEBEBE" id="n76"/>
</g>
<g mask="url(#mask10_68_6728)" id="n78">
<path d="M569 220V244M569 244H545M569 244V268M569 244H593" stroke="#BEBEBE" id="n79"/>
</g>
<path d="M568.43 228.484C568.684 228.061 569.316 228.061 569.57 228.484L569.618 228.582L572.104 234.692C572.417 235.461 571.557 236.109 570.897 235.713V235.712L568.999 234.582L567.101 235.712L567.102 235.713C566.442 236.109 565.583 235.461 565.896 234.692L568.381 228.582L568.43 228.484Z" fill="#2D548B" stroke="#F7F7F7" id="n80"/>
<path d="M569 232L569 244" stroke="#2D548B" stroke-width="2" stroke-linecap="round" id="n81"/>
<path d="M569 244L569 258" stroke="#2D548B" stroke-linecap="round" id="n82"/>
<circle cx="569" cy="244" r="1" fill="white" stroke="#2D548B" stroke-width="2" id="n83"/>
<path d="M583 300C584.105 300 585 300.895 585 302L585 330C585 331.105 584.105 332 583 332H555C553.895 332 553 331.105 553 330L553 302C553 300.895 553.895 300 555 300L583 300Z" fill="white" stroke="#BEBEBE" id="n84"/>
<path d="M569 300V332" stroke="#BEBEBE" id="n85"/>
<path d="M563 300V325" stroke="#2D548B" stroke-width="2" id="n86"/>
<path d="M583 300C584.105 300 585 300.895 585 302L585 330C585 331.105 584.105 332 583 332H555C553.895 332 553 331.105 553 330L553 302C553 300.895 553.895 300 555 300L583 300Z" stroke="#BEBEBE" id="n87"/>
<path d="M562.358 318.857C562.645 318.381 563.355 318.381 563.642 318.857L563.696 318.967L567.426 328.132C567.798 329.048 566.773 329.832 565.976 329.354V329.353L563 327.581L560.023 329.353L560.024 329.354C559.227 329.832 558.202 329.048 558.574 328.132L562.304 318.967L562.358 318.857Z" fill="#2D548B" stroke="#F7F7F7" id="n88"/>
</g>
</svg>
