<?xml version='1.0' encoding='utf-8'?>
<svg xmlns="http://www.w3.org/2000/svg" xmlns:xlink="http://www.w3.org/1999/xlink" width="384.0" height="88.0" viewBox="0 0 384.0 88.0" fill="none">
  <defs><clipPath id="clip__asset"><rect x="0" y="0" width="384.0" height="88.0"/></clipPath><mask id="mask126_68_6728" style="mask-type:luminance" maskUnits="userSpaceOnUse" x="2568" y="1320" width="512" height="26">
<path d="M2656 1332.2C2656 1336.68 2656 1338.92 2656.87 1340.63C2657.64 1342.14 2658.86 1343.36 2660.37 1344.13C2662.08 1345 2664.32 1345 2668.8 1345H2979.2C2983.68 1345 2985.92 1345 2987.63 1344.13C2989.14 1343.36 2990.36 1342.14 2991.13 1340.63C2992 1338.92 2992 1336.68 2992 1332.2V1321H2656V1332.2Z" fill="white" stroke="black" id="n811"/>
</mask>
<mask id="mask127_68_6728" style="mask-type:alpha" maskUnits="userSpaceOnUse" x="2568" y="1272" width="512" height="50">
<path d="M2656 1321H2992V1285.8C2992 1281.32 2992 1279.08 2991.13 1277.37C2990.36 1275.86 2989.14 1274.64 2987.63 1273.87C2985.92 1273 2983.68 1273 2979.2 1273H2668.8C2664.32 1273 2662.08 1273 2660.37 1273.87C2658.86 1274.64 2657.64 1275.86 2656.87 1277.37C2656 1279.08 2656 1281.32 2656 1285.8V1321Z" fill="white" stroke="black" id="n818"/>
</mask>
</defs>
  <g clip-path="url(#clip__asset)" transform="translate(-2632.0 -1265.0)"><path d="M2656 1332.2C2656 1336.68 2656 1338.92 2656.87 1340.63C2657.64 1342.14 2658.86 1343.36 2660.37 1344.13C2662.08 1345 2664.32 1345 2668.8 1345H2979.2C2983.68 1345 2985.92 1345 2987.63 1344.13C2989.14 1343.36 2990.36 1342.14 2991.13 1340.63C2992 1338.92 2992 1336.68 2992 1332.2V1285.8C2992 1281.32 2992 1279.08 2991.13 1277.37C2990.36 1275.86 2989.14 1274.64 2987.63 1273.87C2985.92 1273 2983.68 1273 2979.2 1273H2668.8C2664.32 1273 2662.08 1273 2660.37 1273.87C2658.86 1274.64 2657.64 1275.86 2656.87 1277.37C2656 1279.08 2656 1281.32 2656 1285.8V1332.2Z" fill="white" stroke="white" id="n808"/>
<path d="M2656 1321H2992V1285.8C2992 1281.32 2992 1279.08 2991.13 1277.37C2990.36 1275.86 2989.14 1274.64 2987.63 1273.87C2985.92 1273 2983.68 1273 2979.2 1273H2668.8C2664.32 1273 2662.08 1273 2660.37 1273.87C2658.86 1274.64 2657.64 1275.86 2656.87 1277.37C2656 1279.08 2656 1281.32 2656 1285.8V1321Z" fill="#F0F0F0" stroke="#F0F0F0" id="n809"/>
<path d="M2656 1332.2C2656 1336.68 2656 1338.92 2656.87 1340.63C2657.64 1342.14 2658.86 1343.36 2660.37 1344.13C2662.08 1345 2664.32 1345 2668.8 1345H2979.2C2983.68 1345 2985.92 1345 2987.63 1344.13C2989.14 1343.36 2990.36 1342.14 2991.13 1340.63C2992 1338.92 2992 1336.68 2992 1332.2V1285.8C2992 1281.32 2992 1279.08 2991.13 1277.37C2990.36 1275.86 2989.14 1274.64 2987.63 1273.87C2985.92 1273 2983.68 1273 2979.2 1273H2668.8C2664.32 1273 2662.08 1273 2660.37 1273.87C2658.86 1274.64 2657.64 1275.86 2656.87 1277.37C2656 1279.08 2656 1281.32 2656 1285.8V1332.2Z" stroke="#BEBEBE" id="n810"/>
<g mask="url(#mask126_68_6728)" id="n812">
<path d="M2824 1333L2824 1325M2790.4 1333L2790.4 1325M2756.8 1333L2756.8 1325M2723.2 1333L2723.2 1325M2689.6 1333L2689.6 1325M2656 1333L2656 1325M2857.6 1333L2857.6 1325M2891.2 1333L2891.2 1325M2924.8 1333L2924.8 1325M2958.4 1333L2958.4 1325M2992 1333L2992 1325" stroke="#BEBEBE" id="n813"/>
<path d="M2824 1349L2824 1325M2656 1349L2656 1325M2992 1349L2992 1325" stroke="#BEBEBE" id="n814"/>
</g>
<g mask="url(#mask127_68_6728)" id="n819">
<rect x="2908" y="1273" width="48" height="252" transform="rotate(90 2908 1273)" fill="#BEBEBE" stroke="#BEBEBE" id="n820"/>
<rect x="2912.44" y="1273" width="48" height="8" rx="4" transform="rotate(90 2912.44 1273)" fill="#535353" stroke="#BEBEBE" id="n821"/>
</g>
<path d="M2917.26 1340.1C2917.61 1339.32 2917.6 1338.34 2917.05 1337.52L2909.24 1325.95C2908.64 1325.07 2907.35 1325.07 2906.75 1325.95L2898.94 1337.52C2898.39 1338.34 2898.38 1339.32 2898.73 1340.1C2899.08 1340.88 2899.82 1341.5 2900.8 1341.5L2915.19 1341.5C2916.17 1341.5 2916.91 1340.88 2917.26 1340.1Z" fill="#535353" stroke="white" stroke-linejoin="round" id="n822"/>
</g>
</svg>
