<?xml version='1.0' encoding='utf-8'?>
<svg xmlns="http://www.w3.org/2000/svg" xmlns:xlink="http://www.w3.org/1999/xlink" width="384.0" height="88.0" viewBox="0 0 384.0 88.0" fill="none">
  <defs><clipPath id="clip__asset"><rect x="0" y="0" width="384.0" height="88.0"/></clipPath><mask id="mask144_68_6728" style="mask-type:luminance" maskUnits="userSpaceOnUse" x="4008" y="623" width="512" height="26">
<path d="M4096 636.8C4096 632.32 4096 630.079 4096.87 628.368C4097.64 626.863 4098.86 625.639 4100.37 624.872C4102.08 624 4104.32 624 4108.8 624H4419.2C4423.68 624 4425.92 624 4427.63 624.872C4429.14 625.639 4430.36 626.863 4431.13 628.368C4432 630.079 4432 632.32 4432 636.8V648H4096V636.8Z" fill="white" stroke="black" id="n967"/>
</mask>
<mask id="mask145_68_6728" style="mask-type:alpha" maskUnits="userSpaceOnUse" x="4008" y="647" width="512" height="50">
<path d="M4096 648H4432V683.2C4432 687.68 4432 689.921 4431.13 691.632C4430.36 693.137 4429.14 694.361 4427.63 695.128C4425.92 696 4423.68 696 4419.2 696H4108.8C4104.32 696 4102.08 696 4100.37 695.128C4098.86 694.361 4097.64 693.137 4096.87 691.632C4096 689.921 4096 687.68 4096 683.2V648Z" fill="white" stroke="black" id="n977"/>
</mask>
</defs>
  <g clip-path="url(#clip__asset)" transform="translate(-4072.0 -616.0)"><path d="M4096 636.8C4096 632.32 4096 630.079 4096.87 628.368C4097.64 626.863 4098.86 625.639 4100.37 624.872C4102.08 624 4104.32 624 4108.8 624H4419.2C4423.68 624 4425.92 624 4427.63 624.872C4429.14 625.639 4430.36 626.863 4431.13 628.368C4432 630.079 4432 632.32 4432 636.8V683.2C4432 687.68 4432 689.921 4431.13 691.632C4430.36 693.137 4429.14 694.361 4427.63 695.128C4425.92 696 4423.68 696 4419.2 696H4108.8C4104.32 696 4102.08 696 4100.37 695.128C4098.86 694.361 4097.64 693.137 4096.87 691.632C4096 689.921 4096 687.68 4096 683.2V636.8Z" fill="white" stroke="white" id="n963"/>
<path d="M4096 648H4432V683.2C4432 687.68 4432 689.921 4431.13 691.632C4430.36 693.137 4429.14 694.361 4427.63 695.128C4425.92 696 4423.68 696 4419.2 696H4108.8C4104.32 696 4102.08 696 4100.37 695.128C4098.86 694.361 4097.64 693.137 4096.87 691.632C4096 689.921 4096 687.68 4096 683.2V648Z" fill="#F0F0F0" stroke="#F0F0F0" id="n964"/>
<path d="M4096 636.8C4096 632.32 4096 630.079 4096.87 628.368C4097.64 626.863 4098.86 625.639 4100.37 624.872C4102.08 624 4104.32 624 4108.8 624H4419.2C4423.68 624 4425.92 624 4427.63 624.872C4429.14 625.639 4430.36 626.863 4431.13 628.368C4432 630.079 4432 632.32 4432 636.8V683.2C4432 687.68 4432 689.921 4431.13 691.632C4430.36 693.137 4429.14 694.361 4427.63 695.128C4425.92 696 4423.68 696 4419.2 696H4108.8C4104.32 696 4102.08 696 4100.37 695.128C4098.86 694.361 4097.64 693.137 4096.87 691.632C4096 689.921 4096 687.68 4096 683.2V636.8Z" stroke="#BEBEBE" id="n965"/>
<path d="M4264 624V696" stroke="#BEBEBE" stroke-linecap="square" id="n966"/>
<g mask="url(#mask144_68_6728)" id="n968">
<path d="M4264 636V644M4280.8 636V644M4297.6 636V644M4314.4 636V644M4331.2 636V644M4348 636V644M4364.8 636V644M4381.6 636V644M4398.4 636V644M4415.2 636V644M4432 636V644M4247.2 636V644M4230.4 636V644M4213.6 636V644M4196.8 636V644M4180 636V644M4163.2 636V644M4146.4 636V644M4129.6 636V644M4112.8 636V644M4096 636V644" stroke="#BEBEBE" id="n969"/>
<path d="M4264 620V644M4348 620V644M4432 620V644M4180 620V644M4096 620V644" stroke="#BEBEBE" id="n970"/>
<path d="M4264 620V648" stroke="#BEBEBE" id="n971"/>
</g>
<g mask="url(#mask145_68_6728)" id="n978">
<rect x="4348" y="648" width="48" height="84" transform="rotate(90 4348 648)" fill="#2D548B" stroke="#2D548B" id="n979"/>
</g>
<path d="M4357.26 628.9C4357.61 629.677 4357.6 630.663 4357.05 631.479L4349.24 643.051C4348.64 643.932 4347.35 643.932 4346.75 643.051L4338.94 631.479C4338.39 630.663 4338.38 629.677 4338.73 628.9C4339.08 628.123 4339.82 627.5 4340.8 627.5L4355.19 627.5C4356.17 627.5 4356.91 628.123 4357.26 628.9Z" fill="#2D548B" stroke="white" stroke-linejoin="round" id="n980"/>
</g>
</svg>
