<?xml version='1.0' encoding='utf-8'?>
<svg xmlns="http://www.w3.org/2000/svg" xmlns:xlink="http://www.w3.org/1999/xlink" width="384.0" height="88.0" viewBox="0 0 384.0 88.0" fill="none">
  <defs><clipPath id="clip__asset"><rect x="0" y="0" width="384.0" height="88.0"/></clipPath><mask id="mask150_68_6728" style="mask-type:luminance" maskUnits="userSpaceOnUse" x="3528" y="1056" width="512" height="26">
<path d="M3616 1069.8C3616 1065.32 3616 1063.08 3616.87 1061.37C3617.64 1059.86 3618.86 1058.64 3620.37 1057.87C3622.08 1057 3624.32 1057 3628.8 1057H3939.2C3943.68 1057 3945.92 1057 3947.63 1057.87C3949.14 1058.64 3950.36 1059.86 3951.13 1061.37C3952 1063.08 3952 1065.32 3952 1069.8V1081H3616V1069.8Z" fill="white" stroke="black" id="n1017"/>
</mask>
<mask id="mask151_68_6728" style="mask-type:alpha" maskUnits="userSpaceOnUse" x="3528" y="1080" width="512" height="50">
<path d="M3616 1081H3952V1116.2C3952 1120.68 3952 1122.92 3951.13 1124.63C3950.36 1126.14 3949.14 1127.36 3947.63 1128.13C3945.92 1129 3943.68 1129 3939.2 1129H3628.8C3624.32 1129 3622.08 1129 3620.37 1128.13C3618.86 1127.36 3617.64 1126.14 3616.87 1124.63C3616 1122.92 3616 1120.68 3616 1116.2V1081Z" fill="white" stroke="black" id="n1024"/>
</mask>
</defs>
  <g clip-path="url(#clip__asset)" transform="translate(-3592.0 -1049.0)"><path d="M3616 1069.8C3616 1065.32 3616 1063.08 3616.87 1061.37C3617.64 1059.86 3618.86 1058.64 3620.37 1057.87C3622.08 1057 3624.32 1057 3628.8 1057H3939.2C3943.68 1057 3945.92 1057 3947.63 1057.87C3949.14 1058.64 3950.36 1059.86 3951.13 1061.37C3952 1063.08 3952 1065.32 3952 1069.8V1116.2C3952 1120.68 3952 1122.92 3951.13 1124.63C3950.36 1126.14 3949.14 1127.36 3947.63 1128.13C3945.92 1129 3943.68 1129 3939.2 1129H3628.8C3624.32 1129 3622.08 1129 3620.37 1128.13C3618.86 1127.36 3617.64 1126.14 3616.87 1124.63C3616 1122.92 3616 1120.68 3616 1116.2V1069.8Z" fill="white" stroke="white" id="n1014"/>
<path d="M3616 1081H3952V1116.2C3952 1120.68 3952 1122.92 3951.13 1124.63C3950.36 1126.14 3949.14 1127.36 3947.63 1128.13C3945.92 1129 3943.68 1129 3939.2 1129H3628.8C3624.32 1129 3622.08 1129 3620.37 1128.13C3618.86 1127.36 3617.64 1126.14 3616.87 1124.63C3616 1122.92 3616 1120.68 3616 1116.2V1081Z" fill="#F0F0F0" stroke="#F0F0F0" id="n1015"/>
<path d="M3616 1069.8C3616 1065.32 3616 1063.08 3616.87 1061.37C3617.64 1059.86 3618.86 1058.64 3620.37 1057.87C3622.08 1057 3624.32 1057 3628.8 1057H3939.2C3943.68 1057 3945.92 1057 3947.63 1057.87C3949.14 1058.64 3950.36 1059.86 3951.13 1061.37C3952 1063.08 3952 1065.32 3952 1069.8V1116.2C3952 1120.68 3952 1122.92 3951.13 1124.63C3950.36 1126.14 3949.14 1127.36 3947.63 1128.13C3945.92 1129 3943.68 1129 3939.2 1129H3628.8C3624.32 1129 3622.08 1129 3620.37 1128.13C3618.86 1127.36 3617.64 1126.14 3616.87 1124.63C3616 1122.92 3616 1120.68 3616 1116.2V1069.8Z" stroke="#BEBEBE" id="n1016"/>
<g mask="url(#mask150_68_6728)" id="n1018">
<path d="M3784 1069V1077M3817.6 1069V1077M3851.2 1069V1077M3884.8 1069V1077M3918.4 1069V1077M3952 1069V1077M3750.4 1069V1077M3716.8 1069V1077M3683.2 1069V1077M3649.6 1069V1077M3616 1069V1077" stroke="#BEBEBE" id="n1019"/>
<path d="M3784 1053V1077M3952 1053V1077M3616 1053V1077" stroke="#BEBEBE" id="n1020"/>
</g>
<g mask="url(#mask151_68_6728)" id="n1025">
<rect x="3868" y="1081" width="48" height="252" transform="rotate(90 3868 1081)" fill="#9CC1F5" stroke="#9CC1F5" id="n1026"/>
<rect x="3872.44" y="1081" width="48" height="8" rx="4" transform="rotate(90 3872.44 1081)" fill="#2D548B" stroke="#9CC1F5" id="n1027"/>
</g>
<path d="M3877.26 1061.9C3877.61 1062.68 3877.6 1063.66 3877.05 1064.48L3869.24 1076.05C3868.64 1076.93 3867.35 1076.93 3866.75 1076.05L3858.94 1064.48C3858.39 1063.66 3858.38 1062.68 3858.73 1061.9C3859.08 1061.12 3859.82 1060.5 3860.8 1060.5L3875.19 1060.5C3876.17 1060.5 3876.91 1061.12 3877.26 1061.9Z" fill="#2D548B" stroke="white" stroke-linejoin="round" id="n1028"/>
</g>
</svg>
