<?xml version='1.0' encoding='utf-8'?>
<svg xmlns="http://www.w3.org/2000/svg" xmlns:xlink="http://www.w3.org/1999/xlink" width="512.0" height="512.0" viewBox="0 0 512.0 512.0" fill="none">
  <defs><clipPath id="clip__asset"><rect x="0" y="0" width="512.0" height="512.0"/></clipPath><mask id="path-31-inside-6_68_6728" fill="white">
<path d="M1376.86 389.516C1378.81 388.393 1381.3 389.086 1382.33 391.079C1394.9 415.306 1402 442.823 1402 471.999C1402 569.201 1323.2 647.999 1226 647.999C1128.8 647.999 1050 569.201 1050 471.999C1050 442.823 1057.1 415.306 1069.67 391.079C1070.7 389.086 1073.19 388.393 1075.13 389.516C1077.02 390.603 1077.68 392.993 1076.69 394.925C1064.74 418.009 1058 444.216 1058 471.999C1058 564.783 1133.22 639.999 1226 639.999C1318.78 639.999 1394 564.783 1394 471.999C1394 444.216 1387.25 418.009 1375.31 394.925C1374.31 392.993 1374.98 390.603 1376.86 389.516ZM1101.65 353.303C1103.18 354.84 1103.21 357.318 1101.75 358.925C1095.43 365.857 1089.7 373.32 1084.6 381.238C1083.43 383.065 1081.03 383.681 1079.15 382.594C1077.2 381.47 1076.56 378.961 1077.77 377.069C1083.17 368.663 1089.26 360.747 1095.96 353.4C1097.47 351.742 1100.06 351.716 1101.65 353.303ZM1350.35 353.302C1351.94 351.715 1354.53 351.741 1356.04 353.4C1362.74 360.746 1368.83 368.663 1374.23 377.068C1375.44 378.96 1374.8 381.47 1372.85 382.594C1370.97 383.68 1368.57 383.065 1367.4 381.238C1362.3 373.32 1356.56 365.857 1350.25 358.925C1348.79 357.318 1348.82 354.839 1350.35 353.302Z" id="n40"/>
</mask>
<mask id="mask3_68_6728" style="mask-type:alpha" maskUnits="userSpaceOnUse" x="970" y="216" width="512" height="512">
<mask id="path-33-inside-7_68_6728" fill="white">
<path d="M1376.86 389.516C1378.81 388.393 1381.3 389.086 1382.33 391.079C1394.9 415.306 1402 442.823 1402 471.999C1402 569.201 1323.2 647.999 1226 647.999C1128.8 647.999 1050 569.201 1050 471.999C1050 442.823 1057.1 415.306 1069.67 391.079C1070.7 389.086 1073.19 388.393 1075.13 389.516C1077.02 390.603 1077.68 392.993 1076.69 394.925C1064.74 418.009 1058 444.217 1058 471.999C1058 564.783 1133.22 639.999 1226 639.999C1318.78 639.999 1394 564.783 1394 471.999C1394 444.216 1387.25 418.009 1375.31 394.925C1374.31 392.993 1374.98 390.603 1376.86 389.516ZM1101.65 353.303C1103.18 354.84 1103.21 357.319 1101.75 358.926C1095.43 365.858 1089.7 373.32 1084.6 381.238C1083.43 383.065 1081.03 383.681 1079.15 382.594C1077.2 381.47 1076.56 378.961 1077.77 377.069C1083.16 368.664 1089.25 360.747 1095.96 353.4C1097.47 351.742 1100.06 351.715 1101.65 353.303ZM1350.35 353.302C1351.94 351.714 1354.53 351.741 1356.04 353.399C1362.74 360.746 1368.83 368.663 1374.23 377.068C1375.44 378.96 1374.8 381.47 1372.85 382.594C1370.97 383.68 1368.57 383.065 1367.4 381.238C1362.3 373.32 1356.56 365.857 1350.25 358.925C1348.79 357.318 1348.81 354.839 1350.35 353.302Z" id="n43"/>
</mask>
<path d="M1376.86 389.516C1378.81 388.393 1381.3 389.086 1382.33 391.079C1394.9 415.306 1402 442.823 1402 471.999C1402 569.201 1323.2 647.999 1226 647.999C1128.8 647.999 1050 569.201 1050 471.999C1050 442.823 1057.1 415.306 1069.67 391.079C1070.7 389.086 1073.19 388.393 1075.13 389.516C1077.02 390.603 1077.68 392.993 1076.69 394.925C1064.74 418.009 1058 444.217 1058 471.999C1058 564.783 1133.22 639.999 1226 639.999C1318.78 639.999 1394 564.783 1394 471.999C1394 444.216 1387.25 418.009 1375.31 394.925C1374.31 392.993 1374.98 390.603 1376.86 389.516ZM1101.65 353.303C1103.18 354.84 1103.21 357.319 1101.75 358.926C1095.43 365.858 1089.7 373.32 1084.6 381.238C1083.43 383.065 1081.03 383.681 1079.15 382.594C1077.2 381.47 1076.56 378.961 1077.77 377.069C1083.16 368.664 1089.25 360.747 1095.96 353.4C1097.47 351.742 1100.06 351.715 1101.65 353.303ZM1350.35 353.302C1351.94 351.714 1354.53 351.741 1356.04 353.399C1362.74 360.746 1368.83 368.663 1374.23 377.068C1375.44 378.96 1374.8 381.47 1372.85 382.594C1370.97 383.68 1368.57 383.065 1367.4 381.238C1362.3 373.32 1356.56 365.857 1350.25 358.925C1348.79 357.318 1348.81 354.839 1350.35 353.302Z" fill="#2D548B" id="n44"/>
<path d="M1402 471.999H1403V471.999H1402ZM1050 471.999H1049V471.999H1050ZM1058 471.999H1057V471.999H1058ZM1394 471.999H1395V471.999H1394ZM1350.25 358.925L1350.99 358.251L1350.25 358.925ZM1350.35 353.302L1349.64 352.595L1350.35 353.302ZM1356.04 353.399L1355.3 354.073L1356.04 353.399ZM1101.65 353.303L1100.94 354.01L1101.65 353.303ZM1079.15 382.594L1078.65 383.461L1079.15 382.594ZM1077.77 377.069L1076.93 376.529L1077.77 377.069ZM1375.31 394.925L1376.2 394.465L1375.31 394.925ZM1376.86 389.516L1377.36 390.382L1376.86 389.516ZM1374.23 377.068L1375.07 376.528L1374.23 377.068ZM1372.85 382.594L1372.35 381.728L1372.85 382.594ZM1069.67 391.079L1068.78 390.619L1069.67 391.079ZM1075.13 389.516L1074.63 390.382L1075.13 389.516ZM1101.75 358.926L1101.01 358.252L1101.75 358.926ZM1367.4 381.238L1368.24 380.697L1367.4 381.238ZM1076.69 394.925L1077.57 395.384L1076.69 394.925ZM1084.6 381.238L1085.44 381.779L1084.6 381.238ZM1382.33 391.079L1381.45 391.539L1382.33 391.079ZM1382.33 391.079L1381.45 391.539C1393.94 415.627 1401 442.987 1401 471.999H1402H1403C1403 442.659 1395.86 414.984 1383.22 390.619L1382.33 391.079ZM1402 471.999H1401C1401 568.649 1322.65 646.999 1226 646.999V647.999V648.999C1323.75 648.999 1403 569.753 1403 471.999H1402ZM1226 647.999V646.999C1129.35 646.999 1051 568.649 1051 471.999H1050H1049C1049 569.753 1128.25 648.999 1226 648.999V647.999ZM1050 471.999H1051C1051 442.987 1058.06 415.627 1070.55 391.539L1069.67 391.079L1068.78 390.619C1056.14 414.984 1049 442.659 1049 471.999H1050ZM1076.69 394.925L1075.8 394.465C1063.78 417.688 1057 444.053 1057 471.999H1058H1059C1059 444.38 1065.7 418.33 1077.57 395.384L1076.69 394.925ZM1058 471.999H1057C1057 565.335 1132.66 640.999 1226 640.999V639.999V638.999C1133.77 638.999 1059 564.23 1059 471.999H1058ZM1226 639.999V640.999C1319.34 640.999 1395 565.335 1395 471.999H1394H1393C1393 564.23 1318.23 638.999 1226 638.999V639.999ZM1394 471.999H1395C1395 444.053 1388.21 417.689 1376.2 394.465L1375.31 394.925L1374.43 395.384C1386.29 418.33 1393 444.38 1393 471.999H1394ZM1101.75 358.926L1101.01 358.252C1094.66 365.225 1088.89 372.732 1083.76 380.697L1084.6 381.238L1085.44 381.779C1090.51 373.908 1096.21 366.49 1102.49 359.599L1101.75 358.926ZM1077.77 377.069L1078.61 377.609C1083.98 369.251 1090.03 361.379 1096.7 354.074L1095.96 353.4L1095.22 352.726C1088.48 360.114 1082.35 368.076 1076.93 376.529L1077.77 377.069ZM1356.04 353.399L1355.3 354.073C1361.97 361.379 1368.02 369.25 1373.39 377.608L1374.23 377.068L1375.07 376.528C1369.64 368.075 1363.52 360.113 1356.78 352.725L1356.04 353.399ZM1367.4 381.238L1368.24 380.697C1363.11 372.732 1357.34 365.225 1350.99 358.251L1350.25 358.925L1349.51 359.598C1355.79 366.489 1361.49 373.908 1366.55 381.778L1367.4 381.238ZM1350.25 358.925L1350.99 358.251C1349.88 357.028 1349.91 355.158 1351.06 354.009L1350.35 353.302L1349.64 352.595C1347.72 354.519 1347.7 357.607 1349.51 359.598L1350.25 358.925ZM1356.04 353.399L1356.78 352.725C1354.87 350.634 1351.62 350.615 1349.64 352.595L1350.35 353.302L1351.06 354.009C1352.25 352.814 1354.18 352.847 1355.3 354.073L1356.04 353.399ZM1095.96 353.4L1096.7 354.074C1097.82 352.848 1099.74 352.815 1100.94 354.01L1101.65 353.303L1102.35 352.596C1100.37 350.616 1097.13 350.635 1095.22 352.726L1095.96 353.4ZM1079.15 382.594L1079.65 381.728C1078.18 380.882 1077.71 379.008 1078.61 377.609L1077.77 377.069L1076.93 376.529C1075.4 378.915 1076.22 382.059 1078.65 383.461L1079.15 382.594ZM1375.31 394.925L1376.2 394.465C1375.44 392.995 1375.96 391.195 1377.36 390.382L1376.86 389.516L1376.36 388.65C1374.01 390.012 1373.19 392.991 1374.43 395.384L1375.31 394.925ZM1374.23 377.068L1373.39 377.608C1374.28 379.007 1373.82 380.881 1372.35 381.728L1372.85 382.594L1373.35 383.46C1375.78 382.058 1376.6 378.914 1375.07 376.528L1374.23 377.068ZM1069.67 391.079L1070.55 391.539C1071.32 390.066 1073.17 389.536 1074.63 390.382L1075.13 389.516L1075.63 388.65C1073.21 387.25 1070.08 388.106 1068.78 390.619L1069.67 391.079ZM1101.75 358.926L1102.49 359.599C1104.3 357.608 1104.28 354.52 1102.35 352.596L1101.65 353.303L1100.94 354.01C1102.09 355.159 1102.12 357.029 1101.01 358.252L1101.75 358.926ZM1372.85 382.594L1372.35 381.728C1370.95 382.54 1369.13 382.088 1368.24 380.697L1367.4 381.238L1366.55 381.778C1368.01 384.042 1371 384.82 1373.35 383.46L1372.85 382.594ZM1075.13 389.516L1074.63 390.382C1076.04 391.195 1076.56 392.995 1075.8 394.465L1076.69 394.925L1077.57 395.384C1078.81 392.991 1077.99 390.012 1075.63 388.65L1075.13 389.516ZM1084.6 381.238L1083.76 380.697C1082.87 382.088 1081.05 382.54 1079.65 381.728L1079.15 382.594L1078.65 383.461C1081 384.821 1083.99 384.042 1085.44 381.779L1084.6 381.238ZM1382.33 391.079L1383.22 390.619C1381.92 388.106 1378.79 387.25 1376.36 388.65L1376.86 389.516L1377.36 390.382C1378.83 389.536 1380.68 390.066 1381.45 391.539L1382.33 391.079Z" fill="#2D548B" mask="url(#path-33-inside-7_68_6728)" id="n45"/>
</mask>
<mask id="path-33-inside-7_68_6728" fill="white">
<path d="M1376.86 389.516C1378.81 388.393 1381.3 389.086 1382.33 391.079C1394.9 415.306 1402 442.823 1402 471.999C1402 569.201 1323.2 647.999 1226 647.999C1128.8 647.999 1050 569.201 1050 471.999C1050 442.823 1057.1 415.306 1069.67 391.079C1070.7 389.086 1073.19 388.393 1075.13 389.516C1077.02 390.603 1077.68 392.993 1076.69 394.925C1064.74 418.009 1058 444.217 1058 471.999C1058 564.783 1133.22 639.999 1226 639.999C1318.78 639.999 1394 564.783 1394 471.999C1394 444.216 1387.25 418.009 1375.31 394.925C1374.31 392.993 1374.98 390.603 1376.86 389.516ZM1101.65 353.303C1103.18 354.84 1103.21 357.319 1101.75 358.926C1095.43 365.858 1089.7 373.32 1084.6 381.238C1083.43 383.065 1081.03 383.681 1079.15 382.594C1077.2 381.47 1076.56 378.961 1077.77 377.069C1083.16 368.664 1089.25 360.747 1095.96 353.4C1097.47 351.742 1100.06 351.715 1101.65 353.303ZM1350.35 353.302C1351.94 351.714 1354.53 351.741 1356.04 353.399C1362.74 360.746 1368.83 368.663 1374.23 377.068C1375.44 378.96 1374.8 381.47 1372.85 382.594C1370.97 383.68 1368.57 383.065 1367.4 381.238C1362.3 373.32 1356.56 365.857 1350.25 358.925C1348.79 357.318 1348.81 354.839 1350.35 353.302Z" id="n43"/>
</mask>
<mask id="mask4_68_6728" style="mask-type:luminance" maskUnits="userSpaceOnUse" x="970" y="216" width="512" height="512">
<path d="M1226 280C1332.04 280 1418 365.961 1418 472C1418 578.039 1332.04 664 1226 664C1119.96 664 1034 578.039 1034 472C1034 365.961 1119.96 280 1226 280ZM1226 308C1135.43 308 1062 381.425 1062 472C1062 562.575 1135.43 636 1226 636C1316.57 636 1390 562.575 1390 472C1390 381.425 1316.57 308 1226 308Z" fill="white" id="n99"/>
<path d="M1226 280V280.5C1331.76 280.5 1417.5 366.237 1417.5 472H1418H1418.5C1418.5 365.685 1332.31 279.5 1226 279.5V280ZM1418 472H1417.5C1417.5 577.763 1331.76 663.5 1226 663.5V664V664.5C1332.31 664.5 1418.5 578.315 1418.5 472H1418ZM1226 664V663.5C1120.24 663.5 1034.5 577.763 1034.5 472H1034H1033.5C1033.5 578.315 1119.69 664.5 1226 664.5V664ZM1034 472H1034.5C1034.5 366.237 1120.24 280.5 1226 280.5V280V279.5C1119.69 279.5 1033.5 365.685 1033.5 472H1034ZM1226 308V307.5C1135.15 307.5 1061.5 381.149 1061.5 472H1062H1062.5C1062.5 381.701 1135.7 308.5 1226 308.5V308ZM1062 472H1061.5C1061.5 562.851 1135.15 636.5 1226 636.5V636V635.5C1135.7 635.5 1062.5 562.299 1062.5 472H1062ZM1226 636V636.5C1316.85 636.5 1390.5 562.851 1390.5 472H1390H1389.5C1389.5 562.299 1316.3 635.5 1226 635.5V636ZM1390 472H1390.5C1390.5 381.149 1316.85 307.5 1226 307.5V308V308.5C1316.3 308.5 1389.5 381.701 1389.5 472H1390Z" fill="black" id="n100"/>
</mask>
<mask id="path-83-inside-8_68_6728" fill="white">
<path d="M1270.53 305.819C1271.1 303.686 1273.29 302.415 1275.41 303.034C1287.73 306.63 1299.49 311.537 1310.53 317.594C1312.47 318.656 1313.12 321.105 1312.01 323.017C1310.91 324.931 1308.46 325.582 1306.52 324.521C1296.09 318.811 1284.98 314.177 1273.35 310.767C1271.22 310.145 1269.96 307.955 1270.53 305.819Z" id="n103"/>
</mask>
<clipPath id="clip2_68_6728">
<rect width="512" height="512" fill="white" transform="translate(888.008 342.258) rotate(-24)" id="n2023"/>
</clipPath>
<clipPath id="clip3_68_6728">
<rect width="512" height="512" fill="white" transform="translate(879.781 366.15) rotate(-28)" id="n2024"/>
</clipPath>
<clipPath id="clip4_68_6728">
<rect width="512" height="512" fill="white" transform="translate(873.242 390.559) rotate(-32)" id="n2025"/>
</clipPath>
<clipPath id="clip5_68_6728">
<rect width="512" height="512" fill="white" transform="translate(868.422 415.363) rotate(-36)" id="n2026"/>
</clipPath>
<clipPath id="clip6_68_6728">
<rect width="512" height="512" fill="white" transform="translate(1108.13 814.314) rotate(-116)" id="n2027"/>
</clipPath>
<clipPath id="clip7_68_6728">
<rect width="512" height="512" fill="white" transform="translate(1132.3 821.703) rotate(-120)" id="n2028"/>
</clipPath>
<clipPath id="clip8_68_6728">
<rect width="512" height="512" fill="white" transform="translate(1156.92 827.387) rotate(-124)" id="n2029"/>
</clipPath>
</defs>
  <g clip-path="url(#clip__asset)" transform="translate(-970.0 -216.0)"><path d="M1376.86 389.516C1378.81 388.393 1381.3 389.086 1382.33 391.079C1394.9 415.306 1402 442.823 1402 471.999C1402 569.201 1323.2 647.999 1226 647.999C1128.8 647.999 1050 569.201 1050 471.999C1050 442.823 1057.1 415.306 1069.67 391.079C1070.7 389.086 1073.19 388.393 1075.13 389.516C1077.02 390.603 1077.68 392.993 1076.69 394.925C1064.74 418.009 1058 444.216 1058 471.999C1058 564.783 1133.22 639.999 1226 639.999C1318.78 639.999 1394 564.783 1394 471.999C1394 444.216 1387.25 418.009 1375.31 394.925C1374.31 392.993 1374.98 390.603 1376.86 389.516ZM1101.65 353.303C1103.18 354.84 1103.21 357.318 1101.75 358.925C1095.43 365.857 1089.7 373.32 1084.6 381.238C1083.43 383.065 1081.03 383.681 1079.15 382.594C1077.2 381.47 1076.56 378.961 1077.77 377.069C1083.17 368.663 1089.26 360.747 1095.96 353.4C1097.47 351.742 1100.06 351.716 1101.65 353.303ZM1350.35 353.302C1351.94 351.715 1354.53 351.741 1356.04 353.4C1362.74 360.746 1368.83 368.663 1374.23 377.068C1375.44 378.96 1374.8 381.47 1372.85 382.594C1370.97 383.68 1368.57 383.065 1367.4 381.238C1362.3 373.32 1356.56 365.857 1350.25 358.925C1348.79 357.318 1348.82 354.839 1350.35 353.302Z" fill="white" id="n41"/>
<path d="M1402 471.999H1403V471.999H1402ZM1050 471.999H1049V471.999H1050ZM1058 471.999H1057V471.999H1058ZM1394 471.999H1395V471.999H1394ZM1350.25 358.925L1350.99 358.251L1350.25 358.925ZM1350.35 353.302L1349.65 352.595L1350.35 353.302ZM1356.04 353.4L1356.78 352.726L1356.04 353.4ZM1095.96 353.4L1095.22 352.726L1095.96 353.4ZM1079.15 382.594L1078.65 383.461L1079.15 382.594ZM1077.77 377.069L1078.61 377.609L1077.77 377.069ZM1375.31 394.925L1376.2 394.465L1375.31 394.925ZM1374.23 377.068L1373.39 377.609L1374.23 377.068ZM1372.85 382.594L1372.35 381.728L1372.85 382.594ZM1075.13 389.516L1074.63 390.382L1075.13 389.516ZM1101.75 358.925L1101.01 358.252L1101.75 358.925ZM1367.4 381.238L1366.55 381.779L1367.4 381.238ZM1084.6 381.238L1085.44 381.779L1084.6 381.238ZM1382.33 391.079L1381.45 391.539L1382.33 391.079ZM1382.33 391.079L1381.45 391.539C1393.94 415.627 1401 442.987 1401 471.999H1402H1403C1403 442.659 1395.86 414.984 1383.22 390.619L1382.33 391.079ZM1402 471.999H1401C1401 568.649 1322.65 646.999 1226 646.999V647.999V648.999C1323.75 648.999 1403 569.753 1403 471.999H1402ZM1226 647.999V646.999C1129.35 646.999 1051 568.649 1051 471.999H1050H1049C1049 569.753 1128.25 648.999 1226 648.999V647.999ZM1050 471.999H1051C1051 442.987 1058.06 415.627 1070.55 391.539L1069.67 391.079L1068.78 390.619C1056.14 414.984 1049 442.659 1049 471.999H1050ZM1076.69 394.925L1075.8 394.465C1063.78 417.689 1057 444.053 1057 471.999H1058H1059C1059 444.38 1065.7 418.33 1077.57 395.384L1076.69 394.925ZM1058 471.999H1057C1057 565.335 1132.66 640.999 1226 640.999V639.999V638.999C1133.77 638.999 1059 564.231 1059 471.999H1058ZM1226 639.999V640.999C1319.34 640.999 1395 565.335 1395 471.999H1394H1393C1393 564.231 1318.23 638.999 1226 638.999V639.999ZM1394 471.999H1395C1395 444.053 1388.21 417.689 1376.2 394.465L1375.31 394.925L1374.43 395.384C1386.29 418.33 1393 444.38 1393 471.999H1394ZM1101.75 358.925L1101.01 358.252C1094.66 365.225 1088.89 372.732 1083.76 380.697L1084.6 381.238L1085.44 381.779C1090.51 373.908 1096.21 366.489 1102.49 359.598L1101.75 358.925ZM1077.77 377.069L1078.61 377.609C1083.98 369.251 1090.03 361.38 1096.7 354.074L1095.96 353.4L1095.22 352.726C1088.48 360.114 1082.35 368.076 1076.93 376.529L1077.77 377.069ZM1356.04 353.4L1355.3 354.074C1361.97 361.379 1368.02 369.251 1373.39 377.609L1374.23 377.068L1375.07 376.528C1369.64 368.075 1363.52 360.114 1356.78 352.726L1356.04 353.4ZM1367.4 381.238L1368.24 380.697C1363.11 372.732 1357.34 365.225 1350.99 358.251L1350.25 358.925L1349.51 359.598C1355.79 366.489 1361.49 373.908 1366.55 381.779L1367.4 381.238ZM1350.25 358.925L1350.99 358.251C1349.88 357.028 1349.91 355.158 1351.06 354.009L1350.35 353.302L1349.65 352.595C1347.72 354.519 1347.7 357.607 1349.51 359.598L1350.25 358.925ZM1356.04 353.4L1356.78 352.726C1354.87 350.635 1351.63 350.616 1349.65 352.595L1350.35 353.302L1351.06 354.009C1352.25 352.814 1354.18 352.848 1355.3 354.074L1356.04 353.4ZM1095.96 353.4L1096.7 354.074C1097.82 352.848 1099.74 352.815 1100.94 354.01L1101.65 353.303L1102.35 352.596C1100.37 350.616 1097.13 350.635 1095.22 352.726L1095.96 353.4ZM1079.15 382.594L1079.65 381.728C1078.18 380.882 1077.71 379.008 1078.61 377.609L1077.77 377.069L1076.93 376.529C1075.4 378.915 1076.22 382.059 1078.65 383.461L1079.15 382.594ZM1375.31 394.925L1376.2 394.465C1375.44 392.995 1375.96 391.195 1377.36 390.382L1376.86 389.516L1376.36 388.65C1374.01 390.012 1373.19 392.991 1374.43 395.384L1375.31 394.925ZM1374.23 377.068L1373.39 377.609C1374.28 379.007 1373.82 380.881 1372.35 381.728L1372.85 382.594L1373.35 383.46C1375.78 382.058 1376.6 378.914 1375.07 376.528L1374.23 377.068ZM1069.67 391.079L1070.55 391.539C1071.32 390.066 1073.17 389.536 1074.63 390.382L1075.13 389.516L1075.63 388.65C1073.21 387.25 1070.08 388.106 1068.78 390.619L1069.67 391.079ZM1101.75 358.925L1102.49 359.598C1104.3 357.608 1104.28 354.521 1102.35 352.596L1101.65 353.303L1100.94 354.01C1102.09 355.159 1102.12 357.029 1101.01 358.252L1101.75 358.925ZM1372.85 382.594L1372.35 381.728C1370.95 382.54 1369.13 382.088 1368.24 380.697L1367.4 381.238L1366.55 381.779C1368.01 384.042 1371 384.82 1373.35 383.46L1372.85 382.594ZM1075.13 389.516L1074.63 390.382C1076.04 391.195 1076.56 392.995 1075.8 394.465L1076.69 394.925L1077.57 395.384C1078.81 392.991 1077.99 390.012 1075.63 388.65L1075.13 389.516ZM1084.6 381.238L1083.76 380.697C1082.87 382.088 1081.05 382.54 1079.65 381.728L1079.15 382.594L1078.65 383.461C1081 384.821 1083.99 384.042 1085.44 381.779L1084.6 381.238ZM1382.33 391.079L1383.22 390.619C1381.92 388.106 1378.79 387.25 1376.36 388.65L1376.86 389.516L1377.36 390.382C1378.83 389.536 1380.68 390.066 1381.45 391.539L1382.33 391.079Z" fill="#BEBEBE" mask="url(#path-31-inside-6_68_6728)" id="n42"/>
<g mask="url(#mask3_68_6728)" id="n46">
<path fill-rule="evenodd" clip-rule="evenodd" d="M1339.17 280.732L1114 410.732L1112 407.268L1337.17 277.268L1339.17 280.732ZM1339.17 536.732L1114 666.732L1112 663.267L1337.17 533.267L1339.17 536.732Z" fill="#BEBEBE" id="n47"/>
<path fill-rule="evenodd" clip-rule="evenodd" d="M1325.55 273.303L1110 418.693L1107.76 415.377L1323.31 269.987L1325.55 273.303ZM1343.41 528.679L1127.86 674.069L1125.62 670.753L1341.17 525.363L1343.41 528.679Z" fill="#BEBEBE" id="n48"/>
<path fill-rule="evenodd" clip-rule="evenodd" d="M1311.44 266.844L1106.56 426.916L1104.1 423.764L1308.98 263.692L1311.44 266.844ZM1347.07 520.353L1142.19 680.425L1139.72 677.273L1344.61 517.201L1347.07 520.353Z" fill="#BEBEBE" id="n49"/>
<path fill-rule="evenodd" clip-rule="evenodd" d="M1296.92 261.384L1103.71 435.358L1101.03 432.386L1294.25 258.412L1296.92 261.384ZM1350.15 511.79L1156.93 685.764L1154.26 682.791L1347.47 508.817L1350.15 511.79Z" fill="#BEBEBE" id="n50"/>
<path fill-rule="evenodd" clip-rule="evenodd" d="M1282.06 256.949L1101.45 443.977L1098.57 441.198L1279.18 254.17L1282.06 256.949ZM1352.62 503.032L1172.01 690.06L1169.13 687.281L1349.75 500.253L1352.62 503.032Z" fill="#BEBEBE" id="n51"/>
<path fill-rule="evenodd" clip-rule="evenodd" d="M1266.93 253.562L1099.8 452.733L1096.74 450.162L1263.86 250.99L1266.93 253.562ZM1354.48 494.123L1187.36 693.294L1184.29 690.723L1351.42 491.552L1354.48 494.123Z" fill="#BEBEBE" id="n52"/>
<g clip-path="url(#clip2_68_6728)" id="n53">
<path fill-rule="evenodd" clip-rule="evenodd" d="M1251.59 251.24L1098.76 461.585L1095.53 459.233L1248.35 248.889L1251.59 251.24ZM1355.71 485.108L1202.89 695.452L1199.65 693.101L1352.48 482.757L1355.71 485.108Z" fill="#BEBEBE" id="n54"/>
</g>
<g clip-path="url(#clip3_68_6728)" id="n55">
<path fill-rule="evenodd" clip-rule="evenodd" d="M1236.13 249.992L1098.35 470.485L1094.95 468.365L1232.73 247.873L1236.13 249.992ZM1356.31 476.027L1218.53 696.519L1215.14 694.4L1352.92 473.907L1356.31 476.027Z" fill="#BEBEBE" id="n56"/>
</g>
<g clip-path="url(#clip4_68_6728)" id="n57">
<path fill-rule="evenodd" clip-rule="evenodd" d="M1220.62 249.825L1098.55 479.392L1095.02 477.514L1217.08 247.947L1220.62 249.825ZM1356.28 466.926L1234.21 696.492L1230.68 694.614L1352.74 465.048L1356.28 466.926Z" fill="#BEBEBE" id="n58"/>
</g>
<g clip-path="url(#clip5_68_6728)" id="n59">
<path fill-rule="evenodd" clip-rule="evenodd" d="M1205.13 250.742L1099.38 488.264L1095.73 486.637L1201.48 249.115L1205.13 250.742ZM1355.61 457.85L1249.85 695.372L1246.2 693.745L1351.95 456.224L1355.61 457.85Z" fill="#BEBEBE" id="n60"/>
</g>
<path fill-rule="evenodd" clip-rule="evenodd" d="M1189.75 252.737L1100.83 497.057L1097.07 495.689L1185.99 251.369L1189.75 252.737ZM1354.3 448.845L1265.38 693.165L1261.62 691.797L1350.55 447.477L1354.3 448.845Z" fill="#BEBEBE" id="n61"/>
<path fill-rule="evenodd" clip-rule="evenodd" d="M1174.54 255.802L1102.87 505.73L1099.03 504.627L1170.69 254.699L1174.54 255.802ZM1352.37 439.953L1280.7 689.881L1276.86 688.778L1348.53 438.85L1352.37 439.953Z" fill="#BEBEBE" id="n62"/>
<path fill-rule="evenodd" clip-rule="evenodd" d="M1159.58 259.918L1105.52 514.236L1101.61 513.405L1155.67 259.086L1159.58 259.918ZM1349.82 431.216L1295.77 685.534L1291.85 684.702L1345.91 430.384L1349.82 431.216Z" fill="#BEBEBE" id="n63"/>
<path fill-rule="evenodd" clip-rule="evenodd" d="M1144.95 265.066L1108.76 522.536L1104.8 521.979L1140.99 264.509L1144.95 265.066ZM1346.68 422.676L1310.49 680.145L1306.53 679.589L1342.72 422.119L1346.68 422.676Z" fill="#BEBEBE" id="n64"/>
<path fill-rule="evenodd" clip-rule="evenodd" d="M1130.71 271.224L1112.57 530.591L1108.58 530.312L1126.72 270.945L1130.71 271.224ZM1342.94 414.378L1324.81 673.745L1320.82 673.466L1338.95 414.099L1342.94 414.378Z" fill="#BEBEBE" id="n65"/>
<path fill-rule="evenodd" clip-rule="evenodd" d="M1116.94 278.361L1116.94 538.361L1112.94 538.361L1112.94 278.361L1116.94 278.361ZM1338.64 406.361L1338.64 666.361L1334.64 666.361L1334.64 406.361L1338.64 406.361Z" fill="#BEBEBE" id="n66"/>
<path fill-rule="evenodd" clip-rule="evenodd" d="M1103.7 286.44L1121.84 545.807L1117.85 546.086L1099.71 286.719L1103.7 286.44ZM1333.79 398.663L1351.93 658.03L1347.94 658.309L1329.8 398.942L1333.79 398.663Z" fill="#BEBEBE" id="n67"/>
<path fill-rule="evenodd" clip-rule="evenodd" d="M1091.05 295.424L1127.24 552.894L1123.28 553.451L1087.09 295.981L1091.05 295.424ZM1328.41 391.324L1364.6 648.793L1360.64 649.35L1324.45 391.88L1328.41 391.324Z" fill="#BEBEBE" id="n68"/>
<path fill-rule="evenodd" clip-rule="evenodd" d="M1079.06 305.268L1133.12 559.586L1129.21 560.418L1075.15 306.1L1079.06 305.268ZM1322.53 384.377L1376.59 638.695L1372.68 639.527L1318.62 385.208L1322.53 384.377Z" fill="#BEBEBE" id="n69"/>
<path fill-rule="evenodd" clip-rule="evenodd" d="M1067.79 315.925L1139.46 565.853L1135.61 566.955L1063.95 317.027L1067.79 315.925ZM1316.19 377.857L1387.85 627.785L1384.01 628.888L1312.34 378.96L1316.19 377.857Z" fill="#BEBEBE" id="n70"/>
<path fill-rule="evenodd" clip-rule="evenodd" d="M1057.29 327.339L1146.22 571.659L1142.46 573.027L1053.53 328.707L1057.29 327.339ZM1309.4 371.793L1398.33 616.113L1394.57 617.481L1305.64 373.161L1309.4 371.793Z" fill="#BEBEBE" id="n71"/>
<path fill-rule="evenodd" clip-rule="evenodd" d="M1047.61 339.459L1153.36 576.981L1149.7 578.608L1043.95 341.086L1047.61 339.459ZM1302.2 366.219L1407.96 603.741L1404.3 605.368L1298.55 367.846L1302.2 366.219Z" fill="#BEBEBE" id="n72"/>
<path fill-rule="evenodd" clip-rule="evenodd" d="M1038.8 352.227L1160.86 581.794L1157.33 583.671L1035.26 354.105L1038.8 352.227ZM1294.64 361.162L1416.7 590.728L1413.17 592.606L1291.11 363.04L1294.64 361.162Z" fill="#BEBEBE" id="n73"/>
<path fill-rule="evenodd" clip-rule="evenodd" d="M1030.9 365.577L1168.68 586.07L1165.29 588.189L1027.51 367.697L1030.9 365.577ZM1286.75 356.643L1424.53 577.136L1421.13 579.255L1283.35 358.763L1286.75 356.643Z" fill="#BEBEBE" id="n74"/>
<path fill-rule="evenodd" clip-rule="evenodd" d="M1023.95 379.444L1176.78 589.788L1173.54 592.14L1020.72 381.795L1023.95 379.444ZM1278.55 352.685L1431.37 563.029L1428.14 565.381L1275.31 355.036L1278.55 352.685Z" fill="#BEBEBE" id="n75"/>
<path fill-rule="evenodd" clip-rule="evenodd" d="M1017.99 393.765L1185.11 592.936L1182.05 595.508L1014.92 396.336L1017.99 393.765ZM1270.1 349.311L1437.22 548.483L1434.16 551.054L1267.03 351.882L1270.1 349.311Z" fill="#BEBEBE" id="n76"/>
<path fill-rule="evenodd" clip-rule="evenodd" d="M1013.03 408.468L1193.64 595.496L1190.76 598.275L1010.15 411.246L1013.03 408.468ZM1261.43 346.536L1442.04 533.564L1439.16 536.343L1258.55 349.314L1261.43 346.536Z" fill="#BEBEBE" id="n77"/>
<path fill-rule="evenodd" clip-rule="evenodd" d="M1009.13 423.477L1202.34 597.451L1199.67 600.423L1006.45 426.449L1009.13 423.477ZM1252.6 344.369L1445.81 518.343L1443.14 521.315L1249.92 347.341L1252.6 344.369Z" fill="#BEBEBE" id="n78"/>
<path fill-rule="evenodd" clip-rule="evenodd" d="M1006.27 438.723L1211.15 598.795L1208.69 601.947L1003.8 441.875L1006.27 438.723ZM1243.62 342.824L1448.51 502.896L1446.04 506.048L1241.16 345.976L1243.62 342.824Z" fill="#BEBEBE" id="n79"/>
<g clip-path="url(#clip6_68_6728)" id="n80">
<path fill-rule="evenodd" clip-rule="evenodd" d="M1004.48 454.133L1220.03 599.524L1217.79 602.84L1002.24 457.45L1004.48 454.133ZM1234.57 341.911L1450.12 487.301L1447.89 490.617L1232.34 345.227L1234.57 341.911Z" fill="#BEBEBE" id="n81"/>
</g>
<g clip-path="url(#clip7_68_6728)" id="n82">
<path fill-rule="evenodd" clip-rule="evenodd" d="M1003.77 469.629L1228.94 599.629L1226.94 603.094L1001.77 473.094L1003.77 469.629ZM1225.48 341.63L1450.64 471.63L1448.64 475.094L1223.48 345.094L1225.48 341.63Z" fill="#BEBEBE" id="n83"/>
</g>
<g clip-path="url(#clip8_68_6728)" id="n84">
<path fill-rule="evenodd" clip-rule="evenodd" d="M1004.15 485.135L1237.84 599.112L1236.08 602.707L1002.4 488.731L1004.15 485.135ZM1216.39 341.982L1450.07 455.959L1448.32 459.554L1214.63 345.577L1216.39 341.982Z" fill="#BEBEBE" id="n85"/>
</g>
<path fill-rule="evenodd" clip-rule="evenodd" d="M1005.6 500.58L1246.67 597.978L1245.17 601.686L1004.1 504.289L1005.6 500.58ZM1207.33 342.971L1448.4 440.369L1446.9 444.077L1205.84 346.68L1207.33 342.971Z" fill="#BEBEBE" id="n86"/>
<path fill-rule="evenodd" clip-rule="evenodd" d="M1008.14 515.884L1255.41 596.228L1254.18 600.032L1006.9 519.688L1008.14 515.884ZM1198.38 344.587L1445.66 424.931L1444.42 428.735L1197.15 348.391L1198.38 344.587Z" fill="#BEBEBE" id="n87"/>
<path fill-rule="evenodd" clip-rule="evenodd" d="M1011.73 530.976L1264.01 593.876L1263.04 597.757L1010.76 534.857L1011.73 530.976ZM1189.56 346.825L1441.84 409.725L1440.87 413.606L1188.6 350.707L1189.56 346.825Z" fill="#BEBEBE" id="n88"/>
<path fill-rule="evenodd" clip-rule="evenodd" d="M1016.37 545.777L1272.42 590.926L1271.72 594.865L1015.67 549.717L1016.37 545.777ZM1180.92 349.67L1436.97 394.819L1436.28 398.758L1180.23 353.61L1180.92 349.67Z" fill="#BEBEBE" id="n89"/>
<path fill-rule="evenodd" clip-rule="evenodd" d="M1022.02 560.223L1280.59 587.4L1280.18 591.378L1021.6 564.201L1022.02 560.223ZM1172.49 353.115L1431.07 380.292L1430.65 384.27L1172.07 357.093L1172.49 353.115Z" fill="#BEBEBE" id="n90"/>
<path fill-rule="evenodd" clip-rule="evenodd" d="M1028.67 574.235L1288.51 583.309L1288.37 587.306L1028.53 578.232L1028.67 574.235ZM1164.33 357.135L1424.17 366.209L1424.03 370.206L1164.19 361.132L1164.33 357.135Z" fill="#BEBEBE" id="n91"/>
<path fill-rule="evenodd" clip-rule="evenodd" d="M1036.29 587.75L1296.13 578.676L1296.27 582.674L1036.43 591.748L1036.29 587.75ZM1156.47 361.716L1416.31 352.642L1416.45 356.639L1156.61 365.713L1156.47 361.716Z" fill="#BEBEBE" id="n92"/>
<path fill-rule="evenodd" clip-rule="evenodd" d="M1044.82 600.702L1303.4 573.525L1303.81 577.503L1045.24 604.68L1044.82 600.702ZM1148.94 366.835L1407.52 339.657L1407.94 343.635L1149.36 370.813L1148.94 366.835Z" fill="#BEBEBE" id="n93"/>
<path fill-rule="evenodd" clip-rule="evenodd" d="M1054.24 613.026L1310.29 567.877L1310.98 571.816L1054.93 616.965L1054.24 613.026ZM1141.79 372.465L1397.84 327.316L1398.54 331.255L1142.49 376.404L1141.79 372.465Z" fill="#BEBEBE" id="n94"/>
<path fill-rule="evenodd" clip-rule="evenodd" d="M1064.49 624.666L1316.77 561.766L1317.74 565.647L1065.46 628.547L1064.49 624.666ZM1135.06 378.583L1387.33 315.683L1388.3 319.564L1136.02 382.464L1135.06 378.583Z" fill="#BEBEBE" id="n95"/>
<path fill-rule="evenodd" clip-rule="evenodd" d="M1075.54 635.559L1322.81 555.214L1324.05 559.018L1076.78 639.363L1075.54 635.559ZM1128.76 385.153L1376.04 304.809L1377.28 308.613L1130 388.957L1128.76 385.153Z" fill="#BEBEBE" id="n96"/>
<path fill-rule="evenodd" clip-rule="evenodd" d="M1087.32 645.657L1328.39 548.26L1329.88 551.968L1088.82 649.366L1087.32 645.657ZM1122.95 392.149L1364.01 294.751L1365.51 298.46L1124.44 395.857L1122.95 392.149Z" fill="#BEBEBE" id="n97"/>
<path fill-rule="evenodd" clip-rule="evenodd" d="M1099.76 654.909L1333.45 540.932L1335.2 544.528L1101.52 658.504L1099.76 654.909ZM1117.62 399.533L1351.31 285.556L1353.06 289.151L1119.38 403.128L1117.62 399.533Z" fill="#BEBEBE" id="n98"/>
</g>
<g mask="url(#mask4_68_6728)" id="n101">
<path d="M1044.98 290.981C1009.18 326.783 984.797 372.398 974.919 422.057C965.041 471.716 970.111 523.189 989.487 569.967C1008.86 616.745 1041.68 656.727 1083.77 684.856C1125.87 712.986 1175.37 728 1226 728C1276.63 728 1326.13 712.986 1368.23 684.856C1410.32 656.727 1443.14 616.745 1462.51 569.967C1481.89 523.189 1486.96 471.716 1477.08 422.057C1467.2 372.398 1442.82 326.783 1407.02 290.981L1226 472L1044.98 290.981Z" stroke="#BEBEBE" id="n102"/>
</g>
<path d="M1270.53 305.819C1271.1 303.686 1273.29 302.415 1275.41 303.034C1287.73 306.63 1299.49 311.537 1310.53 317.594C1312.47 318.656 1313.12 321.105 1312.01 323.017C1310.91 324.931 1308.46 325.582 1306.52 324.521C1296.09 318.811 1284.98 314.177 1273.35 310.767C1271.22 310.145 1269.96 307.955 1270.53 305.819Z" fill="#CADEFC" id="n104"/>
<path d="M1312.01 323.017L1311.15 322.517L1312.01 323.017ZM1275.41 303.034L1275.13 303.994C1287.38 307.569 1299.07 312.448 1310.05 318.471L1310.53 317.594L1311.01 316.717C1299.91 310.626 1288.08 305.691 1275.69 302.074L1275.41 303.034ZM1306.52 324.521L1307 323.643C1296.5 317.899 1285.33 313.238 1273.63 309.807L1273.35 310.767L1273.07 311.726C1284.63 315.116 1295.67 319.722 1306.04 325.398L1306.52 324.521ZM1273.35 310.767L1273.63 309.807C1272.01 309.334 1271.07 307.674 1271.49 306.078L1270.53 305.819L1269.56 305.56C1268.84 308.235 1270.44 310.956 1273.07 311.726L1273.35 310.767ZM1312.01 323.017L1311.15 322.517C1310.32 323.948 1308.48 324.451 1307 323.643L1306.52 324.521L1306.04 325.398C1308.45 326.713 1311.5 325.915 1312.88 323.517L1312.01 323.017ZM1310.53 317.594L1310.05 318.471C1311.48 319.255 1311.98 321.077 1311.15 322.517L1312.01 323.017L1312.88 323.517C1314.26 321.132 1313.45 318.056 1311.01 316.717L1310.53 317.594ZM1275.41 303.034L1275.69 302.074C1273.02 301.293 1270.27 302.9 1269.56 305.56L1270.53 305.819L1271.49 306.078C1271.92 304.472 1273.57 303.536 1275.13 303.994L1275.41 303.034Z" fill="#2D548B" mask="url(#path-83-inside-8_68_6728)" id="n105"/>
</g>
</svg>
