<?xml version='1.0' encoding='utf-8'?>
<svg xmlns="http://www.w3.org/2000/svg" xmlns:xlink="http://www.w3.org/1999/xlink" width="640.0" height="48.0" viewBox="0 0 640.0 48.0" fill="none">
  <defs><clipPath id="clip__asset"><rect x="0" y="0" width="640.0" height="48.0"/></clipPath><mask id="path-615-inside-105_1702_11540" fill="white">
<path d="M2372 309.6C2372 306.24 2372 304.56 2372.65 303.276C2373.23 302.147 2374.15 301.229 2375.28 300.654C2376.56 300 2378.24 300 2381.6 300H2964V332H2381.6C2378.24 332 2376.56 332 2375.28 331.346C2374.15 330.771 2373.23 329.853 2372.65 328.724C2372 327.44 2372 325.76 2372 322.4V309.6Z" id="n725"/>
</mask>
<mask id="path-622-inside-106_1702_11540" fill="white">
<path d="M2964 300H3002.4C3005.76 300 3007.44 300 3008.72 300.654C3009.85 301.229 3010.77 302.147 3011.35 303.276C3012 304.56 3012 306.24 3012 309.6V322.4C3012 325.76 3012 327.44 3011.35 328.724C3010.77 329.853 3009.85 330.771 3008.72 331.346C3007.44 332 3005.76 332 3002.4 332H2964V300Z" id="n732"/>
</mask>
</defs>
  <g clip-path="url(#clip__asset)" transform="translate(-2372.0 -292.0)"><path d="M2372 309.6C2372 306.24 2372 304.56 2372.65 303.276C2373.23 302.147 2374.15 301.229 2375.28 300.654C2376.56 300 2378.24 300 2381.6 300H2964V332H2381.6C2378.24 332 2376.56 332 2375.28 331.346C2374.15 330.771 2373.23 329.853 2372.65 328.724C2372 327.44 2372 325.76 2372 322.4V309.6Z" fill="white" id="n726"/>
<path d="M2371 306C2371 302.134 2374.13 299 2378 299H2964V301H2378C2375.24 301 2373 303.239 2373 306H2371ZM2964 333H2378C2374.13 333 2371 329.866 2371 326H2373C2373 328.761 2375.24 331 2378 331H2964V333ZM2378 333C2374.13 333 2371 329.866 2371 326V306C2371 302.134 2374.13 299 2378 299V301C2375.24 301 2373 303.239 2373 306V326C2373 328.761 2375.24 331 2378 331V333ZM2964 300V332V300Z" fill="#BEBEBE" mask="url(#path-615-inside-105_1702_11540)" id="n727"/>
<path fill-rule="evenodd" clip-rule="evenodd" d="M2385 308C2383.9 308 2383 308.895 2383 310V320C2383 321.105 2383.9 322 2385 322H2389L2392 325L2395 322H2399C2400.1 322 2401 321.105 2401 320V310C2401 308.895 2400.1 308 2399 308H2385Z" fill="#2D548B" id="n728"/>
<path d="M2423.46 322H2420.54L2415.44 313.264H2415.38C2415.39 313.52 2415.4 313.781 2415.41 314.048C2415.42 314.315 2415.43 314.587 2415.44 314.864C2415.46 315.131 2415.48 315.403 2415.49 315.68C2415.5 315.957 2415.51 316.235 2415.52 316.512V322H2413.46V310.576H2416.35L2421.44 319.232H2421.49C2421.48 318.987 2421.47 318.736 2421.46 318.48C2421.45 318.213 2421.43 317.952 2421.42 317.696C2421.42 317.429 2421.42 317.163 2421.41 316.896C2421.4 316.629 2421.39 316.363 2421.38 316.096V310.576H2423.46V322ZM2434.04 317.632C2434.04 318.357 2433.95 319.003 2433.75 319.568C2433.56 320.123 2433.28 320.597 2432.91 320.992C2432.54 321.376 2432.1 321.669 2431.58 321.872C2431.07 322.064 2430.48 322.16 2429.83 322.16C2429.23 322.16 2428.66 322.064 2428.14 321.872C2427.63 321.669 2427.18 321.376 2426.81 320.992C2426.45 320.597 2426.16 320.117 2425.95 319.552C2425.74 318.987 2425.64 318.341 2425.64 317.616C2425.64 316.656 2425.81 315.845 2426.15 315.184C2426.5 314.512 2426.98 314 2427.61 313.648C2428.25 313.296 2429 313.12 2429.87 313.12C2430.69 313.12 2431.41 313.296 2432.03 313.648C2432.66 314 2433.15 314.512 2433.5 315.184C2433.86 315.845 2434.04 316.661 2434.04 317.632ZM2427.96 317.632C2427.96 318.219 2428.03 318.715 2428.15 319.12C2428.28 319.515 2428.48 319.813 2428.76 320.016C2429.05 320.219 2429.41 320.32 2429.85 320.32C2430.3 320.32 2430.66 320.219 2430.92 320.016C2431.2 319.813 2431.4 319.515 2431.53 319.12C2431.66 318.715 2431.72 318.219 2431.72 317.632C2431.72 317.035 2431.66 316.539 2431.53 316.144C2431.4 315.749 2431.2 315.456 2430.92 315.264C2430.64 315.061 2430.28 314.96 2429.83 314.96C2429.18 314.96 2428.71 315.184 2428.41 315.632C2428.11 316.08 2427.96 316.747 2427.96 317.632ZM2439.63 320.336C2439.89 320.336 2440.14 320.315 2440.38 320.272C2440.63 320.219 2440.87 320.155 2441.1 320.08V321.776C2440.86 321.883 2440.55 321.973 2440.17 322.048C2439.81 322.123 2439.42 322.16 2438.99 322.16C2438.48 322.16 2438.02 322.075 2437.61 321.904C2437.21 321.733 2436.88 321.44 2436.64 321.024C2436.4 320.608 2436.29 320.032 2436.29 319.296V314.992H2435.13V314.032L2436.45 313.248L2437.12 311.408H2438.56V313.28H2441.01V314.992H2438.56V319.28C2438.56 319.643 2438.65 319.909 2438.85 320.08C2439.05 320.251 2439.31 320.336 2439.63 320.336ZM2445.13 313.28V322H2442.86V313.28H2445.13ZM2443.99 309.888C2444.34 309.888 2444.63 309.968 2444.87 310.128C2445.12 310.288 2445.24 310.587 2445.24 311.024C2445.24 311.44 2445.12 311.733 2444.87 311.904C2444.63 312.075 2444.34 312.16 2443.99 312.16C2443.65 312.16 2443.36 312.075 2443.11 311.904C2442.88 311.733 2442.76 311.44 2442.76 311.024C2442.76 310.587 2442.88 310.288 2443.11 310.128C2443.36 309.968 2443.65 309.888 2443.99 309.888ZM2452.39 314.992H2450.31V322H2448.04V314.992H2446.69V313.904L2448.04 313.28V312.656C2448.04 311.909 2448.16 311.328 2448.41 310.912C2448.65 310.496 2449 310.203 2449.46 310.032C2449.92 309.851 2450.47 309.76 2451.09 309.76C2451.54 309.76 2451.95 309.797 2452.31 309.872C2452.68 309.947 2452.99 310.027 2453.22 310.112L2452.65 311.792C2452.47 311.739 2452.26 311.691 2452.04 311.648C2451.83 311.595 2451.59 311.568 2451.32 311.568C2450.97 311.568 2450.71 311.675 2450.55 311.888C2450.39 312.101 2450.31 312.384 2450.31 312.736V313.28H2452.39V314.992ZM2456.04 313.28V322H2453.76V313.28H2456.04ZM2454.9 309.888C2455.24 309.888 2455.53 309.968 2455.78 310.128C2456.03 310.288 2456.15 310.587 2456.15 311.024C2456.15 311.44 2456.03 311.733 2455.78 311.904C2455.53 312.075 2455.24 312.16 2454.9 312.16C2454.56 312.16 2454.27 312.075 2454.02 311.904C2453.79 311.733 2453.67 311.44 2453.67 311.024C2453.67 310.587 2453.79 310.288 2454.02 310.128C2454.27 309.968 2454.56 309.888 2454.9 309.888ZM2462.1 322.16C2461.24 322.16 2460.51 322.005 2459.9 321.696C2459.3 321.376 2458.83 320.885 2458.51 320.224C2458.19 319.563 2458.03 318.72 2458.03 317.696C2458.03 316.629 2458.21 315.76 2458.58 315.088C2458.94 314.416 2459.44 313.92 2460.08 313.6C2460.72 313.28 2461.46 313.12 2462.29 313.12C2462.88 313.12 2463.39 313.179 2463.82 313.296C2464.26 313.413 2464.64 313.547 2464.96 313.696L2464.29 315.456C2463.93 315.317 2463.58 315.2 2463.25 315.104C2462.93 315.008 2462.61 314.96 2462.29 314.96C2461.85 314.96 2461.49 315.061 2461.2 315.264C2460.91 315.467 2460.7 315.771 2460.56 316.176C2460.42 316.571 2460.35 317.072 2460.35 317.68C2460.35 318.267 2460.43 318.757 2460.58 319.152C2460.73 319.536 2460.94 319.824 2461.23 320.016C2461.52 320.208 2461.87 320.304 2462.27 320.304C2462.77 320.304 2463.22 320.24 2463.6 320.112C2463.98 319.984 2464.35 319.808 2464.7 319.584V321.52C2464.35 321.744 2463.98 321.904 2463.58 322C2463.19 322.107 2462.69 322.16 2462.1 322.16ZM2470.25 313.104C2471.42 313.104 2472.3 313.355 2472.91 313.856C2473.52 314.357 2473.82 315.131 2473.82 316.176V322H2472.24L2471.79 320.816H2471.73C2471.48 321.125 2471.22 321.381 2470.96 321.584C2470.7 321.787 2470.4 321.931 2470.06 322.016C2469.73 322.112 2469.32 322.16 2468.83 322.16C2468.32 322.16 2467.85 322.064 2467.44 321.872C2467.03 321.669 2466.71 321.365 2466.48 320.96C2466.24 320.555 2466.13 320.043 2466.13 319.424C2466.13 318.496 2466.45 317.813 2467.1 317.376C2467.76 316.928 2468.75 316.683 2470.06 316.64L2471.57 316.592V316.192C2471.57 315.701 2471.44 315.349 2471.2 315.136C2470.95 314.912 2470.61 314.8 2470.17 314.8C2469.74 314.8 2469.31 314.864 2468.91 314.992C2468.5 315.109 2468.1 315.259 2467.71 315.44L2466.96 313.888C2467.42 313.643 2467.93 313.451 2468.49 313.312C2469.06 313.173 2469.65 313.104 2470.25 313.104ZM2470.61 317.968C2469.81 317.989 2469.25 318.133 2468.93 318.4C2468.62 318.656 2468.46 319.003 2468.46 319.44C2468.46 319.813 2468.57 320.08 2468.8 320.24C2469.02 320.4 2469.31 320.48 2469.66 320.48C2470.21 320.48 2470.66 320.325 2471.02 320.016C2471.38 319.696 2471.57 319.243 2471.57 318.656V317.936L2470.61 317.968ZM2479.88 320.336C2480.14 320.336 2480.39 320.315 2480.63 320.272C2480.88 320.219 2481.12 320.155 2481.35 320.08V321.776C2481.11 321.883 2480.8 321.973 2480.42 322.048C2480.06 322.123 2479.67 322.16 2479.24 322.16C2478.73 322.16 2478.27 322.075 2477.86 321.904C2477.46 321.733 2477.13 321.44 2476.89 321.024C2476.65 320.608 2476.54 320.032 2476.54 319.296V314.992H2475.38V314.032L2476.7 313.248L2477.37 311.408H2478.81V313.28H2481.26V314.992H2478.81V319.28C2478.81 319.643 2478.9 319.909 2479.1 320.08C2479.3 320.251 2479.56 320.336 2479.88 320.336ZM2485.38 313.28V322H2483.11V313.28H2485.38ZM2484.24 309.888C2484.59 309.888 2484.88 309.968 2485.12 310.128C2485.37 310.288 2485.49 310.587 2485.49 311.024C2485.49 311.44 2485.37 311.733 2485.12 311.904C2484.88 312.075 2484.59 312.16 2484.24 312.16C2483.9 312.16 2483.61 312.075 2483.36 311.904C2483.13 311.733 2483.01 311.44 2483.01 311.024C2483.01 310.587 2483.13 310.288 2483.36 310.128C2483.61 309.968 2483.9 309.888 2484.24 309.888ZM2495.78 317.632C2495.78 318.357 2495.68 319.003 2495.49 319.568C2495.3 320.123 2495.01 320.597 2494.64 320.992C2494.28 321.376 2493.84 321.669 2493.31 321.872C2492.8 322.064 2492.22 322.16 2491.57 322.16C2490.96 322.16 2490.4 322.064 2489.87 321.872C2489.36 321.669 2488.92 321.376 2488.54 320.992C2488.18 320.597 2487.89 320.117 2487.68 319.552C2487.48 318.987 2487.38 318.341 2487.38 317.616C2487.38 316.656 2487.55 315.845 2487.89 315.184C2488.23 314.512 2488.72 314 2489.34 313.648C2489.98 313.296 2490.74 313.12 2491.6 313.12C2492.42 313.12 2493.14 313.296 2493.76 313.648C2494.39 314 2494.88 314.512 2495.23 315.184C2495.6 315.845 2495.78 316.661 2495.78 317.632ZM2489.7 317.632C2489.7 318.219 2489.76 318.715 2489.89 319.12C2490.02 319.515 2490.22 319.813 2490.5 320.016C2490.78 320.219 2491.15 320.32 2491.58 320.32C2492.03 320.32 2492.39 320.219 2492.66 320.016C2492.93 319.813 2493.14 319.515 2493.26 319.12C2493.39 318.715 2493.46 318.219 2493.46 317.632C2493.46 317.035 2493.39 316.539 2493.26 316.144C2493.14 315.749 2492.93 315.456 2492.66 315.264C2492.38 315.061 2492.02 314.96 2491.57 314.96C2490.92 314.96 2490.44 315.184 2490.14 315.632C2489.85 316.08 2489.7 316.747 2489.7 317.632ZM2502.64 313.12C2503.59 313.12 2504.34 313.376 2504.9 313.888C2505.46 314.389 2505.75 315.2 2505.75 316.32V322H2503.48V316.848C2503.48 316.219 2503.36 315.744 2503.12 315.424C2502.89 315.104 2502.52 314.944 2502 314.944C2501.26 314.944 2500.74 315.195 2500.47 315.696C2500.19 316.197 2500.05 316.917 2500.05 317.856V322H2497.78V313.28H2499.52L2499.83 314.4H2499.96C2500.15 314.101 2500.38 313.861 2500.66 313.68C2500.94 313.488 2501.25 313.349 2501.59 313.264C2501.93 313.168 2502.28 313.12 2502.64 313.12ZM2515.97 320.336C2516.23 320.336 2516.48 320.315 2516.73 320.272C2516.97 320.219 2517.21 320.155 2517.45 320.08V321.776C2517.2 321.883 2516.89 321.973 2516.52 322.048C2516.15 322.123 2515.76 322.16 2515.33 322.16C2514.82 322.16 2514.36 322.075 2513.96 321.904C2513.55 321.733 2513.23 321.44 2512.98 321.024C2512.75 320.608 2512.63 320.032 2512.63 319.296V314.992H2511.48V314.032L2512.79 313.248L2513.46 311.408H2514.9V313.28H2517.35V314.992H2514.9V319.28C2514.9 319.643 2515 319.909 2515.19 320.08C2515.39 320.251 2515.65 320.336 2515.97 320.336ZM2521.47 313.28V322H2519.2V313.28H2521.47ZM2520.34 309.888C2520.68 309.888 2520.97 309.968 2521.22 310.128C2521.46 310.288 2521.59 310.587 2521.59 311.024C2521.59 311.44 2521.46 311.733 2521.22 311.904C2520.97 312.075 2520.68 312.16 2520.34 312.16C2520 312.16 2519.7 312.075 2519.46 311.904C2519.22 311.733 2519.11 311.44 2519.11 311.024C2519.11 310.587 2519.22 310.288 2519.46 310.128C2519.7 309.968 2520 309.888 2520.34 309.888ZM2527.58 320.336C2527.84 320.336 2528.09 320.315 2528.33 320.272C2528.58 320.219 2528.82 320.155 2529.05 320.08V321.776C2528.81 321.883 2528.5 321.973 2528.13 322.048C2527.76 322.123 2527.37 322.16 2526.94 322.16C2526.43 322.16 2525.97 322.075 2525.57 321.904C2525.16 321.733 2524.84 321.44 2524.59 321.024C2524.36 320.608 2524.24 320.032 2524.24 319.296V314.992H2523.09V314.032L2524.4 313.248L2525.07 311.408H2526.51V313.28H2528.96V314.992H2526.51V319.28C2526.51 319.643 2526.61 319.909 2526.8 320.08C2527 320.251 2527.26 320.336 2527.58 320.336ZM2533.08 322H2530.81V309.84H2533.08V322ZM2539.18 313.12C2539.98 313.12 2540.66 313.275 2541.24 313.584C2541.82 313.893 2542.26 314.341 2542.57 314.928C2542.89 315.515 2543.05 316.229 2543.05 317.072V318.192H2537.38C2537.41 318.896 2537.61 319.451 2537.99 319.856C2538.39 320.251 2538.93 320.448 2539.62 320.448C2540.19 320.448 2540.7 320.395 2541.14 320.288C2541.6 320.171 2542.08 320 2542.57 319.776V321.536C2542.14 321.749 2541.69 321.904 2541.22 322C2540.75 322.107 2540.19 322.16 2539.53 322.16C2538.65 322.16 2537.88 322 2537.21 321.68C2536.55 321.349 2536.02 320.853 2535.64 320.192C2535.27 319.531 2535.08 318.704 2535.08 317.712C2535.08 316.688 2535.25 315.84 2535.59 315.168C2535.93 314.496 2536.41 313.989 2537.02 313.648C2537.63 313.296 2538.35 313.12 2539.18 313.12ZM2539.19 314.752C2538.7 314.752 2538.3 314.912 2537.98 315.232C2537.67 315.541 2537.49 316.021 2537.43 316.672H2540.89C2540.89 316.299 2540.82 315.968 2540.7 315.68C2540.58 315.392 2540.39 315.168 2540.14 315.008C2539.89 314.837 2539.58 314.752 2539.19 314.752Z" fill="#1F1F1F" id="n729"/>
<path d="M2558.58 322L2554.72 311.856H2554.66C2554.68 312.059 2554.69 312.315 2554.7 312.624C2554.73 312.923 2554.74 313.248 2554.74 313.6C2554.75 313.952 2554.75 314.315 2554.75 314.688V322H2553.57V310.576H2555.47L2559.12 320.128H2559.18L2562.88 310.576H2564.77V322H2563.5V314.592C2563.5 314.251 2563.51 313.915 2563.52 313.584C2563.53 313.253 2563.54 312.939 2563.55 312.64C2563.57 312.341 2563.59 312.085 2563.6 311.872H2563.54L2559.63 322H2558.58ZM2571 313.28C2571.74 313.28 2572.36 313.445 2572.87 313.776C2573.39 314.096 2573.79 314.549 2574.06 315.136C2574.33 315.712 2574.47 316.389 2574.47 317.168V317.952H2568.54C2568.56 318.965 2568.81 319.744 2569.29 320.288C2569.78 320.821 2570.47 321.088 2571.37 321.088C2571.9 321.088 2572.38 321.04 2572.79 320.944C2573.21 320.837 2573.64 320.688 2574.09 320.496V321.6C2573.66 321.792 2573.23 321.931 2572.81 322.016C2572.38 322.112 2571.88 322.16 2571.3 322.16C2570.48 322.16 2569.76 321.995 2569.14 321.664C2568.54 321.323 2568.07 320.827 2567.74 320.176C2567.41 319.515 2567.24 318.72 2567.24 317.792C2567.24 316.875 2567.39 316.08 2567.69 315.408C2568 314.736 2568.43 314.213 2569 313.84C2569.57 313.467 2570.23 313.28 2571 313.28ZM2570.98 314.32C2570.28 314.32 2569.72 314.549 2569.3 315.008C2568.89 315.467 2568.64 316.112 2568.57 316.944H2573.16C2573.16 316.421 2573.08 315.968 2572.92 315.584C2572.77 315.189 2572.54 314.88 2572.22 314.656C2571.9 314.432 2571.49 314.32 2570.98 314.32ZM2582.19 319.664C2582.19 320.208 2582.05 320.667 2581.78 321.04C2581.51 321.403 2581.12 321.68 2580.61 321.872C2580.11 322.064 2579.5 322.16 2578.8 322.16C2578.2 322.16 2577.69 322.112 2577.25 322.016C2576.81 321.92 2576.43 321.787 2576.1 321.616V320.464C2576.45 320.635 2576.86 320.789 2577.34 320.928C2577.84 321.067 2578.33 321.136 2578.83 321.136C2579.58 321.136 2580.12 321.013 2580.45 320.768C2580.79 320.523 2580.96 320.192 2580.96 319.776C2580.96 319.531 2580.89 319.317 2580.75 319.136C2580.62 318.955 2580.4 318.779 2580.08 318.608C2579.77 318.437 2579.34 318.251 2578.78 318.048C2578.24 317.845 2577.77 317.643 2577.38 317.44C2576.98 317.237 2576.67 316.987 2576.45 316.688C2576.24 316.389 2576.13 316.005 2576.13 315.536C2576.13 314.811 2576.42 314.256 2576.99 313.872C2577.58 313.477 2578.35 313.28 2579.3 313.28C2579.82 313.28 2580.3 313.333 2580.75 313.44C2581.2 313.536 2581.62 313.669 2582 313.84L2581.57 314.864C2581.34 314.757 2581.1 314.667 2580.83 314.592C2580.58 314.507 2580.31 314.443 2580.03 314.4C2579.77 314.347 2579.49 314.32 2579.22 314.32C2578.61 314.32 2578.14 314.421 2577.81 314.624C2577.49 314.827 2577.33 315.104 2577.33 315.456C2577.33 315.723 2577.4 315.947 2577.55 316.128C2577.7 316.299 2577.94 316.459 2578.27 316.608C2578.61 316.757 2579.05 316.933 2579.57 317.136C2580.1 317.328 2580.56 317.531 2580.94 317.744C2581.34 317.947 2581.64 318.203 2581.86 318.512C2582.08 318.811 2582.19 319.195 2582.19 319.664ZM2589.8 319.664C2589.8 320.208 2589.66 320.667 2589.39 321.04C2589.12 321.403 2588.73 321.68 2588.22 321.872C2587.72 322.064 2587.11 322.16 2586.41 322.16C2585.81 322.16 2585.3 322.112 2584.86 322.016C2584.42 321.92 2584.04 321.787 2583.71 321.616V320.464C2584.06 320.635 2584.47 320.789 2584.95 320.928C2585.44 321.067 2585.94 321.136 2586.44 321.136C2587.19 321.136 2587.73 321.013 2588.06 320.768C2588.4 320.523 2588.57 320.192 2588.57 319.776C2588.57 319.531 2588.5 319.317 2588.36 319.136C2588.23 318.955 2588.01 318.779 2587.69 318.608C2587.38 318.437 2586.95 318.251 2586.39 318.048C2585.85 317.845 2585.38 317.643 2584.99 317.44C2584.59 317.237 2584.28 316.987 2584.06 316.688C2583.84 316.389 2583.74 316.005 2583.74 315.536C2583.74 314.811 2584.03 314.256 2584.6 313.872C2585.19 313.477 2585.96 313.28 2586.91 313.28C2587.43 313.28 2587.91 313.333 2588.36 313.44C2588.81 313.536 2589.23 313.669 2589.61 313.84L2589.18 314.864C2588.95 314.757 2588.71 314.667 2588.44 314.592C2588.19 314.507 2587.92 314.443 2587.64 314.4C2587.38 314.347 2587.1 314.32 2586.83 314.32C2586.22 314.32 2585.75 314.421 2585.42 314.624C2585.1 314.827 2584.94 315.104 2584.94 315.456C2584.94 315.723 2585.01 315.947 2585.16 316.128C2585.31 316.299 2585.55 316.459 2585.88 316.608C2586.22 316.757 2586.66 316.933 2587.18 317.136C2587.71 317.328 2588.17 317.531 2588.55 317.744C2588.95 317.947 2589.25 318.203 2589.47 318.512C2589.69 318.811 2589.8 319.195 2589.8 319.664ZM2595.06 313.296C2596.08 313.296 2596.84 313.531 2597.33 314C2597.82 314.459 2598.07 315.189 2598.07 316.192V322H2597.14L2596.9 320.72H2596.85C2596.62 321.029 2596.37 321.296 2596.1 321.52C2595.84 321.733 2595.54 321.893 2595.19 322C2594.85 322.107 2594.43 322.16 2593.94 322.16C2593.42 322.16 2592.95 322.069 2592.55 321.888C2592.14 321.707 2591.82 321.429 2591.59 321.056C2591.36 320.683 2591.25 320.219 2591.25 319.664C2591.25 318.811 2591.59 318.155 2592.26 317.696C2592.94 317.237 2593.97 316.987 2595.35 316.944L2596.84 316.88V316.352C2596.84 315.595 2596.68 315.067 2596.36 314.768C2596.05 314.469 2595.59 314.32 2595 314.32C2594.55 314.32 2594.12 314.384 2593.72 314.512C2593.32 314.64 2592.94 314.795 2592.56 314.976L2592.18 314.016C2592.56 313.813 2593.01 313.643 2593.51 313.504C2594.01 313.365 2594.53 313.296 2595.06 313.296ZM2595.51 317.824C2594.44 317.867 2593.68 318.043 2593.24 318.352C2592.79 318.661 2592.56 319.104 2592.56 319.68C2592.56 320.171 2592.71 320.539 2593.01 320.784C2593.32 321.019 2593.72 321.136 2594.21 321.136C2594.99 321.136 2595.62 320.923 2596.1 320.496C2596.58 320.059 2596.82 319.413 2596.82 318.56V317.776L2595.51 317.824ZM2603.79 313.28C2604.39 313.28 2604.91 313.397 2605.36 313.632C2605.81 313.856 2606.19 314.187 2606.5 314.624H2606.58L2606.75 313.44H2607.74V322.176C2607.74 322.965 2607.61 323.632 2607.34 324.176C2607.08 324.731 2606.66 325.147 2606.1 325.424C2605.54 325.701 2604.83 325.84 2603.95 325.84C2603.33 325.84 2602.77 325.792 2602.26 325.696C2601.74 325.6 2601.28 325.467 2600.88 325.296V324.112C2601.16 324.251 2601.46 324.368 2601.79 324.464C2602.12 324.571 2602.47 324.651 2602.85 324.704C2603.23 324.757 2603.63 324.784 2604.03 324.784C2604.82 324.784 2605.43 324.56 2605.86 324.112C2606.28 323.664 2606.5 323.051 2606.5 322.272V321.888C2606.5 321.739 2606.5 321.547 2606.51 321.312C2606.52 321.067 2606.53 320.88 2606.54 320.752H2606.5C2606.21 321.221 2605.83 321.573 2605.38 321.808C2604.93 322.043 2604.39 322.16 2603.78 322.16C2602.67 322.16 2601.8 321.776 2601.18 321.008C2600.56 320.24 2600.26 319.157 2600.26 317.76C2600.26 316.843 2600.39 316.048 2600.67 315.376C2600.95 314.704 2601.35 314.187 2601.87 313.824C2602.4 313.461 2603.04 313.28 2603.79 313.28ZM2603.95 314.352C2603.44 314.352 2603 314.485 2602.64 314.752C2602.29 315.019 2602.02 315.408 2601.82 315.92C2601.64 316.421 2601.55 317.04 2601.55 317.776C2601.55 318.853 2601.75 319.68 2602.16 320.256C2602.58 320.832 2603.17 321.12 2603.95 321.12C2604.42 321.12 2604.82 321.056 2605.14 320.928C2605.46 320.8 2605.72 320.608 2605.92 320.352C2606.13 320.096 2606.28 319.776 2606.37 319.392C2606.46 319.008 2606.51 318.565 2606.51 318.064V317.664C2606.51 316.896 2606.42 316.272 2606.24 315.792C2606.07 315.301 2605.8 314.939 2605.42 314.704C2605.05 314.469 2604.56 314.352 2603.95 314.352ZM2613.78 313.28C2614.52 313.28 2615.14 313.445 2615.65 313.776C2616.18 314.096 2616.57 314.549 2616.84 315.136C2617.11 315.712 2617.25 316.389 2617.25 317.168V317.952H2611.32C2611.34 318.965 2611.59 319.744 2612.07 320.288C2612.56 320.821 2613.25 321.088 2614.15 321.088C2614.68 321.088 2615.16 321.04 2615.57 320.944C2615.99 320.837 2616.42 320.688 2616.87 320.496V321.6C2616.44 321.792 2616.02 321.931 2615.59 322.016C2615.16 322.112 2614.66 322.16 2614.09 322.16C2613.26 322.16 2612.54 321.995 2611.93 321.664C2611.32 321.323 2610.85 320.827 2610.52 320.176C2610.19 319.515 2610.02 318.72 2610.02 317.792C2610.02 316.875 2610.17 316.08 2610.47 315.408C2610.78 314.736 2611.22 314.213 2611.78 313.84C2612.35 313.467 2613.01 313.28 2613.78 313.28ZM2613.77 314.32C2613.06 314.32 2612.5 314.549 2612.09 315.008C2611.67 315.467 2611.42 316.112 2611.35 316.944H2615.94C2615.94 316.421 2615.86 315.968 2615.7 315.584C2615.55 315.189 2615.32 314.88 2615 314.656C2614.68 314.432 2614.27 314.32 2613.77 314.32ZM2626.33 321.12C2626.55 321.12 2626.77 321.104 2626.99 321.072C2627.21 321.029 2627.4 320.987 2627.55 320.944V321.904C2627.39 321.979 2627.17 322.037 2626.91 322.08C2626.65 322.133 2626.39 322.16 2626.12 322.16C2625.67 322.16 2625.27 322.08 2624.91 321.92C2624.54 321.76 2624.25 321.493 2624.03 321.12C2623.81 320.736 2623.71 320.208 2623.71 319.536V314.432H2622.47V313.808L2623.72 313.328L2624.2 311.456H2624.97V313.44H2627.48V314.432H2624.97V319.504C2624.97 320.048 2625.09 320.453 2625.32 320.72C2625.57 320.987 2625.9 321.12 2626.33 321.12ZM2632.58 313.28C2633.31 313.28 2633.94 313.445 2634.45 313.776C2634.97 314.096 2635.37 314.549 2635.63 315.136C2635.91 315.712 2636.05 316.389 2636.05 317.168V317.952H2630.11C2630.14 318.965 2630.39 319.744 2630.87 320.288C2631.36 320.821 2632.05 321.088 2632.95 321.088C2633.48 321.088 2633.95 321.04 2634.37 320.944C2634.79 320.837 2635.22 320.688 2635.67 320.496V321.6C2635.24 321.792 2634.81 321.931 2634.39 322.016C2633.96 322.112 2633.46 322.16 2632.88 322.16C2632.06 322.16 2631.34 321.995 2630.72 321.664C2630.11 321.323 2629.64 320.827 2629.31 320.176C2628.98 319.515 2628.82 318.72 2628.82 317.792C2628.82 316.875 2628.97 316.08 2629.27 315.408C2629.58 314.736 2630.01 314.213 2630.58 313.84C2631.14 313.467 2631.81 313.28 2632.58 313.28ZM2632.56 314.32C2631.86 314.32 2631.3 314.549 2630.88 315.008C2630.47 315.467 2630.22 316.112 2630.15 316.944H2634.74C2634.74 316.421 2634.66 315.968 2634.5 315.584C2634.35 315.189 2634.11 314.88 2633.79 314.656C2633.47 314.432 2633.06 314.32 2632.56 314.32ZM2639.97 317.616L2637.01 313.44H2638.45L2640.74 316.768L2642.99 313.44H2644.42L2641.47 317.616L2644.59 322H2643.15L2640.74 318.48L2638.29 322H2636.87L2639.97 317.616ZM2649 321.12C2649.23 321.12 2649.44 321.104 2649.66 321.072C2649.88 321.029 2650.07 320.987 2650.22 320.944V321.904C2650.06 321.979 2649.84 322.037 2649.58 322.08C2649.32 322.133 2649.06 322.16 2648.79 322.16C2648.35 322.16 2647.94 322.08 2647.58 321.92C2647.22 321.76 2646.92 321.493 2646.7 321.12C2646.48 320.736 2646.38 320.208 2646.38 319.536V314.432H2645.15V313.808L2646.39 313.328L2646.87 311.456H2647.64V313.44H2650.15V314.432H2647.64V319.504C2647.64 320.048 2647.76 320.453 2647.99 320.72C2648.24 320.987 2648.58 321.12 2649 321.12ZM2659.18 313.28C2659.78 313.28 2660.3 313.397 2660.75 313.632C2661.2 313.856 2661.58 314.187 2661.89 314.624H2661.97L2662.14 313.44H2663.13V322.176C2663.13 322.965 2663 323.632 2662.73 324.176C2662.47 324.731 2662.05 325.147 2661.49 325.424C2660.93 325.701 2660.22 325.84 2659.34 325.84C2658.72 325.84 2658.16 325.792 2657.65 325.696C2657.13 325.6 2656.68 325.467 2656.27 325.296V324.112C2656.55 324.251 2656.85 324.368 2657.18 324.464C2657.51 324.571 2657.86 324.651 2658.24 324.704C2658.62 324.757 2659.02 324.784 2659.42 324.784C2660.21 324.784 2660.82 324.56 2661.25 324.112C2661.67 323.664 2661.89 323.051 2661.89 322.272V321.888C2661.89 321.739 2661.89 321.547 2661.9 321.312C2661.91 321.067 2661.92 320.88 2661.93 320.752H2661.89C2661.6 321.221 2661.22 321.573 2660.77 321.808C2660.32 322.043 2659.78 322.16 2659.17 322.16C2658.06 322.16 2657.19 321.776 2656.57 321.008C2655.96 320.24 2655.65 319.157 2655.65 317.76C2655.65 316.843 2655.78 316.048 2656.06 315.376C2656.34 314.704 2656.74 314.187 2657.26 313.824C2657.8 313.461 2658.44 313.28 2659.18 313.28ZM2659.34 314.352C2658.83 314.352 2658.39 314.485 2658.03 314.752C2657.68 315.019 2657.41 315.408 2657.21 315.92C2657.03 316.421 2656.94 317.04 2656.94 317.776C2656.94 318.853 2657.14 319.68 2657.55 320.256C2657.97 320.832 2658.56 321.12 2659.34 321.12C2659.81 321.12 2660.21 321.056 2660.53 320.928C2660.85 320.8 2661.11 320.608 2661.31 320.352C2661.52 320.096 2661.67 319.776 2661.76 319.392C2661.85 319.008 2661.9 318.565 2661.9 318.064V317.664C2661.9 316.896 2661.81 316.272 2661.63 315.792C2661.46 315.301 2661.19 314.939 2660.81 314.704C2660.44 314.469 2659.95 314.352 2659.34 314.352ZM2673.25 317.712C2673.25 318.405 2673.16 319.029 2672.98 319.584C2672.8 320.128 2672.54 320.592 2672.2 320.976C2671.85 321.36 2671.44 321.653 2670.95 321.856C2670.46 322.059 2669.91 322.16 2669.3 322.16C2668.72 322.16 2668.2 322.059 2667.72 321.856C2667.25 321.653 2666.84 321.36 2666.48 320.976C2666.14 320.592 2665.88 320.128 2665.68 319.584C2665.5 319.04 2665.41 318.416 2665.41 317.712C2665.41 316.773 2665.57 315.979 2665.88 315.328C2666.2 314.667 2666.65 314.16 2667.24 313.808C2667.83 313.456 2668.54 313.28 2669.35 313.28C2670.14 313.28 2670.82 313.456 2671.4 313.808C2671.98 314.16 2672.44 314.667 2672.76 315.328C2673.09 315.989 2673.25 316.784 2673.25 317.712ZM2666.71 317.712C2666.71 318.395 2666.8 318.992 2666.98 319.504C2667.17 320.016 2667.46 320.411 2667.84 320.688C2668.23 320.965 2668.72 321.104 2669.32 321.104C2669.92 321.104 2670.42 320.965 2670.8 320.688C2671.2 320.411 2671.49 320.016 2671.67 319.504C2671.85 318.992 2671.94 318.395 2671.94 317.712C2671.94 317.019 2671.84 316.427 2671.65 315.936C2671.47 315.435 2671.19 315.045 2670.8 314.768C2670.43 314.491 2669.93 314.352 2669.32 314.352C2668.42 314.352 2667.76 314.651 2667.33 315.248C2666.92 315.835 2666.71 316.656 2666.71 317.712ZM2678.77 313.28C2679.5 313.28 2680.13 313.445 2680.64 313.776C2681.16 314.096 2681.55 314.549 2681.82 315.136C2682.1 315.712 2682.24 316.389 2682.24 317.168V317.952H2676.3C2676.32 318.965 2676.57 319.744 2677.05 320.288C2677.54 320.821 2678.24 321.088 2679.13 321.088C2679.67 321.088 2680.14 321.04 2680.56 320.944C2680.97 320.837 2681.41 320.688 2681.85 320.496V321.6C2681.43 321.792 2681 321.931 2680.57 322.016C2680.15 322.112 2679.65 322.16 2679.07 322.16C2678.25 322.16 2677.53 321.995 2676.91 321.664C2676.3 321.323 2675.83 320.827 2675.5 320.176C2675.17 319.515 2675.01 318.72 2675.01 317.792C2675.01 316.875 2675.15 316.08 2675.45 315.408C2675.76 314.736 2676.2 314.213 2676.77 313.84C2677.33 313.467 2678 313.28 2678.77 313.28ZM2678.75 314.32C2678.05 314.32 2677.49 314.549 2677.07 315.008C2676.65 315.467 2676.41 316.112 2676.33 316.944H2680.93C2680.93 316.421 2680.85 315.968 2680.69 315.584C2680.54 315.189 2680.3 314.88 2679.98 314.656C2679.66 314.432 2679.25 314.32 2678.75 314.32ZM2689.96 319.664C2689.96 320.208 2689.82 320.667 2689.54 321.04C2689.28 321.403 2688.89 321.68 2688.37 321.872C2687.87 322.064 2687.27 322.16 2686.57 322.16C2685.97 322.16 2685.45 322.112 2685.01 322.016C2684.58 321.92 2684.19 321.787 2683.86 321.616V320.464C2684.21 320.635 2684.63 320.789 2685.11 320.928C2685.6 321.067 2686.1 321.136 2686.6 321.136C2687.35 321.136 2687.88 321.013 2688.21 320.768C2688.56 320.523 2688.73 320.192 2688.73 319.776C2688.73 319.531 2688.66 319.317 2688.52 319.136C2688.39 318.955 2688.17 318.779 2687.85 318.608C2687.54 318.437 2687.11 318.251 2686.55 318.048C2686.01 317.845 2685.54 317.643 2685.14 317.44C2684.75 317.237 2684.44 316.987 2684.21 316.688C2684 316.389 2683.89 316.005 2683.89 315.536C2683.89 314.811 2684.18 314.256 2684.76 313.872C2685.35 313.477 2686.11 313.28 2687.06 313.28C2687.59 313.28 2688.07 313.333 2688.52 313.44C2688.97 313.536 2689.38 313.669 2689.77 313.84L2689.33 314.864C2689.11 314.757 2688.87 314.667 2688.6 314.592C2688.34 314.507 2688.08 314.443 2687.8 314.4C2687.53 314.347 2687.26 314.32 2686.98 314.32C2686.37 314.32 2685.91 314.421 2685.57 314.624C2685.25 314.827 2685.09 315.104 2685.09 315.456C2685.09 315.723 2685.17 315.947 2685.32 316.128C2685.47 316.299 2685.71 316.459 2686.04 316.608C2686.38 316.757 2686.81 316.933 2687.33 317.136C2687.87 317.328 2688.33 317.531 2688.71 317.744C2689.11 317.947 2689.41 318.203 2689.62 318.512C2689.85 318.811 2689.96 319.195 2689.96 319.664ZM2697.45 313.504C2697.45 313.717 2697.45 313.931 2697.44 314.144C2697.43 314.347 2697.41 314.539 2697.39 314.72H2697.47C2697.64 314.411 2697.86 314.155 2698.14 313.952C2698.42 313.739 2698.73 313.579 2699.08 313.472C2699.44 313.355 2699.81 313.296 2700.2 313.296C2700.89 313.296 2701.46 313.408 2701.92 313.632C2702.37 313.845 2702.72 314.181 2702.96 314.64C2703.19 315.099 2703.31 315.691 2703.31 316.416V322H2702.06V316.512C2702.06 315.776 2701.89 315.232 2701.56 314.88C2701.23 314.528 2700.73 314.352 2700.06 314.352C2699.42 314.352 2698.91 314.475 2698.52 314.72C2698.15 314.955 2697.88 315.307 2697.71 315.776C2697.54 316.245 2697.45 316.821 2697.45 317.504V322H2696.2V309.84H2697.45V313.504ZM2709.27 313.28C2710 313.28 2710.63 313.445 2711.14 313.776C2711.66 314.096 2712.05 314.549 2712.32 315.136C2712.6 315.712 2712.74 316.389 2712.74 317.168V317.952H2706.8C2706.82 318.965 2707.07 319.744 2707.55 320.288C2708.04 320.821 2708.74 321.088 2709.63 321.088C2710.17 321.088 2710.64 321.04 2711.06 320.944C2711.47 320.837 2711.91 320.688 2712.35 320.496V321.6C2711.93 321.792 2711.5 321.931 2711.07 322.016C2710.65 322.112 2710.15 322.16 2709.57 322.16C2708.75 322.16 2708.03 321.995 2707.41 321.664C2706.8 321.323 2706.33 320.827 2706 320.176C2705.67 319.515 2705.51 318.72 2705.51 317.792C2705.51 316.875 2705.65 316.08 2705.95 315.408C2706.26 314.736 2706.7 314.213 2707.27 313.84C2707.83 313.467 2708.5 313.28 2709.27 313.28ZM2709.25 314.32C2708.55 314.32 2707.99 314.549 2707.57 315.008C2707.15 315.467 2706.91 316.112 2706.83 316.944H2711.43C2711.43 316.421 2711.35 315.968 2711.19 315.584C2711.04 315.189 2710.8 314.88 2710.48 314.656C2710.16 314.432 2709.75 314.32 2709.25 314.32ZM2718.78 313.296C2718.96 313.296 2719.14 313.307 2719.32 313.328C2719.51 313.339 2719.69 313.36 2719.83 313.392L2719.67 314.56C2719.53 314.517 2719.37 314.485 2719.19 314.464C2719.03 314.443 2718.87 314.432 2718.7 314.432C2718.36 314.432 2718.03 314.507 2717.72 314.656C2717.42 314.795 2717.16 314.992 2716.92 315.248C2716.7 315.504 2716.52 315.813 2716.39 316.176C2716.27 316.539 2716.2 316.944 2716.2 317.392V322H2714.94V313.44H2715.98L2716.11 315.024H2716.17C2716.34 314.704 2716.55 314.416 2716.79 314.16C2717.05 313.893 2717.34 313.685 2717.67 313.536C2718.02 313.376 2718.38 313.296 2718.78 313.296ZM2724.42 313.28C2725.16 313.28 2725.78 313.445 2726.29 313.776C2726.82 314.096 2727.21 314.549 2727.48 315.136C2727.75 315.712 2727.89 316.389 2727.89 317.168V317.952H2721.96C2721.98 318.965 2722.23 319.744 2722.71 320.288C2723.2 320.821 2723.89 321.088 2724.79 321.088C2725.32 321.088 2725.8 321.04 2726.21 320.944C2726.63 320.837 2727.06 320.688 2727.51 320.496V321.6C2727.08 321.792 2726.66 321.931 2726.23 322.016C2725.8 322.112 2725.3 322.16 2724.73 322.16C2723.9 322.16 2723.18 321.995 2722.57 321.664C2721.96 321.323 2721.49 320.827 2721.16 320.176C2720.83 319.515 2720.66 318.72 2720.66 317.792C2720.66 316.875 2720.81 316.08 2721.11 315.408C2721.42 314.736 2721.86 314.213 2722.42 313.84C2722.99 313.467 2723.65 313.28 2724.42 313.28ZM2724.41 314.32C2723.7 314.32 2723.14 314.549 2722.73 315.008C2722.31 315.467 2722.06 316.112 2721.99 316.944H2726.58C2726.58 316.421 2726.5 315.968 2726.34 315.584C2726.19 315.189 2725.96 314.88 2725.64 314.656C2725.32 314.432 2724.91 314.32 2724.41 314.32ZM2731.63 320.32C2731.53 320.693 2731.41 321.099 2731.26 321.536C2731.12 321.973 2730.97 322.405 2730.8 322.832C2730.64 323.269 2730.47 323.68 2730.3 324.064H2729.37C2729.48 323.637 2729.59 323.195 2729.69 322.736C2729.8 322.277 2729.89 321.824 2729.97 321.376C2730.05 320.928 2730.12 320.517 2730.17 320.144H2731.53L2731.63 320.32ZM2743.85 319.664C2743.85 320.208 2743.71 320.667 2743.43 321.04C2743.17 321.403 2742.78 321.68 2742.27 321.872C2741.76 322.064 2741.16 322.16 2740.46 322.16C2739.86 322.16 2739.34 322.112 2738.91 322.016C2738.47 321.92 2738.08 321.787 2737.75 321.616V320.464C2738.11 320.635 2738.52 320.789 2739 320.928C2739.49 321.067 2739.99 321.136 2740.49 321.136C2741.24 321.136 2741.77 321.013 2742.11 320.768C2742.45 320.523 2742.62 320.192 2742.62 319.776C2742.62 319.531 2742.55 319.317 2742.41 319.136C2742.28 318.955 2742.06 318.779 2741.74 318.608C2741.43 318.437 2741 318.251 2740.44 318.048C2739.9 317.845 2739.43 317.643 2739.03 317.44C2738.64 317.237 2738.33 316.987 2738.11 316.688C2737.89 316.389 2737.79 316.005 2737.79 315.536C2737.79 314.811 2738.07 314.256 2738.65 313.872C2739.24 313.477 2740 313.28 2740.95 313.28C2741.48 313.28 2741.96 313.333 2742.41 313.44C2742.86 313.536 2743.27 313.669 2743.66 313.84L2743.23 314.864C2743 314.757 2742.76 314.667 2742.49 314.592C2742.23 314.507 2741.97 314.443 2741.69 314.4C2741.42 314.347 2741.15 314.32 2740.87 314.32C2740.27 314.32 2739.8 314.421 2739.47 314.624C2739.15 314.827 2738.99 315.104 2738.99 315.456C2738.99 315.723 2739.06 315.947 2739.21 316.128C2739.36 316.299 2739.6 316.459 2739.93 316.608C2740.27 316.757 2740.7 316.933 2741.23 317.136C2741.76 317.328 2742.22 317.531 2742.6 317.744C2743 317.947 2743.3 318.203 2743.51 318.512C2743.74 318.811 2743.85 319.195 2743.85 319.664ZM2753.3 317.712C2753.3 318.405 2753.21 319.029 2753.03 319.584C2752.85 320.128 2752.58 320.592 2752.24 320.976C2751.9 321.36 2751.49 321.653 2750.99 321.856C2750.5 322.059 2749.95 322.16 2749.35 322.16C2748.77 322.16 2748.24 322.059 2747.76 321.856C2747.29 321.653 2746.88 321.36 2746.53 320.976C2746.19 320.592 2745.92 320.128 2745.73 319.584C2745.55 319.04 2745.46 318.416 2745.46 317.712C2745.46 316.773 2745.61 315.979 2745.92 315.328C2746.24 314.667 2746.7 314.16 2747.28 313.808C2747.88 313.456 2748.58 313.28 2749.39 313.28C2750.18 313.28 2750.87 313.456 2751.44 313.808C2752.03 314.16 2752.48 314.667 2752.8 315.328C2753.13 315.989 2753.3 316.784 2753.3 317.712ZM2746.75 317.712C2746.75 318.395 2746.85 318.992 2747.03 319.504C2747.22 320.016 2747.51 320.411 2747.89 320.688C2748.27 320.965 2748.77 321.104 2749.36 321.104C2749.97 321.104 2750.47 320.965 2750.85 320.688C2751.25 320.411 2751.53 320.016 2751.71 319.504C2751.9 318.992 2751.99 318.395 2751.99 317.712C2751.99 317.019 2751.89 316.427 2751.7 315.936C2751.52 315.435 2751.23 315.045 2750.85 314.768C2750.48 314.491 2749.98 314.352 2749.36 314.352C2748.47 314.352 2747.81 314.651 2747.38 315.248C2746.96 315.835 2746.75 316.656 2746.75 317.712ZM2764.78 313.28C2765.72 313.28 2766.42 313.525 2766.89 314.016C2767.37 314.507 2767.61 315.296 2767.61 316.384V322H2766.38V316.448C2766.38 315.744 2766.23 315.221 2765.92 314.88C2765.62 314.528 2765.17 314.352 2764.57 314.352C2763.75 314.352 2763.15 314.592 2762.76 315.072C2762.38 315.541 2762.19 316.251 2762.19 317.2V322H2760.96V316.448C2760.96 315.979 2760.89 315.589 2760.75 315.28C2760.61 314.96 2760.41 314.725 2760.14 314.576C2759.87 314.427 2759.54 314.352 2759.15 314.352C2758.58 314.352 2758.12 314.469 2757.77 314.704C2757.43 314.939 2757.18 315.285 2757.02 315.744C2756.86 316.192 2756.78 316.757 2756.78 317.44V322H2755.53V313.44H2756.54L2756.73 314.672H2756.8C2756.98 314.373 2757.19 314.123 2757.44 313.92C2757.69 313.707 2757.98 313.547 2758.3 313.44C2758.63 313.333 2758.98 313.28 2759.36 313.28C2760.01 313.28 2760.55 313.403 2760.99 313.648C2761.43 313.893 2761.75 314.267 2761.95 314.768H2762.01C2762.29 314.277 2762.67 313.909 2763.16 313.664C2763.65 313.408 2764.19 313.28 2764.78 313.28ZM2773.58 313.28C2774.31 313.28 2774.94 313.445 2775.45 313.776C2775.97 314.096 2776.37 314.549 2776.63 315.136C2776.91 315.712 2777.05 316.389 2777.05 317.168V317.952H2771.11C2771.14 318.965 2771.39 319.744 2771.87 320.288C2772.36 320.821 2773.05 321.088 2773.95 321.088C2774.48 321.088 2774.95 321.04 2775.37 320.944C2775.79 320.837 2776.22 320.688 2776.67 320.496V321.6C2776.24 321.792 2775.81 321.931 2775.39 322.016C2774.96 322.112 2774.46 322.16 2773.88 322.16C2773.06 322.16 2772.34 321.995 2771.72 321.664C2771.11 321.323 2770.64 320.827 2770.31 320.176C2769.98 319.515 2769.82 318.72 2769.82 317.792C2769.82 316.875 2769.97 316.08 2770.27 315.408C2770.58 314.736 2771.01 314.213 2771.58 313.84C2772.14 313.467 2772.81 313.28 2773.58 313.28ZM2773.56 314.32C2772.86 314.32 2772.3 314.549 2771.88 315.008C2771.47 315.467 2771.22 316.112 2771.15 316.944H2775.74C2775.74 316.421 2775.66 315.968 2775.5 315.584C2775.35 315.189 2775.11 314.88 2774.79 314.656C2774.47 314.432 2774.06 314.32 2773.56 314.32ZM2781.97 321.12C2782.2 321.12 2782.41 321.104 2782.63 321.072C2782.85 321.029 2783.04 320.987 2783.19 320.944V321.904C2783.03 321.979 2782.81 322.037 2782.55 322.08C2782.29 322.133 2782.03 322.16 2781.76 322.16C2781.32 322.16 2780.91 322.08 2780.55 321.92C2780.18 321.76 2779.89 321.493 2779.67 321.12C2779.45 320.736 2779.35 320.208 2779.35 319.536V314.432H2778.12V313.808L2779.36 313.328L2779.84 311.456H2780.61V313.44H2783.12V314.432H2780.61V319.504C2780.61 320.048 2780.73 320.453 2780.96 320.72C2781.21 320.987 2781.54 321.12 2781.97 321.12ZM2786.19 313.504C2786.19 313.717 2786.18 313.931 2786.17 314.144C2786.16 314.347 2786.14 314.539 2786.12 314.72H2786.2C2786.37 314.411 2786.6 314.155 2786.87 313.952C2787.15 313.739 2787.47 313.579 2787.82 313.472C2788.17 313.355 2788.54 313.296 2788.94 313.296C2789.62 313.296 2790.19 313.408 2790.65 313.632C2791.11 313.845 2791.46 314.181 2791.69 314.64C2791.93 315.099 2792.04 315.691 2792.04 316.416V322H2790.79V316.512C2790.79 315.776 2790.63 315.232 2790.3 314.88C2789.97 314.528 2789.47 314.352 2788.79 314.352C2788.15 314.352 2787.64 314.475 2787.26 314.72C2786.89 314.955 2786.61 315.307 2786.44 315.776C2786.27 316.245 2786.19 316.821 2786.19 317.504V322H2784.94V309.84H2786.19V313.504ZM2795.97 313.44V322H2794.72V313.44H2795.97ZM2795.36 310.24C2795.57 310.24 2795.75 310.309 2795.89 310.448C2796.04 310.587 2796.11 310.8 2796.11 311.088C2796.11 311.355 2796.04 311.563 2795.89 311.712C2795.75 311.851 2795.57 311.92 2795.36 311.92C2795.14 311.92 2794.95 311.851 2794.8 311.712C2794.66 311.563 2794.59 311.355 2794.59 311.088C2794.59 310.8 2794.66 310.587 2794.8 310.448C2794.95 310.309 2795.14 310.24 2795.36 310.24ZM2802.75 313.28C2803.75 313.28 2804.52 313.531 2805.04 314.032C2805.56 314.523 2805.82 315.317 2805.82 316.416V322H2804.58V316.512C2804.58 315.776 2804.41 315.232 2804.08 314.88C2803.75 314.528 2803.25 314.352 2802.58 314.352C2801.63 314.352 2800.95 314.619 2800.56 315.152C2800.17 315.685 2799.97 316.464 2799.97 317.488V322H2798.72V313.44H2799.73L2799.92 314.704H2799.98C2800.18 314.395 2800.41 314.139 2800.69 313.936C2800.97 313.723 2801.28 313.563 2801.63 313.456C2801.98 313.339 2802.36 313.28 2802.75 313.28ZM2811.56 313.28C2812.15 313.28 2812.68 313.397 2813.13 313.632C2813.57 313.856 2813.95 314.187 2814.26 314.624H2814.34L2814.52 313.44H2815.51V322.176C2815.51 322.965 2815.38 323.632 2815.11 324.176C2814.84 324.731 2814.43 325.147 2813.86 325.424C2813.31 325.701 2812.59 325.84 2811.72 325.84C2811.1 325.84 2810.53 325.792 2810.02 325.696C2809.51 325.6 2809.05 325.467 2808.65 325.296V324.112C2808.92 324.251 2809.23 324.368 2809.56 324.464C2809.89 324.571 2810.24 324.651 2810.61 324.704C2811 324.757 2811.39 324.784 2811.8 324.784C2812.59 324.784 2813.19 324.56 2813.62 324.112C2814.05 323.664 2814.26 323.051 2814.26 322.272V321.888C2814.26 321.739 2814.27 321.547 2814.28 321.312C2814.29 321.067 2814.3 320.88 2814.31 320.752H2814.26C2813.97 321.221 2813.6 321.573 2813.14 321.808C2812.69 322.043 2812.16 322.16 2811.54 322.16C2810.43 322.16 2809.57 321.776 2808.95 321.008C2808.33 320.24 2808.02 319.157 2808.02 317.76C2808.02 316.843 2808.16 316.048 2808.44 315.376C2808.71 314.704 2809.11 314.187 2809.64 313.824C2810.17 313.461 2810.81 313.28 2811.56 313.28ZM2811.72 314.352C2811.21 314.352 2810.77 314.485 2810.41 314.752C2810.05 315.019 2809.78 315.408 2809.59 315.92C2809.41 316.421 2809.32 317.04 2809.32 317.776C2809.32 318.853 2809.52 319.68 2809.93 320.256C2810.34 320.832 2810.94 321.12 2811.72 321.12C2812.19 321.12 2812.58 321.056 2812.9 320.928C2813.22 320.8 2813.48 320.608 2813.69 320.352C2813.9 320.096 2814.05 319.776 2814.13 319.392C2814.23 319.008 2814.28 318.565 2814.28 318.064V317.664C2814.28 316.896 2814.19 316.272 2814.01 315.792C2813.83 315.301 2813.56 314.939 2813.19 314.704C2812.82 314.469 2812.33 314.352 2811.72 314.352ZM2823.67 313.44V322H2822.42V313.44H2823.67ZM2823.06 310.24C2823.28 310.24 2823.45 310.309 2823.59 310.448C2823.74 310.587 2823.81 310.8 2823.81 311.088C2823.81 311.355 2823.74 311.563 2823.59 311.712C2823.45 311.851 2823.28 311.92 2823.06 311.92C2822.84 311.92 2822.65 311.851 2822.5 311.712C2822.36 311.563 2822.29 311.355 2822.29 311.088C2822.29 310.8 2822.36 310.587 2822.5 310.448C2822.65 310.309 2822.84 310.24 2823.06 310.24ZM2830.45 313.28C2831.46 313.28 2832.22 313.531 2832.74 314.032C2833.27 314.523 2833.53 315.317 2833.53 316.416V322H2832.28V316.512C2832.28 315.776 2832.11 315.232 2831.78 314.88C2831.45 314.528 2830.95 314.352 2830.28 314.352C2829.33 314.352 2828.66 314.619 2828.26 315.152C2827.87 315.685 2827.67 316.464 2827.67 317.488V322H2826.42V313.44H2827.43L2827.62 314.704H2827.69C2827.88 314.395 2828.11 314.139 2828.39 313.936C2828.67 313.723 2828.98 313.563 2829.33 313.456C2829.69 313.339 2830.06 313.28 2830.45 313.28ZM2839.96 314.432H2837.84V322H2836.59V314.432H2835.05V313.824L2836.59 313.408V312.8C2836.59 312.096 2836.69 311.52 2836.89 311.072C2837.11 310.624 2837.41 310.293 2837.82 310.08C2838.23 309.867 2838.72 309.76 2839.29 309.76C2839.62 309.76 2839.92 309.787 2840.19 309.84C2840.47 309.893 2840.71 309.957 2840.91 310.032L2840.59 311.04C2840.41 310.976 2840.2 310.923 2839.98 310.88C2839.76 310.827 2839.53 310.8 2839.31 310.8C2838.81 310.8 2838.43 310.96 2838.19 311.28C2837.95 311.6 2837.84 312.101 2837.84 312.784V313.44H2839.96V314.432ZM2848.89 317.712C2848.89 318.405 2848.8 319.029 2848.62 319.584C2848.44 320.128 2848.18 320.592 2847.84 320.976C2847.49 321.36 2847.08 321.653 2846.59 321.856C2846.1 322.059 2845.55 322.16 2844.94 322.16C2844.36 322.16 2843.84 322.059 2843.36 321.856C2842.89 321.653 2842.48 321.36 2842.12 320.976C2841.78 320.592 2841.52 320.128 2841.32 319.584C2841.14 319.04 2841.05 318.416 2841.05 317.712C2841.05 316.773 2841.21 315.979 2841.52 315.328C2841.84 314.667 2842.29 314.16 2842.88 313.808C2843.47 313.456 2844.18 313.28 2844.99 313.28C2845.78 313.28 2846.46 313.456 2847.04 313.808C2847.62 314.16 2848.08 314.667 2848.4 315.328C2848.73 315.989 2848.89 316.784 2848.89 317.712ZM2842.35 317.712C2842.35 318.395 2842.44 318.992 2842.62 319.504C2842.81 320.016 2843.1 320.411 2843.48 320.688C2843.87 320.965 2844.36 321.104 2844.96 321.104C2845.56 321.104 2846.06 320.965 2846.44 320.688C2846.84 320.411 2847.13 320.016 2847.31 319.504C2847.49 318.992 2847.58 318.395 2847.58 317.712C2847.58 317.019 2847.48 316.427 2847.29 315.936C2847.11 315.435 2846.83 315.045 2846.44 314.768C2846.07 314.491 2845.57 314.352 2844.96 314.352C2844.06 314.352 2843.4 314.651 2842.97 315.248C2842.56 315.835 2842.35 316.656 2842.35 317.712ZM2854.97 313.296C2855.15 313.296 2855.33 313.307 2855.51 313.328C2855.7 313.339 2855.87 313.36 2856.02 313.392L2855.86 314.56C2855.71 314.517 2855.55 314.485 2855.38 314.464C2855.22 314.443 2855.06 314.432 2854.89 314.432C2854.54 314.432 2854.22 314.507 2853.91 314.656C2853.61 314.795 2853.34 314.992 2853.11 315.248C2852.89 315.504 2852.71 315.813 2852.58 316.176C2852.45 316.539 2852.39 316.944 2852.39 317.392V322H2851.13V313.44H2852.17L2852.29 315.024H2852.36C2852.53 314.704 2852.74 314.416 2852.98 314.16C2853.24 313.893 2853.53 313.685 2853.86 313.536C2854.2 313.376 2854.57 313.296 2854.97 313.296ZM2866.89 313.28C2867.83 313.28 2868.53 313.525 2869 314.016C2869.48 314.507 2869.72 315.296 2869.72 316.384V322H2868.49V316.448C2868.49 315.744 2868.33 315.221 2868.03 314.88C2867.73 314.528 2867.28 314.352 2866.68 314.352C2865.86 314.352 2865.26 314.592 2864.87 315.072C2864.49 315.541 2864.3 316.251 2864.3 317.2V322H2863.07V316.448C2863.07 315.979 2863 315.589 2862.86 315.28C2862.72 314.96 2862.52 314.725 2862.25 314.576C2861.98 314.427 2861.65 314.352 2861.26 314.352C2860.69 314.352 2860.23 314.469 2859.88 314.704C2859.54 314.939 2859.29 315.285 2859.13 315.744C2858.97 316.192 2858.89 316.757 2858.89 317.44V322H2857.64V313.44H2858.65L2858.84 314.672H2858.91C2859.09 314.373 2859.3 314.123 2859.55 313.92C2859.8 313.707 2860.09 313.547 2860.41 313.44C2860.74 313.333 2861.09 313.28 2861.47 313.28C2862.12 313.28 2862.66 313.403 2863.1 313.648C2863.53 313.893 2863.85 314.267 2864.06 314.768H2864.12C2864.4 314.277 2864.78 313.909 2865.27 313.664C2865.76 313.408 2866.3 313.28 2866.89 313.28ZM2875.58 313.296C2876.6 313.296 2877.36 313.531 2877.85 314C2878.34 314.459 2878.58 315.189 2878.58 316.192V322H2877.66L2877.42 320.72H2877.37C2877.13 321.029 2876.88 321.296 2876.62 321.52C2876.36 321.733 2876.06 321.893 2875.7 322C2875.36 322.107 2874.95 322.16 2874.46 322.16C2873.93 322.16 2873.47 322.069 2873.06 321.888C2872.66 321.707 2872.34 321.429 2872.1 321.056C2871.88 320.683 2871.77 320.219 2871.77 319.664C2871.77 318.811 2872.1 318.155 2872.78 317.696C2873.46 317.237 2874.49 316.987 2875.86 316.944L2877.35 316.88V316.352C2877.35 315.595 2877.19 315.067 2876.87 314.768C2876.56 314.469 2876.11 314.32 2875.51 314.32C2875.06 314.32 2874.64 314.384 2874.23 314.512C2873.84 314.64 2873.45 314.795 2873.08 314.976L2872.7 314.016C2873.08 313.813 2873.52 313.643 2874.02 313.504C2874.52 313.365 2875.04 313.296 2875.58 313.296ZM2876.02 317.824C2874.96 317.867 2874.2 318.043 2873.75 318.352C2873.3 318.661 2873.08 319.104 2873.08 319.68C2873.08 320.171 2873.23 320.539 2873.53 320.784C2873.84 321.019 2874.24 321.136 2874.73 321.136C2875.51 321.136 2876.14 320.923 2876.62 320.496C2877.1 320.059 2877.34 319.413 2877.34 318.56V317.776L2876.02 317.824ZM2883.97 321.12C2884.2 321.12 2884.41 321.104 2884.63 321.072C2884.85 321.029 2885.04 320.987 2885.19 320.944V321.904C2885.03 321.979 2884.81 322.037 2884.55 322.08C2884.29 322.133 2884.03 322.16 2883.76 322.16C2883.32 322.16 2882.91 322.08 2882.55 321.92C2882.18 321.76 2881.89 321.493 2881.67 321.12C2881.45 320.736 2881.35 320.208 2881.35 319.536V314.432H2880.12V313.808L2881.36 313.328L2881.84 311.456H2882.61V313.44H2885.12V314.432H2882.61V319.504C2882.61 320.048 2882.73 320.453 2882.96 320.72C2883.21 320.987 2883.54 321.12 2883.97 321.12ZM2886.75 321.216C2886.75 320.853 2886.83 320.597 2887 320.448C2887.17 320.299 2887.39 320.224 2887.64 320.224C2887.9 320.224 2888.11 320.299 2888.28 320.448C2888.46 320.597 2888.55 320.853 2888.55 321.216C2888.55 321.557 2888.46 321.808 2888.28 321.968C2888.11 322.128 2887.9 322.208 2887.64 322.208C2887.39 322.208 2887.17 322.128 2887 321.968C2886.83 321.808 2886.75 321.557 2886.75 321.216ZM2890.84 321.216C2890.84 320.853 2890.93 320.597 2891.1 320.448C2891.27 320.299 2891.48 320.224 2891.74 320.224C2891.99 320.224 2892.21 320.299 2892.38 320.448C2892.56 320.597 2892.65 320.853 2892.65 321.216C2892.65 321.557 2892.56 321.808 2892.38 321.968C2892.21 322.128 2891.99 322.208 2891.74 322.208C2891.48 322.208 2891.27 322.128 2891.1 321.968C2890.93 321.808 2890.84 321.557 2890.84 321.216ZM2894.94 321.216C2894.94 320.853 2895.02 320.597 2895.19 320.448C2895.37 320.299 2895.58 320.224 2895.83 320.224C2896.09 320.224 2896.3 320.299 2896.47 320.448C2896.66 320.597 2896.75 320.853 2896.75 321.216C2896.75 321.557 2896.66 321.808 2896.47 321.968C2896.3 322.128 2896.09 322.208 2895.83 322.208C2895.58 322.208 2895.37 322.128 2895.19 321.968C2895.02 321.808 2894.94 321.557 2894.94 321.216Z" fill="#1F1F1F" id="n730"/>
<path d="M2914.52 316.704C2914.52 317.4 2914.47 318.024 2914.35 318.576C2914.25 319.12 2914.09 319.58 2913.86 319.956C2913.64 320.332 2913.35 320.62 2912.99 320.82C2912.63 321.02 2912.19 321.12 2911.69 321.12C2911.07 321.12 2910.54 320.948 2910.12 320.604C2909.7 320.252 2909.39 319.748 2909.18 319.092C2908.98 318.428 2908.88 317.632 2908.88 316.704C2908.88 315.792 2908.97 315.008 2909.16 314.352C2909.34 313.688 2909.64 313.18 2910.06 312.828C2910.47 312.476 2911.02 312.3 2911.69 312.3C2912.34 312.3 2912.87 312.476 2913.29 312.828C2913.7 313.18 2914.01 313.684 2914.21 314.34C2914.42 314.996 2914.52 315.784 2914.52 316.704ZM2909.83 316.704C2909.83 317.512 2909.89 318.184 2910.01 318.72C2910.14 319.248 2910.34 319.648 2910.61 319.92C2910.88 320.184 2911.24 320.316 2911.69 320.316C2912.14 320.316 2912.5 320.184 2912.77 319.92C2913.04 319.656 2913.24 319.256 2913.37 318.72C2913.5 318.184 2913.56 317.512 2913.56 316.704C2913.56 315.912 2913.5 315.252 2913.37 314.724C2913.25 314.188 2913.05 313.784 2912.78 313.512C2912.52 313.24 2912.15 313.104 2911.69 313.104C2911.23 313.104 2910.87 313.244 2910.6 313.524C2910.33 313.796 2910.13 314.2 2910.01 314.736C2909.89 315.264 2909.83 315.92 2909.83 316.704ZM2921.34 316.08C2921.34 316.608 2921.3 317.12 2921.22 317.616C2921.15 318.112 2921.02 318.572 2920.85 318.996C2920.67 319.42 2920.44 319.792 2920.14 320.112C2919.84 320.432 2919.48 320.68 2919.04 320.856C2918.6 321.032 2918.07 321.12 2917.45 321.12C2917.28 321.12 2917.09 321.108 2916.88 321.084C2916.66 321.068 2916.48 321.04 2916.35 321V320.184C2916.49 320.232 2916.66 320.272 2916.85 320.304C2917.05 320.328 2917.25 320.34 2917.44 320.34C2917.98 320.34 2918.44 320.252 2918.81 320.076C2919.18 319.892 2919.47 319.64 2919.7 319.32C2919.93 318.992 2920.1 318.608 2920.2 318.168C2920.31 317.72 2920.38 317.236 2920.39 316.716H2920.32C2920.21 316.908 2920.06 317.088 2919.86 317.256C2919.67 317.416 2919.44 317.544 2919.17 317.64C2918.9 317.736 2918.58 317.784 2918.21 317.784C2917.71 317.784 2917.28 317.68 2916.9 317.472C2916.53 317.264 2916.25 316.968 2916.05 316.584C2915.85 316.2 2915.75 315.736 2915.75 315.192C2915.75 314.6 2915.86 314.088 2916.08 313.656C2916.31 313.224 2916.62 312.892 2917.02 312.66C2917.43 312.428 2917.91 312.312 2918.46 312.312C2918.88 312.312 2919.27 312.396 2919.62 312.564C2919.98 312.724 2920.28 312.964 2920.54 313.284C2920.79 313.604 2920.99 314 2921.12 314.472C2921.27 314.936 2921.34 315.472 2921.34 316.08ZM2918.46 313.116C2917.92 313.116 2917.49 313.288 2917.16 313.632C2916.84 313.976 2916.68 314.492 2916.68 315.18C2916.68 315.756 2916.82 316.208 2917.1 316.536C2917.38 316.864 2917.82 317.028 2918.4 317.028C2918.81 317.028 2919.16 316.948 2919.44 316.788C2919.74 316.628 2919.97 316.424 2920.13 316.176C2920.3 315.928 2920.38 315.672 2920.38 315.408C2920.38 315.16 2920.34 314.9 2920.26 314.628C2920.19 314.356 2920.07 314.108 2919.91 313.884C2919.76 313.652 2919.56 313.468 2919.31 313.332C2919.07 313.188 2918.79 313.116 2918.46 313.116ZM2922.89 320.412C2922.89 320.14 2922.96 319.948 2923.08 319.836C2923.21 319.724 2923.37 319.668 2923.56 319.668C2923.76 319.668 2923.92 319.724 2924.04 319.836C2924.18 319.948 2924.25 320.14 2924.25 320.412C2924.25 320.668 2924.18 320.856 2924.04 320.976C2923.92 321.096 2923.76 321.156 2923.56 321.156C2923.37 321.156 2923.21 321.096 2923.08 320.976C2922.96 320.856 2922.89 320.668 2922.89 320.412ZM2922.89 315.18C2922.89 314.908 2922.96 314.716 2923.08 314.604C2923.21 314.492 2923.37 314.436 2923.56 314.436C2923.76 314.436 2923.92 314.492 2924.04 314.604C2924.18 314.716 2924.25 314.908 2924.25 315.18C2924.25 315.444 2924.18 315.636 2924.04 315.756C2923.92 315.876 2923.76 315.936 2923.56 315.936C2923.37 315.936 2923.21 315.876 2923.08 315.756C2922.96 315.636 2922.89 315.444 2922.89 315.18ZM2929.33 321H2928.41V314.892C2928.41 314.66 2928.41 314.464 2928.41 314.304C2928.42 314.144 2928.42 313.996 2928.42 313.86C2928.43 313.716 2928.44 313.572 2928.44 313.428C2928.32 313.548 2928.21 313.652 2928.11 313.74C2928 313.82 2927.88 313.928 2927.72 314.064L2926.72 314.856L2926.22 314.22L2928.54 312.432H2929.33V321ZM2938.19 321H2932.6V320.22L2934.9 317.856C2935.33 317.432 2935.68 317.052 2935.97 316.716C2936.27 316.38 2936.49 316.048 2936.64 315.72C2936.8 315.392 2936.87 315.028 2936.87 314.628C2936.87 314.14 2936.72 313.768 2936.43 313.512C2936.14 313.248 2935.76 313.116 2935.29 313.116C2934.88 313.116 2934.52 313.188 2934.2 313.332C2933.88 313.476 2933.55 313.676 2933.22 313.932L2932.72 313.296C2932.94 313.104 2933.19 312.936 2933.45 312.792C2933.72 312.64 2934.01 312.524 2934.32 312.444C2934.63 312.356 2934.95 312.312 2935.29 312.312C2935.81 312.312 2936.26 312.404 2936.63 312.588C2937.02 312.772 2937.31 313.036 2937.52 313.38C2937.73 313.716 2937.83 314.116 2937.83 314.58C2937.83 314.924 2937.78 315.248 2937.68 315.552C2937.58 315.848 2937.44 316.14 2937.24 316.428C2937.06 316.708 2936.83 316.996 2936.56 317.292C2936.3 317.58 2936 317.884 2935.68 318.204L2933.79 320.1V320.136H2938.19V321ZM2939.76 320.412C2939.76 320.14 2939.82 319.948 2939.95 319.836C2940.08 319.724 2940.24 319.668 2940.43 319.668C2940.62 319.668 2940.78 319.724 2940.91 319.836C2941.04 319.948 2941.11 320.14 2941.11 320.412C2941.11 320.668 2941.04 320.856 2940.91 320.976C2940.78 321.096 2940.62 321.156 2940.43 321.156C2940.24 321.156 2940.08 321.096 2939.95 320.976C2939.82 320.856 2939.76 320.668 2939.76 320.412ZM2939.76 315.18C2939.76 314.908 2939.82 314.716 2939.95 314.604C2940.08 314.492 2940.24 314.436 2940.43 314.436C2940.62 314.436 2940.78 314.492 2940.91 314.604C2941.04 314.716 2941.11 314.908 2941.11 315.18C2941.11 315.444 2941.04 315.636 2940.91 315.756C2940.78 315.876 2940.62 315.936 2940.43 315.936C2940.24 315.936 2940.08 315.876 2939.95 315.756C2939.82 315.636 2939.76 315.444 2939.76 315.18ZM2948.63 318.996H2947.34V321H2946.42V318.996H2942.26V318.204L2946.35 312.384H2947.34V318.144H2948.63V318.996ZM2946.42 315.3C2946.42 315.084 2946.42 314.892 2946.42 314.724C2946.42 314.548 2946.43 314.388 2946.44 314.244C2946.44 314.092 2946.45 313.948 2946.45 313.812C2946.46 313.668 2946.46 313.532 2946.47 313.404H2946.42C2946.35 313.564 2946.27 313.732 2946.17 313.908C2946.08 314.076 2945.98 314.228 2945.87 314.364L2943.2 318.144H2946.42V315.3ZM2949.55 317.34C2949.55 316.812 2949.58 316.304 2949.66 315.816C2949.74 315.32 2949.86 314.86 2950.04 314.436C2950.22 314.012 2950.45 313.64 2950.75 313.32C2951.04 313 2951.41 312.752 2951.84 312.576C2952.28 312.4 2952.81 312.312 2953.42 312.312C2953.6 312.312 2953.79 312.32 2953.99 312.336C2954.2 312.352 2954.36 312.38 2954.49 312.42V313.236C2954.35 313.188 2954.18 313.152 2954 313.128C2953.82 313.104 2953.63 313.092 2953.44 313.092C2952.9 313.092 2952.44 313.184 2952.07 313.368C2951.7 313.544 2951.4 313.796 2951.18 314.124C2950.96 314.452 2950.79 314.836 2950.68 315.276C2950.57 315.716 2950.51 316.196 2950.48 316.716H2950.56C2950.68 316.524 2950.83 316.348 2951.01 316.188C2951.2 316.02 2951.44 315.888 2951.71 315.792C2951.98 315.696 2952.3 315.648 2952.66 315.648C2953.15 315.648 2953.58 315.752 2953.95 315.96C2954.33 316.168 2954.62 316.464 2954.83 316.848C2955.04 317.232 2955.14 317.7 2955.14 318.252C2955.14 318.836 2955.03 319.344 2954.8 319.776C2954.59 320.208 2954.28 320.54 2953.88 320.772C2953.48 321.004 2953 321.12 2952.44 321.12C2952.02 321.12 2951.63 321.04 2951.28 320.88C2950.92 320.72 2950.62 320.48 2950.35 320.16C2950.1 319.84 2949.9 319.444 2949.75 318.972C2949.62 318.5 2949.55 317.956 2949.55 317.34ZM2952.43 320.316C2952.97 320.316 2953.4 320.148 2953.72 319.812C2954.04 319.468 2954.2 318.948 2954.2 318.252C2954.2 317.684 2954.06 317.236 2953.77 316.908C2953.48 316.572 2953.05 316.404 2952.48 316.404C2952.08 316.404 2951.73 316.484 2951.43 316.644C2951.14 316.804 2950.92 317.008 2950.75 317.256C2950.59 317.504 2950.51 317.756 2950.51 318.012C2950.51 318.276 2950.54 318.544 2950.62 318.816C2950.7 319.08 2950.82 319.328 2950.98 319.56C2951.14 319.784 2951.34 319.968 2951.58 320.112C2951.82 320.248 2952.1 320.316 2952.43 320.316Z" fill="#535353" id="n731"/>
<path d="M2964 300H3002.4C3005.76 300 3007.44 300 3008.72 300.654C3009.85 301.229 3010.77 302.147 3011.35 303.276C3012 304.56 3012 306.24 3012 309.6V322.4C3012 325.76 3012 327.44 3011.35 328.724C3010.77 329.853 3009.85 330.771 3008.72 331.346C3007.44 332 3005.76 332 3002.4 332H2964V300Z" fill="white" id="n733"/>
<path d="M2964 300V299H2963V300H2964ZM2964 332H2963V333H2964V332ZM3011.35 328.724L3010.46 328.27L3011.35 328.724ZM3008.72 331.346L3009.18 332.237L3008.72 331.346ZM3008.72 300.654L3008.27 301.545L3008.72 300.654ZM3011.35 303.276L3012.24 302.822L3011.35 303.276ZM2964 300V301H3002.4V300V299H2964V300ZM3012 309.6H3011V322.4H3012H3013V309.6H3012ZM3002.4 332V331H2964V332V333H3002.4V332ZM2964 332H2965V300H2964H2963V332H2964ZM3012 322.4H3011C3011 324.097 3011 325.309 3010.92 326.259C3010.84 327.198 3010.7 327.793 3010.46 328.27L3011.35 328.724L3012.24 329.178C3012.65 328.372 3012.83 327.485 3012.91 326.422C3013 325.372 3013 324.064 3013 322.4H3012ZM3002.4 332V333C3004.06 333 3005.37 333.001 3006.42 332.915C3007.48 332.828 3008.37 332.648 3009.18 332.237L3008.72 331.346L3008.27 330.455C3007.79 330.698 3007.2 330.845 3006.26 330.922C3005.31 330.999 3004.1 331 3002.4 331V332ZM3011.35 328.724L3010.46 328.27C3009.98 329.211 3009.21 329.976 3008.27 330.455L3008.72 331.346L3009.18 332.237C3010.5 331.566 3011.57 330.495 3012.24 329.178L3011.35 328.724ZM3002.4 300V301C3004.1 301 3005.31 301.001 3006.26 301.078C3007.2 301.155 3007.79 301.302 3008.27 301.545L3008.72 300.654L3009.18 299.763C3008.37 299.352 3007.48 299.172 3006.42 299.085C3005.37 298.999 3004.06 299 3002.4 299V300ZM3012 309.6H3013C3013 307.936 3013 306.628 3012.91 305.578C3012.83 304.515 3012.65 303.628 3012.24 302.822L3011.35 303.276L3010.46 303.73C3010.7 304.207 3010.84 304.802 3010.92 305.741C3011 306.691 3011 307.903 3011 309.6H3012ZM3008.72 300.654L3008.27 301.545C3009.21 302.024 3009.98 302.789 3010.46 303.73L3011.35 303.276L3012.24 302.822C3011.57 301.505 3010.5 300.434 3009.18 299.763L3008.72 300.654Z" fill="#BEBEBE" mask="url(#path-622-inside-106_1702_11540)" id="n734"/>
<path d="M2995 310.41L2993.59 309L2988 314.59L2982.41 309L2981 310.41L2986.59 316L2981 321.59L2982.41 323L2988 317.41L2993.59 323L2995 321.59L2989.41 316L2995 310.41Z" fill="#535353" id="n735"/>
</g>
</svg>
