<?xml version='1.0' encoding='utf-8'?>
<svg xmlns="http://www.w3.org/2000/svg" xmlns:xlink="http://www.w3.org/1999/xlink" width="640.0" height="48.0" viewBox="0 0 640.0 48.0" fill="none">
  <defs><clipPath id="clip__asset"><rect x="0" y="0" width="640.0" height="48.0"/></clipPath><mask id="path-631-inside-108_1702_11540" fill="white">
<path d="M2372 453.6C2372 450.24 2372 448.56 2372.65 447.276C2373.23 446.147 2374.15 445.229 2375.28 444.654C2376.56 444 2378.24 444 2381.6 444H3002.4C3005.76 444 3007.44 444 3008.72 444.654C3009.85 445.229 3010.77 446.147 3011.35 447.276C3012 448.56 3012 450.24 3012 453.6V466.4C3012 469.76 3012 471.44 3011.35 472.724C3010.77 473.853 3009.85 474.771 3008.72 475.346C3007.44 476 3005.76 476 3002.4 476H2381.6C2378.24 476 2376.56 476 2375.28 475.346C2374.15 474.771 2373.23 473.853 2372.65 472.724C2372 471.44 2372 469.76 2372 466.4V453.6Z" id="n743"/>
</mask>
</defs>
  <g clip-path="url(#clip__asset)" transform="translate(-2372.0 -436.0)"><path d="M2372 453.6C2372 450.24 2372 448.56 2372.65 447.276C2373.23 446.147 2374.15 445.229 2375.28 444.654C2376.56 444 2378.24 444 2381.6 444H3002.4C3005.76 444 3007.44 444 3008.72 444.654C3009.85 445.229 3010.77 446.147 3011.35 447.276C3012 448.56 3012 450.24 3012 453.6V466.4C3012 469.76 3012 471.44 3011.35 472.724C3010.77 473.853 3009.85 474.771 3008.72 475.346C3007.44 476 3005.76 476 3002.4 476H2381.6C2378.24 476 2376.56 476 2375.28 475.346C2374.15 474.771 2373.23 473.853 2372.65 472.724C2372 471.44 2372 469.76 2372 466.4V453.6Z" fill="black" fill-opacity="0.04" id="n744"/>
<path d="M2375.28 475.346L2375.73 474.455L2375.28 475.346ZM3011.35 472.724L3012.24 473.178L3011.35 472.724ZM3008.72 475.346L3009.18 476.237L3008.72 475.346ZM3008.72 444.654L3008.27 445.545L3008.72 444.654ZM3011.35 447.276L3010.46 447.73L3011.35 447.276ZM2381.6 444V445H3002.4V444V443H2381.6V444ZM3012 453.6H3011V466.4H3012H3013V453.6H3012ZM3002.4 476V475H2381.6V476V477H3002.4V476ZM2372 466.4H2373V453.6H2372H2371V466.4H2372ZM2381.6 476V475C2379.9 475 2378.69 474.999 2377.74 474.922C2376.8 474.845 2376.21 474.698 2375.73 474.455L2375.28 475.346L2374.82 476.237C2375.63 476.648 2376.52 476.828 2377.58 476.915C2378.63 477.001 2379.94 477 2381.6 477V476ZM2372 466.4H2371C2371 468.064 2371 469.372 2371.09 470.422C2371.17 471.485 2371.35 472.372 2371.76 473.178L2372.65 472.724L2373.54 472.27C2373.3 471.793 2373.16 471.198 2373.08 470.259C2373 469.309 2373 468.097 2373 466.4H2372ZM2375.28 475.346L2375.73 474.455C2374.79 473.976 2374.02 473.211 2373.54 472.27L2372.65 472.724L2371.76 473.178C2372.43 474.495 2373.5 475.566 2374.82 476.237L2375.28 475.346ZM3012 466.4H3011C3011 468.097 3011 469.309 3010.92 470.259C3010.84 471.198 3010.7 471.793 3010.46 472.27L3011.35 472.724L3012.24 473.178C3012.65 472.372 3012.83 471.485 3012.91 470.422C3013 469.372 3013 468.064 3013 466.4H3012ZM3002.4 476V477C3004.06 477 3005.37 477.001 3006.42 476.915C3007.48 476.828 3008.37 476.648 3009.18 476.237L3008.72 475.346L3008.27 474.455C3007.79 474.698 3007.2 474.845 3006.26 474.922C3005.31 474.999 3004.1 475 3002.4 475V476ZM3011.35 472.724L3010.46 472.27C3009.98 473.211 3009.21 473.976 3008.27 474.455L3008.72 475.346L3009.18 476.237C3010.5 475.566 3011.57 474.495 3012.24 473.178L3011.35 472.724ZM3002.4 444V445C3004.1 445 3005.31 445.001 3006.26 445.078C3007.2 445.155 3007.79 445.302 3008.27 445.545L3008.72 444.654L3009.18 443.763C3008.37 443.352 3007.48 443.172 3006.42 443.085C3005.37 442.999 3004.06 443 3002.4 443V444ZM3012 453.6H3013C3013 451.936 3013 450.628 3012.91 449.578C3012.83 448.515 3012.65 447.628 3012.24 446.822L3011.35 447.276L3010.46 447.73C3010.7 448.207 3010.84 448.802 3010.92 449.741C3011 450.691 3011 451.903 3011 453.6H3012ZM3008.72 444.654L3008.27 445.545C3009.21 446.024 3009.98 446.789 3010.46 447.73L3011.35 447.276L3012.24 446.822C3011.57 445.505 3010.5 444.434 3009.18 443.763L3008.72 444.654ZM2381.6 444V443C2379.94 443 2378.63 442.999 2377.58 443.085C2376.52 443.172 2375.63 443.352 2374.82 443.763L2375.28 444.654L2375.73 445.545C2376.21 445.302 2376.8 445.155 2377.74 445.078C2378.69 445.001 2379.9 445 2381.6 445V444ZM2372 453.6H2373C2373 451.903 2373 450.691 2373.08 449.741C2373.16 448.802 2373.3 448.207 2373.54 447.73L2372.65 447.276L2371.76 446.822C2371.35 447.628 2371.17 448.515 2371.09 449.578C2371 450.628 2371 451.936 2371 453.6H2372ZM2375.28 444.654L2374.82 443.763C2373.5 444.434 2372.43 445.505 2371.76 446.822L2372.65 447.276L2373.54 447.73C2374.02 446.789 2374.79 446.024 2375.73 445.545L2375.28 444.654Z" fill="black" fill-opacity="0.1" mask="url(#path-631-inside-108_1702_11540)" id="n745"/>
<path d="M2394.45 466H2392.98L2386.7 456.368H2386.64C2386.65 456.56 2386.66 456.773 2386.67 457.008C2386.69 457.232 2386.71 457.477 2386.72 457.744C2386.73 458 2386.74 458.267 2386.74 458.544C2386.75 458.821 2386.75 459.099 2386.75 459.376V466H2385.57V454.576H2387.02L2393.28 464.176H2393.33C2393.33 464.037 2393.32 463.856 2393.31 463.632C2393.3 463.408 2393.29 463.163 2393.28 462.896C2393.27 462.619 2393.26 462.341 2393.25 462.064C2393.24 461.776 2393.23 461.509 2393.23 461.264V454.576H2394.45V466ZM2404.75 461.712C2404.75 462.405 2404.66 463.029 2404.48 463.584C2404.3 464.128 2404.04 464.592 2403.7 464.976C2403.35 465.36 2402.94 465.653 2402.45 465.856C2401.96 466.059 2401.41 466.16 2400.8 466.16C2400.22 466.16 2399.7 466.059 2399.22 465.856C2398.75 465.653 2398.34 465.36 2397.98 464.976C2397.64 464.592 2397.38 464.128 2397.18 463.584C2397 463.04 2396.91 462.416 2396.91 461.712C2396.91 460.773 2397.07 459.979 2397.38 459.328C2397.7 458.667 2398.15 458.16 2398.74 457.808C2399.33 457.456 2400.04 457.28 2400.85 457.28C2401.64 457.28 2402.32 457.456 2402.9 457.808C2403.48 458.16 2403.94 458.667 2404.26 459.328C2404.59 459.989 2404.75 460.784 2404.75 461.712ZM2398.21 461.712C2398.21 462.395 2398.3 462.992 2398.48 463.504C2398.67 464.016 2398.96 464.411 2399.34 464.688C2399.73 464.965 2400.22 465.104 2400.82 465.104C2401.42 465.104 2401.92 464.965 2402.3 464.688C2402.7 464.411 2402.99 464.016 2403.17 463.504C2403.35 462.992 2403.44 462.395 2403.44 461.712C2403.44 461.019 2403.34 460.427 2403.15 459.936C2402.97 459.435 2402.69 459.045 2402.3 458.768C2401.93 458.491 2401.43 458.352 2400.82 458.352C2399.92 458.352 2399.26 458.651 2398.83 459.248C2398.42 459.835 2398.21 460.656 2398.21 461.712ZM2414.31 457.296C2415.33 457.296 2416.09 457.531 2416.58 458C2417.07 458.459 2417.32 459.189 2417.32 460.192V466H2416.39L2416.15 464.72H2416.1C2415.87 465.029 2415.62 465.296 2415.35 465.52C2415.09 465.733 2414.79 465.893 2414.44 466C2414.1 466.107 2413.68 466.16 2413.19 466.16C2412.67 466.16 2412.2 466.069 2411.8 465.888C2411.39 465.707 2411.07 465.429 2410.84 465.056C2410.61 464.683 2410.5 464.219 2410.5 463.664C2410.5 462.811 2410.84 462.155 2411.51 461.696C2412.19 461.237 2413.22 460.987 2414.6 460.944L2416.09 460.88V460.352C2416.09 459.595 2415.93 459.067 2415.61 458.768C2415.3 458.469 2414.84 458.32 2414.25 458.32C2413.8 458.32 2413.37 458.384 2412.97 458.512C2412.57 458.64 2412.19 458.795 2411.81 458.976L2411.43 458.016C2411.81 457.813 2412.26 457.643 2412.76 457.504C2413.26 457.365 2413.78 457.296 2414.31 457.296ZM2414.76 461.824C2413.69 461.867 2412.93 462.043 2412.49 462.352C2412.04 462.661 2411.81 463.104 2411.81 463.68C2411.81 464.171 2411.96 464.539 2412.26 464.784C2412.57 465.019 2412.97 465.136 2413.46 465.136C2414.24 465.136 2414.87 464.923 2415.35 464.496C2415.83 464.059 2416.07 463.413 2416.07 462.56V461.776L2414.76 461.824ZM2423.41 466.16C2422.63 466.16 2421.95 466 2421.36 465.68C2420.77 465.36 2420.32 464.875 2419.99 464.224C2419.67 463.573 2419.51 462.757 2419.51 461.776C2419.51 460.741 2419.68 459.893 2420.02 459.232C2420.37 458.571 2420.85 458.08 2421.46 457.76C2422.07 457.44 2422.76 457.28 2423.54 457.28C2423.96 457.28 2424.37 457.323 2424.77 457.408C2425.16 457.493 2425.49 457.6 2425.75 457.728L2425.38 458.784C2425.11 458.677 2424.81 458.587 2424.47 458.512C2424.12 458.427 2423.8 458.384 2423.51 458.384C2422.91 458.384 2422.41 458.517 2422 458.784C2421.6 459.04 2421.29 459.419 2421.09 459.92C2420.9 460.421 2420.8 461.035 2420.8 461.76C2420.8 462.443 2420.9 463.035 2421.09 463.536C2421.28 464.037 2421.57 464.421 2421.95 464.688C2422.34 464.944 2422.82 465.072 2423.39 465.072C2423.85 465.072 2424.26 465.024 2424.63 464.928C2424.99 464.832 2425.32 464.715 2425.62 464.576V465.696C2425.33 465.845 2425.01 465.957 2424.66 466.032C2424.32 466.117 2423.9 466.16 2423.41 466.16ZM2430.36 465.12C2430.59 465.12 2430.8 465.104 2431.02 465.072C2431.24 465.029 2431.43 464.987 2431.58 464.944V465.904C2431.42 465.979 2431.2 466.037 2430.94 466.08C2430.68 466.133 2430.42 466.16 2430.15 466.16C2429.71 466.16 2429.3 466.08 2428.94 465.92C2428.57 465.76 2428.28 465.493 2428.06 465.12C2427.84 464.736 2427.74 464.208 2427.74 463.536V458.432H2426.51V457.808L2427.75 457.328L2428.23 455.456H2429V457.44H2431.51V458.432H2429V463.504C2429 464.048 2429.12 464.453 2429.35 464.72C2429.6 464.987 2429.93 465.12 2430.36 465.12ZM2434.58 457.44V466H2433.33V457.44H2434.58ZM2433.97 454.24C2434.18 454.24 2434.36 454.309 2434.5 454.448C2434.65 454.587 2434.72 454.8 2434.72 455.088C2434.72 455.355 2434.65 455.563 2434.5 455.712C2434.36 455.851 2434.18 455.92 2433.97 455.92C2433.75 455.92 2433.56 455.851 2433.41 455.712C2433.27 455.563 2433.2 455.355 2433.2 455.088C2433.2 454.8 2433.27 454.587 2433.41 454.448C2433.56 454.309 2433.75 454.24 2433.97 454.24ZM2439.2 466L2435.95 457.44H2437.3L2439.2 462.672C2439.29 462.907 2439.38 463.163 2439.47 463.44C2439.57 463.707 2439.65 463.963 2439.71 464.208C2439.79 464.453 2439.84 464.667 2439.87 464.848H2439.94C2439.98 464.667 2440.04 464.453 2440.11 464.208C2440.2 463.952 2440.29 463.691 2440.39 463.424C2440.48 463.147 2440.57 462.896 2440.64 462.672L2442.55 457.44H2443.89L2440.63 466H2439.2ZM2448.55 457.28C2449.28 457.28 2449.91 457.445 2450.42 457.776C2450.94 458.096 2451.34 458.549 2451.6 459.136C2451.88 459.712 2452.02 460.389 2452.02 461.168V461.952H2446.08C2446.1 462.965 2446.35 463.744 2446.83 464.288C2447.33 464.821 2448.02 465.088 2448.91 465.088C2449.45 465.088 2449.92 465.04 2450.34 464.944C2450.75 464.837 2451.19 464.688 2451.63 464.496V465.6C2451.21 465.792 2450.78 465.931 2450.35 466.016C2449.93 466.112 2449.43 466.16 2448.85 466.16C2448.03 466.16 2447.31 465.995 2446.69 465.664C2446.08 465.323 2445.61 464.827 2445.28 464.176C2444.95 463.515 2444.79 462.72 2444.79 461.792C2444.79 460.875 2444.94 460.08 2445.23 459.408C2445.54 458.736 2445.98 458.213 2446.55 457.84C2447.11 457.467 2447.78 457.28 2448.55 457.28ZM2448.53 458.32C2447.83 458.32 2447.27 458.549 2446.85 459.008C2446.43 459.467 2446.19 460.112 2446.11 460.944H2450.71C2450.71 460.421 2450.63 459.968 2450.47 459.584C2450.32 459.189 2450.08 458.88 2449.76 458.656C2449.44 458.432 2449.03 458.32 2448.53 458.32ZM2462.41 457.28C2463.41 457.28 2464.17 457.531 2464.7 458.032C2465.22 458.523 2465.48 459.317 2465.48 460.416V466H2464.23V460.512C2464.23 459.776 2464.07 459.232 2463.74 458.88C2463.41 458.528 2462.9 458.352 2462.23 458.352C2461.28 458.352 2460.61 458.619 2460.22 459.152C2459.82 459.685 2459.62 460.464 2459.62 461.488V466H2458.38V457.44H2459.38L2459.58 458.704H2459.64C2459.83 458.395 2460.07 458.139 2460.34 457.936C2460.62 457.723 2460.94 457.563 2461.29 457.456C2461.64 457.339 2462.01 457.28 2462.41 457.28ZM2475.52 461.712C2475.52 462.405 2475.43 463.029 2475.25 463.584C2475.06 464.128 2474.8 464.592 2474.46 464.976C2474.12 465.36 2473.7 465.653 2473.21 465.856C2472.72 466.059 2472.17 466.16 2471.57 466.16C2470.99 466.16 2470.46 466.059 2469.98 465.856C2469.51 465.653 2469.1 465.36 2468.75 464.976C2468.41 464.592 2468.14 464.128 2467.95 463.584C2467.77 463.04 2467.68 462.416 2467.68 461.712C2467.68 460.773 2467.83 459.979 2468.14 459.328C2468.46 458.667 2468.91 458.16 2469.5 457.808C2470.1 457.456 2470.8 457.28 2471.61 457.28C2472.4 457.28 2473.09 457.456 2473.66 457.808C2474.25 458.16 2474.7 458.667 2475.02 459.328C2475.35 459.989 2475.52 460.784 2475.52 461.712ZM2468.97 461.712C2468.97 462.395 2469.06 462.992 2469.25 463.504C2469.44 464.016 2469.73 464.411 2470.11 464.688C2470.49 464.965 2470.98 465.104 2471.58 465.104C2472.19 465.104 2472.69 464.965 2473.07 464.688C2473.46 464.411 2473.75 464.016 2473.93 463.504C2474.11 462.992 2474.21 462.395 2474.21 461.712C2474.21 461.019 2474.11 460.427 2473.92 459.936C2473.74 459.435 2473.45 459.045 2473.07 458.768C2472.7 458.491 2472.2 458.352 2471.58 458.352C2470.69 458.352 2470.02 458.651 2469.6 459.248C2469.18 459.835 2468.97 460.656 2468.97 461.712ZM2480.47 465.12C2480.7 465.12 2480.91 465.104 2481.13 465.072C2481.35 465.029 2481.54 464.987 2481.69 464.944V465.904C2481.53 465.979 2481.31 466.037 2481.05 466.08C2480.79 466.133 2480.53 466.16 2480.26 466.16C2479.82 466.16 2479.41 466.08 2479.05 465.92C2478.68 465.76 2478.39 465.493 2478.17 465.12C2477.95 464.736 2477.85 464.208 2477.85 463.536V458.432H2476.62V457.808L2477.86 457.328L2478.34 455.456H2479.11V457.44H2481.62V458.432H2479.11V463.504C2479.11 464.048 2479.23 464.453 2479.46 464.72C2479.71 464.987 2480.04 465.12 2480.47 465.12ZM2484.69 457.44V466H2483.44V457.44H2484.69ZM2484.08 454.24C2484.29 454.24 2484.47 454.309 2484.61 454.448C2484.76 454.587 2484.83 454.8 2484.83 455.088C2484.83 455.355 2484.76 455.563 2484.61 455.712C2484.47 455.851 2484.29 455.92 2484.08 455.92C2483.85 455.92 2483.67 455.851 2483.52 455.712C2483.38 455.563 2483.31 455.355 2483.31 455.088C2483.31 454.8 2483.38 454.587 2483.52 454.448C2483.67 454.309 2483.85 454.24 2484.08 454.24ZM2491.2 458.432H2489.07V466H2487.82V458.432H2486.29V457.824L2487.82 457.408V456.8C2487.82 456.096 2487.92 455.52 2488.13 455.072C2488.34 454.624 2488.65 454.293 2489.05 454.08C2489.46 453.867 2489.95 453.76 2490.53 453.76C2490.86 453.76 2491.16 453.787 2491.42 453.84C2491.7 453.893 2491.94 453.957 2492.14 454.032L2491.82 455.04C2491.64 454.976 2491.44 454.923 2491.21 454.88C2490.99 454.827 2490.77 454.8 2490.54 454.8C2490.04 454.8 2489.67 454.96 2489.42 455.28C2489.19 455.6 2489.07 456.101 2489.07 456.784V457.44H2491.2V458.432ZM2494.01 457.44V466H2492.77V457.44H2494.01ZM2493.41 454.24C2493.62 454.24 2493.8 454.309 2493.93 454.448C2494.08 454.587 2494.16 454.8 2494.16 455.088C2494.16 455.355 2494.08 455.563 2493.93 455.712C2493.8 455.851 2493.62 455.92 2493.41 455.92C2493.18 455.92 2493 455.851 2492.85 455.712C2492.71 455.563 2492.64 455.355 2492.64 455.088C2492.64 454.8 2492.71 454.587 2492.85 454.448C2493 454.309 2493.18 454.24 2493.41 454.24ZM2500.19 466.16C2499.41 466.16 2498.73 466 2498.14 465.68C2497.56 465.36 2497.1 464.875 2496.77 464.224C2496.45 463.573 2496.29 462.757 2496.29 461.776C2496.29 460.741 2496.46 459.893 2496.8 459.232C2497.15 458.571 2497.63 458.08 2498.24 457.76C2498.85 457.44 2499.54 457.28 2500.32 457.28C2500.75 457.28 2501.16 457.323 2501.55 457.408C2501.95 457.493 2502.27 457.6 2502.53 457.728L2502.16 458.784C2501.89 458.677 2501.59 458.587 2501.25 458.512C2500.91 458.427 2500.59 458.384 2500.29 458.384C2499.69 458.384 2499.19 458.517 2498.78 458.784C2498.38 459.04 2498.07 459.419 2497.87 459.92C2497.68 460.421 2497.58 461.035 2497.58 461.76C2497.58 462.443 2497.68 463.035 2497.87 463.536C2498.06 464.037 2498.35 464.421 2498.73 464.688C2499.12 464.944 2499.6 465.072 2500.17 465.072C2500.63 465.072 2501.04 465.024 2501.41 464.928C2501.77 464.832 2502.1 464.715 2502.4 464.576V465.696C2502.11 465.845 2501.79 465.957 2501.44 466.032C2501.1 466.117 2500.68 466.16 2500.19 466.16ZM2507.59 457.296C2508.61 457.296 2509.37 457.531 2509.86 458C2510.35 458.459 2510.6 459.189 2510.6 460.192V466H2509.67L2509.43 464.72H2509.38C2509.15 465.029 2508.9 465.296 2508.63 465.52C2508.37 465.733 2508.07 465.893 2507.72 466C2507.38 466.107 2506.96 466.16 2506.47 466.16C2505.95 466.16 2505.48 466.069 2505.08 465.888C2504.67 465.707 2504.35 465.429 2504.12 465.056C2503.89 464.683 2503.78 464.219 2503.78 463.664C2503.78 462.811 2504.12 462.155 2504.79 461.696C2505.47 461.237 2506.5 460.987 2507.88 460.944L2509.37 460.88V460.352C2509.37 459.595 2509.21 459.067 2508.89 458.768C2508.58 458.469 2508.12 458.32 2507.53 458.32C2507.08 458.32 2506.65 458.384 2506.25 458.512C2505.85 458.64 2505.47 458.795 2505.09 458.976L2504.71 458.016C2505.09 457.813 2505.54 457.643 2506.04 457.504C2506.54 457.365 2507.06 457.296 2507.59 457.296ZM2508.04 461.824C2506.97 461.867 2506.21 462.043 2505.77 462.352C2505.32 462.661 2505.09 463.104 2505.09 463.68C2505.09 464.171 2505.24 464.539 2505.54 464.784C2505.85 465.019 2506.25 465.136 2506.74 465.136C2507.52 465.136 2508.15 464.923 2508.63 464.496C2509.11 464.059 2509.35 463.413 2509.35 462.56V461.776L2508.04 461.824ZM2515.99 465.12C2516.21 465.12 2516.43 465.104 2516.64 465.072C2516.87 465.029 2517.05 464.987 2517.2 464.944V465.904C2517.04 465.979 2516.83 466.037 2516.56 466.08C2516.31 466.133 2516.05 466.16 2515.78 466.16C2515.33 466.16 2514.93 466.08 2514.56 465.92C2514.2 465.76 2513.91 465.493 2513.68 465.12C2513.47 464.736 2513.36 464.208 2513.36 463.536V458.432H2512.13V457.808L2513.38 457.328L2513.86 455.456H2514.63V457.44H2517.14V458.432H2514.63V463.504C2514.63 464.048 2514.74 464.453 2514.98 464.72C2515.22 464.987 2515.56 465.12 2515.99 465.12ZM2520.2 457.44V466H2518.95V457.44H2520.2ZM2519.59 454.24C2519.81 454.24 2519.98 454.309 2520.12 454.448C2520.27 454.587 2520.35 454.8 2520.35 455.088C2520.35 455.355 2520.27 455.563 2520.12 455.712C2519.98 455.851 2519.81 455.92 2519.59 455.92C2519.37 455.92 2519.18 455.851 2519.03 455.712C2518.9 455.563 2518.83 455.355 2518.83 455.088C2518.83 454.8 2518.9 454.587 2519.03 454.448C2519.18 454.309 2519.37 454.24 2519.59 454.24ZM2530.31 461.712C2530.31 462.405 2530.22 463.029 2530.04 463.584C2529.86 464.128 2529.6 464.592 2529.26 464.976C2528.92 465.36 2528.5 465.653 2528.01 465.856C2527.52 466.059 2526.97 466.16 2526.36 466.16C2525.79 466.16 2525.26 466.059 2524.78 465.856C2524.31 465.653 2523.9 465.36 2523.55 464.976C2523.2 464.592 2522.94 464.128 2522.75 463.584C2522.56 463.04 2522.47 462.416 2522.47 461.712C2522.47 460.773 2522.63 459.979 2522.94 459.328C2523.26 458.667 2523.71 458.16 2524.3 457.808C2524.9 457.456 2525.6 457.28 2526.41 457.28C2527.2 457.28 2527.88 457.456 2528.46 457.808C2529.04 458.16 2529.5 458.667 2529.82 459.328C2530.15 459.989 2530.31 460.784 2530.31 461.712ZM2523.77 461.712C2523.77 462.395 2523.86 462.992 2524.04 463.504C2524.23 464.016 2524.52 464.411 2524.91 464.688C2525.29 464.965 2525.78 465.104 2526.38 465.104C2526.99 465.104 2527.48 464.965 2527.87 464.688C2528.26 464.411 2528.55 464.016 2528.73 463.504C2528.91 462.992 2529 462.395 2529 461.712C2529 461.019 2528.91 460.427 2528.71 459.936C2528.53 459.435 2528.25 459.045 2527.87 458.768C2527.49 458.491 2527 458.352 2526.38 458.352C2525.48 458.352 2524.82 458.651 2524.39 459.248C2523.98 459.835 2523.77 460.656 2523.77 461.712ZM2536.58 457.28C2537.58 457.28 2538.35 457.531 2538.87 458.032C2539.39 458.523 2539.65 459.317 2539.65 460.416V466H2538.4V460.512C2538.4 459.776 2538.24 459.232 2537.91 458.88C2537.58 458.528 2537.08 458.352 2536.4 458.352C2535.45 458.352 2534.78 458.619 2534.39 459.152C2533.99 459.685 2533.8 460.464 2533.8 461.488V466H2532.55V457.44H2533.56L2533.75 458.704H2533.81C2534 458.395 2534.24 458.139 2534.52 457.936C2534.79 457.723 2535.11 457.563 2535.46 457.456C2535.81 457.339 2536.19 457.28 2536.58 457.28Z" fill="#535353" id="n746"/>
</g>
</svg>
