<?xml version='1.0' encoding='utf-8'?>
<svg xmlns="http://www.w3.org/2000/svg" xmlns:xlink="http://www.w3.org/1999/xlink" width="640.0" height="48.0" viewBox="0 0 640.0 48.0" fill="none">
  <defs><clipPath id="clip__asset"><rect x="0" y="0" width="640.0" height="48.0"/></clipPath><mask id="path-625-inside-107_1702_11540" fill="white">
<path d="M2372 381.6C2372 378.24 2372 376.56 2372.65 375.276C2373.23 374.147 2374.15 373.229 2375.28 372.654C2376.56 372 2378.24 372 2381.6 372H3002.4C3005.76 372 3007.44 372 3008.72 372.654C3009.85 373.229 3010.77 374.147 3011.35 375.276C3012 376.56 3012 378.24 3012 381.6V394.4C3012 397.76 3012 399.44 3011.35 400.724C3010.77 401.853 3009.85 402.771 3008.72 403.346C3007.44 404 3005.76 404 3002.4 404H2381.6C2378.24 404 2376.56 404 2375.28 403.346C2374.15 402.771 2373.23 401.853 2372.65 400.724C2372 399.44 2372 397.76 2372 394.4V381.6Z" id="n736"/>
</mask>
</defs>
  <g clip-path="url(#clip__asset)" transform="translate(-2372.0 -364.0)"><path d="M2372 381.6C2372 378.24 2372 376.56 2372.65 375.276C2373.23 374.147 2374.15 373.229 2375.28 372.654C2376.56 372 2378.24 372 2381.6 372H3002.4C3005.76 372 3007.44 372 3008.72 372.654C3009.85 373.229 3010.77 374.147 3011.35 375.276C3012 376.56 3012 378.24 3012 381.6V394.4C3012 397.76 3012 399.44 3011.35 400.724C3010.77 401.853 3009.85 402.771 3008.72 403.346C3007.44 404 3005.76 404 3002.4 404H2381.6C2378.24 404 2376.56 404 2375.28 403.346C2374.15 402.771 2373.23 401.853 2372.65 400.724C2372 399.44 2372 397.76 2372 394.4V381.6Z" fill="white" id="n737"/>
<path d="M2375.28 403.346L2375.73 402.455L2375.28 403.346ZM3011.35 400.724L3012.24 401.178L3011.35 400.724ZM3008.72 403.346L3009.18 404.237L3008.72 403.346ZM3008.72 372.654L3008.27 373.545L3008.72 372.654ZM3011.35 375.276L3010.46 375.73L3011.35 375.276ZM2381.6 372V373H3002.4V372V371H2381.6V372ZM3012 381.6H3011V394.4H3012H3013V381.6H3012ZM3002.4 404V403H2381.6V404V405H3002.4V404ZM2372 394.4H2373V381.6H2372H2371V394.4H2372ZM2381.6 404V403C2379.9 403 2378.69 402.999 2377.74 402.922C2376.8 402.845 2376.21 402.698 2375.73 402.455L2375.28 403.346L2374.82 404.237C2375.63 404.648 2376.52 404.828 2377.58 404.915C2378.63 405.001 2379.94 405 2381.6 405V404ZM2372 394.4H2371C2371 396.064 2371 397.372 2371.09 398.422C2371.17 399.485 2371.35 400.372 2371.76 401.178L2372.65 400.724L2373.54 400.27C2373.3 399.793 2373.16 399.198 2373.08 398.259C2373 397.309 2373 396.097 2373 394.4H2372ZM2375.28 403.346L2375.73 402.455C2374.79 401.976 2374.02 401.211 2373.54 400.27L2372.65 400.724L2371.76 401.178C2372.43 402.495 2373.5 403.566 2374.82 404.237L2375.28 403.346ZM3012 394.4H3011C3011 396.097 3011 397.309 3010.92 398.259C3010.84 399.198 3010.7 399.793 3010.46 400.27L3011.35 400.724L3012.24 401.178C3012.65 400.372 3012.83 399.485 3012.91 398.422C3013 397.372 3013 396.064 3013 394.4H3012ZM3002.4 404V405C3004.06 405 3005.37 405.001 3006.42 404.915C3007.48 404.828 3008.37 404.648 3009.18 404.237L3008.72 403.346L3008.27 402.455C3007.79 402.698 3007.2 402.845 3006.26 402.922C3005.31 402.999 3004.1 403 3002.4 403V404ZM3011.35 400.724L3010.46 400.27C3009.98 401.211 3009.21 401.976 3008.27 402.455L3008.72 403.346L3009.18 404.237C3010.5 403.566 3011.57 402.495 3012.24 401.178L3011.35 400.724ZM3002.4 372V373C3004.1 373 3005.31 373.001 3006.26 373.078C3007.2 373.155 3007.79 373.302 3008.27 373.545L3008.72 372.654L3009.18 371.763C3008.37 371.352 3007.48 371.172 3006.42 371.085C3005.37 370.999 3004.06 371 3002.4 371V372ZM3012 381.6H3013C3013 379.936 3013 378.628 3012.91 377.578C3012.83 376.515 3012.65 375.628 3012.24 374.822L3011.35 375.276L3010.46 375.73C3010.7 376.207 3010.84 376.802 3010.92 377.741C3011 378.691 3011 379.903 3011 381.6H3012ZM3008.72 372.654L3008.27 373.545C3009.21 374.024 3009.98 374.789 3010.46 375.73L3011.35 375.276L3012.24 374.822C3011.57 373.505 3010.5 372.434 3009.18 371.763L3008.72 372.654ZM2381.6 372V371C2379.94 371 2378.63 370.999 2377.58 371.085C2376.52 371.172 2375.63 371.352 2374.82 371.763L2375.28 372.654L2375.73 373.545C2376.21 373.302 2376.8 373.155 2377.74 373.078C2378.69 373.001 2379.9 373 2381.6 373V372ZM2372 381.6H2373C2373 379.903 2373 378.691 2373.08 377.741C2373.16 376.802 2373.3 376.207 2373.54 375.73L2372.65 375.276L2371.76 374.822C2371.35 375.628 2371.17 376.515 2371.09 377.578C2371 378.628 2371 379.936 2371 381.6H2372ZM2375.28 372.654L2374.82 371.763C2373.5 372.434 2372.43 373.505 2371.76 374.822L2372.65 375.276L2373.54 375.73C2374.02 374.789 2374.79 374.024 2375.73 373.545L2375.28 372.654Z" fill="#BEBEBE" mask="url(#path-625-inside-107_1702_11540)" id="n738"/>
<path fill-rule="evenodd" clip-rule="evenodd" d="M2385 380C2383.9 380 2383 380.895 2383 382V392C2383 393.105 2383.9 394 2385 394H2389L2392 397L2395 394H2399C2400.1 394 2401 393.105 2401 392V382C2401 380.895 2400.1 380 2399 380H2385Z" fill="#2D548B" id="n739"/>
<path d="M2423.46 394H2420.54L2415.44 385.264H2415.38C2415.39 385.52 2415.4 385.781 2415.41 386.048C2415.42 386.315 2415.43 386.587 2415.44 386.864C2415.46 387.131 2415.48 387.403 2415.49 387.68C2415.5 387.957 2415.51 388.235 2415.52 388.512V394H2413.46V382.576H2416.35L2421.44 391.232H2421.49C2421.48 390.987 2421.47 390.736 2421.46 390.48C2421.45 390.213 2421.43 389.952 2421.42 389.696C2421.42 389.429 2421.42 389.163 2421.41 388.896C2421.4 388.629 2421.39 388.363 2421.38 388.096V382.576H2423.46V394ZM2434.04 389.632C2434.04 390.357 2433.95 391.003 2433.75 391.568C2433.56 392.123 2433.28 392.597 2432.91 392.992C2432.54 393.376 2432.1 393.669 2431.58 393.872C2431.07 394.064 2430.48 394.16 2429.83 394.16C2429.23 394.16 2428.66 394.064 2428.14 393.872C2427.63 393.669 2427.18 393.376 2426.81 392.992C2426.45 392.597 2426.16 392.117 2425.95 391.552C2425.74 390.987 2425.64 390.341 2425.64 389.616C2425.64 388.656 2425.81 387.845 2426.15 387.184C2426.5 386.512 2426.98 386 2427.61 385.648C2428.25 385.296 2429 385.12 2429.87 385.12C2430.69 385.12 2431.41 385.296 2432.03 385.648C2432.66 386 2433.15 386.512 2433.5 387.184C2433.86 387.845 2434.04 388.661 2434.04 389.632ZM2427.96 389.632C2427.96 390.219 2428.03 390.715 2428.15 391.12C2428.28 391.515 2428.48 391.813 2428.76 392.016C2429.05 392.219 2429.41 392.32 2429.85 392.32C2430.3 392.32 2430.66 392.219 2430.92 392.016C2431.2 391.813 2431.4 391.515 2431.53 391.12C2431.66 390.715 2431.72 390.219 2431.72 389.632C2431.72 389.035 2431.66 388.539 2431.53 388.144C2431.4 387.749 2431.2 387.456 2430.92 387.264C2430.64 387.061 2430.28 386.96 2429.83 386.96C2429.18 386.96 2428.71 387.184 2428.41 387.632C2428.11 388.08 2427.96 388.747 2427.96 389.632ZM2439.63 392.336C2439.89 392.336 2440.14 392.315 2440.38 392.272C2440.63 392.219 2440.87 392.155 2441.1 392.08V393.776C2440.86 393.883 2440.55 393.973 2440.17 394.048C2439.81 394.123 2439.42 394.16 2438.99 394.16C2438.48 394.16 2438.02 394.075 2437.61 393.904C2437.21 393.733 2436.88 393.44 2436.64 393.024C2436.4 392.608 2436.29 392.032 2436.29 391.296V386.992H2435.13V386.032L2436.45 385.248L2437.12 383.408H2438.56V385.28H2441.01V386.992H2438.56V391.28C2438.56 391.643 2438.65 391.909 2438.85 392.08C2439.05 392.251 2439.31 392.336 2439.63 392.336ZM2445.13 385.28V394H2442.86V385.28H2445.13ZM2443.99 381.888C2444.34 381.888 2444.63 381.968 2444.87 382.128C2445.12 382.288 2445.24 382.587 2445.24 383.024C2445.24 383.44 2445.12 383.733 2444.87 383.904C2444.63 384.075 2444.34 384.16 2443.99 384.16C2443.65 384.16 2443.36 384.075 2443.11 383.904C2442.88 383.733 2442.76 383.44 2442.76 383.024C2442.76 382.587 2442.88 382.288 2443.11 382.128C2443.36 381.968 2443.65 381.888 2443.99 381.888ZM2452.39 386.992H2450.31V394H2448.04V386.992H2446.69V385.904L2448.04 385.28V384.656C2448.04 383.909 2448.16 383.328 2448.41 382.912C2448.65 382.496 2449 382.203 2449.46 382.032C2449.92 381.851 2450.47 381.76 2451.09 381.76C2451.54 381.76 2451.95 381.797 2452.31 381.872C2452.68 381.947 2452.99 382.027 2453.22 382.112L2452.65 383.792C2452.47 383.739 2452.26 383.691 2452.04 383.648C2451.83 383.595 2451.59 383.568 2451.32 383.568C2450.97 383.568 2450.71 383.675 2450.55 383.888C2450.39 384.101 2450.31 384.384 2450.31 384.736V385.28H2452.39V386.992ZM2456.04 385.28V394H2453.76V385.28H2456.04ZM2454.9 381.888C2455.24 381.888 2455.53 381.968 2455.78 382.128C2456.03 382.288 2456.15 382.587 2456.15 383.024C2456.15 383.44 2456.03 383.733 2455.78 383.904C2455.53 384.075 2455.24 384.16 2454.9 384.16C2454.56 384.16 2454.27 384.075 2454.02 383.904C2453.79 383.733 2453.67 383.44 2453.67 383.024C2453.67 382.587 2453.79 382.288 2454.02 382.128C2454.27 381.968 2454.56 381.888 2454.9 381.888ZM2462.1 394.16C2461.24 394.16 2460.51 394.005 2459.9 393.696C2459.3 393.376 2458.83 392.885 2458.51 392.224C2458.19 391.563 2458.03 390.72 2458.03 389.696C2458.03 388.629 2458.21 387.76 2458.58 387.088C2458.94 386.416 2459.44 385.92 2460.08 385.6C2460.72 385.28 2461.46 385.12 2462.29 385.12C2462.88 385.12 2463.39 385.179 2463.82 385.296C2464.26 385.413 2464.64 385.547 2464.96 385.696L2464.29 387.456C2463.93 387.317 2463.58 387.2 2463.25 387.104C2462.93 387.008 2462.61 386.96 2462.29 386.96C2461.85 386.96 2461.49 387.061 2461.2 387.264C2460.91 387.467 2460.7 387.771 2460.56 388.176C2460.42 388.571 2460.35 389.072 2460.35 389.68C2460.35 390.267 2460.43 390.757 2460.58 391.152C2460.73 391.536 2460.94 391.824 2461.23 392.016C2461.52 392.208 2461.87 392.304 2462.27 392.304C2462.77 392.304 2463.22 392.24 2463.6 392.112C2463.98 391.984 2464.35 391.808 2464.7 391.584V393.52C2464.35 393.744 2463.98 393.904 2463.58 394C2463.19 394.107 2462.69 394.16 2462.1 394.16ZM2470.25 385.104C2471.42 385.104 2472.3 385.355 2472.91 385.856C2473.52 386.357 2473.82 387.131 2473.82 388.176V394H2472.24L2471.79 392.816H2471.73C2471.48 393.125 2471.22 393.381 2470.96 393.584C2470.7 393.787 2470.4 393.931 2470.06 394.016C2469.73 394.112 2469.32 394.16 2468.83 394.16C2468.32 394.16 2467.85 394.064 2467.44 393.872C2467.03 393.669 2466.71 393.365 2466.48 392.96C2466.24 392.555 2466.13 392.043 2466.13 391.424C2466.13 390.496 2466.45 389.813 2467.1 389.376C2467.76 388.928 2468.75 388.683 2470.06 388.64L2471.57 388.592V388.192C2471.57 387.701 2471.44 387.349 2471.2 387.136C2470.95 386.912 2470.61 386.8 2470.17 386.8C2469.74 386.8 2469.31 386.864 2468.91 386.992C2468.5 387.109 2468.1 387.259 2467.71 387.44L2466.96 385.888C2467.42 385.643 2467.93 385.451 2468.49 385.312C2469.06 385.173 2469.65 385.104 2470.25 385.104ZM2470.61 389.968C2469.81 389.989 2469.25 390.133 2468.93 390.4C2468.62 390.656 2468.46 391.003 2468.46 391.44C2468.46 391.813 2468.57 392.08 2468.8 392.24C2469.02 392.4 2469.31 392.48 2469.66 392.48C2470.21 392.48 2470.66 392.325 2471.02 392.016C2471.38 391.696 2471.57 391.243 2471.57 390.656V389.936L2470.61 389.968ZM2479.88 392.336C2480.14 392.336 2480.39 392.315 2480.63 392.272C2480.88 392.219 2481.12 392.155 2481.35 392.08V393.776C2481.11 393.883 2480.8 393.973 2480.42 394.048C2480.06 394.123 2479.67 394.16 2479.24 394.16C2478.73 394.16 2478.27 394.075 2477.86 393.904C2477.46 393.733 2477.13 393.44 2476.89 393.024C2476.65 392.608 2476.54 392.032 2476.54 391.296V386.992H2475.38V386.032L2476.7 385.248L2477.37 383.408H2478.81V385.28H2481.26V386.992H2478.81V391.28C2478.81 391.643 2478.9 391.909 2479.1 392.08C2479.3 392.251 2479.56 392.336 2479.88 392.336ZM2485.38 385.28V394H2483.11V385.28H2485.38ZM2484.24 381.888C2484.59 381.888 2484.88 381.968 2485.12 382.128C2485.37 382.288 2485.49 382.587 2485.49 383.024C2485.49 383.44 2485.37 383.733 2485.12 383.904C2484.88 384.075 2484.59 384.16 2484.24 384.16C2483.9 384.16 2483.61 384.075 2483.36 383.904C2483.13 383.733 2483.01 383.44 2483.01 383.024C2483.01 382.587 2483.13 382.288 2483.36 382.128C2483.61 381.968 2483.9 381.888 2484.24 381.888ZM2495.78 389.632C2495.78 390.357 2495.68 391.003 2495.49 391.568C2495.3 392.123 2495.01 392.597 2494.64 392.992C2494.28 393.376 2493.84 393.669 2493.31 393.872C2492.8 394.064 2492.22 394.16 2491.57 394.16C2490.96 394.16 2490.4 394.064 2489.87 393.872C2489.36 393.669 2488.92 393.376 2488.54 392.992C2488.18 392.597 2487.89 392.117 2487.68 391.552C2487.48 390.987 2487.38 390.341 2487.38 389.616C2487.38 388.656 2487.55 387.845 2487.89 387.184C2488.23 386.512 2488.72 386 2489.34 385.648C2489.98 385.296 2490.74 385.12 2491.6 385.12C2492.42 385.12 2493.14 385.296 2493.76 385.648C2494.39 386 2494.88 386.512 2495.23 387.184C2495.6 387.845 2495.78 388.661 2495.78 389.632ZM2489.7 389.632C2489.7 390.219 2489.76 390.715 2489.89 391.12C2490.02 391.515 2490.22 391.813 2490.5 392.016C2490.78 392.219 2491.15 392.32 2491.58 392.32C2492.03 392.32 2492.39 392.219 2492.66 392.016C2492.93 391.813 2493.14 391.515 2493.26 391.12C2493.39 390.715 2493.46 390.219 2493.46 389.632C2493.46 389.035 2493.39 388.539 2493.26 388.144C2493.14 387.749 2492.93 387.456 2492.66 387.264C2492.38 387.061 2492.02 386.96 2491.57 386.96C2490.92 386.96 2490.44 387.184 2490.14 387.632C2489.85 388.08 2489.7 388.747 2489.7 389.632ZM2502.64 385.12C2503.59 385.12 2504.34 385.376 2504.9 385.888C2505.46 386.389 2505.75 387.2 2505.75 388.32V394H2503.48V388.848C2503.48 388.219 2503.36 387.744 2503.12 387.424C2502.89 387.104 2502.52 386.944 2502 386.944C2501.26 386.944 2500.74 387.195 2500.47 387.696C2500.19 388.197 2500.05 388.917 2500.05 389.856V394H2497.78V385.28H2499.52L2499.83 386.4H2499.96C2500.15 386.101 2500.38 385.861 2500.66 385.68C2500.94 385.488 2501.25 385.349 2501.59 385.264C2501.93 385.168 2502.28 385.12 2502.64 385.12ZM2515.97 392.336C2516.23 392.336 2516.48 392.315 2516.73 392.272C2516.97 392.219 2517.21 392.155 2517.45 392.08V393.776C2517.2 393.883 2516.89 393.973 2516.52 394.048C2516.15 394.123 2515.76 394.16 2515.33 394.16C2514.82 394.16 2514.36 394.075 2513.96 393.904C2513.55 393.733 2513.23 393.44 2512.98 393.024C2512.75 392.608 2512.63 392.032 2512.63 391.296V386.992H2511.48V386.032L2512.79 385.248L2513.46 383.408H2514.9V385.28H2517.35V386.992H2514.9V391.28C2514.9 391.643 2515 391.909 2515.19 392.08C2515.39 392.251 2515.65 392.336 2515.97 392.336ZM2521.47 385.28V394H2519.2V385.28H2521.47ZM2520.34 381.888C2520.68 381.888 2520.97 381.968 2521.22 382.128C2521.46 382.288 2521.59 382.587 2521.59 383.024C2521.59 383.44 2521.46 383.733 2521.22 383.904C2520.97 384.075 2520.68 384.16 2520.34 384.16C2520 384.16 2519.7 384.075 2519.46 383.904C2519.22 383.733 2519.11 383.44 2519.11 383.024C2519.11 382.587 2519.22 382.288 2519.46 382.128C2519.7 381.968 2520 381.888 2520.34 381.888ZM2527.58 392.336C2527.84 392.336 2528.09 392.315 2528.33 392.272C2528.58 392.219 2528.82 392.155 2529.05 392.08V393.776C2528.81 393.883 2528.5 393.973 2528.13 394.048C2527.76 394.123 2527.37 394.16 2526.94 394.16C2526.43 394.16 2525.97 394.075 2525.57 393.904C2525.16 393.733 2524.84 393.44 2524.59 393.024C2524.36 392.608 2524.24 392.032 2524.24 391.296V386.992H2523.09V386.032L2524.4 385.248L2525.07 383.408H2526.51V385.28H2528.96V386.992H2526.51V391.28C2526.51 391.643 2526.61 391.909 2526.8 392.08C2527 392.251 2527.26 392.336 2527.58 392.336ZM2533.08 394H2530.81V381.84H2533.08V394ZM2539.18 385.12C2539.98 385.12 2540.66 385.275 2541.24 385.584C2541.82 385.893 2542.26 386.341 2542.57 386.928C2542.89 387.515 2543.05 388.229 2543.05 389.072V390.192H2537.38C2537.41 390.896 2537.61 391.451 2537.99 391.856C2538.39 392.251 2538.93 392.448 2539.62 392.448C2540.19 392.448 2540.7 392.395 2541.14 392.288C2541.6 392.171 2542.08 392 2542.57 391.776V393.536C2542.14 393.749 2541.69 393.904 2541.22 394C2540.75 394.107 2540.19 394.16 2539.53 394.16C2538.65 394.16 2537.88 394 2537.21 393.68C2536.55 393.349 2536.02 392.853 2535.64 392.192C2535.27 391.531 2535.08 390.704 2535.08 389.712C2535.08 388.688 2535.25 387.84 2535.59 387.168C2535.93 386.496 2536.41 385.989 2537.02 385.648C2537.63 385.296 2538.35 385.12 2539.18 385.12ZM2539.19 386.752C2538.7 386.752 2538.3 386.912 2537.98 387.232C2537.67 387.541 2537.49 388.021 2537.43 388.672H2540.89C2540.89 388.299 2540.82 387.968 2540.7 387.68C2540.58 387.392 2540.39 387.168 2540.14 387.008C2539.89 386.837 2539.58 386.752 2539.19 386.752Z" fill="#1F1F1F" id="n740"/>
<path d="M2558.58 394L2554.72 383.856H2554.66C2554.68 384.059 2554.69 384.315 2554.7 384.624C2554.73 384.923 2554.74 385.248 2554.74 385.6C2554.75 385.952 2554.75 386.315 2554.75 386.688V394H2553.57V382.576H2555.47L2559.12 392.128H2559.18L2562.88 382.576H2564.77V394H2563.5V386.592C2563.5 386.251 2563.51 385.915 2563.52 385.584C2563.53 385.253 2563.54 384.939 2563.55 384.64C2563.57 384.341 2563.59 384.085 2563.6 383.872H2563.54L2559.63 394H2558.58ZM2571 385.28C2571.74 385.28 2572.36 385.445 2572.87 385.776C2573.39 386.096 2573.79 386.549 2574.06 387.136C2574.33 387.712 2574.47 388.389 2574.47 389.168V389.952H2568.54C2568.56 390.965 2568.81 391.744 2569.29 392.288C2569.78 392.821 2570.47 393.088 2571.37 393.088C2571.9 393.088 2572.38 393.04 2572.79 392.944C2573.21 392.837 2573.64 392.688 2574.09 392.496V393.6C2573.66 393.792 2573.23 393.931 2572.81 394.016C2572.38 394.112 2571.88 394.16 2571.3 394.16C2570.48 394.16 2569.76 393.995 2569.14 393.664C2568.54 393.323 2568.07 392.827 2567.74 392.176C2567.41 391.515 2567.24 390.72 2567.24 389.792C2567.24 388.875 2567.39 388.08 2567.69 387.408C2568 386.736 2568.43 386.213 2569 385.84C2569.57 385.467 2570.23 385.28 2571 385.28ZM2570.98 386.32C2570.28 386.32 2569.72 386.549 2569.3 387.008C2568.89 387.467 2568.64 388.112 2568.57 388.944H2573.16C2573.16 388.421 2573.08 387.968 2572.92 387.584C2572.77 387.189 2572.54 386.88 2572.22 386.656C2571.9 386.432 2571.49 386.32 2570.98 386.32ZM2582.19 391.664C2582.19 392.208 2582.05 392.667 2581.78 393.04C2581.51 393.403 2581.12 393.68 2580.61 393.872C2580.11 394.064 2579.5 394.16 2578.8 394.16C2578.2 394.16 2577.69 394.112 2577.25 394.016C2576.81 393.92 2576.43 393.787 2576.1 393.616V392.464C2576.45 392.635 2576.86 392.789 2577.34 392.928C2577.84 393.067 2578.33 393.136 2578.83 393.136C2579.58 393.136 2580.12 393.013 2580.45 392.768C2580.79 392.523 2580.96 392.192 2580.96 391.776C2580.96 391.531 2580.89 391.317 2580.75 391.136C2580.62 390.955 2580.4 390.779 2580.08 390.608C2579.77 390.437 2579.34 390.251 2578.78 390.048C2578.24 389.845 2577.77 389.643 2577.38 389.44C2576.98 389.237 2576.67 388.987 2576.45 388.688C2576.24 388.389 2576.13 388.005 2576.13 387.536C2576.13 386.811 2576.42 386.256 2576.99 385.872C2577.58 385.477 2578.35 385.28 2579.3 385.28C2579.82 385.28 2580.3 385.333 2580.75 385.44C2581.2 385.536 2581.62 385.669 2582 385.84L2581.57 386.864C2581.34 386.757 2581.1 386.667 2580.83 386.592C2580.58 386.507 2580.31 386.443 2580.03 386.4C2579.77 386.347 2579.49 386.32 2579.22 386.32C2578.61 386.32 2578.14 386.421 2577.81 386.624C2577.49 386.827 2577.33 387.104 2577.33 387.456C2577.33 387.723 2577.4 387.947 2577.55 388.128C2577.7 388.299 2577.94 388.459 2578.27 388.608C2578.61 388.757 2579.05 388.933 2579.57 389.136C2580.1 389.328 2580.56 389.531 2580.94 389.744C2581.34 389.947 2581.64 390.203 2581.86 390.512C2582.08 390.811 2582.19 391.195 2582.19 391.664ZM2589.8 391.664C2589.8 392.208 2589.66 392.667 2589.39 393.04C2589.12 393.403 2588.73 393.68 2588.22 393.872C2587.72 394.064 2587.11 394.16 2586.41 394.16C2585.81 394.16 2585.3 394.112 2584.86 394.016C2584.42 393.92 2584.04 393.787 2583.71 393.616V392.464C2584.06 392.635 2584.47 392.789 2584.95 392.928C2585.44 393.067 2585.94 393.136 2586.44 393.136C2587.19 393.136 2587.73 393.013 2588.06 392.768C2588.4 392.523 2588.57 392.192 2588.57 391.776C2588.57 391.531 2588.5 391.317 2588.36 391.136C2588.23 390.955 2588.01 390.779 2587.69 390.608C2587.38 390.437 2586.95 390.251 2586.39 390.048C2585.85 389.845 2585.38 389.643 2584.99 389.44C2584.59 389.237 2584.28 388.987 2584.06 388.688C2583.84 388.389 2583.74 388.005 2583.74 387.536C2583.74 386.811 2584.03 386.256 2584.6 385.872C2585.19 385.477 2585.96 385.28 2586.91 385.28C2587.43 385.28 2587.91 385.333 2588.36 385.44C2588.81 385.536 2589.23 385.669 2589.61 385.84L2589.18 386.864C2588.95 386.757 2588.71 386.667 2588.44 386.592C2588.19 386.507 2587.92 386.443 2587.64 386.4C2587.38 386.347 2587.1 386.32 2586.83 386.32C2586.22 386.32 2585.75 386.421 2585.42 386.624C2585.1 386.827 2584.94 387.104 2584.94 387.456C2584.94 387.723 2585.01 387.947 2585.16 388.128C2585.31 388.299 2585.55 388.459 2585.88 388.608C2586.22 388.757 2586.66 388.933 2587.18 389.136C2587.71 389.328 2588.17 389.531 2588.55 389.744C2588.95 389.947 2589.25 390.203 2589.47 390.512C2589.69 390.811 2589.8 391.195 2589.8 391.664ZM2595.06 385.296C2596.08 385.296 2596.84 385.531 2597.33 386C2597.82 386.459 2598.07 387.189 2598.07 388.192V394H2597.14L2596.9 392.72H2596.85C2596.62 393.029 2596.37 393.296 2596.1 393.52C2595.84 393.733 2595.54 393.893 2595.19 394C2594.85 394.107 2594.43 394.16 2593.94 394.16C2593.42 394.16 2592.95 394.069 2592.55 393.888C2592.14 393.707 2591.82 393.429 2591.59 393.056C2591.36 392.683 2591.25 392.219 2591.25 391.664C2591.25 390.811 2591.59 390.155 2592.26 389.696C2592.94 389.237 2593.97 388.987 2595.35 388.944L2596.84 388.88V388.352C2596.84 387.595 2596.68 387.067 2596.36 386.768C2596.05 386.469 2595.59 386.32 2595 386.32C2594.55 386.32 2594.12 386.384 2593.72 386.512C2593.32 386.64 2592.94 386.795 2592.56 386.976L2592.18 386.016C2592.56 385.813 2593.01 385.643 2593.51 385.504C2594.01 385.365 2594.53 385.296 2595.06 385.296ZM2595.51 389.824C2594.44 389.867 2593.68 390.043 2593.24 390.352C2592.79 390.661 2592.56 391.104 2592.56 391.68C2592.56 392.171 2592.71 392.539 2593.01 392.784C2593.32 393.019 2593.72 393.136 2594.21 393.136C2594.99 393.136 2595.62 392.923 2596.1 392.496C2596.58 392.059 2596.82 391.413 2596.82 390.56V389.776L2595.51 389.824ZM2603.79 385.28C2604.39 385.28 2604.91 385.397 2605.36 385.632C2605.81 385.856 2606.19 386.187 2606.5 386.624H2606.58L2606.75 385.44H2607.74V394.176C2607.74 394.965 2607.61 395.632 2607.34 396.176C2607.08 396.731 2606.66 397.147 2606.1 397.424C2605.54 397.701 2604.83 397.84 2603.95 397.84C2603.33 397.84 2602.77 397.792 2602.26 397.696C2601.74 397.6 2601.28 397.467 2600.88 397.296V396.112C2601.16 396.251 2601.46 396.368 2601.79 396.464C2602.12 396.571 2602.47 396.651 2602.85 396.704C2603.23 396.757 2603.63 396.784 2604.03 396.784C2604.82 396.784 2605.43 396.56 2605.86 396.112C2606.28 395.664 2606.5 395.051 2606.5 394.272V393.888C2606.5 393.739 2606.5 393.547 2606.51 393.312C2606.52 393.067 2606.53 392.88 2606.54 392.752H2606.5C2606.21 393.221 2605.83 393.573 2605.38 393.808C2604.93 394.043 2604.39 394.16 2603.78 394.16C2602.67 394.16 2601.8 393.776 2601.18 393.008C2600.56 392.24 2600.26 391.157 2600.26 389.76C2600.26 388.843 2600.39 388.048 2600.67 387.376C2600.95 386.704 2601.35 386.187 2601.87 385.824C2602.4 385.461 2603.04 385.28 2603.79 385.28ZM2603.95 386.352C2603.44 386.352 2603 386.485 2602.64 386.752C2602.29 387.019 2602.02 387.408 2601.82 387.92C2601.64 388.421 2601.55 389.04 2601.55 389.776C2601.55 390.853 2601.75 391.68 2602.16 392.256C2602.58 392.832 2603.17 393.12 2603.95 393.12C2604.42 393.12 2604.82 393.056 2605.14 392.928C2605.46 392.8 2605.72 392.608 2605.92 392.352C2606.13 392.096 2606.28 391.776 2606.37 391.392C2606.46 391.008 2606.51 390.565 2606.51 390.064V389.664C2606.51 388.896 2606.42 388.272 2606.24 387.792C2606.07 387.301 2605.8 386.939 2605.42 386.704C2605.05 386.469 2604.56 386.352 2603.95 386.352ZM2613.78 385.28C2614.52 385.28 2615.14 385.445 2615.65 385.776C2616.18 386.096 2616.57 386.549 2616.84 387.136C2617.11 387.712 2617.25 388.389 2617.25 389.168V389.952H2611.32C2611.34 390.965 2611.59 391.744 2612.07 392.288C2612.56 392.821 2613.25 393.088 2614.15 393.088C2614.68 393.088 2615.16 393.04 2615.57 392.944C2615.99 392.837 2616.42 392.688 2616.87 392.496V393.6C2616.44 393.792 2616.02 393.931 2615.59 394.016C2615.16 394.112 2614.66 394.16 2614.09 394.16C2613.26 394.16 2612.54 393.995 2611.93 393.664C2611.32 393.323 2610.85 392.827 2610.52 392.176C2610.19 391.515 2610.02 390.72 2610.02 389.792C2610.02 388.875 2610.17 388.08 2610.47 387.408C2610.78 386.736 2611.22 386.213 2611.78 385.84C2612.35 385.467 2613.01 385.28 2613.78 385.28ZM2613.77 386.32C2613.06 386.32 2612.5 386.549 2612.09 387.008C2611.67 387.467 2611.42 388.112 2611.35 388.944H2615.94C2615.94 388.421 2615.86 387.968 2615.7 387.584C2615.55 387.189 2615.32 386.88 2615 386.656C2614.68 386.432 2614.27 386.32 2613.77 386.32ZM2626.33 393.12C2626.55 393.12 2626.77 393.104 2626.99 393.072C2627.21 393.029 2627.4 392.987 2627.55 392.944V393.904C2627.39 393.979 2627.17 394.037 2626.91 394.08C2626.65 394.133 2626.39 394.16 2626.12 394.16C2625.67 394.16 2625.27 394.08 2624.91 393.92C2624.54 393.76 2624.25 393.493 2624.03 393.12C2623.81 392.736 2623.71 392.208 2623.71 391.536V386.432H2622.47V385.808L2623.72 385.328L2624.2 383.456H2624.97V385.44H2627.48V386.432H2624.97V391.504C2624.97 392.048 2625.09 392.453 2625.32 392.72C2625.57 392.987 2625.9 393.12 2626.33 393.12ZM2632.58 385.28C2633.31 385.28 2633.94 385.445 2634.45 385.776C2634.97 386.096 2635.37 386.549 2635.63 387.136C2635.91 387.712 2636.05 388.389 2636.05 389.168V389.952H2630.11C2630.14 390.965 2630.39 391.744 2630.87 392.288C2631.36 392.821 2632.05 393.088 2632.95 393.088C2633.48 393.088 2633.95 393.04 2634.37 392.944C2634.79 392.837 2635.22 392.688 2635.67 392.496V393.6C2635.24 393.792 2634.81 393.931 2634.39 394.016C2633.96 394.112 2633.46 394.16 2632.88 394.16C2632.06 394.16 2631.34 393.995 2630.72 393.664C2630.11 393.323 2629.64 392.827 2629.31 392.176C2628.98 391.515 2628.82 390.72 2628.82 389.792C2628.82 388.875 2628.97 388.08 2629.27 387.408C2629.58 386.736 2630.01 386.213 2630.58 385.84C2631.14 385.467 2631.81 385.28 2632.58 385.28ZM2632.56 386.32C2631.86 386.32 2631.3 386.549 2630.88 387.008C2630.47 387.467 2630.22 388.112 2630.15 388.944H2634.74C2634.74 388.421 2634.66 387.968 2634.5 387.584C2634.35 387.189 2634.11 386.88 2633.79 386.656C2633.47 386.432 2633.06 386.32 2632.56 386.32ZM2639.97 389.616L2637.01 385.44H2638.45L2640.74 388.768L2642.99 385.44H2644.42L2641.47 389.616L2644.59 394H2643.15L2640.74 390.48L2638.29 394H2636.87L2639.97 389.616ZM2649 393.12C2649.23 393.12 2649.44 393.104 2649.66 393.072C2649.88 393.029 2650.07 392.987 2650.22 392.944V393.904C2650.06 393.979 2649.84 394.037 2649.58 394.08C2649.32 394.133 2649.06 394.16 2648.79 394.16C2648.35 394.16 2647.94 394.08 2647.58 393.92C2647.22 393.76 2646.92 393.493 2646.7 393.12C2646.48 392.736 2646.38 392.208 2646.38 391.536V386.432H2645.15V385.808L2646.39 385.328L2646.87 383.456H2647.64V385.44H2650.15V386.432H2647.64V391.504C2647.64 392.048 2647.76 392.453 2647.99 392.72C2648.24 392.987 2648.58 393.12 2649 393.12ZM2659.18 385.28C2659.78 385.28 2660.3 385.397 2660.75 385.632C2661.2 385.856 2661.58 386.187 2661.89 386.624H2661.97L2662.14 385.44H2663.13V394.176C2663.13 394.965 2663 395.632 2662.73 396.176C2662.47 396.731 2662.05 397.147 2661.49 397.424C2660.93 397.701 2660.22 397.84 2659.34 397.84C2658.72 397.84 2658.16 397.792 2657.65 397.696C2657.13 397.6 2656.68 397.467 2656.27 397.296V396.112C2656.55 396.251 2656.85 396.368 2657.18 396.464C2657.51 396.571 2657.86 396.651 2658.24 396.704C2658.62 396.757 2659.02 396.784 2659.42 396.784C2660.21 396.784 2660.82 396.56 2661.25 396.112C2661.67 395.664 2661.89 395.051 2661.89 394.272V393.888C2661.89 393.739 2661.89 393.547 2661.9 393.312C2661.91 393.067 2661.92 392.88 2661.93 392.752H2661.89C2661.6 393.221 2661.22 393.573 2660.77 393.808C2660.32 394.043 2659.78 394.16 2659.17 394.16C2658.06 394.16 2657.19 393.776 2656.57 393.008C2655.96 392.24 2655.65 391.157 2655.65 389.76C2655.65 388.843 2655.78 388.048 2656.06 387.376C2656.34 386.704 2656.74 386.187 2657.26 385.824C2657.8 385.461 2658.44 385.28 2659.18 385.28ZM2659.34 386.352C2658.83 386.352 2658.39 386.485 2658.03 386.752C2657.68 387.019 2657.41 387.408 2657.21 387.92C2657.03 388.421 2656.94 389.04 2656.94 389.776C2656.94 390.853 2657.14 391.68 2657.55 392.256C2657.97 392.832 2658.56 393.12 2659.34 393.12C2659.81 393.12 2660.21 393.056 2660.53 392.928C2660.85 392.8 2661.11 392.608 2661.31 392.352C2661.52 392.096 2661.67 391.776 2661.76 391.392C2661.85 391.008 2661.9 390.565 2661.9 390.064V389.664C2661.9 388.896 2661.81 388.272 2661.63 387.792C2661.46 387.301 2661.19 386.939 2660.81 386.704C2660.44 386.469 2659.95 386.352 2659.34 386.352ZM2673.25 389.712C2673.25 390.405 2673.16 391.029 2672.98 391.584C2672.8 392.128 2672.54 392.592 2672.2 392.976C2671.85 393.36 2671.44 393.653 2670.95 393.856C2670.46 394.059 2669.91 394.16 2669.3 394.16C2668.72 394.16 2668.2 394.059 2667.72 393.856C2667.25 393.653 2666.84 393.36 2666.48 392.976C2666.14 392.592 2665.88 392.128 2665.68 391.584C2665.5 391.04 2665.41 390.416 2665.41 389.712C2665.41 388.773 2665.57 387.979 2665.88 387.328C2666.2 386.667 2666.65 386.16 2667.24 385.808C2667.83 385.456 2668.54 385.28 2669.35 385.28C2670.14 385.28 2670.82 385.456 2671.4 385.808C2671.98 386.16 2672.44 386.667 2672.76 387.328C2673.09 387.989 2673.25 388.784 2673.25 389.712ZM2666.71 389.712C2666.71 390.395 2666.8 390.992 2666.98 391.504C2667.17 392.016 2667.46 392.411 2667.84 392.688C2668.23 392.965 2668.72 393.104 2669.32 393.104C2669.92 393.104 2670.42 392.965 2670.8 392.688C2671.2 392.411 2671.49 392.016 2671.67 391.504C2671.85 390.992 2671.94 390.395 2671.94 389.712C2671.94 389.019 2671.84 388.427 2671.65 387.936C2671.47 387.435 2671.19 387.045 2670.8 386.768C2670.43 386.491 2669.93 386.352 2669.32 386.352C2668.42 386.352 2667.76 386.651 2667.33 387.248C2666.92 387.835 2666.71 388.656 2666.71 389.712ZM2678.77 385.28C2679.5 385.28 2680.13 385.445 2680.64 385.776C2681.16 386.096 2681.55 386.549 2681.82 387.136C2682.1 387.712 2682.24 388.389 2682.24 389.168V389.952H2676.3C2676.32 390.965 2676.57 391.744 2677.05 392.288C2677.54 392.821 2678.24 393.088 2679.13 393.088C2679.67 393.088 2680.14 393.04 2680.56 392.944C2680.97 392.837 2681.41 392.688 2681.85 392.496V393.6C2681.43 393.792 2681 393.931 2680.57 394.016C2680.15 394.112 2679.65 394.16 2679.07 394.16C2678.25 394.16 2677.53 393.995 2676.91 393.664C2676.3 393.323 2675.83 392.827 2675.5 392.176C2675.17 391.515 2675.01 390.72 2675.01 389.792C2675.01 388.875 2675.15 388.08 2675.45 387.408C2675.76 386.736 2676.2 386.213 2676.77 385.84C2677.33 385.467 2678 385.28 2678.77 385.28ZM2678.75 386.32C2678.05 386.32 2677.49 386.549 2677.07 387.008C2676.65 387.467 2676.41 388.112 2676.33 388.944H2680.93C2680.93 388.421 2680.85 387.968 2680.69 387.584C2680.54 387.189 2680.3 386.88 2679.98 386.656C2679.66 386.432 2679.25 386.32 2678.75 386.32ZM2689.96 391.664C2689.96 392.208 2689.82 392.667 2689.54 393.04C2689.28 393.403 2688.89 393.68 2688.37 393.872C2687.87 394.064 2687.27 394.16 2686.57 394.16C2685.97 394.16 2685.45 394.112 2685.01 394.016C2684.58 393.92 2684.19 393.787 2683.86 393.616V392.464C2684.21 392.635 2684.63 392.789 2685.11 392.928C2685.6 393.067 2686.1 393.136 2686.6 393.136C2687.35 393.136 2687.88 393.013 2688.21 392.768C2688.56 392.523 2688.73 392.192 2688.73 391.776C2688.73 391.531 2688.66 391.317 2688.52 391.136C2688.39 390.955 2688.17 390.779 2687.85 390.608C2687.54 390.437 2687.11 390.251 2686.55 390.048C2686.01 389.845 2685.54 389.643 2685.14 389.44C2684.75 389.237 2684.44 388.987 2684.21 388.688C2684 388.389 2683.89 388.005 2683.89 387.536C2683.89 386.811 2684.18 386.256 2684.76 385.872C2685.35 385.477 2686.11 385.28 2687.06 385.28C2687.59 385.28 2688.07 385.333 2688.52 385.44C2688.97 385.536 2689.38 385.669 2689.77 385.84L2689.33 386.864C2689.11 386.757 2688.87 386.667 2688.6 386.592C2688.34 386.507 2688.08 386.443 2687.8 386.4C2687.53 386.347 2687.26 386.32 2686.98 386.32C2686.37 386.32 2685.91 386.421 2685.57 386.624C2685.25 386.827 2685.09 387.104 2685.09 387.456C2685.09 387.723 2685.17 387.947 2685.32 388.128C2685.47 388.299 2685.71 388.459 2686.04 388.608C2686.38 388.757 2686.81 388.933 2687.33 389.136C2687.87 389.328 2688.33 389.531 2688.71 389.744C2689.11 389.947 2689.41 390.203 2689.62 390.512C2689.85 390.811 2689.96 391.195 2689.96 391.664ZM2697.45 385.504C2697.45 385.717 2697.45 385.931 2697.44 386.144C2697.43 386.347 2697.41 386.539 2697.39 386.72H2697.47C2697.64 386.411 2697.86 386.155 2698.14 385.952C2698.42 385.739 2698.73 385.579 2699.08 385.472C2699.44 385.355 2699.81 385.296 2700.2 385.296C2700.89 385.296 2701.46 385.408 2701.92 385.632C2702.37 385.845 2702.72 386.181 2702.96 386.64C2703.19 387.099 2703.31 387.691 2703.31 388.416V394H2702.06V388.512C2702.06 387.776 2701.89 387.232 2701.56 386.88C2701.23 386.528 2700.73 386.352 2700.06 386.352C2699.42 386.352 2698.91 386.475 2698.52 386.72C2698.15 386.955 2697.88 387.307 2697.71 387.776C2697.54 388.245 2697.45 388.821 2697.45 389.504V394H2696.2V381.84H2697.45V385.504ZM2709.27 385.28C2710 385.28 2710.63 385.445 2711.14 385.776C2711.66 386.096 2712.05 386.549 2712.32 387.136C2712.6 387.712 2712.74 388.389 2712.74 389.168V389.952H2706.8C2706.82 390.965 2707.07 391.744 2707.55 392.288C2708.04 392.821 2708.74 393.088 2709.63 393.088C2710.17 393.088 2710.64 393.04 2711.06 392.944C2711.47 392.837 2711.91 392.688 2712.35 392.496V393.6C2711.93 393.792 2711.5 393.931 2711.07 394.016C2710.65 394.112 2710.15 394.16 2709.57 394.16C2708.75 394.16 2708.03 393.995 2707.41 393.664C2706.8 393.323 2706.33 392.827 2706 392.176C2705.67 391.515 2705.51 390.72 2705.51 389.792C2705.51 388.875 2705.65 388.08 2705.95 387.408C2706.26 386.736 2706.7 386.213 2707.27 385.84C2707.83 385.467 2708.5 385.28 2709.27 385.28ZM2709.25 386.32C2708.55 386.32 2707.99 386.549 2707.57 387.008C2707.15 387.467 2706.91 388.112 2706.83 388.944H2711.43C2711.43 388.421 2711.35 387.968 2711.19 387.584C2711.04 387.189 2710.8 386.88 2710.48 386.656C2710.16 386.432 2709.75 386.32 2709.25 386.32ZM2718.78 385.296C2718.96 385.296 2719.14 385.307 2719.32 385.328C2719.51 385.339 2719.69 385.36 2719.83 385.392L2719.67 386.56C2719.53 386.517 2719.37 386.485 2719.19 386.464C2719.03 386.443 2718.87 386.432 2718.7 386.432C2718.36 386.432 2718.03 386.507 2717.72 386.656C2717.42 386.795 2717.16 386.992 2716.92 387.248C2716.7 387.504 2716.52 387.813 2716.39 388.176C2716.27 388.539 2716.2 388.944 2716.2 389.392V394H2714.94V385.44H2715.98L2716.11 387.024H2716.17C2716.34 386.704 2716.55 386.416 2716.79 386.16C2717.05 385.893 2717.34 385.685 2717.67 385.536C2718.02 385.376 2718.38 385.296 2718.78 385.296ZM2724.42 385.28C2725.16 385.28 2725.78 385.445 2726.29 385.776C2726.82 386.096 2727.21 386.549 2727.48 387.136C2727.75 387.712 2727.89 388.389 2727.89 389.168V389.952H2721.96C2721.98 390.965 2722.23 391.744 2722.71 392.288C2723.2 392.821 2723.89 393.088 2724.79 393.088C2725.32 393.088 2725.8 393.04 2726.21 392.944C2726.63 392.837 2727.06 392.688 2727.51 392.496V393.6C2727.08 393.792 2726.66 393.931 2726.23 394.016C2725.8 394.112 2725.3 394.16 2724.73 394.16C2723.9 394.16 2723.18 393.995 2722.57 393.664C2721.96 393.323 2721.49 392.827 2721.16 392.176C2720.83 391.515 2720.66 390.72 2720.66 389.792C2720.66 388.875 2720.81 388.08 2721.11 387.408C2721.42 386.736 2721.86 386.213 2722.42 385.84C2722.99 385.467 2723.65 385.28 2724.42 385.28ZM2724.41 386.32C2723.7 386.32 2723.14 386.549 2722.73 387.008C2722.31 387.467 2722.06 388.112 2721.99 388.944H2726.58C2726.58 388.421 2726.5 387.968 2726.34 387.584C2726.19 387.189 2725.96 386.88 2725.64 386.656C2725.32 386.432 2724.91 386.32 2724.41 386.32ZM2731.63 392.32C2731.53 392.693 2731.41 393.099 2731.26 393.536C2731.12 393.973 2730.97 394.405 2730.8 394.832C2730.64 395.269 2730.47 395.68 2730.3 396.064H2729.37C2729.48 395.637 2729.59 395.195 2729.69 394.736C2729.8 394.277 2729.89 393.824 2729.97 393.376C2730.05 392.928 2730.12 392.517 2730.17 392.144H2731.53L2731.63 392.32ZM2743.85 391.664C2743.85 392.208 2743.71 392.667 2743.43 393.04C2743.17 393.403 2742.78 393.68 2742.27 393.872C2741.76 394.064 2741.16 394.16 2740.46 394.16C2739.86 394.16 2739.34 394.112 2738.91 394.016C2738.47 393.92 2738.08 393.787 2737.75 393.616V392.464C2738.11 392.635 2738.52 392.789 2739 392.928C2739.49 393.067 2739.99 393.136 2740.49 393.136C2741.24 393.136 2741.77 393.013 2742.11 392.768C2742.45 392.523 2742.62 392.192 2742.62 391.776C2742.62 391.531 2742.55 391.317 2742.41 391.136C2742.28 390.955 2742.06 390.779 2741.74 390.608C2741.43 390.437 2741 390.251 2740.44 390.048C2739.9 389.845 2739.43 389.643 2739.03 389.44C2738.64 389.237 2738.33 388.987 2738.11 388.688C2737.89 388.389 2737.79 388.005 2737.79 387.536C2737.79 386.811 2738.07 386.256 2738.65 385.872C2739.24 385.477 2740 385.28 2740.95 385.28C2741.48 385.28 2741.96 385.333 2742.41 385.44C2742.86 385.536 2743.27 385.669 2743.66 385.84L2743.23 386.864C2743 386.757 2742.76 386.667 2742.49 386.592C2742.23 386.507 2741.97 386.443 2741.69 386.4C2741.42 386.347 2741.15 386.32 2740.87 386.32C2740.27 386.32 2739.8 386.421 2739.47 386.624C2739.15 386.827 2738.99 387.104 2738.99 387.456C2738.99 387.723 2739.06 387.947 2739.21 388.128C2739.36 388.299 2739.6 388.459 2739.93 388.608C2740.27 388.757 2740.7 388.933 2741.23 389.136C2741.76 389.328 2742.22 389.531 2742.6 389.744C2743 389.947 2743.3 390.203 2743.51 390.512C2743.74 390.811 2743.85 391.195 2743.85 391.664ZM2753.3 389.712C2753.3 390.405 2753.21 391.029 2753.03 391.584C2752.85 392.128 2752.58 392.592 2752.24 392.976C2751.9 393.36 2751.49 393.653 2750.99 393.856C2750.5 394.059 2749.95 394.16 2749.35 394.16C2748.77 394.16 2748.24 394.059 2747.76 393.856C2747.29 393.653 2746.88 393.36 2746.53 392.976C2746.19 392.592 2745.92 392.128 2745.73 391.584C2745.55 391.04 2745.46 390.416 2745.46 389.712C2745.46 388.773 2745.61 387.979 2745.92 387.328C2746.24 386.667 2746.7 386.16 2747.28 385.808C2747.88 385.456 2748.58 385.28 2749.39 385.28C2750.18 385.28 2750.87 385.456 2751.44 385.808C2752.03 386.16 2752.48 386.667 2752.8 387.328C2753.13 387.989 2753.3 388.784 2753.3 389.712ZM2746.75 389.712C2746.75 390.395 2746.85 390.992 2747.03 391.504C2747.22 392.016 2747.51 392.411 2747.89 392.688C2748.27 392.965 2748.77 393.104 2749.36 393.104C2749.97 393.104 2750.47 392.965 2750.85 392.688C2751.25 392.411 2751.53 392.016 2751.71 391.504C2751.9 390.992 2751.99 390.395 2751.99 389.712C2751.99 389.019 2751.89 388.427 2751.7 387.936C2751.52 387.435 2751.23 387.045 2750.85 386.768C2750.48 386.491 2749.98 386.352 2749.36 386.352C2748.47 386.352 2747.81 386.651 2747.38 387.248C2746.96 387.835 2746.75 388.656 2746.75 389.712ZM2764.78 385.28C2765.72 385.28 2766.42 385.525 2766.89 386.016C2767.37 386.507 2767.61 387.296 2767.61 388.384V394H2766.38V388.448C2766.38 387.744 2766.23 387.221 2765.92 386.88C2765.62 386.528 2765.17 386.352 2764.57 386.352C2763.75 386.352 2763.15 386.592 2762.76 387.072C2762.38 387.541 2762.19 388.251 2762.19 389.2V394H2760.96V388.448C2760.96 387.979 2760.89 387.589 2760.75 387.28C2760.61 386.96 2760.41 386.725 2760.14 386.576C2759.87 386.427 2759.54 386.352 2759.15 386.352C2758.58 386.352 2758.12 386.469 2757.77 386.704C2757.43 386.939 2757.18 387.285 2757.02 387.744C2756.86 388.192 2756.78 388.757 2756.78 389.44V394H2755.53V385.44H2756.54L2756.73 386.672H2756.8C2756.98 386.373 2757.19 386.123 2757.44 385.92C2757.69 385.707 2757.98 385.547 2758.3 385.44C2758.63 385.333 2758.98 385.28 2759.36 385.28C2760.01 385.28 2760.55 385.403 2760.99 385.648C2761.43 385.893 2761.75 386.267 2761.95 386.768H2762.01C2762.29 386.277 2762.67 385.909 2763.16 385.664C2763.65 385.408 2764.19 385.28 2764.78 385.28ZM2773.58 385.28C2774.31 385.28 2774.94 385.445 2775.45 385.776C2775.97 386.096 2776.37 386.549 2776.63 387.136C2776.91 387.712 2777.05 388.389 2777.05 389.168V389.952H2771.11C2771.14 390.965 2771.39 391.744 2771.87 392.288C2772.36 392.821 2773.05 393.088 2773.95 393.088C2774.48 393.088 2774.95 393.04 2775.37 392.944C2775.79 392.837 2776.22 392.688 2776.67 392.496V393.6C2776.24 393.792 2775.81 393.931 2775.39 394.016C2774.96 394.112 2774.46 394.16 2773.88 394.16C2773.06 394.16 2772.34 393.995 2771.72 393.664C2771.11 393.323 2770.64 392.827 2770.31 392.176C2769.98 391.515 2769.82 390.72 2769.82 389.792C2769.82 388.875 2769.97 388.08 2770.27 387.408C2770.58 386.736 2771.01 386.213 2771.58 385.84C2772.14 385.467 2772.81 385.28 2773.58 385.28ZM2773.56 386.32C2772.86 386.32 2772.3 386.549 2771.88 387.008C2771.47 387.467 2771.22 388.112 2771.15 388.944H2775.74C2775.74 388.421 2775.66 387.968 2775.5 387.584C2775.35 387.189 2775.11 386.88 2774.79 386.656C2774.47 386.432 2774.06 386.32 2773.56 386.32ZM2781.97 393.12C2782.2 393.12 2782.41 393.104 2782.63 393.072C2782.85 393.029 2783.04 392.987 2783.19 392.944V393.904C2783.03 393.979 2782.81 394.037 2782.55 394.08C2782.29 394.133 2782.03 394.16 2781.76 394.16C2781.32 394.16 2780.91 394.08 2780.55 393.92C2780.18 393.76 2779.89 393.493 2779.67 393.12C2779.45 392.736 2779.35 392.208 2779.35 391.536V386.432H2778.12V385.808L2779.36 385.328L2779.84 383.456H2780.61V385.44H2783.12V386.432H2780.61V391.504C2780.61 392.048 2780.73 392.453 2780.96 392.72C2781.21 392.987 2781.54 393.12 2781.97 393.12ZM2786.19 385.504C2786.19 385.717 2786.18 385.931 2786.17 386.144C2786.16 386.347 2786.14 386.539 2786.12 386.72H2786.2C2786.37 386.411 2786.6 386.155 2786.87 385.952C2787.15 385.739 2787.47 385.579 2787.82 385.472C2788.17 385.355 2788.54 385.296 2788.94 385.296C2789.62 385.296 2790.19 385.408 2790.65 385.632C2791.11 385.845 2791.46 386.181 2791.69 386.64C2791.93 387.099 2792.04 387.691 2792.04 388.416V394H2790.79V388.512C2790.79 387.776 2790.63 387.232 2790.3 386.88C2789.97 386.528 2789.47 386.352 2788.79 386.352C2788.15 386.352 2787.64 386.475 2787.26 386.72C2786.89 386.955 2786.61 387.307 2786.44 387.776C2786.27 388.245 2786.19 388.821 2786.19 389.504V394H2784.94V381.84H2786.19V385.504ZM2795.97 385.44V394H2794.72V385.44H2795.97ZM2795.36 382.24C2795.57 382.24 2795.75 382.309 2795.89 382.448C2796.04 382.587 2796.11 382.8 2796.11 383.088C2796.11 383.355 2796.04 383.563 2795.89 383.712C2795.75 383.851 2795.57 383.92 2795.36 383.92C2795.14 383.92 2794.95 383.851 2794.8 383.712C2794.66 383.563 2794.59 383.355 2794.59 383.088C2794.59 382.8 2794.66 382.587 2794.8 382.448C2794.95 382.309 2795.14 382.24 2795.36 382.24ZM2802.75 385.28C2803.75 385.28 2804.52 385.531 2805.04 386.032C2805.56 386.523 2805.82 387.317 2805.82 388.416V394H2804.58V388.512C2804.58 387.776 2804.41 387.232 2804.08 386.88C2803.75 386.528 2803.25 386.352 2802.58 386.352C2801.63 386.352 2800.95 386.619 2800.56 387.152C2800.17 387.685 2799.97 388.464 2799.97 389.488V394H2798.72V385.44H2799.73L2799.92 386.704H2799.98C2800.18 386.395 2800.41 386.139 2800.69 385.936C2800.97 385.723 2801.28 385.563 2801.63 385.456C2801.98 385.339 2802.36 385.28 2802.75 385.28ZM2811.56 385.28C2812.15 385.28 2812.68 385.397 2813.13 385.632C2813.57 385.856 2813.95 386.187 2814.26 386.624H2814.34L2814.52 385.44H2815.51V394.176C2815.51 394.965 2815.38 395.632 2815.11 396.176C2814.84 396.731 2814.43 397.147 2813.86 397.424C2813.31 397.701 2812.59 397.84 2811.72 397.84C2811.1 397.84 2810.53 397.792 2810.02 397.696C2809.51 397.6 2809.05 397.467 2808.65 397.296V396.112C2808.92 396.251 2809.23 396.368 2809.56 396.464C2809.89 396.571 2810.24 396.651 2810.61 396.704C2811 396.757 2811.39 396.784 2811.8 396.784C2812.59 396.784 2813.19 396.56 2813.62 396.112C2814.05 395.664 2814.26 395.051 2814.26 394.272V393.888C2814.26 393.739 2814.27 393.547 2814.28 393.312C2814.29 393.067 2814.3 392.88 2814.31 392.752H2814.26C2813.97 393.221 2813.6 393.573 2813.14 393.808C2812.69 394.043 2812.16 394.16 2811.54 394.16C2810.43 394.16 2809.57 393.776 2808.95 393.008C2808.33 392.24 2808.02 391.157 2808.02 389.76C2808.02 388.843 2808.16 388.048 2808.44 387.376C2808.71 386.704 2809.11 386.187 2809.64 385.824C2810.17 385.461 2810.81 385.28 2811.56 385.28ZM2811.72 386.352C2811.21 386.352 2810.77 386.485 2810.41 386.752C2810.05 387.019 2809.78 387.408 2809.59 387.92C2809.41 388.421 2809.32 389.04 2809.32 389.776C2809.32 390.853 2809.52 391.68 2809.93 392.256C2810.34 392.832 2810.94 393.12 2811.72 393.12C2812.19 393.12 2812.58 393.056 2812.9 392.928C2813.22 392.8 2813.48 392.608 2813.69 392.352C2813.9 392.096 2814.05 391.776 2814.13 391.392C2814.23 391.008 2814.28 390.565 2814.28 390.064V389.664C2814.28 388.896 2814.19 388.272 2814.01 387.792C2813.83 387.301 2813.56 386.939 2813.19 386.704C2812.82 386.469 2812.33 386.352 2811.72 386.352ZM2823.67 385.44V394H2822.42V385.44H2823.67ZM2823.06 382.24C2823.28 382.24 2823.45 382.309 2823.59 382.448C2823.74 382.587 2823.81 382.8 2823.81 383.088C2823.81 383.355 2823.74 383.563 2823.59 383.712C2823.45 383.851 2823.28 383.92 2823.06 383.92C2822.84 383.92 2822.65 383.851 2822.5 383.712C2822.36 383.563 2822.29 383.355 2822.29 383.088C2822.29 382.8 2822.36 382.587 2822.5 382.448C2822.65 382.309 2822.84 382.24 2823.06 382.24ZM2830.45 385.28C2831.46 385.28 2832.22 385.531 2832.74 386.032C2833.27 386.523 2833.53 387.317 2833.53 388.416V394H2832.28V388.512C2832.28 387.776 2832.11 387.232 2831.78 386.88C2831.45 386.528 2830.95 386.352 2830.28 386.352C2829.33 386.352 2828.66 386.619 2828.26 387.152C2827.87 387.685 2827.67 388.464 2827.67 389.488V394H2826.42V385.44H2827.43L2827.62 386.704H2827.69C2827.88 386.395 2828.11 386.139 2828.39 385.936C2828.67 385.723 2828.98 385.563 2829.33 385.456C2829.69 385.339 2830.06 385.28 2830.45 385.28ZM2839.96 386.432H2837.84V394H2836.59V386.432H2835.05V385.824L2836.59 385.408V384.8C2836.59 384.096 2836.69 383.52 2836.89 383.072C2837.11 382.624 2837.41 382.293 2837.82 382.08C2838.23 381.867 2838.72 381.76 2839.29 381.76C2839.62 381.76 2839.92 381.787 2840.19 381.84C2840.47 381.893 2840.71 381.957 2840.91 382.032L2840.59 383.04C2840.41 382.976 2840.2 382.923 2839.98 382.88C2839.76 382.827 2839.53 382.8 2839.31 382.8C2838.81 382.8 2838.43 382.96 2838.19 383.28C2837.95 383.6 2837.84 384.101 2837.84 384.784V385.44H2839.96V386.432ZM2848.89 389.712C2848.89 390.405 2848.8 391.029 2848.62 391.584C2848.44 392.128 2848.18 392.592 2847.84 392.976C2847.49 393.36 2847.08 393.653 2846.59 393.856C2846.1 394.059 2845.55 394.16 2844.94 394.16C2844.36 394.16 2843.84 394.059 2843.36 393.856C2842.89 393.653 2842.48 393.36 2842.12 392.976C2841.78 392.592 2841.52 392.128 2841.32 391.584C2841.14 391.04 2841.05 390.416 2841.05 389.712C2841.05 388.773 2841.21 387.979 2841.52 387.328C2841.84 386.667 2842.29 386.16 2842.88 385.808C2843.47 385.456 2844.18 385.28 2844.99 385.28C2845.78 385.28 2846.46 385.456 2847.04 385.808C2847.62 386.16 2848.08 386.667 2848.4 387.328C2848.73 387.989 2848.89 388.784 2848.89 389.712ZM2842.35 389.712C2842.35 390.395 2842.44 390.992 2842.62 391.504C2842.81 392.016 2843.1 392.411 2843.48 392.688C2843.87 392.965 2844.36 393.104 2844.96 393.104C2845.56 393.104 2846.06 392.965 2846.44 392.688C2846.84 392.411 2847.13 392.016 2847.31 391.504C2847.49 390.992 2847.58 390.395 2847.58 389.712C2847.58 389.019 2847.48 388.427 2847.29 387.936C2847.11 387.435 2846.83 387.045 2846.44 386.768C2846.07 386.491 2845.57 386.352 2844.96 386.352C2844.06 386.352 2843.4 386.651 2842.97 387.248C2842.56 387.835 2842.35 388.656 2842.35 389.712ZM2854.97 385.296C2855.15 385.296 2855.33 385.307 2855.51 385.328C2855.7 385.339 2855.87 385.36 2856.02 385.392L2855.86 386.56C2855.71 386.517 2855.55 386.485 2855.38 386.464C2855.22 386.443 2855.06 386.432 2854.89 386.432C2854.54 386.432 2854.22 386.507 2853.91 386.656C2853.61 386.795 2853.34 386.992 2853.11 387.248C2852.89 387.504 2852.71 387.813 2852.58 388.176C2852.45 388.539 2852.39 388.944 2852.39 389.392V394H2851.13V385.44H2852.17L2852.29 387.024H2852.36C2852.53 386.704 2852.74 386.416 2852.98 386.16C2853.24 385.893 2853.53 385.685 2853.86 385.536C2854.2 385.376 2854.57 385.296 2854.97 385.296ZM2866.89 385.28C2867.83 385.28 2868.53 385.525 2869 386.016C2869.48 386.507 2869.72 387.296 2869.72 388.384V394H2868.49V388.448C2868.49 387.744 2868.33 387.221 2868.03 386.88C2867.73 386.528 2867.28 386.352 2866.68 386.352C2865.86 386.352 2865.26 386.592 2864.87 387.072C2864.49 387.541 2864.3 388.251 2864.3 389.2V394H2863.07V388.448C2863.07 387.979 2863 387.589 2862.86 387.28C2862.72 386.96 2862.52 386.725 2862.25 386.576C2861.98 386.427 2861.65 386.352 2861.26 386.352C2860.69 386.352 2860.23 386.469 2859.88 386.704C2859.54 386.939 2859.29 387.285 2859.13 387.744C2858.97 388.192 2858.89 388.757 2858.89 389.44V394H2857.64V385.44H2858.65L2858.84 386.672H2858.91C2859.09 386.373 2859.3 386.123 2859.55 385.92C2859.8 385.707 2860.09 385.547 2860.41 385.44C2860.74 385.333 2861.09 385.28 2861.47 385.28C2862.12 385.28 2862.66 385.403 2863.1 385.648C2863.53 385.893 2863.85 386.267 2864.06 386.768H2864.12C2864.4 386.277 2864.78 385.909 2865.27 385.664C2865.76 385.408 2866.3 385.28 2866.89 385.28ZM2875.58 385.296C2876.6 385.296 2877.36 385.531 2877.85 386C2878.34 386.459 2878.58 387.189 2878.58 388.192V394H2877.66L2877.42 392.72H2877.37C2877.13 393.029 2876.88 393.296 2876.62 393.52C2876.36 393.733 2876.06 393.893 2875.7 394C2875.36 394.107 2874.95 394.16 2874.46 394.16C2873.93 394.16 2873.47 394.069 2873.06 393.888C2872.66 393.707 2872.34 393.429 2872.1 393.056C2871.88 392.683 2871.77 392.219 2871.77 391.664C2871.77 390.811 2872.1 390.155 2872.78 389.696C2873.46 389.237 2874.49 388.987 2875.86 388.944L2877.35 388.88V388.352C2877.35 387.595 2877.19 387.067 2876.87 386.768C2876.56 386.469 2876.11 386.32 2875.51 386.32C2875.06 386.32 2874.64 386.384 2874.23 386.512C2873.84 386.64 2873.45 386.795 2873.08 386.976L2872.7 386.016C2873.08 385.813 2873.52 385.643 2874.02 385.504C2874.52 385.365 2875.04 385.296 2875.58 385.296ZM2876.02 389.824C2874.96 389.867 2874.2 390.043 2873.75 390.352C2873.3 390.661 2873.08 391.104 2873.08 391.68C2873.08 392.171 2873.23 392.539 2873.53 392.784C2873.84 393.019 2874.24 393.136 2874.73 393.136C2875.51 393.136 2876.14 392.923 2876.62 392.496C2877.1 392.059 2877.34 391.413 2877.34 390.56V389.776L2876.02 389.824ZM2883.97 393.12C2884.2 393.12 2884.41 393.104 2884.63 393.072C2884.85 393.029 2885.04 392.987 2885.19 392.944V393.904C2885.03 393.979 2884.81 394.037 2884.55 394.08C2884.29 394.133 2884.03 394.16 2883.76 394.16C2883.32 394.16 2882.91 394.08 2882.55 393.92C2882.18 393.76 2881.89 393.493 2881.67 393.12C2881.45 392.736 2881.35 392.208 2881.35 391.536V386.432H2880.12V385.808L2881.36 385.328L2881.84 383.456H2882.61V385.44H2885.12V386.432H2882.61V391.504C2882.61 392.048 2882.73 392.453 2882.96 392.72C2883.21 392.987 2883.54 393.12 2883.97 393.12ZM2888.19 385.44V394H2886.94V385.44H2888.19ZM2887.58 382.24C2887.79 382.24 2887.97 382.309 2888.11 382.448C2888.26 382.587 2888.33 382.8 2888.33 383.088C2888.33 383.355 2888.26 383.563 2888.11 383.712C2887.97 383.851 2887.79 383.92 2887.58 383.92C2887.35 383.92 2887.17 383.851 2887.02 383.712C2886.88 383.563 2886.81 383.355 2886.81 383.088C2886.81 382.8 2886.88 382.587 2887.02 382.448C2887.17 382.309 2887.35 382.24 2887.58 382.24ZM2892.81 394L2889.56 385.44H2890.91L2892.81 390.672C2892.9 390.907 2892.99 391.163 2893.08 391.44C2893.18 391.707 2893.26 391.963 2893.32 392.208C2893.4 392.453 2893.45 392.667 2893.48 392.848H2893.55C2893.59 392.667 2893.65 392.453 2893.72 392.208C2893.81 391.952 2893.9 391.691 2893.99 391.424C2894.09 391.147 2894.18 390.896 2894.25 390.672L2896.15 385.44H2897.5L2894.23 394H2892.81ZM2902.16 385.28C2902.89 385.28 2903.52 385.445 2904.03 385.776C2904.55 386.096 2904.95 386.549 2905.21 387.136C2905.49 387.712 2905.63 388.389 2905.63 389.168V389.952H2899.69C2899.71 390.965 2899.96 391.744 2900.44 392.288C2900.93 392.821 2901.63 393.088 2902.52 393.088C2903.06 393.088 2903.53 393.04 2903.95 392.944C2904.36 392.837 2904.8 392.688 2905.24 392.496V393.6C2904.82 393.792 2904.39 393.931 2903.96 394.016C2903.54 394.112 2903.04 394.16 2902.46 394.16C2901.64 394.16 2900.92 393.995 2900.3 393.664C2899.69 393.323 2899.22 392.827 2898.89 392.176C2898.56 391.515 2898.4 390.72 2898.4 389.792C2898.4 388.875 2898.55 388.08 2898.84 387.408C2899.15 386.736 2899.59 386.213 2900.16 385.84C2900.72 385.467 2901.39 385.28 2902.16 385.28ZM2902.14 386.32C2901.44 386.32 2900.88 386.549 2900.46 387.008C2900.04 387.467 2899.8 388.112 2899.72 388.944H2904.32C2904.32 388.421 2904.24 387.968 2904.08 387.584C2903.93 387.189 2903.69 386.88 2903.37 386.656C2903.05 386.432 2902.64 386.32 2902.14 386.32Z" fill="#1F1F1F" id="n741"/>
<path d="M2962.52 388.704C2962.52 389.4 2962.47 390.024 2962.35 390.576C2962.25 391.12 2962.09 391.58 2961.86 391.956C2961.64 392.332 2961.35 392.62 2960.99 392.82C2960.63 393.02 2960.19 393.12 2959.69 393.12C2959.07 393.12 2958.54 392.948 2958.12 392.604C2957.7 392.252 2957.39 391.748 2957.18 391.092C2956.98 390.428 2956.88 389.632 2956.88 388.704C2956.88 387.792 2956.97 387.008 2957.16 386.352C2957.34 385.688 2957.64 385.18 2958.06 384.828C2958.47 384.476 2959.02 384.3 2959.69 384.3C2960.34 384.3 2960.87 384.476 2961.29 384.828C2961.7 385.18 2962.01 385.684 2962.21 386.34C2962.42 386.996 2962.52 387.784 2962.52 388.704ZM2957.83 388.704C2957.83 389.512 2957.89 390.184 2958.01 390.72C2958.14 391.248 2958.34 391.648 2958.61 391.92C2958.88 392.184 2959.24 392.316 2959.69 392.316C2960.14 392.316 2960.5 392.184 2960.77 391.92C2961.04 391.656 2961.24 391.256 2961.37 390.72C2961.5 390.184 2961.56 389.512 2961.56 388.704C2961.56 387.912 2961.5 387.252 2961.37 386.724C2961.25 386.188 2961.05 385.784 2960.78 385.512C2960.52 385.24 2960.15 385.104 2959.69 385.104C2959.23 385.104 2958.87 385.244 2958.6 385.524C2958.33 385.796 2958.13 386.2 2958.01 386.736C2957.89 387.264 2957.83 387.92 2957.83 388.704ZM2969.34 388.08C2969.34 388.608 2969.3 389.12 2969.22 389.616C2969.15 390.112 2969.02 390.572 2968.85 390.996C2968.67 391.42 2968.44 391.792 2968.14 392.112C2967.84 392.432 2967.48 392.68 2967.04 392.856C2966.6 393.032 2966.07 393.12 2965.45 393.12C2965.28 393.12 2965.09 393.108 2964.88 393.084C2964.66 393.068 2964.48 393.04 2964.35 393V392.184C2964.49 392.232 2964.66 392.272 2964.85 392.304C2965.05 392.328 2965.25 392.34 2965.44 392.34C2965.98 392.34 2966.44 392.252 2966.81 392.076C2967.18 391.892 2967.47 391.64 2967.7 391.32C2967.93 390.992 2968.1 390.608 2968.2 390.168C2968.31 389.72 2968.38 389.236 2968.39 388.716H2968.32C2968.21 388.908 2968.06 389.088 2967.86 389.256C2967.67 389.416 2967.44 389.544 2967.17 389.64C2966.9 389.736 2966.58 389.784 2966.21 389.784C2965.71 389.784 2965.28 389.68 2964.9 389.472C2964.53 389.264 2964.25 388.968 2964.05 388.584C2963.85 388.2 2963.75 387.736 2963.75 387.192C2963.75 386.6 2963.86 386.088 2964.08 385.656C2964.31 385.224 2964.62 384.892 2965.02 384.66C2965.43 384.428 2965.91 384.312 2966.46 384.312C2966.88 384.312 2967.27 384.396 2967.62 384.564C2967.98 384.724 2968.28 384.964 2968.54 385.284C2968.79 385.604 2968.99 386 2969.12 386.472C2969.27 386.936 2969.34 387.472 2969.34 388.08ZM2966.46 385.116C2965.92 385.116 2965.49 385.288 2965.16 385.632C2964.84 385.976 2964.68 386.492 2964.68 387.18C2964.68 387.756 2964.82 388.208 2965.1 388.536C2965.38 388.864 2965.82 389.028 2966.4 389.028C2966.81 389.028 2967.16 388.948 2967.44 388.788C2967.74 388.628 2967.97 388.424 2968.13 388.176C2968.3 387.928 2968.38 387.672 2968.38 387.408C2968.38 387.16 2968.34 386.9 2968.26 386.628C2968.19 386.356 2968.07 386.108 2967.91 385.884C2967.76 385.652 2967.56 385.468 2967.31 385.332C2967.07 385.188 2966.79 385.116 2966.46 385.116ZM2970.89 392.412C2970.89 392.14 2970.96 391.948 2971.08 391.836C2971.21 391.724 2971.37 391.668 2971.56 391.668C2971.76 391.668 2971.92 391.724 2972.04 391.836C2972.18 391.948 2972.25 392.14 2972.25 392.412C2972.25 392.668 2972.18 392.856 2972.04 392.976C2971.92 393.096 2971.76 393.156 2971.56 393.156C2971.37 393.156 2971.21 393.096 2971.08 392.976C2970.96 392.856 2970.89 392.668 2970.89 392.412ZM2970.89 387.18C2970.89 386.908 2970.96 386.716 2971.08 386.604C2971.21 386.492 2971.37 386.436 2971.56 386.436C2971.76 386.436 2971.92 386.492 2972.04 386.604C2972.18 386.716 2972.25 386.908 2972.25 387.18C2972.25 387.444 2972.18 387.636 2972.04 387.756C2971.92 387.876 2971.76 387.936 2971.56 387.936C2971.37 387.936 2971.21 387.876 2971.08 387.756C2970.96 387.636 2970.89 387.444 2970.89 387.18ZM2977.33 393H2976.41V386.892C2976.41 386.66 2976.41 386.464 2976.41 386.304C2976.42 386.144 2976.42 385.996 2976.42 385.86C2976.43 385.716 2976.44 385.572 2976.44 385.428C2976.32 385.548 2976.21 385.652 2976.11 385.74C2976 385.82 2975.88 385.928 2975.72 386.064L2974.72 386.856L2974.22 386.22L2976.54 384.432H2977.33V393ZM2986.19 393H2980.6V392.22L2982.9 389.856C2983.33 389.432 2983.68 389.052 2983.97 388.716C2984.27 388.38 2984.49 388.048 2984.64 387.72C2984.8 387.392 2984.87 387.028 2984.87 386.628C2984.87 386.14 2984.72 385.768 2984.43 385.512C2984.14 385.248 2983.76 385.116 2983.29 385.116C2982.88 385.116 2982.52 385.188 2982.2 385.332C2981.88 385.476 2981.55 385.676 2981.22 385.932L2980.72 385.296C2980.94 385.104 2981.19 384.936 2981.45 384.792C2981.72 384.64 2982.01 384.524 2982.32 384.444C2982.63 384.356 2982.95 384.312 2983.29 384.312C2983.81 384.312 2984.26 384.404 2984.63 384.588C2985.02 384.772 2985.31 385.036 2985.52 385.38C2985.73 385.716 2985.83 386.116 2985.83 386.58C2985.83 386.924 2985.78 387.248 2985.68 387.552C2985.58 387.848 2985.44 388.14 2985.24 388.428C2985.06 388.708 2984.83 388.996 2984.56 389.292C2984.3 389.58 2984 389.884 2983.68 390.204L2981.79 392.1V392.136H2986.19V393ZM2987.76 392.412C2987.76 392.14 2987.82 391.948 2987.95 391.836C2988.08 391.724 2988.24 391.668 2988.43 391.668C2988.62 391.668 2988.78 391.724 2988.91 391.836C2989.04 391.948 2989.11 392.14 2989.11 392.412C2989.11 392.668 2989.04 392.856 2988.91 392.976C2988.78 393.096 2988.62 393.156 2988.43 393.156C2988.24 393.156 2988.08 393.096 2987.95 392.976C2987.82 392.856 2987.76 392.668 2987.76 392.412ZM2987.76 387.18C2987.76 386.908 2987.82 386.716 2987.95 386.604C2988.08 386.492 2988.24 386.436 2988.43 386.436C2988.62 386.436 2988.78 386.492 2988.91 386.604C2989.04 386.716 2989.11 386.908 2989.11 387.18C2989.11 387.444 2989.04 387.636 2988.91 387.756C2988.78 387.876 2988.62 387.936 2988.43 387.936C2988.24 387.936 2988.08 387.876 2987.95 387.756C2987.82 387.636 2987.76 387.444 2987.76 387.18ZM2996.63 390.996H2995.34V393H2994.42V390.996H2990.26V390.204L2994.35 384.384H2995.34V390.144H2996.63V390.996ZM2994.42 387.3C2994.42 387.084 2994.42 386.892 2994.42 386.724C2994.42 386.548 2994.43 386.388 2994.44 386.244C2994.44 386.092 2994.45 385.948 2994.45 385.812C2994.46 385.668 2994.46 385.532 2994.47 385.404H2994.42C2994.35 385.564 2994.27 385.732 2994.17 385.908C2994.08 386.076 2993.98 386.228 2993.87 386.364L2991.2 390.144H2994.42V387.3ZM2997.55 389.34C2997.55 388.812 2997.58 388.304 2997.66 387.816C2997.74 387.32 2997.86 386.86 2998.04 386.436C2998.22 386.012 2998.45 385.64 2998.75 385.32C2999.04 385 2999.41 384.752 2999.84 384.576C3000.28 384.4 3000.81 384.312 3001.42 384.312C3001.6 384.312 3001.79 384.32 3001.99 384.336C3002.2 384.352 3002.36 384.38 3002.49 384.42V385.236C3002.35 385.188 3002.18 385.152 3002 385.128C3001.82 385.104 3001.63 385.092 3001.44 385.092C3000.9 385.092 3000.44 385.184 3000.07 385.368C2999.7 385.544 2999.4 385.796 2999.18 386.124C2998.96 386.452 2998.79 386.836 2998.68 387.276C2998.57 387.716 2998.51 388.196 2998.48 388.716H2998.56C2998.68 388.524 2998.83 388.348 2999.01 388.188C2999.2 388.02 2999.44 387.888 2999.71 387.792C2999.98 387.696 3000.3 387.648 3000.66 387.648C3001.15 387.648 3001.58 387.752 3001.95 387.96C3002.33 388.168 3002.62 388.464 3002.83 388.848C3003.04 389.232 3003.14 389.7 3003.14 390.252C3003.14 390.836 3003.03 391.344 3002.8 391.776C3002.59 392.208 3002.28 392.54 3001.88 392.772C3001.48 393.004 3001 393.12 3000.44 393.12C3000.02 393.12 2999.63 393.04 2999.28 392.88C2998.92 392.72 2998.62 392.48 2998.35 392.16C2998.1 391.84 2997.9 391.444 2997.75 390.972C2997.62 390.5 2997.55 389.956 2997.55 389.34ZM3000.43 392.316C3000.97 392.316 3001.4 392.148 3001.72 391.812C3002.04 391.468 3002.2 390.948 3002.2 390.252C3002.2 389.684 3002.06 389.236 3001.77 388.908C3001.48 388.572 3001.05 388.404 3000.48 388.404C3000.08 388.404 2999.73 388.484 2999.43 388.644C2999.14 388.804 2998.92 389.008 2998.75 389.256C2998.59 389.504 2998.51 389.756 2998.51 390.012C2998.51 390.276 2998.54 390.544 2998.62 390.816C2998.7 391.08 2998.82 391.328 2998.98 391.56C2999.14 391.784 2999.34 391.968 2999.58 392.112C2999.82 392.248 3000.1 392.316 3000.43 392.316Z" fill="#535353" id="n742"/>
</g>
</svg>
