<?xml version='1.0' encoding='utf-8'?>
<svg xmlns="http://www.w3.org/2000/svg" xmlns:xlink="http://www.w3.org/1999/xlink" width="163.0" height="168.0" viewBox="0 0 163.0 168.0" fill="none">
  <defs><clipPath id="clip__asset"><rect x="0" y="0" width="163.0" height="168.0"/></clipPath><mask id="mask33_68_6728" style="mask-type:luminance" maskUnits="userSpaceOnUse" x="2386" y="225" width="38" height="32">
<path d="M2393.69 255.314C2392.91 256.095 2391.63 256.101 2390.94 255.238C2389.15 252.995 2387.91 250.347 2387.35 247.512C2386.65 244.02 2387.01 240.401 2388.37 237.112C2389.73 233.823 2392.04 231.011 2395 229.034C2397.96 227.056 2401.44 226 2405 226C2408.56 226 2412.04 227.056 2415 229.034C2417.96 231.011 2420.27 233.823 2421.63 237.112C2422.99 240.401 2423.35 244.02 2422.65 247.512C2422.09 250.347 2420.85 252.995 2419.06 255.238C2418.37 256.101 2417.09 256.095 2416.31 255.314L2406.41 245.414C2405.63 244.633 2404.37 244.633 2403.59 245.414L2393.69 255.314Z" fill="white" stroke="black" id="n393"/>
</mask>
<mask id="mask34_68_6728" style="mask-type:luminance" maskUnits="userSpaceOnUse" x="2461" y="225" width="38" height="20">
<path d="M2464 244C2462.9 244 2461.99 243.102 2462.11 242.004C2462.56 237.964 2464.37 234.174 2467.27 231.272C2470.65 227.896 2475.23 226 2480 226C2484.77 226 2489.35 227.896 2492.73 231.272C2495.63 234.174 2497.44 237.964 2497.89 242.004C2498.01 243.102 2497.1 244 2496 244L2480 244L2464 244Z" fill="white" stroke="black" id="n401"/>
</mask>
</defs>
  <g clip-path="url(#clip__asset)" transform="translate(-2361.0 -200.0)"><path d="M2514.83 200V200.5H2520C2521.93 200.5 2523.5 202.067 2523.5 204V208.849H2524V213.697H2523.5V223.394H2524V228.242H2523.5V237.939H2524V242.788H2523.5V252.484H2524V257.333H2523.5V267.03H2524V271.879H2523.5V281.576H2524V286.424H2523.5V296.121H2524V300.97H2523.5V310.667H2524V315.516H2523.5V325.212H2524V330.061H2523.5V339.758H2524V344.606H2523.5V354.303H2524V359.151H2523.5V364C2523.5 365.933 2521.93 367.5 2520 367.5H2514.83V368H2509.67V367.5H2499.33V368H2494.17V367.5H2483.83V368H2478.67V367.5H2468.33V368H2463.17V367.5H2452.83V368H2447.67V367.5H2437.33V368H2432.17V367.5H2421.83V368H2416.67V367.5H2406.33V368H2401.17V367.5H2390.83V368H2385.67V367.5H2375.33V368H2370.17V367.5H2365C2363.07 367.5 2361.5 365.933 2361.5 364V359.151H2361V354.303H2361.5V344.606H2361V339.758H2361.5V330.061H2361V325.212H2361.5V315.516H2361V310.667H2361.5V300.97H2361V296.121H2361.5V286.424H2361V281.576H2361.5V271.879H2361V267.03H2361.5V257.333H2361V252.484H2361.5V242.788H2361V237.939H2361.5V228.242H2361V223.394H2361.5V213.697H2361V208.849H2361.5V204C2361.5 202.067 2363.07 200.5 2365 200.5H2370.17V200H2375.33V200.5H2385.67V200H2390.83V200.5H2401.17V200H2406.33V200.5H2416.67V200H2421.83V200.5H2432.17V200H2437.33V200.5H2447.67V200H2452.83V200.5H2463.17V200H2468.33V200.5H2478.67V200H2483.83V200.5H2494.17V200H2499.33V200.5H2509.67V200H2514.83Z" fill="#F7F7F7" id="n390"/>
<path d="M2393.69 255.314C2392.91 256.095 2391.63 256.101 2390.94 255.238C2389.15 252.995 2387.91 250.347 2387.35 247.512C2386.65 244.02 2387.01 240.401 2388.37 237.112C2389.73 233.823 2392.04 231.011 2395 229.034C2397.96 227.056 2401.44 226 2405 226C2408.56 226 2412.04 227.056 2415 229.034C2417.96 231.011 2420.27 233.823 2421.63 237.112C2422.99 240.401 2423.35 244.02 2422.65 247.512C2422.09 250.347 2420.85 252.995 2419.06 255.238C2418.37 256.101 2417.09 256.095 2416.31 255.314L2406.41 245.414C2405.63 244.633 2404.37 244.633 2403.59 245.414L2393.69 255.314Z" fill="white" stroke="#BEBEBE" id="n392"/>
<g mask="url(#mask33_68_6728)" id="n394">
<path d="M2392.27 256.728C2390.6 255.056 2389.27 253.072 2388.37 250.888C2387.47 248.704 2387 246.364 2387 244C2387 241.636 2387.47 239.296 2388.37 237.112C2389.27 234.928 2390.6 232.944 2392.27 231.272L2405 244L2392.27 256.728Z" fill="#9CC1F5" id="n395"/>
</g>
<rect x="2390.86" y="231.979" width="3" height="21" rx="1.5" transform="rotate(-45 2390.86 231.979)" fill="#2D548B" stroke="#F7F7F7" id="n396"/>
<circle cx="2405" cy="244.003" r="3" transform="rotate(-45 2405 244.003)" fill="#2D548B" id="n397"/>
<path d="M2404.33 254.667H2405.67V257.334H2408.33V258.667H2405.67V261.334H2404.33V258.667H2401.67V257.334H2404.33V254.667Z" fill="#535353" id="n398"/>
<path fill-rule="evenodd" clip-rule="evenodd" d="M2398.07 257.011L2404.01 251.075C2404.55 250.531 2405.45 250.531 2405.99 251.075L2411.93 257.011C2412.47 257.555 2412.47 258.446 2411.93 258.99L2405.99 264.926C2405.45 265.47 2404.55 265.47 2404.01 264.926L2398.07 258.99C2397.53 258.446 2397.53 257.555 2398.07 257.011ZM2405 252L2399 258L2405 264L2411 258L2405 252Z" fill="#535353" id="n399"/>
<path d="M2464 244C2462.9 244 2461.99 243.102 2462.11 242.004C2462.56 237.964 2464.37 234.174 2467.27 231.272C2470.65 227.896 2475.23 226 2480 226C2484.77 226 2489.35 227.896 2492.73 231.272C2495.63 234.174 2497.44 237.964 2497.89 242.004C2498.01 243.102 2497.1 244 2496 244L2480 244L2464 244Z" fill="white" stroke="#BEBEBE" id="n400"/>
<g mask="url(#mask34_68_6728)" id="n402">
<path d="M2467.27 256.728C2465.6 255.056 2464.27 253.072 2463.37 250.888C2462.47 248.704 2462 246.364 2462 244C2462 241.636 2462.47 239.296 2463.37 237.112C2464.27 234.928 2465.6 232.944 2467.27 231.272L2480 244L2467.27 256.728Z" fill="#9CC1F5" id="n403"/>
</g>
<rect x="2465.86" y="231.979" width="3" height="21" rx="1.5" transform="rotate(-45 2465.86 231.979)" fill="#2D548B" stroke="#F7F7F7" id="n404"/>
<circle cx="2480" cy="244.003" r="3" transform="rotate(-45 2480 244.003)" fill="#2D548B" id="n405"/>
<path d="M2479.33 254.667H2480.67V257.334H2483.33V258.667H2480.67V261.334H2479.33V258.667H2476.67V257.334H2479.33V254.667Z" fill="#535353" id="n406"/>
<path fill-rule="evenodd" clip-rule="evenodd" d="M2473.07 257.011L2479.01 251.075C2479.55 250.531 2480.45 250.531 2480.99 251.075L2486.93 257.011C2487.47 257.555 2487.47 258.446 2486.93 258.99L2480.99 264.926C2480.45 265.47 2479.55 265.47 2479.01 264.926L2473.07 258.99C2472.53 258.446 2472.53 257.555 2473.07 257.011ZM2480 252L2474 258L2480 264L2486 258L2480 252Z" fill="#535353" id="n407"/>
<path d="M2387 324C2387 321.636 2387.47 319.296 2388.37 317.112C2389.27 314.928 2390.6 312.944 2392.27 311.272L2405 324L2387 324Z" fill="#9CC1F5" stroke="#9CC1F5" id="n408"/>
<path d="M2387 324H2405" stroke="#BEBEBE" stroke-linecap="square" id="n409"/>
<path d="M2392.27 336.728C2389.75 334.211 2388.04 331.003 2387.35 327.512C2386.65 324.02 2387.01 320.401 2388.37 317.112C2389.73 313.823 2392.04 311.011 2395 309.034C2397.96 307.056 2401.44 306 2405 306C2408.56 306 2412.04 307.056 2415 309.034C2417.96 311.011 2420.27 313.823 2421.63 317.112C2422.99 320.401 2423.35 324.02 2422.65 327.512C2421.96 331.003 2420.25 334.211 2417.73 336.728" stroke="#BEBEBE" stroke-linecap="round" id="n410"/>
<rect x="2390.86" y="311.979" width="3" height="21" rx="1.5" transform="rotate(-45 2390.86 311.979)" fill="#2D548B" stroke="#F7F7F7" id="n411"/>
<circle cx="2405" cy="324.003" r="3" transform="rotate(-45 2405 324.003)" fill="#2D548B" id="n412"/>
<path d="M2404.33 334.667H2405.67V337.334H2408.33V338.667H2405.67V341.334H2404.33V338.667H2401.67V337.334H2404.33V334.667Z" fill="#535353" id="n413"/>
<path fill-rule="evenodd" clip-rule="evenodd" d="M2398.07 337.011L2404.01 331.075C2404.55 330.531 2405.45 330.531 2405.99 331.075L2411.93 337.011C2412.47 337.555 2412.47 338.446 2411.93 338.99L2405.99 344.926C2405.45 345.47 2404.55 345.47 2404.01 344.926L2398.07 338.99C2397.53 338.446 2397.53 337.555 2398.07 337.011ZM2405 332L2399 338L2405 344L2411 338L2405 332Z" fill="#535353" id="n414"/>
<path d="M2462 324C2462 321.636 2462.47 319.296 2463.37 317.112C2464.27 314.928 2465.6 312.944 2467.27 311.272L2480 324L2462 324Z" fill="#9CC1F5" stroke="#9CC1F5" id="n415"/>
<path d="M2462 324H2480" stroke="#BEBEBE" stroke-linecap="square" id="n416"/>
<path d="M2462 324C2462 319.226 2463.9 314.648 2467.27 311.272C2470.65 307.896 2475.23 306 2480 306C2484.77 306 2489.35 307.896 2492.73 311.272C2496.1 314.648 2498 319.226 2498 324" stroke="#BEBEBE" stroke-linecap="round" id="n417"/>
<rect x="2465.86" y="311.979" width="3" height="21" rx="1.5" transform="rotate(-45 2465.86 311.979)" fill="#2D548B" stroke="#F7F7F7" id="n418"/>
<circle cx="2480" cy="324.003" r="3" transform="rotate(-45 2480 324.003)" fill="#2D548B" id="n419"/>
<path d="M2479.33 334.667H2480.67V337.334H2483.33V338.667H2480.67V341.334H2479.33V338.667H2476.67V337.334H2479.33V334.667Z" fill="#535353" id="n420"/>
<path fill-rule="evenodd" clip-rule="evenodd" d="M2473.07 337.011L2479.01 331.075C2479.55 330.531 2480.45 330.531 2480.99 331.075L2486.93 337.011C2487.47 337.555 2487.47 338.446 2486.93 338.99L2480.99 344.926C2480.45 345.47 2479.55 345.47 2479.01 344.926L2473.07 338.99C2472.53 338.446 2472.53 337.555 2473.07 337.011ZM2480 332L2474 338L2480 344L2486 338L2480 332Z" fill="#535353" id="n421"/>
</g>
</svg>
