<?xml version='1.0' encoding='utf-8'?>
<svg xmlns="http://www.w3.org/2000/svg" xmlns:xlink="http://www.w3.org/1999/xlink" width="191.0" height="48.0" viewBox="0 0 191.0 48.0" fill="none">
  <defs><clipPath id="clip__asset"><rect x="0" y="0" width="191.0" height="48.0"/></clipPath><mask id="path-1439-inside-121_1702_11540" fill="white">
<path d="M6901 396H6969V428H6901V396Z" id="n1818"/>
</mask>
<mask id="path-1442-inside-122_1702_11540" fill="white">
<path d="M6969 396H7037V428H6969V396Z" id="n1822"/>
</mask>
<mask id="path-1446-inside-123_1702_11540" fill="white">
<path d="M7037 396H7095.4C7098.76 396 7100.44 396 7101.72 396.654C7102.85 397.229 7103.77 398.147 7104.35 399.276C7105 400.56 7105 402.24 7105 405.6V418.4C7105 421.76 7105 423.44 7104.35 424.724C7103.77 425.853 7102.85 426.771 7101.72 427.346C7100.44 428 7098.76 428 7095.4 428H7037V396Z" id="n1826"/>
</mask>
</defs>
  <g clip-path="url(#clip__asset)" transform="translate(-6889.0 -384.0)"><path d="M6901 396H6969V428H6901V396Z" fill="white" id="n1819"/>
<path d="M6901 396V395H6900V396H6901ZM6901 428H6900V429H6901V428ZM6901 396V397H6969V396V395H6901V396ZM6969 428V427H6901V428V429H6969V428ZM6901 428H6902V396H6901H6900V428H6901Z" fill="#BEBEBE" mask="url(#path-1439-inside-121_1702_11540)" id="n1820"/>
<path fill-rule="evenodd" clip-rule="evenodd" d="M6937 418L6938.41 416.59L6933.83 412L6938.41 407.41L6937 406L6931 412L6937 418Z" fill="#535353" id="n1821"/>
<path d="M6969 396H7037V428H6969V396Z" fill="white" id="n1823"/>
<path d="M6969 396V395H6968V396H6969ZM6969 428H6968V429H6969V428ZM6969 396V397H7037V396V395H6969V396ZM7037 428V427H6969V428V429H7037V428ZM6969 428H6970V396H6969H6968V428H6969Z" fill="#BEBEBE" mask="url(#path-1442-inside-122_1702_11540)" id="n1824"/>
<path d="M6999.59 407.41L7001 406L7007 412L7001 418L6999.59 416.59L7004.17 412L6999.59 407.41Z" fill="#535353" id="n1825"/>
<path d="M7037 396H7095.4C7098.76 396 7100.44 396 7101.72 396.654C7102.85 397.229 7103.77 398.147 7104.35 399.276C7105 400.56 7105 402.24 7105 405.6V418.4C7105 421.76 7105 423.44 7104.35 424.724C7103.77 425.853 7102.85 426.771 7101.72 427.346C7100.44 428 7098.76 428 7095.4 428H7037V396Z" fill="white" id="n1827"/>
<path d="M7037 396V395H7036V396H7037ZM7037 428H7036V429H7037V428ZM7104.35 424.724L7105.24 425.178L7104.35 424.724ZM7101.72 427.346L7102.18 428.237L7101.72 427.346ZM7101.72 396.654L7102.18 395.763L7101.72 396.654ZM7104.35 399.276L7105.24 398.822L7104.35 399.276ZM7037 396V397H7095.4V396V395H7037V396ZM7105 405.6H7104V418.4H7105H7106V405.6H7105ZM7095.4 428V427H7037V428V429H7095.4V428ZM7037 428H7038V396H7037H7036V428H7037ZM7105 418.4H7104C7104 420.097 7104 421.309 7103.92 422.259C7103.84 423.198 7103.7 423.793 7103.46 424.27L7104.35 424.724L7105.24 425.178C7105.65 424.372 7105.83 423.485 7105.91 422.422C7106 421.372 7106 420.064 7106 418.4H7105ZM7095.4 428V429C7097.06 429 7098.37 429.001 7099.42 428.915C7100.48 428.828 7101.37 428.648 7102.18 428.237L7101.72 427.346L7101.27 426.455C7100.79 426.698 7100.2 426.845 7099.26 426.922C7098.31 426.999 7097.1 427 7095.4 427V428ZM7104.35 424.724L7103.46 424.27C7102.98 425.211 7102.21 425.976 7101.27 426.455L7101.72 427.346L7102.18 428.237C7103.5 427.566 7104.57 426.495 7105.24 425.178L7104.35 424.724ZM7095.4 396V397C7097.1 397 7098.31 397.001 7099.26 397.078C7100.2 397.155 7100.79 397.302 7101.27 397.545L7101.72 396.654L7102.18 395.763C7101.37 395.352 7100.48 395.172 7099.42 395.085C7098.37 394.999 7097.06 395 7095.4 395V396ZM7105 405.6H7106C7106 403.936 7106 402.628 7105.91 401.578C7105.83 400.515 7105.65 399.628 7105.24 398.822L7104.35 399.276L7103.46 399.73C7103.7 400.207 7103.84 400.802 7103.92 401.741C7104 402.691 7104 403.903 7104 405.6H7105ZM7101.72 396.654L7101.27 397.545C7102.21 398.024 7102.98 398.789 7103.46 399.73L7104.35 399.276L7105.24 398.822C7104.57 397.505 7103.5 396.434 7102.18 395.763L7101.72 396.654Z" fill="#BEBEBE" mask="url(#path-1446-inside-123_1702_11540)" id="n1828"/>
<path d="M7064 407.41L7065.41 406L7071.41 412L7065.41 418L7064 416.59L7068.58 412L7064 407.41Z" fill="#535353" id="n1829"/>
<path d="M7070 407.41L7071.41 406L7077.41 412L7071.41 418L7070 416.59L7074.58 412L7070 407.41Z" fill="#535353" id="n1830"/>
</g>
</svg>
