<?xml version='1.0' encoding='utf-8'?>
<svg xmlns="http://www.w3.org/2000/svg" xmlns:xlink="http://www.w3.org/1999/xlink" width="48.0" height="48.0" viewBox="0 0 48.0 48.0" fill="none">
  <defs>
    <clipPath id="clip__asset">
      <rect x="0" y="0" width="48.0" height="48.0"/>
    </clipPath>
  </defs>
  <g clip-path="url(#clip__asset)" transform="translate(-6889.0 -312.0)"><path fill-rule="evenodd" clip-rule="evenodd" d="M6934.17 322.352C6934.16 322.346 6934.15 322.34 6934.15 322.334C6932.7 320.892 6930.7 320 6928.5 320C6926.3 320 6924.3 320.892 6922.85 322.334C6922.85 322.34 6922.84 322.346 6922.83 322.352C6921.39 323.799 6920.5 325.796 6920.5 328C6920.5 332.418 6924.08 336 6928.5 336C6932.92 336 6936.5 332.418 6936.5 328C6936.5 325.796 6935.61 323.799 6934.17 322.352ZM6928.5 332C6930.71 332 6932.5 330.209 6932.5 328C6932.5 325.791 6930.71 324 6928.5 324C6926.29 324 6924.5 325.791 6924.5 328C6924.5 330.209 6926.29 332 6928.5 332ZM6941.23 312.444L6944.06 315.272L6938.4 320.929L6936.97 319.503L6935.57 318.101L6941.23 312.444ZM6912.94 315.272L6915.77 312.444L6921.43 318.101L6920.03 319.503L6920 319.526L6918.6 320.929L6912.94 315.272ZM6918.6 335.071L6921.43 337.9L6915.77 343.556L6912.94 340.728L6918.6 335.071ZM6938.4 335.071L6944.06 340.728L6941.23 343.556L6935.57 337.899L6938.4 335.071ZM6926.5 308H6930.5V316H6926.5V308ZM6908.5 330V326H6916.5V330H6908.5ZM6930.5 348H6926.5V340H6930.5V348ZM6948.5 326V330H6940.5V326H6948.5Z" fill="#2D548B" id="n1806"/>
</g>
</svg>
