<?xml version='1.0' encoding='utf-8'?>
<svg xmlns="http://www.w3.org/2000/svg" xmlns:xlink="http://www.w3.org/1999/xlink" width="48.0" height="48.0" viewBox="0 0 48.0 48.0" fill="none">
  <defs><clipPath id="clip__asset"><rect x="0" y="0" width="48.0" height="48.0"/></clipPath><mask id="mask0_68_6728" style="mask-type:alpha" maskUnits="userSpaceOnUse" x="220" y="220" width="48" height="48">
<path fill-rule="evenodd" clip-rule="evenodd" d="M244 260C252.837 260 260 252.837 260 244C260 235.163 252.837 228 244 228C235.163 228 228 235.163 228 244C228 252.837 235.163 260 244 260ZM244 258C251.732 258 258 251.732 258 244C258 236.268 251.732 230 244 230C236.268 230 230 236.268 230 244C230 251.732 236.268 258 244 258Z" fill="white" id="n9"/>
</mask>
<mask id="mask1_68_6728" style="mask-type:alpha" maskUnits="userSpaceOnUse" x="206" y="206" width="76" height="76">
<path fill-rule="evenodd" clip-rule="evenodd" d="M244 262C253.941 262 262 253.941 262 244C262 234.059 253.941 226 244 226C234.059 226 226 234.059 226 244C226 253.941 234.059 262 244 262ZM244 256C250.627 256 256 250.627 256 244C256 237.373 250.627 232 244 232C237.373 232 232 237.373 232 244C232 250.627 237.373 256 244 256Z" fill="white" id="n12"/>
</mask>
</defs>
  <g clip-path="url(#clip__asset)" transform="translate(-220.0 -220.0)"><path d="M227.852 228.428L228.991 235.265C229.058 235.666 229.55 235.824 229.838 235.536L235.535 229.839C235.823 229.552 235.665 229.059 235.264 228.992L228.427 227.853C228.089 227.797 227.795 228.09 227.852 228.428Z" fill="#BEBEBE" id="n7"/>
<circle cx="244" cy="244" r="18" fill="white" stroke="#BEBEBE" id="n8"/>
<g mask="url(#mask0_68_6728)" id="n10">
<path d="M244 220V244M244 244L239.832 220.365M244 244L235.792 221.447M244 244L232 223.215M244 244L228.573 225.615M244 244L225.615 228.573M244 244L223.215 232M244 244L221.447 235.792M244 244L220.365 239.832M244 244H220M244 244L220.365 248.168M244 244L221.447 252.209M244 244L223.215 256M244 244L225.615 259.427M244 244L228.573 262.385M244 244L232 264.785M244 244L235.791 266.553M244 244L239.832 267.635M244 244V268M244 244L248.168 267.635M244 244L252.209 266.553M244 244L256 264.785M244 244L259.427 262.385M244 244L262.385 259.427M244 244L264.785 256M244 244L266.553 252.208M244 244L267.635 248.168M244 244H268M244 244L267.635 239.832M244 244L266.553 235.792M244 244L264.785 232M244 244L262.385 228.573M244 244L259.427 225.615M244 244L256 223.215M244 244L252.208 221.447M244 244L248.168 220.365" stroke="#BEBEBE" id="n11"/>
</g>
<g mask="url(#mask1_68_6728)" id="n13">
<path d="M244 220V244M244 244H220M244 244V268M244 244H268" stroke="#BEBEBE" id="n14"/>
</g>
<path d="M243.07 232.124C243.408 231.295 244.592 231.295 244.93 232.124L252.388 250.454C252.939 251.811 251.419 253.008 250.209 252.281V252.28L244 248.584L237.79 252.28C236.581 253.007 235.061 251.811 235.612 250.454L243.07 232.124Z" fill="#2D548B" stroke="#F7F7F7" id="n15"/>
</g>
</svg>
