<?xml version='1.0' encoding='utf-8'?>
<svg xmlns="http://www.w3.org/2000/svg" xmlns:xlink="http://www.w3.org/1999/xlink" width="88.0" height="159.0" viewBox="0 0 88.0 159.0" fill="none">
  <defs>
    <clipPath id="clip__asset">
      <rect x="0" y="0" width="88.0" height="159.0"/>
    </clipPath>
  </defs>
  <g clip-path="url(#clip__asset)" transform="translate(-1298.0 -200.0)"><path d="M1376.67 200V200.5H1382C1383.93 200.5 1385.5 202.067 1385.5 204V209.033H1386V214.066H1385.5V224.134H1386V229.167H1385.5V239.233H1386V244.267H1385.5V254.333H1386V259.366H1385.5V269.434H1386V274.467H1385.5V284.533H1386V289.566H1385.5V299.634H1386V304.667H1385.5V314.733H1386V319.767H1385.5V329.833H1386V334.866H1385.5V344.934H1386V349.967H1385.5V355C1385.5 356.933 1383.93 358.5 1382 358.5H1376.67V359H1371.33V358.5H1360.67V359H1355.33V358.5H1344.67V359H1339.33V358.5H1328.67V359H1323.33V358.5H1312.67V359H1307.33V358.5H1302C1300.07 358.5 1298.5 356.933 1298.5 355V349.967H1298V344.934H1298.5V334.866H1298V329.833H1298.5V319.767H1298V314.733H1298.5V304.667H1298V299.634H1298.5V289.566H1298V284.533H1298.5V274.467H1298V269.434H1298.5V259.366H1298V254.333H1298.5V244.267H1298V239.233H1298.5V229.167H1298V224.134H1298.5V214.066H1298V209.033H1298.5V204C1298.5 202.067 1300.07 200.5 1302 200.5H1307.33V200H1312.67V200.5H1323.33V200H1328.67V200.5H1339.33V200H1344.67V200.5H1355.33V200H1360.67V200.5H1371.33V200H1376.67Z" fill="#F7F7F7" id="n180"/>
<rect x="1354" y="228" width="4" height="32" rx="2" fill="white" stroke="#BEBEBE" id="n182"/>
<path d="M1326 244L1358 244" stroke="#BEBEBE" stroke-linecap="square" id="n183"/>
<path d="M1325.5 230C1325.5 228.619 1326.62 227.5 1328 227.5H1352V228.5H1328C1327.17 228.5 1326.5 229.172 1326.5 230H1325.5ZM1352 260.5H1328C1326.62 260.5 1325.5 259.381 1325.5 258H1326.5C1326.5 258.828 1327.17 259.5 1328 259.5H1352V260.5ZM1328 260.5C1326.62 260.5 1325.5 259.381 1325.5 258V230C1325.5 228.619 1326.62 227.5 1328 227.5V228.5C1327.17 228.5 1326.5 229.172 1326.5 230V258C1326.5 258.828 1327.17 259.5 1328 259.5V260.5ZM1352 228V260V228Z" fill="#BEBEBE" id="n184"/>
<path d="M1354 238H1358V244H1354V238Z" fill="#2D548B" id="n185"/>
<path d="M1358 244V244.5H1358.5V244H1358ZM1354 244H1353.5V244.5H1354V244ZM1357.5 238V244H1358.5V238H1357.5ZM1358 243.5H1354V244.5H1358V243.5ZM1354.5 244V238H1353.5V244H1354.5Z" fill="#2D548B" id="n186"/>
<path d="M1357.5 237.5C1357.77 237.5 1358 237.724 1358 238C1358 238.276 1357.77 238.5 1357.5 238.5L1342.5 238.5C1342.22 238.5 1342 238.276 1342 238C1342 237.724 1342.22 237.5 1342.5 237.5L1357.5 237.5Z" fill="#2D548B" stroke="#2D548B" id="n187"/>
<path d="M1338 234H1346V240C1346 241.105 1345.1 242 1344 242H1340C1338.9 242 1338 241.105 1338 240V234Z" fill="white" stroke="#BEBEBE" id="n188"/>
<rect x="1354" y="299" width="4" height="32" rx="2" fill="white" stroke="#BEBEBE" id="n189"/>
<path d="M1326 315L1358 315" stroke="#BEBEBE" stroke-linecap="square" id="n190"/>
<path d="M1325.5 301C1325.5 299.619 1326.62 298.5 1328 298.5H1352V299.5H1328C1327.17 299.5 1326.5 300.172 1326.5 301H1325.5ZM1352 331.5H1328C1326.62 331.5 1325.5 330.381 1325.5 329H1326.5C1326.5 329.828 1327.17 330.5 1328 330.5H1352V331.5ZM1328 331.5C1326.62 331.5 1325.5 330.381 1325.5 329V301C1325.5 299.619 1326.62 298.5 1328 298.5V299.5C1327.17 299.5 1326.5 300.172 1326.5 301V329C1326.5 329.828 1327.17 330.5 1328 330.5V331.5ZM1352 299V331V299Z" fill="#BEBEBE" id="n191"/>
<path d="M1354 309H1358V315H1354V309Z" fill="#535353" id="n192"/>
<path d="M1358 315V315.5H1358.5V315H1358ZM1354 315H1353.5V315.5H1354V315ZM1357.5 309V315H1358.5V309H1357.5ZM1358 314.5H1354V315.5H1358V314.5ZM1354.5 315V309H1353.5V315H1354.5Z" fill="#535353" id="n193"/>
<path d="M1357.5 308.5C1357.77 308.5 1358 308.724 1358 309C1358 309.276 1357.77 309.5 1357.5 309.5L1342.5 309.5C1342.22 309.5 1342 309.276 1342 309C1342 308.724 1342.22 308.5 1342.5 308.5L1357.5 308.5Z" fill="#535353" stroke="#535353" id="n194"/>
<path d="M1338 305H1346V311C1346 312.105 1345.1 313 1344 313H1340C1338.9 313 1338 312.105 1338 311V305Z" fill="white" stroke="#BEBEBE" id="n195"/>
</g>
</svg>
