<?xml version='1.0' encoding='utf-8'?>
<svg xmlns="http://www.w3.org/2000/svg" xmlns:xlink="http://www.w3.org/1999/xlink" width="216.0" height="384.0" viewBox="0 0 216.0 384.0" fill="none">
  <defs><clipPath id="clip__asset"><rect x="0" y="0" width="216.0" height="384.0"/></clipPath><mask id="mask198_68_6728" style="mask-type:luminance" maskUnits="userSpaceOnUse" x="4694" y="1944" width="512" height="512">
<path d="M5021.2 2056C5025.68 2056 5027.92 2056 5029.63 2056.87C5031.14 2057.64 5032.36 2058.86 5033.13 2060.37C5034 2062.08 5034 2064.32 5034 2068.8L5034 2331.2C5034 2335.68 5034 2337.92 5033.13 2339.63C5032.36 2341.14 5031.14 2342.36 5029.63 2343.13C5027.92 2344 5025.68 2344 5021.2 2344H5010L5010 2056H5021.2Z" fill="white" stroke="black" id="n1652"/>
<path d="M4878.8 2344C4874.32 2344 4872.08 2344 4870.37 2343.13C4868.86 2342.36 4867.64 2341.14 4866.87 2339.63C4866 2337.92 4866 2335.68 4866 2331.2L4866 2068.8C4866 2064.32 4866 2062.08 4866.87 2060.37C4867.64 2058.86 4868.86 2057.64 4870.37 2056.87C4872.08 2056 4874.32 2056 4878.8 2056L4890 2056L4890 2344L4878.8 2344Z" fill="white" stroke="black" id="n1653"/>
<rect x="4958" y="2196" width="72" height="8" fill="black" stroke="black" id="n1654"/>
</mask>
</defs>
  <g clip-path="url(#clip__asset)" transform="translate(-4842.0 -2008.0)"><path d="M4930 2056L4930 2030C4930 2026.69 4932.69 2024 4936 2024L4964 2024C4967.31 2024 4970 2026.69 4970 2030L4970 2056L4930 2056Z" fill="white" stroke="#8E8E8E" id="n1639"/>
<path d="M5021 2039.74C5021 2030.96 4969.73 2028 4969.73 2028C4969.73 2035.71 4967.17 2043.13 4962.56 2048.75L4959.9 2052C4973.17 2052 5021 2048.51 5021 2039.74Z" fill="white" id="n1640"/>
<path d="M4879 2040.26C4879 2049.04 4930.27 2052 4930.27 2052C4930.27 2044.29 4932.83 2036.87 4937.44 2031.25L4940.1 2028C4926.83 2028 4879 2031.49 4879 2040.26Z" fill="white" id="n1641"/>
<path d="M5021 2039.74C5021 2030.96 4969.73 2028 4969.73 2028C4969.73 2035.71 4967.17 2043.13 4962.56 2048.75L4959.9 2052C4973.17 2052 5021 2048.51 5021 2039.74Z" stroke="#8E8E8E" id="n1642"/>
<path d="M4879 2040.26C4879 2049.04 4930.27 2052 4930.27 2052C4930.27 2044.29 4932.83 2036.87 4937.44 2031.25L4940.1 2028C4926.83 2028 4879 2031.49 4879 2040.26Z" stroke="#8E8E8E" id="n1643"/>
<path d="M4959.09 2020.26L4950 2012L4940.91 2020.26C4940.24 2020.87 4940.67 2022 4941.59 2022H4958.41C4959.33 2022 4959.76 2020.87 4959.09 2020.26Z" fill="#535353" id="n1644"/>
<path d="M4930 2344C4930 2359.98 4937.06 2375.13 4949.3 2385.41L4950 2386L4950.7 2385.41C4962.94 2375.13 4970 2359.98 4970 2344L4930 2344Z" fill="white" stroke="#8E8E8E" id="n1645"/>
<path d="M5021.2 2056C5025.68 2056 5027.92 2056 5029.63 2056.87C5031.14 2057.64 5032.36 2058.86 5033.13 2060.37C5034 2062.08 5034 2064.32 5034 2068.8L5034 2331.2C5034 2335.68 5034 2337.92 5033.13 2339.63C5032.36 2341.14 5031.14 2342.36 5029.63 2343.13C5027.92 2344 5025.68 2344 5021.2 2344H4878.8C4874.32 2344 4872.08 2344 4870.37 2343.13C4868.86 2342.36 4867.64 2341.14 4866.87 2339.63C4866 2337.92 4866 2335.68 4866 2331.2L4866 2068.8C4866 2064.32 4866 2062.08 4866.87 2060.37C4867.64 2058.86 4868.86 2057.64 4870.37 2056.87C4872.08 2056 4874.32 2056 4878.8 2056L5021.2 2056Z" fill="white" stroke="white" id="n1646"/>
<path d="M5010 2056L5010 2344H4962L4962 2056L5010 2056Z" fill="#F0F0F0" stroke="#F0F0F0" id="n1647"/>
<path d="M4938 2056L4938 2344H4890L4890 2056L4938 2056Z" fill="#F0F0F0" stroke="#F0F0F0" id="n1648"/>
<path d="M5021.2 2056C5025.68 2056 5027.92 2056 5029.63 2056.87C5031.14 2057.64 5032.36 2058.86 5033.13 2060.37C5034 2062.08 5034 2064.32 5034 2068.8L5034 2331.2C5034 2335.68 5034 2337.92 5033.13 2339.63C5032.36 2341.14 5031.14 2342.36 5029.63 2343.13C5027.92 2344 5025.68 2344 5021.2 2344H4878.8C4874.32 2344 4872.08 2344 4870.37 2343.13C4868.86 2342.36 4867.64 2341.14 4866.87 2339.63C4866 2337.92 4866 2335.68 4866 2331.2L4866 2068.8C4866 2064.32 4866 2062.08 4866.87 2060.37C4867.64 2058.86 4868.86 2057.64 4870.37 2056.87C4872.08 2056 4874.32 2056 4878.8 2056L5021.2 2056Z" stroke="#BEBEBE" id="n1649"/>
<path d="M4866 2336H4938V2344H4874C4869.58 2344 4866 2340.42 4866 2336Z" fill="#BEBEBE" stroke="#BEBEBE" id="n1650"/>
<rect x="4962" y="2196" width="72" height="8" fill="#BEBEBE" stroke="#BEBEBE" id="n1651"/>
<g mask="url(#mask198_68_6728)" id="n1655">
<path d="M5038 2126L5014 2126M5038 2196L5014 2196M5038 2056L5014 2056" stroke="#BEBEBE" id="n1656"/>
<path d="M5038 2196L5010 2196M5038 2056L5010 2056" stroke="#BEBEBE" id="n1657"/>
<path d="M5038 2274L5014 2274M5038 2344L5014 2344M5038 2204L5014 2204" stroke="#BEBEBE" id="n1658"/>
<path d="M5038 2344L5010 2344M5038 2204L5010 2204" stroke="#BEBEBE" id="n1659"/>
<path d="M4862 2196L4886 2196M4862 2056L4886 2056M4862 2336L4886 2336" stroke="#BEBEBE" id="n1660"/>
<path d="M4862 2056L4890 2056M4862 2336L4890 2336" stroke="#BEBEBE" id="n1661"/>
</g>
<path d="M4862.9 2330.74C4863.68 2330.39 4864.66 2330.4 4865.48 2330.95L4877.05 2338.76C4877.93 2339.36 4877.93 2340.65 4877.05 2341.25L4865.48 2349.06C4864.66 2349.61 4863.68 2349.62 4862.9 2349.27C4862.12 2348.92 4861.5 2348.18 4861.5 2347.2V2332.81C4861.5 2331.83 4862.12 2331.09 4862.9 2330.74Z" fill="#2D548B" stroke="white" stroke-linejoin="round" id="n1662"/>
<path d="M5037.1 2209.26C5036.32 2209.61 5035.34 2209.6 5034.52 2209.05L5022.95 2201.24C5022.07 2200.64 5022.07 2199.35 5022.95 2198.75L5034.52 2190.94C5035.34 2190.39 5036.32 2190.38 5037.1 2190.73C5037.88 2191.08 5038.5 2191.82 5038.5 2192.8L5038.5 2207.19C5038.5 2208.17 5037.88 2208.91 5037.1 2209.26Z" fill="#2D548B" stroke="white" stroke-linejoin="round" id="n1663"/>
</g>
</svg>
