<?xml version='1.0' encoding='utf-8'?>
<svg xmlns="http://www.w3.org/2000/svg" xmlns:xlink="http://www.w3.org/1999/xlink" width="160.0" height="384.0" viewBox="0 0 160.0 384.0" fill="none">
  <defs><clipPath id="clip__asset"><rect x="0" y="0" width="160.0" height="384.0"/></clipPath><mask id="mask214_68_6728" style="mask-type:luminance" maskUnits="userSpaceOnUse" x="5858" y="984" width="512" height="512">
<path d="M6137.2 1096C6141.68 1096 6143.92 1096 6145.63 1096.87C6147.14 1097.64 6148.36 1098.86 6149.13 1100.37C6150 1102.08 6150 1104.32 6150 1108.8L6150 1371.2C6150 1375.68 6150 1377.92 6149.13 1379.63C6148.36 1381.14 6147.14 1382.36 6145.63 1383.13C6143.92 1384 6141.68 1384 6137.2 1384H6126L6126 1096H6137.2Z" fill="white" stroke="black" id="n1924"/>
<rect x="6078" y="1236" width="72" height="8" fill="black" stroke="black" id="n1925"/>
</mask>
</defs>
  <g clip-path="url(#clip__asset)" transform="translate(-6034.0 -1048.0)"><path d="M6094 1096L6094 1070C6094 1066.69 6096.69 1064 6100 1064L6128 1064C6131.31 1064 6134 1066.69 6134 1070L6134 1096L6094 1096Z" fill="white" stroke="#8E8E8E" id="n1913"/>
<path d="M6185 1079.74C6185 1070.96 6133.73 1068 6133.73 1068C6133.73 1075.71 6131.17 1083.13 6126.56 1088.75L6123.9 1092C6137.17 1092 6185 1088.51 6185 1079.74Z" fill="white" id="n1914"/>
<path d="M6043 1080.26C6043 1089.04 6094.27 1092 6094.27 1092C6094.27 1084.29 6096.83 1076.87 6101.44 1071.25L6104.1 1068C6090.83 1068 6043 1071.49 6043 1080.26Z" fill="white" id="n1915"/>
<path d="M6185 1079.74C6185 1070.96 6133.73 1068 6133.73 1068C6133.73 1075.71 6131.17 1083.13 6126.56 1088.75L6123.9 1092C6137.17 1092 6185 1088.51 6185 1079.74Z" stroke="#8E8E8E" id="n1916"/>
<path d="M6043 1080.26C6043 1089.04 6094.27 1092 6094.27 1092C6094.27 1084.29 6096.83 1076.87 6101.44 1071.25L6104.1 1068C6090.83 1068 6043 1071.49 6043 1080.26Z" stroke="#8E8E8E" id="n1917"/>
<path d="M6123.09 1060.26L6114 1052L6104.91 1060.26C6104.24 1060.87 6104.67 1062 6105.59 1062H6122.41C6123.33 1062 6123.76 1060.87 6123.09 1060.26Z" fill="#535353" id="n1918"/>
<path d="M6094 1384C6094 1399.98 6101.06 1415.13 6113.3 1425.41L6114 1426L6114.7 1425.41C6126.94 1415.13 6134 1399.98 6134 1384L6094 1384Z" fill="white" stroke="#8E8E8E" id="n1919"/>
<path d="M6137.2 1096C6141.68 1096 6143.92 1096 6145.63 1096.87C6147.14 1097.64 6148.36 1098.86 6149.13 1100.37C6150 1102.08 6150 1104.32 6150 1108.8L6150 1371.2C6150 1375.68 6150 1377.92 6149.13 1379.63C6148.36 1381.14 6147.14 1382.36 6145.63 1383.13C6143.92 1384 6141.68 1384 6137.2 1384H6090.8C6086.32 1384 6084.08 1384 6082.37 1383.13C6080.86 1382.36 6079.64 1381.14 6078.87 1379.63C6078 1377.92 6078 1375.68 6078 1371.2L6078 1108.8C6078 1104.32 6078 1102.08 6078.87 1100.37C6079.64 1098.86 6080.86 1097.64 6082.37 1096.87C6084.08 1096 6086.32 1096 6090.8 1096L6137.2 1096Z" fill="white" stroke="white" id="n1920"/>
<path d="M6126 1384H6090.8C6086.32 1384 6084.08 1384 6082.37 1383.13C6080.86 1382.36 6079.64 1381.14 6078.87 1379.63C6078 1377.92 6078 1375.68 6078 1371.2L6078 1108.8C6078 1104.32 6078 1102.08 6078.87 1100.37C6079.64 1098.86 6080.86 1097.64 6082.37 1096.87C6084.08 1096 6086.32 1096 6090.8 1096H6126V1384Z" fill="#F0F0F0" stroke="#F0F0F0" id="n1921"/>
<path d="M6137.2 1096C6141.68 1096 6143.92 1096 6145.63 1096.87C6147.14 1097.64 6148.36 1098.86 6149.13 1100.37C6150 1102.08 6150 1104.32 6150 1108.8L6150 1371.2C6150 1375.68 6150 1377.92 6149.13 1379.63C6148.36 1381.14 6147.14 1382.36 6145.63 1383.13C6143.92 1384 6141.68 1384 6137.2 1384H6090.8C6086.32 1384 6084.08 1384 6082.37 1383.13C6080.86 1382.36 6079.64 1381.14 6078.87 1379.63C6078 1377.92 6078 1375.68 6078 1371.2L6078 1108.8C6078 1104.32 6078 1102.08 6078.87 1100.37C6079.64 1098.86 6080.86 1097.64 6082.37 1096.87C6084.08 1096 6086.32 1096 6090.8 1096L6137.2 1096Z" stroke="#BEBEBE" id="n1922"/>
<rect x="6078" y="1236" width="72" height="8" fill="#BEBEBE" stroke="#BEBEBE" id="n1923"/>
<g mask="url(#mask214_68_6728)" id="n1926">
<path d="M6154 1166L6130 1166M6154 1236L6130 1236M6154 1096L6130 1096" stroke="#BEBEBE" id="n1927"/>
<path d="M6154 1236L6126 1236M6154 1096L6126 1096" stroke="#BEBEBE" id="n1928"/>
<path d="M6154 1314L6130 1314M6154 1384L6130 1384M6154 1244L6130 1244" stroke="#BEBEBE" id="n1929"/>
<path d="M6154 1384L6126 1384M6154 1244L6126 1244" stroke="#BEBEBE" id="n1930"/>
</g>
<path d="M6078 1236H6150V1244H6078V1236Z" fill="#2D548B" stroke="#2D548B" id="n1931"/>
<rect x="6078" y="1195" width="48" height="41" fill="#2D548B" stroke="#2D548B" id="n1932"/>
<path d="M6154.5 1162.59C6154.5 1165.01 6151.66 1166.32 6149.71 1164.92L6135.96 1155.03C6134.58 1154.03 6134.58 1151.96 6135.96 1150.97L6149.71 1141.07C6151.66 1139.67 6154.5 1140.98 6154.5 1143.4L6154.5 1162.59Z" fill="#2D548B" stroke="#F7F7F7" stroke-linejoin="round" id="n1933"/>
</g>
</svg>
