<?xml version='1.0' encoding='utf-8'?>
<svg xmlns="http://www.w3.org/2000/svg" xmlns:xlink="http://www.w3.org/1999/xlink" width="160.0" height="384.0" viewBox="0 0 160.0 384.0" fill="none">
  <defs><clipPath id="clip__asset"><rect x="0" y="0" width="160.0" height="384.0"/></clipPath><mask id="mask213_68_6728" style="mask-type:luminance" maskUnits="userSpaceOnUse" x="5602" y="984" width="512" height="512">
<path d="M5881.2 1096C5885.68 1096 5887.92 1096 5889.63 1096.87C5891.14 1097.64 5892.36 1098.86 5893.13 1100.37C5894 1102.08 5894 1104.32 5894 1108.8L5894 1371.2C5894 1375.68 5894 1377.92 5893.13 1379.63C5892.36 1381.14 5891.14 1382.36 5889.63 1383.13C5887.92 1384 5885.68 1384 5881.2 1384H5870L5870 1096H5881.2Z" fill="white" stroke="black" id="n1903"/>
<rect x="5822" y="1236" width="72" height="8" fill="black" stroke="black" id="n1904"/>
</mask>
</defs>
  <g clip-path="url(#clip__asset)" transform="translate(-5778.0 -1048.0)"><path d="M5838 1096L5838 1070C5838 1066.69 5840.69 1064 5844 1064L5872 1064C5875.31 1064 5878 1066.69 5878 1070L5878 1096L5838 1096Z" fill="white" stroke="#8E8E8E" id="n1892"/>
<path d="M5929 1079.74C5929 1070.96 5877.73 1068 5877.73 1068C5877.73 1075.71 5875.17 1083.13 5870.56 1088.75L5867.9 1092C5881.17 1092 5929 1088.51 5929 1079.74Z" fill="white" id="n1893"/>
<path d="M5787 1080.26C5787 1089.04 5838.27 1092 5838.27 1092C5838.27 1084.29 5840.83 1076.87 5845.44 1071.25L5848.1 1068C5834.83 1068 5787 1071.49 5787 1080.26Z" fill="white" id="n1894"/>
<path d="M5929 1079.74C5929 1070.96 5877.73 1068 5877.73 1068C5877.73 1075.71 5875.17 1083.13 5870.56 1088.75L5867.9 1092C5881.17 1092 5929 1088.51 5929 1079.74Z" stroke="#8E8E8E" id="n1895"/>
<path d="M5787 1080.26C5787 1089.04 5838.27 1092 5838.27 1092C5838.27 1084.29 5840.83 1076.87 5845.44 1071.25L5848.1 1068C5834.83 1068 5787 1071.49 5787 1080.26Z" stroke="#8E8E8E" id="n1896"/>
<path d="M5867.09 1060.26L5858 1052L5848.91 1060.26C5848.24 1060.87 5848.67 1062 5849.59 1062H5866.41C5867.33 1062 5867.76 1060.87 5867.09 1060.26Z" fill="#535353" id="n1897"/>
<path d="M5838 1384C5838 1399.98 5845.06 1415.13 5857.3 1425.41L5858 1426L5858.7 1425.41C5870.94 1415.13 5878 1399.98 5878 1384L5838 1384Z" fill="white" stroke="#8E8E8E" id="n1898"/>
<path d="M5881.2 1096C5885.68 1096 5887.92 1096 5889.63 1096.87C5891.14 1097.64 5892.36 1098.86 5893.13 1100.37C5894 1102.08 5894 1104.32 5894 1108.8L5894 1371.2C5894 1375.68 5894 1377.92 5893.13 1379.63C5892.36 1381.14 5891.14 1382.36 5889.63 1383.13C5887.92 1384 5885.68 1384 5881.2 1384H5834.8C5830.32 1384 5828.08 1384 5826.37 1383.13C5824.86 1382.36 5823.64 1381.14 5822.87 1379.63C5822 1377.92 5822 1375.68 5822 1371.2L5822 1108.8C5822 1104.32 5822 1102.08 5822.87 1100.37C5823.64 1098.86 5824.86 1097.64 5826.37 1096.87C5828.08 1096 5830.32 1096 5834.8 1096L5881.2 1096Z" fill="white" stroke="white" id="n1899"/>
<path d="M5870 1384H5834.8C5830.32 1384 5828.08 1384 5826.37 1383.13C5824.86 1382.36 5823.64 1381.14 5822.87 1379.63C5822 1377.92 5822 1375.68 5822 1371.2L5822 1108.8C5822 1104.32 5822 1102.08 5822.87 1100.37C5823.64 1098.86 5824.86 1097.64 5826.37 1096.87C5828.08 1096 5830.32 1096 5834.8 1096H5870V1384Z" fill="#F0F0F0" stroke="#F0F0F0" id="n1900"/>
<path d="M5881.2 1096C5885.68 1096 5887.92 1096 5889.63 1096.87C5891.14 1097.64 5892.36 1098.86 5893.13 1100.37C5894 1102.08 5894 1104.32 5894 1108.8L5894 1371.2C5894 1375.68 5894 1377.92 5893.13 1379.63C5892.36 1381.14 5891.14 1382.36 5889.63 1383.13C5887.92 1384 5885.68 1384 5881.2 1384H5834.8C5830.32 1384 5828.08 1384 5826.37 1383.13C5824.86 1382.36 5823.64 1381.14 5822.87 1379.63C5822 1377.92 5822 1375.68 5822 1371.2L5822 1108.8C5822 1104.32 5822 1102.08 5822.87 1100.37C5823.64 1098.86 5824.86 1097.64 5826.37 1096.87C5828.08 1096 5830.32 1096 5834.8 1096L5881.2 1096Z" stroke="#BEBEBE" id="n1901"/>
<rect x="5822" y="1236" width="72" height="8" fill="#BEBEBE" stroke="#BEBEBE" id="n1902"/>
<g mask="url(#mask213_68_6728)" id="n1905">
<path d="M5898 1166L5874 1166M5898 1236L5874 1236M5898 1096L5874 1096" stroke="#BEBEBE" id="n1906"/>
<path d="M5898 1236L5870 1236M5898 1096L5870 1096" stroke="#BEBEBE" id="n1907"/>
<path d="M5898 1314L5874 1314M5898 1384L5874 1384M5898 1244L5874 1244" stroke="#BEBEBE" id="n1908"/>
<path d="M5898 1384L5870 1384M5898 1244L5870 1244" stroke="#BEBEBE" id="n1909"/>
</g>
<path d="M5822 1236H5894V1244H5822V1236Z" fill="#535353" stroke="#535353" id="n1910"/>
<rect x="5822" y="1195" width="48" height="41" fill="#535353" stroke="#535353" id="n1911"/>
<path d="M5898.5 1162.59C5898.5 1165.01 5895.66 1166.32 5893.71 1164.92L5879.96 1155.03C5878.58 1154.03 5878.58 1151.96 5879.96 1150.97L5893.71 1141.07C5895.66 1139.67 5898.5 1140.98 5898.5 1143.4L5898.5 1162.59Z" fill="#535353" stroke="#F7F7F7" stroke-linejoin="round" id="n1912"/>
</g>
</svg>
