<?xml version='1.0' encoding='utf-8'?>
<svg xmlns="http://www.w3.org/2000/svg" xmlns:xlink="http://www.w3.org/1999/xlink" width="120.0" height="384.0" viewBox="0 0 120.0 384.0" fill="none">
  <defs><clipPath id="clip__asset"><rect x="0" y="0" width="120.0" height="384.0"/></clipPath><mask id="mask203_68_6728" style="mask-type:luminance" maskUnits="userSpaceOnUse" x="5054" y="984" width="512" height="512">
<path d="M5333.2 1072C5337.68 1072 5339.92 1072 5341.63 1072.87C5343.14 1073.64 5344.36 1074.86 5345.13 1076.37C5346 1078.08 5346 1080.32 5346 1084.8L5346 1395.2C5346 1399.68 5346 1401.92 5345.13 1403.63C5344.36 1405.14 5343.14 1406.36 5341.63 1407.13C5339.92 1408 5337.68 1408 5333.2 1408H5322L5322 1072L5333.2 1072Z" fill="white" stroke="black" id="n1749"/>
<rect x="5274" y="1236" width="72" height="8" fill="black" stroke="black" id="n1750"/>
</mask>
</defs>
  <g clip-path="url(#clip__asset)" transform="translate(-5250.0 -1048.0)"><path d="M5333.2 1072C5337.68 1072 5339.92 1072 5341.63 1072.87C5343.14 1073.64 5344.36 1074.86 5345.13 1076.37C5346 1078.08 5346 1080.32 5346 1084.8L5346 1395.2C5346 1399.68 5346 1401.92 5345.13 1403.63C5344.36 1405.14 5343.14 1406.36 5341.63 1407.13C5339.92 1408 5337.68 1408 5333.2 1408H5286.8C5282.32 1408 5280.08 1408 5278.37 1407.13C5276.86 1406.36 5275.64 1405.14 5274.87 1403.63C5274 1401.92 5274 1399.68 5274 1395.2L5274 1084.8C5274 1080.32 5274 1078.08 5274.87 1076.37C5275.64 1074.86 5276.86 1073.64 5278.37 1072.87C5280.08 1072 5282.32 1072 5286.8 1072L5333.2 1072Z" fill="white" stroke="white" id="n1744"/>
<path d="M5322 1408H5286.8C5282.32 1408 5280.08 1408 5278.37 1407.13C5276.86 1406.36 5275.64 1405.14 5274.87 1403.63C5274 1401.92 5274 1399.68 5274 1395.2L5274 1084.8C5274 1080.32 5274 1078.08 5274.87 1076.37C5275.64 1074.86 5276.86 1073.64 5278.37 1072.87C5280.08 1072 5282.32 1072 5286.8 1072H5322V1408Z" fill="#F0F0F0" stroke="#F0F0F0" id="n1745"/>
<path d="M5333.2 1072C5337.68 1072 5339.92 1072 5341.63 1072.87C5343.14 1073.64 5344.36 1074.86 5345.13 1076.37C5346 1078.08 5346 1080.32 5346 1084.8L5346 1395.2C5346 1399.68 5346 1401.92 5345.13 1403.63C5344.36 1405.14 5343.14 1406.36 5341.63 1407.13C5339.92 1408 5337.68 1408 5333.2 1408H5286.8C5282.32 1408 5280.08 1408 5278.37 1407.13C5276.86 1406.36 5275.64 1405.14 5274.87 1403.63C5274 1401.92 5274 1399.68 5274 1395.2L5274 1084.8C5274 1080.32 5274 1078.08 5274.87 1076.37C5275.64 1074.86 5276.86 1073.64 5278.37 1072.87C5280.08 1072 5282.32 1072 5286.8 1072L5333.2 1072Z" stroke="#BEBEBE" id="n1746"/>
<rect x="5274" y="1236" width="72" height="8" fill="#BEBEBE" stroke="#BEBEBE" id="n1747"/>
<path d="M5325.48 1065.38L5311.31 1053.13C5310.56 1052.48 5309.44 1052.48 5308.69 1053.13L5294.52 1065.38C5293.46 1066.3 5294.13 1068 5295.55 1068H5324.45C5325.87 1068 5326.54 1066.3 5325.48 1065.38Z" fill="#535353" id="n1748"/>
<g mask="url(#mask203_68_6728)" id="n1751">
<path d="M5350 1154L5326 1154M5350 1236L5326 1236M5350 1072L5326 1072" stroke="#BEBEBE" id="n1752"/>
<path d="M5350 1236L5322 1236M5350 1072L5322 1072" stroke="#BEBEBE" id="n1753"/>
<path d="M5350 1326L5326 1326M5350 1408L5326 1408M5350 1244L5326 1244" stroke="#BEBEBE" id="n1754"/>
<path d="M5350 1408L5322 1408M5350 1244L5322 1244" stroke="#BEBEBE" id="n1755"/>
</g>
<path d="M5274 1236H5346V1244H5274V1236Z" fill="#535353" stroke="#535353" id="n1756"/>
<rect x="5274" y="1195" width="48" height="41" fill="#535353" stroke="#535353" id="n1757"/>
<path d="M5350.5 1162.59C5350.5 1165.01 5347.66 1166.32 5345.71 1164.92L5331.96 1155.03C5330.58 1154.03 5330.58 1151.96 5331.96 1150.97L5345.71 1141.07C5347.66 1139.67 5350.5 1140.98 5350.5 1143.4L5350.5 1162.59Z" fill="#535353" stroke="#F7F7F7" stroke-linejoin="round" id="n1758"/>
</g>
</svg>
