<?xml version='1.0' encoding='utf-8'?>
<svg xmlns="http://www.w3.org/2000/svg" xmlns:xlink="http://www.w3.org/1999/xlink" width="1920.0" height="48.0" viewBox="0 0 1920.0 48.0" fill="none">
  <defs><clipPath id="clip__asset"><rect x="0" y="0" width="1920.0" height="48.0"/></clipPath><mask id="path-324-inside-16_1702_11540" fill="white">
<path d="M2044 1513.6C2044 1510.24 2044 1508.56 2044.65 1507.28C2045.23 1506.15 2046.15 1505.23 2047.28 1504.65C2048.56 1504 2050.24 1504 2053.6 1504H2082.4C2085.76 1504 2087.44 1504 2088.72 1504.65C2089.85 1505.23 2090.77 1506.15 2091.35 1507.28C2092 1508.56 2092 1510.24 2092 1513.6V1526.4C2092 1529.76 2092 1531.44 2091.35 1532.72C2090.77 1533.85 2089.85 1534.77 2088.72 1535.35C2087.44 1536 2085.76 1536 2082.4 1536H2053.6C2050.24 1536 2048.56 1536 2047.28 1535.35C2046.15 1534.77 2045.23 1533.85 2044.65 1532.72C2044 1531.44 2044 1529.76 2044 1526.4V1513.6Z" id="n340"/>
</mask>
<filter id="filter10_d_1702_11540" x="230" y="1495" width="1924" height="52" filterUnits="userSpaceOnUse" color-interpolation-filters="sRGB">
<feFlood flood-opacity="0" result="BackgroundImageFix" id="n1667"/>
<feColorMatrix in="SourceAlpha" type="matrix" values="0 0 0 0 0 0 0 0 0 0 0 0 0 0 0 0 0 0 127 0" result="hardAlpha" id="n1668"/>
<feOffset dy="1" id="n1669"/>
<feGaussianBlur stdDeviation="1" id="n1670"/>
<feColorMatrix type="matrix" values="0 0 0 0 0 0 0 0 0 0 0 0 0 0 0 0 0 0 0.23 0" id="n1671"/>
<feBlend mode="normal" in2="BackgroundImageFix" result="effect1_dropShadow_1702_11540" id="n1672"/>
<feBlend mode="normal" in="SourceGraphic" in2="effect1_dropShadow_1702_11540" result="shape" id="n1673"/>
</filter>
</defs>
  <g clip-path="url(#clip__asset)" transform="translate(-232.0 -1496.0)"><g filter="url(#filter10_d_1702_11540)" id="n331">
<rect width="1920" height="48" transform="translate(232 1496)" fill="#FCFCFC" id="n332"/>
<path d="M251 1521H269V1519H251V1521Z" fill="#535353" id="n333"/>
<path d="M251 1526H269V1524H251V1526Z" fill="#535353" id="n334"/>
<path d="M251 1514V1516H269V1514H251Z" fill="#535353" id="n335"/>
<path fill-rule="evenodd" clip-rule="evenodd" d="M293.001 1510V1513H290.001C288.902 1513 288.002 1513.9 288.002 1515V1519.62L286.712 1520.04C286.452 1520.12 286.232 1520.3 286.112 1520.54C285.992 1520.78 285.962 1521.06 286.052 1521.32L287.668 1526H287.999C289.388 1526 290.777 1525.53 291.996 1524.68C293.215 1525.53 294.611 1525.96 296 1525.96C297.389 1525.96 298.785 1525.53 300.004 1524.68C301.223 1525.53 302.612 1526 304.001 1526H304.333L305.948 1521.32C306.038 1521.06 306.008 1520.78 305.888 1520.54C305.768 1520.3 305.548 1520.12 305.288 1520.04L303.998 1519.62V1515C303.998 1513.9 303.098 1513 301.999 1513H298.999V1510L293.001 1510ZM295 1512V1513L297 1513V1512L295 1512ZM290.002 1515V1518.97L296 1517L301.999 1518.97V1515L290.002 1515ZM296 1519.11L290.621 1520.86L288.222 1521.65L288.998 1524C290.497 1524 291.292 1523.17 291.996 1522.68C293.215 1523.53 294.611 1523.96 296 1523.96C297.389 1523.96 298.785 1523.53 300.004 1522.68C300.708 1523.17 301.503 1524 303.002 1524L303.778 1521.65L301.379 1520.86L296 1519.11Z" fill="#535353" id="n336"/>
<path fill-rule="evenodd" clip-rule="evenodd" d="M295.993 1527.96C297.382 1527.96 298.771 1527.53 299.99 1526.68C301.209 1527.53 302.598 1528 303.987 1528H304.986V1530H303.987C302.608 1530 301.249 1529.66 299.99 1529.01C298.731 1529.66 297.362 1529.98 295.993 1529.98C294.624 1529.98 293.255 1529.65 291.996 1529.01C290.737 1529.65 289.378 1530 287.999 1530H286.999V1528H287.999C289.388 1528 290.777 1527.53 291.996 1526.68C293.215 1527.53 294.604 1527.96 295.993 1527.96Z" fill="#535353" id="n337"/>
<path d="M324.931 1526L323.507 1522.34H318.915L317.507 1526H316.195L320.659 1514.53H321.827L326.259 1526H324.931ZM321.763 1517.54C321.731 1517.45 321.678 1517.3 321.603 1517.09C321.529 1516.87 321.459 1516.66 321.395 1516.43C321.331 1516.2 321.273 1516.01 321.219 1515.87C321.166 1516.09 321.107 1516.3 321.043 1516.51C320.99 1516.71 320.931 1516.91 320.867 1517.09C320.814 1517.26 320.766 1517.41 320.723 1517.55L319.347 1521.2H323.107L321.763 1517.54ZM331.649 1517.28C332.716 1517.28 333.564 1517.65 334.193 1518.38C334.833 1519.12 335.153 1520.22 335.153 1521.7C335.153 1522.67 335.004 1523.49 334.705 1524.16C334.417 1524.82 334.007 1525.32 333.473 1525.66C332.951 1525.99 332.332 1526.16 331.617 1526.16C331.159 1526.16 330.753 1526.1 330.401 1525.97C330.049 1525.84 329.751 1525.67 329.505 1525.47C329.271 1525.27 329.073 1525.05 328.913 1524.8H328.817C328.839 1525 328.86 1525.25 328.881 1525.54C328.903 1525.82 328.913 1526.08 328.913 1526.3V1529.82H327.649V1517.44H328.673L328.849 1518.74H328.913C329.073 1518.47 329.276 1518.23 329.521 1518.02C329.767 1517.79 330.06 1517.62 330.401 1517.49C330.753 1517.35 331.169 1517.28 331.649 1517.28ZM331.425 1518.35C330.839 1518.35 330.359 1518.47 329.985 1518.7C329.623 1518.94 329.351 1519.29 329.169 1519.74C328.999 1520.2 328.913 1520.78 328.913 1521.47V1521.71C328.913 1522.45 328.993 1523.07 329.153 1523.57C329.313 1524.07 329.58 1524.45 329.953 1524.72C330.327 1524.98 330.823 1525.1 331.441 1525.1C331.975 1525.1 332.417 1524.96 332.769 1524.67C333.132 1524.38 333.404 1523.98 333.585 1523.47C333.767 1522.96 333.857 1522.36 333.857 1521.68C333.857 1520.65 333.655 1519.83 333.249 1519.25C332.855 1518.65 332.247 1518.35 331.425 1518.35ZM341.415 1517.28C342.482 1517.28 343.33 1517.65 343.959 1518.38C344.599 1519.12 344.919 1520.22 344.919 1521.7C344.919 1522.67 344.77 1523.49 344.471 1524.16C344.183 1524.82 343.772 1525.32 343.239 1525.66C342.716 1525.99 342.098 1526.16 341.383 1526.16C340.924 1526.16 340.519 1526.1 340.167 1525.97C339.815 1525.84 339.516 1525.67 339.271 1525.47C339.036 1525.27 338.839 1525.05 338.679 1524.8H338.583C338.604 1525 338.626 1525.25 338.647 1525.54C338.668 1525.82 338.679 1526.08 338.679 1526.3V1529.82H337.415V1517.44H338.439L338.615 1518.74H338.679C338.839 1518.47 339.042 1518.23 339.287 1518.02C339.532 1517.79 339.826 1517.62 340.167 1517.49C340.519 1517.35 340.935 1517.28 341.415 1517.28ZM341.191 1518.35C340.604 1518.35 340.124 1518.47 339.751 1518.7C339.388 1518.94 339.116 1519.29 338.935 1519.74C338.764 1520.2 338.679 1520.78 338.679 1521.47V1521.71C338.679 1522.45 338.759 1523.07 338.919 1523.57C339.079 1524.07 339.346 1524.45 339.719 1524.72C340.092 1524.98 340.588 1525.1 341.207 1525.1C341.74 1525.1 342.183 1524.96 342.535 1524.67C342.898 1524.38 343.17 1523.98 343.351 1523.47C343.532 1522.96 343.623 1522.36 343.623 1521.68C343.623 1520.65 343.42 1519.83 343.015 1519.25C342.62 1518.65 342.012 1518.35 341.191 1518.35Z" fill="#1F1F1F" id="n338"/>
<path d="M359.024 1514.58C360.507 1514.58 361.584 1514.89 362.256 1515.52C362.939 1516.15 363.28 1517.02 363.28 1518.13C363.28 1518.62 363.205 1519.09 363.056 1519.55C362.907 1520 362.656 1520.4 362.304 1520.75C361.952 1521.1 361.493 1521.38 360.928 1521.58C360.363 1521.79 359.664 1521.89 358.832 1521.89H357.76V1526H355.456V1514.58H359.024ZM358.896 1516.48H357.76V1520H358.592C359.083 1520 359.499 1519.94 359.84 1519.82C360.192 1519.7 360.464 1519.5 360.656 1519.23C360.848 1518.97 360.944 1518.62 360.944 1518.19C360.944 1517.62 360.779 1517.19 360.448 1516.91C360.117 1516.62 359.6 1516.48 358.896 1516.48ZM368.8 1517.1C369.963 1517.1 370.848 1517.35 371.456 1517.86C372.064 1518.36 372.368 1519.13 372.368 1520.18V1526H370.784L370.336 1524.82H370.272C370.027 1525.13 369.771 1525.38 369.504 1525.58C369.248 1525.79 368.949 1525.93 368.608 1526.02C368.277 1526.11 367.867 1526.16 367.376 1526.16C366.864 1526.16 366.4 1526.06 365.984 1525.87C365.579 1525.67 365.259 1525.37 365.024 1524.96C364.789 1524.55 364.672 1524.04 364.672 1523.42C364.672 1522.5 364.997 1521.81 365.648 1521.38C366.309 1520.93 367.296 1520.68 368.608 1520.64L370.112 1520.59V1520.19C370.112 1519.7 369.989 1519.35 369.744 1519.14C369.499 1518.91 369.157 1518.8 368.72 1518.8C368.283 1518.8 367.861 1518.86 367.456 1518.99C367.051 1519.11 366.651 1519.26 366.256 1519.44L365.504 1517.89C365.963 1517.64 366.475 1517.45 367.04 1517.31C367.605 1517.17 368.192 1517.1 368.8 1517.1ZM369.152 1521.97C368.352 1521.99 367.792 1522.13 367.472 1522.4C367.163 1522.66 367.008 1523 367.008 1523.44C367.008 1523.81 367.12 1524.08 367.344 1524.24C367.568 1524.4 367.856 1524.48 368.208 1524.48C368.752 1524.48 369.205 1524.33 369.568 1524.02C369.931 1523.7 370.112 1523.24 370.112 1522.66V1521.94L369.152 1521.97ZM377.69 1517.12C378.234 1517.12 378.719 1517.23 379.146 1517.44C379.573 1517.65 379.935 1517.97 380.234 1518.4H380.314L380.506 1517.28H382.41V1526.03C382.41 1526.86 382.25 1527.56 381.93 1528.11C381.61 1528.68 381.13 1529.1 380.49 1529.39C379.85 1529.69 379.055 1529.84 378.106 1529.84C377.487 1529.84 376.911 1529.8 376.378 1529.73C375.855 1529.65 375.349 1529.52 374.858 1529.33V1527.49C375.21 1527.64 375.567 1527.76 375.93 1527.86C376.293 1527.96 376.666 1528.04 377.05 1528.08C377.445 1528.13 377.839 1528.16 378.234 1528.16C378.874 1528.16 379.349 1527.99 379.658 1527.65C379.978 1527.31 380.138 1526.8 380.138 1526.13V1525.94C380.138 1525.75 380.143 1525.57 380.154 1525.38C380.175 1525.17 380.191 1525 380.202 1524.86H380.138C379.839 1525.32 379.482 1525.65 379.066 1525.86C378.65 1526.06 378.175 1526.16 377.642 1526.16C376.597 1526.16 375.781 1525.77 375.194 1524.98C374.607 1524.18 374.314 1523.07 374.314 1521.66C374.314 1520.7 374.447 1519.89 374.714 1519.22C374.981 1518.53 375.37 1518.02 375.882 1517.66C376.394 1517.3 376.997 1517.12 377.69 1517.12ZM378.378 1518.98C377.994 1518.98 377.669 1519.08 377.402 1519.28C377.146 1519.48 376.954 1519.79 376.826 1520.19C376.698 1520.59 376.634 1521.08 376.634 1521.68C376.634 1522.58 376.778 1523.25 377.066 1523.7C377.365 1524.14 377.813 1524.37 378.41 1524.37C378.741 1524.37 379.018 1524.33 379.242 1524.24C379.477 1524.15 379.669 1524.02 379.818 1523.82C379.978 1523.63 380.095 1523.39 380.17 1523.09C380.245 1522.78 380.282 1522.41 380.282 1521.97V1521.66C380.282 1521.02 380.213 1520.51 380.074 1520.11C379.946 1519.72 379.743 1519.43 379.466 1519.25C379.189 1519.07 378.826 1518.98 378.378 1518.98ZM388.504 1517.12C389.304 1517.12 389.992 1517.27 390.568 1517.58C391.144 1517.89 391.587 1518.34 391.896 1518.93C392.216 1519.51 392.376 1520.23 392.376 1521.07V1522.19H386.712C386.733 1522.9 386.936 1523.45 387.32 1523.86C387.715 1524.25 388.259 1524.45 388.952 1524.45C389.517 1524.45 390.024 1524.39 390.472 1524.29C390.931 1524.17 391.405 1524 391.896 1523.78V1525.54C391.469 1525.75 391.021 1525.9 390.552 1526C390.083 1526.11 389.517 1526.16 388.856 1526.16C387.981 1526.16 387.208 1526 386.536 1525.68C385.875 1525.35 385.352 1524.85 384.968 1524.19C384.595 1523.53 384.408 1522.7 384.408 1521.71C384.408 1520.69 384.579 1519.84 384.92 1519.17C385.261 1518.5 385.736 1517.99 386.344 1517.65C386.963 1517.3 387.683 1517.12 388.504 1517.12ZM388.52 1518.75C388.029 1518.75 387.624 1518.91 387.304 1519.23C386.995 1519.54 386.813 1520.02 386.76 1520.67H390.216C390.216 1520.3 390.152 1519.97 390.024 1519.68C389.907 1519.39 389.72 1519.17 389.464 1519.01C389.219 1518.84 388.904 1518.75 388.52 1518.75Z" fill="#1F1F1F" id="n339"/>
<mask id="path-324-inside-16_1702_11540" fill="white">
<path d="M2044 1513.6C2044 1510.24 2044 1508.56 2044.65 1507.28C2045.23 1506.15 2046.15 1505.23 2047.28 1504.65C2048.56 1504 2050.24 1504 2053.6 1504H2082.4C2085.76 1504 2087.44 1504 2088.72 1504.65C2089.85 1505.23 2090.77 1506.15 2091.35 1507.28C2092 1508.56 2092 1510.24 2092 1513.6V1526.4C2092 1529.76 2092 1531.44 2091.35 1532.72C2090.77 1533.85 2089.85 1534.77 2088.72 1535.35C2087.44 1536 2085.76 1536 2082.4 1536H2053.6C2050.24 1536 2048.56 1536 2047.28 1535.35C2046.15 1534.77 2045.23 1533.85 2044.65 1532.72C2044 1531.44 2044 1529.76 2044 1526.4V1513.6Z" id="n340"/>
</mask>
<path d="M2044 1513.6C2044 1510.24 2044 1508.56 2044.65 1507.28C2045.23 1506.15 2046.15 1505.23 2047.28 1504.65C2048.56 1504 2050.24 1504 2053.6 1504H2082.4C2085.76 1504 2087.44 1504 2088.72 1504.65C2089.85 1505.23 2090.77 1506.15 2091.35 1507.28C2092 1508.56 2092 1510.24 2092 1513.6V1526.4C2092 1529.76 2092 1531.44 2091.35 1532.72C2090.77 1533.85 2089.85 1534.77 2088.72 1535.35C2087.44 1536 2085.76 1536 2082.4 1536H2053.6C2050.24 1536 2048.56 1536 2047.28 1535.35C2046.15 1534.77 2045.23 1533.85 2044.65 1532.72C2044 1531.44 2044 1529.76 2044 1526.4V1513.6Z" fill="white" id="n341"/>
<path d="M2047.28 1535.35L2047.73 1534.46L2047.28 1535.35ZM2091.35 1532.72L2090.46 1532.27L2091.35 1532.72ZM2088.72 1535.35L2089.18 1536.24L2088.72 1535.35ZM2088.72 1504.65L2088.27 1505.54L2088.72 1504.65ZM2091.35 1507.28L2092.24 1506.82L2091.35 1507.28ZM2053.6 1504V1505H2082.4V1504V1503H2053.6V1504ZM2092 1513.6H2091V1526.4H2092H2093V1513.6H2092ZM2082.4 1536V1535H2053.6V1536V1537H2082.4V1536ZM2044 1526.4H2045V1513.6H2044H2043V1526.4H2044ZM2053.6 1536V1535C2051.9 1535 2050.69 1535 2049.74 1534.92C2048.8 1534.84 2048.21 1534.7 2047.73 1534.46L2047.28 1535.35L2046.82 1536.24C2047.63 1536.65 2048.52 1536.83 2049.58 1536.91C2050.63 1537 2051.94 1537 2053.6 1537V1536ZM2044 1526.4H2043C2043 1528.06 2043 1529.37 2043.09 1530.42C2043.17 1531.48 2043.35 1532.37 2043.76 1533.18L2044.65 1532.72L2045.54 1532.27C2045.3 1531.79 2045.16 1531.2 2045.08 1530.26C2045 1529.31 2045 1528.1 2045 1526.4H2044ZM2047.28 1535.35L2047.73 1534.46C2046.79 1533.98 2046.02 1533.21 2045.54 1532.27L2044.65 1532.72L2043.76 1533.18C2044.43 1534.5 2045.5 1535.57 2046.82 1536.24L2047.28 1535.35ZM2092 1526.4H2091C2091 1528.1 2091 1529.31 2090.92 1530.26C2090.84 1531.2 2090.7 1531.79 2090.46 1532.27L2091.35 1532.72L2092.24 1533.18C2092.65 1532.37 2092.83 1531.48 2092.91 1530.42C2093 1529.37 2093 1528.06 2093 1526.4H2092ZM2082.4 1536V1537C2084.06 1537 2085.37 1537 2086.42 1536.91C2087.48 1536.83 2088.37 1536.65 2089.18 1536.24L2088.72 1535.35L2088.27 1534.46C2087.79 1534.7 2087.2 1534.84 2086.26 1534.92C2085.31 1535 2084.1 1535 2082.4 1535V1536ZM2091.35 1532.72L2090.46 1532.27C2089.98 1533.21 2089.21 1533.98 2088.27 1534.46L2088.72 1535.35L2089.18 1536.24C2090.5 1535.57 2091.57 1534.5 2092.24 1533.18L2091.35 1532.72ZM2082.4 1504V1505C2084.1 1505 2085.31 1505 2086.26 1505.08C2087.2 1505.16 2087.79 1505.3 2088.27 1505.54L2088.72 1504.65L2089.18 1503.76C2088.37 1503.35 2087.48 1503.17 2086.42 1503.09C2085.37 1503 2084.06 1503 2082.4 1503V1504ZM2092 1513.6H2093C2093 1511.94 2093 1510.63 2092.91 1509.58C2092.83 1508.52 2092.65 1507.63 2092.24 1506.82L2091.35 1507.28L2090.46 1507.73C2090.7 1508.21 2090.84 1508.8 2090.92 1509.74C2091 1510.69 2091 1511.9 2091 1513.6H2092ZM2088.72 1504.65L2088.27 1505.54C2089.21 1506.02 2089.98 1506.79 2090.46 1507.73L2091.35 1507.28L2092.24 1506.82C2091.57 1505.5 2090.5 1504.43 2089.18 1503.76L2088.72 1504.65ZM2053.6 1504V1503C2051.94 1503 2050.63 1503 2049.58 1503.09C2048.52 1503.17 2047.63 1503.35 2046.82 1503.76L2047.28 1504.65L2047.73 1505.54C2048.21 1505.3 2048.8 1505.16 2049.74 1505.08C2050.69 1505 2051.9 1505 2053.6 1505V1504ZM2044 1513.6H2045C2045 1511.9 2045 1510.69 2045.08 1509.74C2045.16 1508.8 2045.3 1508.21 2045.54 1507.73L2044.65 1507.28L2043.76 1506.82C2043.35 1507.63 2043.17 1508.52 2043.09 1509.58C2043 1510.63 2043 1511.94 2043 1513.6H2044ZM2047.28 1504.65L2046.82 1503.76C2045.5 1504.43 2044.43 1505.5 2043.76 1506.82L2044.65 1507.28L2045.54 1507.73C2046.02 1506.79 2046.79 1506.02 2047.73 1505.54L2047.28 1504.65Z" fill="#BEBEBE" mask="url(#path-324-inside-16_1702_11540)" id="n342"/>
<path d="M2060 1527V1525H2062V1518C2062 1516.62 2062.42 1515.39 2063.25 1514.31C2064.08 1513.24 2065.17 1512.53 2066.5 1512.2V1511.5C2066.5 1511.08 2066.65 1510.73 2066.94 1510.44C2067.23 1510.15 2067.58 1510 2068 1510C2068.42 1510 2068.77 1510.15 2069.06 1510.44C2069.35 1510.73 2069.5 1511.08 2069.5 1511.5V1512.2C2070.83 1512.53 2071.92 1513.24 2072.75 1514.31C2073.58 1515.39 2074 1516.62 2074 1518V1525H2076V1527H2060ZM2068 1530C2067.45 1530 2066.98 1529.8 2066.59 1529.41C2066.2 1529.02 2066 1528.55 2066 1528H2070C2070 1528.55 2069.8 1529.02 2069.41 1529.41C2069.02 1529.8 2068.55 1530 2068 1530ZM2064 1525H2072V1518C2072 1516.9 2071.61 1515.96 2070.82 1515.18C2070.04 1514.39 2069.1 1514 2068 1514C2066.9 1514 2065.96 1514.39 2065.18 1515.18C2064.39 1515.96 2064 1516.9 2064 1518V1525Z" fill="#535353" id="n343"/>
<path d="M2131 1514.41L2129.59 1513L2124 1518.59L2118.41 1513L2117 1514.41L2122.59 1520L2117 1525.59L2118.41 1527L2124 1521.41L2129.59 1527L2131 1525.59L2125.41 1520L2131 1514.41Z" fill="#535353" id="n344"/>
<circle cx="2124" cy="1520" r="18" stroke="#E0E0E0" stroke-width="4" id="n345"/>
<path d="M2124 1502C2127.56 1502 2131.04 1503.06 2134 1505.03C2136.96 1507.01 2139.27 1509.82 2140.63 1513.11C2141.99 1516.4 2142.35 1520.02 2141.65 1523.51C2140.96 1527 2139.25 1530.21 2136.73 1532.73" stroke="#2D548B" stroke-width="4" stroke-linecap="round" id="n346"/>
</g>
</g>
</svg>
