<?xml version='1.0' encoding='utf-8'?>
<svg xmlns="http://www.w3.org/2000/svg" xmlns:xlink="http://www.w3.org/1999/xlink" width="1920.0" height="48.0" viewBox="0 0 1920.0 48.0" fill="none">
  <defs><clipPath id="clip__asset"><rect x="0" y="0" width="1920.0" height="48.0"/></clipPath><mask id="path-15-inside-1_1702_11540" fill="white">
<path d="M1839 249.6C1839 246.24 1839 244.56 1839.65 243.276C1840.23 242.147 1841.15 241.229 1842.28 240.654C1843.56 240 1845.24 240 1848.6 240H1895V272H1848.6C1845.24 272 1843.56 272 1842.28 271.346C1841.15 270.771 1840.23 269.853 1839.65 268.724C1839 267.44 1839 265.76 1839 262.4V249.6Z" id="n18"/>
</mask>
<mask id="path-19-inside-2_1702_11540" fill="white">
<path d="M1895 240H1941.4C1944.76 240 1946.44 240 1947.72 240.654C1948.85 241.229 1949.77 242.147 1950.35 243.276C1951 244.56 1951 246.24 1951 249.6V262.4C1951 265.76 1951 267.44 1950.35 268.724C1949.77 269.853 1948.85 270.771 1947.72 271.346C1946.44 272 1944.76 272 1941.4 272H1895V240Z" id="n22"/>
</mask>
<filter id="filter0_d_1702_11540" x="230" y="231" width="1924" height="52" filterUnits="userSpaceOnUse" color-interpolation-filters="sRGB">
<feFlood flood-opacity="0" result="BackgroundImageFix" id="n1578"/>
<feColorMatrix in="SourceAlpha" type="matrix" values="0 0 0 0 0 0 0 0 0 0 0 0 0 0 0 0 0 0 127 0" result="hardAlpha" id="n1579"/>
<feOffset dy="1" id="n1580"/>
<feGaussianBlur stdDeviation="1" id="n1581"/>
<feColorMatrix type="matrix" values="0 0 0 0 0 0 0 0 0 0 0 0 0 0 0 0 0 0 0.23 0" id="n1582"/>
<feBlend mode="normal" in2="BackgroundImageFix" result="effect1_dropShadow_1702_11540" id="n1583"/>
<feBlend mode="normal" in="SourceGraphic" in2="effect1_dropShadow_1702_11540" result="shape" id="n1584"/>
</filter>
</defs>
  <g clip-path="url(#clip__asset)" transform="translate(-232.0 -232.0)"><g filter="url(#filter0_d_1702_11540)" id="n7">
<rect width="1920" height="48" transform="translate(232 232)" fill="#FCFCFC" id="n8"/>
<path d="M251 257H269V255H251V257Z" fill="#535353" id="n9"/>
<path d="M251 262H269V260H251V262Z" fill="#535353" id="n10"/>
<path d="M251 250V252H269V250H251Z" fill="#535353" id="n11"/>
<path fill-rule="evenodd" clip-rule="evenodd" d="M293.001 246V249H290.001C288.902 249 288.002 249.9 288.002 251V255.62L286.712 256.04C286.452 256.12 286.232 256.3 286.112 256.54C285.992 256.78 285.962 257.06 286.052 257.32L287.668 262H287.999C289.388 262 290.777 261.53 291.996 260.68C293.215 261.53 294.611 261.96 296 261.96C297.389 261.96 298.785 261.53 300.004 260.68C301.223 261.53 302.612 262 304.001 262H304.333L305.948 257.32C306.038 257.06 306.008 256.78 305.888 256.54C305.768 256.3 305.548 256.12 305.288 256.04L303.998 255.62V251C303.998 249.9 303.098 249 301.999 249H298.999V246L293.001 246ZM295 248V249L297 249V248L295 248ZM290.002 251V254.97L296 253.001L301.999 254.97V251L290.002 251ZM296 255.111L290.621 256.86L288.222 257.65L288.998 260C290.497 260 291.292 259.171 291.996 258.68C293.215 259.53 294.611 259.96 296 259.96C297.389 259.96 298.785 259.53 300.004 258.68C300.708 259.17 301.503 260 303.002 260L303.778 257.65L301.379 256.86L296 255.111Z" fill="#535353" id="n12"/>
<path fill-rule="evenodd" clip-rule="evenodd" d="M295.993 263.96C297.382 263.96 298.771 263.53 299.99 262.68C301.209 263.53 302.598 264 303.987 264H304.986V266H303.987C302.608 266 301.249 265.66 299.99 265.01C298.731 265.66 297.362 265.98 295.993 265.98C294.624 265.98 293.255 265.65 291.996 265.01C290.737 265.65 289.378 266 287.999 266H286.999V264H287.999C289.388 264 290.777 263.53 291.996 262.68C293.215 263.53 294.604 263.96 295.993 263.96Z" fill="#535353" id="n13"/>
<path d="M324.931 262L323.507 258.336H318.915L317.507 262H316.195L320.659 250.528H321.827L326.259 262H324.931ZM321.763 253.536C321.731 253.451 321.678 253.301 321.603 253.088C321.529 252.875 321.459 252.656 321.395 252.432C321.331 252.197 321.273 252.011 321.219 251.872C321.166 252.085 321.107 252.299 321.043 252.512C320.99 252.715 320.931 252.907 320.867 253.088C320.814 253.259 320.766 253.413 320.723 253.552L319.347 257.2H323.107L321.763 253.536ZM331.649 253.28C332.716 253.28 333.564 253.648 334.193 254.384C334.833 255.12 335.153 256.224 335.153 257.696C335.153 258.667 335.004 259.488 334.705 260.16C334.417 260.821 334.007 261.323 333.473 261.664C332.951 261.995 332.332 262.16 331.617 262.16C331.159 262.16 330.753 262.096 330.401 261.968C330.049 261.84 329.751 261.675 329.505 261.472C329.271 261.269 329.073 261.045 328.913 260.8H328.817C328.839 261.003 328.86 261.248 328.881 261.536C328.903 261.824 328.913 262.08 328.913 262.304V265.824H327.649V253.44H328.673L328.849 254.736H328.913C329.073 254.469 329.276 254.229 329.521 254.016C329.767 253.792 330.06 253.616 330.401 253.488C330.753 253.349 331.169 253.28 331.649 253.28ZM331.425 254.352C330.839 254.352 330.359 254.469 329.985 254.704C329.623 254.939 329.351 255.285 329.169 255.744C328.999 256.203 328.913 256.779 328.913 257.472V257.712C328.913 258.448 328.993 259.067 329.153 259.568C329.313 260.069 329.58 260.453 329.953 260.72C330.327 260.976 330.823 261.104 331.441 261.104C331.975 261.104 332.417 260.96 332.769 260.672C333.132 260.384 333.404 259.984 333.585 259.472C333.767 258.96 333.857 258.363 333.857 257.68C333.857 256.645 333.655 255.835 333.249 255.248C332.855 254.651 332.247 254.352 331.425 254.352ZM341.415 253.28C342.482 253.28 343.33 253.648 343.959 254.384C344.599 255.12 344.919 256.224 344.919 257.696C344.919 258.667 344.77 259.488 344.471 260.16C344.183 260.821 343.772 261.323 343.239 261.664C342.716 261.995 342.098 262.16 341.383 262.16C340.924 262.16 340.519 262.096 340.167 261.968C339.815 261.84 339.516 261.675 339.271 261.472C339.036 261.269 338.839 261.045 338.679 260.8H338.583C338.604 261.003 338.626 261.248 338.647 261.536C338.668 261.824 338.679 262.08 338.679 262.304V265.824H337.415V253.44H338.439L338.615 254.736H338.679C338.839 254.469 339.042 254.229 339.287 254.016C339.532 253.792 339.826 253.616 340.167 253.488C340.519 253.349 340.935 253.28 341.415 253.28ZM341.191 254.352C340.604 254.352 340.124 254.469 339.751 254.704C339.388 254.939 339.116 255.285 338.935 255.744C338.764 256.203 338.679 256.779 338.679 257.472V257.712C338.679 258.448 338.759 259.067 338.919 259.568C339.079 260.069 339.346 260.453 339.719 260.72C340.092 260.976 340.588 261.104 341.207 261.104C341.74 261.104 342.183 260.96 342.535 260.672C342.898 260.384 343.17 259.984 343.351 259.472C343.532 258.96 343.623 258.363 343.623 257.68C343.623 256.645 343.42 255.835 343.015 255.248C342.62 254.651 342.012 254.352 341.191 254.352Z" fill="#1F1F1F" id="n14"/>
<path d="M359.024 250.576C360.507 250.576 361.584 250.891 362.256 251.52C362.939 252.149 363.28 253.019 363.28 254.128C363.28 254.619 363.205 255.093 363.056 255.552C362.907 256 362.656 256.4 362.304 256.752C361.952 257.104 361.493 257.381 360.928 257.584C360.363 257.787 359.664 257.888 358.832 257.888H357.76V262H355.456V250.576H359.024ZM358.896 252.48H357.76V256H358.592C359.083 256 359.499 255.941 359.84 255.824C360.192 255.696 360.464 255.499 360.656 255.232C360.848 254.965 360.944 254.619 360.944 254.192C360.944 253.616 360.779 253.189 360.448 252.912C360.117 252.624 359.6 252.48 358.896 252.48ZM368.8 253.104C369.963 253.104 370.848 253.355 371.456 253.856C372.064 254.357 372.368 255.131 372.368 256.176V262H370.784L370.336 260.816H370.272C370.027 261.125 369.771 261.381 369.504 261.584C369.248 261.787 368.949 261.931 368.608 262.016C368.277 262.112 367.867 262.16 367.376 262.16C366.864 262.16 366.4 262.064 365.984 261.872C365.579 261.669 365.259 261.365 365.024 260.96C364.789 260.555 364.672 260.043 364.672 259.424C364.672 258.496 364.997 257.813 365.648 257.376C366.309 256.928 367.296 256.683 368.608 256.64L370.112 256.592V256.192C370.112 255.701 369.989 255.349 369.744 255.136C369.499 254.912 369.157 254.8 368.72 254.8C368.283 254.8 367.861 254.864 367.456 254.992C367.051 255.109 366.651 255.259 366.256 255.44L365.504 253.888C365.963 253.643 366.475 253.451 367.04 253.312C367.605 253.173 368.192 253.104 368.8 253.104ZM369.152 257.968C368.352 257.989 367.792 258.133 367.472 258.4C367.163 258.656 367.008 259.003 367.008 259.44C367.008 259.813 367.12 260.08 367.344 260.24C367.568 260.4 367.856 260.48 368.208 260.48C368.752 260.48 369.205 260.325 369.568 260.016C369.931 259.696 370.112 259.243 370.112 258.656V257.936L369.152 257.968ZM377.69 253.12C378.234 253.12 378.719 253.227 379.146 253.44C379.573 253.653 379.935 253.973 380.234 254.4H380.314L380.506 253.28H382.41V262.032C382.41 262.864 382.25 263.557 381.93 264.112C381.61 264.677 381.13 265.104 380.49 265.392C379.85 265.691 379.055 265.84 378.106 265.84C377.487 265.84 376.911 265.803 376.378 265.728C375.855 265.653 375.349 265.52 374.858 265.328V263.488C375.21 263.637 375.567 263.76 375.93 263.856C376.293 263.963 376.666 264.037 377.05 264.08C377.445 264.133 377.839 264.16 378.234 264.16C378.874 264.16 379.349 263.989 379.658 263.648C379.978 263.307 380.138 262.8 380.138 262.128V261.936C380.138 261.755 380.143 261.568 380.154 261.376C380.175 261.173 380.191 261.003 380.202 260.864H380.138C379.839 261.323 379.482 261.653 379.066 261.856C378.65 262.059 378.175 262.16 377.642 262.16C376.597 262.16 375.781 261.765 375.194 260.976C374.607 260.176 374.314 259.072 374.314 257.664C374.314 256.704 374.447 255.888 374.714 255.216C374.981 254.533 375.37 254.016 375.882 253.664C376.394 253.301 376.997 253.12 377.69 253.12ZM378.378 254.976C377.994 254.976 377.669 255.077 377.402 255.28C377.146 255.483 376.954 255.787 376.826 256.192C376.698 256.587 376.634 257.083 376.634 257.68C376.634 258.576 376.778 259.248 377.066 259.696C377.365 260.144 377.813 260.368 378.41 260.368C378.741 260.368 379.018 260.325 379.242 260.24C379.477 260.155 379.669 260.016 379.818 259.824C379.978 259.632 380.095 259.387 380.17 259.088C380.245 258.779 380.282 258.405 380.282 257.968V257.664C380.282 257.024 380.213 256.507 380.074 256.112C379.946 255.717 379.743 255.429 379.466 255.248C379.189 255.067 378.826 254.976 378.378 254.976ZM388.504 253.12C389.304 253.12 389.992 253.275 390.568 253.584C391.144 253.893 391.587 254.341 391.896 254.928C392.216 255.515 392.376 256.229 392.376 257.072V258.192H386.712C386.733 258.896 386.936 259.451 387.32 259.856C387.715 260.251 388.259 260.448 388.952 260.448C389.517 260.448 390.024 260.395 390.472 260.288C390.931 260.171 391.405 260 391.896 259.776V261.536C391.469 261.749 391.021 261.904 390.552 262C390.083 262.107 389.517 262.16 388.856 262.16C387.981 262.16 387.208 262 386.536 261.68C385.875 261.349 385.352 260.853 384.968 260.192C384.595 259.531 384.408 258.704 384.408 257.712C384.408 256.688 384.579 255.84 384.92 255.168C385.261 254.496 385.736 253.989 386.344 253.648C386.963 253.296 387.683 253.12 388.504 253.12ZM388.52 254.752C388.029 254.752 387.624 254.912 387.304 255.232C386.995 255.541 386.813 256.021 386.76 256.672H390.216C390.216 256.299 390.152 255.968 390.024 255.68C389.907 255.392 389.72 255.168 389.464 255.008C389.219 254.837 388.904 254.752 388.52 254.752Z" fill="#1F1F1F" id="n15"/>
<path fill-rule="evenodd" clip-rule="evenodd" d="M411.936 245.597L410.298 246.744L413.207 250.898C412.115 251.925 411.353 253.297 411.095 254.841L408.495 254.625C407.69 254.557 407 255.192 407 256C407 256.807 407.69 257.442 408.495 257.375L411.095 257.159C411.378 258.857 412.273 260.349 413.545 261.399L412.056 263.544C411.596 264.207 411.801 265.122 412.5 265.526C413.199 265.93 414.094 265.65 414.439 264.919L415.551 262.56C416.313 262.844 417.138 263 418 263C418.862 263 419.687 262.844 420.449 262.56L421.106 262.18L424.064 266.403L425.702 265.256L422.793 261.102L421.627 259.436L416.012 251.418L411.936 245.597ZM413.669 253.5C413.866 253.159 414.102 252.844 414.371 252.561L419.991 260.588C419.381 260.853 418.708 261 418 261C417.124 261 416.301 260.775 415.585 260.379C414.795 259.923 414.128 259.294 413.669 258.5C413.243 257.765 413 256.911 413 256C413 255.089 413.243 254.235 413.669 253.5Z" fill="#535353" id="n16"/>
<path d="M416.829 249.097L418.163 251.003C419.019 251.032 419.835 251.286 420.577 251.714C421.302 252.151 421.907 252.767 422.331 253.5C422.757 254.235 423 255.089 423 256C423 256.544 422.913 257.067 422.753 257.557L424.086 259.461C424.485 258.76 424.767 257.984 424.905 257.159L427.505 257.375C428.31 257.442 429 256.807 429 256C429 255.192 428.31 254.557 427.505 254.625L424.905 254.841C424.622 253.143 423.727 251.651 422.455 250.601L423.944 248.456C424.404 247.793 424.199 246.877 423.5 246.474C422.801 246.07 421.906 246.35 421.561 247.081L420.449 249.44C419.687 249.156 418.862 249 418 249C417.601 249 417.21 249.033 416.829 249.097Z" fill="#535353" id="n17"/>
<mask id="path-15-inside-1_1702_11540" fill="white">
<path d="M1839 249.6C1839 246.24 1839 244.56 1839.65 243.276C1840.23 242.147 1841.15 241.229 1842.28 240.654C1843.56 240 1845.24 240 1848.6 240H1895V272H1848.6C1845.24 272 1843.56 272 1842.28 271.346C1841.15 270.771 1840.23 269.853 1839.65 268.724C1839 267.44 1839 265.76 1839 262.4V249.6Z" id="n18"/>
</mask>
<path d="M1839 249.6C1839 246.24 1839 244.56 1839.65 243.276C1840.23 242.147 1841.15 241.229 1842.28 240.654C1843.56 240 1845.24 240 1848.6 240H1895V272H1848.6C1845.24 272 1843.56 272 1842.28 271.346C1841.15 270.771 1840.23 269.853 1839.65 268.724C1839 267.44 1839 265.76 1839 262.4V249.6Z" fill="white" id="n19"/>
<path d="M1895 240H1896V239H1895V240ZM1895 272V273H1896V272H1895ZM1842.28 271.346L1842.73 270.455L1842.28 271.346ZM1848.6 240V241H1895V240V239H1848.6V240ZM1895 240H1894V272H1895H1896V240H1895ZM1895 272V271H1848.6V272V273H1895V272ZM1839 262.4H1840V249.6H1839H1838V262.4H1839ZM1848.6 272V271C1846.9 271 1845.69 270.999 1844.74 270.922C1843.8 270.845 1843.21 270.698 1842.73 270.455L1842.28 271.346L1841.82 272.237C1842.63 272.648 1843.52 272.828 1844.58 272.915C1845.63 273.001 1846.94 273 1848.6 273V272ZM1839 262.4H1838C1838 264.064 1838 265.372 1838.09 266.422C1838.17 267.485 1838.35 268.372 1838.76 269.178L1839.65 268.724L1840.54 268.27C1840.3 267.793 1840.16 267.198 1840.08 266.259C1840 265.309 1840 264.097 1840 262.4H1839ZM1842.28 271.346L1842.73 270.455C1841.79 269.976 1841.02 269.211 1840.54 268.27L1839.65 268.724L1838.76 269.178C1839.43 270.495 1840.5 271.566 1841.82 272.237L1842.28 271.346ZM1848.6 240V239C1846.94 239 1845.63 238.999 1844.58 239.085C1843.52 239.172 1842.63 239.352 1841.82 239.763L1842.28 240.654L1842.73 241.545C1843.21 241.302 1843.8 241.155 1844.74 241.078C1845.69 241.001 1846.9 241 1848.6 241V240ZM1839 249.6H1840C1840 247.903 1840 246.691 1840.08 245.741C1840.16 244.802 1840.3 244.207 1840.54 243.73L1839.65 243.276L1838.76 242.822C1838.35 243.628 1838.17 244.515 1838.09 245.578C1838 246.628 1838 247.936 1838 249.6H1839ZM1842.28 240.654L1841.82 239.763C1840.5 240.434 1839.43 241.505 1838.76 242.822L1839.65 243.276L1840.54 243.73C1841.02 242.789 1841.79 242.024 1842.73 241.545L1842.28 240.654Z" fill="#BEBEBE" mask="url(#path-15-inside-1_1702_11540)" id="n20"/>
<path d="M1859 263V261H1861V254C1861 252.617 1861.42 251.387 1862.25 250.312C1863.08 249.237 1864.17 248.533 1865.5 248.2V247.5C1865.5 247.083 1865.65 246.729 1865.94 246.438C1866.23 246.146 1866.58 246 1867 246C1867.42 246 1867.77 246.146 1868.06 246.438C1868.35 246.729 1868.5 247.083 1868.5 247.5V248.2C1869.83 248.533 1870.92 249.237 1871.75 250.312C1872.58 251.387 1873 252.617 1873 254V261H1875V263H1859ZM1867 266C1866.45 266 1865.98 265.804 1865.59 265.413C1865.2 265.021 1865 264.55 1865 264H1869C1869 264.55 1868.8 265.021 1868.41 265.413C1868.02 265.804 1867.55 266 1867 266ZM1863 261H1871V254C1871 252.9 1870.61 251.958 1869.82 251.175C1869.04 250.392 1868.1 250 1867 250C1865.9 250 1864.96 250.392 1864.18 251.175C1863.39 251.958 1863 252.9 1863 254V261Z" fill="#535353" id="n21"/>
<mask id="path-19-inside-2_1702_11540" fill="white">
<path d="M1895 240H1941.4C1944.76 240 1946.44 240 1947.72 240.654C1948.85 241.229 1949.77 242.147 1950.35 243.276C1951 244.56 1951 246.24 1951 249.6V262.4C1951 265.76 1951 267.44 1950.35 268.724C1949.77 269.853 1948.85 270.771 1947.72 271.346C1946.44 272 1944.76 272 1941.4 272H1895V240Z" id="n22"/>
</mask>
<path d="M1895 240H1941.4C1944.76 240 1946.44 240 1947.72 240.654C1948.85 241.229 1949.77 242.147 1950.35 243.276C1951 244.56 1951 246.24 1951 249.6V262.4C1951 265.76 1951 267.44 1950.35 268.724C1949.77 269.853 1948.85 270.771 1947.72 271.346C1946.44 272 1944.76 272 1941.4 272H1895V240Z" fill="white" id="n23"/>
<path d="M1895 239H1945C1948.87 239 1952 242.134 1952 246H1950C1950 243.239 1947.76 241 1945 241H1895V239ZM1952 266C1952 269.866 1948.87 273 1945 273H1895V271H1945C1947.76 271 1950 268.761 1950 266H1952ZM1895 272V240V272ZM1945 239C1948.87 239 1952 242.134 1952 246V266C1952 269.866 1948.87 273 1945 273V271C1947.76 271 1950 268.761 1950 266V246C1950 243.239 1947.76 241 1945 241V239Z" fill="#BEBEBE" mask="url(#path-19-inside-2_1702_11540)" id="n24"/>
<path fill-rule="evenodd" clip-rule="evenodd" d="M1915.51 246.101L1914.1 247.515L1918.59 252H1915.6C1915.04 252 1914.76 252 1914.55 252.109C1914.36 252.205 1914.2 252.358 1914.11 252.546C1914 252.76 1914 253.04 1914 253.6V258.4C1914 258.96 1914 259.24 1914.11 259.454C1914.2 259.642 1914.36 259.795 1914.55 259.891C1914.76 260 1915.04 260 1915.6 260H1922L1927.63 265.634C1928.06 266.063 1928.28 266.277 1928.46 266.291C1928.62 266.304 1928.78 266.239 1928.88 266.118C1929 265.977 1929 265.674 1929 265.069V262.414L1931.49 264.9L1932.9 263.485L1915.51 246.101ZM1916 254H1920.59L1927 260.414V262.172L1922.83 258H1916V254Z" fill="#535353" id="n25"/>
<path d="M1923.12 250.879L1924.54 252.293L1927 249.828V254.757L1929 256.757V246.931C1929 246.326 1929 246.023 1928.88 245.882C1928.78 245.761 1928.62 245.696 1928.46 245.709C1928.28 245.723 1928.06 245.937 1927.63 246.366L1923.12 250.879Z" fill="#535353" id="n26"/>
<path fill-rule="evenodd" clip-rule="evenodd" d="M1978 256C1978 254.674 1978.53 253.402 1979.46 252.464C1980.4 251.527 1981.67 251 1983 251C1984.33 251 1985.6 251.527 1986.54 252.464L1987.24 253.172L1980.17 260.243L1979.46 259.535C1978.53 258.598 1978 257.326 1978 256ZM1980.88 253.879C1980.32 254.441 1980 255.204 1980 256C1980 256.452 1980.1 256.893 1980.29 257.293L1984.29 253.293C1983.89 253.102 1983.45 253 1983 253C1982.2 253 1981.44 253.316 1980.88 253.879Z" fill="#535353" id="n27"/>
<path d="M1974.51 263.071L1977.34 260.243L1978.76 261.657L1975.93 264.485L1974.51 263.071Z" fill="#535353" id="n28"/>
<path d="M1972 255H1976V257H1972V255Z" fill="#535353" id="n29"/>
<path d="M1975.93 247.515L1978.76 250.343L1977.34 251.757L1974.51 248.929L1975.93 247.515Z" fill="#535353" id="n30"/>
<path d="M1984 245V249H1982V245H1984Z" fill="#535353" id="n31"/>
<path d="M1991.49 248.929L1988.66 251.757L1987.24 250.343L1990.07 247.515L1991.49 248.929Z" fill="#535353" id="n32"/>
<path d="M1991.15 255C1991.8 255 1992.42 255.088 1993 255.253C1990.5 255.952 1988.69 258.036 1988.69 260.5C1988.69 262.964 1990.5 265.049 1993 265.747C1992.42 265.912 1991.8 266 1991.15 266C1987.76 266 1985 263.536 1985 260.5C1985 257.464 1987.76 255 1991.15 255Z" fill="#535353" id="n33"/>
<path d="M2024.85 261.1C2025.7 260.45 2026.65 259.938 2027.7 259.562C2028.75 259.188 2029.85 259 2031 259C2032.15 259 2033.25 259.188 2034.3 259.562C2035.35 259.938 2036.3 260.45 2037.15 261.1C2037.73 260.417 2038.19 259.642 2038.51 258.775C2038.84 257.908 2039 256.983 2039 256C2039 253.783 2038.22 251.896 2036.66 250.338C2035.1 248.779 2033.22 248 2031 248C2028.78 248 2026.9 248.779 2025.34 250.338C2023.78 251.896 2023 253.783 2023 256C2023 256.983 2023.16 257.908 2023.49 258.775C2023.81 259.642 2024.27 260.417 2024.85 261.1ZM2031 257C2030.02 257 2029.19 256.663 2028.51 255.988C2027.84 255.312 2027.5 254.483 2027.5 253.5C2027.5 252.517 2027.84 251.688 2028.51 251.013C2029.19 250.338 2030.02 250 2031 250C2031.98 250 2032.81 250.338 2033.49 251.013C2034.16 251.688 2034.5 252.517 2034.5 253.5C2034.5 254.483 2034.16 255.312 2033.49 255.988C2032.81 256.663 2031.98 257 2031 257ZM2031 266C2029.62 266 2028.32 265.737 2027.1 265.212C2025.88 264.688 2024.83 263.975 2023.92 263.075C2023.02 262.175 2022.31 261.117 2021.79 259.9C2021.26 258.683 2021 257.383 2021 256C2021 254.617 2021.26 253.317 2021.79 252.1C2022.31 250.883 2023.02 249.825 2023.92 248.925C2024.83 248.025 2025.88 247.312 2027.1 246.788C2028.32 246.262 2029.62 246 2031 246C2032.38 246 2033.68 246.262 2034.9 246.788C2036.12 247.312 2037.18 248.025 2038.08 248.925C2038.98 249.825 2039.69 250.883 2040.21 252.1C2040.74 253.317 2041 254.617 2041 256C2041 257.383 2040.74 258.683 2040.21 259.9C2039.69 261.117 2038.98 262.175 2038.08 263.075C2037.18 263.975 2036.12 264.688 2034.9 265.212C2033.68 265.737 2032.38 266 2031 266Z" fill="#535353" id="n34"/>
<path d="M2073.5 262H2071.58V254.736C2071.58 254.491 2071.58 254.251 2071.58 254.016C2071.59 253.771 2071.61 253.531 2071.62 253.296C2071.63 253.051 2071.64 252.821 2071.65 252.608C2071.54 252.725 2071.41 252.859 2071.25 253.008C2071.09 253.147 2070.92 253.291 2070.75 253.44L2069.47 254.464L2068.51 253.248L2071.92 250.576H2073.5V262ZM2085.36 259.52H2083.84V262H2081.96V259.52H2076.8V258.08L2081.99 250.544H2083.84V257.936H2085.36V259.52ZM2081.96 255.216C2081.96 254.992 2081.96 254.763 2081.96 254.528C2081.97 254.283 2081.98 254.048 2081.99 253.824C2082 253.589 2082.01 253.376 2082.02 253.184C2082.03 252.992 2082.04 252.837 2082.05 252.72H2081.99C2081.89 252.923 2081.79 253.136 2081.67 253.36C2081.56 253.573 2081.44 253.776 2081.3 253.968L2078.58 257.936H2081.96V255.216Z" fill="#1F1F1F" id="n35"/>
<circle cx="2089" cy="253" r="1" fill="#1F1F1F" stroke="#1F1F1F" id="n36"/>
<circle cx="2089" cy="259" r="1" fill="#1F1F1F" stroke="#1F1F1F" id="n37"/>
<path d="M2100.38 253.184C2100.38 253.707 2100.27 254.16 2100.07 254.544C2099.87 254.917 2099.59 255.227 2099.22 255.472C2098.86 255.707 2098.44 255.877 2097.96 255.984V256.032C2098.88 256.139 2099.57 256.421 2100.02 256.88C2100.49 257.339 2100.73 257.947 2100.73 258.704C2100.73 259.365 2100.57 259.957 2100.25 260.48C2099.93 261.003 2099.44 261.413 2098.78 261.712C2098.11 262.011 2097.27 262.16 2096.23 262.16C2095.61 262.16 2095.04 262.107 2094.5 262C2093.98 261.904 2093.48 261.749 2093 261.536V259.84C2093.49 260.075 2094.01 260.261 2094.55 260.4C2095.1 260.528 2095.61 260.592 2096.1 260.592C2097.04 260.592 2097.71 260.421 2098.1 260.08C2098.5 259.728 2098.7 259.243 2098.7 258.624C2098.7 258.229 2098.59 257.904 2098.39 257.648C2098.19 257.392 2097.87 257.205 2097.43 257.088C2096.99 256.96 2096.43 256.896 2095.74 256.896H2094.76V255.344H2095.75C2096.42 255.344 2096.95 255.269 2097.34 255.12C2097.73 254.96 2098.01 254.741 2098.18 254.464C2098.37 254.187 2098.46 253.867 2098.46 253.504C2098.46 253.035 2098.3 252.667 2097.99 252.4C2097.68 252.133 2097.22 252 2096.62 252C2096.23 252 2095.88 252.043 2095.56 252.128C2095.25 252.213 2094.96 252.325 2094.7 252.464C2094.44 252.603 2094.19 252.747 2093.96 252.896L2093.05 251.568C2093.34 251.355 2093.66 251.163 2094.02 250.992C2094.39 250.811 2094.79 250.672 2095.22 250.576C2095.67 250.469 2096.16 250.416 2096.7 250.416C2097.88 250.416 2098.79 250.667 2099.42 251.168C2100.06 251.669 2100.38 252.341 2100.38 253.184ZM2109.96 256.272C2109.96 257.2 2109.89 258.027 2109.76 258.752C2109.62 259.477 2109.39 260.096 2109.08 260.608C2108.77 261.109 2108.37 261.493 2107.87 261.76C2107.38 262.027 2106.77 262.16 2106.06 262.16C2105.17 262.16 2104.44 261.925 2103.87 261.456C2103.29 260.987 2102.87 260.315 2102.59 259.44C2102.31 258.555 2102.17 257.499 2102.17 256.272C2102.17 255.045 2102.3 253.995 2102.56 253.12C2102.81 252.245 2103.22 251.573 2103.79 251.104C2104.36 250.635 2105.12 250.4 2106.06 250.4C2106.95 250.4 2107.68 250.635 2108.25 251.104C2108.83 251.563 2109.25 252.235 2109.53 253.12C2109.82 253.995 2109.96 255.045 2109.96 256.272ZM2104.11 256.288C2104.11 257.237 2104.17 258.032 2104.28 258.672C2104.41 259.301 2104.61 259.776 2104.89 260.096C2105.18 260.405 2105.57 260.56 2106.06 260.56C2106.55 260.56 2106.93 260.405 2107.21 260.096C2107.5 259.787 2107.71 259.312 2107.84 258.672C2107.96 258.032 2108.03 257.232 2108.03 256.272C2108.03 255.323 2107.96 254.533 2107.84 253.904C2107.71 253.264 2107.5 252.789 2107.21 252.48C2106.93 252.16 2106.55 252 2106.06 252C2105.57 252 2105.18 252.16 2104.89 252.48C2104.61 252.789 2104.41 253.264 2104.28 253.904C2104.17 254.533 2104.11 255.328 2104.11 256.288Z" fill="#1F1F1F" id="n38"/>
<circle cx="2114" cy="253" r="1" fill="#1F1F1F" stroke="#1F1F1F" id="n39"/>
<circle cx="2114" cy="259" r="1" fill="#1F1F1F" stroke="#1F1F1F" id="n40"/>
<path d="M2123.5 262H2121.58V254.736C2121.58 254.491 2121.58 254.251 2121.58 254.016C2121.59 253.771 2121.61 253.531 2121.62 253.296C2121.63 253.051 2121.64 252.821 2121.65 252.608C2121.54 252.725 2121.41 252.859 2121.25 253.008C2121.09 253.147 2120.92 253.291 2120.75 253.44L2119.47 254.464L2118.51 253.248L2121.92 250.576H2123.5V262ZM2134.98 262H2127.2V260.56L2130.13 257.6C2130.71 257.013 2131.18 256.512 2131.54 256.096C2131.91 255.669 2132.19 255.269 2132.37 254.896C2132.55 254.523 2132.64 254.112 2132.64 253.664C2132.64 253.131 2132.49 252.731 2132.18 252.464C2131.87 252.187 2131.47 252.048 2130.96 252.048C2130.46 252.048 2130 252.149 2129.59 252.352C2129.17 252.544 2128.74 252.816 2128.29 253.168L2127.25 251.904C2127.56 251.637 2127.9 251.392 2128.26 251.168C2128.62 250.944 2129.03 250.763 2129.48 250.624C2129.93 250.485 2130.46 250.416 2131.04 250.416C2131.78 250.416 2132.41 250.549 2132.93 250.816C2133.47 251.072 2133.88 251.429 2134.16 251.888C2134.45 252.347 2134.6 252.88 2134.6 253.488C2134.6 253.947 2134.52 254.379 2134.37 254.784C2134.23 255.189 2134.03 255.584 2133.76 255.968C2133.51 256.341 2133.19 256.731 2132.8 257.136C2132.42 257.531 2131.99 257.952 2131.52 258.4L2129.62 260.24V260.32H2134.98V262Z" fill="#1F1F1F" id="n41"/>
</g>
</g>
</svg>
