<?xml version='1.0' encoding='utf-8'?>
<svg xmlns="http://www.w3.org/2000/svg" xmlns:xlink="http://www.w3.org/1999/xlink" width="1920.0" height="48.0" viewBox="0 0 1920.0 48.0" fill="none">
  <defs><clipPath id="clip__asset"><rect x="0" y="0" width="1920.0" height="48.0"/></clipPath><mask id="path-75-inside-5_1702_11540" fill="white">
<path d="M1839 457.6C1839 454.24 1839 452.56 1839.65 451.276C1840.23 450.147 1841.15 449.229 1842.28 448.654C1843.56 448 1845.24 448 1848.6 448H1895V480H1848.6C1845.24 480 1843.56 480 1842.28 479.346C1841.15 478.771 1840.23 477.853 1839.65 476.724C1839 475.44 1839 473.76 1839 470.4V457.6Z" id="n88"/>
</mask>
<mask id="path-79-inside-6_1702_11540" fill="white">
<path d="M1895 448H1941.4C1944.76 448 1946.44 448 1947.72 448.654C1948.85 449.229 1949.77 450.147 1950.35 451.276C1951 452.56 1951 454.24 1951 457.6V470.4C1951 473.76 1951 475.44 1950.35 476.724C1949.77 477.853 1948.85 478.771 1947.72 479.346C1946.44 480 1944.76 480 1941.4 480H1895V448Z" id="n92"/>
</mask>
<filter id="filter2_d_1702_11540" x="230" y="439" width="1924" height="52" filterUnits="userSpaceOnUse" color-interpolation-filters="sRGB">
<feFlood flood-opacity="0" result="BackgroundImageFix" id="n1592"/>
<feColorMatrix in="SourceAlpha" type="matrix" values="0 0 0 0 0 0 0 0 0 0 0 0 0 0 0 0 0 0 127 0" result="hardAlpha" id="n1593"/>
<feOffset dy="1" id="n1594"/>
<feGaussianBlur stdDeviation="1" id="n1595"/>
<feColorMatrix type="matrix" values="0 0 0 0 0 0 0 0 0 0 0 0 0 0 0 0 0 0 0.23 0" id="n1596"/>
<feBlend mode="normal" in2="BackgroundImageFix" result="effect1_dropShadow_1702_11540" id="n1597"/>
<feBlend mode="normal" in="SourceGraphic" in2="effect1_dropShadow_1702_11540" result="shape" id="n1598"/>
</filter>
</defs>
  <g clip-path="url(#clip__asset)" transform="translate(-232.0 -440.0)"><g filter="url(#filter2_d_1702_11540)" id="n77">
<rect width="1920" height="48" transform="translate(232 440)" fill="#FCFCFC" id="n78"/>
<path d="M255 465H273V463H255V465Z" fill="#535353" id="n79"/>
<path d="M255 470H273V468H255V470Z" fill="#535353" id="n80"/>
<path d="M255 458V460H273V458H255Z" fill="#535353" id="n81"/>
<path fill-rule="evenodd" clip-rule="evenodd" d="M297.001 454V457H294.001C292.902 457 292.002 457.9 292.002 459V463.62L290.712 464.04C290.452 464.12 290.232 464.3 290.112 464.54C289.992 464.78 289.962 465.06 290.052 465.32L291.668 470H291.999C293.388 470 294.777 469.53 295.996 468.68C297.215 469.53 298.611 469.96 300 469.96C301.389 469.96 302.785 469.53 304.004 468.68C305.223 469.53 306.612 470 308.001 470H308.333L309.948 465.32C310.038 465.06 310.008 464.78 309.888 464.54C309.768 464.3 309.548 464.12 309.288 464.04L307.998 463.62V459C307.998 457.9 307.098 457 305.999 457H302.999V454L297.001 454ZM299 456V457L301 457V456L299 456ZM294.002 459V462.97L300 461.001L305.999 462.97V459L294.002 459ZM300 463.111L294.621 464.86L292.222 465.65L292.998 468C294.497 468 295.292 467.171 295.996 466.68C297.215 467.53 298.611 467.96 300 467.96C301.389 467.96 302.785 467.53 304.004 466.68C304.708 467.17 305.503 468 307.002 468L307.778 465.65L305.379 464.86L300 463.111Z" fill="#535353" id="n82"/>
<path fill-rule="evenodd" clip-rule="evenodd" d="M299.993 471.96C301.382 471.96 302.771 471.53 303.99 470.68C305.209 471.53 306.598 472 307.987 472H308.986V474H307.987C306.608 474 305.249 473.66 303.99 473.01C302.731 473.66 301.362 473.98 299.993 473.98C298.624 473.98 297.255 473.65 295.996 473.01C294.737 473.65 293.378 474 291.999 474H290.999V472H291.999C293.388 472 294.777 471.53 295.996 470.68C297.215 471.53 298.604 471.96 299.993 471.96Z" fill="#535353" id="n83"/>
<path d="M328.931 470L327.507 466.336H322.915L321.507 470H320.195L324.659 458.528H325.827L330.259 470H328.931ZM325.763 461.536C325.731 461.451 325.678 461.301 325.603 461.088C325.529 460.875 325.459 460.656 325.395 460.432C325.331 460.197 325.273 460.011 325.219 459.872C325.166 460.085 325.107 460.299 325.043 460.512C324.99 460.715 324.931 460.907 324.867 461.088C324.814 461.259 324.766 461.413 324.723 461.552L323.347 465.2H327.107L325.763 461.536ZM335.649 461.28C336.716 461.28 337.564 461.648 338.193 462.384C338.833 463.12 339.153 464.224 339.153 465.696C339.153 466.667 339.004 467.488 338.705 468.16C338.417 468.821 338.007 469.323 337.473 469.664C336.951 469.995 336.332 470.16 335.617 470.16C335.159 470.16 334.753 470.096 334.401 469.968C334.049 469.84 333.751 469.675 333.505 469.472C333.271 469.269 333.073 469.045 332.913 468.8H332.817C332.839 469.003 332.86 469.248 332.881 469.536C332.903 469.824 332.913 470.08 332.913 470.304V473.824H331.649V461.44H332.673L332.849 462.736H332.913C333.073 462.469 333.276 462.229 333.521 462.016C333.767 461.792 334.06 461.616 334.401 461.488C334.753 461.349 335.169 461.28 335.649 461.28ZM335.425 462.352C334.839 462.352 334.359 462.469 333.985 462.704C333.623 462.939 333.351 463.285 333.169 463.744C332.999 464.203 332.913 464.779 332.913 465.472V465.712C332.913 466.448 332.993 467.067 333.153 467.568C333.313 468.069 333.58 468.453 333.953 468.72C334.327 468.976 334.823 469.104 335.441 469.104C335.975 469.104 336.417 468.96 336.769 468.672C337.132 468.384 337.404 467.984 337.585 467.472C337.767 466.96 337.857 466.363 337.857 465.68C337.857 464.645 337.655 463.835 337.249 463.248C336.855 462.651 336.247 462.352 335.425 462.352ZM345.415 461.28C346.482 461.28 347.33 461.648 347.959 462.384C348.599 463.12 348.919 464.224 348.919 465.696C348.919 466.667 348.77 467.488 348.471 468.16C348.183 468.821 347.772 469.323 347.239 469.664C346.716 469.995 346.098 470.16 345.383 470.16C344.924 470.16 344.519 470.096 344.167 469.968C343.815 469.84 343.516 469.675 343.271 469.472C343.036 469.269 342.839 469.045 342.679 468.8H342.583C342.604 469.003 342.626 469.248 342.647 469.536C342.668 469.824 342.679 470.08 342.679 470.304V473.824H341.415V461.44H342.439L342.615 462.736H342.679C342.839 462.469 343.042 462.229 343.287 462.016C343.532 461.792 343.826 461.616 344.167 461.488C344.519 461.349 344.935 461.28 345.415 461.28ZM345.191 462.352C344.604 462.352 344.124 462.469 343.751 462.704C343.388 462.939 343.116 463.285 342.935 463.744C342.764 464.203 342.679 464.779 342.679 465.472V465.712C342.679 466.448 342.759 467.067 342.919 467.568C343.079 468.069 343.346 468.453 343.719 468.72C344.092 468.976 344.588 469.104 345.207 469.104C345.74 469.104 346.183 468.96 346.535 468.672C346.898 468.384 347.17 467.984 347.351 467.472C347.532 466.96 347.623 466.363 347.623 465.68C347.623 464.645 347.42 463.835 347.015 463.248C346.62 462.651 346.012 462.352 345.191 462.352Z" fill="#1F1F1F" id="n84"/>
<path d="M363.024 458.576C364.507 458.576 365.584 458.891 366.256 459.52C366.939 460.149 367.28 461.019 367.28 462.128C367.28 462.619 367.205 463.093 367.056 463.552C366.907 464 366.656 464.4 366.304 464.752C365.952 465.104 365.493 465.381 364.928 465.584C364.363 465.787 363.664 465.888 362.832 465.888H361.76V470H359.456V458.576H363.024ZM362.896 460.48H361.76V464H362.592C363.083 464 363.499 463.941 363.84 463.824C364.192 463.696 364.464 463.499 364.656 463.232C364.848 462.965 364.944 462.619 364.944 462.192C364.944 461.616 364.779 461.189 364.448 460.912C364.117 460.624 363.6 460.48 362.896 460.48ZM372.8 461.104C373.963 461.104 374.848 461.355 375.456 461.856C376.064 462.357 376.368 463.131 376.368 464.176V470H374.784L374.336 468.816H374.272C374.027 469.125 373.771 469.381 373.504 469.584C373.248 469.787 372.949 469.931 372.608 470.016C372.277 470.112 371.867 470.16 371.376 470.16C370.864 470.16 370.4 470.064 369.984 469.872C369.579 469.669 369.259 469.365 369.024 468.96C368.789 468.555 368.672 468.043 368.672 467.424C368.672 466.496 368.997 465.813 369.648 465.376C370.309 464.928 371.296 464.683 372.608 464.64L374.112 464.592V464.192C374.112 463.701 373.989 463.349 373.744 463.136C373.499 462.912 373.157 462.8 372.72 462.8C372.283 462.8 371.861 462.864 371.456 462.992C371.051 463.109 370.651 463.259 370.256 463.44L369.504 461.888C369.963 461.643 370.475 461.451 371.04 461.312C371.605 461.173 372.192 461.104 372.8 461.104ZM373.152 465.968C372.352 465.989 371.792 466.133 371.472 466.4C371.163 466.656 371.008 467.003 371.008 467.44C371.008 467.813 371.12 468.08 371.344 468.24C371.568 468.4 371.856 468.48 372.208 468.48C372.752 468.48 373.205 468.325 373.568 468.016C373.931 467.696 374.112 467.243 374.112 466.656V465.936L373.152 465.968ZM381.69 461.12C382.234 461.12 382.719 461.227 383.146 461.44C383.573 461.653 383.935 461.973 384.234 462.4H384.314L384.506 461.28H386.41V470.032C386.41 470.864 386.25 471.557 385.93 472.112C385.61 472.677 385.13 473.104 384.49 473.392C383.85 473.691 383.055 473.84 382.106 473.84C381.487 473.84 380.911 473.803 380.378 473.728C379.855 473.653 379.349 473.52 378.858 473.328V471.488C379.21 471.637 379.567 471.76 379.93 471.856C380.293 471.963 380.666 472.037 381.05 472.08C381.445 472.133 381.839 472.16 382.234 472.16C382.874 472.16 383.349 471.989 383.658 471.648C383.978 471.307 384.138 470.8 384.138 470.128V469.936C384.138 469.755 384.143 469.568 384.154 469.376C384.175 469.173 384.191 469.003 384.202 468.864H384.138C383.839 469.323 383.482 469.653 383.066 469.856C382.65 470.059 382.175 470.16 381.642 470.16C380.597 470.16 379.781 469.765 379.194 468.976C378.607 468.176 378.314 467.072 378.314 465.664C378.314 464.704 378.447 463.888 378.714 463.216C378.981 462.533 379.37 462.016 379.882 461.664C380.394 461.301 380.997 461.12 381.69 461.12ZM382.378 462.976C381.994 462.976 381.669 463.077 381.402 463.28C381.146 463.483 380.954 463.787 380.826 464.192C380.698 464.587 380.634 465.083 380.634 465.68C380.634 466.576 380.778 467.248 381.066 467.696C381.365 468.144 381.813 468.368 382.41 468.368C382.741 468.368 383.018 468.325 383.242 468.24C383.477 468.155 383.669 468.016 383.818 467.824C383.978 467.632 384.095 467.387 384.17 467.088C384.245 466.779 384.282 466.405 384.282 465.968V465.664C384.282 465.024 384.213 464.507 384.074 464.112C383.946 463.717 383.743 463.429 383.466 463.248C383.189 463.067 382.826 462.976 382.378 462.976ZM392.504 461.12C393.304 461.12 393.992 461.275 394.568 461.584C395.144 461.893 395.587 462.341 395.896 462.928C396.216 463.515 396.376 464.229 396.376 465.072V466.192H390.712C390.733 466.896 390.936 467.451 391.32 467.856C391.715 468.251 392.259 468.448 392.952 468.448C393.517 468.448 394.024 468.395 394.472 468.288C394.931 468.171 395.405 468 395.896 467.776V469.536C395.469 469.749 395.021 469.904 394.552 470C394.083 470.107 393.517 470.16 392.856 470.16C391.981 470.16 391.208 470 390.536 469.68C389.875 469.349 389.352 468.853 388.968 468.192C388.595 467.531 388.408 466.704 388.408 465.712C388.408 464.688 388.579 463.84 388.92 463.168C389.261 462.496 389.736 461.989 390.344 461.648C390.963 461.296 391.683 461.12 392.504 461.12ZM392.52 462.752C392.029 462.752 391.624 462.912 391.304 463.232C390.995 463.541 390.813 464.021 390.76 464.672H394.216C394.216 464.299 394.152 463.968 394.024 463.68C393.907 463.392 393.72 463.168 393.464 463.008C393.219 462.837 392.904 462.752 392.52 462.752Z" fill="#1F1F1F" id="n85"/>
<path fill-rule="evenodd" clip-rule="evenodd" d="M415.936 453.597L414.298 454.744L417.207 458.898C416.115 459.925 415.353 461.297 415.095 462.841L412.495 462.625C411.69 462.557 411 463.192 411 464C411 464.807 411.69 465.442 412.495 465.375L415.095 465.159C415.378 466.857 416.273 468.349 417.545 469.399L416.056 471.544C415.596 472.207 415.801 473.122 416.5 473.526C417.199 473.93 418.094 473.65 418.439 472.919L419.551 470.56C420.313 470.844 421.138 471 422 471C422.862 471 423.687 470.844 424.449 470.56L425.106 470.18L428.064 474.403L429.702 473.256L426.793 469.102L425.627 467.436L420.012 459.418L415.936 453.597ZM417.669 461.5C417.866 461.159 418.102 460.844 418.371 460.561L423.991 468.588C423.381 468.853 422.708 469 422 469C421.124 469 420.301 468.775 419.585 468.379C418.795 467.923 418.128 467.294 417.669 466.5C417.243 465.765 417 464.911 417 464C417 463.089 417.243 462.235 417.669 461.5Z" fill="#535353" id="n86"/>
<path d="M420.829 457.097L422.163 459.003C423.019 459.032 423.835 459.286 424.577 459.714C425.302 460.151 425.907 460.767 426.331 461.5C426.757 462.235 427 463.089 427 464C427 464.544 426.913 465.067 426.753 465.557L428.086 467.461C428.485 466.76 428.767 465.984 428.905 465.159L431.505 465.375C432.31 465.442 433 464.807 433 464C433 463.192 432.31 462.557 431.505 462.625L428.905 462.841C428.622 461.143 427.727 459.651 426.455 458.601L427.944 456.456C428.404 455.793 428.199 454.877 427.5 454.474C426.801 454.07 425.906 454.35 425.561 455.081L424.449 457.44C423.687 457.156 422.862 457 422 457C421.601 457 421.21 457.033 420.829 457.097Z" fill="#535353" id="n87"/>
<mask id="path-75-inside-5_1702_11540" fill="white">
<path d="M1839 457.6C1839 454.24 1839 452.56 1839.65 451.276C1840.23 450.147 1841.15 449.229 1842.28 448.654C1843.56 448 1845.24 448 1848.6 448H1895V480H1848.6C1845.24 480 1843.56 480 1842.28 479.346C1841.15 478.771 1840.23 477.853 1839.65 476.724C1839 475.44 1839 473.76 1839 470.4V457.6Z" id="n88"/>
</mask>
<path d="M1839 457.6C1839 454.24 1839 452.56 1839.65 451.276C1840.23 450.147 1841.15 449.229 1842.28 448.654C1843.56 448 1845.24 448 1848.6 448H1895V480H1848.6C1845.24 480 1843.56 480 1842.28 479.346C1841.15 478.771 1840.23 477.853 1839.65 476.724C1839 475.44 1839 473.76 1839 470.4V457.6Z" fill="white" id="n89"/>
<path d="M1895 448H1896V447H1895V448ZM1895 480V481H1896V480H1895ZM1842.28 479.346L1842.73 478.455L1842.28 479.346ZM1848.6 448V449H1895V448V447H1848.6V448ZM1895 448H1894V480H1895H1896V448H1895ZM1895 480V479H1848.6V480V481H1895V480ZM1839 470.4H1840V457.6H1839H1838V470.4H1839ZM1848.6 480V479C1846.9 479 1845.69 478.999 1844.74 478.922C1843.8 478.845 1843.21 478.698 1842.73 478.455L1842.28 479.346L1841.82 480.237C1842.63 480.648 1843.52 480.828 1844.58 480.915C1845.63 481.001 1846.94 481 1848.6 481V480ZM1839 470.4H1838C1838 472.064 1838 473.372 1838.09 474.422C1838.17 475.485 1838.35 476.372 1838.76 477.178L1839.65 476.724L1840.54 476.27C1840.3 475.793 1840.16 475.198 1840.08 474.259C1840 473.309 1840 472.097 1840 470.4H1839ZM1842.28 479.346L1842.73 478.455C1841.79 477.976 1841.02 477.211 1840.54 476.27L1839.65 476.724L1838.76 477.178C1839.43 478.495 1840.5 479.566 1841.82 480.237L1842.28 479.346ZM1848.6 448V447C1846.94 447 1845.63 446.999 1844.58 447.085C1843.52 447.172 1842.63 447.352 1841.82 447.763L1842.28 448.654L1842.73 449.545C1843.21 449.302 1843.8 449.155 1844.74 449.078C1845.69 449.001 1846.9 449 1848.6 449V448ZM1839 457.6H1840C1840 455.903 1840 454.691 1840.08 453.741C1840.16 452.802 1840.3 452.207 1840.54 451.73L1839.65 451.276L1838.76 450.822C1838.35 451.628 1838.17 452.515 1838.09 453.578C1838 454.628 1838 455.936 1838 457.6H1839ZM1842.28 448.654L1841.82 447.763C1840.5 448.434 1839.43 449.505 1838.76 450.822L1839.65 451.276L1840.54 451.73C1841.02 450.789 1841.79 450.024 1842.73 449.545L1842.28 448.654Z" fill="#BEBEBE" mask="url(#path-75-inside-5_1702_11540)" id="n90"/>
<path d="M1859 471V469H1861V462C1861 460.617 1861.42 459.387 1862.25 458.312C1863.08 457.237 1864.17 456.533 1865.5 456.2V455.5C1865.5 455.083 1865.65 454.729 1865.94 454.438C1866.23 454.146 1866.58 454 1867 454C1867.42 454 1867.77 454.146 1868.06 454.438C1868.35 454.729 1868.5 455.083 1868.5 455.5V456.2C1869.83 456.533 1870.92 457.237 1871.75 458.312C1872.58 459.387 1873 460.617 1873 462V469H1875V471H1859ZM1867 474C1866.45 474 1865.98 473.804 1865.59 473.413C1865.2 473.021 1865 472.55 1865 472H1869C1869 472.55 1868.8 473.021 1868.41 473.413C1868.02 473.804 1867.55 474 1867 474ZM1863 469H1871V462C1871 460.9 1870.61 459.958 1869.82 459.175C1869.04 458.392 1868.1 458 1867 458C1865.9 458 1864.96 458.392 1864.18 459.175C1863.39 459.958 1863 460.9 1863 462V469Z" fill="#535353" id="n91"/>
<mask id="path-79-inside-6_1702_11540" fill="white">
<path d="M1895 448H1941.4C1944.76 448 1946.44 448 1947.72 448.654C1948.85 449.229 1949.77 450.147 1950.35 451.276C1951 452.56 1951 454.24 1951 457.6V470.4C1951 473.76 1951 475.44 1950.35 476.724C1949.77 477.853 1948.85 478.771 1947.72 479.346C1946.44 480 1944.76 480 1941.4 480H1895V448Z" id="n92"/>
</mask>
<path d="M1895 448H1941.4C1944.76 448 1946.44 448 1947.72 448.654C1948.85 449.229 1949.77 450.147 1950.35 451.276C1951 452.56 1951 454.24 1951 457.6V470.4C1951 473.76 1951 475.44 1950.35 476.724C1949.77 477.853 1948.85 478.771 1947.72 479.346C1946.44 480 1944.76 480 1941.4 480H1895V448Z" fill="white" id="n93"/>
<path d="M1895 447H1945C1948.87 447 1952 450.134 1952 454H1950C1950 451.239 1947.76 449 1945 449H1895V447ZM1952 474C1952 477.866 1948.87 481 1945 481H1895V479H1945C1947.76 479 1950 476.761 1950 474H1952ZM1895 480V448V480ZM1945 447C1948.87 447 1952 450.134 1952 454V474C1952 477.866 1948.87 481 1945 481V479C1947.76 479 1950 476.761 1950 474V454C1950 451.239 1947.76 449 1945 449V447Z" fill="#BEBEBE" mask="url(#path-79-inside-6_1702_11540)" id="n94"/>
<path fill-rule="evenodd" clip-rule="evenodd" d="M1915.51 454.101L1914.1 455.515L1918.59 460H1915.6C1915.04 460 1914.76 460 1914.55 460.109C1914.36 460.205 1914.2 460.358 1914.11 460.546C1914 460.76 1914 461.04 1914 461.6V466.4C1914 466.96 1914 467.24 1914.11 467.454C1914.2 467.642 1914.36 467.795 1914.55 467.891C1914.76 468 1915.04 468 1915.6 468H1922L1927.63 473.634C1928.06 474.063 1928.28 474.277 1928.46 474.291C1928.62 474.304 1928.78 474.239 1928.88 474.118C1929 473.977 1929 473.674 1929 473.069V470.414L1931.49 472.9L1932.9 471.485L1915.51 454.101ZM1916 462H1920.59L1927 468.414V470.172L1922.83 466H1916V462Z" fill="#535353" id="n95"/>
<path d="M1923.12 458.879L1924.54 460.293L1927 457.828V462.757L1929 464.757V454.931C1929 454.326 1929 454.023 1928.88 453.882C1928.78 453.761 1928.62 453.696 1928.46 453.709C1928.28 453.723 1928.06 453.937 1927.63 454.366L1923.12 458.879Z" fill="#535353" id="n96"/>
<path fill-rule="evenodd" clip-rule="evenodd" d="M1978 464C1978 462.674 1978.53 461.402 1979.46 460.464C1980.4 459.527 1981.67 459 1983 459C1984.33 459 1985.6 459.527 1986.54 460.464L1987.24 461.171L1980.17 468.243L1979.46 467.535C1978.53 466.598 1978 465.326 1978 464ZM1980.88 461.879C1980.32 462.441 1980 463.204 1980 464C1980 464.452 1980.1 464.893 1980.29 465.293L1984.29 461.293C1983.89 461.102 1983.45 461 1983 461C1982.2 461 1981.44 461.316 1980.88 461.879Z" fill="#535353" id="n97"/>
<path d="M1974.51 471.071L1977.34 468.243L1978.76 469.657L1975.93 472.485L1974.51 471.071Z" fill="#535353" id="n98"/>
<path d="M1972 463H1976V465H1972V463Z" fill="#535353" id="n99"/>
<path d="M1975.93 455.515L1978.76 458.343L1977.34 459.757L1974.51 456.929L1975.93 455.515Z" fill="#535353" id="n100"/>
<path d="M1984 453V457H1982V453H1984Z" fill="#535353" id="n101"/>
<path d="M1991.49 456.929L1988.66 459.757L1987.24 458.343L1990.07 455.515L1991.49 456.929Z" fill="#535353" id="n102"/>
<path d="M1991.15 463C1991.8 463 1992.42 463.088 1993 463.253C1990.5 463.951 1988.69 466.036 1988.69 468.5C1988.69 470.964 1990.5 473.049 1993 473.747C1992.42 473.912 1991.8 474 1991.15 474C1987.76 474 1985 471.536 1985 468.5C1985 465.464 1987.76 463 1991.15 463Z" fill="#535353" id="n103"/>
<path d="M2024.85 469.1C2025.7 468.45 2026.65 467.938 2027.7 467.562C2028.75 467.188 2029.85 467 2031 467C2032.15 467 2033.25 467.188 2034.3 467.562C2035.35 467.938 2036.3 468.45 2037.15 469.1C2037.73 468.417 2038.19 467.642 2038.51 466.775C2038.84 465.908 2039 464.983 2039 464C2039 461.783 2038.22 459.896 2036.66 458.338C2035.1 456.779 2033.22 456 2031 456C2028.78 456 2026.9 456.779 2025.34 458.338C2023.78 459.896 2023 461.783 2023 464C2023 464.983 2023.16 465.908 2023.49 466.775C2023.81 467.642 2024.27 468.417 2024.85 469.1ZM2031 465C2030.02 465 2029.19 464.663 2028.51 463.988C2027.84 463.312 2027.5 462.483 2027.5 461.5C2027.5 460.517 2027.84 459.688 2028.51 459.013C2029.19 458.338 2030.02 458 2031 458C2031.98 458 2032.81 458.338 2033.49 459.013C2034.16 459.688 2034.5 460.517 2034.5 461.5C2034.5 462.483 2034.16 463.312 2033.49 463.988C2032.81 464.663 2031.98 465 2031 465ZM2031 474C2029.62 474 2028.32 473.737 2027.1 473.212C2025.88 472.688 2024.83 471.975 2023.92 471.075C2023.02 470.175 2022.31 469.117 2021.79 467.9C2021.26 466.683 2021 465.383 2021 464C2021 462.617 2021.26 461.317 2021.79 460.1C2022.31 458.883 2023.02 457.825 2023.92 456.925C2024.83 456.025 2025.88 455.312 2027.1 454.788C2028.32 454.262 2029.62 454 2031 454C2032.38 454 2033.68 454.262 2034.9 454.788C2036.12 455.312 2037.18 456.025 2038.08 456.925C2038.98 457.825 2039.69 458.883 2040.21 460.1C2040.74 461.317 2041 462.617 2041 464C2041 465.383 2040.74 466.683 2040.21 467.9C2039.69 469.117 2038.98 470.175 2038.08 471.075C2037.18 471.975 2036.12 472.688 2034.9 473.212C2033.68 473.737 2032.38 474 2031 474Z" fill="#535353" id="n104"/>
<path d="M2073.5 470H2071.58V462.736C2071.58 462.491 2071.58 462.251 2071.58 462.016C2071.59 461.771 2071.61 461.531 2071.62 461.296C2071.63 461.051 2071.64 460.821 2071.65 460.608C2071.54 460.725 2071.41 460.859 2071.25 461.008C2071.09 461.147 2070.92 461.291 2070.75 461.44L2069.47 462.464L2068.51 461.248L2071.92 458.576H2073.5V470ZM2085.36 467.52H2083.84V470H2081.96V467.52H2076.8V466.08L2081.99 458.544H2083.84V465.936H2085.36V467.52ZM2081.96 463.216C2081.96 462.992 2081.96 462.763 2081.96 462.528C2081.97 462.283 2081.98 462.048 2081.99 461.824C2082 461.589 2082.01 461.376 2082.02 461.184C2082.03 460.992 2082.04 460.837 2082.05 460.72H2081.99C2081.89 460.923 2081.79 461.136 2081.67 461.36C2081.56 461.573 2081.44 461.776 2081.3 461.968L2078.58 465.936H2081.96V463.216Z" fill="#1F1F1F" id="n105"/>
<circle cx="2089" cy="461" r="1" fill="#1F1F1F" stroke="#1F1F1F" id="n106"/>
<circle cx="2089" cy="467" r="1" fill="#1F1F1F" stroke="#1F1F1F" id="n107"/>
<path d="M2100.38 461.184C2100.38 461.707 2100.27 462.16 2100.07 462.544C2099.87 462.917 2099.59 463.227 2099.22 463.472C2098.86 463.707 2098.44 463.877 2097.96 463.984V464.032C2098.88 464.139 2099.57 464.421 2100.02 464.88C2100.49 465.339 2100.73 465.947 2100.73 466.704C2100.73 467.365 2100.57 467.957 2100.25 468.48C2099.93 469.003 2099.44 469.413 2098.78 469.712C2098.11 470.011 2097.27 470.16 2096.23 470.16C2095.61 470.16 2095.04 470.107 2094.5 470C2093.98 469.904 2093.48 469.749 2093 469.536V467.84C2093.49 468.075 2094.01 468.261 2094.55 468.4C2095.1 468.528 2095.61 468.592 2096.1 468.592C2097.04 468.592 2097.71 468.421 2098.1 468.08C2098.5 467.728 2098.7 467.243 2098.7 466.624C2098.7 466.229 2098.59 465.904 2098.39 465.648C2098.19 465.392 2097.87 465.205 2097.43 465.088C2096.99 464.96 2096.43 464.896 2095.74 464.896H2094.76V463.344H2095.75C2096.42 463.344 2096.95 463.269 2097.34 463.12C2097.73 462.96 2098.01 462.741 2098.18 462.464C2098.37 462.187 2098.46 461.867 2098.46 461.504C2098.46 461.035 2098.3 460.667 2097.99 460.4C2097.68 460.133 2097.22 460 2096.62 460C2096.23 460 2095.88 460.043 2095.56 460.128C2095.25 460.213 2094.96 460.325 2094.7 460.464C2094.44 460.603 2094.19 460.747 2093.96 460.896L2093.05 459.568C2093.34 459.355 2093.66 459.163 2094.02 458.992C2094.39 458.811 2094.79 458.672 2095.22 458.576C2095.67 458.469 2096.16 458.416 2096.7 458.416C2097.88 458.416 2098.79 458.667 2099.42 459.168C2100.06 459.669 2100.38 460.341 2100.38 461.184ZM2109.96 464.272C2109.96 465.2 2109.89 466.027 2109.76 466.752C2109.62 467.477 2109.39 468.096 2109.08 468.608C2108.77 469.109 2108.37 469.493 2107.87 469.76C2107.38 470.027 2106.77 470.16 2106.06 470.16C2105.17 470.16 2104.44 469.925 2103.87 469.456C2103.29 468.987 2102.87 468.315 2102.59 467.44C2102.31 466.555 2102.17 465.499 2102.17 464.272C2102.17 463.045 2102.3 461.995 2102.56 461.12C2102.81 460.245 2103.22 459.573 2103.79 459.104C2104.36 458.635 2105.12 458.4 2106.06 458.4C2106.95 458.4 2107.68 458.635 2108.25 459.104C2108.83 459.563 2109.25 460.235 2109.53 461.12C2109.82 461.995 2109.96 463.045 2109.96 464.272ZM2104.11 464.288C2104.11 465.237 2104.17 466.032 2104.28 466.672C2104.41 467.301 2104.61 467.776 2104.89 468.096C2105.18 468.405 2105.57 468.56 2106.06 468.56C2106.55 468.56 2106.93 468.405 2107.21 468.096C2107.5 467.787 2107.71 467.312 2107.84 466.672C2107.96 466.032 2108.03 465.232 2108.03 464.272C2108.03 463.323 2107.96 462.533 2107.84 461.904C2107.71 461.264 2107.5 460.789 2107.21 460.48C2106.93 460.16 2106.55 460 2106.06 460C2105.57 460 2105.18 460.16 2104.89 460.48C2104.61 460.789 2104.41 461.264 2104.28 461.904C2104.17 462.533 2104.11 463.328 2104.11 464.288Z" fill="#1F1F1F" id="n108"/>
<circle cx="2114" cy="461" r="1" fill="#1F1F1F" stroke="#1F1F1F" id="n109"/>
<circle cx="2114" cy="467" r="1" fill="#1F1F1F" stroke="#1F1F1F" id="n110"/>
<path d="M2123.5 470H2121.58V462.736C2121.58 462.491 2121.58 462.251 2121.58 462.016C2121.59 461.771 2121.61 461.531 2121.62 461.296C2121.63 461.051 2121.64 460.821 2121.65 460.608C2121.54 460.725 2121.41 460.859 2121.25 461.008C2121.09 461.147 2120.92 461.291 2120.75 461.44L2119.47 462.464L2118.51 461.248L2121.92 458.576H2123.5V470ZM2134.98 470H2127.2V468.56L2130.13 465.6C2130.71 465.013 2131.18 464.512 2131.54 464.096C2131.91 463.669 2132.19 463.269 2132.37 462.896C2132.55 462.523 2132.64 462.112 2132.64 461.664C2132.64 461.131 2132.49 460.731 2132.18 460.464C2131.87 460.187 2131.47 460.048 2130.96 460.048C2130.46 460.048 2130 460.149 2129.59 460.352C2129.17 460.544 2128.74 460.816 2128.29 461.168L2127.25 459.904C2127.56 459.637 2127.9 459.392 2128.26 459.168C2128.62 458.944 2129.03 458.763 2129.48 458.624C2129.93 458.485 2130.46 458.416 2131.04 458.416C2131.78 458.416 2132.41 458.549 2132.93 458.816C2133.47 459.072 2133.88 459.429 2134.16 459.888C2134.45 460.347 2134.6 460.88 2134.6 461.488C2134.6 461.947 2134.52 462.379 2134.37 462.784C2134.23 463.189 2134.03 463.584 2133.76 463.968C2133.51 464.341 2133.19 464.731 2132.8 465.136C2132.42 465.531 2131.99 465.952 2131.52 466.4L2129.62 468.24V468.32H2134.98V470Z" fill="#1F1F1F" id="n111"/>
</g>
</g>
</svg>
