<?xml version='1.0' encoding='utf-8'?>
<svg xmlns="http://www.w3.org/2000/svg" xmlns:xlink="http://www.w3.org/1999/xlink" width="48.0" height="48.0" viewBox="0 0 48.0 48.0" fill="none">
  <defs><clipPath id="clip__asset"><rect x="0" y="0" width="48.0" height="48.0"/></clipPath><mask id="mask21_68_6728" style="mask-type:alpha" maskUnits="userSpaceOnUse" x="1798" y="261" width="38" height="10">
<path d="M1799 262H1835V268C1835 269.105 1834.1 270 1833 270H1801C1799.9 270 1799 269.105 1799 268V262Z" fill="#F0F0F0" stroke="#F0F0F0" id="n270"/>
</mask>
</defs>
  <g clip-path="url(#clip__asset)" transform="translate(-1793.0 -240.0)"><path d="M1799 260C1799 258.895 1799.9 258 1801 258H1833C1834.1 258 1835 258.895 1835 260V268C1835 269.105 1834.1 270 1833 270H1801C1799.9 270 1799 269.105 1799 268V260Z" fill="white" id="n267"/>
<path d="M1799 262H1835V268C1835 269.105 1834.1 270 1833 270H1801C1799.9 270 1799 269.105 1799 268V262Z" fill="#F0F0F0" stroke="#F0F0F0" id="n268"/>
<path d="M1799 260C1799 258.895 1799.9 258 1801 258H1833C1834.1 258 1835 258.895 1835 260V268C1835 269.105 1834.1 270 1833 270H1801C1799.9 270 1799 269.105 1799 268V260Z" stroke="#BEBEBE" id="n269"/>
<g mask="url(#mask21_68_6728)" id="n271">
<path d="M1811 262H1817V270H1811V262Z" fill="#2D548B" id="n272"/>
<path d="M1811 262V261.5H1810.5V262H1811ZM1811 270H1810.5V270.5H1811V270ZM1811 262.5H1817V261.5H1811V262.5ZM1817 269.5H1811V270.5H1817V269.5ZM1811.5 270V262H1810.5V270H1811.5Z" fill="#2D548B" id="n273"/>
</g>
<rect x="1816.5" y="258" width="1" height="12" rx="0.5" fill="#2D548B" stroke="#2D548B" id="n274"/>
</g>
</svg>
