<?xml version='1.0' encoding='utf-8'?>
<svg xmlns="http://www.w3.org/2000/svg" xmlns:xlink="http://www.w3.org/1999/xlink" width="48.0" height="48.0" viewBox="0 0 48.0 48.0" fill="none">
  <defs>
    <clipPath id="clip__asset">
      <rect x="0" y="0" width="48.0" height="48.0"/>
    </clipPath>
  </defs>
  <g clip-path="url(#clip__asset)" transform="translate(-216.0 -360.0)"><path d="M224 377.6C224 374.24 224 372.56 224.654 371.276C225.229 370.147 226.147 369.229 227.276 368.654C228.56 368 230.24 368 233.6 368H246.4C249.76 368 251.44 368 252.724 368.654C253.853 369.229 254.771 370.147 255.346 371.276C256 372.56 256 374.24 256 377.6V390.4C256 393.76 256 395.44 255.346 396.724C254.771 397.853 253.853 398.771 252.724 399.346C251.44 400 249.76 400 246.4 400H233.6C230.24 400 228.56 400 227.276 399.346C226.147 398.771 225.229 397.853 224.654 396.724C224 395.44 224 393.76 224 390.4V377.6Z" fill="black" fill-opacity="0.1" id="n33"/>
<path fill-rule="evenodd" clip-rule="evenodd" d="M242.172 389H248V377H232V389H237.828L240 391.172L242.172 389ZM240 394L237 391H233.2C232.08 391 231.52 391 231.092 390.782C230.716 390.59 230.41 390.284 230.218 389.908C230 389.48 230 388.92 230 387.8V378.2C230 377.08 230 376.52 230.218 376.092C230.41 375.716 230.716 375.41 231.092 375.218C231.52 375 232.08 375 233.2 375H246.8C247.92 375 248.48 375 248.908 375.218C249.284 375.41 249.59 375.716 249.782 376.092C250 376.52 250 377.08 250 378.201V387.799C250 388.92 250 389.48 249.782 389.908C249.59 390.284 249.284 390.59 248.908 390.782C248.48 391 247.92 391 246.8 391H243L240 394Z" fill="#535353" id="n34"/>
</g>
</svg>
