<?xml version='1.0' encoding='utf-8'?>
<svg xmlns="http://www.w3.org/2000/svg" xmlns:xlink="http://www.w3.org/1999/xlink" width="48.0" height="48.0" viewBox="0 0 48.0 48.0" fill="none">
  <defs><clipPath id="clip__asset"><rect x="0" y="0" width="48.0" height="48.0"/></clipPath><mask id="path-12-inside-1_1702_11540" fill="white">
<path d="M409 233.6C409 230.24 409 228.56 409.654 227.276C410.229 226.147 411.147 225.229 412.276 224.654C413.56 224 415.24 224 418.6 224H445.4C448.76 224 450.44 224 451.724 224.654C452.853 225.229 453.771 226.147 454.346 227.276C455 228.56 455 230.24 455 233.6V246.4C455 249.76 455 251.44 454.346 252.724C453.771 253.853 452.853 254.771 451.724 255.346C450.44 256 448.76 256 445.4 256H418.6C415.24 256 413.56 256 412.276 255.346C411.147 254.771 410.229 253.853 409.654 252.724C409 251.44 409 249.76 409 246.4V233.6Z" id="n9"/>
</mask>
</defs>
  <g clip-path="url(#clip__asset)" transform="translate(-408.0 -216.0)"><path d="M409 233.6C409 230.24 409 228.56 409.654 227.276C410.229 226.147 411.147 225.229 412.276 224.654C413.56 224 415.24 224 418.6 224H445.4C448.76 224 450.44 224 451.724 224.654C452.853 225.229 453.771 226.147 454.346 227.276C455 228.56 455 230.24 455 233.6V246.4C455 249.76 455 251.44 454.346 252.724C453.771 253.853 452.853 254.771 451.724 255.346C450.44 256 448.76 256 445.4 256H418.6C415.24 256 413.56 256 412.276 255.346C411.147 254.771 410.229 253.853 409.654 252.724C409 251.44 409 249.76 409 246.4V233.6Z" fill="white" id="n10"/>
<path d="M412.276 255.346L412.73 254.455L412.276 255.346ZM454.346 252.724L453.455 252.27L454.346 252.724ZM451.724 255.346L452.178 256.237L451.724 255.346ZM451.724 224.654L452.178 223.763L451.724 224.654ZM454.346 227.276L453.455 227.73L454.346 227.276ZM418.6 225H445.4V223H418.6V225ZM454 233.6V246.4H456V233.6H454ZM445.4 255H418.6V257H445.4V255ZM410 246.4V233.6H408V246.4H410ZM418.6 255C416.903 255 415.691 254.999 414.741 254.922C413.802 254.845 413.207 254.698 412.73 254.455L411.822 256.237C412.628 256.648 413.515 256.828 414.578 256.915C415.628 257.001 416.936 257 418.6 257V255ZM408 246.4C408 248.064 407.999 249.372 408.085 250.422C408.172 251.485 408.352 252.372 408.763 253.178L410.545 252.27C410.302 251.793 410.155 251.198 410.078 250.259C410.001 249.309 410 248.097 410 246.4H408ZM412.73 254.455C411.789 253.976 411.024 253.211 410.545 252.27L408.763 253.178C409.434 254.495 410.505 255.566 411.822 256.237L412.73 254.455ZM454 246.4C454 248.097 453.999 249.309 453.922 250.259C453.845 251.198 453.698 251.793 453.455 252.27L455.237 253.178C455.648 252.372 455.828 251.485 455.915 250.422C456.001 249.372 456 248.064 456 246.4H454ZM445.4 257C447.064 257 448.372 257.001 449.422 256.915C450.485 256.828 451.372 256.648 452.178 256.237L451.27 254.455C450.793 254.698 450.198 254.845 449.259 254.922C448.309 254.999 447.097 255 445.4 255V257ZM453.455 252.27C452.976 253.211 452.211 253.976 451.27 254.455L452.178 256.237C453.495 255.566 454.566 254.495 455.237 253.178L453.455 252.27ZM445.4 225C447.097 225 448.309 225.001 449.259 225.078C450.198 225.155 450.793 225.302 451.27 225.545L452.178 223.763C451.372 223.352 450.485 223.172 449.422 223.085C448.372 222.999 447.064 223 445.4 223V225ZM456 233.6C456 231.936 456.001 230.628 455.915 229.578C455.828 228.515 455.648 227.628 455.237 226.822L453.455 227.73C453.698 228.207 453.845 228.802 453.922 229.741C453.999 230.691 454 231.903 454 233.6H456ZM451.27 225.545C452.211 226.024 452.976 226.789 453.455 227.73L455.237 226.822C454.566 225.505 453.495 224.434 452.178 223.763L451.27 225.545ZM418.6 223C416.936 223 415.628 222.999 414.578 223.085C413.515 223.172 412.628 223.352 411.822 223.763L412.73 225.545C413.207 225.302 413.802 225.155 414.741 225.078C415.691 225.001 416.903 225 418.6 225V223ZM410 233.6C410 231.903 410.001 230.691 410.078 229.741C410.155 228.802 410.302 228.207 410.545 227.73L408.763 226.822C408.352 227.628 408.172 228.515 408.085 229.578C407.999 230.628 408 231.936 408 233.6H410ZM411.822 223.763C410.505 224.434 409.434 225.505 408.763 226.822L410.545 227.73C411.024 226.789 411.789 226.024 412.73 225.545L411.822 223.763Z" fill="#BEBEBE" mask="url(#path-12-inside-1_1702_11540)" id="n11"/>
<path fill-rule="evenodd" clip-rule="evenodd" d="M418 232C416.895 232 416 232.895 416 234V244C416 245.105 416.895 246 418 246H422L425 249L428 246H432C433.105 246 434 245.105 434 244V234C434 232.895 433.105 232 432 232H418Z" fill="#2D548B" id="n12"/>
<path d="M447.032 237.184C447.032 237.707 446.931 238.16 446.728 238.544C446.525 238.917 446.243 239.227 445.88 239.472C445.517 239.707 445.096 239.877 444.616 239.984V240.032C445.533 240.139 446.221 240.421 446.68 240.88C447.149 241.339 447.384 241.947 447.384 242.704C447.384 243.365 447.224 243.957 446.904 244.48C446.584 245.003 446.093 245.413 445.432 245.712C444.771 246.011 443.923 246.16 442.888 246.16C442.269 246.16 441.693 246.107 441.16 246C440.637 245.904 440.136 245.749 439.656 245.536V243.84C440.147 244.075 440.664 244.261 441.208 244.4C441.752 244.528 442.269 244.592 442.76 244.592C443.699 244.592 444.365 244.421 444.76 244.08C445.155 243.728 445.352 243.243 445.352 242.624C445.352 242.229 445.251 241.904 445.048 241.648C444.845 241.392 444.525 241.205 444.088 241.088C443.651 240.96 443.085 240.896 442.392 240.896H441.416V239.344H442.408C443.08 239.344 443.608 239.269 443.992 239.12C444.387 238.96 444.669 238.741 444.84 238.464C445.021 238.187 445.112 237.867 445.112 237.504C445.112 237.035 444.957 236.667 444.648 236.4C444.339 236.133 443.88 236 443.272 236C442.888 236 442.536 236.043 442.216 236.128C441.907 236.213 441.619 236.325 441.352 236.464C441.096 236.603 440.851 236.747 440.616 236.896L439.704 235.568C439.992 235.355 440.317 235.163 440.68 234.992C441.043 234.811 441.443 234.672 441.88 234.576C442.328 234.469 442.819 234.416 443.352 234.416C444.536 234.416 445.443 234.667 446.072 235.168C446.712 235.669 447.032 236.341 447.032 237.184Z" fill="#1F1F1F" id="n13"/>
</g>
</svg>
