<?xml version='1.0' encoding='utf-8'?>
<svg xmlns="http://www.w3.org/2000/svg" xmlns:xlink="http://www.w3.org/1999/xlink" width="48.0" height="48.0" viewBox="0 0 48.0 48.0" fill="none">
  <defs><clipPath id="clip__asset"><rect x="0" y="0" width="48.0" height="48.0"/></clipPath><mask id="path-60-inside-9_1702_11540" fill="white">
<path d="M409 449.6C409 446.24 409 444.56 409.654 443.276C410.229 442.147 411.147 441.229 412.276 440.654C413.56 440 415.24 440 418.6 440H445.4C448.76 440 450.44 440 451.724 440.654C452.853 441.229 453.771 442.147 454.346 443.276C455 444.56 455 446.24 455 449.6V462.4C455 465.76 455 467.44 454.346 468.724C453.771 469.853 452.853 470.771 451.724 471.346C450.44 472 448.76 472 445.4 472H418.6C415.24 472 413.56 472 412.276 471.346C411.147 470.771 410.229 469.853 409.654 468.724C409 467.44 409 465.76 409 462.4V449.6Z" id="n57"/>
</mask>
<mask id="path-63-outside-10_1702_11540" maskUnits="userSpaceOnUse" x="407" y="438" width="50" height="36" fill="black">
<rect fill="white" x="407" y="438" width="50" height="36" id="n61"/>
<path d="M409 449.6C409 446.24 409 444.56 409.654 443.276C410.229 442.147 411.147 441.229 412.276 440.654C413.56 440 415.24 440 418.6 440H445.4C448.76 440 450.44 440 451.724 440.654C452.853 441.229 453.771 442.147 454.346 443.276C455 444.56 455 446.24 455 449.6V462.4C455 465.76 455 467.44 454.346 468.724C453.771 469.853 452.853 470.771 451.724 471.346C450.44 472 448.76 472 445.4 472H418.6C415.24 472 413.56 472 412.276 471.346C411.147 470.771 410.229 469.853 409.654 468.724C409 467.44 409 465.76 409 462.4V449.6Z" id="n62"/>
</mask>
</defs>
  <g clip-path="url(#clip__asset)" transform="translate(-408.0 -432.0)"><path d="M409 449.6C409 446.24 409 444.56 409.654 443.276C410.229 442.147 411.147 441.229 412.276 440.654C413.56 440 415.24 440 418.6 440H445.4C448.76 440 450.44 440 451.724 440.654C452.853 441.229 453.771 442.147 454.346 443.276C455 444.56 455 446.24 455 449.6V462.4C455 465.76 455 467.44 454.346 468.724C453.771 469.853 452.853 470.771 451.724 471.346C450.44 472 448.76 472 445.4 472H418.6C415.24 472 413.56 472 412.276 471.346C411.147 470.771 410.229 469.853 409.654 468.724C409 467.44 409 465.76 409 462.4V449.6Z" fill="white" id="n58"/>
<path d="M412.276 471.346L412.73 470.455L412.276 471.346ZM454.346 468.724L453.455 468.27L454.346 468.724ZM451.724 471.346L452.178 472.237L451.724 471.346ZM451.724 440.654L452.178 439.763L451.724 440.654ZM454.346 443.276L453.455 443.73L454.346 443.276ZM418.6 441H445.4V439H418.6V441ZM454 449.6V462.4H456V449.6H454ZM445.4 471H418.6V473H445.4V471ZM410 462.4V449.6H408V462.4H410ZM418.6 471C416.903 471 415.691 470.999 414.741 470.922C413.802 470.845 413.207 470.698 412.73 470.455L411.822 472.237C412.628 472.648 413.515 472.828 414.578 472.915C415.628 473.001 416.936 473 418.6 473V471ZM408 462.4C408 464.064 407.999 465.372 408.085 466.422C408.172 467.485 408.352 468.372 408.763 469.178L410.545 468.27C410.302 467.793 410.155 467.198 410.078 466.259C410.001 465.309 410 464.097 410 462.4H408ZM412.73 470.455C411.789 469.976 411.024 469.211 410.545 468.27L408.763 469.178C409.434 470.495 410.505 471.566 411.822 472.237L412.73 470.455ZM454 462.4C454 464.097 453.999 465.309 453.922 466.259C453.845 467.198 453.698 467.793 453.455 468.27L455.237 469.178C455.648 468.372 455.828 467.485 455.915 466.422C456.001 465.372 456 464.064 456 462.4H454ZM445.4 473C447.064 473 448.372 473.001 449.422 472.915C450.485 472.828 451.372 472.648 452.178 472.237L451.27 470.455C450.793 470.698 450.198 470.845 449.259 470.922C448.309 470.999 447.097 471 445.4 471V473ZM453.455 468.27C452.976 469.211 452.211 469.976 451.27 470.455L452.178 472.237C453.495 471.566 454.566 470.495 455.237 469.178L453.455 468.27ZM445.4 441C447.097 441 448.309 441.001 449.259 441.078C450.198 441.155 450.793 441.302 451.27 441.545L452.178 439.763C451.372 439.352 450.485 439.172 449.422 439.085C448.372 438.999 447.064 439 445.4 439V441ZM456 449.6C456 447.936 456.001 446.628 455.915 445.578C455.828 444.515 455.648 443.628 455.237 442.822L453.455 443.73C453.698 444.207 453.845 444.802 453.922 445.741C453.999 446.691 454 447.903 454 449.6H456ZM451.27 441.545C452.211 442.024 452.976 442.789 453.455 443.73L455.237 442.822C454.566 441.505 453.495 440.434 452.178 439.763L451.27 441.545ZM418.6 439C416.936 439 415.628 438.999 414.578 439.085C413.515 439.172 412.628 439.352 411.822 439.763L412.73 441.545C413.207 441.302 413.802 441.155 414.741 441.078C415.691 441.001 416.903 441 418.6 441V439ZM410 449.6C410 447.903 410.001 446.691 410.078 445.741C410.155 444.802 410.302 444.207 410.545 443.73L408.763 442.822C408.352 443.628 408.172 444.515 408.085 445.578C407.999 446.628 408 447.936 408 449.6H410ZM411.822 439.763C410.505 440.434 409.434 441.505 408.763 442.822L410.545 443.73C411.024 442.789 411.789 442.024 412.73 441.545L411.822 439.763Z" fill="#BEBEBE" mask="url(#path-60-inside-9_1702_11540)" id="n59"/>
<path fill-rule="evenodd" clip-rule="evenodd" d="M418 448C416.895 448 416 448.895 416 450V460C416 461.105 416.895 462 418 462H422L425 465L428 462H432C433.105 462 434 461.105 434 460V450C434 448.895 433.105 448 432 448H418Z" fill="#2D548B" id="n60"/>
<path d="M412.276 471.346L413.184 469.564L412.276 471.346ZM454.346 468.724L452.564 467.816L454.346 468.724ZM451.724 471.346L452.632 473.128L451.724 471.346ZM451.724 440.654L452.632 438.872L451.724 440.654ZM454.346 443.276L452.564 444.184L454.346 443.276ZM418.6 440V442H445.4V440V438H418.6V440ZM455 449.6H453V462.4H455H457V449.6H455ZM445.4 472V470H418.6V472V474H445.4V472ZM409 462.4H411V449.6H409H407V462.4H409ZM418.6 472V470C416.887 470 415.722 469.998 414.822 469.925C413.945 469.853 413.497 469.723 413.184 469.564L412.276 471.346L411.368 473.128C412.339 473.623 413.372 473.82 414.496 473.912C415.597 474.002 416.953 474 418.6 474V472ZM409 462.4H407C407 464.047 406.998 465.403 407.088 466.504C407.18 467.628 407.377 468.661 407.872 469.632L409.654 468.724L411.436 467.816C411.277 467.503 411.147 467.055 411.075 466.178C411.002 465.278 411 464.113 411 462.4H409ZM412.276 471.346L413.184 469.564C412.431 469.181 411.819 468.569 411.436 467.816L409.654 468.724L407.872 469.632C408.639 471.137 409.863 472.361 411.368 473.128L412.276 471.346ZM455 462.4H453C453 464.113 452.998 465.278 452.925 466.178C452.853 467.055 452.723 467.503 452.564 467.816L454.346 468.724L456.128 469.632C456.623 468.661 456.82 467.628 456.912 466.504C457.002 465.403 457 464.047 457 462.4H455ZM445.4 472V474C447.047 474 448.403 474.002 449.504 473.912C450.628 473.82 451.661 473.623 452.632 473.128L451.724 471.346L450.816 469.564C450.503 469.723 450.055 469.853 449.178 469.925C448.278 469.998 447.113 470 445.4 470V472ZM454.346 468.724L452.564 467.816C452.181 468.569 451.569 469.181 450.816 469.564L451.724 471.346L452.632 473.128C454.137 472.361 455.361 471.137 456.128 469.632L454.346 468.724ZM445.4 440V442C447.113 442 448.278 442.002 449.178 442.075C450.055 442.147 450.503 442.277 450.816 442.436L451.724 440.654L452.632 438.872C451.661 438.377 450.628 438.18 449.504 438.088C448.403 437.998 447.047 438 445.4 438V440ZM455 449.6H457C457 447.953 457.002 446.597 456.912 445.496C456.82 444.372 456.623 443.339 456.128 442.368L454.346 443.276L452.564 444.184C452.723 444.497 452.853 444.945 452.925 445.822C452.998 446.722 453 447.887 453 449.6H455ZM451.724 440.654L450.816 442.436C451.569 442.819 452.181 443.431 452.564 444.184L454.346 443.276L456.128 442.368C455.361 440.863 454.137 439.639 452.632 438.872L451.724 440.654ZM418.6 440V438C416.953 438 415.597 437.998 414.496 438.088C413.372 438.18 412.339 438.377 411.368 438.872L412.276 440.654L413.184 442.436C413.497 442.277 413.945 442.147 414.822 442.075C415.722 442.002 416.887 442 418.6 442V440ZM409 449.6H411C411 447.887 411.002 446.722 411.075 445.822C411.147 444.945 411.277 444.497 411.436 444.184L409.654 443.276L407.872 442.368C407.377 443.339 407.18 444.372 407.088 445.496C406.998 446.597 407 447.953 407 449.6H409ZM412.276 440.654L411.368 438.872C409.863 439.639 408.639 440.863 407.872 442.368L409.654 443.276L411.436 444.184C411.819 443.431 412.431 442.819 413.184 442.436L412.276 440.654Z" fill="#4271B3" mask="url(#path-63-outside-10_1702_11540)" id="n63"/>
<path d="M418.6 440.5H445.4C447.088 440.5 448.324 440.5 449.3 440.58C450.269 440.659 450.938 440.815 451.497 441.1C452.532 441.627 453.373 442.468 453.9 443.503C454.185 444.062 454.341 444.731 454.42 445.7C454.5 446.676 454.5 447.912 454.5 449.6V462.4C454.5 464.088 454.5 465.324 454.42 466.3C454.341 467.269 454.185 467.938 453.9 468.497C453.373 469.532 452.532 470.373 451.497 470.9C450.938 471.185 450.269 471.341 449.3 471.42C448.324 471.5 447.088 471.5 445.4 471.5H418.6C416.912 471.5 415.676 471.5 414.7 471.42C413.731 471.341 413.062 471.185 412.503 470.9C411.468 470.373 410.627 469.532 410.1 468.497C409.815 467.938 409.659 467.269 409.58 466.3C409.5 465.324 409.5 464.088 409.5 462.4V449.6C409.5 447.912 409.5 446.676 409.58 445.7C409.659 444.731 409.815 444.062 410.1 443.503C410.627 442.468 411.468 441.627 412.503 441.1C413.062 440.815 413.731 440.659 414.7 440.58C415.676 440.5 416.912 440.5 418.6 440.5Z" stroke="#F7F7F7" id="n64"/>
<path d="M447.032 453.184C447.032 453.707 446.931 454.16 446.728 454.544C446.525 454.917 446.243 455.227 445.88 455.472C445.517 455.707 445.096 455.877 444.616 455.984V456.032C445.533 456.139 446.221 456.421 446.68 456.88C447.149 457.339 447.384 457.947 447.384 458.704C447.384 459.365 447.224 459.957 446.904 460.48C446.584 461.003 446.093 461.413 445.432 461.712C444.771 462.011 443.923 462.16 442.888 462.16C442.269 462.16 441.693 462.107 441.16 462C440.637 461.904 440.136 461.749 439.656 461.536V459.84C440.147 460.075 440.664 460.261 441.208 460.4C441.752 460.528 442.269 460.592 442.76 460.592C443.699 460.592 444.365 460.421 444.76 460.08C445.155 459.728 445.352 459.243 445.352 458.624C445.352 458.229 445.251 457.904 445.048 457.648C444.845 457.392 444.525 457.205 444.088 457.088C443.651 456.96 443.085 456.896 442.392 456.896H441.416V455.344H442.408C443.08 455.344 443.608 455.269 443.992 455.12C444.387 454.96 444.669 454.741 444.84 454.464C445.021 454.187 445.112 453.867 445.112 453.504C445.112 453.035 444.957 452.667 444.648 452.4C444.339 452.133 443.88 452 443.272 452C442.888 452 442.536 452.043 442.216 452.128C441.907 452.213 441.619 452.325 441.352 452.464C441.096 452.603 440.851 452.747 440.616 452.896L439.704 451.568C439.992 451.355 440.317 451.163 440.68 450.992C441.043 450.811 441.443 450.672 441.88 450.576C442.328 450.469 442.819 450.416 443.352 450.416C444.536 450.416 445.443 450.667 446.072 451.168C446.712 451.669 447.032 452.341 447.032 453.184Z" fill="#1F1F1F" id="n65"/>
</g>
</svg>
