<?xml version='1.0' encoding='utf-8'?>
<svg xmlns="http://www.w3.org/2000/svg" xmlns:xlink="http://www.w3.org/1999/xlink" width="48.0" height="48.0" viewBox="0 0 48.0 48.0" fill="none">
  <defs><clipPath id="clip__asset"><rect x="0" y="0" width="48.0" height="48.0"/></clipPath><mask id="path-40-inside-5_1702_11540" fill="white">
<path d="M409 377.6C409 374.24 409 372.56 409.654 371.276C410.229 370.147 411.147 369.229 412.276 368.654C413.56 368 415.24 368 418.6 368H445.4C448.76 368 450.44 368 451.724 368.654C452.853 369.229 453.771 370.147 454.346 371.276C455 372.56 455 374.24 455 377.6V390.4C455 393.76 455 395.44 454.346 396.724C453.771 397.853 452.853 398.771 451.724 399.346C450.44 400 448.76 400 445.4 400H418.6C415.24 400 413.56 400 412.276 399.346C411.147 398.771 410.229 397.853 409.654 396.724C409 395.44 409 393.76 409 390.4V377.6Z" id="n37"/>
</mask>
</defs>
  <g clip-path="url(#clip__asset)" transform="translate(-408.0 -360.0)"><path d="M409 377.6C409 374.24 409 372.56 409.654 371.276C410.229 370.147 411.147 369.229 412.276 368.654C413.56 368 415.24 368 418.6 368H445.4C448.76 368 450.44 368 451.724 368.654C452.853 369.229 453.771 370.147 454.346 371.276C455 372.56 455 374.24 455 377.6V390.4C455 393.76 455 395.44 454.346 396.724C453.771 397.853 452.853 398.771 451.724 399.346C450.44 400 448.76 400 445.4 400H418.6C415.24 400 413.56 400 412.276 399.346C411.147 398.771 410.229 397.853 409.654 396.724C409 395.44 409 393.76 409 390.4V377.6Z" fill="#DDDDDD" id="n38"/>
<path d="M412.276 399.346L412.73 398.455L412.276 399.346ZM454.346 396.724L453.455 396.27L454.346 396.724ZM451.724 399.346L452.178 400.237L451.724 399.346ZM451.724 368.654L452.178 367.763L451.724 368.654ZM454.346 371.276L453.455 371.73L454.346 371.276ZM418.6 369H445.4V367H418.6V369ZM454 377.6V390.4H456V377.6H454ZM445.4 399H418.6V401H445.4V399ZM410 390.4V377.6H408V390.4H410ZM418.6 399C416.903 399 415.691 398.999 414.741 398.922C413.802 398.845 413.207 398.698 412.73 398.455L411.822 400.237C412.628 400.648 413.515 400.828 414.578 400.915C415.628 401.001 416.936 401 418.6 401V399ZM408 390.4C408 392.064 407.999 393.372 408.085 394.422C408.172 395.485 408.352 396.372 408.763 397.178L410.545 396.27C410.302 395.793 410.155 395.198 410.078 394.259C410.001 393.309 410 392.097 410 390.4H408ZM412.73 398.455C411.789 397.976 411.024 397.211 410.545 396.27L408.763 397.178C409.434 398.495 410.505 399.566 411.822 400.237L412.73 398.455ZM454 390.4C454 392.097 453.999 393.309 453.922 394.259C453.845 395.198 453.698 395.793 453.455 396.27L455.237 397.178C455.648 396.372 455.828 395.485 455.915 394.422C456.001 393.372 456 392.064 456 390.4H454ZM445.4 401C447.064 401 448.372 401.001 449.422 400.915C450.485 400.828 451.372 400.648 452.178 400.237L451.27 398.455C450.793 398.698 450.198 398.845 449.259 398.922C448.309 398.999 447.097 399 445.4 399V401ZM453.455 396.27C452.976 397.211 452.211 397.976 451.27 398.455L452.178 400.237C453.495 399.566 454.566 398.495 455.237 397.178L453.455 396.27ZM445.4 369C447.097 369 448.309 369.001 449.259 369.078C450.198 369.155 450.793 369.302 451.27 369.545L452.178 367.763C451.372 367.352 450.485 367.172 449.422 367.085C448.372 366.999 447.064 367 445.4 367V369ZM456 377.6C456 375.936 456.001 374.628 455.915 373.578C455.828 372.515 455.648 371.628 455.237 370.822L453.455 371.73C453.698 372.207 453.845 372.802 453.922 373.741C453.999 374.691 454 375.903 454 377.6H456ZM451.27 369.545C452.211 370.024 452.976 370.789 453.455 371.73L455.237 370.822C454.566 369.505 453.495 368.434 452.178 367.763L451.27 369.545ZM418.6 367C416.936 367 415.628 366.999 414.578 367.085C413.515 367.172 412.628 367.352 411.822 367.763L412.73 369.545C413.207 369.302 413.802 369.155 414.741 369.078C415.691 369.001 416.903 369 418.6 369V367ZM410 377.6C410 375.903 410.001 374.691 410.078 373.741C410.155 372.802 410.302 372.207 410.545 371.73L408.763 370.822C408.352 371.628 408.172 372.515 408.085 373.578C407.999 374.628 408 375.936 408 377.6H410ZM411.822 367.763C410.505 368.434 409.434 369.505 408.763 370.822L410.545 371.73C411.024 370.789 411.789 370.024 412.73 369.545L411.822 367.763Z" fill="#BEBEBE" mask="url(#path-40-inside-5_1702_11540)" id="n39"/>
<path fill-rule="evenodd" clip-rule="evenodd" d="M418 376C416.895 376 416 376.895 416 378V388C416 389.105 416.895 390 418 390H422L425 393L428 390H432C433.105 390 434 389.105 434 388V378C434 376.895 433.105 376 432 376H418Z" fill="#2D548B" id="n40"/>
<path d="M447.032 381.184C447.032 381.707 446.931 382.16 446.728 382.544C446.525 382.917 446.243 383.227 445.88 383.472C445.517 383.707 445.096 383.877 444.616 383.984V384.032C445.533 384.139 446.221 384.421 446.68 384.88C447.149 385.339 447.384 385.947 447.384 386.704C447.384 387.365 447.224 387.957 446.904 388.48C446.584 389.003 446.093 389.413 445.432 389.712C444.771 390.011 443.923 390.16 442.888 390.16C442.269 390.16 441.693 390.107 441.16 390C440.637 389.904 440.136 389.749 439.656 389.536V387.84C440.147 388.075 440.664 388.261 441.208 388.4C441.752 388.528 442.269 388.592 442.76 388.592C443.699 388.592 444.365 388.421 444.76 388.08C445.155 387.728 445.352 387.243 445.352 386.624C445.352 386.229 445.251 385.904 445.048 385.648C444.845 385.392 444.525 385.205 444.088 385.088C443.651 384.96 443.085 384.896 442.392 384.896H441.416V383.344H442.408C443.08 383.344 443.608 383.269 443.992 383.12C444.387 382.96 444.669 382.741 444.84 382.464C445.021 382.187 445.112 381.867 445.112 381.504C445.112 381.035 444.957 380.667 444.648 380.4C444.339 380.133 443.88 380 443.272 380C442.888 380 442.536 380.043 442.216 380.128C441.907 380.213 441.619 380.325 441.352 380.464C441.096 380.603 440.851 380.747 440.616 380.896L439.704 379.568C439.992 379.355 440.317 379.163 440.68 378.992C441.043 378.811 441.443 378.672 441.88 378.576C442.328 378.469 442.819 378.416 443.352 378.416C444.536 378.416 445.443 378.667 446.072 379.168C446.712 379.669 447.032 380.341 447.032 381.184Z" fill="#1F1F1F" id="n41"/>
</g>
</svg>
