<?xml version='1.0' encoding='utf-8'?>
<svg xmlns="http://www.w3.org/2000/svg" xmlns:xlink="http://www.w3.org/1999/xlink" width="480.0" height="1800.0" viewBox="0 0 480.0 1800.0" fill="none">
  <defs><clipPath id="clip__asset"><rect x="0" y="0" width="480.0" height="1800.0"/></clipPath><mask id="mask12_68_6728" style="mask-type:luminance" maskUnits="userSpaceOnUse" x="8121" y="504" width="26" height="512">
<path d="M8133.2 592C8137.68 592 8139.92 592 8141.63 592.872C8143.14 593.639 8144.36 594.863 8145.13 596.369C8146 598.08 8146 600.32 8146 604.8L8146 915.201C8146 919.681 8146 921.921 8145.13 923.632C8144.36 925.138 8143.14 926.362 8141.63 927.129C8139.92 928 8137.68 928 8133.2 928L8122 928L8122 592L8133.2 592Z" fill="white" stroke="black" id="n114"/>
</mask>
<mask id="mask13_68_6728" style="mask-type:alpha" maskUnits="userSpaceOnUse" x="7854" y="504" width="512" height="512">
<path d="M8122 592L8122 928L8086.8 928C8082.32 928 8080.08 928 8078.37 927.129C8076.86 926.362 8075.64 925.138 8074.87 923.632C8074 921.921 8074 919.681 8074 915.2L8074 604.8C8074 600.32 8074 598.08 8074.87 596.369C8075.64 594.863 8076.86 593.639 8078.37 592.872C8080.08 592 8082.32 592 8086.8 592L8122 592Z" fill="white" stroke="black" id="n119"/>
</mask>
<mask id="mask14_68_6728" style="mask-type:luminance" maskUnits="userSpaceOnUse" x="7809" y="504" width="26" height="512">
<path d="M7822.8 928C7818.32 928 7816.08 928 7814.37 927.128C7812.86 926.361 7811.64 925.137 7810.87 923.632C7810 921.921 7810 919.68 7810 915.2L7810 604.8C7810 600.32 7810 598.079 7810.87 596.368C7811.64 594.863 7812.86 593.639 7814.37 592.872C7816.08 592 7818.32 592 7822.8 592L7834 592L7834 928L7822.8 928Z" fill="white" stroke="black" id="n127"/>
</mask>
<mask id="mask15_68_6728" style="mask-type:alpha" maskUnits="userSpaceOnUse" x="7590" y="504" width="512" height="512">
<path d="M7834 592L7834 928L7869.2 928C7873.68 928 7875.92 928 7877.63 927.129C7879.14 926.362 7880.36 925.138 7881.13 923.632C7882 921.921 7882 919.681 7882 915.2L7882 604.8C7882 600.32 7882 598.08 7881.13 596.369C7880.36 594.863 7879.14 593.639 7877.63 592.872C7875.92 592 7873.68 592 7869.2 592L7834 592Z" fill="white" stroke="black" id="n131"/>
</mask>
<mask id="mask16_68_6728" style="mask-type:luminance" maskUnits="userSpaceOnUse" x="8121" y="952" width="26" height="512">
<path d="M8133.2 1040C8137.68 1040 8139.92 1040 8141.63 1040.87C8143.14 1041.64 8144.36 1042.86 8145.13 1044.37C8146 1046.08 8146 1048.32 8146 1052.8L8146 1363.2C8146 1367.68 8146 1369.92 8145.13 1371.63C8144.36 1373.14 8143.14 1374.36 8141.63 1375.13C8139.92 1376 8137.68 1376 8133.2 1376L8122 1376L8122 1040L8133.2 1040Z" fill="white" stroke="black" id="n145"/>
</mask>
<mask id="mask17_68_6728" style="mask-type:alpha" maskUnits="userSpaceOnUse" x="7854" y="952" width="512" height="512">
<path d="M8122 1040L8122 1376L8086.8 1376C8082.32 1376 8080.08 1376 8078.37 1375.13C8076.86 1374.36 8075.64 1373.14 8074.87 1371.63C8074 1369.92 8074 1367.68 8074 1363.2L8074 1052.8C8074 1048.32 8074 1046.08 8074.87 1044.37C8075.64 1042.86 8076.86 1041.64 8078.37 1040.87C8080.08 1040 8082.32 1040 8086.8 1040L8122 1040Z" fill="white" stroke="black" id="n150"/>
</mask>
<mask id="mask18_68_6728" style="mask-type:luminance" maskUnits="userSpaceOnUse" x="7809" y="952" width="26" height="512">
<path d="M7822.8 1376C7818.32 1376 7816.08 1376 7814.37 1375.13C7812.86 1374.36 7811.64 1373.14 7810.87 1371.63C7810 1369.92 7810 1367.68 7810 1363.2L7810 1052.8C7810 1048.32 7810 1046.08 7810.87 1044.37C7811.64 1042.86 7812.86 1041.64 7814.37 1040.87C7816.08 1040 7818.32 1040 7822.8 1040L7834 1040L7834 1376L7822.8 1376Z" fill="white" stroke="black" id="n158"/>
</mask>
<mask id="mask19_68_6728" style="mask-type:alpha" maskUnits="userSpaceOnUse" x="7590" y="952" width="512" height="512">
<path d="M7834 1040L7834 1376L7869.2 1376C7873.68 1376 7875.92 1376 7877.63 1375.13C7879.14 1374.36 7880.36 1373.14 7881.13 1371.63C7882 1369.92 7882 1367.68 7882 1363.2L7882 1052.8C7882 1048.32 7882 1046.08 7881.13 1044.37C7880.36 1042.86 7879.14 1041.64 7877.63 1040.87C7875.92 1040 7873.68 1040 7869.2 1040L7834 1040Z" fill="white" stroke="black" id="n162"/>
</mask>
<clipPath id="clip3_68_6728">
<path d="M7738 524C7738 521.791 7739.79 520 7742 520H8214C8216.21 520 8218 521.791 8218 524V2316C8218 2318.21 8216.21 2320 8214 2320H7742C7739.79 2320 7738 2318.21 7738 2316V524Z" fill="white" id="n2507"/>
</clipPath>
</defs>
  <g clip-path="url(#clip__asset)" transform="translate(-7738.0 -520.0)"><g clip-path="url(#clip3_68_6728)" id="n102">
<path d="M7738 524C7738 521.791 7739.79 520 7742 520H8214C8216.21 520 8218 521.791 8218 524V2316C8218 2318.21 8216.21 2320 8214 2320H7742C7739.79 2320 7738 2318.21 7738 2316V524Z" fill="#F7F7F7" id="n103"/>
<path d="M8074 760H7882" stroke="#BEBEBE" stroke-linecap="round" id="n104"/>
<path d="M8074 928H7882" stroke="#BEBEBE" stroke-linecap="round" id="n105"/>
<path d="M8074 592H7882" stroke="#BEBEBE" stroke-linecap="round" id="n106"/>
<rect x="7884" y="760" width="188" height="168" fill="#F0F0F0" id="n107"/>
<path d="M8044.47 770.251L7913.59 771.393L7913.55 766.905L7903.73 763.649L7903.65 754.344L7991.77 753.575L8005.92 739.172L8004.25 734.291L8002.62 734.306L8004.24 733.067L8007.1 733.043L8007.08 731.003L8007.89 730.996L8004.54 720.417L8006.98 720.396L8012.79 730.953C8016.58 730.92 8020.37 731.302 8024.09 732.093L8033.21 734.039L8031.17 734.056L8028.77 738.973L8034.94 745.039L8051.26 744.897C8051.26 744.897 8048.07 748.907 8046.43 752.078C8045.07 754.697 8043.23 759.246 8043.23 759.246L8047.46 758.439C8049.92 757.969 8052.21 759.845 8052.23 762.353C8052.27 766.677 8048.79 770.213 8044.47 770.251Z" fill="white" id="n108"/>
<path d="M7903.73 763.649L8052.23 762.353M7903.73 763.649L7913.55 766.905L7913.59 771.393L8044.47 770.251C8048.79 770.213 8052.27 766.677 8052.23 762.353M7903.73 763.649L7903.65 754.344L7991.77 753.575M8052.23 762.353C8052.21 759.845 8049.92 757.969 8047.46 758.439L8043.23 759.246C8043.23 759.246 8045.07 754.697 8046.43 752.078C8048.07 748.907 8051.26 744.897 8051.26 744.897L8034.94 745.039M7991.77 753.575L7997.07 753.529L8005.16 745.299L8034.94 745.039M7991.77 753.575L8005.92 739.172M8005.92 739.172L8028.77 738.973M8005.92 739.172L8004.25 734.291L8031.17 734.056L8028.77 738.973M8028.77 738.973L8034.94 745.039M8012.79 730.953L8006.98 720.396L8004.54 720.417L8007.89 730.996M8012.79 730.953L8007.89 730.996M8012.79 730.953C8016.58 730.92 8020.37 731.302 8024.09 732.093L8033.21 734.039L8002.62 734.306L8004.24 733.067L8007.1 733.043L8007.08 731.003L8007.89 730.996" stroke="#8E8E8E" id="n109"/>
<path d="M8133.2 592C8137.68 592 8139.92 592 8141.63 592.872C8143.14 593.639 8144.36 594.863 8145.13 596.369C8146 598.08 8146 600.32 8146 604.8L8146 915.201C8146 919.681 8146 921.921 8145.13 923.632C8144.36 925.138 8143.14 926.362 8141.63 927.129C8139.92 928 8137.68 928 8133.2 928L8086.8 928C8082.32 928 8080.08 928 8078.37 927.129C8076.86 926.362 8075.64 925.138 8074.87 923.632C8074 921.921 8074 919.681 8074 915.2L8074 604.8C8074 600.32 8074 598.08 8074.87 596.369C8075.64 594.863 8076.86 593.639 8078.37 592.872C8080.08 592 8082.32 592 8086.8 592L8133.2 592Z" fill="white" stroke="white" id="n110"/>
<path d="M8122 592L8122 928L8086.8 928C8082.32 928 8080.08 928 8078.37 927.129C8076.86 926.362 8075.64 925.138 8074.87 923.632C8074 921.921 8074 919.681 8074 915.2L8074 604.8C8074 600.32 8074 598.08 8074.87 596.369C8075.64 594.863 8076.86 593.639 8078.37 592.872C8080.08 592 8082.32 592 8086.8 592L8122 592Z" fill="#F0F0F0" stroke="#F0F0F0" id="n111"/>
<path d="M8133.2 592C8137.68 592 8139.92 592 8141.63 592.872C8143.14 593.639 8144.36 594.863 8145.13 596.369C8146 598.08 8146 600.32 8146 604.8L8146 915.201C8146 919.681 8146 921.921 8145.13 923.632C8144.36 925.138 8143.14 926.362 8141.63 927.129C8139.92 928 8137.68 928 8133.2 928L8086.8 928C8082.32 928 8080.08 928 8078.37 927.129C8076.86 926.362 8075.64 925.138 8074.87 923.632C8074 921.921 8074 919.681 8074 915.2L8074 604.8C8074 600.32 8074 598.08 8074.87 596.369C8075.64 594.863 8076.86 593.639 8078.37 592.872C8080.08 592 8082.32 592 8086.8 592L8133.2 592Z" stroke="#BEBEBE" id="n112"/>
<path d="M8146 760L8074 760" stroke="#BEBEBE" stroke-linecap="square" id="n113"/>
<mask id="mask12_68_6728" style="mask-type:luminance" maskUnits="userSpaceOnUse" x="8121" y="504" width="26" height="512">
<path d="M8133.2 592C8137.68 592 8139.92 592 8141.63 592.872C8143.14 593.639 8144.36 594.863 8145.13 596.369C8146 598.08 8146 600.32 8146 604.8L8146 915.201C8146 919.681 8146 921.921 8145.13 923.632C8144.36 925.138 8143.14 926.362 8141.63 927.129C8139.92 928 8137.68 928 8133.2 928L8122 928L8122 592L8133.2 592Z" fill="white" stroke="black" id="n114"/>
</mask>
<g mask="url(#mask12_68_6728)" id="n115">
<path d="M8134 760L8126 760M8134 776.8L8126 776.8M8134 793.6L8126 793.6M8134 810.4L8126 810.4M8134 827.2L8126 827.2M8134 844L8126 844M8134 860.8L8126 860.8M8134 877.6L8126 877.6M8134 894.4L8126 894.4M8134 911.2L8126 911.2M8134 928L8126 928M8134 743.2L8126 743.2M8134 726.4L8126 726.4M8134 709.6L8126 709.6M8134 692.8L8126 692.8M8134 676L8126 676M8134 659.2L8126 659.2M8134 642.4L8126 642.4M8134 625.6L8126 625.6M8134 608.8L8126 608.8M8134 592L8126 592" stroke="#BEBEBE" id="n116"/>
<path d="M8150 760L8126 760M8150 844L8126 844M8150 928L8126 928M8150 676L8126 676M8150 592L8126 592" stroke="#BEBEBE" id="n117"/>
<path d="M8150 760L8122 760" stroke="#BEBEBE" id="n118"/>
</g>
<mask id="mask13_68_6728" style="mask-type:alpha" maskUnits="userSpaceOnUse" x="7854" y="504" width="512" height="512">
<path d="M8122 592L8122 928L8086.8 928C8082.32 928 8080.08 928 8078.37 927.129C8076.86 926.362 8075.64 925.138 8074.87 923.632C8074 921.921 8074 919.681 8074 915.2L8074 604.8C8074 600.32 8074 598.08 8074.87 596.369C8075.64 594.863 8076.86 593.639 8078.37 592.872C8080.08 592 8082.32 592 8086.8 592L8122 592Z" fill="white" stroke="black" id="n119"/>
</mask>
<g mask="url(#mask13_68_6728)" id="n120">
<rect width="48" height="42" transform="matrix(1 0 0 -1 8074 802)" fill="#BEBEBE" stroke="#BEBEBE" id="n121"/>
<rect width="48" height="8" rx="4" transform="matrix(1 0 0 -1 8074 805.72)" fill="#535353" stroke="#BEBEBE" id="n122"/>
</g>
<path d="M7822.8 928C7818.32 928 7816.08 928 7814.37 927.128C7812.86 926.361 7811.64 925.137 7810.87 923.632C7810 921.921 7810 919.68 7810 915.2L7810 604.8C7810 600.32 7810 598.079 7810.87 596.368C7811.64 594.863 7812.86 593.639 7814.37 592.872C7816.08 592 7818.32 592 7822.8 592L7869.2 592C7873.68 592 7875.92 592 7877.63 592.872C7879.14 593.639 7880.36 594.863 7881.13 596.368C7882 598.079 7882 600.32 7882 604.8L7882 915.2C7882 919.68 7882 921.921 7881.13 923.632C7880.36 925.137 7879.14 926.361 7877.63 927.128C7875.92 928 7873.68 928 7869.2 928L7822.8 928Z" fill="white" stroke="white" id="n123"/>
<path d="M7834 928L7834 592L7869.2 592C7873.68 592 7875.92 592 7877.63 592.872C7879.14 593.639 7880.36 594.863 7881.13 596.368C7882 598.079 7882 600.32 7882 604.8L7882 915.2C7882 919.68 7882 921.921 7881.13 923.632C7880.36 925.137 7879.14 926.361 7877.63 927.128C7875.92 928 7873.68 928 7869.2 928L7834 928Z" fill="#F0F0F0" stroke="#F0F0F0" id="n124"/>
<path d="M7822.8 928C7818.32 928 7816.08 928 7814.37 927.128C7812.86 926.361 7811.64 925.137 7810.87 923.632C7810 921.921 7810 919.68 7810 915.2L7810 604.8C7810 600.32 7810 598.079 7810.87 596.368C7811.64 594.863 7812.86 593.639 7814.37 592.872C7816.08 592 7818.32 592 7822.8 592L7869.2 592C7873.68 592 7875.92 592 7877.63 592.872C7879.14 593.639 7880.36 594.863 7881.13 596.368C7882 598.079 7882 600.32 7882 604.8L7882 915.2C7882 919.68 7882 921.921 7881.13 923.632C7880.36 925.137 7879.14 926.361 7877.63 927.128C7875.92 928 7873.68 928 7869.2 928L7822.8 928Z" stroke="#BEBEBE" id="n125"/>
<path d="M7810 760L7882 760" stroke="#BEBEBE" stroke-linecap="square" id="n126"/>
<mask id="mask14_68_6728" style="mask-type:luminance" maskUnits="userSpaceOnUse" x="7809" y="504" width="26" height="512">
<path d="M7822.8 928C7818.32 928 7816.08 928 7814.37 927.128C7812.86 926.361 7811.64 925.137 7810.87 923.632C7810 921.921 7810 919.68 7810 915.2L7810 604.8C7810 600.32 7810 598.079 7810.87 596.368C7811.64 594.863 7812.86 593.639 7814.37 592.872C7816.08 592 7818.32 592 7822.8 592L7834 592L7834 928L7822.8 928Z" fill="white" stroke="black" id="n127"/>
</mask>
<g mask="url(#mask14_68_6728)" id="n128">
<path d="M7822 760L7830 760M7822 743.2L7830 743.2M7822 726.4L7830 726.4M7822 709.6L7830 709.6M7822 692.8L7830 692.8M7822 676L7830 676M7822 659.2L7830 659.2M7822 642.4L7830 642.4M7822 625.6L7830 625.6M7822 608.8L7830 608.8M7822 592L7830 592M7822 776.8L7830 776.8M7822 793.6L7830 793.6M7822 810.4L7830 810.4M7822 827.2L7830 827.2M7822 844L7830 844M7822 860.8L7830 860.8M7822 877.6L7830 877.6M7822 894.4L7830 894.4M7822 911.2L7830 911.2M7822 928L7830 928" stroke="#BEBEBE" id="n129"/>
<path d="M7806 760L7830 760M7806 676L7830 676M7806 592L7830 592M7806 844L7830 844M7806 928L7830 928" stroke="#BEBEBE" id="n130"/>
</g>
<mask id="mask15_68_6728" style="mask-type:alpha" maskUnits="userSpaceOnUse" x="7590" y="504" width="512" height="512">
<path d="M7834 592L7834 928L7869.2 928C7873.68 928 7875.92 928 7877.63 927.129C7879.14 926.362 7880.36 925.138 7881.13 923.632C7882 921.921 7882 919.681 7882 915.2L7882 604.8C7882 600.32 7882 598.08 7881.13 596.369C7880.36 594.863 7879.14 593.639 7877.63 592.872C7875.92 592 7873.68 592 7869.2 592L7834 592Z" fill="white" stroke="black" id="n131"/>
</mask>
<g mask="url(#mask15_68_6728)" id="n132">
<rect width="48" height="84" transform="matrix(1 0 0 -1 7834 844)" fill="#BEBEBE" stroke="#BEBEBE" id="n133"/>
<rect width="48" height="8" rx="4" transform="matrix(1 0 0 -1 7834 847.72)" fill="#535353" stroke="#BEBEBE" id="n134"/>
</g>
<path d="M8074 1208H7882" stroke="#BEBEBE" stroke-linecap="round" id="n135"/>
<path d="M8074 1376H7882" stroke="#BEBEBE" stroke-linecap="round" id="n136"/>
<path d="M8074 1040H7882" stroke="#BEBEBE" stroke-linecap="round" id="n137"/>
<rect x="7884" y="1208" width="188" height="168" fill="#F0F0F0" id="n138"/>
<path d="M8044.47 1218.25L7913.59 1219.39L7913.55 1214.9L7903.73 1211.65L7903.65 1202.34L7991.77 1201.57L8005.92 1187.17L8004.25 1182.29L8002.62 1182.31L8004.24 1181.07L8007.1 1181.04L8007.08 1179L8007.89 1179L8004.54 1168.42L8006.98 1168.4L8012.79 1178.95C8016.58 1178.92 8020.37 1179.3 8024.09 1180.09L8033.21 1182.04L8031.17 1182.06L8028.77 1186.97L8034.94 1193.04L8051.26 1192.9C8051.26 1192.9 8048.07 1196.91 8046.43 1200.08C8045.07 1202.7 8043.23 1207.25 8043.23 1207.25L8047.46 1206.44C8049.92 1205.97 8052.21 1207.84 8052.23 1210.35C8052.27 1214.68 8048.79 1218.21 8044.47 1218.25Z" fill="white" id="n139"/>
<path d="M7903.73 1211.65L8052.23 1210.35M7903.73 1211.65L7913.55 1214.9L7913.59 1219.39L8044.47 1218.25C8048.79 1218.21 8052.27 1214.68 8052.23 1210.35M7903.73 1211.65L7903.65 1202.34L7991.77 1201.57M8052.23 1210.35C8052.21 1207.84 8049.92 1205.97 8047.46 1206.44L8043.23 1207.25C8043.23 1207.25 8045.07 1202.7 8046.43 1200.08C8048.07 1196.91 8051.26 1192.9 8051.26 1192.9L8034.94 1193.04M7991.77 1201.57L7997.07 1201.53L8005.16 1193.3L8034.94 1193.04M7991.77 1201.57L8005.92 1187.17M8005.92 1187.17L8028.77 1186.97M8005.92 1187.17L8004.25 1182.29L8031.17 1182.06L8028.77 1186.97M8028.77 1186.97L8034.94 1193.04M8012.79 1178.95L8006.98 1168.4L8004.54 1168.42L8007.89 1179M8012.79 1178.95L8007.89 1179M8012.79 1178.95C8016.58 1178.92 8020.37 1179.3 8024.09 1180.09L8033.21 1182.04L8002.62 1182.31L8004.24 1181.07L8007.1 1181.04L8007.08 1179L8007.89 1179" stroke="#8E8E8E" id="n140"/>
<path d="M8133.2 1040C8137.68 1040 8139.92 1040 8141.63 1040.87C8143.14 1041.64 8144.36 1042.86 8145.13 1044.37C8146 1046.08 8146 1048.32 8146 1052.8L8146 1363.2C8146 1367.68 8146 1369.92 8145.13 1371.63C8144.36 1373.14 8143.14 1374.36 8141.63 1375.13C8139.92 1376 8137.68 1376 8133.2 1376L8086.8 1376C8082.32 1376 8080.08 1376 8078.37 1375.13C8076.86 1374.36 8075.64 1373.14 8074.87 1371.63C8074 1369.92 8074 1367.68 8074 1363.2L8074 1052.8C8074 1048.32 8074 1046.08 8074.87 1044.37C8075.64 1042.86 8076.86 1041.64 8078.37 1040.87C8080.08 1040 8082.32 1040 8086.8 1040L8133.2 1040Z" fill="white" stroke="white" id="n141"/>
<path d="M8122 1040L8122 1376L8086.8 1376C8082.32 1376 8080.08 1376 8078.37 1375.13C8076.86 1374.36 8075.64 1373.14 8074.87 1371.63C8074 1369.92 8074 1367.68 8074 1363.2L8074 1052.8C8074 1048.32 8074 1046.08 8074.87 1044.37C8075.64 1042.86 8076.86 1041.64 8078.37 1040.87C8080.08 1040 8082.32 1040 8086.8 1040L8122 1040Z" fill="#F0F0F0" stroke="#F0F0F0" id="n142"/>
<path d="M8133.2 1040C8137.68 1040 8139.92 1040 8141.63 1040.87C8143.14 1041.64 8144.36 1042.86 8145.13 1044.37C8146 1046.08 8146 1048.32 8146 1052.8L8146 1363.2C8146 1367.68 8146 1369.92 8145.13 1371.63C8144.36 1373.14 8143.14 1374.36 8141.63 1375.13C8139.92 1376 8137.68 1376 8133.2 1376L8086.8 1376C8082.32 1376 8080.08 1376 8078.37 1375.13C8076.86 1374.36 8075.64 1373.14 8074.87 1371.63C8074 1369.92 8074 1367.68 8074 1363.2L8074 1052.8C8074 1048.32 8074 1046.08 8074.87 1044.37C8075.64 1042.86 8076.86 1041.64 8078.37 1040.87C8080.08 1040 8082.32 1040 8086.8 1040L8133.2 1040Z" stroke="#BEBEBE" id="n143"/>
<path d="M8146 1208L8074 1208" stroke="#BEBEBE" stroke-linecap="square" id="n144"/>
<mask id="mask16_68_6728" style="mask-type:luminance" maskUnits="userSpaceOnUse" x="8121" y="952" width="26" height="512">
<path d="M8133.2 1040C8137.68 1040 8139.92 1040 8141.63 1040.87C8143.14 1041.64 8144.36 1042.86 8145.13 1044.37C8146 1046.08 8146 1048.32 8146 1052.8L8146 1363.2C8146 1367.68 8146 1369.92 8145.13 1371.63C8144.36 1373.14 8143.14 1374.36 8141.63 1375.13C8139.92 1376 8137.68 1376 8133.2 1376L8122 1376L8122 1040L8133.2 1040Z" fill="white" stroke="black" id="n145"/>
</mask>
<g mask="url(#mask16_68_6728)" id="n146">
<path d="M8134 1208L8126 1208M8134 1224.8L8126 1224.8M8134 1241.6L8126 1241.6M8134 1258.4L8126 1258.4M8134 1275.2L8126 1275.2M8134 1292L8126 1292M8134 1308.8L8126 1308.8M8134 1325.6L8126 1325.6M8134 1342.4L8126 1342.4M8134 1359.2L8126 1359.2M8134 1376L8126 1376M8134 1191.2L8126 1191.2M8134 1174.4L8126 1174.4M8134 1157.6L8126 1157.6M8134 1140.8L8126 1140.8M8134 1124L8126 1124M8134 1107.2L8126 1107.2M8134 1090.4L8126 1090.4M8134 1073.6L8126 1073.6M8134 1056.8L8126 1056.8M8134 1040L8126 1040" stroke="#BEBEBE" id="n147"/>
<path d="M8150 1208L8126 1208M8150 1292L8126 1292M8150 1376L8126 1376M8150 1124L8126 1124M8150 1040L8126 1040" stroke="#BEBEBE" id="n148"/>
<path d="M8150 1208L8122 1208" stroke="#BEBEBE" id="n149"/>
</g>
<mask id="mask17_68_6728" style="mask-type:alpha" maskUnits="userSpaceOnUse" x="7854" y="952" width="512" height="512">
<path d="M8122 1040L8122 1376L8086.8 1376C8082.32 1376 8080.08 1376 8078.37 1375.13C8076.86 1374.36 8075.64 1373.14 8074.87 1371.63C8074 1369.92 8074 1367.68 8074 1363.2L8074 1052.8C8074 1048.32 8074 1046.08 8074.87 1044.37C8075.64 1042.86 8076.86 1041.64 8078.37 1040.87C8080.08 1040 8082.32 1040 8086.8 1040L8122 1040Z" fill="white" stroke="black" id="n150"/>
</mask>
<g mask="url(#mask17_68_6728)" id="n151">
<rect width="48" height="42" transform="matrix(1 0 0 -1 8074 1250)" fill="#9CC1F5" stroke="#9CC1F5" id="n152"/>
<rect width="48" height="8" rx="4" transform="matrix(1 0 0 -1 8074 1253.72)" fill="#2D548B" stroke="#9CC1F5" id="n153"/>
</g>
<path d="M7822.8 1376C7818.32 1376 7816.08 1376 7814.37 1375.13C7812.86 1374.36 7811.64 1373.14 7810.87 1371.63C7810 1369.92 7810 1367.68 7810 1363.2L7810 1052.8C7810 1048.32 7810 1046.08 7810.87 1044.37C7811.64 1042.86 7812.86 1041.64 7814.37 1040.87C7816.08 1040 7818.32 1040 7822.8 1040L7869.2 1040C7873.68 1040 7875.92 1040 7877.63 1040.87C7879.14 1041.64 7880.36 1042.86 7881.13 1044.37C7882 1046.08 7882 1048.32 7882 1052.8L7882 1363.2C7882 1367.68 7882 1369.92 7881.13 1371.63C7880.36 1373.14 7879.14 1374.36 7877.63 1375.13C7875.92 1376 7873.68 1376 7869.2 1376L7822.8 1376Z" fill="white" stroke="white" id="n154"/>
<path d="M7834 1376L7834 1040L7869.2 1040C7873.68 1040 7875.92 1040 7877.63 1040.87C7879.14 1041.64 7880.36 1042.86 7881.13 1044.37C7882 1046.08 7882 1048.32 7882 1052.8L7882 1363.2C7882 1367.68 7882 1369.92 7881.13 1371.63C7880.36 1373.14 7879.14 1374.36 7877.63 1375.13C7875.92 1376 7873.68 1376 7869.2 1376L7834 1376Z" fill="#F0F0F0" stroke="#F0F0F0" id="n155"/>
<path d="M7822.8 1376C7818.32 1376 7816.08 1376 7814.37 1375.13C7812.86 1374.36 7811.64 1373.14 7810.87 1371.63C7810 1369.92 7810 1367.68 7810 1363.2L7810 1052.8C7810 1048.32 7810 1046.08 7810.87 1044.37C7811.64 1042.86 7812.86 1041.64 7814.37 1040.87C7816.08 1040 7818.32 1040 7822.8 1040L7869.2 1040C7873.68 1040 7875.92 1040 7877.63 1040.87C7879.14 1041.64 7880.36 1042.86 7881.13 1044.37C7882 1046.08 7882 1048.32 7882 1052.8L7882 1363.2C7882 1367.68 7882 1369.92 7881.13 1371.63C7880.36 1373.14 7879.14 1374.36 7877.63 1375.13C7875.92 1376 7873.68 1376 7869.2 1376L7822.8 1376Z" stroke="#BEBEBE" id="n156"/>
<path d="M7810 1208L7882 1208" stroke="#BEBEBE" stroke-linecap="square" id="n157"/>
<mask id="mask18_68_6728" style="mask-type:luminance" maskUnits="userSpaceOnUse" x="7809" y="952" width="26" height="512">
<path d="M7822.8 1376C7818.32 1376 7816.08 1376 7814.37 1375.13C7812.86 1374.36 7811.64 1373.14 7810.87 1371.63C7810 1369.92 7810 1367.68 7810 1363.2L7810 1052.8C7810 1048.32 7810 1046.08 7810.87 1044.37C7811.64 1042.86 7812.86 1041.64 7814.37 1040.87C7816.08 1040 7818.32 1040 7822.8 1040L7834 1040L7834 1376L7822.8 1376Z" fill="white" stroke="black" id="n158"/>
</mask>
<g mask="url(#mask18_68_6728)" id="n159">
<path d="M7822 1208L7830 1208M7822 1191.2L7830 1191.2M7822 1174.4L7830 1174.4M7822 1157.6L7830 1157.6M7822 1140.8L7830 1140.8M7822 1124L7830 1124M7822 1107.2L7830 1107.2M7822 1090.4L7830 1090.4M7822 1073.6L7830 1073.6M7822 1056.8L7830 1056.8M7822 1040L7830 1040M7822 1224.8L7830 1224.8M7822 1241.6L7830 1241.6M7822 1258.4L7830 1258.4M7822 1275.2L7830 1275.2M7822 1292L7830 1292M7822 1308.8L7830 1308.8M7822 1325.6L7830 1325.6M7822 1342.4L7830 1342.4M7822 1359.2L7830 1359.2M7822 1376L7830 1376" stroke="#BEBEBE" id="n160"/>
<path d="M7806 1208L7830 1208M7806 1124L7830 1124M7806 1040L7830 1040M7806 1292L7830 1292M7806 1376L7830 1376" stroke="#BEBEBE" id="n161"/>
</g>
<mask id="mask19_68_6728" style="mask-type:alpha" maskUnits="userSpaceOnUse" x="7590" y="952" width="512" height="512">
<path d="M7834 1040L7834 1376L7869.2 1376C7873.68 1376 7875.92 1376 7877.63 1375.13C7879.14 1374.36 7880.36 1373.14 7881.13 1371.63C7882 1369.92 7882 1367.68 7882 1363.2L7882 1052.8C7882 1048.32 7882 1046.08 7881.13 1044.37C7880.36 1042.86 7879.14 1041.64 7877.63 1040.87C7875.92 1040 7873.68 1040 7869.2 1040L7834 1040Z" fill="white" stroke="black" id="n162"/>
</mask>
<g mask="url(#mask19_68_6728)" id="n163">
<rect width="48" height="84" transform="matrix(1 0 0 -1 7834 1292)" fill="#9CC1F5" stroke="#9CC1F5" id="n164"/>
<rect width="48" height="8" rx="4" transform="matrix(1 0 0 -1 7834 1295.72)" fill="#2D548B" stroke="#9CC1F5" id="n165"/>
</g>
</g>
</g>
</svg>
