<?xml version='1.0' encoding='utf-8'?>
<svg xmlns="http://www.w3.org/2000/svg" xmlns:xlink="http://www.w3.org/1999/xlink" width="64.0" height="256.0" viewBox="0 0 64.0 256.0" fill="none">
  <defs><clipPath id="clip__asset"><rect x="0" y="0" width="64.0" height="256.0"/></clipPath><mask id="path-1101-inside-60_1702_11540" fill="white">
<path d="M11600 750H11664V1006H11600V750Z" id="n1398"/>
</mask>
</defs>
  <g clip-path="url(#clip__asset)" transform="translate(-11600.0 -750.0)"><path d="M11600 750V751H11664V750V749H11600V750Z" fill="#DDDDDD" mask="url(#path-1101-inside-60_1702_11540)" id="n1399"/>
<path d="M11622 770.995V768.997H11624V770.995H11622Z" fill="#535353" id="n1400"/>
<path d="M11622 774.992V772.993H11624V774.992H11622Z" fill="#535353" id="n1401"/>
<path d="M11622 766.998V765H11624V766.998H11622Z" fill="#535353" id="n1402"/>
<path d="M11626 770.995V768.997H11633L11632.4 770.126L11632 770.995H11626Z" fill="#535353" id="n1403"/>
<path d="M11626 774.992V772.993H11631L11630 774.992H11626Z" fill="#535353" id="n1404"/>
<path d="M11626 766.998V765H11639.8V766.998H11626Z" fill="#535353" id="n1405"/>
<path fill-rule="evenodd" clip-rule="evenodd" d="M11641.9 780.719L11636.3 769.491C11636 768.836 11635 768.836 11634.7 769.491L11629.1 780.719C11628.8 781.315 11629.2 782 11629.9 782H11641.1C11641.8 782 11642.2 781.315 11641.9 780.719ZM11634.7 780.5H11636.2V779H11634.7V780.5ZM11634.7 777.5H11636.2V773H11634.7V777.5Z" fill="#535353" id="n1406"/>
<path d="M11622.5 799L11621.4 796.252H11618L11616.9 799H11615.9L11619.3 790.396H11620.2L11623.5 799H11622.5ZM11620.1 792.652C11620.1 792.588 11620 792.476 11620 792.316C11619.9 792.156 11619.9 791.992 11619.8 791.824C11619.8 791.648 11619.7 791.508 11619.7 791.404C11619.7 791.564 11619.6 791.724 11619.6 791.884C11619.5 792.036 11619.5 792.18 11619.4 792.316C11619.4 792.444 11619.4 792.56 11619.3 792.664L11618.3 795.4H11621.1L11620.1 792.652ZM11625.5 799H11624.5V789.88H11625.5V799ZM11630 792.46C11630.5 792.46 11631 792.584 11631.4 792.832C11631.8 793.072 11632.1 793.412 11632.3 793.852C11632.5 794.284 11632.6 794.792 11632.6 795.376V795.964H11628.1C11628.2 796.724 11628.3 797.308 11628.7 797.716C11629.1 798.116 11629.6 798.316 11630.3 798.316C11630.7 798.316 11631 798.28 11631.3 798.208C11631.6 798.128 11632 798.016 11632.3 797.872V798.7C11632 798.844 11631.7 798.948 11631.3 799.012C11631 799.084 11630.6 799.12 11630.2 799.12C11629.6 799.12 11629.1 798.996 11628.6 798.748C11628.1 798.492 11627.8 798.12 11627.5 797.632C11627.3 797.136 11627.2 796.54 11627.2 795.844C11627.2 795.156 11627.3 794.56 11627.5 794.056C11627.7 793.552 11628.1 793.16 11628.5 792.88C11628.9 792.6 11629.4 792.46 11630 792.46ZM11630 793.24C11629.4 793.24 11629 793.412 11628.7 793.756C11628.4 794.1 11628.2 794.584 11628.2 795.208H11631.6C11631.6 794.816 11631.5 794.476 11631.4 794.188C11631.3 793.892 11631.1 793.66 11630.9 793.492C11630.7 793.324 11630.3 793.24 11630 793.24ZM11637.1 792.472C11637.3 792.472 11637.4 792.48 11637.5 792.496C11637.7 792.504 11637.8 792.52 11637.9 792.544L11637.8 793.42C11637.7 793.388 11637.6 793.364 11637.4 793.348C11637.3 793.332 11637.2 793.324 11637.1 793.324C11636.8 793.324 11636.6 793.38 11636.3 793.492C11636.1 793.596 11635.9 793.744 11635.7 793.936C11635.6 794.128 11635.4 794.36 11635.3 794.632C11635.2 794.904 11635.2 795.208 11635.2 795.544V799H11634.2V792.58H11635L11635.1 793.768H11635.2C11635.3 793.528 11635.4 793.312 11635.6 793.12C11635.8 792.92 11636 792.764 11636.3 792.652C11636.5 792.532 11636.8 792.472 11637.1 792.472ZM11641.2 798.34C11641.3 798.34 11641.5 798.328 11641.7 798.304C11641.8 798.272 11642 798.24 11642.1 798.208V798.928C11642 798.984 11641.8 799.028 11641.6 799.06C11641.4 799.1 11641.2 799.12 11641 799.12C11640.7 799.12 11640.4 799.06 11640.1 798.94C11639.8 798.82 11639.6 798.62 11639.4 798.34C11639.3 798.052 11639.2 797.656 11639.2 797.152V793.324H11638.3V792.856L11639.2 792.496L11639.6 791.092H11640.1V792.58H11642V793.324H11640.1V797.128C11640.1 797.536 11640.2 797.84 11640.4 798.04C11640.6 798.24 11640.8 798.34 11641.2 798.34ZM11647.5 797.248C11647.5 797.656 11647.4 798 11647.2 798.28C11647 798.552 11646.7 798.76 11646.3 798.904C11646 799.048 11645.5 799.12 11645 799.12C11644.5 799.12 11644.2 799.084 11643.8 799.012C11643.5 798.94 11643.2 798.84 11643 798.712V797.848C11643.2 797.976 11643.5 798.092 11643.9 798.196C11644.3 798.3 11644.6 798.352 11645 798.352C11645.6 798.352 11646 798.26 11646.2 798.076C11646.5 797.892 11646.6 797.644 11646.6 797.332C11646.6 797.148 11646.6 796.988 11646.5 796.852C11646.4 796.716 11646.2 796.584 11645.9 796.456C11645.7 796.328 11645.4 796.188 11645 796.036C11644.6 795.884 11644.2 795.732 11643.9 795.58C11643.6 795.428 11643.4 795.24 11643.2 795.016C11643.1 794.792 11643 794.504 11643 794.152C11643 793.608 11643.2 793.192 11643.6 792.904C11644.1 792.608 11644.6 792.46 11645.4 792.46C11645.8 792.46 11646.1 792.5 11646.5 792.58C11646.8 792.652 11647.1 792.752 11647.4 792.88L11647.1 793.648C11646.9 793.568 11646.7 793.5 11646.5 793.444C11646.3 793.38 11646.1 793.332 11645.9 793.3C11645.7 793.26 11645.5 793.24 11645.3 793.24C11644.8 793.24 11644.5 793.316 11644.2 793.468C11644 793.62 11643.9 793.828 11643.9 794.092C11643.9 794.292 11643.9 794.46 11644.1 794.596C11644.2 794.724 11644.3 794.844 11644.6 794.956C11644.8 795.068 11645.2 795.2 11645.6 795.352C11646 795.496 11646.3 795.648 11646.6 795.808C11646.9 795.96 11647.1 796.152 11647.3 796.384C11647.4 796.608 11647.5 796.896 11647.5 797.248Z" fill="#535353" id="n1407"/>
<path d="M11631 844H11633V842H11631V844Z" fill="#535353" id="n1408"/>
<path d="M11632 832C11629.8 832 11628 833.79 11628 836H11630C11630 834.9 11630.9 834 11632 834C11633.1 834 11634 834.9 11634 836C11634 838 11631 837.75 11631 841H11633C11633 838.75 11636 838.5 11636 836C11636 833.79 11634.2 832 11632 832Z" fill="#535353" id="n1409"/>
<path fill-rule="evenodd" clip-rule="evenodd" d="M11632 828C11626.5 828 11622 832.48 11622 838C11622 843.52 11626.5 848 11632 848C11637.5 848 11642 843.52 11642 838C11642 832.48 11637.5 828 11632 828ZM11632 846C11627.6 846 11624 842.41 11624 838C11624 833.59 11627.6 830 11632 830C11636.4 830 11640 833.59 11640 838C11640 842.41 11636.4 846 11632 846Z" fill="#535353" id="n1410"/>
<path d="M11626.7 863H11625.7V858.944H11621.2V863H11620.2V854.432H11621.2V858.104H11625.7V854.432H11626.7V863ZM11631.4 856.46C11631.9 856.46 11632.4 856.584 11632.8 856.832C11633.2 857.072 11633.5 857.412 11633.7 857.852C11633.9 858.284 11634 858.792 11634 859.376V859.964H11629.5C11629.6 860.724 11629.7 861.308 11630.1 861.716C11630.5 862.116 11631 862.316 11631.7 862.316C11632.1 862.316 11632.4 862.28 11632.7 862.208C11633 862.128 11633.4 862.016 11633.7 861.872V862.7C11633.4 862.844 11633.1 862.948 11632.7 863.012C11632.4 863.084 11632.1 863.12 11631.6 863.12C11631 863.12 11630.5 862.996 11630 862.748C11629.5 862.492 11629.2 862.12 11628.9 861.632C11628.7 861.136 11628.6 860.54 11628.6 859.844C11628.6 859.156 11628.7 858.56 11628.9 858.056C11629.1 857.552 11629.5 857.16 11629.9 856.88C11630.3 856.6 11630.8 856.46 11631.4 856.46ZM11631.4 857.24C11630.9 857.24 11630.4 857.412 11630.1 857.756C11629.8 858.1 11629.6 858.584 11629.6 859.208H11633C11633 858.816 11633 858.476 11632.8 858.188C11632.7 857.892 11632.5 857.66 11632.3 857.492C11632.1 857.324 11631.8 857.24 11631.4 857.24ZM11636.6 863H11635.6V853.88H11636.6V863ZM11641.6 856.46C11642.4 856.46 11643.1 856.736 11643.6 857.288C11644 857.84 11644.3 858.668 11644.3 859.772C11644.3 860.5 11644.2 861.116 11643.9 861.62C11643.7 862.116 11643.4 862.492 11643 862.748C11642.6 862.996 11642.2 863.12 11641.6 863.12C11641.3 863.12 11641 863.072 11640.7 862.976C11640.4 862.88 11640.2 862.756 11640 862.604C11639.9 862.452 11639.7 862.284 11639.6 862.1H11639.5C11639.5 862.252 11639.6 862.436 11639.6 862.652C11639.6 862.868 11639.6 863.06 11639.6 863.228V865.868H11638.6V856.58H11639.4L11639.5 857.552H11639.6C11639.7 857.352 11639.9 857.172 11640 857.012C11640.2 856.844 11640.5 856.712 11640.7 856.616C11641 856.512 11641.3 856.46 11641.6 856.46ZM11641.5 857.264C11641 857.264 11640.7 857.352 11640.4 857.528C11640.1 857.704 11639.9 857.964 11639.8 858.308C11639.7 858.652 11639.6 859.084 11639.6 859.604V859.784C11639.6 860.336 11639.7 860.8 11639.8 861.176C11639.9 861.552 11640.1 861.84 11640.4 862.04C11640.7 862.232 11641 862.328 11641.5 862.328C11641.9 862.328 11642.2 862.22 11642.5 862.004C11642.8 861.788 11643 861.488 11643.1 861.104C11643.2 860.72 11643.3 860.272 11643.3 859.76C11643.3 858.984 11643.1 858.376 11642.8 857.936C11642.5 857.488 11642.1 857.264 11641.5 857.264Z" fill="#535353" id="n1411"/>
<path d="M11629.3 912L11628.9 908.8C11628.6 908.717 11628.4 908.617 11628.2 908.5C11628 908.383 11627.9 908.258 11627.7 908.125L11624.7 909.375L11622 904.625L11624.5 902.675C11624.5 902.558 11624.5 902.446 11624.5 902.338V901.663C11624.5 901.554 11624.5 901.442 11624.5 901.325L11622 899.375L11624.7 894.625L11627.7 895.875C11627.9 895.742 11628.1 895.617 11628.3 895.5C11628.5 895.383 11628.7 895.283 11628.9 895.2L11629.3 892H11634.8L11635.2 895.2C11635.4 895.283 11635.6 895.383 11635.8 895.5C11636 895.617 11636.1 895.742 11636.3 895.875L11639.3 894.625L11642.1 899.375L11639.5 901.325C11639.5 901.442 11639.5 901.554 11639.5 901.663V902.338C11639.5 902.446 11639.5 902.558 11639.5 902.675L11642 904.625L11639.3 909.375L11636.3 908.125C11636.1 908.258 11636 908.383 11635.8 908.5C11635.6 908.617 11635.4 908.717 11635.2 908.8L11634.8 912H11629.3ZM11631 910H11633L11633.3 907.35C11633.8 907.217 11634.3 907.021 11634.8 906.762C11635.2 906.504 11635.6 906.192 11636 905.825L11638.5 906.85L11639.4 905.15L11637.3 903.525C11637.4 903.292 11637.4 903.046 11637.5 902.788C11637.5 902.529 11637.5 902.267 11637.5 902C11637.5 901.733 11637.5 901.471 11637.5 901.213C11637.4 900.954 11637.4 900.708 11637.3 900.475L11639.4 898.85L11638.5 897.15L11636 898.2C11635.6 897.817 11635.2 897.496 11634.8 897.238C11634.3 896.979 11633.8 896.783 11633.3 896.65L11633 894H11631L11630.7 896.65C11630.2 896.783 11629.7 896.979 11629.2 897.238C11628.8 897.496 11628.4 897.808 11628 898.175L11625.6 897.15L11624.6 898.85L11626.7 900.45C11626.6 900.7 11626.6 900.95 11626.6 901.2C11626.5 901.45 11626.5 901.717 11626.5 902C11626.5 902.267 11626.5 902.525 11626.6 902.775C11626.6 903.025 11626.6 903.275 11626.7 903.525L11624.6 905.15L11625.6 906.85L11628 905.8C11628.4 906.183 11628.8 906.504 11629.2 906.762C11629.7 907.021 11630.2 907.217 11630.7 907.35L11631 910Z" fill="#535353" id="n1412"/>
<path fill-rule="evenodd" clip-rule="evenodd" d="M11632 903.5C11632.8 903.5 11633.5 902.828 11633.5 902C11633.5 901.172 11632.8 900.5 11632 900.5C11631.2 900.5 11630.5 901.172 11630.5 902C11630.5 902.828 11631.2 903.5 11632 903.5ZM11632 905.5C11633.9 905.5 11635.5 903.933 11635.5 902C11635.5 900.067 11633.9 898.5 11632 898.5C11630.1 898.5 11628.5 900.067 11628.5 902C11628.5 903.933 11630.1 905.5 11632 905.5Z" fill="#535353" id="n1413"/>
<path d="M11615.4 924.732C11615.4 925.244 11615.3 925.676 11615 926.028C11614.8 926.38 11614.4 926.652 11614 926.844C11613.5 927.028 11613 927.12 11612.4 927.12C11612.1 927.12 11611.7 927.104 11611.4 927.072C11611.2 927.04 11610.9 926.996 11610.7 926.94C11610.4 926.876 11610.2 926.804 11610 926.724V925.788C11610.3 925.916 11610.7 926.032 11611.1 926.136C11611.5 926.232 11612 926.28 11612.4 926.28C11612.9 926.28 11613.2 926.224 11613.5 926.112C11613.8 925.992 11614 925.824 11614.2 925.608C11614.4 925.384 11614.4 925.116 11614.4 924.804C11614.4 924.508 11614.4 924.26 11614.2 924.06C11614.1 923.86 11613.9 923.68 11613.6 923.52C11613.3 923.352 11612.9 923.18 11612.4 923.004C11612 922.868 11611.7 922.724 11611.4 922.572C11611.1 922.42 11610.9 922.248 11610.7 922.056C11610.5 921.864 11610.4 921.64 11610.3 921.384C11610.2 921.128 11610.1 920.832 11610.1 920.496C11610.1 920.032 11610.3 919.64 11610.5 919.32C11610.7 918.992 11611 918.744 11611.4 918.576C11611.9 918.4 11612.3 918.312 11612.9 918.312C11613.3 918.312 11613.8 918.356 11614.1 918.444C11614.5 918.524 11614.9 918.64 11615.2 918.792L11614.9 919.608C11614.6 919.48 11614.3 919.376 11613.9 919.296C11613.6 919.208 11613.2 919.164 11612.8 919.164C11612.5 919.164 11612.2 919.22 11611.9 919.332C11611.6 919.436 11611.5 919.588 11611.3 919.788C11611.2 919.988 11611.1 920.224 11611.1 920.496C11611.1 920.808 11611.2 921.064 11611.3 921.264C11611.4 921.464 11611.6 921.64 11611.9 921.792C11612.2 921.944 11612.6 922.104 11613 922.272C11613.5 922.456 11614 922.652 11614.3 922.86C11614.7 923.068 11614.9 923.32 11615.1 923.616C11615.3 923.904 11615.4 924.276 11615.4 924.732ZM11619.5 920.46C11620 920.46 11620.5 920.584 11620.9 920.832C11621.3 921.072 11621.6 921.412 11621.8 921.852C11622 922.284 11622.1 922.792 11622.1 923.376V923.964H11617.6C11617.6 924.724 11617.8 925.308 11618.2 925.716C11618.6 926.116 11619.1 926.316 11619.7 926.316C11620.1 926.316 11620.5 926.28 11620.8 926.208C11621.1 926.128 11621.5 926.016 11621.8 925.872V926.7C11621.5 926.844 11621.1 926.948 11620.8 927.012C11620.5 927.084 11620.1 927.12 11619.7 927.12C11619.1 927.12 11618.5 926.996 11618.1 926.748C11617.6 926.492 11617.3 926.12 11617 925.632C11616.8 925.136 11616.7 924.54 11616.7 923.844C11616.7 923.156 11616.8 922.56 11617 922.056C11617.2 921.552 11617.5 921.16 11618 920.88C11618.4 920.6 11618.9 920.46 11619.5 920.46ZM11619.5 921.24C11618.9 921.24 11618.5 921.412 11618.2 921.756C11617.9 922.1 11617.7 922.584 11617.6 923.208H11621.1C11621.1 922.816 11621 922.476 11620.9 922.188C11620.8 921.892 11620.6 921.66 11620.4 921.492C11620.1 921.324 11619.8 921.24 11619.5 921.24ZM11625.8 926.34C11625.9 926.34 11626.1 926.328 11626.3 926.304C11626.4 926.272 11626.6 926.24 11626.7 926.208V926.928C11626.6 926.984 11626.4 927.028 11626.2 927.06C11626 927.1 11625.8 927.12 11625.6 927.12C11625.3 927.12 11625 927.06 11624.7 926.94C11624.4 926.82 11624.2 926.62 11624 926.34C11623.9 926.052 11623.8 925.656 11623.8 925.152V921.324H11622.9V920.856L11623.8 920.496L11624.2 919.092H11624.7V920.58H11626.6V921.324H11624.7V925.128C11624.7 925.536 11624.8 925.84 11625 926.04C11625.2 926.24 11625.4 926.34 11625.8 926.34ZM11630 926.34C11630.2 926.34 11630.4 926.328 11630.5 926.304C11630.7 926.272 11630.8 926.24 11630.9 926.208V926.928C11630.8 926.984 11630.7 927.028 11630.5 927.06C11630.3 927.1 11630.1 927.12 11629.9 927.12C11629.5 927.12 11629.2 927.06 11629 926.94C11628.7 926.82 11628.5 926.62 11628.3 926.34C11628.1 926.052 11628.1 925.656 11628.1 925.152V921.324H11627.1V920.856L11628.1 920.496L11628.4 919.092H11629V920.58H11630.9V921.324H11629V925.128C11629 925.536 11629.1 925.84 11629.3 926.04C11629.5 926.24 11629.7 926.34 11630 926.34ZM11633.2 920.58V927H11632.3V920.58H11633.2ZM11632.7 918.18C11632.9 918.18 11633 918.232 11633.1 918.336C11633.2 918.44 11633.3 918.6 11633.3 918.816C11633.3 919.016 11633.2 919.172 11633.1 919.284C11633 919.388 11632.9 919.44 11632.7 919.44C11632.6 919.44 11632.4 919.388 11632.3 919.284C11632.2 919.172 11632.2 919.016 11632.2 918.816C11632.2 918.6 11632.2 918.44 11632.3 918.336C11632.4 918.232 11632.6 918.18 11632.7 918.18ZM11638.3 920.46C11639 920.46 11639.6 920.648 11640 921.024C11640.4 921.392 11640.6 921.988 11640.6 922.812V927H11639.7V922.884C11639.7 922.332 11639.5 921.924 11639.3 921.66C11639 921.396 11638.7 921.264 11638.2 921.264C11637.4 921.264 11636.9 921.464 11636.6 921.864C11636.3 922.264 11636.2 922.848 11636.2 923.616V927H11635.3V920.58H11636L11636.2 921.528H11636.2C11636.4 921.296 11636.5 921.104 11636.7 920.952C11636.9 920.792 11637.2 920.672 11637.4 920.592C11637.7 920.504 11638 920.46 11638.3 920.46ZM11644.9 920.46C11645.3 920.46 11645.7 920.548 11646.1 920.724C11646.4 920.892 11646.7 921.14 11646.9 921.468H11647L11647.1 920.58H11647.9V927.132C11647.9 927.724 11647.8 928.224 11647.6 928.632C11647.4 929.048 11647 929.36 11646.6 929.568C11646.2 929.776 11645.7 929.88 11645 929.88C11644.5 929.88 11644.1 929.844 11643.7 929.772C11643.4 929.7 11643 929.6 11642.7 929.472V928.584C11642.9 928.688 11643.1 928.776 11643.4 928.848C11643.6 928.928 11643.9 928.988 11644.2 929.028C11644.5 929.068 11644.8 929.088 11645.1 929.088C11645.7 929.088 11646.1 928.92 11646.4 928.584C11646.8 928.248 11646.9 927.788 11646.9 927.204V926.916C11646.9 926.804 11646.9 926.66 11646.9 926.484C11646.9 926.3 11646.9 926.16 11647 926.064H11646.9C11646.7 926.416 11646.4 926.68 11646.1 926.856C11645.7 927.032 11645.3 927.12 11644.9 927.12C11644 927.12 11643.4 926.832 11642.9 926.256C11642.5 925.68 11642.2 924.868 11642.2 923.82C11642.2 923.132 11642.3 922.536 11642.5 922.032C11642.8 921.528 11643.1 921.14 11643.4 920.868C11643.8 920.596 11644.3 920.46 11644.9 920.46ZM11645 921.264C11644.6 921.264 11644.3 921.364 11644 921.564C11643.8 921.764 11643.6 922.056 11643.4 922.44C11643.3 922.816 11643.2 923.28 11643.2 923.832C11643.2 924.64 11643.4 925.26 11643.7 925.692C11644 926.124 11644.4 926.34 11645 926.34C11645.4 926.34 11645.7 926.292 11645.9 926.196C11646.1 926.1 11646.3 925.956 11646.5 925.764C11646.6 925.572 11646.8 925.332 11646.8 925.044C11646.9 924.756 11646.9 924.424 11646.9 924.048V923.748C11646.9 923.172 11646.9 922.704 11646.7 922.344C11646.6 921.976 11646.4 921.704 11646.1 921.528C11645.8 921.352 11645.5 921.264 11645 921.264ZM11654.1 925.248C11654.1 925.656 11654 926 11653.7 926.28C11653.5 926.552 11653.3 926.76 11652.9 926.904C11652.5 927.048 11652 927.12 11651.5 927.12C11651.1 927.12 11650.7 927.084 11650.4 927.012C11650 926.94 11649.7 926.84 11649.5 926.712V925.848C11649.8 925.976 11650.1 926.092 11650.4 926.196C11650.8 926.3 11651.2 926.352 11651.5 926.352C11652.1 926.352 11652.5 926.26 11652.8 926.076C11653 925.892 11653.1 925.644 11653.1 925.332C11653.1 925.148 11653.1 924.988 11653 924.852C11652.9 924.716 11652.7 924.584 11652.5 924.456C11652.2 924.328 11651.9 924.188 11651.5 924.036C11651.1 923.884 11650.7 923.732 11650.4 923.58C11650.2 923.428 11649.9 923.24 11649.8 923.016C11649.6 922.792 11649.5 922.504 11649.5 922.152C11649.5 921.608 11649.7 921.192 11650.2 920.904C11650.6 920.608 11651.2 920.46 11651.9 920.46C11652.3 920.46 11652.6 920.5 11653 920.58C11653.3 920.652 11653.6 920.752 11653.9 920.88L11653.6 921.648C11653.4 921.568 11653.2 921.5 11653 921.444C11652.8 921.38 11652.6 921.332 11652.4 921.3C11652.2 921.26 11652 921.24 11651.8 921.24C11651.4 921.24 11651 921.316 11650.8 921.468C11650.5 921.62 11650.4 921.828 11650.4 922.092C11650.4 922.292 11650.5 922.46 11650.6 922.596C11650.7 922.724 11650.9 922.844 11651.1 922.956C11651.4 923.068 11651.7 923.2 11652.1 923.352C11652.5 923.496 11652.8 923.648 11653.1 923.808C11653.4 923.96 11653.6 924.152 11653.8 924.384C11654 924.608 11654.1 924.896 11654.1 925.248Z" fill="#535353" id="n1414"/>
<path fill-rule="evenodd" clip-rule="evenodd" d="M11632 976C11637.5 976 11642 971.523 11642 966C11642 960.477 11637.5 956 11632 956C11626.5 956 11622 960.477 11622 966C11622 971.523 11626.5 976 11632 976ZM11631.4 959H11632.6V961H11635V964.4L11632 962.6L11629 964.4V961H11631.4V959ZM11637 966.843L11632 964L11627 966.843L11629.1 971.445H11634.9L11637 966.843Z" fill="#535353" id="n1415"/>
<path d="M11610.3 983.164C11609.8 983.164 11609.4 983.248 11609 983.416C11608.6 983.576 11608.3 983.812 11608 984.124C11607.8 984.428 11607.6 984.8 11607.4 985.24C11607.3 985.68 11607.2 986.172 11607.2 986.716C11607.2 987.436 11607.3 988.064 11607.5 988.6C11607.8 989.136 11608.1 989.548 11608.6 989.836C11609 990.124 11609.6 990.268 11610.3 990.268C11610.6 990.268 11611 990.236 11611.3 990.172C11611.7 990.108 11612 990.028 11612.3 989.932V990.772C11612 990.884 11611.7 990.968 11611.3 991.024C11611 991.088 11610.6 991.12 11610.1 991.12C11609.3 991.12 11608.5 990.94 11607.9 990.58C11607.4 990.22 11606.9 989.708 11606.6 989.044C11606.3 988.38 11606.2 987.6 11606.2 986.704C11606.2 986.056 11606.3 985.464 11606.5 984.928C11606.6 984.392 11606.9 983.928 11607.3 983.536C11607.6 983.144 11608 982.844 11608.6 982.636C11609.1 982.42 11609.6 982.312 11610.3 982.312C11610.7 982.312 11611.2 982.356 11611.6 982.444C11612 982.524 11612.3 982.644 11612.6 982.804L11612.2 983.632C11612 983.496 11611.7 983.384 11611.3 983.296C11611 983.208 11610.7 983.164 11610.3 983.164ZM11619.6 987.784C11619.6 988.304 11619.5 988.772 11619.4 989.188C11619.2 989.596 11619 989.944 11618.8 990.232C11618.5 990.52 11618.2 990.74 11617.8 990.892C11617.5 991.044 11617 991.12 11616.6 991.12C11616.2 991.12 11615.8 991.044 11615.4 990.892C11615.1 990.74 11614.7 990.52 11614.5 990.232C11614.2 989.944 11614 989.596 11613.9 989.188C11613.7 988.78 11613.7 988.312 11613.7 987.784C11613.7 987.08 11613.8 986.484 11614 985.996C11614.3 985.5 11614.6 985.12 11615 984.856C11615.5 984.592 11616 984.46 11616.6 984.46C11617.2 984.46 11617.7 984.592 11618.2 984.856C11618.6 985.12 11618.9 985.5 11619.2 985.996C11619.4 986.492 11619.6 987.088 11619.6 987.784ZM11614.6 987.784C11614.6 988.296 11614.7 988.744 11614.9 989.128C11615 989.512 11615.2 989.808 11615.5 990.016C11615.8 990.224 11616.2 990.328 11616.6 990.328C11617.1 990.328 11617.4 990.224 11617.7 990.016C11618 989.808 11618.2 989.512 11618.4 989.128C11618.5 988.744 11618.6 988.296 11618.6 987.784C11618.6 987.264 11618.5 986.82 11618.4 986.452C11618.2 986.076 11618 985.784 11617.7 985.576C11617.4 985.368 11617.1 985.264 11616.6 985.264C11615.9 985.264 11615.4 985.488 11615.1 985.936C11614.8 986.376 11614.6 986.992 11614.6 987.784ZM11628.2 984.46C11628.9 984.46 11629.4 984.644 11629.8 985.012C11630.1 985.38 11630.3 985.972 11630.3 986.788V991H11629.4V986.836C11629.4 986.308 11629.3 985.916 11629 985.66C11628.8 985.396 11628.5 985.264 11628 985.264C11627.4 985.264 11626.9 985.444 11626.7 985.804C11626.4 986.156 11626.2 986.688 11626.2 987.4V991H11625.3V986.836C11625.3 986.484 11625.2 986.192 11625.1 985.96C11625 985.72 11624.9 985.544 11624.7 985.432C11624.5 985.32 11624.2 985.264 11623.9 985.264C11623.5 985.264 11623.2 985.352 11622.9 985.528C11622.7 985.704 11622.5 985.964 11622.3 986.308C11622.2 986.644 11622.2 987.068 11622.2 987.58V991H11621.2V984.58H11622L11622.1 985.504H11622.2C11622.3 985.28 11622.5 985.092 11622.7 984.94C11622.9 984.78 11623.1 984.66 11623.3 984.58C11623.6 984.5 11623.8 984.46 11624.1 984.46C11624.6 984.46 11625 984.552 11625.3 984.736C11625.7 984.92 11625.9 985.2 11626 985.576H11626.1C11626.3 985.208 11626.6 984.932 11627 984.748C11627.3 984.556 11627.7 984.46 11628.2 984.46ZM11635.3 984.46C11636.1 984.46 11636.7 984.736 11637.2 985.288C11637.7 985.84 11637.9 986.668 11637.9 987.772C11637.9 988.5 11637.8 989.116 11637.6 989.62C11637.4 990.116 11637.1 990.492 11636.7 990.748C11636.3 990.996 11635.8 991.12 11635.3 991.12C11634.9 991.12 11634.6 991.072 11634.4 990.976C11634.1 990.88 11633.9 990.756 11633.7 990.604C11633.5 990.452 11633.4 990.284 11633.3 990.1H11633.2C11633.2 990.252 11633.2 990.436 11633.2 990.652C11633.2 990.868 11633.3 991.06 11633.3 991.228V993.868H11632.3V984.58H11633.1L11633.2 985.552H11633.3C11633.4 985.352 11633.5 985.172 11633.7 985.012C11633.9 984.844 11634.1 984.712 11634.4 984.616C11634.6 984.512 11634.9 984.46 11635.3 984.46ZM11635.1 985.264C11634.7 985.264 11634.3 985.352 11634.1 985.528C11633.8 985.704 11633.6 985.964 11633.4 986.308C11633.3 986.652 11633.3 987.084 11633.3 987.604V987.784C11633.3 988.336 11633.3 988.8 11633.4 989.176C11633.6 989.552 11633.8 989.84 11634 990.04C11634.3 990.232 11634.7 990.328 11635.1 990.328C11635.5 990.328 11635.9 990.22 11636.1 990.004C11636.4 989.788 11636.6 989.488 11636.8 989.104C11636.9 988.72 11637 988.272 11637 987.76C11637 986.984 11636.8 986.376 11636.5 985.936C11636.2 985.488 11635.8 985.264 11635.1 985.264ZM11642 984.472C11642.8 984.472 11643.3 984.648 11643.7 985C11644.1 985.344 11644.3 985.892 11644.3 986.644V991H11643.6L11643.4 990.04H11643.3C11643.2 990.272 11643 990.472 11642.8 990.64C11642.6 990.8 11642.4 990.92 11642.1 991C11641.8 991.08 11641.5 991.12 11641.2 991.12C11640.8 991.12 11640.4 991.052 11640.1 990.916C11639.8 990.78 11639.6 990.572 11639.4 990.292C11639.2 990.012 11639.1 989.664 11639.1 989.248C11639.1 988.608 11639.4 988.116 11639.9 987.772C11640.4 987.428 11641.2 987.24 11642.2 987.208L11643.3 987.16V986.764C11643.3 986.196 11643.2 985.8 11643 985.576C11642.7 985.352 11642.4 985.24 11642 985.24C11641.6 985.24 11641.3 985.288 11641 985.384C11640.7 985.48 11640.4 985.596 11640.1 985.732L11639.8 985.012C11640.1 984.86 11640.5 984.732 11640.8 984.628C11641.2 984.524 11641.6 984.472 11642 984.472ZM11642.3 987.868C11641.5 987.9 11641 988.032 11640.6 988.264C11640.3 988.496 11640.1 988.828 11640.1 989.26C11640.1 989.628 11640.2 989.904 11640.5 990.088C11640.7 990.264 11641 990.352 11641.4 990.352C11642 990.352 11642.4 990.192 11642.8 989.872C11643.1 989.544 11643.3 989.06 11643.3 988.42V987.832L11642.3 987.868ZM11649.3 984.46C11650 984.46 11650.6 984.648 11651 985.024C11651.4 985.392 11651.6 985.988 11651.6 986.812V991H11650.7V986.884C11650.7 986.332 11650.5 985.924 11650.3 985.66C11650 985.396 11649.7 985.264 11649.2 985.264C11648.4 985.264 11647.9 985.464 11647.6 985.864C11647.3 986.264 11647.2 986.848 11647.2 987.616V991H11646.3V984.58H11647L11647.2 985.528H11647.2C11647.4 985.296 11647.5 985.104 11647.7 984.952C11647.9 984.792 11648.2 984.672 11648.4 984.592C11648.7 984.504 11649 984.46 11649.3 984.46ZM11652.6 984.58H11653.6L11655 988.336C11655.1 988.56 11655.2 988.772 11655.2 988.972C11655.3 989.172 11655.4 989.364 11655.4 989.548C11655.5 989.724 11655.5 989.896 11655.6 990.064H11655.6C11655.7 989.872 11655.7 989.62 11655.8 989.308C11655.9 988.988 11656 988.664 11656.2 988.336L11657.5 984.58H11658.5L11655.7 991.96C11655.6 992.352 11655.4 992.692 11655.2 992.98C11655 993.268 11654.8 993.488 11654.5 993.64C11654.2 993.8 11653.9 993.88 11653.5 993.88C11653.3 993.88 11653.2 993.868 11653 993.844C11652.9 993.828 11652.8 993.808 11652.7 993.784V993.028C11652.8 993.044 11652.9 993.06 11653 993.076C11653.1 993.1 11653.2 993.112 11653.4 993.112C11653.6 993.112 11653.8 993.064 11654 992.968C11654.2 992.88 11654.3 992.744 11654.5 992.56C11654.6 992.384 11654.7 992.172 11654.8 991.924L11655.1 991.012L11652.6 984.58Z" fill="#535353" id="n1416"/>
</g>
</svg>
