<?xml version='1.0' encoding='utf-8'?>
<svg xmlns="http://www.w3.org/2000/svg" xmlns:xlink="http://www.w3.org/1999/xlink" width="320.0" height="56.0" viewBox="0 0 320.0 56.0" fill="none">
  <defs><clipPath id="clip__asset"><rect x="0" y="0" width="320.0" height="56.0"/></clipPath><mask id="path-1129-inside-62_1702_11540" fill="white">
<path d="M11399 583H11719V639H11399V583Z" id="n1436"/>
</mask>
</defs>
  <g clip-path="url(#clip__asset)" transform="translate(-11399.0 -583.0)"><path d="M11399 583V584H11719V583V582H11399V583Z" fill="#DDDDDD" mask="url(#path-1129-inside-62_1702_11540)" id="n1437"/>
<path d="M11432 607.995V605.997H11434V607.995H11432Z" fill="#535353" id="n1438"/>
<path d="M11432 611.992V609.993H11434V611.992H11432Z" fill="#535353" id="n1439"/>
<path d="M11432 603.998V602H11434V603.998H11432Z" fill="#535353" id="n1440"/>
<path d="M11436 607.995V605.997H11443L11442.4 607.126L11442 607.995H11436Z" fill="#535353" id="n1441"/>
<path d="M11436 611.992V609.993H11441L11440 611.992H11436Z" fill="#535353" id="n1442"/>
<path d="M11436 603.998V602H11449.8V603.998H11436Z" fill="#535353" id="n1443"/>
<path fill-rule="evenodd" clip-rule="evenodd" d="M11451.9 617.719L11446.3 606.491C11446 605.836 11445 605.836 11444.7 606.491L11439.1 617.719C11438.8 618.315 11439.2 619 11439.9 619H11451.1C11451.8 619 11452.2 618.315 11451.9 617.719ZM11444.7 617.5H11446.2V616H11444.7V617.5ZM11444.7 614.5H11446.2V610H11444.7V614.5Z" fill="#535353" id="n1444"/>
<path d="M11519 617H11521V615H11519V617Z" fill="#535353" id="n1445"/>
<path d="M11520 605C11517.8 605 11516 606.79 11516 609H11518C11518 607.9 11518.9 607 11520 607C11521.1 607 11522 607.9 11522 609C11522 611 11519 610.75 11519 614H11521C11521 611.75 11524 611.5 11524 609C11524 606.79 11522.2 605 11520 605Z" fill="#535353" id="n1446"/>
<path fill-rule="evenodd" clip-rule="evenodd" d="M11520 601C11514.5 601 11510 605.48 11510 611C11510 616.52 11514.5 621 11520 621C11525.5 621 11530 616.52 11530 611C11530 605.48 11525.5 601 11520 601ZM11520 619C11515.6 619 11512 615.41 11512 611C11512 606.59 11515.6 603 11520 603C11524.4 603 11528 606.59 11528 611C11528 615.41 11524.4 619 11520 619Z" fill="#535353" id="n1447"/>
<path d="M11595.3 621L11594.9 617.8C11594.6 617.717 11594.4 617.617 11594.2 617.5C11594 617.383 11593.9 617.258 11593.7 617.125L11590.7 618.375L11588 613.625L11590.5 611.675C11590.5 611.558 11590.5 611.446 11590.5 611.338V610.663C11590.5 610.554 11590.5 610.442 11590.5 610.325L11588 608.375L11590.7 603.625L11593.7 604.875C11593.9 604.742 11594.1 604.617 11594.3 604.5C11594.5 604.383 11594.7 604.283 11594.9 604.2L11595.3 601H11600.8L11601.2 604.2C11601.4 604.283 11601.6 604.383 11601.8 604.5C11602 604.617 11602.1 604.742 11602.3 604.875L11605.3 603.625L11608.1 608.375L11605.5 610.325C11605.5 610.442 11605.5 610.554 11605.5 610.663V611.338C11605.5 611.446 11605.5 611.558 11605.5 611.675L11608 613.625L11605.3 618.375L11602.3 617.125C11602.1 617.258 11602 617.383 11601.8 617.5C11601.6 617.617 11601.4 617.717 11601.2 617.8L11600.8 621H11595.3ZM11597 619H11599L11599.3 616.35C11599.8 616.217 11600.3 616.021 11600.8 615.762C11601.2 615.504 11601.6 615.192 11602 614.825L11604.5 615.85L11605.4 614.15L11603.3 612.525C11603.4 612.292 11603.4 612.046 11603.5 611.788C11603.5 611.529 11603.5 611.267 11603.5 611C11603.5 610.733 11603.5 610.471 11603.5 610.213C11603.4 609.954 11603.4 609.708 11603.3 609.475L11605.4 607.85L11604.5 606.15L11602 607.2C11601.6 606.817 11601.2 606.496 11600.8 606.238C11600.3 605.979 11599.8 605.783 11599.3 605.65L11599 603H11597L11596.7 605.65C11596.2 605.783 11595.7 605.979 11595.2 606.238C11594.8 606.496 11594.4 606.808 11594 607.175L11591.6 606.15L11590.6 607.85L11592.7 609.45C11592.6 609.7 11592.6 609.95 11592.6 610.2C11592.5 610.45 11592.5 610.717 11592.5 611C11592.5 611.267 11592.5 611.525 11592.6 611.775C11592.6 612.025 11592.6 612.275 11592.7 612.525L11590.6 614.15L11591.6 615.85L11594 614.8C11594.4 615.183 11594.8 615.504 11595.2 615.762C11595.7 616.021 11596.2 616.217 11596.7 616.35L11597 619Z" fill="#535353" id="n1448"/>
<path fill-rule="evenodd" clip-rule="evenodd" d="M11598 612.5C11598.8 612.5 11599.5 611.828 11599.5 611C11599.5 610.172 11598.8 609.5 11598 609.5C11597.2 609.5 11596.5 610.172 11596.5 611C11596.5 611.828 11597.2 612.5 11598 612.5ZM11598 614.5C11599.9 614.5 11601.5 612.933 11601.5 611C11601.5 609.067 11599.9 607.5 11598 607.5C11596.1 607.5 11594.5 609.067 11594.5 611C11594.5 612.933 11596.1 614.5 11598 614.5Z" fill="#535353" id="n1449"/>
<path fill-rule="evenodd" clip-rule="evenodd" d="M11676 621C11681.5 621 11686 616.523 11686 611C11686 605.477 11681.5 601 11676 601C11670.5 601 11666 605.477 11666 611C11666 616.523 11670.5 621 11676 621ZM11675.4 604H11676.6V606H11679V609.4L11676 607.6L11673 609.4V606H11675.4V604ZM11681 611.843L11676 609L11671 611.843L11673.1 616.445H11678.9L11681 611.843Z" fill="#535353" id="n1450"/>
</g>
</svg>
