<?xml version='1.0' encoding='utf-8'?>
<svg xmlns="http://www.w3.org/2000/svg" xmlns:xlink="http://www.w3.org/1999/xlink" width="384.0" height="384.0" viewBox="0 0 384.0 384.0" fill="none">
  <defs><clipPath id="clip__asset"><rect x="0" y="0" width="384.0" height="384.0"/></clipPath><mask id="mask0_68_6728" style="mask-type:luminance" maskUnits="userSpaceOnUse" x="184" y="504" width="512" height="512">
<path fill-rule="evenodd" clip-rule="evenodd" d="M440 572C543.83 572 628 656.17 628 760C628 863.83 543.83 948 440 948C336.17 948 252 863.83 252 760C252 656.17 336.17 572 440 572ZM440 596C349.425 596 276 669.425 276 760C276 850.575 349.425 924 440 924C530.575 924 604 850.575 604 760C604 669.425 530.575 596 440 596Z" fill="white" stroke="black" id="n9"/>
</mask>
<mask id="mask1_68_6728" style="mask-type:alpha" maskUnits="userSpaceOnUse" x="184" y="504" width="512" height="512">
<path d="M440 568C546.039 568 632 653.961 632 760C632 866.039 546.039 952 440 952C333.961 952 248 866.039 248 760C248 653.961 333.961 568 440 568ZM440 592C347.216 592 272 667.216 272 760C272 852.784 347.216 928 440 928C532.784 928 608 852.784 608 760C608 667.216 532.784 592 440 592Z" fill="black" id="n11"/>
</mask>
<mask id="mask2_68_6728" style="mask-type:alpha" maskUnits="userSpaceOnUse" x="184" y="504" width="512" height="512">
<path d="M440 568C546.039 568 632 653.961 632 760C632 866.039 546.039 952 440 952C333.961 952 248 866.039 248 760C248 653.961 333.961 568 440 568ZM440 596C349.425 596 276 669.425 276 760C276 850.575 349.425 924 440 924C530.575 924 604 850.575 604 760C604 669.425 530.575 596 440 596Z" fill="black" id="n14"/>
</mask>
<mask id="mask3_68_6728" style="mask-type:luminance" maskUnits="userSpaceOnUse" x="77" y="397" width="726" height="726">
<path d="M555.4 677.41C558.568 680.578 560.152 682.162 560.746 683.989C561.268 685.595 561.268 687.326 560.746 688.933C560.152 690.76 558.568 692.344 555.4 695.512L375.512 875.4C372.344 878.568 370.76 880.152 368.933 880.745C367.327 881.268 365.596 881.267 363.989 880.745C362.162 880.152 360.578 878.568 357.41 875.4L349.491 867.48L547.48 669.49L555.4 677.41Z" fill="white" stroke="black" id="n23"/>
<rect x="417.373" y="731.716" width="72" height="8" transform="rotate(45 417.373 731.716)" fill="black" stroke="black" id="n24"/>
</mask>
<mask id="mask4_68_6728" style="mask-type:alpha" maskUnits="userSpaceOnUse" x="77" y="397" width="726" height="726">
<path d="M538.429 660.439C541.597 663.608 543.181 665.192 543.775 667.018C544.297 668.625 544.297 670.356 543.775 671.963C543.181 673.789 541.597 675.373 538.429 678.541L358.541 858.429C355.373 861.598 353.789 863.182 351.962 863.775C350.356 864.297 348.625 864.297 347.018 863.775C345.192 863.182 343.607 861.598 340.439 858.429L324.6 842.59C321.432 839.422 319.848 837.838 319.254 836.011C318.732 834.405 318.732 832.674 319.254 831.067C319.848 829.24 321.432 827.656 324.6 824.488L504.488 644.6C507.656 641.432 509.24 639.848 511.067 639.255C512.674 638.733 514.404 638.733 516.011 639.255C517.838 639.848 519.422 641.432 522.59 644.6L538.429 660.439Z" fill="white" stroke="white" id="n30"/>
<rect x="417.373" y="731.716" width="72" height="8" transform="rotate(45 417.373 731.716)" fill="black" stroke="black" id="n31"/>
</mask>
</defs>
  <g clip-path="url(#clip__asset)" transform="translate(-248.0 -568.0)"><path fill-rule="evenodd" clip-rule="evenodd" d="M440 572C543.83 572 628 656.17 628 760C628 863.83 543.83 948 440 948C336.17 948 252 863.83 252 760C252 656.17 336.17 572 440 572ZM440 596C349.425 596 276 669.425 276 760C276 850.575 349.425 924 440 924C530.575 924 604 850.575 604 760C604 669.425 530.575 596 440 596Z" fill="white" stroke="white" id="n7"/>
<path fill-rule="evenodd" clip-rule="evenodd" d="M440 572C543.83 572 628 656.17 628 760C628 863.83 543.83 948 440 948C336.17 948 252 863.83 252 760C252 656.17 336.17 572 440 572ZM440 596C349.425 596 276 669.425 276 760C276 850.575 349.425 924 440 924C530.575 924 604 850.575 604 760C604 669.425 530.575 596 440 596Z" stroke="#BEBEBE" id="n8"/>
<g mask="url(#mask0_68_6728)" id="n10">
<mask id="mask1_68_6728" style="mask-type:alpha" maskUnits="userSpaceOnUse" x="184" y="504" width="512" height="512">
<path d="M440 568C546.039 568 632 653.961 632 760C632 866.039 546.039 952 440 952C333.961 952 248 866.039 248 760C248 653.961 333.961 568 440 568ZM440 592C347.216 592 272 667.216 272 760C272 852.784 347.216 928 440 928C532.784 928 608 852.784 608 760C608 667.216 532.784 592 440 592Z" fill="black" id="n11"/>
</mask>
<g mask="url(#mask1_68_6728)" id="n12">
<path d="M440 560V760M440 760H240M440 760V960M440 760H640" stroke="#BEBEBE" id="n13"/>
</g>
<mask id="mask2_68_6728" style="mask-type:alpha" maskUnits="userSpaceOnUse" x="184" y="504" width="512" height="512">
<path d="M440 568C546.039 568 632 653.961 632 760C632 866.039 546.039 952 440 952C333.961 952 248 866.039 248 760C248 653.961 333.961 568 440 568ZM440 596C349.425 596 276 669.425 276 760C276 850.575 349.425 924 440 924C530.575 924 604 850.575 604 760C604 669.425 530.575 596 440 596Z" fill="black" id="n14"/>
</mask>
<g mask="url(#mask2_68_6728)" id="n15">
<path d="M440 560V760" stroke="#BEBEBE" id="n16"/>
</g>
<rect x="436" y="572" width="8" height="24" fill="#BEBEBE" id="n17"/>
</g>
<path d="M555.4 677.41C558.568 680.578 560.152 682.162 560.745 683.989C561.268 685.596 561.268 687.326 560.746 688.933C560.152 690.76 558.568 692.344 555.4 695.512L375.512 875.4C372.344 878.568 370.76 880.152 368.933 880.746C367.326 881.268 365.595 881.268 363.989 880.746C362.162 880.152 360.578 878.568 357.41 875.4L324.6 842.59C321.432 839.422 319.848 837.838 319.254 836.011C318.732 834.405 318.732 832.674 319.254 831.067C319.848 829.24 321.432 827.656 324.6 824.488L504.488 644.6C507.656 641.432 509.24 639.848 511.067 639.255C512.674 638.733 514.404 638.733 516.011 639.255C517.838 639.848 519.422 641.432 522.59 644.6L555.4 677.41Z" fill="white" stroke="white" id="n18"/>
<path d="M547.48 669.49L349.49 867.48L324.6 842.59C321.432 839.422 319.848 837.838 319.254 836.011C318.732 834.405 318.732 832.674 319.254 831.067C319.848 829.24 321.432 827.656 324.6 824.488L504.488 644.6C507.656 641.432 509.24 639.848 511.067 639.255C512.674 638.733 514.404 638.733 516.011 639.255C517.838 639.848 519.422 641.432 522.59 644.6L547.48 669.49Z" fill="#F0F0F0" stroke="#F0F0F0" id="n19"/>
<path d="M555.405 677.412C558.573 680.58 560.157 682.164 560.75 683.99C561.272 685.597 561.272 687.328 560.75 688.935C560.157 690.761 558.573 692.345 555.405 695.513L375.517 875.401C372.349 878.57 370.764 880.154 368.938 880.747C367.331 881.269 365.6 881.269 363.994 880.747C362.167 880.154 360.583 878.57 357.415 875.401L324.605 842.592C321.437 839.424 319.853 837.839 319.259 836.013C318.737 834.406 318.737 832.675 319.259 831.069C319.853 829.242 321.437 827.658 324.605 824.49L504.493 644.602C507.661 641.434 509.245 639.85 511.072 639.256C512.679 638.734 514.409 638.734 516.016 639.256C517.843 639.85 519.427 641.434 522.595 644.602L555.405 677.412Z" stroke="#BEBEBE" id="n20"/>
<rect x="417.373" y="731.716" width="72" height="8" transform="rotate(45 417.373 731.716)" fill="#BEBEBE" stroke="#BEBEBE" id="n21"/>
<path d="M554.623 667.269L553.263 648.587C553.191 647.597 552.404 646.81 551.414 646.738L532.732 645.378C531.335 645.276 530.6 646.953 531.603 647.956L552.045 668.397C553.048 669.4 554.725 668.666 554.623 667.269Z" fill="#535353" id="n22"/>
<g mask="url(#mask3_68_6728)" id="n25">
<path d="M519.196 737.373L502.225 720.402M471.113 785.456L454.142 768.486M567.279 689.29L550.309 672.319" stroke="#BEBEBE" id="n26"/>
<path d="M471.113 785.456L451.314 765.657M567.279 689.29L547.48 669.491" stroke="#BEBEBE" id="n27"/>
<path d="M417.373 839.196L400.402 822.225M369.29 887.279L352.319 870.309M465.456 791.113L448.485 774.142" stroke="#BEBEBE" id="n28"/>
<path d="M369.29 887.279L349.491 867.48M465.456 791.113L445.657 771.314" stroke="#BEBEBE" id="n29"/>
</g>
<g mask="url(#mask4_68_6728)" id="n32">
<rect x="465.456" y="683.633" width="48" height="68" transform="rotate(45 465.456 683.633)" fill="#535353" stroke="#535353" id="n33"/>
</g>
<rect x="417.373" y="731.716" width="72" height="8" transform="rotate(45 417.373 731.716)" fill="#535353" stroke="#535353" id="n34"/>
<path d="M519.449 724.532C519.147 723.736 518.444 723.046 517.477 722.858L503.773 720.197C502.729 719.994 501.812 720.911 502.015 721.955L504.675 735.659C504.864 736.626 505.554 737.329 506.35 737.631C507.147 737.934 508.111 737.851 508.801 737.161L518.979 726.983C519.669 726.293 519.752 725.329 519.449 724.532Z" fill="#535353" stroke="white" stroke-linejoin="round" id="n35"/>
<path d="M576.021 637.079C575.719 637.875 575.015 638.565 574.048 638.753L560.344 641.414C559.301 641.617 558.383 640.7 558.586 639.656L561.247 625.952C561.435 624.985 562.125 624.281 562.921 623.979C563.718 623.677 564.682 623.76 565.372 624.45L575.551 634.628C576.241 635.318 576.323 636.282 576.021 637.079Z" fill="#535353" stroke="white" stroke-linejoin="round" id="n36"/>
</g>
</svg>
