<?xml version='1.0' encoding='utf-8'?>
<svg xmlns="http://www.w3.org/2000/svg" xmlns:xlink="http://www.w3.org/1999/xlink" width="24.0" height="32.0" viewBox="0 0 24.0 32.0" fill="none">
  <defs>
    <clipPath id="clip__asset">
      <rect x="0" y="0" width="24.0" height="32.0"/>
    </clipPath>
  </defs>
  <g clip-path="url(#clip__asset)" transform="translate(-9675.0 -659.0)"><path d="M9697.03 672.505C9697.03 674.485 9696.89 676.405 9696.62 678.265C9696.38 680.125 9695.95 681.85 9695.32 683.44C9694.69 685.03 9693.83 686.44 9692.75 687.67C9691.67 688.87 9690.31 689.8 9688.66 690.46C9687.04 691.12 9685.1 691.45 9682.85 691.45C9682.22 691.45 9681.52 691.405 9680.74 691.315C9679.96 691.255 9679.3 691.165 9678.76 691.045V686.455C9679.3 686.605 9679.9 686.725 9680.56 686.815C9681.22 686.905 9681.88 686.95 9682.54 686.95C9684.28 686.95 9685.73 686.68 9686.9 686.14C9688.07 685.57 9689 684.79 9689.69 683.8C9690.41 682.78 9690.94 681.595 9691.27 680.245C9691.6 678.895 9691.79 677.425 9691.85 675.835H9691.58C9691.19 676.555 9690.7 677.2 9690.1 677.77C9689.53 678.34 9688.84 678.79 9688.03 679.12C9687.22 679.42 9686.23 679.57 9685.06 679.57C9683.35 679.57 9681.86 679.165 9680.6 678.355C9679.37 677.515 9678.41 676.345 9677.72 674.845C9677.06 673.345 9676.73 671.545 9676.73 669.445C9676.73 667.195 9677.12 665.26 9677.9 663.64C9678.71 661.99 9679.85 660.715 9681.32 659.815C9682.79 658.915 9684.56 658.465 9686.63 658.465C9688.13 658.465 9689.51 658.765 9690.77 659.365C9692.06 659.935 9693.17 660.805 9694.1 661.975C9695.03 663.145 9695.75 664.615 9696.26 666.385C9696.77 668.125 9697.03 670.165 9697.03 672.505ZM9686.68 663.055C9685.33 663.055 9684.23 663.58 9683.39 664.63C9682.58 665.65 9682.18 667.225 9682.18 669.355C9682.18 671.185 9682.54 672.61 9683.26 673.63C9683.98 674.62 9685.07 675.115 9686.54 675.115C9687.59 675.115 9688.48 674.86 9689.2 674.35C9689.95 673.84 9690.52 673.21 9690.91 672.46C9691.3 671.68 9691.49 670.885 9691.49 670.075C9691.49 669.355 9691.4 668.59 9691.22 667.78C9691.04 666.94 9690.76 666.16 9690.37 665.44C9689.98 664.72 9689.47 664.15 9688.84 663.73C9688.24 663.28 9687.52 663.055 9686.68 663.055Z" fill="black" id="n758"/>
</g>
</svg>
