<?xml version='1.0' encoding='utf-8'?>
<svg xmlns="http://www.w3.org/2000/svg" xmlns:xlink="http://www.w3.org/1999/xlink" width="512.0" height="512.0" viewBox="0 0 512.0 512.0" fill="none">
  <defs><clipPath id="clip__asset"><rect x="0" y="0" width="512.0" height="512.0"/></clipPath><mask id="mask32_68_6728" style="mask-type:alpha" maskUnits="userSpaceOnUse" x="12127" y="308" width="24" height="76">
<rect x="12138.5" y="308.5" width="75" height="7" rx="3.5" transform="rotate(90 12138.5 308.5)" fill="black" stroke="black" id="n465"/>
</mask>
<mask id="mask33_68_6728" style="mask-type:alpha" maskUnits="userSpaceOnUse" x="11639" y="308" width="25" height="76">
<rect x="0.5" y="0.5" width="75" height="7" rx="3.5" transform="matrix(0 1 1 0 11651 308)" fill="black" stroke="black" id="n471"/>
</mask>
<pattern id="pattern14_68_6728" patternUnits="userSpaceOnUse" patternTransform="matrix(16 0 0 16 30 4)" preserveAspectRatio="none" viewBox="0 0 16 16" width="1" height="1">
<g id="pattern14_68_6728_inner">
<g clip-path="url(#clip41_68_6728)" id="n2218">
<path d="M-0.000693321 0L15.9993 16M-8 8L8 24M8 -8L24 8" stroke="#BEBEBE" stroke-width="6" id="n2219"/>
</g>
</g>
</pattern><pattern id="pattern15_68_6728" patternUnits="userSpaceOnUse" patternTransform="matrix(16 0 0 16 30 4)" preserveAspectRatio="none" viewBox="0 0 16 16" width="1" height="1">
<g id="pattern15_68_6728_inner">
<g clip-path="url(#clip42_68_6728)" id="n2220">
<path d="M-0.000693321 0L15.9993 16M-8 8L8 24M8 -8L24 8" stroke="#BEBEBE" stroke-width="6" id="n2221"/>
</g>
</g>
</pattern><clipPath id="clip41_68_6728">
<rect width="16" height="16" fill="white" id="n2292"/>
</clipPath>
<clipPath id="clip42_68_6728">
<rect width="16" height="16" fill="white" id="n2293"/>
</clipPath>
</defs>
  <g clip-path="url(#clip__asset)" transform="translate(-11639.0 -216.0)"><path d="M12155 304L12127 304" stroke="#BEBEBE" id="n463"/>
<rect x="12138.5" y="308.5" width="74.9999" height="7" rx="3.5" transform="rotate(90 12138.5 308.5)" fill="white" stroke="#BEBEBE" id="n464"/>
<g mask="url(#mask32_68_6728)" id="n466">
<rect width="76" height="24" transform="matrix(0 1 -1 0 12151 308)" fill="url(#pattern14_68_6728)" id="n467"/>
</g>
<path d="M12155 388L12127 388" stroke="#BEBEBE" id="n468"/>
<path d="M11635 304L11663 304" stroke="#BEBEBE" id="n469"/>
<rect x="0.5" y="0.5" width="74.9999" height="7" rx="3.5" transform="matrix(0 1 1 0 11651 308)" fill="white" stroke="#BEBEBE" id="n470"/>
<g mask="url(#mask33_68_6728)" id="n472">
<rect width="76" height="24" transform="matrix(0 1 1 0 11639 308)" fill="url(#pattern15_68_6728)" id="n473"/>
</g>
<path d="M11635 388L11663 388" stroke="#BEBEBE" id="n474"/>
<rect x="12138.5" y="432.5" width="30.9999" height="7" rx="3.5" transform="rotate(90 12138.5 432.5)" fill="#CADEFC" stroke="#2D548B" id="n476"/>
<rect x="0.5" y="0.5" width="30.9999" height="7" rx="3.5" transform="matrix(-4.37114e-08 1 1 4.37114e-08 11651 432)" fill="#CADEFC" stroke="#2D548B" id="n477"/>
</g>
</svg>
