<?xml version='1.0' encoding='utf-8'?>
<svg xmlns="http://www.w3.org/2000/svg" xmlns:xlink="http://www.w3.org/1999/xlink" width="512.0" height="512.0" viewBox="0 0 512.0 512.0" fill="none">
  <defs><clipPath id="clip__asset"><rect x="0" y="0" width="512.0" height="512.0"/></clipPath><mask id="mask36_68_6728" style="mask-type:alpha" maskUnits="userSpaceOnUse" x="12706" y="308" width="24" height="40">
<rect x="12717.5" y="308.5" width="38.9999" height="7" rx="3.5" transform="rotate(90 12717.5 308.5)" fill="black" stroke="black" id="n495"/>
</mask>
<mask id="mask37_68_6728" style="mask-type:alpha" maskUnits="userSpaceOnUse" x="12218" y="308" width="25" height="40">
<rect x="0.5" y="0.5" width="38.9999" height="7" rx="3.5" transform="matrix(0 1 1 0 12230 308)" fill="black" stroke="black" id="n501"/>
</mask>
<mask id="mask38_68_6728" style="mask-type:alpha" maskUnits="userSpaceOnUse" x="12706" y="596" width="24" height="40">
<rect x="12717.5" y="596.5" width="38.9999" height="7" rx="3.5" transform="rotate(90 12717.5 596.5)" fill="black" stroke="black" id="n508"/>
</mask>
<mask id="mask39_68_6728" style="mask-type:alpha" maskUnits="userSpaceOnUse" x="12218" y="596" width="25" height="40">
<rect x="0.5" y="0.5" width="38.9999" height="7" rx="3.5" transform="matrix(0 1 1 0 12230 596)" fill="black" stroke="black" id="n514"/>
</mask>
<pattern id="pattern18_68_6728" patternUnits="userSpaceOnUse" patternTransform="matrix(16 0 0 16 12 4)" preserveAspectRatio="none" viewBox="0 0 16 16" width="1" height="1">
<g id="pattern18_68_6728_inner">
<g clip-path="url(#clip45_68_6728)" id="n2226">
<path d="M-0.000693321 0L15.9993 16M-8 8L8 24M8 -8L24 8" stroke="#BEBEBE" stroke-width="6" id="n2227"/>
</g>
</g>
</pattern><pattern id="pattern19_68_6728" patternUnits="userSpaceOnUse" patternTransform="matrix(16 0 0 16 12 4)" preserveAspectRatio="none" viewBox="0 0 16 16" width="1" height="1">
<g id="pattern19_68_6728_inner">
<g clip-path="url(#clip46_68_6728)" id="n2228">
<path d="M-0.000693321 0L15.9993 16M-8 8L8 24M8 -8L24 8" stroke="#BEBEBE" stroke-width="6" id="n2229"/>
</g>
</g>
</pattern><pattern id="pattern20_68_6728" patternUnits="userSpaceOnUse" patternTransform="matrix(16 0 0 16 12 4)" preserveAspectRatio="none" viewBox="0 0 16 16" width="1" height="1">
<g id="pattern20_68_6728_inner">
<g clip-path="url(#clip47_68_6728)" id="n2230">
<path d="M-0.000693321 0L15.9993 16M-8 8L8 24M8 -8L24 8" stroke="#BEBEBE" stroke-width="6" id="n2231"/>
</g>
</g>
</pattern><pattern id="pattern21_68_6728" patternUnits="userSpaceOnUse" patternTransform="matrix(16 0 0 16 12 4)" preserveAspectRatio="none" viewBox="0 0 16 16" width="1" height="1">
<g id="pattern21_68_6728_inner">
<g clip-path="url(#clip48_68_6728)" id="n2232">
<path d="M-0.000693321 0L15.9993 16M-8 8L8 24M8 -8L24 8" stroke="#BEBEBE" stroke-width="6" id="n2233"/>
</g>
</g>
</pattern><clipPath id="clip45_68_6728">
<rect width="16" height="16" fill="white" id="n2296"/>
</clipPath>
<clipPath id="clip46_68_6728">
<rect width="16" height="16" fill="white" id="n2297"/>
</clipPath>
<clipPath id="clip47_68_6728">
<rect width="16" height="16" fill="white" id="n2298"/>
</clipPath>
<clipPath id="clip48_68_6728">
<rect width="16" height="16" fill="white" id="n2299"/>
</clipPath>
</defs>
  <g clip-path="url(#clip__asset)" transform="translate(-12218.0 -216.0)"><path d="M12734 304L12706 304" stroke="#BEBEBE" id="n493"/>
<rect x="12717.5" y="308.5" width="38.9998" height="7" rx="3.5" transform="rotate(90 12717.5 308.5)" fill="white" stroke="#BEBEBE" id="n494"/>
<g mask="url(#mask36_68_6728)" id="n496">
<rect width="39.9999" height="24" transform="matrix(0 1 -1 0 12730 308)" fill="url(#pattern18_68_6728)" id="n497"/>
</g>
<path d="M12734 352L12706 352" stroke="#BEBEBE" id="n498"/>
<path d="M12214 304L12242 304" stroke="#BEBEBE" id="n499"/>
<rect x="0.5" y="0.5" width="38.9998" height="7" rx="3.5" transform="matrix(0 1 1 0 12230 308)" fill="white" stroke="#BEBEBE" id="n500"/>
<g mask="url(#mask37_68_6728)" id="n502">
<rect width="39.9999" height="24" transform="matrix(0 1 1 0 12218 308)" fill="url(#pattern19_68_6728)" id="n503"/>
</g>
<path d="M12214 352L12242 352" stroke="#BEBEBE" id="n504"/>
<path d="M12734 592L12706 592" stroke="#BEBEBE" id="n506"/>
<rect x="12717.5" y="596.5" width="38.9998" height="7" rx="3.5" transform="rotate(90 12717.5 596.5)" fill="white" stroke="#BEBEBE" id="n507"/>
<g mask="url(#mask38_68_6728)" id="n509">
<rect width="39.9999" height="24" transform="matrix(0 1 -1 0 12730 596)" fill="url(#pattern20_68_6728)" id="n510"/>
</g>
<path d="M12734 640L12706 640" stroke="#BEBEBE" id="n511"/>
<path d="M12214 592L12242 592" stroke="#BEBEBE" id="n512"/>
<rect x="0.5" y="0.5" width="38.9998" height="7" rx="3.5" transform="matrix(0 1 1 0 12230 596)" fill="white" stroke="#BEBEBE" id="n513"/>
<g mask="url(#mask39_68_6728)" id="n515">
<rect width="39.9999" height="24" transform="matrix(0 1 1 0 12218 596)" fill="url(#pattern21_68_6728)" id="n516"/>
</g>
<path d="M12214 640L12242 640" stroke="#BEBEBE" id="n517"/>
<rect x="12717.5" y="400.5" width="39" height="7" rx="3.5" transform="rotate(90 12717.5 400.5)" fill="#CADEFC" stroke="#2D548B" id="n519"/>
<rect x="0.5" y="0.5" width="39" height="7" rx="3.5" transform="matrix(-4.37114e-08 1 1 4.37114e-08 12230 400)" fill="#CADEFC" stroke="#2D548B" id="n520"/>
</g>
</svg>
