<?xml version='1.0' encoding='utf-8'?>
<svg xmlns="http://www.w3.org/2000/svg" xmlns:xlink="http://www.w3.org/1999/xlink" width="64.0" height="800.0" viewBox="0 0 64.0 800.0" fill="none">
  <defs><clipPath id="clip__asset"><rect x="0" y="0" width="64.0" height="800.0"/></clipPath><mask id="path-741-inside-47_1702_11540" fill="white">
<path d="M6730 776H6794V1032H6730V776Z" id="n905"/>
</mask>
<filter id="filter23_d_1702_11540" x="6728" y="231" width="68" height="804" filterUnits="userSpaceOnUse" color-interpolation-filters="sRGB">
<feFlood flood-opacity="0" result="BackgroundImageFix" id="n1761"/>
<feColorMatrix in="SourceAlpha" type="matrix" values="0 0 0 0 0 0 0 0 0 0 0 0 0 0 0 0 0 0 127 0" result="hardAlpha" id="n1762"/>
<feOffset dy="1" id="n1763"/>
<feGaussianBlur stdDeviation="1" id="n1764"/>
<feColorMatrix type="matrix" values="0 0 0 0 0 0 0 0 0 0 0 0 0 0 0 0 0 0 0.23 0" id="n1765"/>
<feBlend mode="normal" in2="BackgroundImageFix" result="effect1_dropShadow_1702_11540" id="n1766"/>
<feBlend mode="normal" in="SourceGraphic" in2="effect1_dropShadow_1702_11540" result="shape" id="n1767"/>
</filter>
</defs>
  <g clip-path="url(#clip__asset)" transform="translate(-6730.0 -232.0)"><g filter="url(#filter23_d_1702_11540)" id="n886">
<rect width="64" height="800" transform="translate(6730 232)" fill="#FCFCFC" id="n887"/>
<path d="M6761 255H6763V259H6767V261H6763V265H6761V261H6757V259H6761V255Z" fill="#535353" id="n888"/>
<path fill-rule="evenodd" clip-rule="evenodd" d="M6751.61 258.516L6760.52 249.612C6761.33 248.796 6762.67 248.796 6763.48 249.612L6772.39 258.516C6773.2 259.332 6773.2 260.668 6772.39 261.484L6763.48 270.388C6762.67 271.204 6761.33 271.204 6760.52 270.388L6751.61 261.484C6750.8 260.668 6750.8 259.332 6751.61 258.516ZM6762 251L6753 260L6762 269L6771 260L6762 251Z" fill="#535353" id="n889"/>
<path d="M6749.2 280.524H6752.21V284.664C6751.75 284.816 6751.29 284.928 6750.82 285C6750.35 285.08 6749.83 285.12 6749.25 285.12C6748.36 285.12 6747.61 284.944 6746.99 284.592C6746.38 284.24 6745.92 283.736 6745.6 283.08C6745.28 282.416 6745.12 281.628 6745.12 280.716C6745.12 279.828 6745.29 279.056 6745.65 278.4C6746 277.744 6746.5 277.232 6747.16 276.864C6747.82 276.496 6748.62 276.312 6749.55 276.312C6750.02 276.312 6750.47 276.356 6750.89 276.444C6751.32 276.532 6751.72 276.656 6752.09 276.816L6751.72 277.656C6751.4 277.512 6751.05 277.396 6750.66 277.308C6750.29 277.212 6749.9 277.164 6749.5 277.164C6748.79 277.164 6748.19 277.312 6747.69 277.608C6747.18 277.896 6746.79 278.308 6746.52 278.844C6746.26 279.372 6746.13 279.996 6746.13 280.716C6746.13 281.444 6746.24 282.076 6746.47 282.612C6746.71 283.14 6747.08 283.552 6747.57 283.848C6748.06 284.136 6748.69 284.28 6749.46 284.28C6749.73 284.28 6749.96 284.272 6750.17 284.256C6750.38 284.232 6750.57 284.2 6750.75 284.16C6750.92 284.12 6751.09 284.08 6751.24 284.04V281.388H6749.2V280.524ZM6757.02 278.472C6757.15 278.472 6757.29 278.48 6757.43 278.496C6757.57 278.504 6757.7 278.52 6757.81 278.544L6757.69 279.42C6757.58 279.388 6757.46 279.364 6757.33 279.348C6757.21 279.332 6757.09 279.324 6756.96 279.324C6756.7 279.324 6756.46 279.38 6756.23 279.492C6756 279.596 6755.8 279.744 6755.63 279.936C6755.46 280.128 6755.33 280.36 6755.23 280.632C6755.13 280.904 6755.09 281.208 6755.09 281.544V285H6754.14V278.58H6754.92L6755.01 279.768H6755.06C6755.19 279.528 6755.35 279.312 6755.53 279.12C6755.72 278.92 6755.94 278.764 6756.19 278.652C6756.45 278.532 6756.72 278.472 6757.02 278.472ZM6764.31 281.784C6764.31 282.304 6764.24 282.772 6764.11 283.188C6763.97 283.596 6763.77 283.944 6763.52 284.232C6763.26 284.52 6762.95 284.74 6762.58 284.892C6762.21 285.044 6761.8 285.12 6761.35 285.12C6760.91 285.12 6760.52 285.044 6760.16 284.892C6759.81 284.74 6759.5 284.52 6759.23 284.232C6758.98 283.944 6758.78 283.596 6758.63 283.188C6758.5 282.78 6758.43 282.312 6758.43 281.784C6758.43 281.08 6758.55 280.484 6758.78 279.996C6759.02 279.5 6759.36 279.12 6759.8 278.856C6760.25 278.592 6760.77 278.46 6761.38 278.46C6761.97 278.46 6762.49 278.592 6762.92 278.856C6763.36 279.12 6763.7 279.5 6763.94 279.996C6764.19 280.492 6764.31 281.088 6764.31 281.784ZM6759.4 281.784C6759.4 282.296 6759.47 282.744 6759.61 283.128C6759.75 283.512 6759.97 283.808 6760.25 284.016C6760.54 284.224 6760.91 284.328 6761.36 284.328C6761.81 284.328 6762.19 284.224 6762.47 284.016C6762.77 283.808 6762.99 283.512 6763.12 283.128C6763.26 282.744 6763.33 282.296 6763.33 281.784C6763.33 281.264 6763.25 280.82 6763.11 280.452C6762.97 280.076 6762.76 279.784 6762.47 279.576C6762.19 279.368 6761.82 279.264 6761.36 279.264C6760.69 279.264 6760.19 279.488 6759.87 279.936C6759.56 280.376 6759.4 280.992 6759.4 281.784ZM6771.25 278.58V285H6770.49L6770.34 284.076H6770.31C6770.17 284.3 6769.99 284.492 6769.78 284.652C6769.57 284.804 6769.33 284.92 6769.07 285C6768.81 285.08 6768.52 285.12 6768.22 285.12C6767.71 285.12 6767.29 285.04 6766.95 284.88C6766.6 284.712 6766.34 284.456 6766.17 284.112C6765.99 283.768 6765.9 283.324 6765.9 282.78V278.58H6766.86V282.72C6766.86 283.256 6766.98 283.66 6767.22 283.932C6767.47 284.196 6767.85 284.328 6768.35 284.328C6768.83 284.328 6769.21 284.24 6769.49 284.064C6769.78 283.88 6769.99 283.612 6770.11 283.26C6770.25 282.908 6770.32 282.48 6770.32 281.976V278.58H6771.25ZM6776.32 278.46C6777.12 278.46 6777.76 278.736 6778.23 279.288C6778.71 279.84 6778.95 280.668 6778.95 281.772C6778.95 282.5 6778.84 283.116 6778.61 283.62C6778.4 284.116 6778.09 284.492 6777.69 284.748C6777.3 284.996 6776.83 285.12 6776.3 285.12C6775.95 285.12 6775.65 285.072 6775.39 284.976C6775.12 284.88 6774.9 284.756 6774.71 284.604C6774.54 284.452 6774.39 284.284 6774.27 284.1H6774.2C6774.21 284.252 6774.23 284.436 6774.25 284.652C6774.26 284.868 6774.27 285.06 6774.27 285.228V287.868H6773.32V278.58H6774.09L6774.22 279.552H6774.27C6774.39 279.352 6774.54 279.172 6774.73 279.012C6774.91 278.844 6775.13 278.712 6775.39 278.616C6775.65 278.512 6775.96 278.46 6776.32 278.46ZM6776.15 279.264C6775.71 279.264 6775.35 279.352 6775.07 279.528C6774.8 279.704 6774.6 279.964 6774.46 280.308C6774.33 280.652 6774.27 281.084 6774.27 281.604V281.784C6774.27 282.336 6774.33 282.8 6774.45 283.176C6774.57 283.552 6774.77 283.84 6775.05 284.04C6775.33 284.232 6775.7 284.328 6776.17 284.328C6776.57 284.328 6776.9 284.22 6777.16 284.004C6777.43 283.788 6777.64 283.488 6777.77 283.104C6777.91 282.72 6777.98 282.272 6777.98 281.76C6777.98 280.984 6777.83 280.376 6777.52 279.936C6777.23 279.488 6776.77 279.264 6776.15 279.264Z" fill="#535353" id="n890"/>
<path d="M6740 304.5H6784C6787.04 304.5 6789.5 306.962 6789.5 310V354C6789.5 357.038 6787.04 359.5 6784 359.5H6740C6736.96 359.5 6734.5 357.038 6734.5 354V310C6734.5 306.962 6736.96 304.5 6740 304.5Z" fill="#E4EEFD" id="n891"/>
<path d="M6740 304.5H6784C6787.04 304.5 6789.5 306.962 6789.5 310V354C6789.5 357.038 6787.04 359.5 6784 359.5H6740C6736.96 359.5 6734.5 357.038 6734.5 354V310C6734.5 306.962 6736.96 304.5 6740 304.5Z" stroke="#B2CFF9" id="n892"/>
<path d="M6761 319H6763V323H6767V325H6763V329H6761V325H6757V323H6761V319Z" fill="#1D3C67" id="n893"/>
<path fill-rule="evenodd" clip-rule="evenodd" d="M6751.61 322.516L6760.52 313.612C6761.33 312.796 6762.67 312.796 6763.48 313.612L6772.39 322.516C6773.2 323.332 6773.2 324.668 6772.39 325.484L6763.48 334.388C6762.67 335.204 6761.33 335.204 6760.52 334.388L6751.61 325.484C6750.8 324.668 6750.8 323.332 6751.61 322.516ZM6762 315L6753 324L6762 333L6771 324L6762 315Z" fill="#1D3C67" id="n894"/>
<path d="M6748.06 344.224H6751.41V348.628C6750.96 348.78 6750.5 348.9 6750.01 348.988C6749.53 349.076 6748.98 349.12 6748.36 349.12C6747.52 349.12 6746.79 348.952 6746.19 348.616C6745.6 348.272 6745.15 347.772 6744.84 347.116C6744.52 346.46 6744.37 345.656 6744.37 344.704C6744.37 343.808 6744.54 343.032 6744.88 342.376C6745.24 341.72 6745.74 341.212 6746.41 340.852C6747.07 340.492 6747.88 340.312 6748.84 340.312C6749.3 340.312 6749.75 340.36 6750.19 340.456C6750.63 340.552 6751.03 340.68 6751.39 340.84L6750.81 342.232C6750.54 342.096 6750.23 341.984 6749.89 341.896C6749.55 341.808 6749.2 341.764 6748.83 341.764C6748.28 341.764 6747.8 341.888 6747.4 342.136C6747.01 342.376 6746.7 342.72 6746.48 343.168C6746.26 343.608 6746.16 344.132 6746.16 344.74C6746.16 345.308 6746.24 345.816 6746.4 346.264C6746.56 346.704 6746.81 347.048 6747.15 347.296C6747.5 347.544 6747.95 347.668 6748.51 347.668C6748.69 347.668 6748.85 347.664 6748.99 347.656C6749.13 347.64 6749.26 347.624 6749.37 347.608C6749.49 347.584 6749.61 347.564 6749.72 347.548V345.676H6748.06V344.224ZM6756.89 342.34C6756.98 342.34 6757.08 342.344 6757.2 342.352C6757.33 342.36 6757.43 342.372 6757.5 342.388L6757.37 343.996C6757.31 343.98 6757.22 343.964 6757.11 343.948C6757 343.932 6756.91 343.924 6756.82 343.924C6756.59 343.924 6756.36 343.96 6756.15 344.032C6755.93 344.096 6755.74 344.196 6755.56 344.332C6755.39 344.46 6755.26 344.636 6755.15 344.86C6755.06 345.076 6755.01 345.34 6755.01 345.652V349H6753.3V342.46H6754.6L6754.85 343.576H6754.92C6755.06 343.352 6755.22 343.148 6755.42 342.964C6755.61 342.772 6755.83 342.62 6756.08 342.508C6756.32 342.396 6756.6 342.34 6756.89 342.34ZM6764.36 345.724C6764.36 346.268 6764.29 346.752 6764.15 347.176C6764 347.592 6763.79 347.948 6763.51 348.244C6763.24 348.532 6762.91 348.752 6762.52 348.904C6762.13 349.048 6761.7 349.12 6761.21 349.12C6760.75 349.12 6760.33 349.048 6759.94 348.904C6759.55 348.752 6759.22 348.532 6758.94 348.244C6758.67 347.948 6758.45 347.588 6758.29 347.164C6758.14 346.74 6758.06 346.256 6758.06 345.712C6758.06 344.992 6758.19 344.384 6758.45 343.888C6758.7 343.384 6759.07 343 6759.54 342.736C6760.02 342.472 6760.58 342.34 6761.23 342.34C6761.85 342.34 6762.39 342.472 6762.85 342.736C6763.32 343 6763.69 343.384 6763.96 343.888C6764.23 344.384 6764.36 344.996 6764.36 345.724ZM6759.8 345.724C6759.8 346.164 6759.85 346.536 6759.95 346.84C6760.04 347.136 6760.2 347.36 6760.4 347.512C6760.62 347.664 6760.89 347.74 6761.22 347.74C6761.56 347.74 6761.82 347.664 6762.02 347.512C6762.23 347.36 6762.38 347.136 6762.48 346.84C6762.58 346.536 6762.62 346.164 6762.62 345.724C6762.62 345.276 6762.58 344.904 6762.48 344.608C6762.38 344.312 6762.23 344.092 6762.02 343.948C6761.82 343.796 6761.54 343.72 6761.21 343.72C6760.72 343.72 6760.36 343.888 6760.14 344.224C6759.92 344.56 6759.8 345.06 6759.8 345.724ZM6771.81 342.46V349H6770.5L6770.26 348.16H6770.17C6770.04 348.384 6769.86 348.568 6769.65 348.712C6769.44 348.848 6769.21 348.948 6768.95 349.012C6768.69 349.084 6768.43 349.12 6768.16 349.12C6767.69 349.12 6767.27 349.036 6766.92 348.868C6766.57 348.7 6766.3 348.44 6766.11 348.088C6765.91 347.736 6765.82 347.284 6765.82 346.732V342.46H6767.53V346.324C6767.53 346.796 6767.62 347.152 6767.79 347.392C6767.96 347.632 6768.24 347.752 6768.63 347.752C6769.01 347.752 6769.31 347.668 6769.51 347.5C6769.73 347.332 6769.88 347.088 6769.97 346.768C6770.06 346.44 6770.1 346.044 6770.1 345.58V342.46H6771.81ZM6777.28 342.34C6778.03 342.34 6778.63 342.628 6779.08 343.204C6779.55 343.772 6779.78 344.612 6779.78 345.724C6779.78 346.46 6779.67 347.084 6779.45 347.596C6779.24 348.1 6778.94 348.48 6778.55 348.736C6778.18 348.992 6777.74 349.12 6777.25 349.12C6776.93 349.12 6776.65 349.08 6776.42 349C6776.19 348.92 6776 348.816 6775.83 348.688C6775.67 348.552 6775.53 348.412 6775.41 348.268H6775.31C6775.35 348.42 6775.37 348.58 6775.39 348.748C6775.4 348.916 6775.41 349.08 6775.41 349.24V351.88H6773.71V342.46H6775.09L6775.33 343.312H6775.41C6775.53 343.136 6775.67 342.976 6775.84 342.832C6776.01 342.68 6776.21 342.56 6776.45 342.472C6776.69 342.384 6776.97 342.34 6777.28 342.34ZM6776.75 343.708C6776.43 343.708 6776.17 343.776 6775.97 343.912C6775.78 344.04 6775.64 344.24 6775.55 344.512C6775.47 344.776 6775.42 345.112 6775.41 345.52V345.712C6775.41 346.144 6775.45 346.512 6775.53 346.816C6775.62 347.112 6775.76 347.34 6775.96 347.5C6776.16 347.652 6776.43 347.728 6776.78 347.728C6777.07 347.728 6777.3 347.652 6777.49 347.5C6777.67 347.34 6777.81 347.108 6777.89 346.804C6777.99 346.492 6778.04 346.124 6778.04 345.7C6778.04 345.044 6777.93 344.548 6777.73 344.212C6777.52 343.876 6777.19 343.708 6776.75 343.708Z" fill="#1D3C67" id="n895"/>
<path d="M6761 383H6763V387H6767V389H6763V393H6761V389H6757V387H6761V383Z" fill="#535353" id="n896"/>
<path fill-rule="evenodd" clip-rule="evenodd" d="M6751.61 386.516L6760.52 377.612C6761.33 376.796 6762.67 376.796 6763.48 377.612L6772.39 386.516C6773.2 387.332 6773.2 388.668 6772.39 389.484L6763.48 398.388C6762.67 399.204 6761.33 399.204 6760.52 398.388L6751.61 389.484C6750.8 388.668 6750.8 387.332 6751.61 386.516ZM6762 379L6753 388L6762 397L6771 388L6762 379Z" fill="#535353" id="n897"/>
<path d="M6751.47 404.432C6752.56 404.432 6753.36 404.648 6753.87 405.08C6754.39 405.504 6754.64 406.12 6754.64 406.928C6754.64 407.296 6754.58 407.644 6754.46 407.972C6754.34 408.292 6754.15 408.576 6753.89 408.824C6753.62 409.072 6753.27 409.268 6752.84 409.412C6752.41 409.548 6751.89 409.616 6751.27 409.616H6750.2V413H6749.24V404.432H6751.47ZM6751.38 405.26H6750.2V408.788H6751.16C6751.71 408.788 6752.17 408.728 6752.54 408.608C6752.91 408.488 6753.19 408.296 6753.37 408.032C6753.55 407.76 6753.65 407.404 6753.65 406.964C6753.65 406.388 6753.46 405.96 6753.09 405.68C6752.73 405.4 6752.16 405.26 6751.38 405.26ZM6758.67 406.472C6759.44 406.472 6760.01 406.648 6760.37 407C6760.74 407.344 6760.93 407.892 6760.93 408.644V413H6760.23L6760.05 412.04H6760.01C6759.84 412.272 6759.65 412.472 6759.45 412.64C6759.26 412.8 6759.03 412.92 6758.77 413C6758.51 413.08 6758.2 413.12 6757.83 413.12C6757.44 413.12 6757.09 413.052 6756.79 412.916C6756.48 412.78 6756.24 412.572 6756.07 412.292C6755.9 412.012 6755.81 411.664 6755.81 411.248C6755.81 410.608 6756.07 410.116 6756.57 409.772C6757.08 409.428 6757.85 409.24 6758.89 409.208L6760 409.16V408.764C6760 408.196 6759.88 407.8 6759.64 407.576C6759.41 407.352 6759.07 407.24 6758.62 407.24C6758.29 407.24 6757.97 407.288 6757.66 407.384C6757.37 407.48 6757.08 407.596 6756.8 407.732L6756.51 407.012C6756.8 406.86 6757.13 406.732 6757.51 406.628C6757.88 406.524 6758.27 406.472 6758.67 406.472ZM6759.01 409.868C6758.21 409.9 6757.64 410.032 6757.3 410.264C6756.97 410.496 6756.8 410.828 6756.8 411.26C6756.8 411.628 6756.91 411.904 6757.13 412.088C6757.37 412.264 6757.67 412.352 6758.03 412.352C6758.62 412.352 6759.09 412.192 6759.45 411.872C6759.81 411.544 6759.99 411.06 6759.99 410.42V409.832L6759.01 409.868ZM6765.22 406.46C6765.67 406.46 6766.06 406.548 6766.39 406.724C6766.73 406.892 6767.01 407.14 6767.25 407.468H6767.31L6767.44 406.58H6768.18V413.132C6768.18 413.724 6768.08 414.224 6767.88 414.632C6767.68 415.048 6767.37 415.36 6766.95 415.568C6766.53 415.776 6765.99 415.88 6765.34 415.88C6764.87 415.88 6764.45 415.844 6764.07 415.772C6763.68 415.7 6763.34 415.6 6763.03 415.472V414.584C6763.24 414.688 6763.47 414.776 6763.72 414.848C6763.97 414.928 6764.23 414.988 6764.51 415.028C6764.8 415.068 6765.09 415.088 6765.4 415.088C6765.99 415.088 6766.45 414.92 6766.77 414.584C6767.09 414.248 6767.25 413.788 6767.25 413.204V412.916C6767.25 412.804 6767.25 412.66 6767.26 412.484C6767.27 412.3 6767.27 412.16 6767.28 412.064H6767.25C6767.03 412.416 6766.75 412.68 6766.41 412.856C6766.07 413.032 6765.67 413.12 6765.21 413.12C6764.37 413.12 6763.73 412.832 6763.26 412.256C6762.8 411.68 6762.57 410.868 6762.57 409.82C6762.57 409.132 6762.67 408.536 6762.88 408.032C6763.09 407.528 6763.39 407.14 6763.78 406.868C6764.18 406.596 6764.66 406.46 6765.22 406.46ZM6765.34 407.264C6764.95 407.264 6764.63 407.364 6764.35 407.564C6764.09 407.764 6763.89 408.056 6763.74 408.44C6763.61 408.816 6763.54 409.28 6763.54 409.832C6763.54 410.64 6763.69 411.26 6763.99 411.692C6764.31 412.124 6764.75 412.34 6765.34 412.34C6765.69 412.34 6765.99 412.292 6766.23 412.196C6766.47 412.1 6766.66 411.956 6766.81 411.764C6766.97 411.572 6767.09 411.332 6767.15 411.044C6767.22 410.756 6767.26 410.424 6767.26 410.048V409.748C6767.26 409.172 6767.19 408.704 6767.05 408.344C6766.93 407.976 6766.72 407.704 6766.44 407.528C6766.16 407.352 6765.79 407.264 6765.34 407.264ZM6772.71 406.46C6773.26 406.46 6773.73 406.584 6774.11 406.832C6774.51 407.072 6774.8 407.412 6775 407.852C6775.21 408.284 6775.31 408.792 6775.31 409.376V409.964H6770.86C6770.88 410.724 6771.07 411.308 6771.43 411.716C6771.79 412.116 6772.31 412.316 6772.99 412.316C6773.39 412.316 6773.74 412.28 6774.05 412.208C6774.37 412.128 6774.69 412.016 6775.03 411.872V412.7C6774.71 412.844 6774.39 412.948 6774.07 413.012C6773.75 413.084 6773.37 413.12 6772.94 413.12C6772.32 413.12 6771.78 412.996 6771.32 412.748C6770.86 412.492 6770.51 412.12 6770.26 411.632C6770.01 411.136 6769.89 410.54 6769.89 409.844C6769.89 409.156 6770 408.56 6770.23 408.056C6770.46 407.552 6770.79 407.16 6771.21 406.88C6771.63 406.6 6772.13 406.46 6772.71 406.46ZM6772.7 407.24C6772.17 407.24 6771.75 407.412 6771.44 407.756C6771.13 408.1 6770.94 408.584 6770.89 409.208H6774.33C6774.33 408.816 6774.27 408.476 6774.15 408.188C6774.04 407.892 6773.86 407.66 6773.62 407.492C6773.38 407.324 6773.07 407.24 6772.7 407.24Z" fill="#535353" id="n898"/>
<path d="M6761 447H6763V451H6767V453H6763V457H6761V453H6757V451H6761V447Z" fill="#535353" id="n899"/>
<path fill-rule="evenodd" clip-rule="evenodd" d="M6751.61 450.516L6760.52 441.612C6761.33 440.796 6762.67 440.796 6763.48 441.612L6772.39 450.516C6773.2 451.332 6773.2 452.668 6772.39 453.484L6763.48 462.388C6762.67 463.204 6761.33 463.204 6760.52 462.388L6751.61 453.484C6750.8 452.668 6750.8 451.332 6751.61 450.516ZM6762 443L6753 452L6762 461L6771 452L6762 443Z" fill="#535353" id="n900"/>
<path d="M6751.47 468.432C6752.56 468.432 6753.36 468.648 6753.87 469.08C6754.39 469.504 6754.64 470.12 6754.64 470.928C6754.64 471.296 6754.58 471.644 6754.46 471.972C6754.34 472.292 6754.15 472.576 6753.89 472.824C6753.62 473.072 6753.27 473.268 6752.84 473.412C6752.41 473.548 6751.89 473.616 6751.27 473.616H6750.2V477H6749.24V468.432H6751.47ZM6751.38 469.26H6750.2V472.788H6751.16C6751.71 472.788 6752.17 472.728 6752.54 472.608C6752.91 472.488 6753.19 472.296 6753.37 472.032C6753.55 471.76 6753.65 471.404 6753.65 470.964C6753.65 470.388 6753.46 469.96 6753.09 469.68C6752.73 469.4 6752.16 469.26 6751.38 469.26ZM6758.67 470.472C6759.44 470.472 6760.01 470.648 6760.37 471C6760.74 471.344 6760.93 471.892 6760.93 472.644V477H6760.23L6760.05 476.04H6760.01C6759.84 476.272 6759.65 476.472 6759.45 476.64C6759.26 476.8 6759.03 476.92 6758.77 477C6758.51 477.08 6758.2 477.12 6757.83 477.12C6757.44 477.12 6757.09 477.052 6756.79 476.916C6756.48 476.78 6756.24 476.572 6756.07 476.292C6755.9 476.012 6755.81 475.664 6755.81 475.248C6755.81 474.608 6756.07 474.116 6756.57 473.772C6757.08 473.428 6757.85 473.24 6758.89 473.208L6760 473.16V472.764C6760 472.196 6759.88 471.8 6759.64 471.576C6759.41 471.352 6759.07 471.24 6758.62 471.24C6758.29 471.24 6757.97 471.288 6757.66 471.384C6757.37 471.48 6757.08 471.596 6756.8 471.732L6756.51 471.012C6756.8 470.86 6757.13 470.732 6757.51 470.628C6757.88 470.524 6758.27 470.472 6758.67 470.472ZM6759.01 473.868C6758.21 473.9 6757.64 474.032 6757.3 474.264C6756.97 474.496 6756.8 474.828 6756.8 475.26C6756.8 475.628 6756.91 475.904 6757.13 476.088C6757.37 476.264 6757.67 476.352 6758.03 476.352C6758.62 476.352 6759.09 476.192 6759.45 475.872C6759.81 475.544 6759.99 475.06 6759.99 474.42V473.832L6759.01 473.868ZM6765.22 470.46C6765.67 470.46 6766.06 470.548 6766.39 470.724C6766.73 470.892 6767.01 471.14 6767.25 471.468H6767.31L6767.44 470.58H6768.18V477.132C6768.18 477.724 6768.08 478.224 6767.88 478.632C6767.68 479.048 6767.37 479.36 6766.95 479.568C6766.53 479.776 6765.99 479.88 6765.34 479.88C6764.87 479.88 6764.45 479.844 6764.07 479.772C6763.68 479.7 6763.34 479.6 6763.03 479.472V478.584C6763.24 478.688 6763.47 478.776 6763.72 478.848C6763.97 478.928 6764.23 478.988 6764.51 479.028C6764.8 479.068 6765.09 479.088 6765.4 479.088C6765.99 479.088 6766.45 478.92 6766.77 478.584C6767.09 478.248 6767.25 477.788 6767.25 477.204V476.916C6767.25 476.804 6767.25 476.66 6767.26 476.484C6767.27 476.3 6767.27 476.16 6767.28 476.064H6767.25C6767.03 476.416 6766.75 476.68 6766.41 476.856C6766.07 477.032 6765.67 477.12 6765.21 477.12C6764.37 477.12 6763.73 476.832 6763.26 476.256C6762.8 475.68 6762.57 474.868 6762.57 473.82C6762.57 473.132 6762.67 472.536 6762.88 472.032C6763.09 471.528 6763.39 471.14 6763.78 470.868C6764.18 470.596 6764.66 470.46 6765.22 470.46ZM6765.34 471.264C6764.95 471.264 6764.63 471.364 6764.35 471.564C6764.09 471.764 6763.89 472.056 6763.74 472.44C6763.61 472.816 6763.54 473.28 6763.54 473.832C6763.54 474.64 6763.69 475.26 6763.99 475.692C6764.31 476.124 6764.75 476.34 6765.34 476.34C6765.69 476.34 6765.99 476.292 6766.23 476.196C6766.47 476.1 6766.66 475.956 6766.81 475.764C6766.97 475.572 6767.09 475.332 6767.15 475.044C6767.22 474.756 6767.26 474.424 6767.26 474.048V473.748C6767.26 473.172 6767.19 472.704 6767.05 472.344C6766.93 471.976 6766.72 471.704 6766.44 471.528C6766.16 471.352 6765.79 471.264 6765.34 471.264ZM6772.71 470.46C6773.26 470.46 6773.73 470.584 6774.11 470.832C6774.51 471.072 6774.8 471.412 6775 471.852C6775.21 472.284 6775.31 472.792 6775.31 473.376V473.964H6770.86C6770.88 474.724 6771.07 475.308 6771.43 475.716C6771.79 476.116 6772.31 476.316 6772.99 476.316C6773.39 476.316 6773.74 476.28 6774.05 476.208C6774.37 476.128 6774.69 476.016 6775.03 475.872V476.7C6774.71 476.844 6774.39 476.948 6774.07 477.012C6773.75 477.084 6773.37 477.12 6772.94 477.12C6772.32 477.12 6771.78 476.996 6771.32 476.748C6770.86 476.492 6770.51 476.12 6770.26 475.632C6770.01 475.136 6769.89 474.54 6769.89 473.844C6769.89 473.156 6770 472.56 6770.23 472.056C6770.46 471.552 6770.79 471.16 6771.21 470.88C6771.63 470.6 6772.13 470.46 6772.71 470.46ZM6772.7 471.24C6772.17 471.24 6771.75 471.412 6771.44 471.756C6771.13 472.1 6770.94 472.584 6770.89 473.208H6774.33C6774.33 472.816 6774.27 472.476 6774.15 472.188C6774.04 471.892 6773.86 471.66 6773.62 471.492C6773.38 471.324 6773.07 471.24 6772.7 471.24Z" fill="#535353" id="n901"/>
<path d="M6761 511H6763V515H6767V517H6763V521H6761V517H6757V515H6761V511Z" fill="#535353" id="n902"/>
<path fill-rule="evenodd" clip-rule="evenodd" d="M6751.61 514.516L6760.52 505.612C6761.33 504.796 6762.67 504.796 6763.48 505.612L6772.39 514.516C6773.2 515.332 6773.2 516.668 6772.39 517.484L6763.48 526.388C6762.67 527.204 6761.33 527.204 6760.52 526.388L6751.61 517.484C6750.8 516.668 6750.8 515.332 6751.61 514.516ZM6762 507L6753 516L6762 525L6771 516L6762 507Z" fill="#535353" id="n903"/>
<path d="M6751.47 532.432C6752.56 532.432 6753.36 532.648 6753.87 533.08C6754.39 533.504 6754.64 534.12 6754.64 534.928C6754.64 535.296 6754.58 535.644 6754.46 535.972C6754.34 536.292 6754.15 536.576 6753.89 536.824C6753.62 537.072 6753.27 537.268 6752.84 537.412C6752.41 537.548 6751.89 537.616 6751.27 537.616H6750.2V541H6749.24V532.432H6751.47ZM6751.38 533.26H6750.2V536.788H6751.16C6751.71 536.788 6752.17 536.728 6752.54 536.608C6752.91 536.488 6753.19 536.296 6753.37 536.032C6753.55 535.76 6753.65 535.404 6753.65 534.964C6753.65 534.388 6753.46 533.96 6753.09 533.68C6752.73 533.4 6752.16 533.26 6751.38 533.26ZM6758.67 534.472C6759.44 534.472 6760.01 534.648 6760.37 535C6760.74 535.344 6760.93 535.892 6760.93 536.644V541H6760.23L6760.05 540.04H6760.01C6759.84 540.272 6759.65 540.472 6759.45 540.64C6759.26 540.8 6759.03 540.92 6758.77 541C6758.51 541.08 6758.2 541.12 6757.83 541.12C6757.44 541.12 6757.09 541.052 6756.79 540.916C6756.48 540.78 6756.24 540.572 6756.07 540.292C6755.9 540.012 6755.81 539.664 6755.81 539.248C6755.81 538.608 6756.07 538.116 6756.57 537.772C6757.08 537.428 6757.85 537.24 6758.89 537.208L6760 537.16V536.764C6760 536.196 6759.88 535.8 6759.64 535.576C6759.41 535.352 6759.07 535.24 6758.62 535.24C6758.29 535.24 6757.97 535.288 6757.66 535.384C6757.37 535.48 6757.08 535.596 6756.8 535.732L6756.51 535.012C6756.8 534.86 6757.13 534.732 6757.51 534.628C6757.88 534.524 6758.27 534.472 6758.67 534.472ZM6759.01 537.868C6758.21 537.9 6757.64 538.032 6757.3 538.264C6756.97 538.496 6756.8 538.828 6756.8 539.26C6756.8 539.628 6756.91 539.904 6757.13 540.088C6757.37 540.264 6757.67 540.352 6758.03 540.352C6758.62 540.352 6759.09 540.192 6759.45 539.872C6759.81 539.544 6759.99 539.06 6759.99 538.42V537.832L6759.01 537.868ZM6765.22 534.46C6765.67 534.46 6766.06 534.548 6766.39 534.724C6766.73 534.892 6767.01 535.14 6767.25 535.468H6767.31L6767.44 534.58H6768.18V541.132C6768.18 541.724 6768.08 542.224 6767.88 542.632C6767.68 543.048 6767.37 543.36 6766.95 543.568C6766.53 543.776 6765.99 543.88 6765.34 543.88C6764.87 543.88 6764.45 543.844 6764.07 543.772C6763.68 543.7 6763.34 543.6 6763.03 543.472V542.584C6763.24 542.688 6763.47 542.776 6763.72 542.848C6763.97 542.928 6764.23 542.988 6764.51 543.028C6764.8 543.068 6765.09 543.088 6765.4 543.088C6765.99 543.088 6766.45 542.92 6766.77 542.584C6767.09 542.248 6767.25 541.788 6767.25 541.204V540.916C6767.25 540.804 6767.25 540.66 6767.26 540.484C6767.27 540.3 6767.27 540.16 6767.28 540.064H6767.25C6767.03 540.416 6766.75 540.68 6766.41 540.856C6766.07 541.032 6765.67 541.12 6765.21 541.12C6764.37 541.12 6763.73 540.832 6763.26 540.256C6762.8 539.68 6762.57 538.868 6762.57 537.82C6762.57 537.132 6762.67 536.536 6762.88 536.032C6763.09 535.528 6763.39 535.14 6763.78 534.868C6764.18 534.596 6764.66 534.46 6765.22 534.46ZM6765.34 535.264C6764.95 535.264 6764.63 535.364 6764.35 535.564C6764.09 535.764 6763.89 536.056 6763.74 536.44C6763.61 536.816 6763.54 537.28 6763.54 537.832C6763.54 538.64 6763.69 539.26 6763.99 539.692C6764.31 540.124 6764.75 540.34 6765.34 540.34C6765.69 540.34 6765.99 540.292 6766.23 540.196C6766.47 540.1 6766.66 539.956 6766.81 539.764C6766.97 539.572 6767.09 539.332 6767.15 539.044C6767.22 538.756 6767.26 538.424 6767.26 538.048V537.748C6767.26 537.172 6767.19 536.704 6767.05 536.344C6766.93 535.976 6766.72 535.704 6766.44 535.528C6766.16 535.352 6765.79 535.264 6765.34 535.264ZM6772.71 534.46C6773.26 534.46 6773.73 534.584 6774.11 534.832C6774.51 535.072 6774.8 535.412 6775 535.852C6775.21 536.284 6775.31 536.792 6775.31 537.376V537.964H6770.86C6770.88 538.724 6771.07 539.308 6771.43 539.716C6771.79 540.116 6772.31 540.316 6772.99 540.316C6773.39 540.316 6773.74 540.28 6774.05 540.208C6774.37 540.128 6774.69 540.016 6775.03 539.872V540.7C6774.71 540.844 6774.39 540.948 6774.07 541.012C6773.75 541.084 6773.37 541.12 6772.94 541.12C6772.32 541.12 6771.78 540.996 6771.32 540.748C6770.86 540.492 6770.51 540.12 6770.26 539.632C6770.01 539.136 6769.89 538.54 6769.89 537.844C6769.89 537.156 6770 536.56 6770.23 536.056C6770.46 535.552 6770.79 535.16 6771.21 534.88C6771.63 534.6 6772.13 534.46 6772.71 534.46ZM6772.7 535.24C6772.17 535.24 6771.75 535.412 6771.44 535.756C6771.13 536.1 6770.94 536.584 6770.89 537.208H6774.33C6774.33 536.816 6774.27 536.476 6774.15 536.188C6774.04 535.892 6773.86 535.66 6773.62 535.492C6773.38 535.324 6773.07 535.24 6772.7 535.24Z" fill="#535353" id="n904"/>
<mask id="path-741-inside-47_1702_11540" fill="white">
<path d="M6730 776H6794V1032H6730V776Z" id="n905"/>
</mask>
<path d="M6730 777H6794V775H6730V777Z" fill="#DDDDDD" mask="url(#path-741-inside-47_1702_11540)" id="n906"/>
<path d="M6752 796.995V794.997H6753.98V796.995H6752Z" fill="#535353" id="n907"/>
<path d="M6752 800.992V798.993H6753.98V800.992H6752Z" fill="#535353" id="n908"/>
<path d="M6752 792.998V791H6753.98V792.998H6752Z" fill="#535353" id="n909"/>
<path d="M6755.96 796.995V794.997H6762.99L6762.43 796.126L6762 796.995H6755.96Z" fill="#535353" id="n910"/>
<path d="M6755.96 800.992V798.993H6760.99L6760 800.992H6755.96Z" fill="#535353" id="n911"/>
<path d="M6755.96 792.998V791H6769.82V792.998H6755.96Z" fill="#535353" id="n912"/>
<path fill-rule="evenodd" clip-rule="evenodd" d="M6771.9 806.719L6766.29 795.491C6765.96 794.836 6765.04 794.836 6764.71 795.491L6759.1 806.719C6758.8 807.315 6759.23 808 6759.89 808H6771.11C6771.77 808 6772.2 807.315 6771.9 806.719ZM6764.75 806.5H6766.25V805H6764.75V806.5ZM6764.75 803.5H6766.25V799H6764.75V803.5Z" fill="#535353" id="n913"/>
<path d="M6752.49 825L6751.42 822.252H6747.97L6746.92 825H6745.93L6749.28 816.396H6750.16L6753.48 825H6752.49ZM6750.11 818.652C6750.09 818.588 6750.05 818.476 6749.99 818.316C6749.93 818.156 6749.88 817.992 6749.83 817.824C6749.79 817.648 6749.74 817.508 6749.7 817.404C6749.66 817.564 6749.62 817.724 6749.57 817.884C6749.53 818.036 6749.49 818.18 6749.44 818.316C6749.4 818.444 6749.36 818.56 6749.33 818.664L6748.3 821.4H6751.12L6750.11 818.652ZM6755.47 825H6754.52V815.88H6755.47V825ZM6759.98 818.46C6760.54 818.46 6761 818.584 6761.39 818.832C6761.78 819.072 6762.08 819.412 6762.28 819.852C6762.48 820.284 6762.59 820.792 6762.59 821.376V821.964H6758.14C6758.15 822.724 6758.34 823.308 6758.7 823.716C6759.07 824.116 6759.59 824.316 6760.26 824.316C6760.66 824.316 6761.02 824.28 6761.33 824.208C6761.64 824.128 6761.96 824.016 6762.3 823.872V824.7C6761.98 824.844 6761.66 824.948 6761.34 825.012C6761.02 825.084 6760.64 825.12 6760.21 825.12C6759.6 825.12 6759.06 824.996 6758.59 824.748C6758.14 824.492 6757.78 824.12 6757.54 823.632C6757.29 823.136 6757.16 822.54 6757.16 821.844C6757.16 821.156 6757.28 820.56 6757.5 820.056C6757.73 819.552 6758.06 819.16 6758.48 818.88C6758.91 818.6 6759.41 818.46 6759.98 818.46ZM6759.97 819.24C6759.44 819.24 6759.02 819.412 6758.71 819.756C6758.4 820.1 6758.22 820.584 6758.16 821.208H6761.6C6761.6 820.816 6761.54 820.476 6761.42 820.188C6761.31 819.892 6761.14 819.66 6760.9 819.492C6760.66 819.324 6760.35 819.24 6759.97 819.24ZM6767.12 818.472C6767.26 818.472 6767.39 818.48 6767.53 818.496C6767.67 818.504 6767.8 818.52 6767.91 818.544L6767.79 819.42C6767.68 819.388 6767.56 819.364 6767.43 819.348C6767.31 819.332 6767.19 819.324 6767.06 819.324C6766.8 819.324 6766.56 819.38 6766.33 819.492C6766.1 819.596 6765.9 819.744 6765.73 819.936C6765.56 820.128 6765.43 820.36 6765.33 820.632C6765.24 820.904 6765.19 821.208 6765.19 821.544V825H6764.24V818.58H6765.02L6765.12 819.768H6765.16C6765.29 819.528 6765.45 819.312 6765.63 819.12C6765.82 818.92 6766.04 818.764 6766.29 818.652C6766.55 818.532 6766.82 818.472 6767.12 818.472ZM6771.17 824.34C6771.33 824.34 6771.5 824.328 6771.66 824.304C6771.83 824.272 6771.97 824.24 6772.08 824.208V824.928C6771.96 824.984 6771.8 825.028 6771.6 825.06C6771.41 825.1 6771.21 825.12 6771.01 825.12C6770.67 825.12 6770.37 825.06 6770.1 824.94C6769.83 824.82 6769.61 824.62 6769.44 824.34C6769.28 824.052 6769.2 823.656 6769.2 823.152V819.324H6768.27V818.856L6769.21 818.496L6769.57 817.092H6770.15V818.58H6772.03V819.324H6770.15V823.128C6770.15 823.536 6770.23 823.84 6770.41 824.04C6770.59 824.24 6770.85 824.34 6771.17 824.34ZM6777.53 823.248C6777.53 823.656 6777.43 824 6777.22 824.28C6777.02 824.552 6776.73 824.76 6776.34 824.904C6775.97 825.048 6775.52 825.12 6774.99 825.12C6774.54 825.12 6774.15 825.084 6773.82 825.012C6773.5 824.94 6773.21 824.84 6772.96 824.712V823.848C6773.22 823.976 6773.54 824.092 6773.9 824.196C6774.26 824.3 6774.64 824.352 6775.01 824.352C6775.57 824.352 6775.98 824.26 6776.22 824.076C6776.48 823.892 6776.61 823.644 6776.61 823.332C6776.61 823.148 6776.56 822.988 6776.45 822.852C6776.36 822.716 6776.19 822.584 6775.95 822.456C6775.72 822.328 6775.39 822.188 6774.98 822.036C6774.57 821.884 6774.22 821.732 6773.92 821.58C6773.62 821.428 6773.39 821.24 6773.22 821.016C6773.06 820.792 6772.98 820.504 6772.98 820.152C6772.98 819.608 6773.2 819.192 6773.63 818.904C6774.07 818.608 6774.65 818.46 6775.36 818.46C6775.75 818.46 6776.12 818.5 6776.45 818.58C6776.79 818.652 6777.1 818.752 6777.39 818.88L6777.06 819.648C6776.9 819.568 6776.71 819.5 6776.51 819.444C6776.32 819.38 6776.12 819.332 6775.91 819.3C6775.71 819.26 6775.51 819.24 6775.3 819.24C6774.84 819.24 6774.49 819.316 6774.24 819.468C6774 819.62 6773.88 819.828 6773.88 820.092C6773.88 820.292 6773.94 820.46 6774.05 820.596C6774.16 820.724 6774.34 820.844 6774.59 820.956C6774.85 821.068 6775.17 821.2 6775.56 821.352C6775.96 821.496 6776.31 821.648 6776.6 821.808C6776.89 821.96 6777.12 822.152 6777.28 822.384C6777.45 822.608 6777.53 822.896 6777.53 823.248Z" fill="#535353" id="n914"/>
<path d="M6761 870H6763V868H6761V870Z" fill="#535353" id="n915"/>
<path d="M6762 858C6759.79 858 6758 859.79 6758 862H6760C6760 860.9 6760.9 860 6762 860C6763.1 860 6764 860.9 6764 862C6764 864 6761 863.75 6761 867H6763C6763 864.75 6766 864.5 6766 862C6766 859.79 6764.21 858 6762 858Z" fill="#535353" id="n916"/>
<path fill-rule="evenodd" clip-rule="evenodd" d="M6762 854C6756.48 854 6752 858.48 6752 864C6752 869.52 6756.48 874 6762 874C6767.52 874 6772 869.52 6772 864C6772 858.48 6767.52 854 6762 854ZM6762 872C6757.59 872 6754 868.41 6754 864C6754 859.59 6757.59 856 6762 856C6766.41 856 6770 859.59 6770 864C6770 868.41 6766.41 872 6762 872Z" fill="#535353" id="n917"/>
<path d="M6756.71 889H6755.75V884.944H6751.2V889H6750.24V880.432H6751.2V884.104H6755.75V880.432H6756.71V889ZM6761.39 882.46C6761.94 882.46 6762.41 882.584 6762.79 882.832C6763.19 883.072 6763.48 883.412 6763.68 883.852C6763.89 884.284 6763.99 884.792 6763.99 885.376V885.964H6759.54C6759.56 886.724 6759.75 887.308 6760.11 887.716C6760.47 888.116 6760.99 888.316 6761.67 888.316C6762.07 888.316 6762.42 888.28 6762.73 888.208C6763.05 888.128 6763.37 888.016 6763.71 887.872V888.7C6763.39 888.844 6763.07 888.948 6762.75 889.012C6762.43 889.084 6762.05 889.12 6761.62 889.12C6761 889.12 6760.46 888.996 6760 888.748C6759.54 888.492 6759.19 888.12 6758.94 887.632C6758.69 887.136 6758.57 886.54 6758.57 885.844C6758.57 885.156 6758.68 884.56 6758.91 884.056C6759.14 883.552 6759.47 883.16 6759.89 882.88C6760.31 882.6 6760.81 882.46 6761.39 882.46ZM6761.38 883.24C6760.85 883.24 6760.43 883.412 6760.12 883.756C6759.81 884.1 6759.62 884.584 6759.57 885.208H6763.01C6763.01 884.816 6762.95 884.476 6762.83 884.188C6762.72 883.892 6762.54 883.66 6762.3 883.492C6762.06 883.324 6761.75 883.24 6761.38 883.24ZM6766.59 889H6765.65V879.88H6766.59V889ZM6771.65 882.46C6772.45 882.46 6773.08 882.736 6773.55 883.288C6774.03 883.84 6774.27 884.668 6774.27 885.772C6774.27 886.5 6774.16 887.116 6773.94 887.62C6773.72 888.116 6773.41 888.492 6773.01 888.748C6772.62 888.996 6772.16 889.12 6771.62 889.12C6771.28 889.12 6770.97 889.072 6770.71 888.976C6770.45 888.88 6770.22 888.756 6770.04 888.604C6769.86 888.452 6769.71 888.284 6769.59 888.1H6769.52C6769.54 888.252 6769.55 888.436 6769.57 888.652C6769.59 888.868 6769.59 889.06 6769.59 889.228V891.868H6768.65V882.58H6769.41L6769.55 883.552H6769.59C6769.71 883.352 6769.87 883.172 6770.05 883.012C6770.23 882.844 6770.45 882.712 6770.71 882.616C6770.97 882.512 6771.29 882.46 6771.65 882.46ZM6771.48 883.264C6771.04 883.264 6770.68 883.352 6770.4 883.528C6770.13 883.704 6769.92 883.964 6769.79 884.308C6769.66 884.652 6769.59 885.084 6769.59 885.604V885.784C6769.59 886.336 6769.65 886.8 6769.77 887.176C6769.89 887.552 6770.09 887.84 6770.37 888.04C6770.65 888.232 6771.03 888.328 6771.49 888.328C6771.89 888.328 6772.22 888.22 6772.49 888.004C6772.76 887.788 6772.96 887.488 6773.1 887.104C6773.23 886.72 6773.3 886.272 6773.3 885.76C6773.3 884.984 6773.15 884.376 6772.85 883.936C6772.55 883.488 6772.09 883.264 6771.48 883.264Z" fill="#535353" id="n918"/>
<path d="M6759.25 938L6758.85 934.8C6758.63 934.717 6758.43 934.617 6758.24 934.5C6758.05 934.383 6757.86 934.258 6757.67 934.125L6754.7 935.375L6751.95 930.625L6754.52 928.675C6754.51 928.558 6754.5 928.446 6754.5 928.338V927.663C6754.5 927.554 6754.51 927.442 6754.52 927.325L6751.95 925.375L6754.7 920.625L6757.67 921.875C6757.86 921.742 6758.05 921.617 6758.25 921.5C6758.45 921.383 6758.65 921.283 6758.85 921.2L6759.25 918H6764.75L6765.15 921.2C6765.37 921.283 6765.57 921.383 6765.76 921.5C6765.95 921.617 6766.14 921.742 6766.32 921.875L6769.3 920.625L6772.05 925.375L6769.47 927.325C6769.49 927.442 6769.5 927.554 6769.5 927.663V928.338C6769.5 928.446 6769.48 928.558 6769.45 928.675L6772.02 930.625L6769.27 935.375L6766.32 934.125C6766.14 934.258 6765.95 934.383 6765.75 934.5C6765.55 934.617 6765.35 934.717 6765.15 934.8L6764.75 938H6759.25ZM6761 936H6762.97L6763.32 933.35C6763.84 933.217 6764.32 933.021 6764.76 932.762C6765.2 932.504 6765.61 932.192 6765.97 931.825L6768.45 932.85L6769.42 931.15L6767.27 929.525C6767.36 929.292 6767.42 929.046 6767.45 928.788C6767.48 928.529 6767.5 928.267 6767.5 928C6767.5 927.733 6767.48 927.471 6767.45 927.213C6767.42 926.954 6767.36 926.708 6767.27 926.475L6769.42 924.85L6768.45 923.15L6765.97 924.2C6765.61 923.817 6765.2 923.496 6764.76 923.238C6764.32 922.979 6763.84 922.783 6763.32 922.65L6763 920H6761.02L6760.67 922.65C6760.16 922.783 6759.68 922.979 6759.24 923.238C6758.8 923.496 6758.39 923.808 6758.02 924.175L6755.55 923.15L6754.57 924.85L6756.72 926.45C6756.64 926.7 6756.58 926.95 6756.55 927.2C6756.52 927.45 6756.5 927.717 6756.5 928C6756.5 928.267 6756.52 928.525 6756.55 928.775C6756.58 929.025 6756.64 929.275 6756.72 929.525L6754.57 931.15L6755.55 932.85L6758.02 931.8C6758.39 932.183 6758.8 932.504 6759.24 932.762C6759.68 933.021 6760.16 933.217 6760.67 933.35L6761 936Z" fill="#535353" id="n919"/>
<path fill-rule="evenodd" clip-rule="evenodd" d="M6762 929.5C6762.83 929.5 6763.5 928.828 6763.5 928C6763.5 927.172 6762.83 926.5 6762 926.5C6761.17 926.5 6760.5 927.172 6760.5 928C6760.5 928.828 6761.17 929.5 6762 929.5ZM6762 931.5C6763.93 931.5 6765.5 929.933 6765.5 928C6765.5 926.067 6763.93 924.5 6762 924.5C6760.07 924.5 6758.5 926.067 6758.5 928C6758.5 929.933 6760.07 931.5 6762 931.5Z" fill="#535353" id="n920"/>
<path d="M6745.41 950.732C6745.41 951.244 6745.28 951.676 6745.03 952.028C6744.79 952.38 6744.43 952.652 6743.97 952.844C6743.51 953.028 6742.98 953.12 6742.37 953.12C6742.05 953.12 6741.74 953.104 6741.45 953.072C6741.16 953.04 6740.89 952.996 6740.65 952.94C6740.42 952.876 6740.21 952.804 6740.03 952.724V951.788C6740.32 951.916 6740.67 952.032 6741.1 952.136C6741.52 952.232 6741.96 952.28 6742.42 952.28C6742.85 952.28 6743.21 952.224 6743.51 952.112C6743.81 951.992 6744.05 951.824 6744.21 951.608C6744.37 951.384 6744.45 951.116 6744.45 950.804C6744.45 950.508 6744.38 950.26 6744.24 950.06C6744.11 949.86 6743.9 949.68 6743.59 949.52C6743.29 949.352 6742.88 949.18 6742.37 949.004C6742 948.868 6741.68 948.724 6741.4 948.572C6741.13 948.42 6740.89 948.248 6740.7 948.056C6740.52 947.864 6740.38 947.64 6740.28 947.384C6740.19 947.128 6740.14 946.832 6740.14 946.496C6740.14 946.032 6740.25 945.64 6740.49 945.32C6740.72 944.992 6741.04 944.744 6741.45 944.576C6741.86 944.4 6742.33 944.312 6742.86 944.312C6743.33 944.312 6743.75 944.356 6744.13 944.444C6744.52 944.524 6744.87 944.64 6745.2 944.792L6744.89 945.608C6744.59 945.48 6744.26 945.376 6743.91 945.296C6743.56 945.208 6743.21 945.164 6742.84 945.164C6742.47 945.164 6742.16 945.22 6741.9 945.332C6741.65 945.436 6741.45 945.588 6741.31 945.788C6741.18 945.988 6741.11 946.224 6741.11 946.496C6741.11 946.808 6741.17 947.064 6741.3 947.264C6741.44 947.464 6741.65 947.64 6741.93 947.792C6742.21 947.944 6742.58 948.104 6743.03 948.272C6743.54 948.456 6743.97 948.652 6744.33 948.86C6744.68 949.068 6744.95 949.32 6745.13 949.616C6745.31 949.904 6745.41 950.276 6745.41 950.732ZM6749.47 946.46C6750.02 946.46 6750.49 946.584 6750.88 946.832C6751.27 947.072 6751.56 947.412 6751.76 947.852C6751.97 948.284 6752.08 948.792 6752.08 949.376V949.964H6747.62C6747.64 950.724 6747.83 951.308 6748.19 951.716C6748.56 952.116 6749.08 952.316 6749.75 952.316C6750.15 952.316 6750.5 952.28 6750.82 952.208C6751.13 952.128 6751.45 952.016 6751.79 951.872V952.7C6751.47 952.844 6751.15 952.948 6750.83 953.012C6750.51 953.084 6750.13 953.12 6749.7 953.12C6749.08 953.12 6748.54 952.996 6748.08 952.748C6747.62 952.492 6747.27 952.12 6747.02 951.632C6746.78 951.136 6746.65 950.54 6746.65 949.844C6746.65 949.156 6746.76 948.56 6746.99 948.056C6747.22 947.552 6747.55 947.16 6747.97 946.88C6748.4 946.6 6748.9 946.46 6749.47 946.46ZM6749.46 947.24C6748.93 947.24 6748.51 947.412 6748.2 947.756C6747.89 948.1 6747.7 948.584 6747.65 949.208H6751.09C6751.09 948.816 6751.03 948.476 6750.91 948.188C6750.8 947.892 6750.62 947.66 6750.38 947.492C6750.14 947.324 6749.84 947.24 6749.46 947.24ZM6755.77 952.34C6755.94 952.34 6756.1 952.328 6756.26 952.304C6756.43 952.272 6756.57 952.24 6756.68 952.208V952.928C6756.56 952.984 6756.4 953.028 6756.2 953.06C6756.01 953.1 6755.81 953.12 6755.61 953.12C6755.28 953.12 6754.97 953.06 6754.7 952.94C6754.43 952.82 6754.21 952.62 6754.04 952.34C6753.88 952.052 6753.8 951.656 6753.8 951.152V947.324H6752.88V946.856L6753.81 946.496L6754.17 945.092H6754.75V946.58H6756.63V947.324H6754.75V951.128C6754.75 951.536 6754.84 951.84 6755.01 952.04C6755.2 952.24 6755.45 952.34 6755.77 952.34ZM6760.03 952.34C6760.2 952.34 6760.36 952.328 6760.52 952.304C6760.69 952.272 6760.83 952.24 6760.94 952.208V952.928C6760.82 952.984 6760.66 953.028 6760.46 953.06C6760.27 953.1 6760.08 953.12 6759.88 953.12C6759.54 953.12 6759.24 953.06 6758.96 952.94C6758.69 952.82 6758.47 952.62 6758.3 952.34C6758.14 952.052 6758.06 951.656 6758.06 951.152V947.324H6757.14V946.856L6758.08 946.496L6758.44 945.092H6759.01V946.58H6760.9V947.324H6759.01V951.128C6759.01 951.536 6759.1 951.84 6759.28 952.04C6759.46 952.24 6759.71 952.34 6760.03 952.34ZM6763.19 946.58V953H6762.26V946.58H6763.19ZM6762.74 944.18C6762.9 944.18 6763.03 944.232 6763.13 944.336C6763.25 944.44 6763.3 944.6 6763.3 944.816C6763.3 945.016 6763.25 945.172 6763.13 945.284C6763.03 945.388 6762.9 945.44 6762.74 945.44C6762.57 945.44 6762.43 945.388 6762.32 945.284C6762.21 945.172 6762.16 945.016 6762.16 944.816C6762.16 944.6 6762.21 944.44 6762.32 944.336C6762.43 944.232 6762.57 944.18 6762.74 944.18ZM6768.28 946.46C6769.03 946.46 6769.61 946.648 6770 947.024C6770.39 947.392 6770.59 947.988 6770.59 948.812V953H6769.65V948.884C6769.65 948.332 6769.53 947.924 6769.28 947.66C6769.03 947.396 6768.65 947.264 6768.15 947.264C6767.44 947.264 6766.93 947.464 6766.64 947.864C6766.34 948.264 6766.19 948.848 6766.19 949.616V953H6765.26V946.58H6766.01L6766.16 947.528H6766.21C6766.35 947.296 6766.53 947.104 6766.73 946.952C6766.94 946.792 6767.18 946.672 6767.44 946.592C6767.71 946.504 6767.99 946.46 6768.28 946.46ZM6774.89 946.46C6775.33 946.46 6775.73 946.548 6776.06 946.724C6776.4 946.892 6776.68 947.14 6776.91 947.468H6776.97L6777.11 946.58H6777.85V953.132C6777.85 953.724 6777.75 954.224 6777.55 954.632C6777.35 955.048 6777.04 955.36 6776.61 955.568C6776.2 955.776 6775.66 955.88 6775.01 955.88C6774.54 955.88 6774.12 955.844 6773.73 955.772C6773.35 955.7 6773.01 955.6 6772.7 955.472V954.584C6772.91 954.688 6773.14 954.776 6773.39 954.848C6773.63 954.928 6773.9 954.988 6774.18 955.028C6774.47 955.068 6774.76 955.088 6775.07 955.088C6775.66 955.088 6776.11 954.92 6776.43 954.584C6776.75 954.248 6776.91 953.788 6776.91 953.204V952.916C6776.91 952.804 6776.92 952.66 6776.93 952.484C6776.93 952.3 6776.94 952.16 6776.95 952.064H6776.91C6776.7 952.416 6776.42 952.68 6776.07 952.856C6775.74 953.032 6775.34 953.12 6774.87 953.12C6774.04 953.12 6773.39 952.832 6772.93 952.256C6772.47 951.68 6772.23 950.868 6772.23 949.82C6772.23 949.132 6772.34 948.536 6772.55 948.032C6772.75 947.528 6773.05 947.14 6773.45 946.868C6773.85 946.596 6774.33 946.46 6774.89 946.46ZM6775.01 947.264C6774.62 947.264 6774.29 947.364 6774.02 947.564C6773.76 947.764 6773.55 948.056 6773.41 948.44C6773.27 948.816 6773.21 949.28 6773.21 949.832C6773.21 950.64 6773.36 951.26 6773.66 951.692C6773.97 952.124 6774.42 952.34 6775.01 952.34C6775.36 952.34 6775.65 952.292 6775.89 952.196C6776.13 952.1 6776.33 951.956 6776.48 951.764C6776.64 951.572 6776.75 951.332 6776.82 951.044C6776.89 950.756 6776.93 950.424 6776.93 950.048V949.748C6776.93 949.172 6776.86 948.704 6776.72 948.344C6776.59 947.976 6776.39 947.704 6776.11 947.528C6775.83 947.352 6775.46 947.264 6775.01 947.264ZM6784.06 951.248C6784.06 951.656 6783.95 952 6783.75 952.28C6783.55 952.552 6783.25 952.76 6782.87 952.904C6782.49 953.048 6782.04 953.12 6781.51 953.12C6781.07 953.12 6780.68 953.084 6780.35 953.012C6780.02 952.94 6779.73 952.84 6779.49 952.712V951.848C6779.75 951.976 6780.06 952.092 6780.42 952.196C6780.79 952.3 6781.16 952.352 6781.54 952.352C6782.1 952.352 6782.5 952.26 6782.75 952.076C6783.01 951.892 6783.13 951.644 6783.13 951.332C6783.13 951.148 6783.08 950.988 6782.98 950.852C6782.88 950.716 6782.71 950.584 6782.47 950.456C6782.24 950.328 6781.92 950.188 6781.5 950.036C6781.09 949.884 6780.74 949.732 6780.45 949.58C6780.15 949.428 6779.92 949.24 6779.75 949.016C6779.59 948.792 6779.51 948.504 6779.51 948.152C6779.51 947.608 6779.73 947.192 6780.16 946.904C6780.6 946.608 6781.17 946.46 6781.89 946.46C6782.28 946.46 6782.64 946.5 6782.98 946.58C6783.31 946.652 6783.63 946.752 6783.91 946.88L6783.59 947.648C6783.42 947.568 6783.24 947.5 6783.04 947.444C6782.85 947.38 6782.65 947.332 6782.44 947.3C6782.24 947.26 6782.03 947.24 6781.83 947.24C6781.37 947.24 6781.02 947.316 6780.77 947.468C6780.53 947.62 6780.41 947.828 6780.41 948.092C6780.41 948.292 6780.47 948.46 6780.58 948.596C6780.69 948.724 6780.87 948.844 6781.12 948.956C6781.37 949.068 6781.7 949.2 6782.09 949.352C6782.49 949.496 6782.83 949.648 6783.12 949.808C6783.42 949.96 6783.65 950.152 6783.81 950.384C6783.97 950.608 6784.06 950.896 6784.06 951.248Z" fill="#535353" id="n921"/>
<path fill-rule="evenodd" clip-rule="evenodd" d="M6762 1002C6767.52 1002 6772 997.523 6772 992C6772 986.477 6767.52 982 6762 982C6756.48 982 6752 986.477 6752 992C6752 997.523 6756.48 1002 6762 1002ZM6761.4 985H6762.6V987H6765V990.4L6762 988.6L6759 990.4V987H6761.4V985ZM6767 992.843L6762 990L6757 992.843L6759.06 997.445H6764.94L6767 992.843Z" fill="#535353" id="n922"/>
<path d="M6740.29 1009.16C6739.82 1009.16 6739.39 1009.25 6739.01 1009.42C6738.63 1009.58 6738.3 1009.81 6738.03 1010.12C6737.76 1010.43 6737.56 1010.8 6737.41 1011.24C6737.28 1011.68 6737.21 1012.17 6737.21 1012.72C6737.21 1013.44 6737.32 1014.06 6737.55 1014.6C6737.78 1015.14 6738.12 1015.55 6738.57 1015.84C6739.01 1016.12 6739.58 1016.27 6740.26 1016.27C6740.64 1016.27 6741 1016.24 6741.34 1016.17C6741.68 1016.11 6742.01 1016.03 6742.33 1015.93V1016.77C6742.02 1016.88 6741.69 1016.97 6741.35 1017.02C6741.01 1017.09 6740.6 1017.12 6740.13 1017.12C6739.25 1017.12 6738.53 1016.94 6737.94 1016.58C6737.36 1016.22 6736.92 1015.71 6736.62 1015.04C6736.33 1014.38 6736.19 1013.6 6736.19 1012.7C6736.19 1012.06 6736.28 1011.46 6736.45 1010.93C6736.64 1010.39 6736.91 1009.93 6737.26 1009.54C6737.61 1009.14 6738.04 1008.84 6738.55 1008.64C6739.07 1008.42 6739.65 1008.31 6740.31 1008.31C6740.74 1008.31 6741.15 1008.36 6741.55 1008.44C6741.95 1008.52 6742.31 1008.64 6742.63 1008.8L6742.25 1009.63C6741.98 1009.5 6741.68 1009.38 6741.35 1009.3C6741.02 1009.21 6740.67 1009.16 6740.29 1009.16ZM6749.56 1013.78C6749.56 1014.3 6749.49 1014.77 6749.35 1015.19C6749.22 1015.6 6749.02 1015.94 6748.76 1016.23C6748.51 1016.52 6748.2 1016.74 6747.83 1016.89C6747.46 1017.04 6747.05 1017.12 6746.59 1017.12C6746.16 1017.12 6745.76 1017.04 6745.4 1016.89C6745.05 1016.74 6744.74 1016.52 6744.48 1016.23C6744.22 1015.94 6744.02 1015.6 6743.88 1015.19C6743.74 1014.78 6743.68 1014.31 6743.68 1013.78C6743.68 1013.08 6743.79 1012.48 6744.02 1012C6744.26 1011.5 6744.6 1011.12 6745.04 1010.86C6745.49 1010.59 6746.02 1010.46 6746.63 1010.46C6747.22 1010.46 6747.73 1010.59 6748.16 1010.86C6748.6 1011.12 6748.94 1011.5 6749.18 1012C6749.43 1012.49 6749.56 1013.09 6749.56 1013.78ZM6744.65 1013.78C6744.65 1014.3 6744.72 1014.74 6744.85 1015.13C6745 1015.51 6745.21 1015.81 6745.5 1016.02C6745.79 1016.22 6746.16 1016.33 6746.6 1016.33C6747.06 1016.33 6747.43 1016.22 6747.72 1016.02C6748.02 1015.81 6748.23 1015.51 6748.37 1015.13C6748.5 1014.74 6748.57 1014.3 6748.57 1013.78C6748.57 1013.26 6748.5 1012.82 6748.36 1012.45C6748.22 1012.08 6748.01 1011.78 6747.72 1011.58C6747.44 1011.37 6747.07 1011.26 6746.6 1011.26C6745.93 1011.26 6745.44 1011.49 6745.12 1011.94C6744.8 1012.38 6744.65 1012.99 6744.65 1013.78ZM6758.17 1010.46C6758.87 1010.46 6759.4 1010.64 6759.75 1011.01C6760.11 1011.38 6760.29 1011.97 6760.29 1012.79V1017H6759.37V1012.84C6759.37 1012.31 6759.25 1011.92 6759.02 1011.66C6758.8 1011.4 6758.46 1011.26 6758.01 1011.26C6757.4 1011.26 6756.94 1011.44 6756.66 1011.8C6756.37 1012.16 6756.22 1012.69 6756.22 1013.4V1017H6755.3V1012.84C6755.3 1012.48 6755.25 1012.19 6755.14 1011.96C6755.04 1011.72 6754.89 1011.54 6754.69 1011.43C6754.49 1011.32 6754.24 1011.26 6753.94 1011.26C6753.52 1011.26 6753.18 1011.35 6752.91 1011.53C6752.66 1011.7 6752.47 1011.96 6752.35 1012.31C6752.23 1012.64 6752.17 1013.07 6752.17 1013.58V1017H6751.23V1010.58H6751.99L6752.13 1011.5H6752.18C6752.32 1011.28 6752.48 1011.09 6752.66 1010.94C6752.85 1010.78 6753.07 1010.66 6753.31 1010.58C6753.56 1010.5 6753.82 1010.46 6754.1 1010.46C6754.59 1010.46 6755 1010.55 6755.32 1010.74C6755.65 1010.92 6755.89 1011.2 6756.04 1011.58H6756.09C6756.3 1011.21 6756.59 1010.93 6756.96 1010.75C6757.32 1010.56 6757.73 1010.46 6758.17 1010.46ZM6765.31 1010.46C6766.11 1010.46 6766.74 1010.74 6767.21 1011.29C6767.69 1011.84 6767.93 1012.67 6767.93 1013.77C6767.93 1014.5 6767.82 1015.12 6767.6 1015.62C6767.38 1016.12 6767.07 1016.49 6766.67 1016.75C6766.28 1017 6765.82 1017.12 6765.28 1017.12C6764.94 1017.12 6764.63 1017.07 6764.37 1016.98C6764.11 1016.88 6763.88 1016.76 6763.7 1016.6C6763.52 1016.45 6763.37 1016.28 6763.25 1016.1H6763.18C6763.2 1016.25 6763.21 1016.44 6763.23 1016.65C6763.25 1016.87 6763.25 1017.06 6763.25 1017.23V1019.87H6762.31V1010.58H6763.07L6763.21 1011.55H6763.25C6763.37 1011.35 6763.53 1011.17 6763.71 1011.01C6763.89 1010.84 6764.11 1010.71 6764.37 1010.62C6764.63 1010.51 6764.95 1010.46 6765.31 1010.46ZM6765.14 1011.26C6764.7 1011.26 6764.34 1011.35 6764.06 1011.53C6763.79 1011.7 6763.58 1011.96 6763.45 1012.31C6763.32 1012.65 6763.25 1013.08 6763.25 1013.6V1013.78C6763.25 1014.34 6763.31 1014.8 6763.43 1015.18C6763.55 1015.55 6763.75 1015.84 6764.03 1016.04C6764.31 1016.23 6764.69 1016.33 6765.15 1016.33C6765.55 1016.33 6765.88 1016.22 6766.15 1016C6766.42 1015.79 6766.62 1015.49 6766.76 1015.1C6766.89 1014.72 6766.96 1014.27 6766.96 1013.76C6766.96 1012.98 6766.81 1012.38 6766.51 1011.94C6766.21 1011.49 6765.75 1011.26 6765.14 1011.26ZM6772.01 1010.47C6772.77 1010.47 6773.34 1010.65 6773.71 1011C6774.08 1011.34 6774.26 1011.89 6774.26 1012.64V1017H6773.57L6773.39 1016.04H6773.35C6773.17 1016.27 6772.99 1016.47 6772.79 1016.64C6772.59 1016.8 6772.37 1016.92 6772.1 1017C6771.85 1017.08 6771.53 1017.12 6771.17 1017.12C6770.77 1017.12 6770.43 1017.05 6770.12 1016.92C6769.82 1016.78 6769.58 1016.57 6769.4 1016.29C6769.23 1016.01 6769.15 1015.66 6769.15 1015.25C6769.15 1014.61 6769.4 1014.12 6769.91 1013.77C6770.42 1013.43 6771.19 1013.24 6772.22 1013.21L6773.34 1013.16V1012.76C6773.34 1012.2 6773.22 1011.8 6772.98 1011.58C6772.75 1011.35 6772.41 1011.24 6771.96 1011.24C6771.62 1011.24 6771.3 1011.29 6771 1011.38C6770.7 1011.48 6770.41 1011.6 6770.13 1011.73L6769.85 1011.01C6770.13 1010.86 6770.47 1010.73 6770.84 1010.63C6771.22 1010.52 6771.61 1010.47 6772.01 1010.47ZM6772.34 1013.87C6771.54 1013.9 6770.97 1014.03 6770.64 1014.26C6770.3 1014.5 6770.13 1014.83 6770.13 1015.26C6770.13 1015.63 6770.25 1015.9 6770.47 1016.09C6770.7 1016.26 6771 1016.35 6771.37 1016.35C6771.95 1016.35 6772.43 1016.19 6772.79 1015.87C6773.15 1015.54 6773.33 1015.06 6773.33 1014.42V1013.83L6772.34 1013.87ZM6779.29 1010.46C6780.04 1010.46 6780.61 1010.65 6781 1011.02C6781.39 1011.39 6781.59 1011.99 6781.59 1012.81V1017H6780.65V1012.88C6780.65 1012.33 6780.53 1011.92 6780.28 1011.66C6780.03 1011.4 6779.66 1011.26 6779.15 1011.26C6778.44 1011.26 6777.94 1011.46 6777.64 1011.86C6777.35 1012.26 6777.2 1012.85 6777.2 1013.62V1017H6776.26V1010.58H6777.02L6777.16 1011.53H6777.21C6777.35 1011.3 6777.53 1011.1 6777.74 1010.95C6777.95 1010.79 6778.18 1010.67 6778.45 1010.59C6778.71 1010.5 6778.99 1010.46 6779.29 1010.46ZM6782.58 1010.58H6783.59L6785.01 1014.34C6785.09 1014.56 6785.17 1014.77 6785.24 1014.97C6785.31 1015.17 6785.38 1015.36 6785.43 1015.55C6785.49 1015.72 6785.53 1015.9 6785.57 1016.06H6785.6C6785.66 1015.87 6785.73 1015.62 6785.83 1015.31C6785.93 1014.99 6786.05 1014.66 6786.17 1014.34L6787.52 1010.58H6788.54L6785.73 1017.96C6785.59 1018.35 6785.42 1018.69 6785.22 1018.98C6785.03 1019.27 6784.79 1019.49 6784.51 1019.64C6784.24 1019.8 6783.91 1019.88 6783.51 1019.88C6783.33 1019.88 6783.17 1019.87 6783.03 1019.84C6782.9 1019.83 6782.77 1019.81 6782.66 1019.78V1019.03C6782.76 1019.04 6782.87 1019.06 6782.99 1019.08C6783.11 1019.1 6783.23 1019.11 6783.37 1019.11C6783.61 1019.11 6783.82 1019.06 6783.99 1018.97C6784.17 1018.88 6784.32 1018.74 6784.45 1018.56C6784.58 1018.38 6784.69 1018.17 6784.79 1017.92L6785.15 1017.01L6782.58 1010.58Z" fill="#535353" id="n923"/>
</g>
</g>
</svg>
