<?xml version='1.0' encoding='utf-8'?>
<svg xmlns="http://www.w3.org/2000/svg" xmlns:xlink="http://www.w3.org/1999/xlink" width="320.0" height="312.0" viewBox="0 0 320.0 312.0" fill="none">
  <defs><clipPath id="clip__asset"><rect x="0" y="0" width="320.0" height="312.0"/></clipPath><filter id="filter28_d_1702_11540" x="7697" y="231" width="324" height="316" filterUnits="userSpaceOnUse" color-interpolation-filters="sRGB">
<feFlood flood-opacity="0" result="BackgroundImageFix" id="n1797"/>
<feColorMatrix in="SourceAlpha" type="matrix" values="0 0 0 0 0 0 0 0 0 0 0 0 0 0 0 0 0 0 127 0" result="hardAlpha" id="n1798"/>
<feOffset dy="1" id="n1799"/>
<feGaussianBlur stdDeviation="1" id="n1800"/>
<feColorMatrix type="matrix" values="0 0 0 0 0 0 0 0 0 0 0 0 0 0 0 0 0 0 0.23 0" id="n1801"/>
<feBlend mode="normal" in2="BackgroundImageFix" result="effect1_dropShadow_1702_11540" id="n1802"/>
<feBlend mode="normal" in="SourceGraphic" in2="effect1_dropShadow_1702_11540" result="shape" id="n1803"/>
</filter>
</defs>
  <g clip-path="url(#clip__asset)" transform="translate(-7699.0 -232.0)"><g filter="url(#filter28_d_1702_11540)" id="n1051">
<path d="M7699 251.2C7699 244.479 7699 241.119 7700.31 238.552C7701.46 236.294 7703.29 234.458 7705.55 233.308C7708.12 232 7711.48 232 7718.2 232H7999.8C8006.52 232 8009.88 232 8012.45 233.308C8014.71 234.458 8016.54 236.294 8017.69 238.552C8019 241.119 8019 244.479 8019 251.2V524.8C8019 531.521 8019 534.881 8017.69 537.448C8016.54 539.706 8014.71 541.542 8012.45 542.692C8009.88 544 8006.52 544 7999.8 544H7718.2C7711.48 544 7708.12 544 7705.55 542.692C7703.29 541.542 7701.46 539.706 7700.31 537.448C7699 534.881 7699 531.521 7699 524.8V251.2Z" fill="#FCFCFC" id="n1052"/>
<path d="M7726 255H7728V259H7732V261H7728V265H7726V261H7722V259H7726V255Z" fill="#535353" id="n1053"/>
<path fill-rule="evenodd" clip-rule="evenodd" d="M7716.61 258.516L7725.52 249.612C7726.33 248.796 7727.67 248.796 7728.48 249.612L7737.39 258.516C7738.2 259.332 7738.2 260.668 7737.39 261.484L7728.48 270.388C7727.67 271.204 7726.33 271.204 7725.52 270.388L7716.61 261.484C7715.8 260.668 7715.8 259.332 7716.61 258.516ZM7727 251L7718 260L7727 269L7736 260L7727 251Z" fill="#535353" id="n1054"/>
<path d="M7753.42 260.032H7757.43V265.552C7756.82 265.755 7756.21 265.904 7755.58 266C7754.96 266.107 7754.26 266.16 7753.48 266.16C7752.3 266.16 7751.29 265.925 7750.47 265.456C7749.66 264.987 7749.04 264.315 7748.62 263.44C7748.19 262.555 7747.98 261.504 7747.98 260.288C7747.98 259.104 7748.21 258.075 7748.68 257.2C7749.15 256.325 7749.82 255.643 7750.7 255.152C7751.58 254.661 7752.64 254.416 7753.88 254.416C7754.51 254.416 7755.11 254.475 7755.67 254.592C7756.25 254.709 7756.78 254.875 7757.27 255.088L7756.78 256.208C7756.35 256.016 7755.88 255.861 7755.37 255.744C7754.87 255.616 7754.35 255.552 7753.82 255.552C7752.88 255.552 7752.07 255.749 7751.4 256.144C7750.73 256.528 7750.21 257.077 7749.85 257.792C7749.5 258.496 7749.32 259.328 7749.32 260.288C7749.32 261.259 7749.47 262.101 7749.78 262.816C7750.1 263.52 7750.59 264.069 7751.24 264.464C7751.9 264.848 7752.74 265.04 7753.77 265.04C7754.12 265.04 7754.43 265.029 7754.71 265.008C7754.99 264.976 7755.25 264.933 7755.48 264.88C7755.71 264.827 7755.93 264.773 7756.14 264.72V261.184H7753.42V260.032ZM7763.84 257.296C7764.02 257.296 7764.2 257.307 7764.39 257.328C7764.58 257.339 7764.75 257.36 7764.9 257.392L7764.74 258.56C7764.59 258.517 7764.43 258.485 7764.26 258.464C7764.1 258.443 7763.93 258.432 7763.76 258.432C7763.42 258.432 7763.09 258.507 7762.79 258.656C7762.49 258.795 7762.22 258.992 7761.99 259.248C7761.76 259.504 7761.59 259.813 7761.46 260.176C7761.33 260.539 7761.27 260.944 7761.27 261.392V266H7760V257.44H7761.04L7761.17 259.024H7761.23C7761.4 258.704 7761.61 258.416 7761.86 258.16C7762.11 257.893 7762.41 257.685 7762.74 257.536C7763.08 257.376 7763.45 257.296 7763.84 257.296ZM7773.56 261.712C7773.56 262.405 7773.47 263.029 7773.29 263.584C7773.11 264.128 7772.85 264.592 7772.51 264.976C7772.17 265.36 7771.75 265.653 7771.26 265.856C7770.77 266.059 7770.22 266.16 7769.61 266.16C7769.04 266.16 7768.51 266.059 7768.03 265.856C7767.56 265.653 7767.15 265.36 7766.8 264.976C7766.45 264.592 7766.19 264.128 7766 263.584C7765.81 263.04 7765.72 262.416 7765.72 261.712C7765.72 260.773 7765.88 259.979 7766.19 259.328C7766.51 258.667 7766.96 258.16 7767.55 257.808C7768.15 257.456 7768.85 257.28 7769.66 257.28C7770.45 257.28 7771.13 257.456 7771.71 257.808C7772.29 258.16 7772.75 258.667 7773.07 259.328C7773.4 259.989 7773.56 260.784 7773.56 261.712ZM7767.02 261.712C7767.02 262.395 7767.11 262.992 7767.29 263.504C7767.48 264.016 7767.77 264.411 7768.16 264.688C7768.54 264.965 7769.03 265.104 7769.63 265.104C7770.24 265.104 7770.73 264.965 7771.12 264.688C7771.51 264.411 7771.8 264.016 7771.98 263.504C7772.16 262.992 7772.25 262.395 7772.25 261.712C7772.25 261.019 7772.16 260.427 7771.96 259.936C7771.78 259.435 7771.5 259.045 7771.12 258.768C7770.74 258.491 7770.25 258.352 7769.63 258.352C7768.73 258.352 7768.07 258.651 7767.64 259.248C7767.23 259.835 7767.02 260.656 7767.02 261.712ZM7782.82 257.44V266H7781.8L7781.61 264.768H7781.56C7781.38 265.067 7781.14 265.323 7780.85 265.536C7780.58 265.739 7780.26 265.893 7779.91 266C7779.56 266.107 7779.18 266.16 7778.77 266.16C7778.1 266.16 7777.54 266.053 7777.08 265.84C7776.62 265.616 7776.27 265.275 7776.04 264.816C7775.8 264.357 7775.69 263.765 7775.69 263.04V257.44H7776.97V262.96C7776.97 263.675 7777.13 264.213 7777.45 264.576C7777.78 264.928 7778.28 265.104 7778.95 265.104C7779.59 265.104 7780.1 264.987 7780.47 264.752C7780.85 264.507 7781.13 264.149 7781.3 263.68C7781.48 263.211 7781.57 262.64 7781.57 261.968V257.44H7782.82ZM7789.58 257.28C7790.65 257.28 7791.49 257.648 7792.12 258.384C7792.76 259.12 7793.08 260.224 7793.08 261.696C7793.08 262.667 7792.93 263.488 7792.64 264.16C7792.35 264.821 7791.94 265.323 7791.4 265.664C7790.88 265.995 7790.26 266.16 7789.55 266.16C7789.09 266.16 7788.68 266.096 7788.33 265.968C7787.98 265.84 7787.68 265.675 7787.44 265.472C7787.2 265.269 7787 265.045 7786.84 264.8H7786.75C7786.77 265.003 7786.79 265.248 7786.81 265.536C7786.83 265.824 7786.84 266.08 7786.84 266.304V269.824H7785.58V257.44H7786.6L7786.78 258.736H7786.84C7787 258.469 7787.21 258.229 7787.45 258.016C7787.7 257.792 7787.99 257.616 7788.33 257.488C7788.68 257.349 7789.1 257.28 7789.58 257.28ZM7789.36 258.352C7788.77 258.352 7788.29 258.469 7787.92 258.704C7787.55 258.939 7787.28 259.285 7787.1 259.744C7786.93 260.203 7786.84 260.779 7786.84 261.472V261.712C7786.84 262.448 7786.92 263.067 7787.08 263.568C7787.24 264.069 7787.51 264.453 7787.88 264.72C7788.26 264.976 7788.75 265.104 7789.37 265.104C7789.9 265.104 7790.35 264.96 7790.7 264.672C7791.06 264.384 7791.33 263.984 7791.52 263.472C7791.7 262.96 7791.79 262.363 7791.79 261.68C7791.79 260.645 7791.58 259.835 7791.18 259.248C7790.78 258.651 7790.18 258.352 7789.36 258.352Z" fill="#535353" id="n1055"/>
<path d="M7996.5 263.069C7996.5 263.674 7996.5 263.977 7996.62 264.118C7996.72 264.239 7996.88 264.304 7997.04 264.291C7997.22 264.277 7997.44 264.063 7997.87 263.634L8000.93 260.566C8001.13 260.368 8001.23 260.269 8001.27 260.154C8001.3 260.054 8001.3 259.946 8001.27 259.845C8001.23 259.731 8001.13 259.632 8000.93 259.434L7997.87 256.366C7997.44 255.937 7997.22 255.723 7997.04 255.709C7996.88 255.696 7996.72 255.761 7996.62 255.882C7996.5 256.023 7996.5 256.326 7996.5 256.931L7996.5 263.069Z" fill="#707070" id="n1056"/>
<path d="M7726 303H7728V307H7732V309H7728V313H7726V309H7722V307H7726V303Z" fill="#535353" id="n1057"/>
<path fill-rule="evenodd" clip-rule="evenodd" d="M7716.61 306.516L7725.52 297.612C7726.33 296.796 7727.67 296.796 7728.48 297.612L7737.39 306.516C7738.2 307.332 7738.2 308.668 7737.39 309.484L7728.48 318.388C7727.67 319.204 7726.33 319.204 7725.52 318.388L7716.61 309.484C7715.8 308.668 7715.8 307.332 7716.61 306.516ZM7727 299L7718 308L7727 317L7736 308L7727 299Z" fill="#535353" id="n1058"/>
<path d="M7753.42 308.032H7757.43V313.552C7756.82 313.755 7756.21 313.904 7755.58 314C7754.96 314.107 7754.26 314.16 7753.48 314.16C7752.3 314.16 7751.29 313.925 7750.47 313.456C7749.66 312.987 7749.04 312.315 7748.62 311.44C7748.19 310.555 7747.98 309.504 7747.98 308.288C7747.98 307.104 7748.21 306.075 7748.68 305.2C7749.15 304.325 7749.82 303.643 7750.7 303.152C7751.58 302.661 7752.64 302.416 7753.88 302.416C7754.51 302.416 7755.11 302.475 7755.67 302.592C7756.25 302.709 7756.78 302.875 7757.27 303.088L7756.78 304.208C7756.35 304.016 7755.88 303.861 7755.37 303.744C7754.87 303.616 7754.35 303.552 7753.82 303.552C7752.88 303.552 7752.07 303.749 7751.4 304.144C7750.73 304.528 7750.21 305.077 7749.85 305.792C7749.5 306.496 7749.32 307.328 7749.32 308.288C7749.32 309.259 7749.47 310.101 7749.78 310.816C7750.1 311.52 7750.59 312.069 7751.24 312.464C7751.9 312.848 7752.74 313.04 7753.77 313.04C7754.12 313.04 7754.43 313.029 7754.71 313.008C7754.99 312.976 7755.25 312.933 7755.48 312.88C7755.71 312.827 7755.93 312.773 7756.14 312.72V309.184H7753.42V308.032ZM7763.84 305.296C7764.02 305.296 7764.2 305.307 7764.39 305.328C7764.58 305.339 7764.75 305.36 7764.9 305.392L7764.74 306.56C7764.59 306.517 7764.43 306.485 7764.26 306.464C7764.1 306.443 7763.93 306.432 7763.76 306.432C7763.42 306.432 7763.09 306.507 7762.79 306.656C7762.49 306.795 7762.22 306.992 7761.99 307.248C7761.76 307.504 7761.59 307.813 7761.46 308.176C7761.33 308.539 7761.27 308.944 7761.27 309.392V314H7760V305.44H7761.04L7761.17 307.024H7761.23C7761.4 306.704 7761.61 306.416 7761.86 306.16C7762.11 305.893 7762.41 305.685 7762.74 305.536C7763.08 305.376 7763.45 305.296 7763.84 305.296ZM7773.56 309.712C7773.56 310.405 7773.47 311.029 7773.29 311.584C7773.11 312.128 7772.85 312.592 7772.51 312.976C7772.17 313.36 7771.75 313.653 7771.26 313.856C7770.77 314.059 7770.22 314.16 7769.61 314.16C7769.04 314.16 7768.51 314.059 7768.03 313.856C7767.56 313.653 7767.15 313.36 7766.8 312.976C7766.45 312.592 7766.19 312.128 7766 311.584C7765.81 311.04 7765.72 310.416 7765.72 309.712C7765.72 308.773 7765.88 307.979 7766.19 307.328C7766.51 306.667 7766.96 306.16 7767.55 305.808C7768.15 305.456 7768.85 305.28 7769.66 305.28C7770.45 305.28 7771.13 305.456 7771.71 305.808C7772.29 306.16 7772.75 306.667 7773.07 307.328C7773.4 307.989 7773.56 308.784 7773.56 309.712ZM7767.02 309.712C7767.02 310.395 7767.11 310.992 7767.29 311.504C7767.48 312.016 7767.77 312.411 7768.16 312.688C7768.54 312.965 7769.03 313.104 7769.63 313.104C7770.24 313.104 7770.73 312.965 7771.12 312.688C7771.51 312.411 7771.8 312.016 7771.98 311.504C7772.16 310.992 7772.25 310.395 7772.25 309.712C7772.25 309.019 7772.16 308.427 7771.96 307.936C7771.78 307.435 7771.5 307.045 7771.12 306.768C7770.74 306.491 7770.25 306.352 7769.63 306.352C7768.73 306.352 7768.07 306.651 7767.64 307.248C7767.23 307.835 7767.02 308.656 7767.02 309.712ZM7782.82 305.44V314H7781.8L7781.61 312.768H7781.56C7781.38 313.067 7781.14 313.323 7780.85 313.536C7780.58 313.739 7780.26 313.893 7779.91 314C7779.56 314.107 7779.18 314.16 7778.77 314.16C7778.1 314.16 7777.54 314.053 7777.08 313.84C7776.62 313.616 7776.27 313.275 7776.04 312.816C7775.8 312.357 7775.69 311.765 7775.69 311.04V305.44H7776.97V310.96C7776.97 311.675 7777.13 312.213 7777.45 312.576C7777.78 312.928 7778.28 313.104 7778.95 313.104C7779.59 313.104 7780.1 312.987 7780.47 312.752C7780.85 312.507 7781.13 312.149 7781.3 311.68C7781.48 311.211 7781.57 310.64 7781.57 309.968V305.44H7782.82ZM7789.58 305.28C7790.65 305.28 7791.49 305.648 7792.12 306.384C7792.76 307.12 7793.08 308.224 7793.08 309.696C7793.08 310.667 7792.93 311.488 7792.64 312.16C7792.35 312.821 7791.94 313.323 7791.4 313.664C7790.88 313.995 7790.26 314.16 7789.55 314.16C7789.09 314.16 7788.68 314.096 7788.33 313.968C7787.98 313.84 7787.68 313.675 7787.44 313.472C7787.2 313.269 7787 313.045 7786.84 312.8H7786.75C7786.77 313.003 7786.79 313.248 7786.81 313.536C7786.83 313.824 7786.84 314.08 7786.84 314.304V317.824H7785.58V305.44H7786.6L7786.78 306.736H7786.84C7787 306.469 7787.21 306.229 7787.45 306.016C7787.7 305.792 7787.99 305.616 7788.33 305.488C7788.68 305.349 7789.1 305.28 7789.58 305.28ZM7789.36 306.352C7788.77 306.352 7788.29 306.469 7787.92 306.704C7787.55 306.939 7787.28 307.285 7787.1 307.744C7786.93 308.203 7786.84 308.779 7786.84 309.472V309.712C7786.84 310.448 7786.92 311.067 7787.08 311.568C7787.24 312.069 7787.51 312.453 7787.88 312.72C7788.26 312.976 7788.75 313.104 7789.37 313.104C7789.9 313.104 7790.35 312.96 7790.7 312.672C7791.06 312.384 7791.33 311.984 7791.52 311.472C7791.7 310.96 7791.79 310.363 7791.79 309.68C7791.79 308.645 7791.58 307.835 7791.18 307.248C7790.78 306.651 7790.18 306.352 7789.36 306.352Z" fill="#535353" id="n1059"/>
<path d="M7996.5 311.069C7996.5 311.674 7996.5 311.977 7996.62 312.118C7996.72 312.239 7996.88 312.304 7997.04 312.291C7997.22 312.277 7997.44 312.063 7997.87 311.634L8000.93 308.566C8001.13 308.368 8001.23 308.269 8001.27 308.154C8001.3 308.054 8001.3 307.946 8001.27 307.845C8001.23 307.731 8001.13 307.632 8000.93 307.434L7997.87 304.366C7997.44 303.937 7997.22 303.723 7997.04 303.709C7996.88 303.696 7996.72 303.761 7996.62 303.882C7996.5 304.023 7996.5 304.326 7996.5 304.931L7996.5 311.069Z" fill="#707070" id="n1060"/>
<path d="M7726 351H7728V355H7732V357H7728V361H7726V357H7722V355H7726V351Z" fill="#535353" id="n1061"/>
<path fill-rule="evenodd" clip-rule="evenodd" d="M7716.61 354.516L7725.52 345.612C7726.33 344.796 7727.67 344.796 7728.48 345.612L7737.39 354.516C7738.2 355.332 7738.2 356.668 7737.39 357.484L7728.48 366.388C7727.67 367.204 7726.33 367.204 7725.52 366.388L7716.61 357.484C7715.8 356.668 7715.8 355.332 7716.61 354.516ZM7727 347L7718 356L7727 365L7736 356L7727 347Z" fill="#535353" id="n1062"/>
<path d="M7751.54 350.576C7752.99 350.576 7754.06 350.864 7754.74 351.44C7755.43 352.005 7755.77 352.827 7755.77 353.904C7755.77 354.395 7755.69 354.859 7755.53 355.296C7755.37 355.723 7755.11 356.101 7754.76 356.432C7754.41 356.763 7753.94 357.024 7753.37 357.216C7752.79 357.397 7752.09 357.488 7751.27 357.488H7749.85V362H7748.57V350.576H7751.54ZM7751.42 351.68H7749.85V356.384H7751.13C7751.86 356.384 7752.48 356.304 7752.97 356.144C7753.46 355.984 7753.83 355.728 7754.07 355.376C7754.32 355.013 7754.44 354.539 7754.44 353.952C7754.44 353.184 7754.19 352.613 7753.7 352.24C7753.22 351.867 7752.46 351.68 7751.42 351.68ZM7761.14 353.296C7762.16 353.296 7762.92 353.531 7763.41 354C7763.9 354.459 7764.15 355.189 7764.15 356.192V362H7763.22L7762.98 360.72H7762.93C7762.7 361.029 7762.44 361.296 7762.18 361.52C7761.92 361.733 7761.62 361.893 7761.27 362C7760.92 362.107 7760.51 362.16 7760.02 362.16C7759.5 362.16 7759.03 362.069 7758.63 361.888C7758.22 361.707 7757.9 361.429 7757.67 361.056C7757.44 360.683 7757.33 360.219 7757.33 359.664C7757.33 358.811 7757.67 358.155 7758.34 357.696C7759.02 357.237 7760.05 356.987 7761.43 356.944L7762.91 356.88V356.352C7762.91 355.595 7762.75 355.067 7762.43 354.768C7762.12 354.469 7761.67 354.32 7761.07 354.32C7760.63 354.32 7760.2 354.384 7759.79 354.512C7759.4 354.64 7759.02 354.795 7758.64 354.976L7758.26 354.016C7758.64 353.813 7759.08 353.643 7759.59 353.504C7760.09 353.365 7760.6 353.296 7761.14 353.296ZM7761.59 357.824C7760.52 357.867 7759.76 358.043 7759.31 358.352C7758.87 358.661 7758.64 359.104 7758.64 359.68C7758.64 360.171 7758.79 360.539 7759.09 360.784C7759.4 361.019 7759.8 361.136 7760.29 361.136C7761.07 361.136 7761.7 360.923 7762.18 360.496C7762.66 360.059 7762.9 359.413 7762.9 358.56V357.776L7761.59 357.824ZM7769.87 353.28C7770.47 353.28 7770.99 353.397 7771.44 353.632C7771.89 353.856 7772.26 354.187 7772.57 354.624H7772.65L7772.83 353.44H7773.82V362.176C7773.82 362.965 7773.69 363.632 7773.42 364.176C7773.15 364.731 7772.74 365.147 7772.17 365.424C7771.62 365.701 7770.9 365.84 7770.03 365.84C7769.41 365.84 7768.85 365.792 7768.33 365.696C7767.82 365.6 7767.36 365.467 7766.96 365.296V364.112C7767.23 364.251 7767.54 364.368 7767.87 364.464C7768.2 364.571 7768.55 364.651 7768.93 364.704C7769.31 364.757 7769.7 364.784 7770.11 364.784C7770.9 364.784 7771.51 364.56 7771.93 364.112C7772.36 363.664 7772.57 363.051 7772.57 362.272V361.888C7772.57 361.739 7772.58 361.547 7772.59 361.312C7772.6 361.067 7772.61 360.88 7772.62 360.752H7772.57C7772.29 361.221 7771.91 361.573 7771.45 361.808C7771.01 362.043 7770.47 362.16 7769.85 362.16C7768.74 362.16 7767.88 361.776 7767.26 361.008C7766.64 360.24 7766.33 359.157 7766.33 357.76C7766.33 356.843 7766.47 356.048 7766.75 355.376C7767.03 354.704 7767.43 354.187 7767.95 353.824C7768.48 353.461 7769.12 353.28 7769.87 353.28ZM7770.03 354.352C7769.52 354.352 7769.08 354.485 7768.72 354.752C7768.37 355.019 7768.09 355.408 7767.9 355.92C7767.72 356.421 7767.63 357.04 7767.63 357.776C7767.63 358.853 7767.83 359.68 7768.24 360.256C7768.65 360.832 7769.25 361.12 7770.03 361.12C7770.5 361.12 7770.89 361.056 7771.21 360.928C7771.53 360.8 7771.79 360.608 7772 360.352C7772.21 360.096 7772.36 359.776 7772.45 359.392C7772.54 359.008 7772.59 358.565 7772.59 358.064V357.664C7772.59 356.896 7772.5 356.272 7772.32 355.792C7772.15 355.301 7771.87 354.939 7771.5 354.704C7771.13 354.469 7770.64 354.352 7770.03 354.352ZM7779.86 353.28C7780.6 353.28 7781.22 353.445 7781.73 353.776C7782.25 354.096 7782.65 354.549 7782.92 355.136C7783.19 355.712 7783.33 356.389 7783.33 357.168V357.952H7777.4C7777.42 358.965 7777.67 359.744 7778.15 360.288C7778.64 360.821 7779.33 361.088 7780.23 361.088C7780.76 361.088 7781.24 361.04 7781.65 360.944C7782.07 360.837 7782.5 360.688 7782.95 360.496V361.6C7782.52 361.792 7782.09 361.931 7781.67 362.016C7781.24 362.112 7780.74 362.16 7780.16 362.16C7779.34 362.16 7778.62 361.995 7778 361.664C7777.4 361.323 7776.93 360.827 7776.6 360.176C7776.26 359.515 7776.1 358.72 7776.1 357.792C7776.1 356.875 7776.25 356.08 7776.55 355.408C7776.86 354.736 7777.29 354.213 7777.86 353.84C7778.42 353.467 7779.09 353.28 7779.86 353.28ZM7779.84 354.32C7779.14 354.32 7778.58 354.549 7778.16 355.008C7777.75 355.467 7777.5 356.112 7777.43 356.944H7782.02C7782.02 356.421 7781.94 355.968 7781.78 355.584C7781.63 355.189 7781.4 354.88 7781.08 354.656C7780.76 354.432 7780.34 354.32 7779.84 354.32Z" fill="#535353" id="n1063"/>
<path d="M7726 399H7728V403H7732V405H7728V409H7726V405H7722V403H7726V399Z" fill="#535353" id="n1064"/>
<path fill-rule="evenodd" clip-rule="evenodd" d="M7716.61 402.516L7725.52 393.612C7726.33 392.796 7727.67 392.796 7728.48 393.612L7737.39 402.516C7738.2 403.332 7738.2 404.668 7737.39 405.484L7728.48 414.388C7727.67 415.204 7726.33 415.204 7725.52 414.388L7716.61 405.484C7715.8 404.668 7715.8 403.332 7716.61 402.516ZM7727 395L7718 404L7727 413L7736 404L7727 395Z" fill="#535353" id="n1065"/>
<path d="M7751.54 398.576C7752.99 398.576 7754.06 398.864 7754.74 399.44C7755.43 400.005 7755.77 400.827 7755.77 401.904C7755.77 402.395 7755.69 402.859 7755.53 403.296C7755.37 403.723 7755.11 404.101 7754.76 404.432C7754.41 404.763 7753.94 405.024 7753.37 405.216C7752.79 405.397 7752.09 405.488 7751.27 405.488H7749.85V410H7748.57V398.576H7751.54ZM7751.42 399.68H7749.85V404.384H7751.13C7751.86 404.384 7752.48 404.304 7752.97 404.144C7753.46 403.984 7753.83 403.728 7754.07 403.376C7754.32 403.013 7754.44 402.539 7754.44 401.952C7754.44 401.184 7754.19 400.613 7753.7 400.24C7753.22 399.867 7752.46 399.68 7751.42 399.68ZM7761.14 401.296C7762.16 401.296 7762.92 401.531 7763.41 402C7763.9 402.459 7764.15 403.189 7764.15 404.192V410H7763.22L7762.98 408.72H7762.93C7762.7 409.029 7762.44 409.296 7762.18 409.52C7761.92 409.733 7761.62 409.893 7761.27 410C7760.92 410.107 7760.51 410.16 7760.02 410.16C7759.5 410.16 7759.03 410.069 7758.63 409.888C7758.22 409.707 7757.9 409.429 7757.67 409.056C7757.44 408.683 7757.33 408.219 7757.33 407.664C7757.33 406.811 7757.67 406.155 7758.34 405.696C7759.02 405.237 7760.05 404.987 7761.43 404.944L7762.91 404.88V404.352C7762.91 403.595 7762.75 403.067 7762.43 402.768C7762.12 402.469 7761.67 402.32 7761.07 402.32C7760.63 402.32 7760.2 402.384 7759.79 402.512C7759.4 402.64 7759.02 402.795 7758.64 402.976L7758.26 402.016C7758.64 401.813 7759.08 401.643 7759.59 401.504C7760.09 401.365 7760.6 401.296 7761.14 401.296ZM7761.59 405.824C7760.52 405.867 7759.76 406.043 7759.31 406.352C7758.87 406.661 7758.64 407.104 7758.64 407.68C7758.64 408.171 7758.79 408.539 7759.09 408.784C7759.4 409.019 7759.8 409.136 7760.29 409.136C7761.07 409.136 7761.7 408.923 7762.18 408.496C7762.66 408.059 7762.9 407.413 7762.9 406.56V405.776L7761.59 405.824ZM7769.87 401.28C7770.47 401.28 7770.99 401.397 7771.44 401.632C7771.89 401.856 7772.26 402.187 7772.57 402.624H7772.65L7772.83 401.44H7773.82V410.176C7773.82 410.965 7773.69 411.632 7773.42 412.176C7773.15 412.731 7772.74 413.147 7772.17 413.424C7771.62 413.701 7770.9 413.84 7770.03 413.84C7769.41 413.84 7768.85 413.792 7768.33 413.696C7767.82 413.6 7767.36 413.467 7766.96 413.296V412.112C7767.23 412.251 7767.54 412.368 7767.87 412.464C7768.2 412.571 7768.55 412.651 7768.93 412.704C7769.31 412.757 7769.7 412.784 7770.11 412.784C7770.9 412.784 7771.51 412.56 7771.93 412.112C7772.36 411.664 7772.57 411.051 7772.57 410.272V409.888C7772.57 409.739 7772.58 409.547 7772.59 409.312C7772.6 409.067 7772.61 408.88 7772.62 408.752H7772.57C7772.29 409.221 7771.91 409.573 7771.45 409.808C7771.01 410.043 7770.47 410.16 7769.85 410.16C7768.74 410.16 7767.88 409.776 7767.26 409.008C7766.64 408.24 7766.33 407.157 7766.33 405.76C7766.33 404.843 7766.47 404.048 7766.75 403.376C7767.03 402.704 7767.43 402.187 7767.95 401.824C7768.48 401.461 7769.12 401.28 7769.87 401.28ZM7770.03 402.352C7769.52 402.352 7769.08 402.485 7768.72 402.752C7768.37 403.019 7768.09 403.408 7767.9 403.92C7767.72 404.421 7767.63 405.04 7767.63 405.776C7767.63 406.853 7767.83 407.68 7768.24 408.256C7768.65 408.832 7769.25 409.12 7770.03 409.12C7770.5 409.12 7770.89 409.056 7771.21 408.928C7771.53 408.8 7771.79 408.608 7772 408.352C7772.21 408.096 7772.36 407.776 7772.45 407.392C7772.54 407.008 7772.59 406.565 7772.59 406.064V405.664C7772.59 404.896 7772.5 404.272 7772.32 403.792C7772.15 403.301 7771.87 402.939 7771.5 402.704C7771.13 402.469 7770.64 402.352 7770.03 402.352ZM7779.86 401.28C7780.6 401.28 7781.22 401.445 7781.73 401.776C7782.25 402.096 7782.65 402.549 7782.92 403.136C7783.19 403.712 7783.33 404.389 7783.33 405.168V405.952H7777.4C7777.42 406.965 7777.67 407.744 7778.15 408.288C7778.64 408.821 7779.33 409.088 7780.23 409.088C7780.76 409.088 7781.24 409.04 7781.65 408.944C7782.07 408.837 7782.5 408.688 7782.95 408.496V409.6C7782.52 409.792 7782.09 409.931 7781.67 410.016C7781.24 410.112 7780.74 410.16 7780.16 410.16C7779.34 410.16 7778.62 409.995 7778 409.664C7777.4 409.323 7776.93 408.827 7776.6 408.176C7776.26 407.515 7776.1 406.72 7776.1 405.792C7776.1 404.875 7776.25 404.08 7776.55 403.408C7776.86 402.736 7777.29 402.213 7777.86 401.84C7778.42 401.467 7779.09 401.28 7779.86 401.28ZM7779.84 402.32C7779.14 402.32 7778.58 402.549 7778.16 403.008C7777.75 403.467 7777.5 404.112 7777.43 404.944H7782.02C7782.02 404.421 7781.94 403.968 7781.78 403.584C7781.63 403.189 7781.4 402.88 7781.08 402.656C7780.76 402.432 7780.34 402.32 7779.84 402.32Z" fill="#535353" id="n1066"/>
<path d="M7726 447H7728V451H7732V453H7728V457H7726V453H7722V451H7726V447Z" fill="#535353" id="n1067"/>
<path fill-rule="evenodd" clip-rule="evenodd" d="M7716.61 450.516L7725.52 441.612C7726.33 440.796 7727.67 440.796 7728.48 441.612L7737.39 450.516C7738.2 451.332 7738.2 452.668 7737.39 453.484L7728.48 462.388C7727.67 463.204 7726.33 463.204 7725.52 462.388L7716.61 453.484C7715.8 452.668 7715.8 451.332 7716.61 450.516ZM7727 443L7718 452L7727 461L7736 452L7727 443Z" fill="#535353" id="n1068"/>
<path d="M7751.54 446.576C7752.99 446.576 7754.06 446.864 7754.74 447.44C7755.43 448.005 7755.77 448.827 7755.77 449.904C7755.77 450.395 7755.69 450.859 7755.53 451.296C7755.37 451.723 7755.11 452.101 7754.76 452.432C7754.41 452.763 7753.94 453.024 7753.37 453.216C7752.79 453.397 7752.09 453.488 7751.27 453.488H7749.85V458H7748.57V446.576H7751.54ZM7751.42 447.68H7749.85V452.384H7751.13C7751.86 452.384 7752.48 452.304 7752.97 452.144C7753.46 451.984 7753.83 451.728 7754.07 451.376C7754.32 451.013 7754.44 450.539 7754.44 449.952C7754.44 449.184 7754.19 448.613 7753.7 448.24C7753.22 447.867 7752.46 447.68 7751.42 447.68ZM7761.14 449.296C7762.16 449.296 7762.92 449.531 7763.41 450C7763.9 450.459 7764.15 451.189 7764.15 452.192V458H7763.22L7762.98 456.72H7762.93C7762.7 457.029 7762.44 457.296 7762.18 457.52C7761.92 457.733 7761.62 457.893 7761.27 458C7760.92 458.107 7760.51 458.16 7760.02 458.16C7759.5 458.16 7759.03 458.069 7758.63 457.888C7758.22 457.707 7757.9 457.429 7757.67 457.056C7757.44 456.683 7757.33 456.219 7757.33 455.664C7757.33 454.811 7757.67 454.155 7758.34 453.696C7759.02 453.237 7760.05 452.987 7761.43 452.944L7762.91 452.88V452.352C7762.91 451.595 7762.75 451.067 7762.43 450.768C7762.12 450.469 7761.67 450.32 7761.07 450.32C7760.63 450.32 7760.2 450.384 7759.79 450.512C7759.4 450.64 7759.02 450.795 7758.64 450.976L7758.26 450.016C7758.64 449.813 7759.08 449.643 7759.59 449.504C7760.09 449.365 7760.6 449.296 7761.14 449.296ZM7761.59 453.824C7760.52 453.867 7759.76 454.043 7759.31 454.352C7758.87 454.661 7758.64 455.104 7758.64 455.68C7758.64 456.171 7758.79 456.539 7759.09 456.784C7759.4 457.019 7759.8 457.136 7760.29 457.136C7761.07 457.136 7761.7 456.923 7762.18 456.496C7762.66 456.059 7762.9 455.413 7762.9 454.56V453.776L7761.59 453.824ZM7769.87 449.28C7770.47 449.28 7770.99 449.397 7771.44 449.632C7771.89 449.856 7772.26 450.187 7772.57 450.624H7772.65L7772.83 449.44H7773.82V458.176C7773.82 458.965 7773.69 459.632 7773.42 460.176C7773.15 460.731 7772.74 461.147 7772.17 461.424C7771.62 461.701 7770.9 461.84 7770.03 461.84C7769.41 461.84 7768.85 461.792 7768.33 461.696C7767.82 461.6 7767.36 461.467 7766.96 461.296V460.112C7767.23 460.251 7767.54 460.368 7767.87 460.464C7768.2 460.571 7768.55 460.651 7768.93 460.704C7769.31 460.757 7769.7 460.784 7770.11 460.784C7770.9 460.784 7771.51 460.56 7771.93 460.112C7772.36 459.664 7772.57 459.051 7772.57 458.272V457.888C7772.57 457.739 7772.58 457.547 7772.59 457.312C7772.6 457.067 7772.61 456.88 7772.62 456.752H7772.57C7772.29 457.221 7771.91 457.573 7771.45 457.808C7771.01 458.043 7770.47 458.16 7769.85 458.16C7768.74 458.16 7767.88 457.776 7767.26 457.008C7766.64 456.24 7766.33 455.157 7766.33 453.76C7766.33 452.843 7766.47 452.048 7766.75 451.376C7767.03 450.704 7767.43 450.187 7767.95 449.824C7768.48 449.461 7769.12 449.28 7769.87 449.28ZM7770.03 450.352C7769.52 450.352 7769.08 450.485 7768.72 450.752C7768.37 451.019 7768.09 451.408 7767.9 451.92C7767.72 452.421 7767.63 453.04 7767.63 453.776C7767.63 454.853 7767.83 455.68 7768.24 456.256C7768.65 456.832 7769.25 457.12 7770.03 457.12C7770.5 457.12 7770.89 457.056 7771.21 456.928C7771.53 456.8 7771.79 456.608 7772 456.352C7772.21 456.096 7772.36 455.776 7772.45 455.392C7772.54 455.008 7772.59 454.565 7772.59 454.064V453.664C7772.59 452.896 7772.5 452.272 7772.32 451.792C7772.15 451.301 7771.87 450.939 7771.5 450.704C7771.13 450.469 7770.64 450.352 7770.03 450.352ZM7779.86 449.28C7780.6 449.28 7781.22 449.445 7781.73 449.776C7782.25 450.096 7782.65 450.549 7782.92 451.136C7783.19 451.712 7783.33 452.389 7783.33 453.168V453.952H7777.4C7777.42 454.965 7777.67 455.744 7778.15 456.288C7778.64 456.821 7779.33 457.088 7780.23 457.088C7780.76 457.088 7781.24 457.04 7781.65 456.944C7782.07 456.837 7782.5 456.688 7782.95 456.496V457.6C7782.52 457.792 7782.09 457.931 7781.67 458.016C7781.24 458.112 7780.74 458.16 7780.16 458.16C7779.34 458.16 7778.62 457.995 7778 457.664C7777.4 457.323 7776.93 456.827 7776.6 456.176C7776.26 455.515 7776.1 454.72 7776.1 453.792C7776.1 452.875 7776.25 452.08 7776.55 451.408C7776.86 450.736 7777.29 450.213 7777.86 449.84C7778.42 449.467 7779.09 449.28 7779.86 449.28ZM7779.84 450.32C7779.14 450.32 7778.58 450.549 7778.16 451.008C7777.75 451.467 7777.5 452.112 7777.43 452.944H7782.02C7782.02 452.421 7781.94 451.968 7781.78 451.584C7781.63 451.189 7781.4 450.88 7781.08 450.656C7780.76 450.432 7780.34 450.32 7779.84 450.32Z" fill="#535353" id="n1069"/>
<path d="M7699 480.5H8019V479.5H7699V480.5Z" fill="#DDDDDD" id="n1070"/>
<path d="M7729 500.995V498.997H7730.98V500.995H7729Z" fill="#535353" id="n1071"/>
<path d="M7729 504.992V502.993H7730.98V504.992H7729Z" fill="#535353" id="n1072"/>
<path d="M7729 496.998V495H7730.98V496.998H7729Z" fill="#535353" id="n1073"/>
<path d="M7732.96 500.995V498.997H7739.99L7739.43 500.126L7739 500.995H7732.96Z" fill="#535353" id="n1074"/>
<path d="M7732.96 504.992V502.993H7737.99L7737 504.992H7732.96Z" fill="#535353" id="n1075"/>
<path d="M7732.96 496.998V495H7746.82V496.998H7732.96Z" fill="#535353" id="n1076"/>
<path fill-rule="evenodd" clip-rule="evenodd" d="M7748.9 510.719L7743.29 499.491C7742.96 498.836 7742.04 498.836 7741.71 499.491L7736.1 510.719C7735.8 511.315 7736.23 512 7736.89 512H7748.11C7748.77 512 7749.2 511.315 7748.9 510.719ZM7741.75 510.5H7743.25V509H7741.75V510.5ZM7741.75 507.5H7743.25V503H7741.75V507.5Z" fill="#535353" id="n1077"/>
<path d="M7729.49 529L7728.42 526.252H7724.97L7723.92 529H7722.93L7726.28 520.396H7727.16L7730.48 529H7729.49ZM7727.11 522.652C7727.09 522.588 7727.05 522.476 7726.99 522.316C7726.93 522.156 7726.88 521.992 7726.83 521.824C7726.79 521.648 7726.74 521.508 7726.7 521.404C7726.66 521.564 7726.62 521.724 7726.57 521.884C7726.53 522.036 7726.49 522.18 7726.44 522.316C7726.4 522.444 7726.36 522.56 7726.33 522.664L7725.3 525.4H7728.12L7727.11 522.652ZM7732.47 529H7731.52V519.88H7732.47V529ZM7736.98 522.46C7737.54 522.46 7738 522.584 7738.39 522.832C7738.78 523.072 7739.08 523.412 7739.28 523.852C7739.48 524.284 7739.59 524.792 7739.59 525.376V525.964H7735.14C7735.15 526.724 7735.34 527.308 7735.7 527.716C7736.07 528.116 7736.59 528.316 7737.26 528.316C7737.66 528.316 7738.02 528.28 7738.33 528.208C7738.64 528.128 7738.96 528.016 7739.3 527.872V528.7C7738.98 528.844 7738.66 528.948 7738.34 529.012C7738.02 529.084 7737.64 529.12 7737.21 529.12C7736.6 529.12 7736.06 528.996 7735.59 528.748C7735.14 528.492 7734.78 528.12 7734.54 527.632C7734.29 527.136 7734.16 526.54 7734.16 525.844C7734.16 525.156 7734.28 524.56 7734.5 524.056C7734.73 523.552 7735.06 523.16 7735.48 522.88C7735.91 522.6 7736.41 522.46 7736.98 522.46ZM7736.97 523.24C7736.44 523.24 7736.02 523.412 7735.71 523.756C7735.4 524.1 7735.22 524.584 7735.16 525.208H7738.6C7738.6 524.816 7738.54 524.476 7738.42 524.188C7738.31 523.892 7738.14 523.66 7737.9 523.492C7737.66 523.324 7737.35 523.24 7736.97 523.24ZM7744.12 522.472C7744.26 522.472 7744.39 522.48 7744.53 522.496C7744.67 522.504 7744.8 522.52 7744.91 522.544L7744.79 523.42C7744.68 523.388 7744.56 523.364 7744.43 523.348C7744.31 523.332 7744.19 523.324 7744.06 523.324C7743.8 523.324 7743.56 523.38 7743.33 523.492C7743.1 523.596 7742.9 523.744 7742.73 523.936C7742.56 524.128 7742.43 524.36 7742.33 524.632C7742.24 524.904 7742.19 525.208 7742.19 525.544V529H7741.24V522.58H7742.02L7742.12 523.768H7742.16C7742.29 523.528 7742.45 523.312 7742.63 523.12C7742.82 522.92 7743.04 522.764 7743.29 522.652C7743.55 522.532 7743.82 522.472 7744.12 522.472ZM7748.17 528.34C7748.33 528.34 7748.5 528.328 7748.66 528.304C7748.83 528.272 7748.97 528.24 7749.08 528.208V528.928C7748.96 528.984 7748.8 529.028 7748.6 529.06C7748.41 529.1 7748.21 529.12 7748.01 529.12C7747.67 529.12 7747.37 529.06 7747.1 528.94C7746.83 528.82 7746.61 528.62 7746.44 528.34C7746.28 528.052 7746.2 527.656 7746.2 527.152V523.324H7745.27V522.856L7746.21 522.496L7746.57 521.092H7747.15V522.58H7749.03V523.324H7747.15V527.128C7747.15 527.536 7747.23 527.84 7747.41 528.04C7747.59 528.24 7747.85 528.34 7748.17 528.34ZM7754.53 527.248C7754.53 527.656 7754.43 528 7754.22 528.28C7754.02 528.552 7753.73 528.76 7753.34 528.904C7752.97 529.048 7752.52 529.12 7751.99 529.12C7751.54 529.12 7751.15 529.084 7750.82 529.012C7750.5 528.94 7750.21 528.84 7749.96 528.712V527.848C7750.22 527.976 7750.54 528.092 7750.9 528.196C7751.26 528.3 7751.64 528.352 7752.01 528.352C7752.57 528.352 7752.98 528.26 7753.22 528.076C7753.48 527.892 7753.61 527.644 7753.61 527.332C7753.61 527.148 7753.56 526.988 7753.45 526.852C7753.36 526.716 7753.19 526.584 7752.95 526.456C7752.72 526.328 7752.39 526.188 7751.98 526.036C7751.57 525.884 7751.22 525.732 7750.92 525.58C7750.62 525.428 7750.39 525.24 7750.22 525.016C7750.06 524.792 7749.98 524.504 7749.98 524.152C7749.98 523.608 7750.2 523.192 7750.63 522.904C7751.07 522.608 7751.65 522.46 7752.36 522.46C7752.75 522.46 7753.12 522.5 7753.45 522.58C7753.79 522.652 7754.1 522.752 7754.39 522.88L7754.06 523.648C7753.9 523.568 7753.71 523.5 7753.51 523.444C7753.32 523.38 7753.12 523.332 7752.91 523.3C7752.71 523.26 7752.51 523.24 7752.3 523.24C7751.84 523.24 7751.49 523.316 7751.24 523.468C7751 523.62 7750.88 523.828 7750.88 524.092C7750.88 524.292 7750.94 524.46 7751.05 524.596C7751.16 524.724 7751.34 524.844 7751.59 524.956C7751.85 525.068 7752.17 525.2 7752.56 525.352C7752.96 525.496 7753.31 525.648 7753.6 525.808C7753.89 525.96 7754.12 526.152 7754.28 526.384C7754.45 526.608 7754.53 526.896 7754.53 527.248Z" fill="#535353" id="n1078"/>
<path d="M7818 510H7820V508H7818V510Z" fill="#535353" id="n1079"/>
<path d="M7819 498C7816.79 498 7815 499.79 7815 502H7817C7817 500.9 7817.9 500 7819 500C7820.1 500 7821 500.9 7821 502C7821 504 7818 503.75 7818 507H7820C7820 504.75 7823 504.5 7823 502C7823 499.79 7821.21 498 7819 498Z" fill="#535353" id="n1080"/>
<path fill-rule="evenodd" clip-rule="evenodd" d="M7819 494C7813.48 494 7809 498.48 7809 504C7809 509.52 7813.48 514 7819 514C7824.52 514 7829 509.52 7829 504C7829 498.48 7824.52 494 7819 494ZM7819 512C7814.59 512 7811 508.41 7811 504C7811 499.59 7814.59 496 7819 496C7823.41 496 7827 499.59 7827 504C7827 508.41 7823.41 512 7819 512Z" fill="#535353" id="n1081"/>
<path d="M7813.71 529H7812.75V524.944H7808.2V529H7807.24V520.432H7808.2V524.104H7812.75V520.432H7813.71V529ZM7818.39 522.46C7818.94 522.46 7819.41 522.584 7819.79 522.832C7820.19 523.072 7820.48 523.412 7820.68 523.852C7820.89 524.284 7820.99 524.792 7820.99 525.376V525.964H7816.54C7816.56 526.724 7816.75 527.308 7817.11 527.716C7817.47 528.116 7817.99 528.316 7818.67 528.316C7819.07 528.316 7819.42 528.28 7819.73 528.208C7820.05 528.128 7820.37 528.016 7820.71 527.872V528.7C7820.39 528.844 7820.07 528.948 7819.75 529.012C7819.43 529.084 7819.05 529.12 7818.62 529.12C7818 529.12 7817.46 528.996 7817 528.748C7816.54 528.492 7816.19 528.12 7815.94 527.632C7815.69 527.136 7815.57 526.54 7815.57 525.844C7815.57 525.156 7815.68 524.56 7815.91 524.056C7816.14 523.552 7816.47 523.16 7816.89 522.88C7817.31 522.6 7817.81 522.46 7818.39 522.46ZM7818.38 523.24C7817.85 523.24 7817.43 523.412 7817.12 523.756C7816.81 524.1 7816.62 524.584 7816.57 525.208H7820.01C7820.01 524.816 7819.95 524.476 7819.83 524.188C7819.72 523.892 7819.54 523.66 7819.3 523.492C7819.06 523.324 7818.75 523.24 7818.38 523.24ZM7823.59 529H7822.65V519.88H7823.59V529ZM7828.65 522.46C7829.45 522.46 7830.08 522.736 7830.55 523.288C7831.03 523.84 7831.27 524.668 7831.27 525.772C7831.27 526.5 7831.16 527.116 7830.94 527.62C7830.72 528.116 7830.41 528.492 7830.01 528.748C7829.62 528.996 7829.16 529.12 7828.62 529.12C7828.28 529.12 7827.97 529.072 7827.71 528.976C7827.45 528.88 7827.22 528.756 7827.04 528.604C7826.86 528.452 7826.71 528.284 7826.59 528.1H7826.52C7826.54 528.252 7826.55 528.436 7826.57 528.652C7826.59 528.868 7826.59 529.06 7826.59 529.228V531.868H7825.65V522.58H7826.41L7826.55 523.552H7826.59C7826.71 523.352 7826.87 523.172 7827.05 523.012C7827.23 522.844 7827.45 522.712 7827.71 522.616C7827.97 522.512 7828.29 522.46 7828.65 522.46ZM7828.48 523.264C7828.04 523.264 7827.68 523.352 7827.4 523.528C7827.13 523.704 7826.92 523.964 7826.79 524.308C7826.66 524.652 7826.59 525.084 7826.59 525.604V525.784C7826.59 526.336 7826.65 526.8 7826.77 527.176C7826.89 527.552 7827.09 527.84 7827.37 528.04C7827.65 528.232 7828.03 528.328 7828.49 528.328C7828.89 528.328 7829.22 528.22 7829.49 528.004C7829.76 527.788 7829.96 527.488 7830.1 527.104C7830.23 526.72 7830.3 526.272 7830.3 525.76C7830.3 524.984 7830.15 524.376 7829.85 523.936C7829.55 523.488 7829.09 523.264 7828.48 523.264Z" fill="#535353" id="n1082"/>
<path d="M7896.25 514L7895.85 510.8C7895.63 510.717 7895.43 510.617 7895.24 510.5C7895.05 510.383 7894.86 510.258 7894.67 510.125L7891.7 511.375L7888.95 506.625L7891.52 504.675C7891.51 504.558 7891.5 504.446 7891.5 504.338V503.663C7891.5 503.554 7891.51 503.442 7891.52 503.325L7888.95 501.375L7891.7 496.625L7894.67 497.875C7894.86 497.742 7895.05 497.617 7895.25 497.5C7895.45 497.383 7895.65 497.283 7895.85 497.2L7896.25 494H7901.75L7902.15 497.2C7902.37 497.283 7902.57 497.383 7902.76 497.5C7902.95 497.617 7903.14 497.742 7903.32 497.875L7906.3 496.625L7909.05 501.375L7906.47 503.325C7906.49 503.442 7906.5 503.554 7906.5 503.663V504.338C7906.5 504.446 7906.48 504.558 7906.45 504.675L7909.02 506.625L7906.27 511.375L7903.32 510.125C7903.14 510.258 7902.95 510.383 7902.75 510.5C7902.55 510.617 7902.35 510.717 7902.15 510.8L7901.75 514H7896.25ZM7898 512H7899.97L7900.32 509.35C7900.84 509.217 7901.32 509.021 7901.76 508.762C7902.2 508.504 7902.61 508.192 7902.97 507.825L7905.45 508.85L7906.42 507.15L7904.27 505.525C7904.36 505.292 7904.42 505.046 7904.45 504.788C7904.48 504.529 7904.5 504.267 7904.5 504C7904.5 503.733 7904.48 503.471 7904.45 503.213C7904.42 502.954 7904.36 502.708 7904.27 502.475L7906.42 500.85L7905.45 499.15L7902.97 500.2C7902.61 499.817 7902.2 499.496 7901.76 499.238C7901.32 498.979 7900.84 498.783 7900.32 498.65L7900 496H7898.02L7897.67 498.65C7897.16 498.783 7896.68 498.979 7896.24 499.238C7895.8 499.496 7895.39 499.808 7895.02 500.175L7892.55 499.15L7891.57 500.85L7893.72 502.45C7893.64 502.7 7893.58 502.95 7893.55 503.2C7893.52 503.45 7893.5 503.717 7893.5 504C7893.5 504.267 7893.52 504.525 7893.55 504.775C7893.58 505.025 7893.64 505.275 7893.72 505.525L7891.57 507.15L7892.55 508.85L7895.02 507.8C7895.39 508.183 7895.8 508.504 7896.24 508.762C7896.68 509.021 7897.16 509.217 7897.67 509.35L7898 512Z" fill="#535353" id="n1083"/>
<path fill-rule="evenodd" clip-rule="evenodd" d="M7899 505.5C7899.83 505.5 7900.5 504.828 7900.5 504C7900.5 503.172 7899.83 502.5 7899 502.5C7898.17 502.5 7897.5 503.172 7897.5 504C7897.5 504.828 7898.17 505.5 7899 505.5ZM7899 507.5C7900.93 507.5 7902.5 505.933 7902.5 504C7902.5 502.067 7900.93 500.5 7899 500.5C7897.07 500.5 7895.5 502.067 7895.5 504C7895.5 505.933 7897.07 507.5 7899 507.5Z" fill="#535353" id="n1084"/>
<path d="M7882.41 526.732C7882.41 527.244 7882.28 527.676 7882.03 528.028C7881.79 528.38 7881.43 528.652 7880.97 528.844C7880.51 529.028 7879.98 529.12 7879.37 529.12C7879.05 529.12 7878.74 529.104 7878.45 529.072C7878.16 529.04 7877.89 528.996 7877.65 528.94C7877.42 528.876 7877.21 528.804 7877.03 528.724V527.788C7877.32 527.916 7877.67 528.032 7878.1 528.136C7878.52 528.232 7878.96 528.28 7879.42 528.28C7879.85 528.28 7880.21 528.224 7880.51 528.112C7880.81 527.992 7881.05 527.824 7881.21 527.608C7881.37 527.384 7881.45 527.116 7881.45 526.804C7881.45 526.508 7881.38 526.26 7881.24 526.06C7881.11 525.86 7880.9 525.68 7880.59 525.52C7880.29 525.352 7879.88 525.18 7879.37 525.004C7879 524.868 7878.68 524.724 7878.4 524.572C7878.13 524.42 7877.89 524.248 7877.7 524.056C7877.52 523.864 7877.38 523.64 7877.28 523.384C7877.19 523.128 7877.14 522.832 7877.14 522.496C7877.14 522.032 7877.25 521.64 7877.49 521.32C7877.72 520.992 7878.04 520.744 7878.45 520.576C7878.86 520.4 7879.33 520.312 7879.86 520.312C7880.33 520.312 7880.75 520.356 7881.13 520.444C7881.52 520.524 7881.87 520.64 7882.2 520.792L7881.89 521.608C7881.59 521.48 7881.26 521.376 7880.91 521.296C7880.56 521.208 7880.21 521.164 7879.84 521.164C7879.47 521.164 7879.16 521.22 7878.9 521.332C7878.65 521.436 7878.45 521.588 7878.31 521.788C7878.18 521.988 7878.11 522.224 7878.11 522.496C7878.11 522.808 7878.17 523.064 7878.3 523.264C7878.44 523.464 7878.65 523.64 7878.93 523.792C7879.21 523.944 7879.58 524.104 7880.03 524.272C7880.54 524.456 7880.97 524.652 7881.33 524.86C7881.68 525.068 7881.95 525.32 7882.13 525.616C7882.31 525.904 7882.41 526.276 7882.41 526.732ZM7886.47 522.46C7887.02 522.46 7887.49 522.584 7887.88 522.832C7888.27 523.072 7888.56 523.412 7888.76 523.852C7888.97 524.284 7889.08 524.792 7889.08 525.376V525.964H7884.62C7884.64 526.724 7884.83 527.308 7885.19 527.716C7885.56 528.116 7886.08 528.316 7886.75 528.316C7887.15 528.316 7887.5 528.28 7887.82 528.208C7888.13 528.128 7888.45 528.016 7888.79 527.872V528.7C7888.47 528.844 7888.15 528.948 7887.83 529.012C7887.51 529.084 7887.13 529.12 7886.7 529.12C7886.08 529.12 7885.54 528.996 7885.08 528.748C7884.62 528.492 7884.27 528.12 7884.02 527.632C7883.78 527.136 7883.65 526.54 7883.65 525.844C7883.65 525.156 7883.76 524.56 7883.99 524.056C7884.22 523.552 7884.55 523.16 7884.97 522.88C7885.4 522.6 7885.9 522.46 7886.47 522.46ZM7886.46 523.24C7885.93 523.24 7885.51 523.412 7885.2 523.756C7884.89 524.1 7884.7 524.584 7884.65 525.208H7888.09C7888.09 524.816 7888.03 524.476 7887.91 524.188C7887.8 523.892 7887.62 523.66 7887.38 523.492C7887.14 523.324 7886.84 523.24 7886.46 523.24ZM7892.77 528.34C7892.94 528.34 7893.1 528.328 7893.26 528.304C7893.43 528.272 7893.57 528.24 7893.68 528.208V528.928C7893.56 528.984 7893.4 529.028 7893.2 529.06C7893.01 529.1 7892.81 529.12 7892.61 529.12C7892.28 529.12 7891.97 529.06 7891.7 528.94C7891.43 528.82 7891.21 528.62 7891.04 528.34C7890.88 528.052 7890.8 527.656 7890.8 527.152V523.324H7889.88V522.856L7890.81 522.496L7891.17 521.092H7891.75V522.58H7893.63V523.324H7891.75V527.128C7891.75 527.536 7891.84 527.84 7892.01 528.04C7892.2 528.24 7892.45 528.34 7892.77 528.34ZM7897.03 528.34C7897.2 528.34 7897.36 528.328 7897.52 528.304C7897.69 528.272 7897.83 528.24 7897.94 528.208V528.928C7897.82 528.984 7897.66 529.028 7897.46 529.06C7897.27 529.1 7897.08 529.12 7896.88 529.12C7896.54 529.12 7896.24 529.06 7895.96 528.94C7895.69 528.82 7895.47 528.62 7895.3 528.34C7895.14 528.052 7895.06 527.656 7895.06 527.152V523.324H7894.14V522.856L7895.08 522.496L7895.44 521.092H7896.01V522.58H7897.9V523.324H7896.01V527.128C7896.01 527.536 7896.1 527.84 7896.28 528.04C7896.46 528.24 7896.71 528.34 7897.03 528.34ZM7900.19 522.58V529H7899.26V522.58H7900.19ZM7899.74 520.18C7899.9 520.18 7900.03 520.232 7900.13 520.336C7900.25 520.44 7900.3 520.6 7900.3 520.816C7900.3 521.016 7900.25 521.172 7900.13 521.284C7900.03 521.388 7899.9 521.44 7899.74 521.44C7899.57 521.44 7899.43 521.388 7899.32 521.284C7899.21 521.172 7899.16 521.016 7899.16 520.816C7899.16 520.6 7899.21 520.44 7899.32 520.336C7899.43 520.232 7899.57 520.18 7899.74 520.18ZM7905.28 522.46C7906.03 522.46 7906.61 522.648 7907 523.024C7907.39 523.392 7907.59 523.988 7907.59 524.812V529H7906.65V524.884C7906.65 524.332 7906.53 523.924 7906.28 523.66C7906.03 523.396 7905.65 523.264 7905.15 523.264C7904.44 523.264 7903.93 523.464 7903.64 523.864C7903.34 524.264 7903.19 524.848 7903.19 525.616V529H7902.26V522.58H7903.01L7903.16 523.528H7903.21C7903.35 523.296 7903.53 523.104 7903.73 522.952C7903.94 522.792 7904.18 522.672 7904.44 522.592C7904.71 522.504 7904.99 522.46 7905.28 522.46ZM7911.89 522.46C7912.33 522.46 7912.73 522.548 7913.06 522.724C7913.4 522.892 7913.68 523.14 7913.91 523.468H7913.97L7914.11 522.58H7914.85V529.132C7914.85 529.724 7914.75 530.224 7914.55 530.632C7914.35 531.048 7914.04 531.36 7913.61 531.568C7913.2 531.776 7912.66 531.88 7912.01 531.88C7911.54 531.88 7911.12 531.844 7910.73 531.772C7910.35 531.7 7910.01 531.6 7909.7 531.472V530.584C7909.91 530.688 7910.14 530.776 7910.39 530.848C7910.63 530.928 7910.9 530.988 7911.18 531.028C7911.47 531.068 7911.76 531.088 7912.07 531.088C7912.66 531.088 7913.11 530.92 7913.43 530.584C7913.75 530.248 7913.91 529.788 7913.91 529.204V528.916C7913.91 528.804 7913.92 528.66 7913.93 528.484C7913.93 528.3 7913.94 528.16 7913.95 528.064H7913.91C7913.7 528.416 7913.42 528.68 7913.07 528.856C7912.74 529.032 7912.34 529.12 7911.87 529.12C7911.04 529.12 7910.39 528.832 7909.93 528.256C7909.47 527.68 7909.23 526.868 7909.23 525.82C7909.23 525.132 7909.34 524.536 7909.55 524.032C7909.75 523.528 7910.05 523.14 7910.45 522.868C7910.85 522.596 7911.33 522.46 7911.89 522.46ZM7912.01 523.264C7911.62 523.264 7911.29 523.364 7911.02 523.564C7910.76 523.764 7910.55 524.056 7910.41 524.44C7910.27 524.816 7910.21 525.28 7910.21 525.832C7910.21 526.64 7910.36 527.26 7910.66 527.692C7910.97 528.124 7911.42 528.34 7912.01 528.34C7912.36 528.34 7912.65 528.292 7912.89 528.196C7913.13 528.1 7913.33 527.956 7913.48 527.764C7913.64 527.572 7913.75 527.332 7913.82 527.044C7913.89 526.756 7913.93 526.424 7913.93 526.048V525.748C7913.93 525.172 7913.86 524.704 7913.72 524.344C7913.59 523.976 7913.39 523.704 7913.11 523.528C7912.83 523.352 7912.46 523.264 7912.01 523.264ZM7921.06 527.248C7921.06 527.656 7920.95 528 7920.75 528.28C7920.55 528.552 7920.25 528.76 7919.87 528.904C7919.49 529.048 7919.04 529.12 7918.51 529.12C7918.07 529.12 7917.68 529.084 7917.35 529.012C7917.02 528.94 7916.73 528.84 7916.49 528.712V527.848C7916.75 527.976 7917.06 528.092 7917.42 528.196C7917.79 528.3 7918.16 528.352 7918.54 528.352C7919.1 528.352 7919.5 528.26 7919.75 528.076C7920.01 527.892 7920.13 527.644 7920.13 527.332C7920.13 527.148 7920.08 526.988 7919.98 526.852C7919.88 526.716 7919.71 526.584 7919.47 526.456C7919.24 526.328 7918.92 526.188 7918.5 526.036C7918.09 525.884 7917.74 525.732 7917.45 525.58C7917.15 525.428 7916.92 525.24 7916.75 525.016C7916.59 524.792 7916.51 524.504 7916.51 524.152C7916.51 523.608 7916.73 523.192 7917.16 522.904C7917.6 522.608 7918.17 522.46 7918.89 522.46C7919.28 522.46 7919.64 522.5 7919.98 522.58C7920.31 522.652 7920.63 522.752 7920.91 522.88L7920.59 523.648C7920.42 523.568 7920.24 523.5 7920.04 523.444C7919.85 523.38 7919.65 523.332 7919.44 523.3C7919.24 523.26 7919.03 523.24 7918.83 523.24C7918.37 523.24 7918.02 523.316 7917.77 523.468C7917.53 523.62 7917.41 523.828 7917.41 524.092C7917.41 524.292 7917.47 524.46 7917.58 524.596C7917.69 524.724 7917.87 524.844 7918.12 524.956C7918.37 525.068 7918.7 525.2 7919.09 525.352C7919.49 525.496 7919.83 525.648 7920.12 525.808C7920.42 525.96 7920.65 526.152 7920.81 526.384C7920.97 526.608 7921.06 526.896 7921.06 527.248Z" fill="#535353" id="n1085"/>
<path fill-rule="evenodd" clip-rule="evenodd" d="M7979 514C7984.52 514 7989 509.523 7989 504C7989 498.477 7984.52 494 7979 494C7973.48 494 7969 498.477 7969 504C7969 509.523 7973.48 514 7979 514ZM7978.4 497H7979.6V499H7982V502.4L7979 500.6L7976 502.4V499H7978.4V497ZM7984 504.843L7979 502L7974 504.843L7976.06 509.445H7981.94L7984 504.843Z" fill="#535353" id="n1086"/>
<path d="M7957.29 521.164C7956.82 521.164 7956.39 521.248 7956.01 521.416C7955.63 521.576 7955.3 521.812 7955.03 522.124C7954.76 522.428 7954.56 522.8 7954.41 523.24C7954.28 523.68 7954.21 524.172 7954.21 524.716C7954.21 525.436 7954.32 526.064 7954.55 526.6C7954.78 527.136 7955.12 527.548 7955.57 527.836C7956.01 528.124 7956.58 528.268 7957.26 528.268C7957.64 528.268 7958 528.236 7958.34 528.172C7958.68 528.108 7959.01 528.028 7959.33 527.932V528.772C7959.02 528.884 7958.69 528.968 7958.35 529.024C7958.01 529.088 7957.6 529.12 7957.13 529.12C7956.25 529.12 7955.53 528.94 7954.94 528.58C7954.36 528.22 7953.92 527.708 7953.62 527.044C7953.33 526.38 7953.19 525.6 7953.19 524.704C7953.19 524.056 7953.28 523.464 7953.45 522.928C7953.64 522.392 7953.91 521.928 7954.26 521.536C7954.61 521.144 7955.04 520.844 7955.55 520.636C7956.07 520.42 7956.65 520.312 7957.31 520.312C7957.74 520.312 7958.15 520.356 7958.55 520.444C7958.95 520.524 7959.31 520.644 7959.63 520.804L7959.25 521.632C7958.98 521.496 7958.68 521.384 7958.35 521.296C7958.02 521.208 7957.67 521.164 7957.29 521.164ZM7966.56 525.784C7966.56 526.304 7966.49 526.772 7966.35 527.188C7966.22 527.596 7966.02 527.944 7965.76 528.232C7965.51 528.52 7965.2 528.74 7964.83 528.892C7964.46 529.044 7964.05 529.12 7963.59 529.12C7963.16 529.12 7962.76 529.044 7962.4 528.892C7962.05 528.74 7961.74 528.52 7961.48 528.232C7961.22 527.944 7961.02 527.596 7960.88 527.188C7960.74 526.78 7960.68 526.312 7960.68 525.784C7960.68 525.08 7960.79 524.484 7961.02 523.996C7961.26 523.5 7961.6 523.12 7962.04 522.856C7962.49 522.592 7963.02 522.46 7963.63 522.46C7964.22 522.46 7964.73 522.592 7965.16 522.856C7965.6 523.12 7965.94 523.5 7966.18 523.996C7966.43 524.492 7966.56 525.088 7966.56 525.784ZM7961.65 525.784C7961.65 526.296 7961.72 526.744 7961.85 527.128C7962 527.512 7962.21 527.808 7962.5 528.016C7962.79 528.224 7963.16 528.328 7963.6 528.328C7964.06 528.328 7964.43 528.224 7964.72 528.016C7965.02 527.808 7965.23 527.512 7965.37 527.128C7965.5 526.744 7965.57 526.296 7965.57 525.784C7965.57 525.264 7965.5 524.82 7965.36 524.452C7965.22 524.076 7965.01 523.784 7964.72 523.576C7964.44 523.368 7964.07 523.264 7963.6 523.264C7962.93 523.264 7962.44 523.488 7962.12 523.936C7961.8 524.376 7961.65 524.992 7961.65 525.784ZM7975.17 522.46C7975.87 522.46 7976.4 522.644 7976.75 523.012C7977.11 523.38 7977.29 523.972 7977.29 524.788V529H7976.37V524.836C7976.37 524.308 7976.25 523.916 7976.02 523.66C7975.8 523.396 7975.46 523.264 7975.01 523.264C7974.4 523.264 7973.94 523.444 7973.66 523.804C7973.37 524.156 7973.22 524.688 7973.22 525.4V529H7972.3V524.836C7972.3 524.484 7972.25 524.192 7972.14 523.96C7972.04 523.72 7971.89 523.544 7971.69 523.432C7971.49 523.32 7971.24 523.264 7970.94 523.264C7970.52 523.264 7970.18 523.352 7969.91 523.528C7969.66 523.704 7969.47 523.964 7969.35 524.308C7969.23 524.644 7969.17 525.068 7969.17 525.58V529H7968.23V522.58H7968.99L7969.13 523.504H7969.18C7969.32 523.28 7969.48 523.092 7969.66 522.94C7969.85 522.78 7970.07 522.66 7970.31 522.58C7970.56 522.5 7970.82 522.46 7971.1 522.46C7971.59 522.46 7972 522.552 7972.32 522.736C7972.65 522.92 7972.89 523.2 7973.04 523.576H7973.09C7973.3 523.208 7973.59 522.932 7973.96 522.748C7974.32 522.556 7974.73 522.46 7975.17 522.46ZM7982.31 522.46C7983.11 522.46 7983.74 522.736 7984.21 523.288C7984.69 523.84 7984.93 524.668 7984.93 525.772C7984.93 526.5 7984.82 527.116 7984.6 527.62C7984.38 528.116 7984.07 528.492 7983.67 528.748C7983.28 528.996 7982.82 529.12 7982.28 529.12C7981.94 529.12 7981.63 529.072 7981.37 528.976C7981.11 528.88 7980.88 528.756 7980.7 528.604C7980.52 528.452 7980.37 528.284 7980.25 528.1H7980.18C7980.2 528.252 7980.21 528.436 7980.23 528.652C7980.25 528.868 7980.25 529.06 7980.25 529.228V531.868H7979.31V522.58H7980.07L7980.21 523.552H7980.25C7980.37 523.352 7980.53 523.172 7980.71 523.012C7980.89 522.844 7981.11 522.712 7981.37 522.616C7981.63 522.512 7981.95 522.46 7982.31 522.46ZM7982.14 523.264C7981.7 523.264 7981.34 523.352 7981.06 523.528C7980.79 523.704 7980.58 523.964 7980.45 524.308C7980.32 524.652 7980.25 525.084 7980.25 525.604V525.784C7980.25 526.336 7980.31 526.8 7980.43 527.176C7980.55 527.552 7980.75 527.84 7981.03 528.04C7981.31 528.232 7981.69 528.328 7982.15 528.328C7982.55 528.328 7982.88 528.22 7983.15 528.004C7983.42 527.788 7983.62 527.488 7983.76 527.104C7983.89 526.72 7983.96 526.272 7983.96 525.76C7983.96 524.984 7983.81 524.376 7983.51 523.936C7983.21 523.488 7982.75 523.264 7982.14 523.264ZM7989.01 522.472C7989.77 522.472 7990.34 522.648 7990.71 523C7991.08 523.344 7991.26 523.892 7991.26 524.644V529H7990.57L7990.39 528.04H7990.35C7990.17 528.272 7989.99 528.472 7989.79 528.64C7989.59 528.8 7989.37 528.92 7989.1 529C7988.85 529.08 7988.53 529.12 7988.17 529.12C7987.77 529.12 7987.43 529.052 7987.12 528.916C7986.82 528.78 7986.58 528.572 7986.4 528.292C7986.23 528.012 7986.15 527.664 7986.15 527.248C7986.15 526.608 7986.4 526.116 7986.91 525.772C7987.42 525.428 7988.19 525.24 7989.22 525.208L7990.34 525.16V524.764C7990.34 524.196 7990.22 523.8 7989.98 523.576C7989.75 523.352 7989.41 523.24 7988.96 523.24C7988.62 523.24 7988.3 523.288 7988 523.384C7987.7 523.48 7987.41 523.596 7987.13 523.732L7986.85 523.012C7987.13 522.86 7987.47 522.732 7987.84 522.628C7988.22 522.524 7988.61 522.472 7989.01 522.472ZM7989.34 525.868C7988.54 525.9 7987.97 526.032 7987.64 526.264C7987.3 526.496 7987.13 526.828 7987.13 527.26C7987.13 527.628 7987.25 527.904 7987.47 528.088C7987.7 528.264 7988 528.352 7988.37 528.352C7988.95 528.352 7989.43 528.192 7989.79 527.872C7990.15 527.544 7990.33 527.06 7990.33 526.42V525.832L7989.34 525.868ZM7996.29 522.46C7997.04 522.46 7997.61 522.648 7998 523.024C7998.39 523.392 7998.59 523.988 7998.59 524.812V529H7997.65V524.884C7997.65 524.332 7997.53 523.924 7997.28 523.66C7997.03 523.396 7996.66 523.264 7996.15 523.264C7995.44 523.264 7994.94 523.464 7994.64 523.864C7994.35 524.264 7994.2 524.848 7994.2 525.616V529H7993.26V522.58H7994.02L7994.16 523.528H7994.21C7994.35 523.296 7994.53 523.104 7994.74 522.952C7994.95 522.792 7995.18 522.672 7995.45 522.592C7995.71 522.504 7995.99 522.46 7996.29 522.46ZM7999.58 522.58H8000.59L8002.01 526.336C8002.09 526.56 8002.17 526.772 8002.24 526.972C8002.31 527.172 8002.38 527.364 8002.43 527.548C8002.49 527.724 8002.53 527.896 8002.57 528.064H8002.6C8002.66 527.872 8002.73 527.62 8002.83 527.308C8002.93 526.988 8003.05 526.664 8003.17 526.336L8004.52 522.58H8005.54L8002.73 529.96C8002.59 530.352 8002.42 530.692 8002.22 530.98C8002.03 531.268 8001.79 531.488 8001.51 531.64C8001.24 531.8 8000.91 531.88 8000.51 531.88C8000.33 531.88 8000.17 531.868 8000.03 531.844C7999.9 531.828 7999.77 531.808 7999.66 531.784V531.028C7999.76 531.044 7999.87 531.06 7999.99 531.076C8000.11 531.1 8000.23 531.112 8000.37 531.112C8000.61 531.112 8000.82 531.064 8000.99 530.968C8001.17 530.88 8001.32 530.744 8001.45 530.56C8001.58 530.384 8001.69 530.172 8001.79 529.924L8002.15 529.012L7999.58 522.58Z" fill="#535353" id="n1087"/>
</g>
</g>
</svg>
