<?xml version='1.0' encoding='utf-8'?>
<svg xmlns="http://www.w3.org/2000/svg" xmlns:xlink="http://www.w3.org/1999/xlink" width="184.0" height="184.0" viewBox="0 0 184.0 184.0" fill="none">
  <defs><clipPath id="clip__asset"><rect x="0" y="0" width="184.0" height="184.0"/></clipPath><clipPath id="clip105_68_6728">
<rect width="26" height="16" fill="white" transform="translate(5182 514)" id="n1457"/>
</clipPath>
<clipPath id="clip106_68_6728">
<rect width="24" height="16" fill="white" transform="translate(5212 514)" id="n1458"/>
</clipPath>
<clipPath id="clip107_68_6728">
<rect width="26" height="16" fill="white" transform="translate(5182 586)" id="n1459"/>
</clipPath>
<clipPath id="clip108_68_6728">
<rect width="24" height="16" fill="white" transform="translate(5212 586)" id="n1460"/>
</clipPath>
</defs>
  <g clip-path="url(#clip__asset)" transform="translate(-5115.0 -448.0)"><path d="M5191.09 508H5187.01V492.564C5187.01 492.043 5187.01 491.533 5187.01 491.034C5187.03 490.513 5187.06 490.003 5187.08 489.504C5187.1 488.983 5187.12 488.495 5187.15 488.042C5186.92 488.291 5186.64 488.575 5186.3 488.892C5185.96 489.187 5185.6 489.493 5185.24 489.81L5182.52 491.986L5180.48 489.402L5187.72 483.724H5191.09V508ZM5214.98 508H5198.45V504.94L5204.68 498.65C5205.9 497.403 5206.9 496.338 5207.67 495.454C5208.46 494.547 5209.05 493.697 5209.44 492.904C5209.82 492.111 5210.01 491.238 5210.01 490.286C5210.01 489.153 5209.68 488.303 5209.03 487.736C5208.37 487.147 5207.51 486.852 5206.44 486.852C5205.38 486.852 5204.4 487.067 5203.52 487.498C5202.64 487.906 5201.72 488.484 5200.77 489.232L5198.56 486.546C5199.21 485.979 5199.93 485.458 5200.7 484.982C5201.47 484.506 5202.33 484.121 5203.28 483.826C5204.26 483.531 5205.37 483.384 5206.61 483.384C5208.18 483.384 5209.51 483.667 5210.63 484.234C5211.76 484.778 5212.63 485.537 5213.24 486.512C5213.86 487.487 5214.16 488.62 5214.16 489.912C5214.16 490.887 5214 491.805 5213.69 492.666C5213.39 493.527 5212.96 494.366 5212.39 495.182C5211.85 495.975 5211.17 496.803 5210.35 497.664C5209.54 498.503 5208.63 499.398 5207.63 500.35L5203.59 504.26V504.43H5214.98V508ZM5232.98 489.266C5232.98 490.377 5232.77 491.34 5232.34 492.156C5231.91 492.949 5231.3 493.607 5230.53 494.128C5229.76 494.627 5228.87 494.989 5227.85 495.216V495.318C5229.8 495.545 5231.26 496.145 5232.23 497.12C5233.23 498.095 5233.73 499.387 5233.73 500.996C5233.73 502.401 5233.39 503.659 5232.71 504.77C5232.03 505.881 5230.99 506.753 5229.58 507.388C5228.18 508.023 5226.37 508.34 5224.18 508.34C5222.86 508.34 5221.64 508.227 5220.5 508C5219.39 507.796 5218.33 507.467 5217.31 507.014V503.41C5218.35 503.909 5219.45 504.305 5220.61 504.6C5221.76 504.872 5222.86 505.008 5223.9 505.008C5225.9 505.008 5227.32 504.645 5228.15 503.92C5228.99 503.172 5229.41 502.141 5229.41 500.826C5229.41 499.987 5229.2 499.296 5228.77 498.752C5228.34 498.208 5227.66 497.811 5226.73 497.562C5225.8 497.29 5224.6 497.154 5223.12 497.154H5221.05V493.856H5223.16C5224.58 493.856 5225.71 493.697 5226.52 493.38C5227.36 493.04 5227.96 492.575 5228.32 491.986C5228.71 491.397 5228.9 490.717 5228.9 489.946C5228.9 488.949 5228.57 488.167 5227.92 487.6C5227.26 487.033 5226.28 486.75 5224.99 486.75C5224.18 486.75 5223.43 486.841 5222.75 487.022C5222.09 487.203 5221.48 487.441 5220.91 487.736C5220.37 488.031 5219.85 488.337 5219.35 488.654L5217.41 485.832C5218.02 485.379 5218.71 484.971 5219.48 484.608C5220.25 484.223 5221.1 483.928 5222.03 483.724C5222.99 483.497 5224.03 483.384 5225.16 483.384C5227.68 483.384 5229.6 483.917 5230.94 484.982C5232.3 486.047 5232.98 487.475 5232.98 489.266Z" fill="#2D548B" id="n424"/>
<g clip-path="url(#clip105_68_6728)" id="n425">
<path d="M5189.59 526H5188.19V522.32H5184.47V526H5183.07V517.789H5184.47V521.124H5188.19V517.789H5189.59V526ZM5198.44 521.814C5198.44 522.734 5198.27 523.504 5197.91 524.125C5197.57 524.746 5197.07 525.214 5196.42 525.528C5195.77 525.843 5194.98 526 5194.05 526H5191.74V517.789H5194.29C5195.14 517.789 5195.88 517.942 5196.49 518.249C5197.11 518.556 5197.59 519.008 5197.93 519.606C5198.27 520.196 5198.44 520.932 5198.44 521.814ZM5196.97 521.86C5196.97 521.193 5196.87 520.645 5196.66 520.215C5196.45 519.786 5196.15 519.472 5195.74 519.272C5195.34 519.065 5194.85 518.962 5194.27 518.962H5193.14V524.827H5194.07C5195.05 524.827 5195.77 524.578 5196.25 524.079C5196.73 523.581 5196.97 522.841 5196.97 521.86ZM5203.53 521.515H5206.59V525.666C5206.15 525.812 5205.7 525.923 5205.24 526C5204.78 526.077 5204.26 526.115 5203.68 526.115C5202.85 526.115 5202.15 525.95 5201.56 525.621C5200.99 525.291 5200.55 524.812 5200.25 524.183C5199.95 523.547 5199.8 522.78 5199.8 521.883C5199.8 521.024 5199.97 520.281 5200.31 519.652C5200.65 519.023 5201.13 518.536 5201.76 518.191C5202.4 517.846 5203.17 517.674 5204.08 517.674C5204.53 517.674 5204.96 517.72 5205.37 517.812C5205.79 517.896 5206.18 518.015 5206.52 518.168L5206.04 519.33C5205.77 519.2 5205.46 519.092 5205.12 519.008C5204.77 518.916 5204.42 518.87 5204.05 518.87C5203.47 518.87 5202.98 518.993 5202.55 519.238C5202.14 519.483 5201.82 519.836 5201.6 520.296C5201.38 520.748 5201.27 521.285 5201.27 521.906C5201.27 522.496 5201.35 523.021 5201.53 523.481C5201.71 523.934 5201.98 524.29 5202.36 524.551C5202.74 524.804 5203.24 524.93 5203.85 524.93C5204.06 524.93 5204.24 524.923 5204.39 524.907C5204.55 524.892 5204.7 524.873 5204.83 524.85C5204.96 524.819 5205.08 524.792 5205.2 524.769V522.722H5203.53V521.515Z" fill="#535353" id="n426"/>
</g>
<g clip-path="url(#clip106_68_6728)" id="n427">
<path d="M5219.62 521.814C5219.62 522.734 5219.46 523.504 5219.12 524.125C5218.78 524.746 5218.29 525.214 5217.66 525.528C5217.02 525.843 5216.25 526 5215.34 526H5213.13V517.789H5215.58C5216.42 517.789 5217.14 517.942 5217.74 518.249C5218.34 518.556 5218.81 519.008 5219.13 519.606C5219.46 520.196 5219.62 520.932 5219.62 521.814ZM5218.65 521.848C5218.65 521.105 5218.52 520.495 5218.28 520.02C5218.03 519.537 5217.67 519.177 5217.19 518.939C5216.71 518.701 5216.13 518.582 5215.44 518.582H5214.05V525.206H5215.22C5216.36 525.206 5217.22 524.927 5217.78 524.367C5218.36 523.8 5218.65 522.96 5218.65 521.848ZM5226.01 526H5221.45V517.789H5226.01V518.605H5222.37V521.296H5225.8V522.101H5222.37V525.183H5226.01V526ZM5231.31 521.71H5234.2V525.678C5233.76 525.824 5233.32 525.931 5232.86 526C5232.42 526.077 5231.92 526.115 5231.36 526.115C5230.51 526.115 5229.79 525.946 5229.2 525.609C5228.61 525.272 5228.17 524.789 5227.86 524.16C5227.56 523.524 5227.4 522.768 5227.4 521.894C5227.4 521.043 5227.57 520.304 5227.91 519.675C5228.25 519.046 5228.73 518.556 5229.36 518.203C5229.99 517.85 5230.76 517.674 5231.65 517.674C5232.1 517.674 5232.53 517.716 5232.93 517.8C5233.35 517.885 5233.73 518.004 5234.08 518.157L5233.73 518.962C5233.42 518.824 5233.08 518.713 5232.72 518.628C5232.35 518.536 5231.98 518.49 5231.6 518.49C5230.93 518.49 5230.35 518.632 5229.86 518.916C5229.38 519.192 5229.01 519.587 5228.75 520.1C5228.49 520.606 5228.37 521.204 5228.37 521.894C5228.37 522.592 5228.48 523.198 5228.7 523.711C5228.93 524.217 5229.28 524.612 5229.75 524.896C5230.22 525.172 5230.83 525.31 5231.57 525.31C5231.82 525.31 5232.04 525.302 5232.24 525.287C5232.44 525.264 5232.63 525.233 5232.8 525.195C5232.96 525.157 5233.12 525.118 5233.27 525.08V522.538H5231.31V521.71Z" fill="#535353" id="n428"/>
</g>
<path d="M5131 540H5283" stroke="#DDDDDD" id="n429"/>
<path d="M5191.09 580H5187.01V564.564C5187.01 564.043 5187.01 563.533 5187.01 563.034C5187.03 562.513 5187.06 562.003 5187.08 561.504C5187.1 560.983 5187.12 560.495 5187.15 560.042C5186.92 560.291 5186.64 560.575 5186.3 560.892C5185.96 561.187 5185.6 561.493 5185.24 561.81L5182.52 563.986L5180.48 561.402L5187.72 555.724H5191.09V580ZM5214.98 580H5198.45V576.94L5204.68 570.65C5205.9 569.403 5206.9 568.338 5207.67 567.454C5208.46 566.547 5209.05 565.697 5209.44 564.904C5209.82 564.111 5210.01 563.238 5210.01 562.286C5210.01 561.153 5209.68 560.303 5209.03 559.736C5208.37 559.147 5207.51 558.852 5206.44 558.852C5205.38 558.852 5204.4 559.067 5203.52 559.498C5202.64 559.906 5201.72 560.484 5200.77 561.232L5198.56 558.546C5199.21 557.979 5199.93 557.458 5200.7 556.982C5201.47 556.506 5202.33 556.121 5203.28 555.826C5204.26 555.531 5205.37 555.384 5206.61 555.384C5208.18 555.384 5209.51 555.667 5210.63 556.234C5211.76 556.778 5212.63 557.537 5213.24 558.512C5213.86 559.487 5214.16 560.62 5214.16 561.912C5214.16 562.887 5214 563.805 5213.69 564.666C5213.39 565.527 5212.96 566.366 5212.39 567.182C5211.85 567.975 5211.17 568.803 5210.35 569.664C5209.54 570.503 5208.63 571.398 5207.63 572.35L5203.59 576.26V576.43H5214.98V580ZM5232.98 561.266C5232.98 562.377 5232.77 563.34 5232.34 564.156C5231.91 564.949 5231.3 565.607 5230.53 566.128C5229.76 566.627 5228.87 566.989 5227.85 567.216V567.318C5229.8 567.545 5231.26 568.145 5232.23 569.12C5233.23 570.095 5233.73 571.387 5233.73 572.996C5233.73 574.401 5233.39 575.659 5232.71 576.77C5232.03 577.881 5230.99 578.753 5229.58 579.388C5228.18 580.023 5226.37 580.34 5224.18 580.34C5222.86 580.34 5221.64 580.227 5220.5 580C5219.39 579.796 5218.33 579.467 5217.31 579.014V575.41C5218.35 575.909 5219.45 576.305 5220.61 576.6C5221.76 576.872 5222.86 577.008 5223.9 577.008C5225.9 577.008 5227.32 576.645 5228.15 575.92C5228.99 575.172 5229.41 574.141 5229.41 572.826C5229.41 571.987 5229.2 571.296 5228.77 570.752C5228.34 570.208 5227.66 569.811 5226.73 569.562C5225.8 569.29 5224.6 569.154 5223.12 569.154H5221.05V565.856H5223.16C5224.58 565.856 5225.71 565.697 5226.52 565.38C5227.36 565.04 5227.96 564.575 5228.32 563.986C5228.71 563.397 5228.9 562.717 5228.9 561.946C5228.9 560.949 5228.57 560.167 5227.92 559.6C5227.26 559.033 5226.28 558.75 5224.99 558.75C5224.18 558.75 5223.43 558.841 5222.75 559.022C5222.09 559.203 5221.48 559.441 5220.91 559.736C5220.37 560.031 5219.85 560.337 5219.35 560.654L5217.41 557.832C5218.02 557.379 5218.71 556.971 5219.48 556.608C5220.25 556.223 5221.1 555.928 5222.03 555.724C5222.99 555.497 5224.03 555.384 5225.16 555.384C5227.68 555.384 5229.6 555.917 5230.94 556.982C5232.3 558.047 5232.98 559.475 5232.98 561.266Z" fill="#2D548B" id="n430"/>
<g clip-path="url(#clip107_68_6728)" id="n431">
<path d="M5189.59 598H5188.19V594.32H5184.47V598H5183.07V589.789H5184.47V593.124H5188.19V589.789H5189.59V598ZM5198.44 593.814C5198.44 594.734 5198.27 595.504 5197.91 596.125C5197.57 596.746 5197.07 597.214 5196.42 597.528C5195.77 597.843 5194.98 598 5194.05 598H5191.74V589.789H5194.29C5195.14 589.789 5195.88 589.942 5196.49 590.249C5197.11 590.556 5197.59 591.008 5197.93 591.606C5198.27 592.196 5198.44 592.932 5198.44 593.814ZM5196.97 593.86C5196.97 593.193 5196.87 592.645 5196.66 592.215C5196.45 591.786 5196.15 591.472 5195.74 591.272C5195.34 591.065 5194.85 590.962 5194.27 590.962H5193.14V596.827H5194.07C5195.05 596.827 5195.77 596.578 5196.25 596.079C5196.73 595.581 5196.97 594.841 5196.97 593.86ZM5203.53 593.515H5206.59V597.666C5206.15 597.812 5205.7 597.923 5205.24 598C5204.78 598.077 5204.26 598.115 5203.68 598.115C5202.85 598.115 5202.15 597.95 5201.56 597.621C5200.99 597.291 5200.55 596.812 5200.25 596.183C5199.95 595.547 5199.8 594.78 5199.8 593.883C5199.8 593.024 5199.97 592.281 5200.31 591.652C5200.65 591.023 5201.13 590.536 5201.76 590.191C5202.4 589.846 5203.17 589.674 5204.08 589.674C5204.53 589.674 5204.96 589.72 5205.37 589.812C5205.79 589.896 5206.18 590.015 5206.52 590.168L5206.04 591.33C5205.77 591.2 5205.46 591.092 5205.12 591.008C5204.77 590.916 5204.42 590.87 5204.05 590.87C5203.47 590.87 5202.98 590.993 5202.55 591.238C5202.14 591.483 5201.82 591.836 5201.6 592.296C5201.38 592.748 5201.27 593.285 5201.27 593.906C5201.27 594.496 5201.35 595.021 5201.53 595.481C5201.71 595.934 5201.98 596.29 5202.36 596.551C5202.74 596.804 5203.24 596.93 5203.85 596.93C5204.06 596.93 5204.24 596.923 5204.39 596.907C5204.55 596.892 5204.7 596.873 5204.83 596.85C5204.96 596.819 5205.08 596.792 5205.2 596.769V594.722H5203.53V593.515Z" fill="#535353" id="n432"/>
</g>
<g clip-path="url(#clip108_68_6728)" id="n433">
<path d="M5219.62 593.814C5219.62 594.734 5219.46 595.504 5219.12 596.125C5218.78 596.746 5218.29 597.214 5217.66 597.528C5217.02 597.843 5216.25 598 5215.34 598H5213.13V589.789H5215.58C5216.42 589.789 5217.14 589.942 5217.74 590.249C5218.34 590.556 5218.81 591.008 5219.13 591.606C5219.46 592.196 5219.62 592.932 5219.62 593.814ZM5218.65 593.848C5218.65 593.105 5218.52 592.495 5218.28 592.02C5218.03 591.537 5217.67 591.177 5217.19 590.939C5216.71 590.701 5216.13 590.582 5215.44 590.582H5214.05V597.206H5215.22C5216.36 597.206 5217.22 596.927 5217.78 596.367C5218.36 595.8 5218.65 594.96 5218.65 593.848ZM5226.01 598H5221.45V589.789H5226.01V590.605H5222.37V593.296H5225.8V594.101H5222.37V597.183H5226.01V598ZM5231.31 593.71H5234.2V597.678C5233.76 597.824 5233.32 597.931 5232.86 598C5232.42 598.077 5231.92 598.115 5231.36 598.115C5230.51 598.115 5229.79 597.946 5229.2 597.609C5228.61 597.272 5228.17 596.789 5227.86 596.16C5227.56 595.524 5227.4 594.768 5227.4 593.894C5227.4 593.043 5227.57 592.304 5227.91 591.675C5228.25 591.046 5228.73 590.556 5229.36 590.203C5229.99 589.85 5230.76 589.674 5231.65 589.674C5232.1 589.674 5232.53 589.716 5232.93 589.8C5233.35 589.885 5233.73 590.004 5234.08 590.157L5233.73 590.962C5233.42 590.824 5233.08 590.713 5232.72 590.628C5232.35 590.536 5231.98 590.49 5231.6 590.49C5230.93 590.49 5230.35 590.632 5229.86 590.916C5229.38 591.192 5229.01 591.587 5228.75 592.1C5228.49 592.606 5228.37 593.204 5228.37 593.894C5228.37 594.592 5228.48 595.198 5228.7 595.711C5228.93 596.217 5229.28 596.612 5229.75 596.896C5230.22 597.172 5230.83 597.31 5231.57 597.31C5231.82 597.31 5232.04 597.302 5232.24 597.287C5232.44 597.264 5232.63 597.233 5232.8 597.195C5232.96 597.157 5233.12 597.118 5233.27 597.08V594.538H5231.31V593.71Z" fill="#535353" id="n434"/>
</g>
</g>
</svg>
