<?xml version='1.0' encoding='utf-8'?>
<svg xmlns="http://www.w3.org/2000/svg" xmlns:xlink="http://www.w3.org/1999/xlink" width="184.0" height="184.0" viewBox="0 0 184.0 184.0" fill="none">
  <defs><clipPath id="clip__asset"><rect x="0" y="0" width="184.0" height="184.0"/></clipPath><clipPath id="clip97_68_6728">
<rect width="26" height="16" fill="white" transform="translate(5182 978)" id="n1449"/>
</clipPath>
<clipPath id="clip98_68_6728">
<rect width="24" height="16" fill="white" transform="translate(5212 978)" id="n1450"/>
</clipPath>
<clipPath id="clip99_68_6728">
<rect width="37" height="24" fill="white" transform="translate(5162 1014)" id="n1451"/>
</clipPath>
<clipPath id="clip100_68_6728">
<rect width="25" height="16" fill="white" transform="translate(5174 1038)" id="n1452"/>
</clipPath>
<clipPath id="clip101_68_6728">
<rect width="24" height="16" fill="white" transform="translate(5175 1054)" id="n1453"/>
</clipPath>
<clipPath id="clip102_68_6728">
<rect width="37" height="24" fill="white" transform="translate(5215 1014)" id="n1454"/>
</clipPath>
<clipPath id="clip103_68_6728">
<rect width="23" height="16" fill="white" transform="translate(5229 1038)" id="n1455"/>
</clipPath>
<clipPath id="clip104_68_6728">
<rect width="30" height="16" fill="white" transform="translate(5222 1054)" id="n1456"/>
</clipPath>
</defs>
  <g clip-path="url(#clip__asset)" transform="translate(-5115.0 -912.0)"><path d="M5191.09 972H5187.01V956.564C5187.01 956.043 5187.01 955.533 5187.01 955.034C5187.03 954.513 5187.06 954.003 5187.08 953.504C5187.1 952.983 5187.12 952.495 5187.15 952.042C5186.92 952.291 5186.64 952.575 5186.3 952.892C5185.96 953.187 5185.6 953.493 5185.24 953.81L5182.52 955.986L5180.48 953.402L5187.72 947.724H5191.09V972ZM5214.98 972H5198.45V968.94L5204.68 962.65C5205.9 961.403 5206.9 960.338 5207.67 959.454C5208.46 958.547 5209.05 957.697 5209.44 956.904C5209.82 956.111 5210.01 955.238 5210.01 954.286C5210.01 953.153 5209.68 952.303 5209.03 951.736C5208.37 951.147 5207.51 950.852 5206.44 950.852C5205.38 950.852 5204.4 951.067 5203.52 951.498C5202.64 951.906 5201.72 952.484 5200.77 953.232L5198.56 950.546C5199.21 949.979 5199.93 949.458 5200.7 948.982C5201.47 948.506 5202.33 948.121 5203.28 947.826C5204.26 947.531 5205.37 947.384 5206.61 947.384C5208.18 947.384 5209.51 947.667 5210.63 948.234C5211.76 948.778 5212.63 949.537 5213.24 950.512C5213.86 951.487 5214.16 952.62 5214.16 953.912C5214.16 954.887 5214 955.805 5213.69 956.666C5213.39 957.527 5212.96 958.366 5212.39 959.182C5211.85 959.975 5211.17 960.803 5210.35 961.664C5209.54 962.503 5208.63 963.398 5207.63 964.35L5203.59 968.26V968.43H5214.98V972ZM5232.98 953.266C5232.98 954.377 5232.77 955.34 5232.34 956.156C5231.91 956.949 5231.3 957.607 5230.53 958.128C5229.76 958.627 5228.87 958.989 5227.85 959.216V959.318C5229.8 959.545 5231.26 960.145 5232.23 961.12C5233.23 962.095 5233.73 963.387 5233.73 964.996C5233.73 966.401 5233.39 967.659 5232.71 968.77C5232.03 969.881 5230.99 970.753 5229.58 971.388C5228.18 972.023 5226.37 972.34 5224.18 972.34C5222.86 972.34 5221.64 972.227 5220.5 972C5219.39 971.796 5218.33 971.467 5217.31 971.014V967.41C5218.35 967.909 5219.45 968.305 5220.61 968.6C5221.76 968.872 5222.86 969.008 5223.9 969.008C5225.9 969.008 5227.32 968.645 5228.15 967.92C5228.99 967.172 5229.41 966.141 5229.41 964.826C5229.41 963.987 5229.2 963.296 5228.77 962.752C5228.34 962.208 5227.66 961.811 5226.73 961.562C5225.8 961.29 5224.6 961.154 5223.12 961.154H5221.05V957.856H5223.16C5224.58 957.856 5225.71 957.697 5226.52 957.38C5227.36 957.04 5227.96 956.575 5228.32 955.986C5228.71 955.397 5228.9 954.717 5228.9 953.946C5228.9 952.949 5228.57 952.167 5227.92 951.6C5227.26 951.033 5226.28 950.75 5224.99 950.75C5224.18 950.75 5223.43 950.841 5222.75 951.022C5222.09 951.203 5221.48 951.441 5220.91 951.736C5220.37 952.031 5219.85 952.337 5219.35 952.654L5217.41 949.832C5218.02 949.379 5218.71 948.971 5219.48 948.608C5220.25 948.223 5221.1 947.928 5222.03 947.724C5222.99 947.497 5224.03 947.384 5225.16 947.384C5227.68 947.384 5229.6 947.917 5230.94 948.982C5232.3 950.047 5232.98 951.475 5232.98 953.266Z" fill="#2D548B" id="n406"/>
<g clip-path="url(#clip97_68_6728)" id="n407">
<path d="M5189.59 990H5188.19V986.32H5184.47V990H5183.07V981.789H5184.47V985.124H5188.19V981.789H5189.59V990ZM5198.44 985.814C5198.44 986.734 5198.27 987.504 5197.91 988.125C5197.57 988.746 5197.07 989.214 5196.42 989.528C5195.77 989.843 5194.98 990 5194.05 990H5191.74V981.789H5194.29C5195.14 981.789 5195.88 981.942 5196.49 982.249C5197.11 982.556 5197.59 983.008 5197.93 983.606C5198.27 984.196 5198.44 984.932 5198.44 985.814ZM5196.97 985.86C5196.97 985.193 5196.87 984.645 5196.66 984.215C5196.45 983.786 5196.15 983.472 5195.74 983.272C5195.34 983.065 5194.85 982.962 5194.27 982.962H5193.14V988.827H5194.07C5195.05 988.827 5195.77 988.578 5196.25 988.079C5196.73 987.581 5196.97 986.841 5196.97 985.86ZM5203.53 985.515H5206.59V989.666C5206.15 989.812 5205.7 989.923 5205.24 990C5204.78 990.077 5204.26 990.115 5203.68 990.115C5202.85 990.115 5202.15 989.95 5201.56 989.621C5200.99 989.291 5200.55 988.812 5200.25 988.183C5199.95 987.547 5199.8 986.78 5199.8 985.883C5199.8 985.024 5199.97 984.281 5200.31 983.652C5200.65 983.023 5201.13 982.536 5201.76 982.191C5202.4 981.846 5203.17 981.674 5204.08 981.674C5204.53 981.674 5204.96 981.72 5205.37 981.812C5205.79 981.896 5206.18 982.015 5206.52 982.168L5206.04 983.33C5205.77 983.2 5205.46 983.092 5205.12 983.008C5204.77 982.916 5204.42 982.87 5204.05 982.87C5203.47 982.87 5202.98 982.993 5202.55 983.238C5202.14 983.483 5201.82 983.836 5201.6 984.296C5201.38 984.748 5201.27 985.285 5201.27 985.906C5201.27 986.496 5201.35 987.021 5201.53 987.481C5201.71 987.934 5201.98 988.29 5202.36 988.551C5202.74 988.804 5203.24 988.93 5203.85 988.93C5204.06 988.93 5204.24 988.923 5204.39 988.907C5204.55 988.892 5204.7 988.873 5204.83 988.85C5204.96 988.819 5205.08 988.792 5205.2 988.769V986.722H5203.53V985.515Z" fill="#535353" id="n408"/>
</g>
<g clip-path="url(#clip98_68_6728)" id="n409">
<path d="M5219.62 985.814C5219.62 986.734 5219.46 987.504 5219.12 988.125C5218.78 988.746 5218.29 989.214 5217.66 989.528C5217.02 989.843 5216.25 990 5215.34 990H5213.13V981.789H5215.58C5216.42 981.789 5217.14 981.942 5217.74 982.249C5218.34 982.556 5218.81 983.008 5219.13 983.606C5219.46 984.196 5219.62 984.932 5219.62 985.814ZM5218.65 985.848C5218.65 985.105 5218.52 984.495 5218.28 984.02C5218.03 983.537 5217.67 983.177 5217.19 982.939C5216.71 982.701 5216.13 982.582 5215.44 982.582H5214.05V989.206H5215.22C5216.36 989.206 5217.22 988.927 5217.78 988.367C5218.36 987.8 5218.65 986.96 5218.65 985.848ZM5226.01 990H5221.45V981.789H5226.01V982.605H5222.37V985.296H5225.8V986.101H5222.37V989.183H5226.01V990ZM5231.31 985.71H5234.2V989.678C5233.76 989.824 5233.32 989.931 5232.86 990C5232.42 990.077 5231.92 990.115 5231.36 990.115C5230.51 990.115 5229.79 989.946 5229.2 989.609C5228.61 989.272 5228.17 988.789 5227.86 988.16C5227.56 987.524 5227.4 986.768 5227.4 985.894C5227.4 985.043 5227.57 984.304 5227.91 983.675C5228.25 983.046 5228.73 982.556 5229.36 982.203C5229.99 981.85 5230.76 981.674 5231.65 981.674C5232.1 981.674 5232.53 981.716 5232.93 981.8C5233.35 981.885 5233.73 982.004 5234.08 982.157L5233.73 982.962C5233.42 982.824 5233.08 982.713 5232.72 982.628C5232.35 982.536 5231.98 982.49 5231.6 982.49C5230.93 982.49 5230.35 982.632 5229.86 982.916C5229.38 983.192 5229.01 983.587 5228.75 984.1C5228.49 984.606 5228.37 985.204 5228.37 985.894C5228.37 986.592 5228.48 987.198 5228.7 987.711C5228.93 988.217 5229.28 988.612 5229.75 988.896C5230.22 989.172 5230.83 989.31 5231.57 989.31C5231.82 989.31 5232.04 989.302 5232.24 989.287C5232.44 989.264 5232.63 989.233 5232.8 989.195C5232.96 989.157 5233.12 989.118 5233.27 989.08V986.538H5231.31V985.71Z" fill="#535353" id="n410"/>
</g>
<path d="M5131 1004H5283" stroke="#DDDDDD" id="n411"/>
<g clip-path="url(#clip99_68_6728)" id="n412">
<path d="M5169.7 1035H5168.01V1023.8C5168.01 1023.38 5168.01 1023.02 5168.01 1022.72C5168.02 1022.43 5168.03 1022.16 5168.03 1021.91C5168.04 1021.65 5168.06 1021.38 5168.07 1021.12C5167.85 1021.34 5167.65 1021.53 5167.46 1021.69C5167.27 1021.84 5167.03 1022.03 5166.75 1022.28L5164.9 1023.74L5164 1022.57L5168.25 1019.29H5169.7V1035ZM5185.44 1035H5175.19V1033.57L5179.41 1029.24C5180.19 1028.46 5180.84 1027.76 5181.37 1027.15C5181.91 1026.53 5182.33 1025.92 5182.6 1025.32C5182.88 1024.72 5183.02 1024.05 5183.02 1023.32C5183.02 1022.42 5182.75 1021.74 5182.21 1021.27C5181.68 1020.79 5180.98 1020.55 5180.12 1020.55C5179.37 1020.55 5178.7 1020.68 5178.12 1020.94C5177.53 1021.21 5176.94 1021.57 5176.33 1022.04L5175.41 1020.88C5175.82 1020.52 5176.27 1020.22 5176.75 1019.95C5177.25 1019.67 5177.78 1019.46 5178.34 1019.31C5178.91 1019.15 5179.5 1019.07 5180.12 1019.07C5181.07 1019.07 5181.89 1019.24 5182.58 1019.58C5183.29 1019.92 5183.83 1020.4 5184.21 1021.03C5184.59 1021.65 5184.78 1022.38 5184.78 1023.23C5184.78 1023.86 5184.69 1024.45 5184.5 1025.01C5184.32 1025.55 5184.06 1026.09 5183.7 1026.62C5183.37 1027.13 5182.95 1027.66 5182.45 1028.2C5181.97 1028.73 5181.43 1029.29 5180.84 1029.87L5177.37 1033.35V1033.42H5185.44V1035ZM5196.96 1022.94C5196.96 1023.65 5196.82 1024.26 5196.54 1024.79C5196.28 1025.31 5195.9 1025.72 5195.4 1026.05C5194.91 1026.37 5194.34 1026.6 5193.68 1026.73V1026.82C5194.93 1026.96 5195.87 1027.36 5196.5 1028C5197.13 1028.65 5197.44 1029.5 5197.44 1030.56C5197.44 1031.47 5197.23 1032.27 5196.81 1032.98C5196.38 1033.68 5195.73 1034.23 5194.85 1034.63C5193.98 1035.02 5192.87 1035.22 5191.5 1035.22C5190.67 1035.22 5189.89 1035.15 5189.17 1035.02C5188.47 1034.89 5187.8 1034.67 5187.17 1034.36V1032.73C5187.82 1033.04 5188.52 1033.29 5189.28 1033.48C5190.06 1033.66 5190.81 1033.75 5191.53 1033.75C5192.96 1033.75 5194 1033.46 5194.65 1032.89C5195.3 1032.32 5195.62 1031.53 5195.62 1030.53C5195.62 1029.83 5195.44 1029.27 5195.09 1028.86C5194.74 1028.44 5194.22 1028.13 5193.55 1027.94C5192.88 1027.73 5192.07 1027.63 5191.13 1027.63H5189.57V1026.13H5191.15C5192 1026.13 5192.72 1026.01 5193.31 1025.76C5193.91 1025.51 5194.37 1025.16 5194.69 1024.7C5195.02 1024.23 5195.18 1023.68 5195.18 1023.05C5195.18 1022.25 5194.91 1021.63 5194.36 1021.21C5193.84 1020.77 5193.11 1020.55 5192.19 1020.55C5191.63 1020.55 5191.12 1020.6 5190.65 1020.72C5190.19 1020.82 5189.76 1020.98 5189.35 1021.18C5188.95 1021.37 5188.55 1021.61 5188.14 1021.89L5187.28 1020.7C5187.68 1020.41 5188.12 1020.14 5188.6 1019.89C5189.1 1019.64 5189.64 1019.44 5190.23 1019.29C5190.83 1019.15 5191.47 1019.07 5192.16 1019.07C5193.76 1019.07 5194.96 1019.43 5195.75 1020.15C5196.56 1020.87 5196.96 1021.8 5196.96 1022.94Z" fill="#535353" id="n413"/>
</g>
<g clip-path="url(#clip100_68_6728)" id="n414">
<path d="M5178.58 1042.87C5178.19 1042.87 5177.85 1042.94 5177.54 1043.08C5177.24 1043.21 5176.99 1043.42 5176.78 1043.69C5176.58 1043.95 5176.42 1044.27 5176.3 1044.64C5176.19 1045.02 5176.14 1045.44 5176.14 1045.91C5176.14 1046.53 5176.23 1047.08 5176.4 1047.53C5176.58 1047.98 5176.85 1048.32 5177.21 1048.56C5177.57 1048.8 5178.02 1048.92 5178.57 1048.92C5178.92 1048.92 5179.26 1048.88 5179.58 1048.82C5179.91 1048.75 5180.25 1048.65 5180.6 1048.54V1049.74C5180.26 1049.87 5179.93 1049.96 5179.59 1050.02C5179.25 1050.08 5178.86 1050.12 5178.42 1050.12C5177.57 1050.12 5176.88 1049.94 5176.32 1049.6C5175.77 1049.24 5175.36 1048.75 5175.08 1048.13C5174.81 1047.49 5174.68 1046.75 5174.68 1045.89C5174.68 1045.27 5174.76 1044.71 5174.93 1044.19C5175.11 1043.68 5175.36 1043.23 5175.69 1042.86C5176.02 1042.48 5176.43 1042.19 5176.91 1041.98C5177.39 1041.78 5177.95 1041.67 5178.58 1041.67C5178.99 1041.67 5179.4 1041.72 5179.8 1041.82C5180.2 1041.92 5180.58 1042.04 5180.92 1042.2L5180.43 1043.36C5180.14 1043.23 5179.85 1043.12 5179.53 1043.02C5179.22 1042.92 5178.91 1042.87 5178.58 1042.87ZM5189.46 1045.88C5189.46 1046.52 5189.38 1047.1 5189.22 1047.62C5189.06 1048.13 5188.83 1048.58 5188.5 1048.95C5188.19 1049.33 5187.79 1049.62 5187.31 1049.82C5186.83 1050.02 5186.26 1050.12 5185.62 1050.12C5184.96 1050.12 5184.38 1050.02 5183.89 1049.82C5183.41 1049.61 5183.01 1049.32 5182.7 1048.95C5182.38 1048.58 5182.14 1048.13 5181.98 1047.61C5181.83 1047.09 5181.75 1046.51 5181.75 1045.87C5181.75 1045.02 5181.89 1044.28 5182.17 1043.65C5182.45 1043.02 5182.88 1042.54 5183.44 1042.19C5184.02 1041.84 5184.75 1041.66 5185.63 1041.66C5186.48 1041.66 5187.19 1041.84 5187.76 1042.19C5188.32 1042.54 5188.75 1043.03 5189.03 1043.66C5189.32 1044.29 5189.46 1045.03 5189.46 1045.88ZM5183.24 1045.88C5183.24 1046.51 5183.32 1047.06 5183.49 1047.52C5183.66 1047.97 5183.92 1048.32 5184.27 1048.56C5184.62 1048.8 5185.07 1048.92 5185.62 1048.92C5186.17 1048.92 5186.62 1048.8 5186.96 1048.56C5187.32 1048.32 5187.57 1047.97 5187.73 1047.52C5187.9 1047.06 5187.99 1046.51 5187.99 1045.88C5187.99 1044.94 5187.8 1044.2 5187.42 1043.66C5187.06 1043.13 5186.46 1042.86 5185.63 1042.86C5185.08 1042.86 5184.62 1042.98 5184.27 1043.23C5183.92 1043.46 5183.66 1043.81 5183.49 1044.26C5183.32 1044.71 5183.24 1045.25 5183.24 1045.88ZM5194.55 1045.51H5197.61V1049.67C5197.18 1049.81 5196.73 1049.92 5196.27 1050C5195.81 1050.08 5195.29 1050.12 5194.7 1050.12C5193.88 1050.12 5193.17 1049.95 5192.59 1049.62C5192.01 1049.29 5191.58 1048.81 5191.28 1048.18C5190.98 1047.55 5190.83 1046.78 5190.83 1045.88C5190.83 1045.02 5191 1044.28 5191.33 1043.65C5191.67 1043.02 5192.15 1042.54 5192.78 1042.19C5193.42 1041.85 5194.19 1041.67 5195.11 1041.67C5195.55 1041.67 5195.98 1041.72 5196.39 1041.81C5196.82 1041.9 5197.2 1042.02 5197.54 1042.17L5197.06 1043.33C5196.79 1043.2 5196.49 1043.09 5196.14 1043.01C5195.8 1042.92 5195.44 1042.87 5195.07 1042.87C5194.5 1042.87 5194 1042.99 5193.58 1043.24C5193.16 1043.48 5192.84 1043.84 5192.62 1044.3C5192.4 1044.75 5192.29 1045.28 5192.29 1045.91C5192.29 1046.5 5192.38 1047.02 5192.55 1047.48C5192.73 1047.93 5193.01 1048.29 5193.38 1048.55C5193.76 1048.8 5194.26 1048.93 5194.88 1048.93C5195.08 1048.93 5195.26 1048.92 5195.42 1048.91C5195.58 1048.89 5195.72 1048.87 5195.85 1048.85C5195.98 1048.82 5196.11 1048.79 5196.22 1048.77V1046.72H5194.55V1045.51Z" fill="#535353" id="n415"/>
</g>
<g clip-path="url(#clip101_68_6728)" id="n416">
<path d="M5182.62 1061.81C5182.62 1062.73 5182.46 1063.5 5182.12 1064.13C5181.78 1064.75 5181.29 1065.21 5180.66 1065.53C5180.02 1065.84 5179.25 1066 5178.34 1066H5176.13V1057.79H5178.58C5179.42 1057.79 5180.14 1057.94 5180.74 1058.25C5181.34 1058.56 5181.81 1059.01 5182.13 1059.61C5182.46 1060.2 5182.62 1060.93 5182.62 1061.81ZM5181.65 1061.85C5181.65 1061.1 5181.52 1060.5 5181.28 1060.02C5181.03 1059.54 5180.67 1059.18 5180.19 1058.94C5179.71 1058.7 5179.13 1058.58 5178.44 1058.58H5177.05V1065.21H5178.22C5179.36 1065.21 5180.22 1064.93 5180.78 1064.37C5181.36 1063.8 5181.65 1062.96 5181.65 1061.85ZM5189.01 1066H5184.45V1057.79H5189.01V1058.61H5185.37V1061.3H5188.8V1062.1H5185.37V1065.18H5189.01V1066ZM5194.31 1061.71H5197.2V1065.68C5196.76 1065.82 5196.32 1065.93 5195.86 1066C5195.42 1066.08 5194.92 1066.12 5194.36 1066.12C5193.51 1066.12 5192.79 1065.95 5192.2 1065.61C5191.61 1065.27 5191.17 1064.79 5190.86 1064.16C5190.56 1063.52 5190.4 1062.77 5190.4 1061.89C5190.4 1061.04 5190.57 1060.3 5190.91 1059.67C5191.25 1059.05 5191.73 1058.56 5192.36 1058.2C5192.99 1057.85 5193.76 1057.67 5194.65 1057.67C5195.1 1057.67 5195.53 1057.72 5195.93 1057.8C5196.35 1057.88 5196.73 1058 5197.08 1058.16L5196.73 1058.96C5196.42 1058.82 5196.08 1058.71 5195.72 1058.63C5195.35 1058.54 5194.98 1058.49 5194.6 1058.49C5193.93 1058.49 5193.35 1058.63 5192.86 1058.92C5192.38 1059.19 5192.01 1059.59 5191.75 1060.1C5191.49 1060.61 5191.37 1061.2 5191.37 1061.89C5191.37 1062.59 5191.48 1063.2 5191.7 1063.71C5191.93 1064.22 5192.28 1064.61 5192.75 1064.9C5193.22 1065.17 5193.83 1065.31 5194.57 1065.31C5194.82 1065.31 5195.04 1065.3 5195.24 1065.29C5195.44 1065.26 5195.63 1065.23 5195.8 1065.19C5195.96 1065.16 5196.12 1065.12 5196.27 1065.08V1062.54H5194.31V1061.71Z" fill="#535353" id="n417"/>
</g>
<g clip-path="url(#clip102_68_6728)" id="n418">
<path d="M5222.7 1035H5221.01V1023.8C5221.01 1023.38 5221.01 1023.02 5221.01 1022.72C5221.02 1022.43 5221.03 1022.16 5221.03 1021.91C5221.04 1021.65 5221.06 1021.38 5221.07 1021.12C5220.85 1021.34 5220.65 1021.53 5220.46 1021.69C5220.27 1021.84 5220.03 1022.03 5219.75 1022.28L5217.9 1023.74L5217 1022.57L5221.25 1019.29H5222.7V1035ZM5238.44 1035H5228.19V1033.57L5232.41 1029.24C5233.19 1028.46 5233.84 1027.76 5234.37 1027.15C5234.91 1026.53 5235.33 1025.92 5235.6 1025.32C5235.88 1024.72 5236.02 1024.05 5236.02 1023.32C5236.02 1022.42 5235.75 1021.74 5235.21 1021.27C5234.68 1020.79 5233.98 1020.55 5233.12 1020.55C5232.37 1020.55 5231.7 1020.68 5231.12 1020.94C5230.53 1021.21 5229.94 1021.57 5229.33 1022.04L5228.41 1020.88C5228.82 1020.52 5229.27 1020.22 5229.75 1019.95C5230.25 1019.67 5230.78 1019.46 5231.34 1019.31C5231.91 1019.15 5232.5 1019.07 5233.12 1019.07C5234.07 1019.07 5234.89 1019.24 5235.58 1019.58C5236.29 1019.92 5236.83 1020.4 5237.21 1021.03C5237.59 1021.65 5237.78 1022.38 5237.78 1023.23C5237.78 1023.86 5237.69 1024.45 5237.5 1025.01C5237.32 1025.55 5237.06 1026.09 5236.7 1026.62C5236.37 1027.13 5235.95 1027.66 5235.45 1028.2C5234.97 1028.73 5234.43 1029.29 5233.84 1029.87L5230.37 1033.35V1033.42H5238.44V1035ZM5249.96 1022.94C5249.96 1023.65 5249.82 1024.26 5249.54 1024.79C5249.28 1025.31 5248.9 1025.72 5248.4 1026.05C5247.91 1026.37 5247.34 1026.6 5246.68 1026.73V1026.82C5247.93 1026.96 5248.87 1027.36 5249.5 1028C5250.13 1028.65 5250.44 1029.5 5250.44 1030.56C5250.44 1031.47 5250.23 1032.27 5249.81 1032.98C5249.38 1033.68 5248.73 1034.23 5247.85 1034.63C5246.98 1035.02 5245.87 1035.22 5244.5 1035.22C5243.67 1035.22 5242.89 1035.15 5242.17 1035.02C5241.47 1034.89 5240.8 1034.67 5240.17 1034.36V1032.73C5240.82 1033.04 5241.52 1033.29 5242.28 1033.48C5243.06 1033.66 5243.81 1033.75 5244.53 1033.75C5245.96 1033.75 5247 1033.46 5247.65 1032.89C5248.3 1032.32 5248.62 1031.53 5248.62 1030.53C5248.62 1029.83 5248.44 1029.27 5248.09 1028.86C5247.74 1028.44 5247.22 1028.13 5246.55 1027.94C5245.88 1027.73 5245.07 1027.63 5244.13 1027.63H5242.57V1026.13H5244.15C5245 1026.13 5245.72 1026.01 5246.31 1025.76C5246.91 1025.51 5247.37 1025.16 5247.69 1024.7C5248.02 1024.23 5248.18 1023.68 5248.18 1023.05C5248.18 1022.25 5247.91 1021.63 5247.36 1021.21C5246.84 1020.77 5246.11 1020.55 5245.19 1020.55C5244.63 1020.55 5244.12 1020.6 5243.65 1020.72C5243.19 1020.82 5242.76 1020.98 5242.35 1021.18C5241.95 1021.37 5241.55 1021.61 5241.14 1021.89L5240.28 1020.7C5240.68 1020.41 5241.12 1020.14 5241.6 1019.89C5242.1 1019.64 5242.64 1019.44 5243.23 1019.29C5243.83 1019.15 5244.47 1019.07 5245.16 1019.07C5246.76 1019.07 5247.96 1019.43 5248.75 1020.15C5249.56 1020.87 5249.96 1021.8 5249.96 1022.94Z" fill="#535353" id="n419"/>
</g>
<g clip-path="url(#clip103_68_6728)" id="n420">
<path d="M5232.4 1041.79C5233.12 1041.79 5233.7 1041.88 5234.16 1042.05C5234.63 1042.23 5234.98 1042.5 5235.2 1042.86C5235.43 1043.21 5235.54 1043.66 5235.54 1044.19C5235.54 1044.6 5235.47 1044.94 5235.31 1045.23C5235.17 1045.51 5234.97 1045.74 5234.73 1045.93C5234.49 1046.11 5234.23 1046.26 5233.96 1046.38L5236.3 1050H5234.72L5232.74 1046.73H5231.47V1050H5230.07V1041.79H5232.4ZM5232.31 1042.96H5231.47V1045.57H5232.36C5232.77 1045.57 5233.11 1045.52 5233.36 1045.42C5233.62 1045.32 5233.81 1045.17 5233.93 1044.97C5234.06 1044.78 5234.12 1044.53 5234.12 1044.24C5234.12 1043.93 5234.05 1043.69 5233.92 1043.5C5233.79 1043.31 5233.59 1043.17 5233.32 1043.09C5233.06 1043 5232.73 1042.96 5232.31 1042.96ZM5244.76 1045.88C5244.76 1046.52 5244.68 1047.1 5244.52 1047.62C5244.37 1048.13 5244.13 1048.58 5243.81 1048.95C5243.49 1049.33 5243.09 1049.62 5242.61 1049.82C5242.13 1050.02 5241.56 1050.12 5240.92 1050.12C5240.26 1050.12 5239.69 1050.02 5239.2 1049.82C5238.71 1049.61 5238.31 1049.32 5238 1048.95C5237.69 1048.58 5237.45 1048.13 5237.29 1047.61C5237.13 1047.09 5237.06 1046.51 5237.06 1045.87C5237.06 1045.02 5237.19 1044.28 5237.47 1043.65C5237.75 1043.02 5238.18 1042.54 5238.75 1042.19C5239.32 1041.84 5240.05 1041.66 5240.93 1041.66C5241.78 1041.66 5242.49 1041.84 5243.06 1042.19C5243.63 1042.54 5244.05 1043.03 5244.34 1043.66C5244.62 1044.29 5244.76 1045.03 5244.76 1045.88ZM5238.54 1045.88C5238.54 1046.51 5238.62 1047.06 5238.79 1047.52C5238.96 1047.97 5239.22 1048.32 5239.58 1048.56C5239.93 1048.8 5240.38 1048.92 5240.92 1048.92C5241.47 1048.92 5241.92 1048.8 5242.27 1048.56C5242.62 1048.32 5242.88 1047.97 5243.04 1047.52C5243.21 1047.06 5243.29 1046.51 5243.29 1045.88C5243.29 1044.94 5243.1 1044.2 5242.73 1043.66C5242.36 1043.13 5241.76 1042.86 5240.93 1042.86C5240.38 1042.86 5239.93 1042.98 5239.58 1043.23C5239.22 1043.46 5238.96 1043.81 5238.79 1044.26C5238.62 1044.71 5238.54 1045.25 5238.54 1045.88ZM5249.07 1050H5247.67V1042.98H5245.28V1041.79H5251.45V1042.98H5249.07V1050Z" fill="#535353" id="n421"/>
</g>
<g clip-path="url(#clip104_68_6728)" id="n422">
<path d="M5224.46 1061.16C5224.1 1061.16 5223.79 1061.09 5223.52 1060.94C5223.25 1060.79 5223.04 1060.59 5222.89 1060.33C5222.73 1060.07 5222.66 1059.77 5222.66 1059.42C5222.66 1059.07 5222.73 1058.76 5222.87 1058.5C5223.03 1058.24 5223.24 1058.04 5223.51 1057.89C5223.77 1057.75 5224.09 1057.67 5224.46 1057.67C5224.81 1057.67 5225.12 1057.75 5225.39 1057.9C5225.67 1058.05 5225.88 1058.25 5226.04 1058.51C5226.19 1058.77 5226.27 1059.08 5226.27 1059.42C5226.27 1059.77 5226.19 1060.07 5226.04 1060.33C5225.88 1060.59 5225.67 1060.79 5225.39 1060.94C5225.12 1061.09 5224.81 1061.16 5224.46 1061.16ZM5224.47 1060.55C5224.84 1060.55 5225.12 1060.45 5225.3 1060.24C5225.48 1060.02 5225.58 1059.75 5225.58 1059.42C5225.58 1059.19 5225.53 1058.99 5225.45 1058.82C5225.37 1058.66 5225.24 1058.52 5225.07 1058.43C5224.91 1058.33 5224.71 1058.28 5224.47 1058.28C5224.09 1058.28 5223.81 1058.39 5223.62 1058.59C5223.44 1058.8 5223.35 1059.08 5223.35 1059.42C5223.35 1059.75 5223.44 1060.02 5223.62 1060.24C5223.81 1060.45 5224.09 1060.55 5224.47 1060.55ZM5230.99 1057.79L5227.93 1066H5227.03L5230.1 1057.79H5230.99ZM5238.74 1059.73C5239.42 1059.73 5239.92 1059.91 5240.26 1060.26C5240.61 1060.61 5240.78 1061.18 5240.78 1061.96V1066H5239.89V1062.01C5239.89 1061.5 5239.78 1061.13 5239.56 1060.88C5239.35 1060.63 5239.02 1060.5 5238.59 1060.5C5238 1060.5 5237.57 1060.68 5237.29 1061.02C5237.02 1061.36 5236.88 1061.87 5236.88 1062.55V1066H5236V1062.01C5236 1061.67 5235.95 1061.39 5235.85 1061.17C5235.75 1060.94 5235.6 1060.77 5235.41 1060.66C5235.22 1060.56 5234.98 1060.5 5234.7 1060.5C5234.29 1060.5 5233.96 1060.59 5233.71 1060.76C5233.46 1060.92 5233.28 1061.17 5233.17 1061.5C5233.05 1061.83 5232.99 1062.23 5232.99 1062.72V1066H5232.1V1059.85H5232.82L5232.96 1060.73H5233.01C5233.14 1060.52 5233.29 1060.34 5233.47 1060.19C5233.65 1060.04 5233.86 1059.92 5234.09 1059.85C5234.32 1059.77 5234.58 1059.73 5234.85 1059.73C5235.31 1059.73 5235.7 1059.82 5236.02 1060C5236.33 1060.17 5236.56 1060.44 5236.71 1060.8H5236.75C5236.95 1060.45 5237.23 1060.18 5237.58 1060.01C5237.94 1059.82 5238.32 1059.73 5238.74 1059.73ZM5243.61 1059.85V1066H5242.71V1059.85H5243.61ZM5243.17 1057.55C5243.32 1057.55 5243.45 1057.6 5243.55 1057.7C5243.66 1057.8 5243.71 1057.95 5243.71 1058.16C5243.71 1058.35 5243.66 1058.5 5243.55 1058.61C5243.45 1058.71 5243.32 1058.75 5243.17 1058.75C5243.01 1058.75 5242.87 1058.71 5242.77 1058.61C5242.67 1058.5 5242.62 1058.35 5242.62 1058.16C5242.62 1057.95 5242.67 1057.8 5242.77 1057.7C5242.87 1057.6 5243.01 1057.55 5243.17 1057.55ZM5248.48 1059.73C5249.2 1059.73 5249.75 1059.91 5250.13 1060.27C5250.5 1060.63 5250.69 1061.2 5250.69 1061.99V1066H5249.79V1062.06C5249.79 1061.53 5249.67 1061.14 5249.44 1060.88C5249.2 1060.63 5248.84 1060.5 5248.36 1060.5C5247.67 1060.5 5247.19 1060.69 5246.91 1061.08C5246.62 1061.46 5246.48 1062.02 5246.48 1062.76V1066H5245.58V1059.85H5246.31L5246.45 1060.76H5246.49C5246.63 1060.53 5246.8 1060.35 5247 1060.2C5247.2 1060.05 5247.42 1059.94 5247.68 1059.86C5247.93 1059.77 5248.2 1059.73 5248.48 1059.73Z" fill="#535353" id="n423"/>
</g>
</g>
</svg>
