<?xml version='1.0' encoding='utf-8'?>
<svg xmlns="http://www.w3.org/2000/svg" xmlns:xlink="http://www.w3.org/1999/xlink" width="384.0" height="120.0" viewBox="0 0 384.0 120.0" fill="none">
  <defs><clipPath id="clip__asset"><rect x="0" y="0" width="384.0" height="120.0"/></clipPath><mask id="mask44_68_6728" style="mask-type:luminance" maskUnits="userSpaceOnUse" x="1406" y="396" width="512" height="512">
<path d="M1494 628.8C1494 624.32 1494 622.079 1494.87 620.368C1495.64 618.863 1496.86 617.639 1498.37 616.872C1500.08 616 1502.32 616 1506.8 616H1817.2C1821.68 616 1823.92 616 1825.63 616.872C1827.14 617.639 1828.36 618.863 1829.13 620.368C1830 622.079 1830 624.32 1830 628.8V640H1494V628.8Z" fill="white" stroke="black" id="n330"/>
<rect x="1658" y="688" width="72" height="8" transform="rotate(-90 1658 688)" fill="black" stroke="black" id="n331"/>
</mask>
<mask id="mask45_68_6728" style="mask-type:alpha" maskUnits="userSpaceOnUse" x="1406" y="396" width="512" height="512">
<path d="M1494 640H1830V675.2C1830 679.68 1830 681.921 1829.13 683.632C1828.36 685.137 1827.14 686.361 1825.63 687.128C1823.92 688 1821.68 688 1817.2 688H1506.8C1502.32 688 1500.08 688 1498.37 687.128C1496.86 686.361 1495.64 685.137 1494.87 683.632C1494 681.921 1494 679.68 1494 675.2V640Z" fill="white" stroke="black" id="n337"/>
<rect x="1666" y="616" width="72" height="8" transform="rotate(90 1666 616)" fill="black" stroke="black" id="n338"/>
</mask>
</defs>
  <g clip-path="url(#clip__asset)" transform="translate(-1470.0 -592.0)"><path d="M1494 628.8C1494 624.32 1494 622.079 1494.87 620.368C1495.64 618.863 1496.86 617.639 1498.37 616.872C1500.08 616 1502.32 616 1506.8 616H1817.2C1821.68 616 1823.92 616 1825.63 616.872C1827.14 617.639 1828.36 618.863 1829.13 620.368C1830 622.079 1830 624.32 1830 628.8V675.2C1830 679.68 1830 681.921 1829.13 683.632C1828.36 685.137 1827.14 686.361 1825.63 687.128C1823.92 688 1821.68 688 1817.2 688H1506.8C1502.32 688 1500.08 688 1498.37 687.128C1496.86 686.361 1495.64 685.137 1494.87 683.632C1494 681.921 1494 679.68 1494 675.2V628.8Z" fill="white" stroke="white" id="n326"/>
<path d="M1494 640H1830V675.2C1830 679.68 1830 681.921 1829.13 683.632C1828.36 685.137 1827.14 686.361 1825.63 687.128C1823.92 688 1821.68 688 1817.2 688H1506.8C1502.32 688 1500.08 688 1498.37 687.128C1496.86 686.361 1495.64 685.137 1494.87 683.632C1494 681.921 1494 679.68 1494 675.2V640Z" fill="#F0F0F0" stroke="#F0F0F0" id="n327"/>
<path d="M1494 628.8C1494 624.32 1494 622.079 1494.87 620.368C1495.64 618.863 1496.86 617.639 1498.37 616.872C1500.08 616 1502.32 616 1506.8 616H1817.2C1821.68 616 1823.92 616 1825.63 616.872C1827.14 617.639 1828.36 618.863 1829.13 620.368C1830 622.079 1830 624.32 1830 628.8V675.2C1830 679.68 1830 681.921 1829.13 683.632C1828.36 685.137 1827.14 686.361 1825.63 687.128C1823.92 688 1821.68 688 1817.2 688H1506.8C1502.32 688 1500.08 688 1498.37 687.128C1496.86 686.361 1495.64 685.137 1494.87 683.632C1494 681.921 1494 679.68 1494 675.2V628.8Z" stroke="#BEBEBE" id="n328"/>
<path d="M1658 616H1666V688H1658V616Z" fill="#BEBEBE" stroke="#BEBEBE" id="n329"/>
<g mask="url(#mask44_68_6728)" id="n332">
<path d="M1748 612V636M1830 612V636M1666 612V636" stroke="#BEBEBE" id="n333"/>
<path d="M1830 612V640M1666 612V640" stroke="#BEBEBE" id="n334"/>
<path d="M1576 612V636M1658 612V636M1494 612V636" stroke="#BEBEBE" id="n335"/>
<path d="M1658 612V640M1494 612V640" stroke="#BEBEBE" id="n336"/>
</g>
<g mask="url(#mask45_68_6728)" id="n339">
<rect x="1748" y="640" width="48" height="82" transform="rotate(90 1748 640)" fill="#535353" stroke="#535353" id="n340"/>
</g>
<rect x="1666" y="616" width="72" height="8" transform="rotate(90 1666 616)" fill="#535353" stroke="#535353" id="n341"/>
<path d="M1757.26 620.9C1757.61 621.677 1757.6 622.663 1757.05 623.479L1749.24 635.051C1748.64 635.932 1747.35 635.932 1746.75 635.051L1738.94 623.479C1738.39 622.663 1738.38 621.677 1738.73 620.9C1739.08 620.123 1739.82 619.5 1740.8 619.5L1755.19 619.5C1756.17 619.5 1756.91 620.123 1757.26 620.9Z" fill="#535353" stroke="white" stroke-linejoin="round" id="n342"/>
</g>
</svg>
