<?xml version='1.0' encoding='utf-8'?>
<svg xmlns="http://www.w3.org/2000/svg" xmlns:xlink="http://www.w3.org/1999/xlink" width="384.0" height="120.0" viewBox="0 0 384.0 120.0" fill="none">
  <defs><clipPath id="clip__asset"><rect x="0" y="0" width="384.0" height="120.0"/></clipPath><mask id="mask51_68_6728" style="mask-type:luminance" maskUnits="userSpaceOnUse" x="1886" y="396" width="512" height="512">
<path d="M1974 628.8C1974 624.32 1974 622.079 1974.87 620.368C1975.64 618.863 1976.86 617.639 1978.37 616.872C1980.08 616 1982.32 616 1986.8 616H2297.2C2301.68 616 2303.92 616 2305.63 616.872C2307.14 617.639 2308.36 618.863 2309.13 620.368C2310 622.079 2310 624.32 2310 628.8V640H1974V628.8Z" fill="white" stroke="black" id="n400"/>
<rect x="2138" y="688" width="72" height="8" transform="rotate(-90 2138 688)" fill="black" stroke="black" id="n401"/>
</mask>
<mask id="mask52_68_6728" style="mask-type:alpha" maskUnits="userSpaceOnUse" x="1886" y="396" width="512" height="512">
<path d="M1974 640H2310V675.2C2310 679.68 2310 681.921 2309.13 683.632C2308.36 685.137 2307.14 686.361 2305.63 687.128C2303.92 688 2301.68 688 2297.2 688H1986.8C1982.32 688 1980.08 688 1978.37 687.128C1976.86 686.361 1975.64 685.137 1974.87 683.632C1974 681.921 1974 679.68 1974 675.2V640Z" fill="white" stroke="black" id="n407"/>
<rect x="2146" y="616" width="72" height="8" transform="rotate(90 2146 616)" fill="black" stroke="black" id="n408"/>
</mask>
</defs>
  <g clip-path="url(#clip__asset)" transform="translate(-1950.0 -592.0)"><path d="M1974 628.8C1974 624.32 1974 622.079 1974.87 620.368C1975.64 618.863 1976.86 617.639 1978.37 616.872C1980.08 616 1982.32 616 1986.8 616H2297.2C2301.68 616 2303.92 616 2305.63 616.872C2307.14 617.639 2308.36 618.863 2309.13 620.368C2310 622.079 2310 624.32 2310 628.8V675.2C2310 679.68 2310 681.921 2309.13 683.632C2308.36 685.137 2307.14 686.361 2305.63 687.128C2303.92 688 2301.68 688 2297.2 688H1986.8C1982.32 688 1980.08 688 1978.37 687.128C1976.86 686.361 1975.64 685.137 1974.87 683.632C1974 681.921 1974 679.68 1974 675.2V628.8Z" fill="white" stroke="white" id="n396"/>
<path d="M1974 640H2310V675.2C2310 679.68 2310 681.921 2309.13 683.632C2308.36 685.137 2307.14 686.361 2305.63 687.128C2303.92 688 2301.68 688 2297.2 688H1986.8C1982.32 688 1980.08 688 1978.37 687.128C1976.86 686.361 1975.64 685.137 1974.87 683.632C1974 681.921 1974 679.68 1974 675.2V640Z" fill="#F0F0F0" stroke="#F0F0F0" id="n397"/>
<path d="M1974 628.8C1974 624.32 1974 622.079 1974.87 620.368C1975.64 618.863 1976.86 617.639 1978.37 616.872C1980.08 616 1982.32 616 1986.8 616H2297.2C2301.68 616 2303.92 616 2305.63 616.872C2307.14 617.639 2308.36 618.863 2309.13 620.368C2310 622.079 2310 624.32 2310 628.8V675.2C2310 679.68 2310 681.921 2309.13 683.632C2308.36 685.137 2307.14 686.361 2305.63 687.128C2303.92 688 2301.68 688 2297.2 688H1986.8C1982.32 688 1980.08 688 1978.37 687.128C1976.86 686.361 1975.64 685.137 1974.87 683.632C1974 681.921 1974 679.68 1974 675.2V628.8Z" stroke="#BEBEBE" id="n398"/>
<path d="M2138 616H2146V688H2138V616Z" fill="#BEBEBE" stroke="#BEBEBE" id="n399"/>
<g mask="url(#mask51_68_6728)" id="n402">
<path d="M2228 612V636M2310 612V636M2146 612V636" stroke="#BEBEBE" id="n403"/>
<path d="M2310 612V640M2146 612V640" stroke="#BEBEBE" id="n404"/>
<path d="M2056 612V636M2138 612V636M1974 612V636" stroke="#BEBEBE" id="n405"/>
<path d="M2138 612V640M1974 612V640" stroke="#BEBEBE" id="n406"/>
</g>
<g mask="url(#mask52_68_6728)" id="n409">
<rect x="2228" y="640" width="48" height="82" transform="rotate(90 2228 640)" fill="#2D548B" stroke="#2D548B" id="n410"/>
</g>
<rect x="2146" y="616" width="72" height="8" transform="rotate(90 2146 616)" fill="#2D548B" stroke="#2D548B" id="n411"/>
<path d="M2237.26 620.9C2237.61 621.677 2237.6 622.663 2237.05 623.479L2229.24 635.051C2228.64 635.932 2227.35 635.932 2226.75 635.051L2218.94 623.479C2218.39 622.663 2218.38 621.677 2218.73 620.9C2219.08 620.123 2219.82 619.5 2220.8 619.5L2235.19 619.5C2236.17 619.5 2236.91 620.123 2237.26 620.9Z" fill="#2D548B" stroke="white" stroke-linejoin="round" id="n412"/>
</g>
</svg>
