<?xml version='1.0' encoding='utf-8'?>
<svg xmlns="http://www.w3.org/2000/svg" xmlns:xlink="http://www.w3.org/1999/xlink" width="384.0" height="168.0" viewBox="0 0 384.0 168.0" fill="none">
  <defs><clipPath id="clip__asset"><rect x="0" y="0" width="384.0" height="168.0"/></clipPath><mask id="mask71_68_6728" style="mask-type:luminance" maskUnits="userSpaceOnUse" x="2846" y="1452" width="512" height="512">
<path d="M2934 1684.8C2934 1680.32 2934 1678.08 2934.87 1676.37C2935.64 1674.86 2936.86 1673.64 2938.37 1672.87C2940.08 1672 2942.32 1672 2946.8 1672H3257.2C3261.68 1672 3263.92 1672 3265.63 1672.87C3267.14 1673.64 3268.36 1674.86 3269.13 1676.37C3270 1678.08 3270 1680.32 3270 1684.8V1696H2934V1684.8Z" fill="white" stroke="black" id="n688"/>
<rect x="3078" y="1744" width="72" height="48" transform="rotate(-90 3078 1744)" fill="black" stroke="black" id="n689"/>
</mask>
</defs>
  <g clip-path="url(#clip__asset)" transform="translate(-2910.0 -1624.0)"><path d="M2934 1684.8C2934 1680.32 2934 1678.08 2934.87 1676.37C2935.64 1674.86 2936.86 1673.64 2938.37 1672.87C2940.08 1672 2942.32 1672 2946.8 1672H3257.2C3261.68 1672 3263.92 1672 3265.63 1672.87C3267.14 1673.64 3268.36 1674.86 3269.13 1676.37C3270 1678.08 3270 1680.32 3270 1684.8V1731.2C3270 1735.68 3270 1737.92 3269.13 1739.63C3268.36 1741.14 3267.14 1742.36 3265.63 1743.13C3263.92 1744 3261.68 1744 3257.2 1744H2946.8C2942.32 1744 2940.08 1744 2938.37 1743.13C2936.86 1742.36 2935.64 1741.14 2934.87 1739.63C2934 1737.92 2934 1735.68 2934 1731.2V1684.8Z" stroke="#BEBEBE" id="n677"/>
<path d="M3126 1744L3087 1744L3078 1744L3078 1672L3087 1672L3126 1672L3126 1744Z" fill="#F7F7F7" stroke="#8E8E8E" id="n678"/>
<path d="M3078 1744L3078 1672L3082 1672L3082 1744L3078 1744Z" fill="#BEBEBE" id="n679"/>
<path d="M3122 1744L3122 1672L3126 1672L3126 1744L3122 1744Z" fill="#BEBEBE" id="n680"/>
<path d="M3078 1744L3078 1672L3082 1672L3082 1744L3078 1744Z" stroke="#BEBEBE" id="n681"/>
<path d="M3122 1744L3122 1672L3126 1672L3126 1744L3122 1744Z" stroke="#BEBEBE" id="n682"/>
<path d="M3078 1744L3126 1744M3078 1672L3126 1672" stroke="#BEBEBE" stroke-linecap="square" id="n683"/>
<path d="M3101.74 1633C3092.96 1633 3090 1672 3090 1672C3097.71 1672 3105.13 1674.83 3110.75 1679.44L3114 1682.1C3114 1668.83 3110.51 1633 3101.74 1633Z" fill="#F7F7F7" id="n684"/>
<path d="M3102.26 1783C3111.04 1783 3114 1744 3114 1744C3106.29 1744 3098.87 1741.17 3093.25 1736.56L3090 1733.9C3090 1747.17 3093.49 1783 3102.26 1783Z" fill="#F7F7F7" id="n685"/>
<path d="M3101.74 1633C3092.96 1633 3090 1672 3090 1672C3097.71 1672 3105.13 1674.83 3110.75 1679.44L3114 1682.1C3114 1668.83 3110.51 1633 3101.74 1633Z" stroke="#8E8E8E" id="n686"/>
<path d="M3102.26 1783C3111.04 1783 3114 1744 3114 1744C3106.29 1744 3098.87 1741.17 3093.25 1736.56L3090 1733.9C3090 1747.17 3093.49 1783 3102.26 1783Z" stroke="#8E8E8E" id="n687"/>
<g mask="url(#mask71_68_6728)" id="n690">
<path d="M3198 1668V1692M3270 1668V1692M3126 1668V1692" stroke="#BEBEBE" id="n691"/>
<path d="M3270 1668V1696M3126 1668V1696" stroke="#BEBEBE" id="n692"/>
<path d="M3006 1668V1692M3078 1668V1692M2934 1668V1692" stroke="#BEBEBE" id="n693"/>
<path d="M3078 1668V1696M2934 1668V1696" stroke="#BEBEBE" id="n694"/>
</g>
<path d="M3111.26 1668.9C3111.61 1669.68 3111.6 1670.66 3111.05 1671.48L3103.24 1683.05C3102.64 1683.93 3101.35 1683.93 3100.75 1683.05L3092.94 1671.48C3092.39 1670.66 3092.38 1669.68 3092.73 1668.9C3093.08 1668.12 3093.82 1667.5 3094.8 1667.5L3109.19 1667.5C3110.17 1667.5 3110.91 1668.12 3111.26 1668.9Z" fill="#BEBEBE" stroke="white" stroke-linejoin="round" id="n695"/>
</g>
</svg>
