<?xml version='1.0' encoding='utf-8'?>
<svg xmlns="http://www.w3.org/2000/svg" xmlns:xlink="http://www.w3.org/1999/xlink" width="384.0" height="384.0" viewBox="0 0 384.0 384.0" fill="none">
  <defs><clipPath id="clip__asset"><rect x="0" y="0" width="384.0" height="384.0"/></clipPath><mask id="mask24_68_6728" style="mask-type:luminance" maskUnits="userSpaceOnUse" x="324" y="1129" width="232" height="232">
<circle cx="440" cy="1245" r="115" fill="white" stroke="black" stroke-width="2" id="n137"/>
</mask>
<mask id="mask25_68_6728" style="mask-type:alpha" maskUnits="userSpaceOnUse" x="328" y="1133" width="224" height="224">
<rect width="224" height="224" transform="translate(328 1133)" fill="url(#pattern2_68_6728)" id="n139"/>
</mask>
<mask id="mask26_68_6728" style="mask-type:alpha" maskUnits="userSpaceOnUse" x="184" y="989" width="512" height="512">
<path fill-rule="evenodd" clip-rule="evenodd" d="M440 1057C543.83 1057 628 1141.17 628 1245C628 1348.83 543.83 1433 440 1433C336.17 1433 252 1348.83 252 1245C252 1141.17 336.17 1057 440 1057ZM440 1129C375.935 1129 324 1180.93 324 1245C324 1309.07 375.935 1361 440 1361C504.065 1361 556 1309.07 556 1245C556 1180.93 504.065 1129 440 1129Z" fill="white" stroke="black" id="n145"/>
</mask>
<mask id="mask27_68_6728" style="mask-type:luminance" maskUnits="userSpaceOnUse" x="184" y="989" width="512" height="512">
<circle cx="440" cy="1245" r="102" fill="white" stroke="black" stroke-width="20" id="n149"/>
</mask>
<mask id="mask28_68_6728" style="mask-type:luminance" maskUnits="userSpaceOnUse" x="184" y="989" width="512" height="512">
<path fill-rule="evenodd" clip-rule="evenodd" d="M440 1057C543.83 1057 628 1141.17 628 1245C628 1348.83 543.83 1433 440 1433C336.17 1433 252 1348.83 252 1245C252 1141.17 336.17 1057 440 1057ZM440 1081C349.425 1081 276 1154.43 276 1245C276 1335.57 349.425 1409 440 1409C530.575 1409 604 1335.57 604 1245C604 1154.43 530.575 1081 440 1081Z" fill="white" stroke="black" id="n153"/>
</mask>
<mask id="mask29_68_6728" style="mask-type:alpha" maskUnits="userSpaceOnUse" x="184" y="989" width="512" height="512">
<path d="M440 1061C541.62 1061 624 1143.38 624 1245C624 1346.62 541.62 1429 440 1429C338.38 1429 256 1346.62 256 1245C256 1143.38 338.38 1061 440 1061ZM440 1085C351.634 1085 280 1156.63 280 1245C280 1333.37 351.634 1405 440 1405C528.366 1405 600 1333.37 600 1245C600 1156.63 528.366 1085 440 1085Z" fill="black" id="n155"/>
</mask>
<mask id="mask30_68_6728" style="mask-type:alpha" maskUnits="userSpaceOnUse" x="184" y="989" width="512" height="512">
<path d="M440 1053C546.039 1053 632 1138.96 632 1245C632 1351.04 546.039 1437 440 1437C333.961 1437 248 1351.04 248 1245C248 1138.96 333.961 1053 440 1053ZM440 1081C349.425 1081 276 1154.43 276 1245C276 1335.57 349.425 1409 440 1409C530.575 1409 604 1335.57 604 1245C604 1154.43 530.575 1081 440 1081Z" fill="black" id="n158"/>
</mask>
<mask id="path-124-outside-5_68_6728" maskUnits="userSpaceOnUse" x="321.206" y="1121.96" width="45.2548" height="45.2548" fill="black">
<rect fill="white" x="321.206" y="1121.96" width="45.2548" height="45.2548" id="n166"/>
<path d="M337.469 1125.97L330.398 1133.04L331.577 1134.22L338.648 1127.15L341.005 1129.51L333.934 1136.58L335.112 1137.76L338.648 1134.22L341.005 1136.58L337.469 1140.11L348.076 1150.72L350.433 1148.36L355.147 1160.15L343.362 1155.43L345.718 1153.08L325.684 1133.04L335.112 1123.61L337.469 1125.97Z" id="n167"/>
</mask>
<pattern id="pattern2_68_6728" patternUnits="userSpaceOnUse" patternTransform="matrix(24 0 0 24 0 0)" preserveAspectRatio="none" viewBox="0 0 24 24" width="1" height="1">
<g id="pattern2_68_6728_inner">
<rect x="2.09961" y="4.92896" width="4" height="24" transform="rotate(-45 2.09961 4.92896)" fill="url(#paint2_linear_68_6728)" id="n366"/>
</g>
</pattern><linearGradient id="paint2_linear_68_6728" x1="4.09961" y1="4.92896" x2="4.09961" y2="28.929" gradientUnits="userSpaceOnUse">
<stop stop-opacity="0" id="n376"/>
<stop offset="1" id="n377"/>
</linearGradient>
</defs>
  <g clip-path="url(#clip__asset)" transform="translate(-248.0 -1053.0)"><g mask="url(#mask24_68_6728)" id="n138">
<mask id="mask25_68_6728" style="mask-type:alpha" maskUnits="userSpaceOnUse" x="328" y="1133" width="224" height="224">
<rect width="224" height="224" transform="translate(328 1133)" fill="url(#pattern2_68_6728)" id="n139"/>
</mask>
<g mask="url(#mask25_68_6728)" id="n140">
<rect width="224" height="224" transform="translate(328 1133)" fill="#BEBEBE" id="n141"/>
</g>
</g>
<path fill-rule="evenodd" clip-rule="evenodd" d="M440 1057C543.83 1057 628 1141.17 628 1245C628 1348.83 543.83 1433 440 1433C336.17 1433 252 1348.83 252 1245C252 1141.17 336.17 1057 440 1057ZM440 1081C349.425 1081 276 1154.43 276 1245C276 1335.57 349.425 1409 440 1409C530.575 1409 604 1335.57 604 1245C604 1154.43 530.575 1081 440 1081Z" fill="white" stroke="white" id="n142"/>
<path fill-rule="evenodd" clip-rule="evenodd" d="M440 1081C530.575 1081 604 1154.43 604 1245C604 1335.57 530.575 1409 440 1409C349.425 1409 276 1335.57 276 1245C276 1154.43 349.425 1081 440 1081ZM440 1129C375.935 1129 324 1180.93 324 1245C324 1309.07 375.935 1361 440 1361C504.065 1361 556 1309.07 556 1245C556 1180.93 504.065 1129 440 1129Z" fill="#F0F0F0" stroke="#F0F0F0" id="n143"/>
<path fill-rule="evenodd" clip-rule="evenodd" d="M440 1057C543.83 1057 628 1141.17 628 1245C628 1348.83 543.83 1433 440 1433C336.17 1433 252 1348.83 252 1245C252 1141.17 336.17 1057 440 1057ZM440 1129C375.935 1129 324 1180.93 324 1245C324 1309.07 375.935 1361 440 1361C504.065 1361 556 1309.07 556 1245C556 1180.93 504.065 1129 440 1129Z" stroke="#BEBEBE" id="n144"/>
<g mask="url(#mask26_68_6728)" id="n146">
<path d="M184 1245H696" stroke="#BEBEBE" stroke-linecap="square" id="n147"/>
<path d="M440 989L440 1501" stroke="#BEBEBE" stroke-linecap="square" id="n148"/>
</g>
<g mask="url(#mask27_68_6728)" id="n150">
<path d="M276 1245H604" stroke="#BEBEBE" stroke-linecap="square" id="n151"/>
<path d="M440 1081L440 1409" stroke="#BEBEBE" stroke-linecap="square" id="n152"/>
</g>
<g mask="url(#mask28_68_6728)" id="n154">
<mask id="mask29_68_6728" style="mask-type:alpha" maskUnits="userSpaceOnUse" x="184" y="989" width="512" height="512">
<path d="M440 1061C541.62 1061 624 1143.38 624 1245C624 1346.62 541.62 1429 440 1429C338.38 1429 256 1346.62 256 1245C256 1143.38 338.38 1061 440 1061ZM440 1085C351.634 1085 280 1156.63 280 1245C280 1333.37 351.634 1405 440 1405C528.366 1405 600 1333.37 600 1245C600 1156.63 528.366 1085 440 1085Z" fill="black" id="n155"/>
</mask>
<g mask="url(#mask29_68_6728)" id="n156">
<path d="M440 1045V1245M440 1245H240M440 1245V1445M440 1245H640" stroke="#BEBEBE" id="n157"/>
</g>
<mask id="mask30_68_6728" style="mask-type:alpha" maskUnits="userSpaceOnUse" x="184" y="989" width="512" height="512">
<path d="M440 1053C546.039 1053 632 1138.96 632 1245C632 1351.04 546.039 1437 440 1437C333.961 1437 248 1351.04 248 1245C248 1138.96 333.961 1053 440 1053ZM440 1081C349.425 1081 276 1154.43 276 1245C276 1335.57 349.425 1409 440 1409C530.575 1409 604 1335.57 604 1245C604 1154.43 530.575 1081 440 1081Z" fill="black" id="n158"/>
</mask>
<g mask="url(#mask30_68_6728)" id="n159">
<path d="M440 1045V1245M440 1245H240M440 1245V1445M440 1245H640" stroke="#BEBEBE" id="n160"/>
</g>
</g>
<path d="M443.33 1148H442.226L437.522 1140.78H437.474C437.482 1140.92 437.49 1141.08 437.498 1141.26C437.514 1141.42 437.526 1141.61 437.534 1141.81C437.542 1142 437.546 1142.2 437.546 1142.41C437.554 1142.62 437.558 1142.82 437.558 1143.03V1148H436.67V1139.43H437.762L442.454 1146.63H442.49C442.49 1146.53 442.486 1146.39 442.478 1146.22C442.47 1146.06 442.462 1145.87 442.454 1145.67C442.446 1145.46 442.438 1145.26 442.43 1145.05C442.422 1144.83 442.418 1144.63 442.418 1144.45V1139.43H443.33V1148Z" fill="#707070" id="n161"/>
<path d="M442.713 1349.73C442.713 1350.24 442.589 1350.68 442.341 1351.03C442.093 1351.38 441.737 1351.65 441.273 1351.84C440.817 1352.03 440.285 1352.12 439.677 1352.12C439.357 1352.12 439.049 1352.1 438.753 1352.07C438.465 1352.04 438.201 1352 437.961 1351.94C437.729 1351.88 437.521 1351.8 437.337 1351.72V1350.79C437.625 1350.92 437.981 1351.03 438.405 1351.14C438.829 1351.23 439.269 1351.28 439.725 1351.28C440.157 1351.28 440.521 1351.22 440.817 1351.11C441.121 1350.99 441.353 1350.82 441.513 1350.61C441.673 1350.38 441.753 1350.12 441.753 1349.8C441.753 1349.51 441.685 1349.26 441.549 1349.06C441.421 1348.86 441.205 1348.68 440.901 1348.52C440.597 1348.35 440.189 1348.18 439.677 1348C439.309 1347.87 438.985 1347.72 438.705 1347.57C438.433 1347.42 438.201 1347.25 438.009 1347.06C437.825 1346.86 437.685 1346.64 437.589 1346.38C437.493 1346.13 437.445 1345.83 437.445 1345.5C437.445 1345.03 437.561 1344.64 437.793 1344.32C438.025 1343.99 438.345 1343.74 438.753 1343.58C439.169 1343.4 439.641 1343.31 440.169 1343.31C440.633 1343.31 441.057 1343.36 441.441 1343.44C441.825 1343.52 442.181 1343.64 442.509 1343.79L442.197 1344.61C441.893 1344.48 441.565 1344.38 441.213 1344.3C440.869 1344.21 440.513 1344.16 440.145 1344.16C439.777 1344.16 439.465 1344.22 439.209 1344.33C438.953 1344.44 438.757 1344.59 438.621 1344.79C438.485 1344.99 438.417 1345.22 438.417 1345.5C438.417 1345.81 438.481 1346.06 438.609 1346.26C438.745 1346.46 438.953 1346.64 439.233 1346.79C439.521 1346.94 439.889 1347.1 440.337 1347.27C440.849 1347.46 441.281 1347.65 441.633 1347.86C441.985 1348.07 442.253 1348.32 442.437 1348.62C442.621 1348.9 442.713 1349.28 442.713 1349.73Z" fill="#707070" id="n162"/>
<path d="M547.112 1250H542.348V1241.43H547.112V1242.28H543.308V1245.09H546.884V1245.93H543.308V1249.15H547.112V1250Z" fill="#707070" id="n163"/>
<path d="M343.335 1241.43L341.043 1250H340.071L338.367 1244.18C338.319 1244.02 338.271 1243.86 338.223 1243.7C338.183 1243.53 338.143 1243.38 338.103 1243.23C338.071 1243.08 338.039 1242.95 338.007 1242.84C337.983 1242.72 337.963 1242.64 337.947 1242.57C337.939 1242.64 337.923 1242.72 337.899 1242.84C337.883 1242.94 337.855 1243.07 337.815 1243.22C337.783 1243.36 337.747 1243.52 337.707 1243.68C337.667 1243.84 337.623 1244 337.575 1244.17L335.907 1250H334.935L332.655 1241.43H333.663L335.067 1246.86C335.107 1247.03 335.147 1247.21 335.187 1247.38C335.227 1247.55 335.263 1247.72 335.295 1247.89C335.335 1248.05 335.367 1248.2 335.391 1248.36C335.415 1248.51 335.439 1248.66 335.463 1248.8C335.487 1248.65 335.511 1248.5 335.535 1248.34C335.567 1248.18 335.603 1248.02 335.643 1247.85C335.683 1247.68 335.723 1247.5 335.763 1247.32C335.811 1247.15 335.859 1246.98 335.907 1246.81L337.467 1241.43H338.463L340.071 1246.84C340.127 1247.02 340.175 1247.2 340.215 1247.38C340.263 1247.56 340.307 1247.73 340.347 1247.9C340.387 1248.06 340.419 1248.22 340.443 1248.38C340.475 1248.53 340.503 1248.68 340.527 1248.81C340.551 1248.62 340.579 1248.42 340.611 1248.21C340.651 1248 340.699 1247.79 340.755 1247.56C340.811 1247.33 340.871 1247.1 340.935 1246.86L342.327 1241.43H343.335Z" fill="#707070" id="n164"/>
<path d="M438.369 1060.28C439.167 1059.16 440.826 1059.16 441.624 1060.28L457.05 1081.88C451.445 1081.3 445.757 1081 440 1081C434.24 1081 428.549 1081.3 422.941 1081.88L438.369 1060.28Z" fill="#BEBEBE" id="n165"/>
<path d="M337.469 1125.97L330.398 1133.04L331.577 1134.22L338.648 1127.15L341.005 1129.51L333.934 1136.58L335.112 1137.76L338.648 1134.22L341.005 1136.58L337.469 1140.11L348.076 1150.72L350.433 1148.36L355.147 1160.15L343.362 1155.43L345.718 1153.08L325.684 1133.04L335.112 1123.61L337.469 1125.97Z" fill="#535353" id="n168"/>
<path d="M337.469 1125.97L338.176 1126.68L338.883 1125.97L338.176 1125.26L337.469 1125.97ZM330.398 1133.04L329.691 1132.33L328.984 1133.04L329.691 1133.75L330.398 1133.04ZM331.577 1134.22L330.87 1134.93L331.577 1135.63L332.284 1134.93L331.577 1134.22ZM338.648 1127.15L339.355 1126.44L338.648 1125.73L337.941 1126.44L338.648 1127.15ZM341.005 1129.51L341.712 1130.21L342.419 1129.51L341.712 1128.8L341.005 1129.51ZM333.934 1136.58L333.227 1135.87L332.52 1136.58L333.227 1137.28L333.934 1136.58ZM335.112 1137.76L334.405 1138.46L335.112 1139.17L335.82 1138.46L335.112 1137.76ZM338.648 1134.22L339.355 1133.51L338.648 1132.81L337.941 1133.51L338.648 1134.22ZM341.005 1136.58L341.712 1137.28L342.419 1136.58L341.712 1135.87L341.005 1136.58ZM337.469 1140.11L336.762 1139.4L336.055 1140.11L336.762 1140.82L337.469 1140.11ZM348.076 1150.72L347.369 1151.43L348.076 1152.13L348.783 1151.43L348.076 1150.72ZM350.433 1148.36L351.361 1147.99L350.798 1146.58L349.726 1147.65L350.433 1148.36ZM355.147 1160.15L354.776 1161.08L356.942 1161.94L356.075 1159.78L355.147 1160.15ZM343.362 1155.43L342.655 1154.73L341.582 1155.8L342.99 1156.36L343.362 1155.43ZM345.718 1153.08L346.426 1153.78L347.133 1153.08L346.426 1152.37L345.718 1153.08ZM325.684 1133.04L324.977 1132.33L324.27 1133.04L324.977 1133.75L325.684 1133.04ZM335.112 1123.61L335.82 1122.91L335.112 1122.2L334.405 1122.91L335.112 1123.61ZM337.469 1125.97L336.762 1125.26L329.691 1132.33L330.398 1133.04L331.105 1133.75L338.176 1126.68L337.469 1125.97ZM330.398 1133.04L329.691 1133.75L330.87 1134.93L331.577 1134.22L332.284 1133.51L331.105 1132.33L330.398 1133.04ZM331.577 1134.22L332.284 1134.93L339.355 1127.86L338.648 1127.15L337.941 1126.44L330.87 1133.51L331.577 1134.22ZM338.648 1127.15L337.941 1127.86L340.298 1130.21L341.005 1129.51L341.712 1128.8L339.355 1126.44L338.648 1127.15ZM341.005 1129.51L340.298 1128.8L333.227 1135.87L333.934 1136.58L334.641 1137.28L341.712 1130.21L341.005 1129.51ZM333.934 1136.58L333.227 1137.28L334.405 1138.46L335.112 1137.76L335.82 1137.05L334.641 1135.87L333.934 1136.58ZM335.112 1137.76L335.82 1138.46L339.355 1134.93L338.648 1134.22L337.941 1133.51L334.405 1137.05L335.112 1137.76ZM338.648 1134.22L337.941 1134.93L340.298 1137.28L341.005 1136.58L341.712 1135.87L339.355 1133.51L338.648 1134.22ZM341.005 1136.58L340.298 1135.87L336.762 1139.4L337.469 1140.11L338.176 1140.82L341.712 1137.28L341.005 1136.58ZM337.469 1140.11L336.762 1140.82L347.369 1151.43L348.076 1150.72L348.783 1150.01L338.176 1139.4L337.469 1140.11ZM348.076 1150.72L348.783 1151.43L351.14 1149.07L350.433 1148.36L349.726 1147.65L347.369 1150.01L348.076 1150.72ZM350.433 1148.36L349.504 1148.73L354.218 1160.52L355.147 1160.15L356.075 1159.78L351.361 1147.99L350.433 1148.36ZM355.147 1160.15L355.518 1159.22L343.733 1154.5L343.362 1155.43L342.99 1156.36L354.776 1161.08L355.147 1160.15ZM343.362 1155.43L344.069 1156.14L346.426 1153.78L345.718 1153.08L345.011 1152.37L342.655 1154.73L343.362 1155.43ZM345.718 1153.08L346.426 1152.37L326.391 1132.33L325.684 1133.04L324.977 1133.75L345.011 1153.78L345.718 1153.08ZM325.684 1133.04L326.391 1133.75L335.82 1124.32L335.112 1123.61L334.405 1122.91L324.977 1132.33L325.684 1133.04ZM335.112 1123.61L334.405 1124.32L336.762 1126.68L337.469 1125.97L338.176 1125.26L335.82 1122.91L335.112 1123.61Z" fill="#F7F7F7" mask="url(#path-124-outside-5_68_6728)" id="n169"/>
<path d="M409.687 1305.98L439.35 1195.28C444.692 1175.34 458.314 1176.66 458.314 1176.66C458.314 1176.66 470.772 1182.33 465.43 1202.26L435.767 1312.97C435.481 1314.04 434.384 1314.67 433.317 1314.38L431.989 1314.03L412.429 1308.79L411.101 1308.43C410.034 1308.14 409.401 1307.05 409.687 1305.98Z" fill="white" stroke="#8E8E8E" id="n170"/>
<path d="M418.678 1301.4L409.019 1298.81L412.124 1287.22L419.852 1289.29L423.785 1286.21L433.444 1288.79L435.307 1293.43L443.034 1295.5L439.928 1307.1L430.269 1304.51L428.004 1312.96L416.413 1309.85L418.678 1301.4Z" fill="white" stroke="#8E8E8E" id="n171"/>
<path d="M451.572 1187.71C453.415 1188.75 454.615 1190.65 454.748 1192.77L455.308 1201.65L451.35 1193.68C450.406 1191.77 450.495 1189.53 451.572 1187.71Z" fill="#8E8E8E" stroke="#8E8E8E" id="n172"/>
<path d="M445.36 1210.89C447.203 1211.93 448.403 1213.83 448.536 1215.95L449.096 1224.83L445.138 1216.86C444.195 1214.95 444.283 1212.71 445.36 1210.89Z" fill="#8E8E8E" stroke="#8E8E8E" id="n173"/>
<path d="M439.149 1234.07C440.992 1235.11 442.192 1237.01 442.325 1239.13L442.885 1248.02L438.928 1240.04C437.984 1238.14 438.072 1235.89 439.149 1234.07Z" fill="#8E8E8E" stroke="#8E8E8E" id="n174"/>
<path d="M432.937 1257.25C434.78 1258.29 435.98 1260.19 436.113 1262.31L436.674 1271.2L432.716 1263.22C431.772 1261.32 431.86 1259.07 432.937 1257.25Z" fill="#8E8E8E" stroke="#8E8E8E" id="n175"/>
</g>
</svg>
