<?xml version='1.0' encoding='utf-8'?>
<svg xmlns="http://www.w3.org/2000/svg" xmlns:xlink="http://www.w3.org/1999/xlink" width="384.0" height="384.0" viewBox="0 0 384.0 384.0" fill="none">
  <defs><clipPath id="clip__asset"><rect x="0" y="0" width="384.0" height="384.0"/></clipPath><mask id="mask12_68_6728" style="mask-type:luminance" maskUnits="userSpaceOnUse" x="276" y="1561" width="328" height="328">
<circle cx="440" cy="1725" r="163" fill="white" stroke="black" stroke-width="2" id="n81"/>
</mask>
<mask id="mask13_68_6728" style="mask-type:alpha" maskUnits="userSpaceOnUse" x="276" y="1561" width="328" height="328">
<rect width="328" height="328" transform="translate(276 1561)" fill="url(#pattern0_68_6728)" id="n83"/>
</mask>
<mask id="mask14_68_6728" style="mask-type:luminance" maskUnits="userSpaceOnUse" x="184" y="1469" width="512" height="512">
<circle cx="440" cy="1725" r="150" fill="white" stroke="black" stroke-width="20" id="n88"/>
</mask>
<mask id="mask15_68_6728" style="mask-type:luminance" maskUnits="userSpaceOnUse" x="184" y="1469" width="512" height="512">
<path fill-rule="evenodd" clip-rule="evenodd" d="M440 1537C543.83 1537 628 1621.17 628 1725C628 1828.83 543.83 1913 440 1913C336.17 1913 252 1828.83 252 1725C252 1621.17 336.17 1537 440 1537ZM440 1561C349.425 1561 276 1634.43 276 1725C276 1815.57 349.425 1889 440 1889C530.575 1889 604 1815.57 604 1725C604 1634.43 530.575 1561 440 1561Z" fill="white" stroke="black" id="n92"/>
</mask>
<mask id="mask16_68_6728" style="mask-type:alpha" maskUnits="userSpaceOnUse" x="184" y="1469" width="512" height="512">
<path d="M440 1541C541.62 1541 624 1623.38 624 1725C624 1826.62 541.62 1909 440 1909C338.38 1909 256 1826.62 256 1725C256 1623.38 338.38 1541 440 1541ZM440 1565C351.634 1565 280 1636.63 280 1725C280 1813.37 351.634 1885 440 1885C528.366 1885 600 1813.37 600 1725C600 1636.63 528.366 1565 440 1565Z" fill="black" id="n94"/>
</mask>
<mask id="mask17_68_6728" style="mask-type:alpha" maskUnits="userSpaceOnUse" x="184" y="1469" width="512" height="512">
<path d="M440 1533C546.039 1533 632 1618.96 632 1725C632 1831.04 546.039 1917 440 1917C333.961 1917 248 1831.04 248 1725C248 1618.96 333.961 1533 440 1533ZM440 1561C349.425 1561 276 1634.43 276 1725C276 1815.57 349.425 1889 440 1889C530.575 1889 604 1815.57 604 1725C604 1634.43 530.575 1561 440 1561Z" fill="black" id="n97"/>
</mask>
<mask id="path-82-outside-3_68_6728" maskUnits="userSpaceOnUse" x="376.008" y="1644.74" width="145.664" height="145.664" fill="black">
<rect fill="white" x="376.008" y="1644.74" width="145.664" height="145.664" id="n105"/>
<path d="M427.627 1654.88L402.878 1679.63L407.003 1683.75L431.752 1659L440.001 1667.25L415.253 1692L419.377 1696.13L431.752 1683.75L440.001 1692L427.627 1704.38L464.75 1741.5L472.999 1733.25L489.498 1774.5L448.251 1758L456.5 1749.75L386.379 1679.63L419.377 1646.63L427.627 1654.88Z" id="n106"/>
</mask>
<pattern id="pattern0_68_6728" patternUnits="userSpaceOnUse" patternTransform="matrix(24 0 0 24 0 0)" preserveAspectRatio="none" viewBox="0 0 24 24" width="1" height="1">
<g id="pattern0_68_6728_inner">
<rect x="2.09961" y="4.92896" width="4" height="24" transform="rotate(-45 2.09961 4.92896)" fill="url(#paint0_linear_68_6728)" id="n364"/>
</g>
</pattern><linearGradient id="paint0_linear_68_6728" x1="4.09961" y1="4.92896" x2="4.09961" y2="28.929" gradientUnits="userSpaceOnUse">
<stop stop-opacity="0" id="n372"/>
<stop offset="1" id="n373"/>
</linearGradient>
</defs>
  <g clip-path="url(#clip__asset)" transform="translate(-248.0 -1533.0)"><g mask="url(#mask12_68_6728)" id="n82">
<mask id="mask13_68_6728" style="mask-type:alpha" maskUnits="userSpaceOnUse" x="276" y="1561" width="328" height="328">
<rect width="328" height="328" transform="translate(276 1561)" fill="url(#pattern0_68_6728)" id="n83"/>
</mask>
<g mask="url(#mask13_68_6728)" id="n84">
<rect width="328" height="328" transform="translate(276 1561)" fill="#BEBEBE" id="n85"/>
</g>
</g>
<path fill-rule="evenodd" clip-rule="evenodd" d="M440 1537C543.83 1537 628 1621.17 628 1725C628 1828.83 543.83 1913 440 1913C336.17 1913 252 1828.83 252 1725C252 1621.17 336.17 1537 440 1537ZM440 1561C349.425 1561 276 1634.43 276 1725C276 1815.57 349.425 1889 440 1889C530.575 1889 604 1815.57 604 1725C604 1634.43 530.575 1561 440 1561Z" fill="white" stroke="white" id="n86"/>
<path fill-rule="evenodd" clip-rule="evenodd" d="M440 1537C543.83 1537 628 1621.17 628 1725C628 1828.83 543.83 1913 440 1913C336.17 1913 252 1828.83 252 1725C252 1621.17 336.17 1537 440 1537ZM440 1561C349.425 1561 276 1634.43 276 1725C276 1815.57 349.425 1889 440 1889C530.575 1889 604 1815.57 604 1725C604 1634.43 530.575 1561 440 1561Z" stroke="#BEBEBE" id="n87"/>
<g mask="url(#mask14_68_6728)" id="n89">
<path d="M276 1725H604" stroke="#BEBEBE" stroke-linecap="square" id="n90"/>
<path d="M440 1561L440 1889" stroke="#BEBEBE" stroke-linecap="square" id="n91"/>
</g>
<g mask="url(#mask15_68_6728)" id="n93">
<mask id="mask16_68_6728" style="mask-type:alpha" maskUnits="userSpaceOnUse" x="184" y="1469" width="512" height="512">
<path d="M440 1541C541.62 1541 624 1623.38 624 1725C624 1826.62 541.62 1909 440 1909C338.38 1909 256 1826.62 256 1725C256 1623.38 338.38 1541 440 1541ZM440 1565C351.634 1565 280 1636.63 280 1725C280 1813.37 351.634 1885 440 1885C528.366 1885 600 1813.37 600 1725C600 1636.63 528.366 1565 440 1565Z" fill="black" id="n94"/>
</mask>
<g mask="url(#mask16_68_6728)" id="n95">
<path d="M440 1525V1725M440 1725H240M440 1725V1925M440 1725H640" stroke="#BEBEBE" id="n96"/>
</g>
<mask id="mask17_68_6728" style="mask-type:alpha" maskUnits="userSpaceOnUse" x="184" y="1469" width="512" height="512">
<path d="M440 1533C546.039 1533 632 1618.96 632 1725C632 1831.04 546.039 1917 440 1917C333.961 1917 248 1831.04 248 1725C248 1618.96 333.961 1533 440 1533ZM440 1561C349.425 1561 276 1634.43 276 1725C276 1815.57 349.425 1889 440 1889C530.575 1889 604 1815.57 604 1725C604 1634.43 530.575 1561 440 1561Z" fill="black" id="n97"/>
</mask>
<g mask="url(#mask17_68_6728)" id="n98">
<path d="M440 1525V1725M440 1725H240M440 1725V1925M440 1725H640" stroke="#BEBEBE" id="n99"/>
</g>
</g>
<path d="M443.33 1580H442.226L437.522 1572.78H437.474C437.482 1572.92 437.49 1573.08 437.498 1573.26C437.514 1573.42 437.526 1573.61 437.534 1573.81C437.542 1574 437.546 1574.2 437.546 1574.41C437.554 1574.62 437.558 1574.82 437.558 1575.03V1580H436.67V1571.43H437.762L442.454 1578.63H442.49C442.49 1578.53 442.486 1578.39 442.478 1578.22C442.47 1578.06 442.462 1577.87 442.454 1577.67C442.446 1577.46 442.438 1577.26 442.43 1577.05C442.422 1576.83 442.418 1576.63 442.418 1576.45V1571.43H443.33V1580Z" fill="#707070" id="n100"/>
<path d="M442.713 1877.73C442.713 1878.24 442.589 1878.68 442.341 1879.03C442.093 1879.38 441.737 1879.65 441.273 1879.84C440.817 1880.03 440.285 1880.12 439.677 1880.12C439.357 1880.12 439.049 1880.1 438.753 1880.07C438.465 1880.04 438.201 1880 437.961 1879.94C437.729 1879.88 437.521 1879.8 437.337 1879.72V1878.79C437.625 1878.92 437.981 1879.03 438.405 1879.14C438.829 1879.23 439.269 1879.28 439.725 1879.28C440.157 1879.28 440.521 1879.22 440.817 1879.11C441.121 1878.99 441.353 1878.82 441.513 1878.61C441.673 1878.38 441.753 1878.12 441.753 1877.8C441.753 1877.51 441.685 1877.26 441.549 1877.06C441.421 1876.86 441.205 1876.68 440.901 1876.52C440.597 1876.35 440.189 1876.18 439.677 1876C439.309 1875.87 438.985 1875.72 438.705 1875.57C438.433 1875.42 438.201 1875.25 438.009 1875.06C437.825 1874.86 437.685 1874.64 437.589 1874.38C437.493 1874.13 437.445 1873.83 437.445 1873.5C437.445 1873.03 437.561 1872.64 437.793 1872.32C438.025 1871.99 438.345 1871.74 438.753 1871.58C439.169 1871.4 439.641 1871.31 440.169 1871.31C440.633 1871.31 441.057 1871.36 441.441 1871.44C441.825 1871.52 442.181 1871.64 442.509 1871.79L442.197 1872.61C441.893 1872.48 441.565 1872.38 441.213 1872.3C440.869 1872.21 440.513 1872.16 440.145 1872.16C439.777 1872.16 439.465 1872.22 439.209 1872.33C438.953 1872.44 438.757 1872.59 438.621 1872.79C438.485 1872.99 438.417 1873.22 438.417 1873.5C438.417 1873.81 438.481 1874.06 438.609 1874.26C438.745 1874.46 438.953 1874.64 439.233 1874.79C439.521 1874.94 439.889 1875.1 440.337 1875.27C440.849 1875.46 441.281 1875.65 441.633 1875.86C441.985 1876.07 442.253 1876.32 442.437 1876.62C442.621 1876.9 442.713 1877.28 442.713 1877.73Z" fill="#707070" id="n101"/>
<path d="M595.112 1730H590.348V1721.43H595.112V1722.28H591.308V1725.09H594.884V1725.93H591.308V1729.15H595.112V1730Z" fill="#707070" id="n102"/>
<path d="M295.335 1721.43L293.043 1730H292.071L290.367 1724.18C290.319 1724.02 290.271 1723.86 290.223 1723.7C290.183 1723.53 290.143 1723.38 290.103 1723.23C290.071 1723.08 290.039 1722.95 290.007 1722.84C289.983 1722.72 289.963 1722.64 289.947 1722.57C289.939 1722.64 289.923 1722.72 289.899 1722.84C289.883 1722.94 289.855 1723.07 289.815 1723.22C289.783 1723.36 289.747 1723.52 289.707 1723.68C289.667 1723.84 289.623 1724 289.575 1724.17L287.907 1730H286.935L284.655 1721.43H285.663L287.067 1726.86C287.107 1727.03 287.147 1727.21 287.187 1727.38C287.227 1727.55 287.263 1727.72 287.295 1727.89C287.335 1728.05 287.367 1728.2 287.391 1728.36C287.415 1728.51 287.439 1728.66 287.463 1728.8C287.487 1728.65 287.511 1728.5 287.535 1728.34C287.567 1728.18 287.603 1728.02 287.643 1727.85C287.683 1727.68 287.723 1727.5 287.763 1727.32C287.811 1727.15 287.859 1726.98 287.907 1726.81L289.467 1721.43H290.463L292.071 1726.84C292.127 1727.02 292.175 1727.2 292.215 1727.38C292.263 1727.56 292.307 1727.73 292.347 1727.9C292.387 1728.06 292.419 1728.22 292.443 1728.38C292.475 1728.53 292.503 1728.68 292.527 1728.81C292.551 1728.62 292.579 1728.42 292.611 1728.21C292.651 1728 292.699 1727.79 292.755 1727.56C292.811 1727.33 292.871 1727.1 292.935 1726.86L294.327 1721.43H295.335Z" fill="#707070" id="n103"/>
<path d="M438.369 1540.28C439.167 1539.16 440.826 1539.16 441.624 1540.28L457.05 1561.88C451.445 1561.3 445.757 1561 440 1561C434.24 1561 428.549 1561.3 422.941 1561.88L438.369 1540.28Z" fill="#BEBEBE" id="n104"/>
<path d="M427.627 1654.88L402.878 1679.63L407.003 1683.75L431.752 1659L440.001 1667.25L415.253 1692L419.377 1696.13L431.752 1683.75L440.001 1692L427.627 1704.38L464.75 1741.5L472.999 1733.25L489.498 1774.5L448.251 1758L456.5 1749.75L386.379 1679.63L419.377 1646.63L427.627 1654.88Z" fill="#535353" id="n107"/>
<path d="M427.627 1654.88L428.334 1655.59L429.041 1654.88L428.334 1654.17L427.627 1654.88ZM402.878 1679.63L402.171 1678.92L401.464 1679.63L402.171 1680.33L402.878 1679.63ZM407.003 1683.75L406.296 1684.46L407.003 1685.17L407.71 1684.46L407.003 1683.75ZM431.752 1659L432.459 1658.3L431.752 1657.59L431.045 1658.3L431.752 1659ZM440.001 1667.25L440.709 1667.96L441.416 1667.25L440.709 1666.55L440.001 1667.25ZM415.253 1692L414.546 1691.29L413.838 1692L414.546 1692.71L415.253 1692ZM419.377 1696.13L418.67 1696.83L419.377 1697.54L420.084 1696.83L419.377 1696.13ZM431.752 1683.75L432.459 1683.04L431.752 1682.34L431.045 1683.04L431.752 1683.75ZM440.001 1692L440.709 1692.71L441.416 1692L440.709 1691.29L440.001 1692ZM427.627 1704.38L426.92 1703.67L426.213 1704.38L426.92 1705.08L427.627 1704.38ZM464.75 1741.5L464.043 1742.21L464.75 1742.91L465.457 1742.21L464.75 1741.5ZM472.999 1733.25L473.928 1732.88L473.365 1731.47L472.292 1732.54L472.999 1733.25ZM489.498 1774.5L489.127 1775.43L491.293 1776.29L490.427 1774.13L489.498 1774.5ZM448.251 1758L447.543 1757.29L446.471 1758.36L447.879 1758.93L448.251 1758ZM456.5 1749.75L457.207 1750.46L457.915 1749.75L457.207 1749.04L456.5 1749.75ZM386.379 1679.63L385.672 1678.92L384.965 1679.63L385.672 1680.33L386.379 1679.63ZM419.377 1646.63L420.084 1645.92L419.377 1645.21L418.67 1645.92L419.377 1646.63ZM427.627 1654.88L426.92 1654.17L402.171 1678.92L402.878 1679.63L403.585 1680.33L428.334 1655.59L427.627 1654.88ZM402.878 1679.63L402.171 1680.33L406.296 1684.46L407.003 1683.75L407.71 1683.04L403.585 1678.92L402.878 1679.63ZM407.003 1683.75L407.71 1684.46L432.459 1659.71L431.752 1659L431.045 1658.3L406.296 1683.04L407.003 1683.75ZM431.752 1659L431.045 1659.71L439.294 1667.96L440.001 1667.25L440.709 1666.55L432.459 1658.3L431.752 1659ZM440.001 1667.25L439.294 1666.55L414.546 1691.29L415.253 1692L415.96 1692.71L440.709 1667.96L440.001 1667.25ZM415.253 1692L414.546 1692.71L418.67 1696.83L419.377 1696.13L420.084 1695.42L415.96 1691.29L415.253 1692ZM419.377 1696.13L420.084 1696.83L432.459 1684.46L431.752 1683.75L431.045 1683.04L418.67 1695.42L419.377 1696.13ZM431.752 1683.75L431.045 1684.46L439.294 1692.71L440.001 1692L440.709 1691.29L432.459 1683.04L431.752 1683.75ZM440.001 1692L439.294 1691.29L426.92 1703.67L427.627 1704.38L428.334 1705.08L440.709 1692.71L440.001 1692ZM427.627 1704.38L426.92 1705.08L464.043 1742.21L464.75 1741.5L465.457 1740.79L428.334 1703.67L427.627 1704.38ZM464.75 1741.5L465.457 1742.21L473.706 1733.96L472.999 1733.25L472.292 1732.54L464.043 1740.79L464.75 1741.5ZM472.999 1733.25L472.071 1733.62L488.57 1774.87L489.498 1774.5L490.427 1774.13L473.928 1732.88L472.999 1733.25ZM489.498 1774.5L489.87 1773.57L448.622 1757.07L448.251 1758L447.879 1758.93L489.127 1775.43L489.498 1774.5ZM448.251 1758L448.958 1758.71L457.207 1750.46L456.5 1749.75L455.793 1749.04L447.543 1757.29L448.251 1758ZM456.5 1749.75L457.207 1749.04L387.086 1678.92L386.379 1679.63L385.672 1680.33L455.793 1750.46L456.5 1749.75ZM386.379 1679.63L387.086 1680.33L420.084 1647.34L419.377 1646.63L418.67 1645.92L385.672 1678.92L386.379 1679.63ZM419.377 1646.63L418.67 1647.34L426.92 1655.59L427.627 1654.88L428.334 1654.17L420.084 1645.92L419.377 1646.63Z" fill="#F7F7F7" mask="url(#path-82-outside-3_68_6728)" id="n108"/>
</g>
</svg>
