<?xml version='1.0' encoding='utf-8'?>
<svg xmlns="http://www.w3.org/2000/svg" xmlns:xlink="http://www.w3.org/1999/xlink" width="48.0" height="48.0" viewBox="0 0 48.0 48.0" fill="none">
  <defs>
    <clipPath id="clip__asset">
      <rect x="0" y="0" width="48.0" height="48.0"/>
    </clipPath>
  </defs>
  <g clip-path="url(#clip__asset)" transform="translate(-829.0 -220.0)"><path d="M833 244C833 241.374 833.517 238.773 834.522 236.346C835.528 233.92 837.001 231.715 838.858 229.858L853 244L833 244Z" fill="#9CC1F5" stroke="#9CC1F5" id="n126"/>
<path d="M833 244L853 244" stroke="#BEBEBE" stroke-linecap="square" id="n127"/>
<path d="M838.858 258.142C836.061 255.345 834.156 251.781 833.384 247.902C832.613 244.022 833.009 240.001 834.522 236.346C836.036 232.692 838.6 229.568 841.889 227.371C845.178 225.173 849.044 224 853 224C856.956 224 860.822 225.173 864.111 227.371C867.4 229.568 869.964 232.692 871.478 236.346C872.991 240.001 873.387 244.022 872.616 247.902C871.844 251.781 869.939 255.345 867.142 258.142" stroke="#BEBEBE" stroke-linecap="round" id="n128"/>
<path d="M850.882 246.121C852.054 247.293 853.953 247.293 855.125 246.121C856.296 244.95 856.296 243.05 855.125 241.879C853.953 240.707 838.984 229.847 838.984 229.847C838.938 229.818 838.889 229.83 838.859 229.861C838.828 229.891 838.816 229.94 838.845 229.986C838.904 230.076 849.711 244.95 850.882 246.121Z" fill="#2D548B" stroke="#2D548B" stroke-linecap="square" id="n129"/>
</g>
</svg>
