<?xml version='1.0' encoding='utf-8'?>
<svg xmlns="http://www.w3.org/2000/svg" xmlns:xlink="http://www.w3.org/1999/xlink" width="512.0" height="512.0" viewBox="0 0 512.0 512.0" fill="none">
  <defs>
    <clipPath id="clip__asset">
      <rect x="0" y="0" width="512.0" height="512.0"/>
    </clipPath>
  </defs>
  <g clip-path="url(#clip__asset)" transform="translate(-20160.0 -3875.0)"><path d="M20597 4312.02C20632.8 4276.22 20657.2 4230.6 20667.1 4180.94C20677 4131.28 20671.9 4079.81 20652.5 4033.03C20633.1 3986.26 20600.3 3946.27 20558.2 3918.14C20516.1 3890.01 20466.6 3875 20416 3875C20365.4 3875 20315.9 3890.01 20273.8 3918.14C20231.7 3946.27 20198.9 3986.26 20179.5 4033.03C20160.1 4079.81 20155 4131.28 20164.9 4180.94C20174.8 4230.6 20199.2 4276.22 20235 4312.02L20416 4131L20597 4312.02Z" stroke="#535353" id="n1090"/>
</g>
</svg>
