<?xml version='1.0' encoding='utf-8'?>
<svg xmlns="http://www.w3.org/2000/svg" xmlns:xlink="http://www.w3.org/1999/xlink" width="512.0" height="512.0" viewBox="0 0 512.0 512.0" fill="none">
  <defs><clipPath id="clip__asset"><rect x="0" y="0" width="512.0" height="512.0"/></clipPath><mask id="path-526-inside-46_68_6728" fill="white">
<path d="M14544.1 561.403C14546 560.317 14548.4 560.932 14549.6 562.758C14562.7 583.047 14579.9 600.344 14600.2 613.395C14602.1 614.57 14602.7 616.969 14601.6 618.85C14600.5 620.796 14598 621.439 14596.1 620.226C14574.7 606.51 14556.5 588.297 14542.8 566.925C14541.6 565.034 14542.2 562.526 14544.1 561.403ZM14837.9 561.403C14839.8 562.527 14840.4 565.035 14839.2 566.927C14825.5 588.299 14807.3 606.51 14785.9 620.225C14784 621.439 14781.5 620.796 14780.4 618.849C14779.3 616.968 14779.9 614.569 14781.8 613.394C14802 600.344 14819.3 583.047 14832.4 562.759C14833.6 560.933 14836 560.317 14837.9 561.403Z" id="n661"/>
</mask>
<mask id="mask49_68_6728" style="mask-type:alpha" maskUnits="userSpaceOnUse" x="14435" y="216" width="512" height="512">
<mask id="path-528-inside-47_68_6728" fill="white">
<path d="M14837.9 561.403C14839.8 562.527 14840.4 565.036 14839.2 566.927C14825.5 588.299 14807.3 606.51 14785.9 620.226C14784 621.44 14781.5 620.796 14780.4 618.85C14779.3 616.969 14779.9 614.57 14781.8 613.395C14802 600.345 14819.3 583.048 14832.4 562.759C14833.6 560.933 14836 560.318 14837.9 561.403ZM14544.1 561.403C14546 560.318 14548.4 560.933 14549.6 562.759C14562.7 583.048 14580 600.346 14600.2 613.396C14602.1 614.571 14602.7 616.97 14601.6 618.85C14600.5 620.796 14598 621.439 14596.1 620.226C14574.7 606.51 14556.5 588.299 14542.8 566.927C14541.6 565.035 14542.2 562.527 14544.1 561.403Z" id="n664"/>
</mask>
<path d="M14837.9 561.403C14839.8 562.527 14840.4 565.036 14839.2 566.927C14825.5 588.299 14807.3 606.51 14785.9 620.226C14784 621.44 14781.5 620.796 14780.4 618.85C14779.3 616.969 14779.9 614.57 14781.8 613.395C14802 600.345 14819.3 583.048 14832.4 562.759C14833.6 560.933 14836 560.318 14837.9 561.403ZM14544.1 561.403C14546 560.318 14548.4 560.933 14549.6 562.759C14562.7 583.048 14580 600.346 14600.2 613.396C14602.1 614.571 14602.7 616.97 14601.6 618.85C14600.5 620.796 14598 621.439 14596.1 620.226C14574.7 606.51 14556.5 588.299 14542.8 566.927C14541.6 565.035 14542.2 562.527 14544.1 561.403Z" fill="#2D548B" id="n665"/>
<path d="M14596.1 620.226L14595.5 621.067L14596.1 620.226ZM14600.2 613.396L14599.7 614.237L14600.2 613.396ZM14832.4 562.759L14833.2 563.3L14832.4 562.759ZM14837.9 561.403L14838.4 560.537L14837.9 561.403ZM14780.4 618.85L14779.5 619.35L14780.4 618.85ZM14781.8 613.395L14781.2 612.554L14781.8 613.395ZM14785.9 620.226L14786.5 621.068L14785.9 620.226ZM14839.2 566.927L14838.4 566.387L14839.2 566.927ZM14839.2 566.927L14838.4 566.387C14824.7 587.638 14806.6 605.746 14785.4 619.384L14785.9 620.226L14786.5 621.068C14808 607.274 14826.3 588.961 14840.1 567.467L14839.2 566.927ZM14781.8 613.395L14782.3 614.236C14802.7 601.109 14820.1 583.71 14833.2 563.3L14832.4 562.759L14831.6 562.219C14818.6 582.387 14801.4 599.582 14781.2 612.554L14781.8 613.395ZM14549.6 562.759L14548.8 563.3C14561.9 583.71 14579.3 601.109 14599.7 614.237L14600.2 613.396L14600.8 612.555C14580.6 599.582 14563.4 582.387 14550.4 562.218L14549.6 562.759ZM14596.1 620.226L14596.6 619.384C14575.4 605.746 14557.3 587.638 14543.6 566.387L14542.8 566.927L14541.9 567.467C14555.7 588.96 14574 607.274 14595.5 621.067L14596.1 620.226ZM14542.8 566.927L14543.6 566.387C14542.7 564.988 14543.2 563.115 14544.6 562.27L14544.1 561.403L14543.6 560.537C14541.2 561.938 14540.4 565.082 14541.9 567.467L14542.8 566.927ZM14601.6 618.85L14600.7 618.35C14599.9 619.815 14598 620.281 14596.6 619.384L14596.1 620.226L14595.5 621.067C14597.9 622.597 14601.1 621.777 14602.5 619.35L14601.6 618.85ZM14600.2 613.396L14599.7 614.237C14601.1 615.131 14601.5 616.945 14600.7 618.35L14601.6 618.85L14602.5 619.35C14603.8 616.995 14603 614.01 14600.8 612.555L14600.2 613.396ZM14549.6 562.759L14550.4 562.218C14549 559.956 14546 559.178 14543.6 560.537L14544.1 561.403L14544.6 562.27C14546.1 561.458 14547.9 561.91 14548.8 563.3L14549.6 562.759ZM14832.4 562.759L14833.2 563.3C14834.1 561.91 14835.9 561.458 14837.4 562.269L14837.9 561.403L14838.4 560.537C14836 559.178 14833 559.956 14831.6 562.219L14832.4 562.759ZM14780.4 618.85L14781.3 618.35C14780.5 616.944 14780.9 615.13 14782.3 614.236L14781.8 613.395L14781.2 612.554C14779 614.009 14778.2 616.994 14779.5 619.35L14780.4 618.85ZM14785.9 620.226L14785.4 619.384C14784 620.282 14782.1 619.815 14781.3 618.35L14780.4 618.85L14779.5 619.35C14780.9 621.777 14784.1 622.598 14786.5 621.068L14785.9 620.226ZM14839.2 566.927L14840.1 567.467C14841.6 565.082 14840.8 561.938 14838.4 560.537L14837.9 561.403L14837.4 562.269C14838.8 563.115 14839.3 564.989 14838.4 566.387L14839.2 566.927Z" fill="#2D548B" mask="url(#path-528-inside-47_68_6728)" id="n666"/>
</mask>
<mask id="path-528-inside-47_68_6728" fill="white">
<path d="M14837.9 561.403C14839.8 562.527 14840.4 565.036 14839.2 566.927C14825.5 588.299 14807.3 606.51 14785.9 620.226C14784 621.44 14781.5 620.796 14780.4 618.85C14779.3 616.969 14779.9 614.57 14781.8 613.395C14802 600.345 14819.3 583.048 14832.4 562.759C14833.6 560.933 14836 560.318 14837.9 561.403ZM14544.1 561.403C14546 560.318 14548.4 560.933 14549.6 562.759C14562.7 583.048 14580 600.346 14600.2 613.396C14602.1 614.571 14602.7 616.97 14601.6 618.85C14600.5 620.796 14598 621.439 14596.1 620.226C14574.7 606.51 14556.5 588.299 14542.8 566.927C14541.6 565.035 14542.2 562.527 14544.1 561.403Z" id="n664"/>
</mask>
<mask id="mask50_68_6728" style="mask-type:luminance" maskUnits="userSpaceOnUse" x="14435" y="216" width="512" height="512">
<path d="M14691 280C14797 280 14883 365.961 14883 472C14883 578.039 14797 664 14691 664C14585 664 14499 578.039 14499 472C14499 365.961 14585 280 14691 280ZM14691 308C14600.4 308 14527 381.425 14527 472C14527 562.575 14600.4 636 14691 636C14781.6 636 14855 562.575 14855 472C14855 381.425 14781.6 308 14691 308Z" fill="white" id="n720"/>
<path d="M14691 280V280.5C14796.8 280.5 14882.5 366.237 14882.5 472H14883H14883.5C14883.5 365.685 14797.3 279.5 14691 279.5V280ZM14883 472H14882.5C14882.5 577.763 14796.8 663.5 14691 663.5V664V664.5C14797.3 664.5 14883.5 578.315 14883.5 472H14883ZM14691 664V663.5C14585.2 663.5 14499.5 577.763 14499.5 472H14499H14498.5C14498.5 578.315 14584.7 664.5 14691 664.5V664ZM14499 472H14499.5C14499.5 366.237 14585.2 280.5 14691 280.5V280V279.5C14584.7 279.5 14498.5 365.685 14498.5 472H14499ZM14691 308V307.5C14600.1 307.5 14526.5 381.149 14526.5 472H14527H14527.5C14527.5 381.701 14600.7 308.5 14691 308.5V308ZM14527 472H14526.5C14526.5 562.851 14600.1 636.5 14691 636.5V636V635.5C14600.7 635.5 14527.5 562.299 14527.5 472H14527ZM14691 636V636.5C14781.9 636.5 14855.5 562.851 14855.5 472H14855H14854.5C14854.5 562.299 14781.3 635.5 14691 635.5V636ZM14855 472H14855.5C14855.5 381.149 14781.9 307.5 14691 307.5V308V308.5C14781.3 308.5 14854.5 381.701 14854.5 472H14855Z" fill="black" id="n721"/>
</mask>
<mask id="path-578-inside-48_68_6728" fill="white">
<path d="M14752.1 632.833C14752.9 634.898 14751.8 637.213 14749.8 637.95C14741.9 640.729 14733.8 642.965 14725.5 644.617C14723.3 645.047 14721.3 643.589 14720.9 641.415C14720.5 639.238 14721.9 637.166 14724.1 636.733C14731.9 635.172 14739.5 633.071 14746.9 630.468C14749 629.733 14751.3 630.767 14752.1 632.833Z" id="n724"/>
</mask>
<clipPath id="clip62_68_6728">
<rect width="512" height="512" fill="white" transform="translate(14353 342.258) rotate(-24)" id="n2061"/>
</clipPath>
<clipPath id="clip63_68_6728">
<rect width="512" height="512" fill="white" transform="translate(14344.8 366.15) rotate(-28)" id="n2062"/>
</clipPath>
<clipPath id="clip64_68_6728">
<rect width="512" height="512" fill="white" transform="translate(14338.2 390.559) rotate(-32)" id="n2063"/>
</clipPath>
<clipPath id="clip65_68_6728">
<rect width="512" height="512" fill="white" transform="translate(14333.4 415.363) rotate(-36)" id="n2064"/>
</clipPath>
<clipPath id="clip66_68_6728">
<rect width="512" height="512" fill="white" transform="translate(14573.1 814.314) rotate(-116)" id="n2065"/>
</clipPath>
<clipPath id="clip67_68_6728">
<rect width="512" height="512" fill="white" transform="translate(14597.3 821.703) rotate(-120)" id="n2066"/>
</clipPath>
<clipPath id="clip68_68_6728">
<rect width="512" height="512" fill="white" transform="translate(14621.9 827.387) rotate(-124)" id="n2067"/>
</clipPath>
</defs>
  <g clip-path="url(#clip__asset)" transform="translate(-14435.0 -216.0)"><path d="M14544.1 561.403C14546 560.317 14548.4 560.932 14549.6 562.758C14562.7 583.047 14579.9 600.344 14600.2 613.395C14602.1 614.57 14602.7 616.969 14601.6 618.85C14600.5 620.796 14598 621.439 14596.1 620.226C14574.7 606.51 14556.5 588.297 14542.8 566.925C14541.6 565.034 14542.2 562.526 14544.1 561.403ZM14837.9 561.403C14839.8 562.527 14840.4 565.035 14839.2 566.927C14825.5 588.299 14807.3 606.51 14785.9 620.225C14784 621.439 14781.5 620.796 14780.4 618.849C14779.3 616.968 14779.9 614.569 14781.8 613.394C14802 600.344 14819.3 583.047 14832.4 562.759C14833.6 560.933 14836 560.317 14837.9 561.403Z" fill="white" id="n662"/>
<path d="M14832.4 562.759L14833.2 563.3L14832.4 562.759ZM14837.9 561.403L14837.4 562.269L14837.9 561.403ZM14780.4 618.849L14779.5 619.349L14780.4 618.849ZM14781.8 613.394L14782.3 614.235L14781.8 613.394ZM14785.9 620.225L14786.5 621.067L14785.9 620.225ZM14839.2 566.927L14838.4 566.387L14839.2 566.927ZM14601.6 618.85L14600.7 618.35L14601.6 618.85ZM14549.6 562.758L14548.8 563.299C14561.9 583.708 14579.3 601.108 14599.7 614.236L14600.2 613.395L14600.8 612.554C14580.6 599.581 14563.4 582.386 14550.4 562.217L14549.6 562.758ZM14596.1 620.226L14596.6 619.384C14575.4 605.746 14557.3 587.636 14543.6 566.385L14542.8 566.925L14541.9 567.465C14555.7 588.959 14574 607.273 14595.5 621.067L14596.1 620.226ZM14839.2 566.927L14838.4 566.387C14824.7 587.638 14806.6 605.746 14785.4 619.384L14785.9 620.225L14786.5 621.067C14808 607.273 14826.3 588.96 14840.1 567.467L14839.2 566.927ZM14781.8 613.394L14782.3 614.235C14802.7 601.108 14820.1 583.709 14833.2 563.3L14832.4 562.759L14831.6 562.218C14818.6 582.386 14801.4 599.58 14781.2 612.553L14781.8 613.394ZM14832.4 562.759L14833.2 563.3C14834.1 561.91 14835.9 561.458 14837.4 562.269L14837.9 561.403L14838.4 560.537C14836 559.177 14833 559.955 14831.6 562.218L14832.4 562.759ZM14780.4 618.849L14781.3 618.349C14780.5 616.943 14780.9 615.129 14782.3 614.235L14781.8 613.394L14781.2 612.553C14779 614.008 14778.2 616.993 14779.5 619.349L14780.4 618.849ZM14785.9 620.225L14785.4 619.384C14784 620.281 14782.1 619.815 14781.3 618.349L14780.4 618.849L14779.5 619.349C14780.9 621.776 14784.1 622.597 14786.5 621.067L14785.9 620.225ZM14839.2 566.927L14840.1 567.467C14841.6 565.082 14840.8 561.938 14838.4 560.537L14837.9 561.403L14837.4 562.269C14838.8 563.115 14839.3 564.989 14838.4 566.387L14839.2 566.927ZM14542.8 566.925L14543.6 566.385C14542.7 564.987 14543.2 563.114 14544.6 562.269L14544.1 561.403L14543.6 560.537C14541.2 561.938 14540.4 565.081 14541.9 567.465L14542.8 566.925ZM14601.6 618.85L14600.7 618.35C14599.9 619.815 14598 620.281 14596.6 619.384L14596.1 620.226L14595.5 621.067C14597.9 622.597 14601.1 621.777 14602.5 619.35L14601.6 618.85ZM14600.2 613.395L14599.7 614.236C14601.1 615.13 14601.5 616.944 14600.7 618.35L14601.6 618.85L14602.5 619.35C14603.8 616.994 14603 614.009 14600.8 612.554L14600.2 613.395ZM14549.6 562.758L14550.4 562.217C14549 559.955 14546 559.177 14543.6 560.537L14544.1 561.403L14544.6 562.269C14546.1 561.457 14547.9 561.909 14548.8 563.299L14549.6 562.758Z" fill="#BEBEBE" mask="url(#path-526-inside-46_68_6728)" id="n663"/>
<g mask="url(#mask49_68_6728)" id="n667">
<path fill-rule="evenodd" clip-rule="evenodd" d="M14804.2 280.732L14579 410.732L14577 407.268L14802.2 277.268L14804.2 280.732ZM14804.2 536.732L14579 666.732L14577 663.267L14802.2 533.267L14804.2 536.732Z" fill="#BEBEBE" id="n668"/>
<path fill-rule="evenodd" clip-rule="evenodd" d="M14790.5 273.303L14575 418.693L14572.8 415.377L14788.3 269.987L14790.5 273.303ZM14808.4 528.679L14592.9 674.069L14590.6 670.753L14806.2 525.363L14808.4 528.679Z" fill="#BEBEBE" id="n669"/>
<path fill-rule="evenodd" clip-rule="evenodd" d="M14776.4 266.844L14571.6 426.916L14569.1 423.764L14774 263.692L14776.4 266.844ZM14812.1 520.353L14607.2 680.425L14604.7 677.273L14809.6 517.201L14812.1 520.353Z" fill="#BEBEBE" id="n670"/>
<path fill-rule="evenodd" clip-rule="evenodd" d="M14761.9 261.384L14568.7 435.358L14566 432.386L14759.2 258.412L14761.9 261.384ZM14815.2 511.79L14621.9 685.764L14619.3 682.791L14812.5 508.817L14815.2 511.79Z" fill="#BEBEBE" id="n671"/>
<path fill-rule="evenodd" clip-rule="evenodd" d="M14747.1 256.949L14566.4 443.977L14563.6 441.198L14744.2 254.17L14747.1 256.949ZM14817.6 503.032L14637 690.06L14634.1 687.281L14814.7 500.253L14817.6 503.032Z" fill="#BEBEBE" id="n672"/>
<path fill-rule="evenodd" clip-rule="evenodd" d="M14731.9 253.562L14564.8 452.733L14561.7 450.162L14728.9 250.99L14731.9 253.562ZM14819.5 494.123L14652.4 693.294L14649.3 690.723L14816.4 491.552L14819.5 494.123Z" fill="#BEBEBE" id="n673"/>
<g clip-path="url(#clip62_68_6728)" id="n674">
<path fill-rule="evenodd" clip-rule="evenodd" d="M14716.6 251.24L14563.8 461.585L14560.5 459.233L14713.4 248.889L14716.6 251.24ZM14820.7 485.108L14667.9 695.452L14664.7 693.101L14817.5 482.757L14820.7 485.108Z" fill="#BEBEBE" id="n675"/>
</g>
<g clip-path="url(#clip63_68_6728)" id="n676">
<path fill-rule="evenodd" clip-rule="evenodd" d="M14701.1 249.992L14563.3 470.485L14560 468.365L14697.7 247.873L14701.1 249.992ZM14821.3 476.027L14683.5 696.519L14680.1 694.4L14817.9 473.907L14821.3 476.027Z" fill="#BEBEBE" id="n677"/>
</g>
<g clip-path="url(#clip64_68_6728)" id="n678">
<path fill-rule="evenodd" clip-rule="evenodd" d="M14685.6 249.825L14563.6 479.392L14560 477.514L14682.1 247.947L14685.6 249.825ZM14821.3 466.926L14699.2 696.492L14695.7 694.614L14817.7 465.048L14821.3 466.926Z" fill="#BEBEBE" id="n679"/>
</g>
<g clip-path="url(#clip65_68_6728)" id="n680">
<path fill-rule="evenodd" clip-rule="evenodd" d="M14670.1 250.742L14564.4 488.264L14560.7 486.637L14666.5 249.115L14670.1 250.742ZM14820.6 457.85L14714.9 695.372L14711.2 693.745L14817 456.224L14820.6 457.85Z" fill="#BEBEBE" id="n681"/>
</g>
<path fill-rule="evenodd" clip-rule="evenodd" d="M14654.8 252.737L14565.8 497.057L14562.1 495.689L14651 251.369L14654.8 252.737ZM14819.3 448.845L14730.4 693.165L14726.6 691.797L14815.5 447.477L14819.3 448.845Z" fill="#BEBEBE" id="n682"/>
<path fill-rule="evenodd" clip-rule="evenodd" d="M14639.5 255.802L14567.9 505.73L14564 504.627L14635.7 254.699L14639.5 255.802ZM14817.4 439.953L14745.7 689.881L14741.9 688.778L14813.5 438.85L14817.4 439.953Z" fill="#BEBEBE" id="n683"/>
<path fill-rule="evenodd" clip-rule="evenodd" d="M14624.6 259.918L14570.5 514.236L14566.6 513.405L14620.7 259.086L14624.6 259.918ZM14814.8 431.216L14760.8 685.534L14756.9 684.702L14810.9 430.384L14814.8 431.216Z" fill="#BEBEBE" id="n684"/>
<path fill-rule="evenodd" clip-rule="evenodd" d="M14609.9 265.066L14573.8 522.536L14569.8 521.979L14606 264.509L14609.9 265.066ZM14811.7 422.676L14775.5 680.145L14771.5 679.589L14807.7 422.119L14811.7 422.676Z" fill="#BEBEBE" id="n685"/>
<path fill-rule="evenodd" clip-rule="evenodd" d="M14595.7 271.224L14577.6 530.591L14573.6 530.312L14591.7 270.945L14595.7 271.224ZM14807.9 414.378L14789.8 673.745L14785.8 673.466L14804 414.099L14807.9 414.378Z" fill="#BEBEBE" id="n686"/>
<path fill-rule="evenodd" clip-rule="evenodd" d="M14581.9 278.361L14581.9 538.361L14577.9 538.361L14577.9 278.361L14581.9 278.361ZM14803.6 406.361L14803.6 666.361L14799.6 666.361L14799.6 406.361L14803.6 406.361Z" fill="#BEBEBE" id="n687"/>
<path fill-rule="evenodd" clip-rule="evenodd" d="M14568.7 286.44L14586.8 545.807L14582.8 546.086L14564.7 286.719L14568.7 286.44ZM14798.8 398.663L14816.9 658.03L14812.9 658.309L14794.8 398.942L14798.8 398.663Z" fill="#BEBEBE" id="n688"/>
<path fill-rule="evenodd" clip-rule="evenodd" d="M14556.1 295.424L14592.2 552.894L14588.3 553.451L14552.1 295.981L14556.1 295.424ZM14793.4 391.324L14829.6 648.793L14825.6 649.35L14789.5 391.88L14793.4 391.324Z" fill="#BEBEBE" id="n689"/>
<path fill-rule="evenodd" clip-rule="evenodd" d="M14544.1 305.268L14598.1 559.586L14594.2 560.418L14540.2 306.1L14544.1 305.268ZM14787.5 384.377L14841.6 638.695L14837.7 639.527L14783.6 385.208L14787.5 384.377Z" fill="#BEBEBE" id="n690"/>
<path fill-rule="evenodd" clip-rule="evenodd" d="M14532.8 315.925L14604.5 565.853L14600.6 566.955L14528.9 317.027L14532.8 315.925ZM14781.2 377.857L14852.9 627.785L14849 628.888L14777.3 378.96L14781.2 377.857Z" fill="#BEBEBE" id="n691"/>
<path fill-rule="evenodd" clip-rule="evenodd" d="M14522.3 327.339L14611.2 571.659L14607.5 573.027L14518.5 328.707L14522.3 327.339ZM14774.4 371.793L14863.3 616.113L14859.6 617.481L14770.6 373.161L14774.4 371.793Z" fill="#BEBEBE" id="n692"/>
<path fill-rule="evenodd" clip-rule="evenodd" d="M14512.6 339.459L14618.4 576.981L14614.7 578.608L14509 341.086L14512.6 339.459ZM14767.2 366.219L14873 603.741L14869.3 605.368L14763.5 367.846L14767.2 366.219Z" fill="#BEBEBE" id="n693"/>
<path fill-rule="evenodd" clip-rule="evenodd" d="M14503.8 352.227L14625.9 581.794L14622.3 583.671L14500.3 354.105L14503.8 352.227ZM14759.6 361.162L14881.7 590.728L14878.2 592.606L14756.1 363.04L14759.6 361.162Z" fill="#BEBEBE" id="n694"/>
<path fill-rule="evenodd" clip-rule="evenodd" d="M14495.9 365.577L14633.7 586.07L14630.3 588.189L14492.5 367.697L14495.9 365.577ZM14751.7 356.643L14889.5 577.136L14886.1 579.255L14748.4 358.763L14751.7 356.643Z" fill="#BEBEBE" id="n695"/>
<path fill-rule="evenodd" clip-rule="evenodd" d="M14489 379.444L14641.8 589.788L14638.5 592.14L14485.7 381.795L14489 379.444ZM14743.6 352.685L14896.4 563.029L14893.1 565.381L14740.3 355.036L14743.6 352.685Z" fill="#BEBEBE" id="n696"/>
<path fill-rule="evenodd" clip-rule="evenodd" d="M14483 393.765L14650.1 592.936L14647 595.508L14479.9 396.336L14483 393.765ZM14735.1 349.311L14902.2 548.483L14899.2 551.054L14732 351.882L14735.1 349.311Z" fill="#BEBEBE" id="n697"/>
<path fill-rule="evenodd" clip-rule="evenodd" d="M14478 408.468L14658.6 595.496L14655.8 598.275L14475.2 411.246L14478 408.468ZM14726.4 346.536L14907 533.564L14904.2 536.343L14723.5 349.314L14726.4 346.536Z" fill="#BEBEBE" id="n698"/>
<path fill-rule="evenodd" clip-rule="evenodd" d="M14474.1 423.477L14667.3 597.451L14664.7 600.423L14471.4 426.449L14474.1 423.477ZM14717.6 344.369L14910.8 518.343L14908.1 521.315L14714.9 347.341L14717.6 344.369Z" fill="#BEBEBE" id="n699"/>
<path fill-rule="evenodd" clip-rule="evenodd" d="M14471.3 438.723L14676.1 598.795L14673.7 601.947L14468.8 441.875L14471.3 438.723ZM14708.6 342.824L14913.5 502.896L14911 506.048L14706.2 345.976L14708.6 342.824Z" fill="#BEBEBE" id="n700"/>
<g clip-path="url(#clip66_68_6728)" id="n701">
<path fill-rule="evenodd" clip-rule="evenodd" d="M14469.5 454.133L14685 599.524L14682.8 602.84L14467.2 457.45L14469.5 454.133ZM14699.6 341.911L14915.1 487.301L14912.9 490.617L14697.3 345.227L14699.6 341.911Z" fill="#BEBEBE" id="n702"/>
</g>
<g clip-path="url(#clip67_68_6728)" id="n703">
<path fill-rule="evenodd" clip-rule="evenodd" d="M14468.8 469.629L14693.9 599.629L14691.9 603.094L14466.8 473.094L14468.8 469.629ZM14690.5 341.63L14915.6 471.63L14913.6 475.094L14688.5 345.094L14690.5 341.63Z" fill="#BEBEBE" id="n704"/>
</g>
<g clip-path="url(#clip68_68_6728)" id="n705">
<path fill-rule="evenodd" clip-rule="evenodd" d="M14469.2 485.135L14702.8 599.112L14701.1 602.707L14467.4 488.731L14469.2 485.135ZM14681.4 341.982L14915.1 455.959L14913.3 459.554L14679.6 345.577L14681.4 341.982Z" fill="#BEBEBE" id="n706"/>
</g>
<path fill-rule="evenodd" clip-rule="evenodd" d="M14470.6 500.58L14711.7 597.978L14710.2 601.686L14469.1 504.289L14470.6 500.58ZM14672.3 342.971L14913.4 440.369L14911.9 444.077L14670.8 346.68L14672.3 342.971Z" fill="#BEBEBE" id="n707"/>
<path fill-rule="evenodd" clip-rule="evenodd" d="M14473.1 515.884L14720.4 596.228L14719.2 600.032L14471.9 519.688L14473.1 515.884ZM14663.4 344.587L14910.7 424.931L14909.4 428.735L14662.1 348.391L14663.4 344.587Z" fill="#BEBEBE" id="n708"/>
<path fill-rule="evenodd" clip-rule="evenodd" d="M14476.7 530.976L14729 593.876L14728 597.757L14475.8 534.857L14476.7 530.976ZM14654.6 346.825L14906.8 409.725L14905.9 413.606L14653.6 350.707L14654.6 346.825Z" fill="#BEBEBE" id="n709"/>
<path fill-rule="evenodd" clip-rule="evenodd" d="M14481.4 545.777L14737.4 590.926L14736.7 594.865L14480.7 549.717L14481.4 545.777ZM14645.9 349.67L14902 394.819L14901.3 398.758L14645.2 353.61L14645.9 349.67Z" fill="#BEBEBE" id="n710"/>
<path fill-rule="evenodd" clip-rule="evenodd" d="M14487 560.223L14745.6 587.4L14745.2 591.378L14486.6 564.201L14487 560.223ZM14637.5 353.115L14896.1 380.292L14895.7 384.27L14637.1 357.093L14637.5 353.115Z" fill="#BEBEBE" id="n711"/>
<path fill-rule="evenodd" clip-rule="evenodd" d="M14493.7 574.235L14753.5 583.309L14753.4 587.306L14493.5 578.232L14493.7 574.235ZM14629.3 357.135L14889.2 366.209L14889 370.206L14629.2 361.132L14629.3 357.135Z" fill="#BEBEBE" id="n712"/>
<path fill-rule="evenodd" clip-rule="evenodd" d="M14501.3 587.75L14761.1 578.676L14761.3 582.674L14501.4 591.748L14501.3 587.75ZM14621.5 361.716L14881.3 352.642L14881.5 356.639L14621.6 365.713L14621.5 361.716Z" fill="#BEBEBE" id="n713"/>
<path fill-rule="evenodd" clip-rule="evenodd" d="M14509.8 600.702L14768.4 573.525L14768.8 577.503L14510.2 604.68L14509.8 600.702ZM14613.9 366.835L14872.5 339.657L14872.9 343.635L14614.4 370.813L14613.9 366.835Z" fill="#BEBEBE" id="n714"/>
<path fill-rule="evenodd" clip-rule="evenodd" d="M14519.2 613.026L14775.3 567.877L14776 571.816L14519.9 616.965L14519.2 613.026ZM14606.8 372.465L14862.8 327.316L14863.5 331.255L14607.5 376.404L14606.8 372.465Z" fill="#BEBEBE" id="n715"/>
<path fill-rule="evenodd" clip-rule="evenodd" d="M14529.5 624.666L14781.8 561.766L14782.7 565.647L14530.5 628.547L14529.5 624.666ZM14600.1 378.583L14852.3 315.683L14853.3 319.564L14601 382.464L14600.1 378.583Z" fill="#BEBEBE" id="n716"/>
<path fill-rule="evenodd" clip-rule="evenodd" d="M14540.5 635.559L14787.8 555.214L14789 559.018L14541.8 639.363L14540.5 635.559ZM14593.8 385.153L14841 304.809L14842.3 308.613L14595 388.957L14593.8 385.153Z" fill="#BEBEBE" id="n717"/>
<path fill-rule="evenodd" clip-rule="evenodd" d="M14552.3 645.657L14793.4 548.26L14794.9 551.968L14553.8 649.366L14552.3 645.657ZM14587.9 392.149L14829 294.751L14830.5 298.46L14589.4 395.857L14587.9 392.149Z" fill="#BEBEBE" id="n718"/>
<path fill-rule="evenodd" clip-rule="evenodd" d="M14564.8 654.909L14798.5 540.932L14800.2 544.528L14566.5 658.504L14564.8 654.909ZM14582.6 399.533L14816.3 285.556L14818.1 289.151L14584.4 403.128L14582.6 399.533Z" fill="#BEBEBE" id="n719"/>
</g>
<g mask="url(#mask50_68_6728)" id="n722">
<path d="M14819 693.703C14867.8 665.525 14905.9 622.032 14927.5 569.967C14949.1 517.902 14952.9 460.176 14938.3 405.742C14923.7 351.308 14891.6 303.208 14846.8 268.902C14802.1 234.595 14747.4 216 14691 216C14634.6 216 14579.9 234.595 14535.2 268.902C14490.4 303.208 14458.3 351.308 14443.7 405.742C14429.1 460.176 14432.9 517.902 14454.5 569.967C14476.1 622.032 14514.2 665.525 14563 693.703L14691 472L14819 693.703Z" stroke="#BEBEBE" id="n723"/>
</g>
<path d="M14752.1 632.833C14752.9 634.898 14751.8 637.213 14749.8 637.95C14741.9 640.729 14733.8 642.965 14725.5 644.617C14723.3 645.047 14721.3 643.589 14720.9 641.415C14720.5 639.238 14721.9 637.166 14724.1 636.733C14731.9 635.172 14739.5 633.071 14746.9 630.468C14749 629.733 14751.3 630.767 14752.1 632.833Z" fill="#CADEFC" id="n725"/>
<path d="M14746.9 630.468L14746.6 629.525L14746.9 630.468ZM14752.1 632.833L14753 632.478L14752.1 632.833ZM14725.5 644.617L14725.3 643.636L14725.5 644.617ZM14749.8 637.95L14749.4 637.008L14749.8 637.95ZM14749.8 637.95L14749.4 637.008C14741.6 639.77 14733.6 641.993 14725.3 643.636L14725.5 644.617L14725.7 645.597C14734.1 643.936 14742.2 641.687 14750.1 638.893L14749.8 637.95ZM14724.1 636.733L14724.3 637.713C14732.2 636.143 14739.8 634.03 14747.2 631.411L14746.9 630.468L14746.6 629.525C14739.3 632.113 14731.7 634.201 14723.9 635.752L14724.1 636.733ZM14746.9 630.468L14747.2 631.411C14748.8 630.852 14750.6 631.644 14751.2 633.188L14752.1 632.833L14753 632.478C14752 629.89 14749.2 628.615 14746.6 629.525L14746.9 630.468ZM14720.9 641.415L14721.9 641.242C14721.6 639.614 14722.7 638.043 14724.3 637.713L14724.1 636.733L14723.9 635.752C14721.2 636.289 14719.4 638.861 14719.9 641.589L14720.9 641.415ZM14725.5 644.617L14725.3 643.636C14723.7 643.954 14722.1 642.878 14721.9 641.242L14720.9 641.415L14719.9 641.589C14720.4 644.301 14723 646.14 14725.7 645.597L14725.5 644.617ZM14749.8 637.95L14750.1 638.893C14752.7 637.963 14754 635.054 14753 632.478L14752.1 632.833L14751.2 633.188C14751.8 634.743 14751 636.463 14749.4 637.008L14749.8 637.95Z" fill="#2D548B" mask="url(#path-578-inside-48_68_6728)" id="n726"/>
</g>
</svg>
