<?xml version='1.0' encoding='utf-8'?>
<svg xmlns="http://www.w3.org/2000/svg" xmlns:xlink="http://www.w3.org/1999/xlink" width="160.0" height="160.0" viewBox="0 0 160.0 160.0" fill="none">
  <defs>
    <clipPath id="clip__asset">
      <rect x="0" y="0" width="160.0" height="160.0"/>
    </clipPath>
  </defs>
  <g clip-path="url(#clip__asset)" transform="translate(-420.0 -659.0)"><path d="M487.115 711.636H513.885H515L511.654 708.227H505.962H495.038H489.346L486 711.636H487.115Z" fill="white" id="n140"/>
<path d="M487.115 738.955H513.885V733H511.654H489.346H487.115V738.955Z" fill="white" id="n141"/>
<path d="M487.115 742C487.115 744.209 488.906 746 491.115 746H509.885C512.094 746 513.885 744.209 513.885 742V738.955H487.115V742Z" fill="white" id="n142"/>
<path d="M489.346 723H487.115V733H489.346V723Z" fill="white" id="n143"/>
<path d="M511.654 723V716.75H489.346V723V733H511.654V723Z" fill="white" id="n144"/>
<path d="M513.885 723H511.654V733H513.885V723Z" fill="white" id="n145"/>
<path d="M511.654 716.75L513.885 711.636H487.115L489.346 716.75H511.654Z" fill="white" id="n146"/>
<path d="M502.731 700H498.269L495.038 708.227H496.712L499.385 701.42H501.615L504.288 708.227H505.962L502.731 700Z" fill="white" id="n147"/>
<path d="M511.654 723H513.885V733M511.654 723V716.75M511.654 723V733M511.654 716.75L513.885 711.636M511.654 716.75H489.346M513.885 711.636H487.115M513.885 711.636H515L511.654 708.227H505.962M487.115 711.636L489.346 716.75M487.115 711.636H486L489.346 708.227H495.038M489.346 716.75V723M489.346 723H487.115V733M489.346 723V733M495.038 708.227H505.962M495.038 708.227L498.269 700H502.731L505.962 708.227M495.038 708.227H496.712L499.385 701.42H501.615L504.288 708.227H505.962M513.885 738.955V742C513.885 744.209 512.094 746 509.885 746H491.115C488.906 746 487.115 744.209 487.115 742V738.955M513.885 738.955H487.115M513.885 738.955V733M487.115 738.955V733M487.115 733H489.346M513.885 733H511.654M511.654 733H489.346" stroke="#8E8E8E" id="n148"/>
</g>
</svg>
