<?xml version='1.0' encoding='utf-8'?>
<svg xmlns="http://www.w3.org/2000/svg" xmlns:xlink="http://www.w3.org/1999/xlink" width="48.0" height="48.0" viewBox="0 0 48.0 48.0" fill="none">
  <defs>
    <clipPath id="clip__asset">
      <rect x="0" y="0" width="48.0" height="48.0"/>
    </clipPath>
  </defs>
  <g clip-path="url(#clip__asset)" transform="translate(-4128.0 -360.0)"><path d="M4136 377.6C4136 374.24 4136 372.56 4136.65 371.276C4137.23 370.147 4138.15 369.229 4139.28 368.654C4140.56 368 4142.24 368 4145.6 368H4158.4C4161.76 368 4163.44 368 4164.72 368.654C4165.85 369.229 4166.77 370.147 4167.35 371.276C4168 372.56 4168 374.24 4168 377.6V390.4C4168 393.76 4168 395.44 4167.35 396.724C4166.77 397.853 4165.85 398.771 4164.72 399.346C4163.44 400 4161.76 400 4158.4 400H4145.6C4142.24 400 4140.56 400 4139.28 399.346C4138.15 398.771 4137.23 397.853 4136.65 396.724C4136 395.44 4136 393.76 4136 390.4V377.6Z" fill="black" fill-opacity="0.1" id="n316"/>
<path fill-rule="evenodd" clip-rule="evenodd" d="M4144 391C4142.9 391 4142 390.105 4142 389V377C4142 375.895 4142.9 375 4144 375H4160C4161.1 375 4162 375.895 4162 377V389C4162 390.105 4161.1 391 4160 391H4155L4152 394L4149 391H4144ZM4152 385.576L4149.32 387.149C4148.94 387.373 4148.48 387.03 4148.58 386.601L4149.28 383.681L4146.94 381.718C4146.6 381.431 4146.78 380.871 4147.22 380.837L4150.33 380.595L4151.54 377.8C4151.72 377.399 4152.28 377.399 4152.46 377.8L4153.67 380.595L4156.78 380.837C4157.22 380.871 4157.4 381.431 4157.06 381.718L4154.72 383.681L4155.42 386.601C4155.52 387.03 4155.06 387.373 4154.68 387.149L4152 385.576Z" fill="#00805E" id="n317"/>
</g>
</svg>
