<?xml version='1.0' encoding='utf-8'?>
<svg xmlns="http://www.w3.org/2000/svg" xmlns:xlink="http://www.w3.org/1999/xlink" width="684.0" height="1137.0" viewBox="0 0 684.0 1137.0" fill="none">
  <defs><clipPath id="clip__asset"><rect x="0" y="0" width="684.0" height="1137.0"/></clipPath><mask id="mask58_68_6728" style="mask-type:alpha" maskUnits="userSpaceOnUse" x="10716" y="216" width="49" height="24">
<rect x="10716.5" y="228.5" width="47" height="7" rx="3.5" fill="black" stroke="black" id="n1005"/>
</mask>
<mask id="mask59_68_6728" style="mask-type:alpha" maskUnits="userSpaceOnUse" x="10716" y="704" width="49" height="24">
<rect x="0.5" y="-0.5" width="47" height="7" rx="3.5" transform="matrix(1 0 0 -1 10716 715)" fill="black" stroke="black" id="n1009"/>
</mask>
<mask id="mask60_68_6728" style="mask-type:alpha" maskUnits="userSpaceOnUse" x="10996" y="216" width="48" height="24">
<rect x="10996.5" y="228.5" width="47" height="7" rx="3.5" fill="black" stroke="black" id="n1014"/>
</mask>
<mask id="mask61_68_6728" style="mask-type:alpha" maskUnits="userSpaceOnUse" x="10996" y="704" width="48" height="24">
<rect x="0.5" y="-0.5" width="47" height="7" rx="3.5" transform="matrix(1 0 0 -1 10996 715)" fill="black" stroke="black" id="n1018"/>
</mask>
<clipPath id="clip94_68_6728">
<rect x="10608" y="200" width="684" height="1137" rx="5" fill="white" id="n2093"/>
</clipPath>
<pattern id="pattern26_68_6728" patternUnits="userSpaceOnUse" patternTransform="matrix(16 0 0 16 16 4)" preserveAspectRatio="none" viewBox="0 0 16 16" width="1" height="1">
<g id="pattern26_68_6728_inner">
<g clip-path="url(#clip95_68_6728)" id="n2242">
<path d="M-0.000693321 0L15.9993 16M-8 8L8 24M8 -8L24 8" stroke="#BEBEBE" stroke-width="6" id="n2243"/>
</g>
</g>
</pattern><pattern id="pattern27_68_6728" patternUnits="userSpaceOnUse" patternTransform="matrix(16 0 0 16 16 4)" preserveAspectRatio="none" viewBox="0 0 16 16" width="1" height="1">
<g id="pattern27_68_6728_inner">
<g clip-path="url(#clip96_68_6728)" id="n2244">
<path d="M-0.000693321 0L15.9993 16M-8 8L8 24M8 -8L24 8" stroke="#BEBEBE" stroke-width="6" id="n2245"/>
</g>
</g>
</pattern><pattern id="pattern28_68_6728" patternUnits="userSpaceOnUse" patternTransform="matrix(16 0 0 16 16 4)" preserveAspectRatio="none" viewBox="0 0 16 16" width="1" height="1">
<g id="pattern28_68_6728_inner">
<g clip-path="url(#clip97_68_6728)" id="n2246">
<path d="M-0.000693321 0L15.9993 16M-8 8L8 24M8 -8L24 8" stroke="#BEBEBE" stroke-width="6" id="n2247"/>
</g>
</g>
</pattern><pattern id="pattern29_68_6728" patternUnits="userSpaceOnUse" patternTransform="matrix(16 0 0 16 16 4)" preserveAspectRatio="none" viewBox="0 0 16 16" width="1" height="1">
<g id="pattern29_68_6728_inner">
<g clip-path="url(#clip98_68_6728)" id="n2248">
<path d="M-0.000693321 0L15.9993 16M-8 8L8 24M8 -8L24 8" stroke="#BEBEBE" stroke-width="6" id="n2249"/>
</g>
</g>
</pattern><clipPath id="clip95_68_6728">
<rect width="16" height="16" fill="white" id="n2304"/>
</clipPath>
<clipPath id="clip96_68_6728">
<rect width="16" height="16" fill="white" id="n2305"/>
</clipPath>
<clipPath id="clip97_68_6728">
<rect width="16" height="16" fill="white" id="n2306"/>
</clipPath>
<clipPath id="clip98_68_6728">
<rect width="16" height="16" fill="white" id="n2307"/>
</clipPath>
</defs>
  <g clip-path="url(#clip__asset)" transform="translate(-10608.0 -200.0)"><g clip-path="url(#clip94_68_6728)" id="n1000">
<rect x="10608" y="200" width="684" height="1137" rx="5" fill="#F0F0F0" id="n1001"/>
<rect x="10936.5" y="228.5" width="39" height="7" rx="3.5" fill="#2D548B" stroke="#2D548B" id="n1002"/>
<rect x="0.5" y="-0.5" width="39" height="7" rx="3.5" transform="matrix(1 0 0 -1 10936 715)" fill="#2D548B" stroke="#2D548B" id="n1003"/>
<rect x="10716.5" y="228.5" width="46.9999" height="7" rx="3.5" fill="white" stroke="#BEBEBE" id="n1004"/>
<mask id="mask58_68_6728" style="mask-type:alpha" maskUnits="userSpaceOnUse" x="10716" y="216" width="49" height="24">
<rect x="10716.5" y="228.5" width="47" height="7" rx="3.5" fill="black" stroke="black" id="n1005"/>
</mask>
<g mask="url(#mask58_68_6728)" id="n1006">
<rect width="48" height="24" transform="translate(10716 216)" fill="url(#pattern26_68_6728)" id="n1007"/>
</g>
<rect x="0.5" y="-0.5" width="46.9999" height="7" rx="3.5" transform="matrix(1 0 0 -1 10716 715)" fill="white" stroke="#BEBEBE" id="n1008"/>
<mask id="mask59_68_6728" style="mask-type:alpha" maskUnits="userSpaceOnUse" x="10716" y="704" width="49" height="24">
<rect x="0.5" y="-0.5" width="47" height="7" rx="3.5" transform="matrix(1 0 0 -1 10716 715)" fill="black" stroke="black" id="n1009"/>
</mask>
<g mask="url(#mask59_68_6728)" id="n1010">
<rect width="48" height="24" transform="matrix(1 0 0 -1 10716 728)" fill="url(#pattern27_68_6728)" id="n1011"/>
</g>
<path d="M10712 240V704M10764 240V704" stroke="#BEBEBE" stroke-linecap="square" stroke-dasharray="4 4" id="n1012"/>
<rect x="10996.5" y="228.5" width="46.9999" height="7" rx="3.5" fill="white" stroke="#BEBEBE" id="n1013"/>
<mask id="mask60_68_6728" style="mask-type:alpha" maskUnits="userSpaceOnUse" x="10996" y="216" width="48" height="24">
<rect x="10996.5" y="228.5" width="47" height="7" rx="3.5" fill="black" stroke="black" id="n1014"/>
</mask>
<g mask="url(#mask60_68_6728)" id="n1015">
<rect width="48" height="24" transform="translate(10996 216)" fill="url(#pattern28_68_6728)" id="n1016"/>
</g>
<rect x="0.5" y="-0.5" width="46.9999" height="7" rx="3.5" transform="matrix(1 0 0 -1 10996 715)" fill="white" stroke="#BEBEBE" id="n1017"/>
<mask id="mask61_68_6728" style="mask-type:alpha" maskUnits="userSpaceOnUse" x="10996" y="704" width="48" height="24">
<rect x="0.5" y="-0.5" width="47" height="7" rx="3.5" transform="matrix(1 0 0 -1 10996 715)" fill="black" stroke="black" id="n1018"/>
</mask>
<g mask="url(#mask61_68_6728)" id="n1019">
<rect width="48" height="24" transform="matrix(1 0 0 -1 10996 728)" fill="url(#pattern29_68_6728)" id="n1020"/>
</g>
<path d="M10996 240V704M11048 240V704" stroke="#BEBEBE" stroke-linecap="square" stroke-dasharray="4 4" id="n1021"/>
</g>
</g>
</svg>
