<?xml version='1.0' encoding='utf-8'?>
<svg xmlns="http://www.w3.org/2000/svg" xmlns:xlink="http://www.w3.org/1999/xlink" width="48.0" height="48.0" viewBox="0 0 48.0 48.0" fill="none">
  <defs><clipPath id="clip__asset"><rect x="0" y="0" width="48.0" height="48.0"/></clipPath><mask id="mask15_68_6728" style="mask-type:alpha" maskUnits="userSpaceOnUse" x="1107" y="252" width="28" height="11">
<path fill-rule="evenodd" clip-rule="evenodd" d="M1108.27 253.899C1109.05 253.118 1110.32 253.118 1111.1 253.899C1112.4 255.199 1113.94 256.231 1115.64 256.934C1117.34 257.638 1119.16 258 1121 258C1122.84 258 1124.66 257.638 1126.36 256.934C1128.06 256.231 1129.6 255.199 1130.9 253.899C1131.68 253.118 1132.95 253.118 1133.73 253.899C1134.51 254.68 1134.51 255.947 1133.73 256.728C1132.06 258.399 1130.07 259.725 1127.89 260.63C1125.7 261.534 1123.36 262 1121 262C1118.64 262 1116.29 261.534 1114.11 260.63C1111.93 259.725 1109.94 258.399 1108.27 256.728C1107.49 255.947 1107.49 254.68 1108.27 253.899Z" fill="white" stroke="black" stroke-linecap="round" id="n169"/>
</mask>
</defs>
  <g clip-path="url(#clip__asset)" transform="translate(-1097.0 -220.0)"><path d="M1121 262L1121 226" stroke="#BEBEBE" stroke-linecap="square" id="n164"/>
<path d="M1105.41 253C1103.83 250.264 1103 247.16 1103 244C1103 240.84 1103.83 237.736 1105.41 235C1106.99 232.264 1109.26 229.991 1112 228.412C1114.74 226.832 1117.84 226 1121 226C1124.16 226 1127.26 226.832 1130 228.412C1132.74 229.991 1135.01 232.264 1136.59 235C1138.17 237.736 1139 240.84 1139 244C1139 247.16 1138.17 250.264 1136.59 253" stroke="#BEBEBE" stroke-linecap="round" id="n165"/>
<path fill-rule="evenodd" clip-rule="evenodd" d="M1108.27 253.899C1109.05 253.118 1110.32 253.118 1111.1 253.899C1112.4 255.199 1113.94 256.231 1115.64 256.934C1117.34 257.638 1119.16 258 1121 258C1122.84 258 1124.66 257.638 1126.36 256.934C1128.06 256.231 1129.6 255.199 1130.9 253.899C1131.68 253.118 1132.95 253.118 1133.73 253.899C1134.51 254.68 1134.51 255.947 1133.73 256.728C1132.06 258.399 1130.07 259.725 1127.89 260.63C1125.7 261.534 1123.36 262 1121 262C1118.64 262 1116.29 261.534 1114.11 260.63C1111.93 259.725 1109.94 258.399 1108.27 256.728C1107.49 255.947 1107.49 254.68 1108.27 253.899Z" fill="white" stroke="#BEBEBE" stroke-linecap="round" id="n166"/>
<rect x="1120.52" y="243.871" width="1" height="18" rx="0.5" transform="rotate(15 1120.52 243.871)" fill="#2D548B" stroke="#2D548B" id="n167"/>
<path d="M1118.18 239.102L1125.9 241.172L1124.35 246.968C1124.06 248.035 1122.97 248.668 1121.9 248.382L1118.04 247.347C1116.97 247.061 1116.34 245.964 1116.62 244.897L1118.18 239.102Z" fill="white" stroke="#BEBEBE" id="n168"/>
<g mask="url(#mask15_68_6728)" id="n170">
<path d="M1121 268C1118.9 268 1116.81 267.725 1114.79 267.182L1121 244L1121 268Z" fill="#2D548B" id="n171"/>
</g>
</g>
</svg>
