<?xml version='1.0' encoding='utf-8'?>
<svg xmlns="http://www.w3.org/2000/svg" xmlns:xlink="http://www.w3.org/1999/xlink" width="88.0" height="168.0" viewBox="0 0 88.0 168.0" fill="none">
  <defs><clipPath id="clip__asset"><rect x="0" y="0" width="88.0" height="168.0"/></clipPath><mask id="mask29_68_6728" style="mask-type:luminance" maskUnits="userSpaceOnUse" x="2766" y="227" width="30" height="34">
<path d="M2793.25 228C2794.22 228 2795 228.895 2795 230L2795 258C2795 259.105 2794.22 260 2793.25 260H2768.75C2767.78 260 2767 259.105 2767 258L2767 230C2767 228.895 2767.78 228 2768.75 228L2793.25 228Z" fill="white" stroke="black" id="n370"/>
</mask>
<mask id="mask30_68_6728" style="mask-type:alpha" maskUnits="userSpaceOnUse" x="2794" y="227" width="6" height="34">
<path d="M2795 228H2797C2798.1 228 2799 228.895 2799 230V258C2799 259.105 2798.1 260 2797 260H2795V228Z" fill="white" stroke="white" id="n375"/>
</mask>
<mask id="mask31_68_6728" style="mask-type:luminance" maskUnits="userSpaceOnUse" x="2766" y="307" width="34" height="34">
<path d="M2797 308C2798.1 308 2799 308.895 2799 310L2799 338C2799 339.105 2798.1 340 2797 340H2769C2767.9 340 2767 339.105 2767 338L2767 310C2767 308.895 2767.9 308 2769 308L2797 308Z" fill="white" stroke="black" id="n379"/>
</mask>
<mask id="mask32_68_6728" style="mask-type:luminance" maskUnits="userSpaceOnUse" x="2794" y="307" width="6" height="34">
<path d="M2795 308H2797C2798.1 308 2799 308.895 2799 310V338C2799 339.105 2798.1 340 2797 340H2795V308Z" fill="white" stroke="black" id="n385"/>
</mask>
<clipPath id="clip16_68_6728">
<rect width="48" height="48" fill="white" transform="translate(2759 220)" id="n460"/>
</clipPath>
<clipPath id="clip17_68_6728">
<rect width="28" height="32" fill="white" transform="matrix(-1 0 0 1 2795 228)" id="n461"/>
</clipPath>
<clipPath id="clip18_68_6728">
<rect width="28" height="32" fill="white" transform="matrix(-1 0 0 1 2795 308)" id="n462"/>
</clipPath>
</defs>
  <g clip-path="url(#clip__asset)" transform="translate(-2739.0 -200.0)"><path d="M2817.67 200V200.5H2823C2824.93 200.5 2826.5 202.067 2826.5 204V208.849H2827V213.697H2826.5V223.394H2827V228.242H2826.5V237.939H2827V242.788H2826.5V252.484H2827V257.333H2826.5V267.03H2827V271.879H2826.5V281.576H2827V286.424H2826.5V296.121H2827V300.97H2826.5V310.667H2827V315.516H2826.5V325.212H2827V330.061H2826.5V339.758H2827V344.606H2826.5V354.303H2827V359.151H2826.5V364C2826.5 365.933 2824.93 367.5 2823 367.5H2817.67V368H2812.33V367.5H2801.67V368H2796.33V367.5H2785.67V368H2780.33V367.5H2769.67V368H2764.33V367.5H2753.67V368H2748.33V367.5H2743C2741.07 367.5 2739.5 365.933 2739.5 364V359.151H2739V354.303H2739.5V344.606H2739V339.758H2739.5V330.061H2739V325.212H2739.5V315.516H2739V310.667H2739.5V300.97H2739V296.121H2739.5V286.424H2739V281.576H2739.5V271.879H2739V267.03H2739.5V257.333H2739V252.484H2739.5V242.788H2739V237.939H2739.5V228.242H2739V223.394H2739.5V213.697H2739V208.849H2739.5V204C2739.5 202.067 2741.07 200.5 2743 200.5H2748.33V200H2753.67V200.5H2764.33V200H2769.67V200.5H2780.33V200H2785.67V200.5H2796.33V200H2801.67V200.5H2812.33V200H2817.67Z" fill="#F7F7F7" id="n366"/>
<g clip-path="url(#clip16_68_6728)" id="n368">
<rect x="2767" y="228" width="32" height="32" rx="2" fill="white" stroke="#BEBEBE" id="n369"/>
<mask id="mask29_68_6728" style="mask-type:luminance" maskUnits="userSpaceOnUse" x="2766" y="227" width="30" height="34">
<path d="M2793.25 228C2794.22 228 2795 228.895 2795 230L2795 258C2795 259.105 2794.22 260 2793.25 260H2768.75C2767.78 260 2767 259.105 2767 258L2767 230C2767 228.895 2767.78 228 2768.75 228L2793.25 228Z" fill="white" stroke="black" id="n370"/>
</mask>
<g mask="url(#mask29_68_6728)" id="n371">
<g clip-path="url(#clip17_68_6728)" id="n372">
<path d="M2767 248.018C2767 248.018 2767.53 248.865 2767.79 248.218C2768.06 247.57 2768.37 243.04 2768.63 243.04C2768.89 243.04 2768.94 245.066 2769.38 245.38C2769.82 245.694 2770.01 247.57 2770.17 247.57C2770.52 247.57 2770.57 247.023 2770.74 247.023C2770.92 247.023 2771.05 251.653 2771.32 251.653C2771.58 251.653 2772.02 246.674 2772.33 246.674C2772.48 246.674 2772.73 248.218 2773.04 248.218C2773.34 248.218 2773.56 248.367 2773.7 248.367C2773.96 248.367 2774.18 246.575 2774.44 246.575C2774.71 246.575 2774.62 250.408 2774.93 250.408C2775.24 250.408 2775.9 250.806 2776.47 250.806C2777.04 250.806 2777.53 249.91 2777.97 249.412C2778.41 248.915 2778.94 249.064 2779.55 249.064C2780.17 249.064 2780.35 248.715 2780.88 248.118C2781.12 247.846 2781.36 246.575 2781.71 246.376C2782.07 246.176 2782.69 242.144 2782.86 242.144C2783.17 242.144 2783.21 244.285 2783.52 244.285C2783.83 244.285 2783.83 243.538 2784.14 243.538C2784.44 243.538 2784.58 246.525 2784.97 246.525C2785.37 246.525 2785.24 240.8 2785.59 240.8C2785.94 240.8 2786.38 252.3 2786.78 252.3C2787.18 252.3 2787.04 249.462 2787.44 249.462C2787.84 249.462 2787.66 245.529 2788.06 245.529C2788.25 245.529 2788.89 247.62 2789.42 247.62C2789.95 247.62 2790.29 249.064 2790.52 249.064C2790.96 249.064 2791.01 248.915 2791.49 248.367C2791.98 247.819 2791.84 243.986 2792.11 243.986C2792.37 243.986 2792.33 248.666 2792.81 248.666C2793.3 248.666 2793.17 250.358 2793.65 250.358C2794.14 250.358 2794.93 249.064 2795.37 249.064" stroke="#2D548B" stroke-linecap="square" id="n373"/>
</g>
</g>
<path d="M2795 228V260" stroke="#BEBEBE" id="n374"/>
<mask id="mask30_68_6728" style="mask-type:alpha" maskUnits="userSpaceOnUse" x="2794" y="227" width="6" height="34">
<path d="M2795 228H2797C2798.1 228 2799 228.895 2799 230V258C2799 259.105 2798.1 260 2797 260H2795V228Z" fill="white" stroke="white" id="n375"/>
</mask>
<g mask="url(#mask30_68_6728)" id="n376">
<rect x="2767" y="246" width="32" height="14" fill="#2D548B" stroke="#2D548B" id="n377"/>
</g>
</g>
<rect x="2767" y="308" width="32" height="32" rx="2" fill="white" stroke="#BEBEBE" id="n378"/>
<g mask="url(#mask31_68_6728)" id="n380">
<g clip-path="url(#clip18_68_6728)" id="n381">
<path d="M2767.79 328.218C2767.53 328.865 2767 328.018 2767 328.018V349.6H2795.37V329.064C2794.93 329.064 2794.14 330.358 2793.65 330.358C2793.17 330.358 2793.3 328.666 2792.81 328.666C2792.33 328.666 2792.37 323.986 2792.11 323.986C2791.84 323.986 2791.98 327.819 2791.49 328.367C2791.01 328.915 2790.96 329.064 2790.52 329.064C2790.29 329.064 2789.95 327.62 2789.42 327.62C2788.89 327.62 2788.25 325.529 2788.06 325.529C2787.66 325.529 2787.84 329.462 2787.44 329.462C2787.04 329.462 2787.18 332.3 2786.78 332.3C2786.38 332.3 2785.94 320.8 2785.59 320.8C2785.24 320.8 2785.37 326.525 2784.97 326.525C2784.58 326.525 2784.44 323.538 2784.14 323.538C2783.83 323.538 2783.83 324.285 2783.52 324.285C2783.21 324.285 2783.17 322.144 2782.86 322.144C2782.69 322.144 2782.07 326.176 2781.71 326.376C2781.36 326.575 2781.12 327.846 2780.88 328.118C2780.35 328.715 2780.17 329.064 2779.55 329.064C2778.94 329.064 2778.41 328.915 2777.97 329.412C2777.53 329.91 2777.04 330.806 2776.47 330.806C2775.9 330.806 2775.24 330.408 2774.93 330.408C2774.62 330.408 2774.71 326.575 2774.44 326.575C2774.18 326.575 2773.96 328.367 2773.7 328.367C2773.56 328.367 2773.34 328.218 2773.04 328.218C2772.73 328.218 2772.48 326.674 2772.33 326.674C2772.02 326.674 2771.58 331.653 2771.32 331.653C2771.05 331.653 2770.92 327.023 2770.74 327.023C2770.57 327.023 2770.52 327.57 2770.17 327.57C2770.01 327.57 2769.82 325.694 2769.38 325.38C2768.94 325.066 2768.89 323.04 2768.63 323.04C2768.37 323.04 2768.06 327.57 2767.79 328.218Z" fill="#9CC1F5" id="n382"/>
<path d="M2767 328.018C2767 328.018 2767.53 328.865 2767.79 328.218C2768.06 327.57 2768.37 323.04 2768.63 323.04C2768.89 323.04 2768.94 325.066 2769.38 325.38C2769.82 325.694 2770.01 327.57 2770.17 327.57C2770.52 327.57 2770.57 327.023 2770.74 327.023C2770.92 327.023 2771.05 331.653 2771.32 331.653C2771.58 331.653 2772.02 326.674 2772.33 326.674C2772.48 326.674 2772.73 328.218 2773.04 328.218C2773.34 328.218 2773.56 328.367 2773.7 328.367C2773.96 328.367 2774.18 326.575 2774.44 326.575C2774.71 326.575 2774.62 330.408 2774.93 330.408C2775.24 330.408 2775.9 330.806 2776.47 330.806C2777.04 330.806 2777.53 329.91 2777.97 329.412C2778.41 328.915 2778.94 329.064 2779.55 329.064C2780.17 329.064 2780.35 328.715 2780.88 328.118C2781.12 327.846 2781.36 326.575 2781.71 326.376C2782.07 326.176 2782.69 322.144 2782.86 322.144C2783.17 322.144 2783.21 324.285 2783.52 324.285C2783.83 324.285 2783.83 323.538 2784.14 323.538C2784.44 323.538 2784.58 326.525 2784.97 326.525C2785.37 326.525 2785.24 320.8 2785.59 320.8C2785.94 320.8 2786.38 332.3 2786.78 332.3C2787.18 332.3 2787.04 329.462 2787.44 329.462C2787.84 329.462 2787.66 325.529 2788.06 325.529C2788.25 325.529 2788.89 327.62 2789.42 327.62C2789.95 327.62 2790.29 329.064 2790.52 329.064C2790.96 329.064 2791.01 328.915 2791.49 328.367C2791.98 327.819 2791.84 323.986 2792.11 323.986C2792.37 323.986 2792.33 328.666 2792.81 328.666C2793.3 328.666 2793.17 330.358 2793.65 330.358C2794.14 330.358 2794.93 329.064 2795.37 329.064" stroke="#2D548B" stroke-linecap="square" id="n383"/>
</g>
</g>
<path d="M2795 308V340" stroke="#BEBEBE" id="n384"/>
<g mask="url(#mask32_68_6728)" id="n386">
<rect x="2795" y="329" width="4" height="11" fill="#9CC1F5" stroke="#9CC1F5" id="n387"/>
<path d="M2799 329H2795" stroke="#2D548B" id="n388"/>
</g>
<circle cx="2797" cy="330" r="2" fill="#2D548B" stroke="#F7F7F7" id="n389"/>
</g>
</svg>
