<?xml version='1.0' encoding='utf-8'?>
<svg xmlns="http://www.w3.org/2000/svg" xmlns:xlink="http://www.w3.org/1999/xlink" width="368.0" height="368.0" viewBox="0 0 368.0 368.0" fill="none">
  <defs><clipPath id="clip__asset"><rect x="0" y="0" width="368.0" height="368.0"/></clipPath><mask id="mask113_68_6728" style="mask-type:luminance" maskUnits="userSpaceOnUse" x="8888" y="1112" width="512" height="512">
<path fill-rule="evenodd" clip-rule="evenodd" d="M9144 1552C9245.62 1552 9328 1469.62 9328 1368C9328 1266.38 9245.62 1184 9144 1184C9042.38 1184 8960 1266.38 8960 1368C8960 1469.62 9042.38 1552 9144 1552ZM9144 1528C9232.37 1528 9304 1456.37 9304 1368C9304 1279.63 9232.37 1208 9144 1208C9055.63 1208 8984 1279.63 8984 1368C8984 1456.37 9055.63 1528 9144 1528Z" fill="white" id="n681"/>
<path d="M9328 1368H9327.5C9327.5 1469.34 9245.34 1551.5 9144 1551.5V1552V1552.5C9245.9 1552.5 9328.5 1469.9 9328.5 1368H9328ZM9144 1184V1184.5C9245.34 1184.5 9327.5 1266.66 9327.5 1368H9328H9328.5C9328.5 1266.1 9245.9 1183.5 9144 1183.5V1184ZM8960 1368H8960.5C8960.5 1266.66 9042.66 1184.5 9144 1184.5V1184V1183.5C9042.1 1183.5 8959.5 1266.1 8959.5 1368H8960ZM9144 1552V1551.5C9042.66 1551.5 8960.5 1469.34 8960.5 1368H8960H8959.5C8959.5 1469.9 9042.1 1552.5 9144 1552.5V1552ZM9304 1368H9303.5C9303.5 1456.09 9232.09 1527.5 9144 1527.5V1528V1528.5C9232.64 1528.5 9304.5 1456.64 9304.5 1368H9304ZM9144 1208V1208.5C9232.09 1208.5 9303.5 1279.91 9303.5 1368H9304H9304.5C9304.5 1279.36 9232.64 1207.5 9144 1207.5V1208ZM8984 1368H8984.5C8984.5 1279.91 9055.91 1208.5 9144 1208.5V1208V1207.5C9055.36 1207.5 8983.5 1279.36 8983.5 1368H8984ZM9144 1528V1527.5C9055.91 1527.5 8984.5 1456.09 8984.5 1368H8984H8983.5C8983.5 1456.64 9055.36 1528.5 9144 1528.5V1528Z" fill="black" id="n682"/>
</mask>
<mask id="mask114_68_6728" style="mask-type:alpha" maskUnits="userSpaceOnUse" x="8888" y="1112" width="512" height="512">
<path d="M9144 1188C9243.41 1188 9324 1268.59 9324 1368C9324 1467.41 9243.41 1548 9144 1548C9044.59 1548 8964 1467.41 8964 1368C8964 1268.59 9044.59 1188 9144 1188ZM9144 1192C9046.8 1192 8968 1270.8 8968 1368C8968 1465.2 9046.8 1544 9144 1544C9241.2 1544 9320 1465.2 9320 1368C9320 1270.8 9241.2 1192 9144 1192Z" fill="white" id="n684"/>
</mask>
<mask id="mask115_68_6728" style="mask-type:alpha" maskUnits="userSpaceOnUse" x="8888" y="1112" width="512" height="512">
<path d="M9144 1188C9243.41 1188 9324 1268.59 9324 1368C9324 1467.41 9243.41 1548 9144 1548C9044.59 1548 8964 1467.41 8964 1368C8964 1268.59 9044.59 1188 9144 1188ZM9144 1196C9049.01 1196 8972 1273.01 8972 1368C8972 1462.99 9049.01 1540 9144 1540C9238.99 1540 9316 1462.99 9316 1368C9316 1273.01 9238.99 1196 9144 1196Z" fill="white" id="n687"/>
</mask>
<mask id="mask116_68_6728" style="mask-type:alpha" maskUnits="userSpaceOnUse" x="8888" y="1112" width="512" height="512">
<path d="M9144 1188C9243.41 1188 9324 1268.59 9324 1368C9324 1467.41 9243.41 1548 9144 1548C9044.59 1548 8964 1467.41 8964 1368C8964 1268.59 9044.59 1188 9144 1188ZM9144 1208C9055.63 1208 8984 1279.63 8984 1368C8984 1456.37 9055.63 1528 9144 1528C9232.37 1528 9304 1456.37 9304 1368C9304 1279.63 9232.37 1208 9144 1208Z" fill="white" id="n690"/>
</mask>
<mask id="mask117_68_6728" style="mask-type:alpha" maskUnits="userSpaceOnUse" x="8888" y="1112" width="512" height="512">
<path d="M9144 1180C9247.83 1180 9332 1264.17 9332 1368C9332 1471.83 9247.83 1556 9144 1556C9040.17 1556 8956 1471.83 8956 1368C8956 1264.17 9040.17 1180 9144 1180ZM9144 1208C9055.63 1208 8984 1279.63 8984 1368C8984 1456.37 9055.63 1528 9144 1528C9232.37 1528 9304 1456.37 9304 1368C9304 1279.63 9232.37 1208 9144 1208Z" fill="white" id="n693"/>
</mask>
</defs>
  <g clip-path="url(#clip__asset)" transform="translate(-8960.0 -1184.0)"><path d="M9144 1184C9245.62 1184 9328 1266.38 9328 1368C9328 1469.62 9245.62 1552 9144 1552C9042.38 1552 8960 1469.62 8960 1368C8960 1266.38 9042.38 1184 9144 1184ZM9144 1208C9055.63 1208 8984 1279.63 8984 1368C8984 1456.37 9055.63 1528 9144 1528C9232.37 1528 9304 1456.37 9304 1368C9304 1279.63 9232.37 1208 9144 1208Z" fill="white" id="n666"/>
<path d="M9144 1184V1184.5C9245.34 1184.5 9327.5 1266.66 9327.5 1368H9328H9328.5C9328.5 1266.1 9245.9 1183.5 9144 1183.5V1184ZM9328 1368H9327.5C9327.5 1469.34 9245.34 1551.5 9144 1551.5V1552V1552.5C9245.9 1552.5 9328.5 1469.9 9328.5 1368H9328ZM9144 1552V1551.5C9042.66 1551.5 8960.5 1469.34 8960.5 1368H8960H8959.5C8959.5 1469.9 9042.1 1552.5 9144 1552.5V1552ZM8960 1368H8960.5C8960.5 1266.66 9042.66 1184.5 9144 1184.5V1184V1183.5C9042.1 1183.5 8959.5 1266.1 8959.5 1368H8960ZM9144 1208V1207.5C9055.36 1207.5 8983.5 1279.36 8983.5 1368H8984H8984.5C8984.5 1279.91 9055.91 1208.5 9144 1208.5V1208ZM8984 1368H8983.5C8983.5 1456.64 9055.36 1528.5 9144 1528.5V1528V1527.5C9055.91 1527.5 8984.5 1456.09 8984.5 1368H8984ZM9144 1528V1528.5C9232.64 1528.5 9304.5 1456.64 9304.5 1368H9304H9303.5C9303.5 1456.09 9232.09 1527.5 9144 1527.5V1528ZM9304 1368H9304.5C9304.5 1279.36 9232.64 1207.5 9144 1207.5V1208V1208.5C9232.09 1208.5 9303.5 1279.91 9303.5 1368H9304Z" fill="#BEBEBE" id="n667"/>
<path d="M9144 1256V1256.5C9205.58 1256.5 9255.5 1306.42 9255.5 1368H9256H9256.5C9256.5 1305.87 9206.13 1255.5 9144 1255.5V1256ZM9256 1368H9255.5C9255.5 1429.58 9205.58 1479.5 9144 1479.5V1480V1480.5C9206.13 1480.5 9256.5 1430.13 9256.5 1368H9256ZM9144 1480V1479.5C9082.42 1479.5 9032.5 1429.58 9032.5 1368H9032H9031.5C9031.5 1430.13 9081.87 1480.5 9144 1480.5V1480ZM9032 1368H9032.5C9032.5 1306.42 9082.42 1256.5 9144 1256.5V1256V1255.5C9081.87 1255.5 9031.5 1305.87 9031.5 1368H9032ZM9144 1304V1303.5C9108.38 1303.5 9079.5 1332.38 9079.5 1368H9080H9080.5C9080.5 1332.93 9108.93 1304.5 9144 1304.5V1304ZM9080 1368H9079.5C9079.5 1403.62 9108.38 1432.5 9144 1432.5V1432V1431.5C9108.93 1431.5 9080.5 1403.07 9080.5 1368H9080ZM9144 1432V1432.5C9179.62 1432.5 9208.5 1403.62 9208.5 1368H9208H9207.5C9207.5 1403.07 9179.07 1431.5 9144 1431.5V1432ZM9208 1368H9208.5C9208.5 1332.38 9179.62 1303.5 9144 1303.5V1304V1304.5C9179.07 1304.5 9207.5 1332.93 9207.5 1368H9208Z" fill="#DDDDDD" id="n668"/>
<path d="M9141.33 1227H9140.41V1220.89C9140.41 1220.66 9140.41 1220.46 9140.41 1220.3C9140.42 1220.14 9140.42 1220 9140.42 1219.86C9140.43 1219.72 9140.44 1219.57 9140.44 1219.43C9140.32 1219.55 9140.21 1219.65 9140.11 1219.74C9140 1219.82 9139.88 1219.93 9139.72 1220.06L9138.72 1220.86L9138.22 1220.22L9140.54 1218.43H9141.33V1227ZM9150.19 1227H9144.6V1226.22L9146.9 1223.86C9147.33 1223.43 9147.68 1223.05 9147.97 1222.72C9148.27 1222.38 9148.49 1222.05 9148.64 1221.72C9148.8 1221.39 9148.87 1221.03 9148.87 1220.63C9148.87 1220.14 9148.72 1219.77 9148.43 1219.51C9148.14 1219.25 9147.76 1219.12 9147.29 1219.12C9146.88 1219.12 9146.52 1219.19 9146.2 1219.33C9145.88 1219.48 9145.55 1219.68 9145.22 1219.93L9144.72 1219.3C9144.94 1219.1 9145.19 1218.94 9145.45 1218.79C9145.72 1218.64 9146.01 1218.52 9146.32 1218.44C9146.63 1218.36 9146.95 1218.31 9147.29 1218.31C9147.81 1218.31 9148.26 1218.4 9148.63 1218.59C9149.02 1218.77 9149.31 1219.04 9149.52 1219.38C9149.73 1219.72 9149.83 1220.12 9149.83 1220.58C9149.83 1220.92 9149.78 1221.25 9149.68 1221.55C9149.58 1221.85 9149.44 1222.14 9149.24 1222.43C9149.06 1222.71 9148.83 1223 9148.56 1223.29C9148.3 1223.58 9148 1223.88 9147.68 1224.2L9145.79 1226.1V1226.14H9150.19V1227Z" fill="#707070" id="n669"/>
<path d="M9141.25 1515.34C9141.25 1514.81 9141.29 1514.3 9141.36 1513.82C9141.44 1513.32 9141.57 1512.86 9141.74 1512.44C9141.92 1512.01 9142.15 1511.64 9142.45 1511.32C9142.75 1511 9143.11 1510.75 9143.54 1510.58C9143.98 1510.4 9144.51 1510.31 9145.13 1510.31C9145.3 1510.31 9145.49 1510.32 9145.69 1510.34C9145.9 1510.35 9146.07 1510.38 9146.19 1510.42V1511.24C9146.05 1511.19 9145.89 1511.15 9145.7 1511.13C9145.52 1511.1 9145.33 1511.09 9145.14 1511.09C9144.6 1511.09 9144.15 1511.18 9143.77 1511.37C9143.4 1511.54 9143.11 1511.8 9142.88 1512.12C9142.66 1512.45 9142.49 1512.84 9142.38 1513.28C9142.27 1513.72 9142.21 1514.2 9142.19 1514.72H9142.26C9142.38 1514.52 9142.53 1514.35 9142.71 1514.19C9142.91 1514.02 9143.14 1513.89 9143.41 1513.79C9143.68 1513.7 9144 1513.65 9144.36 1513.65C9144.85 1513.65 9145.29 1513.75 9145.65 1513.96C9146.03 1514.17 9146.32 1514.46 9146.53 1514.85C9146.74 1515.23 9146.84 1515.7 9146.84 1516.25C9146.84 1516.84 9146.73 1517.34 9146.51 1517.78C9146.29 1518.21 9145.98 1518.54 9145.58 1518.77C9145.18 1519 9144.7 1519.12 9144.14 1519.12C9143.72 1519.12 9143.33 1519.04 9142.98 1518.88C9142.63 1518.72 9142.32 1518.48 9142.05 1518.16C9141.8 1517.84 9141.6 1517.44 9141.45 1516.97C9141.32 1516.5 9141.25 1515.96 9141.25 1515.34ZM9144.13 1518.32C9144.67 1518.32 9145.11 1518.15 9145.43 1517.81C9145.75 1517.47 9145.91 1516.95 9145.91 1516.25C9145.91 1515.68 9145.76 1515.24 9145.47 1514.91C9145.19 1514.57 9144.75 1514.4 9144.18 1514.4C9143.78 1514.4 9143.43 1514.48 9143.13 1514.64C9142.85 1514.8 9142.62 1515.01 9142.45 1515.26C9142.29 1515.5 9142.21 1515.76 9142.21 1516.01C9142.21 1516.28 9142.25 1516.54 9142.32 1516.82C9142.4 1517.08 9142.52 1517.33 9142.68 1517.56C9142.84 1517.78 9143.04 1517.97 9143.28 1518.11C9143.52 1518.25 9143.8 1518.32 9144.13 1518.32Z" fill="#707070" id="n670"/>
<path d="M9294.95 1366.42C9294.95 1366.81 9294.87 1367.14 9294.72 1367.43C9294.57 1367.71 9294.37 1367.94 9294.09 1368.12C9293.83 1368.29 9293.52 1368.42 9293.16 1368.49V1368.54C9293.84 1368.62 9294.35 1368.83 9294.69 1369.18C9295.04 1369.54 9295.21 1370 9295.21 1370.58C9295.21 1371.07 9295.09 1371.51 9294.86 1371.9C9294.63 1372.28 9294.27 1372.58 9293.79 1372.8C9293.32 1373.01 9292.71 1373.12 9291.97 1373.12C9291.51 1373.12 9291.09 1373.08 9290.7 1373.01C9290.31 1372.94 9289.95 1372.82 9289.61 1372.65V1371.76C9289.96 1371.93 9290.34 1372.07 9290.76 1372.17C9291.18 1372.27 9291.59 1372.32 9291.98 1372.32C9292.77 1372.32 9293.33 1372.16 9293.69 1371.85C9294.04 1371.54 9294.21 1371.11 9294.21 1370.56C9294.21 1370.18 9294.12 1369.88 9293.93 1369.65C9293.73 1369.42 9293.45 1369.25 9293.09 1369.15C9292.72 1369.04 9292.28 1368.98 9291.77 1368.98H9290.91V1368.16H9291.78C9292.24 1368.16 9292.63 1368.1 9292.95 1367.96C9293.28 1367.82 9293.53 1367.63 9293.71 1367.38C9293.89 1367.13 9293.97 1366.83 9293.97 1366.48C9293.97 1366.04 9293.83 1365.71 9293.53 1365.48C9293.24 1365.24 9292.85 1365.12 9292.34 1365.12C9292.04 1365.12 9291.76 1365.15 9291.5 1365.21C9291.25 1365.27 9291.02 1365.35 9290.79 1365.46C9290.58 1365.57 9290.36 1365.7 9290.13 1365.85L9289.67 1365.2C9289.88 1365.04 9290.12 1364.89 9290.39 1364.76C9290.66 1364.62 9290.95 1364.51 9291.27 1364.43C9291.6 1364.35 9291.95 1364.31 9292.33 1364.31C9293.2 1364.31 9293.85 1364.51 9294.29 1364.9C9294.73 1365.29 9294.95 1365.8 9294.95 1366.42Z" fill="#707070" id="n671"/>
<path d="M8998.27 1368.08C8998.27 1368.61 8998.23 1369.12 8998.15 1369.62C8998.08 1370.11 8997.95 1370.57 8997.78 1371C8997.6 1371.42 8997.37 1371.79 8997.07 1372.11C8996.77 1372.43 8996.41 1372.68 8995.97 1372.86C8995.53 1373.03 8995 1373.12 8994.38 1373.12C8994.21 1373.12 8994.02 1373.11 8993.81 1373.08C8993.59 1373.07 8993.41 1373.04 8993.28 1373V1372.18C8993.42 1372.23 8993.59 1372.27 8993.78 1372.3C8993.98 1372.33 8994.18 1372.34 8994.37 1372.34C8994.91 1372.34 8995.37 1372.25 8995.74 1372.08C8996.11 1371.89 8996.4 1371.64 8996.63 1371.32C8996.86 1370.99 8997.03 1370.61 8997.13 1370.17C8997.24 1369.72 8997.31 1369.24 8997.32 1368.72H8997.25C8997.14 1368.91 8996.99 1369.09 8996.79 1369.26C8996.6 1369.42 8996.37 1369.54 8996.1 1369.64C8995.83 1369.74 8995.51 1369.78 8995.14 1369.78C8994.64 1369.78 8994.21 1369.68 8993.83 1369.47C8993.46 1369.26 8993.18 1368.97 8992.98 1368.58C8992.78 1368.2 8992.68 1367.74 8992.68 1367.19C8992.68 1366.6 8992.79 1366.09 8993.01 1365.66C8993.24 1365.22 8993.55 1364.89 8993.95 1364.66C8994.36 1364.43 8994.84 1364.31 8995.39 1364.31C8995.81 1364.31 8996.2 1364.4 8996.55 1364.56C8996.91 1364.72 8997.21 1364.96 8997.47 1365.28C8997.72 1365.6 8997.92 1366 8998.05 1366.47C8998.2 1366.94 8998.27 1367.47 8998.27 1368.08ZM8995.39 1365.12C8994.85 1365.12 8994.42 1365.29 8994.09 1365.63C8993.77 1365.98 8993.61 1366.49 8993.61 1367.18C8993.61 1367.76 8993.75 1368.21 8994.03 1368.54C8994.31 1368.86 8994.75 1369.03 8995.33 1369.03C8995.74 1369.03 8996.09 1368.95 8996.37 1368.79C8996.67 1368.63 8996.9 1368.42 8997.06 1368.18C8997.23 1367.93 8997.31 1367.67 8997.31 1367.41C8997.31 1367.16 8997.27 1366.9 8997.19 1366.63C8997.12 1366.36 8997 1366.11 8996.84 1365.88C8996.69 1365.65 8996.49 1365.47 8996.24 1365.33C8996 1365.19 8995.72 1365.12 8995.39 1365.12Z" fill="#707070" id="n672"/>
<path d="M9015.89 1300L9014.97 1300L9014.97 1293.89C9014.97 1293.66 9014.97 1293.46 9014.97 1293.3C9014.98 1293.14 9014.98 1293 9014.98 1292.86C9014.99 1292.72 9015 1292.57 9015.01 1292.43C9014.89 1292.55 9014.77 1292.65 9014.67 1292.74C9014.57 1292.82 9014.44 1292.93 9014.29 1293.06L9013.28 1293.86L9012.79 1293.22L9015.1 1291.43L9015.89 1291.43L9015.89 1300ZM9024.81 1295.7C9024.81 1296.4 9024.76 1297.02 9024.65 1297.58C9024.54 1298.12 9024.38 1298.58 9024.15 1298.96C9023.93 1299.33 9023.64 1299.62 9023.28 1299.82C9022.92 1300.02 9022.49 1300.12 9021.98 1300.12C9021.36 1300.12 9020.83 1299.95 9020.41 1299.6C9019.99 1299.25 9019.68 1298.75 9019.47 1298.09C9019.27 1297.43 9019.17 1296.63 9019.17 1295.7C9019.17 1294.79 9019.27 1294.01 9019.45 1293.35C9019.63 1292.69 9019.93 1292.18 9020.35 1291.83C9020.77 1291.48 9021.31 1291.3 9021.98 1291.3C9022.63 1291.3 9023.16 1291.48 9023.58 1291.83C9023.99 1292.18 9024.3 1292.68 9024.5 1293.34C9024.71 1294 9024.81 1294.78 9024.81 1295.7ZM9020.12 1295.7C9020.12 1296.51 9020.18 1297.18 9020.3 1297.72C9020.43 1298.25 9020.63 1298.65 9020.9 1298.92C9021.17 1299.18 9021.53 1299.32 9021.98 1299.32C9022.43 1299.32 9022.79 1299.18 9023.06 1298.92C9023.33 1298.66 9023.53 1298.26 9023.66 1297.72C9023.79 1297.18 9023.85 1296.51 9023.85 1295.7C9023.85 1294.91 9023.79 1294.25 9023.66 1293.72C9023.54 1293.19 9023.35 1292.78 9023.07 1292.51C9022.81 1292.24 9022.45 1292.1 9021.98 1292.1C9021.53 1292.1 9021.16 1292.24 9020.89 1292.52C9020.62 1292.8 9020.42 1293.2 9020.3 1293.74C9020.18 1294.26 9020.12 1294.92 9020.12 1295.7Z" fill="#707070" id="n673"/>
<path d="M9271.14 1444L9269.85 1444L9269.85 1446L9268.93 1446L9268.93 1444L9264.77 1444L9264.77 1443.2L9268.86 1437.38L9269.85 1437.38L9269.85 1443.14L9271.14 1443.14L9271.14 1444ZM9268.93 1440.3C9268.93 1440.08 9268.93 1439.89 9268.93 1439.72C9268.93 1439.55 9268.94 1439.39 9268.95 1439.24C9268.95 1439.09 9268.96 1438.95 9268.96 1438.81C9268.97 1438.67 9268.97 1438.53 9268.98 1438.4L9268.93 1438.4C9268.86 1438.56 9268.78 1438.73 9268.68 1438.91C9268.59 1439.08 9268.49 1439.23 9268.38 1439.36L9265.71 1443.14L9268.93 1443.14L9268.93 1440.3Z" fill="#707070" id="n674"/>
<path d="M9220.27 1246.56L9219.34 1246.56L9219.34 1240.45C9219.34 1240.22 9219.34 1240.02 9219.34 1239.86C9219.35 1239.7 9219.36 1239.56 9219.36 1239.42C9219.36 1239.28 9219.37 1239.13 9219.38 1238.99C9219.26 1239.11 9219.15 1239.21 9219.04 1239.3C9218.94 1239.38 9218.81 1239.49 9218.66 1239.62L9217.65 1240.42L9217.16 1239.78L9219.48 1237.99L9220.27 1237.99L9220.27 1246.56Z" fill="#707070" id="n675"/>
<path d="M9066.78 1499.44L9070.31 1491.74L9065.62 1491.74L9065.62 1490.87L9071.32 1490.87L9071.32 1491.59L9067.83 1499.44L9066.78 1499.44Z" fill="#707070" id="n676"/>
<path d="M9069.34 1246.56H9068.41V1240.45C9068.41 1240.22 9068.41 1240.02 9068.41 1239.86C9068.42 1239.7 9068.42 1239.56 9068.42 1239.42C9068.43 1239.28 9068.44 1239.13 9068.45 1238.99C9068.33 1239.11 9068.22 1239.21 9068.11 1239.3C9068.01 1239.38 9067.88 1239.49 9067.73 1239.62L9066.72 1240.42L9066.23 1239.78L9068.54 1237.99H9069.34V1246.56ZM9076.2 1246.56H9075.28V1240.45C9075.28 1240.22 9075.28 1240.02 9075.28 1239.86C9075.29 1239.7 9075.29 1239.56 9075.29 1239.42C9075.3 1239.28 9075.31 1239.13 9075.31 1238.99C9075.19 1239.11 9075.08 1239.21 9074.98 1239.3C9074.87 1239.38 9074.75 1239.49 9074.59 1239.62L9073.59 1240.42L9073.09 1239.78L9075.41 1237.99H9076.2V1246.56Z" fill="#707070" id="n677"/>
<path d="M9219.37 1494.21C9219.95 1494.21 9220.46 1494.31 9220.88 1494.51C9221.31 1494.71 9221.64 1495 9221.88 1495.37C9222.11 1495.74 9222.22 1496.19 9222.22 1496.73C9222.22 1497.31 9222.1 1497.82 9221.84 1498.24C9221.59 1498.66 9221.23 1498.99 9220.75 1499.22C9220.28 1499.45 9219.71 1499.56 9219.06 1499.56C9218.61 1499.56 9218.19 1499.52 9217.81 1499.44C9217.43 1499.35 9217.11 1499.24 9216.85 1499.09V1498.19C9217.13 1498.36 9217.47 1498.5 9217.87 1498.6C9218.28 1498.7 9218.68 1498.76 9219.07 1498.76C9219.51 1498.76 9219.89 1498.68 9220.22 1498.54C9220.55 1498.4 9220.8 1498.18 9220.99 1497.89C9221.17 1497.6 9221.26 1497.24 9221.26 1496.81C9221.26 1496.24 9221.08 1495.79 9220.72 1495.48C9220.37 1495.16 9219.82 1495 9219.07 1495C9218.83 1495 9218.56 1495.02 9218.26 1495.07C9217.98 1495.11 9217.74 1495.16 9217.54 1495.2L9217.06 1494.89L9217.39 1490.87H9221.65V1491.74H9218.19L9217.98 1494.35C9218.12 1494.33 9218.31 1494.3 9218.55 1494.27C9218.79 1494.23 9219.06 1494.21 9219.37 1494.21Z" fill="#707070" id="n678"/>
<path d="M9275.7 1300H9270.11V1299.22L9272.41 1296.86C9272.83 1296.43 9273.19 1296.05 9273.48 1295.72C9273.77 1295.38 9274 1295.05 9274.15 1294.72C9274.3 1294.39 9274.38 1294.03 9274.38 1293.63C9274.38 1293.14 9274.23 1292.77 9273.93 1292.51C9273.65 1292.25 9273.27 1292.12 9272.79 1292.12C9272.39 1292.12 9272.02 1292.19 9271.7 1292.33C9271.38 1292.48 9271.06 1292.68 9270.73 1292.93L9270.23 1292.3C9270.45 1292.1 9270.69 1291.94 9270.96 1291.79C9271.23 1291.64 9271.52 1291.52 9271.82 1291.44C9272.13 1291.36 9272.46 1291.31 9272.79 1291.31C9273.31 1291.31 9273.76 1291.4 9274.14 1291.59C9274.52 1291.77 9274.82 1292.04 9275.03 1292.38C9275.23 1292.72 9275.34 1293.12 9275.34 1293.58C9275.34 1293.92 9275.29 1294.25 9275.18 1294.55C9275.09 1294.85 9274.94 1295.14 9274.75 1295.43C9274.57 1295.71 9274.34 1296 9274.07 1296.29C9273.8 1296.58 9273.51 1296.88 9273.19 1297.2L9271.29 1299.1V1299.14H9275.7V1300Z" fill="#707070" id="n679"/>
<path d="M9015.05 1437.31C9015.54 1437.31 9015.98 1437.39 9016.36 1437.55C9016.74 1437.7 9017.04 1437.93 9017.26 1438.24C9017.47 1438.54 9017.58 1438.91 9017.58 1439.35C9017.58 1439.7 9017.5 1440 9017.35 1440.25C9017.21 1440.51 9017.01 1440.74 9016.75 1440.94C9016.5 1441.13 9016.21 1441.3 9015.9 1441.45C9016.27 1441.62 9016.6 1441.81 9016.9 1442.03C9017.19 1442.24 9017.42 1442.48 9017.59 1442.77C9017.77 1443.05 9017.86 1443.39 9017.86 1443.79C9017.86 1444.27 9017.74 1444.68 9017.51 1445.03C9017.28 1445.37 9016.95 1445.64 9016.52 1445.83C9016.11 1446.02 9015.62 1446.12 9015.07 1446.12C9014.47 1446.12 9013.96 1446.03 9013.54 1445.84C9013.11 1445.66 9012.79 1445.4 9012.56 1445.06C9012.35 1444.72 9012.24 1444.31 9012.24 1443.83C9012.24 1443.43 9012.32 1443.08 9012.49 1442.8C9012.66 1442.5 9012.88 1442.25 9013.16 1442.04C9013.45 1441.83 9013.76 1441.66 9014.09 1441.51C9013.8 1441.35 9013.54 1441.17 9013.3 1440.97C9013.06 1440.77 9012.86 1440.54 9012.72 1440.28C9012.58 1440.01 9012.52 1439.7 9012.52 1439.34C9012.52 1438.91 9012.62 1438.54 9012.84 1438.25C9013.06 1437.94 9013.36 1437.71 9013.74 1437.55C9014.12 1437.39 9014.56 1437.31 9015.05 1437.31ZM9013.16 1443.84C9013.16 1444.28 9013.32 1444.64 9013.63 1444.93C9013.95 1445.22 9014.42 1445.36 9015.05 1445.36C9015.45 1445.36 9015.79 1445.3 9016.07 1445.17C9016.35 1445.04 9016.56 1444.85 9016.7 1444.62C9016.86 1444.38 9016.93 1444.1 9016.93 1443.79C9016.93 1443.5 9016.86 1443.25 9016.7 1443.04C9016.56 1442.81 9016.35 1442.62 9016.08 1442.45C9015.81 1442.27 9015.48 1442.12 9015.1 1441.98L9014.89 1441.9C9014.52 1442.05 9014.21 1442.22 9013.96 1442.4C9013.7 1442.58 9013.5 1442.78 9013.37 1443.01C9013.23 1443.24 9013.16 1443.52 9013.16 1443.84ZM9015.04 1438.08C9014.57 1438.08 9014.19 1438.19 9013.88 1438.42C9013.59 1438.64 9013.44 1438.96 9013.44 1439.39C9013.44 1439.68 9013.51 1439.94 9013.66 1440.14C9013.81 1440.35 9014.01 1440.53 9014.26 1440.67C9014.5 1440.82 9014.78 1440.96 9015.1 1441.09C9015.4 1440.96 9015.66 1440.82 9015.89 1440.67C9016.12 1440.52 9016.3 1440.34 9016.44 1440.13C9016.58 1439.92 9016.64 1439.67 9016.64 1439.38C9016.64 1438.95 9016.5 1438.63 9016.2 1438.42C9015.91 1438.19 9015.52 1438.08 9015.04 1438.08Z" fill="#707070" id="n680"/>
<g mask="url(#mask113_68_6728)" id="n683">
<mask id="mask114_68_6728" style="mask-type:alpha" maskUnits="userSpaceOnUse" x="8888" y="1112" width="512" height="512">
<path d="M9144 1188C9243.41 1188 9324 1268.59 9324 1368C9324 1467.41 9243.41 1548 9144 1548C9044.59 1548 8964 1467.41 8964 1368C8964 1268.59 9044.59 1188 9144 1188ZM9144 1192C9046.8 1192 8968 1270.8 8968 1368C8968 1465.2 9046.8 1544 9144 1544C9241.2 1544 9320 1465.2 9320 1368C9320 1270.8 9241.2 1192 9144 1192Z" fill="white" id="n684"/>
</mask>
<g mask="url(#mask114_68_6728)" id="n685">
<path d="M9144 1168L9144 1368M9144 1368L9144 1568M9144 1368L9123.1 1169.1M9144 1368L9164.91 1566.9M9144 1368L9082.2 1177.79M9144 1368L9205.81 1558.21M9144 1368L9062.65 1185.29M9144 1368L9225.35 1550.71M9144 1368L9044 1194.8M9144 1368L9244 1541.21M9144 1368L9026.44 1206.2M9144 1368L9261.56 1529.8M9144 1368L9010.17 1219.37M9144 1368L9277.83 1516.63M9144 1368L8995.37 1234.18M9144 1368L9292.63 1501.83M9144 1368L8982.2 1250.45M9144 1368L9305.8 1485.56M9144 1368L8970.79 1268M9144 1368L9317.2 1468M9144 1368L8961.29 1286.66M9144 1368L9326.71 1449.35M9144 1368L8953.79 1306.2M9144 1368L9334.21 1429.81M9144 1368L8948.37 1326.42M9144 1368L9339.63 1409.59M9144 1368L8945.1 1347.1M9144 1368L9342.91 1388.91M9144 1368L8944 1368.01M9144 1368L9344 1368.01M9144 1368L8945.1 1388.91M9144 1368L9342.9 1347.1M9144 1368L8948.37 1409.59M9144 1368L9339.63 1326.42M9144 1368L8953.79 1429.81M9144 1368L9334.21 1306.2M9144 1368L8961.29 1449.35M9144 1368L9326.71 1286.66M9144 1368L8970.8 1468.01M9144 1368L9317.21 1268.01M9144 1368L8982.2 1485.57M9144 1368L9305.8 1250.45M9144 1368L8995.37 1501.83M9144 1368L9292.63 1234.18M9144 1368L9010.18 1516.64M9144 1368L9277.83 1219.38M9144 1368L9026.45 1529.81M9144 1368L9261.56 1206.21M9144 1368L9044 1541.21M9144 1368L9244 1194.8M9144 1368L9062.66 1550.72M9144 1368L9225.35 1185.3M9144 1368L9082.2 1558.22M9144 1368L9205.81 1177.8M9144 1368L9102.42 1563.64M9144 1368L9185.59 1172.38M9144 1368L9102.42 1172.37M9144 1368L9185.59 1563.63M9144 1368L9123.1 1566.91M9144 1368L9164.91 1169.1" stroke="#BEBEBE" id="n686"/>
</g>
<mask id="mask115_68_6728" style="mask-type:alpha" maskUnits="userSpaceOnUse" x="8888" y="1112" width="512" height="512">
<path d="M9144 1188C9243.41 1188 9324 1268.59 9324 1368C9324 1467.41 9243.41 1548 9144 1548C9044.59 1548 8964 1467.41 8964 1368C8964 1268.59 9044.59 1188 9144 1188ZM9144 1196C9049.01 1196 8972 1273.01 8972 1368C8972 1462.99 9049.01 1540 9144 1540C9238.99 1540 9316 1462.99 9316 1368C9316 1273.01 9238.99 1196 9144 1196Z" fill="white" id="n687"/>
</mask>
<g mask="url(#mask115_68_6728)" id="n688">
<path d="M9144 1168L9144 1368M9144 1568L9144 1368M9044 1194.79L9144 1368M9244 1541.21L9144 1368M8970.79 1268L9144 1368M9317.21 1468L9144 1368M8944 1368H9144M9344 1368L9144 1368M8970.79 1468L9144 1368M9317.21 1268L9144 1368M9044 1541.21L9144 1368M9244 1194.79L9144 1368" stroke="#BEBEBE" id="n689"/>
</g>
<mask id="mask116_68_6728" style="mask-type:alpha" maskUnits="userSpaceOnUse" x="8888" y="1112" width="512" height="512">
<path d="M9144 1188C9243.41 1188 9324 1268.59 9324 1368C9324 1467.41 9243.41 1548 9144 1548C9044.59 1548 8964 1467.41 8964 1368C8964 1268.59 9044.59 1188 9144 1188ZM9144 1208C9055.63 1208 8984 1279.63 8984 1368C8984 1456.37 9055.63 1528 9144 1528C9232.37 1528 9304 1456.37 9304 1368C9304 1279.63 9232.37 1208 9144 1208Z" fill="white" id="n690"/>
</mask>
<g mask="url(#mask116_68_6728)" id="n691">
<path d="M9344 1368H9144M8944 1368L9144 1368M9144 1168V1368M9144 1568V1368" stroke="#BEBEBE" id="n692"/>
</g>
<mask id="mask117_68_6728" style="mask-type:alpha" maskUnits="userSpaceOnUse" x="8888" y="1112" width="512" height="512">
<path d="M9144 1180C9247.83 1180 9332 1264.17 9332 1368C9332 1471.83 9247.83 1556 9144 1556C9040.17 1556 8956 1471.83 8956 1368C8956 1264.17 9040.17 1180 9144 1180ZM9144 1208C9055.63 1208 8984 1279.63 8984 1368C8984 1456.37 9055.63 1528 9144 1528C9232.37 1528 9304 1456.37 9304 1368C9304 1279.63 9232.37 1208 9144 1208Z" fill="white" id="n693"/>
</mask>
<g mask="url(#mask117_68_6728)" id="n694">
<path d="M9144 1168V1368M9144 1368H8944M9144 1368V1568M9144 1368H9344" stroke="#BEBEBE" id="n695"/>
</g>
</g>
<path d="M9072 1368C9072 1355.36 9075.33 1342.95 9081.65 1332C9087.97 1321.05 9097.05 1311.97 9108 1305.65" stroke="#4271B3" stroke-width="4" stroke-linecap="round" id="n696"/>
<path d="M9073.85 1327.5C9084.59 1308.9 9102.29 1295.32 9123.04 1289.76C9143.79 1284.2 9165.9 1287.11 9184.5 1297.85" stroke="#26A07B" stroke-width="4" stroke-linecap="round" id="n697"/>
<path d="M9144 1487C9128.37 1487 9112.9 1483.92 9098.46 1477.94C9084.02 1471.96 9070.9 1463.2 9059.85 1452.15C9048.8 1441.1 9040.04 1427.98 9034.06 1413.54C9028.08 1399.1 9025 1383.63 9025 1368C9025 1352.37 9028.08 1336.9 9034.06 1322.46C9040.04 1308.02 9048.8 1294.9 9059.85 1283.85C9070.9 1272.8 9084.02 1264.04 9098.46 1258.06C9112.9 1252.08 9128.37 1249 9144 1249" stroke="#26A07B" stroke-width="4" stroke-linecap="round" id="n698"/>
<rect x="9155.13" y="1346.71" width="2" height="24" rx="0.999999" transform="rotate(30 9155.13 1346.71)" fill="#535353" stroke="#535353" stroke-width="2" id="n699"/>
<rect x="9208.54" y="1248.22" width="8" height="112" rx="4" transform="rotate(30 9208.54 1248.22)" fill="white" stroke="#535353" stroke-width="4" id="n700"/>
<rect x="9142.54" y="1362.53" width="8" height="8" rx="4" transform="rotate(30 9142.54 1362.53)" fill="#535353" stroke="#535353" stroke-width="4" id="n701"/>
<rect x="9122.71" y="1356.86" width="2" height="24" rx="0.999999" transform="rotate(-60 9122.71 1356.86)" fill="#535353" stroke="#535353" stroke-width="2" id="n702"/>
<rect x="9057.99" y="1322.96" width="8" height="73" rx="4" transform="rotate(-60 9057.99 1322.96)" fill="#535353" stroke="#535353" stroke-width="4" id="n703"/>
<rect x="9138.54" y="1369.46" width="8" height="8" rx="4" transform="rotate(-60 9138.54 1369.46)" fill="#535353" stroke="#535353" stroke-width="4" id="n704"/>
<rect x="9146.5" y="1525.49" width="5" height="175" rx="2.5" transform="rotate(-180 9146.5 1525.49)" fill="#2D548B" stroke="white" stroke-width="3" id="n705"/>
<rect x="9145" y="1523.99" width="2" height="172" rx="0.999999" transform="rotate(-180 9145 1523.99)" fill="#2D548B" stroke="#2D548B" stroke-width="2" id="n706"/>
<rect x="9150" y="1373.99" width="12" height="12" rx="6" transform="rotate(-180 9150 1373.99)" fill="white" stroke="#2D548B" stroke-width="4" id="n707"/>
</g>
</svg>
