<?xml version='1.0' encoding='utf-8'?>
<svg xmlns="http://www.w3.org/2000/svg" xmlns:xlink="http://www.w3.org/1999/xlink" width="160.0" height="160.0" viewBox="0 0 160.0 160.0" fill="none">
  <defs>
    <clipPath id="clip__asset">
      <rect x="0" y="0" width="160.0" height="160.0"/>
    </clipPath>
  </defs>
  <g clip-path="url(#clip__asset)" transform="translate(-3281.0 -752.0)"><path fill-rule="evenodd" clip-rule="evenodd" d="M3399 784C3403.42 784 3407 787.582 3407 792V876C3407 876.162 3406.99 876.322 3406.97 876.479C3406.94 876.712 3406.89 876.94 3406.83 877.159C3406.82 877.182 3406.81 877.205 3406.81 877.228C3406.75 877.39 3406.69 877.548 3406.62 877.701C3406.61 877.72 3406.6 877.739 3406.59 877.758C3406.57 877.797 3406.55 877.836 3406.53 877.875C3406.52 877.894 3406.51 877.912 3406.5 877.931C3406.48 877.969 3406.46 878.007 3406.44 878.045C3406.43 878.058 3406.42 878.071 3406.41 878.084C3406.36 878.179 3406.29 878.271 3406.23 878.36C3406.22 878.376 3406.21 878.392 3406.19 878.407C3405.97 878.704 3405.7 878.969 3405.41 879.193C3405.39 879.205 3405.38 879.216 3405.36 879.228C3405.27 879.293 3405.18 879.356 3405.08 879.414C3405.07 879.422 3405.06 879.429 3405.04 879.437C3405.01 879.459 3404.97 879.482 3404.93 879.503C3404.91 879.513 3404.89 879.523 3404.88 879.533C3404.84 879.554 3404.8 879.573 3404.76 879.593C3404.74 879.602 3404.72 879.611 3404.7 879.62C3404.66 879.64 3404.62 879.658 3404.58 879.676C3404.57 879.68 3404.56 879.685 3404.54 879.689C3404.44 879.733 3404.34 879.772 3404.23 879.807C3404.2 879.814 3404.18 879.821 3404.16 879.828C3404.12 879.84 3404.08 879.852 3404.04 879.863C3404.02 879.867 3404.01 879.872 3403.99 879.876C3403.93 879.891 3403.87 879.904 3403.81 879.916C3403.81 879.917 3403.81 879.918 3403.8 879.919C3403.75 879.93 3403.69 879.94 3403.63 879.949C3403.62 879.951 3403.61 879.953 3403.6 879.954C3403.56 879.96 3403.52 879.965 3403.48 879.97C3403.46 879.972 3403.43 879.977 3403.41 879.979L3403.21 879.995L3403 880H3319L3318.79 879.995C3318.7 879.99 3318.61 879.981 3318.52 879.97C3318.48 879.965 3318.44 879.96 3318.4 879.954C3318.39 879.953 3318.38 879.951 3318.37 879.949C3318.31 879.94 3318.25 879.93 3318.2 879.919C3318.19 879.918 3318.19 879.917 3318.18 879.916C3318.13 879.904 3318.07 879.891 3318.01 879.876C3317.99 879.872 3317.98 879.867 3317.96 879.863C3317.92 879.852 3317.88 879.84 3317.84 879.828C3317.82 879.821 3317.79 879.814 3317.77 879.807C3317.66 879.772 3317.56 879.733 3317.45 879.689C3317.44 879.685 3317.43 879.68 3317.42 879.676C3317.38 879.658 3317.34 879.64 3317.3 879.62C3317.28 879.611 3317.26 879.602 3317.24 879.593C3317.2 879.573 3317.16 879.554 3317.12 879.533C3317.11 879.523 3317.09 879.513 3317.07 879.503C3317.03 879.482 3316.99 879.459 3316.95 879.437C3316.94 879.429 3316.93 879.422 3316.92 879.414C3316.82 879.356 3316.73 879.293 3316.64 879.228C3316.62 879.216 3316.61 879.205 3316.59 879.193C3316.29 878.969 3316.03 878.704 3315.81 878.407C3315.79 878.392 3315.78 878.376 3315.77 878.36C3315.71 878.271 3315.64 878.179 3315.58 878.084C3315.58 878.071 3315.57 878.058 3315.56 878.045C3315.54 878.007 3315.52 877.969 3315.5 877.931C3315.49 877.912 3315.48 877.894 3315.47 877.875C3315.45 877.836 3315.43 877.797 3315.41 877.758C3315.4 877.739 3315.39 877.72 3315.38 877.701C3315.31 877.548 3315.24 877.39 3315.19 877.228C3315.19 877.205 3315.18 877.182 3315.17 877.159C3315.1 876.94 3315.06 876.712 3315.03 876.479C3315.01 876.322 3315 876.162 3315 876V792C3315 787.582 3318.58 784 3323 784H3399ZM3323 788C3320.86 788 3319.11 789.681 3319 791.794L3319 792V872H3403V792C3403 789.791 3401.21 788 3399 788H3323Z" fill="#8E8E8E" id="n328"/>
<rect x="3323.5" y="833.5" width="13" height="43" rx="1.5" fill="white" stroke="#8E8E8E" id="n329"/>
<rect x="3385.5" y="833.5" width="13" height="43" rx="1.5" fill="white" stroke="#8E8E8E" id="n330"/>
<path d="M3328 833.5H3332C3332.83 833.5 3333.5 834.172 3333.5 835V852.5H3326.5V835L3326.51 834.847C3326.58 834.09 3327.22 833.5 3328 833.5Z" fill="white" stroke="#8E8E8E" id="n331"/>
<path d="M3390 833.5H3394C3394.83 833.5 3395.5 834.172 3395.5 835V852.5H3388.5V835L3388.51 834.847C3388.58 834.09 3389.22 833.5 3390 833.5Z" fill="white" stroke="#8E8E8E" id="n332"/>
<path d="M3313 792C3313 787.582 3316.58 784 3321 784H3401C3405.42 784 3409 787.582 3409 792V828C3409 830.209 3407.21 832 3405 832H3317C3314.79 832 3313 830.209 3313 828V792Z" fill="white" stroke="#8E8E8E" id="n333"/>
<path d="M3321 800C3321 797.791 3322.79 796 3325 796H3397C3399.21 796 3401 797.791 3401 800V832H3321V800Z" fill="white" stroke="#8E8E8E" id="n334"/>
<path d="M3401 852C3401 852.552 3400.55 853 3400 853H3395.85C3395.36 853 3394.94 852.647 3394.86 852.164L3394.53 850.164C3394.43 849.555 3394.9 849 3395.51 849H3397.82C3398.37 849 3398.82 848.552 3398.82 848V846C3398.82 845.448 3398.37 845 3397.82 845H3394.51C3394.03 845 3393.61 844.647 3393.53 844.164L3393.19 842.164C3393.09 841.555 3393.56 841 3394.18 841H3400C3400.55 841 3401 841.448 3401 842V852Z" fill="#8E8E8E" id="n335"/>
<path d="M3339 852C3339 852.552 3338.55 853 3338 853H3333.85C3333.36 853 3332.94 852.647 3332.86 852.164L3332.53 850.164C3332.43 849.555 3332.9 849 3333.51 849H3335.82C3336.37 849 3336.82 848.552 3336.82 848V846C3336.82 845.448 3336.37 845 3335.82 845H3332.51C3332.03 845 3331.61 844.647 3331.53 844.164L3331.19 842.164C3331.09 841.555 3331.56 841 3332.18 841H3338C3338.55 841 3339 841.448 3339 842V852Z" fill="#8E8E8E" id="n336"/>
<path d="M3383 852C3383 852.552 3383.45 853 3384 853H3388.15C3388.64 853 3389.06 852.647 3389.14 852.164L3389.47 850.164C3389.57 849.555 3389.1 849 3388.49 849H3386C3385.45 849 3385 848.552 3385 848V846C3385 845.448 3385.45 845 3386 845H3389.49C3389.97 845 3390.39 844.647 3390.47 844.164L3390.81 842.164C3390.91 841.555 3390.44 841 3389.82 841H3384C3383.45 841 3383 841.448 3383 842V852Z" fill="#8E8E8E" id="n337"/>
<path d="M3321 852C3321 852.552 3321.45 853 3322 853H3326.15C3326.64 853 3327.06 852.647 3327.14 852.164L3327.47 850.164C3327.57 849.555 3327.1 849 3326.49 849H3324C3323.45 849 3323 848.552 3323 848V846C3323 845.448 3323.45 845 3324 845H3327.49C3327.98 845 3328.39 844.647 3328.47 844.164L3328.81 842.164C3328.91 841.555 3328.44 841 3327.82 841H3322C3321.45 841 3321 841.448 3321 842V852Z" fill="#8E8E8E" id="n338"/>
<path d="M3401 826L3321 826M3401 818L3321 818M3401 810L3321 810M3401 802L3321 802" stroke="#8E8E8E" stroke-linecap="round" id="n339"/>
<circle cx="3361" cy="814" r="10" transform="rotate(90 3361 814)" fill="white" stroke="#8E8E8E" id="n340"/>
<circle cx="3361" cy="814" r="6" transform="rotate(90 3361 814)" fill="#8E8E8E" stroke="#8E8E8E" id="n341"/>
<ellipse cx="3361" cy="870" rx="8" ry="8" transform="rotate(90 3361 870)" fill="white" stroke="#8E8E8E" id="n342"/>
<circle cx="3361" cy="870" r="5" transform="rotate(90 3361 870)" fill="#8E8E8E" stroke="#8E8E8E" id="n343"/>
<ellipse cx="3327" cy="802" rx="4" ry="4" transform="rotate(90 3327 802)" fill="#8E8E8E" stroke="#8E8E8E" id="n344"/>
<ellipse cx="3395" cy="802" rx="4" ry="4" transform="rotate(90 3395 802)" fill="#8E8E8E" stroke="#8E8E8E" id="n345"/>
<ellipse cx="3386" cy="802" rx="2" ry="2" transform="rotate(90 3386 802)" fill="#8E8E8E" stroke="#8E8E8E" id="n346"/>
<ellipse cx="3362" cy="812" rx="2" ry="2" transform="rotate(90 3362 812)" fill="white" stroke="#8E8E8E" id="n347"/>
<ellipse cx="3380" cy="802" rx="2" ry="2" transform="rotate(90 3380 802)" fill="#8E8E8E" stroke="#8E8E8E" id="n348"/>
<path d="M3355 766C3355 762.686 3357.69 760 3361 760C3364.31 760 3367 762.686 3367 766V784H3355V766Z" fill="white" stroke="#8E8E8E" id="n349"/>
<rect x="3357" y="762" width="8" height="16" rx="4" fill="#F0F0F0" stroke="#8E8E8E" id="n350"/>
</g>
</svg>
