<?xml version='1.0' encoding='utf-8'?>
<svg xmlns="http://www.w3.org/2000/svg" xmlns:xlink="http://www.w3.org/1999/xlink" width="384.0" height="384.0" viewBox="0 0 384.0 384.0" fill="none">
  <defs><clipPath id="clip__asset"><rect x="0" y="0" width="384.0" height="384.0"/></clipPath><mask id="mask240_68_6728" style="mask-type:luminance" maskUnits="userSpaceOnUse" x="224" y="1367" width="512" height="513">
<path d="M479.999 1812C529.036 1812 573.69 1793.22 607.161 1762.47C610.415 1759.48 610.404 1754.4 607.279 1751.28L595.965 1739.96C566.287 1769.64 525.287 1788 480 1788C434.713 1788 393.712 1769.64 364.034 1739.96L352.721 1751.28C349.597 1754.4 349.585 1759.48 352.839 1762.47C386.31 1793.22 430.962 1812 479.999 1812Z" fill="white" id="n1947"/>
<path d="M479.999 1812V1812.5V1812.5V1812ZM607.161 1762.47L607.499 1762.84V1762.84L607.161 1762.47ZM607.279 1751.28L607.633 1750.92V1750.92L607.279 1751.28ZM595.965 1739.96L595.611 1739.61L595.965 1739.26L596.318 1739.61L595.965 1739.96ZM480 1788V1788.5V1788.5V1788ZM364.034 1739.96L363.681 1739.61L364.034 1739.26L364.388 1739.61L364.034 1739.96ZM352.721 1751.28L352.367 1750.92L352.367 1750.92L352.721 1751.28ZM352.839 1762.47L352.501 1762.84L352.501 1762.84L352.839 1762.47ZM479.999 1812V1811.5C528.906 1811.5 573.44 1792.78 606.823 1762.1L607.161 1762.47L607.499 1762.84C573.939 1793.67 529.167 1812.5 479.999 1812.5V1812ZM607.161 1762.47L606.823 1762.1C609.857 1759.32 609.859 1754.56 606.926 1751.63L607.279 1751.28L607.633 1750.92C610.948 1754.24 610.973 1759.65 607.499 1762.84L607.161 1762.47ZM607.279 1751.28L606.926 1751.63L595.611 1740.32L595.965 1739.96L596.318 1739.61L607.633 1750.92L607.279 1751.28ZM595.965 1739.96L596.318 1740.32C566.55 1770.09 525.425 1788.5 480 1788.5V1788V1787.5C525.149 1787.5 566.023 1769.2 595.611 1739.61L595.965 1739.96ZM480 1788V1788.5C434.575 1788.5 393.449 1770.09 363.681 1740.32L364.034 1739.96L364.388 1739.61C393.976 1769.2 434.851 1787.5 480 1787.5V1788ZM364.034 1739.96L364.388 1740.32L353.074 1751.63L352.721 1751.28L352.367 1750.92L363.681 1739.61L364.034 1739.96ZM352.721 1751.28L353.074 1751.63C350.141 1754.56 350.143 1759.32 353.177 1762.1L352.839 1762.47L352.501 1762.84C349.027 1759.65 349.052 1754.24 352.367 1750.92L352.721 1751.28ZM352.839 1762.47L353.177 1762.1C386.56 1792.77 431.092 1811.5 479.999 1811.5V1812V1812.5C430.832 1812.5 386.06 1793.67 352.501 1762.84L352.839 1762.47Z" fill="black" id="n1948"/>
</mask>
<mask id="mask241_68_6728" style="mask-type:alpha" maskUnits="userSpaceOnUse" x="224" y="1367" width="512" height="513">
<path d="M480 1448C577.202 1448 656 1526.8 656 1624C656 1721.2 577.202 1800 480 1800C382.798 1800 304 1721.2 304 1624C304 1526.8 382.798 1448 480 1448ZM480 1456C387.216 1456 312 1531.22 312 1624C312 1716.78 387.216 1792 480 1792C572.784 1792 648 1716.78 648 1624C648 1531.22 572.784 1456 480 1456Z" fill="black" id="n1950"/>
</mask>
<mask id="mask242_68_6728" style="mask-type:alpha" maskUnits="userSpaceOnUse" x="224" y="1367" width="512" height="513">
<path d="M480 1432C586.039 1432 672 1517.96 672 1624C672 1730.04 586.039 1816 480 1816C373.961 1816 288 1730.04 288 1624C288 1517.96 373.961 1432 480 1432ZM480 1456C387.216 1456 312 1531.22 312 1624C312 1716.78 387.216 1792 480 1792C572.784 1792 648 1716.78 648 1624C648 1531.22 572.784 1456 480 1456Z" fill="black" id="n1953"/>
</mask>
<mask id="mask243_68_6728" style="mask-type:alpha" maskUnits="userSpaceOnUse" x="224" y="1367" width="512" height="513">
<path d="M480 1432C586.039 1432 672 1517.96 672 1624C672 1730.04 586.039 1816 480 1816C373.961 1816 288 1730.04 288 1624C288 1517.96 373.961 1432 480 1432ZM480 1460C389.425 1460 316 1533.42 316 1624C316 1714.57 389.425 1788 480 1788C570.575 1788 644 1714.57 644 1624C644 1533.42 570.575 1460 480 1460Z" fill="black" id="n1956"/>
</mask>
<mask id="mask244_68_6728" style="mask-type:alpha" maskUnits="userSpaceOnUse" x="224" y="1367" width="512" height="513">
<path d="M479.999 1788C434.712 1788 393.712 1769.64 364.034 1739.97L392.318 1711.68C395.443 1708.56 400.491 1708.58 403.821 1711.48C403.899 1711.55 403.977 1711.62 404.055 1711.68C404.093 1711.72 404.132 1711.75 404.171 1711.79C404.461 1712.04 404.752 1712.29 405.045 1712.53C405.146 1712.62 405.249 1712.7 405.351 1712.79C405.554 1712.96 405.757 1713.13 405.962 1713.3C406.148 1713.46 406.335 1713.61 406.522 1713.76C406.69 1713.9 406.858 1714.04 407.026 1714.17C407.164 1714.29 407.301 1714.4 407.438 1714.51C407.681 1714.7 407.924 1714.9 408.168 1715.09C408.282 1715.18 408.396 1715.27 408.51 1715.36C408.771 1715.56 409.034 1715.77 409.298 1715.97C409.379 1716.03 409.461 1716.09 409.542 1716.16C410.621 1716.98 411.714 1717.79 412.822 1718.58C412.905 1718.64 412.988 1718.7 413.071 1718.75C413.356 1718.96 413.643 1719.16 413.93 1719.36C414.024 1719.42 414.118 1719.49 414.212 1719.55C414.49 1719.74 414.769 1719.94 415.049 1720.12C415.159 1720.2 415.27 1720.27 415.38 1720.35C415.653 1720.53 415.926 1720.71 416.2 1720.89C416.292 1720.95 416.384 1721.01 416.476 1721.07C416.76 1721.26 417.044 1721.45 417.33 1721.63C417.431 1721.69 417.532 1721.76 417.633 1721.82C417.917 1722.01 418.203 1722.19 418.489 1722.37C418.606 1722.44 418.723 1722.51 418.84 1722.58C419.087 1722.74 419.335 1722.89 419.584 1723.04C419.711 1723.12 419.837 1723.2 419.964 1723.27C420.291 1723.47 420.619 1723.67 420.948 1723.86C420.994 1723.89 421.04 1723.92 421.086 1723.95C422.646 1724.87 424.229 1725.75 425.834 1726.6C425.996 1726.69 426.159 1726.77 426.322 1726.86C426.581 1726.99 426.84 1727.13 427.101 1727.26C427.207 1727.32 427.314 1727.37 427.42 1727.42C427.723 1727.58 428.027 1727.73 428.332 1727.88C428.441 1727.94 428.55 1727.99 428.659 1728.05C428.939 1728.19 429.219 1728.32 429.5 1728.46C429.653 1728.53 429.806 1728.61 429.96 1728.68C430.21 1728.8 430.462 1728.92 430.713 1729.04C430.89 1729.12 431.068 1729.2 431.246 1729.29C431.474 1729.39 431.701 1729.5 431.93 1729.6C432.094 1729.68 432.258 1729.75 432.422 1729.82C432.708 1729.95 432.995 1730.08 433.282 1730.21C433.407 1730.26 433.531 1730.32 433.655 1730.37C433.978 1730.51 434.302 1730.65 434.627 1730.79C434.718 1730.83 434.809 1730.87 434.9 1730.91C436.162 1731.44 437.434 1731.95 438.718 1732.44C438.861 1732.49 439.006 1732.55 439.149 1732.6C439.426 1732.7 439.703 1732.81 439.98 1732.91C440.184 1732.98 440.388 1733.06 440.592 1733.13C440.789 1733.2 440.986 1733.27 441.184 1733.34C441.423 1733.43 441.664 1733.51 441.904 1733.6C442.112 1733.67 442.32 1733.74 442.528 1733.81C442.732 1733.88 442.937 1733.95 443.142 1734.02C443.359 1734.09 443.578 1734.16 443.796 1734.24C444.011 1734.31 444.227 1734.38 444.442 1734.45C444.667 1734.52 444.893 1734.59 445.118 1734.66C445.329 1734.73 445.54 1734.79 445.752 1734.86C445.996 1734.93 446.241 1735.01 446.486 1735.08C446.661 1735.14 446.836 1735.19 447.011 1735.24C447.274 1735.32 447.538 1735.39 447.803 1735.47C447.991 1735.53 448.18 1735.58 448.369 1735.63C448.627 1735.71 448.886 1735.78 449.145 1735.85C449.321 1735.9 449.498 1735.95 449.675 1736C450.552 1736.23 451.433 1736.46 452.318 1736.68C452.509 1736.72 452.701 1736.77 452.892 1736.81C453.143 1736.87 453.395 1736.93 453.647 1736.99C453.847 1737.04 454.047 1737.08 454.247 1737.13C454.505 1737.19 454.762 1737.25 455.021 1737.3C455.193 1737.34 455.365 1737.38 455.538 1737.41C455.825 1737.48 456.112 1737.54 456.399 1737.6C456.58 1737.63 456.761 1737.67 456.942 1737.71C457.202 1737.76 457.463 1737.81 457.724 1737.86C457.933 1737.9 458.142 1737.94 458.352 1737.98C458.584 1738.03 458.816 1738.07 459.049 1738.11C459.283 1738.15 459.517 1738.2 459.752 1738.24C459.978 1738.28 460.205 1738.32 460.432 1738.35C460.644 1738.39 460.857 1738.43 461.07 1738.46C461.393 1738.51 461.716 1738.57 462.04 1738.62C462.161 1738.64 462.282 1738.65 462.403 1738.67C462.75 1738.73 463.098 1738.78 463.445 1738.83C463.575 1738.84 463.704 1738.86 463.834 1738.88C464.08 1738.92 464.327 1738.95 464.574 1738.98C464.96 1739.03 465.346 1739.08 465.732 1739.13C466.037 1739.17 466.342 1739.2 466.647 1739.24C466.752 1739.25 466.857 1739.26 466.962 1739.27C467.296 1739.31 467.63 1739.35 467.965 1739.38C468.225 1739.41 468.485 1739.43 468.745 1739.46C468.945 1739.48 469.145 1739.5 469.345 1739.52C469.589 1739.54 469.834 1739.56 470.079 1739.58C470.322 1739.6 470.566 1739.62 470.81 1739.64C471.016 1739.66 471.222 1739.67 471.429 1739.69C471.702 1739.71 471.975 1739.73 472.248 1739.74C472.447 1739.76 472.647 1739.77 472.847 1739.78C473.139 1739.8 473.432 1739.82 473.725 1739.83C473.89 1739.84 474.055 1739.85 474.221 1739.86C474.53 1739.87 474.84 1739.89 475.15 1739.9C475.33 1739.91 475.51 1739.91 475.69 1739.92C476.019 1739.93 476.348 1739.94 476.678 1739.95C476.816 1739.96 476.955 1739.96 477.094 1739.96C477.495 1739.97 477.896 1739.98 478.298 1739.99C478.376 1739.99 478.455 1739.99 478.533 1739.99C479.021 1740 479.51 1740 479.999 1740C480.488 1740 480.976 1740 481.464 1739.99C481.546 1739.99 481.629 1739.99 481.711 1739.99C482.109 1739.98 482.506 1739.97 482.903 1739.96C483.045 1739.96 483.186 1739.96 483.327 1739.95C483.654 1739.94 483.981 1739.93 484.308 1739.92C484.49 1739.91 484.672 1739.91 484.854 1739.9C485.16 1739.89 485.466 1739.87 485.771 1739.86C485.943 1739.85 486.114 1739.84 486.285 1739.83C486.571 1739.81 486.857 1739.8 487.143 1739.78C487.349 1739.77 487.555 1739.76 487.761 1739.74C488.026 1739.72 488.292 1739.71 488.557 1739.69C488.771 1739.67 488.986 1739.66 489.2 1739.64C489.434 1739.62 489.668 1739.6 489.901 1739.58C490.156 1739.56 490.41 1739.54 490.664 1739.51C490.85 1739.5 491.035 1739.48 491.221 1739.46C491.495 1739.44 491.77 1739.41 492.044 1739.38C492.345 1739.35 492.646 1739.32 492.947 1739.28C493.085 1739.27 493.223 1739.25 493.361 1739.24C493.638 1739.21 493.914 1739.17 494.19 1739.14C494.65 1739.08 495.108 1739.02 495.565 1738.96C495.761 1738.94 495.958 1738.91 496.153 1738.88C496.311 1738.86 496.468 1738.84 496.626 1738.82C496.945 1738.77 497.264 1738.72 497.582 1738.67C497.72 1738.65 497.857 1738.63 497.995 1738.61C498.306 1738.56 498.616 1738.51 498.926 1738.46C499.15 1738.43 499.375 1738.39 499.599 1738.35C499.809 1738.31 500.019 1738.28 500.229 1738.24C500.473 1738.2 500.716 1738.15 500.96 1738.11C501.189 1738.07 501.419 1738.02 501.647 1737.98C501.857 1737.94 502.066 1737.9 502.275 1737.86C502.532 1737.81 502.789 1737.76 503.045 1737.71C503.236 1737.67 503.427 1737.63 503.618 1737.59C503.89 1737.54 504.162 1737.48 504.434 1737.42C504.617 1737.38 504.8 1737.34 504.983 1737.3C505.24 1737.24 505.496 1737.19 505.752 1737.13C505.952 1737.08 506.152 1737.04 506.352 1736.99C506.604 1736.93 506.856 1736.87 507.107 1736.81C507.299 1736.77 507.49 1736.72 507.681 1736.68C508.559 1736.46 509.433 1736.24 510.304 1736C510.519 1735.94 510.733 1735.88 510.947 1735.82C511.175 1735.76 511.403 1735.7 511.63 1735.63C511.819 1735.58 512.008 1735.53 512.196 1735.47C512.459 1735.39 512.722 1735.32 512.983 1735.24C513.178 1735.18 513.372 1735.13 513.566 1735.07C513.778 1735 513.99 1734.94 514.201 1734.87C514.48 1734.79 514.758 1734.7 515.036 1734.61C515.173 1734.57 515.31 1734.53 515.447 1734.48C515.711 1734.4 515.974 1734.31 516.236 1734.23C516.444 1734.16 516.651 1734.09 516.857 1734.02C517.062 1733.95 517.267 1733.88 517.471 1733.81C517.679 1733.74 517.887 1733.67 518.095 1733.6C518.335 1733.51 518.576 1733.43 518.815 1733.34C519.013 1733.27 519.21 1733.2 519.407 1733.13C519.611 1733.06 519.815 1732.98 520.019 1732.91C520.237 1732.83 520.456 1732.75 520.674 1732.67C520.903 1732.58 521.132 1732.5 521.36 1732.41C521.422 1732.38 521.483 1732.36 521.545 1732.34C522.516 1731.96 523.48 1731.58 524.438 1731.18C524.647 1731.09 524.856 1731.01 525.063 1730.92C525.197 1730.86 525.329 1730.81 525.462 1730.75C525.752 1730.63 526.041 1730.5 526.33 1730.38C526.507 1730.3 526.684 1730.22 526.86 1730.14C527.069 1730.05 527.277 1729.96 527.485 1729.87C527.722 1729.76 527.957 1729.65 528.192 1729.54C528.353 1729.47 528.513 1729.4 528.673 1729.32C528.934 1729.2 529.195 1729.08 529.455 1728.96C529.586 1728.9 529.716 1728.83 529.847 1728.77C530.106 1728.65 530.364 1728.52 530.622 1728.4C530.796 1728.31 530.969 1728.23 531.142 1728.14C531.352 1728.04 531.562 1727.94 531.771 1727.83C531.965 1727.74 532.158 1727.64 532.351 1727.54C532.563 1727.43 532.776 1727.33 532.987 1727.22C533.143 1727.14 533.297 1727.06 533.452 1726.98C534.087 1726.65 534.718 1726.31 535.346 1725.97C535.729 1725.76 536.111 1725.55 536.492 1725.34C536.543 1725.31 536.593 1725.28 536.644 1725.25C536.982 1725.06 537.319 1724.87 537.655 1724.68C537.807 1724.59 537.958 1724.5 538.108 1724.42C538.349 1724.28 538.59 1724.14 538.83 1723.99C538.982 1723.9 539.133 1723.81 539.284 1723.72C539.512 1723.59 539.74 1723.45 539.967 1723.32C540.139 1723.21 540.31 1723.11 540.481 1723C540.692 1722.87 540.903 1722.74 541.112 1722.61C541.291 1722.5 541.469 1722.39 541.647 1722.28C541.825 1722.17 542.003 1722.05 542.18 1721.94C542.402 1721.8 542.623 1721.66 542.844 1721.52C542.993 1721.42 543.142 1721.32 543.291 1721.23C543.496 1721.09 543.702 1720.96 543.906 1720.82C544.082 1720.71 544.257 1720.59 544.432 1720.47C544.63 1720.34 544.827 1720.21 545.024 1720.07C545.235 1719.93 545.444 1719.79 545.653 1719.64C545.795 1719.55 545.936 1719.45 546.077 1719.35C546.281 1719.21 546.483 1719.07 546.686 1718.92C547.388 1718.43 548.085 1717.93 548.775 1717.42C548.957 1717.28 549.139 1717.15 549.32 1717.02C549.488 1716.89 549.655 1716.76 549.822 1716.64C550.011 1716.5 550.2 1716.35 550.388 1716.21C550.569 1716.07 550.748 1715.93 550.928 1715.79C551.089 1715.67 551.251 1715.54 551.411 1715.42C551.595 1715.27 551.779 1715.13 551.962 1714.98C552.141 1714.84 552.32 1714.7 552.498 1714.56C552.669 1714.42 552.84 1714.28 553.011 1714.14C553.166 1714.02 553.322 1713.89 553.477 1713.76C553.664 1713.61 553.851 1713.46 554.037 1713.3C554.223 1713.15 554.409 1712.99 554.594 1712.84C554.734 1712.72 554.873 1712.6 555.013 1712.48C555.228 1712.3 555.442 1712.12 555.656 1711.93C555.774 1711.83 555.892 1711.73 556.009 1711.63C556.065 1711.58 556.121 1711.53 556.177 1711.48C559.508 1708.58 564.556 1708.56 567.68 1711.68L595.965 1739.97C566.287 1769.64 525.286 1788 479.999 1788Z" fill="white" stroke="black" id="n1960"/>
</mask>
<clipPath id="clip50_68_6728">
<rect width="21" height="16" fill="white" transform="translate(460 1634)" id="n2554"/>
</clipPath>
<clipPath id="clip51_68_6728">
<rect width="24" height="16" fill="white" transform="translate(485 1634)" id="n2555"/>
</clipPath>
</defs>
  <g clip-path="url(#clip__asset)" transform="translate(-288.0 -1432.0)"><path d="M480 1812C430.963 1812 386.31 1793.22 352.838 1762.47C349.585 1759.48 349.596 1754.4 352.72 1751.28L364.035 1739.96C393.713 1769.64 434.712 1788 479.999 1788C525.287 1788 566.287 1769.64 595.965 1739.96L607.279 1751.28C610.403 1754.4 610.414 1759.48 607.161 1762.47C573.689 1793.22 529.037 1812 480 1812Z" fill="white" stroke="white" id="n1943"/>
<path d="M479.999 1788C434.712 1788 393.712 1769.64 364.034 1739.97L392.318 1711.68C395.443 1708.56 400.491 1708.58 403.821 1711.48C403.899 1711.55 403.977 1711.62 404.055 1711.68C404.093 1711.72 404.132 1711.75 404.171 1711.79C404.461 1712.04 404.752 1712.29 405.045 1712.53C405.146 1712.62 405.249 1712.7 405.351 1712.79C405.554 1712.96 405.757 1713.13 405.962 1713.3C406.148 1713.46 406.335 1713.61 406.522 1713.76C406.69 1713.9 406.858 1714.04 407.026 1714.17C407.164 1714.29 407.301 1714.4 407.438 1714.51C407.681 1714.7 407.924 1714.9 408.168 1715.09C408.282 1715.18 408.396 1715.27 408.51 1715.36C408.771 1715.56 409.034 1715.77 409.298 1715.97C409.379 1716.03 409.461 1716.09 409.542 1716.16C410.621 1716.98 411.714 1717.79 412.822 1718.58C412.905 1718.64 412.988 1718.7 413.071 1718.75C413.356 1718.96 413.643 1719.16 413.93 1719.36C414.024 1719.42 414.118 1719.49 414.212 1719.55C414.49 1719.74 414.769 1719.94 415.049 1720.12C415.159 1720.2 415.27 1720.27 415.38 1720.35C415.653 1720.53 415.926 1720.71 416.2 1720.89C416.292 1720.95 416.384 1721.01 416.476 1721.07C416.76 1721.26 417.044 1721.45 417.33 1721.63C417.431 1721.69 417.532 1721.76 417.633 1721.82C417.917 1722.01 418.203 1722.19 418.489 1722.37C418.606 1722.44 418.723 1722.51 418.84 1722.58C419.087 1722.74 419.335 1722.89 419.584 1723.04C419.711 1723.12 419.837 1723.2 419.964 1723.27C420.291 1723.47 420.619 1723.67 420.948 1723.86C420.994 1723.89 421.04 1723.92 421.086 1723.95C422.646 1724.87 424.229 1725.75 425.834 1726.6C425.996 1726.69 426.159 1726.77 426.322 1726.86C426.581 1726.99 426.84 1727.13 427.101 1727.26C427.207 1727.32 427.314 1727.37 427.42 1727.42C427.723 1727.58 428.027 1727.73 428.332 1727.88C428.441 1727.94 428.55 1727.99 428.659 1728.05C428.939 1728.19 429.219 1728.32 429.5 1728.46C429.653 1728.53 429.806 1728.61 429.96 1728.68C430.21 1728.8 430.462 1728.92 430.713 1729.04C430.89 1729.12 431.068 1729.2 431.246 1729.29C431.474 1729.39 431.701 1729.5 431.93 1729.6C432.094 1729.68 432.258 1729.75 432.422 1729.82C432.708 1729.95 432.995 1730.08 433.282 1730.21C433.407 1730.26 433.531 1730.32 433.655 1730.37C433.978 1730.51 434.302 1730.65 434.627 1730.79C434.718 1730.83 434.809 1730.87 434.9 1730.91C436.162 1731.44 437.434 1731.95 438.718 1732.44C438.861 1732.49 439.006 1732.55 439.149 1732.6C439.426 1732.7 439.703 1732.81 439.98 1732.91C440.184 1732.98 440.388 1733.06 440.592 1733.13C440.789 1733.2 440.986 1733.27 441.184 1733.34C441.423 1733.43 441.664 1733.51 441.904 1733.6C442.112 1733.67 442.32 1733.74 442.528 1733.81C442.732 1733.88 442.937 1733.95 443.142 1734.02C443.359 1734.09 443.578 1734.16 443.796 1734.24C444.011 1734.31 444.227 1734.38 444.442 1734.45C444.667 1734.52 444.893 1734.59 445.118 1734.66C445.329 1734.73 445.54 1734.79 445.752 1734.86C445.996 1734.93 446.241 1735.01 446.486 1735.08C446.661 1735.14 446.836 1735.19 447.011 1735.24C447.274 1735.32 447.538 1735.39 447.803 1735.47C447.991 1735.53 448.18 1735.58 448.369 1735.63C448.627 1735.71 448.886 1735.78 449.145 1735.85C449.321 1735.9 449.498 1735.95 449.675 1736C450.552 1736.23 451.433 1736.46 452.318 1736.68C452.509 1736.72 452.701 1736.77 452.892 1736.81C453.143 1736.87 453.395 1736.93 453.647 1736.99C453.847 1737.04 454.047 1737.08 454.247 1737.13C454.505 1737.19 454.762 1737.25 455.021 1737.3C455.193 1737.34 455.365 1737.38 455.538 1737.41C455.825 1737.48 456.112 1737.54 456.399 1737.6C456.58 1737.63 456.761 1737.67 456.942 1737.71C457.202 1737.76 457.463 1737.81 457.724 1737.86C457.933 1737.9 458.142 1737.94 458.352 1737.98C458.584 1738.03 458.816 1738.07 459.049 1738.11C459.283 1738.15 459.517 1738.2 459.752 1738.24C459.978 1738.28 460.205 1738.32 460.432 1738.35C460.644 1738.39 460.857 1738.43 461.07 1738.46C461.393 1738.51 461.716 1738.57 462.04 1738.62C462.161 1738.64 462.282 1738.65 462.403 1738.67C462.75 1738.73 463.098 1738.78 463.445 1738.83C463.575 1738.84 463.704 1738.86 463.834 1738.88C464.08 1738.92 464.327 1738.95 464.574 1738.98C464.96 1739.03 465.346 1739.08 465.732 1739.13C466.037 1739.17 466.342 1739.2 466.647 1739.24C466.752 1739.25 466.857 1739.26 466.962 1739.27C467.296 1739.31 467.63 1739.35 467.965 1739.38C468.225 1739.41 468.485 1739.43 468.745 1739.46C468.945 1739.48 469.145 1739.5 469.345 1739.52C469.589 1739.54 469.834 1739.56 470.079 1739.58C470.322 1739.6 470.566 1739.62 470.81 1739.64C471.016 1739.66 471.222 1739.67 471.429 1739.69C471.702 1739.71 471.975 1739.73 472.248 1739.74C472.447 1739.76 472.647 1739.77 472.847 1739.78C473.139 1739.8 473.432 1739.82 473.725 1739.83C473.89 1739.84 474.055 1739.85 474.221 1739.86C474.53 1739.87 474.84 1739.89 475.15 1739.9C475.33 1739.91 475.51 1739.91 475.69 1739.92C476.019 1739.93 476.348 1739.94 476.678 1739.95C476.816 1739.96 476.955 1739.96 477.094 1739.96C477.495 1739.97 477.896 1739.98 478.298 1739.99C478.376 1739.99 478.455 1739.99 478.533 1739.99C479.021 1740 479.51 1740 479.999 1740C480.488 1740 480.976 1740 481.464 1739.99C481.546 1739.99 481.629 1739.99 481.711 1739.99C482.109 1739.98 482.506 1739.97 482.903 1739.96C483.045 1739.96 483.186 1739.96 483.327 1739.95C483.654 1739.94 483.981 1739.93 484.308 1739.92C484.49 1739.91 484.672 1739.91 484.854 1739.9C485.16 1739.89 485.466 1739.87 485.771 1739.86C485.943 1739.85 486.114 1739.84 486.285 1739.83C486.571 1739.81 486.857 1739.8 487.143 1739.78C487.349 1739.77 487.555 1739.76 487.761 1739.74C488.026 1739.72 488.292 1739.71 488.557 1739.69C488.771 1739.67 488.986 1739.66 489.2 1739.64C489.434 1739.62 489.668 1739.6 489.901 1739.58C490.156 1739.56 490.41 1739.54 490.664 1739.51C490.85 1739.5 491.035 1739.48 491.221 1739.46C491.495 1739.44 491.77 1739.41 492.044 1739.38C492.345 1739.35 492.646 1739.32 492.947 1739.28C493.085 1739.27 493.223 1739.25 493.361 1739.24C493.638 1739.21 493.914 1739.17 494.19 1739.14C494.65 1739.08 495.108 1739.02 495.565 1738.96C495.761 1738.94 495.958 1738.91 496.153 1738.88C496.311 1738.86 496.468 1738.84 496.626 1738.82C496.945 1738.77 497.264 1738.72 497.582 1738.67C497.72 1738.65 497.857 1738.63 497.995 1738.61C498.306 1738.56 498.616 1738.51 498.926 1738.46C499.15 1738.43 499.375 1738.39 499.599 1738.35C499.809 1738.31 500.019 1738.28 500.229 1738.24C500.473 1738.2 500.716 1738.15 500.96 1738.11C501.189 1738.07 501.419 1738.02 501.647 1737.98C501.857 1737.94 502.066 1737.9 502.275 1737.86C502.532 1737.81 502.789 1737.76 503.045 1737.71C503.236 1737.67 503.427 1737.63 503.618 1737.59C503.89 1737.54 504.162 1737.48 504.434 1737.42C504.617 1737.38 504.8 1737.34 504.983 1737.3C505.24 1737.24 505.496 1737.19 505.752 1737.13C505.952 1737.08 506.152 1737.04 506.352 1736.99C506.604 1736.93 506.856 1736.87 507.107 1736.81C507.299 1736.77 507.49 1736.72 507.681 1736.68C508.559 1736.46 509.433 1736.24 510.304 1736C510.519 1735.94 510.733 1735.88 510.947 1735.82C511.175 1735.76 511.403 1735.7 511.63 1735.63C511.819 1735.58 512.008 1735.53 512.196 1735.47C512.459 1735.39 512.722 1735.32 512.983 1735.24C513.178 1735.18 513.372 1735.13 513.566 1735.07C513.778 1735 513.99 1734.94 514.201 1734.87C514.48 1734.79 514.758 1734.7 515.036 1734.61C515.173 1734.57 515.31 1734.53 515.447 1734.48C515.711 1734.4 515.974 1734.31 516.236 1734.23C516.444 1734.16 516.651 1734.09 516.857 1734.02C517.062 1733.95 517.267 1733.88 517.471 1733.81C517.679 1733.74 517.887 1733.67 518.095 1733.6C518.335 1733.51 518.576 1733.43 518.815 1733.34C519.013 1733.27 519.21 1733.2 519.407 1733.13C519.611 1733.06 519.815 1732.98 520.019 1732.91C520.237 1732.83 520.456 1732.75 520.674 1732.67C520.903 1732.58 521.132 1732.5 521.36 1732.41C521.422 1732.38 521.483 1732.36 521.545 1732.34C522.516 1731.96 523.48 1731.58 524.438 1731.18C524.647 1731.09 524.856 1731.01 525.063 1730.92C525.197 1730.86 525.329 1730.81 525.462 1730.75C525.752 1730.63 526.041 1730.5 526.33 1730.38C526.507 1730.3 526.684 1730.22 526.86 1730.14C527.069 1730.05 527.277 1729.96 527.485 1729.87C527.722 1729.76 527.957 1729.65 528.192 1729.54C528.353 1729.47 528.513 1729.4 528.673 1729.32C528.934 1729.2 529.195 1729.08 529.455 1728.96C529.586 1728.9 529.716 1728.83 529.847 1728.77C530.106 1728.65 530.364 1728.52 530.622 1728.4C530.796 1728.31 530.969 1728.23 531.142 1728.14C531.352 1728.04 531.562 1727.94 531.771 1727.83C531.965 1727.74 532.158 1727.64 532.351 1727.54C532.563 1727.43 532.776 1727.33 532.987 1727.22C533.143 1727.14 533.297 1727.06 533.452 1726.98C534.087 1726.65 534.718 1726.31 535.346 1725.97C535.729 1725.76 536.111 1725.55 536.492 1725.34C536.543 1725.31 536.593 1725.28 536.644 1725.25C536.982 1725.06 537.319 1724.87 537.655 1724.68C537.807 1724.59 537.958 1724.5 538.108 1724.42C538.349 1724.28 538.59 1724.14 538.83 1723.99C538.982 1723.9 539.133 1723.81 539.284 1723.72C539.512 1723.59 539.74 1723.45 539.967 1723.32C540.139 1723.21 540.31 1723.11 540.481 1723C540.692 1722.87 540.903 1722.74 541.112 1722.61C541.291 1722.5 541.469 1722.39 541.647 1722.28C541.825 1722.17 542.003 1722.05 542.18 1721.94C542.402 1721.8 542.623 1721.66 542.844 1721.52C542.993 1721.42 543.142 1721.32 543.291 1721.23C543.496 1721.09 543.702 1720.96 543.906 1720.82C544.082 1720.71 544.257 1720.59 544.432 1720.47C544.63 1720.34 544.827 1720.21 545.024 1720.07C545.235 1719.93 545.444 1719.79 545.653 1719.64C545.795 1719.55 545.936 1719.45 546.077 1719.35C546.281 1719.21 546.483 1719.07 546.686 1718.92C547.388 1718.43 548.085 1717.93 548.775 1717.42C548.957 1717.28 549.139 1717.15 549.32 1717.02C549.488 1716.89 549.655 1716.76 549.822 1716.64C550.011 1716.5 550.2 1716.35 550.388 1716.21C550.569 1716.07 550.748 1715.93 550.928 1715.79C551.089 1715.67 551.251 1715.54 551.411 1715.42C551.595 1715.27 551.779 1715.13 551.962 1714.98C552.141 1714.84 552.32 1714.7 552.498 1714.56C552.669 1714.42 552.84 1714.28 553.011 1714.14C553.166 1714.02 553.322 1713.89 553.477 1713.76C553.664 1713.61 553.851 1713.46 554.037 1713.3C554.223 1713.15 554.409 1712.99 554.594 1712.84C554.734 1712.72 554.873 1712.6 555.013 1712.48C555.228 1712.3 555.442 1712.12 555.656 1711.93C555.774 1711.83 555.892 1711.73 556.009 1711.63C556.065 1711.58 556.121 1711.53 556.177 1711.48C559.508 1708.58 564.556 1708.56 567.68 1711.68L595.965 1739.97C566.287 1769.64 525.286 1788 479.999 1788Z" fill="#F0F0F0" stroke="#F0F0F0" id="n1944"/>
<path d="M479.5 1812L479.5 1812.5L480.5 1812.5L480.5 1812L480 1812L479.5 1812ZM480 1812L480.5 1812L480.5 1740L480 1740L479.5 1740L479.5 1812L480 1812Z" fill="#BEBEBE" id="n1945"/>
<path d="M480.002 1812C430.964 1812 386.311 1793.22 352.84 1762.47C349.587 1759.48 349.598 1754.4 352.722 1751.28L392.32 1711.68C395.445 1708.56 400.493 1708.58 403.824 1711.48C424.203 1729.24 450.846 1740 480.002 1740C509.157 1740 535.801 1729.24 556.18 1711.48C559.511 1708.58 564.559 1708.56 567.683 1711.68L607.281 1751.28C610.405 1754.4 610.416 1759.48 607.162 1762.47C573.691 1793.22 529.039 1812 480.002 1812Z" stroke="#BEBEBE" id="n1946"/>
<g mask="url(#mask240_68_6728)" id="n1949">
<mask id="mask241_68_6728" style="mask-type:alpha" maskUnits="userSpaceOnUse" x="224" y="1367" width="512" height="513">
<path d="M480 1448C577.202 1448 656 1526.8 656 1624C656 1721.2 577.202 1800 480 1800C382.798 1800 304 1721.2 304 1624C304 1526.8 382.798 1448 480 1448ZM480 1456C387.216 1456 312 1531.22 312 1624C312 1716.78 387.216 1792 480 1792C572.784 1792 648 1716.78 648 1624C648 1531.22 572.784 1456 480 1456Z" fill="black" id="n1950"/>
</mask>
<g mask="url(#mask241_68_6728)" id="n1951">
<path d="M480 1424V1624M480 1624L462.569 1424.76M480 1624L445.27 1427.04M480 1624L428.236 1430.81M480 1624L411.596 1436.06M480 1624L395.476 1442.74M480 1624L380 1450.79M480 1624L365.285 1460.17M480 1624L351.443 1470.79M480 1624L338.579 1482.58M480 1624L326.791 1495.44M480 1624L316.17 1509.28M480 1624L306.795 1524M480 1624L298.738 1539.48M480 1624L292.062 1555.59M480 1624L286.815 1572.24M480 1624L283.038 1589.27M480 1624L280.761 1606.57M480 1624H280M480 1624L280.761 1641.43M480 1624L283.038 1658.73M480 1624L286.815 1675.76M480 1624L292.062 1692.4M480 1624L298.739 1708.52M480 1624L306.795 1724M480 1624L316.169 1738.71M480 1624L326.791 1752.56M480 1624L338.579 1765.42M480 1624L351.442 1777.21M480 1624L365.285 1787.83M480 1624L380 1797.2M480 1624L395.476 1805.26M480 1624L411.596 1811.94M480 1624L428.236 1817.18M480 1624L445.27 1820.96M480 1624L462.569 1823.24M480 1624V1824M480 1624L497.431 1823.24M480 1624L514.73 1820.96M480 1624L531.764 1817.18M480 1624L548.404 1811.94M480 1624L564.524 1805.26M480 1624L580 1797.2M480 1624L594.715 1787.83M480 1624L608.558 1777.21M480 1624L621.421 1765.42M480 1624L633.209 1752.56M480 1624L643.831 1738.71M480 1624L653.205 1724M480 1624L661.262 1708.52M480 1624L667.939 1692.4M480 1624L673.185 1675.76M480 1624L676.962 1658.73M480 1624L679.239 1641.43M480 1624H680M480 1624L679.239 1606.57M480 1624L676.962 1589.27M480 1624L673.185 1572.24M480 1624L667.938 1555.6M480 1624L661.261 1539.48M480 1624L653.205 1524M480 1624L643.831 1509.28M480 1624L633.209 1495.44M480 1624L621.421 1482.58M480 1624L608.558 1470.79M480 1624L594.715 1460.17M480 1624L580 1450.79M480 1624L564.524 1442.74M480 1624L548.404 1436.06M480 1624L531.764 1430.81M480 1624L514.73 1427.04M480 1624L497.431 1424.76" stroke="#BEBEBE" id="n1952"/>
</g>
<mask id="mask242_68_6728" style="mask-type:alpha" maskUnits="userSpaceOnUse" x="224" y="1367" width="512" height="513">
<path d="M480 1432C586.039 1432 672 1517.96 672 1624C672 1730.04 586.039 1816 480 1816C373.961 1816 288 1730.04 288 1624C288 1517.96 373.961 1432 480 1432ZM480 1456C387.216 1456 312 1531.22 312 1624C312 1716.78 387.216 1792 480 1792C572.784 1792 648 1716.78 648 1624C648 1531.22 572.784 1456 480 1456Z" fill="black" id="n1953"/>
</mask>
<g mask="url(#mask242_68_6728)" id="n1954">
<path d="M480 1424V1624M480 1624L338.579 1482.58M480 1624H280M480 1624L338.579 1765.42M480 1624V1824M480 1624L621.421 1765.42M480 1624H680M480 1624L621.421 1482.58" stroke="#BEBEBE" id="n1955"/>
</g>
<mask id="mask243_68_6728" style="mask-type:alpha" maskUnits="userSpaceOnUse" x="224" y="1367" width="512" height="513">
<path d="M480 1432C586.039 1432 672 1517.96 672 1624C672 1730.04 586.039 1816 480 1816C373.961 1816 288 1730.04 288 1624C288 1517.96 373.961 1432 480 1432ZM480 1460C389.425 1460 316 1533.42 316 1624C316 1714.57 389.425 1788 480 1788C570.575 1788 644 1714.57 644 1624C644 1533.42 570.575 1460 480 1460Z" fill="black" id="n1956"/>
</mask>
<g mask="url(#mask243_68_6728)" id="n1957">
<path d="M480 1424V1624M480 1624H280M480 1624V1824M480 1624H680" stroke="#BEBEBE" id="n1958"/>
</g>
</g>
<path d="M612.936 1756.94C639.228 1730.64 657.134 1697.14 664.388 1660.68C671.642 1624.21 667.919 1586.41 653.689 1552.05C639.46 1517.7 615.364 1488.34 584.447 1467.68C553.531 1447.03 517.183 1436 480 1436C442.817 1436 406.469 1447.03 375.553 1467.68C344.636 1488.34 320.54 1517.7 306.311 1552.05C292.081 1586.41 288.358 1624.21 295.612 1660.68C302.866 1697.14 320.772 1730.64 347.064 1756.94" stroke="#BEBEBE" stroke-linecap="round" id="n1959"/>
<g mask="url(#mask244_68_6728)" id="n1961">
<path d="M479.999 1788C465.317 1788 451.085 1786.07 437.544 1782.45L449.971 1736.07C450.75 1736.28 451.533 1736.48 452.318 1736.68C452.509 1736.72 452.7 1736.77 452.892 1736.81C453.143 1736.87 453.395 1736.93 453.647 1736.99C453.847 1737.04 454.047 1737.08 454.247 1737.13C454.505 1737.19 454.762 1737.25 455.021 1737.3C455.193 1737.34 455.365 1737.38 455.538 1737.41C455.825 1737.48 456.112 1737.54 456.399 1737.6C456.58 1737.63 456.761 1737.67 456.942 1737.71C457.202 1737.76 457.463 1737.81 457.724 1737.86C457.933 1737.9 458.142 1737.94 458.352 1737.98C458.584 1738.03 458.816 1738.07 459.049 1738.11C459.283 1738.15 459.517 1738.2 459.752 1738.24C459.978 1738.28 460.205 1738.32 460.432 1738.35C460.644 1738.39 460.857 1738.43 461.07 1738.46C461.393 1738.51 461.716 1738.57 462.04 1738.62C462.161 1738.64 462.282 1738.65 462.403 1738.67C462.75 1738.73 463.098 1738.78 463.445 1738.83C463.575 1738.84 463.704 1738.86 463.834 1738.88C464.08 1738.92 464.327 1738.95 464.574 1738.98C464.96 1739.03 465.346 1739.08 465.732 1739.13C466.037 1739.17 466.342 1739.2 466.647 1739.24C466.752 1739.25 466.857 1739.26 466.962 1739.27C467.296 1739.31 467.63 1739.35 467.965 1739.38C468.225 1739.41 468.485 1739.43 468.745 1739.46C468.945 1739.48 469.145 1739.5 469.345 1739.52C469.589 1739.54 469.834 1739.56 470.079 1739.58C470.322 1739.6 470.566 1739.62 470.81 1739.64C471.016 1739.66 471.222 1739.67 471.429 1739.69C471.702 1739.71 471.975 1739.73 472.248 1739.74C472.447 1739.76 472.647 1739.77 472.847 1739.78C473.139 1739.8 473.432 1739.82 473.725 1739.83C473.89 1739.84 474.055 1739.85 474.221 1739.86C474.53 1739.87 474.84 1739.89 475.15 1739.9C475.33 1739.91 475.51 1739.91 475.69 1739.92C476.019 1739.93 476.348 1739.94 476.678 1739.95C476.816 1739.96 476.955 1739.96 477.094 1739.96C477.495 1739.97 477.896 1739.98 478.298 1739.99C478.376 1739.99 478.455 1739.99 478.533 1739.99C479.021 1740 479.51 1740 479.999 1740C480.488 1740 480.976 1740 481.464 1739.99C481.546 1739.99 481.629 1739.99 481.711 1739.99C482.109 1739.98 482.506 1739.97 482.903 1739.96C483.045 1739.96 483.186 1739.96 483.327 1739.95C483.654 1739.94 483.981 1739.93 484.308 1739.92C484.49 1739.91 484.672 1739.91 484.854 1739.9C485.16 1739.89 485.466 1739.87 485.771 1739.86C485.943 1739.85 486.114 1739.84 486.285 1739.83C486.571 1739.81 486.857 1739.8 487.143 1739.78C487.349 1739.77 487.555 1739.76 487.761 1739.74C488.026 1739.72 488.292 1739.71 488.557 1739.69C488.771 1739.67 488.986 1739.66 489.2 1739.64C489.434 1739.62 489.668 1739.6 489.901 1739.58C490.156 1739.56 490.41 1739.54 490.664 1739.51C490.85 1739.5 491.035 1739.48 491.221 1739.46C491.495 1739.44 491.77 1739.41 492.044 1739.38C492.345 1739.35 492.646 1739.32 492.947 1739.28C493.085 1739.27 493.223 1739.25 493.361 1739.24C493.638 1739.21 493.914 1739.17 494.19 1739.14C494.65 1739.08 495.108 1739.02 495.565 1738.96C495.761 1738.94 495.958 1738.91 496.153 1738.88C496.311 1738.86 496.468 1738.84 496.626 1738.82C496.945 1738.77 497.264 1738.72 497.582 1738.67C497.72 1738.65 497.857 1738.63 497.995 1738.61C498.306 1738.56 498.616 1738.51 498.926 1738.46C499.15 1738.43 499.375 1738.39 499.599 1738.35C499.809 1738.31 500.019 1738.28 500.229 1738.24C500.473 1738.2 500.716 1738.15 500.96 1738.11C501.189 1738.07 501.419 1738.02 501.647 1737.98C501.857 1737.94 502.066 1737.9 502.275 1737.86C502.532 1737.81 502.789 1737.76 503.045 1737.71C503.236 1737.67 503.427 1737.63 503.618 1737.59C503.89 1737.54 504.162 1737.48 504.434 1737.42C504.617 1737.38 504.8 1737.34 504.983 1737.3C505.24 1737.24 505.496 1737.19 505.752 1737.13C505.952 1737.08 506.152 1737.04 506.352 1736.99C506.604 1736.93 506.856 1736.87 507.107 1736.81C507.299 1736.77 507.49 1736.72 507.681 1736.68C508.467 1736.48 509.25 1736.28 510.03 1736.07L522.457 1782.45C508.915 1786.07 494.682 1788 479.999 1788Z" fill="#BEBEBE" id="n1962"/>
<path d="M437.544 1782.45L437.061 1782.32L436.931 1782.8L437.415 1782.93L437.544 1782.45ZM449.971 1736.07L450.1 1735.59L449.617 1735.46L449.488 1735.94L449.971 1736.07ZM452.318 1736.68L452.437 1736.19L452.437 1736.19L452.318 1736.68ZM452.892 1736.81L452.775 1737.3L452.775 1737.3L452.892 1736.81ZM453.647 1736.99L453.761 1736.51L453.761 1736.51L453.647 1736.99ZM454.247 1737.13L454.137 1737.62L454.137 1737.62L454.247 1737.13ZM455.021 1737.3L455.128 1736.81V1736.81L455.021 1737.3ZM455.538 1737.41L455.433 1737.9V1737.9L455.538 1737.41ZM456.399 1737.6L456.501 1737.11V1737.11L456.399 1737.6ZM456.942 1737.71L456.844 1738.2V1738.2L456.942 1737.71ZM457.724 1737.86L457.819 1737.37V1737.37L457.724 1737.86ZM458.352 1737.98L458.259 1738.47V1738.47L458.352 1737.98ZM459.049 1738.11L459.139 1737.62V1737.62L459.049 1738.11ZM459.752 1738.24L459.665 1738.73L459.665 1738.73L459.752 1738.24ZM460.432 1738.35L460.515 1737.86V1737.86L460.432 1738.35ZM461.07 1738.46L460.989 1738.96V1738.96L461.07 1738.46ZM462.04 1738.62L462.117 1738.12L462.117 1738.12L462.04 1738.62ZM462.403 1738.67L462.328 1739.17V1739.17L462.403 1738.67ZM463.445 1738.83L463.516 1738.33L463.516 1738.33L463.445 1738.83ZM463.834 1738.88L463.765 1739.38V1739.38L463.834 1738.88ZM464.574 1738.98L464.64 1738.49V1738.49L464.574 1738.98ZM465.732 1739.13L465.672 1739.63L465.672 1739.63L465.732 1739.13ZM466.647 1739.24L466.704 1738.74V1738.74L466.647 1739.24ZM466.962 1739.27L466.906 1739.77L466.906 1739.77L466.962 1739.27ZM467.965 1739.38L468.016 1738.88V1738.88L467.965 1739.38ZM468.745 1739.46L468.697 1739.96L468.697 1739.96L468.745 1739.46ZM469.345 1739.52L469.39 1739.02V1739.02L469.345 1739.52ZM470.079 1739.58L470.037 1740.08V1740.08L470.079 1739.58ZM470.81 1739.64L470.849 1739.14V1739.14L470.81 1739.64ZM471.429 1739.69L471.392 1740.19L471.392 1740.19L471.429 1739.69ZM472.248 1739.74L472.281 1739.24V1739.24L472.248 1739.74ZM472.847 1739.78L472.816 1740.28V1740.28L472.847 1739.78ZM473.725 1739.83L473.751 1739.33V1739.33L473.725 1739.83ZM474.221 1739.86L474.196 1740.36V1740.36L474.221 1739.86ZM475.15 1739.9L475.171 1739.4V1739.4L475.15 1739.9ZM475.69 1739.92L475.672 1740.42V1740.42L475.69 1739.92ZM476.678 1739.95L476.692 1739.45V1739.45L476.678 1739.95ZM477.094 1739.96L477.081 1740.46V1740.46L477.094 1739.96ZM478.298 1739.99L478.305 1739.49V1739.49L478.298 1739.99ZM478.533 1739.99L478.527 1740.49V1740.49L478.533 1739.99ZM479.999 1740L479.999 1740.5V1740.5L479.999 1740ZM481.464 1739.99L481.458 1739.49V1739.49L481.464 1739.99ZM481.711 1739.99L481.718 1740.49V1740.49L481.711 1739.99ZM482.903 1739.96L482.891 1739.46V1739.46L482.903 1739.96ZM483.327 1739.95L483.341 1740.45L483.341 1740.45L483.327 1739.95ZM484.308 1739.92L484.289 1739.42V1739.42L484.308 1739.92ZM484.854 1739.9L484.874 1740.4L484.874 1740.4L484.854 1739.9ZM485.771 1739.86L485.747 1739.36V1739.36L485.771 1739.86ZM486.285 1739.83L486.312 1740.33L486.312 1740.33L486.285 1739.83ZM487.143 1739.78L487.112 1739.28L487.112 1739.28L487.143 1739.78ZM487.761 1739.74L487.794 1740.24L487.794 1740.24L487.761 1739.74ZM488.557 1739.69L488.52 1739.19L488.52 1739.19L488.557 1739.69ZM489.2 1739.64L489.239 1740.14L489.239 1740.14L489.2 1739.64ZM489.901 1739.58L489.859 1739.08L489.859 1739.08L489.901 1739.58ZM490.664 1739.51L490.709 1740.01L490.709 1740.01L490.664 1739.51ZM491.221 1739.46L491.173 1738.96L491.173 1738.96L491.221 1739.46ZM492.044 1739.38L492.095 1739.88L492.095 1739.88L492.044 1739.38ZM492.947 1739.28L492.892 1738.79L492.892 1738.79L492.947 1739.28ZM493.361 1739.24L493.418 1739.73H493.418L493.361 1739.24ZM494.19 1739.14L494.13 1738.64L494.13 1738.64L494.19 1739.14ZM495.565 1738.96L495.632 1739.46L495.632 1739.46L495.565 1738.96ZM496.153 1738.88L496.084 1738.39L496.084 1738.39L496.153 1738.88ZM496.626 1738.82L496.697 1739.31L496.697 1739.31L496.626 1738.82ZM497.582 1738.67L497.507 1738.18L497.507 1738.18L497.582 1738.67ZM497.995 1738.61L498.072 1739.1L498.072 1739.1L497.995 1738.61ZM498.926 1738.46L498.845 1737.97L498.845 1737.97L498.926 1738.46ZM499.599 1738.35L499.683 1738.84L499.683 1738.84L499.599 1738.35ZM500.229 1738.24L500.142 1737.75L500.142 1737.75L500.229 1738.24ZM500.96 1738.11L501.05 1738.6L501.05 1738.6L500.96 1738.11ZM501.647 1737.98L501.555 1737.49L501.555 1737.49L501.647 1737.98ZM502.275 1737.86L502.371 1738.35L502.371 1738.35L502.275 1737.86ZM503.045 1737.71L502.946 1737.22L502.946 1737.22L503.045 1737.71ZM503.618 1737.59L503.719 1738.08L503.719 1738.08L503.618 1737.59ZM504.434 1737.42L504.329 1736.93L504.329 1736.93L504.434 1737.42ZM504.983 1737.3L505.091 1737.79L505.091 1737.79L504.983 1737.3ZM505.752 1737.13L505.641 1736.64L505.641 1736.64L505.752 1737.13ZM506.352 1736.99L506.465 1737.48L506.465 1737.48L506.352 1736.99ZM507.107 1736.81L506.991 1736.33L506.991 1736.33L507.107 1736.81ZM507.681 1736.68L507.8 1737.16L507.8 1737.16L507.681 1736.68ZM510.03 1736.07L510.513 1735.94L510.384 1735.46L509.901 1735.59L510.03 1736.07ZM522.457 1782.45L522.586 1782.93L523.069 1782.8L522.94 1782.32L522.457 1782.45ZM479.999 1788L479.999 1787.5C465.361 1787.5 451.173 1785.57 437.673 1781.97L437.544 1782.45L437.415 1782.93C450.998 1786.56 465.273 1788.5 479.999 1788.5L479.999 1788ZM437.544 1782.45L438.027 1782.58L450.454 1736.2L449.971 1736.07L449.488 1735.94L437.061 1782.32L437.544 1782.45ZM449.971 1736.07L449.842 1736.56C450.624 1736.77 451.41 1736.97 452.199 1737.16L452.318 1736.68L452.437 1736.19C451.655 1736 450.876 1735.8 450.1 1735.59L449.971 1736.07ZM452.318 1736.68L452.199 1737.16C452.391 1737.21 452.59 1737.25 452.775 1737.3L452.892 1736.81L453.008 1736.33C452.811 1736.28 452.627 1736.24 452.437 1736.19L452.318 1736.68ZM452.892 1736.81L452.775 1737.3C453.026 1737.36 453.28 1737.42 453.534 1737.48L453.647 1736.99L453.761 1736.51C453.51 1736.45 453.261 1736.39 453.008 1736.33L452.892 1736.81ZM453.647 1736.99L453.534 1737.48C453.736 1737.53 453.938 1737.57 454.137 1737.62L454.247 1737.13L454.358 1736.64C454.157 1736.6 453.959 1736.55 453.761 1736.51L453.647 1736.99ZM454.247 1737.13L454.137 1737.62C454.395 1737.68 454.654 1737.73 454.913 1737.79L455.021 1737.3L455.128 1736.81C454.871 1736.76 454.614 1736.7 454.358 1736.64L454.247 1737.13ZM455.021 1737.3L454.913 1737.79C455.087 1737.83 455.26 1737.87 455.433 1737.9L455.538 1737.41L455.643 1736.93C455.471 1736.89 455.299 1736.85 455.128 1736.81L455.021 1737.3ZM455.538 1737.41L455.433 1737.9C455.721 1737.96 456.009 1738.03 456.298 1738.09L456.399 1737.6L456.501 1737.11C456.215 1737.05 455.929 1736.99 455.643 1736.93L455.538 1737.41ZM456.399 1737.6L456.298 1738.09C456.479 1738.12 456.661 1738.16 456.844 1738.2L456.942 1737.71L457.041 1737.22C456.861 1737.18 456.682 1737.14 456.501 1737.11L456.399 1737.6ZM456.942 1737.71L456.844 1738.2C457.105 1738.25 457.367 1738.3 457.628 1738.35L457.724 1737.86L457.819 1737.37C457.559 1737.32 457.3 1737.27 457.041 1737.22L456.942 1737.71ZM457.724 1737.86L457.628 1738.35C457.838 1738.39 458.049 1738.43 458.259 1738.47L458.352 1737.98L458.444 1737.49C458.235 1737.45 458.027 1737.41 457.819 1737.37L457.724 1737.86ZM458.352 1737.98L458.259 1738.47C458.491 1738.52 458.725 1738.56 458.959 1738.6L459.049 1738.11L459.139 1737.62C458.907 1737.58 458.676 1737.53 458.444 1737.49L458.352 1737.98ZM459.049 1738.11L458.959 1738.6C459.194 1738.65 459.43 1738.69 459.665 1738.73L459.752 1738.24L459.839 1737.74C459.605 1737.7 459.372 1737.66 459.139 1737.62L459.049 1738.11ZM459.752 1738.24L459.665 1738.73C459.893 1738.77 460.121 1738.81 460.348 1738.85L460.432 1738.35L460.515 1737.86C460.289 1737.82 460.064 1737.78 459.839 1737.74L459.752 1738.24ZM460.432 1738.35L460.348 1738.85C460.56 1738.88 460.774 1738.92 460.989 1738.96L461.07 1738.46L461.151 1737.97C460.94 1737.93 460.729 1737.9 460.515 1737.86L460.432 1738.35ZM461.07 1738.46L460.989 1738.96C461.314 1739.01 461.639 1739.06 461.963 1739.11L462.04 1738.62L462.117 1738.12C461.794 1738.07 461.472 1738.02 461.151 1737.97L461.07 1738.46ZM462.04 1738.62L461.963 1739.11C462.081 1739.13 462.206 1739.15 462.328 1739.17L462.403 1738.67L462.479 1738.18C462.358 1738.16 462.241 1738.14 462.117 1738.12L462.04 1738.62ZM462.403 1738.67L462.328 1739.17C462.677 1739.22 463.026 1739.27 463.375 1739.32L463.445 1738.83L463.516 1738.33C463.169 1738.28 462.824 1738.23 462.479 1738.18L462.403 1738.67ZM463.445 1738.83L463.375 1739.32C463.501 1739.34 463.635 1739.36 463.765 1739.38L463.834 1738.88L463.903 1738.39C463.774 1738.37 463.649 1738.35 463.516 1738.33L463.445 1738.83ZM463.834 1738.88L463.765 1739.38C464.013 1739.41 464.262 1739.44 464.508 1739.48L464.574 1738.98L464.64 1738.49C464.392 1738.45 464.147 1738.42 463.903 1738.39L463.834 1738.88ZM464.574 1738.98L464.508 1739.48C464.896 1739.53 465.284 1739.58 465.672 1739.63L465.732 1739.13L465.793 1738.63C465.408 1738.59 465.023 1738.54 464.64 1738.49L464.574 1738.98ZM465.732 1739.13L465.672 1739.63C465.975 1739.66 466.283 1739.7 466.591 1739.74L466.647 1739.24L466.704 1738.74C466.401 1738.71 466.099 1738.67 465.793 1738.63L465.732 1739.13ZM466.647 1739.24L466.591 1739.74C466.689 1739.75 466.816 1739.76 466.906 1739.77L466.962 1739.27L467.017 1738.78C466.898 1738.76 466.815 1738.76 466.704 1738.74L466.647 1739.24ZM466.962 1739.27L466.906 1739.77C467.241 1739.81 467.577 1739.84 467.914 1739.88L467.965 1739.38L468.016 1738.88C467.683 1738.85 467.351 1738.81 467.017 1738.78L466.962 1739.27ZM467.965 1739.38L467.914 1739.88C468.175 1739.91 468.437 1739.93 468.697 1739.96L468.745 1739.46L468.793 1738.96C468.533 1738.94 468.274 1738.91 468.016 1738.88L467.965 1739.38ZM468.745 1739.46L468.697 1739.96C468.897 1739.98 469.098 1740 469.299 1740.01L469.345 1739.52L469.39 1739.02C469.192 1739 468.993 1738.98 468.793 1738.96L468.745 1739.46ZM469.345 1739.52L469.299 1740.01C469.545 1740.04 469.791 1740.06 470.037 1740.08L470.079 1739.58L470.121 1739.08C469.877 1739.06 469.633 1739.04 469.39 1739.02L469.345 1739.52ZM470.079 1739.58L470.037 1740.08C470.281 1740.1 470.526 1740.12 470.771 1740.14L470.81 1739.64L470.849 1739.14C470.606 1739.12 470.364 1739.1 470.121 1739.08L470.079 1739.58ZM470.81 1739.64L470.771 1740.14C470.978 1740.15 471.185 1740.17 471.392 1740.19L471.429 1739.69L471.465 1739.19C471.259 1739.17 471.054 1739.16 470.849 1739.14L470.81 1739.64ZM471.429 1739.69L471.392 1740.19C471.667 1740.21 471.941 1740.22 472.215 1740.24L472.248 1739.74L472.281 1739.24C472.008 1739.23 471.736 1739.21 471.465 1739.19L471.429 1739.69ZM472.248 1739.74L472.215 1740.24C472.415 1740.26 472.616 1740.27 472.816 1740.28L472.847 1739.78L472.877 1739.28C472.678 1739.27 472.48 1739.26 472.281 1739.24L472.248 1739.74ZM472.847 1739.78L472.816 1740.28C473.11 1740.3 473.404 1740.31 473.698 1740.33L473.725 1739.83L473.751 1739.33C473.459 1739.32 473.168 1739.3 472.877 1739.28L472.847 1739.78ZM473.725 1739.83L473.698 1740.33C473.864 1740.34 474.03 1740.35 474.196 1740.36L474.221 1739.86L474.245 1739.36C474.08 1739.35 473.916 1739.34 473.751 1739.33L473.725 1739.83ZM474.221 1739.86L474.196 1740.36C474.507 1740.37 474.818 1740.39 475.13 1740.4L475.15 1739.9L475.171 1739.4C474.862 1739.39 474.554 1739.37 474.245 1739.36L474.221 1739.86ZM475.15 1739.9L475.13 1740.4C475.309 1740.41 475.491 1740.41 475.672 1740.42L475.69 1739.92L475.709 1739.42C475.53 1739.41 475.351 1739.41 475.171 1739.4L475.15 1739.9ZM475.69 1739.92L475.672 1740.42C476.003 1740.43 476.334 1740.44 476.664 1740.45L476.678 1739.95L476.692 1739.45C476.363 1739.44 476.035 1739.43 475.709 1739.42L475.69 1739.92ZM476.678 1739.95L476.664 1740.45C476.8 1740.45 476.942 1740.46 477.081 1740.46L477.094 1739.96L477.106 1739.46C476.968 1739.46 476.833 1739.46 476.692 1739.45L476.678 1739.95ZM477.094 1739.96L477.081 1740.46C477.484 1740.47 477.887 1740.48 478.291 1740.49L478.298 1739.99L478.305 1739.49C477.905 1739.48 477.505 1739.47 477.106 1739.46L477.094 1739.96ZM478.298 1739.99L478.291 1740.49C478.358 1740.49 478.453 1740.49 478.527 1740.49L478.533 1739.99L478.539 1739.49C478.457 1739.49 478.394 1739.49 478.305 1739.49L478.298 1739.99ZM478.533 1739.99L478.527 1740.49C479.017 1740.5 479.508 1740.5 479.999 1740.5L479.999 1740L479.999 1739.5C479.512 1739.5 479.025 1739.5 478.539 1739.49L478.533 1739.99ZM479.999 1740L479.999 1740.5C480.49 1740.5 480.98 1740.5 481.47 1740.49L481.464 1739.99L481.458 1739.49C480.972 1739.5 480.486 1739.5 479.999 1739.5L479.999 1740ZM481.464 1739.99L481.47 1740.49C481.53 1740.49 481.671 1740.49 481.718 1740.49L481.711 1739.99L481.704 1739.49C481.587 1739.49 481.562 1739.49 481.458 1739.49L481.464 1739.99ZM481.711 1739.99L481.718 1740.49C482.117 1740.48 482.516 1740.47 482.916 1740.46L482.903 1739.96L482.891 1739.46C482.496 1739.47 482.101 1739.48 481.704 1739.49L481.711 1739.99ZM482.903 1739.96L482.916 1740.46C483.058 1740.46 483.201 1740.45 483.341 1740.45L483.327 1739.95L483.313 1739.45C483.17 1739.46 483.031 1739.46 482.891 1739.46L482.903 1739.96ZM483.327 1739.95L483.341 1740.45C483.669 1740.44 483.998 1740.43 484.326 1740.42L484.308 1739.92L484.289 1739.42C483.965 1739.43 483.639 1739.44 483.313 1739.45L483.327 1739.95ZM484.308 1739.92L484.326 1740.42C484.509 1740.41 484.692 1740.41 484.874 1740.4L484.854 1739.9L484.833 1739.4C484.651 1739.41 484.47 1739.41 484.289 1739.42L484.308 1739.92ZM484.854 1739.9L484.874 1740.4C485.181 1740.39 485.489 1740.37 485.796 1740.36L485.771 1739.86L485.747 1739.36C485.443 1739.37 485.138 1739.39 484.833 1739.4L484.854 1739.9ZM485.771 1739.86L485.796 1740.36C485.969 1740.35 486.143 1740.34 486.312 1740.33L486.285 1739.83L486.258 1739.33C486.085 1739.34 485.917 1739.35 485.747 1739.36L485.771 1739.86ZM486.285 1739.83L486.312 1740.33C486.599 1740.31 486.886 1740.3 487.173 1740.28L487.143 1739.78L487.112 1739.28C486.828 1739.3 486.543 1739.32 486.258 1739.33L486.285 1739.83ZM487.143 1739.78L487.173 1740.28C487.38 1740.27 487.587 1740.25 487.794 1740.24L487.761 1739.74L487.728 1739.24C487.523 1739.26 487.318 1739.27 487.112 1739.28L487.143 1739.78ZM487.761 1739.74L487.794 1740.24C488.059 1740.22 488.326 1740.21 488.593 1740.19L488.557 1739.69L488.52 1739.19C488.257 1739.21 487.993 1739.23 487.728 1739.24L487.761 1739.74ZM488.557 1739.69L488.593 1740.19C488.809 1740.17 489.024 1740.15 489.239 1740.14L489.2 1739.64L489.161 1739.14C488.947 1739.16 488.734 1739.17 488.52 1739.19L488.557 1739.69ZM489.2 1739.64L489.239 1740.14C489.475 1740.12 489.71 1740.1 489.943 1740.08L489.901 1739.58L489.859 1739.08C489.626 1739.1 489.393 1739.12 489.161 1739.14L489.2 1739.64ZM489.901 1739.58L489.943 1740.08C490.198 1740.06 490.454 1740.04 490.709 1740.01L490.664 1739.51L490.619 1739.02C490.366 1739.04 490.114 1739.06 489.859 1739.08L489.901 1739.58ZM490.664 1739.51L490.709 1740.01C490.897 1740 491.084 1739.98 491.268 1739.96L491.221 1739.46L491.173 1738.96C490.987 1738.98 490.803 1739 490.619 1739.02L490.664 1739.51ZM491.221 1739.46L491.268 1739.96C491.543 1739.93 491.819 1739.91 492.095 1739.88L492.044 1739.38L491.993 1738.88C491.721 1738.91 491.448 1738.94 491.173 1738.96L491.221 1739.46ZM492.044 1739.38L492.095 1739.88C492.399 1739.85 492.702 1739.81 493.002 1739.78L492.947 1739.28L492.892 1738.79C492.591 1738.82 492.292 1738.85 491.993 1738.88L492.044 1739.38ZM492.947 1739.28L493.002 1739.78C493.137 1739.77 493.279 1739.75 493.418 1739.73L493.361 1739.24L493.304 1738.74C493.167 1738.76 493.033 1738.77 492.892 1738.79L492.947 1739.28ZM493.361 1739.24L493.418 1739.73C493.697 1739.7 493.976 1739.67 494.251 1739.63L494.19 1739.14L494.13 1738.64C493.853 1738.68 493.579 1738.71 493.304 1738.74L493.361 1739.24ZM494.19 1739.14L494.251 1739.63C494.712 1739.58 495.172 1739.52 495.632 1739.46L495.565 1738.96L495.499 1738.47C495.044 1738.53 494.587 1738.59 494.13 1738.64L494.19 1739.14ZM495.565 1738.96L495.632 1739.46C495.821 1739.43 496.026 1739.41 496.222 1739.38L496.153 1738.88L496.084 1738.39C495.889 1738.42 495.702 1738.44 495.499 1738.47L495.565 1738.96ZM496.153 1738.88L496.222 1739.38C496.38 1739.36 496.545 1739.33 496.697 1739.31L496.626 1738.82L496.555 1738.32C496.391 1738.34 496.242 1738.37 496.084 1738.39L496.153 1738.88ZM496.626 1738.82L496.697 1739.31C497.017 1739.26 497.337 1739.22 497.657 1739.17L497.582 1738.67L497.507 1738.18C497.191 1738.23 496.873 1738.27 496.555 1738.32L496.626 1738.82ZM497.582 1738.67L497.657 1739.17C497.796 1739.15 497.938 1739.13 498.072 1739.1L497.995 1738.61L497.918 1738.12C497.777 1738.14 497.644 1738.16 497.507 1738.18L497.582 1738.67ZM497.995 1738.61L498.072 1739.1C498.384 1739.06 498.695 1739.01 499.007 1738.96L498.926 1738.46L498.845 1737.97C498.537 1738.02 498.228 1738.07 497.918 1738.12L497.995 1738.61ZM498.926 1738.46L499.007 1738.96C499.233 1738.92 499.459 1738.88 499.683 1738.84L499.599 1738.35L499.515 1737.86C499.29 1737.89 499.068 1737.93 498.845 1737.97L498.926 1738.46ZM499.599 1738.35L499.683 1738.84C499.892 1738.81 500.104 1738.77 500.315 1738.73L500.229 1738.24L500.142 1737.75C499.934 1737.78 499.725 1737.82 499.515 1737.86L499.599 1738.35ZM500.229 1738.24L500.315 1738.73C500.56 1738.69 500.805 1738.65 501.05 1738.6L500.96 1738.11L500.87 1737.62C500.628 1737.66 500.385 1737.71 500.142 1737.75L500.229 1738.24ZM500.96 1738.11L501.05 1738.6C501.281 1738.56 501.511 1738.52 501.74 1738.47L501.647 1737.98L501.555 1737.49C501.326 1737.53 501.098 1737.58 500.87 1737.62L500.96 1738.11ZM501.647 1737.98L501.74 1738.47C501.95 1738.43 502.161 1738.39 502.371 1738.35L502.275 1737.86L502.18 1737.37C501.972 1737.41 501.764 1737.45 501.555 1737.49L501.647 1737.98ZM502.275 1737.86L502.371 1738.35C502.629 1738.3 502.886 1738.25 503.144 1738.2L503.045 1737.71L502.946 1737.22C502.691 1737.27 502.436 1737.32 502.18 1737.37L502.275 1737.86ZM503.045 1737.71L503.144 1738.2C503.336 1738.16 503.528 1738.12 503.719 1738.08L503.618 1737.59L503.517 1737.1C503.327 1737.14 503.136 1737.18 502.946 1737.22L503.045 1737.71ZM503.618 1737.59L503.719 1738.08C503.993 1738.02 504.266 1737.97 504.538 1737.91L504.434 1737.42L504.329 1736.93C504.058 1736.99 503.788 1737.05 503.517 1737.1L503.618 1737.59ZM504.434 1737.42L504.538 1737.91C504.722 1737.87 504.906 1737.83 505.091 1737.79L504.983 1737.3L504.876 1736.81C504.694 1736.85 504.512 1736.89 504.329 1736.93L504.434 1737.42ZM504.983 1737.3L505.091 1737.79C505.349 1737.73 505.606 1737.67 505.862 1737.62L505.752 1737.13L505.641 1736.64C505.386 1736.7 505.131 1736.76 504.876 1736.81L504.983 1737.3ZM505.752 1737.13L505.862 1737.62C506.061 1737.57 506.263 1737.53 506.465 1737.48L506.352 1736.99L506.238 1736.51C506.041 1736.55 505.842 1736.6 505.641 1736.64L505.752 1737.13ZM506.352 1736.99L506.465 1737.48C506.719 1737.42 506.973 1737.36 507.224 1737.3L507.107 1736.81L506.991 1736.33C506.738 1736.39 506.489 1736.45 506.238 1736.51L506.352 1736.99ZM507.107 1736.81L507.224 1737.3C507.409 1737.25 507.608 1737.21 507.8 1737.16L507.681 1736.68L507.562 1736.19C507.372 1736.24 507.188 1736.28 506.991 1736.33L507.107 1736.81ZM507.681 1736.68L507.8 1737.16C508.59 1736.97 509.376 1736.77 510.159 1736.56L510.03 1736.07L509.901 1735.59C509.124 1735.8 508.344 1736 507.562 1736.19L507.681 1736.68ZM510.03 1736.07L509.547 1736.2L521.974 1782.58L522.457 1782.45L522.94 1782.32L510.513 1735.94L510.03 1736.07ZM522.457 1782.45L522.328 1781.97C508.827 1785.57 494.638 1787.5 479.999 1787.5L479.999 1788L479.999 1788.5C494.726 1788.5 509.002 1786.56 522.586 1782.93L522.457 1782.45Z" fill="#BEBEBE" id="n1963"/>
</g>
<rect x="484" y="1788" width="8" height="48" rx="4" transform="rotate(-180 484 1788)" fill="#535353" stroke="#BEBEBE" id="n1964"/>
<path d="M464.09 1628H460.01V1612.56C460.01 1612.04 460.01 1611.53 460.01 1611.03C460.033 1610.51 460.055 1610 460.078 1609.5C460.101 1608.98 460.123 1608.5 460.146 1608.04C459.919 1608.29 459.636 1608.57 459.296 1608.89C458.956 1609.19 458.605 1609.49 458.242 1609.81L455.522 1611.99L453.482 1609.4L460.724 1603.72H464.09V1628ZM487.977 1628H471.453V1624.94L477.675 1618.65C478.899 1617.4 479.896 1616.34 480.667 1615.45C481.46 1614.55 482.05 1613.7 482.435 1612.9C482.82 1612.11 483.013 1611.24 483.013 1610.29C483.013 1609.15 482.684 1608.3 482.027 1607.74C481.37 1607.15 480.508 1606.85 479.443 1606.85C478.378 1606.85 477.403 1607.07 476.519 1607.5C475.635 1607.91 474.717 1608.48 473.765 1609.23L471.555 1606.55C472.212 1605.98 472.926 1605.46 473.697 1604.98C474.468 1604.51 475.329 1604.12 476.281 1603.83C477.256 1603.53 478.366 1603.38 479.613 1603.38C481.177 1603.38 482.514 1603.67 483.625 1604.23C484.758 1604.78 485.631 1605.54 486.243 1606.51C486.855 1607.49 487.161 1608.62 487.161 1609.91C487.161 1610.89 487.002 1611.8 486.685 1612.67C486.39 1613.53 485.96 1614.37 485.393 1615.18C484.849 1615.98 484.169 1616.8 483.353 1617.66C482.537 1618.5 481.63 1619.4 480.633 1620.35L476.587 1624.26V1624.43H487.977V1628ZM505.982 1609.27C505.982 1610.38 505.767 1611.34 505.336 1612.16C504.905 1612.95 504.305 1613.61 503.534 1614.13C502.763 1614.63 501.868 1614.99 500.848 1615.22V1615.32C502.797 1615.54 504.259 1616.15 505.234 1617.12C506.231 1618.09 506.73 1619.39 506.73 1621C506.73 1622.4 506.39 1623.66 505.71 1624.77C505.03 1625.88 503.987 1626.75 502.582 1627.39C501.177 1628.02 499.375 1628.34 497.176 1628.34C495.861 1628.34 494.637 1628.23 493.504 1628C492.393 1627.8 491.328 1627.47 490.308 1627.01V1623.41C491.351 1623.91 492.45 1624.31 493.606 1624.6C494.762 1624.87 495.861 1625.01 496.904 1625.01C498.899 1625.01 500.315 1624.65 501.154 1623.92C501.993 1623.17 502.412 1622.14 502.412 1620.83C502.412 1619.99 502.197 1619.3 501.766 1618.75C501.335 1618.21 500.655 1617.81 499.726 1617.56C498.797 1617.29 497.595 1617.15 496.122 1617.15H494.048V1613.86H496.156C497.584 1613.86 498.706 1613.7 499.522 1613.38C500.361 1613.04 500.961 1612.58 501.324 1611.99C501.709 1611.4 501.902 1610.72 501.902 1609.95C501.902 1608.95 501.573 1608.17 500.916 1607.6C500.259 1607.03 499.284 1606.75 497.992 1606.75C497.176 1606.75 496.428 1606.84 495.748 1607.02C495.091 1607.2 494.479 1607.44 493.912 1607.74C493.368 1608.03 492.847 1608.34 492.348 1608.65L490.41 1605.83C491.022 1605.38 491.713 1604.97 492.484 1604.61C493.255 1604.22 494.105 1603.93 495.034 1603.72C495.986 1603.5 497.029 1603.38 498.162 1603.38C500.678 1603.38 502.605 1603.92 503.942 1604.98C505.302 1606.05 505.982 1607.48 505.982 1609.27Z" fill="#535353" id="n1965"/>
<g clip-path="url(#clip50_68_6728)" id="n1966">
<path d="M463.404 1637.79C464.117 1637.79 464.704 1637.88 465.164 1638.05C465.631 1638.23 465.976 1638.5 466.199 1638.86C466.429 1639.21 466.544 1639.66 466.544 1640.19C466.544 1640.6 466.467 1640.94 466.314 1641.23C466.168 1641.51 465.972 1641.74 465.727 1641.93C465.489 1642.11 465.233 1642.26 464.957 1642.38L467.303 1646H465.716L463.738 1642.73H462.473V1646H461.07V1637.79H463.404ZM463.312 1638.96H462.473V1641.57H463.358C463.772 1641.57 464.106 1641.52 464.359 1641.42C464.619 1641.32 464.811 1641.17 464.934 1640.97C465.056 1640.78 465.118 1640.53 465.118 1640.24C465.118 1639.93 465.052 1639.69 464.922 1639.5C464.792 1639.31 464.592 1639.17 464.324 1639.09C464.063 1639 463.726 1638.96 463.312 1638.96ZM473.853 1642.87C473.853 1643.39 473.784 1643.85 473.646 1644.25C473.508 1644.65 473.309 1644.99 473.048 1645.28C472.795 1645.55 472.484 1645.76 472.116 1645.91C471.748 1646.05 471.338 1646.12 470.886 1646.12C470.464 1646.12 470.073 1646.05 469.713 1645.91C469.353 1645.76 469.042 1645.55 468.781 1645.28C468.521 1644.99 468.318 1644.65 468.172 1644.25C468.026 1643.85 467.953 1643.39 467.953 1642.87C467.953 1642.18 468.072 1641.6 468.31 1641.12C468.548 1640.65 468.889 1640.29 469.333 1640.04C469.778 1639.79 470.307 1639.66 470.92 1639.66C471.495 1639.66 472.001 1639.79 472.438 1640.04C472.875 1640.29 473.22 1640.65 473.473 1641.12C473.726 1641.6 473.853 1642.18 473.853 1642.87ZM469.368 1642.87C469.368 1643.32 469.422 1643.71 469.529 1644.02C469.636 1644.34 469.801 1644.58 470.023 1644.75C470.253 1644.91 470.549 1644.99 470.909 1644.99C471.262 1644.99 471.549 1644.91 471.771 1644.75C472.001 1644.58 472.17 1644.34 472.277 1644.02C472.385 1643.71 472.438 1643.33 472.438 1642.88C472.438 1642.43 472.385 1642.05 472.277 1641.74C472.17 1641.43 472.001 1641.19 471.771 1641.03C471.549 1640.87 471.258 1640.79 470.897 1640.79C470.361 1640.79 469.97 1640.97 469.724 1641.33C469.487 1641.69 469.368 1642.2 469.368 1642.87ZM476.731 1646H475.351V1637.26H476.731V1646ZM479.988 1646H478.608V1637.26H479.988V1646Z" fill="#535353" id="n1967"/>
</g>
<g clip-path="url(#clip51_68_6728)" id="n1968">
<path d="M492.625 1641.81C492.625 1642.73 492.456 1643.5 492.119 1644.13C491.781 1644.75 491.294 1645.21 490.658 1645.53C490.022 1645.84 489.247 1646 488.335 1646H486.127V1637.79H488.577C489.42 1637.79 490.141 1637.94 490.739 1638.25C491.344 1638.56 491.808 1639.01 492.13 1639.61C492.46 1640.2 492.625 1640.93 492.625 1641.81ZM491.647 1641.85C491.647 1641.1 491.524 1640.5 491.279 1640.02C491.034 1639.54 490.67 1639.18 490.187 1638.94C489.711 1638.7 489.129 1638.58 488.439 1638.58H487.047V1645.21H488.22C489.362 1645.21 490.217 1644.93 490.785 1644.37C491.36 1643.8 491.647 1642.96 491.647 1641.85ZM499.014 1646H494.449V1637.79H499.014V1638.61H495.369V1641.3H498.796V1642.1H495.369V1645.18H499.014V1646ZM504.312 1641.71H507.199V1645.68C506.762 1645.82 506.317 1645.93 505.865 1646C505.42 1646.08 504.918 1646.12 504.358 1646.12C503.507 1646.12 502.787 1645.95 502.196 1645.61C501.614 1645.27 501.169 1644.79 500.862 1644.16C500.556 1643.52 500.402 1642.77 500.402 1641.89C500.402 1641.04 500.571 1640.3 500.908 1639.67C501.246 1639.05 501.729 1638.56 502.357 1638.2C502.994 1637.85 503.756 1637.67 504.646 1637.67C505.098 1637.67 505.527 1637.72 505.934 1637.8C506.348 1637.88 506.731 1638 507.084 1638.16L506.727 1638.96C506.421 1638.82 506.083 1638.71 505.715 1638.63C505.355 1638.54 504.983 1638.49 504.6 1638.49C503.925 1638.49 503.346 1638.63 502.863 1638.92C502.38 1639.19 502.008 1639.59 501.748 1640.1C501.495 1640.61 501.368 1641.2 501.368 1641.89C501.368 1642.59 501.479 1643.2 501.702 1643.71C501.932 1644.22 502.281 1644.61 502.748 1644.9C503.224 1645.17 503.829 1645.31 504.565 1645.31C504.818 1645.31 505.044 1645.3 505.244 1645.29C505.443 1645.26 505.627 1645.23 505.796 1645.19C505.964 1645.16 506.122 1645.12 506.267 1645.08V1642.54H504.312V1641.71Z" fill="#535353" id="n1969"/>
</g>
</g>
</svg>
