<?xml version='1.0' encoding='utf-8'?>
<svg xmlns="http://www.w3.org/2000/svg" xmlns:xlink="http://www.w3.org/1999/xlink" width="384.0" height="384.0" viewBox="0 0 384.0 384.0" fill="none">
  <defs><clipPath id="clip__asset"><rect x="0" y="0" width="384.0" height="384.0"/></clipPath><mask id="mask75_68_6728" style="mask-type:alpha" maskUnits="userSpaceOnUse" x="7430" y="1431" width="26" height="512">
<path d="M7442.2 1519C7446.68 1519 7448.92 1519 7450.63 1519.87C7452.14 1520.64 7453.36 1521.86 7454.13 1523.37C7455 1525.08 7455 1527.32 7455 1531.8L7455 1842.2C7455 1846.68 7455 1848.92 7454.13 1850.63C7453.36 1852.14 7452.14 1853.36 7450.63 1854.13C7448.92 1855 7446.68 1855 7442.2 1855L7431 1855L7431 1519L7442.2 1519Z" fill="white" stroke="black" id="n363"/>
</mask>
<mask id="mask76_68_6728" style="mask-type:alpha" maskUnits="userSpaceOnUse" x="7118" y="1518" width="314" height="338">
<path d="M7119 1531.8C7119 1527.32 7119 1525.08 7119.87 1523.37C7120.64 1521.86 7121.86 1520.64 7123.37 1519.87C7125.08 1519 7127.32 1519 7131.8 1519H7431V1855H7131.8C7127.32 1855 7125.08 1855 7123.37 1854.13C7121.86 1853.36 7120.64 1852.14 7119.87 1850.63C7119 1848.92 7119 1846.68 7119 1842.2V1531.8Z" fill="white" stroke="black" id="n373"/>
</mask>
<mask id="mask77_68_6728" style="mask-type:alpha" maskUnits="userSpaceOnUse" x="7119" y="1518" width="313" height="338">
<path d="M7431 1519V1855H7383V1519H7431Z" fill="white" stroke="black" id="n377"/>
</mask>
<clipPath id="clip4_68_6728">
<rect width="336" height="270" fill="white" transform="translate(7047 1519)" id="n1315"/>
</clipPath>
</defs>
  <g clip-path="url(#clip__asset)" transform="translate(-7095.0 -1495.0)"><path d="M7119 1531.8C7119 1527.32 7119 1525.08 7119.87 1523.37C7120.64 1521.86 7121.86 1520.64 7123.37 1519.87C7125.08 1519 7127.32 1519 7131.8 1519H7442.2C7446.68 1519 7448.92 1519 7450.63 1519.87C7452.14 1520.64 7453.36 1521.86 7454.13 1523.37C7455 1525.08 7455 1527.32 7455 1531.8V1842.2C7455 1846.68 7455 1848.92 7454.13 1850.63C7453.36 1852.14 7452.14 1853.36 7450.63 1854.13C7448.92 1855 7446.68 1855 7442.2 1855H7131.8C7127.32 1855 7125.08 1855 7123.37 1854.13C7121.86 1853.36 7120.64 1852.14 7119.87 1850.63C7119 1848.92 7119 1846.68 7119 1842.2V1531.8Z" fill="white" stroke="white" id="n358"/>
<rect x="7383" y="1519" width="48" height="336" fill="#F0F0F0" stroke="#F0F0F0" id="n359"/>
<path d="M7383 1855L7383 1519" stroke="#BEBEBE" stroke-linecap="square" id="n360"/>
<path d="M7455 1687L7119 1687" stroke="#BEBEBE" stroke-linecap="square" id="n361"/>
<path d="M7119 1531.8C7119 1527.32 7119 1525.08 7119.87 1523.37C7120.64 1521.86 7121.86 1520.64 7123.37 1519.87C7125.08 1519 7127.32 1519 7131.8 1519H7442.2C7446.68 1519 7448.92 1519 7450.63 1519.87C7452.14 1520.64 7453.36 1521.86 7454.13 1523.37C7455 1525.08 7455 1527.32 7455 1531.8V1842.2C7455 1846.68 7455 1848.92 7454.13 1850.63C7453.36 1852.14 7452.14 1853.36 7450.63 1854.13C7448.92 1855 7446.68 1855 7442.2 1855H7131.8C7127.32 1855 7125.08 1855 7123.37 1854.13C7121.86 1853.36 7120.64 1852.14 7119.87 1850.63C7119 1848.92 7119 1846.68 7119 1842.2V1531.8Z" stroke="#BEBEBE" id="n362"/>
<g mask="url(#mask75_68_6728)" id="n364">
<path d="M7443 1687L7435 1687M7443 1703.8L7435 1703.8M7443 1720.6L7435 1720.6M7443 1737.4L7435 1737.4M7443 1754.2L7435 1754.2M7443 1771L7435 1771M7443 1787.8L7435 1787.8M7443 1804.6L7435 1804.6M7443 1821.4L7435 1821.4M7443 1838.2L7435 1838.2M7443 1855L7435 1855M7443 1670.2L7435 1670.2M7443 1653.4L7435 1653.4M7443 1636.6L7435 1636.6M7443 1619.8L7435 1619.8M7443 1603L7435 1603M7443 1586.2L7435 1586.2M7443 1569.4L7435 1569.4M7443 1552.6L7435 1552.6M7443 1535.8L7435 1535.8M7443 1519L7435 1519" stroke="#BEBEBE" id="n365"/>
<path d="M7459 1687L7435 1687M7459 1771L7435 1771M7459 1855L7435 1855M7459 1603L7435 1603M7459 1519L7435 1519" stroke="#BEBEBE" id="n366"/>
<path d="M7459 1687L7431 1687" stroke="#BEBEBE" id="n367"/>
</g>
<path d="M7467.4 1524H7466.48V1517.89C7466.48 1517.66 7466.48 1517.46 7466.48 1517.3C7466.48 1517.14 7466.49 1517 7466.49 1516.86C7466.5 1516.72 7466.5 1516.57 7466.51 1516.43C7466.39 1516.55 7466.28 1516.65 7466.18 1516.74C7466.07 1516.82 7465.94 1516.93 7465.79 1517.06L7464.78 1517.86L7464.29 1517.22L7466.61 1515.43H7467.4V1524ZM7476.32 1519.7C7476.32 1520.4 7476.26 1521.02 7476.15 1521.58C7476.05 1522.12 7475.88 1522.58 7475.66 1522.96C7475.43 1523.33 7475.14 1523.62 7474.78 1523.82C7474.42 1524.02 7473.99 1524.12 7473.49 1524.12C7472.86 1524.12 7472.34 1523.95 7471.91 1523.6C7471.5 1523.25 7471.19 1522.75 7470.98 1522.09C7470.78 1521.43 7470.68 1520.63 7470.68 1519.7C7470.68 1518.79 7470.77 1518.01 7470.95 1517.35C7471.14 1516.69 7471.44 1516.18 7471.85 1515.83C7472.27 1515.48 7472.81 1515.3 7473.49 1515.3C7474.13 1515.3 7474.67 1515.48 7475.08 1515.83C7475.5 1516.18 7475.81 1516.68 7476.01 1517.34C7476.21 1518 7476.32 1518.78 7476.32 1519.7ZM7471.63 1519.7C7471.63 1520.51 7471.69 1521.18 7471.81 1521.72C7471.93 1522.25 7472.13 1522.65 7472.41 1522.92C7472.68 1523.18 7473.04 1523.32 7473.49 1523.32C7473.93 1523.32 7474.29 1523.18 7474.57 1522.92C7474.84 1522.66 7475.04 1522.26 7475.17 1521.72C7475.29 1521.18 7475.36 1520.51 7475.36 1519.7C7475.36 1518.91 7475.29 1518.25 7475.17 1517.72C7475.05 1517.19 7474.85 1516.78 7474.58 1516.51C7474.31 1516.24 7473.95 1516.1 7473.49 1516.1C7473.03 1516.1 7472.67 1516.24 7472.39 1516.52C7472.12 1516.8 7471.93 1517.2 7471.81 1517.74C7471.69 1518.26 7471.63 1518.92 7471.63 1519.7ZM7483.19 1519.7C7483.19 1520.4 7483.13 1521.02 7483.02 1521.58C7482.91 1522.12 7482.75 1522.58 7482.53 1522.96C7482.3 1523.33 7482.01 1523.62 7481.65 1523.82C7481.29 1524.02 7480.86 1524.12 7480.35 1524.12C7479.73 1524.12 7479.21 1523.95 7478.78 1523.6C7478.37 1523.25 7478.05 1522.75 7477.85 1522.09C7477.65 1521.43 7477.55 1520.63 7477.55 1519.7C7477.55 1518.79 7477.64 1518.01 7477.82 1517.35C7478.01 1516.69 7478.31 1516.18 7478.72 1515.83C7479.14 1515.48 7479.68 1515.3 7480.35 1515.3C7481 1515.3 7481.53 1515.48 7481.95 1515.83C7482.37 1516.18 7482.67 1516.68 7482.87 1517.34C7483.08 1518 7483.19 1518.78 7483.19 1519.7ZM7478.49 1519.7C7478.49 1520.51 7478.55 1521.18 7478.67 1521.72C7478.8 1522.25 7479 1522.65 7479.27 1522.92C7479.55 1523.18 7479.91 1523.32 7480.35 1523.32C7480.8 1523.32 7481.16 1523.18 7481.43 1522.92C7481.71 1522.66 7481.91 1522.26 7482.03 1521.72C7482.16 1521.18 7482.23 1520.51 7482.23 1519.7C7482.23 1518.91 7482.16 1518.25 7482.03 1517.72C7481.91 1517.19 7481.72 1516.78 7481.45 1516.51C7481.18 1516.24 7480.82 1516.1 7480.35 1516.1C7479.9 1516.1 7479.53 1516.24 7479.26 1516.52C7478.99 1516.8 7478.79 1517.2 7478.67 1517.74C7478.55 1518.26 7478.49 1518.92 7478.49 1519.7Z" fill="#707070" id="n368"/>
<path d="M7466.43 1602.77C7467.02 1602.77 7467.52 1602.87 7467.94 1603.07C7468.38 1603.27 7468.71 1603.56 7468.94 1603.93C7469.17 1604.3 7469.29 1604.75 7469.29 1605.29C7469.29 1605.87 7469.16 1606.38 7468.9 1606.8C7468.66 1607.22 7468.29 1607.55 7467.81 1607.78C7467.34 1608.01 7466.78 1608.12 7466.12 1608.12C7465.67 1608.12 7465.26 1608.08 7464.87 1608C7464.5 1607.91 7464.18 1607.8 7463.91 1607.65V1606.75C7464.19 1606.92 7464.53 1607.06 7464.93 1607.16C7465.34 1607.26 7465.74 1607.32 7466.13 1607.32C7466.57 1607.32 7466.96 1607.24 7467.28 1607.1C7467.61 1606.96 7467.87 1606.74 7468.05 1606.45C7468.24 1606.16 7468.33 1605.8 7468.33 1605.37C7468.33 1604.8 7468.15 1604.35 7467.79 1604.04C7467.44 1603.72 7466.88 1603.56 7466.13 1603.56C7465.89 1603.56 7465.62 1603.58 7465.33 1603.63C7465.04 1603.67 7464.8 1603.72 7464.61 1603.76L7464.13 1603.45L7464.45 1599.43H7468.71V1600.3H7465.26L7465.04 1602.91C7465.18 1602.89 7465.38 1602.86 7465.62 1602.83C7465.86 1602.79 7466.13 1602.77 7466.43 1602.77ZM7476.25 1603.7C7476.25 1604.4 7476.2 1605.02 7476.08 1605.58C7475.98 1606.12 7475.82 1606.58 7475.59 1606.96C7475.37 1607.33 7475.08 1607.62 7474.72 1607.82C7474.36 1608.02 7473.92 1608.12 7473.42 1608.12C7472.8 1608.12 7472.27 1607.95 7471.85 1607.6C7471.43 1607.25 7471.12 1606.75 7470.91 1606.09C7470.71 1605.43 7470.61 1604.63 7470.61 1603.7C7470.61 1602.79 7470.7 1602.01 7470.89 1601.35C7471.07 1600.69 7471.37 1600.18 7471.79 1599.83C7472.2 1599.48 7472.75 1599.3 7473.42 1599.3C7474.07 1599.3 7474.6 1599.48 7475.02 1599.83C7475.43 1600.18 7475.74 1600.68 7475.94 1601.34C7476.15 1602 7476.25 1602.78 7476.25 1603.7ZM7471.56 1603.7C7471.56 1604.51 7471.62 1605.18 7471.74 1605.72C7471.87 1606.25 7472.07 1606.65 7472.34 1606.92C7472.61 1607.18 7472.97 1607.32 7473.42 1607.32C7473.87 1607.32 7474.23 1607.18 7474.5 1606.92C7474.77 1606.66 7474.97 1606.26 7475.1 1605.72C7475.23 1605.18 7475.29 1604.51 7475.29 1603.7C7475.29 1602.91 7475.23 1602.25 7475.1 1601.72C7474.98 1601.19 7474.78 1600.78 7474.51 1600.51C7474.25 1600.24 7473.88 1600.1 7473.42 1600.1C7472.96 1600.1 7472.6 1600.24 7472.33 1600.52C7472.06 1600.8 7471.86 1601.2 7471.74 1601.74C7471.62 1602.26 7471.56 1602.92 7471.56 1603.7Z" fill="#707070" id="n369"/>
<path d="M7469.32 1687.7C7469.32 1688.4 7469.26 1689.02 7469.15 1689.58C7469.05 1690.12 7468.88 1690.58 7468.66 1690.96C7468.43 1691.33 7468.14 1691.62 7467.78 1691.82C7467.42 1692.02 7466.99 1692.12 7466.49 1692.12C7465.86 1692.12 7465.34 1691.95 7464.91 1691.6C7464.5 1691.25 7464.19 1690.75 7463.98 1690.09C7463.78 1689.43 7463.68 1688.63 7463.68 1687.7C7463.68 1686.79 7463.77 1686.01 7463.95 1685.35C7464.14 1684.69 7464.44 1684.18 7464.85 1683.83C7465.27 1683.48 7465.81 1683.3 7466.49 1683.3C7467.13 1683.3 7467.67 1683.48 7468.08 1683.83C7468.5 1684.18 7468.81 1684.68 7469.01 1685.34C7469.21 1686 7469.32 1686.78 7469.32 1687.7ZM7464.63 1687.7C7464.63 1688.51 7464.69 1689.18 7464.81 1689.72C7464.93 1690.25 7465.13 1690.65 7465.41 1690.92C7465.68 1691.18 7466.04 1691.32 7466.49 1691.32C7466.93 1691.32 7467.29 1691.18 7467.57 1690.92C7467.84 1690.66 7468.04 1690.26 7468.17 1689.72C7468.29 1689.18 7468.36 1688.51 7468.36 1687.7C7468.36 1686.91 7468.29 1686.25 7468.17 1685.72C7468.05 1685.19 7467.85 1684.78 7467.58 1684.51C7467.31 1684.24 7466.95 1684.1 7466.49 1684.1C7466.03 1684.1 7465.67 1684.24 7465.39 1684.52C7465.12 1684.8 7464.93 1685.2 7464.81 1685.74C7464.69 1686.26 7464.63 1686.92 7464.63 1687.7Z" fill="#707070" id="n370"/>
<path d="M7463.68 1773.19V1772.35H7466.58V1773.19H7463.68ZM7470.37 1770.77C7470.95 1770.77 7471.45 1770.87 7471.88 1771.07C7472.31 1771.27 7472.64 1771.56 7472.87 1771.93C7473.11 1772.3 7473.22 1772.75 7473.22 1773.29C7473.22 1773.87 7473.09 1774.38 7472.84 1774.8C7472.59 1775.22 7472.23 1775.55 7471.75 1775.78C7471.27 1776.01 7470.71 1776.12 7470.05 1776.12C7469.61 1776.12 7469.19 1776.08 7468.81 1776C7468.43 1775.91 7468.11 1775.8 7467.85 1775.65V1774.75C7468.13 1774.92 7468.47 1775.06 7468.87 1775.16C7469.27 1775.26 7469.67 1775.32 7470.07 1775.32C7470.51 1775.32 7470.89 1775.24 7471.22 1775.1C7471.55 1774.96 7471.8 1774.74 7471.99 1774.45C7472.17 1774.16 7472.26 1773.8 7472.26 1773.37C7472.26 1772.8 7472.08 1772.35 7471.72 1772.04C7471.37 1771.72 7470.82 1771.56 7470.07 1771.56C7469.83 1771.56 7469.56 1771.58 7469.26 1771.63C7468.97 1771.67 7468.73 1771.72 7468.54 1771.76L7468.06 1771.45L7468.39 1767.43H7472.65V1768.3H7469.19L7468.97 1770.91C7469.12 1770.89 7469.31 1770.86 7469.55 1770.83C7469.79 1770.79 7470.06 1770.77 7470.37 1770.77ZM7480.19 1771.7C7480.19 1772.4 7480.13 1773.02 7480.02 1773.58C7479.91 1774.12 7479.75 1774.58 7479.53 1774.96C7479.3 1775.33 7479.01 1775.62 7478.65 1775.82C7478.29 1776.02 7477.86 1776.12 7477.35 1776.12C7476.73 1776.12 7476.21 1775.95 7475.78 1775.6C7475.37 1775.25 7475.05 1774.75 7474.85 1774.09C7474.65 1773.43 7474.55 1772.63 7474.55 1771.7C7474.55 1770.79 7474.64 1770.01 7474.82 1769.35C7475.01 1768.69 7475.31 1768.18 7475.72 1767.83C7476.14 1767.48 7476.68 1767.3 7477.35 1767.3C7478 1767.3 7478.53 1767.48 7478.95 1767.83C7479.37 1768.18 7479.67 1768.68 7479.87 1769.34C7480.08 1770 7480.19 1770.78 7480.19 1771.7ZM7475.49 1771.7C7475.49 1772.51 7475.55 1773.18 7475.67 1773.72C7475.8 1774.25 7476 1774.65 7476.27 1774.92C7476.55 1775.18 7476.91 1775.32 7477.35 1775.32C7477.8 1775.32 7478.16 1775.18 7478.43 1774.92C7478.71 1774.66 7478.91 1774.26 7479.03 1773.72C7479.16 1773.18 7479.23 1772.51 7479.23 1771.7C7479.23 1770.91 7479.16 1770.25 7479.03 1769.72C7478.91 1769.19 7478.72 1768.78 7478.45 1768.51C7478.18 1768.24 7477.82 1768.1 7477.35 1768.1C7476.9 1768.1 7476.53 1768.24 7476.26 1768.52C7475.99 1768.8 7475.79 1769.2 7475.67 1769.74C7475.55 1770.26 7475.49 1770.92 7475.49 1771.7Z" fill="#707070" id="n371"/>
<path d="M7463.75 1857.19V1856.35H7466.65V1857.19H7463.75ZM7471.33 1860H7470.41V1853.89C7470.41 1853.66 7470.41 1853.46 7470.41 1853.3C7470.42 1853.14 7470.42 1853 7470.42 1852.86C7470.43 1852.72 7470.44 1852.57 7470.44 1852.43C7470.32 1852.55 7470.21 1852.65 7470.11 1852.74C7470 1852.82 7469.88 1852.93 7469.72 1853.06L7468.72 1853.86L7468.22 1853.22L7470.54 1851.43H7471.33V1860ZM7480.25 1855.7C7480.25 1856.4 7480.2 1857.02 7480.08 1857.58C7479.98 1858.12 7479.82 1858.58 7479.59 1858.96C7479.37 1859.33 7479.08 1859.62 7478.72 1859.82C7478.36 1860.02 7477.92 1860.12 7477.42 1860.12C7476.8 1860.12 7476.27 1859.95 7475.85 1859.6C7475.43 1859.25 7475.12 1858.75 7474.91 1858.09C7474.71 1857.43 7474.61 1856.63 7474.61 1855.7C7474.61 1854.79 7474.7 1854.01 7474.89 1853.35C7475.07 1852.69 7475.37 1852.18 7475.79 1851.83C7476.2 1851.48 7476.75 1851.3 7477.42 1851.3C7478.07 1851.3 7478.6 1851.48 7479.02 1851.83C7479.43 1852.18 7479.74 1852.68 7479.94 1853.34C7480.15 1854 7480.25 1854.78 7480.25 1855.7ZM7475.56 1855.7C7475.56 1856.51 7475.62 1857.18 7475.74 1857.72C7475.87 1858.25 7476.07 1858.65 7476.34 1858.92C7476.61 1859.18 7476.97 1859.32 7477.42 1859.32C7477.87 1859.32 7478.23 1859.18 7478.5 1858.92C7478.77 1858.66 7478.97 1858.26 7479.1 1857.72C7479.23 1857.18 7479.29 1856.51 7479.29 1855.7C7479.29 1854.91 7479.23 1854.25 7479.1 1853.72C7478.98 1853.19 7478.78 1852.78 7478.51 1852.51C7478.25 1852.24 7477.88 1852.1 7477.42 1852.1C7476.96 1852.1 7476.6 1852.24 7476.33 1852.52C7476.06 1852.8 7475.86 1853.2 7475.74 1853.74C7475.62 1854.26 7475.56 1854.92 7475.56 1855.7ZM7487.12 1855.7C7487.12 1856.4 7487.06 1857.02 7486.95 1857.58C7486.85 1858.12 7486.68 1858.58 7486.46 1858.96C7486.24 1859.33 7485.94 1859.62 7485.58 1859.82C7485.22 1860.02 7484.79 1860.12 7484.29 1860.12C7483.66 1860.12 7483.14 1859.95 7482.72 1859.6C7482.3 1859.25 7481.99 1858.75 7481.78 1858.09C7481.58 1857.43 7481.48 1856.63 7481.48 1855.7C7481.48 1854.79 7481.57 1854.01 7481.76 1853.35C7481.94 1852.69 7482.24 1852.18 7482.66 1851.83C7483.07 1851.48 7483.62 1851.3 7484.29 1851.3C7484.94 1851.3 7485.47 1851.48 7485.88 1851.83C7486.3 1852.18 7486.61 1852.68 7486.81 1853.34C7487.02 1854 7487.12 1854.78 7487.12 1855.7ZM7482.43 1855.7C7482.43 1856.51 7482.49 1857.18 7482.61 1857.72C7482.74 1858.25 7482.94 1858.65 7483.21 1858.92C7483.48 1859.18 7483.84 1859.32 7484.29 1859.32C7484.74 1859.32 7485.1 1859.18 7485.37 1858.92C7485.64 1858.66 7485.84 1858.26 7485.97 1857.72C7486.1 1857.18 7486.16 1856.51 7486.16 1855.7C7486.16 1854.91 7486.1 1854.25 7485.97 1853.72C7485.85 1853.19 7485.65 1852.78 7485.38 1852.51C7485.12 1852.24 7484.75 1852.1 7484.29 1852.1C7483.83 1852.1 7483.47 1852.24 7483.2 1852.52C7482.92 1852.8 7482.73 1853.2 7482.61 1853.74C7482.49 1854.26 7482.43 1854.92 7482.43 1855.7Z" fill="#707070" id="n372"/>
<g mask="url(#mask76_68_6728)" id="n374">
<g clip-path="url(#clip4_68_6728)" id="n375">
<path d="M7383 1687.91C7383 1687.91 7376.66 1695.05 7373.48 1689.59C7370.31 1684.13 7366.61 1645.9 7363.44 1645.9C7360.27 1645.9 7359.74 1662.99 7354.46 1665.64C7349.17 1668.3 7346.86 1684.13 7344.94 1684.13C7340.71 1684.13 7340.18 1679.51 7338.07 1679.51C7335.95 1679.51 7334.37 1718.57 7331.2 1718.57C7328.02 1718.57 7322.74 1676.57 7319.04 1676.57C7317.26 1676.57 7314.28 1689.59 7310.58 1689.59C7306.88 1689.59 7304.3 1690.85 7302.65 1690.85C7299.48 1690.85 7296.84 1675.73 7293.67 1675.73C7290.49 1675.73 7291.55 1708.07 7287.85 1708.07C7284.15 1708.07 7276.22 1711.43 7269.35 1711.43C7262.48 1711.43 7256.66 1703.87 7251.38 1699.67C7246.09 1695.47 7239.75 1696.73 7232.35 1696.73C7224.95 1696.73 7222.83 1693.79 7216.49 1688.75C7213.6 1686.45 7210.67 1675.73 7206.45 1674.05C7202.22 1672.37 7194.72 1638.34 7192.7 1638.34C7189 1638.34 7188.47 1656.4 7184.77 1656.4C7181.07 1656.4 7181.07 1650.1 7177.37 1650.1C7173.67 1650.1 7172.09 1675.31 7167.33 1675.31C7162.57 1675.31 7164.16 1627 7159.93 1627C7155.7 1627 7150.41 1724.03 7145.66 1724.03C7140.9 1724.03 7142.48 1700.09 7137.73 1700.09C7132.97 1700.09 7135.08 1666.9 7130.33 1666.9C7128.06 1666.9 7120.28 1684.55 7113.94 1684.55C7107.6 1684.55 7103.49 1696.73 7100.73 1696.73C7095.44 1696.73 7094.91 1695.47 7089.1 1690.85C7083.28 1686.23 7084.87 1653.88 7081.7 1653.88C7078.52 1653.88 7079.05 1693.37 7073.24 1693.37C7067.42 1693.37 7069.01 1707.65 7063.19 1707.65C7057.38 1707.65 7047.86 1696.73 7042.58 1696.73" stroke="#2D548B" stroke-width="2" stroke-linecap="square" id="n376"/>
</g>
</g>
<g mask="url(#mask77_68_6728)" id="n378">
<rect x="7383" y="1603" width="48" height="84" fill="#2D548B" stroke="#2D548B" id="n379"/>
</g>
<path d="M7450.1 1612.26C7449.32 1612.61 7448.34 1612.6 7447.52 1612.05L7435.95 1604.24C7435.07 1603.64 7435.07 1602.35 7435.95 1601.75L7447.52 1593.94C7448.34 1593.39 7449.32 1593.38 7450.1 1593.73C7450.88 1594.08 7451.5 1594.82 7451.5 1595.8L7451.5 1610.19C7451.5 1611.17 7450.88 1611.91 7450.1 1612.26Z" fill="#2D548B" stroke="white" stroke-linejoin="round" id="n380"/>
</g>
</svg>
