<?xml version='1.0' encoding='utf-8'?>
<svg xmlns="http://www.w3.org/2000/svg" xmlns:xlink="http://www.w3.org/1999/xlink" width="512.0" height="512.0" viewBox="0 0 512.0 512.0" fill="none">
  <defs><clipPath id="clip__asset"><rect x="0" y="0" width="512.0" height="512.0"/></clipPath><mask id="path-721-inside-62_68_6728" fill="white">
<path d="M26162.6 1181.33C26161.5 1182.22 26160 1182.08 26159.1 1181.03L26151.4 1171.83C26150.5 1170.78 26150.6 1169.2 26151.7 1168.31C26152.7 1167.42 26154.3 1167.56 26155.2 1168.62L26162.9 1177.81C26163.8 1178.87 26163.7 1180.45 26162.6 1181.33Z" id="n903"/>
</mask>
<mask id="path-723-inside-63_68_6728" fill="white">
<path d="M25925.4 1181.33C25924.3 1180.45 25924.2 1178.87 25925.1 1177.81L25932.8 1168.62C25933.7 1167.56 25935.3 1167.42 25936.3 1168.31C25937.4 1169.2 25937.5 1170.78 25936.6 1171.83L25928.9 1181.03C25928 1182.08 25926.5 1182.22 25925.4 1181.33Z" id="n906"/>
</mask>
</defs>
  <g clip-path="url(#clip__asset)" transform="translate(-25788.0 -784.0)"><path d="M26162.6 1181.33C26161.5 1182.22 26160 1182.08 26159.1 1181.03L26151.4 1171.83C26150.5 1170.78 26150.6 1169.2 26151.7 1168.31C26152.7 1167.42 26154.3 1167.56 26155.2 1168.62L26162.9 1177.81C26163.8 1178.87 26163.7 1180.45 26162.6 1181.33Z" fill="#BEBEBE" id="n904"/>
<path d="M26162.9 1177.81L26163.7 1177.17L26162.9 1177.81ZM26162.6 1181.33L26162 1180.57C26161.3 1181.1 26160.4 1181.02 26159.8 1180.38L26159.1 1181.03L26158.3 1181.67C26159.6 1183.15 26161.8 1183.34 26163.2 1182.1L26162.6 1181.33ZM26159.1 1181.03L26159.8 1180.38L26152.1 1171.19L26151.4 1171.83L26150.6 1172.48L26158.3 1181.67L26159.1 1181.03ZM26151.4 1171.83L26152.1 1171.19C26151.6 1170.56 26151.7 1169.61 26152.3 1169.08L26151.7 1168.31L26151 1167.54C26149.5 1168.79 26149.4 1170.99 26150.6 1172.48L26151.4 1171.83ZM26151.7 1168.31L26152.3 1169.08C26152.9 1168.54 26153.9 1168.63 26154.4 1169.26L26155.2 1168.62L26156 1167.98C26154.7 1166.5 26152.5 1166.3 26151 1167.54L26151.7 1168.31ZM26155.2 1168.62L26154.4 1169.26L26162.1 1178.45L26162.9 1177.81L26163.7 1177.17L26156 1167.98L26155.2 1168.62ZM26162.9 1177.81L26162.1 1178.45C26162.7 1179.09 26162.6 1180.03 26162 1180.57L26162.6 1181.33L26163.2 1182.1C26164.7 1180.86 26164.9 1178.65 26163.7 1177.17L26162.9 1177.81Z" fill="#BEBEBE" mask="url(#path-721-inside-62_68_6728)" id="n905"/>
<path d="M25925.4 1181.33C25924.3 1180.45 25924.2 1178.87 25925.1 1177.81L25932.8 1168.62C25933.7 1167.56 25935.3 1167.42 25936.3 1168.31C25937.4 1169.2 25937.5 1170.78 25936.6 1171.83L25928.9 1181.03C25928 1182.08 25926.5 1182.22 25925.4 1181.33Z" fill="#BEBEBE" id="n907"/>
<path d="M25928.9 1181.03L25929.7 1181.67L25928.9 1181.03ZM25925.4 1181.33L25926 1180.57C25925.4 1180.04 25925.3 1179.09 25925.9 1178.46L25925.1 1177.81L25924.3 1177.17C25923.1 1178.65 25923.3 1180.86 25924.8 1182.1L25925.4 1181.33ZM25925.1 1177.81L25925.9 1178.46L25933.6 1169.26L25932.8 1168.62L25932 1167.98L25924.3 1177.17L25925.1 1177.81ZM25932.8 1168.62L25933.6 1169.26C25934.1 1168.63 25935.1 1168.55 25935.7 1169.08L25936.3 1168.31L25937 1167.55C25935.5 1166.3 25933.3 1166.5 25932 1167.98L25932.8 1168.62ZM25936.3 1168.31L25935.7 1169.08C25936.3 1169.61 25936.4 1170.56 25935.9 1171.19L25936.6 1171.83L25937.4 1172.48C25938.7 1171 25938.5 1168.79 25937 1167.55L25936.3 1168.31ZM25936.6 1171.83L25935.9 1171.19L25928.2 1180.38L25928.9 1181.03L25929.7 1181.67L25937.4 1172.48L25936.6 1171.83ZM25928.9 1181.03L25928.2 1180.38C25927.6 1181.02 25926.7 1181.1 25926 1180.57L25925.4 1181.33L25924.8 1182.1C25926.2 1183.34 25928.5 1183.15 25929.7 1181.67L25928.9 1181.03Z" fill="#BEBEBE" mask="url(#path-723-inside-63_68_6728)" id="n908"/>
</g>
</svg>
