<?xml version='1.0' encoding='utf-8'?>
<svg xmlns="http://www.w3.org/2000/svg" xmlns:xlink="http://www.w3.org/1999/xlink" width="24.0" height="32.0" viewBox="0 0 24.0 32.0" fill="none">
  <defs>
    <clipPath id="clip__asset">
      <rect x="0" y="0" width="24.0" height="32.0"/>
    </clipPath>
  </defs>
  <g clip-path="url(#clip__asset)" transform="translate(-9635.0 -659.0)"><path d="M9646.99 658.42C9648.82 658.42 9650.43 658.72 9651.81 659.32C9653.19 659.92 9654.28 660.79 9655.09 661.93C9655.9 663.07 9656.31 664.465 9656.31 666.115C9656.31 667.375 9656.07 668.5 9655.59 669.49C9655.14 670.45 9654.51 671.305 9653.7 672.055C9652.89 672.805 9651.93 673.48 9650.82 674.08C9652.02 674.74 9653.1 675.49 9654.06 676.33C9655.02 677.14 9655.78 678.07 9656.35 679.12C9656.92 680.14 9657.21 681.325 9657.21 682.675C9657.21 684.475 9656.79 686.035 9655.95 687.355C9655.11 688.645 9653.92 689.65 9652.39 690.37C9650.89 691.09 9649.11 691.45 9647.04 691.45C9644.85 691.45 9642.99 691.105 9641.46 690.415C9639.93 689.725 9638.76 688.75 9637.95 687.49C9637.14 686.2 9636.73 684.655 9636.73 682.855C9636.73 681.475 9636.99 680.26 9637.5 679.21C9638.01 678.13 9638.7 677.185 9639.57 676.375C9640.47 675.535 9641.5 674.815 9642.67 674.215C9641.68 673.555 9640.81 672.835 9640.06 672.055C9639.31 671.245 9638.73 670.36 9638.31 669.4C9637.89 668.41 9637.68 667.315 9637.68 666.115C9637.68 664.465 9638.08 663.07 9638.89 661.93C9639.73 660.79 9640.86 659.92 9642.27 659.32C9643.68 658.72 9645.25 658.42 9646.99 658.42ZM9642 682.675C9642 683.995 9642.4 685.075 9643.21 685.915C9644.05 686.755 9645.3 687.175 9646.95 687.175C9648.09 687.175 9649.02 686.995 9649.74 686.635C9650.46 686.245 9651.01 685.705 9651.4 685.015C9651.79 684.325 9651.99 683.53 9651.99 682.63C9651.99 681.82 9651.78 681.085 9651.36 680.425C9650.97 679.765 9650.41 679.165 9649.69 678.625C9649 678.055 9648.19 677.515 9647.26 677.005L9646.59 676.6C9645.6 677.11 9644.76 677.665 9644.07 678.265C9643.41 678.865 9642.9 679.525 9642.54 680.245C9642.18 680.965 9642 681.775 9642 682.675ZM9646.95 662.695C9645.78 662.695 9644.82 663.025 9644.07 663.685C9643.32 664.345 9642.94 665.275 9642.94 666.475C9642.94 667.315 9643.12 668.05 9643.48 668.68C9643.84 669.28 9644.32 669.82 9644.92 670.3C9645.55 670.78 9646.26 671.23 9647.04 671.65C9647.85 671.23 9648.54 670.78 9649.11 670.3C9649.71 669.82 9650.17 669.28 9650.5 668.68C9650.86 668.05 9651.04 667.315 9651.04 666.475C9651.04 665.275 9650.67 664.345 9649.92 663.685C9649.17 663.025 9648.18 662.695 9646.95 662.695Z" fill="black" id="n756"/>
</g>
</svg>
