<?xml version='1.0' encoding='utf-8'?>
<svg xmlns="http://www.w3.org/2000/svg" xmlns:xlink="http://www.w3.org/1999/xlink" width="512.0" height="972.0" viewBox="0 0 512.0 972.0" fill="none">
  <defs><clipPath id="clip__asset"><rect x="0" y="0" width="512.0" height="972.0"/></clipPath><mask id="mask50_68_6728" style="mask-type:alpha" maskUnits="userSpaceOnUse" x="11238" y="936" width="26" height="512">
<path d="M11250.2 1024C11254.7 1024 11256.9 1024 11258.6 1024.87C11260.1 1025.64 11261.4 1026.86 11262.1 1028.37C11263 1030.08 11263 1032.32 11263 1036.8L11263 1347.2C11263 1351.68 11263 1353.92 11262.1 1355.63C11261.4 1357.14 11260.1 1358.36 11258.6 1359.13C11256.9 1360 11254.7 1360 11250.2 1360L11239 1360L11239 1024L11250.2 1024Z" fill="white" stroke="black" id="n459"/>
</mask>
<mask id="mask51_68_6728" style="mask-type:alpha" maskUnits="userSpaceOnUse" x="11190" y="936" width="50" height="512">
<path d="M11239 1024V1360H11203.8C11199.3 1360 11197.1 1360 11195.4 1359.13C11193.9 1358.36 11192.6 1357.14 11191.9 1355.63C11191 1353.92 11191 1351.68 11191 1347.2V1036.8C11191 1032.32 11191 1030.08 11191.9 1028.37C11192.6 1026.86 11193.9 1025.64 11195.4 1024.87C11197.1 1024 11199.3 1024 11203.8 1024H11239Z" fill="white" stroke="black" id="n468"/>
</mask>
<mask id="mask52_68_6728" style="mask-type:luminance" maskUnits="userSpaceOnUse" x="10839" y="935" width="512" height="513">
<path d="M10927 1036.8C10927 1032.32 10927 1030.08 10927.9 1028.37C10928.6 1026.86 10929.9 1025.64 10931.4 1024.87C10933.1 1024 10935.3 1024 10939.8 1024L11191 1024V1360H10939.8C10935.3 1360 10933.1 1360 10931.4 1359.13C10929.9 1358.36 10928.6 1357.14 10927.9 1355.63C10927 1353.92 10927 1351.68 10927 1347.2V1036.8Z" fill="white" stroke="black" id="n471"/>
<path d="M11191 1024V1360" stroke="black" stroke-width="3" id="n472"/>
</mask>
<mask id="mask53_68_6728" style="mask-type:alpha" maskUnits="userSpaceOnUse" x="11238" y="488" width="26" height="512">
<path d="M11250.2 576C11254.7 576 11256.9 576 11258.6 576.872C11260.1 577.639 11261.4 578.863 11262.1 580.369C11263 582.08 11263 584.32 11263 588.8L11263 899.201C11263 903.681 11263 905.921 11262.1 907.632C11261.4 909.138 11260.1 910.362 11258.6 911.129C11256.9 912 11254.7 912 11250.2 912L11239 912L11239 576L11250.2 576Z" fill="white" stroke="black" id="n497"/>
</mask>
<mask id="mask54_68_6728" style="mask-type:alpha" maskUnits="userSpaceOnUse" x="11190" y="488" width="50" height="512">
<path d="M11239 576V912H11203.8C11199.3 912 11197.1 912 11195.4 911.129C11193.9 910.362 11192.6 909.138 11191.9 907.632C11191 905.921 11191 903.681 11191 899.201V588.8C11191 584.32 11191 582.08 11191.9 580.369C11192.6 578.863 11193.9 577.639 11195.4 576.872C11197.1 576 11199.3 576 11203.8 576H11239Z" fill="white" stroke="black" id="n506"/>
</mask>
<mask id="mask55_68_6728" style="mask-type:luminance" maskUnits="userSpaceOnUse" x="10839" y="487" width="512" height="513">
<path d="M10927 588.798C10927 584.318 10927 582.077 10927.9 580.366C10928.6 578.861 10929.9 577.637 10931.4 576.87C10933.1 575.998 10935.3 575.998 10939.8 575.998L11191 575.998V911.998H10939.8C10935.3 911.998 10933.1 911.998 10931.4 911.126C10929.9 910.359 10928.6 909.135 10927.9 907.63C10927 905.919 10927 903.678 10927 899.198V588.798Z" fill="white" stroke="black" id="n509"/>
<path d="M11191 576V912" stroke="black" stroke-width="3" id="n510"/>
</mask>
<clipPath id="clip7_68_6728">
<path d="M10839 524C10839 521.791 10840.8 520 10843 520H11347C11349.2 520 11351 521.791 11351 524V1488C11351 1490.21 11349.2 1492 11347 1492H10843C10840.8 1492 10839 1490.21 10839 1488V524Z" fill="white" id="n2511"/>
</clipPath>
</defs>
  <g clip-path="url(#clip__asset)" transform="translate(-10839.0 -520.0)"><g clip-path="url(#clip7_68_6728)" id="n453">
<path d="M10839 524C10839 521.791 10840.8 520 10843 520H11347C11349.2 520 11351 521.791 11351 524V1488C11351 1490.21 11349.2 1492 11347 1492H10843C10840.8 1492 10839 1490.21 10839 1488V524Z" fill="#F7F7F7" id="n454"/>
<path d="M11250.2 1024C11254.7 1024 11256.9 1024 11258.6 1024.87C11260.1 1025.64 11261.4 1026.86 11262.1 1028.37C11263 1030.08 11263 1032.32 11263 1036.8L11263 1347.2C11263 1351.68 11263 1353.92 11262.1 1355.63C11261.4 1357.14 11260.1 1358.36 11258.6 1359.13C11256.9 1360 11254.7 1360 11250.2 1360L11203.8 1360C11199.3 1360 11197.1 1360 11195.4 1359.13C11193.9 1358.36 11192.6 1357.14 11191.9 1355.63C11191 1353.92 11191 1351.68 11191 1347.2L11191 1036.8C11191 1032.32 11191 1030.08 11191.9 1028.37C11192.6 1026.86 11193.9 1025.64 11195.4 1024.87C11197.1 1024 11199.3 1024 11203.8 1024L11250.2 1024Z" fill="white" stroke="white" id="n455"/>
<path d="M11239 1024L11239 1360L11203.8 1360C11199.3 1360 11197.1 1360 11195.4 1359.13C11193.9 1358.36 11192.6 1357.14 11191.9 1355.63C11191 1353.92 11191 1351.68 11191 1347.2L11191 1036.8C11191 1032.32 11191 1030.08 11191.9 1028.37C11192.6 1026.86 11193.9 1025.64 11195.4 1024.87C11197.1 1024 11199.3 1024 11203.8 1024L11239 1024Z" fill="#F0F0F0" stroke="#F0F0F0" id="n456"/>
<path d="M11250.2 1024C11254.7 1024 11256.9 1024 11258.6 1024.87C11260.1 1025.64 11261.4 1026.86 11262.1 1028.37C11263 1030.08 11263 1032.32 11263 1036.8L11263 1347.2C11263 1351.68 11263 1353.92 11262.1 1355.63C11261.4 1357.14 11260.1 1358.36 11258.6 1359.13C11256.9 1360 11254.7 1360 11250.2 1360L11203.8 1360C11199.3 1360 11197.1 1360 11195.4 1359.13C11193.9 1358.36 11192.6 1357.14 11191.9 1355.63C11191 1353.92 11191 1351.68 11191 1347.2L11191 1036.8C11191 1032.32 11191 1030.08 11191.9 1028.37C11192.6 1026.86 11193.9 1025.64 11195.4 1024.87C11197.1 1024 11199.3 1024 11203.8 1024L11250.2 1024Z" stroke="#BEBEBE" id="n457"/>
<path d="M11263 1192L11191 1192" stroke="#BEBEBE" stroke-linecap="square" id="n458"/>
<mask id="mask50_68_6728" style="mask-type:alpha" maskUnits="userSpaceOnUse" x="11238" y="936" width="26" height="512">
<path d="M11250.2 1024C11254.7 1024 11256.9 1024 11258.6 1024.87C11260.1 1025.64 11261.4 1026.86 11262.1 1028.37C11263 1030.08 11263 1032.32 11263 1036.8L11263 1347.2C11263 1351.68 11263 1353.92 11262.1 1355.63C11261.4 1357.14 11260.1 1358.36 11258.6 1359.13C11256.9 1360 11254.7 1360 11250.2 1360L11239 1360L11239 1024L11250.2 1024Z" fill="white" stroke="black" id="n459"/>
</mask>
<g mask="url(#mask50_68_6728)" id="n460">
<path d="M11251 1192L11243 1192M11251 1208.8L11243 1208.8M11251 1225.6L11243 1225.6M11251 1242.4L11243 1242.4M11251 1259.2L11243 1259.2M11251 1276L11243 1276M11251 1292.8L11243 1292.8M11251 1309.6L11243 1309.6M11251 1326.4L11243 1326.4M11251 1343.2L11243 1343.2M11251 1360L11243 1360M11251 1175.2L11243 1175.2M11251 1158.4L11243 1158.4M11251 1141.6L11243 1141.6M11251 1124.8L11243 1124.8M11251 1108L11243 1108M11251 1091.2L11243 1091.2M11251 1074.4L11243 1074.4M11251 1057.6L11243 1057.6M11251 1040.8L11243 1040.8M11251 1024L11243 1024" stroke="#BEBEBE" id="n461"/>
<path d="M11267 1192L11243 1192M11267 1276L11243 1276M11267 1360L11243 1360M11267 1108L11243 1108M11267 1024L11243 1024" stroke="#BEBEBE" id="n462"/>
<path d="M11267 1192L11239 1192" stroke="#BEBEBE" id="n463"/>
</g>
<path d="M11189 1360H10939.7C10935.3 1360 10933 1360 10931.3 1359.13C10929.8 1358.36 10928.6 1357.14 10927.9 1355.63C10927 1353.92 10927 1351.68 10927 1347.2L10927 1036.8C10927 1032.32 10927 1030.08 10927.9 1028.37C10928.6 1026.86 10929.8 1025.64 10931.3 1024.87C10933 1024 10935.3 1024 10939.7 1024L11189 1024" stroke="#BEBEBE" stroke-linecap="round" id="n464"/>
<path d="M10927 1192H11191" stroke="#BEBEBE" id="n465"/>
<path d="M11239 1247H11191V1137H11239V1247Z" fill="#9CC1F5" id="n466"/>
<path d="M11239 1247V1247.5H11239.5V1247H11239ZM11191 1247H11190.5V1247.5H11191V1247ZM11191 1137V1136.5H11190.5V1137H11191ZM11239 1137H11239.5V1136.5H11239V1137ZM11239 1247V1246.5H11191V1247V1247.5H11239V1247ZM11191 1247H11191.5V1137H11191H11190.5V1247H11191ZM11191 1137V1137.5H11239V1137V1136.5H11191V1137ZM11239 1137H11238.5V1247H11239H11239.5V1137H11239Z" fill="#9CC1F5" id="n467"/>
<mask id="mask51_68_6728" style="mask-type:alpha" maskUnits="userSpaceOnUse" x="11190" y="936" width="50" height="512">
<path d="M11239 1024V1360H11203.8C11199.3 1360 11197.1 1360 11195.4 1359.13C11193.9 1358.36 11192.6 1357.14 11191.9 1355.63C11191 1353.92 11191 1351.68 11191 1347.2V1036.8C11191 1032.32 11191 1030.08 11191.9 1028.37C11192.6 1026.86 11193.9 1025.64 11195.4 1024.87C11197.1 1024 11199.3 1024 11203.8 1024H11239Z" fill="white" stroke="black" id="n468"/>
</mask>
<g mask="url(#mask51_68_6728)" id="n469">
<rect x="11191" y="1232" width="48" height="8" rx="4" fill="#2D548B" stroke="#9CC1F5" id="n470"/>
</g>
<mask id="mask52_68_6728" style="mask-type:luminance" maskUnits="userSpaceOnUse" x="10839" y="935" width="512" height="513">
<path d="M10927 1036.8C10927 1032.32 10927 1030.08 10927.9 1028.37C10928.6 1026.86 10929.9 1025.64 10931.4 1024.87C10933.1 1024 10935.3 1024 10939.8 1024L11191 1024V1360H10939.8C10935.3 1360 10933.1 1360 10931.4 1359.13C10929.9 1358.36 10928.6 1357.14 10927.9 1355.63C10927 1353.92 10927 1351.68 10927 1347.2V1036.8Z" fill="white" stroke="black" id="n471"/>
<path d="M11191 1024V1360" stroke="black" stroke-width="3" id="n472"/>
</mask>
<g mask="url(#mask52_68_6728)" id="n473">
<rect x="10927" y="1192" width="264" height="168" fill="#F0F0F0" stroke="#F7F7F7" id="n474"/>
<path d="M10963.5 1192C10986.7 1214 11019.7 1236 11059 1236C11098.3 1236 11131.3 1214 11154.5 1192H10963.5Z" fill="#9CC1F5" id="n475"/>
<path d="M10927 1148L10927 1192H10963.5C10940.4 1170 10927 1148 10927 1148Z" fill="#9CC1F5" id="n476"/>
<path d="M11191 1192V1148C11191 1148 11177.6 1170 11154.5 1192H11191Z" fill="#9CC1F5" id="n477"/>
<path d="M10963.5 1192C10986.7 1214 11019.7 1236 11059 1236C11098.3 1236 11131.3 1214 11154.5 1192M10963.5 1192H11154.5M10963.5 1192H10927L10927 1148C10927 1148 10940.4 1170 10963.5 1192ZM11154.5 1192C11177.6 1170 11191 1148 11191 1148V1192H11154.5Z" stroke="#9CC1F5" stroke-linecap="round" id="n478"/>
<path d="M11059 1229.45V1258.4C11059 1258.4 11071 1242.37 11067.8 1236C11066 1232.31 11059 1229.45 11059 1229.45Z" fill="white" id="n479"/>
<path d="M11059 1258.4V1229.45C11059 1229.45 11052.2 1232.24 11050.2 1235.85C11050.2 1235.9 11050.2 1235.95 11050.2 1236C11047 1242.37 11059 1258.4 11059 1258.4Z" fill="white" id="n480"/>
<path d="M11059 1258.4H11102.3C11104.5 1258.4 11106.3 1256.61 11106.3 1254.4V1236H11067.8C11071 1242.37 11059 1258.4 11059 1258.4Z" fill="white" id="n481"/>
<path d="M11011.7 1235.85V1254.4C11011.7 1256.61 11013.5 1258.4 11015.7 1258.4H11059C11059 1258.4 11047 1242.37 11050.2 1236C11050.2 1235.95 11050.2 1235.9 11050.2 1235.85H11011.7Z" fill="white" id="n482"/>
<path d="M11019.6 1184.8H11011.7V1216.8V1235.85H11050.2C11052.2 1232.24 11059 1229.45 11059 1229.45L11059 1184.8H11019.6Z" fill="white" id="n483"/>
<path d="M11106.3 1184.8H11098.4H11059L11059 1229.45C11059 1229.45 11066 1232.31 11067.8 1236H11106.3V1235.85V1216.8V1184.8Z" fill="white" id="n484"/>
<path d="M11098.4 1184.8V1164.8H11019.6V1184.8H11059H11098.4Z" fill="white" id="n485"/>
<path d="M11098.4 1164.8L11106.3 1148.43H11011.7L11019.6 1164.8H11098.4Z" fill="white" id="n486"/>
<path d="M11011.7 1148.43H11106.3H11110.2L11098.4 1137.53H11078.3H11072.4H11045.6H11039.7H11019.6L11007.8 1148.43H11011.7Z" fill="white" id="n487"/>
<path d="M11066.9 1111.2H11051.1L11039.7 1137.53H11045.6L11055.1 1115.74H11062.9L11072.4 1137.53H11078.3L11066.9 1111.2Z" fill="white" id="n488"/>
<path d="M11098.4 1184.8H11106.3V1216.8V1235.85V1236M11098.4 1184.8V1164.8M11098.4 1184.8H11059M11098.4 1164.8L11106.3 1148.43M11098.4 1164.8H11019.6M11106.3 1148.43H11011.7M11106.3 1148.43H11110.2L11098.4 1137.53H11078.3M11011.7 1148.43L11019.6 1164.8M11011.7 1148.43H11007.8L11019.6 1137.53H11039.7M11019.6 1164.8V1184.8M11019.6 1184.8H11011.7V1216.8V1235.85M11019.6 1184.8H11059M11039.7 1137.53H11078.3M11039.7 1137.53L11051.1 1111.2H11066.9L11078.3 1137.53M11039.7 1137.53H11045.6M11078.3 1137.53H11072.4M11011.7 1235.85V1254.4C11011.7 1256.61 11013.5 1258.4 11015.7 1258.4H11059M11011.7 1235.85H11050.2M11045.6 1137.53L11055.1 1115.74H11062.9L11072.4 1137.53M11045.6 1137.53H11072.4M11059 1184.8L11059 1229.45M11059 1258.4H11102.3C11104.5 1258.4 11106.3 1256.61 11106.3 1254.4V1236M11059 1258.4V1229.45M11059 1258.4C11059 1258.4 11071 1242.37 11067.8 1236M11059 1258.4C11059 1258.4 11047 1242.37 11050.2 1236C11050.2 1235.95 11050.2 1235.9 11050.2 1235.85M11059 1229.45C11059 1229.45 11066 1232.31 11067.8 1236M11059 1229.45C11059 1229.45 11052.2 1232.24 11050.2 1235.85M11067.8 1236H11106.3M11044.9 1210.4L11043.1 1207.2H11032.5L11034.3 1210.4H11044.9ZM11071.4 1210.4L11073.1 1207.2H11083.7L11082 1210.4H11071.4Z" stroke="#8E8E8E" id="n489"/>
<path d="M10927 1192H11191" stroke="#2D548B" stroke-linecap="round" id="n490"/>
<path d="M10927 1148C10927 1148 10983.1 1236 11059 1236C11134.9 1236 11191 1148 11191 1148" stroke="#2D548B" stroke-width="2" stroke-linecap="round" id="n491"/>
<path d="M10927 1236L11191 1236" stroke="#2D548B" stroke-linecap="round" id="n492"/>
</g>
<path d="M11250.2 576C11254.7 576 11256.9 576 11258.6 576.872C11260.1 577.639 11261.4 578.863 11262.1 580.369C11263 582.08 11263 584.32 11263 588.8L11263 899.201C11263 903.681 11263 905.921 11262.1 907.632C11261.4 909.138 11260.1 910.362 11258.6 911.129C11256.9 912 11254.7 912 11250.2 912L11203.8 912C11199.3 912 11197.1 912 11195.4 911.129C11193.9 910.362 11192.6 909.138 11191.9 907.632C11191 905.921 11191 903.681 11191 899.2L11191 588.8C11191 584.32 11191 582.08 11191.9 580.369C11192.6 578.863 11193.9 577.639 11195.4 576.872C11197.1 576 11199.3 576 11203.8 576L11250.2 576Z" fill="white" stroke="white" id="n493"/>
<path d="M11239 576L11239 912L11203.8 912C11199.3 912 11197.1 912 11195.4 911.129C11193.9 910.362 11192.6 909.138 11191.9 907.632C11191 905.921 11191 903.681 11191 899.2L11191 588.8C11191 584.32 11191 582.08 11191.9 580.369C11192.6 578.863 11193.9 577.639 11195.4 576.872C11197.1 576 11199.3 576 11203.8 576L11239 576Z" fill="#F0F0F0" stroke="#F0F0F0" id="n494"/>
<path d="M11250.2 576C11254.7 576 11256.9 576 11258.6 576.872C11260.1 577.639 11261.4 578.863 11262.1 580.369C11263 582.08 11263 584.32 11263 588.8L11263 899.201C11263 903.681 11263 905.921 11262.1 907.632C11261.4 909.138 11260.1 910.362 11258.6 911.129C11256.9 912 11254.7 912 11250.2 912L11203.8 912C11199.3 912 11197.1 912 11195.4 911.129C11193.9 910.362 11192.6 909.138 11191.9 907.632C11191 905.921 11191 903.681 11191 899.2L11191 588.8C11191 584.32 11191 582.08 11191.9 580.369C11192.6 578.863 11193.9 577.639 11195.4 576.872C11197.1 576 11199.3 576 11203.8 576L11250.2 576Z" stroke="#BEBEBE" id="n495"/>
<path d="M11263 744L11191 744" stroke="#BEBEBE" stroke-linecap="square" id="n496"/>
<mask id="mask53_68_6728" style="mask-type:alpha" maskUnits="userSpaceOnUse" x="11238" y="488" width="26" height="512">
<path d="M11250.2 576C11254.7 576 11256.9 576 11258.6 576.872C11260.1 577.639 11261.4 578.863 11262.1 580.369C11263 582.08 11263 584.32 11263 588.8L11263 899.201C11263 903.681 11263 905.921 11262.1 907.632C11261.4 909.138 11260.1 910.362 11258.6 911.129C11256.9 912 11254.7 912 11250.2 912L11239 912L11239 576L11250.2 576Z" fill="white" stroke="black" id="n497"/>
</mask>
<g mask="url(#mask53_68_6728)" id="n498">
<path d="M11251 744L11243 744M11251 760.8L11243 760.8M11251 777.6L11243 777.6M11251 794.4L11243 794.4M11251 811.2L11243 811.2M11251 828L11243 828M11251 844.8L11243 844.8M11251 861.6L11243 861.6M11251 878.4L11243 878.4M11251 895.2L11243 895.2M11251 912L11243 912M11251 727.2L11243 727.2M11251 710.4L11243 710.4M11251 693.6L11243 693.6M11251 676.8L11243 676.8M11251 660L11243 660M11251 643.2L11243 643.2M11251 626.4L11243 626.4M11251 609.6L11243 609.6M11251 592.8L11243 592.8M11251 576L11243 576" stroke="#BEBEBE" id="n499"/>
<path d="M11267 744L11243 744M11267 828L11243 828M11267 912L11243 912M11267 660L11243 660M11267 576L11243 576" stroke="#BEBEBE" id="n500"/>
<path d="M11267 744L11239 744" stroke="#BEBEBE" id="n501"/>
</g>
<path d="M11189 912H10939.7C10935.3 912 10933 912 10931.3 911.129C10929.8 910.362 10928.6 909.138 10927.9 907.632C10927 905.921 10927 903.681 10927 899.201L10927 588.8C10927 584.32 10927 582.08 10927.9 580.369C10928.6 578.863 10929.8 577.639 10931.3 576.872C10933 576 10935.3 576 10939.7 576L11189 576" stroke="#BEBEBE" stroke-linecap="round" id="n502"/>
<path d="M10927 744H11191" stroke="#BEBEBE" id="n503"/>
<path d="M11239 799H11191V689H11239V799Z" fill="#BEBEBE" id="n504"/>
<path d="M11239 799V799.5H11239.5V799H11239ZM11191 799H11190.5V799.5H11191V799ZM11191 689V688.5H11190.5V689H11191ZM11239 689H11239.5V688.5H11239V689ZM11239 799V798.5H11191V799V799.5H11239V799ZM11191 799H11191.5V689H11191H11190.5V799H11191ZM11191 689V689.5H11239V689V688.5H11191V689ZM11239 689H11238.5V799H11239H11239.5V689H11239Z" fill="#BEBEBE" id="n505"/>
<mask id="mask54_68_6728" style="mask-type:alpha" maskUnits="userSpaceOnUse" x="11190" y="488" width="50" height="512">
<path d="M11239 576V912H11203.8C11199.3 912 11197.1 912 11195.4 911.129C11193.9 910.362 11192.6 909.138 11191.9 907.632C11191 905.921 11191 903.681 11191 899.201V588.8C11191 584.32 11191 582.08 11191.9 580.369C11192.6 578.863 11193.9 577.639 11195.4 576.872C11197.1 576 11199.3 576 11203.8 576H11239Z" fill="white" stroke="black" id="n506"/>
</mask>
<g mask="url(#mask54_68_6728)" id="n507">
<rect x="11191" y="784" width="48" height="8" rx="4" fill="#535353" stroke="#BEBEBE" id="n508"/>
</g>
<mask id="mask55_68_6728" style="mask-type:luminance" maskUnits="userSpaceOnUse" x="10839" y="487" width="512" height="513">
<path d="M10927 588.798C10927 584.318 10927 582.077 10927.9 580.366C10928.6 578.861 10929.9 577.637 10931.4 576.87C10933.1 575.998 10935.3 575.998 10939.8 575.998L11191 575.998V911.998H10939.8C10935.3 911.998 10933.1 911.998 10931.4 911.126C10929.9 910.359 10928.6 909.135 10927.9 907.63C10927 905.919 10927 903.678 10927 899.198V588.798Z" fill="white" stroke="black" id="n509"/>
<path d="M11191 576V912" stroke="black" stroke-width="3" id="n510"/>
</mask>
<g mask="url(#mask55_68_6728)" id="n511">
<rect x="10927" y="744" width="264" height="168" fill="#F0F0F0" stroke="#F7F7F7" id="n512"/>
<path d="M10963.5 744C10986.7 766 11019.7 788 11059 788C11098.3 788 11131.3 766 11154.5 744H10963.5Z" fill="#BEBEBE" id="n513"/>
<path d="M10927 700L10927 744H10963.5C10940.4 722 10927 700 10927 700Z" fill="#BEBEBE" id="n514"/>
<path d="M11191 744V700C11191 700 11177.6 722 11154.5 744H11191Z" fill="#BEBEBE" id="n515"/>
<path d="M10963.5 744C10986.7 766 11019.7 788 11059 788C11098.3 788 11131.3 766 11154.5 744M10963.5 744H11154.5M10963.5 744H10927L10927 700C10927 700 10940.4 722 10963.5 744ZM11154.5 744C11177.6 722 11191 700 11191 700V744H11154.5Z" stroke="#BEBEBE" stroke-linecap="round" id="n516"/>
<path d="M11059 781.453V810.398C11059 810.398 11071 794.373 11067.8 787.998C11066 784.315 11059 781.453 11059 781.453Z" fill="white" id="n517"/>
<path d="M11059 810.398V781.453C11059 781.453 11052.2 784.24 11050.2 787.853C11050.2 787.901 11050.2 787.95 11050.2 787.998C11047 794.373 11059 810.398 11059 810.398Z" fill="white" id="n518"/>
<path d="M11059 810.398H11102.3C11104.5 810.398 11106.3 808.607 11106.3 806.398V787.998H11067.8C11071 794.373 11059 810.398 11059 810.398Z" fill="white" id="n519"/>
<path d="M11011.7 787.853V806.398C11011.7 808.607 11013.5 810.398 11015.7 810.398H11059C11059 810.398 11047 794.373 11050.2 787.998C11050.2 787.95 11050.2 787.901 11050.2 787.853H11011.7Z" fill="white" id="n520"/>
<path d="M11019.6 736.798H11011.7V768.798V787.853H11050.2C11052.2 784.24 11059 781.453 11059 781.453L11059 736.798H11019.6Z" fill="white" id="n521"/>
<path d="M11106.3 736.798H11098.4H11059L11059 781.453C11059 781.453 11066 784.315 11067.8 787.998H11106.3V787.853V768.798V736.798Z" fill="white" id="n522"/>
<path d="M11098.4 736.798V716.798H11019.6V736.798H11059H11098.4Z" fill="white" id="n523"/>
<path d="M11098.4 716.798L11106.3 700.435H11011.7L11019.6 716.798H11098.4Z" fill="white" id="n524"/>
<path d="M11011.7 700.435H11106.3H11110.2L11098.4 689.526H11078.3H11072.4H11045.6H11039.7H11019.6L11007.8 700.435H11011.7Z" fill="white" id="n525"/>
<path d="M11066.9 663.198H11051.1L11039.7 689.526H11045.6L11055.1 667.744H11062.9L11072.4 689.526H11078.3L11066.9 663.198Z" fill="white" id="n526"/>
<path d="M11098.4 736.798H11106.3V768.798V787.853V787.998M11098.4 736.798V716.798M11098.4 736.798H11059M11098.4 716.798L11106.3 700.435M11098.4 716.798H11019.6M11106.3 700.435H11011.7M11106.3 700.435H11110.2L11098.4 689.526H11078.3M11011.7 700.435L11019.6 716.798M11011.7 700.435H11007.8L11019.6 689.526H11039.7M11019.6 716.798V736.798M11019.6 736.798H11011.7V768.798V787.853M11019.6 736.798H11059M11039.7 689.526H11078.3M11039.7 689.526L11051.1 663.198H11066.9L11078.3 689.526M11039.7 689.526H11045.6M11078.3 689.526H11072.4M11011.7 787.853V806.398C11011.7 808.607 11013.5 810.398 11015.7 810.398H11059M11011.7 787.853H11050.2M11045.6 689.526L11055.1 667.744H11062.9L11072.4 689.526M11045.6 689.526H11072.4M11059 736.798L11059 781.453M11059 810.398H11102.3C11104.5 810.398 11106.3 808.607 11106.3 806.398V787.998M11059 810.398V781.453M11059 810.398C11059 810.398 11071 794.373 11067.8 787.998M11059 810.398C11059 810.398 11047 794.373 11050.2 787.998C11050.2 787.95 11050.2 787.901 11050.2 787.853M11059 781.453C11059 781.453 11066 784.315 11067.8 787.998M11059 781.453C11059 781.453 11052.2 784.24 11050.2 787.853M11067.8 787.998H11106.3M11044.9 762.398L11043.1 759.198H11032.5L11034.3 762.398H11044.9ZM11071.4 762.398L11073.1 759.198H11083.7L11082 762.398H11071.4Z" stroke="#8E8E8E" id="n527"/>
<path d="M10927 744H11191" stroke="#535353" stroke-linecap="round" id="n528"/>
<path d="M10927 700C10927 700 10983.1 788 11059 788C11134.9 788 11191 700 11191 700" stroke="#535353" stroke-width="2" stroke-linecap="round" id="n529"/>
<path d="M10927 787.998L11191 787.998" stroke="#535353" stroke-linecap="round" id="n530"/>
</g>
</g>
</g>
</svg>
