<?xml version='1.0' encoding='utf-8'?>
<svg xmlns="http://www.w3.org/2000/svg" xmlns:xlink="http://www.w3.org/1999/xlink" width="512.0" height="972.0" viewBox="0 0 512.0 972.0" fill="none">
  <defs><clipPath id="clip__asset"><rect x="0" y="0" width="512.0" height="972.0"/></clipPath><mask id="mask56_68_6728" style="mask-type:alpha" maskUnits="userSpaceOnUse" x="11813" y="488" width="26" height="512">
<path d="M11825.2 576C11829.7 576 11831.9 576 11833.6 576.872C11835.1 577.639 11836.4 578.863 11837.1 580.369C11838 582.08 11838 584.32 11838 588.8L11838 899.201C11838 903.681 11838 905.921 11837.1 907.632C11836.4 909.138 11835.1 910.362 11833.6 911.129C11831.9 912 11829.7 912 11825.2 912L11814 912L11814 576L11825.2 576Z" fill="white" stroke="black" id="n538"/>
</mask>
<mask id="mask57_68_6728" style="mask-type:luminance" maskUnits="userSpaceOnUse" x="11414" y="487" width="512" height="513">
<path d="M11502 588.798C11502 584.318 11502 582.077 11502.9 580.366C11503.6 578.861 11504.9 577.637 11506.4 576.87C11508.1 575.998 11510.3 575.998 11514.8 575.998L11766 575.998V911.998H11514.8C11510.3 911.998 11508.1 911.998 11506.4 911.126C11504.9 910.359 11503.6 909.135 11502.9 907.63C11502 905.919 11502 903.678 11502 899.198V588.798Z" fill="white" stroke="black" id="n547"/>
</mask>
<mask id="mask58_68_6728" style="mask-type:alpha" maskUnits="userSpaceOnUse" x="11813" y="936" width="26" height="512">
<path d="M11825.2 1024C11829.7 1024 11831.9 1024 11833.6 1024.87C11835.1 1025.64 11836.4 1026.86 11837.1 1028.37C11838 1030.08 11838 1032.32 11838 1036.8L11838 1347.2C11838 1351.68 11838 1353.92 11837.1 1355.63C11836.4 1357.14 11835.1 1358.36 11833.6 1359.13C11831.9 1360 11829.7 1360 11825.2 1360L11814 1360L11814 1024L11825.2 1024Z" fill="white" stroke="black" id="n589"/>
</mask>
<mask id="mask59_68_6728" style="mask-type:luminance" maskUnits="userSpaceOnUse" x="11414" y="935" width="512" height="513">
<path d="M11502 1036.8C11502 1032.32 11502 1030.08 11502.9 1028.37C11503.6 1026.86 11504.9 1025.64 11506.4 1024.87C11508.1 1024 11510.3 1024 11514.8 1024L11766 1024V1360H11514.8C11510.3 1360 11508.1 1360 11506.4 1359.13C11504.9 1358.36 11503.6 1357.14 11502.9 1355.63C11502 1353.92 11502 1351.68 11502 1347.2V1036.8Z" fill="white" stroke="black" id="n598"/>
</mask>
<clipPath id="clip8_68_6728">
<path d="M11414 524C11414 521.791 11415.8 520 11418 520H11922C11924.2 520 11926 521.791 11926 524V1488C11926 1490.21 11924.2 1492 11922 1492H11418C11415.8 1492 11414 1490.21 11414 1488V524Z" fill="white" id="n2512"/>
</clipPath>
</defs>
  <g clip-path="url(#clip__asset)" transform="translate(-11414.0 -520.0)"><g clip-path="url(#clip8_68_6728)" id="n532">
<path d="M11414 524C11414 521.791 11415.8 520 11418 520H11922C11924.2 520 11926 521.791 11926 524V1488C11926 1490.21 11924.2 1492 11922 1492H11418C11415.8 1492 11414 1490.21 11414 1488V524Z" fill="#F7F7F7" id="n533"/>
<path d="M11825.2 576C11829.7 576 11831.9 576 11833.6 576.872C11835.1 577.639 11836.4 578.863 11837.1 580.369C11838 582.08 11838 584.32 11838 588.8L11838 899.201C11838 903.681 11838 905.921 11837.1 907.632C11836.4 909.138 11835.1 910.362 11833.6 911.129C11831.9 912 11829.7 912 11825.2 912L11778.8 912C11774.3 912 11772.1 912 11770.4 911.129C11768.9 910.362 11767.6 909.138 11766.9 907.632C11766 905.921 11766 903.681 11766 899.2L11766 588.8C11766 584.32 11766 582.08 11766.9 580.369C11767.6 578.863 11768.9 577.639 11770.4 576.872C11772.1 576 11774.3 576 11778.8 576L11825.2 576Z" fill="white" stroke="white" id="n534"/>
<path d="M11814 576L11814 912L11778.8 912C11774.3 912 11772.1 912 11770.4 911.129C11768.9 910.362 11767.6 909.138 11766.9 907.632C11766 905.921 11766 903.681 11766 899.2L11766 588.8C11766 584.32 11766 582.08 11766.9 580.369C11767.6 578.863 11768.9 577.639 11770.4 576.872C11772.1 576 11774.3 576 11778.8 576L11814 576Z" fill="#F0F0F0" stroke="#F0F0F0" id="n535"/>
<path d="M11825.2 576C11829.7 576 11831.9 576 11833.6 576.872C11835.1 577.639 11836.4 578.863 11837.1 580.369C11838 582.08 11838 584.32 11838 588.8L11838 899.201C11838 903.681 11838 905.921 11837.1 907.632C11836.4 909.138 11835.1 910.362 11833.6 911.129C11831.9 912 11829.7 912 11825.2 912L11778.8 912C11774.3 912 11772.1 912 11770.4 911.129C11768.9 910.362 11767.6 909.138 11766.9 907.632C11766 905.921 11766 903.681 11766 899.2L11766 588.8C11766 584.32 11766 582.08 11766.9 580.369C11767.6 578.863 11768.9 577.639 11770.4 576.872C11772.1 576 11774.3 576 11778.8 576L11825.2 576Z" stroke="#BEBEBE" id="n536"/>
<path d="M11838 744L11766 744" stroke="#BEBEBE" stroke-linecap="square" id="n537"/>
<mask id="mask56_68_6728" style="mask-type:alpha" maskUnits="userSpaceOnUse" x="11813" y="488" width="26" height="512">
<path d="M11825.2 576C11829.7 576 11831.9 576 11833.6 576.872C11835.1 577.639 11836.4 578.863 11837.1 580.369C11838 582.08 11838 584.32 11838 588.8L11838 899.201C11838 903.681 11838 905.921 11837.1 907.632C11836.4 909.138 11835.1 910.362 11833.6 911.129C11831.9 912 11829.7 912 11825.2 912L11814 912L11814 576L11825.2 576Z" fill="white" stroke="black" id="n538"/>
</mask>
<g mask="url(#mask56_68_6728)" id="n539">
<path d="M11826 744L11818 744M11826 760.8L11818 760.8M11826 777.6L11818 777.6M11826 794.4L11818 794.4M11826 811.2L11818 811.2M11826 828L11818 828M11826 844.8L11818 844.8M11826 861.6L11818 861.6M11826 878.4L11818 878.4M11826 895.2L11818 895.2M11826 912L11818 912M11826 727.2L11818 727.2M11826 710.4L11818 710.4M11826 693.6L11818 693.6M11826 676.8L11818 676.8M11826 660L11818 660M11826 643.2L11818 643.2M11826 626.4L11818 626.4M11826 609.6L11818 609.6M11826 592.8L11818 592.8M11826 576L11818 576" stroke="#BEBEBE" id="n540"/>
<path d="M11842 744L11818 744M11842 828L11818 828M11842 912L11818 912M11842 660L11818 660M11842 576L11818 576" stroke="#BEBEBE" id="n541"/>
<path d="M11842 744L11814 744" stroke="#BEBEBE" id="n542"/>
</g>
<path d="M11764 912H11514.7C11510.3 912 11508 912 11506.3 911.129C11504.8 910.362 11503.6 909.138 11502.9 907.632C11502 905.921 11502 903.681 11502 899.201L11502 588.8C11502 584.32 11502 582.08 11502.9 580.369C11503.6 578.863 11504.8 577.639 11506.3 576.872C11508 576 11510.3 576 11514.7 576L11764 576" stroke="#BEBEBE" stroke-linecap="round" id="n543"/>
<path d="M11502 744H11766" stroke="#BEBEBE" id="n544"/>
<path d="M11814 785H11766V703H11814V785Z" fill="#535353" id="n545"/>
<path d="M11814 785V785.5H11814.5V785H11814ZM11766 785H11765.5V785.5H11766V785ZM11766 703V702.5H11765.5V703H11766ZM11814 703H11814.5V702.5H11814V703ZM11814 785V784.5H11766V785V785.5H11814V785ZM11766 785H11766.5V703H11766H11765.5V785H11766ZM11766 703V703.5H11814V703V702.5H11766V703ZM11814 703H11813.5V785H11814H11814.5V703H11814Z" fill="#535353" id="n546"/>
<mask id="mask57_68_6728" style="mask-type:luminance" maskUnits="userSpaceOnUse" x="11414" y="487" width="512" height="513">
<path d="M11502 588.798C11502 584.318 11502 582.077 11502.9 580.366C11503.6 578.861 11504.9 577.637 11506.4 576.87C11508.1 575.998 11510.3 575.998 11514.8 575.998L11766 575.998V911.998H11514.8C11510.3 911.998 11508.1 911.998 11506.4 911.126C11504.9 910.359 11503.6 909.135 11502.9 907.63C11502 905.919 11502 903.678 11502 899.198V588.798Z" fill="white" stroke="black" id="n547"/>
</mask>
<g mask="url(#mask57_68_6728)" id="n548">
<rect x="11502" y="744" width="264" height="168" fill="#F0F0F0" stroke="#BEBEBE" id="n549"/>
<path d="M11731.9 744V745.321C11731.9 750.292 11727.8 754.321 11722.9 754.321H11549V748.406L11536.1 744V731.735H11652.3L11671.1 712.912L11668.9 706.459H11666.8L11668.9 704.846H11672.7V702.157H11673.8L11669.5 688.175H11672.7L11680.2 702.157C11685.2 702.157 11690.2 702.705 11695.1 703.79L11707.1 706.459H11704.4L11701.2 712.912L11709.3 720.979H11730.8C11730.8 720.979 11726.5 726.228 11724.3 730.39C11722.5 733.826 11720 739.801 11720 739.801L11725.6 738.786C11728.9 738.195 11731.9 740.694 11731.9 744Z" fill="white" id="n550"/>
<path d="M11536.1 744H11731.9M11536.1 744L11549 748.406V754.321H11722.9C11727.8 754.321 11731.9 750.292 11731.9 745.321V744M11536.1 744V731.735H11652.3M11731.9 744C11731.9 740.694 11728.9 738.195 11725.6 738.786L11720 739.801C11720 739.801 11722.5 733.826 11724.3 730.39C11726.5 726.228 11730.8 720.979 11730.8 720.979H11709.3M11652.3 731.735H11659.3L11670 720.979H11709.3M11652.3 731.735L11671.1 712.912M11671.1 712.912H11701.2M11671.1 712.912L11668.9 706.459H11704.4L11701.2 712.912M11701.2 712.912L11709.3 720.979M11680.2 702.157L11672.7 688.175H11669.5L11673.8 702.157M11680.2 702.157H11673.8M11680.2 702.157C11685.2 702.157 11690.2 702.705 11695.1 703.79L11707.1 706.459H11666.8L11668.9 704.846H11672.7V702.157H11673.8" stroke="#8E8E8E" id="n551"/>
<rect x="11762" y="707" width="73" height="4" rx="2" transform="rotate(90 11762 707)" fill="#BEBEBE" stroke="#BEBEBE" id="n552"/>
<rect x="11754" y="715" width="57" height="4" rx="2" transform="rotate(90 11754 715)" fill="#BEBEBE" stroke="#BEBEBE" id="n553"/>
<rect x="11746" y="724" width="39" height="4" rx="2" transform="rotate(90 11746 724)" fill="#BEBEBE" stroke="#BEBEBE" id="n554"/>
<rect x="11738" y="730" width="27" height="4" rx="2" transform="rotate(90 11738 730)" fill="#BEBEBE" stroke="#BEBEBE" id="n555"/>
<rect x="11730" y="737" width="13" height="4" rx="2" transform="rotate(90 11730 737)" fill="#BEBEBE" stroke="#BEBEBE" id="n556"/>
<rect x="11722" y="730" width="27" height="4" rx="2" transform="rotate(90 11722 730)" fill="#BEBEBE" stroke="#BEBEBE" id="n557"/>
<rect x="11714" y="724" width="39" height="4" rx="2" transform="rotate(90 11714 724)" fill="#BEBEBE" stroke="#BEBEBE" id="n558"/>
<rect x="11706" y="721" width="45" height="4" rx="2" transform="rotate(90 11706 721)" fill="#BEBEBE" stroke="#BEBEBE" id="n559"/>
<rect x="11698" y="718" width="51" height="4" rx="2" transform="rotate(90 11698 718)" fill="#BEBEBE" stroke="#BEBEBE" id="n560"/>
<rect x="11690" y="715" width="57" height="4" rx="2" transform="rotate(90 11690 715)" fill="#BEBEBE" stroke="#BEBEBE" id="n561"/>
<rect x="11682" y="712" width="63" height="4" rx="2" transform="rotate(90 11682 712)" fill="#BEBEBE" stroke="#BEBEBE" id="n562"/>
<rect x="11674" y="709" width="69" height="4" rx="2" transform="rotate(90 11674 709)" fill="#BEBEBE" stroke="#BEBEBE" id="n563"/>
<rect x="11666" y="707" width="73" height="4" rx="2" transform="rotate(90 11666 707)" fill="#BEBEBE" stroke="#BEBEBE" id="n564"/>
<rect x="11658" y="705" width="77" height="4" rx="2" transform="rotate(90 11658 705)" fill="#BEBEBE" stroke="#BEBEBE" id="n565"/>
<rect x="11650" y="705" width="77" height="4" rx="2" transform="rotate(90 11650 705)" fill="#BEBEBE" stroke="#BEBEBE" id="n566"/>
<rect x="11642" y="709" width="69" height="4" rx="2" transform="rotate(90 11642 709)" fill="#BEBEBE" stroke="#BEBEBE" id="n567"/>
<rect x="11634" y="709" width="69" height="4" rx="2" transform="rotate(90 11634 709)" fill="#BEBEBE" stroke="#BEBEBE" id="n568"/>
<rect x="11626" y="715" width="57" height="4" rx="2" transform="rotate(90 11626 715)" fill="#BEBEBE" stroke="#BEBEBE" id="n569"/>
<rect x="11618" y="718" width="51" height="4" rx="2" transform="rotate(90 11618 718)" fill="#BEBEBE" stroke="#BEBEBE" id="n570"/>
<rect x="11610" y="721" width="45" height="4" rx="2" transform="rotate(90 11610 721)" fill="#BEBEBE" stroke="#BEBEBE" id="n571"/>
<rect x="11602" y="727" width="33" height="4" rx="2" transform="rotate(90 11602 727)" fill="#BEBEBE" stroke="#BEBEBE" id="n572"/>
<rect x="11594" y="732" width="23" height="4" rx="2" transform="rotate(90 11594 732)" fill="#BEBEBE" stroke="#BEBEBE" id="n573"/>
<rect x="11586" y="734" width="19" height="4" rx="2" transform="rotate(90 11586 734)" fill="#BEBEBE" stroke="#BEBEBE" id="n574"/>
<rect x="11578" y="737" width="13" height="4" rx="2" transform="rotate(90 11578 737)" fill="#BEBEBE" stroke="#BEBEBE" id="n575"/>
<rect x="11570" y="734" width="19" height="4" rx="2" transform="rotate(90 11570 734)" fill="#BEBEBE" stroke="#BEBEBE" id="n576"/>
<rect x="11562" y="730" width="27" height="4" rx="2" transform="rotate(90 11562 730)" fill="#BEBEBE" stroke="#BEBEBE" id="n577"/>
<rect x="11554" y="724" width="39" height="4" rx="2" transform="rotate(90 11554 724)" fill="#BEBEBE" stroke="#BEBEBE" id="n578"/>
<rect x="11546" y="718" width="51" height="4" rx="2" transform="rotate(90 11546 718)" fill="#BEBEBE" stroke="#BEBEBE" id="n579"/>
<rect x="11506" y="718" width="51" height="4" rx="2" transform="rotate(90 11506 718)" fill="#BEBEBE" stroke="#BEBEBE" id="n580"/>
<rect x="11538" y="715" width="57" height="4" rx="2" transform="rotate(90 11538 715)" fill="#BEBEBE" stroke="#BEBEBE" id="n581"/>
<rect x="11530" y="712" width="63" height="4" rx="2" transform="rotate(90 11530 712)" fill="#BEBEBE" stroke="#BEBEBE" id="n582"/>
<rect x="11514" y="712" width="63" height="4" rx="2" transform="rotate(90 11514 712)" fill="#BEBEBE" stroke="#BEBEBE" id="n583"/>
<rect x="11522" y="707" width="73" height="4" rx="2" transform="rotate(90 11522 707)" fill="#BEBEBE" stroke="#BEBEBE" id="n584"/>
</g>
<path d="M11825.2 1024C11829.7 1024 11831.9 1024 11833.6 1024.87C11835.1 1025.64 11836.4 1026.86 11837.1 1028.37C11838 1030.08 11838 1032.32 11838 1036.8L11838 1347.2C11838 1351.68 11838 1353.92 11837.1 1355.63C11836.4 1357.14 11835.1 1358.36 11833.6 1359.13C11831.9 1360 11829.7 1360 11825.2 1360L11778.8 1360C11774.3 1360 11772.1 1360 11770.4 1359.13C11768.9 1358.36 11767.6 1357.14 11766.9 1355.63C11766 1353.92 11766 1351.68 11766 1347.2L11766 1036.8C11766 1032.32 11766 1030.08 11766.9 1028.37C11767.6 1026.86 11768.9 1025.64 11770.4 1024.87C11772.1 1024 11774.3 1024 11778.8 1024L11825.2 1024Z" fill="white" stroke="white" id="n585"/>
<path d="M11814 1024L11814 1360L11778.8 1360C11774.3 1360 11772.1 1360 11770.4 1359.13C11768.9 1358.36 11767.6 1357.14 11766.9 1355.63C11766 1353.92 11766 1351.68 11766 1347.2L11766 1036.8C11766 1032.32 11766 1030.08 11766.9 1028.37C11767.6 1026.86 11768.9 1025.64 11770.4 1024.87C11772.1 1024 11774.3 1024 11778.8 1024L11814 1024Z" fill="#F0F0F0" stroke="#F0F0F0" id="n586"/>
<path d="M11825.2 1024C11829.7 1024 11831.9 1024 11833.6 1024.87C11835.1 1025.64 11836.4 1026.86 11837.1 1028.37C11838 1030.08 11838 1032.32 11838 1036.8L11838 1347.2C11838 1351.68 11838 1353.92 11837.1 1355.63C11836.4 1357.14 11835.1 1358.36 11833.6 1359.13C11831.9 1360 11829.7 1360 11825.2 1360L11778.8 1360C11774.3 1360 11772.1 1360 11770.4 1359.13C11768.9 1358.36 11767.6 1357.14 11766.9 1355.63C11766 1353.92 11766 1351.68 11766 1347.2L11766 1036.8C11766 1032.32 11766 1030.08 11766.9 1028.37C11767.6 1026.86 11768.9 1025.64 11770.4 1024.87C11772.1 1024 11774.3 1024 11778.8 1024L11825.2 1024Z" stroke="#BEBEBE" id="n587"/>
<path d="M11838 1192L11766 1192" stroke="#BEBEBE" stroke-linecap="square" id="n588"/>
<mask id="mask58_68_6728" style="mask-type:alpha" maskUnits="userSpaceOnUse" x="11813" y="936" width="26" height="512">
<path d="M11825.2 1024C11829.7 1024 11831.9 1024 11833.6 1024.87C11835.1 1025.64 11836.4 1026.86 11837.1 1028.37C11838 1030.08 11838 1032.32 11838 1036.8L11838 1347.2C11838 1351.68 11838 1353.92 11837.1 1355.63C11836.4 1357.14 11835.1 1358.36 11833.6 1359.13C11831.9 1360 11829.7 1360 11825.2 1360L11814 1360L11814 1024L11825.2 1024Z" fill="white" stroke="black" id="n589"/>
</mask>
<g mask="url(#mask58_68_6728)" id="n590">
<path d="M11826 1192L11818 1192M11826 1208.8L11818 1208.8M11826 1225.6L11818 1225.6M11826 1242.4L11818 1242.4M11826 1259.2L11818 1259.2M11826 1276L11818 1276M11826 1292.8L11818 1292.8M11826 1309.6L11818 1309.6M11826 1326.4L11818 1326.4M11826 1343.2L11818 1343.2M11826 1360L11818 1360M11826 1175.2L11818 1175.2M11826 1158.4L11818 1158.4M11826 1141.6L11818 1141.6M11826 1124.8L11818 1124.8M11826 1108L11818 1108M11826 1091.2L11818 1091.2M11826 1074.4L11818 1074.4M11826 1057.6L11818 1057.6M11826 1040.8L11818 1040.8M11826 1024L11818 1024" stroke="#BEBEBE" id="n591"/>
<path d="M11842 1192L11818 1192M11842 1276L11818 1276M11842 1360L11818 1360M11842 1108L11818 1108M11842 1024L11818 1024" stroke="#BEBEBE" id="n592"/>
<path d="M11842 1192L11814 1192" stroke="#BEBEBE" id="n593"/>
</g>
<path d="M11764 1360H11514.7C11510.3 1360 11508 1360 11506.3 1359.13C11504.8 1358.36 11503.6 1357.14 11502.9 1355.63C11502 1353.92 11502 1351.68 11502 1347.2L11502 1036.8C11502 1032.32 11502 1030.08 11502.9 1028.37C11503.6 1026.86 11504.8 1025.64 11506.3 1024.87C11508 1024 11510.3 1024 11514.7 1024L11764 1024" stroke="#BEBEBE" stroke-linecap="round" id="n594"/>
<path d="M11502 1192H11766" stroke="#BEBEBE" id="n595"/>
<path d="M11814 1233H11766V1151H11814V1233Z" fill="#2D548B" id="n596"/>
<path d="M11814 1233V1233.5H11814.5V1233H11814ZM11766 1233H11765.5V1233.5H11766V1233ZM11766 1151V1150.5H11765.5V1151H11766ZM11814 1151H11814.5V1150.5H11814V1151ZM11814 1233V1232.5H11766V1233V1233.5H11814V1233ZM11766 1233H11766.5V1151H11766H11765.5V1233H11766ZM11766 1151V1151.5H11814V1151V1150.5H11766V1151ZM11814 1151H11813.5V1233H11814H11814.5V1151H11814Z" fill="#2D548B" id="n597"/>
<mask id="mask59_68_6728" style="mask-type:luminance" maskUnits="userSpaceOnUse" x="11414" y="935" width="512" height="513">
<path d="M11502 1036.8C11502 1032.32 11502 1030.08 11502.9 1028.37C11503.6 1026.86 11504.9 1025.64 11506.4 1024.87C11508.1 1024 11510.3 1024 11514.8 1024L11766 1024V1360H11514.8C11510.3 1360 11508.1 1360 11506.4 1359.13C11504.9 1358.36 11503.6 1357.14 11502.9 1355.63C11502 1353.92 11502 1351.68 11502 1347.2V1036.8Z" fill="white" stroke="black" id="n598"/>
</mask>
<g mask="url(#mask59_68_6728)" id="n599">
<rect x="11502" y="1192" width="264" height="168" fill="#F0F0F0" stroke="#BEBEBE" id="n600"/>
<path d="M11731.9 1192V1193.32C11731.9 1198.29 11727.8 1202.32 11722.9 1202.32H11549V1196.41L11536.1 1192V1179.73H11652.3L11671.1 1160.91L11668.9 1154.46H11666.8L11668.9 1152.85H11672.7V1150.16H11673.8L11669.5 1136.17H11672.7L11680.2 1150.16C11685.2 1150.16 11690.2 1150.7 11695.1 1151.79L11707.1 1154.46H11704.4L11701.2 1160.91L11709.3 1168.98H11730.8C11730.8 1168.98 11726.5 1174.23 11724.3 1178.39C11722.5 1181.83 11720 1187.8 11720 1187.8L11725.6 1186.79C11728.9 1186.19 11731.9 1188.69 11731.9 1192Z" fill="white" id="n601"/>
<path d="M11536.1 1192H11731.9M11536.1 1192L11549 1196.41V1202.32H11722.9C11727.8 1202.32 11731.9 1198.29 11731.9 1193.32V1192M11536.1 1192V1179.73H11652.3M11731.9 1192C11731.9 1188.69 11728.9 1186.19 11725.6 1186.79L11720 1187.8C11720 1187.8 11722.5 1181.83 11724.3 1178.39C11726.5 1174.23 11730.8 1168.98 11730.8 1168.98H11709.3M11652.3 1179.73H11659.3L11670 1168.98H11709.3M11652.3 1179.73L11671.1 1160.91M11671.1 1160.91H11701.2M11671.1 1160.91L11668.9 1154.46H11704.4L11701.2 1160.91M11701.2 1160.91L11709.3 1168.98M11680.2 1150.16L11672.7 1136.17H11669.5L11673.8 1150.16M11680.2 1150.16H11673.8M11680.2 1150.16C11685.2 1150.16 11690.2 1150.7 11695.1 1151.79L11707.1 1154.46H11666.8L11668.9 1152.85H11672.7V1150.16H11673.8" stroke="#8E8E8E" id="n602"/>
<rect x="11762" y="1155" width="73" height="4" rx="2" transform="rotate(90 11762 1155)" fill="#9CC1F5" stroke="#9CC1F5" id="n603"/>
<rect x="11754" y="1163" width="57" height="4" rx="2" transform="rotate(90 11754 1163)" fill="#9CC1F5" stroke="#9CC1F5" id="n604"/>
<rect x="11746" y="1172" width="39" height="4" rx="2" transform="rotate(90 11746 1172)" fill="#9CC1F5" stroke="#9CC1F5" id="n605"/>
<rect x="11738" y="1178" width="27" height="4" rx="2" transform="rotate(90 11738 1178)" fill="#9CC1F5" stroke="#9CC1F5" id="n606"/>
<rect x="11730" y="1185" width="13" height="4" rx="2" transform="rotate(90 11730 1185)" fill="#9CC1F5" stroke="#9CC1F5" id="n607"/>
<rect x="11722" y="1178" width="27" height="4" rx="2" transform="rotate(90 11722 1178)" fill="#9CC1F5" stroke="#9CC1F5" id="n608"/>
<rect x="11714" y="1172" width="39" height="4" rx="2" transform="rotate(90 11714 1172)" fill="#9CC1F5" stroke="#9CC1F5" id="n609"/>
<rect x="11706" y="1169" width="45" height="4" rx="2" transform="rotate(90 11706 1169)" fill="#9CC1F5" stroke="#9CC1F5" id="n610"/>
<rect x="11698" y="1166" width="51" height="4" rx="2" transform="rotate(90 11698 1166)" fill="#9CC1F5" stroke="#9CC1F5" id="n611"/>
<rect x="11690" y="1163" width="57" height="4" rx="2" transform="rotate(90 11690 1163)" fill="#9CC1F5" stroke="#9CC1F5" id="n612"/>
<rect x="11682" y="1160" width="63" height="4" rx="2" transform="rotate(90 11682 1160)" fill="#9CC1F5" stroke="#9CC1F5" id="n613"/>
<rect x="11674" y="1157" width="69" height="4" rx="2" transform="rotate(90 11674 1157)" fill="#9CC1F5" stroke="#9CC1F5" id="n614"/>
<rect x="11666" y="1155" width="73" height="4" rx="2" transform="rotate(90 11666 1155)" fill="#9CC1F5" stroke="#9CC1F5" id="n615"/>
<rect x="11658" y="1153" width="77" height="4" rx="2" transform="rotate(90 11658 1153)" fill="#9CC1F5" stroke="#9CC1F5" id="n616"/>
<rect x="11650" y="1153" width="77" height="4" rx="2" transform="rotate(90 11650 1153)" fill="#9CC1F5" stroke="#9CC1F5" id="n617"/>
<rect x="11642" y="1157" width="69" height="4" rx="2" transform="rotate(90 11642 1157)" fill="#9CC1F5" stroke="#9CC1F5" id="n618"/>
<rect x="11634" y="1157" width="69" height="4" rx="2" transform="rotate(90 11634 1157)" fill="#9CC1F5" stroke="#9CC1F5" id="n619"/>
<rect x="11626" y="1163" width="57" height="4" rx="2" transform="rotate(90 11626 1163)" fill="#9CC1F5" stroke="#9CC1F5" id="n620"/>
<rect x="11618" y="1166" width="51" height="4" rx="2" transform="rotate(90 11618 1166)" fill="#9CC1F5" stroke="#9CC1F5" id="n621"/>
<rect x="11610" y="1169" width="45" height="4" rx="2" transform="rotate(90 11610 1169)" fill="#9CC1F5" stroke="#9CC1F5" id="n622"/>
<rect x="11602" y="1175" width="33" height="4" rx="2" transform="rotate(90 11602 1175)" fill="#9CC1F5" stroke="#9CC1F5" id="n623"/>
<rect x="11594" y="1180" width="23" height="4" rx="2" transform="rotate(90 11594 1180)" fill="#9CC1F5" stroke="#9CC1F5" id="n624"/>
<rect x="11586" y="1182" width="19" height="4" rx="2" transform="rotate(90 11586 1182)" fill="#9CC1F5" stroke="#9CC1F5" id="n625"/>
<rect x="11578" y="1185" width="13" height="4" rx="2" transform="rotate(90 11578 1185)" fill="#9CC1F5" stroke="#9CC1F5" id="n626"/>
<rect x="11570" y="1182" width="19" height="4" rx="2" transform="rotate(90 11570 1182)" fill="#9CC1F5" stroke="#9CC1F5" id="n627"/>
<rect x="11562" y="1178" width="27" height="4" rx="2" transform="rotate(90 11562 1178)" fill="#9CC1F5" stroke="#9CC1F5" id="n628"/>
<rect x="11554" y="1172" width="39" height="4" rx="2" transform="rotate(90 11554 1172)" fill="#9CC1F5" stroke="#9CC1F5" id="n629"/>
<rect x="11546" y="1166" width="51" height="4" rx="2" transform="rotate(90 11546 1166)" fill="#9CC1F5" stroke="#9CC1F5" id="n630"/>
<rect x="11506" y="1166" width="51" height="4" rx="2" transform="rotate(90 11506 1166)" fill="#9CC1F5" stroke="#9CC1F5" id="n631"/>
<rect x="11538" y="1163" width="57" height="4" rx="2" transform="rotate(90 11538 1163)" fill="#9CC1F5" stroke="#9CC1F5" id="n632"/>
<rect x="11530" y="1160" width="63" height="4" rx="2" transform="rotate(90 11530 1160)" fill="#9CC1F5" stroke="#9CC1F5" id="n633"/>
<rect x="11514" y="1160" width="63" height="4" rx="2" transform="rotate(90 11514 1160)" fill="#9CC1F5" stroke="#9CC1F5" id="n634"/>
<rect x="11522" y="1155" width="73" height="4" rx="2" transform="rotate(90 11522 1155)" fill="#9CC1F5" stroke="#9CC1F5" id="n635"/>
</g>
</g>
</g>
</svg>
