<?xml version='1.0' encoding='utf-8'?>
<svg xmlns="http://www.w3.org/2000/svg" xmlns:xlink="http://www.w3.org/1999/xlink" width="224.0" height="224.0" viewBox="0 0 224.0 224.0" fill="none">
  <defs><clipPath id="clip__asset"><rect x="0" y="0" width="224.0" height="224.0"/></clipPath><mask id="mask52_68_6728" style="mask-type:alpha" maskUnits="userSpaceOnUse" x="1411" y="738" width="512" height="512">
<path d="M1667 806C1733.71 806 1792.31 840.752 1825.68 893.141C1828.05 896.87 1826.73 901.778 1822.9 903.989L1753.61 943.996C1749.78 946.204 1744.92 944.872 1742.39 941.256C1725.75 917.519 1698.19 902 1667 902C1635.81 902 1608.25 917.519 1591.61 941.256C1589.08 944.872 1584.21 946.204 1580.39 943.996L1511.1 903.989C1507.27 901.779 1505.94 896.87 1508.32 893.141C1541.69 840.753 1600.28 806 1667 806Z" fill="white" stroke="black" id="n561"/>
</mask>
<mask id="mask54_68_6728" style="mask-type:luminance" maskUnits="userSpaceOnUse" x="1411" y="738" width="512" height="512">
<path d="M1667 806C1733.71 806 1792.31 840.752 1825.68 893.141C1828.06 896.87 1826.73 901.779 1822.9 903.989L1809.05 911.986C1780.69 862.975 1727.7 830 1667 830C1606.3 830 1553.31 862.975 1524.95 911.987L1511.1 903.989C1507.27 901.779 1505.94 896.87 1508.32 893.141C1541.69 840.752 1600.28 806 1667 806Z" fill="white" stroke="black" id="n572"/>
</mask>
<mask id="mask55_68_6728" style="mask-type:alpha" maskUnits="userSpaceOnUse" x="1411" y="738" width="512" height="512">
<path d="M1667 810C1768.62 810 1851 892.38 1851 994C1851 1095.62 1768.62 1178 1667 1178C1565.38 1178 1483 1095.62 1483 994C1483 892.38 1565.38 810 1667 810ZM1667 834C1578.63 834 1507 905.634 1507 994C1507 1082.37 1578.63 1154 1667 1154C1755.37 1154 1827 1082.37 1827 994C1827 905.634 1755.37 834 1667 834Z" fill="black" id="n574"/>
</mask>
<mask id="mask56_68_6728" style="mask-type:alpha" maskUnits="userSpaceOnUse" x="1411" y="738" width="512" height="512">
<path d="M1667 802C1773.04 802 1859 887.961 1859 994C1859 1100.04 1773.04 1186 1667 1186C1560.96 1186 1475 1100.04 1475 994C1475 887.961 1560.96 802 1667 802ZM1667 830C1576.43 830 1503 903.425 1503 994C1503 1084.57 1576.43 1158 1667 1158C1757.57 1158 1831 1084.57 1831 994C1831 903.425 1757.57 830 1667 830Z" fill="black" id="n577"/>
</mask>
</defs>
  <g clip-path="url(#clip__asset)" transform="translate(-1427.0 -754.0)"><path d="M1667 806C1733.71 806 1792.31 840.752 1825.68 893.141C1828.06 896.87 1826.73 901.779 1822.9 903.989L1753.61 943.996C1749.78 946.204 1744.92 944.871 1742.39 941.256C1742.37 941.225 1742.34 941.195 1742.32 941.164C1741.32 939.731 1740.27 938.329 1739.18 936.958C1739.15 936.911 1739.11 936.865 1739.07 936.818C1737.99 935.451 1736.86 934.115 1735.7 932.812C1735.65 932.752 1735.59 932.691 1735.54 932.631C1735.29 932.354 1735.04 932.078 1734.79 931.804C1734.76 931.767 1734.72 931.731 1734.69 931.694C1734.43 931.412 1734.17 931.132 1733.9 930.854C1733.86 930.806 1733.82 930.758 1733.77 930.711C1732.87 929.763 1731.95 928.835 1731.01 927.926C1730.97 927.883 1730.93 927.841 1730.88 927.798C1730.6 927.528 1730.32 927.26 1730.04 926.994C1730 926.96 1729.97 926.926 1729.93 926.893C1728.97 925.988 1727.98 925.105 1726.98 924.242C1726.95 924.216 1726.92 924.191 1726.89 924.165C1726.59 923.906 1726.29 923.65 1725.98 923.396C1725.94 923.36 1725.9 923.325 1725.86 923.29C1725.56 923.041 1725.26 922.794 1724.96 922.549C1724.92 922.516 1724.88 922.482 1724.83 922.449C1723.81 921.622 1722.77 920.817 1721.71 920.033C1721.67 920 1721.62 919.967 1721.58 919.934C1721.27 919.709 1720.97 919.486 1720.66 919.265C1720.6 919.219 1720.53 919.173 1720.47 919.127C1719.43 918.384 1718.38 917.662 1717.31 916.962C1717.21 916.897 1717.11 916.834 1717.01 916.77C1716.73 916.587 1716.45 916.406 1716.16 916.227C1716.09 916.18 1716.02 916.135 1715.95 916.089C1715.65 915.902 1715.35 915.715 1715.05 915.531C1714.98 915.487 1714.91 915.442 1714.83 915.397C1714.09 914.947 1713.35 914.508 1712.6 914.078C1712.53 914.04 1712.47 914.003 1712.4 913.966C1712.1 913.794 1711.79 913.623 1711.49 913.454C1711.4 913.405 1711.31 913.356 1711.22 913.307C1710.9 913.127 1710.57 912.951 1710.24 912.775C1710.2 912.752 1710.15 912.728 1710.11 912.704C1709.34 912.294 1708.56 911.894 1707.77 911.506C1707.69 911.464 1707.6 911.422 1707.52 911.38C1707.22 911.235 1706.93 911.091 1706.63 910.949C1706.51 910.895 1706.4 910.841 1706.29 910.787C1706 910.652 1705.71 910.518 1705.43 910.386C1705.33 910.34 1705.23 910.294 1705.13 910.248C1703.96 909.716 1702.78 909.207 1701.58 908.723C1701.45 908.668 1701.32 908.614 1701.18 908.561C1700.91 908.453 1700.64 908.346 1700.37 908.24C1700.25 908.195 1700.14 908.151 1700.02 908.106C1699.72 907.988 1699.41 907.871 1699.1 907.756C1698.99 907.716 1698.88 907.675 1698.78 907.636C1697.97 907.337 1697.15 907.051 1696.33 906.774C1696.26 906.752 1696.2 906.731 1696.13 906.709C1695.77 906.59 1695.41 906.472 1695.05 906.357C1694.98 906.333 1694.9 906.309 1694.83 906.285C1694.5 906.18 1694.16 906.077 1693.83 905.976C1693.72 905.942 1693.61 905.908 1693.5 905.874C1693.14 905.767 1692.78 905.662 1692.43 905.56C1692.37 905.544 1692.32 905.528 1692.26 905.513C1691.83 905.39 1691.4 905.269 1690.96 905.152C1690.93 905.144 1690.9 905.136 1690.87 905.128C1690.49 905.026 1690.11 904.928 1689.73 904.831C1689.62 904.803 1689.51 904.775 1689.4 904.747C1689.05 904.661 1688.71 904.576 1688.36 904.494C1688.29 904.477 1688.22 904.46 1688.14 904.442C1687.77 904.356 1687.4 904.271 1687.03 904.188C1686.96 904.172 1686.88 904.154 1686.81 904.138C1686.38 904.044 1685.96 903.954 1685.53 903.866C1685.43 903.847 1685.34 903.829 1685.24 903.81C1684.91 903.743 1684.58 903.678 1684.25 903.615C1684.12 903.59 1683.99 903.566 1683.86 903.542C1683.55 903.484 1683.23 903.428 1682.92 903.373C1682.78 903.349 1682.65 903.326 1682.51 903.303C1682.2 903.25 1681.89 903.2 1681.59 903.15C1681.46 903.13 1681.34 903.11 1681.21 903.091C1680.81 903.028 1680.4 902.969 1680 902.911C1679.97 902.908 1679.95 902.904 1679.92 902.9L1679.87 902.893C1679.46 902.835 1679.04 902.781 1678.63 902.729C1678.49 902.711 1678.35 902.695 1678.21 902.678C1677.87 902.637 1677.54 902.598 1677.2 902.561C1677.12 902.551 1677.04 902.542 1676.95 902.533C1676.59 902.494 1676.23 902.458 1675.86 902.423C1675.75 902.412 1675.64 902.401 1675.53 902.391C1675.22 902.363 1674.92 902.337 1674.62 902.312C1674.45 902.299 1674.28 902.284 1674.11 902.271C1673.7 902.24 1673.28 902.21 1672.87 902.184C1672.73 902.175 1672.58 902.167 1672.44 902.159C1672.15 902.142 1671.85 902.126 1671.55 902.111C1671.38 902.103 1671.21 902.096 1671.04 902.089C1670.76 902.077 1670.48 902.065 1670.2 902.056C1670.02 902.049 1669.83 902.043 1669.65 902.038C1669.36 902.03 1669.06 902.024 1668.77 902.019C1668.63 902.016 1668.49 902.013 1668.35 902.011C1667.9 902.004 1667.45 902 1667 902H1666.99C1666.55 902 1666.1 902.004 1665.65 902.011C1665.51 902.013 1665.37 902.016 1665.23 902.019C1664.93 902.024 1664.64 902.03 1664.35 902.038C1664.16 902.043 1663.98 902.049 1663.79 902.056C1663.52 902.065 1663.24 902.076 1662.97 902.088C1662.79 902.096 1662.62 902.104 1662.44 902.112C1662.15 902.126 1661.86 902.142 1661.57 902.159C1661.43 902.168 1661.28 902.174 1661.13 902.184C1660.71 902.21 1660.3 902.24 1659.88 902.271C1659.71 902.284 1659.55 902.299 1659.38 902.312C1659.08 902.337 1658.78 902.362 1658.48 902.39C1658.36 902.401 1658.24 902.412 1658.12 902.424C1657.77 902.458 1657.41 902.493 1657.06 902.531C1656.97 902.541 1656.88 902.551 1656.78 902.562C1656.45 902.598 1656.12 902.637 1655.8 902.677C1655.65 902.694 1655.51 902.711 1655.37 902.729C1654.95 902.781 1654.53 902.837 1654.11 902.896C1654.04 902.906 1653.96 902.918 1653.88 902.929C1653.52 902.98 1653.16 903.033 1652.8 903.089C1652.66 903.111 1652.52 903.134 1652.37 903.157C1652.09 903.203 1651.81 903.249 1651.52 903.297C1651.37 903.323 1651.21 903.35 1651.06 903.377C1650.75 903.43 1650.45 903.485 1650.15 903.541C1650.01 903.566 1649.88 903.59 1649.75 903.615C1649.44 903.673 1649.13 903.734 1648.83 903.795C1648.7 903.82 1648.58 903.844 1648.46 903.869C1648.04 903.954 1647.62 904.043 1647.21 904.134C1647.11 904.155 1647.01 904.178 1646.91 904.2C1646.57 904.277 1646.22 904.356 1645.88 904.437C1645.79 904.458 1645.7 904.48 1645.61 904.502C1645.28 904.58 1644.95 904.66 1644.62 904.741C1644.5 904.773 1644.37 904.804 1644.25 904.836C1643.9 904.924 1643.56 905.014 1643.21 905.105C1643.15 905.123 1643.08 905.14 1643.01 905.158C1642.59 905.272 1642.17 905.388 1641.76 905.507C1641.66 905.534 1641.56 905.562 1641.47 905.59C1641.15 905.68 1640.84 905.772 1640.53 905.865C1640.4 905.905 1640.26 905.946 1640.13 905.986C1639.82 906.082 1639.5 906.179 1639.19 906.278C1639.1 906.307 1639.01 906.337 1638.92 906.366C1638.59 906.47 1638.27 906.575 1637.95 906.682C1637.85 906.716 1637.74 906.749 1637.64 906.784C1637.25 906.915 1636.86 907.048 1636.48 907.184C1636.39 907.213 1636.31 907.244 1636.22 907.274C1635.91 907.386 1635.59 907.499 1635.28 907.614C1635.11 907.677 1634.94 907.741 1634.77 907.805C1634.53 907.896 1634.28 907.988 1634.04 908.081C1633.88 908.141 1633.73 908.203 1633.57 908.264C1633.33 908.356 1633.1 908.45 1632.86 908.544C1632.7 908.608 1632.54 908.672 1632.38 908.736C1632.06 908.869 1631.73 909.003 1631.41 909.139C1631.36 909.16 1631.31 909.181 1631.25 909.202C1630.48 909.529 1629.71 909.866 1628.95 910.213C1628.79 910.287 1628.62 910.363 1628.46 910.438C1628.23 910.542 1628.01 910.647 1627.79 910.753C1627.63 910.825 1627.48 910.898 1627.33 910.971C1627.06 911.098 1626.79 911.227 1626.53 911.357C1626.43 911.408 1626.32 911.458 1626.22 911.509C1625.45 911.889 1624.69 912.279 1623.94 912.68C1623.83 912.734 1623.73 912.79 1623.63 912.845C1623.37 912.981 1623.12 913.119 1622.87 913.258C1622.72 913.337 1622.58 913.416 1622.44 913.495C1622.19 913.632 1621.94 913.77 1621.7 913.909C1621.59 913.973 1621.47 914.036 1621.36 914.1C1620.62 914.522 1619.89 914.955 1619.17 915.397C1619.09 915.445 1619.01 915.494 1618.93 915.542C1618.65 915.712 1618.38 915.884 1618.1 916.058C1617.99 916.129 1617.88 916.2 1617.76 916.271C1617.53 916.421 1617.29 916.571 1617.06 916.723C1616.92 916.811 1616.79 916.9 1616.65 916.989C1615.61 917.671 1614.58 918.373 1613.57 919.095C1613.46 919.175 1613.35 919.255 1613.24 919.336C1612.99 919.516 1612.74 919.698 1612.49 919.881C1612.4 919.945 1612.32 920.008 1612.23 920.072C1611.2 920.841 1610.18 921.63 1609.18 922.44C1609.11 922.493 1609.05 922.545 1608.98 922.598C1608.74 922.794 1608.5 922.992 1608.26 923.191C1608.13 923.298 1608 923.405 1607.88 923.513C1607.68 923.675 1607.49 923.838 1607.3 924.001C1607.17 924.11 1607.04 924.218 1606.92 924.327C1606.29 924.871 1605.66 925.424 1605.05 925.984C1605 926.03 1604.95 926.076 1604.9 926.121C1604.64 926.355 1604.39 926.591 1604.14 926.828C1604.04 926.919 1603.94 927.01 1603.84 927.102C1603.62 927.316 1603.39 927.532 1603.17 927.748C1603.1 927.813 1603.03 927.877 1602.97 927.942C1602.03 928.846 1601.12 929.769 1600.23 930.711C1600.18 930.762 1600.13 930.813 1600.08 930.864C1599.84 931.117 1599.61 931.371 1599.37 931.626C1599.29 931.71 1599.22 931.794 1599.14 931.879C1598.95 932.092 1598.75 932.306 1598.56 932.521C1598.46 932.635 1598.35 932.749 1598.25 932.864C1597.69 933.489 1597.15 934.12 1596.61 934.76C1596.56 934.816 1596.51 934.872 1596.47 934.928C1596.24 935.198 1596.02 935.469 1595.79 935.741C1595.73 935.822 1595.66 935.903 1595.6 935.984C1595.4 936.227 1595.2 936.471 1595.01 936.716C1594.93 936.816 1594.85 936.917 1594.77 937.018C1593.98 938.015 1593.21 939.03 1592.46 940.061C1592.41 940.14 1592.35 940.22 1592.29 940.3C1592.1 940.569 1591.91 940.839 1591.71 941.11C1591.68 941.159 1591.65 941.207 1591.61 941.256C1589.08 944.871 1584.21 946.204 1580.39 943.996L1511.1 903.989C1507.27 901.779 1505.94 896.87 1508.32 893.141C1541.69 840.752 1600.28 806 1667 806Z" fill="white" stroke="white" id="n558"/>
<path d="M1667 830C1727.7 830 1780.69 862.975 1809.05 911.986L1767.47 935.99C1747.41 901.324 1709.93 878 1667 878C1624.07 878 1586.58 901.323 1566.52 935.99L1524.95 911.986C1553.31 862.975 1606.3 830 1667 830Z" fill="#F0F0F0" stroke="#F0F0F0" id="n559"/>
<path d="M1667 806C1733.71 806 1792.31 840.752 1825.68 893.141C1828.05 896.87 1826.73 901.778 1822.9 903.989L1753.61 943.996C1749.78 946.204 1744.92 944.872 1742.39 941.256C1725.75 917.519 1698.19 902 1667 902C1635.81 902 1608.25 917.519 1591.61 941.256C1589.08 944.872 1584.21 946.204 1580.39 943.996L1511.1 903.989C1507.27 901.779 1505.94 896.87 1508.32 893.141C1541.69 840.753 1600.28 806 1667 806Z" stroke="#BEBEBE" id="n560"/>
<g mask="url(#mask52_68_6728)" id="n562">
<path d="M1411 994H1923" stroke="#BEBEBE" stroke-linecap="square" id="n563"/>
<path d="M1667 738L1667 1250" stroke="#BEBEBE" stroke-linecap="square" id="n564"/>
</g>
<g mask="url(#mask54_68_6728)" id="n573">
<mask id="mask55_68_6728" style="mask-type:alpha" maskUnits="userSpaceOnUse" x="1411" y="738" width="512" height="512">
<path d="M1667 810C1768.62 810 1851 892.38 1851 994C1851 1095.62 1768.62 1178 1667 1178C1565.38 1178 1483 1095.62 1483 994C1483 892.38 1565.38 810 1667 810ZM1667 834C1578.63 834 1507 905.634 1507 994C1507 1082.37 1578.63 1154 1667 1154C1755.37 1154 1827 1082.37 1827 994C1827 905.634 1755.37 834 1667 834Z" fill="black" id="n574"/>
</mask>
<g mask="url(#mask55_68_6728)" id="n575">
<path d="M1667 794V994M1667 994L1525.58 852.579M1667 994H1467M1667 994L1525.58 1135.42M1667 994V1194M1667 994L1808.42 1135.42M1667 994H1867M1667 994L1808.42 852.579" stroke="#BEBEBE" id="n576"/>
</g>
<mask id="mask56_68_6728" style="mask-type:alpha" maskUnits="userSpaceOnUse" x="1411" y="738" width="512" height="512">
<path d="M1667 802C1773.04 802 1859 887.961 1859 994C1859 1100.04 1773.04 1186 1667 1186C1560.96 1186 1475 1100.04 1475 994C1475 887.961 1560.96 802 1667 802ZM1667 830C1576.43 830 1503 903.425 1503 994C1503 1084.57 1576.43 1158 1667 1158C1757.57 1158 1831 1084.57 1831 994C1831 903.425 1757.57 830 1667 830Z" fill="black" id="n577"/>
</mask>
<g mask="url(#mask56_68_6728)" id="n578">
<path d="M1667 794V994M1667 994H1467M1667 994V1194M1667 994H1867" stroke="#BEBEBE" id="n579"/>
</g>
</g>
<path d="M1600.39 914.036C1601.86 915.678 1601.73 918.207 1600.09 919.685C1598.45 921.163 1595.92 921.031 1594.44 919.389C1592.96 917.747 1593.09 915.218 1594.74 913.74C1596.38 912.262 1598.91 912.394 1600.39 914.036Z" fill="#BEBEBE" id="n584"/>
</g>
</svg>
