<?xml version='1.0' encoding='utf-8'?>
<svg xmlns="http://www.w3.org/2000/svg" xmlns:xlink="http://www.w3.org/1999/xlink" width="74.0" height="48.0" viewBox="0 0 74.0 48.0" fill="none">
  <defs><clipPath id="clip__asset"><rect x="0" y="0" width="74.0" height="48.0"/></clipPath><clipPath id="clip191_68_6728">
<rect width="28" height="20" fill="white" transform="translate(287 739)" id="n1543"/>
</clipPath>
<clipPath id="clip192_68_6728">
<rect width="31" height="16" fill="white" transform="translate(257 759)" id="n1544"/>
</clipPath>
<clipPath id="clip193_68_6728">
<rect width="23" height="16" fill="white" transform="translate(292 759)" id="n1545"/>
</clipPath>
</defs>
  <g clip-path="url(#clip__asset)" transform="translate(-249.0 -733.0)"><g clip-path="url(#clip191_68_6728)" id="n636">
<path d="M293.131 755H291.899V746.856C291.899 746.547 291.899 746.285 291.899 746.072C291.91 745.859 291.915 745.661 291.915 745.48C291.926 745.288 291.937 745.096 291.947 744.904C291.787 745.064 291.638 745.203 291.499 745.32C291.361 745.427 291.19 745.571 290.987 745.752L289.643 746.808L288.987 745.96L292.075 743.576H293.131V755ZM304.944 755H297.488V753.96L300.56 750.808C301.125 750.243 301.6 749.736 301.984 749.288C302.378 748.84 302.677 748.397 302.88 747.96C303.082 747.523 303.184 747.037 303.184 746.504C303.184 745.853 302.986 745.357 302.592 745.016C302.208 744.664 301.701 744.488 301.072 744.488C300.528 744.488 300.042 744.584 299.616 744.776C299.189 744.968 298.757 745.235 298.32 745.576L297.648 744.728C297.946 744.472 298.272 744.248 298.624 744.056C298.986 743.853 299.37 743.699 299.776 743.592C300.192 743.475 300.624 743.416 301.072 743.416C301.765 743.416 302.362 743.539 302.864 743.784C303.376 744.029 303.77 744.381 304.048 744.84C304.325 745.288 304.464 745.821 304.464 746.44C304.464 746.899 304.394 747.331 304.256 747.736C304.128 748.131 303.936 748.52 303.68 748.904C303.434 749.277 303.13 749.661 302.768 750.056C302.416 750.44 302.026 750.845 301.6 751.272L299.072 753.8V753.848H304.944V755ZM313.684 746.232C313.684 746.744 313.582 747.192 313.38 747.576C313.188 747.949 312.91 748.253 312.548 748.488C312.196 748.723 311.78 748.888 311.3 748.984V749.048C312.206 749.155 312.889 749.443 313.348 749.912C313.806 750.381 314.036 751 314.036 751.768C314.036 752.429 313.881 753.016 313.572 753.528C313.262 754.04 312.788 754.44 312.148 754.728C311.518 755.016 310.708 755.16 309.716 755.16C309.108 755.16 308.542 755.112 308.02 755.016C307.508 754.92 307.022 754.76 306.564 754.536V753.352C307.033 753.576 307.545 753.757 308.1 753.896C308.665 754.024 309.209 754.088 309.732 754.088C310.777 754.088 311.534 753.88 312.004 753.464C312.473 753.048 312.708 752.477 312.708 751.752C312.708 751.24 312.58 750.835 312.324 750.536C312.068 750.227 311.694 750.003 311.204 749.864C310.713 749.715 310.126 749.64 309.444 749.64H308.308V748.552H309.46C310.078 748.552 310.601 748.461 311.028 748.28C311.465 748.099 311.801 747.843 312.036 747.512C312.27 747.171 312.388 746.771 312.388 746.312C312.388 745.725 312.19 745.277 311.796 744.968C311.412 744.648 310.884 744.488 310.212 744.488C309.806 744.488 309.433 744.531 309.092 744.616C308.761 744.691 308.446 744.803 308.148 744.952C307.86 745.091 307.566 745.261 307.268 745.464L306.644 744.6C306.932 744.387 307.252 744.189 307.604 744.008C307.966 743.827 308.361 743.683 308.788 743.576C309.225 743.469 309.694 743.416 310.196 743.416C311.358 743.416 312.228 743.677 312.804 744.2C313.39 744.723 313.684 745.4 313.684 746.232Z" fill="#2D548B" id="n637"/>
</g>
<g clip-path="url(#clip192_68_6728)" id="n638">
<path d="M258.07 771V762.789H259.473V769.804H262.934V771H258.07ZM266.67 764.664C267.475 764.664 268.081 764.836 268.487 765.181C268.894 765.526 269.097 766.07 269.097 766.814V771H268.119L267.843 770.137H267.797C267.621 770.36 267.437 770.548 267.245 770.701C267.061 770.847 266.847 770.95 266.601 771.012C266.364 771.081 266.072 771.115 265.727 771.115C265.359 771.115 265.026 771.046 264.727 770.908C264.435 770.77 264.205 770.559 264.037 770.275C263.868 769.992 263.784 769.635 263.784 769.206C263.784 768.562 264.021 768.079 264.497 767.757C264.972 767.427 265.693 767.247 266.659 767.216L267.728 767.182V766.86C267.728 766.446 267.629 766.151 267.429 765.974C267.238 765.798 266.965 765.71 266.613 765.71C266.298 765.71 265.996 765.756 265.704 765.848C265.413 765.94 265.129 766.051 264.853 766.181L264.416 765.204C264.715 765.043 265.06 764.913 265.451 764.813C265.842 764.713 266.249 764.664 266.67 764.664ZM266.946 768.067C266.287 768.09 265.831 768.202 265.578 768.401C265.325 768.6 265.198 768.872 265.198 769.217C265.198 769.516 265.29 769.735 265.474 769.873C265.658 770.003 265.892 770.068 266.176 770.068C266.613 770.068 266.981 769.946 267.28 769.7C267.579 769.447 267.728 769.072 267.728 768.573V768.045L266.946 768.067ZM272.305 764.341C272.305 764.587 272.297 764.824 272.282 765.054C272.274 765.284 272.263 765.465 272.248 765.595H272.305C272.481 765.334 272.715 765.116 273.007 764.939C273.306 764.755 273.689 764.664 274.157 764.664C274.885 764.664 275.475 764.936 275.928 765.48C276.38 766.017 276.606 766.818 276.606 767.883C276.606 768.589 276.503 769.183 276.296 769.666C276.089 770.149 275.797 770.513 275.422 770.758C275.054 770.996 274.62 771.115 274.122 771.115C273.654 771.115 273.279 771.031 272.995 770.862C272.711 770.693 272.481 770.494 272.305 770.264H272.213L271.96 771H270.925V762.26H272.305V764.341ZM273.777 765.779C273.417 765.779 273.129 765.852 272.915 765.997C272.7 766.143 272.547 766.362 272.455 766.653C272.363 766.944 272.313 767.316 272.305 767.768V767.883C272.305 768.558 272.412 769.079 272.627 769.447C272.842 769.808 273.233 769.988 273.8 769.988C274.252 769.988 274.597 769.808 274.835 769.447C275.073 769.079 275.192 768.55 275.192 767.86C275.192 767.17 275.069 766.653 274.824 766.308C274.586 765.955 274.237 765.779 273.777 765.779ZM280.597 764.664C281.149 764.664 281.624 764.778 282.023 765.008C282.429 765.231 282.74 765.553 282.954 765.974C283.169 766.388 283.276 766.891 283.276 767.481V768.205H279.148C279.163 768.788 279.324 769.24 279.631 769.562C279.938 769.877 280.363 770.034 280.907 770.034C281.306 770.034 281.663 769.996 281.977 769.919C282.299 769.842 282.629 769.727 282.966 769.574V770.689C282.652 770.835 282.33 770.942 282 771.012C281.678 771.081 281.291 771.115 280.838 771.115C280.233 771.115 279.696 771 279.228 770.77C278.761 770.532 278.397 770.176 278.136 769.7C277.875 769.225 277.745 768.635 277.745 767.929C277.745 767.224 277.864 766.63 278.101 766.147C278.339 765.664 278.673 765.296 279.102 765.043C279.531 764.79 280.03 764.664 280.597 764.664ZM280.597 765.698C280.191 765.698 279.865 765.829 279.619 766.089C279.374 766.342 279.228 766.722 279.182 767.228H281.931C281.931 766.921 281.881 766.657 281.781 766.434C281.689 766.204 281.544 766.024 281.344 765.894C281.153 765.764 280.904 765.698 280.597 765.698ZM286.13 771H284.75V762.26H286.13V771Z" fill="#535353" id="n639"/>
</g>
<g clip-path="url(#clip193_68_6728)" id="n640">
<path d="M299.326 768.102C299.326 768.685 299.207 769.206 298.969 769.666C298.739 770.118 298.386 770.475 297.911 770.735C297.443 770.988 296.857 771.115 296.152 771.115C295.14 771.115 294.369 770.843 293.84 770.298C293.311 769.746 293.047 769.007 293.047 768.079V762.789H293.967V768.102C293.967 768.807 294.154 769.352 294.53 769.735C294.906 770.118 295.462 770.31 296.198 770.31C296.704 770.31 297.118 770.218 297.44 770.034C297.769 769.85 298.011 769.597 298.164 769.275C298.325 768.945 298.406 768.558 298.406 768.113V762.789H299.326V768.102ZM304.254 764.732C304.974 764.732 305.523 764.913 305.898 765.273C306.274 765.626 306.462 766.197 306.462 766.986V771H305.565V767.055C305.565 766.526 305.446 766.135 305.208 765.882C304.971 765.629 304.61 765.503 304.127 765.503C303.445 765.503 302.962 765.695 302.678 766.078C302.395 766.461 302.253 767.021 302.253 767.757V771H301.356V764.847H302.08L302.218 765.756H302.264C302.402 765.534 302.571 765.35 302.77 765.204C302.97 765.051 303.196 764.936 303.449 764.859C303.702 764.775 303.97 764.732 304.254 764.732ZM309.283 764.847V771H308.386V764.847H309.283ZM308.846 762.547C308.999 762.547 309.126 762.597 309.225 762.697C309.333 762.797 309.386 762.95 309.386 763.157C309.386 763.349 309.333 763.498 309.225 763.605C309.126 763.705 308.999 763.755 308.846 763.755C308.685 763.755 308.551 763.705 308.443 763.605C308.344 763.498 308.294 763.349 308.294 763.157C308.294 762.95 308.344 762.797 308.443 762.697C308.551 762.597 308.685 762.547 308.846 762.547ZM313.216 770.367C313.377 770.367 313.534 770.356 313.687 770.333C313.848 770.302 313.983 770.272 314.09 770.241V770.931C313.975 770.985 313.822 771.027 313.63 771.058C313.446 771.096 313.258 771.115 313.066 771.115C312.744 771.115 312.453 771.058 312.192 770.942C311.932 770.827 311.721 770.636 311.56 770.367C311.407 770.091 311.33 769.712 311.33 769.229V765.56H310.444V765.112L311.341 764.767L311.686 763.421H312.238V764.847H314.044V765.56H312.238V769.206C312.238 769.597 312.323 769.888 312.491 770.08C312.668 770.272 312.909 770.367 313.216 770.367Z" fill="#535353" id="n641"/>
</g>
</g>
</svg>
