<?xml version='1.0' encoding='utf-8'?>
<svg xmlns="http://www.w3.org/2000/svg" xmlns:xlink="http://www.w3.org/1999/xlink" width="74.0" height="48.0" viewBox="0 0 74.0 48.0" fill="none">
  <defs><clipPath id="clip__asset"><rect x="0" y="0" width="74.0" height="48.0"/></clipPath><clipPath id="clip182_68_6728">
<rect width="28" height="20" fill="white" transform="translate(287 1075)" id="n1534"/>
</clipPath>
<clipPath id="clip183_68_6728">
<rect width="31" height="16" fill="white" transform="translate(257 1095)" id="n1535"/>
</clipPath>
<clipPath id="clip184_68_6728">
<rect width="23" height="16" fill="white" transform="translate(292 1095)" id="n1536"/>
</clipPath>
</defs>
  <g clip-path="url(#clip__asset)" transform="translate(-249.0 -1069.0)"><rect x="249.5" y="1069.5" width="73" height="47" rx="5.5" fill="#FFD2CB" id="n616"/>
<rect x="249.5" y="1069.5" width="73" height="47" rx="5.5" stroke="#707070" id="n617"/>
<g clip-path="url(#clip182_68_6728)" id="n618">
<path d="M293.131 1091H291.899V1082.86C291.899 1082.55 291.899 1082.29 291.899 1082.07C291.91 1081.86 291.915 1081.66 291.915 1081.48C291.926 1081.29 291.937 1081.1 291.947 1080.9C291.787 1081.06 291.638 1081.2 291.499 1081.32C291.361 1081.43 291.19 1081.57 290.987 1081.75L289.643 1082.81L288.987 1081.96L292.075 1079.58H293.131V1091ZM304.944 1091H297.488V1089.96L300.56 1086.81C301.125 1086.24 301.6 1085.74 301.984 1085.29C302.378 1084.84 302.677 1084.4 302.88 1083.96C303.082 1083.52 303.184 1083.04 303.184 1082.5C303.184 1081.85 302.986 1081.36 302.592 1081.02C302.208 1080.66 301.701 1080.49 301.072 1080.49C300.528 1080.49 300.042 1080.58 299.616 1080.78C299.189 1080.97 298.757 1081.23 298.32 1081.58L297.648 1080.73C297.946 1080.47 298.272 1080.25 298.624 1080.06C298.986 1079.85 299.37 1079.7 299.776 1079.59C300.192 1079.47 300.624 1079.42 301.072 1079.42C301.765 1079.42 302.362 1079.54 302.864 1079.78C303.376 1080.03 303.77 1080.38 304.048 1080.84C304.325 1081.29 304.464 1081.82 304.464 1082.44C304.464 1082.9 304.394 1083.33 304.256 1083.74C304.128 1084.13 303.936 1084.52 303.68 1084.9C303.434 1085.28 303.13 1085.66 302.768 1086.06C302.416 1086.44 302.026 1086.85 301.6 1087.27L299.072 1089.8V1089.85H304.944V1091ZM313.684 1082.23C313.684 1082.74 313.582 1083.19 313.38 1083.58C313.188 1083.95 312.91 1084.25 312.548 1084.49C312.196 1084.72 311.78 1084.89 311.3 1084.98V1085.05C312.206 1085.15 312.889 1085.44 313.348 1085.91C313.806 1086.38 314.036 1087 314.036 1087.77C314.036 1088.43 313.881 1089.02 313.572 1089.53C313.262 1090.04 312.788 1090.44 312.148 1090.73C311.518 1091.02 310.708 1091.16 309.716 1091.16C309.108 1091.16 308.542 1091.11 308.02 1091.02C307.508 1090.92 307.022 1090.76 306.564 1090.54V1089.35C307.033 1089.58 307.545 1089.76 308.1 1089.9C308.665 1090.02 309.209 1090.09 309.732 1090.09C310.777 1090.09 311.534 1089.88 312.004 1089.46C312.473 1089.05 312.708 1088.48 312.708 1087.75C312.708 1087.24 312.58 1086.83 312.324 1086.54C312.068 1086.23 311.694 1086 311.204 1085.86C310.713 1085.71 310.126 1085.64 309.444 1085.64H308.308V1084.55H309.46C310.078 1084.55 310.601 1084.46 311.028 1084.28C311.465 1084.1 311.801 1083.84 312.036 1083.51C312.27 1083.17 312.388 1082.77 312.388 1082.31C312.388 1081.73 312.19 1081.28 311.796 1080.97C311.412 1080.65 310.884 1080.49 310.212 1080.49C309.806 1080.49 309.433 1080.53 309.092 1080.62C308.761 1080.69 308.446 1080.8 308.148 1080.95C307.86 1081.09 307.566 1081.26 307.268 1081.46L306.644 1080.6C306.932 1080.39 307.252 1080.19 307.604 1080.01C307.966 1079.83 308.361 1079.68 308.788 1079.58C309.225 1079.47 309.694 1079.42 310.196 1079.42C311.358 1079.42 312.228 1079.68 312.804 1080.2C313.39 1080.72 313.684 1081.4 313.684 1082.23Z" fill="#535353" id="n619"/>
</g>
<g clip-path="url(#clip183_68_6728)" id="n620">
<path d="M258.07 1107V1098.79H259.473V1105.8H262.934V1107H258.07ZM266.67 1100.66C267.475 1100.66 268.081 1100.84 268.487 1101.18C268.894 1101.53 269.097 1102.07 269.097 1102.81V1107H268.119L267.843 1106.14H267.797C267.621 1106.36 267.437 1106.55 267.245 1106.7C267.061 1106.85 266.847 1106.95 266.601 1107.01C266.364 1107.08 266.072 1107.12 265.727 1107.12C265.359 1107.12 265.026 1107.05 264.727 1106.91C264.435 1106.77 264.205 1106.56 264.037 1106.28C263.868 1105.99 263.784 1105.64 263.784 1105.21C263.784 1104.56 264.021 1104.08 264.497 1103.76C264.972 1103.43 265.693 1103.25 266.659 1103.22L267.728 1103.18V1102.86C267.728 1102.45 267.629 1102.15 267.429 1101.97C267.238 1101.8 266.965 1101.71 266.613 1101.71C266.298 1101.71 265.996 1101.76 265.704 1101.85C265.413 1101.94 265.129 1102.05 264.853 1102.18L264.416 1101.2C264.715 1101.04 265.06 1100.91 265.451 1100.81C265.842 1100.71 266.249 1100.66 266.67 1100.66ZM266.946 1104.07C266.287 1104.09 265.831 1104.2 265.578 1104.4C265.325 1104.6 265.198 1104.87 265.198 1105.22C265.198 1105.52 265.29 1105.73 265.474 1105.87C265.658 1106 265.892 1106.07 266.176 1106.07C266.613 1106.07 266.981 1105.95 267.28 1105.7C267.579 1105.45 267.728 1105.07 267.728 1104.57V1104.04L266.946 1104.07ZM272.305 1100.34C272.305 1100.59 272.297 1100.82 272.282 1101.05C272.274 1101.28 272.263 1101.46 272.248 1101.59H272.305C272.481 1101.33 272.715 1101.12 273.007 1100.94C273.306 1100.76 273.689 1100.66 274.157 1100.66C274.885 1100.66 275.475 1100.94 275.928 1101.48C276.38 1102.02 276.606 1102.82 276.606 1103.88C276.606 1104.59 276.503 1105.18 276.296 1105.67C276.089 1106.15 275.797 1106.51 275.422 1106.76C275.054 1107 274.62 1107.12 274.122 1107.12C273.654 1107.12 273.279 1107.03 272.995 1106.86C272.711 1106.69 272.481 1106.49 272.305 1106.26H272.213L271.96 1107H270.925V1098.26H272.305V1100.34ZM273.777 1101.78C273.417 1101.78 273.129 1101.85 272.915 1102C272.7 1102.14 272.547 1102.36 272.455 1102.65C272.363 1102.94 272.313 1103.32 272.305 1103.77V1103.88C272.305 1104.56 272.412 1105.08 272.627 1105.45C272.842 1105.81 273.233 1105.99 273.8 1105.99C274.252 1105.99 274.597 1105.81 274.835 1105.45C275.073 1105.08 275.192 1104.55 275.192 1103.86C275.192 1103.17 275.069 1102.65 274.824 1102.31C274.586 1101.96 274.237 1101.78 273.777 1101.78ZM280.597 1100.66C281.149 1100.66 281.624 1100.78 282.023 1101.01C282.429 1101.23 282.74 1101.55 282.954 1101.97C283.169 1102.39 283.276 1102.89 283.276 1103.48V1104.21H279.148C279.163 1104.79 279.324 1105.24 279.631 1105.56C279.938 1105.88 280.363 1106.03 280.907 1106.03C281.306 1106.03 281.663 1106 281.977 1105.92C282.299 1105.84 282.629 1105.73 282.966 1105.57V1106.69C282.652 1106.84 282.33 1106.94 282 1107.01C281.678 1107.08 281.291 1107.12 280.838 1107.12C280.233 1107.12 279.696 1107 279.228 1106.77C278.761 1106.53 278.397 1106.18 278.136 1105.7C277.875 1105.23 277.745 1104.63 277.745 1103.93C277.745 1103.22 277.864 1102.63 278.101 1102.15C278.339 1101.66 278.673 1101.3 279.102 1101.04C279.531 1100.79 280.03 1100.66 280.597 1100.66ZM280.597 1101.7C280.191 1101.7 279.865 1101.83 279.619 1102.09C279.374 1102.34 279.228 1102.72 279.182 1103.23H281.931C281.931 1102.92 281.881 1102.66 281.781 1102.43C281.689 1102.2 281.544 1102.02 281.344 1101.89C281.153 1101.76 280.904 1101.7 280.597 1101.7ZM286.13 1107H284.75V1098.26H286.13V1107Z" fill="#535353" id="n621"/>
</g>
<g clip-path="url(#clip184_68_6728)" id="n622">
<path d="M299.326 1104.1C299.326 1104.68 299.207 1105.21 298.969 1105.67C298.739 1106.12 298.386 1106.47 297.911 1106.74C297.443 1106.99 296.857 1107.12 296.152 1107.12C295.14 1107.12 294.369 1106.84 293.84 1106.3C293.311 1105.75 293.047 1105.01 293.047 1104.08V1098.79H293.967V1104.1C293.967 1104.81 294.154 1105.35 294.53 1105.73C294.906 1106.12 295.462 1106.31 296.198 1106.31C296.704 1106.31 297.118 1106.22 297.44 1106.03C297.769 1105.85 298.011 1105.6 298.164 1105.27C298.325 1104.95 298.406 1104.56 298.406 1104.11V1098.79H299.326V1104.1ZM304.254 1100.73C304.974 1100.73 305.523 1100.91 305.898 1101.27C306.274 1101.63 306.462 1102.2 306.462 1102.99V1107H305.565V1103.06C305.565 1102.53 305.446 1102.14 305.208 1101.88C304.971 1101.63 304.61 1101.5 304.127 1101.5C303.445 1101.5 302.962 1101.69 302.678 1102.08C302.395 1102.46 302.253 1103.02 302.253 1103.76V1107H301.356V1100.85H302.08L302.218 1101.76H302.264C302.402 1101.53 302.571 1101.35 302.77 1101.2C302.97 1101.05 303.196 1100.94 303.449 1100.86C303.702 1100.77 303.97 1100.73 304.254 1100.73ZM309.283 1100.85V1107H308.386V1100.85H309.283ZM308.846 1098.55C308.999 1098.55 309.126 1098.6 309.225 1098.7C309.333 1098.8 309.386 1098.95 309.386 1099.16C309.386 1099.35 309.333 1099.5 309.225 1099.61C309.126 1099.71 308.999 1099.75 308.846 1099.75C308.685 1099.75 308.551 1099.71 308.443 1099.61C308.344 1099.5 308.294 1099.35 308.294 1099.16C308.294 1098.95 308.344 1098.8 308.443 1098.7C308.551 1098.6 308.685 1098.55 308.846 1098.55ZM313.216 1106.37C313.377 1106.37 313.534 1106.36 313.687 1106.33C313.848 1106.3 313.983 1106.27 314.09 1106.24V1106.93C313.975 1106.98 313.822 1107.03 313.63 1107.06C313.446 1107.1 313.258 1107.12 313.066 1107.12C312.744 1107.12 312.453 1107.06 312.192 1106.94C311.932 1106.83 311.721 1106.64 311.56 1106.37C311.407 1106.09 311.33 1105.71 311.33 1105.23V1101.56H310.444V1101.11L311.341 1100.77L311.686 1099.42H312.238V1100.85H314.044V1101.56H312.238V1105.21C312.238 1105.6 312.323 1105.89 312.491 1106.08C312.668 1106.27 312.909 1106.37 313.216 1106.37Z" fill="#535353" id="n623"/>
</g>
</g>
</svg>
