<?xml version='1.0' encoding='utf-8'?>
<svg xmlns="http://www.w3.org/2000/svg" xmlns:xlink="http://www.w3.org/1999/xlink" width="74.0" height="48.0" viewBox="0 0 74.0 48.0" fill="none">
  <defs><clipPath id="clip__asset"><rect x="0" y="0" width="74.0" height="48.0"/></clipPath><clipPath id="clip152_68_6728">
<rect width="37" height="24" fill="white" transform="translate(384 577)" id="n1504"/>
</clipPath>
<clipPath id="clip153_68_6728">
<rect width="31" height="16" fill="white" transform="translate(363 601)" id="n1505"/>
</clipPath>
<clipPath id="clip154_68_6728">
<rect width="23" height="16" fill="white" transform="translate(398 601)" id="n1506"/>
</clipPath>
</defs>
  <g clip-path="url(#clip__asset)" transform="translate(-355.0 -573.0)"><g clip-path="url(#clip152_68_6728)" id="n550">
<path d="M391.93 597H390.236V585.802C390.236 585.377 390.236 585.017 390.236 584.724C390.251 584.431 390.258 584.159 390.258 583.91C390.273 583.646 390.288 583.382 390.302 583.118C390.082 583.338 389.877 583.529 389.686 583.69C389.496 583.837 389.261 584.035 388.982 584.284L387.134 585.736L386.232 584.57L390.478 581.292H391.93V597ZM407.672 597H397.42V595.57L401.644 591.236C402.422 590.459 403.074 589.762 403.602 589.146C404.145 588.53 404.556 587.921 404.834 587.32C405.113 586.719 405.252 586.051 405.252 585.318C405.252 584.423 404.981 583.741 404.438 583.272C403.91 582.788 403.214 582.546 402.348 582.546C401.6 582.546 400.933 582.678 400.346 582.942C399.76 583.206 399.166 583.573 398.564 584.042L397.64 582.876C398.051 582.524 398.498 582.216 398.982 581.952C399.481 581.673 400.009 581.461 400.566 581.314C401.138 581.153 401.732 581.072 402.348 581.072C403.302 581.072 404.123 581.241 404.812 581.578C405.516 581.915 406.059 582.399 406.44 583.03C406.822 583.646 407.012 584.379 407.012 585.23C407.012 585.861 406.917 586.455 406.726 587.012C406.55 587.555 406.286 588.09 405.934 588.618C405.597 589.131 405.179 589.659 404.68 590.202C404.196 590.73 403.661 591.287 403.074 591.874L399.598 595.35V595.416H407.672V597ZM419.19 584.944C419.19 585.648 419.051 586.264 418.772 586.792C418.508 587.305 418.127 587.723 417.628 588.046C417.144 588.369 416.572 588.596 415.912 588.728V588.816C417.159 588.963 418.097 589.359 418.728 590.004C419.359 590.649 419.674 591.5 419.674 592.556C419.674 593.465 419.461 594.272 419.036 594.976C418.611 595.68 417.958 596.23 417.078 596.626C416.213 597.022 415.098 597.22 413.734 597.22C412.898 597.22 412.121 597.154 411.402 597.022C410.698 596.89 410.031 596.67 409.4 596.362V594.734C410.045 595.042 410.749 595.291 411.512 595.482C412.289 595.658 413.037 595.746 413.756 595.746C415.193 595.746 416.235 595.46 416.88 594.888C417.525 594.316 417.848 593.531 417.848 592.534C417.848 591.83 417.672 591.273 417.32 590.862C416.968 590.437 416.455 590.129 415.78 589.938C415.105 589.733 414.299 589.63 413.36 589.63H411.798V588.134H413.382C414.233 588.134 414.951 588.009 415.538 587.76C416.139 587.511 416.601 587.159 416.924 586.704C417.247 586.235 417.408 585.685 417.408 585.054C417.408 584.247 417.137 583.631 416.594 583.206C416.066 582.766 415.34 582.546 414.416 582.546C413.859 582.546 413.345 582.605 412.876 582.722C412.421 582.825 411.989 582.979 411.578 583.184C411.182 583.375 410.779 583.609 410.368 583.888L409.51 582.7C409.906 582.407 410.346 582.135 410.83 581.886C411.329 581.637 411.871 581.439 412.458 581.292C413.059 581.145 413.705 581.072 414.394 581.072C415.993 581.072 417.188 581.431 417.98 582.15C418.787 582.869 419.19 583.8 419.19 584.944Z" fill="#2D548B" id="n551"/>
</g>
<g clip-path="url(#clip153_68_6728)" id="n552">
<path d="M364.07 613V604.789H365.473V611.804H368.934V613H364.07ZM372.67 606.664C373.475 606.664 374.081 606.836 374.487 607.181C374.894 607.526 375.097 608.07 375.097 608.814V613H374.119L373.843 612.137H373.797C373.621 612.36 373.437 612.548 373.245 612.701C373.061 612.847 372.847 612.95 372.601 613.012C372.364 613.081 372.072 613.115 371.727 613.115C371.359 613.115 371.026 613.046 370.727 612.908C370.435 612.77 370.205 612.559 370.037 612.275C369.868 611.992 369.784 611.635 369.784 611.206C369.784 610.562 370.021 610.079 370.497 609.757C370.972 609.427 371.693 609.247 372.659 609.216L373.728 609.182V608.86C373.728 608.446 373.629 608.151 373.429 607.974C373.238 607.798 372.965 607.71 372.613 607.71C372.298 607.71 371.996 607.756 371.704 607.848C371.413 607.94 371.129 608.051 370.853 608.181L370.416 607.204C370.715 607.043 371.06 606.913 371.451 606.813C371.842 606.713 372.249 606.664 372.67 606.664ZM372.946 610.067C372.287 610.09 371.831 610.202 371.578 610.401C371.325 610.6 371.198 610.872 371.198 611.217C371.198 611.516 371.29 611.735 371.474 611.873C371.658 612.003 371.892 612.068 372.176 612.068C372.613 612.068 372.981 611.946 373.28 611.7C373.579 611.447 373.728 611.072 373.728 610.573V610.045L372.946 610.067ZM378.305 606.341C378.305 606.587 378.297 606.824 378.282 607.054C378.274 607.284 378.263 607.465 378.248 607.595H378.305C378.481 607.334 378.715 607.116 379.007 606.939C379.306 606.755 379.689 606.664 380.157 606.664C380.885 606.664 381.475 606.936 381.928 607.48C382.38 608.017 382.606 608.818 382.606 609.883C382.606 610.589 382.503 611.183 382.296 611.666C382.089 612.149 381.797 612.513 381.422 612.758C381.054 612.996 380.62 613.115 380.122 613.115C379.654 613.115 379.279 613.031 378.995 612.862C378.711 612.693 378.481 612.494 378.305 612.264H378.213L377.96 613H376.925V604.26H378.305V606.341ZM379.777 607.779C379.417 607.779 379.129 607.852 378.915 607.997C378.7 608.143 378.547 608.362 378.455 608.653C378.363 608.944 378.313 609.316 378.305 609.768V609.883C378.305 610.558 378.412 611.079 378.627 611.447C378.842 611.808 379.233 611.988 379.8 611.988C380.252 611.988 380.597 611.808 380.835 611.447C381.073 611.079 381.192 610.55 381.192 609.86C381.192 609.17 381.069 608.653 380.824 608.308C380.586 607.955 380.237 607.779 379.777 607.779ZM386.597 606.664C387.149 606.664 387.624 606.778 388.023 607.008C388.429 607.231 388.74 607.553 388.954 607.974C389.169 608.388 389.276 608.891 389.276 609.481V610.205H385.148C385.163 610.788 385.324 611.24 385.631 611.562C385.938 611.877 386.363 612.034 386.907 612.034C387.306 612.034 387.663 611.996 387.977 611.919C388.299 611.842 388.629 611.727 388.966 611.574V612.689C388.652 612.835 388.33 612.942 388 613.012C387.678 613.081 387.291 613.115 386.838 613.115C386.233 613.115 385.696 613 385.228 612.77C384.761 612.532 384.397 612.176 384.136 611.7C383.875 611.225 383.745 610.635 383.745 609.929C383.745 609.224 383.864 608.63 384.101 608.147C384.339 607.664 384.673 607.296 385.102 607.043C385.531 606.79 386.03 606.664 386.597 606.664ZM386.597 607.698C386.191 607.698 385.865 607.829 385.619 608.089C385.374 608.342 385.228 608.722 385.182 609.228H387.931C387.931 608.921 387.881 608.657 387.781 608.434C387.689 608.204 387.544 608.024 387.344 607.894C387.153 607.764 386.904 607.698 386.597 607.698ZM392.13 613H390.75V604.26H392.13V613Z" fill="#535353" id="n553"/>
</g>
<g clip-path="url(#clip154_68_6728)" id="n554">
<path d="M405.326 610.102C405.326 610.685 405.207 611.206 404.969 611.666C404.739 612.118 404.386 612.475 403.911 612.735C403.443 612.988 402.857 613.115 402.152 613.115C401.14 613.115 400.369 612.843 399.84 612.298C399.311 611.746 399.047 611.007 399.047 610.079V604.789H399.967V610.102C399.967 610.807 400.154 611.352 400.53 611.735C400.906 612.118 401.462 612.31 402.198 612.31C402.704 612.31 403.118 612.218 403.44 612.034C403.769 611.85 404.011 611.597 404.164 611.275C404.325 610.945 404.406 610.558 404.406 610.113V604.789H405.326V610.102ZM410.254 606.732C410.974 606.732 411.523 606.913 411.898 607.273C412.274 607.626 412.462 608.197 412.462 608.986V613H411.565V609.055C411.565 608.526 411.446 608.135 411.208 607.882C410.971 607.629 410.61 607.503 410.127 607.503C409.445 607.503 408.962 607.695 408.678 608.078C408.395 608.461 408.253 609.021 408.253 609.757V613H407.356V606.847H408.08L408.218 607.756H408.264C408.402 607.534 408.571 607.35 408.77 607.204C408.97 607.051 409.196 606.936 409.449 606.859C409.702 606.775 409.97 606.732 410.254 606.732ZM415.283 606.847V613H414.386V606.847H415.283ZM414.846 604.547C414.999 604.547 415.126 604.597 415.225 604.697C415.333 604.797 415.386 604.95 415.386 605.157C415.386 605.349 415.333 605.498 415.225 605.605C415.126 605.705 414.999 605.755 414.846 605.755C414.685 605.755 414.551 605.705 414.443 605.605C414.344 605.498 414.294 605.349 414.294 605.157C414.294 604.95 414.344 604.797 414.443 604.697C414.551 604.597 414.685 604.547 414.846 604.547ZM419.216 612.367C419.377 612.367 419.534 612.356 419.687 612.333C419.848 612.302 419.983 612.272 420.09 612.241V612.931C419.975 612.985 419.822 613.027 419.63 613.058C419.446 613.096 419.258 613.115 419.066 613.115C418.744 613.115 418.453 613.058 418.192 612.942C417.932 612.827 417.721 612.636 417.56 612.367C417.407 612.091 417.33 611.712 417.33 611.229V607.56H416.444V607.112L417.341 606.767L417.686 605.421H418.238V606.847H420.044V607.56H418.238V611.206C418.238 611.597 418.323 611.888 418.491 612.08C418.668 612.272 418.909 612.367 419.216 612.367Z" fill="#535353" id="n555"/>
</g>
</g>
</svg>
