<?xml version='1.0' encoding='utf-8'?>
<svg xmlns="http://www.w3.org/2000/svg" xmlns:xlink="http://www.w3.org/1999/xlink" width="74.0" height="40.0" viewBox="0 0 74.0 40.0" fill="none">
  <defs><clipPath id="clip__asset"><rect x="0" y="0" width="74.0" height="40.0"/></clipPath><clipPath id="clip173_68_6728">
<rect width="20" height="16" fill="white" transform="translate(901 745)" id="n1525"/>
</clipPath>
<clipPath id="clip174_68_6728">
<rect width="31" height="16" fill="white" transform="translate(863 761)" id="n1526"/>
</clipPath>
<clipPath id="clip175_68_6728">
<rect width="23" height="16" fill="white" transform="translate(898 761)" id="n1527"/>
</clipPath>
</defs>
  <g clip-path="url(#clip__asset)" transform="translate(-855.0 -741.0)"><g clip-path="url(#clip173_68_6728)" id="n596">
<path d="M905.282 757H904.396V751.146C904.396 750.924 904.396 750.736 904.396 750.583C904.404 750.43 904.408 750.288 904.408 750.157C904.416 750.019 904.423 749.881 904.431 749.743C904.316 749.858 904.209 749.958 904.109 750.042C904.009 750.119 903.887 750.223 903.741 750.353L902.775 751.112L902.303 750.503L904.523 748.789H905.282V757ZM913.772 757H908.413V756.252L910.621 753.987C911.027 753.581 911.368 753.216 911.644 752.894C911.928 752.572 912.143 752.254 912.288 751.94C912.434 751.626 912.507 751.277 912.507 750.893C912.507 750.426 912.365 750.069 912.081 749.824C911.805 749.571 911.441 749.444 910.989 749.444C910.598 749.444 910.249 749.513 909.942 749.651C909.636 749.789 909.325 749.981 909.011 750.226L908.528 749.617C908.743 749.433 908.976 749.272 909.229 749.134C909.49 748.988 909.766 748.877 910.057 748.8C910.356 748.716 910.667 748.674 910.989 748.674C911.487 748.674 911.917 748.762 912.277 748.938C912.645 749.115 912.929 749.368 913.128 749.697C913.327 750.019 913.427 750.403 913.427 750.847C913.427 751.177 913.377 751.488 913.277 751.779C913.185 752.063 913.047 752.342 912.863 752.618C912.687 752.887 912.469 753.163 912.208 753.446C911.955 753.722 911.675 754.014 911.368 754.32L909.551 756.137V756.172H913.772V757ZM920.054 750.698C920.054 751.066 919.981 751.388 919.835 751.664C919.697 751.932 919.498 752.151 919.237 752.319C918.984 752.488 918.685 752.607 918.34 752.676V752.722C918.992 752.799 919.483 753.006 919.812 753.343C920.142 753.68 920.307 754.125 920.307 754.677C920.307 755.152 920.196 755.574 919.973 755.942C919.751 756.31 919.41 756.597 918.95 756.804C918.498 757.012 917.915 757.115 917.202 757.115C916.765 757.115 916.359 757.081 915.983 757.012C915.615 756.942 915.266 756.827 914.936 756.666V755.815C915.274 755.976 915.642 756.107 916.04 756.206C916.447 756.298 916.838 756.344 917.213 756.344C917.965 756.344 918.509 756.195 918.846 755.896C919.184 755.597 919.352 755.187 919.352 754.665C919.352 754.297 919.26 754.006 919.076 753.791C918.892 753.569 918.624 753.408 918.271 753.308C917.919 753.201 917.497 753.147 917.006 753.147H916.19V752.365H917.018C917.463 752.365 917.838 752.3 918.145 752.17C918.459 752.04 918.701 751.856 918.869 751.618C919.038 751.373 919.122 751.085 919.122 750.755C919.122 750.334 918.981 750.012 918.697 749.789C918.421 749.559 918.041 749.444 917.558 749.444C917.267 749.444 916.999 749.475 916.753 749.536C916.516 749.59 916.29 749.671 916.075 749.778C915.868 749.878 915.657 750 915.442 750.146L914.994 749.525C915.201 749.372 915.431 749.23 915.684 749.099C915.945 748.969 916.228 748.866 916.535 748.789C916.849 748.712 917.187 748.674 917.547 748.674C918.383 748.674 919.007 748.862 919.421 749.237C919.843 749.613 920.054 750.1 920.054 750.698Z" fill="#2D548B" id="n597"/>
</g>
<g clip-path="url(#clip174_68_6728)" id="n598">
<path d="M864.07 773V764.789H865.473V771.804H868.934V773H864.07ZM872.67 766.664C873.475 766.664 874.081 766.836 874.487 767.181C874.894 767.526 875.097 768.07 875.097 768.814V773H874.119L873.843 772.137H873.797C873.621 772.36 873.437 772.548 873.245 772.701C873.061 772.847 872.847 772.95 872.601 773.012C872.364 773.081 872.072 773.115 871.727 773.115C871.359 773.115 871.026 773.046 870.727 772.908C870.435 772.77 870.205 772.559 870.037 772.275C869.868 771.992 869.784 771.635 869.784 771.206C869.784 770.562 870.021 770.079 870.497 769.757C870.972 769.427 871.693 769.247 872.659 769.216L873.728 769.182V768.86C873.728 768.446 873.629 768.151 873.429 767.974C873.238 767.798 872.965 767.71 872.613 767.71C872.298 767.71 871.996 767.756 871.704 767.848C871.413 767.94 871.129 768.051 870.853 768.181L870.416 767.204C870.715 767.043 871.06 766.913 871.451 766.813C871.842 766.713 872.249 766.664 872.67 766.664ZM872.946 770.067C872.287 770.09 871.831 770.202 871.578 770.401C871.325 770.6 871.198 770.872 871.198 771.217C871.198 771.516 871.29 771.735 871.474 771.873C871.658 772.003 871.892 772.068 872.176 772.068C872.613 772.068 872.981 771.946 873.28 771.7C873.579 771.447 873.728 771.072 873.728 770.573V770.045L872.946 770.067ZM878.305 766.341C878.305 766.587 878.297 766.824 878.282 767.054C878.274 767.284 878.263 767.465 878.248 767.595H878.305C878.481 767.334 878.715 767.116 879.007 766.939C879.306 766.755 879.689 766.664 880.157 766.664C880.885 766.664 881.475 766.936 881.928 767.48C882.38 768.017 882.606 768.818 882.606 769.883C882.606 770.589 882.503 771.183 882.296 771.666C882.089 772.149 881.797 772.513 881.422 772.758C881.054 772.996 880.62 773.115 880.122 773.115C879.654 773.115 879.279 773.031 878.995 772.862C878.711 772.693 878.481 772.494 878.305 772.264H878.213L877.96 773H876.925V764.26H878.305V766.341ZM879.777 767.779C879.417 767.779 879.129 767.852 878.915 767.997C878.7 768.143 878.547 768.362 878.455 768.653C878.363 768.944 878.313 769.316 878.305 769.768V769.883C878.305 770.558 878.412 771.079 878.627 771.447C878.842 771.808 879.233 771.988 879.8 771.988C880.252 771.988 880.597 771.808 880.835 771.447C881.073 771.079 881.192 770.55 881.192 769.86C881.192 769.17 881.069 768.653 880.824 768.308C880.586 767.955 880.237 767.779 879.777 767.779ZM886.597 766.664C887.149 766.664 887.624 766.778 888.023 767.008C888.429 767.231 888.74 767.553 888.954 767.974C889.169 768.388 889.276 768.891 889.276 769.481V770.205H885.148C885.163 770.788 885.324 771.24 885.631 771.562C885.938 771.877 886.363 772.034 886.907 772.034C887.306 772.034 887.663 771.996 887.977 771.919C888.299 771.842 888.629 771.727 888.966 771.574V772.689C888.652 772.835 888.33 772.942 888 773.012C887.678 773.081 887.291 773.115 886.838 773.115C886.233 773.115 885.696 773 885.228 772.77C884.761 772.532 884.397 772.176 884.136 771.7C883.875 771.225 883.745 770.635 883.745 769.929C883.745 769.224 883.864 768.63 884.101 768.147C884.339 767.664 884.673 767.296 885.102 767.043C885.531 766.79 886.03 766.664 886.597 766.664ZM886.597 767.698C886.191 767.698 885.865 767.829 885.619 768.089C885.374 768.342 885.228 768.722 885.182 769.228H887.931C887.931 768.921 887.881 768.657 887.781 768.434C887.689 768.204 887.544 768.024 887.344 767.894C887.153 767.764 886.904 767.698 886.597 767.698ZM892.13 773H890.75V764.26H892.13V773Z" fill="#535353" id="n599"/>
</g>
<g clip-path="url(#clip175_68_6728)" id="n600">
<path d="M905.326 770.102C905.326 770.685 905.207 771.206 904.969 771.666C904.739 772.118 904.386 772.475 903.911 772.735C903.443 772.988 902.857 773.115 902.152 773.115C901.14 773.115 900.369 772.843 899.84 772.298C899.311 771.746 899.047 771.007 899.047 770.079V764.789H899.967V770.102C899.967 770.807 900.154 771.352 900.53 771.735C900.906 772.118 901.462 772.31 902.198 772.31C902.704 772.31 903.118 772.218 903.44 772.034C903.769 771.85 904.011 771.597 904.164 771.275C904.325 770.945 904.406 770.558 904.406 770.113V764.789H905.326V770.102ZM910.254 766.732C910.974 766.732 911.523 766.913 911.898 767.273C912.274 767.626 912.462 768.197 912.462 768.986V773H911.565V769.055C911.565 768.526 911.446 768.135 911.208 767.882C910.971 767.629 910.61 767.503 910.127 767.503C909.445 767.503 908.962 767.695 908.678 768.078C908.395 768.461 908.253 769.021 908.253 769.757V773H907.356V766.847H908.08L908.218 767.756H908.264C908.402 767.534 908.571 767.35 908.77 767.204C908.97 767.051 909.196 766.936 909.449 766.859C909.702 766.775 909.97 766.732 910.254 766.732ZM915.283 766.847V773H914.386V766.847H915.283ZM914.846 764.547C914.999 764.547 915.126 764.597 915.225 764.697C915.333 764.797 915.386 764.95 915.386 765.157C915.386 765.349 915.333 765.498 915.225 765.605C915.126 765.705 914.999 765.755 914.846 765.755C914.685 765.755 914.551 765.705 914.443 765.605C914.344 765.498 914.294 765.349 914.294 765.157C914.294 764.95 914.344 764.797 914.443 764.697C914.551 764.597 914.685 764.547 914.846 764.547ZM919.216 772.367C919.377 772.367 919.534 772.356 919.687 772.333C919.848 772.302 919.983 772.272 920.09 772.241V772.931C919.975 772.985 919.822 773.027 919.63 773.058C919.446 773.096 919.258 773.115 919.066 773.115C918.744 773.115 918.453 773.058 918.192 772.942C917.932 772.827 917.721 772.636 917.56 772.367C917.407 772.091 917.33 771.712 917.33 771.229V767.56H916.444V767.112L917.341 766.767L917.686 765.421H918.238V766.847H920.044V767.56H918.238V771.206C918.238 771.597 918.323 771.888 918.491 772.08C918.668 772.272 918.909 772.367 919.216 772.367Z" fill="#535353" id="n601"/>
</g>
</g>
</svg>
