<?xml version='1.0' encoding='utf-8'?>
<svg xmlns="http://www.w3.org/2000/svg" xmlns:xlink="http://www.w3.org/1999/xlink" width="78.0" height="64.0" viewBox="0 0 78.0 64.0" fill="none">
  <defs><clipPath id="clip__asset"><rect x="0" y="0" width="78.0" height="64.0"/></clipPath><clipPath id="clip134_68_6728">
<rect width="58" height="32" fill="white" transform="translate(479 565)" id="n1486"/>
</clipPath>
<clipPath id="clip135_68_6728">
<rect width="31" height="16" fill="white" transform="translate(477 601)" id="n1487"/>
</clipPath>
<clipPath id="clip136_68_6728">
<rect width="23" height="16" fill="white" transform="translate(512 601)" id="n1488"/>
</clipPath>
</defs>
  <g clip-path="url(#clip__asset)" transform="translate(-465.0 -557.0)"><g clip-path="url(#clip134_68_6728)" id="n510">
<path d="M491.529 593H488.911V575.694C488.911 575.037 488.911 574.481 488.911 574.028C488.934 573.575 488.945 573.155 488.945 572.77C488.968 572.362 488.99 571.954 489.013 571.546C488.673 571.886 488.356 572.181 488.061 572.43C487.766 572.657 487.404 572.963 486.973 573.348L484.117 575.592L482.723 573.79L489.285 568.724H491.529V593ZM516.13 593H500.286V590.79L506.814 584.092C508.015 582.891 509.024 581.814 509.84 580.862C510.679 579.91 511.313 578.969 511.744 578.04C512.175 577.111 512.39 576.079 512.39 574.946C512.39 573.563 511.971 572.509 511.132 571.784C510.316 571.036 509.239 570.662 507.902 570.662C506.746 570.662 505.715 570.866 504.808 571.274C503.901 571.682 502.983 572.249 502.054 572.974L500.626 571.172C501.261 570.628 501.952 570.152 502.7 569.744C503.471 569.313 504.287 568.985 505.148 568.758C506.032 568.509 506.95 568.384 507.902 568.384C509.375 568.384 510.645 568.645 511.71 569.166C512.798 569.687 513.637 570.435 514.226 571.41C514.815 572.362 515.11 573.495 515.11 574.81C515.11 575.785 514.963 576.703 514.668 577.564C514.396 578.403 513.988 579.23 513.444 580.046C512.923 580.839 512.277 581.655 511.506 582.494C510.758 583.31 509.931 584.171 509.024 585.078L503.652 590.45V590.552H516.13V593ZM534.203 574.368C534.203 575.456 533.988 576.408 533.557 577.224C533.149 578.017 532.56 578.663 531.789 579.162C531.041 579.661 530.157 580.012 529.137 580.216V580.352C531.064 580.579 532.514 581.191 533.489 582.188C534.464 583.185 534.951 584.5 534.951 586.132C534.951 587.537 534.622 588.784 533.965 589.872C533.308 590.96 532.299 591.81 530.939 592.422C529.602 593.034 527.879 593.34 525.771 593.34C524.479 593.34 523.278 593.238 522.167 593.034C521.079 592.83 520.048 592.49 519.073 592.014V589.498C520.07 589.974 521.158 590.359 522.337 590.654C523.538 590.926 524.694 591.062 525.805 591.062C528.026 591.062 529.636 590.62 530.633 589.736C531.63 588.852 532.129 587.639 532.129 586.098C532.129 585.01 531.857 584.149 531.313 583.514C530.769 582.857 529.976 582.381 528.933 582.086C527.89 581.769 526.644 581.61 525.193 581.61H522.779V579.298H525.227C526.542 579.298 527.652 579.105 528.559 578.72C529.488 578.335 530.202 577.791 530.701 577.088C531.2 576.363 531.449 575.513 531.449 574.538C531.449 573.291 531.03 572.339 530.191 571.682C529.375 571.002 528.253 570.662 526.825 570.662C525.964 570.662 525.17 570.753 524.445 570.934C523.742 571.093 523.074 571.331 522.439 571.648C521.827 571.943 521.204 572.305 520.569 572.736L519.243 570.9C519.855 570.447 520.535 570.027 521.283 569.642C522.054 569.257 522.892 568.951 523.799 568.724C524.728 568.497 525.726 568.384 526.791 568.384C529.262 568.384 531.109 568.939 532.333 570.05C533.58 571.161 534.203 572.6 534.203 574.368Z" fill="#2D548B" id="n511"/>
</g>
<g clip-path="url(#clip135_68_6728)" id="n512">
<path d="M478.07 613V604.789H479.473V611.804H482.934V613H478.07ZM486.67 606.664C487.475 606.664 488.081 606.836 488.487 607.181C488.894 607.526 489.097 608.07 489.097 608.814V613H488.119L487.843 612.137H487.797C487.621 612.36 487.437 612.548 487.245 612.701C487.061 612.847 486.847 612.95 486.601 613.012C486.364 613.081 486.072 613.115 485.727 613.115C485.359 613.115 485.026 613.046 484.727 612.908C484.435 612.77 484.205 612.559 484.037 612.275C483.868 611.992 483.784 611.635 483.784 611.206C483.784 610.562 484.021 610.079 484.497 609.757C484.972 609.427 485.693 609.247 486.659 609.216L487.728 609.182V608.86C487.728 608.446 487.629 608.151 487.429 607.974C487.238 607.798 486.965 607.71 486.613 607.71C486.298 607.71 485.996 607.756 485.704 607.848C485.413 607.94 485.129 608.051 484.853 608.181L484.416 607.204C484.715 607.043 485.06 606.913 485.451 606.813C485.842 606.713 486.249 606.664 486.67 606.664ZM486.946 610.067C486.287 610.09 485.831 610.202 485.578 610.401C485.325 610.6 485.198 610.872 485.198 611.217C485.198 611.516 485.29 611.735 485.474 611.873C485.658 612.003 485.892 612.068 486.176 612.068C486.613 612.068 486.981 611.946 487.28 611.7C487.579 611.447 487.728 611.072 487.728 610.573V610.045L486.946 610.067ZM492.305 606.341C492.305 606.587 492.297 606.824 492.282 607.054C492.274 607.284 492.263 607.465 492.248 607.595H492.305C492.481 607.334 492.715 607.116 493.007 606.939C493.306 606.755 493.689 606.664 494.157 606.664C494.885 606.664 495.475 606.936 495.928 607.48C496.38 608.017 496.606 608.818 496.606 609.883C496.606 610.589 496.503 611.183 496.296 611.666C496.089 612.149 495.797 612.513 495.422 612.758C495.054 612.996 494.62 613.115 494.122 613.115C493.654 613.115 493.279 613.031 492.995 612.862C492.711 612.693 492.481 612.494 492.305 612.264H492.213L491.96 613H490.925V604.26H492.305V606.341ZM493.777 607.779C493.417 607.779 493.129 607.852 492.915 607.997C492.7 608.143 492.547 608.362 492.455 608.653C492.363 608.944 492.313 609.316 492.305 609.768V609.883C492.305 610.558 492.412 611.079 492.627 611.447C492.842 611.808 493.233 611.988 493.8 611.988C494.252 611.988 494.597 611.808 494.835 611.447C495.073 611.079 495.192 610.55 495.192 609.86C495.192 609.17 495.069 608.653 494.824 608.308C494.586 607.955 494.237 607.779 493.777 607.779ZM500.597 606.664C501.149 606.664 501.624 606.778 502.023 607.008C502.429 607.231 502.74 607.553 502.954 607.974C503.169 608.388 503.276 608.891 503.276 609.481V610.205H499.148C499.163 610.788 499.324 611.24 499.631 611.562C499.938 611.877 500.363 612.034 500.907 612.034C501.306 612.034 501.663 611.996 501.977 611.919C502.299 611.842 502.629 611.727 502.966 611.574V612.689C502.652 612.835 502.33 612.942 502 613.012C501.678 613.081 501.291 613.115 500.838 613.115C500.233 613.115 499.696 613 499.228 612.77C498.761 612.532 498.397 612.176 498.136 611.7C497.875 611.225 497.745 610.635 497.745 609.929C497.745 609.224 497.864 608.63 498.101 608.147C498.339 607.664 498.673 607.296 499.102 607.043C499.531 606.79 500.03 606.664 500.597 606.664ZM500.597 607.698C500.191 607.698 499.865 607.829 499.619 608.089C499.374 608.342 499.228 608.722 499.182 609.228H501.931C501.931 608.921 501.881 608.657 501.781 608.434C501.689 608.204 501.544 608.024 501.344 607.894C501.153 607.764 500.904 607.698 500.597 607.698ZM506.13 613H504.75V604.26H506.13V613Z" fill="#535353" id="n513"/>
</g>
<g clip-path="url(#clip136_68_6728)" id="n514">
<path d="M519.326 610.102C519.326 610.685 519.207 611.206 518.969 611.666C518.739 612.118 518.386 612.475 517.911 612.735C517.443 612.988 516.857 613.115 516.152 613.115C515.14 613.115 514.369 612.843 513.84 612.298C513.311 611.746 513.047 611.007 513.047 610.079V604.789H513.967V610.102C513.967 610.807 514.154 611.352 514.53 611.735C514.906 612.118 515.462 612.31 516.198 612.31C516.704 612.31 517.118 612.218 517.44 612.034C517.769 611.85 518.011 611.597 518.164 611.275C518.325 610.945 518.406 610.558 518.406 610.113V604.789H519.326V610.102ZM524.254 606.732C524.974 606.732 525.523 606.913 525.898 607.273C526.274 607.626 526.462 608.197 526.462 608.986V613H525.565V609.055C525.565 608.526 525.446 608.135 525.208 607.882C524.971 607.629 524.61 607.503 524.127 607.503C523.445 607.503 522.962 607.695 522.678 608.078C522.395 608.461 522.253 609.021 522.253 609.757V613H521.356V606.847H522.08L522.218 607.756H522.264C522.402 607.534 522.571 607.35 522.77 607.204C522.97 607.051 523.196 606.936 523.449 606.859C523.702 606.775 523.97 606.732 524.254 606.732ZM529.283 606.847V613H528.386V606.847H529.283ZM528.846 604.547C528.999 604.547 529.126 604.597 529.225 604.697C529.333 604.797 529.386 604.95 529.386 605.157C529.386 605.349 529.333 605.498 529.225 605.605C529.126 605.705 528.999 605.755 528.846 605.755C528.685 605.755 528.551 605.705 528.443 605.605C528.344 605.498 528.294 605.349 528.294 605.157C528.294 604.95 528.344 604.797 528.443 604.697C528.551 604.597 528.685 604.547 528.846 604.547ZM533.216 612.367C533.377 612.367 533.534 612.356 533.687 612.333C533.848 612.302 533.983 612.272 534.09 612.241V612.931C533.975 612.985 533.822 613.027 533.63 613.058C533.446 613.096 533.258 613.115 533.066 613.115C532.744 613.115 532.453 613.058 532.192 612.942C531.932 612.827 531.721 612.636 531.56 612.367C531.407 612.091 531.33 611.712 531.33 611.229V607.56H530.444V607.112L531.341 606.767L531.686 605.421H532.238V606.847H534.044V607.56H532.238V611.206C532.238 611.597 532.323 611.888 532.491 612.08C532.668 612.272 532.909 612.367 533.216 612.367Z" fill="#535353" id="n515"/>
</g>
</g>
</svg>
