<?xml version='1.0' encoding='utf-8'?>
<svg xmlns="http://www.w3.org/2000/svg" xmlns:xlink="http://www.w3.org/1999/xlink" width="74.0" height="48.0" viewBox="0 0 74.0 48.0" fill="none">
  <defs><clipPath id="clip__asset"><rect x="0" y="0" width="74.0" height="48.0"/></clipPath><clipPath id="clip167_68_6728">
<rect width="37" height="24" fill="white" transform="translate(895 417)" id="n1519"/>
</clipPath>
<clipPath id="clip168_68_6728">
<rect width="31" height="16" fill="white" transform="translate(874 441)" id="n1520"/>
</clipPath>
<clipPath id="clip169_68_6728">
<rect width="23" height="16" fill="white" transform="translate(909 441)" id="n1521"/>
</clipPath>
</defs>
  <g clip-path="url(#clip__asset)" transform="translate(-866.0 -413.0)"><g clip-path="url(#clip167_68_6728)" id="n584">
<path d="M903.7 437H901.06V427.012C901.06 426.675 901.06 426.345 901.06 426.022C901.075 425.685 901.09 425.355 901.104 425.032C901.119 424.695 901.134 424.379 901.148 424.086C901.002 424.247 900.818 424.431 900.598 424.636C900.378 424.827 900.151 425.025 899.916 425.23L898.156 426.638L896.836 424.966L901.522 421.292H903.7V437ZM918.98 437H908.288V435.02L912.314 430.95C913.106 430.143 913.752 429.454 914.25 428.882C914.764 428.295 915.145 427.745 915.394 427.232C915.644 426.719 915.768 426.154 915.768 425.538C915.768 424.805 915.556 424.255 915.13 423.888C914.705 423.507 914.148 423.316 913.458 423.316C912.769 423.316 912.138 423.455 911.566 423.734C910.994 423.998 910.4 424.372 909.784 424.856L908.354 423.118C908.78 422.751 909.242 422.414 909.74 422.106C910.239 421.798 910.796 421.549 911.412 421.358C912.043 421.167 912.762 421.072 913.568 421.072C914.58 421.072 915.446 421.255 916.164 421.622C916.898 421.974 917.462 422.465 917.858 423.096C918.254 423.727 918.452 424.46 918.452 425.296C918.452 425.927 918.35 426.521 918.144 427.078C917.954 427.635 917.675 428.178 917.308 428.706C916.956 429.219 916.516 429.755 915.988 430.312C915.46 430.855 914.874 431.434 914.228 432.05L911.61 434.58V434.69H918.98V437ZM930.454 424.878C930.454 425.597 930.315 426.22 930.036 426.748C929.757 427.261 929.369 427.687 928.87 428.024C928.371 428.347 927.792 428.581 927.132 428.728V428.794C928.393 428.941 929.339 429.329 929.97 429.96C930.615 430.591 930.938 431.427 930.938 432.468C930.938 433.377 930.718 434.191 930.278 434.91C929.838 435.629 929.163 436.193 928.254 436.604C927.345 437.015 926.179 437.22 924.756 437.22C923.905 437.22 923.113 437.147 922.38 437C921.661 436.868 920.972 436.655 920.312 436.362V434.03C920.987 434.353 921.698 434.609 922.446 434.8C923.194 434.976 923.905 435.064 924.58 435.064C925.871 435.064 926.787 434.829 927.33 434.36C927.873 433.876 928.144 433.209 928.144 432.358C928.144 431.815 928.005 431.368 927.726 431.016C927.447 430.664 927.007 430.407 926.406 430.246C925.805 430.07 925.027 429.982 924.074 429.982H922.732V427.848H924.096C925.02 427.848 925.746 427.745 926.274 427.54C926.817 427.32 927.205 427.019 927.44 426.638C927.689 426.257 927.814 425.817 927.814 425.318C927.814 424.673 927.601 424.167 927.176 423.8C926.751 423.433 926.12 423.25 925.284 423.25C924.756 423.25 924.272 423.309 923.832 423.426C923.407 423.543 923.011 423.697 922.644 423.888C922.292 424.079 921.955 424.277 921.632 424.482L920.378 422.656C920.774 422.363 921.221 422.099 921.72 421.864C922.219 421.615 922.769 421.424 923.37 421.292C923.986 421.145 924.661 421.072 925.394 421.072C927.022 421.072 928.269 421.417 929.134 422.106C930.014 422.795 930.454 423.719 930.454 424.878Z" fill="#2D548B" id="n585"/>
</g>
<g clip-path="url(#clip168_68_6728)" id="n586">
<path d="M875.07 453V444.789H876.473V451.804H879.934V453H875.07ZM883.67 446.664C884.475 446.664 885.081 446.836 885.487 447.181C885.894 447.526 886.097 448.07 886.097 448.814V453H885.119L884.843 452.137H884.797C884.621 452.36 884.437 452.548 884.245 452.701C884.061 452.847 883.847 452.95 883.601 453.012C883.364 453.081 883.072 453.115 882.727 453.115C882.359 453.115 882.026 453.046 881.727 452.908C881.435 452.77 881.205 452.559 881.037 452.275C880.868 451.992 880.784 451.635 880.784 451.206C880.784 450.562 881.021 450.079 881.497 449.757C881.972 449.427 882.693 449.247 883.659 449.216L884.728 449.182V448.86C884.728 448.446 884.629 448.151 884.429 447.974C884.238 447.798 883.965 447.71 883.613 447.71C883.298 447.71 882.996 447.756 882.704 447.848C882.413 447.94 882.129 448.051 881.853 448.181L881.416 447.204C881.715 447.043 882.06 446.913 882.451 446.813C882.842 446.713 883.249 446.664 883.67 446.664ZM883.946 450.067C883.287 450.09 882.831 450.202 882.578 450.401C882.325 450.6 882.198 450.872 882.198 451.217C882.198 451.516 882.29 451.735 882.474 451.873C882.658 452.003 882.892 452.068 883.176 452.068C883.613 452.068 883.981 451.946 884.28 451.7C884.579 451.447 884.728 451.072 884.728 450.573V450.045L883.946 450.067ZM889.305 446.341C889.305 446.587 889.297 446.824 889.282 447.054C889.274 447.284 889.263 447.465 889.248 447.595H889.305C889.481 447.334 889.715 447.116 890.007 446.939C890.306 446.755 890.689 446.664 891.157 446.664C891.885 446.664 892.475 446.936 892.928 447.48C893.38 448.017 893.606 448.818 893.606 449.883C893.606 450.589 893.503 451.183 893.296 451.666C893.089 452.149 892.797 452.513 892.422 452.758C892.054 452.996 891.62 453.115 891.122 453.115C890.654 453.115 890.279 453.031 889.995 452.862C889.711 452.693 889.481 452.494 889.305 452.264H889.213L888.96 453H887.925V444.26H889.305V446.341ZM890.777 447.779C890.417 447.779 890.129 447.852 889.915 447.997C889.7 448.143 889.547 448.362 889.455 448.653C889.363 448.944 889.313 449.316 889.305 449.768V449.883C889.305 450.558 889.412 451.079 889.627 451.447C889.842 451.808 890.233 451.988 890.8 451.988C891.252 451.988 891.597 451.808 891.835 451.447C892.073 451.079 892.192 450.55 892.192 449.86C892.192 449.17 892.069 448.653 891.824 448.308C891.586 447.955 891.237 447.779 890.777 447.779ZM897.597 446.664C898.149 446.664 898.624 446.778 899.023 447.008C899.429 447.231 899.74 447.553 899.954 447.974C900.169 448.388 900.276 448.891 900.276 449.481V450.205H896.148C896.163 450.788 896.324 451.24 896.631 451.562C896.938 451.877 897.363 452.034 897.907 452.034C898.306 452.034 898.663 451.996 898.977 451.919C899.299 451.842 899.629 451.727 899.966 451.574V452.689C899.652 452.835 899.33 452.942 899 453.012C898.678 453.081 898.291 453.115 897.838 453.115C897.233 453.115 896.696 453 896.228 452.77C895.761 452.532 895.397 452.176 895.136 451.7C894.875 451.225 894.745 450.635 894.745 449.929C894.745 449.224 894.864 448.63 895.101 448.147C895.339 447.664 895.673 447.296 896.102 447.043C896.531 446.79 897.03 446.664 897.597 446.664ZM897.597 447.698C897.191 447.698 896.865 447.829 896.619 448.089C896.374 448.342 896.228 448.722 896.182 449.228H898.931C898.931 448.921 898.881 448.657 898.781 448.434C898.689 448.204 898.544 448.024 898.344 447.894C898.153 447.764 897.904 447.698 897.597 447.698ZM903.13 453H901.75V444.26H903.13V453Z" fill="#535353" id="n587"/>
</g>
<g clip-path="url(#clip169_68_6728)" id="n588">
<path d="M916.326 450.102C916.326 450.685 916.207 451.206 915.969 451.666C915.739 452.118 915.386 452.475 914.911 452.735C914.443 452.988 913.857 453.115 913.152 453.115C912.14 453.115 911.369 452.843 910.84 452.298C910.311 451.746 910.047 451.007 910.047 450.079V444.789H910.967V450.102C910.967 450.807 911.154 451.352 911.53 451.735C911.906 452.118 912.462 452.31 913.198 452.31C913.704 452.31 914.118 452.218 914.44 452.034C914.769 451.85 915.011 451.597 915.164 451.275C915.325 450.945 915.406 450.558 915.406 450.113V444.789H916.326V450.102ZM921.254 446.732C921.974 446.732 922.523 446.913 922.898 447.273C923.274 447.626 923.462 448.197 923.462 448.986V453H922.565V449.055C922.565 448.526 922.446 448.135 922.208 447.882C921.971 447.629 921.61 447.503 921.127 447.503C920.445 447.503 919.962 447.695 919.678 448.078C919.395 448.461 919.253 449.021 919.253 449.757V453H918.356V446.847H919.08L919.218 447.756H919.264C919.402 447.534 919.571 447.35 919.77 447.204C919.97 447.051 920.196 446.936 920.449 446.859C920.702 446.775 920.97 446.732 921.254 446.732ZM926.283 446.847V453H925.386V446.847H926.283ZM925.846 444.547C925.999 444.547 926.126 444.597 926.225 444.697C926.333 444.797 926.386 444.95 926.386 445.157C926.386 445.349 926.333 445.498 926.225 445.605C926.126 445.705 925.999 445.755 925.846 445.755C925.685 445.755 925.551 445.705 925.443 445.605C925.344 445.498 925.294 445.349 925.294 445.157C925.294 444.95 925.344 444.797 925.443 444.697C925.551 444.597 925.685 444.547 925.846 444.547ZM930.216 452.367C930.377 452.367 930.534 452.356 930.687 452.333C930.848 452.302 930.983 452.272 931.09 452.241V452.931C930.975 452.985 930.822 453.027 930.63 453.058C930.446 453.096 930.258 453.115 930.066 453.115C929.744 453.115 929.453 453.058 929.192 452.942C928.932 452.827 928.721 452.636 928.56 452.367C928.407 452.091 928.33 451.712 928.33 451.229V447.56H927.444V447.112L928.341 446.767L928.686 445.421H929.238V446.847H931.044V447.56H929.238V451.206C929.238 451.597 929.323 451.888 929.491 452.08C929.668 452.272 929.909 452.367 930.216 452.367Z" fill="#535353" id="n589"/>
</g>
</g>
</svg>
