<?xml version='1.0' encoding='utf-8'?>
<svg xmlns="http://www.w3.org/2000/svg" xmlns:xlink="http://www.w3.org/1999/xlink" width="74.0" height="48.0" viewBox="0 0 74.0 48.0" fill="none">
  <defs><clipPath id="clip__asset"><rect x="0" y="0" width="74.0" height="48.0"/></clipPath><clipPath id="clip185_68_6728">
<rect width="28" height="20" fill="white" transform="translate(287 419)" id="n1537"/>
</clipPath>
<clipPath id="clip186_68_6728">
<rect width="31" height="16" fill="white" transform="translate(257 439)" id="n1538"/>
</clipPath>
<clipPath id="clip187_68_6728">
<rect width="23" height="16" fill="white" transform="translate(292 439)" id="n1539"/>
</clipPath>
</defs>
  <g clip-path="url(#clip__asset)" transform="translate(-249.0 -413.0)"><g clip-path="url(#clip185_68_6728)" id="n624">
<path d="M293.691 435H291.771V427.736C291.771 427.491 291.771 427.251 291.771 427.016C291.782 426.771 291.793 426.531 291.803 426.296C291.814 426.051 291.825 425.821 291.835 425.608C291.729 425.725 291.595 425.859 291.435 426.008C291.275 426.147 291.11 426.291 290.939 426.44L289.659 427.464L288.699 426.248L292.107 423.576H293.691V435ZM305.168 435H297.392V433.56L300.32 430.6C300.896 430.013 301.365 429.512 301.728 429.096C302.101 428.669 302.378 428.269 302.56 427.896C302.741 427.523 302.832 427.112 302.832 426.664C302.832 426.131 302.677 425.731 302.368 425.464C302.058 425.187 301.653 425.048 301.152 425.048C300.65 425.048 300.192 425.149 299.776 425.352C299.36 425.544 298.928 425.816 298.48 426.168L297.44 424.904C297.749 424.637 298.085 424.392 298.448 424.168C298.81 423.944 299.216 423.763 299.664 423.624C300.122 423.485 300.645 423.416 301.232 423.416C301.968 423.416 302.597 423.549 303.12 423.816C303.653 424.072 304.064 424.429 304.352 424.888C304.64 425.347 304.784 425.88 304.784 426.488C304.784 426.947 304.709 427.379 304.56 427.784C304.421 428.189 304.218 428.584 303.952 428.968C303.696 429.341 303.376 429.731 302.992 430.136C302.608 430.531 302.181 430.952 301.712 431.4L299.808 433.24V433.32H305.168V435ZM313.876 426.184C313.876 426.707 313.774 427.16 313.572 427.544C313.369 427.917 313.086 428.227 312.724 428.472C312.361 428.707 311.94 428.877 311.46 428.984V429.032C312.377 429.139 313.065 429.421 313.524 429.88C313.993 430.339 314.228 430.947 314.228 431.704C314.228 432.365 314.068 432.957 313.748 433.48C313.428 434.003 312.937 434.413 312.276 434.712C311.614 435.011 310.766 435.16 309.732 435.16C309.113 435.16 308.537 435.107 308.004 435C307.481 434.904 306.98 434.749 306.5 434.536V432.84C306.99 433.075 307.508 433.261 308.052 433.4C308.596 433.528 309.113 433.592 309.604 433.592C310.542 433.592 311.209 433.421 311.604 433.08C311.998 432.728 312.196 432.243 312.196 431.624C312.196 431.229 312.094 430.904 311.892 430.648C311.689 430.392 311.369 430.205 310.932 430.088C310.494 429.96 309.929 429.896 309.236 429.896H308.26V428.344H309.252C309.924 428.344 310.452 428.269 310.836 428.12C311.23 427.96 311.513 427.741 311.684 427.464C311.865 427.187 311.956 426.867 311.956 426.504C311.956 426.035 311.801 425.667 311.492 425.4C311.182 425.133 310.724 425 310.116 425C309.732 425 309.38 425.043 309.06 425.128C308.75 425.213 308.462 425.325 308.196 425.464C307.94 425.603 307.694 425.747 307.46 425.896L306.548 424.568C306.836 424.355 307.161 424.163 307.524 423.992C307.886 423.811 308.286 423.672 308.724 423.576C309.172 423.469 309.662 423.416 310.196 423.416C311.38 423.416 312.286 423.667 312.916 424.168C313.556 424.669 313.876 425.341 313.876 426.184Z" fill="#2D548B" id="n625"/>
</g>
<g clip-path="url(#clip186_68_6728)" id="n626">
<path d="M258.07 451V442.789H259.473V449.804H262.934V451H258.07ZM266.67 444.664C267.475 444.664 268.081 444.836 268.487 445.181C268.894 445.526 269.097 446.07 269.097 446.814V451H268.119L267.843 450.137H267.797C267.621 450.36 267.437 450.548 267.245 450.701C267.061 450.847 266.847 450.95 266.601 451.012C266.364 451.081 266.072 451.115 265.727 451.115C265.359 451.115 265.026 451.046 264.727 450.908C264.435 450.77 264.205 450.559 264.037 450.275C263.868 449.992 263.784 449.635 263.784 449.206C263.784 448.562 264.021 448.079 264.497 447.757C264.972 447.427 265.693 447.247 266.659 447.216L267.728 447.182V446.86C267.728 446.446 267.629 446.151 267.429 445.974C267.238 445.798 266.965 445.71 266.613 445.71C266.298 445.71 265.996 445.756 265.704 445.848C265.413 445.94 265.129 446.051 264.853 446.181L264.416 445.204C264.715 445.043 265.06 444.913 265.451 444.813C265.842 444.713 266.249 444.664 266.67 444.664ZM266.946 448.067C266.287 448.09 265.831 448.202 265.578 448.401C265.325 448.6 265.198 448.872 265.198 449.217C265.198 449.516 265.29 449.735 265.474 449.873C265.658 450.003 265.892 450.068 266.176 450.068C266.613 450.068 266.981 449.946 267.28 449.7C267.579 449.447 267.728 449.072 267.728 448.573V448.045L266.946 448.067ZM272.305 444.341C272.305 444.587 272.297 444.824 272.282 445.054C272.274 445.284 272.263 445.465 272.248 445.595H272.305C272.481 445.334 272.715 445.116 273.007 444.939C273.306 444.755 273.689 444.664 274.157 444.664C274.885 444.664 275.475 444.936 275.928 445.48C276.38 446.017 276.606 446.818 276.606 447.883C276.606 448.589 276.503 449.183 276.296 449.666C276.089 450.149 275.797 450.513 275.422 450.758C275.054 450.996 274.62 451.115 274.122 451.115C273.654 451.115 273.279 451.031 272.995 450.862C272.711 450.693 272.481 450.494 272.305 450.264H272.213L271.96 451H270.925V442.26H272.305V444.341ZM273.777 445.779C273.417 445.779 273.129 445.852 272.915 445.997C272.7 446.143 272.547 446.362 272.455 446.653C272.363 446.944 272.313 447.316 272.305 447.768V447.883C272.305 448.558 272.412 449.079 272.627 449.447C272.842 449.808 273.233 449.988 273.8 449.988C274.252 449.988 274.597 449.808 274.835 449.447C275.073 449.079 275.192 448.55 275.192 447.86C275.192 447.17 275.069 446.653 274.824 446.308C274.586 445.955 274.237 445.779 273.777 445.779ZM280.597 444.664C281.149 444.664 281.624 444.778 282.023 445.008C282.429 445.231 282.74 445.553 282.954 445.974C283.169 446.388 283.276 446.891 283.276 447.481V448.205H279.148C279.163 448.788 279.324 449.24 279.631 449.562C279.938 449.877 280.363 450.034 280.907 450.034C281.306 450.034 281.663 449.996 281.977 449.919C282.299 449.842 282.629 449.727 282.966 449.574V450.689C282.652 450.835 282.33 450.942 282 451.012C281.678 451.081 281.291 451.115 280.838 451.115C280.233 451.115 279.696 451 279.228 450.77C278.761 450.532 278.397 450.176 278.136 449.7C277.875 449.225 277.745 448.635 277.745 447.929C277.745 447.224 277.864 446.63 278.101 446.147C278.339 445.664 278.673 445.296 279.102 445.043C279.531 444.79 280.03 444.664 280.597 444.664ZM280.597 445.698C280.191 445.698 279.865 445.829 279.619 446.089C279.374 446.342 279.228 446.722 279.182 447.228H281.931C281.931 446.921 281.881 446.657 281.781 446.434C281.689 446.204 281.544 446.024 281.344 445.894C281.153 445.764 280.904 445.698 280.597 445.698ZM286.13 451H284.75V442.26H286.13V451Z" fill="#535353" id="n627"/>
</g>
<g clip-path="url(#clip187_68_6728)" id="n628">
<path d="M299.326 448.102C299.326 448.685 299.207 449.206 298.969 449.666C298.739 450.118 298.386 450.475 297.911 450.735C297.443 450.988 296.857 451.115 296.152 451.115C295.14 451.115 294.369 450.843 293.84 450.298C293.311 449.746 293.047 449.007 293.047 448.079V442.789H293.967V448.102C293.967 448.807 294.154 449.352 294.53 449.735C294.906 450.118 295.462 450.31 296.198 450.31C296.704 450.31 297.118 450.218 297.44 450.034C297.769 449.85 298.011 449.597 298.164 449.275C298.325 448.945 298.406 448.558 298.406 448.113V442.789H299.326V448.102ZM304.254 444.732C304.974 444.732 305.523 444.913 305.898 445.273C306.274 445.626 306.462 446.197 306.462 446.986V451H305.565V447.055C305.565 446.526 305.446 446.135 305.208 445.882C304.971 445.629 304.61 445.503 304.127 445.503C303.445 445.503 302.962 445.695 302.678 446.078C302.395 446.461 302.253 447.021 302.253 447.757V451H301.356V444.847H302.08L302.218 445.756H302.264C302.402 445.534 302.571 445.35 302.77 445.204C302.97 445.051 303.196 444.936 303.449 444.859C303.702 444.775 303.97 444.732 304.254 444.732ZM309.283 444.847V451H308.386V444.847H309.283ZM308.846 442.547C308.999 442.547 309.126 442.597 309.225 442.697C309.333 442.797 309.386 442.95 309.386 443.157C309.386 443.349 309.333 443.498 309.225 443.605C309.126 443.705 308.999 443.755 308.846 443.755C308.685 443.755 308.551 443.705 308.443 443.605C308.344 443.498 308.294 443.349 308.294 443.157C308.294 442.95 308.344 442.797 308.443 442.697C308.551 442.597 308.685 442.547 308.846 442.547ZM313.216 450.367C313.377 450.367 313.534 450.356 313.687 450.333C313.848 450.302 313.983 450.272 314.09 450.241V450.931C313.975 450.985 313.822 451.027 313.63 451.058C313.446 451.096 313.258 451.115 313.066 451.115C312.744 451.115 312.453 451.058 312.192 450.942C311.932 450.827 311.721 450.636 311.56 450.367C311.407 450.091 311.33 449.712 311.33 449.229V445.56H310.444V445.112L311.341 444.767L311.686 443.421H312.238V444.847H314.044V445.56H312.238V449.206C312.238 449.597 312.323 449.888 312.491 450.08C312.668 450.272 312.909 450.367 313.216 450.367Z" fill="#535353" id="n629"/>
</g>
</g>
</svg>
