<?xml version='1.0' encoding='utf-8'?>
<svg xmlns="http://www.w3.org/2000/svg" xmlns:xlink="http://www.w3.org/1999/xlink" width="160.0" height="160.0" viewBox="0 0 160.0 160.0" fill="none">
  <defs><clipPath id="clip__asset"><rect x="0" y="0" width="160.0" height="160.0"/></clipPath><mask id="path-146-inside-3_68_6728" fill="white">
<path d="M368 306.641C368 321.534 355.926 333.608 341.032 333.608L227.745 333.608L227.745 306.641L368 306.641Z" id="n232"/>
</mask>
</defs>
  <g clip-path="url(#clip__asset)" transform="translate(-216.0 -240.0)"><path d="M368 306.641C368 321.534 355.926 333.608 341.032 333.608L227.745 333.608L227.745 306.641L368 306.641Z" fill="white" id="n233"/>
<path d="M368 306.641L369 306.641L369 305.641L368 305.641L368 306.641ZM341.032 333.608L341.032 334.608L341.032 334.608L341.032 333.608ZM227.745 333.608L226.745 333.608L226.745 334.608L227.745 334.608L227.745 333.608ZM227.745 306.641L227.745 305.641L226.745 305.641L226.745 306.641L227.745 306.641ZM368 306.641L367 306.641C367 320.982 355.374 332.608 341.032 332.608L341.032 333.608L341.032 334.608C356.478 334.608 369 322.087 369 306.641L368 306.641ZM341.032 333.608L341.032 332.608L227.745 332.608L227.745 333.608L227.745 334.608L341.032 334.608L341.032 333.608ZM227.745 333.608L228.745 333.608L228.745 306.641L227.745 306.641L226.745 306.641L226.745 333.608L227.745 333.608ZM227.745 306.641L227.745 307.641L368 307.641L368 306.641L368 305.641L227.745 305.641L227.745 306.641Z" fill="#8E8E8E" mask="url(#path-146-inside-3_68_6728)" id="n234"/>
</g>
</svg>
