<?xml version='1.0' encoding='utf-8'?>
<svg xmlns="http://www.w3.org/2000/svg" xmlns:xlink="http://www.w3.org/1999/xlink" width="320.0" height="316.0" viewBox="0 0 320.0 316.0" fill="none">
  <defs><clipPath id="clip__asset"><rect x="0" y="0" width="320.0" height="316.0"/></clipPath><mask id="path-304-inside-25_1702_11540" fill="white">
<path d="M11435 890.6C11435 887.24 11435 885.56 11435.7 884.276C11436.2 883.147 11437.1 882.229 11438.3 881.654C11439.6 881 11441.2 881 11444.6 881H11713.4C11716.8 881 11718.4 881 11719.7 881.654C11720.9 882.229 11721.8 883.147 11722.3 884.276C11723 885.56 11723 887.24 11723 890.6V903.4C11723 906.76 11723 908.44 11722.3 909.724C11721.8 910.853 11720.9 911.771 11719.7 912.346C11718.4 913 11716.8 913 11713.4 913H11444.6C11441.2 913 11439.6 913 11438.3 912.346C11437.1 911.771 11436.2 910.853 11435.7 909.724C11435 908.44 11435 906.76 11435 903.4V890.6Z" id="n370"/>
</mask>
<mask id="path-307-inside-26_1702_11540" fill="white">
<path d="M11435 938.6C11435 935.24 11435 933.56 11435.7 932.276C11436.2 931.147 11437.1 930.229 11438.3 929.654C11439.6 929 11441.2 929 11444.6 929H11713.4C11716.8 929 11718.4 929 11719.7 929.654C11720.9 930.229 11721.8 931.147 11722.3 932.276C11723 933.56 11723 935.24 11723 938.6V951.4C11723 954.76 11723 956.44 11722.3 957.724C11721.8 958.853 11720.9 959.771 11719.7 960.346C11718.4 961 11716.8 961 11713.4 961H11444.6C11441.2 961 11439.6 961 11438.3 960.346C11437.1 959.771 11436.2 958.853 11435.7 957.724C11435 956.44 11435 954.76 11435 951.4V938.6Z" id="n374"/>
</mask>
<mask id="path-313-inside-27_1702_11540" fill="white">
<path d="M11435 986.6C11435 983.24 11435 981.56 11435.7 980.276C11436.2 979.147 11437.1 978.229 11438.3 977.654C11439.6 977 11441.2 977 11444.6 977H11713.4C11716.8 977 11718.4 977 11719.7 977.654C11720.9 978.229 11721.8 979.147 11722.3 980.276C11723 981.56 11723 983.24 11723 986.6V999.4C11723 1002.76 11723 1004.44 11722.3 1005.72C11721.8 1006.85 11720.9 1007.77 11719.7 1008.35C11718.4 1009 11716.8 1009 11713.4 1009H11444.6C11441.2 1009 11439.6 1009 11438.3 1008.35C11437.1 1007.77 11436.2 1006.85 11435.7 1005.72C11435 1004.44 11435 1002.76 11435 999.4V986.6Z" id="n379"/>
</mask>
<mask id="path-316-inside-28_1702_11540" fill="white">
<path d="M11419 1025H11739V1133H11419V1025Z" id="n383"/>
</mask>
<filter id="filter11_d_1702_11540" x="11403" y="805" width="352" height="348" filterUnits="userSpaceOnUse" color-interpolation-filters="sRGB">
<feFlood flood-opacity="0" result="BackgroundImageFix" id="n3184"/>
<feColorMatrix in="SourceAlpha" type="matrix" values="0 0 0 0 0 0 0 0 0 0 0 0 0 0 0 0 0 0 127 0" result="hardAlpha" id="n3185"/>
<feOffset dy="4" id="n3186"/>
<feGaussianBlur stdDeviation="8" id="n3187"/>
<feComposite in2="hardAlpha" operator="out" id="n3188"/>
<feColorMatrix type="matrix" values="0 0 0 0 0 0 0 0 0 0 0 0 0 0 0 0 0 0 0.32 0" id="n3189"/>
<feBlend mode="normal" in2="BackgroundImageFix" result="effect1_dropShadow_1702_11540" id="n3190"/>
<feBlend mode="normal" in="SourceGraphic" in2="effect1_dropShadow_1702_11540" result="shape" id="n3191"/>
</filter>
<clipPath id="clip11_1702_11540">
<path d="M11419 829C11419 822.373 11424.4 817 11431 817H11727C11733.6 817 11739 822.373 11739 829V1121C11739 1127.63 11733.6 1133 11727 1133H11431C11424.4 1133 11419 1127.63 11419 1121V829Z" fill="white" id="n3446"/>
</clipPath>
</defs>
  <g clip-path="url(#clip__asset)" transform="translate(-11419.0 -817.0)"><g filter="url(#filter11_d_1702_11540)" id="n366">
<g clip-path="url(#clip11_1702_11540)" id="n367">
<path d="M11419 829C11419 822.373 11424.4 817 11431 817H11727C11733.6 817 11739 822.373 11739 829V1121C11739 1127.63 11733.6 1133 11727 1133H11431C11424.4 1133 11419 1127.63 11419 1121V829Z" fill="#FCFCFC" id="n368"/>
<path d="M11451.1 847.88C11451.1 848.563 11450.9 849.149 11450.6 849.64C11450.3 850.12 11449.8 850.493 11449.2 850.76C11448.6 851.027 11447.8 851.16 11447 851.16C11446.6 851.16 11446.2 851.133 11445.8 851.08C11445.4 851.037 11445 850.973 11444.7 850.888C11444.4 850.792 11444.1 850.675 11443.8 850.536V848.696C11444.2 848.909 11444.8 849.101 11445.3 849.272C11445.9 849.432 11446.5 849.512 11447.1 849.512C11447.6 849.512 11448 849.453 11448.3 849.336C11448.6 849.208 11448.8 849.032 11449 848.808C11449.1 848.573 11449.2 848.307 11449.2 848.008C11449.2 847.677 11449.1 847.4 11448.9 847.176C11448.7 846.941 11448.5 846.728 11448.1 846.536C11447.7 846.333 11447.3 846.125 11446.7 845.912C11446.4 845.752 11446 845.576 11445.7 845.384C11445.3 845.192 11445 844.968 11444.8 844.712C11444.5 844.445 11444.3 844.136 11444.1 843.784C11444 843.421 11443.9 842.995 11443.9 842.504C11443.9 841.853 11444.1 841.299 11444.4 840.84C11444.7 840.381 11445.1 840.029 11445.7 839.784C11446.3 839.539 11446.9 839.416 11447.7 839.416C11448.3 839.416 11448.9 839.48 11449.4 839.608C11449.9 839.736 11450.4 839.912 11451 840.136L11450.3 841.72C11449.9 841.528 11449.4 841.373 11449 841.256C11448.5 841.139 11448.1 841.08 11447.6 841.08C11447.2 841.08 11446.9 841.139 11446.6 841.256C11446.4 841.363 11446.2 841.523 11446 841.736C11445.9 841.949 11445.8 842.195 11445.8 842.472C11445.8 842.792 11445.9 843.064 11446.1 843.288C11446.2 843.501 11446.5 843.704 11446.8 843.896C11447.2 844.077 11447.6 844.285 11448.2 844.52C11448.8 844.787 11449.3 845.064 11449.8 845.352C11450.2 845.64 11450.5 845.987 11450.8 846.392C11451 846.787 11451.1 847.283 11451.1 847.88ZM11455.2 842.344V851H11453.2V842.344H11455.2ZM11454.2 839.016C11454.5 839.016 11454.8 839.096 11455 839.256C11455.2 839.405 11455.3 839.672 11455.3 840.056C11455.3 840.429 11455.2 840.696 11455 840.856C11454.8 841.016 11454.5 841.096 11454.2 841.096C11453.9 841.096 11453.7 841.016 11453.5 840.856C11453.2 840.696 11453.1 840.429 11453.1 840.056C11453.1 839.672 11453.2 839.405 11453.5 839.256C11453.7 839.096 11453.9 839.016 11454.2 839.016ZM11460.9 842.184C11461.4 842.184 11461.9 842.291 11462.3 842.504C11462.8 842.717 11463.2 843.037 11463.5 843.464H11463.5L11463.7 842.344H11465.3V851.08C11465.3 851.901 11465.2 852.589 11464.9 853.144C11464.6 853.699 11464.1 854.12 11463.5 854.408C11462.9 854.696 11462.1 854.84 11461.2 854.84C11460.6 854.84 11460 854.797 11459.5 854.712C11459 854.637 11458.5 854.504 11458 854.312V852.696C11458.3 852.845 11458.7 852.968 11459 853.064C11459.4 853.171 11459.7 853.245 11460.1 853.288C11460.5 853.341 11460.9 853.368 11461.3 853.368C11462 853.368 11462.5 853.176 11462.9 852.792C11463.2 852.419 11463.4 851.88 11463.4 851.176V850.936C11463.4 850.776 11463.4 850.589 11463.4 850.376C11463.4 850.163 11463.4 849.992 11463.5 849.864H11463.4C11463.1 850.312 11462.7 850.643 11462.3 850.856C11461.9 851.059 11461.4 851.16 11460.8 851.16C11459.8 851.16 11458.9 850.765 11458.3 849.976C11457.7 849.187 11457.4 848.088 11457.4 846.68C11457.4 845.741 11457.6 844.936 11457.8 844.264C11458.1 843.592 11458.5 843.08 11459 842.728C11459.5 842.365 11460.2 842.184 11460.9 842.184ZM11461.3 843.752C11460.9 843.752 11460.6 843.869 11460.3 844.104C11460 844.328 11459.8 844.659 11459.6 845.096C11459.5 845.533 11459.4 846.072 11459.4 846.712C11459.4 847.672 11459.6 848.397 11459.9 848.888C11460.2 849.379 11460.7 849.624 11461.4 849.624C11461.8 849.624 11462.1 849.581 11462.3 849.496C11462.6 849.4 11462.8 849.245 11463 849.032C11463.2 848.819 11463.3 848.547 11463.4 848.216C11463.4 847.875 11463.5 847.469 11463.5 847V846.696C11463.5 845.992 11463.4 845.427 11463.3 845C11463.1 844.573 11462.9 844.259 11462.6 844.056C11462.3 843.853 11461.8 843.752 11461.3 843.752ZM11472.6 842.184C11473.6 842.184 11474.4 842.435 11474.9 842.936C11475.5 843.437 11475.7 844.243 11475.7 845.352V851H11473.8V845.72C11473.8 845.059 11473.7 844.563 11473.4 844.232C11473.2 843.901 11472.7 843.736 11472.2 843.736C11471.3 843.736 11470.8 843.997 11470.4 844.52C11470.1 845.032 11470 845.768 11470 846.728V851H11468.1V842.344H11469.6L11469.8 843.48H11469.9C11470.1 843.181 11470.4 842.936 11470.6 842.744C11470.9 842.552 11471.2 842.413 11471.6 842.328C11471.9 842.232 11472.3 842.184 11472.6 842.184ZM11484.6 842.344V851H11482.7V842.344H11484.6ZM11483.7 839.016C11484 839.016 11484.2 839.096 11484.4 839.256C11484.7 839.405 11484.8 839.672 11484.8 840.056C11484.8 840.429 11484.7 840.696 11484.4 840.856C11484.2 841.016 11484 841.096 11483.7 841.096C11483.4 841.096 11483.1 841.016 11482.9 840.856C11482.7 840.696 11482.6 840.429 11482.6 840.056C11482.6 839.672 11482.7 839.405 11482.9 839.256C11483.1 839.096 11483.4 839.016 11483.7 839.016ZM11492 842.184C11492.9 842.184 11493.7 842.435 11494.2 842.936C11494.8 843.437 11495.1 844.243 11495.1 845.352V851H11493.2V845.72C11493.2 845.059 11493 844.563 11492.8 844.232C11492.5 843.901 11492.1 843.736 11491.5 843.736C11490.7 843.736 11490.1 843.997 11489.8 844.52C11489.5 845.032 11489.3 845.768 11489.3 846.728V851H11487.4V842.344H11488.9L11489.2 843.48H11489.3C11489.5 843.181 11489.7 842.936 11490 842.744C11490.3 842.552 11490.6 842.413 11490.9 842.328C11491.3 842.232 11491.6 842.184 11492 842.184Z" fill="#535353" id="n369"/>
<mask id="path-304-inside-25_1702_11540" fill="white">
<path d="M11435 890.6C11435 887.24 11435 885.56 11435.7 884.276C11436.2 883.147 11437.1 882.229 11438.3 881.654C11439.6 881 11441.2 881 11444.6 881H11713.4C11716.8 881 11718.4 881 11719.7 881.654C11720.9 882.229 11721.8 883.147 11722.3 884.276C11723 885.56 11723 887.24 11723 890.6V903.4C11723 906.76 11723 908.44 11722.3 909.724C11721.8 910.853 11720.9 911.771 11719.7 912.346C11718.4 913 11716.8 913 11713.4 913H11444.6C11441.2 913 11439.6 913 11438.3 912.346C11437.1 911.771 11436.2 910.853 11435.7 909.724C11435 908.44 11435 906.76 11435 903.4V890.6Z" id="n370"/>
</mask>
<path d="M11435 890.6C11435 887.24 11435 885.56 11435.7 884.276C11436.2 883.147 11437.1 882.229 11438.3 881.654C11439.6 881 11441.2 881 11444.6 881H11713.4C11716.8 881 11718.4 881 11719.7 881.654C11720.9 882.229 11721.8 883.147 11722.3 884.276C11723 885.56 11723 887.24 11723 890.6V903.4C11723 906.76 11723 908.44 11722.3 909.724C11721.8 910.853 11720.9 911.771 11719.7 912.346C11718.4 913 11716.8 913 11713.4 913H11444.6C11441.2 913 11439.6 913 11438.3 912.346C11437.1 911.771 11436.2 910.853 11435.7 909.724C11435 908.44 11435 906.76 11435 903.4V890.6Z" fill="white" id="n371"/>
<path d="M11438.3 912.346L11438.7 911.455L11438.3 912.346ZM11722.3 909.724L11721.5 909.27L11722.3 909.724ZM11719.7 912.346L11720.2 913.237L11719.7 912.346ZM11719.7 881.654L11719.3 882.545L11719.7 881.654ZM11722.3 884.276L11723.2 883.822L11722.3 884.276ZM11444.6 881V882H11713.4V881V880H11444.6V881ZM11723 890.6H11722V903.4H11723H11724V890.6H11723ZM11713.4 913V912H11444.6V913V914H11713.4V913ZM11435 903.4H11436V890.6H11435H11434V903.4H11435ZM11444.6 913V912C11442.9 912 11441.7 911.999 11440.7 911.922C11439.8 911.845 11439.2 911.698 11438.7 911.455L11438.3 912.346L11437.8 913.237C11438.6 913.648 11439.5 913.828 11440.6 913.915C11441.6 914.001 11442.9 914 11444.6 914V913ZM11435 903.4H11434C11434 905.064 11434 906.372 11434.1 907.422C11434.2 908.485 11434.4 909.372 11434.8 910.178L11435.7 909.724L11436.5 909.27C11436.3 908.793 11436.2 908.198 11436.1 907.259C11436 906.309 11436 905.097 11436 903.4H11435ZM11438.3 912.346L11438.7 911.455C11437.8 910.976 11437 910.211 11436.5 909.27L11435.7 909.724L11434.8 910.178C11435.4 911.495 11436.5 912.566 11437.8 913.237L11438.3 912.346ZM11723 903.4H11722C11722 905.097 11722 906.309 11721.9 907.259C11721.8 908.198 11721.7 908.793 11721.5 909.27L11722.3 909.724L11723.2 910.178C11723.6 909.372 11723.8 908.485 11723.9 907.422C11724 906.372 11724 905.064 11724 903.4H11723ZM11713.4 913V914C11715.1 914 11716.4 914.001 11717.4 913.915C11718.5 913.828 11719.4 913.648 11720.2 913.237L11719.7 912.346L11719.3 911.455C11718.8 911.698 11718.2 911.845 11717.3 911.922C11716.3 911.999 11715.1 912 11713.4 912V913ZM11722.3 909.724L11721.5 909.27C11721 910.211 11720.2 910.976 11719.3 911.455L11719.7 912.346L11720.2 913.237C11721.5 912.566 11722.6 911.495 11723.2 910.178L11722.3 909.724ZM11713.4 881V882C11715.1 882 11716.3 882.001 11717.3 882.078C11718.2 882.155 11718.8 882.302 11719.3 882.545L11719.7 881.654L11720.2 880.763C11719.4 880.352 11718.5 880.172 11717.4 880.085C11716.4 879.999 11715.1 880 11713.4 880V881ZM11723 890.6H11724C11724 888.936 11724 887.628 11723.9 886.578C11723.8 885.515 11723.6 884.628 11723.2 883.822L11722.3 884.276L11721.5 884.73C11721.7 885.207 11721.8 885.802 11721.9 886.741C11722 887.691 11722 888.903 11722 890.6H11723ZM11719.7 881.654L11719.3 882.545C11720.2 883.024 11721 883.789 11721.5 884.73L11722.3 884.276L11723.2 883.822C11722.6 882.505 11721.5 881.434 11720.2 880.763L11719.7 881.654ZM11444.6 881V880C11442.9 880 11441.6 879.999 11440.6 880.085C11439.5 880.172 11438.6 880.352 11437.8 880.763L11438.3 881.654L11438.7 882.545C11439.2 882.302 11439.8 882.155 11440.7 882.078C11441.7 882.001 11442.9 882 11444.6 882V881ZM11435 890.6H11436C11436 888.903 11436 887.691 11436.1 886.741C11436.2 885.802 11436.3 885.207 11436.5 884.73L11435.7 884.276L11434.8 883.822C11434.4 884.628 11434.2 885.515 11434.1 886.578C11434 887.628 11434 888.936 11434 890.6H11435ZM11438.3 881.654L11437.8 880.763C11436.5 881.434 11435.4 882.505 11434.8 883.822L11435.7 884.276L11436.5 884.73C11437 883.789 11437.8 883.024 11438.7 882.545L11438.3 881.654Z" fill="#BEBEBE" mask="url(#path-304-inside-25_1702_11540)" id="n372"/>
<path d="M11461.2 898.968C11461.2 899.779 11461 900.504 11460.7 901.144C11460.4 901.773 11459.9 902.269 11459.2 902.632C11458.6 902.984 11457.8 903.16 11456.8 903.16C11455.4 903.16 11454.3 902.781 11453.6 902.024C11452.8 901.256 11452.5 900.227 11452.5 898.936V891.576H11453.7V898.968C11453.7 899.949 11454 900.707 11454.5 901.24C11455 901.773 11455.8 902.04 11456.8 902.04C11457.5 902.04 11458.1 901.912 11458.6 901.656C11459 901.4 11459.4 901.048 11459.6 900.6C11459.8 900.141 11459.9 899.603 11459.9 898.984V891.576H11461.2V898.968ZM11469.5 900.664C11469.5 901.208 11469.4 901.667 11469.1 902.04C11468.9 902.403 11468.5 902.68 11468 902.872C11467.5 903.064 11466.8 903.16 11466.1 903.16C11465.5 903.16 11465 903.112 11464.6 903.016C11464.2 902.92 11463.8 902.787 11463.4 902.616V901.464C11463.8 901.635 11464.2 901.789 11464.7 901.928C11465.2 902.067 11465.7 902.136 11466.2 902.136C11466.9 902.136 11467.5 902.013 11467.8 901.768C11468.1 901.523 11468.3 901.192 11468.3 900.776C11468.3 900.531 11468.2 900.317 11468.1 900.136C11468 899.955 11467.7 899.779 11467.4 899.608C11467.1 899.437 11466.7 899.251 11466.1 899.048C11465.6 898.845 11465.1 898.643 11464.7 898.44C11464.3 898.237 11464 897.987 11463.8 897.688C11463.6 897.389 11463.5 897.005 11463.5 896.536C11463.5 895.811 11463.8 895.256 11464.3 894.872C11464.9 894.477 11465.7 894.28 11466.6 894.28C11467.2 894.28 11467.6 894.333 11468.1 894.44C11468.5 894.536 11469 894.669 11469.3 894.84L11468.9 895.864C11468.7 895.757 11468.4 895.667 11468.2 895.592C11467.9 895.507 11467.7 895.443 11467.4 895.4C11467.1 895.347 11466.8 895.32 11466.6 895.32C11466 895.32 11465.5 895.421 11465.2 895.624C11464.8 895.827 11464.7 896.104 11464.7 896.456C11464.7 896.723 11464.7 896.947 11464.9 897.128C11465 897.299 11465.3 897.459 11465.6 897.608C11466 897.757 11466.4 897.933 11466.9 898.136C11467.4 898.328 11467.9 898.531 11468.3 898.744C11468.7 898.947 11469 899.203 11469.2 899.512C11469.4 899.811 11469.5 900.195 11469.5 900.664ZM11474.9 894.28C11475.6 894.28 11476.3 894.445 11476.8 894.776C11477.3 895.096 11477.7 895.549 11478 896.136C11478.2 896.712 11478.4 897.389 11478.4 898.168V898.952H11472.4C11472.5 899.965 11472.7 900.744 11473.2 901.288C11473.7 901.821 11474.4 902.088 11475.3 902.088C11475.8 902.088 11476.3 902.04 11476.7 901.944C11477.1 901.837 11477.5 901.688 11478 901.496V902.6C11477.6 902.792 11477.1 902.931 11476.7 903.016C11476.3 903.112 11475.8 903.16 11475.2 903.16C11474.4 903.16 11473.7 902.995 11473.1 902.664C11472.4 902.323 11472 901.827 11471.6 901.176C11471.3 900.515 11471.1 899.72 11471.1 898.792C11471.1 897.875 11471.3 897.08 11471.6 896.408C11471.9 895.736 11472.3 895.213 11472.9 894.84C11473.5 894.467 11474.1 894.28 11474.9 894.28ZM11474.9 895.32C11474.2 895.32 11473.6 895.549 11473.2 896.008C11472.8 896.467 11472.5 897.112 11472.5 897.944H11477.1C11477.1 897.421 11477 896.968 11476.8 896.584C11476.7 896.189 11476.4 895.88 11476.1 895.656C11475.8 895.432 11475.4 895.32 11474.9 895.32ZM11484.4 894.296C11484.6 894.296 11484.8 894.307 11485 894.328C11485.2 894.339 11485.3 894.36 11485.5 894.392L11485.3 895.56C11485.2 895.517 11485 895.485 11484.8 895.464C11484.7 895.443 11484.5 895.432 11484.3 895.432C11484 895.432 11483.7 895.507 11483.4 895.656C11483.1 895.795 11482.8 895.992 11482.6 896.248C11482.3 896.504 11482.2 896.813 11482 897.176C11481.9 897.539 11481.8 897.944 11481.8 898.392V903H11480.6V894.44H11481.6L11481.7 896.024H11481.8C11482 895.704 11482.2 895.416 11482.4 895.16C11482.7 894.893 11483 894.685 11483.3 894.536C11483.7 894.376 11484 894.296 11484.4 894.296ZM11491.1 894.28C11492.1 894.28 11492.9 894.531 11493.4 895.032C11493.9 895.523 11494.2 896.317 11494.2 897.416V903H11493V897.512C11493 896.776 11492.8 896.232 11492.5 895.88C11492.1 895.528 11491.6 895.352 11491 895.352C11490 895.352 11489.3 895.619 11488.9 896.152C11488.5 896.685 11488.3 897.464 11488.3 898.488V903H11487.1V894.44H11488.1L11488.3 895.704H11488.4C11488.6 895.395 11488.8 895.139 11489.1 894.936C11489.3 894.723 11489.7 894.563 11490 894.456C11490.4 894.339 11490.7 894.28 11491.1 894.28ZM11500 894.296C11501.1 894.296 11501.8 894.531 11502.3 895C11502.8 895.459 11503.1 896.189 11503.1 897.192V903H11502.1L11501.9 901.72H11501.8C11501.6 902.029 11501.4 902.296 11501.1 902.52C11500.8 902.733 11500.5 902.893 11500.2 903C11499.8 903.107 11499.4 903.16 11498.9 903.16C11498.4 903.16 11497.9 903.069 11497.5 902.888C11497.1 902.707 11496.8 902.429 11496.6 902.056C11496.3 901.683 11496.2 901.219 11496.2 900.664C11496.2 899.811 11496.6 899.155 11497.2 898.696C11497.9 898.237 11499 897.987 11500.3 897.944L11501.8 897.88V897.352C11501.8 896.595 11501.7 896.067 11501.3 895.768C11501 895.469 11500.6 895.32 11500 895.32C11499.5 895.32 11499.1 895.384 11498.7 895.512C11498.3 895.64 11497.9 895.795 11497.5 895.976L11497.2 895.016C11497.5 894.813 11498 894.643 11498.5 894.504C11499 894.365 11499.5 894.296 11500 894.296ZM11500.5 898.824C11499.4 898.867 11498.7 899.043 11498.2 899.352C11497.8 899.661 11497.5 900.104 11497.5 900.68C11497.5 901.171 11497.7 901.539 11498 901.784C11498.3 902.019 11498.7 902.136 11499.2 902.136C11500 902.136 11500.6 901.923 11501.1 901.496C11501.6 901.059 11501.8 900.413 11501.8 899.56V898.776L11500.5 898.824ZM11515 894.28C11515.9 894.28 11516.6 894.525 11517.1 895.016C11517.6 895.507 11517.8 896.296 11517.8 897.384V903H11516.6V897.448C11516.6 896.744 11516.4 896.221 11516.1 895.88C11515.8 895.528 11515.4 895.352 11514.8 895.352C11513.9 895.352 11513.3 895.592 11513 896.072C11512.6 896.541 11512.4 897.251 11512.4 898.2V903H11511.1V897.448C11511.1 896.979 11511.1 896.589 11510.9 896.28C11510.8 895.96 11510.6 895.725 11510.3 895.576C11510.1 895.427 11509.7 895.352 11509.3 895.352C11508.8 895.352 11508.3 895.469 11508 895.704C11507.6 895.939 11507.4 896.285 11507.2 896.744C11507 897.192 11507 897.757 11507 898.44V903H11505.7V894.44H11506.7L11506.9 895.672H11507C11507.2 895.373 11507.4 895.123 11507.6 894.92C11507.9 894.707 11508.2 894.547 11508.5 894.44C11508.8 894.333 11509.2 894.28 11509.5 894.28C11510.2 894.28 11510.7 894.403 11511.2 894.648C11511.6 894.893 11511.9 895.267 11512.1 895.768H11512.2C11512.5 895.277 11512.9 894.909 11513.4 894.664C11513.8 894.408 11514.4 894.28 11515 894.28ZM11523.8 894.28C11524.5 894.28 11525.1 894.445 11525.6 894.776C11526.2 895.096 11526.6 895.549 11526.8 896.136C11527.1 896.712 11527.2 897.389 11527.2 898.168V898.952H11521.3C11521.3 899.965 11521.6 900.744 11522.1 901.288C11522.5 901.821 11523.2 902.088 11524.1 902.088C11524.7 902.088 11525.1 902.04 11525.6 901.944C11526 901.837 11526.4 901.688 11526.9 901.496V902.6C11526.4 902.792 11526 902.931 11525.6 903.016C11525.1 903.112 11524.6 903.16 11524.1 903.16C11523.2 903.16 11522.5 902.995 11521.9 902.664C11521.3 902.323 11520.8 901.827 11520.5 901.176C11520.2 900.515 11520 899.72 11520 898.792C11520 897.875 11520.2 897.08 11520.5 896.408C11520.8 895.736 11521.2 895.213 11521.8 894.84C11522.3 894.467 11523 894.28 11523.8 894.28ZM11523.7 895.32C11523 895.32 11522.5 895.549 11522.1 896.008C11521.7 896.467 11521.4 897.112 11521.3 897.944H11525.9C11525.9 897.421 11525.8 896.968 11525.7 896.584C11525.5 896.189 11525.3 895.88 11525 895.656C11524.7 895.432 11524.3 895.32 11523.7 895.32Z" fill="#707070" id="n373"/>
<mask id="path-307-inside-26_1702_11540" fill="white">
<path d="M11435 938.6C11435 935.24 11435 933.56 11435.7 932.276C11436.2 931.147 11437.1 930.229 11438.3 929.654C11439.6 929 11441.2 929 11444.6 929H11713.4C11716.8 929 11718.4 929 11719.7 929.654C11720.9 930.229 11721.8 931.147 11722.3 932.276C11723 933.56 11723 935.24 11723 938.6V951.4C11723 954.76 11723 956.44 11722.3 957.724C11721.8 958.853 11720.9 959.771 11719.7 960.346C11718.4 961 11716.8 961 11713.4 961H11444.6C11441.2 961 11439.6 961 11438.3 960.346C11437.1 959.771 11436.2 958.853 11435.7 957.724C11435 956.44 11435 954.76 11435 951.4V938.6Z" id="n374"/>
</mask>
<path d="M11435 938.6C11435 935.24 11435 933.56 11435.7 932.276C11436.2 931.147 11437.1 930.229 11438.3 929.654C11439.6 929 11441.2 929 11444.6 929H11713.4C11716.8 929 11718.4 929 11719.7 929.654C11720.9 930.229 11721.8 931.147 11722.3 932.276C11723 933.56 11723 935.24 11723 938.6V951.4C11723 954.76 11723 956.44 11722.3 957.724C11721.8 958.853 11720.9 959.771 11719.7 960.346C11718.4 961 11716.8 961 11713.4 961H11444.6C11441.2 961 11439.6 961 11438.3 960.346C11437.1 959.771 11436.2 958.853 11435.7 957.724C11435 956.44 11435 954.76 11435 951.4V938.6Z" fill="white" id="n375"/>
<path d="M11438.3 960.346L11438.7 959.455L11438.3 960.346ZM11722.3 957.724L11721.5 957.27L11722.3 957.724ZM11719.7 960.346L11720.2 961.237L11719.7 960.346ZM11719.7 929.654L11719.3 930.545L11719.7 929.654ZM11722.3 932.276L11723.2 931.822L11722.3 932.276ZM11444.6 929V930H11713.4V929V928H11444.6V929ZM11723 938.6H11722V951.4H11723H11724V938.6H11723ZM11713.4 961V960H11444.6V961V962H11713.4V961ZM11435 951.4H11436V938.6H11435H11434V951.4H11435ZM11444.6 961V960C11442.9 960 11441.7 959.999 11440.7 959.922C11439.8 959.845 11439.2 959.698 11438.7 959.455L11438.3 960.346L11437.8 961.237C11438.6 961.648 11439.5 961.828 11440.6 961.915C11441.6 962.001 11442.9 962 11444.6 962V961ZM11435 951.4H11434C11434 953.064 11434 954.372 11434.1 955.422C11434.2 956.485 11434.4 957.372 11434.8 958.178L11435.7 957.724L11436.5 957.27C11436.3 956.793 11436.2 956.198 11436.1 955.259C11436 954.309 11436 953.097 11436 951.4H11435ZM11438.3 960.346L11438.7 959.455C11437.8 958.976 11437 958.211 11436.5 957.27L11435.7 957.724L11434.8 958.178C11435.4 959.495 11436.5 960.566 11437.8 961.237L11438.3 960.346ZM11723 951.4H11722C11722 953.097 11722 954.309 11721.9 955.259C11721.8 956.198 11721.7 956.793 11721.5 957.27L11722.3 957.724L11723.2 958.178C11723.6 957.372 11723.8 956.485 11723.9 955.422C11724 954.372 11724 953.064 11724 951.4H11723ZM11713.4 961V962C11715.1 962 11716.4 962.001 11717.4 961.915C11718.5 961.828 11719.4 961.648 11720.2 961.237L11719.7 960.346L11719.3 959.455C11718.8 959.698 11718.2 959.845 11717.3 959.922C11716.3 959.999 11715.1 960 11713.4 960V961ZM11722.3 957.724L11721.5 957.27C11721 958.211 11720.2 958.976 11719.3 959.455L11719.7 960.346L11720.2 961.237C11721.5 960.566 11722.6 959.495 11723.2 958.178L11722.3 957.724ZM11713.4 929V930C11715.1 930 11716.3 930.001 11717.3 930.078C11718.2 930.155 11718.8 930.302 11719.3 930.545L11719.7 929.654L11720.2 928.763C11719.4 928.352 11718.5 928.172 11717.4 928.085C11716.4 927.999 11715.1 928 11713.4 928V929ZM11723 938.6H11724C11724 936.936 11724 935.628 11723.9 934.578C11723.8 933.515 11723.6 932.628 11723.2 931.822L11722.3 932.276L11721.5 932.73C11721.7 933.207 11721.8 933.802 11721.9 934.741C11722 935.691 11722 936.903 11722 938.6H11723ZM11719.7 929.654L11719.3 930.545C11720.2 931.024 11721 931.789 11721.5 932.73L11722.3 932.276L11723.2 931.822C11722.6 930.505 11721.5 929.434 11720.2 928.763L11719.7 929.654ZM11444.6 929V928C11442.9 928 11441.6 927.999 11440.6 928.085C11439.5 928.172 11438.6 928.352 11437.8 928.763L11438.3 929.654L11438.7 930.545C11439.2 930.302 11439.8 930.155 11440.7 930.078C11441.7 930.001 11442.9 930 11444.6 930V929ZM11435 938.6H11436C11436 936.903 11436 935.691 11436.1 934.741C11436.2 933.802 11436.3 933.207 11436.5 932.73L11435.7 932.276L11434.8 931.822C11434.4 932.628 11434.2 933.515 11434.1 934.578C11434 935.628 11434 936.936 11434 938.6H11435ZM11438.3 929.654L11437.8 928.763C11436.5 929.434 11435.4 930.505 11434.8 931.822L11435.7 932.276L11436.5 932.73C11437 931.789 11437.8 931.024 11438.7 930.545L11438.3 929.654Z" fill="#BEBEBE" mask="url(#path-307-inside-26_1702_11540)" id="n376"/>
<path d="M11455.5 939.576C11457 939.576 11458.1 939.864 11458.7 940.44C11459.4 941.005 11459.8 941.827 11459.8 942.904C11459.8 943.395 11459.7 943.859 11459.5 944.296C11459.4 944.723 11459.1 945.101 11458.8 945.432C11458.4 945.763 11457.9 946.024 11457.4 946.216C11456.8 946.397 11456.1 946.488 11455.3 946.488H11453.8V951H11452.6V939.576H11455.5ZM11455.4 940.68H11453.8V945.384H11455.1C11455.9 945.384 11456.5 945.304 11457 945.144C11457.5 944.984 11457.8 944.728 11458.1 944.376C11458.3 944.013 11458.4 943.539 11458.4 942.952C11458.4 942.184 11458.2 941.613 11457.7 941.24C11457.2 940.867 11456.5 940.68 11455.4 940.68ZM11465.1 942.296C11466.2 942.296 11466.9 942.531 11467.4 943C11467.9 943.459 11468.1 944.189 11468.1 945.192V951H11467.2L11467 949.72H11466.9C11466.7 950.029 11466.4 950.296 11466.2 950.52C11465.9 950.733 11465.6 950.893 11465.3 951C11464.9 951.107 11464.5 951.16 11464 951.16C11463.5 951.16 11463 951.069 11462.6 950.888C11462.2 950.707 11461.9 950.429 11461.7 950.056C11461.4 949.683 11461.3 949.219 11461.3 948.664C11461.3 947.811 11461.7 947.155 11462.3 946.696C11463 946.237 11464 945.987 11465.4 945.944L11466.9 945.88V945.352C11466.9 944.595 11466.8 944.067 11466.4 943.768C11466.1 943.469 11465.7 943.32 11465.1 943.32C11464.6 943.32 11464.2 943.384 11463.8 943.512C11463.4 943.64 11463 943.795 11462.6 943.976L11462.3 943.016C11462.6 942.813 11463.1 942.643 11463.6 942.504C11464.1 942.365 11464.6 942.296 11465.1 942.296ZM11465.6 946.824C11464.5 946.867 11463.8 947.043 11463.3 947.352C11462.9 947.661 11462.6 948.104 11462.6 948.68C11462.6 949.171 11462.8 949.539 11463.1 949.784C11463.4 950.019 11463.8 950.136 11464.3 950.136C11465.1 950.136 11465.7 949.923 11466.2 949.496C11466.7 949.059 11466.9 948.413 11466.9 947.56V946.776L11465.6 946.824ZM11476.3 948.664C11476.3 949.208 11476.2 949.667 11475.9 950.04C11475.7 950.403 11475.3 950.68 11474.7 950.872C11474.2 951.064 11473.6 951.16 11472.9 951.16C11472.3 951.16 11471.8 951.112 11471.4 951.016C11471 950.92 11470.6 950.787 11470.2 950.616V949.464C11470.6 949.635 11471 949.789 11471.5 949.928C11472 950.067 11472.5 950.136 11473 950.136C11473.7 950.136 11474.3 950.013 11474.6 949.768C11474.9 949.523 11475.1 949.192 11475.1 948.776C11475.1 948.531 11475 948.317 11474.9 948.136C11474.8 947.955 11474.5 947.779 11474.2 947.608C11473.9 947.437 11473.5 947.251 11472.9 947.048C11472.4 946.845 11471.9 946.643 11471.5 946.44C11471.1 946.237 11470.8 945.987 11470.6 945.688C11470.4 945.389 11470.3 945.005 11470.3 944.536C11470.3 943.811 11470.6 943.256 11471.1 942.872C11471.7 942.477 11472.5 942.28 11473.4 942.28C11474 942.28 11474.4 942.333 11474.9 942.44C11475.3 942.536 11475.8 942.669 11476.1 942.84L11475.7 943.864C11475.5 943.757 11475.2 943.667 11475 943.592C11474.7 943.507 11474.5 943.443 11474.2 943.4C11473.9 943.347 11473.6 943.32 11473.4 943.32C11472.7 943.32 11472.3 943.421 11471.9 943.624C11471.6 943.827 11471.5 944.104 11471.5 944.456C11471.5 944.723 11471.5 944.947 11471.7 945.128C11471.8 945.299 11472.1 945.459 11472.4 945.608C11472.8 945.757 11473.2 945.933 11473.7 946.136C11474.2 946.328 11474.7 946.531 11475.1 946.744C11475.5 946.947 11475.8 947.203 11476 947.512C11476.2 947.811 11476.3 948.195 11476.3 948.664ZM11483.9 948.664C11483.9 949.208 11483.8 949.667 11483.5 950.04C11483.3 950.403 11482.9 950.68 11482.4 950.872C11481.9 951.064 11481.3 951.16 11480.6 951.16C11480 951.16 11479.4 951.112 11479 951.016C11478.6 950.92 11478.2 950.787 11477.8 950.616V949.464C11478.2 949.635 11478.6 949.789 11479.1 949.928C11479.6 950.067 11480.1 950.136 11480.6 950.136C11481.3 950.136 11481.9 950.013 11482.2 949.768C11482.5 949.523 11482.7 949.192 11482.7 948.776C11482.7 948.531 11482.6 948.317 11482.5 948.136C11482.4 947.955 11482.2 947.779 11481.8 947.608C11481.5 947.437 11481.1 947.251 11480.5 947.048C11480 946.845 11479.5 946.643 11479.1 946.44C11478.7 946.237 11478.4 945.987 11478.2 945.688C11478 945.389 11477.9 945.005 11477.9 944.536C11477.9 943.811 11478.2 943.256 11478.7 942.872C11479.3 942.477 11480.1 942.28 11481 942.28C11481.6 942.28 11482.1 942.333 11482.5 942.44C11483 942.536 11483.4 942.669 11483.8 942.84L11483.3 943.864C11483.1 943.757 11482.8 943.667 11482.6 943.592C11482.3 943.507 11482.1 943.443 11481.8 943.4C11481.5 943.347 11481.2 943.32 11481 943.32C11480.4 943.32 11479.9 943.421 11479.6 943.624C11479.2 943.827 11479.1 944.104 11479.1 944.456C11479.1 944.723 11479.2 944.947 11479.3 945.128C11479.5 945.299 11479.7 945.459 11480 945.608C11480.4 945.757 11480.8 945.933 11481.3 946.136C11481.9 946.328 11482.3 946.531 11482.7 946.744C11483.1 946.947 11483.4 947.203 11483.6 947.512C11483.8 947.811 11483.9 948.195 11483.9 948.664ZM11491.4 945.944C11491.4 945.731 11491.3 945.523 11491.2 945.32C11491.2 945.117 11491.1 944.925 11491.1 944.744C11491 944.563 11491 944.392 11491 944.232C11490.9 944.061 11490.9 943.912 11490.9 943.784H11490.8C11490.8 943.912 11490.7 944.061 11490.7 944.232C11490.7 944.392 11490.6 944.568 11490.6 944.76C11490.5 944.941 11490.5 945.133 11490.4 945.336C11490.4 945.539 11490.3 945.747 11490.2 945.96L11488.6 950.984H11487.2L11484.8 942.44H11486.1L11487.4 947.208C11487.5 947.528 11487.6 947.837 11487.6 948.136C11487.7 948.435 11487.8 948.717 11487.8 948.984C11487.9 949.24 11487.9 949.469 11488 949.672H11488C11488 949.544 11488.1 949.389 11488.1 949.208C11488.2 949.027 11488.2 948.835 11488.3 948.632C11488.3 948.429 11488.3 948.227 11488.4 948.024C11488.5 947.811 11488.5 947.613 11488.6 947.432L11490.2 942.44H11491.5L11493.1 947.432C11493.1 947.677 11493.2 947.933 11493.3 948.2C11493.4 948.467 11493.5 948.728 11493.5 948.984C11493.6 949.229 11493.6 949.453 11493.6 949.656H11493.7C11493.7 949.475 11493.8 949.256 11493.8 949C11493.9 948.744 11493.9 948.461 11494 948.152C11494.1 947.843 11494.2 947.528 11494.3 947.208L11495.5 942.44H11496.8L11494.4 950.984H11493L11491.4 945.944ZM11505.7 946.712C11505.7 947.405 11505.6 948.029 11505.5 948.584C11505.3 949.128 11505 949.592 11504.7 949.976C11504.3 950.36 11503.9 950.653 11503.4 950.856C11502.9 951.059 11502.4 951.16 11501.8 951.16C11501.2 951.16 11500.7 951.059 11500.2 950.856C11499.7 950.653 11499.3 950.36 11499 949.976C11498.6 949.592 11498.4 949.128 11498.2 948.584C11498 948.04 11497.9 947.416 11497.9 946.712C11497.9 945.773 11498.1 944.979 11498.4 944.328C11498.7 943.667 11499.1 943.16 11499.7 942.808C11500.3 942.456 11501 942.28 11501.8 942.28C11502.6 942.28 11503.3 942.456 11503.9 942.808C11504.5 943.16 11504.9 943.667 11505.2 944.328C11505.6 944.989 11505.7 945.784 11505.7 946.712ZM11499.2 946.712C11499.2 947.395 11499.3 947.992 11499.5 948.504C11499.7 949.016 11499.9 949.411 11500.3 949.688C11500.7 949.965 11501.2 950.104 11501.8 950.104C11502.4 950.104 11502.9 949.965 11503.3 949.688C11503.7 949.411 11504 949.016 11504.2 948.504C11504.3 947.992 11504.4 947.395 11504.4 946.712C11504.4 946.019 11504.3 945.427 11504.1 944.936C11504 944.435 11503.7 944.045 11503.3 943.768C11502.9 943.491 11502.4 943.352 11501.8 943.352C11500.9 943.352 11500.2 943.651 11499.8 944.248C11499.4 944.835 11499.2 945.656 11499.2 946.712ZM11511.8 942.296C11512 942.296 11512.2 942.307 11512.4 942.328C11512.5 942.339 11512.7 942.36 11512.9 942.392L11512.7 943.56C11512.6 943.517 11512.4 943.485 11512.2 943.464C11512.1 943.443 11511.9 943.432 11511.7 943.432C11511.4 943.432 11511.1 943.507 11510.8 943.656C11510.5 943.795 11510.2 943.992 11510 944.248C11509.7 944.504 11509.6 944.813 11509.4 945.176C11509.3 945.539 11509.2 945.944 11509.2 946.392V951H11508V942.44H11509L11509.1 944.024H11509.2C11509.4 943.704 11509.6 943.416 11509.8 943.16C11510.1 942.893 11510.4 942.685 11510.7 942.536C11511 942.376 11511.4 942.296 11511.8 942.296ZM11517.2 951.16C11516.1 951.16 11515.3 950.792 11514.6 950.056C11514 949.309 11513.7 948.211 11513.7 946.76C11513.7 945.288 11514 944.173 11514.7 943.416C11515.3 942.659 11516.2 942.28 11517.2 942.28C11517.7 942.28 11518.1 942.344 11518.4 942.472C11518.8 942.589 11519.1 942.755 11519.3 942.968C11519.6 943.171 11519.8 943.4 11519.9 943.656H11520C11520 943.485 11520 943.261 11520 942.984C11519.9 942.696 11519.9 942.456 11519.9 942.264V938.84H11521.2V951H11520.2L11520 949.752H11519.9C11519.8 950.008 11519.6 950.243 11519.3 950.456C11519.1 950.669 11518.8 950.84 11518.4 950.968C11518.1 951.096 11517.7 951.16 11517.2 951.16ZM11517.4 950.104C11518.3 950.104 11519 949.843 11519.4 949.32C11519.8 948.797 11519.9 948.013 11519.9 946.968V946.744C11519.9 945.645 11519.8 944.803 11519.4 944.216C11519 943.629 11518.4 943.336 11517.4 943.336C11516.6 943.336 11516 943.645 11515.6 944.264C11515.2 944.872 11515 945.715 11515 946.792C11515 947.848 11515.2 948.664 11515.6 949.24C11516 949.816 11516.6 950.104 11517.4 950.104Z" fill="#707070" id="n377"/>
<path d="M11711.1 946.3L11709.7 944.85C11709.8 944.067 11709.6 943.333 11709 942.65C11708.4 941.967 11707.6 941.7 11706.7 941.85L11705.2 940.4C11705.5 940.267 11705.8 940.167 11706.1 940.1C11706.4 940.033 11706.7 940 11707 940C11708.2 940 11709.3 940.438 11710.2 941.313C11711.1 942.188 11711.5 943.25 11711.5 944.5C11711.5 944.833 11711.5 945.146 11711.4 945.438C11711.3 945.729 11711.2 946.017 11711.1 946.3ZM11714.3 949.45L11712.9 948.05C11713.5 947.567 11714 947.038 11714.5 946.463C11715 945.888 11715.5 945.233 11715.8 944.5C11715 942.817 11713.8 941.479 11712.2 940.488C11710.7 939.496 11708.9 939 11707 939C11706.5 939 11706 939.033 11705.6 939.1C11705.1 939.167 11704.6 939.267 11704.2 939.4L11702.7 937.85C11703.3 937.567 11704 937.354 11704.8 937.213C11705.5 937.071 11706.2 937 11707 937C11709.5 937 11711.8 937.696 11713.7 939.088C11715.7 940.479 11717.1 942.283 11718 944.5C11717.6 945.483 11717.1 946.396 11716.5 947.238C11715.9 948.079 11715.1 948.817 11714.3 949.45ZM11714.8 955.6L11710.6 951.45C11710 951.633 11709.4 951.771 11708.8 951.863C11708.2 951.954 11707.6 952 11707 952C11704.5 952 11702.2 951.304 11700.3 949.913C11698.3 948.521 11696.9 946.717 11696 944.5C11696.3 943.617 11696.8 942.796 11697.3 942.038C11697.9 941.279 11698.5 940.6 11699.2 940L11696.4 937.2L11697.8 935.8L11716.2 954.2L11714.8 955.6ZM11700.6 941.4C11700.1 941.833 11699.6 942.308 11699.2 942.825C11698.8 943.342 11698.5 943.9 11698.2 944.5C11699 946.183 11700.2 947.521 11701.8 948.513C11703.3 949.504 11705.1 950 11707 950C11707.3 950 11707.7 949.979 11708 949.938C11708.3 949.896 11708.6 949.85 11708.9 949.8L11708.1 948.85C11707.9 948.9 11707.7 948.938 11707.5 948.963C11707.4 948.988 11707.2 949 11707 949C11705.8 949 11704.7 948.563 11703.8 947.688C11702.9 946.813 11702.5 945.75 11702.5 944.5C11702.5 944.317 11702.5 944.142 11702.5 943.975C11702.6 943.808 11702.6 943.633 11702.7 943.45L11700.6 941.4Z" fill="#535353" id="n378"/>
<mask id="path-313-inside-27_1702_11540" fill="white">
<path d="M11435 986.6C11435 983.24 11435 981.56 11435.7 980.276C11436.2 979.147 11437.1 978.229 11438.3 977.654C11439.6 977 11441.2 977 11444.6 977H11713.4C11716.8 977 11718.4 977 11719.7 977.654C11720.9 978.229 11721.8 979.147 11722.3 980.276C11723 981.56 11723 983.24 11723 986.6V999.4C11723 1002.76 11723 1004.44 11722.3 1005.72C11721.8 1006.85 11720.9 1007.77 11719.7 1008.35C11718.4 1009 11716.8 1009 11713.4 1009H11444.6C11441.2 1009 11439.6 1009 11438.3 1008.35C11437.1 1007.77 11436.2 1006.85 11435.7 1005.72C11435 1004.44 11435 1002.76 11435 999.4V986.6Z" id="n379"/>
</mask>
<path d="M11435 986.6C11435 983.24 11435 981.56 11435.7 980.276C11436.2 979.147 11437.1 978.229 11438.3 977.654C11439.6 977 11441.2 977 11444.6 977H11713.4C11716.8 977 11718.4 977 11719.7 977.654C11720.9 978.229 11721.8 979.147 11722.3 980.276C11723 981.56 11723 983.24 11723 986.6V999.4C11723 1002.76 11723 1004.44 11722.3 1005.72C11721.8 1006.85 11720.9 1007.77 11719.7 1008.35C11718.4 1009 11716.8 1009 11713.4 1009H11444.6C11441.2 1009 11439.6 1009 11438.3 1008.35C11437.1 1007.77 11436.2 1006.85 11435.7 1005.72C11435 1004.44 11435 1002.76 11435 999.4V986.6Z" fill="#1D3C67" id="n380"/>
<path d="M11438.3 1008.35L11438.7 1007.46L11438.3 1008.35ZM11722.3 1005.72L11721.5 1005.27L11722.3 1005.72ZM11719.7 1008.35L11720.2 1009.24L11719.7 1008.35ZM11719.7 977.654L11719.3 978.545L11719.7 977.654ZM11722.3 980.276L11723.2 979.822L11722.3 980.276ZM11444.6 977V978H11713.4V977V976H11444.6V977ZM11723 986.6H11722V999.4H11723H11724V986.6H11723ZM11713.4 1009V1008H11444.6V1009V1010H11713.4V1009ZM11435 999.4H11436V986.6H11435H11434V999.4H11435ZM11444.6 1009V1008C11442.9 1008 11441.7 1008 11440.7 1007.92C11439.8 1007.84 11439.2 1007.7 11438.7 1007.46L11438.3 1008.35L11437.8 1009.24C11438.6 1009.65 11439.5 1009.83 11440.6 1009.91C11441.6 1010 11442.9 1010 11444.6 1010V1009ZM11435 999.4H11434C11434 1001.06 11434 1002.37 11434.1 1003.42C11434.2 1004.48 11434.4 1005.37 11434.8 1006.18L11435.7 1005.72L11436.5 1005.27C11436.3 1004.79 11436.2 1004.2 11436.1 1003.26C11436 1002.31 11436 1001.1 11436 999.4H11435ZM11438.3 1008.35L11438.7 1007.46C11437.8 1006.98 11437 1006.21 11436.5 1005.27L11435.7 1005.72L11434.8 1006.18C11435.4 1007.5 11436.5 1008.57 11437.8 1009.24L11438.3 1008.35ZM11723 999.4H11722C11722 1001.1 11722 1002.31 11721.9 1003.26C11721.8 1004.2 11721.7 1004.79 11721.5 1005.27L11722.3 1005.72L11723.2 1006.18C11723.6 1005.37 11723.8 1004.48 11723.9 1003.42C11724 1002.37 11724 1001.06 11724 999.4H11723ZM11713.4 1009V1010C11715.1 1010 11716.4 1010 11717.4 1009.91C11718.5 1009.83 11719.4 1009.65 11720.2 1009.24L11719.7 1008.35L11719.3 1007.46C11718.8 1007.7 11718.2 1007.84 11717.3 1007.92C11716.3 1008 11715.1 1008 11713.4 1008V1009ZM11722.3 1005.72L11721.5 1005.27C11721 1006.21 11720.2 1006.98 11719.3 1007.46L11719.7 1008.35L11720.2 1009.24C11721.5 1008.57 11722.6 1007.5 11723.2 1006.18L11722.3 1005.72ZM11713.4 977V978C11715.1 978 11716.3 978.001 11717.3 978.078C11718.2 978.155 11718.8 978.302 11719.3 978.545L11719.7 977.654L11720.2 976.763C11719.4 976.352 11718.5 976.172 11717.4 976.085C11716.4 975.999 11715.1 976 11713.4 976V977ZM11723 986.6H11724C11724 984.936 11724 983.628 11723.9 982.578C11723.8 981.515 11723.6 980.628 11723.2 979.822L11722.3 980.276L11721.5 980.73C11721.7 981.207 11721.8 981.802 11721.9 982.741C11722 983.691 11722 984.903 11722 986.6H11723ZM11719.7 977.654L11719.3 978.545C11720.2 979.024 11721 979.789 11721.5 980.73L11722.3 980.276L11723.2 979.822C11722.6 978.505 11721.5 977.434 11720.2 976.763L11719.7 977.654ZM11444.6 977V976C11442.9 976 11441.6 975.999 11440.6 976.085C11439.5 976.172 11438.6 976.352 11437.8 976.763L11438.3 977.654L11438.7 978.545C11439.2 978.302 11439.8 978.155 11440.7 978.078C11441.7 978.001 11442.9 978 11444.6 978V977ZM11435 986.6H11436C11436 984.903 11436 983.691 11436.1 982.741C11436.2 981.802 11436.3 981.207 11436.5 980.73L11435.7 980.276L11434.8 979.822C11434.4 980.628 11434.2 981.515 11434.1 982.578C11434 983.628 11434 984.936 11434 986.6H11435ZM11438.3 977.654L11437.8 976.763C11436.5 977.434 11435.4 978.505 11434.8 979.822L11435.7 980.276L11436.5 980.73C11437 979.789 11437.8 979.024 11438.7 978.545L11438.3 977.654Z" fill="#152F53" mask="url(#path-313-inside-27_1702_11540)" id="n381"/>
<path d="M11560.6 995.88C11560.6 996.563 11560.4 997.149 11560.1 997.64C11559.8 998.12 11559.3 998.493 11558.7 998.76C11558.1 999.027 11557.3 999.16 11556.5 999.16C11556.1 999.16 11555.7 999.133 11555.3 999.08C11554.9 999.037 11554.5 998.973 11554.2 998.888C11553.9 998.792 11553.6 998.675 11553.3 998.536V996.696C11553.7 996.909 11554.3 997.101 11554.8 997.272C11555.4 997.432 11556 997.512 11556.6 997.512C11557.1 997.512 11557.5 997.453 11557.8 997.336C11558.1 997.208 11558.3 997.032 11558.5 996.808C11558.6 996.573 11558.7 996.307 11558.7 996.008C11558.7 995.677 11558.6 995.4 11558.4 995.176C11558.2 994.941 11558 994.728 11557.6 994.536C11557.2 994.333 11556.8 994.125 11556.2 993.912C11555.9 993.752 11555.5 993.576 11555.2 993.384C11554.8 993.192 11554.5 992.968 11554.3 992.712C11554 992.445 11553.8 992.136 11553.6 991.784C11553.5 991.421 11553.4 990.995 11553.4 990.504C11553.4 989.853 11553.6 989.299 11553.9 988.84C11554.2 988.381 11554.6 988.029 11555.2 987.784C11555.8 987.539 11556.4 987.416 11557.2 987.416C11557.8 987.416 11558.4 987.48 11558.9 987.608C11559.4 987.736 11559.9 987.912 11560.5 988.136L11559.8 989.72C11559.4 989.528 11558.9 989.373 11558.5 989.256C11558 989.139 11557.6 989.08 11557.1 989.08C11556.7 989.08 11556.4 989.139 11556.1 989.256C11555.9 989.363 11555.7 989.523 11555.5 989.736C11555.4 989.949 11555.3 990.195 11555.3 990.472C11555.3 990.792 11555.4 991.064 11555.6 991.288C11555.7 991.501 11556 991.704 11556.3 991.896C11556.7 992.077 11557.1 992.285 11557.7 992.52C11558.3 992.787 11558.8 993.064 11559.3 993.352C11559.7 993.64 11560 993.987 11560.3 994.392C11560.5 994.787 11560.6 995.283 11560.6 995.88ZM11564.5 990.344V999H11562.6V990.344H11564.5ZM11563.6 987.016C11563.9 987.016 11564.1 987.096 11564.3 987.256C11564.5 987.405 11564.6 987.672 11564.6 988.056C11564.6 988.429 11564.5 988.696 11564.3 988.856C11564.1 989.016 11563.9 989.096 11563.6 989.096C11563.3 989.096 11563 989.016 11562.8 988.856C11562.6 988.696 11562.5 988.429 11562.5 988.056C11562.5 987.672 11562.6 987.405 11562.8 987.256C11563 987.096 11563.3 987.016 11563.6 987.016ZM11570.1 990.184C11570.6 990.184 11571.1 990.291 11571.5 990.504C11572 990.717 11572.4 991.037 11572.7 991.464H11572.7L11572.9 990.344H11574.5V999.08C11574.5 999.901 11574.4 1000.59 11574.1 1001.14C11573.8 1001.7 11573.3 1002.12 11572.7 1002.41C11572.1 1002.7 11571.3 1002.84 11570.4 1002.84C11569.8 1002.84 11569.2 1002.8 11568.7 1002.71C11568.2 1002.64 11567.7 1002.5 11567.2 1002.31V1000.7C11567.5 1000.85 11567.9 1000.97 11568.2 1001.06C11568.6 1001.17 11568.9 1001.25 11569.3 1001.29C11569.7 1001.34 11570.1 1001.37 11570.5 1001.37C11571.2 1001.37 11571.7 1001.18 11572.1 1000.79C11572.4 1000.42 11572.6 999.88 11572.6 999.176V998.936C11572.6 998.776 11572.6 998.589 11572.6 998.376C11572.6 998.163 11572.6 997.992 11572.7 997.864H11572.6C11572.3 998.312 11571.9 998.643 11571.5 998.856C11571.1 999.059 11570.6 999.16 11570 999.16C11569 999.16 11568.1 998.765 11567.5 997.976C11566.9 997.187 11566.6 996.088 11566.6 994.68C11566.6 993.741 11566.8 992.936 11567 992.264C11567.3 991.592 11567.7 991.08 11568.2 990.728C11568.7 990.365 11569.4 990.184 11570.1 990.184ZM11570.5 991.752C11570.1 991.752 11569.8 991.869 11569.5 992.104C11569.2 992.328 11569 992.659 11568.8 993.096C11568.7 993.533 11568.6 994.072 11568.6 994.712C11568.6 995.672 11568.8 996.397 11569.1 996.888C11569.4 997.379 11569.9 997.624 11570.6 997.624C11571 997.624 11571.3 997.581 11571.5 997.496C11571.8 997.4 11572 997.245 11572.2 997.032C11572.4 996.819 11572.5 996.547 11572.6 996.216C11572.6 995.875 11572.7 995.469 11572.7 995V994.696C11572.7 993.992 11572.6 993.427 11572.5 993C11572.3 992.573 11572.1 992.259 11571.8 992.056C11571.5 991.853 11571 991.752 11570.5 991.752ZM11581.7 990.184C11582.7 990.184 11583.4 990.435 11584 990.936C11584.5 991.437 11584.8 992.243 11584.8 993.352V999H11582.9V993.72C11582.9 993.059 11582.7 992.563 11582.5 992.232C11582.2 991.901 11581.8 991.736 11581.2 991.736C11580.4 991.736 11579.8 991.997 11579.5 992.52C11579.2 993.032 11579 993.768 11579 994.728V999H11577.1V990.344H11578.6L11578.9 991.48H11579C11579.2 991.181 11579.4 990.936 11579.7 990.744C11580 990.552 11580.3 990.413 11580.6 990.328C11581 990.232 11581.3 990.184 11581.7 990.184ZM11593.4 990.344V999H11591.5V990.344H11593.4ZM11592.4 987.016C11592.7 987.016 11593 987.096 11593.2 987.256C11593.4 987.405 11593.5 987.672 11593.5 988.056C11593.5 988.429 11593.4 988.696 11593.2 988.856C11593 989.016 11592.7 989.096 11592.4 989.096C11592.1 989.096 11591.9 989.016 11591.7 988.856C11591.5 988.696 11591.4 988.429 11591.4 988.056C11591.4 987.672 11591.5 987.405 11591.7 987.256C11591.9 987.096 11592.1 987.016 11592.4 987.016ZM11600.6 990.184C11601.5 990.184 11602.3 990.435 11602.8 990.936C11603.4 991.437 11603.7 992.243 11603.7 993.352V999H11601.8V993.72C11601.8 993.059 11601.6 992.563 11601.4 992.232C11601.1 991.901 11600.7 991.736 11600.1 991.736C11599.3 991.736 11598.7 991.997 11598.4 992.52C11598.1 993.032 11597.9 993.768 11597.9 994.728V999H11596V990.344H11597.5L11597.8 991.48H11597.9C11598.1 991.181 11598.3 990.936 11598.6 990.744C11598.9 990.552 11599.2 990.413 11599.5 990.328C11599.9 990.232 11600.2 990.184 11600.6 990.184Z" fill="#E4EEFD" id="n382"/>
<mask id="path-316-inside-28_1702_11540" fill="white">
<path d="M11419 1025H11739V1133H11419V1025Z" id="n383"/>
</mask>
<path d="M11419 1025V1026H11739V1025V1024H11419V1025Z" fill="#DDDDDD" mask="url(#path-316-inside-28_1702_11540)" id="n384"/>
<path d="M11560.1 1037.43C11560.8 1037.43 11561.4 1037.52 11561.9 1037.71C11562.4 1037.89 11562.7 1038.17 11563 1038.55C11563.2 1038.92 11563.3 1039.38 11563.3 1039.94C11563.3 1040.36 11563.2 1040.72 11563.1 1041.02C11562.9 1041.32 11562.7 1041.56 11562.5 1041.75C11562.2 1041.94 11562 1042.1 11561.7 1042.22L11564.1 1046H11562.5L11560.4 1042.59H11559.1V1046H11557.6V1037.43H11560.1ZM11560 1038.66H11559.1V1041.38H11560C11560.4 1041.38 11560.8 1041.33 11561 1041.22C11561.3 1041.12 11561.5 1040.96 11561.6 1040.76C11561.8 1040.55 11561.8 1040.29 11561.8 1039.99C11561.8 1039.67 11561.8 1039.41 11561.6 1039.22C11561.5 1039.02 11561.3 1038.88 11561 1038.79C11560.7 1038.7 11560.4 1038.66 11560 1038.66ZM11568.8 1039.39C11569.4 1039.39 11569.8 1039.51 11570.3 1039.75C11570.7 1039.98 11571 1040.32 11571.2 1040.76C11571.5 1041.19 11571.6 1041.71 11571.6 1042.33V1043.08H11567.3C11567.3 1043.69 11567.4 1044.16 11567.8 1044.5C11568.1 1044.83 11568.5 1044.99 11569.1 1044.99C11569.5 1044.99 11569.9 1044.95 11570.2 1044.87C11570.6 1044.79 11570.9 1044.67 11571.2 1044.51V1045.68C11570.9 1045.83 11570.6 1045.94 11570.2 1046.01C11569.9 1046.08 11569.5 1046.12 11569 1046.12C11568.4 1046.12 11567.8 1046 11567.3 1045.76C11566.9 1045.51 11566.5 1045.14 11566.2 1044.64C11565.9 1044.15 11565.8 1043.53 11565.8 1042.8C11565.8 1042.06 11565.9 1041.44 11566.2 1040.94C11566.4 1040.43 11566.8 1040.05 11567.2 1039.78C11567.7 1039.52 11568.2 1039.39 11568.8 1039.39ZM11568.8 1040.47C11568.4 1040.47 11568 1040.6 11567.8 1040.88C11567.5 1041.14 11567.3 1041.54 11567.3 1042.06H11570.2C11570.2 1041.74 11570.1 1041.47 11570 1041.24C11569.9 1041 11569.8 1040.81 11569.6 1040.67C11569.4 1040.54 11569.1 1040.47 11568.8 1040.47ZM11576.7 1046.12C11576.1 1046.12 11575.6 1046 11575.1 1045.77C11574.7 1045.53 11574.3 1045.17 11574.1 1044.68C11573.9 1044.18 11573.7 1043.55 11573.7 1042.78C11573.7 1041.99 11573.9 1041.35 11574.1 1040.85C11574.4 1040.35 11574.8 1039.98 11575.2 1039.75C11575.7 1039.51 11576.2 1039.39 11576.9 1039.39C11577.2 1039.39 11577.6 1039.43 11577.9 1039.51C11578.2 1039.58 11578.5 1039.67 11578.7 1039.78L11578.3 1040.92C11578.1 1040.83 11577.8 1040.75 11577.6 1040.68C11577.3 1040.61 11577.1 1040.58 11576.8 1040.58C11576.5 1040.58 11576.2 1040.66 11575.9 1040.83C11575.7 1041 11575.5 1041.24 11575.4 1041.57C11575.3 1041.89 11575.2 1042.29 11575.2 1042.77C11575.2 1043.24 11575.3 1043.64 11575.4 1043.96C11575.5 1044.28 11575.7 1044.52 11575.9 1044.68C11576.2 1044.84 11576.5 1044.92 11576.8 1044.92C11577.2 1044.92 11577.5 1044.88 11577.8 1044.8C11578.1 1044.71 11578.3 1044.6 11578.6 1044.45V1045.7C11578.3 1045.84 11578.1 1045.95 11577.8 1046.01C11577.5 1046.08 11577.2 1046.12 11576.7 1046.12ZM11583.7 1039.39C11584.3 1039.39 11584.8 1039.51 11585.2 1039.75C11585.6 1039.98 11585.9 1040.32 11586.1 1040.76C11586.4 1041.19 11586.5 1041.71 11586.5 1042.33V1043.08H11582.2C11582.2 1043.69 11582.4 1044.16 11582.7 1044.5C11583 1044.83 11583.4 1044.99 11584 1044.99C11584.4 1044.99 11584.8 1044.95 11585.1 1044.87C11585.5 1044.79 11585.8 1044.67 11586.2 1044.51V1045.68C11585.8 1045.83 11585.5 1045.94 11585.2 1046.01C11584.8 1046.08 11584.4 1046.12 11583.9 1046.12C11583.3 1046.12 11582.7 1046 11582.3 1045.76C11581.8 1045.51 11581.4 1045.14 11581.1 1044.64C11580.8 1044.15 11580.7 1043.53 11580.7 1042.8C11580.7 1042.06 11580.8 1041.44 11581.1 1040.94C11581.3 1040.43 11581.7 1040.05 11582.1 1039.78C11582.6 1039.52 11583.1 1039.39 11583.7 1039.39ZM11583.7 1040.47C11583.3 1040.47 11582.9 1040.6 11582.7 1040.88C11582.4 1041.14 11582.3 1041.54 11582.2 1042.06H11585.1C11585.1 1041.74 11585 1041.47 11584.9 1041.24C11584.8 1041 11584.7 1040.81 11584.5 1040.67C11584.3 1040.54 11584 1040.47 11583.7 1040.47ZM11592.5 1039.39C11593.2 1039.39 11593.8 1039.58 11594.2 1039.95C11594.6 1040.33 11594.8 1040.93 11594.8 1041.76V1046H11593.3V1042.04C11593.3 1041.54 11593.2 1041.17 11593 1040.92C11592.8 1040.68 11592.5 1040.55 11592.1 1040.55C11591.5 1040.55 11591.1 1040.75 11590.8 1041.14C11590.6 1041.52 11590.5 1042.08 11590.5 1042.8V1046H11589V1039.51H11590.2L11590.4 1040.36H11590.4C11590.6 1040.14 11590.7 1039.95 11591 1039.81C11591.2 1039.66 11591.4 1039.56 11591.7 1039.5C11591.9 1039.42 11592.2 1039.39 11592.5 1039.39ZM11600.1 1044.96C11600.3 1044.96 11600.5 1044.94 11600.7 1044.91C11600.9 1044.88 11601 1044.84 11601.2 1044.79V1045.87C11601 1045.94 11600.8 1046 11600.6 1046.05C11600.3 1046.1 11600.1 1046.12 11599.8 1046.12C11599.4 1046.12 11599.1 1046.06 11598.8 1045.94C11598.5 1045.81 11598.3 1045.6 11598.1 1045.3C11597.9 1045 11597.8 1044.58 11597.8 1044.03V1040.6H11596.9V1039.96L11597.9 1039.45L11598.4 1038.07H11599.3V1039.51H11601.1V1040.6H11599.3V1044.02C11599.3 1044.34 11599.3 1044.58 11599.5 1044.73C11599.7 1044.88 11599.9 1044.96 11600.1 1044.96Z" fill="#535353" id="n385"/>
<path d="M11483 1061.5C11492.7 1061.5 11500.5 1069.34 11500.5 1079C11500.5 1088.66 11492.7 1096.5 11483 1096.5C11473.3 1096.5 11465.5 1088.66 11465.5 1079C11465.5 1069.34 11473.3 1061.5 11483 1061.5Z" fill="white" id="n386"/>
<path d="M11483 1061.5C11492.7 1061.5 11500.5 1069.34 11500.5 1079C11500.5 1088.66 11492.7 1096.5 11483 1096.5C11473.3 1096.5 11465.5 1088.66 11465.5 1079C11465.5 1069.34 11473.3 1061.5 11483 1061.5Z" stroke="#BEBEBE" id="n387"/>
<path d="M11481.5 1085L11480.1 1081.34H11475.5L11474.1 1085H11472.8L11477.3 1073.53H11478.4L11482.9 1085H11481.5ZM11478.4 1076.54C11478.3 1076.45 11478.3 1076.3 11478.2 1076.09C11478.1 1075.87 11478.1 1075.66 11478 1075.43C11477.9 1075.2 11477.9 1075.01 11477.8 1074.87C11477.8 1075.09 11477.7 1075.3 11477.7 1075.51C11477.6 1075.71 11477.5 1075.91 11477.5 1076.09C11477.4 1076.26 11477.4 1076.41 11477.3 1076.55L11476 1080.2H11479.7L11478.4 1076.54ZM11487.7 1073.58C11488.6 1073.58 11489.4 1073.67 11490.1 1073.86C11490.7 1074.05 11491.2 1074.34 11491.5 1074.76C11491.8 1075.17 11492 1075.71 11492 1076.39C11492 1076.84 11491.9 1077.24 11491.7 1077.59C11491.5 1077.94 11491.3 1078.24 11491 1078.47C11490.7 1078.7 11490.3 1078.85 11489.8 1078.94V1079.02C11490.3 1079.09 11490.7 1079.23 11491.1 1079.45C11491.5 1079.66 11491.8 1079.95 11492 1080.33C11492.2 1080.7 11492.3 1081.18 11492.3 1081.75C11492.3 1082.46 11492.2 1083.05 11491.8 1083.54C11491.5 1084.02 11491.1 1084.39 11490.5 1084.63C11489.9 1084.88 11489.2 1085 11488.3 1085H11484.5V1073.58H11487.7ZM11488 1078.49C11489 1078.49 11489.7 1078.33 11490 1078.01C11490.4 1077.68 11490.6 1077.19 11490.6 1076.54C11490.6 1075.87 11490.4 1075.4 11489.9 1075.11C11489.5 1074.82 11488.8 1074.68 11487.7 1074.68H11485.7V1078.49H11488ZM11485.7 1079.58V1083.91H11488.1C11489.2 1083.91 11489.9 1083.71 11490.3 1083.3C11490.8 1082.9 11491 1082.35 11491 1081.66C11491 1081.22 11490.9 1080.85 11490.7 1080.54C11490.5 1080.22 11490.2 1079.98 11489.7 1079.82C11489.3 1079.66 11488.7 1079.58 11488 1079.58H11485.7Z" fill="#535353" id="n388"/>
<path d="M11461.7 1106.98C11461.7 1107.58 11461.6 1108.13 11461.4 1108.61C11461.1 1109.08 11460.8 1109.45 11460.3 1109.72C11459.8 1109.99 11459.2 1110.12 11458.4 1110.12C11457.4 1110.12 11456.6 1109.84 11456 1109.27C11455.5 1108.69 11455.2 1107.92 11455.2 1106.95V1101.43H11456.2V1106.98C11456.2 1107.71 11456.3 1108.28 11456.7 1108.68C11457.1 1109.08 11457.7 1109.28 11458.5 1109.28C11459 1109.28 11459.4 1109.18 11459.8 1108.99C11460.1 1108.8 11460.4 1108.54 11460.5 1108.2C11460.7 1107.86 11460.8 1107.45 11460.8 1106.99V1101.43H11461.7V1106.98ZM11468 1108.25C11468 1108.66 11467.9 1109 11467.7 1109.28C11467.5 1109.55 11467.2 1109.76 11466.8 1109.9C11466.4 1110.05 11466 1110.12 11465.5 1110.12C11465 1110.12 11464.6 1110.08 11464.3 1110.01C11464 1109.94 11463.7 1109.84 11463.4 1109.71V1108.85C11463.7 1108.98 11464 1109.09 11464.4 1109.2C11464.7 1109.3 11465.1 1109.35 11465.5 1109.35C11466 1109.35 11466.4 1109.26 11466.7 1109.08C11467 1108.89 11467.1 1108.64 11467.1 1108.33C11467.1 1108.15 11467 1107.99 11466.9 1107.85C11466.8 1107.72 11466.7 1107.58 11466.4 1107.46C11466.2 1107.33 11465.9 1107.19 11465.4 1107.04C11465 1106.88 11464.7 1106.73 11464.4 1106.58C11464.1 1106.43 11463.9 1106.24 11463.7 1106.02C11463.5 1105.79 11463.5 1105.5 11463.5 1105.15C11463.5 1104.61 11463.7 1104.19 11464.1 1103.9C11464.5 1103.61 11465.1 1103.46 11465.8 1103.46C11466.2 1103.46 11466.6 1103.5 11466.9 1103.58C11467.3 1103.65 11467.6 1103.75 11467.9 1103.88L11467.5 1104.65C11467.4 1104.57 11467.2 1104.5 11467 1104.44C11466.8 1104.38 11466.6 1104.33 11466.4 1104.3C11466.2 1104.26 11466 1104.24 11465.8 1104.24C11465.3 1104.24 11465 1104.32 11464.7 1104.47C11464.5 1104.62 11464.4 1104.83 11464.4 1105.09C11464.4 1105.29 11464.4 1105.46 11464.5 1105.6C11464.6 1105.72 11464.8 1105.84 11465.1 1105.96C11465.3 1106.07 11465.6 1106.2 11466 1106.35C11466.4 1106.5 11466.8 1106.65 11467.1 1106.81C11467.4 1106.96 11467.6 1107.15 11467.8 1107.38C11467.9 1107.61 11468 1107.9 11468 1108.25ZM11472 1103.46C11472.6 1103.46 11473.1 1103.58 11473.4 1103.83C11473.8 1104.07 11474.1 1104.41 11474.3 1104.85C11474.5 1105.28 11474.6 1105.79 11474.6 1106.38V1106.96H11470.2C11470.2 1107.72 11470.4 1108.31 11470.7 1108.72C11471.1 1109.12 11471.6 1109.32 11472.3 1109.32C11472.7 1109.32 11473.1 1109.28 11473.4 1109.21C11473.7 1109.13 11474 1109.02 11474.3 1108.87V1109.7C11474 1109.84 11473.7 1109.95 11473.4 1110.01C11473.1 1110.08 11472.7 1110.12 11472.3 1110.12C11471.6 1110.12 11471.1 1110 11470.6 1109.75C11470.2 1109.49 11469.8 1109.12 11469.6 1108.63C11469.3 1108.14 11469.2 1107.54 11469.2 1106.84C11469.2 1106.16 11469.3 1105.56 11469.5 1105.06C11469.8 1104.55 11470.1 1104.16 11470.5 1103.88C11471 1103.6 11471.5 1103.46 11472 1103.46ZM11472 1104.24C11471.5 1104.24 11471.1 1104.41 11470.8 1104.76C11470.4 1105.1 11470.3 1105.58 11470.2 1106.21H11473.7C11473.7 1105.82 11473.6 1105.48 11473.5 1105.19C11473.4 1104.89 11473.2 1104.66 11472.9 1104.49C11472.7 1104.32 11472.4 1104.24 11472 1104.24ZM11479.2 1103.47C11479.3 1103.47 11479.4 1103.48 11479.6 1103.5C11479.7 1103.5 11479.8 1103.52 11480 1103.54L11479.8 1104.42C11479.7 1104.39 11479.6 1104.36 11479.5 1104.35C11479.4 1104.33 11479.2 1104.32 11479.1 1104.32C11478.8 1104.32 11478.6 1104.38 11478.4 1104.49C11478.1 1104.6 11477.9 1104.74 11477.8 1104.94C11477.6 1105.13 11477.5 1105.36 11477.4 1105.63C11477.3 1105.9 11477.2 1106.21 11477.2 1106.54V1110H11476.3V1103.58H11477.1L11477.2 1104.77H11477.2C11477.3 1104.53 11477.5 1104.31 11477.7 1104.12C11477.9 1103.92 11478.1 1103.76 11478.3 1103.65C11478.6 1103.53 11478.9 1103.47 11479.2 1103.47ZM11484.2 1103.46C11484.9 1103.46 11485.5 1103.65 11485.9 1104.02C11486.3 1104.39 11486.5 1104.99 11486.5 1105.81V1110H11485.6V1105.88C11485.6 1105.33 11485.4 1104.92 11485.2 1104.66C11484.9 1104.4 11484.6 1104.26 11484.1 1104.26C11483.4 1104.26 11482.8 1104.46 11482.6 1104.86C11482.3 1105.26 11482.1 1105.85 11482.1 1106.62V1110H11481.2V1103.58H11481.9L11482.1 1104.53H11482.1C11482.3 1104.3 11482.4 1104.1 11482.6 1103.95C11482.9 1103.79 11483.1 1103.67 11483.4 1103.59C11483.6 1103.5 11483.9 1103.46 11484.2 1103.46ZM11490.9 1103.47C11491.7 1103.47 11492.2 1103.65 11492.6 1104C11493 1104.34 11493.1 1104.89 11493.1 1105.64V1110H11492.4L11492.3 1109.04H11492.2C11492.1 1109.27 11491.9 1109.47 11491.7 1109.64C11491.5 1109.8 11491.2 1109.92 11491 1110C11490.7 1110.08 11490.4 1110.12 11490 1110.12C11489.7 1110.12 11489.3 1110.05 11489 1109.92C11488.7 1109.78 11488.5 1109.57 11488.3 1109.29C11488.1 1109.01 11488 1108.66 11488 1108.25C11488 1107.61 11488.3 1107.12 11488.8 1106.77C11489.3 1106.43 11490.1 1106.24 11491.1 1106.21L11492.2 1106.16V1105.76C11492.2 1105.2 11492.1 1104.8 11491.9 1104.58C11491.6 1104.35 11491.3 1104.24 11490.8 1104.24C11490.5 1104.24 11490.2 1104.29 11489.9 1104.38C11489.6 1104.48 11489.3 1104.6 11489 1104.73L11488.7 1104.01C11489 1103.86 11489.3 1103.73 11489.7 1103.63C11490.1 1103.52 11490.5 1103.47 11490.9 1103.47ZM11491.2 1106.87C11490.4 1106.9 11489.9 1107.03 11489.5 1107.26C11489.2 1107.5 11489 1107.83 11489 1108.26C11489 1108.63 11489.1 1108.9 11489.3 1109.09C11489.6 1109.26 11489.9 1109.35 11490.2 1109.35C11490.8 1109.35 11491.3 1109.19 11491.7 1108.87C11492 1108.54 11492.2 1108.06 11492.2 1107.42V1106.83L11491.2 1106.87ZM11502.1 1103.46C11502.8 1103.46 11503.3 1103.64 11503.7 1104.01C11504 1104.38 11504.2 1104.97 11504.2 1105.79V1110H11503.3V1105.84C11503.3 1105.31 11503.2 1104.92 11502.9 1104.66C11502.7 1104.4 11502.4 1104.26 11501.9 1104.26C11501.3 1104.26 11500.9 1104.44 11500.6 1104.8C11500.3 1105.16 11500.1 1105.69 11500.1 1106.4V1110H11499.2V1105.84C11499.2 1105.48 11499.2 1105.19 11499.1 1104.96C11498.9 1104.72 11498.8 1104.54 11498.6 1104.43C11498.4 1104.32 11498.1 1104.26 11497.9 1104.26C11497.4 1104.26 11497.1 1104.35 11496.8 1104.53C11496.6 1104.7 11496.4 1104.96 11496.3 1105.31C11496.1 1105.64 11496.1 1106.07 11496.1 1106.58V1110H11495.1V1103.58H11495.9L11496 1104.5H11496.1C11496.2 1104.28 11496.4 1104.09 11496.6 1103.94C11496.8 1103.78 11497 1103.66 11497.2 1103.58C11497.5 1103.5 11497.7 1103.46 11498 1103.46C11498.5 1103.46 11498.9 1103.55 11499.2 1103.74C11499.6 1103.92 11499.8 1104.2 11500 1104.58H11500C11500.2 1104.21 11500.5 1103.93 11500.9 1103.75C11501.2 1103.56 11501.6 1103.46 11502.1 1103.46ZM11508.7 1103.46C11509.2 1103.46 11509.7 1103.58 11510.1 1103.83C11510.5 1104.07 11510.8 1104.41 11511 1104.85C11511.2 1105.28 11511.3 1105.79 11511.3 1106.38V1106.96H11506.8C11506.8 1107.72 11507 1108.31 11507.4 1108.72C11507.8 1109.12 11508.3 1109.32 11509 1109.32C11509.4 1109.32 11509.7 1109.28 11510 1109.21C11510.3 1109.13 11510.7 1109.02 11511 1108.87V1109.7C11510.7 1109.84 11510.4 1109.95 11510 1110.01C11509.7 1110.08 11509.3 1110.12 11508.9 1110.12C11508.3 1110.12 11507.7 1110 11507.3 1109.75C11506.8 1109.49 11506.5 1109.12 11506.2 1108.63C11506 1108.14 11505.9 1107.54 11505.9 1106.84C11505.9 1106.16 11506 1105.56 11506.2 1105.06C11506.4 1104.55 11506.8 1104.16 11507.2 1103.88C11507.6 1103.6 11508.1 1103.46 11508.7 1103.46ZM11508.7 1104.24C11508.1 1104.24 11507.7 1104.41 11507.4 1104.76C11507.1 1105.1 11506.9 1105.58 11506.9 1106.21H11510.3C11510.3 1105.82 11510.2 1105.48 11510.1 1105.19C11510 1104.89 11509.8 1104.66 11509.6 1104.49C11509.3 1104.32 11509 1104.24 11508.7 1104.24Z" fill="#1F1F1F" id="n389"/>
<path d="M11579 1061.5C11588.7 1061.5 11596.5 1069.34 11596.5 1079C11596.5 1088.66 11588.7 1096.5 11579 1096.5C11569.3 1096.5 11561.5 1088.66 11561.5 1079C11561.5 1069.34 11569.3 1061.5 11579 1061.5Z" fill="white" id="n390"/>
<path d="M11579 1061.5C11588.7 1061.5 11596.5 1069.34 11596.5 1079C11596.5 1088.66 11588.7 1096.5 11579 1096.5C11569.3 1096.5 11561.5 1088.66 11561.5 1079C11561.5 1069.34 11569.3 1061.5 11579 1061.5Z" stroke="#BEBEBE" id="n391"/>
<path d="M11577.5 1085L11576.1 1081.34H11571.5L11570.1 1085H11568.8L11573.3 1073.53H11574.4L11578.9 1085H11577.5ZM11574.4 1076.54C11574.3 1076.45 11574.3 1076.3 11574.2 1076.09C11574.1 1075.87 11574.1 1075.66 11574 1075.43C11573.9 1075.2 11573.9 1075.01 11573.8 1074.87C11573.8 1075.09 11573.7 1075.3 11573.7 1075.51C11573.6 1075.71 11573.5 1075.91 11573.5 1076.09C11573.4 1076.26 11573.4 1076.41 11573.3 1076.55L11572 1080.2H11575.7L11574.4 1076.54ZM11583.7 1073.58C11584.6 1073.58 11585.4 1073.67 11586.1 1073.86C11586.7 1074.05 11587.2 1074.34 11587.5 1074.76C11587.8 1075.17 11588 1075.71 11588 1076.39C11588 1076.84 11587.9 1077.24 11587.7 1077.59C11587.5 1077.94 11587.3 1078.24 11587 1078.47C11586.7 1078.7 11586.3 1078.85 11585.8 1078.94V1079.02C11586.3 1079.09 11586.7 1079.23 11587.1 1079.45C11587.5 1079.66 11587.8 1079.95 11588 1080.33C11588.2 1080.7 11588.3 1081.18 11588.3 1081.75C11588.3 1082.46 11588.2 1083.05 11587.8 1083.54C11587.5 1084.02 11587.1 1084.39 11586.5 1084.63C11585.9 1084.88 11585.2 1085 11584.3 1085H11580.5V1073.58H11583.7ZM11584 1078.49C11585 1078.49 11585.7 1078.33 11586 1078.01C11586.4 1077.68 11586.6 1077.19 11586.6 1076.54C11586.6 1075.87 11586.4 1075.4 11585.9 1075.11C11585.5 1074.82 11584.8 1074.68 11583.7 1074.68H11581.7V1078.49H11584ZM11581.7 1079.58V1083.91H11584.1C11585.2 1083.91 11585.9 1083.71 11586.3 1083.3C11586.8 1082.9 11587 1082.35 11587 1081.66C11587 1081.22 11586.9 1080.85 11586.7 1080.54C11586.5 1080.22 11586.2 1079.98 11585.7 1079.82C11585.3 1079.66 11584.7 1079.58 11584 1079.58H11581.7Z" fill="#535353" id="n392"/>
<path d="M11557.7 1106.98C11557.7 1107.58 11557.6 1108.13 11557.4 1108.61C11557.1 1109.08 11556.8 1109.45 11556.3 1109.72C11555.8 1109.99 11555.2 1110.12 11554.4 1110.12C11553.4 1110.12 11552.6 1109.84 11552 1109.27C11551.5 1108.69 11551.2 1107.92 11551.2 1106.95V1101.43H11552.2V1106.98C11552.2 1107.71 11552.3 1108.28 11552.7 1108.68C11553.1 1109.08 11553.7 1109.28 11554.5 1109.28C11555 1109.28 11555.4 1109.18 11555.8 1108.99C11556.1 1108.8 11556.4 1108.54 11556.5 1108.2C11556.7 1107.86 11556.8 1107.45 11556.8 1106.99V1101.43H11557.7V1106.98ZM11564 1108.25C11564 1108.66 11563.9 1109 11563.7 1109.28C11563.5 1109.55 11563.2 1109.76 11562.8 1109.9C11562.4 1110.05 11562 1110.12 11561.5 1110.12C11561 1110.12 11560.6 1110.08 11560.3 1110.01C11560 1109.94 11559.7 1109.84 11559.4 1109.71V1108.85C11559.7 1108.98 11560 1109.09 11560.4 1109.2C11560.7 1109.3 11561.1 1109.35 11561.5 1109.35C11562 1109.35 11562.4 1109.26 11562.7 1109.08C11563 1108.89 11563.1 1108.64 11563.1 1108.33C11563.1 1108.15 11563 1107.99 11562.9 1107.85C11562.8 1107.72 11562.7 1107.58 11562.4 1107.46C11562.2 1107.33 11561.9 1107.19 11561.4 1107.04C11561 1106.88 11560.7 1106.73 11560.4 1106.58C11560.1 1106.43 11559.9 1106.24 11559.7 1106.02C11559.5 1105.79 11559.5 1105.5 11559.5 1105.15C11559.5 1104.61 11559.7 1104.19 11560.1 1103.9C11560.5 1103.61 11561.1 1103.46 11561.8 1103.46C11562.2 1103.46 11562.6 1103.5 11562.9 1103.58C11563.3 1103.65 11563.6 1103.75 11563.9 1103.88L11563.5 1104.65C11563.4 1104.57 11563.2 1104.5 11563 1104.44C11562.8 1104.38 11562.6 1104.33 11562.4 1104.3C11562.2 1104.26 11562 1104.24 11561.8 1104.24C11561.3 1104.24 11561 1104.32 11560.7 1104.47C11560.5 1104.62 11560.4 1104.83 11560.4 1105.09C11560.4 1105.29 11560.4 1105.46 11560.5 1105.6C11560.6 1105.72 11560.8 1105.84 11561.1 1105.96C11561.3 1106.07 11561.6 1106.2 11562 1106.35C11562.4 1106.5 11562.8 1106.65 11563.1 1106.81C11563.4 1106.96 11563.6 1107.15 11563.8 1107.38C11563.9 1107.61 11564 1107.9 11564 1108.25ZM11568 1103.46C11568.6 1103.46 11569.1 1103.58 11569.4 1103.83C11569.8 1104.07 11570.1 1104.41 11570.3 1104.85C11570.5 1105.28 11570.6 1105.79 11570.6 1106.38V1106.96H11566.2C11566.2 1107.72 11566.4 1108.31 11566.7 1108.72C11567.1 1109.12 11567.6 1109.32 11568.3 1109.32C11568.7 1109.32 11569.1 1109.28 11569.4 1109.21C11569.7 1109.13 11570 1109.02 11570.3 1108.87V1109.7C11570 1109.84 11569.7 1109.95 11569.4 1110.01C11569.1 1110.08 11568.7 1110.12 11568.3 1110.12C11567.6 1110.12 11567.1 1110 11566.6 1109.75C11566.2 1109.49 11565.8 1109.12 11565.6 1108.63C11565.3 1108.14 11565.2 1107.54 11565.2 1106.84C11565.2 1106.16 11565.3 1105.56 11565.5 1105.06C11565.8 1104.55 11566.1 1104.16 11566.5 1103.88C11567 1103.6 11567.5 1103.46 11568 1103.46ZM11568 1104.24C11567.5 1104.24 11567.1 1104.41 11566.8 1104.76C11566.4 1105.1 11566.3 1105.58 11566.2 1106.21H11569.7C11569.7 1105.82 11569.6 1105.48 11569.5 1105.19C11569.4 1104.89 11569.2 1104.66 11568.9 1104.49C11568.7 1104.32 11568.4 1104.24 11568 1104.24ZM11575.2 1103.47C11575.3 1103.47 11575.4 1103.48 11575.6 1103.5C11575.7 1103.5 11575.8 1103.52 11576 1103.54L11575.8 1104.42C11575.7 1104.39 11575.6 1104.36 11575.5 1104.35C11575.4 1104.33 11575.2 1104.32 11575.1 1104.32C11574.8 1104.32 11574.6 1104.38 11574.4 1104.49C11574.1 1104.6 11573.9 1104.74 11573.8 1104.94C11573.6 1105.13 11573.5 1105.36 11573.4 1105.63C11573.3 1105.9 11573.2 1106.21 11573.2 1106.54V1110H11572.3V1103.58H11573.1L11573.2 1104.77H11573.2C11573.3 1104.53 11573.5 1104.31 11573.7 1104.12C11573.9 1103.92 11574.1 1103.76 11574.3 1103.65C11574.6 1103.53 11574.9 1103.47 11575.2 1103.47ZM11580.2 1103.46C11580.9 1103.46 11581.5 1103.65 11581.9 1104.02C11582.3 1104.39 11582.5 1104.99 11582.5 1105.81V1110H11581.6V1105.88C11581.6 1105.33 11581.4 1104.92 11581.2 1104.66C11580.9 1104.4 11580.6 1104.26 11580.1 1104.26C11579.4 1104.26 11578.8 1104.46 11578.6 1104.86C11578.3 1105.26 11578.1 1105.85 11578.1 1106.62V1110H11577.2V1103.58H11577.9L11578.1 1104.53H11578.1C11578.3 1104.3 11578.4 1104.1 11578.6 1103.95C11578.9 1103.79 11579.1 1103.67 11579.4 1103.59C11579.6 1103.5 11579.9 1103.46 11580.2 1103.46ZM11586.9 1103.47C11587.7 1103.47 11588.2 1103.65 11588.6 1104C11589 1104.34 11589.1 1104.89 11589.1 1105.64V1110H11588.4L11588.3 1109.04H11588.2C11588.1 1109.27 11587.9 1109.47 11587.7 1109.64C11587.5 1109.8 11587.2 1109.92 11587 1110C11586.7 1110.08 11586.4 1110.12 11586 1110.12C11585.7 1110.12 11585.3 1110.05 11585 1109.92C11584.7 1109.78 11584.5 1109.57 11584.3 1109.29C11584.1 1109.01 11584 1108.66 11584 1108.25C11584 1107.61 11584.3 1107.12 11584.8 1106.77C11585.3 1106.43 11586.1 1106.24 11587.1 1106.21L11588.2 1106.16V1105.76C11588.2 1105.2 11588.1 1104.8 11587.9 1104.58C11587.6 1104.35 11587.3 1104.24 11586.8 1104.24C11586.5 1104.24 11586.2 1104.29 11585.9 1104.38C11585.6 1104.48 11585.3 1104.6 11585 1104.73L11584.7 1104.01C11585 1103.86 11585.3 1103.73 11585.7 1103.63C11586.1 1103.52 11586.5 1103.47 11586.9 1103.47ZM11587.2 1106.87C11586.4 1106.9 11585.9 1107.03 11585.5 1107.26C11585.2 1107.5 11585 1107.83 11585 1108.26C11585 1108.63 11585.1 1108.9 11585.3 1109.09C11585.6 1109.26 11585.9 1109.35 11586.2 1109.35C11586.8 1109.35 11587.3 1109.19 11587.7 1108.87C11588 1108.54 11588.2 1108.06 11588.2 1107.42V1106.83L11587.2 1106.87ZM11598.1 1103.46C11598.8 1103.46 11599.3 1103.64 11599.7 1104.01C11600 1104.38 11600.2 1104.97 11600.2 1105.79V1110H11599.3V1105.84C11599.3 1105.31 11599.2 1104.92 11598.9 1104.66C11598.7 1104.4 11598.4 1104.26 11597.9 1104.26C11597.3 1104.26 11596.9 1104.44 11596.6 1104.8C11596.3 1105.16 11596.1 1105.69 11596.1 1106.4V1110H11595.2V1105.84C11595.2 1105.48 11595.2 1105.19 11595.1 1104.96C11594.9 1104.72 11594.8 1104.54 11594.6 1104.43C11594.4 1104.32 11594.1 1104.26 11593.9 1104.26C11593.4 1104.26 11593.1 1104.35 11592.8 1104.53C11592.6 1104.7 11592.4 1104.96 11592.3 1105.31C11592.1 1105.64 11592.1 1106.07 11592.1 1106.58V1110H11591.1V1103.58H11591.9L11592 1104.5H11592.1C11592.2 1104.28 11592.4 1104.09 11592.6 1103.94C11592.8 1103.78 11593 1103.66 11593.2 1103.58C11593.5 1103.5 11593.7 1103.46 11594 1103.46C11594.5 1103.46 11594.9 1103.55 11595.2 1103.74C11595.6 1103.92 11595.8 1104.2 11596 1104.58H11596C11596.2 1104.21 11596.5 1103.93 11596.9 1103.75C11597.2 1103.56 11597.6 1103.46 11598.1 1103.46ZM11604.7 1103.46C11605.2 1103.46 11605.7 1103.58 11606.1 1103.83C11606.5 1104.07 11606.8 1104.41 11607 1104.85C11607.2 1105.28 11607.3 1105.79 11607.3 1106.38V1106.96H11602.8C11602.8 1107.72 11603 1108.31 11603.4 1108.72C11603.8 1109.12 11604.3 1109.32 11605 1109.32C11605.4 1109.32 11605.7 1109.28 11606 1109.21C11606.3 1109.13 11606.7 1109.02 11607 1108.87V1109.7C11606.7 1109.84 11606.4 1109.95 11606 1110.01C11605.7 1110.08 11605.3 1110.12 11604.9 1110.12C11604.3 1110.12 11603.7 1110 11603.3 1109.75C11602.8 1109.49 11602.5 1109.12 11602.2 1108.63C11602 1108.14 11601.9 1107.54 11601.9 1106.84C11601.9 1106.16 11602 1105.56 11602.2 1105.06C11602.4 1104.55 11602.8 1104.16 11603.2 1103.88C11603.6 1103.6 11604.1 1103.46 11604.7 1103.46ZM11604.7 1104.24C11604.1 1104.24 11603.7 1104.41 11603.4 1104.76C11603.1 1105.1 11602.9 1105.58 11602.9 1106.21H11606.3C11606.3 1105.82 11606.2 1105.48 11606.1 1105.19C11606 1104.89 11605.8 1104.66 11605.6 1104.49C11605.3 1104.32 11605 1104.24 11604.7 1104.24Z" fill="#1F1F1F" id="n393"/>
<path d="M11675 1061.5C11684.7 1061.5 11692.5 1069.34 11692.5 1079C11692.5 1088.66 11684.7 1096.5 11675 1096.5C11665.3 1096.5 11657.5 1088.66 11657.5 1079C11657.5 1069.34 11665.3 1061.5 11675 1061.5Z" fill="white" id="n394"/>
<path d="M11675 1061.5C11684.7 1061.5 11692.5 1069.34 11692.5 1079C11692.5 1088.66 11684.7 1096.5 11675 1096.5C11665.3 1096.5 11657.5 1088.66 11657.5 1079C11657.5 1069.34 11665.3 1061.5 11675 1061.5Z" stroke="#BEBEBE" id="n395"/>
<path d="M11673.5 1085L11672.1 1081.34H11667.5L11666.1 1085H11664.8L11669.3 1073.53H11670.4L11674.9 1085H11673.5ZM11670.4 1076.54C11670.3 1076.45 11670.3 1076.3 11670.2 1076.09C11670.1 1075.87 11670.1 1075.66 11670 1075.43C11669.9 1075.2 11669.9 1075.01 11669.8 1074.87C11669.8 1075.09 11669.7 1075.3 11669.7 1075.51C11669.6 1075.71 11669.5 1075.91 11669.5 1076.09C11669.4 1076.26 11669.4 1076.41 11669.3 1076.55L11668 1080.2H11671.7L11670.4 1076.54ZM11679.7 1073.58C11680.6 1073.58 11681.4 1073.67 11682.1 1073.86C11682.7 1074.05 11683.2 1074.34 11683.5 1074.76C11683.8 1075.17 11684 1075.71 11684 1076.39C11684 1076.84 11683.9 1077.24 11683.7 1077.59C11683.5 1077.94 11683.3 1078.24 11683 1078.47C11682.7 1078.7 11682.3 1078.85 11681.8 1078.94V1079.02C11682.3 1079.09 11682.7 1079.23 11683.1 1079.45C11683.5 1079.66 11683.8 1079.95 11684 1080.33C11684.2 1080.7 11684.3 1081.18 11684.3 1081.75C11684.3 1082.46 11684.2 1083.05 11683.8 1083.54C11683.5 1084.02 11683.1 1084.39 11682.5 1084.63C11681.9 1084.88 11681.2 1085 11680.3 1085H11676.5V1073.58H11679.7ZM11680 1078.49C11681 1078.49 11681.7 1078.33 11682 1078.01C11682.4 1077.68 11682.6 1077.19 11682.6 1076.54C11682.6 1075.87 11682.4 1075.4 11681.9 1075.11C11681.5 1074.82 11680.8 1074.68 11679.7 1074.68H11677.7V1078.49H11680ZM11677.7 1079.58V1083.91H11680.1C11681.2 1083.91 11681.9 1083.71 11682.3 1083.3C11682.8 1082.9 11683 1082.35 11683 1081.66C11683 1081.22 11682.9 1080.85 11682.7 1080.54C11682.5 1080.22 11682.2 1079.98 11681.7 1079.82C11681.3 1079.66 11680.7 1079.58 11680 1079.58H11677.7Z" fill="#535353" id="n396"/>
<path d="M11653.7 1106.98C11653.7 1107.58 11653.6 1108.13 11653.4 1108.61C11653.1 1109.08 11652.8 1109.45 11652.3 1109.72C11651.8 1109.99 11651.2 1110.12 11650.4 1110.12C11649.4 1110.12 11648.6 1109.84 11648 1109.27C11647.5 1108.69 11647.2 1107.92 11647.2 1106.95V1101.43H11648.2V1106.98C11648.2 1107.71 11648.3 1108.28 11648.7 1108.68C11649.1 1109.08 11649.7 1109.28 11650.5 1109.28C11651 1109.28 11651.4 1109.18 11651.8 1108.99C11652.1 1108.8 11652.4 1108.54 11652.5 1108.2C11652.7 1107.86 11652.8 1107.45 11652.8 1106.99V1101.43H11653.7V1106.98ZM11660 1108.25C11660 1108.66 11659.9 1109 11659.7 1109.28C11659.5 1109.55 11659.2 1109.76 11658.8 1109.9C11658.4 1110.05 11658 1110.12 11657.5 1110.12C11657 1110.12 11656.6 1110.08 11656.3 1110.01C11656 1109.94 11655.7 1109.84 11655.4 1109.71V1108.85C11655.7 1108.98 11656 1109.09 11656.4 1109.2C11656.7 1109.3 11657.1 1109.35 11657.5 1109.35C11658 1109.35 11658.4 1109.26 11658.7 1109.08C11659 1108.89 11659.1 1108.64 11659.1 1108.33C11659.1 1108.15 11659 1107.99 11658.9 1107.85C11658.8 1107.72 11658.7 1107.58 11658.4 1107.46C11658.2 1107.33 11657.9 1107.19 11657.4 1107.04C11657 1106.88 11656.7 1106.73 11656.4 1106.58C11656.1 1106.43 11655.9 1106.24 11655.7 1106.02C11655.5 1105.79 11655.5 1105.5 11655.5 1105.15C11655.5 1104.61 11655.7 1104.19 11656.1 1103.9C11656.5 1103.61 11657.1 1103.46 11657.8 1103.46C11658.2 1103.46 11658.6 1103.5 11658.9 1103.58C11659.3 1103.65 11659.6 1103.75 11659.9 1103.88L11659.5 1104.65C11659.4 1104.57 11659.2 1104.5 11659 1104.44C11658.8 1104.38 11658.6 1104.33 11658.4 1104.3C11658.2 1104.26 11658 1104.24 11657.8 1104.24C11657.3 1104.24 11657 1104.32 11656.7 1104.47C11656.5 1104.62 11656.4 1104.83 11656.4 1105.09C11656.4 1105.29 11656.4 1105.46 11656.5 1105.6C11656.6 1105.72 11656.8 1105.84 11657.1 1105.96C11657.3 1106.07 11657.6 1106.2 11658 1106.35C11658.4 1106.5 11658.8 1106.65 11659.1 1106.81C11659.4 1106.96 11659.6 1107.15 11659.8 1107.38C11659.9 1107.61 11660 1107.9 11660 1108.25ZM11664 1103.46C11664.6 1103.46 11665.1 1103.58 11665.4 1103.83C11665.8 1104.07 11666.1 1104.41 11666.3 1104.85C11666.5 1105.28 11666.6 1105.79 11666.6 1106.38V1106.96H11662.2C11662.2 1107.72 11662.4 1108.31 11662.7 1108.72C11663.1 1109.12 11663.6 1109.32 11664.3 1109.32C11664.7 1109.32 11665.1 1109.28 11665.4 1109.21C11665.7 1109.13 11666 1109.02 11666.3 1108.87V1109.7C11666 1109.84 11665.7 1109.95 11665.4 1110.01C11665.1 1110.08 11664.7 1110.12 11664.3 1110.12C11663.6 1110.12 11663.1 1110 11662.6 1109.75C11662.2 1109.49 11661.8 1109.12 11661.6 1108.63C11661.3 1108.14 11661.2 1107.54 11661.2 1106.84C11661.2 1106.16 11661.3 1105.56 11661.5 1105.06C11661.8 1104.55 11662.1 1104.16 11662.5 1103.88C11663 1103.6 11663.5 1103.46 11664 1103.46ZM11664 1104.24C11663.5 1104.24 11663.1 1104.41 11662.8 1104.76C11662.4 1105.1 11662.3 1105.58 11662.2 1106.21H11665.7C11665.7 1105.82 11665.6 1105.48 11665.5 1105.19C11665.4 1104.89 11665.2 1104.66 11664.9 1104.49C11664.7 1104.32 11664.4 1104.24 11664 1104.24ZM11671.2 1103.47C11671.3 1103.47 11671.4 1103.48 11671.6 1103.5C11671.7 1103.5 11671.8 1103.52 11672 1103.54L11671.8 1104.42C11671.7 1104.39 11671.6 1104.36 11671.5 1104.35C11671.4 1104.33 11671.2 1104.32 11671.1 1104.32C11670.8 1104.32 11670.6 1104.38 11670.4 1104.49C11670.1 1104.6 11669.9 1104.74 11669.8 1104.94C11669.6 1105.13 11669.5 1105.36 11669.4 1105.63C11669.3 1105.9 11669.2 1106.21 11669.2 1106.54V1110H11668.3V1103.58H11669.1L11669.2 1104.77H11669.2C11669.3 1104.53 11669.5 1104.31 11669.7 1104.12C11669.9 1103.92 11670.1 1103.76 11670.3 1103.65C11670.6 1103.53 11670.9 1103.47 11671.2 1103.47ZM11676.2 1103.46C11676.9 1103.46 11677.5 1103.65 11677.9 1104.02C11678.3 1104.39 11678.5 1104.99 11678.5 1105.81V1110H11677.6V1105.88C11677.6 1105.33 11677.4 1104.92 11677.2 1104.66C11676.9 1104.4 11676.6 1104.26 11676.1 1104.26C11675.4 1104.26 11674.8 1104.46 11674.6 1104.86C11674.3 1105.26 11674.1 1105.85 11674.1 1106.62V1110H11673.2V1103.58H11673.9L11674.1 1104.53H11674.1C11674.3 1104.3 11674.4 1104.1 11674.6 1103.95C11674.9 1103.79 11675.1 1103.67 11675.4 1103.59C11675.6 1103.5 11675.9 1103.46 11676.2 1103.46ZM11682.9 1103.47C11683.7 1103.47 11684.2 1103.65 11684.6 1104C11685 1104.34 11685.1 1104.89 11685.1 1105.64V1110H11684.4L11684.3 1109.04H11684.2C11684.1 1109.27 11683.9 1109.47 11683.7 1109.64C11683.5 1109.8 11683.2 1109.92 11683 1110C11682.7 1110.08 11682.4 1110.12 11682 1110.12C11681.7 1110.12 11681.3 1110.05 11681 1109.92C11680.7 1109.78 11680.5 1109.57 11680.3 1109.29C11680.1 1109.01 11680 1108.66 11680 1108.25C11680 1107.61 11680.3 1107.12 11680.8 1106.77C11681.3 1106.43 11682.1 1106.24 11683.1 1106.21L11684.2 1106.16V1105.76C11684.2 1105.2 11684.1 1104.8 11683.9 1104.58C11683.6 1104.35 11683.3 1104.24 11682.8 1104.24C11682.5 1104.24 11682.2 1104.29 11681.9 1104.38C11681.6 1104.48 11681.3 1104.6 11681 1104.73L11680.7 1104.01C11681 1103.86 11681.3 1103.73 11681.7 1103.63C11682.1 1103.52 11682.5 1103.47 11682.9 1103.47ZM11683.2 1106.87C11682.4 1106.9 11681.9 1107.03 11681.5 1107.26C11681.2 1107.5 11681 1107.83 11681 1108.26C11681 1108.63 11681.1 1108.9 11681.3 1109.09C11681.6 1109.26 11681.9 1109.35 11682.2 1109.35C11682.8 1109.35 11683.3 1109.19 11683.7 1108.87C11684 1108.54 11684.2 1108.06 11684.2 1107.42V1106.83L11683.2 1106.87ZM11694.1 1103.46C11694.8 1103.46 11695.3 1103.64 11695.7 1104.01C11696 1104.38 11696.2 1104.97 11696.2 1105.79V1110H11695.3V1105.84C11695.3 1105.31 11695.2 1104.92 11694.9 1104.66C11694.7 1104.4 11694.4 1104.26 11693.9 1104.26C11693.3 1104.26 11692.9 1104.44 11692.6 1104.8C11692.3 1105.16 11692.1 1105.69 11692.1 1106.4V1110H11691.2V1105.84C11691.2 1105.48 11691.2 1105.19 11691.1 1104.96C11690.9 1104.72 11690.8 1104.54 11690.6 1104.43C11690.4 1104.32 11690.1 1104.26 11689.9 1104.26C11689.4 1104.26 11689.1 1104.35 11688.8 1104.53C11688.6 1104.7 11688.4 1104.96 11688.3 1105.31C11688.1 1105.64 11688.1 1106.07 11688.1 1106.58V1110H11687.1V1103.58H11687.9L11688 1104.5H11688.1C11688.2 1104.28 11688.4 1104.09 11688.6 1103.94C11688.8 1103.78 11689 1103.66 11689.2 1103.58C11689.5 1103.5 11689.7 1103.46 11690 1103.46C11690.5 1103.46 11690.9 1103.55 11691.2 1103.74C11691.6 1103.92 11691.8 1104.2 11692 1104.58H11692C11692.2 1104.21 11692.5 1103.93 11692.9 1103.75C11693.2 1103.56 11693.6 1103.46 11694.1 1103.46ZM11700.7 1103.46C11701.2 1103.46 11701.7 1103.58 11702.1 1103.83C11702.5 1104.07 11702.8 1104.41 11703 1104.85C11703.2 1105.28 11703.3 1105.79 11703.3 1106.38V1106.96H11698.8C11698.8 1107.72 11699 1108.31 11699.4 1108.72C11699.8 1109.12 11700.3 1109.32 11701 1109.32C11701.4 1109.32 11701.7 1109.28 11702 1109.21C11702.3 1109.13 11702.7 1109.02 11703 1108.87V1109.7C11702.7 1109.84 11702.4 1109.95 11702 1110.01C11701.7 1110.08 11701.3 1110.12 11700.9 1110.12C11700.3 1110.12 11699.7 1110 11699.3 1109.75C11698.8 1109.49 11698.5 1109.12 11698.2 1108.63C11698 1108.14 11697.9 1107.54 11697.9 1106.84C11697.9 1106.16 11698 1105.56 11698.2 1105.06C11698.4 1104.55 11698.8 1104.16 11699.2 1103.88C11699.6 1103.6 11700.1 1103.46 11700.7 1103.46ZM11700.7 1104.24C11700.1 1104.24 11699.7 1104.41 11699.4 1104.76C11699.1 1105.1 11698.9 1105.58 11698.9 1106.21H11702.3C11702.3 1105.82 11702.2 1105.48 11702.1 1105.19C11702 1104.89 11701.8 1104.66 11701.6 1104.49C11701.3 1104.32 11701 1104.24 11700.7 1104.24Z" fill="#1F1F1F" id="n397"/>
</g>
</g>
</g>
</svg>
