<?xml version='1.0' encoding='utf-8'?>
<svg xmlns="http://www.w3.org/2000/svg" xmlns:xlink="http://www.w3.org/1999/xlink" width="512.0" height="512.0" viewBox="0 0 512.0 512.0" fill="none">
  <defs><clipPath id="clip__asset"><rect x="0" y="0" width="512.0" height="512.0"/></clipPath><mask id="mask118_68_6728" style="mask-type:alpha" maskUnits="userSpaceOnUse" x="8396" y="1756" width="376" height="376">
<path d="M8764 1756C8768.42 1756 8772 1759.58 8772 1764V2124C8772 2128.42 8768.42 2132 8764 2132H8404C8399.58 2132 8396 2128.42 8396 2124V1764C8396 1759.58 8399.58 1756 8404 1756H8764ZM8412 1764C8407.58 1764 8404 1767.58 8404 1772V2116C8404 2120.42 8407.58 2124 8412 2124H8756C8760.42 2124 8764 2120.42 8764 2116V1772C8764 1767.58 8760.42 1764 8756 1764H8412Z" fill="#D9D9D9" id="n710"/>
</mask>
<mask id="mask119_68_6728" style="mask-type:alpha" maskUnits="userSpaceOnUse" x="8396" y="1756" width="376" height="376">
<path d="M8768 1756C8770.21 1756 8772 1757.79 8772 1760V2128C8772 2130.21 8770.21 2132 8768 2132H8400C8397.79 2132 8396 2130.21 8396 2128V1760C8396 1757.79 8397.79 1756 8400 1756H8768ZM8584 1780C8493.43 1780 8420 1853.43 8420 1944C8420 2034.57 8493.43 2108 8584 2108C8674.57 2108 8748 2034.57 8748 1944C8748 1853.43 8674.57 1780 8584 1780Z" fill="#D9D9D9" id="n713"/>
</mask>
</defs>
  <g clip-path="url(#clip__asset)" transform="translate(-8328.0 -1688.0)"><path d="M8768 1752C8772.42 1752 8776 1755.58 8776 1760V2128C8776 2132.42 8772.42 2136 8768 2136H8400C8395.58 2136 8392 2132.42 8392 2128V1760C8392 1755.58 8395.58 1752 8400 1752H8768Z" fill="white" id="n708"/>
<path d="M8776 1760H8776.5V1760H8776ZM8768 2136V2136.5V2136.5V2136ZM8392 2128H8391.5V2128H8392ZM8400 1752V1751.5V1751.5V1752ZM8768 1752V1752.5C8772.14 1752.5 8775.5 1755.86 8775.5 1760H8776H8776.5C8776.5 1755.31 8772.69 1751.5 8768 1751.5V1752ZM8776 1760H8775.5V2128H8776H8776.5V1760H8776ZM8776 2128H8775.5C8775.5 2132.14 8772.14 2135.5 8768 2135.5V2136V2136.5C8772.69 2136.5 8776.5 2132.69 8776.5 2128H8776ZM8768 2136V2135.5H8400V2136V2136.5H8768V2136ZM8400 2136V2135.5C8395.86 2135.5 8392.5 2132.14 8392.5 2128H8392H8391.5C8391.5 2132.69 8395.31 2136.5 8400 2136.5V2136ZM8392 2128H8392.5V1760H8392H8391.5V2128H8392ZM8392 1760H8392.5C8392.5 1755.86 8395.86 1752.5 8400 1752.5V1752V1751.5C8395.31 1751.5 8391.5 1755.31 8391.5 1760H8392ZM8400 1752V1752.5H8768V1752V1751.5H8400V1752Z" fill="#BEBEBE" id="n709"/>
<g mask="url(#mask118_68_6728)" id="n711">
<path d="M8584.01 1599L8584 1944.01M8584 1944.01L8584.01 2289M8584 1944.01L8547.94 1600.89M8584 1944.01L8620.07 2287.11M8584 1944.01L8477.39 1615.89M8584 1944.01L8690.61 2272.12M8584 1944.01L8443.68 1628.83M8584 1944.01L8724.33 2259.17M8584 1944.01L8411.5 1645.22M8584 1944.01L8756.5 2242.78M8584 1944.01L8381.22 1664.89M8584 1944.01L8786.79 2223.11M8584 1944.01L8353.15 1687.62M8584 1944.01L8814.85 2200.39M8584 1944.01L8327.61 1713.15M8584 1944.01L8840.38 2174.85M8584 1944.01L8304.89 1741.22M8584 1944.01L8863.11 2146.79M8584 1944.01L8285.22 1771.51M8584 1944.01L8882.78 2116.51M8584 1944.01L8268.83 1803.68M8584 1944.01L8899.17 2084.33M8584 1944.01L8255.89 1837.4M8584 1944.01L8912.11 2050.62M8584 1944.01L8246.54 1872.28M8584 1944.01L8921.46 2015.74M8584 1944.01L8240.89 1907.95M8584 1944.01L8927.11 1980.07M8584 1944.01L8239 1944.01M8584 1944.01L8929 1944.01M8584 1944.01L8240.89 1980.07M8584 1944.01L8927.11 1907.95M8584 1944.01L8246.54 2015.74M8584 1944.01L8921.46 1872.28M8584 1944.01L8255.89 2050.62M8584 1944.01L8912.12 1837.4M8584 1944.01L8268.83 2084.34M8584 1944.01L8899.17 1803.69M8584 1944.01L8285.22 2116.51M8584 1944.01L8882.78 1771.51M8584 1944.01L8304.89 2146.8M8584 1944.01L8863.11 1741.23M8584 1944.01L8327.62 2174.86M8584 1944.01L8840.39 1713.16M8584 1944.01L8353.15 2200.4M8584 1944.01L8814.85 1687.63M8584 1944.01L8381.22 2223.13M8584 1944.01L8786.79 1664.9M8584 1944.01L8411.5 2242.79M8584 1944.01L8756.5 1645.24M8584 1944.01L8443.68 2259.19M8584 1944.01L8724.33 1628.84M8584 1944.01L8477.4 2272.13M8584 1944.01L8690.62 1615.9M8584 1944.01L8512.28 2281.48M8584 1944.01L8655.74 1606.55M8584 1944.01L8512.28 1606.54M8584 1944.01L8655.73 2281.46M8584 1944.01L8547.95 2287.13M8584 1944.01L8620.07 1600.91" stroke="#BEBEBE" id="n712"/>
</g>
<g mask="url(#mask119_68_6728)" id="n714">
<path d="M8584 1694L8584 1944M8584 2194L8584 1944M8459 1727.49L8584 1944M8709 2160.51L8584 1944M8367.49 1819L8584 1944M8800.51 2069L8584 1944M8334 1944H8584M8834 1944L8584 1944M8367.49 2069L8584 1944M8800.51 1819L8584 1944M8459 2160.51L8584 1944M8709 1727.49L8584 1944" stroke="#BEBEBE" id="n715"/>
</g>
<rect x="8718.6" y="1865.13" width="2" height="156" rx="0.999999" transform="rotate(60 8718.6 1865.13)" fill="#535353" stroke="#535353" stroke-width="2" id="n716"/>
<rect x="8717.1" y="1862.53" width="8" height="132" rx="4" transform="rotate(60 8717.1 1862.53)" fill="white" stroke="#535353" stroke-width="4" id="n717"/>
<rect x="8585.46" y="1938.53" width="8" height="8" rx="4" transform="rotate(60 8585.46 1938.53)" fill="#535353" stroke="#535353" stroke-width="4" id="n718"/>
<rect x="8564.37" y="1930.15" width="2" height="24" rx="0.999999" transform="rotate(-52.4049 8564.37 1930.15)" fill="#535353" stroke="#535353" stroke-width="2" id="n719"/>
<rect x="8504.7" y="1887.99" width="8" height="73" rx="4" transform="rotate(-52.4049 8504.7 1887.99)" fill="#535353" stroke="#535353" stroke-width="4" id="n720"/>
<rect x="8578.39" y="1944.73" width="8" height="8" rx="4" transform="rotate(-52.4049 8578.39 1944.73)" fill="#535353" stroke="#535353" stroke-width="4" id="n721"/>
<rect x="8586.5" y="2101.49" width="5" height="175" rx="2.5" transform="rotate(-180 8586.5 2101.49)" fill="#2D548B" stroke="white" stroke-width="3" id="n722"/>
<rect x="8585" y="2099.99" width="2" height="172" rx="0.999999" transform="rotate(-180 8585 2099.99)" fill="#2D548B" stroke="#2D548B" stroke-width="2" id="n723"/>
<rect x="8590" y="1949.99" width="12" height="12" rx="6" transform="rotate(-180 8590 1949.99)" fill="white" stroke="#2D548B" stroke-width="4" id="n724"/>
<path d="M8580.44 1809H8579.21V1800.86C8579.21 1800.55 8579.21 1800.29 8579.21 1800.07C8579.22 1799.86 8579.23 1799.66 8579.23 1799.48C8579.24 1799.29 8579.25 1799.1 8579.26 1798.9C8579.1 1799.06 8578.95 1799.2 8578.81 1799.32C8578.67 1799.43 8578.5 1799.57 8578.3 1799.75L8576.96 1800.81L8576.3 1799.96L8579.39 1797.58H8580.44V1809ZM8592.26 1809H8584.8V1807.96L8587.87 1804.81C8588.44 1804.24 8588.91 1803.74 8589.3 1803.29C8589.69 1802.84 8589.99 1802.4 8590.19 1801.96C8590.39 1801.52 8590.5 1801.04 8590.5 1800.5C8590.5 1799.85 8590.3 1799.36 8589.9 1799.02C8589.52 1798.66 8589.01 1798.49 8588.38 1798.49C8587.84 1798.49 8587.35 1798.58 8586.93 1798.78C8586.5 1798.97 8586.07 1799.23 8585.63 1799.58L8584.96 1798.73C8585.26 1798.47 8585.58 1798.25 8585.94 1798.06C8586.3 1797.85 8586.68 1797.7 8587.09 1797.59C8587.5 1797.47 8587.94 1797.42 8588.38 1797.42C8589.08 1797.42 8589.67 1797.54 8590.18 1797.78C8590.69 1798.03 8591.08 1798.38 8591.36 1798.84C8591.64 1799.29 8591.78 1799.82 8591.78 1800.44C8591.78 1800.9 8591.71 1801.33 8591.57 1801.74C8591.44 1802.13 8591.25 1802.52 8590.99 1802.9C8590.75 1803.28 8590.44 1803.66 8590.08 1804.06C8589.73 1804.44 8589.34 1804.85 8588.91 1805.27L8586.38 1807.8V1807.85H8592.26V1809Z" fill="#707070" id="n725"/>
<path d="M8580.33 2086.12C8580.33 2085.42 8580.38 2084.74 8580.48 2084.09C8580.58 2083.43 8580.76 2082.81 8580.99 2082.25C8581.22 2081.68 8581.54 2081.19 8581.93 2080.76C8582.33 2080.33 8582.81 2080 8583.39 2079.77C8583.98 2079.53 8584.68 2079.42 8585.5 2079.42C8585.74 2079.42 8585.99 2079.43 8586.25 2079.45C8586.53 2079.47 8586.76 2079.51 8586.93 2079.56V2080.65C8586.73 2080.58 8586.52 2080.54 8586.27 2080.5C8586.02 2080.47 8585.77 2080.46 8585.52 2080.46C8584.8 2080.46 8584.2 2080.58 8583.69 2080.82C8583.2 2081.06 8582.81 2081.39 8582.51 2081.83C8582.21 2082.27 8581.99 2082.78 8581.84 2083.37C8581.7 2083.95 8581.61 2084.59 8581.58 2085.29H8581.68C8581.84 2085.03 8582.04 2084.8 8582.29 2084.58C8582.54 2084.36 8582.85 2084.18 8583.21 2084.06C8583.58 2083.93 8584 2083.86 8584.48 2083.86C8585.14 2083.86 8585.72 2084 8586.21 2084.28C8586.71 2084.56 8587.1 2084.95 8587.37 2085.46C8587.65 2085.98 8587.79 2086.6 8587.79 2087.34C8587.79 2088.11 8587.64 2088.79 8587.34 2089.37C8587.05 2089.94 8586.64 2090.39 8586.11 2090.7C8585.58 2091.01 8584.94 2091.16 8584.19 2091.16C8583.62 2091.16 8583.11 2091.05 8582.64 2090.84C8582.17 2090.63 8581.76 2090.31 8581.41 2089.88C8581.06 2089.45 8580.8 2088.93 8580.61 2088.3C8580.42 2087.67 8580.33 2086.94 8580.33 2086.12ZM8584.17 2090.09C8584.9 2090.09 8585.48 2089.86 8585.9 2089.42C8586.33 2088.96 8586.54 2088.26 8586.54 2087.34C8586.54 2086.58 8586.35 2085.98 8585.97 2085.54C8585.58 2085.1 8585.01 2084.87 8584.24 2084.87C8583.7 2084.87 8583.24 2084.98 8582.85 2085.19C8582.46 2085.41 8582.16 2085.68 8581.93 2086.01C8581.72 2086.34 8581.61 2086.67 8581.61 2087.02C8581.61 2087.37 8581.66 2087.73 8581.76 2088.09C8581.86 2088.44 8582.02 2088.77 8582.24 2089.08C8582.45 2089.38 8582.72 2089.62 8583.04 2089.82C8583.36 2090 8583.74 2090.09 8584.17 2090.09Z" fill="#707070" id="n726"/>
<path d="M8731.26 1941.23C8731.26 1941.74 8731.16 1942.19 8730.96 1942.58C8730.77 1942.95 8730.49 1943.25 8730.13 1943.49C8729.77 1943.72 8729.36 1943.89 8728.88 1943.98V1944.05C8729.78 1944.15 8730.47 1944.44 8730.93 1944.91C8731.38 1945.38 8731.61 1946 8731.61 1946.77C8731.61 1947.43 8731.46 1948.02 8731.15 1948.53C8730.84 1949.04 8730.37 1949.44 8729.73 1949.73C8729.1 1950.02 8728.29 1950.16 8727.29 1950.16C8726.69 1950.16 8726.12 1950.11 8725.6 1950.02C8725.09 1949.92 8724.6 1949.76 8724.14 1949.54V1948.35C8724.61 1948.58 8725.12 1948.76 8725.68 1948.9C8726.24 1949.02 8726.79 1949.09 8727.31 1949.09C8728.36 1949.09 8729.11 1948.88 8729.58 1948.46C8730.05 1948.05 8730.29 1947.48 8730.29 1946.75C8730.29 1946.24 8730.16 1945.83 8729.9 1945.54C8729.65 1945.23 8729.27 1945 8728.78 1944.86C8728.29 1944.71 8727.7 1944.64 8727.02 1944.64H8725.89V1943.55H8727.04C8727.66 1943.55 8728.18 1943.46 8728.61 1943.28C8729.04 1943.1 8729.38 1942.84 8729.61 1942.51C8729.85 1942.17 8729.97 1941.77 8729.97 1941.31C8729.97 1940.73 8729.77 1940.28 8729.37 1939.97C8728.99 1939.65 8728.46 1939.49 8727.79 1939.49C8727.38 1939.49 8727.01 1939.53 8726.67 1939.62C8726.34 1939.69 8726.02 1939.8 8725.73 1939.95C8725.44 1940.09 8725.14 1940.26 8724.85 1940.46L8724.22 1939.6C8724.51 1939.39 8724.83 1939.19 8725.18 1939.01C8725.54 1938.83 8725.94 1938.68 8726.37 1938.58C8726.8 1938.47 8727.27 1938.42 8727.77 1938.42C8728.94 1938.42 8729.81 1938.68 8730.38 1939.2C8730.97 1939.72 8731.26 1940.4 8731.26 1941.23Z" fill="#707070" id="n727"/>
<path d="M8443.69 1943.44C8443.69 1944.14 8443.64 1944.83 8443.53 1945.49C8443.44 1946.15 8443.27 1946.76 8443.04 1947.33C8442.8 1947.89 8442.49 1948.39 8442.09 1948.82C8441.7 1949.24 8441.21 1949.57 8440.62 1949.81C8440.04 1950.04 8439.33 1950.16 8438.51 1950.16C8438.29 1950.16 8438.03 1950.14 8437.74 1950.11C8437.45 1950.09 8437.22 1950.05 8437.04 1950V1948.91C8437.23 1948.98 8437.45 1949.03 8437.71 1949.07C8437.98 1949.1 8438.24 1949.12 8438.49 1949.12C8439.22 1949.12 8439.83 1949 8440.32 1948.77C8440.81 1948.52 8441.2 1948.19 8441.5 1947.76C8441.81 1947.32 8442.04 1946.81 8442.17 1946.22C8442.32 1945.63 8442.41 1944.98 8442.43 1944.29H8442.33C8442.18 1944.54 8441.98 1944.78 8441.73 1945.01C8441.47 1945.22 8441.16 1945.39 8440.8 1945.52C8440.44 1945.65 8440.01 1945.71 8439.52 1945.71C8438.86 1945.71 8438.28 1945.57 8437.77 1945.3C8437.28 1945.02 8436.9 1944.62 8436.64 1944.11C8436.37 1943.6 8436.24 1942.98 8436.24 1942.26C8436.24 1941.47 8436.39 1940.78 8436.69 1940.21C8436.98 1939.63 8437.4 1939.19 8437.93 1938.88C8438.48 1938.57 8439.12 1938.42 8439.85 1938.42C8440.42 1938.42 8440.94 1938.53 8441.41 1938.75C8441.88 1938.97 8442.28 1939.29 8442.62 1939.71C8442.96 1940.14 8443.22 1940.67 8443.41 1941.3C8443.6 1941.91 8443.69 1942.63 8443.69 1943.44ZM8439.85 1939.49C8439.14 1939.49 8438.56 1939.72 8438.13 1940.18C8437.7 1940.63 8437.49 1941.32 8437.49 1942.24C8437.49 1943.01 8437.67 1943.61 8438.05 1944.05C8438.42 1944.49 8439 1944.7 8439.77 1944.7C8440.32 1944.7 8440.78 1944.6 8441.17 1944.38C8441.56 1944.17 8441.86 1943.9 8442.08 1943.57C8442.3 1943.24 8442.41 1942.9 8442.41 1942.54C8442.41 1942.21 8442.36 1941.87 8442.25 1941.5C8442.16 1941.14 8442 1940.81 8441.79 1940.51C8441.59 1940.2 8441.32 1939.96 8440.99 1939.78C8440.67 1939.58 8440.29 1939.49 8439.85 1939.49Z" fill="#707070" id="n728"/>
<path d="M8459.84 1879.5L8458.6 1879.5L8458.6 1871.36C8458.6 1871.05 8458.6 1870.78 8458.6 1870.57C8458.61 1870.36 8458.62 1870.16 8458.62 1869.98C8458.63 1869.79 8458.64 1869.6 8458.65 1869.4C8458.49 1869.56 8458.34 1869.7 8458.2 1869.82C8458.07 1869.93 8457.89 1870.07 8457.69 1870.25L8456.35 1871.31L8455.69 1870.46L8458.78 1868.08L8459.84 1868.08L8459.84 1879.5ZM8471.73 1873.77C8471.73 1874.7 8471.65 1875.53 8471.5 1876.27C8471.37 1876.99 8471.15 1877.61 8470.85 1878.11C8470.55 1878.61 8470.16 1878.99 8469.68 1879.26C8469.2 1879.53 8468.62 1879.66 8467.95 1879.66C8467.12 1879.66 8466.42 1879.43 8465.86 1878.97C8465.3 1878.5 8464.89 1877.83 8464.61 1876.96C8464.34 1876.07 8464.21 1875.01 8464.21 1873.77C8464.21 1872.56 8464.33 1871.51 8464.58 1870.64C8464.82 1869.75 8465.22 1869.07 8465.78 1868.6C8466.33 1868.13 8467.06 1867.9 8467.95 1867.9C8468.82 1867.9 8469.53 1868.13 8470.08 1868.6C8470.63 1869.07 8471.05 1869.74 8471.31 1870.62C8471.59 1871.49 8471.73 1872.54 8471.73 1873.77ZM8465.47 1873.77C8465.47 1874.85 8465.55 1875.74 8465.71 1876.46C8465.88 1877.16 8466.15 1877.7 8466.51 1878.06C8466.87 1878.41 8467.35 1878.59 8467.95 1878.59C8468.55 1878.59 8469.03 1878.41 8469.39 1878.06C8469.75 1877.71 8470.02 1877.17 8470.19 1876.46C8470.36 1875.74 8470.45 1874.85 8470.45 1873.77C8470.45 1872.72 8470.36 1871.84 8470.19 1871.13C8470.03 1870.42 8469.77 1869.88 8469.41 1869.52C8469.06 1869.15 8468.57 1868.97 8467.95 1868.97C8467.34 1868.97 8466.86 1869.16 8466.5 1869.53C8466.13 1869.89 8465.87 1870.43 8465.71 1871.15C8465.55 1871.85 8465.47 1872.73 8465.47 1873.77Z" fill="#707070" id="n729"/>
<path d="M8707.38 2017.83L8705.65 2017.83L8705.65 2020.5L8704.43 2020.5L8704.43 2017.83L8698.88 2017.83L8698.88 2016.77L8704.34 2009.01L8705.65 2009.01L8705.65 2016.69L8707.38 2016.69L8707.38 2017.83ZM8704.43 2012.9C8704.43 2012.61 8704.43 2012.36 8704.43 2012.13C8704.43 2011.9 8704.44 2011.68 8704.45 2011.49C8704.46 2011.29 8704.47 2011.1 8704.47 2010.92C8704.48 2010.72 8704.49 2010.54 8704.5 2010.37L8704.43 2010.37C8704.34 2010.59 8704.23 2010.81 8704.1 2011.04C8703.97 2011.27 8703.84 2011.47 8703.7 2011.65L8700.13 2016.69L8704.43 2016.69L8704.43 2012.9Z" fill="#707070" id="n730"/>
<path d="M8658.52 1827.89L8657.29 1827.89L8657.29 1819.75C8657.29 1819.44 8657.29 1819.17 8657.29 1818.96C8657.3 1818.75 8657.31 1818.55 8657.31 1818.37C8657.32 1818.18 8657.33 1817.99 8657.34 1817.79C8657.18 1817.95 8657.03 1818.09 8656.89 1818.21C8656.75 1818.32 8656.58 1818.46 8656.38 1818.64L8655.04 1819.7L8654.38 1818.85L8657.47 1816.47L8658.52 1816.47L8658.52 1827.89Z" fill="#707070" id="n731"/>
<path d="M8508.21 2072.11L8512.92 2061.84L8506.66 2061.84L8506.66 2060.69L8514.26 2060.69L8514.26 2061.65L8509.6 2072.11L8508.21 2072.11Z" fill="#707070" id="n732"/>
<path d="M8511.45 1827.89H8510.21V1819.75C8510.21 1819.44 8510.21 1819.18 8510.21 1818.96C8510.22 1818.75 8510.23 1818.55 8510.23 1818.37C8510.24 1818.18 8510.25 1817.99 8510.26 1817.79C8510.1 1817.95 8509.95 1818.09 8509.81 1818.21C8509.68 1818.32 8509.5 1818.46 8509.3 1818.64L8507.96 1819.7L8507.3 1818.85L8510.39 1816.47H8511.45V1827.89ZM8520.6 1827.89H8519.37V1819.75C8519.37 1819.44 8519.37 1819.18 8519.37 1818.96C8519.38 1818.75 8519.39 1818.55 8519.39 1818.37C8519.4 1818.18 8519.41 1817.99 8519.42 1817.79C8519.26 1817.95 8519.11 1818.09 8518.97 1818.21C8518.83 1818.32 8518.66 1818.46 8518.46 1818.64L8517.11 1819.7L8516.46 1818.85L8519.55 1816.47H8520.6V1827.89Z" fill="#707070" id="n733"/>
<path d="M8657.32 2065.13C8658.1 2065.13 8658.77 2065.27 8659.34 2065.53C8659.92 2065.8 8660.36 2066.19 8660.67 2066.69C8660.98 2067.18 8661.13 2067.78 8661.13 2068.49C8661.13 2069.27 8660.96 2069.95 8660.62 2070.51C8660.29 2071.08 8659.8 2071.51 8659.16 2071.82C8658.53 2072.12 8657.78 2072.27 8656.91 2072.27C8656.31 2072.27 8655.76 2072.22 8655.24 2072.11C8654.74 2071.99 8654.32 2071.84 8653.96 2071.65V2070.45C8654.34 2070.67 8654.79 2070.85 8655.32 2070.99C8655.87 2071.13 8656.4 2071.2 8656.92 2071.2C8657.51 2071.2 8658.02 2071.1 8658.46 2070.91C8658.9 2070.72 8659.24 2070.43 8659.48 2070.05C8659.73 2069.66 8659.85 2069.18 8659.85 2068.61C8659.85 2067.84 8659.61 2067.25 8659.13 2066.83C8658.66 2066.4 8657.93 2066.19 8656.92 2066.19C8656.6 2066.19 8656.25 2066.22 8655.85 2066.29C8655.47 2066.34 8655.15 2066.4 8654.89 2066.46L8654.25 2066.05L8654.68 2060.69H8660.36V2061.84H8655.76L8655.47 2065.33C8655.66 2065.29 8655.92 2065.26 8656.24 2065.21C8656.56 2065.16 8656.92 2065.13 8657.32 2065.13Z" fill="#707070" id="n734"/>
<path d="M8712.79 1879.5H8705.33V1878.46L8708.4 1875.31C8708.97 1874.74 8709.44 1874.24 8709.83 1873.79C8710.22 1873.34 8710.52 1872.9 8710.72 1872.46C8710.93 1872.02 8711.03 1871.54 8711.03 1871C8711.03 1870.35 8710.83 1869.86 8710.43 1869.52C8710.05 1869.16 8709.54 1868.99 8708.91 1868.99C8708.37 1868.99 8707.89 1869.08 8707.46 1869.28C8707.03 1869.47 8706.6 1869.73 8706.16 1870.08L8705.49 1869.23C8705.79 1868.97 8706.11 1868.75 8706.47 1868.56C8706.83 1868.35 8707.21 1868.2 8707.62 1868.09C8708.03 1867.97 8708.47 1867.92 8708.91 1867.92C8709.61 1867.92 8710.21 1868.04 8710.71 1868.28C8711.22 1868.53 8711.61 1868.88 8711.89 1869.34C8712.17 1869.79 8712.31 1870.32 8712.31 1870.94C8712.31 1871.4 8712.24 1871.83 8712.1 1872.24C8711.97 1872.63 8711.78 1873.02 8711.52 1873.4C8711.28 1873.78 8710.97 1874.16 8710.61 1874.56C8710.26 1874.94 8709.87 1875.35 8709.44 1875.77L8706.91 1878.3V1878.35H8712.79V1879.5Z" fill="#707070" id="n735"/>
<path d="M8458.87 2008.92C8459.54 2008.92 8460.12 2009.02 8460.62 2009.24C8461.13 2009.44 8461.53 2009.74 8461.82 2010.15C8462.11 2010.55 8462.25 2011.05 8462.25 2011.64C8462.25 2012.1 8462.15 2012.5 8461.95 2012.84C8461.75 2013.18 8461.49 2013.48 8461.15 2013.75C8460.8 2014 8460.43 2014.23 8460.01 2014.44C8460.5 2014.66 8460.94 2014.92 8461.34 2015.2C8461.73 2015.48 8462.04 2015.81 8462.27 2016.2C8462.5 2016.57 8462.62 2017.02 8462.62 2017.56C8462.62 2018.2 8462.46 2018.75 8462.15 2019.2C8461.84 2019.66 8461.41 2020.02 8460.84 2020.28C8460.29 2020.53 8459.64 2020.66 8458.91 2020.66C8458.11 2020.66 8457.42 2020.54 8456.86 2020.29C8456.29 2020.05 8455.86 2019.7 8455.56 2019.25C8455.27 2018.79 8455.13 2018.24 8455.13 2017.6C8455.13 2017.07 8455.24 2016.61 8455.47 2016.23C8455.69 2015.83 8455.99 2015.5 8456.36 2015.22C8456.75 2014.94 8457.16 2014.71 8457.59 2014.52C8457.21 2014.3 8456.86 2014.06 8456.54 2013.8C8456.22 2013.53 8455.96 2013.22 8455.77 2012.87C8455.59 2012.52 8455.5 2012.1 8455.5 2011.62C8455.5 2011.04 8455.64 2010.56 8455.93 2010.16C8456.23 2009.76 8456.63 2009.45 8457.13 2009.24C8457.64 2009.02 8458.22 2008.92 8458.87 2008.92ZM8456.36 2017.62C8456.36 2018.21 8456.57 2018.69 8456.99 2019.08C8457.41 2019.46 8458.04 2019.65 8458.87 2019.65C8459.41 2019.65 8459.86 2019.57 8460.23 2019.4C8460.61 2019.22 8460.89 2018.97 8461.08 2018.66C8461.28 2018.34 8461.39 2017.97 8461.39 2017.56C8461.39 2017.17 8461.28 2016.84 8461.08 2016.55C8460.89 2016.25 8460.61 2015.99 8460.25 2015.76C8459.89 2015.53 8459.45 2015.32 8458.94 2015.14L8458.67 2015.03C8458.18 2015.23 8457.76 2015.46 8457.42 2015.7C8457.08 2015.94 8456.82 2016.21 8456.63 2016.52C8456.45 2016.83 8456.36 2017.19 8456.36 2017.62ZM8458.86 2009.94C8458.24 2009.94 8457.73 2010.09 8457.32 2010.39C8456.93 2010.69 8456.73 2011.12 8456.73 2011.68C8456.73 2012.08 8456.83 2012.42 8457.02 2012.69C8457.22 2012.97 8457.49 2013.2 8457.82 2013.4C8458.15 2013.59 8458.52 2013.78 8458.94 2013.96C8459.34 2013.79 8459.7 2013.6 8459.99 2013.4C8460.3 2013.19 8460.55 2012.95 8460.73 2012.68C8460.91 2012.4 8461 2012.06 8461 2011.67C8461 2011.1 8460.8 2010.68 8460.41 2010.39C8460.03 2010.09 8459.51 2009.94 8458.86 2009.94Z" fill="#707070" id="n736"/>
</g>
</svg>
