<?xml version='1.0' encoding='utf-8'?>
<svg xmlns="http://www.w3.org/2000/svg" xmlns:xlink="http://www.w3.org/1999/xlink" width="384.0" height="168.0" viewBox="0 0 384.0 168.0" fill="none">
  <defs><clipPath id="clip__asset"><rect x="0" y="0" width="384.0" height="168.0"/></clipPath><mask id="mask8_68_6728" style="mask-type:luminance" maskUnits="userSpaceOnUse" x="2451" y="1073" width="512" height="26">
<path d="M2539 1086.8C2539 1082.32 2539 1080.08 2539.87 1078.37C2540.64 1076.86 2541.86 1075.64 2543.37 1074.87C2545.08 1074 2547.32 1074 2551.8 1074H2862.2C2866.68 1074 2868.92 1074 2870.63 1074.87C2872.14 1075.64 2873.36 1076.86 2874.13 1078.37C2875 1080.08 2875 1082.32 2875 1086.8V1098H2539V1086.8Z" fill="white" stroke="black" id="n89"/>
</mask>
<mask id="mask10_68_6728" style="mask-type:alpha" maskUnits="userSpaceOnUse" x="2451" y="1097" width="512" height="50">
<rect x="2539" y="1098" width="336" height="48" fill="white" stroke="black" id="n103"/>
</mask>
<mask id="mask11_68_6728" style="mask-type:luminance" maskUnits="userSpaceOnUse" x="2706" y="1150" width="82" height="16">
<path d="M2707 1150H2787V1166H2707V1150Z" fill="white" id="n107"/>
<path d="M2787 1150H2786.5V1166H2787H2787.5V1150H2787ZM2707 1166H2707.5V1150H2707H2706.5V1166H2707Z" fill="black" id="n108"/>
</mask>
<clipPath id="clip1_68_6728">
<rect width="26" height="16" fill="white" transform="translate(2680 1212)" id="n2780"/>
</clipPath>
<clipPath id="clip2_68_6728">
<rect width="24" height="16" fill="white" transform="translate(2710 1212)" id="n2781"/>
</clipPath>
</defs>
  <g clip-path="url(#clip__asset)" transform="translate(-2515.0 -1066.0)"><path d="M2539 1086.8C2539 1082.32 2539 1080.08 2539.87 1078.37C2540.64 1076.86 2541.86 1075.64 2543.37 1074.87C2545.08 1074 2547.32 1074 2551.8 1074H2862.2C2866.68 1074 2868.92 1074 2870.63 1074.87C2872.14 1075.64 2873.36 1076.86 2874.13 1078.37C2875 1080.08 2875 1082.32 2875 1086.8V1157.2C2875 1161.68 2875 1163.92 2874.13 1165.63C2873.36 1167.14 2872.14 1168.36 2870.63 1169.13C2868.92 1170 2866.68 1170 2862.2 1170H2551.8C2547.32 1170 2545.08 1170 2543.37 1169.13C2541.86 1168.36 2540.64 1167.14 2539.87 1165.63C2539 1163.92 2539 1161.68 2539 1157.2V1086.8Z" fill="white" stroke="white" id="n85"/>
<path d="M2539 1098H2875V1146H2539V1098Z" fill="#F0F0F0" stroke="#F0F0F0" id="n86"/>
<path d="M2539 1086.8C2539 1082.32 2539 1080.08 2539.87 1078.37C2540.64 1076.86 2541.86 1075.64 2543.37 1074.87C2545.08 1074 2547.32 1074 2551.8 1074H2862.2C2866.68 1074 2868.92 1074 2870.63 1074.87C2872.14 1075.64 2873.36 1076.86 2874.13 1078.37C2875 1080.08 2875 1082.32 2875 1086.8V1157.2C2875 1161.68 2875 1163.92 2874.13 1165.63C2873.36 1167.14 2872.14 1168.36 2870.63 1169.13C2868.92 1170 2866.68 1170 2862.2 1170H2551.8C2547.32 1170 2545.08 1170 2543.37 1169.13C2541.86 1168.36 2540.64 1167.14 2539.87 1165.63C2539 1163.92 2539 1161.68 2539 1157.2V1086.8Z" stroke="#BEBEBE" id="n87"/>
<path d="M2707 1074V1170" stroke="#BEBEBE" stroke-linecap="square" id="n88"/>
<g mask="url(#mask8_68_6728)" id="n90">
<path d="M2539 1086V1094M2548.33 1086V1094M2557.67 1086V1094M2567 1086V1094M2576.33 1086V1094M2585.67 1086V1094M2595 1086V1094M2604.33 1086V1094M2613.67 1086V1094M2623 1086V1094M2632.33 1086V1094M2641.67 1086V1094M2651 1086V1094M2660.33 1086V1094M2669.67 1086V1094M2679 1086V1094M2688.33 1086V1094M2697.67 1086V1094M2707 1086V1094M2716.33 1086V1094M2725.67 1086V1094M2735 1086V1094M2744.33 1086V1094M2753.67 1086V1094M2763 1086V1094M2772.33 1086V1094M2781.67 1086V1094M2791 1086V1094M2800.33 1086V1094M2809.67 1086V1094M2819 1086V1094M2828.33 1086V1094M2837.67 1086V1094M2847 1086V1094M2856.33 1086V1094M2865.67 1086V1094M2875 1086V1094M2884.33 1086V1094M2893.67 1086V1094M2903 1086V1094M2912.33 1086V1094M2921.67 1086V1094M2931 1086V1094M2940.33 1086V1094M2949.67 1086V1094M2959 1086V1094M2968.33 1086V1094M2977.67 1086V1094M2987 1086V1094M2996.33 1086V1094M3005.67 1086V1094M3015 1086V1094M3024.33 1086V1094M3033.67 1086V1094M3043 1086V1094M3052.33 1086V1094M3061.67 1086V1094M3071 1086V1094M3080.33 1086V1094M3089.67 1086V1094M3099 1086V1094M3108.33 1086V1094M3117.67 1086V1094M3127 1086V1094M3136.33 1086V1094M3145.67 1086V1094M3155 1086V1094M3164.33 1086V1094M3173.67 1086V1094M3183 1086V1094M3192.33 1086V1094M3201.67 1086V1094M3211 1086V1094" stroke="#BEBEBE" id="n91"/>
<path d="M2539 1070V1094M2623 1070V1094M2707 1070V1094M2791 1070V1094M2875 1070V1094M2959 1070V1094M3043 1070V1094M3127 1070V1094M3211 1070V1094" stroke="#BEBEBE" id="n92"/>
<path d="M2539 1070V1098M2707 1070V1098M2875 1070V1098M3043 1070V1098M3211 1070V1098" stroke="#BEBEBE" id="n93"/>
</g>
<path d="M2543.68 1186.19V1185.35H2546.58V1186.19H2543.68ZM2553.7 1187H2552.41V1189H2551.49V1187H2547.33V1186.2L2551.42 1180.38H2552.41V1186.14H2553.7V1187ZM2551.49 1183.3C2551.49 1183.08 2551.49 1182.89 2551.49 1182.72C2551.49 1182.55 2551.5 1182.39 2551.51 1182.24C2551.51 1182.09 2551.52 1181.95 2551.52 1181.81C2551.53 1181.67 2551.53 1181.53 2551.54 1181.4H2551.49C2551.42 1181.56 2551.34 1181.73 2551.24 1181.91C2551.15 1182.08 2551.05 1182.23 2550.94 1182.36L2548.27 1186.14H2551.49V1183.3ZM2557.23 1183.77C2557.82 1183.77 2558.32 1183.87 2558.75 1184.07C2559.18 1184.27 2559.51 1184.56 2559.74 1184.93C2559.97 1185.3 2560.09 1185.75 2560.09 1186.29C2560.09 1186.87 2559.96 1187.38 2559.71 1187.8C2559.46 1188.22 2559.09 1188.55 2558.61 1188.78C2558.14 1189.01 2557.58 1189.12 2556.92 1189.12C2556.47 1189.12 2556.06 1189.08 2555.67 1189C2555.3 1188.91 2554.98 1188.8 2554.71 1188.65V1187.75C2554.99 1187.92 2555.33 1188.06 2555.73 1188.16C2556.14 1188.26 2556.54 1188.32 2556.93 1188.32C2557.37 1188.32 2557.76 1188.24 2558.09 1188.1C2558.41 1187.96 2558.67 1187.74 2558.85 1187.45C2559.04 1187.16 2559.13 1186.8 2559.13 1186.37C2559.13 1185.8 2558.95 1185.35 2558.59 1185.04C2558.24 1184.72 2557.69 1184.56 2556.93 1184.56C2556.69 1184.56 2556.43 1184.58 2556.13 1184.63C2555.84 1184.67 2555.6 1184.72 2555.41 1184.76L2554.93 1184.45L2555.25 1180.43H2559.51V1181.3H2556.06L2555.84 1183.91C2555.99 1183.89 2556.18 1183.86 2556.42 1183.83C2556.66 1183.79 2556.93 1183.77 2557.23 1183.77Z" fill="#707070" id="n101"/>
<path d="M2863.77 1187H2862.47V1189H2861.56V1187H2857.4V1186.2L2861.49 1180.38H2862.47V1186.14H2863.77V1187ZM2861.56 1183.3C2861.56 1183.08 2861.56 1182.89 2861.56 1182.72C2861.56 1182.55 2861.56 1182.39 2861.57 1182.24C2861.58 1182.09 2861.58 1181.95 2861.58 1181.81C2861.59 1181.67 2861.6 1181.53 2861.61 1181.4H2861.56C2861.49 1181.56 2861.4 1181.73 2861.31 1181.91C2861.21 1182.08 2861.11 1182.23 2861.01 1182.36L2858.33 1186.14H2861.56V1183.3ZM2867.3 1183.77C2867.88 1183.77 2868.39 1183.87 2868.81 1184.07C2869.24 1184.27 2869.58 1184.56 2869.81 1184.93C2870.04 1185.3 2870.16 1185.75 2870.16 1186.29C2870.16 1186.87 2870.03 1187.38 2869.77 1187.8C2869.52 1188.22 2869.16 1188.55 2868.68 1188.78C2868.21 1189.01 2867.64 1189.12 2866.99 1189.12C2866.54 1189.12 2866.12 1189.08 2865.74 1189C2865.36 1188.91 2865.04 1188.8 2864.78 1188.65V1187.75C2865.06 1187.92 2865.4 1188.06 2865.8 1188.16C2866.21 1188.26 2866.61 1188.32 2867 1188.32C2867.44 1188.32 2867.82 1188.24 2868.15 1188.1C2868.48 1187.96 2868.74 1187.74 2868.92 1187.45C2869.1 1187.16 2869.2 1186.8 2869.2 1186.37C2869.2 1185.8 2869.02 1185.35 2868.66 1185.04C2868.3 1184.72 2867.75 1184.56 2867 1184.56C2866.76 1184.56 2866.49 1184.58 2866.2 1184.63C2865.91 1184.67 2865.67 1184.72 2865.48 1184.76L2865 1184.45L2865.32 1180.43H2869.58V1181.3H2866.12L2865.91 1183.91C2866.05 1183.89 2866.24 1183.86 2866.48 1183.83C2866.72 1183.79 2867 1183.77 2867.3 1183.77Z" fill="#707070" id="n102"/>
<g mask="url(#mask10_68_6728)" id="n104">
<path d="M2655.2 1102.43C2655.71 1101.19 2657.49 1101.19 2658 1102.43L2672.91 1139.09C2673.82 1141.33 2671.31 1143.35 2669.28 1142.13V1142.13L2656.6 1134.58L2643.92 1142.13C2641.89 1143.35 2639.38 1141.33 2640.29 1139.09L2655.2 1102.43ZM2647.76 1134L2656.35 1128.9L2656.6 1128.75L2656.85 1128.9L2665.44 1134L2656.6 1112.27L2647.76 1134Z" fill="#535353" stroke="#F7F7F7" id="n105"/>
<path d="M2705.6 1102.43C2706.11 1101.19 2707.89 1101.19 2708.4 1102.43L2723.31 1139.09C2724.22 1141.33 2721.71 1143.35 2719.68 1142.13V1142.13L2707 1134.58L2694.32 1142.13C2692.29 1143.35 2689.78 1141.33 2690.69 1139.09L2705.6 1102.43Z" fill="#535353" stroke="#F7F7F7" id="n106"/>
</g>
<g mask="url(#mask11_68_6728)" id="n109">
<rect x="2707" y="1150" width="160" height="16" fill="#535353" id="n110"/>
<path d="M2049 1162C2051.21 1162 2053 1160.21 2053 1158C2053 1155.79 2051.21 1154 2049 1154C2046.79 1154 2045 1155.79 2045 1158C2045 1160.21 2046.79 1162 2049 1162Z" fill="#BEBEBE" id="n111"/>
<path d="M2185 1162C2187.21 1162 2189 1160.21 2189 1158C2189 1155.79 2187.21 1154 2185 1154C2182.79 1154 2181 1155.79 2181 1158C2181 1160.21 2182.79 1162 2185 1162Z" fill="#BEBEBE" id="n112"/>
<path d="M2325 1158C2325 1160.21 2323.21 1162 2321 1162C2318.79 1162 2317 1160.21 2317 1158C2317 1155.79 2318.79 1154 2321 1154C2323.21 1154 2325 1155.79 2325 1158Z" fill="#BEBEBE" id="n113"/>
<path d="M2457 1162C2459.21 1162 2461 1160.21 2461 1158C2461 1155.79 2459.21 1154 2457 1154C2454.79 1154 2453 1155.79 2453 1158C2453 1160.21 2454.79 1162 2457 1162Z" fill="#BEBEBE" id="n114"/>
<path d="M2597 1158C2597 1160.21 2595.21 1162 2593 1162C2590.79 1162 2589 1160.21 2589 1158C2589 1155.79 2590.79 1154 2593 1154C2595.21 1154 2597 1155.79 2597 1158Z" fill="#BEBEBE" id="n115"/>
<path d="M2729 1162C2731.21 1162 2733 1160.21 2733 1158C2733 1155.79 2731.21 1154 2729 1154C2726.79 1154 2725 1155.79 2725 1158C2725 1160.21 2726.79 1162 2729 1162Z" fill="#BEBEBE" id="n116"/>
<path d="M2869 1158C2869 1160.21 2867.21 1162 2865 1162C2862.79 1162 2861 1160.21 2861 1158C2861 1155.79 2862.79 1154 2865 1154C2867.21 1154 2869 1155.79 2869 1158Z" fill="#BEBEBE" id="n117"/>
<path d="M3001 1162C3003.21 1162 3005 1160.21 3005 1158C3005 1155.79 3003.21 1154 3001 1154C2998.79 1154 2997 1155.79 2997 1158C2997 1160.21 2998.79 1162 3001 1162Z" fill="#BEBEBE" id="n118"/>
<path d="M3141 1158C3141 1160.21 3139.21 1162 3137 1162C3134.79 1162 3133 1160.21 3133 1158C3133 1155.79 3134.79 1154 3137 1154C3139.21 1154 3141 1155.79 3141 1158Z" fill="#BEBEBE" id="n119"/>
<path d="M3273 1162C3275.21 1162 3277 1160.21 3277 1158C3277 1155.79 3275.21 1154 3273 1154C3270.79 1154 3269 1155.79 3269 1158C3269 1160.21 3270.79 1162 3273 1162Z" fill="#BEBEBE" id="n120"/>
</g>
<circle cx="2786" cy="1158" r="8" fill="#535353" id="n121"/>
<circle cx="2786" cy="1158" r="4" fill="#F7F7F7" id="n122"/>
<path d="M2691.09 1206H2687.01V1190.56C2687.01 1190.04 2687.01 1189.53 2687.01 1189.03C2687.03 1188.51 2687.06 1188 2687.08 1187.5C2687.1 1186.98 2687.12 1186.5 2687.15 1186.04C2686.92 1186.29 2686.64 1186.57 2686.3 1186.89C2685.96 1187.19 2685.6 1187.49 2685.24 1187.81L2682.52 1189.99L2680.48 1187.4L2687.72 1181.72H2691.09V1206ZM2714.98 1206H2698.45V1202.94L2704.68 1196.65C2705.9 1195.4 2706.9 1194.34 2707.67 1193.45C2708.46 1192.55 2709.05 1191.7 2709.44 1190.9C2709.82 1190.11 2710.01 1189.24 2710.01 1188.29C2710.01 1187.15 2709.68 1186.3 2709.03 1185.74C2708.37 1185.15 2707.51 1184.85 2706.44 1184.85C2705.38 1184.85 2704.4 1185.07 2703.52 1185.5C2702.64 1185.91 2701.72 1186.48 2700.77 1187.23L2698.56 1184.55C2699.21 1183.98 2699.93 1183.46 2700.7 1182.98C2701.47 1182.51 2702.33 1182.12 2703.28 1181.83C2704.26 1181.53 2705.37 1181.38 2706.61 1181.38C2708.18 1181.38 2709.51 1181.67 2710.63 1182.23C2711.76 1182.78 2712.63 1183.54 2713.24 1184.51C2713.86 1185.49 2714.16 1186.62 2714.16 1187.91C2714.16 1188.89 2714 1189.8 2713.69 1190.67C2713.39 1191.53 2712.96 1192.37 2712.39 1193.18C2711.85 1193.98 2711.17 1194.8 2710.35 1195.66C2709.54 1196.5 2708.63 1197.4 2707.63 1198.35L2703.59 1202.26V1202.43H2714.98V1206ZM2732.98 1187.27C2732.98 1188.38 2732.77 1189.34 2732.34 1190.16C2731.91 1190.95 2731.3 1191.61 2730.53 1192.13C2729.76 1192.63 2728.87 1192.99 2727.85 1193.22V1193.32C2729.8 1193.54 2731.26 1194.15 2732.23 1195.12C2733.23 1196.09 2733.73 1197.39 2733.73 1199C2733.73 1200.4 2733.39 1201.66 2732.71 1202.77C2732.03 1203.88 2730.99 1204.75 2729.58 1205.39C2728.18 1206.02 2726.37 1206.34 2724.18 1206.34C2722.86 1206.34 2721.64 1206.23 2720.5 1206C2719.39 1205.8 2718.33 1205.47 2717.31 1205.01V1201.41C2718.35 1201.91 2719.45 1202.31 2720.61 1202.6C2721.76 1202.87 2722.86 1203.01 2723.9 1203.01C2725.9 1203.01 2727.32 1202.65 2728.15 1201.92C2728.99 1201.17 2729.41 1200.14 2729.41 1198.83C2729.41 1197.99 2729.2 1197.3 2728.77 1196.75C2728.34 1196.21 2727.66 1195.81 2726.73 1195.56C2725.8 1195.29 2724.6 1195.15 2723.12 1195.15H2721.05V1191.86H2723.16C2724.58 1191.86 2725.71 1191.7 2726.52 1191.38C2727.36 1191.04 2727.96 1190.58 2728.32 1189.99C2728.71 1189.4 2728.9 1188.72 2728.9 1187.95C2728.9 1186.95 2728.57 1186.17 2727.92 1185.6C2727.26 1185.03 2726.28 1184.75 2724.99 1184.75C2724.18 1184.75 2723.43 1184.84 2722.75 1185.02C2722.09 1185.2 2721.48 1185.44 2720.91 1185.74C2720.37 1186.03 2719.85 1186.34 2719.35 1186.65L2717.41 1183.83C2718.02 1183.38 2718.71 1182.97 2719.48 1182.61C2720.25 1182.22 2721.1 1181.93 2722.03 1181.72C2722.99 1181.5 2724.03 1181.38 2725.16 1181.38C2727.68 1181.38 2729.6 1181.92 2730.94 1182.98C2732.3 1184.05 2732.98 1185.48 2732.98 1187.27Z" fill="#535353" id="n123"/>
<g clip-path="url(#clip1_68_6728)" id="n124">
<path d="M2687.59 1224H2686.19V1220.32H2682.47V1224H2681.07V1215.79H2682.47V1219.12H2686.19V1215.79H2687.59V1224ZM2696.44 1219.81C2696.44 1220.73 2696.27 1221.5 2695.91 1222.13C2695.57 1222.75 2695.07 1223.21 2694.42 1223.53C2693.77 1223.84 2692.98 1224 2692.05 1224H2689.74V1215.79H2692.29C2693.14 1215.79 2693.88 1215.94 2694.49 1216.25C2695.11 1216.56 2695.59 1217.01 2695.93 1217.61C2696.27 1218.2 2696.44 1218.93 2696.44 1219.81ZM2694.97 1219.86C2694.97 1219.19 2694.87 1218.64 2694.66 1218.22C2694.45 1217.79 2694.15 1217.47 2693.74 1217.27C2693.34 1217.07 2692.85 1216.96 2692.27 1216.96H2691.14V1222.83H2692.07C2693.05 1222.83 2693.77 1222.58 2694.25 1222.08C2694.73 1221.58 2694.97 1220.84 2694.97 1219.86ZM2701.53 1219.51H2704.59V1223.67C2704.15 1223.81 2703.7 1223.92 2703.24 1224C2702.78 1224.08 2702.26 1224.12 2701.68 1224.12C2700.85 1224.12 2700.15 1223.95 2699.56 1223.62C2698.99 1223.29 2698.55 1222.81 2698.25 1222.18C2697.95 1221.55 2697.8 1220.78 2697.8 1219.88C2697.8 1219.02 2697.97 1218.28 2698.31 1217.65C2698.65 1217.02 2699.13 1216.54 2699.76 1216.19C2700.4 1215.85 2701.17 1215.67 2702.08 1215.67C2702.53 1215.67 2702.96 1215.72 2703.37 1215.81C2703.79 1215.9 2704.18 1216.02 2704.52 1216.17L2704.04 1217.33C2703.77 1217.2 2703.46 1217.09 2703.12 1217.01C2702.77 1216.92 2702.42 1216.87 2702.05 1216.87C2701.47 1216.87 2700.98 1216.99 2700.55 1217.24C2700.14 1217.48 2699.82 1217.84 2699.6 1218.3C2699.38 1218.75 2699.27 1219.28 2699.27 1219.91C2699.27 1220.5 2699.35 1221.02 2699.53 1221.48C2699.71 1221.93 2699.98 1222.29 2700.36 1222.55C2700.74 1222.8 2701.24 1222.93 2701.85 1222.93C2702.06 1222.93 2702.24 1222.92 2702.39 1222.91C2702.55 1222.89 2702.7 1222.87 2702.83 1222.85C2702.96 1222.82 2703.08 1222.79 2703.2 1222.77V1220.72H2701.53V1219.51Z" fill="#535353" id="n125"/>
</g>
<g clip-path="url(#clip2_68_6728)" id="n126">
<path d="M2717.62 1219.81C2717.62 1220.73 2717.46 1221.5 2717.12 1222.13C2716.78 1222.75 2716.29 1223.21 2715.66 1223.53C2715.02 1223.84 2714.25 1224 2713.34 1224H2711.13V1215.79H2713.58C2714.42 1215.79 2715.14 1215.94 2715.74 1216.25C2716.34 1216.56 2716.81 1217.01 2717.13 1217.61C2717.46 1218.2 2717.62 1218.93 2717.62 1219.81ZM2716.65 1219.85C2716.65 1219.1 2716.52 1218.5 2716.28 1218.02C2716.03 1217.54 2715.67 1217.18 2715.19 1216.94C2714.71 1216.7 2714.13 1216.58 2713.44 1216.58H2712.05V1223.21H2713.22C2714.36 1223.21 2715.22 1222.93 2715.78 1222.37C2716.36 1221.8 2716.65 1220.96 2716.65 1219.85ZM2724.01 1224H2719.45V1215.79H2724.01V1216.61H2720.37V1219.3H2723.8V1220.1H2720.37V1223.18H2724.01V1224ZM2729.31 1219.71H2732.2V1223.68C2731.76 1223.82 2731.32 1223.93 2730.86 1224C2730.42 1224.08 2729.92 1224.12 2729.36 1224.12C2728.51 1224.12 2727.79 1223.95 2727.2 1223.61C2726.61 1223.27 2726.17 1222.79 2725.86 1222.16C2725.56 1221.52 2725.4 1220.77 2725.4 1219.89C2725.4 1219.04 2725.57 1218.3 2725.91 1217.67C2726.25 1217.05 2726.73 1216.56 2727.36 1216.2C2727.99 1215.85 2728.76 1215.67 2729.65 1215.67C2730.1 1215.67 2730.53 1215.72 2730.93 1215.8C2731.35 1215.88 2731.73 1216 2732.08 1216.16L2731.73 1216.96C2731.42 1216.82 2731.08 1216.71 2730.72 1216.63C2730.35 1216.54 2729.98 1216.49 2729.6 1216.49C2728.93 1216.49 2728.35 1216.63 2727.86 1216.92C2727.38 1217.19 2727.01 1217.59 2726.75 1218.1C2726.49 1218.61 2726.37 1219.2 2726.37 1219.89C2726.37 1220.59 2726.48 1221.2 2726.7 1221.71C2726.93 1222.22 2727.28 1222.61 2727.75 1222.9C2728.22 1223.17 2728.83 1223.31 2729.57 1223.31C2729.82 1223.31 2730.04 1223.3 2730.24 1223.29C2730.44 1223.26 2730.63 1223.23 2730.8 1223.19C2730.96 1223.16 2731.12 1223.12 2731.27 1223.08V1220.54H2729.31V1219.71Z" fill="#535353" id="n127"/>
</g>
<path d="M2525 1162C2527.21 1162 2529 1160.21 2529 1158C2529 1155.79 2527.21 1154 2525 1154C2522.79 1154 2521 1155.79 2521 1158C2521 1160.21 2522.79 1162 2525 1162Z" fill="#9CC1F5" id="n154"/>
<path d="M2661 1162C2663.21 1162 2665 1160.21 2665 1158C2665 1155.79 2663.21 1154 2661 1154C2658.79 1154 2657 1155.79 2657 1158C2657 1160.21 2658.79 1162 2661 1162Z" fill="#9CC1F5" id="n155"/>
<path d="M2801 1158C2801 1160.21 2799.21 1162 2797 1162C2794.79 1162 2793 1160.21 2793 1158C2793 1155.79 2794.79 1154 2797 1154C2799.21 1154 2801 1155.79 2801 1158Z" fill="#9CC1F5" id="n156"/>
</g>
</svg>
