<?xml version='1.0' encoding='utf-8'?>
<svg xmlns="http://www.w3.org/2000/svg" xmlns:xlink="http://www.w3.org/1999/xlink" width="512.0" height="512.0" viewBox="0 0 512.0 512.0" fill="none">
  <defs><clipPath id="clip__asset"><rect x="0" y="0" width="512.0" height="512.0"/></clipPath><mask id="mask308_68_6728" style="mask-type:luminance" maskUnits="userSpaceOnUse" x="6922" y="1096" width="512" height="512">
<path d="M7178 1164C7244.71 1164 7303.31 1198.75 7336.68 1251.14C7339.06 1254.87 7337.73 1259.78 7333.9 1261.99L7320.05 1269.99C7291.69 1220.97 7238.7 1188 7178 1188C7117.3 1188 7064.31 1220.98 7035.95 1269.99L7022.1 1261.99C7018.27 1259.78 7016.94 1254.87 7019.32 1251.14C7052.69 1198.75 7111.28 1164 7178 1164Z" fill="white" stroke="black" id="n2441"/>
</mask>
<mask id="mask309_68_6728" style="mask-type:alpha" maskUnits="userSpaceOnUse" x="6922" y="1096" width="512" height="512">
<path d="M7178 1160C7284.04 1160 7370 1245.96 7370 1352C7370 1458.04 7284.04 1544 7178 1544C7071.96 1544 6986 1458.04 6986 1352C6986 1245.96 7071.96 1160 7178 1160ZM7178 1184C7085.22 1184 7010 1259.22 7010 1352C7010 1444.78 7085.22 1520 7178 1520C7270.78 1520 7346 1444.78 7346 1352C7346 1259.22 7270.78 1184 7178 1184Z" fill="black" id="n2443"/>
</mask>
<mask id="mask310_68_6728" style="mask-type:alpha" maskUnits="userSpaceOnUse" x="6922" y="1096" width="512" height="512">
<path d="M7178 1160C7284.04 1160 7370 1245.96 7370 1352C7370 1458.04 7284.04 1544 7178 1544C7071.96 1544 6986 1458.04 6986 1352C6986 1245.96 7071.96 1160 7178 1160ZM7178 1188C7087.43 1188 7014 1261.43 7014 1352C7014 1442.57 7087.43 1516 7178 1516C7268.57 1516 7342 1442.57 7342 1352C7342 1261.43 7268.57 1188 7178 1188Z" fill="black" id="n2446"/>
</mask>
<mask id="mask311_68_6728" style="mask-type:alpha" maskUnits="userSpaceOnUse" x="6922" y="1096" width="512" height="512">
<path d="M7178 1164C7228.44 1164 7274.24 1183.86 7308 1216.19V1487.81C7274.24 1520.14 7228.44 1540 7178 1540C7127.56 1540 7081.76 1520.14 7048 1487.81V1216.19C7081.76 1183.86 7127.56 1164 7178 1164Z" fill="black" id="n2449"/>
</mask>
<mask id="mask312_68_6728" style="mask-type:luminance" maskUnits="userSpaceOnUse" x="7385" y="1096" width="26" height="512">
<path d="M7397.2 1184C7401.68 1184 7403.92 1184 7405.63 1184.87C7407.14 1185.64 7408.36 1186.86 7409.13 1188.37C7410 1190.08 7410 1192.32 7410 1196.8L7410 1507.2C7410 1511.68 7410 1513.92 7409.13 1515.63C7408.36 1517.14 7407.14 1518.36 7405.63 1519.13C7403.92 1520 7401.68 1520 7397.2 1520L7386 1520L7386 1184L7397.2 1184Z" fill="white" stroke="black" id="n2461"/>
</mask>
<mask id="mask313_68_6728" style="mask-type:alpha" maskUnits="userSpaceOnUse" x="7118" y="1096" width="512" height="512">
<path d="M7386 1184L7386 1520L7350.8 1520C7346.32 1520 7344.08 1520 7342.37 1519.13C7340.86 1518.36 7339.64 1517.14 7338.87 1515.63C7338 1513.92 7338 1511.68 7338 1507.2L7338 1196.8C7338 1192.32 7338 1190.08 7338.87 1188.37C7339.64 1186.86 7340.86 1185.64 7342.37 1184.87C7344.08 1184 7346.32 1184 7350.8 1184L7386 1184Z" fill="white" stroke="black" id="n2466"/>
</mask>
<mask id="mask314_68_6728" style="mask-type:luminance" maskUnits="userSpaceOnUse" x="6945" y="1096" width="26" height="512">
<path d="M6958.8 1520C6954.32 1520 6952.08 1520 6950.37 1519.13C6948.86 1518.36 6947.64 1517.14 6946.87 1515.63C6946 1513.92 6946 1511.68 6946 1507.2L6946 1196.8C6946 1192.32 6946 1190.08 6946.87 1188.37C6947.64 1186.86 6948.86 1185.64 6950.37 1184.87C6952.08 1184 6954.32 1184 6958.8 1184L6970 1184L6970 1520L6958.8 1520Z" fill="white" stroke="black" id="n2474"/>
</mask>
<mask id="mask315_68_6728" style="mask-type:alpha" maskUnits="userSpaceOnUse" x="6726" y="1096" width="512" height="512">
<path d="M6970 1184L6970 1520L7005.2 1520C7009.68 1520 7011.92 1520 7013.63 1519.13C7015.14 1518.36 7016.36 1517.14 7017.13 1515.63C7018 1513.92 7018 1511.68 7018 1507.2L7018 1196.8C7018 1192.32 7018 1190.08 7017.13 1188.37C7016.36 1186.86 7015.14 1185.64 7013.63 1184.87C7011.92 1184 7009.68 1184 7005.2 1184L6970 1184Z" fill="white" stroke="black" id="n2478"/>
</mask>
</defs>
  <g clip-path="url(#clip__asset)" transform="translate(-6922.0 -1096.0)"><path d="M7048 1226V1487.81C7081.76 1520.14 7127.56 1540 7178 1540C7228.44 1540 7274.24 1520.14 7308 1487.81V1226" stroke="#BEBEBE" stroke-linecap="round" id="n2437"/>
<path d="M7178 1164C7227.04 1164 7271.69 1182.77 7305.16 1213.53C7308.41 1216.52 7308.4 1221.6 7305.28 1224.72L7299.62 1230.38C7296.5 1233.5 7291.45 1233.49 7288.17 1230.52C7287.93 1230.3 7287.69 1230.09 7287.45 1229.87C7287.01 1229.48 7286.57 1229.09 7286.13 1228.7C7285.4 1228.06 7284.67 1227.42 7283.93 1226.8C7283.65 1226.56 7283.37 1226.33 7283.09 1226.09C7282.9 1225.93 7282.71 1225.78 7282.53 1225.62C7282.23 1225.37 7281.92 1225.13 7281.62 1224.88C7281.42 1224.72 7281.22 1224.55 7281.03 1224.39C7280.76 1224.18 7280.5 1223.97 7280.23 1223.76C7279.99 1223.57 7279.75 1223.37 7279.51 1223.18C7279.27 1222.99 7279.02 1222.8 7278.78 1222.61C7278.51 1222.41 7278.25 1222.2 7277.98 1221.99C7277.75 1221.81 7277.52 1221.64 7277.28 1221.46C7277.01 1221.25 7276.73 1221.04 7276.45 1220.83C7276.22 1220.65 7275.98 1220.48 7275.75 1220.3C7275.47 1220.09 7275.19 1219.89 7274.9 1219.68C7274.67 1219.51 7274.44 1219.34 7274.21 1219.18C7273.95 1218.99 7273.69 1218.8 7273.43 1218.61C7273.15 1218.41 7272.86 1218.21 7272.58 1218C7272.34 1217.83 7272.1 1217.66 7271.85 1217.5C7271.6 1217.32 7271.35 1217.15 7271.1 1216.97C7270.74 1216.73 7270.38 1216.48 7270.02 1216.24C7269.87 1216.13 7269.71 1216.02 7269.55 1215.91C7269.22 1215.69 7268.89 1215.47 7268.56 1215.25C7268.34 1215.1 7268.12 1214.96 7267.89 1214.81C7267.53 1214.58 7267.18 1214.34 7266.82 1214.11C7266.65 1214.01 7266.49 1213.9 7266.33 1213.8C7264.72 1212.77 7263.1 1211.76 7261.45 1210.79C7261.19 1210.64 7260.94 1210.49 7260.68 1210.34C7260.36 1210.15 7260.05 1209.97 7259.73 1209.78C7259.53 1209.67 7259.34 1209.56 7259.14 1209.45C7258.79 1209.25 7258.43 1209.05 7258.08 1208.85C7257.82 1208.7 7257.57 1208.56 7257.31 1208.42C7257.02 1208.26 7256.72 1208.09 7256.42 1207.93C7256.14 1207.77 7255.85 1207.62 7255.56 1207.46C7255.29 1207.32 7255.01 1207.17 7254.74 1207.03C7254.46 1206.88 7254.18 1206.73 7253.9 1206.58C7253.6 1206.43 7253.3 1206.27 7253 1206.12C7252.73 1205.98 7252.47 1205.85 7252.21 1205.71C7251.91 1205.56 7251.6 1205.41 7251.3 1205.25C7251 1205.11 7250.71 1204.96 7250.42 1204.82C7250.16 1204.69 7249.89 1204.56 7249.63 1204.43C7249.31 1204.28 7249 1204.12 7248.68 1203.97C7248.38 1203.83 7248.08 1203.69 7247.79 1203.55C7247.54 1203.43 7247.3 1203.32 7247.05 1203.21C7246.66 1203.02 7246.28 1202.85 7245.89 1202.67C7245.68 1202.57 7245.47 1202.48 7245.27 1202.39C7244.91 1202.22 7244.54 1202.06 7244.18 1201.9C7243.94 1201.8 7243.71 1201.69 7243.47 1201.59C7243.15 1201.45 7242.83 1201.31 7242.51 1201.17C7242.23 1201.06 7241.95 1200.93 7241.67 1200.82C7241.33 1200.68 7241 1200.54 7240.67 1200.4C7240.41 1200.3 7240.16 1200.19 7239.9 1200.08C7239.51 1199.92 7239.12 1199.77 7238.72 1199.61C7238.51 1199.53 7238.3 1199.44 7238.09 1199.36C7236.9 1198.89 7235.72 1198.44 7234.52 1198C7234.2 1197.88 7233.89 1197.77 7233.57 1197.66C7233.27 1197.55 7232.97 1197.44 7232.66 1197.33C7232.41 1197.24 7232.15 1197.15 7231.89 1197.06C7231.52 1196.93 7231.14 1196.8 7230.76 1196.67C7230.55 1196.6 7230.34 1196.53 7230.12 1196.46C7229.73 1196.33 7229.33 1196.19 7228.93 1196.06C7228.66 1195.97 7228.38 1195.89 7228.11 1195.8C7227.78 1195.69 7227.44 1195.59 7227.11 1195.48C7226.83 1195.39 7226.55 1195.31 7226.28 1195.22C7225.9 1195.11 7225.51 1194.99 7225.13 1194.87C7224.91 1194.81 7224.7 1194.75 7224.48 1194.68C7224.07 1194.56 7223.65 1194.44 7223.23 1194.32C7223.01 1194.25 7222.78 1194.19 7222.56 1194.13C7222.16 1194.02 7221.76 1193.9 7221.36 1193.8C7221.12 1193.73 7220.88 1193.66 7220.63 1193.6C7220.24 1193.49 7219.84 1193.39 7219.45 1193.28C7219.21 1193.22 7218.96 1193.16 7218.72 1193.1C7218.3 1192.99 7217.88 1192.89 7217.46 1192.78C7217.24 1192.73 7217.03 1192.67 7216.81 1192.62C7216.45 1192.53 7216.09 1192.45 7215.72 1192.36C7215.41 1192.29 7215.1 1192.22 7214.79 1192.14C7214.42 1192.06 7214.04 1191.98 7213.67 1191.89C7213.43 1191.84 7213.19 1191.78 7212.95 1191.73C7212.44 1191.62 7211.94 1191.52 7211.43 1191.41C7211.29 1191.38 7211.14 1191.35 7211 1191.32C7209.69 1191.05 7208.37 1190.8 7207.05 1190.56C7206.98 1190.55 7206.91 1190.54 7206.84 1190.53C7206.26 1190.43 7205.68 1190.32 7205.09 1190.23C7204.84 1190.19 7204.6 1190.15 7204.35 1190.11C7203.96 1190.04 7203.57 1189.98 7203.18 1189.92C7202.83 1189.87 7202.49 1189.82 7202.14 1189.77C7201.84 1189.72 7201.54 1189.68 7201.23 1189.63C7200.87 1189.58 7200.51 1189.53 7200.16 1189.49C7199.85 1189.44 7199.54 1189.4 7199.23 1189.36C7198.89 1189.32 7198.55 1189.28 7198.2 1189.23C7197.88 1189.19 7197.56 1189.16 7197.24 1189.12C7196.89 1189.08 7196.54 1189.04 7196.2 1189C7195.88 1188.96 7195.56 1188.93 7195.24 1188.9C7194.91 1188.86 7194.59 1188.83 7194.26 1188.8C7193.9 1188.76 7193.54 1188.73 7193.18 1188.7C7192.87 1188.67 7192.56 1188.64 7192.25 1188.61C7191.88 1188.58 7191.51 1188.55 7191.14 1188.52C7190.85 1188.5 7190.55 1188.47 7190.26 1188.45C7189.87 1188.42 7189.48 1188.4 7189.09 1188.37C7188.81 1188.35 7188.53 1188.33 7188.25 1188.32C7187.83 1188.29 7187.41 1188.27 7186.99 1188.25C7186.73 1188.23 7186.47 1188.22 7186.2 1188.2C7185.81 1188.18 7185.42 1188.17 7185.03 1188.15C7184.73 1188.14 7184.44 1188.12 7184.14 1188.11C7183.7 1188.1 7183.27 1188.08 7182.84 1188.07C7182.6 1188.07 7182.36 1188.06 7182.13 1188.05C7181.58 1188.04 7181.03 1188.03 7180.48 1188.02C7180.34 1188.02 7180.21 1188.01 7180.08 1188.01C7180.05 1188.01 7180.02 1188.01 7179.99 1188.01L7178 1188C7177.31 1188 7176.61 1188 7175.92 1188.01C7175.78 1188.01 7175.64 1188.02 7175.51 1188.02C7174.96 1188.03 7174.42 1188.04 7173.87 1188.05C7173.63 1188.06 7173.39 1188.07 7173.15 1188.07C7172.72 1188.08 7172.29 1188.1 7171.86 1188.11C7171.56 1188.12 7171.26 1188.14 7170.96 1188.15C7170.57 1188.17 7170.18 1188.18 7169.8 1188.2C7169.53 1188.22 7169.27 1188.23 7169.01 1188.25C7168.59 1188.27 7168.17 1188.29 7167.75 1188.32C7167.47 1188.33 7167.19 1188.35 7166.91 1188.37C7166.52 1188.4 7166.13 1188.42 7165.74 1188.45C7165.45 1188.48 7165.15 1188.5 7164.85 1188.52C7164.49 1188.55 7164.12 1188.58 7163.76 1188.61C7163.44 1188.64 7163.13 1188.67 7162.81 1188.7C7162.44 1188.73 7162.07 1188.77 7161.69 1188.8C7161.41 1188.83 7161.14 1188.86 7160.86 1188.89C7160.47 1188.93 7160.08 1188.97 7159.69 1189.01C7159.39 1189.05 7159.08 1189.08 7158.77 1189.12C7158.45 1189.15 7158.13 1189.19 7157.81 1189.23C7157.46 1189.28 7157.11 1189.32 7156.77 1189.36C7156.46 1189.4 7156.15 1189.44 7155.84 1189.49C7155.48 1189.53 7155.13 1189.58 7154.77 1189.63C7154.46 1189.68 7154.15 1189.72 7153.84 1189.77C7153.5 1189.82 7153.17 1189.87 7152.84 1189.92C7152.45 1189.98 7152.06 1190.04 7151.67 1190.1C7151.41 1190.15 7151.15 1190.19 7150.89 1190.23C7150.32 1190.32 7149.75 1190.42 7149.19 1190.52C7149.11 1190.54 7149.03 1190.55 7148.95 1190.56C7147.62 1190.8 7146.3 1191.06 7144.98 1191.33C7144.87 1191.35 7144.76 1191.37 7144.65 1191.39C7144.12 1191.5 7143.59 1191.61 7143.07 1191.73C7142.78 1191.79 7142.49 1191.86 7142.2 1191.92C7141.88 1191.99 7141.56 1192.06 7141.23 1192.14C7140.89 1192.22 7140.55 1192.3 7140.21 1192.38C7139.88 1192.46 7139.55 1192.53 7139.21 1192.62C7138.98 1192.67 7138.74 1192.73 7138.51 1192.79C7138.1 1192.89 7137.69 1192.99 7137.28 1193.1C7137.03 1193.16 7136.78 1193.22 7136.53 1193.29C7136.14 1193.39 7135.75 1193.49 7135.37 1193.6C7135.13 1193.66 7134.89 1193.73 7134.66 1193.79C7134.25 1193.9 7133.85 1194.01 7133.45 1194.12C7133.21 1194.19 7132.98 1194.26 7132.75 1194.33C7132.34 1194.44 7131.93 1194.56 7131.53 1194.68C7131.31 1194.74 7131.09 1194.81 7130.87 1194.87C7130.48 1194.99 7130.09 1195.11 7129.7 1195.23C7129.44 1195.31 7129.18 1195.39 7128.91 1195.47C7128.56 1195.58 7128.21 1195.69 7127.87 1195.81C7127.6 1195.89 7127.34 1195.97 7127.08 1196.06C7126.67 1196.19 7126.26 1196.33 7125.85 1196.47C7125.65 1196.53 7125.45 1196.6 7125.24 1196.67C7124.87 1196.8 7124.5 1196.93 7124.13 1197.06C7123.86 1197.15 7123.6 1197.24 7123.34 1197.33C7123 1197.45 7122.66 1197.57 7122.32 1197.7C7122.05 1197.79 7121.78 1197.89 7121.51 1197.99C7121.06 1198.15 7120.61 1198.32 7120.17 1198.49C7120.01 1198.55 7119.86 1198.6 7119.71 1198.66C7119.1 1198.89 7118.49 1199.13 7117.88 1199.37C7117.81 1199.4 7117.73 1199.43 7117.66 1199.46C7117.12 1199.67 7116.59 1199.88 7116.07 1200.1C7115.88 1200.17 7115.7 1200.25 7115.51 1200.33C7115.12 1200.49 7114.72 1200.65 7114.33 1200.82C7114.07 1200.93 7113.8 1201.04 7113.54 1201.15C7113.19 1201.3 7112.84 1201.45 7112.49 1201.61C7112.29 1201.69 7112.1 1201.78 7111.9 1201.87C7111.49 1202.05 7111.09 1202.22 7110.69 1202.41C7110.5 1202.49 7110.31 1202.58 7110.11 1202.67C7109.72 1202.85 7109.33 1203.02 7108.95 1203.21C7108.7 1203.32 7108.46 1203.43 7108.21 1203.55C7107.91 1203.69 7107.62 1203.83 7107.32 1203.97C7107 1204.12 7106.68 1204.28 7106.37 1204.43C7106.11 1204.56 7105.84 1204.69 7105.58 1204.82C7105.29 1204.96 7105 1205.1 7104.72 1205.25C7104.39 1205.41 7104.06 1205.58 7103.73 1205.74C7103.51 1205.86 7103.28 1205.97 7103.06 1206.08C7102.71 1206.27 7102.36 1206.45 7102.01 1206.63C7101.78 1206.75 7101.54 1206.88 7101.3 1207C7100.97 1207.18 7100.65 1207.35 7100.32 1207.53C7100.1 1207.65 7099.87 1207.77 7099.65 1207.89C7099.28 1208.09 7098.91 1208.29 7098.55 1208.5C7098.34 1208.61 7098.13 1208.73 7097.93 1208.84C7097.52 1209.07 7097.12 1209.3 7096.72 1209.53C7096.58 1209.61 7096.45 1209.68 7096.31 1209.76C7095.89 1210 7095.47 1210.25 7095.05 1210.49C7094.9 1210.58 7094.74 1210.67 7094.59 1210.76C7092.93 1211.75 7091.29 1212.76 7089.67 1213.8C7089.51 1213.9 7089.34 1214.01 7089.18 1214.11C7088.82 1214.34 7088.46 1214.57 7088.11 1214.81C7087.88 1214.96 7087.66 1215.1 7087.44 1215.25C7087.11 1215.47 7086.78 1215.69 7086.45 1215.91C7086.29 1216.02 7086.13 1216.13 7085.97 1216.24C7085.61 1216.48 7085.24 1216.73 7084.88 1216.98C7084.68 1217.12 7084.48 1217.26 7084.29 1217.4C7083.96 1217.63 7083.63 1217.86 7083.3 1218.09C7083.09 1218.24 7082.88 1218.39 7082.67 1218.54C7082.36 1218.76 7082.05 1218.98 7081.74 1219.21C7081.55 1219.34 7081.36 1219.48 7081.17 1219.62C7080.83 1219.87 7080.49 1220.12 7080.15 1220.38C7079.98 1220.51 7079.8 1220.64 7079.63 1220.77C7079.3 1221.01 7078.98 1221.26 7078.65 1221.51C7078.45 1221.66 7078.24 1221.82 7078.03 1221.98C7077.76 1222.19 7077.49 1222.4 7077.22 1222.61C7076.98 1222.8 7076.74 1222.99 7076.5 1223.18C7076.24 1223.38 7075.98 1223.59 7075.72 1223.79C7075.49 1223.98 7075.26 1224.16 7075.03 1224.35C7074.73 1224.59 7074.43 1224.84 7074.13 1225.08C7073.94 1225.24 7073.75 1225.39 7073.56 1225.55C7073.26 1225.8 7072.95 1226.05 7072.65 1226.31C7072.46 1226.47 7072.26 1226.63 7072.07 1226.8C7070.63 1228.01 7069.22 1229.25 7067.83 1230.52C7064.55 1233.49 7059.5 1233.5 7056.38 1230.38L7050.72 1224.72C7047.6 1221.6 7047.58 1216.52 7050.84 1213.53C7084.31 1182.77 7128.96 1164 7178 1164Z" fill="white" id="n2438"/>
<path d="M7178 1164V1163.5V1163.5V1164ZM7305.16 1213.53L7305.5 1213.16V1213.16L7305.16 1213.53ZM7305.28 1224.72L7305.63 1225.07L7305.63 1225.07L7305.28 1224.72ZM7299.62 1230.38L7299.27 1230.02L7299.27 1230.02L7299.62 1230.38ZM7288.17 1230.52L7287.84 1230.89V1230.89L7288.17 1230.52ZM7287.45 1229.87L7287.79 1229.5V1229.5L7287.45 1229.87ZM7286.13 1228.7L7285.8 1229.07V1229.07L7286.13 1228.7ZM7283.93 1226.8L7284.26 1226.42V1226.42L7283.93 1226.8ZM7283.09 1226.09L7282.76 1226.47V1226.47L7283.09 1226.09ZM7282.53 1225.62L7282.85 1225.24V1225.24L7282.53 1225.62ZM7281.62 1224.88L7281.3 1225.26V1225.26L7281.62 1224.88ZM7281.03 1224.39L7281.34 1224.01V1224.01L7281.03 1224.39ZM7280.23 1223.76L7279.92 1224.15V1224.15L7280.23 1223.76ZM7279.51 1223.18L7279.82 1222.79V1222.79L7279.51 1223.18ZM7278.78 1222.61L7278.47 1223.01V1223.01L7278.78 1222.61ZM7277.98 1221.99L7278.28 1221.6V1221.6L7277.98 1221.99ZM7277.28 1221.46L7276.98 1221.86V1221.86L7277.28 1221.46ZM7276.45 1220.83L7276.75 1220.43V1220.43L7276.45 1220.83ZM7275.75 1220.3L7275.45 1220.7V1220.7L7275.75 1220.3ZM7274.9 1219.68L7275.2 1219.28V1219.28L7274.9 1219.68ZM7274.21 1219.18L7273.92 1219.58V1219.58L7274.21 1219.18ZM7273.43 1218.61L7273.72 1218.21V1218.21L7273.43 1218.61ZM7272.58 1218L7272.29 1218.41V1218.41L7272.58 1218ZM7271.85 1217.5L7272.14 1217.09V1217.09L7271.85 1217.5ZM7271.1 1216.97L7270.82 1217.38V1217.38L7271.1 1216.97ZM7270.02 1216.24L7270.31 1215.82V1215.82L7270.02 1216.24ZM7269.55 1215.91L7269.27 1216.33V1216.33L7269.55 1215.91ZM7268.56 1215.25L7268.84 1214.84V1214.84L7268.56 1215.25ZM7267.89 1214.81L7267.62 1215.23V1215.23L7267.89 1214.81ZM7266.82 1214.11L7267.09 1213.69V1213.69L7266.82 1214.11ZM7266.33 1213.8L7266.06 1214.22V1214.22L7266.33 1213.8ZM7261.45 1210.79L7261.71 1210.36V1210.36L7261.45 1210.79ZM7260.68 1210.34L7260.43 1210.77V1210.77L7260.68 1210.34ZM7259.73 1209.78L7259.98 1209.35V1209.35L7259.73 1209.78ZM7259.14 1209.45L7258.89 1209.88V1209.88L7259.14 1209.45ZM7258.08 1208.85L7258.32 1208.41V1208.41L7258.08 1208.85ZM7257.31 1208.42L7257.07 1208.86V1208.86L7257.31 1208.42ZM7256.42 1207.93L7256.66 1207.49V1207.49L7256.42 1207.93ZM7255.56 1207.46L7255.32 1207.91V1207.91L7255.56 1207.46ZM7254.74 1207.03L7254.97 1206.59V1206.59L7254.74 1207.03ZM7253.9 1206.58L7253.67 1207.03V1207.03L7253.9 1206.58ZM7253 1206.12L7253.22 1205.67V1205.67L7253 1206.12ZM7252.21 1205.71L7251.99 1206.16V1206.16L7252.21 1205.71ZM7251.3 1205.25L7251.52 1204.8V1204.8L7251.3 1205.25ZM7250.42 1204.82L7250.2 1205.26V1205.26L7250.42 1204.82ZM7249.63 1204.43L7249.85 1203.98V1203.98L7249.63 1204.43ZM7248.68 1203.97L7248.47 1204.42V1204.42L7248.68 1203.97ZM7247.79 1203.55L7248 1203.1V1203.1L7247.79 1203.55ZM7247.05 1203.21L7246.84 1203.66V1203.66L7247.05 1203.21ZM7245.89 1202.67L7246.09 1202.21V1202.21L7245.89 1202.67ZM7245.27 1202.39L7245.06 1202.84V1202.84L7245.27 1202.39ZM7244.18 1201.9L7244.38 1201.45V1201.45L7244.18 1201.9ZM7243.47 1201.59L7243.27 1202.05V1202.05L7243.47 1201.59ZM7242.51 1201.17L7242.7 1200.72H7242.7L7242.51 1201.17ZM7241.67 1200.82L7241.47 1201.28V1201.28L7241.67 1200.82ZM7240.67 1200.4L7240.86 1199.94V1199.94L7240.67 1200.4ZM7239.9 1200.08L7239.71 1200.55V1200.55L7239.9 1200.08ZM7238.72 1199.61L7238.91 1199.15V1199.15L7238.72 1199.61ZM7238.09 1199.36L7237.9 1199.82V1199.82L7238.09 1199.36ZM7234.52 1198L7234.69 1197.53V1197.53L7234.52 1198ZM7233.57 1197.66L7233.4 1198.13V1198.13L7233.57 1197.66ZM7232.66 1197.33L7232.83 1196.86V1196.86L7232.66 1197.33ZM7231.89 1197.06L7231.73 1197.54V1197.54L7231.89 1197.06ZM7230.76 1196.67L7230.92 1196.2V1196.2L7230.76 1196.67ZM7230.12 1196.46L7229.97 1196.93V1196.93L7230.12 1196.46ZM7228.93 1196.06L7229.08 1195.59V1195.59L7228.93 1196.06ZM7228.11 1195.8L7227.96 1196.27V1196.27L7228.11 1195.8ZM7227.11 1195.48L7227.26 1195V1195L7227.11 1195.48ZM7226.28 1195.22L7226.13 1195.7V1195.7L7226.28 1195.22ZM7225.13 1194.87L7225.27 1194.4V1194.4L7225.13 1194.87ZM7224.48 1194.68L7224.34 1195.16V1195.16L7224.48 1194.68ZM7223.23 1194.32L7223.37 1193.84V1193.84L7223.23 1194.32ZM7222.56 1194.13L7222.42 1194.61V1194.61L7222.56 1194.13ZM7221.36 1193.8L7221.49 1193.31V1193.31L7221.36 1193.8ZM7220.63 1193.6L7220.5 1194.08V1194.08L7220.63 1193.6ZM7219.45 1193.28L7219.57 1192.8V1192.8L7219.45 1193.28ZM7218.72 1193.1L7218.6 1193.58V1193.58L7218.72 1193.1ZM7217.46 1192.78L7217.58 1192.3V1192.3L7217.46 1192.78ZM7216.81 1192.62L7216.69 1193.11V1193.11L7216.81 1192.62ZM7215.72 1192.36L7215.84 1191.88V1191.88L7215.72 1192.36ZM7214.79 1192.14L7214.68 1192.63V1192.63L7214.79 1192.14ZM7213.67 1191.89L7213.78 1191.4V1191.4L7213.67 1191.89ZM7212.95 1191.73L7212.84 1192.22V1192.22L7212.95 1191.73ZM7211.43 1191.41L7211.53 1190.92V1190.92L7211.43 1191.41ZM7211 1191.32L7210.9 1191.81V1191.81L7211 1191.32ZM7207.05 1190.56L7207.13 1190.07V1190.07L7207.05 1190.56ZM7206.84 1190.53L7206.75 1191.02V1191.02L7206.84 1190.53ZM7205.09 1190.23L7205.18 1189.73V1189.73L7205.09 1190.23ZM7204.35 1190.11L7204.27 1190.6V1190.6L7204.35 1190.11ZM7203.18 1189.92L7203.25 1189.43V1189.43L7203.18 1189.92ZM7202.14 1189.77L7202.07 1190.26V1190.26L7202.14 1189.77ZM7201.23 1189.63L7201.3 1189.14V1189.14L7201.23 1189.63ZM7200.16 1189.49L7200.09 1189.98V1189.98L7200.16 1189.49ZM7199.23 1189.36L7199.3 1188.87V1188.87L7199.23 1189.36ZM7198.2 1189.23L7198.14 1189.73V1189.73L7198.2 1189.23ZM7197.24 1189.12L7197.29 1188.62H7197.29L7197.24 1189.12ZM7196.2 1189L7196.14 1189.5V1189.5L7196.2 1189ZM7195.24 1188.9L7195.29 1188.4V1188.4L7195.24 1188.9ZM7194.26 1188.8L7194.21 1189.3V1189.3L7194.26 1188.8ZM7193.18 1188.7L7193.23 1188.2V1188.2L7193.18 1188.7ZM7192.25 1188.61L7192.21 1189.11V1189.11L7192.25 1188.61ZM7191.14 1188.52L7191.18 1188.02V1188.02L7191.14 1188.52ZM7190.26 1188.45L7190.22 1188.95V1188.95L7190.26 1188.45ZM7189.09 1188.37L7189.12 1187.87V1187.87L7189.09 1188.37ZM7188.25 1188.32L7188.22 1188.82V1188.82L7188.25 1188.32ZM7186.99 1188.25L7187.02 1187.75V1187.75L7186.99 1188.25ZM7186.2 1188.2L7186.18 1188.7V1188.7L7186.2 1188.2ZM7185.03 1188.15L7185.05 1187.65V1187.65L7185.03 1188.15ZM7184.14 1188.11L7184.12 1188.61V1188.61L7184.14 1188.11ZM7182.84 1188.07L7182.85 1187.57V1187.57L7182.84 1188.07ZM7182.13 1188.05L7182.12 1188.55V1188.55L7182.13 1188.05ZM7180.48 1188.02L7180.48 1187.52V1187.52L7180.48 1188.02ZM7180.08 1188.01L7180.08 1188.51V1188.51L7180.08 1188.01ZM7179.99 1188.01L7179.99 1187.51L7179.99 1187.51L7179.99 1188.01ZM7178 1188L7178 1187.5H7178V1188ZM7175.92 1188.01L7175.92 1188.51V1188.51L7175.92 1188.01ZM7175.51 1188.02L7175.5 1187.52V1187.52L7175.51 1188.02ZM7173.87 1188.05L7173.88 1188.55V1188.55L7173.87 1188.05ZM7173.15 1188.07L7173.13 1187.57V1187.57L7173.15 1188.07ZM7171.86 1188.11L7171.88 1188.61V1188.61L7171.86 1188.11ZM7170.96 1188.15L7170.94 1187.65V1187.65L7170.96 1188.15ZM7169.8 1188.2L7169.82 1188.7V1188.7L7169.8 1188.2ZM7169.01 1188.25L7168.98 1187.75V1187.75L7169.01 1188.25ZM7167.75 1188.32L7167.78 1188.82V1188.82L7167.75 1188.32ZM7166.91 1188.37L7166.88 1187.87V1187.87L7166.91 1188.37ZM7165.74 1188.45L7165.78 1188.95V1188.95L7165.74 1188.45ZM7164.85 1188.52L7164.81 1188.02V1188.02L7164.85 1188.52ZM7163.76 1188.61L7163.71 1188.11L7163.76 1188.61ZM7162.81 1188.7L7162.86 1189.19V1189.19L7162.81 1188.7ZM7161.69 1188.8L7161.64 1188.31V1188.31L7161.69 1188.8ZM7160.86 1188.89L7160.91 1189.38V1189.38L7160.86 1188.89ZM7159.69 1189.01L7159.64 1188.51V1188.51L7159.69 1189.01ZM7158.77 1189.12L7158.83 1189.61V1189.61L7158.77 1189.12ZM7157.81 1189.23L7157.75 1188.74V1188.74L7157.81 1189.23ZM7156.77 1189.36L7156.83 1189.86V1189.86L7156.77 1189.36ZM7155.84 1189.49L7155.78 1188.99V1188.99L7155.84 1189.49ZM7154.77 1189.63L7154.84 1190.13V1190.13L7154.77 1189.63ZM7153.84 1189.77L7153.76 1189.28V1189.28L7153.84 1189.77ZM7152.84 1189.92L7152.91 1190.41V1190.41L7152.84 1189.92ZM7151.67 1190.1L7151.59 1189.61H7151.59L7151.67 1190.1ZM7150.89 1190.23L7150.97 1190.72V1190.72L7150.89 1190.23ZM7149.19 1190.52L7149.1 1190.03V1190.03L7149.19 1190.52ZM7148.95 1190.56L7149.04 1191.06V1191.06L7148.95 1190.56ZM7144.98 1191.33L7144.88 1190.84L7144.88 1190.84L7144.98 1191.33ZM7144.65 1191.39L7144.75 1191.88V1191.88L7144.65 1191.39ZM7143.07 1191.73L7142.96 1191.24V1191.24L7143.07 1191.73ZM7142.2 1191.92L7142.31 1192.41H7142.31L7142.2 1191.92ZM7141.23 1192.14L7141.12 1191.65V1191.65L7141.23 1192.14ZM7140.21 1192.38L7140.33 1192.86V1192.86L7140.21 1192.38ZM7139.21 1192.62L7139.1 1192.13V1192.13L7139.21 1192.62ZM7138.51 1192.79L7138.63 1193.27V1193.27L7138.51 1192.79ZM7137.28 1193.1L7137.16 1192.61V1192.61L7137.28 1193.1ZM7136.53 1193.29L7136.66 1193.77V1193.77L7136.53 1193.29ZM7135.37 1193.6L7135.24 1193.11H7135.24L7135.37 1193.6ZM7134.66 1193.79L7134.79 1194.27V1194.27L7134.66 1193.79ZM7133.45 1194.12L7133.31 1193.64L7133.31 1193.64L7133.45 1194.12ZM7132.75 1194.33L7132.88 1194.81V1194.81L7132.75 1194.33ZM7131.53 1194.68L7131.39 1194.2V1194.2L7131.53 1194.68ZM7130.87 1194.87L7131.01 1195.35V1195.35L7130.87 1194.87ZM7129.7 1195.23L7129.56 1194.75H7129.56L7129.7 1195.23ZM7128.91 1195.47L7129.06 1195.95V1195.95L7128.91 1195.47ZM7127.87 1195.81L7127.71 1195.33V1195.33L7127.87 1195.81ZM7127.08 1196.06L7127.23 1196.54V1196.54L7127.08 1196.06ZM7125.85 1196.47L7125.69 1195.99V1195.99L7125.85 1196.47ZM7125.24 1196.67L7125.4 1197.14V1197.14L7125.24 1196.67ZM7124.13 1197.06L7123.96 1196.58V1196.58L7124.13 1197.06ZM7123.34 1197.33L7123.5 1197.8V1197.8L7123.34 1197.33ZM7122.32 1197.7L7122.15 1197.23H7122.15L7122.32 1197.7ZM7121.51 1197.99L7121.68 1198.46H7121.68L7121.51 1197.99ZM7120.17 1198.49L7119.99 1198.02V1198.02L7120.17 1198.49ZM7119.71 1198.66L7119.89 1199.13V1199.13L7119.71 1198.66ZM7117.88 1199.37L7117.7 1198.9V1198.9L7117.88 1199.37ZM7117.66 1199.46L7117.84 1199.92V1199.92L7117.66 1199.46ZM7116.07 1200.1L7115.88 1199.63V1199.63L7116.07 1200.1ZM7115.51 1200.33L7115.7 1200.79H7115.7L7115.51 1200.33ZM7114.33 1200.82L7114.14 1200.36V1200.36L7114.33 1200.82ZM7113.54 1201.15L7113.74 1201.61V1201.61L7113.54 1201.15ZM7112.49 1201.61L7112.29 1201.15V1201.15L7112.49 1201.61ZM7111.9 1201.87L7112.1 1202.33L7112.1 1202.33L7111.9 1201.87ZM7110.69 1202.41L7110.49 1201.95H7110.49L7110.69 1202.41ZM7110.11 1202.67L7110.32 1203.12V1203.12L7110.11 1202.67ZM7108.95 1203.21L7108.73 1202.75H7108.73L7108.95 1203.21ZM7108.21 1203.55L7108.43 1204L7108.43 1204L7108.21 1203.55ZM7107.32 1203.97L7107.1 1203.52H7107.1L7107.32 1203.97ZM7106.37 1204.43L7106.59 1204.88V1204.88L7106.37 1204.43ZM7105.58 1204.82L7105.36 1204.37V1204.37L7105.58 1204.82ZM7104.72 1205.25L7104.94 1205.69V1205.69L7104.72 1205.25ZM7103.73 1205.74L7103.5 1205.3V1205.3L7103.73 1205.74ZM7103.06 1206.08L7103.29 1206.53V1206.53L7103.06 1206.08ZM7102.01 1206.63L7101.78 1206.19V1206.19L7102.01 1206.63ZM7101.3 1207L7101.54 1207.44V1207.44L7101.3 1207ZM7100.32 1207.53L7100.08 1207.09H7100.08L7100.32 1207.53ZM7099.65 1207.89L7099.89 1208.33V1208.33L7099.65 1207.89ZM7098.55 1208.5L7098.31 1208.06V1208.06L7098.55 1208.5ZM7097.93 1208.84L7098.17 1209.28V1209.28L7097.93 1208.84ZM7096.72 1209.53L7096.47 1209.09V1209.09L7096.72 1209.53ZM7096.31 1209.76L7096.56 1210.19H7096.56L7096.31 1209.76ZM7095.05 1210.49L7094.8 1210.06L7094.8 1210.06L7095.05 1210.49ZM7094.59 1210.76L7094.84 1211.19H7094.84L7094.59 1210.76ZM7089.67 1213.8L7089.4 1213.38L7089.4 1213.38L7089.67 1213.8ZM7089.18 1214.11L7089.45 1214.53V1214.53L7089.18 1214.11ZM7088.11 1214.81L7087.83 1214.39V1214.39L7088.11 1214.81ZM7087.44 1215.25L7087.71 1215.67V1215.67L7087.44 1215.25ZM7086.45 1215.91L7086.17 1215.5H7086.17L7086.45 1215.91ZM7085.97 1216.24L7086.26 1216.65V1216.65L7085.97 1216.24ZM7084.88 1216.98L7084.6 1216.57V1216.57L7084.88 1216.98ZM7084.29 1217.4L7084.57 1217.81H7084.57L7084.29 1217.4ZM7083.3 1218.09L7083.01 1217.68H7083.01L7083.3 1218.09ZM7082.67 1218.54L7082.97 1218.94V1218.94L7082.67 1218.54ZM7081.74 1219.21L7081.45 1218.8V1218.8L7081.74 1219.21ZM7081.17 1219.62L7081.47 1220.03V1220.03L7081.17 1219.62ZM7080.15 1220.38L7079.85 1219.98V1219.98L7080.15 1220.38ZM7079.63 1220.77L7079.93 1221.17H7079.93L7079.63 1220.77ZM7078.65 1221.51L7078.35 1221.11L7078.35 1221.11L7078.65 1221.51ZM7078.03 1221.98L7078.34 1222.38H7078.34L7078.03 1221.98ZM7077.22 1222.61L7076.91 1222.22H7076.91L7077.22 1222.61ZM7076.5 1223.18L7076.81 1223.57H7076.81L7076.5 1223.18ZM7075.72 1223.79L7075.41 1223.4H7075.41L7075.72 1223.79ZM7075.03 1224.35L7075.34 1224.74H7075.34L7075.03 1224.35ZM7074.13 1225.08L7073.82 1224.69V1224.69L7074.13 1225.08ZM7073.56 1225.55L7073.88 1225.93H7073.88L7073.56 1225.55ZM7072.65 1226.31L7072.33 1225.93V1225.93L7072.65 1226.31ZM7072.07 1226.8L7072.39 1227.18H7072.39L7072.07 1226.8ZM7067.83 1230.52L7067.49 1230.15V1230.15L7067.83 1230.52ZM7056.38 1230.38L7056.73 1230.02L7056.73 1230.02L7056.38 1230.38ZM7050.72 1224.72L7050.37 1225.07L7050.37 1225.07L7050.72 1224.72ZM7050.84 1213.53L7050.5 1213.16V1213.16L7050.84 1213.53ZM7178 1164V1164.5C7226.91 1164.5 7271.44 1183.22 7304.82 1213.9L7305.16 1213.53L7305.5 1213.16C7271.94 1182.32 7227.17 1163.5 7178 1163.5V1164ZM7305.16 1213.53L7304.82 1213.9C7307.86 1216.68 7307.86 1221.43 7304.93 1224.37L7305.28 1224.72L7305.63 1225.07C7308.95 1221.76 7308.97 1216.35 7305.5 1213.16L7305.16 1213.53ZM7305.28 1224.72L7304.93 1224.37L7299.27 1230.02L7299.62 1230.38L7299.97 1230.73L7305.63 1225.07L7305.28 1224.72ZM7299.62 1230.38L7299.27 1230.02C7296.34 1232.95 7291.6 1232.95 7288.51 1230.15L7288.17 1230.52L7287.84 1230.89C7291.3 1234.02 7296.65 1234.05 7299.97 1230.73L7299.62 1230.38ZM7288.17 1230.52L7288.51 1230.15C7288.27 1229.93 7288.02 1229.71 7287.79 1229.5L7287.45 1229.87L7287.12 1230.24C7287.36 1230.46 7287.6 1230.67 7287.84 1230.89L7288.17 1230.52ZM7287.45 1229.87L7287.79 1229.5C7287.35 1229.1 7286.9 1228.71 7286.46 1228.32L7286.13 1228.7L7285.8 1229.07C7286.24 1229.46 7286.68 1229.85 7287.12 1230.24L7287.45 1229.87ZM7286.13 1228.7L7286.46 1228.32C7285.73 1227.68 7285 1227.05 7284.26 1226.42L7283.93 1226.8L7283.61 1227.18C7284.34 1227.8 7285.07 1228.44 7285.8 1229.07L7286.13 1228.7ZM7283.93 1226.8L7284.26 1226.42C7283.97 1226.18 7283.69 1225.94 7283.41 1225.71L7283.09 1226.09L7282.76 1226.47C7283.05 1226.71 7283.33 1226.94 7283.61 1227.18L7283.93 1226.8ZM7283.09 1226.09L7283.41 1225.71C7283.22 1225.55 7283.03 1225.39 7282.85 1225.24L7282.53 1225.62L7282.21 1226.01C7282.39 1226.16 7282.58 1226.32 7282.76 1226.47L7283.09 1226.09ZM7282.53 1225.62L7282.85 1225.24C7282.54 1224.99 7282.24 1224.74 7281.93 1224.49L7281.62 1224.88L7281.3 1225.26C7281.61 1225.51 7281.91 1225.76 7282.21 1226.01L7282.53 1225.62ZM7281.62 1224.88L7281.93 1224.49C7281.74 1224.33 7281.54 1224.17 7281.34 1224.01L7281.03 1224.39L7280.71 1224.78C7280.91 1224.94 7281.1 1225.1 7281.3 1225.26L7281.62 1224.88ZM7281.03 1224.39L7281.34 1224.01C7281.08 1223.79 7280.81 1223.58 7280.54 1223.37L7280.23 1223.76L7279.92 1224.15C7280.19 1224.36 7280.45 1224.57 7280.71 1224.78L7281.03 1224.39ZM7280.23 1223.76L7280.54 1223.37C7280.3 1223.18 7280.06 1222.98 7279.82 1222.79L7279.51 1223.18L7279.2 1223.58C7279.44 1223.77 7279.68 1223.96 7279.92 1224.15L7280.23 1223.76ZM7279.51 1223.18L7279.82 1222.79C7279.58 1222.6 7279.33 1222.41 7279.09 1222.22L7278.78 1222.61L7278.47 1223.01C7278.72 1223.2 7278.96 1223.39 7279.2 1223.58L7279.51 1223.18ZM7278.78 1222.61L7279.09 1222.22C7278.82 1222.01 7278.55 1221.8 7278.28 1221.6L7277.98 1221.99L7277.67 1222.39C7277.94 1222.59 7278.21 1222.8 7278.47 1223.01L7278.78 1222.61ZM7277.98 1221.99L7278.28 1221.6C7278.05 1221.42 7277.82 1221.24 7277.59 1221.06L7277.28 1221.46L7276.98 1221.86C7277.21 1222.03 7277.44 1222.21 7277.67 1222.39L7277.98 1221.99ZM7277.28 1221.46L7277.59 1221.06C7277.31 1220.85 7277.03 1220.64 7276.75 1220.43L7276.45 1220.83L7276.15 1221.23C7276.43 1221.44 7276.71 1221.65 7276.98 1221.86L7277.28 1221.46ZM7276.45 1220.83L7276.75 1220.43C7276.52 1220.25 7276.28 1220.08 7276.04 1219.9L7275.75 1220.3L7275.45 1220.7C7275.68 1220.88 7275.92 1221.05 7276.15 1221.23L7276.45 1220.83ZM7275.75 1220.3L7276.04 1219.9C7275.76 1219.69 7275.48 1219.48 7275.2 1219.28L7274.9 1219.68L7274.61 1220.08C7274.89 1220.29 7275.17 1220.5 7275.45 1220.7L7275.75 1220.3ZM7274.9 1219.68L7275.2 1219.28C7274.97 1219.11 7274.74 1218.94 7274.51 1218.77L7274.21 1219.18L7273.92 1219.58C7274.15 1219.75 7274.38 1219.92 7274.61 1220.08L7274.9 1219.68ZM7274.21 1219.18L7274.51 1218.77C7274.25 1218.58 7273.98 1218.39 7273.72 1218.21L7273.43 1218.61L7273.14 1219.02C7273.4 1219.21 7273.66 1219.39 7273.92 1219.58L7274.21 1219.18ZM7273.43 1218.61L7273.72 1218.21C7273.44 1218 7273.15 1217.8 7272.87 1217.6L7272.58 1218L7272.29 1218.41C7272.57 1218.61 7272.86 1218.82 7273.14 1219.02L7273.43 1218.61ZM7272.58 1218L7272.87 1217.6C7272.62 1217.42 7272.38 1217.26 7272.14 1217.09L7271.85 1217.5L7271.57 1217.91C7271.81 1218.07 7272.05 1218.24 7272.29 1218.41L7272.58 1218ZM7271.85 1217.5L7272.14 1217.09C7271.89 1216.91 7271.64 1216.74 7271.39 1216.56L7271.1 1216.97L7270.82 1217.38C7271.07 1217.56 7271.32 1217.73 7271.57 1217.91L7271.85 1217.5ZM7271.1 1216.97L7271.39 1216.56C7271.03 1216.31 7270.67 1216.07 7270.31 1215.82L7270.02 1216.24L7269.74 1216.65C7270.1 1216.89 7270.46 1217.14 7270.82 1217.38L7271.1 1216.97ZM7270.02 1216.24L7270.31 1215.82C7270.15 1215.72 7269.99 1215.61 7269.83 1215.5L7269.55 1215.91L7269.27 1216.33C7269.43 1216.43 7269.58 1216.54 7269.74 1216.65L7270.02 1216.24ZM7269.55 1215.91L7269.83 1215.5C7269.5 1215.28 7269.17 1215.06 7268.84 1214.84L7268.56 1215.25L7268.29 1215.67C7268.61 1215.89 7268.94 1216.11 7269.27 1216.33L7269.55 1215.91ZM7268.56 1215.25L7268.84 1214.84C7268.62 1214.69 7268.39 1214.54 7268.17 1214.39L7267.89 1214.81L7267.62 1215.23C7267.84 1215.37 7268.06 1215.52 7268.29 1215.67L7268.56 1215.25ZM7267.89 1214.81L7268.17 1214.39C7267.81 1214.16 7267.45 1213.92 7267.09 1213.69L7266.82 1214.11L7266.55 1214.53C7266.9 1214.76 7267.26 1214.99 7267.62 1215.23L7267.89 1214.81ZM7266.82 1214.11L7267.09 1213.69C7266.93 1213.59 7266.76 1213.48 7266.6 1213.38L7266.33 1213.8L7266.06 1214.22C7266.22 1214.32 7266.38 1214.42 7266.55 1214.53L7266.82 1214.11ZM7266.33 1213.8L7266.6 1213.38C7264.99 1212.34 7263.36 1211.34 7261.71 1210.36L7261.45 1210.79L7261.2 1211.22C7262.84 1212.19 7264.46 1213.19 7266.06 1214.22L7266.33 1213.8ZM7261.45 1210.79L7261.71 1210.36C7261.45 1210.21 7261.19 1210.06 7260.93 1209.91L7260.68 1210.34L7260.43 1210.77C7260.69 1210.92 7260.94 1211.07 7261.2 1211.22L7261.45 1210.79ZM7260.68 1210.34L7260.93 1209.91C7260.62 1209.72 7260.3 1209.54 7259.98 1209.35L7259.73 1209.78L7259.48 1210.22C7259.79 1210.4 7260.11 1210.58 7260.43 1210.77L7260.68 1210.34ZM7259.73 1209.78L7259.98 1209.35C7259.78 1209.24 7259.58 1209.12 7259.39 1209.02L7259.14 1209.45L7258.89 1209.88C7259.09 1210 7259.28 1210.11 7259.48 1210.22L7259.73 1209.78ZM7259.14 1209.45L7259.39 1209.02C7259.04 1208.81 7258.68 1208.61 7258.32 1208.41L7258.08 1208.85L7257.83 1209.28C7258.19 1209.48 7258.54 1209.68 7258.89 1209.88L7259.14 1209.45ZM7258.08 1208.85L7258.32 1208.41C7258.07 1208.27 7257.81 1208.13 7257.55 1207.98L7257.31 1208.42L7257.07 1208.86C7257.33 1209 7257.58 1209.14 7257.83 1209.28L7258.08 1208.85ZM7257.31 1208.42L7257.55 1207.98C7257.26 1207.82 7256.96 1207.66 7256.66 1207.49L7256.42 1207.93L7256.18 1208.37C7256.48 1208.53 7256.77 1208.69 7257.07 1208.86L7257.31 1208.42ZM7256.42 1207.93L7256.66 1207.49C7256.37 1207.34 7256.08 1207.18 7255.8 1207.02L7255.56 1207.46L7255.32 1207.91C7255.61 1208.06 7255.9 1208.21 7256.18 1208.37L7256.42 1207.93ZM7255.56 1207.46L7255.8 1207.02C7255.52 1206.88 7255.25 1206.73 7254.97 1206.59L7254.74 1207.03L7254.51 1207.47C7254.78 1207.61 7255.05 1207.76 7255.32 1207.91L7255.56 1207.46ZM7254.74 1207.03L7254.97 1206.59C7254.69 1206.44 7254.41 1206.29 7254.13 1206.14L7253.9 1206.58L7253.67 1207.03C7253.95 1207.17 7254.23 1207.32 7254.51 1207.47L7254.74 1207.03ZM7253.9 1206.58L7254.13 1206.14C7253.83 1205.98 7253.53 1205.83 7253.22 1205.67L7253 1206.12L7252.77 1206.56C7253.07 1206.71 7253.37 1206.87 7253.67 1207.03L7253.9 1206.58ZM7253 1206.12L7253.22 1205.67C7252.96 1205.54 7252.7 1205.4 7252.44 1205.27L7252.21 1205.71L7251.99 1206.16C7252.25 1206.29 7252.51 1206.43 7252.77 1206.56L7253 1206.12ZM7252.21 1205.71L7252.44 1205.27C7252.13 1205.11 7251.83 1204.96 7251.52 1204.8L7251.3 1205.25L7251.07 1205.7C7251.38 1205.85 7251.68 1206.01 7251.99 1206.16L7252.21 1205.71ZM7251.3 1205.25L7251.52 1204.8C7251.23 1204.66 7250.93 1204.51 7250.64 1204.37L7250.42 1204.82L7250.2 1205.26C7250.49 1205.41 7250.78 1205.55 7251.07 1205.7L7251.3 1205.25ZM7250.42 1204.82L7250.64 1204.37C7250.38 1204.24 7250.11 1204.11 7249.85 1203.98L7249.63 1204.43L7249.41 1204.88C7249.67 1205.01 7249.94 1205.14 7250.2 1205.26L7250.42 1204.82ZM7249.63 1204.43L7249.85 1203.98C7249.53 1203.83 7249.21 1203.67 7248.9 1203.52L7248.68 1203.97L7248.47 1204.42C7248.78 1204.58 7249.1 1204.73 7249.41 1204.88L7249.63 1204.43ZM7248.68 1203.97L7248.9 1203.52C7248.6 1203.38 7248.3 1203.24 7248 1203.1L7247.79 1203.55L7247.57 1204C7247.87 1204.14 7248.17 1204.28 7248.47 1204.42L7248.68 1203.97ZM7247.79 1203.55L7248 1203.1C7247.75 1202.98 7247.51 1202.87 7247.26 1202.75L7247.05 1203.21L7246.84 1203.66C7247.09 1203.77 7247.33 1203.89 7247.57 1204L7247.79 1203.55ZM7247.05 1203.21L7247.26 1202.75C7246.87 1202.57 7246.48 1202.39 7246.09 1202.21L7245.89 1202.67L7245.68 1203.12C7246.07 1203.3 7246.46 1203.48 7246.84 1203.66L7247.05 1203.21ZM7245.89 1202.67L7246.09 1202.21C7245.89 1202.12 7245.68 1202.02 7245.47 1201.93L7245.27 1202.39L7245.06 1202.84C7245.27 1202.94 7245.47 1203.03 7245.68 1203.12L7245.89 1202.67ZM7245.27 1202.39L7245.47 1201.93C7245.11 1201.77 7244.74 1201.61 7244.38 1201.45L7244.18 1201.9L7243.98 1202.36C7244.34 1202.52 7244.7 1202.68 7245.06 1202.84L7245.27 1202.39ZM7244.18 1201.9L7244.38 1201.45C7244.15 1201.34 7243.91 1201.24 7243.67 1201.13L7243.47 1201.59L7243.27 1202.05C7243.51 1202.15 7243.74 1202.26 7243.98 1202.36L7244.18 1201.9ZM7243.47 1201.59L7243.67 1201.13C7243.35 1200.99 7243.02 1200.85 7242.7 1200.72L7242.51 1201.17L7242.31 1201.63C7242.63 1201.77 7242.95 1201.91 7243.27 1202.05L7243.47 1201.59ZM7242.51 1201.17L7242.7 1200.72C7242.42 1200.6 7242.14 1200.47 7241.86 1200.36L7241.67 1200.82L7241.47 1201.28C7241.75 1201.39 7242.03 1201.51 7242.31 1201.63L7242.51 1201.17ZM7241.67 1200.82L7241.86 1200.36C7241.53 1200.21 7241.19 1200.08 7240.86 1199.94L7240.67 1200.4L7240.47 1200.86C7240.81 1201 7241.14 1201.14 7241.47 1201.28L7241.67 1200.82ZM7240.67 1200.4L7240.86 1199.94C7240.61 1199.84 7240.35 1199.73 7240.09 1199.62L7239.9 1200.08L7239.71 1200.55C7239.97 1200.65 7240.21 1200.76 7240.47 1200.86L7240.67 1200.4ZM7239.9 1200.08L7240.09 1199.62C7239.7 1199.46 7239.3 1199.3 7238.91 1199.15L7238.72 1199.61L7238.54 1200.08C7238.93 1200.23 7239.32 1200.39 7239.71 1200.55L7239.9 1200.08ZM7238.72 1199.61L7238.91 1199.15C7238.71 1199.07 7238.48 1198.98 7238.27 1198.89L7238.09 1199.36L7237.9 1199.82C7238.12 1199.91 7238.32 1199.99 7238.54 1200.08L7238.72 1199.61ZM7238.09 1199.36L7238.27 1198.89C7237.08 1198.42 7235.89 1197.97 7234.69 1197.53L7234.52 1198L7234.35 1198.47C7235.54 1198.91 7236.73 1199.36 7237.9 1199.82L7238.09 1199.36ZM7234.52 1198L7234.69 1197.53C7234.37 1197.41 7234.05 1197.3 7233.74 1197.19L7233.57 1197.66L7233.4 1198.13C7233.72 1198.24 7234.03 1198.35 7234.35 1198.47L7234.52 1198ZM7233.57 1197.66L7233.74 1197.19C7233.44 1197.08 7233.13 1196.97 7232.83 1196.86L7232.66 1197.33L7232.49 1197.8C7232.8 1197.91 7233.09 1198.02 7233.4 1198.13L7233.57 1197.66ZM7232.66 1197.33L7232.83 1196.86C7232.57 1196.77 7232.31 1196.68 7232.06 1196.59L7231.89 1197.06L7231.73 1197.54C7231.99 1197.63 7232.24 1197.71 7232.49 1197.8L7232.66 1197.33ZM7231.89 1197.06L7232.06 1196.59C7231.68 1196.46 7231.3 1196.33 7230.92 1196.2L7230.76 1196.67L7230.6 1197.15C7230.97 1197.27 7231.35 1197.4 7231.73 1197.54L7231.89 1197.06ZM7230.76 1196.67L7230.92 1196.2C7230.71 1196.13 7230.49 1196.06 7230.28 1195.98L7230.12 1196.46L7229.97 1196.93C7230.18 1197 7230.39 1197.07 7230.6 1197.15L7230.76 1196.67ZM7230.12 1196.46L7230.28 1195.98C7229.88 1195.85 7229.48 1195.72 7229.08 1195.59L7228.93 1196.06L7228.77 1196.54C7229.17 1196.67 7229.57 1196.8 7229.97 1196.93L7230.12 1196.46ZM7228.93 1196.06L7229.08 1195.59C7228.81 1195.5 7228.53 1195.41 7228.26 1195.32L7228.11 1195.8L7227.96 1196.27C7228.23 1196.36 7228.5 1196.45 7228.77 1196.54L7228.93 1196.06ZM7228.11 1195.8L7228.26 1195.32C7227.93 1195.22 7227.59 1195.11 7227.26 1195L7227.11 1195.48L7226.96 1195.96C7227.29 1196.06 7227.62 1196.17 7227.96 1196.27L7228.11 1195.8ZM7227.11 1195.48L7227.26 1195C7226.98 1194.92 7226.7 1194.83 7226.42 1194.75L7226.28 1195.22L7226.13 1195.7C7226.41 1195.79 7226.68 1195.87 7226.96 1195.96L7227.11 1195.48ZM7226.28 1195.22L7226.42 1194.75C7226.04 1194.63 7225.66 1194.51 7225.27 1194.4L7225.13 1194.87L7224.99 1195.35C7225.37 1195.47 7225.75 1195.58 7226.13 1195.7L7226.28 1195.22ZM7225.13 1194.87L7225.27 1194.4C7225.06 1194.33 7224.84 1194.27 7224.62 1194.2L7224.48 1194.68L7224.34 1195.16C7224.56 1195.22 7224.77 1195.29 7224.99 1195.35L7225.13 1194.87ZM7224.48 1194.68L7224.62 1194.2C7224.21 1194.08 7223.79 1193.96 7223.37 1193.84L7223.23 1194.32L7223.09 1194.8C7223.51 1194.92 7223.93 1195.04 7224.34 1195.16L7224.48 1194.68ZM7223.23 1194.32L7223.37 1193.84C7223.14 1193.77 7222.92 1193.71 7222.69 1193.65L7222.56 1194.13L7222.42 1194.61C7222.65 1194.67 7222.87 1194.73 7223.09 1194.8L7223.23 1194.32ZM7222.56 1194.13L7222.69 1193.65C7222.29 1193.53 7221.89 1193.42 7221.49 1193.31L7221.36 1193.8L7221.23 1194.28C7221.63 1194.39 7222.02 1194.5 7222.42 1194.61L7222.56 1194.13ZM7221.36 1193.8L7221.49 1193.31C7221.25 1193.25 7221.01 1193.18 7220.76 1193.11L7220.63 1193.6L7220.5 1194.08C7220.74 1194.14 7220.99 1194.21 7221.23 1194.28L7221.36 1193.8ZM7220.63 1193.6L7220.76 1193.11C7220.36 1193.01 7219.97 1192.9 7219.57 1192.8L7219.45 1193.28L7219.32 1193.77C7219.72 1193.87 7220.11 1193.97 7220.5 1194.08L7220.63 1193.6ZM7219.45 1193.28L7219.57 1192.8C7219.33 1192.74 7219.09 1192.67 7218.85 1192.61L7218.72 1193.1L7218.6 1193.58C7218.84 1193.64 7219.08 1193.71 7219.32 1193.77L7219.45 1193.28ZM7218.72 1193.1L7218.85 1192.61C7218.42 1192.5 7218 1192.4 7217.58 1192.3L7217.46 1192.78L7217.34 1193.27C7217.76 1193.37 7218.18 1193.47 7218.6 1193.58L7218.72 1193.1ZM7217.46 1192.78L7217.58 1192.3C7217.37 1192.24 7217.15 1192.19 7216.93 1192.13L7216.81 1192.62L7216.69 1193.11C7216.91 1193.16 7217.12 1193.21 7217.34 1193.27L7217.46 1192.78ZM7216.81 1192.62L7216.93 1192.13C7216.56 1192.05 7216.2 1191.96 7215.84 1191.88L7215.72 1192.36L7215.61 1192.85C7215.97 1192.93 7216.33 1193.02 7216.69 1193.11L7216.81 1192.62ZM7215.72 1192.36L7215.84 1191.88C7215.53 1191.8 7215.21 1191.73 7214.9 1191.66L7214.79 1192.14L7214.68 1192.63C7214.99 1192.7 7215.3 1192.78 7215.61 1192.85L7215.72 1192.36ZM7214.79 1192.14L7214.9 1191.66C7214.53 1191.57 7214.15 1191.49 7213.78 1191.4L7213.67 1191.89L7213.56 1192.38C7213.94 1192.46 7214.31 1192.55 7214.68 1192.63L7214.79 1192.14ZM7213.67 1191.89L7213.78 1191.4C7213.54 1191.35 7213.3 1191.3 7213.06 1191.24L7212.95 1191.73L7212.84 1192.22C7213.08 1192.27 7213.32 1192.33 7213.56 1192.38L7213.67 1191.89ZM7212.95 1191.73L7213.06 1191.24C7212.55 1191.13 7212.04 1191.03 7211.53 1190.92L7211.43 1191.41L7211.33 1191.9C7211.84 1192.01 7212.34 1192.11 7212.84 1192.22L7212.95 1191.73ZM7211.43 1191.41L7211.53 1190.92C7211.41 1190.9 7211.24 1190.86 7211.1 1190.83L7211 1191.32L7210.9 1191.81C7211.05 1191.84 7211.17 1191.87 7211.33 1191.9L7211.43 1191.41ZM7211 1191.32L7211.1 1190.83C7209.78 1190.56 7208.46 1190.31 7207.13 1190.07L7207.05 1190.56L7206.96 1191.06C7208.28 1191.29 7209.59 1191.54 7210.9 1191.81L7211 1191.32ZM7207.05 1190.56L7207.13 1190.07C7207.1 1190.06 7207.06 1190.06 7207.03 1190.05C7206.99 1190.05 7206.96 1190.04 7206.93 1190.04L7206.84 1190.53L7206.75 1191.02C7206.79 1191.03 7206.83 1191.03 7206.86 1191.04C7206.9 1191.04 7206.93 1191.05 7206.96 1191.06L7207.05 1190.56ZM7206.84 1190.53L7206.93 1190.04C7206.35 1189.93 7205.76 1189.83 7205.18 1189.73L7205.09 1190.23L7205.01 1190.72C7205.59 1190.82 7206.17 1190.92 7206.75 1191.02L7206.84 1190.53ZM7205.09 1190.23L7205.18 1189.73C7204.93 1189.69 7204.67 1189.65 7204.43 1189.61L7204.35 1190.11L7204.27 1190.6C7204.52 1190.64 7204.76 1190.68 7205.01 1190.72L7205.09 1190.23ZM7204.35 1190.11L7204.43 1189.61C7204.04 1189.55 7203.64 1189.49 7203.25 1189.43L7203.18 1189.92L7203.1 1190.42C7203.49 1190.47 7203.88 1190.54 7204.27 1190.6L7204.35 1190.11ZM7203.18 1189.92L7203.25 1189.43C7202.9 1189.37 7202.56 1189.32 7202.21 1189.27L7202.14 1189.77L7202.07 1190.26C7202.41 1190.31 7202.76 1190.36 7203.1 1190.42L7203.18 1189.92ZM7202.14 1189.77L7202.21 1189.27C7201.91 1189.23 7201.61 1189.18 7201.3 1189.14L7201.23 1189.63L7201.16 1190.13C7201.46 1190.17 7201.76 1190.22 7202.07 1190.26L7202.14 1189.77ZM7201.23 1189.63L7201.3 1189.14C7200.94 1189.09 7200.58 1189.04 7200.22 1188.99L7200.16 1189.49L7200.09 1189.98C7200.45 1190.03 7200.81 1190.08 7201.16 1190.13L7201.23 1189.63ZM7200.16 1189.49L7200.22 1188.99C7199.92 1188.95 7199.61 1188.91 7199.3 1188.87L7199.23 1189.36L7199.17 1189.86C7199.48 1189.9 7199.78 1189.94 7200.09 1189.98L7200.16 1189.49ZM7199.23 1189.36L7199.3 1188.87C7198.95 1188.82 7198.61 1188.78 7198.26 1188.74L7198.2 1189.23L7198.14 1189.73C7198.49 1189.77 7198.83 1189.81 7199.17 1189.86L7199.23 1189.36ZM7198.2 1189.23L7198.26 1188.74C7197.94 1188.7 7197.62 1188.66 7197.29 1188.62L7197.24 1189.12L7197.18 1189.61C7197.5 1189.65 7197.82 1189.69 7198.14 1189.73L7198.2 1189.23ZM7197.24 1189.12L7197.29 1188.62C7196.95 1188.58 7196.6 1188.54 7196.25 1188.5L7196.2 1189L7196.14 1189.5C7196.49 1189.54 7196.83 1189.57 7197.18 1189.61L7197.24 1189.12ZM7196.2 1189L7196.25 1188.5C7195.93 1188.47 7195.61 1188.43 7195.29 1188.4L7195.24 1188.9L7195.19 1189.39C7195.51 1189.43 7195.82 1189.46 7196.14 1189.5L7196.2 1189ZM7195.24 1188.9L7195.29 1188.4C7194.97 1188.37 7194.64 1188.33 7194.31 1188.3L7194.26 1188.8L7194.21 1189.3C7194.54 1189.33 7194.86 1189.36 7195.19 1189.39L7195.24 1188.9ZM7194.26 1188.8L7194.31 1188.3C7193.95 1188.26 7193.59 1188.23 7193.23 1188.2L7193.18 1188.7L7193.13 1189.19C7193.49 1189.23 7193.85 1189.26 7194.21 1189.3L7194.26 1188.8ZM7193.18 1188.7L7193.23 1188.2C7192.91 1188.17 7192.6 1188.14 7192.29 1188.11L7192.25 1188.61L7192.21 1189.11C7192.52 1189.14 7192.82 1189.16 7193.13 1189.19L7193.18 1188.7ZM7192.25 1188.61L7192.29 1188.11C7191.92 1188.08 7191.55 1188.05 7191.18 1188.02L7191.14 1188.52L7191.1 1189.02C7191.47 1189.05 7191.84 1189.08 7192.21 1189.11L7192.25 1188.61ZM7191.14 1188.52L7191.18 1188.02C7190.89 1188 7190.59 1187.98 7190.29 1187.95L7190.26 1188.45L7190.22 1188.95C7190.51 1188.97 7190.81 1189 7191.1 1189.02L7191.14 1188.52ZM7190.26 1188.45L7190.29 1187.95C7189.9 1187.93 7189.51 1187.9 7189.12 1187.87L7189.09 1188.37L7189.05 1188.87C7189.44 1188.9 7189.83 1188.92 7190.22 1188.95L7190.26 1188.45ZM7189.09 1188.37L7189.12 1187.87C7188.84 1187.85 7188.56 1187.83 7188.28 1187.82L7188.25 1188.32L7188.22 1188.82C7188.49 1188.83 7188.77 1188.85 7189.05 1188.87L7189.09 1188.37ZM7188.25 1188.32L7188.28 1187.82C7187.86 1187.79 7187.44 1187.77 7187.02 1187.75L7186.99 1188.25L7186.97 1188.74C7187.38 1188.77 7187.8 1188.79 7188.22 1188.82L7188.25 1188.32ZM7186.99 1188.25L7187.02 1187.75C7186.76 1187.73 7186.49 1187.72 7186.23 1187.7L7186.2 1188.2L7186.18 1188.7C7186.44 1188.72 7186.7 1188.73 7186.97 1188.74L7186.99 1188.25ZM7186.2 1188.2L7186.23 1187.7C7185.84 1187.68 7185.44 1187.67 7185.05 1187.65L7185.03 1188.15L7185.01 1188.65C7185.4 1188.67 7185.79 1188.68 7186.18 1188.7L7186.2 1188.2ZM7185.03 1188.15L7185.05 1187.65C7184.76 1187.64 7184.46 1187.62 7184.16 1187.61L7184.14 1188.11L7184.12 1188.61C7184.42 1188.62 7184.71 1188.64 7185.01 1188.65L7185.03 1188.15ZM7184.14 1188.11L7184.16 1187.61C7183.72 1187.6 7183.28 1187.59 7182.85 1187.57L7182.84 1188.07L7182.82 1188.57C7183.26 1188.58 7183.69 1188.6 7184.12 1188.61L7184.14 1188.11ZM7182.84 1188.07L7182.85 1187.57C7182.62 1187.57 7182.38 1187.56 7182.14 1187.55L7182.13 1188.05L7182.12 1188.55C7182.35 1188.56 7182.58 1188.57 7182.82 1188.57L7182.84 1188.07ZM7182.13 1188.05L7182.14 1187.55C7181.59 1187.54 7181.04 1187.53 7180.48 1187.52L7180.48 1188.02L7180.47 1188.52C7181.02 1188.53 7181.57 1188.54 7182.12 1188.55L7182.13 1188.05ZM7180.48 1188.02L7180.48 1187.52C7180.36 1187.52 7180.21 1187.51 7180.09 1187.51L7180.08 1188.01L7180.08 1188.51C7180.21 1188.51 7180.32 1188.52 7180.47 1188.52L7180.48 1188.02ZM7180.08 1188.01L7180.09 1187.51C7180.06 1187.51 7180.01 1187.51 7179.99 1187.51L7179.99 1188.01L7179.98 1188.51C7180.02 1188.51 7180.04 1188.51 7180.08 1188.51L7180.08 1188.01ZM7179.99 1188.01L7179.99 1187.51L7178 1187.5L7178 1188L7178 1188.5L7179.98 1188.51L7179.99 1188.01ZM7178 1188V1187.5C7177.3 1187.5 7176.61 1187.5 7175.91 1187.51L7175.92 1188.01L7175.92 1188.51C7176.62 1188.5 7177.31 1188.5 7178 1188.5V1188ZM7175.92 1188.01L7175.91 1187.51C7175.79 1187.51 7175.61 1187.52 7175.5 1187.52L7175.51 1188.02L7175.52 1188.52C7175.67 1188.52 7175.78 1188.51 7175.92 1188.51L7175.92 1188.01ZM7175.51 1188.02L7175.5 1187.52C7174.95 1187.53 7174.41 1187.54 7173.86 1187.55L7173.87 1188.05L7173.88 1188.55C7174.43 1188.54 7174.97 1188.53 7175.52 1188.52L7175.51 1188.02ZM7173.87 1188.05L7173.86 1187.55C7173.62 1187.56 7173.37 1187.57 7173.13 1187.57L7173.15 1188.07L7173.16 1188.57C7173.41 1188.56 7173.64 1188.56 7173.88 1188.55L7173.87 1188.05ZM7173.15 1188.07L7173.13 1187.57C7172.7 1187.58 7172.28 1187.6 7171.85 1187.61L7171.86 1188.11L7171.88 1188.61C7172.31 1188.6 7172.73 1188.58 7173.16 1188.57L7173.15 1188.07ZM7171.86 1188.11L7171.85 1187.61C7171.54 1187.62 7171.24 1187.64 7170.94 1187.65L7170.96 1188.15L7170.98 1188.65C7171.28 1188.64 7171.58 1188.62 7171.88 1188.61L7171.86 1188.11ZM7170.96 1188.15L7170.94 1187.65C7170.55 1187.67 7170.16 1187.68 7169.77 1187.7L7169.8 1188.2L7169.82 1188.7C7170.21 1188.68 7170.59 1188.67 7170.98 1188.65L7170.96 1188.15ZM7169.8 1188.2L7169.77 1187.7C7169.51 1187.72 7169.24 1187.73 7168.98 1187.75L7169.01 1188.25L7169.03 1188.74C7169.3 1188.73 7169.56 1188.72 7169.82 1188.7L7169.8 1188.2ZM7169.01 1188.25L7168.98 1187.75C7168.56 1187.77 7168.14 1187.79 7167.72 1187.82L7167.75 1188.32L7167.78 1188.82C7168.2 1188.79 7168.62 1188.77 7169.03 1188.74L7169.01 1188.25ZM7167.75 1188.32L7167.72 1187.82C7167.44 1187.83 7167.16 1187.85 7166.88 1187.87L7166.91 1188.37L7166.95 1188.87C7167.23 1188.85 7167.5 1188.83 7167.78 1188.82L7167.75 1188.32ZM7166.91 1188.37L7166.88 1187.87C7166.49 1187.9 7166.1 1187.93 7165.7 1187.95L7165.74 1188.45L7165.78 1188.95C7166.17 1188.92 7166.56 1188.9 7166.95 1188.87L7166.91 1188.37ZM7165.74 1188.45L7165.7 1187.95C7165.41 1187.98 7165.11 1188 7164.81 1188.02L7164.85 1188.52L7164.89 1189.02C7165.19 1189 7165.48 1188.97 7165.78 1188.95L7165.74 1188.45ZM7164.85 1188.52L7164.81 1188.02C7164.45 1188.05 7164.08 1188.08 7163.71 1188.11L7163.76 1188.61L7163.8 1189.11C7164.16 1189.08 7164.53 1189.05 7164.89 1189.02L7164.85 1188.52ZM7163.76 1188.61L7163.71 1188.11C7163.4 1188.14 7163.08 1188.17 7162.77 1188.2L7162.81 1188.7L7162.86 1189.19C7163.17 1189.16 7163.49 1189.14 7163.8 1189.11L7163.76 1188.61ZM7162.81 1188.7L7162.77 1188.2C7162.39 1188.23 7162.02 1188.27 7161.64 1188.31L7161.69 1188.8L7161.74 1189.3C7162.11 1189.26 7162.49 1189.23 7162.86 1189.19L7162.81 1188.7ZM7161.69 1188.8L7161.64 1188.31C7161.36 1188.33 7161.09 1188.36 7160.81 1188.39L7160.86 1188.89L7160.91 1189.38C7161.19 1189.36 7161.46 1189.33 7161.74 1189.3L7161.69 1188.8ZM7160.86 1188.89L7160.81 1188.39C7160.42 1188.43 7160.03 1188.47 7159.64 1188.51L7159.69 1189.01L7159.75 1189.51C7160.14 1189.47 7160.52 1189.42 7160.91 1189.38L7160.86 1188.89ZM7159.69 1189.01L7159.64 1188.51C7159.33 1188.55 7159.02 1188.58 7158.72 1188.62L7158.77 1189.12L7158.83 1189.61C7159.14 1189.58 7159.44 1189.54 7159.75 1189.51L7159.69 1189.01ZM7158.77 1189.12L7158.72 1188.62C7158.39 1188.66 7158.07 1188.7 7157.75 1188.74L7157.81 1189.23L7157.87 1189.73C7158.19 1189.69 7158.51 1189.65 7158.83 1189.61L7158.77 1189.12ZM7157.81 1189.23L7157.75 1188.74C7157.4 1188.78 7157.05 1188.82 7156.7 1188.87L7156.77 1189.36L7156.83 1189.86C7157.17 1189.81 7157.52 1189.77 7157.87 1189.73L7157.81 1189.23ZM7156.77 1189.36L7156.7 1188.87C7156.39 1188.91 7156.08 1188.95 7155.78 1188.99L7155.84 1189.49L7155.91 1189.98C7156.22 1189.94 7156.52 1189.9 7156.83 1189.86L7156.77 1189.36ZM7155.84 1189.49L7155.78 1188.99C7155.42 1189.04 7155.06 1189.09 7154.7 1189.14L7154.77 1189.63L7154.84 1190.13C7155.19 1190.08 7155.55 1190.03 7155.91 1189.98L7155.84 1189.49ZM7154.77 1189.63L7154.7 1189.14C7154.38 1189.18 7154.07 1189.23 7153.76 1189.28L7153.84 1189.77L7153.91 1190.27C7154.22 1190.22 7154.53 1190.17 7154.84 1190.13L7154.77 1189.63ZM7153.84 1189.77L7153.76 1189.28C7153.43 1189.32 7153.09 1189.37 7152.76 1189.42L7152.84 1189.92L7152.91 1190.41C7153.24 1190.36 7153.57 1190.31 7153.91 1190.27L7153.84 1189.77ZM7152.84 1189.92L7152.76 1189.42C7152.37 1189.48 7151.98 1189.55 7151.59 1189.61L7151.67 1190.1L7151.75 1190.6C7152.14 1190.54 7152.53 1190.47 7152.91 1190.41L7152.84 1189.92ZM7151.67 1190.1L7151.59 1189.61C7151.34 1189.65 7151.07 1189.69 7150.81 1189.74L7150.89 1190.23L7150.97 1190.72C7151.23 1190.68 7151.49 1190.64 7151.75 1190.6L7151.67 1190.1ZM7150.89 1190.23L7150.81 1189.74C7150.24 1189.83 7149.67 1189.93 7149.1 1190.03L7149.19 1190.52L7149.27 1191.02C7149.84 1190.92 7150.41 1190.82 7150.97 1190.72L7150.89 1190.23ZM7149.19 1190.52L7149.1 1190.03C7149.03 1190.04 7148.94 1190.06 7148.86 1190.07L7148.95 1190.56L7149.04 1191.06C7149.12 1191.04 7149.19 1191.03 7149.27 1191.02L7149.19 1190.52ZM7148.95 1190.56L7148.86 1190.07C7147.53 1190.31 7146.2 1190.57 7144.88 1190.84L7144.98 1191.33L7145.08 1191.82C7146.4 1191.55 7147.72 1191.29 7149.04 1191.06L7148.95 1190.56ZM7144.98 1191.33L7144.88 1190.84C7144.77 1190.86 7144.66 1190.88 7144.55 1190.9L7144.65 1191.39L7144.75 1191.88C7144.86 1191.86 7144.97 1191.84 7145.08 1191.82L7144.98 1191.33ZM7144.65 1191.39L7144.55 1190.9C7144.02 1191.01 7143.49 1191.13 7142.96 1191.24L7143.07 1191.73L7143.17 1192.22C7143.7 1192.1 7144.22 1191.99 7144.75 1191.88L7144.65 1191.39ZM7143.07 1191.73L7142.96 1191.24C7142.67 1191.3 7142.38 1191.37 7142.1 1191.43L7142.2 1191.92L7142.31 1192.41C7142.6 1192.34 7142.89 1192.28 7143.17 1192.22L7143.07 1191.73ZM7142.2 1191.92L7142.1 1191.43C7141.77 1191.5 7141.45 1191.58 7141.12 1191.65L7141.23 1192.14L7141.34 1192.63C7141.67 1192.55 7141.98 1192.48 7142.31 1192.41L7142.2 1191.92ZM7141.23 1192.14L7141.12 1191.65C7140.78 1191.73 7140.43 1191.81 7140.1 1191.89L7140.21 1192.38L7140.33 1192.86C7140.67 1192.78 7141 1192.7 7141.34 1192.63L7141.23 1192.14ZM7140.21 1192.38L7140.1 1191.89C7139.76 1191.97 7139.43 1192.05 7139.1 1192.13L7139.21 1192.62L7139.33 1193.1C7139.66 1193.02 7139.99 1192.94 7140.33 1192.86L7140.21 1192.38ZM7139.21 1192.62L7139.1 1192.13C7138.86 1192.19 7138.62 1192.24 7138.39 1192.3L7138.51 1192.79L7138.63 1193.27C7138.86 1193.22 7139.1 1193.16 7139.33 1193.1L7139.21 1192.62ZM7138.51 1192.79L7138.39 1192.3C7137.98 1192.4 7137.57 1192.51 7137.16 1192.61L7137.28 1193.1L7137.41 1193.58C7137.81 1193.48 7138.22 1193.37 7138.63 1193.27L7138.51 1192.79ZM7137.28 1193.1L7137.16 1192.61C7136.91 1192.68 7136.66 1192.74 7136.41 1192.81L7136.53 1193.29L7136.66 1193.77C7136.91 1193.71 7137.16 1193.64 7137.41 1193.58L7137.28 1193.1ZM7136.53 1193.29L7136.41 1192.81C7136.02 1192.91 7135.63 1193.01 7135.24 1193.11L7135.37 1193.6L7135.5 1194.08C7135.88 1193.98 7136.27 1193.87 7136.66 1193.77L7136.53 1193.29ZM7135.37 1193.6L7135.24 1193.11C7135 1193.18 7134.76 1193.24 7134.53 1193.31L7134.66 1193.79L7134.79 1194.27C7135.03 1194.21 7135.26 1194.14 7135.5 1194.08L7135.37 1193.6ZM7134.66 1193.79L7134.53 1193.31C7134.12 1193.42 7133.72 1193.53 7133.31 1193.64L7133.45 1194.12L7133.58 1194.61C7133.98 1194.49 7134.39 1194.38 7134.79 1194.27L7134.66 1193.79ZM7133.45 1194.12L7133.31 1193.64C7133.08 1193.71 7132.84 1193.78 7132.61 1193.84L7132.75 1194.33L7132.88 1194.81C7133.12 1194.74 7133.35 1194.67 7133.58 1194.61L7133.45 1194.12ZM7132.75 1194.33L7132.61 1193.84C7132.2 1193.96 7131.79 1194.08 7131.39 1194.2L7131.53 1194.68L7131.67 1195.16C7132.07 1195.04 7132.48 1194.92 7132.88 1194.81L7132.75 1194.33ZM7131.53 1194.68L7131.39 1194.2C7131.17 1194.26 7130.95 1194.33 7130.73 1194.4L7130.87 1194.87L7131.01 1195.35C7131.23 1195.29 7131.45 1195.22 7131.67 1195.16L7131.53 1194.68ZM7130.87 1194.87L7130.73 1194.4C7130.33 1194.51 7129.94 1194.63 7129.56 1194.75L7129.7 1195.23L7129.85 1195.71C7130.24 1195.59 7130.63 1195.47 7131.01 1195.35L7130.87 1194.87ZM7129.7 1195.23L7129.56 1194.75C7129.29 1194.83 7129.03 1194.91 7128.76 1195L7128.91 1195.47L7129.06 1195.95C7129.32 1195.87 7129.59 1195.79 7129.85 1195.71L7129.7 1195.23ZM7128.91 1195.47L7128.76 1195C7128.41 1195.11 7128.06 1195.22 7127.71 1195.33L7127.87 1195.81L7128.02 1196.28C7128.37 1196.17 7128.72 1196.06 7129.06 1195.95L7128.91 1195.47ZM7127.87 1195.81L7127.71 1195.33C7127.45 1195.41 7127.19 1195.5 7126.92 1195.59L7127.08 1196.06L7127.23 1196.54C7127.49 1196.45 7127.75 1196.37 7128.02 1196.28L7127.87 1195.81ZM7127.08 1196.06L7126.92 1195.59C7126.51 1195.72 7126.1 1195.86 7125.69 1195.99L7125.85 1196.47L7126.01 1196.94C7126.42 1196.8 7126.82 1196.67 7127.23 1196.54L7127.08 1196.06ZM7125.85 1196.47L7125.69 1195.99C7125.49 1196.06 7125.29 1196.13 7125.08 1196.2L7125.24 1196.67L7125.4 1197.14C7125.61 1197.08 7125.81 1197.01 7126.01 1196.94L7125.85 1196.47ZM7125.24 1196.67L7125.08 1196.2C7124.71 1196.32 7124.33 1196.45 7123.96 1196.58L7124.13 1197.06L7124.29 1197.53C7124.66 1197.4 7125.03 1197.27 7125.4 1197.14L7125.24 1196.67ZM7124.13 1197.06L7123.96 1196.58C7123.7 1196.67 7123.43 1196.77 7123.17 1196.86L7123.34 1197.33L7123.5 1197.8C7123.76 1197.71 7124.02 1197.62 7124.29 1197.53L7124.13 1197.06ZM7123.34 1197.33L7123.17 1196.86C7122.83 1196.98 7122.48 1197.1 7122.15 1197.23L7122.32 1197.7L7122.49 1198.17C7122.83 1198.04 7123.16 1197.92 7123.5 1197.8L7123.34 1197.33ZM7122.32 1197.7L7122.15 1197.23C7121.88 1197.32 7121.61 1197.42 7121.34 1197.52L7121.51 1197.99L7121.68 1198.46C7121.95 1198.36 7122.21 1198.27 7122.49 1198.17L7122.32 1197.7ZM7121.51 1197.99L7121.34 1197.52C7120.89 1197.69 7120.44 1197.85 7119.99 1198.02L7120.17 1198.49L7120.34 1198.96C7120.79 1198.79 7121.23 1198.62 7121.68 1198.46L7121.51 1197.99ZM7120.17 1198.49L7119.99 1198.02C7119.86 1198.07 7119.67 1198.14 7119.53 1198.19L7119.71 1198.66L7119.89 1199.13C7120.05 1199.07 7120.17 1199.02 7120.34 1198.96L7120.17 1198.49ZM7119.71 1198.66L7119.53 1198.19C7118.92 1198.43 7118.31 1198.66 7117.7 1198.9L7117.88 1199.37L7118.07 1199.83C7118.67 1199.6 7119.28 1199.36 7119.89 1199.13L7119.71 1198.66ZM7117.88 1199.37L7117.7 1198.9C7117.64 1198.93 7117.52 1198.98 7117.47 1199L7117.66 1199.46L7117.84 1199.92C7117.94 1199.88 7117.97 1199.87 7118.07 1199.83L7117.88 1199.37ZM7117.66 1199.46L7117.47 1199C7116.94 1199.21 7116.41 1199.42 7115.88 1199.63L7116.07 1200.1L7116.26 1200.56C7116.78 1200.35 7117.31 1200.13 7117.84 1199.92L7117.66 1199.46ZM7116.07 1200.1L7115.88 1199.63C7115.69 1199.71 7115.5 1199.79 7115.32 1199.87L7115.51 1200.33L7115.7 1200.79C7115.89 1200.71 7116.07 1200.64 7116.26 1200.56L7116.07 1200.1ZM7115.51 1200.33L7115.32 1199.87C7114.93 1200.03 7114.53 1200.19 7114.14 1200.36L7114.33 1200.82L7114.52 1201.28C7114.91 1201.11 7115.31 1200.95 7115.7 1200.79L7115.51 1200.33ZM7114.33 1200.82L7114.14 1200.36C7113.87 1200.47 7113.61 1200.58 7113.34 1200.69L7113.54 1201.15L7113.74 1201.61C7114 1201.5 7114.26 1201.39 7114.52 1201.28L7114.33 1200.82ZM7113.54 1201.15L7113.34 1200.69C7112.99 1200.84 7112.64 1201 7112.29 1201.15L7112.49 1201.61L7112.69 1202.06C7113.04 1201.91 7113.39 1201.76 7113.74 1201.61L7113.54 1201.15ZM7112.49 1201.61L7112.29 1201.15C7112.09 1201.24 7111.89 1201.33 7111.69 1201.41L7111.9 1201.87L7112.1 1202.33C7112.3 1202.24 7112.49 1202.15 7112.69 1202.06L7112.49 1201.61ZM7111.9 1201.87L7111.69 1201.41C7111.29 1201.59 7110.89 1201.77 7110.49 1201.95L7110.69 1202.41L7110.9 1202.86C7111.3 1202.68 7111.7 1202.5 7112.1 1202.33L7111.9 1201.87ZM7110.69 1202.41L7110.49 1201.95C7110.29 1202.04 7110.1 1202.13 7109.91 1202.21L7110.11 1202.67L7110.32 1203.12C7110.51 1203.04 7110.7 1202.95 7110.9 1202.86L7110.69 1202.41ZM7110.11 1202.67L7109.91 1202.21C7109.51 1202.39 7109.12 1202.57 7108.73 1202.75L7108.95 1203.21L7109.16 1203.66C7109.54 1203.48 7109.93 1203.3 7110.32 1203.12L7110.11 1202.67ZM7108.95 1203.21L7108.73 1202.75C7108.49 1202.87 7108.24 1202.98 7108 1203.1L7108.21 1203.55L7108.43 1204C7108.67 1203.89 7108.91 1203.77 7109.16 1203.66L7108.95 1203.21ZM7108.21 1203.55L7108 1203.1C7107.7 1203.24 7107.4 1203.38 7107.1 1203.52L7107.32 1203.97L7107.53 1204.42C7107.83 1204.28 7108.13 1204.14 7108.43 1204L7108.21 1203.55ZM7107.32 1203.97L7107.1 1203.52C7106.78 1203.67 7106.47 1203.83 7106.15 1203.98L7106.37 1204.43L7106.59 1204.88C7106.9 1204.73 7107.22 1204.58 7107.53 1204.42L7107.32 1203.97ZM7106.37 1204.43L7106.15 1203.98C7105.89 1204.11 7105.62 1204.24 7105.36 1204.37L7105.58 1204.82L7105.8 1205.26C7106.06 1205.14 7106.32 1205.01 7106.59 1204.88L7106.37 1204.43ZM7105.58 1204.82L7105.36 1204.37C7105.07 1204.51 7104.78 1204.65 7104.49 1204.8L7104.72 1205.25L7104.94 1205.69C7105.23 1205.55 7105.51 1205.41 7105.8 1205.26L7105.58 1204.82ZM7104.72 1205.25L7104.49 1204.8C7104.16 1204.96 7103.83 1205.13 7103.5 1205.3L7103.73 1205.74L7103.95 1206.19C7104.28 1206.02 7104.61 1205.86 7104.94 1205.69L7104.72 1205.25ZM7103.73 1205.74L7103.5 1205.3C7103.28 1205.41 7103.06 1205.53 7102.83 1205.64L7103.06 1206.08L7103.29 1206.53C7103.51 1206.42 7103.73 1206.3 7103.95 1206.19L7103.73 1205.74ZM7103.06 1206.08L7102.83 1205.64C7102.48 1205.82 7102.13 1206.01 7101.78 1206.19L7102.01 1206.63L7102.24 1207.07C7102.59 1206.89 7102.94 1206.71 7103.29 1206.53L7103.06 1206.08ZM7102.01 1206.63L7101.78 1206.19C7101.54 1206.31 7101.31 1206.44 7101.07 1206.56L7101.3 1207L7101.54 1207.44C7101.77 1207.32 7102.01 1207.2 7102.24 1207.07L7102.01 1206.63ZM7101.3 1207L7101.07 1206.56C7100.74 1206.74 7100.41 1206.91 7100.08 1207.09L7100.32 1207.53L7100.56 1207.97C7100.88 1207.79 7101.21 1207.62 7101.54 1207.44L7101.3 1207ZM7100.32 1207.53L7100.08 1207.09C7099.86 1207.21 7099.63 1207.33 7099.41 1207.45L7099.65 1207.89L7099.89 1208.33C7100.11 1208.21 7100.33 1208.09 7100.56 1207.97L7100.32 1207.53ZM7099.65 1207.89L7099.41 1207.45C7099.04 1207.65 7098.67 1207.86 7098.31 1208.06L7098.55 1208.5L7098.79 1208.93C7099.16 1208.73 7099.52 1208.53 7099.89 1208.33L7099.65 1207.89ZM7098.55 1208.5L7098.31 1208.06C7098.1 1208.17 7097.89 1208.29 7097.68 1208.41L7097.93 1208.84L7098.17 1209.28C7098.38 1209.16 7098.58 1209.05 7098.79 1208.93L7098.55 1208.5ZM7097.93 1208.84L7097.68 1208.41C7097.28 1208.63 7096.87 1208.86 7096.47 1209.09L7096.72 1209.53L7096.97 1209.96C7097.37 1209.73 7097.77 1209.5 7098.17 1209.28L7097.93 1208.84ZM7096.72 1209.53L7096.47 1209.09C7096.34 1209.17 7096.19 1209.25 7096.06 1209.33L7096.31 1209.76L7096.56 1210.19C7096.7 1210.11 7096.82 1210.04 7096.97 1209.96L7096.72 1209.53ZM7096.31 1209.76L7096.06 1209.33C7095.64 1209.57 7095.22 1209.82 7094.8 1210.06L7095.05 1210.49L7095.31 1210.93C7095.72 1210.68 7096.14 1210.44 7096.56 1210.19L7096.31 1209.76ZM7095.05 1210.49L7094.8 1210.06C7094.65 1210.15 7094.49 1210.24 7094.34 1210.33L7094.59 1210.76L7094.84 1211.19C7095 1211.1 7095.15 1211.02 7095.31 1210.93L7095.05 1210.49ZM7094.59 1210.76L7094.34 1210.33C7092.67 1211.32 7091.02 1212.33 7089.4 1213.38L7089.67 1213.8L7089.94 1214.22C7091.55 1213.18 7093.19 1212.17 7094.84 1211.19L7094.59 1210.76ZM7089.67 1213.8L7089.4 1213.38C7089.24 1213.48 7089.07 1213.59 7088.91 1213.69L7089.18 1214.11L7089.45 1214.53C7089.62 1214.42 7089.77 1214.32 7089.94 1214.22L7089.67 1213.8ZM7089.18 1214.11L7088.91 1213.69C7088.55 1213.92 7088.19 1214.16 7087.83 1214.39L7088.11 1214.81L7088.38 1215.23C7088.74 1214.99 7089.09 1214.76 7089.45 1214.53L7089.18 1214.11ZM7088.11 1214.81L7087.83 1214.39C7087.61 1214.54 7087.38 1214.69 7087.16 1214.84L7087.44 1215.25L7087.71 1215.67C7087.94 1215.52 7088.16 1215.37 7088.38 1215.23L7088.11 1214.81ZM7087.44 1215.25L7087.16 1214.84C7086.83 1215.06 7086.5 1215.28 7086.17 1215.5L7086.45 1215.91L7086.73 1216.33C7087.05 1216.11 7087.38 1215.89 7087.71 1215.67L7087.44 1215.25ZM7086.45 1215.91L7086.17 1215.5C7086.01 1215.61 7085.85 1215.72 7085.69 1215.82L7085.97 1216.24L7086.26 1216.65C7086.42 1216.54 7086.57 1216.43 7086.73 1216.33L7086.45 1215.91ZM7085.97 1216.24L7085.69 1215.82C7085.33 1216.07 7084.96 1216.32 7084.6 1216.57L7084.88 1216.98L7085.17 1217.39C7085.53 1217.14 7085.89 1216.9 7086.26 1216.65L7085.97 1216.24ZM7084.88 1216.98L7084.6 1216.57C7084.4 1216.71 7084.2 1216.85 7084 1216.99L7084.29 1217.4L7084.57 1217.81C7084.77 1217.67 7084.97 1217.53 7085.17 1217.39L7084.88 1216.98ZM7084.29 1217.4L7084 1216.99C7083.67 1217.22 7083.34 1217.45 7083.01 1217.68L7083.3 1218.09L7083.59 1218.5C7083.91 1218.27 7084.24 1218.04 7084.57 1217.81L7084.29 1217.4ZM7083.3 1218.09L7083.01 1217.68C7082.8 1217.83 7082.59 1217.98 7082.38 1218.13L7082.67 1218.54L7082.97 1218.94C7083.18 1218.79 7083.38 1218.64 7083.59 1218.5L7083.3 1218.09ZM7082.67 1218.54L7082.38 1218.13C7082.07 1218.35 7081.76 1218.58 7081.45 1218.8L7081.74 1219.21L7082.04 1219.61C7082.35 1219.39 7082.65 1219.16 7082.97 1218.94L7082.67 1218.54ZM7081.74 1219.21L7081.45 1218.8C7081.26 1218.94 7081.07 1219.08 7080.88 1219.22L7081.17 1219.62L7081.47 1220.03C7081.66 1219.89 7081.85 1219.75 7082.04 1219.61L7081.74 1219.21ZM7081.17 1219.62L7080.88 1219.22C7080.53 1219.47 7080.19 1219.72 7079.85 1219.98L7080.15 1220.38L7080.45 1220.78C7080.79 1220.53 7081.13 1220.28 7081.47 1220.03L7081.17 1219.62ZM7080.15 1220.38L7079.85 1219.98C7079.68 1220.11 7079.5 1220.24 7079.33 1220.37L7079.63 1220.77L7079.93 1221.17C7080.1 1221.04 7080.27 1220.91 7080.45 1220.78L7080.15 1220.38ZM7079.63 1220.77L7079.33 1220.37C7079 1220.62 7078.67 1220.86 7078.35 1221.11L7078.65 1221.51L7078.96 1221.9C7079.28 1221.66 7079.6 1221.41 7079.93 1221.17L7079.63 1220.77ZM7078.65 1221.51L7078.35 1221.11C7078.14 1221.27 7077.94 1221.42 7077.73 1221.58L7078.03 1221.98L7078.34 1222.38C7078.54 1222.22 7078.75 1222.06 7078.96 1221.9L7078.65 1221.51ZM7078.03 1221.98L7077.73 1221.58C7077.45 1221.8 7077.18 1222.01 7076.91 1222.22L7077.22 1222.61L7077.53 1223.01C7077.8 1222.8 7078.07 1222.59 7078.34 1222.38L7078.03 1221.98ZM7077.22 1222.61L7076.91 1222.22C7076.67 1222.41 7076.43 1222.59 7076.19 1222.78L7076.5 1223.18L7076.81 1223.57C7077.05 1223.38 7077.29 1223.2 7077.53 1223.01L7077.22 1222.61ZM7076.5 1223.18L7076.19 1222.78C7075.93 1222.99 7075.67 1223.2 7075.41 1223.4L7075.72 1223.79L7076.04 1224.18C7076.3 1223.98 7076.55 1223.77 7076.81 1223.57L7076.5 1223.18ZM7075.72 1223.79L7075.41 1223.4C7075.18 1223.59 7074.95 1223.77 7074.72 1223.96L7075.03 1224.35L7075.34 1224.74C7075.57 1224.55 7075.8 1224.37 7076.04 1224.18L7075.72 1223.79ZM7075.03 1224.35L7074.72 1223.96C7074.41 1224.2 7074.11 1224.45 7073.82 1224.69L7074.13 1225.08L7074.45 1225.47C7074.75 1225.22 7075.04 1224.98 7075.34 1224.74L7075.03 1224.35ZM7074.13 1225.08L7073.82 1224.69C7073.63 1224.85 7073.43 1225 7073.24 1225.16L7073.56 1225.55L7073.88 1225.93C7074.07 1225.78 7074.26 1225.62 7074.45 1225.47L7074.13 1225.08ZM7073.56 1225.55L7073.24 1225.16C7072.94 1225.42 7072.63 1225.67 7072.33 1225.93L7072.65 1226.31L7072.97 1226.69C7073.28 1226.44 7073.58 1226.18 7073.88 1225.93L7073.56 1225.55ZM7072.65 1226.31L7072.33 1225.93C7072.14 1226.09 7071.94 1226.25 7071.75 1226.42L7072.07 1226.8L7072.39 1227.18C7072.58 1227.02 7072.78 1226.86 7072.97 1226.69L7072.65 1226.31ZM7072.07 1226.8L7071.75 1226.42C7070.31 1227.63 7068.89 1228.88 7067.49 1230.15L7067.83 1230.52L7068.16 1230.89C7069.55 1229.63 7070.96 1228.39 7072.39 1227.18L7072.07 1226.8ZM7067.83 1230.52L7067.49 1230.15C7064.4 1232.95 7059.66 1232.95 7056.73 1230.02L7056.38 1230.38L7056.02 1230.73C7059.35 1234.05 7064.7 1234.02 7068.16 1230.89L7067.83 1230.52ZM7056.38 1230.38L7056.73 1230.02L7051.07 1224.37L7050.72 1224.72L7050.37 1225.07L7056.02 1230.73L7056.38 1230.38ZM7050.72 1224.72L7051.07 1224.37C7048.14 1221.43 7048.14 1216.68 7051.18 1213.9L7050.84 1213.53L7050.5 1213.16C7047.03 1216.35 7047.05 1221.76 7050.37 1225.07L7050.72 1224.72ZM7050.84 1213.53L7051.18 1213.9C7084.56 1183.22 7129.09 1164.5 7178 1164.5V1164V1163.5C7128.83 1163.5 7084.06 1182.32 7050.5 1213.16L7050.84 1213.53Z" fill="white" id="n2439"/>
<path d="M7178 1164C7227.04 1164 7271.69 1182.77 7305.16 1213.53C7308.41 1216.52 7308.4 1221.6 7305.28 1224.72L7299.62 1230.38C7296.5 1233.5 7291.44 1233.49 7288.17 1230.52C7259.06 1204.1 7220.41 1188 7178 1188C7135.59 1188 7096.94 1204.1 7067.82 1230.52C7064.55 1233.49 7059.5 1233.5 7056.38 1230.38L7050.72 1224.72C7047.6 1221.6 7047.58 1216.52 7050.84 1213.53C7084.31 1182.77 7128.96 1164 7178 1164Z" stroke="#BEBEBE" id="n2440"/>
<g mask="url(#mask308_68_6728)" id="n2442">
<mask id="mask309_68_6728" style="mask-type:alpha" maskUnits="userSpaceOnUse" x="6922" y="1096" width="512" height="512">
<path d="M7178 1160C7284.04 1160 7370 1245.96 7370 1352C7370 1458.04 7284.04 1544 7178 1544C7071.96 1544 6986 1458.04 6986 1352C6986 1245.96 7071.96 1160 7178 1160ZM7178 1184C7085.22 1184 7010 1259.22 7010 1352C7010 1444.78 7085.22 1520 7178 1520C7270.78 1520 7346 1444.78 7346 1352C7346 1259.22 7270.78 1184 7178 1184Z" fill="black" id="n2443"/>
</mask>
<g mask="url(#mask309_68_6728)" id="n2444">
<path d="M7178 1152V1352M7178 1352H6978M7178 1352V1552M7178 1352H7378" stroke="#BEBEBE" id="n2445"/>
</g>
<mask id="mask310_68_6728" style="mask-type:alpha" maskUnits="userSpaceOnUse" x="6922" y="1096" width="512" height="512">
<path d="M7178 1160C7284.04 1160 7370 1245.96 7370 1352C7370 1458.04 7284.04 1544 7178 1544C7071.96 1544 6986 1458.04 6986 1352C6986 1245.96 7071.96 1160 7178 1160ZM7178 1188C7087.43 1188 7014 1261.43 7014 1352C7014 1442.57 7087.43 1516 7178 1516C7268.57 1516 7342 1442.57 7342 1352C7342 1261.43 7268.57 1188 7178 1188Z" fill="black" id="n2446"/>
</mask>
<g mask="url(#mask310_68_6728)" id="n2447">
<path d="M7178 1152V1352" stroke="#BEBEBE" id="n2448"/>
</g>
</g>
<g mask="url(#mask311_68_6728)" id="n2450">
<path d="M6922 1352H7434V1608H6922V1352Z" fill="#F0F0F0" id="n2451"/>
<path d="M6922 1352V1353H7434V1352V1351H6922V1352Z" fill="#535353" id="n2452"/>
<path d="M7190 1352L7166 1352M7190 1416L7166 1416M7190 1480L7166 1480M7190 1544L7166 1544M7190 1608L7166 1608M7190 1288L7166 1288M7190 1224L7166 1224M7190 1160L7166 1160M7190 1096L7166 1096" stroke="#BEBEBE" id="n2453"/>
</g>
<path d="M7155 1368V1356H7066C7063.79 1356 7062 1354.21 7062 1352C7062 1349.79 7063.79 1348 7066 1348H7163V1368C7163 1370.21 7161.21 1372 7159 1372C7156.79 1372 7155 1370.21 7155 1368ZM7193 1368V1348H7290C7292.21 1348 7294 1349.79 7294 1352C7294 1354.21 7292.21 1356 7290 1356H7201V1368C7201 1370.21 7199.21 1372 7197 1372C7194.79 1372 7193 1370.21 7193 1368Z" fill="#2D548B" stroke="#F7F7F7" stroke-linecap="round" id="n2454"/>
<circle cx="7178" cy="1352" r="4" fill="#535353" id="n2455"/>
<path d="M7176.6 1192.43C7177.11 1191.19 7178.89 1191.19 7179.4 1192.43L7194.31 1229.09C7195.22 1231.33 7192.71 1233.35 7190.68 1232.13V1232.13L7178 1224.58L7165.32 1232.13C7163.29 1233.35 7160.78 1231.33 7161.69 1229.09L7176.6 1192.43Z" fill="#2D548B" stroke="#F7F7F7" id="n2456"/>
<path d="M7397.2 1184C7401.68 1184 7403.92 1184 7405.63 1184.87C7407.14 1185.64 7408.36 1186.86 7409.13 1188.37C7410 1190.08 7410 1192.32 7410 1196.8L7410 1507.2C7410 1511.68 7410 1513.92 7409.13 1515.63C7408.36 1517.14 7407.14 1518.36 7405.63 1519.13C7403.92 1520 7401.68 1520 7397.2 1520L7350.8 1520C7346.32 1520 7344.08 1520 7342.37 1519.13C7340.86 1518.36 7339.64 1517.14 7338.87 1515.63C7338 1513.92 7338 1511.68 7338 1507.2L7338 1196.8C7338 1192.32 7338 1190.08 7338.87 1188.37C7339.64 1186.86 7340.86 1185.64 7342.37 1184.87C7344.08 1184 7346.32 1184 7350.8 1184L7397.2 1184Z" fill="white" stroke="white" id="n2457"/>
<path d="M7386 1184L7386 1520L7350.8 1520C7346.32 1520 7344.08 1520 7342.37 1519.13C7340.86 1518.36 7339.64 1517.14 7338.87 1515.63C7338 1513.92 7338 1511.68 7338 1507.2L7338 1196.8C7338 1192.32 7338 1190.08 7338.87 1188.37C7339.64 1186.86 7340.86 1185.64 7342.37 1184.87C7344.08 1184 7346.32 1184 7350.8 1184L7386 1184Z" fill="#F0F0F0" stroke="#F0F0F0" id="n2458"/>
<path d="M7397.2 1184C7401.68 1184 7403.92 1184 7405.63 1184.87C7407.14 1185.64 7408.36 1186.86 7409.13 1188.37C7410 1190.08 7410 1192.32 7410 1196.8L7410 1507.2C7410 1511.68 7410 1513.92 7409.13 1515.63C7408.36 1517.14 7407.14 1518.36 7405.63 1519.13C7403.92 1520 7401.68 1520 7397.2 1520L7350.8 1520C7346.32 1520 7344.08 1520 7342.37 1519.13C7340.86 1518.36 7339.64 1517.14 7338.87 1515.63C7338 1513.92 7338 1511.68 7338 1507.2L7338 1196.8C7338 1192.32 7338 1190.08 7338.87 1188.37C7339.64 1186.86 7340.86 1185.64 7342.37 1184.87C7344.08 1184 7346.32 1184 7350.8 1184L7397.2 1184Z" stroke="#BEBEBE" id="n2459"/>
<path d="M7410 1352L7338 1352" stroke="#BEBEBE" stroke-linecap="square" id="n2460"/>
<g mask="url(#mask312_68_6728)" id="n2462">
<path d="M7398 1352L7390 1352M7398 1368.8L7390 1368.8M7398 1385.6L7390 1385.6M7398 1402.4L7390 1402.4M7398 1419.2L7390 1419.2M7398 1436L7390 1436M7398 1452.8L7390 1452.8M7398 1469.6L7390 1469.6M7398 1486.4L7390 1486.4M7398 1503.2L7390 1503.2M7398 1520L7390 1520M7398 1335.2L7390 1335.2M7398 1318.4L7390 1318.4M7398 1301.6L7390 1301.6M7398 1284.8L7390 1284.8M7398 1268L7390 1268M7398 1251.2L7390 1251.2M7398 1234.4L7390 1234.4M7398 1217.6L7390 1217.6M7398 1200.8L7390 1200.8M7398 1184L7390 1184" stroke="#BEBEBE" id="n2463"/>
<path d="M7414 1352L7390 1352M7414 1436L7390 1436M7414 1520L7390 1520M7414 1268L7390 1268M7414 1184L7390 1184" stroke="#BEBEBE" id="n2464"/>
<path d="M7414 1352L7386 1352" stroke="#BEBEBE" id="n2465"/>
</g>
<g mask="url(#mask313_68_6728)" id="n2467">
<rect x="7338" y="1268" width="48" height="84" fill="#9CC1F5" stroke="#9CC1F5" id="n2468"/>
<rect x="7338" y="1264.28" width="48" height="8" rx="4" fill="#2D548B" stroke="#9CC1F5" id="n2469"/>
</g>
<path d="M6958.8 1520C6954.32 1520 6952.08 1520 6950.37 1519.13C6948.86 1518.36 6947.64 1517.14 6946.87 1515.63C6946 1513.92 6946 1511.68 6946 1507.2L6946 1196.8C6946 1192.32 6946 1190.08 6946.87 1188.37C6947.64 1186.86 6948.86 1185.64 6950.37 1184.87C6952.08 1184 6954.32 1184 6958.8 1184L7005.2 1184C7009.68 1184 7011.92 1184 7013.63 1184.87C7015.14 1185.64 7016.36 1186.86 7017.13 1188.37C7018 1190.08 7018 1192.32 7018 1196.8L7018 1507.2C7018 1511.68 7018 1513.92 7017.13 1515.63C7016.36 1517.14 7015.14 1518.36 7013.63 1519.13C7011.92 1520 7009.68 1520 7005.2 1520L6958.8 1520Z" fill="white" stroke="white" id="n2470"/>
<path d="M6970 1520L6970 1184L7005.2 1184C7009.68 1184 7011.92 1184 7013.63 1184.87C7015.14 1185.64 7016.36 1186.86 7017.13 1188.37C7018 1190.08 7018 1192.32 7018 1196.8L7018 1507.2C7018 1511.68 7018 1513.92 7017.13 1515.63C7016.36 1517.14 7015.14 1518.36 7013.63 1519.13C7011.92 1520 7009.68 1520 7005.2 1520L6970 1520Z" fill="#F0F0F0" stroke="#F0F0F0" id="n2471"/>
<path d="M6958.8 1520C6954.32 1520 6952.08 1520 6950.37 1519.13C6948.86 1518.36 6947.64 1517.14 6946.87 1515.63C6946 1513.92 6946 1511.68 6946 1507.2L6946 1196.8C6946 1192.32 6946 1190.08 6946.87 1188.37C6947.64 1186.86 6948.86 1185.64 6950.37 1184.87C6952.08 1184 6954.32 1184 6958.8 1184L7005.2 1184C7009.68 1184 7011.92 1184 7013.63 1184.87C7015.14 1185.64 7016.36 1186.86 7017.13 1188.37C7018 1190.08 7018 1192.32 7018 1196.8L7018 1507.2C7018 1511.68 7018 1513.92 7017.13 1515.63C7016.36 1517.14 7015.14 1518.36 7013.63 1519.13C7011.92 1520 7009.68 1520 7005.2 1520L6958.8 1520Z" stroke="#BEBEBE" id="n2472"/>
<path d="M6946 1352L7018 1352" stroke="#BEBEBE" stroke-linecap="square" id="n2473"/>
<g mask="url(#mask314_68_6728)" id="n2475">
<path d="M6958 1352L6966 1352M6958 1335.2L6966 1335.2M6958 1318.4L6966 1318.4M6958 1301.6L6966 1301.6M6958 1284.8L6966 1284.8M6958 1268L6966 1268M6958 1251.2L6966 1251.2M6958 1234.4L6966 1234.4M6958 1217.6L6966 1217.6M6958 1200.8L6966 1200.8M6958 1184L6966 1184M6958 1368.8L6966 1368.8M6958 1385.6L6966 1385.6M6958 1402.4L6966 1402.4M6958 1419.2L6966 1419.2M6958 1436L6966 1436M6958 1452.8L6966 1452.8M6958 1469.6L6966 1469.6M6958 1486.4L6966 1486.4M6958 1503.2L6966 1503.2M6958 1520L6966 1520" stroke="#BEBEBE" id="n2476"/>
<path d="M6942 1352L6966 1352M6942 1268L6966 1268M6942 1184L6966 1184M6942 1436L6966 1436M6942 1520L6966 1520" stroke="#BEBEBE" id="n2477"/>
</g>
<g mask="url(#mask315_68_6728)" id="n2479">
<rect x="6970" y="1268" width="48" height="84" fill="#9CC1F5" stroke="#9CC1F5" id="n2480"/>
<rect x="6970" y="1264.28" width="48" height="8" rx="4" fill="#2D548B" stroke="#9CC1F5" id="n2481"/>
</g>
</g>
</svg>
