<?xml version='1.0' encoding='utf-8'?>
<svg xmlns="http://www.w3.org/2000/svg" xmlns:xlink="http://www.w3.org/1999/xlink" width="48.0" height="48.0" viewBox="0 0 48.0 48.0" fill="none">
  <defs><clipPath id="clip__asset"><rect x="0" y="0" width="48.0" height="48.0"/></clipPath><mask id="mask16_68_6728" style="mask-type:alpha" maskUnits="userSpaceOnUse" x="1107" y="323" width="28" height="11">
<path fill-rule="evenodd" clip-rule="evenodd" d="M1108.27 324.899C1109.05 324.118 1110.32 324.118 1111.1 324.899C1112.4 326.199 1113.94 327.231 1115.64 327.934C1117.34 328.638 1119.16 329 1121 329C1122.84 329 1124.66 328.638 1126.36 327.934C1128.06 327.231 1129.6 326.199 1130.9 324.899C1131.68 324.118 1132.95 324.118 1133.73 324.899C1134.51 325.68 1134.51 326.947 1133.73 327.728C1132.06 329.399 1130.07 330.725 1127.89 331.63C1125.7 332.534 1123.36 333 1121 333C1118.64 333 1116.29 332.534 1114.11 331.63C1111.93 330.725 1109.94 329.399 1108.27 327.728C1107.49 326.947 1107.49 325.68 1108.27 324.899Z" fill="white" stroke="black" stroke-linecap="round" id="n177"/>
</mask>
</defs>
  <g clip-path="url(#clip__asset)" transform="translate(-1097.0 -291.0)"><path d="M1121 333L1121 297" stroke="#BEBEBE" stroke-linecap="square" id="n172"/>
<path d="M1105.41 324C1103.83 321.264 1103 318.16 1103 315C1103 311.84 1103.83 308.736 1105.41 306C1106.99 303.264 1109.26 300.991 1112 299.412C1114.74 297.832 1117.84 297 1121 297C1124.16 297 1127.26 297.832 1130 299.412C1132.74 300.991 1135.01 303.264 1136.59 306C1138.17 308.736 1139 311.84 1139 315C1139 318.16 1138.17 321.264 1136.59 324" stroke="#BEBEBE" stroke-linecap="round" id="n173"/>
<path fill-rule="evenodd" clip-rule="evenodd" d="M1108.27 324.899C1109.05 324.118 1110.32 324.118 1111.1 324.899C1112.4 326.199 1113.94 327.231 1115.64 327.934C1117.34 328.638 1119.16 329 1121 329C1122.84 329 1124.66 328.638 1126.36 327.934C1128.06 327.231 1129.6 326.199 1130.9 324.899C1131.68 324.118 1132.95 324.118 1133.73 324.899C1134.51 325.68 1134.51 326.947 1133.73 327.728C1132.06 329.399 1130.07 330.725 1127.89 331.63C1125.7 332.534 1123.36 333 1121 333C1118.64 333 1116.29 332.534 1114.11 331.63C1111.93 330.725 1109.94 329.399 1108.27 327.728C1107.49 326.947 1107.49 325.68 1108.27 324.899Z" fill="white" stroke="#BEBEBE" stroke-linecap="round" id="n174"/>
<rect x="1120.52" y="314.871" width="1" height="18" rx="0.5" transform="rotate(15 1120.52 314.871)" fill="#535353" stroke="#535353" id="n175"/>
<path d="M1118.18 310.102L1125.9 312.172L1124.35 317.968C1124.06 319.035 1122.97 319.668 1121.9 319.382L1118.04 318.347C1116.97 318.061 1116.34 316.964 1116.62 315.897L1118.18 310.102Z" fill="white" stroke="#BEBEBE" id="n176"/>
<g mask="url(#mask16_68_6728)" id="n178">
<path d="M1121 339C1118.9 339 1116.81 338.725 1114.79 338.182L1121 315L1121 339Z" fill="#535353" id="n179"/>
</g>
</g>
</svg>
