<?xml version='1.0' encoding='utf-8'?>
<svg xmlns="http://www.w3.org/2000/svg" xmlns:xlink="http://www.w3.org/1999/xlink" width="384.0" height="384.0" viewBox="0 0 384.0 384.0" fill="none">
  <defs><clipPath id="clip__asset"><rect x="0" y="0" width="384.0" height="384.0"/></clipPath><mask id="mask82_68_6728" style="mask-type:luminance" maskUnits="userSpaceOnUse" x="1728" y="1799" width="512" height="513">
<path d="M2172 2056C2172 2006.96 2153.23 1962.31 2122.47 1928.84C2119.48 1925.58 2114.4 1925.6 2111.28 1928.72L2099.97 1940.03C2129.64 1969.71 2148 2010.71 2148 2056C2148 2101.29 2129.64 2142.29 2099.97 2171.96L2111.28 2183.28C2114.4 2186.4 2119.48 2186.41 2122.47 2183.16C2153.22 2149.69 2172 2105.04 2172 2056Z" fill="white" id="n805"/>
<path d="M2172 2056L2172.5 2056V2056L2172 2056ZM2122.47 1928.84L2122.84 1928.5V1928.5L2122.47 1928.84ZM2111.28 1928.72L2110.93 1928.37L2110.93 1928.37L2111.28 1928.72ZM2099.97 1940.03L2099.61 1940.39L2099.26 1940.03L2099.61 1939.68L2099.97 1940.03ZM2148 2056L2148.5 2056V2056L2148 2056ZM2099.97 2171.96L2099.61 2172.32L2099.26 2171.96L2099.61 2171.61L2099.97 2171.96ZM2111.28 2183.28L2110.93 2183.63L2110.93 2183.63L2111.28 2183.28ZM2122.47 2183.16L2122.84 2183.5L2122.84 2183.5L2122.47 2183.16ZM2172 2056L2171.5 2056C2171.5 2007.09 2152.78 1962.56 2122.1 1929.18L2122.47 1928.84L2122.84 1928.5C2153.68 1962.06 2172.5 2006.83 2172.5 2056L2172 2056ZM2122.47 1928.84L2122.1 1929.18C2119.32 1926.14 2114.57 1926.14 2111.63 1929.07L2111.28 1928.72L2110.93 1928.37C2114.24 1925.05 2119.65 1925.03 2122.84 1928.5L2122.47 1928.84ZM2111.28 1928.72L2111.63 1929.07L2100.32 1940.39L2099.97 1940.03L2099.61 1939.68L2110.93 1928.37L2111.28 1928.72ZM2099.97 1940.03L2100.32 1939.68C2130.09 1969.45 2148.5 2010.57 2148.5 2056L2148 2056L2147.5 2056C2147.5 2010.85 2129.2 1969.98 2099.61 1940.39L2099.97 1940.03ZM2148 2056L2148.5 2056C2148.5 2101.42 2130.09 2142.55 2100.32 2172.32L2099.97 2171.96L2099.61 2171.61C2129.2 2142.02 2147.5 2101.15 2147.5 2056L2148 2056ZM2099.97 2171.96L2100.32 2171.61L2111.63 2182.92L2111.28 2183.28L2110.93 2183.63L2099.61 2172.32L2099.97 2171.96ZM2111.28 2183.28L2111.63 2182.92C2114.57 2185.86 2119.32 2185.86 2122.1 2182.82L2122.47 2183.16L2122.84 2183.5C2119.65 2186.97 2114.24 2186.95 2110.93 2183.63L2111.28 2183.28ZM2122.47 2183.16L2122.1 2182.82C2152.78 2149.44 2171.5 2104.91 2171.5 2056L2172 2056L2172.5 2056C2172.5 2105.17 2153.67 2149.94 2122.84 2183.5L2122.47 2183.16Z" fill="black" id="n806"/>
<path d="M1796 2056C1796 2105.04 1814.77 2149.69 1845.53 2183.16C1848.52 2186.41 1853.6 2186.4 1856.72 2183.28L1868.03 2171.96C1838.36 2142.29 1820 2101.29 1820 2056C1820 2010.71 1838.36 1969.71 1868.03 1940.03L1856.72 1928.72C1853.6 1925.6 1848.52 1925.58 1845.53 1928.84C1814.78 1962.31 1796 2006.96 1796 2056Z" fill="white" id="n807"/>
<path d="M1796 2056L1795.5 2056V2056L1796 2056ZM1845.53 2183.16L1845.16 2183.5V2183.5L1845.53 2183.16ZM1856.72 2183.28L1857.07 2183.63L1857.07 2183.63L1856.72 2183.28ZM1868.03 2171.96L1868.39 2171.61L1868.74 2171.96L1868.39 2172.32L1868.03 2171.96ZM1820 2056L1819.5 2056V2056L1820 2056ZM1868.03 1940.03L1868.39 1939.68L1868.74 1940.03L1868.39 1940.39L1868.03 1940.03ZM1856.72 1928.72L1857.07 1928.37L1857.07 1928.37L1856.72 1928.72ZM1845.53 1928.84L1845.16 1928.5L1845.16 1928.5L1845.53 1928.84ZM1796 2056L1796.5 2056C1796.5 2104.91 1815.22 2149.44 1845.9 2182.82L1845.53 2183.16L1845.16 2183.5C1814.32 2149.94 1795.5 2105.17 1795.5 2056L1796 2056ZM1845.53 2183.16L1845.9 2182.82C1848.68 2185.86 1853.43 2185.86 1856.37 2182.92L1856.72 2183.28L1857.07 2183.63C1853.76 2186.95 1848.35 2186.97 1845.16 2183.5L1845.53 2183.16ZM1856.72 2183.28L1856.37 2182.92L1867.68 2171.61L1868.03 2171.96L1868.39 2172.32L1857.07 2183.63L1856.72 2183.28ZM1868.03 2171.96L1867.68 2172.32C1837.91 2142.55 1819.5 2101.42 1819.5 2056L1820 2056L1820.5 2056C1820.5 2101.15 1838.8 2142.02 1868.39 2171.61L1868.03 2171.96ZM1820 2056L1819.5 2056C1819.5 2010.57 1837.91 1969.45 1867.68 1939.68L1868.03 1940.03L1868.39 1940.39C1838.8 1969.97 1820.5 2010.85 1820.5 2056L1820 2056ZM1868.03 1940.03L1867.68 1940.39L1856.37 1929.07L1856.72 1928.72L1857.07 1928.37L1868.39 1939.68L1868.03 1940.03ZM1856.72 1928.72L1856.37 1929.07C1853.43 1926.14 1848.68 1926.14 1845.9 1929.18L1845.53 1928.84L1845.16 1928.5C1848.35 1925.03 1853.76 1925.05 1857.07 1928.37L1856.72 1928.72ZM1845.53 1928.84L1845.9 1929.18C1815.22 1962.56 1796.5 2007.09 1796.5 2056L1796 2056L1795.5 2056C1795.5 2006.83 1814.33 1962.06 1845.16 1928.5L1845.53 1928.84Z" fill="black" id="n808"/>
</mask>
<mask id="mask83_68_6728" style="mask-type:alpha" maskUnits="userSpaceOnUse" x="1728" y="1799" width="512" height="513">
<path d="M1984 1880C2081.2 1880 2160 1958.8 2160 2056C2160 2153.2 2081.2 2232 1984 2232C1886.8 2232 1808 2153.2 1808 2056C1808 1958.8 1886.8 1880 1984 1880ZM1984 1888C1891.22 1888 1816 1963.22 1816 2056C1816 2148.78 1891.22 2224 1984 2224C2076.78 2224 2152 2148.78 2152 2056C2152 1963.22 2076.78 1888 1984 1888Z" fill="black" id="n810"/>
</mask>
<mask id="mask84_68_6728" style="mask-type:alpha" maskUnits="userSpaceOnUse" x="1728" y="1799" width="512" height="513">
<path d="M1984 1864C2090.04 1864 2176 1949.96 2176 2056C2176 2162.04 2090.04 2248 1984 2248C1877.96 2248 1792 2162.04 1792 2056C1792 1949.96 1877.96 1864 1984 1864ZM1984 1888C1891.22 1888 1816 1963.22 1816 2056C1816 2148.78 1891.22 2224 1984 2224C2076.78 2224 2152 2148.78 2152 2056C2152 1963.22 2076.78 1888 1984 1888Z" fill="black" id="n813"/>
</mask>
<mask id="mask85_68_6728" style="mask-type:alpha" maskUnits="userSpaceOnUse" x="1728" y="1799" width="512" height="513">
<path d="M1984 1864C2090.04 1864 2176 1949.96 2176 2056C2176 2162.04 2090.04 2248 1984 2248C1877.96 2248 1792 2162.04 1792 2056C1792 1949.96 1877.96 1864 1984 1864ZM1984 1892C1893.43 1892 1820 1965.42 1820 2056C1820 2146.57 1893.43 2220 1984 2220C2074.57 2220 2148 2146.57 2148 2056C2148 1965.42 2074.57 1892 1984 1892Z" fill="black" id="n816"/>
</mask>
<clipPath id="clip14_68_6728">
<rect width="29" height="16" fill="white" transform="translate(1956 2066)" id="n2518"/>
</clipPath>
<clipPath id="clip15_68_6728">
<rect width="24" height="16" fill="white" transform="translate(1989 2066)" id="n2519"/>
</clipPath>
</defs>
  <g clip-path="url(#clip__asset)" transform="translate(-1792.0 -1864.0)"><path d="M2172 2056C2172 2105.04 2153.23 2149.69 2122.47 2183.16C2119.48 2186.41 2114.4 2186.4 2111.28 2183.28L2099.97 2171.96C2129.64 2142.29 2148 2101.29 2148 2056C2148 2010.71 2129.64 1969.71 2099.97 1940.03L2111.28 1928.72C2114.4 1925.6 2119.48 1925.59 2122.47 1928.84C2153.22 1962.31 2172 2006.96 2172 2056Z" fill="white" stroke="white" id="n797"/>
<path d="M2148 2056C2148 2101.29 2129.64 2142.29 2099.97 2171.96L2071.68 2143.68C2068.56 2140.56 2068.58 2135.51 2071.48 2132.18C2071.55 2132.1 2071.62 2132.02 2071.69 2131.94C2071.72 2131.91 2071.75 2131.87 2071.79 2131.83C2072.04 2131.54 2072.29 2131.25 2072.53 2130.95C2072.62 2130.85 2072.71 2130.75 2072.79 2130.65C2072.96 2130.45 2073.13 2130.24 2073.3 2130.04C2073.46 2129.85 2073.61 2129.66 2073.76 2129.48C2073.9 2129.31 2074.04 2129.14 2074.18 2128.97C2074.29 2128.84 2074.4 2128.7 2074.51 2128.56C2074.7 2128.32 2074.9 2128.07 2075.09 2127.83C2075.18 2127.72 2075.27 2127.6 2075.36 2127.49C2075.56 2127.23 2075.77 2126.96 2075.97 2126.7C2076.03 2126.62 2076.09 2126.54 2076.16 2126.46C2076.98 2125.38 2077.79 2124.28 2078.58 2123.18C2078.64 2123.09 2078.7 2123.01 2078.76 2122.93C2078.96 2122.64 2079.16 2122.36 2079.36 2122.07C2079.42 2121.98 2079.49 2121.88 2079.55 2121.79C2079.74 2121.51 2079.94 2121.23 2080.13 2120.95C2080.2 2120.84 2080.27 2120.73 2080.35 2120.62C2080.53 2120.35 2080.71 2120.07 2080.89 2119.8C2080.95 2119.71 2081.01 2119.62 2081.08 2119.52C2081.26 2119.24 2081.45 2118.95 2081.63 2118.67C2081.7 2118.57 2081.76 2118.47 2081.83 2118.37C2082.01 2118.08 2082.19 2117.8 2082.37 2117.51C2082.44 2117.39 2082.51 2117.28 2082.58 2117.16C2082.74 2116.91 2082.89 2116.66 2083.04 2116.42C2083.12 2116.29 2083.2 2116.16 2083.28 2116.04C2083.47 2115.71 2083.67 2115.38 2083.87 2115.05C2083.89 2115 2083.92 2114.96 2083.95 2114.91C2084.87 2113.35 2085.75 2111.77 2086.6 2110.17C2086.69 2110 2086.77 2109.84 2086.86 2109.68C2086.99 2109.42 2087.13 2109.16 2087.26 2108.9C2087.32 2108.79 2087.37 2108.69 2087.43 2108.58C2087.58 2108.28 2087.73 2107.97 2087.89 2107.67C2087.94 2107.56 2087.99 2107.45 2088.05 2107.34C2088.19 2107.06 2088.32 2106.78 2088.46 2106.5C2088.53 2106.35 2088.61 2106.19 2088.68 2106.04C2088.8 2105.79 2088.92 2105.54 2089.04 2105.29C2089.12 2105.11 2089.2 2104.93 2089.29 2104.75C2089.39 2104.53 2089.5 2104.3 2089.6 2104.07C2089.68 2103.91 2089.75 2103.74 2089.82 2103.58C2089.95 2103.29 2090.08 2103 2090.21 2102.72C2090.26 2102.59 2090.32 2102.47 2090.37 2102.34C2090.51 2102.02 2090.65 2101.7 2090.79 2101.37C2090.83 2101.28 2090.87 2101.19 2090.91 2101.1C2091.44 2099.84 2091.95 2098.56 2092.44 2097.28C2092.49 2097.14 2092.55 2096.99 2092.6 2096.85C2092.71 2096.57 2092.81 2096.3 2092.91 2096.02C2092.99 2095.82 2093.06 2095.61 2093.13 2095.41C2093.2 2095.21 2093.28 2095.01 2093.35 2094.82C2093.43 2094.58 2093.52 2094.34 2093.6 2094.09C2093.67 2093.89 2093.74 2093.68 2093.81 2093.47C2093.88 2093.27 2093.95 2093.06 2094.02 2092.86C2094.09 2092.64 2094.17 2092.42 2094.24 2092.2C2094.31 2091.99 2094.38 2091.77 2094.45 2091.56C2094.52 2091.33 2094.59 2091.11 2094.66 2090.88C2094.73 2090.67 2094.8 2090.46 2094.86 2090.25C2094.94 2090 2095.01 2089.76 2095.08 2089.51C2095.14 2089.34 2095.19 2089.16 2095.24 2088.99C2095.32 2088.72 2095.4 2088.46 2095.47 2088.2C2095.53 2088.01 2095.58 2087.82 2095.63 2087.63C2095.71 2087.37 2095.78 2087.11 2095.85 2086.85C2095.9 2086.68 2095.95 2086.5 2096 2086.32C2096.23 2085.45 2096.46 2084.57 2096.68 2083.68C2096.72 2083.49 2096.77 2083.3 2096.81 2083.11C2096.87 2082.86 2096.93 2082.6 2096.99 2082.35C2097.04 2082.15 2097.08 2081.95 2097.13 2081.75C2097.19 2081.49 2097.25 2081.24 2097.3 2080.98C2097.34 2080.81 2097.38 2080.63 2097.42 2080.46C2097.48 2080.17 2097.54 2079.89 2097.6 2079.6C2097.63 2079.42 2097.67 2079.24 2097.71 2079.06C2097.76 2078.8 2097.81 2078.54 2097.86 2078.28C2097.9 2078.07 2097.94 2077.86 2097.98 2077.65C2098.03 2077.42 2098.07 2077.18 2098.11 2076.95C2098.16 2076.72 2098.2 2076.48 2098.24 2076.25C2098.28 2076.02 2098.32 2075.79 2098.36 2075.57C2098.39 2075.35 2098.43 2075.14 2098.46 2074.93C2098.52 2074.61 2098.57 2074.28 2098.62 2073.96C2098.64 2073.84 2098.66 2073.72 2098.67 2073.6C2098.73 2073.25 2098.78 2072.9 2098.83 2072.55C2098.85 2072.42 2098.86 2072.29 2098.88 2072.17C2098.92 2071.92 2098.95 2071.67 2098.98 2071.42C2099.03 2071.04 2099.08 2070.65 2099.13 2070.27C2099.17 2069.96 2099.21 2069.66 2099.24 2069.35C2099.25 2069.25 2099.26 2069.14 2099.27 2069.04C2099.31 2068.7 2099.35 2068.37 2099.38 2068.03C2099.41 2067.77 2099.43 2067.51 2099.46 2067.25C2099.48 2067.05 2099.5 2066.85 2099.52 2066.65C2099.54 2066.41 2099.56 2066.16 2099.58 2065.92C2099.6 2065.68 2099.62 2065.43 2099.64 2065.19C2099.66 2064.98 2099.67 2064.78 2099.69 2064.57C2099.71 2064.3 2099.73 2064.02 2099.74 2063.75C2099.76 2063.55 2099.77 2063.35 2099.78 2063.15C2099.8 2062.86 2099.82 2062.57 2099.83 2062.27C2099.84 2062.11 2099.85 2061.94 2099.86 2061.78C2099.87 2061.47 2099.89 2061.16 2099.9 2060.85C2099.91 2060.67 2099.91 2060.49 2099.92 2060.31C2099.93 2059.98 2099.94 2059.65 2099.95 2059.32C2099.96 2059.18 2099.96 2059.04 2099.96 2058.91C2099.97 2058.5 2099.98 2058.1 2099.99 2057.7C2099.99 2057.62 2099.99 2057.54 2099.99 2057.47C2100 2056.98 2100 2056.49 2100 2056C2100 2055.51 2100 2055.02 2099.99 2054.54C2099.99 2054.45 2099.99 2054.37 2099.99 2054.29C2099.98 2053.89 2099.97 2053.49 2099.96 2053.1C2099.96 2052.95 2099.96 2052.81 2099.95 2052.67C2099.94 2052.34 2099.93 2052.02 2099.92 2051.69C2099.91 2051.51 2099.91 2051.33 2099.9 2051.15C2099.89 2050.84 2099.87 2050.53 2099.86 2050.23C2099.85 2050.06 2099.84 2049.89 2099.83 2049.71C2099.82 2049.43 2099.8 2049.14 2099.78 2048.86C2099.77 2048.65 2099.76 2048.44 2099.74 2048.24C2099.73 2047.97 2099.71 2047.71 2099.69 2047.44C2099.67 2047.23 2099.66 2047.01 2099.64 2046.8C2099.62 2046.56 2099.6 2046.33 2099.58 2046.1C2099.56 2045.84 2099.54 2045.59 2099.52 2045.33C2099.5 2045.15 2099.48 2044.96 2099.46 2044.78C2099.44 2044.5 2099.41 2044.23 2099.38 2043.96C2099.35 2043.65 2099.32 2043.35 2099.28 2043.05C2099.27 2042.91 2099.25 2042.78 2099.24 2042.64C2099.21 2042.36 2099.17 2042.08 2099.14 2041.81C2099.08 2041.35 2099.02 2040.89 2098.96 2040.43C2098.94 2040.24 2098.91 2040.04 2098.88 2039.85C2098.86 2039.69 2098.84 2039.53 2098.82 2039.37C2098.77 2039.05 2098.72 2038.74 2098.68 2038.42C2098.65 2038.28 2098.63 2038.14 2098.61 2038C2098.56 2037.69 2098.51 2037.38 2098.46 2037.07C2098.43 2036.85 2098.39 2036.62 2098.35 2036.4C2098.31 2036.19 2098.28 2035.98 2098.24 2035.77C2098.2 2035.53 2098.15 2035.28 2098.11 2035.04C2098.07 2034.81 2098.03 2034.58 2097.98 2034.35C2097.94 2034.14 2097.9 2033.93 2097.86 2033.72C2097.81 2033.47 2097.76 2033.21 2097.71 2032.95C2097.67 2032.76 2097.63 2032.57 2097.59 2032.38C2097.54 2032.11 2097.48 2031.84 2097.42 2031.57C2097.38 2031.38 2097.34 2031.2 2097.3 2031.02C2097.25 2030.76 2097.19 2030.5 2097.13 2030.25C2097.08 2030.05 2097.04 2029.85 2096.99 2029.65C2096.93 2029.4 2096.87 2029.14 2096.81 2028.89C2096.77 2028.7 2096.72 2028.51 2096.68 2028.32C2096.46 2027.44 2096.24 2026.57 2096 2025.7C2095.94 2025.48 2095.88 2025.27 2095.82 2025.05C2095.76 2024.82 2095.7 2024.6 2095.63 2024.37C2095.58 2024.18 2095.53 2023.99 2095.47 2023.8C2095.4 2023.54 2095.32 2023.28 2095.24 2023.02C2095.19 2022.82 2095.13 2022.63 2095.07 2022.43C2095 2022.22 2094.94 2022.01 2094.88 2021.8C2094.79 2021.52 2094.7 2021.24 2094.61 2020.96C2094.57 2020.83 2094.53 2020.69 2094.48 2020.55C2094.4 2020.29 2094.31 2020.03 2094.23 2019.76C2094.16 2019.56 2094.09 2019.35 2094.02 2019.14C2093.95 2018.94 2093.88 2018.73 2093.81 2018.53C2093.74 2018.32 2093.67 2018.11 2093.6 2017.9C2093.52 2017.66 2093.43 2017.42 2093.35 2017.18C2093.28 2016.99 2093.2 2016.79 2093.13 2016.59C2093.06 2016.39 2092.99 2016.18 2092.91 2015.98C2092.83 2015.76 2092.75 2015.54 2092.67 2015.33C2092.58 2015.1 2092.5 2014.87 2092.41 2014.64C2092.39 2014.58 2092.36 2014.52 2092.34 2014.45C2091.96 2013.48 2091.58 2012.52 2091.18 2011.56C2091.1 2011.35 2091.01 2011.14 2090.92 2010.94C2090.86 2010.8 2090.81 2010.67 2090.75 2010.54C2090.63 2010.25 2090.5 2009.96 2090.38 2009.67C2090.3 2009.49 2090.22 2009.32 2090.14 2009.14C2090.05 2008.93 2089.96 2008.72 2089.87 2008.51C2089.76 2008.28 2089.65 2008.04 2089.54 2007.81C2089.47 2007.65 2089.4 2007.49 2089.32 2007.33C2089.2 2007.06 2089.08 2006.8 2088.96 2006.54C2088.9 2006.41 2088.83 2006.28 2088.77 2006.15C2088.65 2005.89 2088.52 2005.63 2088.4 2005.38C2088.32 2005.2 2088.23 2005.03 2088.14 2004.86C2088.04 2004.65 2087.94 2004.44 2087.83 2004.23C2087.74 2004.03 2087.64 2003.84 2087.54 2003.65C2087.43 2003.44 2087.33 2003.22 2087.22 2003.01C2087.14 2002.86 2087.06 2002.7 2086.98 2002.55C2086.65 2001.91 2086.31 2001.28 2085.97 2000.65C2085.76 2000.27 2085.55 1999.89 2085.34 1999.51C2085.31 1999.46 2085.28 1999.41 2085.25 1999.36C2085.06 1999.02 2084.87 1998.68 2084.68 1998.34C2084.59 1998.19 2084.5 1998.04 2084.42 1997.89C2084.28 1997.65 2084.14 1997.41 2084 1997.17C2083.91 1997.02 2083.82 1996.87 2083.73 1996.71C2083.59 1996.49 2083.45 1996.26 2083.32 1996.03C2083.21 1995.86 2083.11 1995.69 2083 1995.52C2082.87 1995.31 2082.74 1995.1 2082.61 1994.89C2082.5 1994.71 2082.39 1994.53 2082.28 1994.35C2082.17 1994.17 2082.06 1994 2081.94 1993.82C2081.8 1993.6 2081.66 1993.38 2081.52 1993.16C2081.42 1993.01 2081.32 1992.86 2081.23 1992.71C2081.09 1992.5 2080.96 1992.3 2080.82 1992.09C2080.71 1991.92 2080.59 1991.74 2080.47 1991.57C2080.34 1991.37 2080.21 1991.17 2080.07 1990.97C2079.93 1990.76 2079.79 1990.56 2079.64 1990.35C2079.55 1990.2 2079.45 1990.06 2079.35 1989.92C2079.21 1989.72 2079.07 1989.52 2078.93 1989.31C2078.43 1988.61 2077.93 1987.91 2077.42 1987.22C2077.29 1987.04 2077.15 1986.86 2077.02 1986.68C2076.89 1986.51 2076.76 1986.34 2076.64 1986.18C2076.5 1985.99 2076.35 1985.8 2076.21 1985.61C2076.07 1985.43 2075.93 1985.25 2075.79 1985.07C2075.67 1984.91 2075.54 1984.75 2075.42 1984.59C2075.27 1984.4 2075.13 1984.22 2074.99 1984.04C2074.84 1983.86 2074.7 1983.68 2074.56 1983.5C2074.42 1983.33 2074.28 1983.16 2074.14 1982.99C2074.02 1982.83 2073.89 1982.68 2073.76 1982.52C2073.61 1982.34 2073.46 1982.15 2073.3 1981.96C2073.15 1981.78 2072.99 1981.59 2072.84 1981.41C2072.72 1981.27 2072.6 1981.13 2072.48 1980.99C2072.3 1980.77 2072.12 1980.56 2071.93 1980.34C2071.83 1980.23 2071.73 1980.11 2071.63 1979.99C2071.58 1979.93 2071.53 1979.88 2071.48 1979.82C2068.58 1976.49 2068.56 1971.44 2071.68 1968.32L2099.97 1940.03C2129.64 1969.71 2148 2010.71 2148 2056Z" fill="#F0F0F0" stroke="#F0F0F0" id="n798"/>
<path d="M2172 2056.5L2172.5 2056.5L2172.5 2055.5L2172 2055.5L2172 2056L2172 2056.5ZM2172 2056L2172 2055.5L2100 2055.5L2100 2056L2100 2056.5L2172 2056.5L2172 2056Z" fill="#BEBEBE" id="n799"/>
<path d="M2172 2056C2172 2105.03 2153.23 2149.69 2122.47 2183.16C2119.48 2186.41 2114.4 2186.4 2111.28 2183.28L2071.68 2143.68C2068.56 2140.55 2068.58 2135.51 2071.48 2132.18C2089.24 2111.8 2100 2085.15 2100 2056C2100 2026.84 2089.24 2000.2 2071.48 1979.82C2068.58 1976.49 2068.56 1971.44 2071.68 1968.32L2111.28 1928.72C2114.4 1925.59 2119.48 1925.58 2122.47 1928.84C2153.23 1962.31 2172 2006.96 2172 2056Z" stroke="#BEBEBE" id="n800"/>
<path d="M1796 2056C1796 2006.96 1814.77 1962.31 1845.53 1928.84C1848.52 1925.58 1853.6 1925.59 1856.72 1928.72L1868.03 1940.03C1838.36 1969.71 1820 2010.71 1820 2056C1820 2101.29 1838.36 2142.29 1868.03 2171.96L1856.72 2183.28C1853.6 2186.4 1848.52 2186.41 1845.53 2183.16C1814.78 2149.69 1796 2105.04 1796 2056Z" fill="white" stroke="white" id="n801"/>
<path d="M1820 2056C1820 2010.71 1838.36 1969.71 1868.03 1940.03L1896.32 1968.32C1899.44 1971.44 1899.42 1976.49 1896.52 1979.82C1896.45 1979.9 1896.38 1979.98 1896.31 1980.05C1896.28 1980.09 1896.25 1980.13 1896.21 1980.17C1895.96 1980.46 1895.71 1980.75 1895.47 1981.04C1895.38 1981.15 1895.29 1981.25 1895.21 1981.35C1895.04 1981.55 1894.87 1981.76 1894.7 1981.96C1894.54 1982.15 1894.39 1982.33 1894.24 1982.52C1894.1 1982.69 1893.96 1982.86 1893.82 1983.03C1893.71 1983.16 1893.6 1983.3 1893.49 1983.44C1893.3 1983.68 1893.1 1983.92 1892.91 1984.17C1892.82 1984.28 1892.73 1984.39 1892.64 1984.51C1892.44 1984.77 1892.23 1985.03 1892.03 1985.3C1891.97 1985.38 1891.91 1985.46 1891.84 1985.54C1891.02 1986.62 1890.21 1987.71 1889.42 1988.82C1889.36 1988.9 1889.3 1988.99 1889.24 1989.07C1889.04 1989.36 1888.84 1989.64 1888.64 1989.93C1888.58 1990.02 1888.51 1990.12 1888.45 1990.21C1888.26 1990.49 1888.06 1990.77 1887.87 1991.05C1887.8 1991.16 1887.73 1991.27 1887.65 1991.38C1887.47 1991.65 1887.29 1991.92 1887.11 1992.2C1887.05 1992.29 1886.99 1992.38 1886.92 1992.47C1886.74 1992.76 1886.55 1993.04 1886.37 1993.33C1886.3 1993.43 1886.24 1993.53 1886.17 1993.63C1885.99 1993.92 1885.81 1994.2 1885.63 1994.49C1885.56 1994.6 1885.49 1994.72 1885.42 1994.84C1885.26 1995.09 1885.11 1995.33 1884.96 1995.58C1884.88 1995.71 1884.8 1995.84 1884.72 1995.96C1884.53 1996.29 1884.33 1996.62 1884.13 1996.95C1884.11 1996.99 1884.08 1997.04 1884.05 1997.08C1883.13 1998.64 1882.25 2000.23 1881.4 2001.83C1881.31 2002 1881.23 2002.16 1881.14 2002.32C1881.01 2002.58 1880.87 2002.84 1880.74 2003.1C1880.68 2003.21 1880.63 2003.31 1880.57 2003.42C1880.42 2003.72 1880.27 2004.03 1880.11 2004.33C1880.06 2004.44 1880.01 2004.55 1879.95 2004.66C1879.81 2004.94 1879.68 2005.22 1879.54 2005.5C1879.47 2005.65 1879.39 2005.81 1879.32 2005.96C1879.2 2006.21 1879.08 2006.46 1878.96 2006.71C1878.88 2006.89 1878.8 2007.07 1878.71 2007.25C1878.61 2007.47 1878.5 2007.7 1878.4 2007.93C1878.32 2008.09 1878.25 2008.26 1878.18 2008.42C1878.05 2008.71 1877.92 2008.99 1877.79 2009.28C1877.74 2009.41 1877.68 2009.53 1877.63 2009.65C1877.49 2009.98 1877.35 2010.3 1877.21 2010.63C1877.17 2010.72 1877.13 2010.81 1877.09 2010.9C1876.56 2012.16 1876.05 2013.43 1875.56 2014.72C1875.51 2014.86 1875.45 2015 1875.4 2015.15C1875.29 2015.43 1875.19 2015.7 1875.09 2015.98C1875.01 2016.18 1874.94 2016.39 1874.87 2016.59C1874.8 2016.79 1874.72 2016.98 1874.65 2017.18C1874.57 2017.42 1874.48 2017.66 1874.4 2017.9C1874.33 2018.11 1874.26 2018.32 1874.19 2018.53C1874.12 2018.73 1874.05 2018.94 1873.98 2019.14C1873.91 2019.36 1873.83 2019.58 1873.76 2019.79C1873.69 2020.01 1873.62 2020.23 1873.55 2020.44C1873.48 2020.67 1873.41 2020.89 1873.34 2021.12C1873.27 2021.33 1873.2 2021.54 1873.14 2021.75C1873.06 2022 1872.99 2022.24 1872.92 2022.49C1872.86 2022.66 1872.81 2022.83 1872.76 2023.01C1872.68 2023.27 1872.6 2023.54 1872.53 2023.8C1872.47 2023.99 1872.42 2024.18 1872.37 2024.37C1872.29 2024.63 1872.22 2024.88 1872.15 2025.14C1872.1 2025.32 1872.05 2025.5 1872 2025.67C1871.77 2026.55 1871.54 2027.43 1871.32 2028.32C1871.28 2028.51 1871.23 2028.7 1871.19 2028.89C1871.13 2029.14 1871.07 2029.39 1871.01 2029.65C1870.96 2029.85 1870.92 2030.05 1870.87 2030.25C1870.81 2030.5 1870.75 2030.76 1870.7 2031.02C1870.66 2031.19 1870.62 2031.36 1870.58 2031.54C1870.52 2031.82 1870.46 2032.11 1870.4 2032.4C1870.37 2032.58 1870.33 2032.76 1870.29 2032.94C1870.24 2033.2 1870.19 2033.46 1870.14 2033.72C1870.1 2033.93 1870.06 2034.14 1870.02 2034.35C1869.97 2034.58 1869.93 2034.82 1869.89 2035.05C1869.84 2035.28 1869.8 2035.52 1869.76 2035.75C1869.72 2035.98 1869.68 2036.2 1869.64 2036.43C1869.61 2036.64 1869.57 2036.86 1869.54 2037.07C1869.48 2037.39 1869.43 2037.72 1869.38 2038.04C1869.36 2038.16 1869.34 2038.28 1869.33 2038.4C1869.27 2038.75 1869.22 2039.1 1869.17 2039.44C1869.15 2039.57 1869.14 2039.7 1869.12 2039.83C1869.08 2040.08 1869.05 2040.33 1869.02 2040.57C1868.97 2040.96 1868.92 2041.34 1868.87 2041.73C1868.83 2042.04 1868.79 2042.34 1868.76 2042.65C1868.75 2042.75 1868.74 2042.86 1868.73 2042.96C1868.69 2043.29 1868.65 2043.63 1868.62 2043.96C1868.59 2044.22 1868.57 2044.48 1868.54 2044.74C1868.52 2044.94 1868.5 2045.14 1868.48 2045.34C1868.46 2045.59 1868.44 2045.83 1868.42 2046.08C1868.4 2046.32 1868.38 2046.56 1868.36 2046.81C1868.34 2047.01 1868.33 2047.22 1868.31 2047.43C1868.29 2047.7 1868.27 2047.97 1868.26 2048.25C1868.24 2048.45 1868.23 2048.65 1868.22 2048.85C1868.2 2049.14 1868.18 2049.43 1868.17 2049.72C1868.16 2049.89 1868.15 2050.05 1868.14 2050.22C1868.13 2050.53 1868.11 2050.84 1868.1 2051.15C1868.09 2051.33 1868.09 2051.51 1868.08 2051.69C1868.07 2052.02 1868.06 2052.35 1868.05 2052.68C1868.04 2052.82 1868.04 2052.95 1868.04 2053.09C1868.03 2053.49 1868.02 2053.9 1868.01 2054.3C1868.01 2054.38 1868.01 2054.45 1868.01 2054.53C1868 2055.02 1868 2055.51 1868 2056C1868 2056.49 1868 2056.98 1868.01 2057.46C1868.01 2057.55 1868.01 2057.63 1868.01 2057.71C1868.02 2058.11 1868.03 2058.51 1868.04 2058.9C1868.04 2059.04 1868.04 2059.18 1868.05 2059.33C1868.06 2059.65 1868.07 2059.98 1868.08 2060.31C1868.09 2060.49 1868.09 2060.67 1868.1 2060.85C1868.11 2061.16 1868.13 2061.46 1868.14 2061.77C1868.15 2061.94 1868.16 2062.11 1868.17 2062.28C1868.18 2062.57 1868.2 2062.86 1868.22 2063.14C1868.23 2063.35 1868.24 2063.55 1868.26 2063.76C1868.27 2064.03 1868.29 2064.29 1868.31 2064.56C1868.33 2064.77 1868.34 2064.98 1868.36 2065.2C1868.38 2065.43 1868.4 2065.67 1868.42 2065.9C1868.44 2066.15 1868.46 2066.41 1868.48 2066.66C1868.5 2066.85 1868.52 2067.03 1868.54 2067.22C1868.56 2067.49 1868.59 2067.77 1868.62 2068.04C1868.65 2068.34 1868.68 2068.65 1868.72 2068.95C1868.73 2069.08 1868.75 2069.22 1868.76 2069.36C1868.79 2069.64 1868.83 2069.91 1868.86 2070.19C1868.92 2070.65 1868.98 2071.11 1869.04 2071.56C1869.06 2071.76 1869.09 2071.96 1869.12 2072.15C1869.14 2072.31 1869.16 2072.47 1869.18 2072.62C1869.23 2072.94 1869.28 2073.26 1869.32 2073.58C1869.35 2073.72 1869.37 2073.86 1869.39 2073.99C1869.44 2074.3 1869.49 2074.62 1869.54 2074.92C1869.57 2075.15 1869.61 2075.37 1869.65 2075.6C1869.69 2075.81 1869.72 2076.02 1869.76 2076.23C1869.8 2076.47 1869.85 2076.72 1869.89 2076.96C1869.93 2077.19 1869.97 2077.42 1870.02 2077.65C1870.06 2077.86 1870.1 2078.07 1870.14 2078.27C1870.19 2078.53 1870.24 2078.79 1870.29 2079.04C1870.33 2079.24 1870.37 2079.43 1870.41 2079.62C1870.46 2079.89 1870.52 2080.16 1870.58 2080.43C1870.62 2080.62 1870.66 2080.8 1870.7 2080.98C1870.75 2081.24 1870.81 2081.5 1870.87 2081.75C1870.92 2081.95 1870.96 2082.15 1871.01 2082.35C1871.07 2082.6 1871.13 2082.85 1871.19 2083.11C1871.23 2083.3 1871.28 2083.49 1871.32 2083.68C1871.54 2084.56 1871.76 2085.43 1872 2086.3C1872.06 2086.52 1872.12 2086.73 1872.18 2086.95C1872.24 2087.17 1872.3 2087.4 1872.37 2087.63C1872.42 2087.82 1872.47 2088.01 1872.53 2088.2C1872.6 2088.46 1872.68 2088.72 1872.76 2088.98C1872.81 2089.18 1872.87 2089.37 1872.93 2089.57C1873 2089.78 1873.06 2089.99 1873.12 2090.2C1873.21 2090.48 1873.3 2090.76 1873.39 2091.04C1873.43 2091.17 1873.47 2091.31 1873.52 2091.45C1873.6 2091.71 1873.69 2091.97 1873.77 2092.24C1873.84 2092.44 1873.91 2092.65 1873.98 2092.86C1874.05 2093.06 1874.12 2093.27 1874.19 2093.47C1874.26 2093.68 1874.33 2093.89 1874.4 2094.09C1874.48 2094.33 1874.57 2094.57 1874.65 2094.81C1874.72 2095.01 1874.8 2095.21 1874.87 2095.41C1874.94 2095.61 1875.01 2095.81 1875.09 2096.02C1875.17 2096.24 1875.25 2096.45 1875.33 2096.67C1875.42 2096.9 1875.5 2097.13 1875.59 2097.36C1875.61 2097.42 1875.64 2097.48 1875.66 2097.54C1876.04 2098.51 1876.42 2099.48 1876.82 2100.44C1876.9 2100.65 1876.99 2100.85 1877.08 2101.06C1877.14 2101.2 1877.19 2101.33 1877.25 2101.46C1877.37 2101.75 1877.5 2102.04 1877.62 2102.33C1877.7 2102.51 1877.78 2102.68 1877.86 2102.86C1877.95 2103.07 1878.04 2103.28 1878.13 2103.48C1878.24 2103.72 1878.35 2103.96 1878.46 2104.19C1878.53 2104.35 1878.6 2104.51 1878.68 2104.67C1878.8 2104.93 1878.92 2105.19 1879.04 2105.45C1879.1 2105.58 1879.17 2105.72 1879.23 2105.85C1879.35 2106.1 1879.48 2106.36 1879.6 2106.62C1879.68 2106.79 1879.77 2106.97 1879.86 2107.14C1879.96 2107.35 1880.06 2107.56 1880.17 2107.77C1880.26 2107.96 1880.36 2108.16 1880.46 2108.35C1880.57 2108.56 1880.67 2108.77 1880.78 2108.99C1880.86 2109.14 1880.94 2109.3 1881.02 2109.45C1881.35 2110.09 1881.69 2110.72 1882.03 2111.34C1882.24 2111.73 1882.45 2112.11 1882.66 2112.49C1882.69 2112.54 1882.72 2112.59 1882.75 2112.64C1882.94 2112.98 1883.13 2113.32 1883.32 2113.65C1883.41 2113.81 1883.5 2113.96 1883.58 2114.11C1883.72 2114.35 1883.86 2114.59 1884 2114.83C1884.09 2114.98 1884.18 2115.13 1884.27 2115.28C1884.41 2115.51 1884.55 2115.74 1884.68 2115.97C1884.79 2116.14 1884.89 2116.31 1885 2116.48C1885.13 2116.69 1885.26 2116.9 1885.39 2117.11C1885.5 2117.29 1885.61 2117.47 1885.72 2117.65C1885.83 2117.82 1885.94 2118 1886.06 2118.18C1886.2 2118.4 1886.34 2118.62 1886.48 2118.84C1886.58 2118.99 1886.68 2119.14 1886.77 2119.29C1886.91 2119.5 1887.04 2119.7 1887.18 2119.91C1887.29 2120.08 1887.41 2120.26 1887.53 2120.43C1887.66 2120.63 1887.79 2120.83 1887.93 2121.02C1888.07 2121.23 1888.21 2121.44 1888.36 2121.65C1888.45 2121.79 1888.55 2121.94 1888.65 2122.08C1888.79 2122.28 1888.93 2122.48 1889.07 2122.68C1889.57 2123.39 1890.07 2124.08 1890.58 2124.77C1890.71 2124.96 1890.85 2125.14 1890.98 2125.32C1891.11 2125.49 1891.24 2125.65 1891.36 2125.82C1891.5 2126.01 1891.65 2126.2 1891.79 2126.39C1891.93 2126.57 1892.07 2126.75 1892.21 2126.93C1892.33 2127.09 1892.46 2127.25 1892.58 2127.41C1892.73 2127.59 1892.87 2127.78 1893.01 2127.96C1893.16 2128.14 1893.3 2128.32 1893.44 2128.5C1893.58 2128.67 1893.72 2128.84 1893.86 2129.01C1893.98 2129.17 1894.11 2129.32 1894.24 2129.48C1894.39 2129.66 1894.54 2129.85 1894.7 2130.04C1894.85 2130.22 1895.01 2130.41 1895.16 2130.59C1895.28 2130.73 1895.4 2130.87 1895.52 2131.01C1895.7 2131.23 1895.88 2131.44 1896.07 2131.66C1896.17 2131.77 1896.27 2131.89 1896.37 2132.01C1896.42 2132.06 1896.47 2132.12 1896.52 2132.18C1899.42 2135.51 1899.44 2140.55 1896.32 2143.68L1868.03 2171.96C1838.36 2142.29 1820 2101.29 1820 2056Z" fill="#F0F0F0" stroke="#F0F0F0" id="n802"/>
<path d="M1796 2055.5L1795.5 2055.5L1795.5 2056.5L1796 2056.5L1796 2056L1796 2055.5ZM1796 2056L1796 2056.5L1868 2056.5L1868 2056L1868 2055.5L1796 2055.5L1796 2056Z" fill="#BEBEBE" id="n803"/>
<path d="M1796 2056C1796 2006.96 1814.77 1962.31 1845.53 1928.84C1848.52 1925.59 1853.6 1925.6 1856.72 1928.72L1896.32 1968.32C1899.44 1971.44 1899.42 1976.49 1896.52 1979.82C1878.76 2000.2 1868 2026.85 1868 2056C1868 2085.16 1878.76 2111.8 1896.52 2132.18C1899.42 2135.51 1899.44 2140.56 1896.32 2143.68L1856.72 2183.28C1853.6 2186.4 1848.52 2186.41 1845.53 2183.16C1814.77 2149.69 1796 2105.04 1796 2056Z" stroke="#BEBEBE" id="n804"/>
<g mask="url(#mask82_68_6728)" id="n809">
<mask id="mask83_68_6728" style="mask-type:alpha" maskUnits="userSpaceOnUse" x="1728" y="1799" width="512" height="513">
<path d="M1984 1880C2081.2 1880 2160 1958.8 2160 2056C2160 2153.2 2081.2 2232 1984 2232C1886.8 2232 1808 2153.2 1808 2056C1808 1958.8 1886.8 1880 1984 1880ZM1984 1888C1891.22 1888 1816 1963.22 1816 2056C1816 2148.78 1891.22 2224 1984 2224C2076.78 2224 2152 2148.78 2152 2056C2152 1963.22 2076.78 1888 1984 1888Z" fill="black" id="n810"/>
</mask>
<g mask="url(#mask83_68_6728)" id="n811">
<path d="M1984 1856V2056M1984 2056L1966.57 1856.76M1984 2056L1949.27 1859.04M1984 2056L1932.24 1862.81M1984 2056L1915.6 1868.06M1984 2056L1899.48 1874.74M1984 2056L1884 1882.79M1984 2056L1869.28 1892.17M1984 2056L1855.44 1902.79M1984 2056L1842.58 1914.58M1984 2056L1830.79 1927.44M1984 2056L1820.17 1941.28M1984 2056L1810.79 1956M1984 2056L1802.74 1971.48M1984 2056L1796.06 1987.59M1984 2056L1790.81 2004.24M1984 2056L1787.04 2021.27M1984 2056L1784.76 2038.57M1984 2056H1784M1984 2056L1784.76 2073.43M1984 2056L1787.04 2090.73M1984 2056L1790.81 2107.76M1984 2056L1796.06 2124.4M1984 2056L1802.74 2140.52M1984 2056L1810.79 2156M1984 2056L1820.17 2170.71M1984 2056L1830.79 2184.56M1984 2056L1842.58 2197.42M1984 2056L1855.44 2209.21M1984 2056L1869.28 2219.83M1984 2056L1884 2229.2M1984 2056L1899.48 2237.26M1984 2056L1915.6 2243.94M1984 2056L1932.24 2249.18M1984 2056L1949.27 2252.96M1984 2056L1966.57 2255.24M1984 2056V2256M1984 2056L2001.43 2255.24M1984 2056L2018.73 2252.96M1984 2056L2035.76 2249.18M1984 2056L2052.4 2243.94M1984 2056L2068.52 2237.26M1984 2056L2084 2229.2M1984 2056L2098.72 2219.83M1984 2056L2112.56 2209.21M1984 2056L2125.42 2197.42M1984 2056L2137.21 2184.56M1984 2056L2147.83 2170.71M1984 2056L2157.21 2156M1984 2056L2165.26 2140.52M1984 2056L2171.94 2124.4M1984 2056L2177.19 2107.76M1984 2056L2180.96 2090.73M1984 2056L2183.24 2073.43M1984 2056H2184M1984 2056L2183.24 2038.57M1984 2056L2180.96 2021.27M1984 2056L2177.19 2004.24M1984 2056L2171.94 1987.6M1984 2056L2165.26 1971.48M1984 2056L2157.21 1956M1984 2056L2147.83 1941.28M1984 2056L2137.21 1927.44M1984 2056L2125.42 1914.58M1984 2056L2112.56 1902.79M1984 2056L2098.72 1892.17M1984 2056L2084 1882.79M1984 2056L2068.52 1874.74M1984 2056L2052.4 1868.06M1984 2056L2035.76 1862.81M1984 2056L2018.73 1859.04M1984 2056L2001.43 1856.76" stroke="#BEBEBE" id="n812"/>
</g>
<mask id="mask84_68_6728" style="mask-type:alpha" maskUnits="userSpaceOnUse" x="1728" y="1799" width="512" height="513">
<path d="M1984 1864C2090.04 1864 2176 1949.96 2176 2056C2176 2162.04 2090.04 2248 1984 2248C1877.96 2248 1792 2162.04 1792 2056C1792 1949.96 1877.96 1864 1984 1864ZM1984 1888C1891.22 1888 1816 1963.22 1816 2056C1816 2148.78 1891.22 2224 1984 2224C2076.78 2224 2152 2148.78 2152 2056C2152 1963.22 2076.78 1888 1984 1888Z" fill="black" id="n813"/>
</mask>
<g mask="url(#mask84_68_6728)" id="n814">
<path d="M1984 1856V2056M1984 2056L1842.58 1914.58M1984 2056H1784M1984 2056L1842.58 2197.42M1984 2056V2256M1984 2056L2125.42 2197.42M1984 2056H2184M1984 2056L2125.42 1914.58" stroke="#BEBEBE" id="n815"/>
</g>
<mask id="mask85_68_6728" style="mask-type:alpha" maskUnits="userSpaceOnUse" x="1728" y="1799" width="512" height="513">
<path d="M1984 1864C2090.04 1864 2176 1949.96 2176 2056C2176 2162.04 2090.04 2248 1984 2248C1877.96 2248 1792 2162.04 1792 2056C1792 1949.96 1877.96 1864 1984 1864ZM1984 1892C1893.43 1892 1820 1965.42 1820 2056C1820 2146.57 1893.43 2220 1984 2220C2074.57 2220 2148 2146.57 2148 2056C2148 1965.42 2074.57 1892 1984 1892Z" fill="black" id="n816"/>
</mask>
<g mask="url(#mask85_68_6728)" id="n817">
<path d="M1984 1856V2056M1984 2056H1784M1984 2056V2256M1984 2056H2184" stroke="#BEBEBE" id="n818"/>
</g>
</g>
<path d="M2116.94 1923.06C2099.48 1905.61 2078.75 1891.76 2055.94 1882.31C2033.14 1872.86 2008.69 1868 1984 1868C1959.31 1868 1934.86 1872.86 1912.06 1882.31C1889.25 1891.76 1868.52 1905.61 1851.06 1923.06" stroke="#BEBEBE" stroke-linecap="round" id="n819"/>
<path d="M1851.06 2188.94C1868.52 2206.39 1889.25 2220.24 1912.06 2229.69C1934.86 2239.14 1959.31 2244 1984 2244C2008.69 2244 2033.14 2239.14 2055.94 2229.69C2078.75 2220.24 2099.48 2206.39 2116.94 2188.94" stroke="#BEBEBE" stroke-linecap="round" id="n820"/>
<path d="M2148 2056C2148 2070.68 2146.07 2084.91 2142.45 2098.46L2096.07 2086.03C2096.28 2085.25 2096.48 2084.47 2096.68 2083.68C2096.72 2083.49 2096.77 2083.3 2096.81 2083.11C2096.87 2082.86 2096.93 2082.6 2096.99 2082.35C2097.04 2082.15 2097.08 2081.95 2097.13 2081.75C2097.19 2081.49 2097.25 2081.24 2097.3 2080.98C2097.34 2080.81 2097.38 2080.63 2097.42 2080.46C2097.48 2080.17 2097.54 2079.89 2097.6 2079.6C2097.63 2079.42 2097.67 2079.24 2097.71 2079.06C2097.76 2078.8 2097.81 2078.54 2097.86 2078.28C2097.9 2078.07 2097.94 2077.86 2097.98 2077.65C2098.03 2077.42 2098.07 2077.18 2098.11 2076.95C2098.16 2076.72 2098.2 2076.48 2098.24 2076.25C2098.28 2076.02 2098.32 2075.79 2098.36 2075.57C2098.39 2075.35 2098.43 2075.14 2098.46 2074.93C2098.52 2074.61 2098.57 2074.28 2098.62 2073.96C2098.64 2073.84 2098.66 2073.72 2098.67 2073.6C2098.73 2073.25 2098.78 2072.9 2098.83 2072.55C2098.85 2072.42 2098.86 2072.29 2098.88 2072.17C2098.92 2071.92 2098.95 2071.67 2098.98 2071.42C2099.03 2071.04 2099.08 2070.65 2099.13 2070.27C2099.17 2069.96 2099.21 2069.66 2099.24 2069.35C2099.25 2069.25 2099.26 2069.14 2099.27 2069.04C2099.31 2068.7 2099.35 2068.37 2099.38 2068.03C2099.41 2067.77 2099.43 2067.51 2099.46 2067.25C2099.48 2067.05 2099.5 2066.85 2099.52 2066.65C2099.54 2066.41 2099.56 2066.16 2099.58 2065.92C2099.6 2065.68 2099.62 2065.43 2099.64 2065.19C2099.66 2064.98 2099.67 2064.78 2099.69 2064.57C2099.71 2064.3 2099.73 2064.02 2099.74 2063.75C2099.76 2063.55 2099.77 2063.35 2099.78 2063.15C2099.8 2062.86 2099.82 2062.57 2099.83 2062.27C2099.84 2062.11 2099.85 2061.94 2099.86 2061.78C2099.87 2061.47 2099.89 2061.16 2099.9 2060.85C2099.91 2060.67 2099.91 2060.49 2099.92 2060.31C2099.93 2059.98 2099.94 2059.65 2099.95 2059.32C2099.96 2059.18 2099.96 2059.04 2099.96 2058.91C2099.97 2058.5 2099.98 2058.1 2099.99 2057.7C2099.99 2057.62 2099.99 2057.54 2099.99 2057.47C2100 2056.98 2100 2056.49 2100 2056C2100 2055.51 2100 2055.02 2099.99 2054.54C2099.99 2054.45 2099.99 2054.37 2099.99 2054.29C2099.98 2053.89 2099.97 2053.49 2099.96 2053.1C2099.96 2052.95 2099.96 2052.81 2099.95 2052.67C2099.94 2052.34 2099.93 2052.02 2099.92 2051.69C2099.91 2051.51 2099.91 2051.33 2099.9 2051.15C2099.89 2050.84 2099.87 2050.53 2099.86 2050.23C2099.85 2050.06 2099.84 2049.89 2099.83 2049.71C2099.82 2049.43 2099.8 2049.14 2099.78 2048.86C2099.77 2048.65 2099.76 2048.44 2099.74 2048.24C2099.73 2047.97 2099.71 2047.71 2099.69 2047.44C2099.67 2047.23 2099.66 2047.01 2099.64 2046.8C2099.62 2046.56 2099.6 2046.33 2099.58 2046.1C2099.56 2045.84 2099.54 2045.59 2099.52 2045.33C2099.5 2045.15 2099.48 2044.96 2099.46 2044.78C2099.44 2044.5 2099.41 2044.23 2099.38 2043.96C2099.35 2043.65 2099.32 2043.35 2099.28 2043.05C2099.27 2042.91 2099.25 2042.78 2099.24 2042.64C2099.21 2042.36 2099.17 2042.08 2099.14 2041.81C2099.08 2041.35 2099.02 2040.89 2098.96 2040.43C2098.94 2040.24 2098.91 2040.04 2098.88 2039.85C2098.86 2039.69 2098.84 2039.53 2098.82 2039.37C2098.77 2039.05 2098.72 2038.74 2098.68 2038.42C2098.65 2038.28 2098.63 2038.14 2098.61 2038C2098.56 2037.69 2098.51 2037.38 2098.46 2037.07C2098.43 2036.85 2098.39 2036.62 2098.35 2036.4C2098.31 2036.19 2098.28 2035.98 2098.24 2035.77C2098.2 2035.53 2098.15 2035.28 2098.11 2035.04C2098.07 2034.81 2098.03 2034.58 2097.98 2034.35C2097.94 2034.14 2097.9 2033.93 2097.86 2033.72C2097.81 2033.47 2097.76 2033.21 2097.71 2032.95C2097.67 2032.76 2097.63 2032.57 2097.59 2032.38C2097.54 2032.11 2097.48 2031.84 2097.42 2031.57C2097.38 2031.38 2097.34 2031.2 2097.3 2031.02C2097.25 2030.76 2097.19 2030.5 2097.13 2030.25C2097.08 2030.05 2097.04 2029.85 2096.99 2029.65C2096.93 2029.4 2096.87 2029.14 2096.81 2028.89C2096.77 2028.7 2096.72 2028.51 2096.68 2028.32C2096.48 2027.53 2096.28 2026.75 2096.07 2025.97L2142.45 2013.54C2146.07 2027.08 2148 2041.32 2148 2056Z" fill="#9CC1F5" id="n821"/>
<path d="M2142.45 2098.46L2142.32 2098.94L2142.8 2099.07L2142.93 2098.58L2142.45 2098.46ZM2096.07 2086.03L2095.59 2085.9L2095.46 2086.38L2095.94 2086.51L2096.07 2086.03ZM2096.68 2083.68L2096.19 2083.56V2083.56L2096.68 2083.68ZM2096.81 2083.11L2097.3 2083.22V2083.22L2096.81 2083.11ZM2096.99 2082.35L2096.51 2082.24V2082.24L2096.99 2082.35ZM2097.13 2081.75L2097.62 2081.86V2081.86L2097.13 2081.75ZM2097.3 2080.98L2096.81 2080.87V2080.87L2097.3 2080.98ZM2097.42 2080.46L2097.9 2080.57V2080.57L2097.42 2080.46ZM2097.6 2079.6L2097.11 2079.5V2079.5L2097.6 2079.6ZM2097.71 2079.06L2098.2 2079.16V2079.16L2097.71 2079.06ZM2097.86 2078.28L2097.37 2078.18V2078.18L2097.86 2078.28ZM2097.98 2077.65L2098.47 2077.74V2077.74L2097.98 2077.65ZM2098.11 2076.95L2097.62 2076.86V2076.86L2098.11 2076.95ZM2098.24 2076.25L2098.73 2076.33V2076.33L2098.24 2076.25ZM2098.36 2075.57L2097.86 2075.48V2075.48L2098.36 2075.57ZM2098.46 2074.93L2098.96 2075.01V2075.01L2098.46 2074.93ZM2098.62 2073.96L2098.12 2073.88V2073.88L2098.62 2073.96ZM2098.67 2073.6L2099.17 2073.67V2073.67L2098.67 2073.6ZM2098.83 2072.55L2098.33 2072.48V2072.48L2098.83 2072.55ZM2098.88 2072.17L2099.38 2072.23V2072.23L2098.88 2072.17ZM2098.98 2071.42L2098.49 2071.36V2071.36L2098.98 2071.42ZM2099.13 2070.27L2099.63 2070.33V2070.33L2099.13 2070.27ZM2099.24 2069.35L2098.74 2069.29V2069.29L2099.24 2069.35ZM2099.27 2069.04L2099.77 2069.09V2069.09L2099.27 2069.04ZM2099.38 2068.03L2098.89 2067.98V2067.98L2099.38 2068.03ZM2099.46 2067.25L2099.96 2067.3V2067.3L2099.46 2067.25ZM2099.52 2066.65L2099.02 2066.61V2066.61L2099.52 2066.65ZM2099.58 2065.92L2100.08 2065.96V2065.96L2099.58 2065.92ZM2099.64 2065.19L2099.14 2065.15V2065.15L2099.64 2065.19ZM2099.69 2064.57L2100.19 2064.61V2064.61L2099.69 2064.57ZM2099.74 2063.75L2099.25 2063.72V2063.72L2099.74 2063.75ZM2099.78 2063.15L2100.28 2063.18V2063.18L2099.78 2063.15ZM2099.83 2062.27L2099.33 2062.25V2062.25L2099.83 2062.27ZM2099.86 2061.78L2100.36 2061.8V2061.8L2099.86 2061.78ZM2099.9 2060.85L2099.4 2060.83V2060.83L2099.9 2060.85ZM2099.92 2060.31L2100.42 2060.33V2060.33L2099.92 2060.31ZM2099.95 2059.32L2099.45 2059.31V2059.31L2099.95 2059.32ZM2099.96 2058.91L2100.46 2058.92V2058.92L2099.96 2058.91ZM2099.99 2057.7L2099.49 2057.69V2057.69L2099.99 2057.7ZM2099.99 2057.47L2100.49 2057.47V2057.47L2099.99 2057.47ZM2100 2056L2100.5 2056V2056L2100 2056ZM2099.99 2054.54L2099.49 2054.54V2054.54L2099.99 2054.54ZM2099.99 2054.29L2100.49 2054.28V2054.28L2099.99 2054.29ZM2099.96 2053.1L2099.46 2053.11V2053.11L2099.96 2053.1ZM2099.95 2052.67L2100.45 2052.66V2052.66L2099.95 2052.67ZM2099.92 2051.69L2099.42 2051.71V2051.71L2099.92 2051.69ZM2099.9 2051.15L2100.4 2051.12V2051.12L2099.9 2051.15ZM2099.86 2050.23L2099.36 2050.25V2050.25L2099.86 2050.23ZM2099.83 2049.71L2100.33 2049.69H2100.33L2099.83 2049.71ZM2099.78 2048.86L2099.28 2048.89V2048.89L2099.78 2048.86ZM2099.74 2048.24L2100.24 2048.21V2048.21L2099.74 2048.24ZM2099.69 2047.44L2099.19 2047.48L2099.19 2047.48L2099.69 2047.44ZM2099.64 2046.8L2100.14 2046.76V2046.76L2099.64 2046.8ZM2099.58 2046.1L2099.08 2046.14V2046.14L2099.58 2046.1ZM2099.52 2045.33L2100.01 2045.29V2045.29L2099.52 2045.33ZM2099.46 2044.78L2098.97 2044.83V2044.83L2099.46 2044.78ZM2099.38 2043.96L2099.88 2043.9L2099.88 2043.9L2099.38 2043.96ZM2099.28 2043.05L2098.79 2043.11V2043.11L2099.28 2043.05ZM2099.24 2042.64L2099.74 2042.58V2042.58L2099.24 2042.64ZM2099.14 2041.81L2098.64 2041.87V2041.87L2099.14 2041.81ZM2098.96 2040.43L2099.46 2040.37V2040.37L2098.96 2040.43ZM2098.88 2039.85L2098.39 2039.91V2039.91L2098.88 2039.85ZM2098.82 2039.37L2099.31 2039.3V2039.3L2098.82 2039.37ZM2098.68 2038.42L2098.18 2038.49L2098.18 2038.49L2098.68 2038.42ZM2098.61 2038L2099.11 2037.93V2037.93L2098.61 2038ZM2098.46 2037.07L2097.97 2037.15V2037.15L2098.46 2037.07ZM2098.35 2036.4L2098.84 2036.32V2036.32L2098.35 2036.4ZM2098.24 2035.77L2097.75 2035.86V2035.86L2098.24 2035.77ZM2098.11 2035.04L2098.6 2034.95V2034.95L2098.11 2035.04ZM2097.98 2034.35L2097.49 2034.44V2034.44L2097.98 2034.35ZM2097.86 2033.72L2098.35 2033.63V2033.63L2097.86 2033.72ZM2097.71 2032.95L2097.22 2033.05V2033.05L2097.71 2032.95ZM2097.59 2032.38L2098.08 2032.28V2032.28L2097.59 2032.38ZM2097.42 2031.57L2096.93 2031.67V2031.67L2097.42 2031.57ZM2097.3 2031.02L2097.79 2030.91V2030.91L2097.3 2031.02ZM2097.13 2030.25L2096.64 2030.36V2030.36L2097.13 2030.25ZM2096.99 2029.65L2097.48 2029.53V2029.53L2096.99 2029.65ZM2096.81 2028.89L2096.33 2029.01L2096.33 2029.01L2096.81 2028.89ZM2096.68 2028.32L2097.16 2028.2V2028.2L2096.68 2028.32ZM2096.07 2025.97L2095.94 2025.49L2095.46 2025.62L2095.59 2026.1L2096.07 2025.97ZM2142.45 2013.54L2142.93 2013.41L2142.8 2012.93L2142.32 2013.06L2142.45 2013.54ZM2148 2056L2147.5 2056C2147.5 2070.64 2145.57 2084.83 2141.97 2098.33L2142.45 2098.46L2142.93 2098.58C2146.56 2085 2148.5 2070.73 2148.5 2056L2148 2056ZM2142.45 2098.46L2142.58 2097.97L2096.2 2085.55L2096.07 2086.03L2095.94 2086.51L2142.32 2098.94L2142.45 2098.46ZM2096.07 2086.03L2096.56 2086.16C2096.77 2085.38 2096.97 2084.59 2097.16 2083.8L2096.68 2083.68L2096.19 2083.56C2096 2084.34 2095.8 2085.12 2095.59 2085.9L2096.07 2086.03ZM2096.68 2083.68L2097.16 2083.8C2097.21 2083.61 2097.26 2083.41 2097.3 2083.22L2096.81 2083.11L2096.33 2082.99C2096.28 2083.19 2096.24 2083.37 2096.19 2083.56L2096.68 2083.68ZM2096.81 2083.11L2097.3 2083.22C2097.36 2082.97 2097.42 2082.72 2097.48 2082.46L2096.99 2082.35L2096.51 2082.24C2096.45 2082.49 2096.39 2082.74 2096.33 2082.99L2096.81 2083.11ZM2096.99 2082.35L2097.48 2082.46C2097.53 2082.26 2097.57 2082.06 2097.62 2081.86L2097.13 2081.75L2096.64 2081.64C2096.6 2081.84 2096.55 2082.04 2096.51 2082.24L2096.99 2082.35ZM2097.13 2081.75L2097.62 2081.86C2097.68 2081.6 2097.73 2081.35 2097.79 2081.09L2097.3 2080.98L2096.81 2080.87C2096.76 2081.13 2096.7 2081.38 2096.64 2081.64L2097.13 2081.75ZM2097.3 2080.98L2097.79 2081.09C2097.83 2080.91 2097.87 2080.74 2097.9 2080.57L2097.42 2080.46L2096.93 2080.36C2096.89 2080.53 2096.85 2080.7 2096.81 2080.87L2097.3 2080.98ZM2097.42 2080.46L2097.9 2080.57C2097.97 2080.28 2098.03 2079.99 2098.09 2079.7L2097.6 2079.6L2097.11 2079.5C2097.05 2079.78 2096.99 2080.07 2096.93 2080.36L2097.42 2080.46ZM2097.6 2079.6L2098.09 2079.7C2098.12 2079.52 2098.16 2079.34 2098.2 2079.16L2097.71 2079.06L2097.22 2078.96C2097.18 2079.14 2097.14 2079.32 2097.11 2079.5L2097.6 2079.6ZM2097.71 2079.06L2098.2 2079.16C2098.25 2078.89 2098.3 2078.63 2098.35 2078.37L2097.86 2078.28L2097.37 2078.18C2097.32 2078.44 2097.27 2078.7 2097.22 2078.96L2097.71 2079.06ZM2097.86 2078.28L2098.35 2078.37C2098.39 2078.16 2098.43 2077.95 2098.47 2077.74L2097.98 2077.65L2097.49 2077.55C2097.45 2077.76 2097.41 2077.97 2097.37 2078.18L2097.86 2078.28ZM2097.98 2077.65L2098.47 2077.74C2098.52 2077.51 2098.56 2077.27 2098.6 2077.04L2098.11 2076.95L2097.62 2076.86C2097.58 2077.09 2097.53 2077.32 2097.49 2077.55L2097.98 2077.65ZM2098.11 2076.95L2098.6 2077.04C2098.65 2076.8 2098.69 2076.57 2098.73 2076.33L2098.24 2076.25L2097.75 2076.16C2097.7 2076.39 2097.66 2076.63 2097.62 2076.86L2098.11 2076.95ZM2098.24 2076.25L2098.73 2076.33C2098.77 2076.11 2098.81 2075.88 2098.85 2075.65L2098.36 2075.57L2097.86 2075.48C2097.82 2075.71 2097.79 2075.94 2097.75 2076.16L2098.24 2076.25ZM2098.36 2075.57L2098.85 2075.65C2098.88 2075.44 2098.92 2075.22 2098.96 2075.01L2098.46 2074.93L2097.97 2074.85C2097.93 2075.06 2097.9 2075.27 2097.86 2075.48L2098.36 2075.57ZM2098.46 2074.93L2098.96 2075.01C2099.01 2074.68 2099.06 2074.36 2099.11 2074.04L2098.62 2073.96L2098.12 2073.88C2098.07 2074.21 2098.02 2074.53 2097.97 2074.85L2098.46 2074.93ZM2098.62 2073.96L2099.11 2074.04C2099.13 2073.92 2099.15 2073.79 2099.17 2073.67L2098.67 2073.6L2098.18 2073.52C2098.16 2073.64 2098.14 2073.76 2098.12 2073.88L2098.62 2073.96ZM2098.67 2073.6L2099.17 2073.67C2099.22 2073.32 2099.27 2072.97 2099.32 2072.62L2098.83 2072.55L2098.33 2072.48C2098.28 2072.83 2098.23 2073.18 2098.18 2073.52L2098.67 2073.6ZM2098.83 2072.55L2099.32 2072.62C2099.34 2072.5 2099.36 2072.36 2099.38 2072.23L2098.88 2072.17L2098.39 2072.1C2098.37 2072.22 2098.35 2072.35 2098.33 2072.48L2098.83 2072.55ZM2098.88 2072.17L2099.38 2072.23C2099.41 2071.99 2099.45 2071.74 2099.48 2071.49L2098.98 2071.42L2098.49 2071.36C2098.45 2071.61 2098.42 2071.85 2098.39 2072.1L2098.88 2072.17ZM2098.98 2071.42L2099.48 2071.49C2099.53 2071.1 2099.58 2070.72 2099.63 2070.33L2099.13 2070.27L2098.63 2070.21C2098.59 2070.59 2098.54 2070.98 2098.49 2071.36L2098.98 2071.42ZM2099.13 2070.27L2099.63 2070.33C2099.66 2070.02 2099.7 2069.72 2099.74 2069.41L2099.24 2069.35L2098.74 2069.29C2098.71 2069.6 2098.67 2069.9 2098.63 2070.21L2099.13 2070.27ZM2099.24 2069.35L2099.74 2069.41C2099.75 2069.31 2099.76 2069.18 2099.77 2069.09L2099.27 2069.04L2098.78 2068.98C2098.76 2069.1 2098.76 2069.18 2098.74 2069.29L2099.24 2069.35ZM2099.27 2069.04L2099.77 2069.09C2099.81 2068.76 2099.85 2068.42 2099.88 2068.09L2099.38 2068.03L2098.89 2067.98C2098.85 2068.32 2098.81 2068.65 2098.78 2068.98L2099.27 2069.04ZM2099.38 2068.03L2099.88 2068.09C2099.91 2067.82 2099.93 2067.56 2099.96 2067.3L2099.46 2067.25L2098.96 2067.21C2098.94 2067.47 2098.91 2067.72 2098.89 2067.98L2099.38 2068.03ZM2099.46 2067.25L2099.96 2067.3C2099.98 2067.1 2100 2066.9 2100.01 2066.7L2099.52 2066.65L2099.02 2066.61C2099 2066.81 2098.98 2067.01 2098.96 2067.21L2099.46 2067.25ZM2099.52 2066.65L2100.01 2066.7C2100.04 2066.45 2100.06 2066.21 2100.08 2065.96L2099.58 2065.92L2099.08 2065.88C2099.06 2066.12 2099.04 2066.37 2099.02 2066.61L2099.52 2066.65ZM2099.58 2065.92L2100.08 2065.96C2100.1 2065.72 2100.12 2065.47 2100.14 2065.23L2099.64 2065.19L2099.14 2065.15C2099.12 2065.39 2099.1 2065.64 2099.08 2065.88L2099.58 2065.92ZM2099.64 2065.19L2100.14 2065.23C2100.16 2065.02 2100.17 2064.81 2100.19 2064.61L2099.69 2064.57L2099.19 2064.53C2099.17 2064.74 2099.16 2064.95 2099.14 2065.15L2099.64 2065.19ZM2099.69 2064.57L2100.19 2064.61C2100.21 2064.33 2100.22 2064.06 2100.24 2063.78L2099.74 2063.75L2099.25 2063.72C2099.23 2063.99 2099.21 2064.26 2099.19 2064.53L2099.69 2064.57ZM2099.74 2063.75L2100.24 2063.78C2100.26 2063.58 2100.27 2063.38 2100.28 2063.18L2099.78 2063.15L2099.28 2063.12C2099.27 2063.32 2099.26 2063.52 2099.25 2063.72L2099.74 2063.75ZM2099.78 2063.15L2100.28 2063.18C2100.3 2062.89 2100.32 2062.59 2100.33 2062.3L2099.83 2062.27L2099.33 2062.25C2099.32 2062.54 2099.3 2062.83 2099.28 2063.12L2099.78 2063.15ZM2099.83 2062.27L2100.33 2062.3C2100.34 2062.14 2100.35 2061.97 2100.36 2061.8L2099.86 2061.78L2099.36 2061.75C2099.35 2061.92 2099.34 2062.08 2099.33 2062.25L2099.83 2062.27ZM2099.86 2061.78L2100.36 2061.8C2100.37 2061.49 2100.39 2061.18 2100.4 2060.87L2099.9 2060.85L2099.4 2060.83C2099.39 2061.14 2099.37 2061.45 2099.36 2061.75L2099.86 2061.78ZM2099.9 2060.85L2100.4 2060.87C2100.41 2060.69 2100.41 2060.51 2100.42 2060.33L2099.92 2060.31L2099.42 2060.29C2099.41 2060.47 2099.41 2060.65 2099.4 2060.83L2099.9 2060.85ZM2099.92 2060.31L2100.42 2060.33C2100.43 2060 2100.44 2059.67 2100.45 2059.34L2099.95 2059.32L2099.45 2059.31C2099.44 2059.64 2099.43 2059.96 2099.42 2060.29L2099.92 2060.31ZM2099.95 2059.32L2100.45 2059.34C2100.46 2059.2 2100.46 2059.06 2100.46 2058.92L2099.96 2058.91L2099.46 2058.89C2099.46 2059.03 2099.46 2059.17 2099.45 2059.31L2099.95 2059.32ZM2099.96 2058.91L2100.46 2058.92C2100.47 2058.51 2100.48 2058.11 2100.49 2057.71L2099.99 2057.7L2099.49 2057.69C2099.48 2058.09 2099.47 2058.49 2099.46 2058.89L2099.96 2058.91ZM2099.99 2057.7L2100.49 2057.71C2100.49 2057.64 2100.49 2057.55 2100.49 2057.47L2099.99 2057.47L2099.49 2057.46C2099.49 2057.54 2099.49 2057.6 2099.49 2057.69L2099.99 2057.7ZM2099.99 2057.47L2100.49 2057.47C2100.5 2056.98 2100.5 2056.49 2100.5 2056L2100 2056L2099.5 2056C2099.5 2056.49 2099.5 2056.97 2099.49 2057.46L2099.99 2057.47ZM2100 2056L2100.5 2056C2100.5 2055.51 2100.5 2055.02 2100.49 2054.53L2099.99 2054.54L2099.49 2054.54C2099.5 2055.03 2099.5 2055.51 2099.5 2056L2100 2056ZM2099.99 2054.54L2100.49 2054.53C2100.49 2054.47 2100.49 2054.33 2100.49 2054.28L2099.99 2054.29L2099.49 2054.3C2099.49 2054.41 2099.49 2054.44 2099.49 2054.54L2099.99 2054.54ZM2099.99 2054.29L2100.49 2054.28C2100.48 2053.88 2100.47 2053.48 2100.46 2053.08L2099.96 2053.1L2099.46 2053.11C2099.47 2053.5 2099.48 2053.9 2099.49 2054.3L2099.99 2054.29ZM2099.96 2053.1L2100.46 2053.08C2100.46 2052.94 2100.46 2052.8 2100.45 2052.66L2099.95 2052.67L2099.45 2052.69C2099.46 2052.83 2099.46 2052.97 2099.46 2053.11L2099.96 2053.1ZM2099.95 2052.67L2100.45 2052.66C2100.44 2052.33 2100.43 2052 2100.42 2051.67L2099.92 2051.69L2099.42 2051.71C2099.43 2052.03 2099.44 2052.36 2099.45 2052.69L2099.95 2052.67ZM2099.92 2051.69L2100.42 2051.67C2100.41 2051.49 2100.41 2051.31 2100.4 2051.12L2099.9 2051.15L2099.4 2051.17C2099.41 2051.35 2099.41 2051.53 2099.42 2051.71L2099.92 2051.69ZM2099.9 2051.15L2100.4 2051.12C2100.39 2050.82 2100.37 2050.51 2100.36 2050.2L2099.86 2050.23L2099.36 2050.25C2099.37 2050.56 2099.39 2050.86 2099.4 2051.17L2099.9 2051.15ZM2099.86 2050.23L2100.36 2050.2C2100.35 2050.03 2100.34 2049.86 2100.33 2049.69L2099.83 2049.71L2099.33 2049.74C2099.34 2049.91 2099.35 2050.08 2099.36 2050.25L2099.86 2050.23ZM2099.83 2049.71L2100.33 2049.69C2100.32 2049.4 2100.3 2049.11 2100.28 2048.83L2099.78 2048.86L2099.28 2048.89C2099.3 2049.17 2099.32 2049.46 2099.33 2049.74L2099.83 2049.71ZM2099.78 2048.86L2100.28 2048.83C2100.27 2048.62 2100.26 2048.41 2100.24 2048.21L2099.74 2048.24L2099.24 2048.27C2099.26 2048.48 2099.27 2048.68 2099.28 2048.89L2099.78 2048.86ZM2099.74 2048.24L2100.24 2048.21C2100.22 2047.94 2100.21 2047.67 2100.19 2047.41L2099.69 2047.44L2099.19 2047.48C2099.21 2047.74 2099.23 2048.01 2099.24 2048.27L2099.74 2048.24ZM2099.69 2047.44L2100.19 2047.41C2100.17 2047.19 2100.15 2046.97 2100.14 2046.76L2099.64 2046.8L2099.14 2046.84C2099.16 2047.05 2099.17 2047.27 2099.19 2047.48L2099.69 2047.44ZM2099.64 2046.8L2100.14 2046.76C2100.12 2046.52 2100.1 2046.29 2100.08 2046.06L2099.58 2046.1L2099.08 2046.14C2099.1 2046.37 2099.12 2046.61 2099.14 2046.84L2099.64 2046.8ZM2099.58 2046.1L2100.08 2046.06C2100.06 2045.8 2100.04 2045.55 2100.01 2045.29L2099.52 2045.33L2099.02 2045.38C2099.04 2045.63 2099.06 2045.89 2099.08 2046.14L2099.58 2046.1ZM2099.52 2045.33L2100.01 2045.29C2100 2045.1 2099.98 2044.92 2099.96 2044.73L2099.46 2044.78L2098.97 2044.83C2098.98 2045.01 2099 2045.2 2099.02 2045.38L2099.52 2045.33ZM2099.46 2044.78L2099.96 2044.73C2099.93 2044.46 2099.91 2044.18 2099.88 2043.9L2099.38 2043.96L2098.88 2044.01C2098.91 2044.28 2098.94 2044.55 2098.97 2044.83L2099.46 2044.78ZM2099.38 2043.96L2099.88 2043.9C2099.85 2043.6 2099.81 2043.3 2099.78 2043L2099.28 2043.05L2098.79 2043.11C2098.82 2043.41 2098.85 2043.71 2098.88 2044.01L2099.38 2043.96ZM2099.28 2043.05L2099.78 2043C2099.77 2042.86 2099.75 2042.72 2099.74 2042.58L2099.24 2042.64L2098.74 2042.69C2098.76 2042.83 2098.77 2042.97 2098.79 2043.11L2099.28 2043.05ZM2099.24 2042.64L2099.74 2042.58C2099.7 2042.3 2099.67 2042.02 2099.63 2041.75L2099.14 2041.81L2098.64 2041.87C2098.68 2042.15 2098.71 2042.42 2098.74 2042.69L2099.24 2042.64ZM2099.14 2041.81L2099.63 2041.75C2099.58 2041.29 2099.52 2040.83 2099.46 2040.37L2098.96 2040.43L2098.47 2040.5C2098.53 2040.96 2098.59 2041.41 2098.64 2041.87L2099.14 2041.81ZM2098.96 2040.43L2099.46 2040.37C2099.43 2040.18 2099.41 2039.97 2099.38 2039.78L2098.88 2039.85L2098.39 2039.91C2098.42 2040.11 2098.44 2040.3 2098.47 2040.5L2098.96 2040.43ZM2098.88 2039.85L2099.38 2039.78C2099.36 2039.62 2099.33 2039.45 2099.31 2039.3L2098.82 2039.37L2098.32 2039.44C2098.34 2039.61 2098.37 2039.76 2098.39 2039.91L2098.88 2039.85ZM2098.82 2039.37L2099.31 2039.3C2099.27 2038.98 2099.22 2038.66 2099.17 2038.34L2098.68 2038.42L2098.18 2038.49C2098.23 2038.81 2098.28 2039.13 2098.32 2039.44L2098.82 2039.37ZM2098.68 2038.42L2099.17 2038.34C2099.15 2038.2 2099.13 2038.06 2099.11 2037.93L2098.61 2038L2098.12 2038.08C2098.14 2038.22 2098.16 2038.36 2098.18 2038.49L2098.68 2038.42ZM2098.61 2038L2099.11 2037.93C2099.06 2037.62 2099.01 2037.3 2098.96 2036.99L2098.46 2037.07L2097.97 2037.15C2098.02 2037.46 2098.07 2037.77 2098.12 2038.08L2098.61 2038ZM2098.46 2037.07L2098.96 2036.99C2098.92 2036.77 2098.88 2036.54 2098.84 2036.32L2098.35 2036.4L2097.86 2036.48C2097.89 2036.71 2097.93 2036.93 2097.97 2037.15L2098.46 2037.07ZM2098.35 2036.4L2098.84 2036.32C2098.81 2036.11 2098.77 2035.9 2098.73 2035.68L2098.24 2035.77L2097.75 2035.86C2097.79 2036.07 2097.82 2036.27 2097.86 2036.48L2098.35 2036.4ZM2098.24 2035.77L2098.73 2035.68C2098.69 2035.44 2098.65 2035.19 2098.6 2034.95L2098.11 2035.04L2097.62 2035.13C2097.66 2035.37 2097.71 2035.61 2097.75 2035.86L2098.24 2035.77ZM2098.11 2035.04L2098.6 2034.95C2098.56 2034.72 2098.52 2034.49 2098.47 2034.26L2097.98 2034.35L2097.49 2034.44C2097.53 2034.67 2097.58 2034.9 2097.62 2035.13L2098.11 2035.04ZM2097.98 2034.35L2098.47 2034.26C2098.43 2034.05 2098.39 2033.84 2098.35 2033.63L2097.86 2033.72L2097.37 2033.82C2097.41 2034.03 2097.45 2034.24 2097.49 2034.44L2097.98 2034.35ZM2097.86 2033.72L2098.35 2033.63C2098.3 2033.37 2098.25 2033.11 2098.2 2032.86L2097.71 2032.95L2097.22 2033.05C2097.27 2033.31 2097.32 2033.56 2097.37 2033.82L2097.86 2033.72ZM2097.71 2032.95L2098.2 2032.86C2098.16 2032.66 2098.12 2032.47 2098.08 2032.28L2097.59 2032.38L2097.1 2032.48C2097.14 2032.67 2097.18 2032.86 2097.22 2033.05L2097.71 2032.95ZM2097.59 2032.38L2098.08 2032.28C2098.03 2032.01 2097.97 2031.73 2097.91 2031.46L2097.42 2031.57L2096.93 2031.67C2096.99 2031.94 2097.05 2032.21 2097.1 2032.48L2097.59 2032.38ZM2097.42 2031.57L2097.91 2031.46C2097.87 2031.28 2097.83 2031.09 2097.79 2030.91L2097.3 2031.02L2096.81 2031.12C2096.85 2031.3 2096.89 2031.49 2096.93 2031.67L2097.42 2031.57ZM2097.3 2031.02L2097.79 2030.91C2097.73 2030.65 2097.68 2030.39 2097.62 2030.14L2097.13 2030.25L2096.64 2030.36C2096.7 2030.61 2096.76 2030.87 2096.81 2031.12L2097.3 2031.02ZM2097.13 2030.25L2097.62 2030.14C2097.57 2029.94 2097.53 2029.74 2097.48 2029.53L2096.99 2029.65L2096.51 2029.76C2096.55 2029.96 2096.6 2030.16 2096.64 2030.36L2097.13 2030.25ZM2096.99 2029.65L2097.48 2029.53C2097.42 2029.28 2097.36 2029.03 2097.3 2028.78L2096.81 2028.89L2096.33 2029.01C2096.39 2029.26 2096.45 2029.51 2096.51 2029.76L2096.99 2029.65ZM2096.81 2028.89L2097.3 2028.78C2097.26 2028.59 2097.21 2028.39 2097.16 2028.2L2096.68 2028.32L2096.19 2028.44C2096.24 2028.63 2096.28 2028.81 2096.33 2029.01L2096.81 2028.89ZM2096.68 2028.32L2097.16 2028.2C2096.97 2027.41 2096.77 2026.62 2096.56 2025.84L2096.07 2025.97L2095.59 2026.1C2095.8 2026.87 2096 2027.65 2096.19 2028.44L2096.68 2028.32ZM2096.07 2025.97L2096.2 2026.45L2142.58 2014.02L2142.45 2013.54L2142.32 2013.06L2095.94 2025.49L2096.07 2025.97ZM2142.45 2013.54L2141.97 2013.67C2145.57 2027.17 2147.5 2041.36 2147.5 2056L2148 2056L2148.5 2056C2148.5 2041.27 2146.56 2027 2142.93 2013.41L2142.45 2013.54Z" fill="#9CC1F5" id="n822"/>
<path d="M1820 2056C1820 2041.32 1821.93 2027.08 1825.55 2013.54L1871.93 2025.97C1871.72 2026.75 1871.52 2027.53 1871.32 2028.32C1871.28 2028.51 1871.23 2028.7 1871.19 2028.89C1871.13 2029.14 1871.07 2029.39 1871.01 2029.65C1870.96 2029.85 1870.92 2030.05 1870.87 2030.25C1870.81 2030.5 1870.75 2030.76 1870.7 2031.02C1870.66 2031.19 1870.62 2031.36 1870.58 2031.54C1870.52 2031.82 1870.46 2032.11 1870.4 2032.4C1870.37 2032.58 1870.33 2032.76 1870.29 2032.94C1870.24 2033.2 1870.19 2033.46 1870.14 2033.72C1870.1 2033.93 1870.06 2034.14 1870.02 2034.35C1869.97 2034.58 1869.93 2034.82 1869.89 2035.05C1869.84 2035.28 1869.8 2035.52 1869.76 2035.75C1869.72 2035.98 1869.68 2036.2 1869.64 2036.43C1869.61 2036.64 1869.57 2036.86 1869.54 2037.07C1869.48 2037.39 1869.43 2037.72 1869.38 2038.04C1869.36 2038.16 1869.34 2038.28 1869.33 2038.4C1869.27 2038.75 1869.22 2039.1 1869.17 2039.44C1869.15 2039.57 1869.14 2039.7 1869.12 2039.83C1869.08 2040.08 1869.05 2040.33 1869.02 2040.57C1868.97 2040.96 1868.92 2041.34 1868.87 2041.73C1868.83 2042.04 1868.79 2042.34 1868.76 2042.65C1868.75 2042.75 1868.74 2042.86 1868.73 2042.96C1868.69 2043.29 1868.65 2043.63 1868.62 2043.96C1868.59 2044.22 1868.57 2044.48 1868.54 2044.74C1868.52 2044.94 1868.5 2045.14 1868.48 2045.34C1868.46 2045.59 1868.44 2045.83 1868.42 2046.08C1868.4 2046.32 1868.38 2046.56 1868.36 2046.81C1868.34 2047.01 1868.33 2047.22 1868.31 2047.43C1868.29 2047.7 1868.27 2047.97 1868.26 2048.25C1868.24 2048.45 1868.23 2048.65 1868.22 2048.85C1868.2 2049.14 1868.18 2049.43 1868.17 2049.72C1868.16 2049.89 1868.15 2050.05 1868.14 2050.22C1868.13 2050.53 1868.11 2050.84 1868.1 2051.15C1868.09 2051.33 1868.09 2051.51 1868.08 2051.69C1868.07 2052.02 1868.06 2052.35 1868.05 2052.68C1868.04 2052.82 1868.04 2052.95 1868.04 2053.09C1868.03 2053.49 1868.02 2053.9 1868.01 2054.3C1868.01 2054.38 1868.01 2054.45 1868.01 2054.53C1868 2055.02 1868 2055.51 1868 2056C1868 2056.49 1868 2056.98 1868.01 2057.46C1868.01 2057.55 1868.01 2057.63 1868.01 2057.71C1868.02 2058.11 1868.03 2058.51 1868.04 2058.9C1868.04 2059.04 1868.04 2059.18 1868.05 2059.33C1868.06 2059.65 1868.07 2059.98 1868.08 2060.31C1868.09 2060.49 1868.09 2060.67 1868.1 2060.85C1868.11 2061.16 1868.13 2061.46 1868.14 2061.77C1868.15 2061.94 1868.16 2062.11 1868.17 2062.28C1868.18 2062.57 1868.2 2062.86 1868.22 2063.14C1868.23 2063.35 1868.24 2063.55 1868.26 2063.76C1868.27 2064.03 1868.29 2064.29 1868.31 2064.56C1868.33 2064.77 1868.34 2064.98 1868.36 2065.2C1868.38 2065.43 1868.4 2065.67 1868.42 2065.9C1868.44 2066.15 1868.46 2066.41 1868.48 2066.66C1868.5 2066.85 1868.52 2067.03 1868.54 2067.22C1868.56 2067.49 1868.59 2067.77 1868.62 2068.04C1868.65 2068.34 1868.68 2068.65 1868.72 2068.95C1868.73 2069.08 1868.75 2069.22 1868.76 2069.36C1868.79 2069.64 1868.83 2069.91 1868.86 2070.19C1868.92 2070.65 1868.98 2071.11 1869.04 2071.56C1869.06 2071.76 1869.09 2071.96 1869.12 2072.15C1869.14 2072.31 1869.16 2072.47 1869.18 2072.63C1869.23 2072.94 1869.28 2073.26 1869.32 2073.58C1869.35 2073.72 1869.37 2073.86 1869.39 2073.99C1869.44 2074.3 1869.49 2074.62 1869.54 2074.92C1869.57 2075.15 1869.61 2075.37 1869.65 2075.6C1869.69 2075.81 1869.72 2076.02 1869.76 2076.23C1869.8 2076.47 1869.85 2076.72 1869.89 2076.96C1869.93 2077.19 1869.97 2077.42 1870.02 2077.65C1870.06 2077.86 1870.1 2078.07 1870.14 2078.27C1870.19 2078.53 1870.24 2078.79 1870.29 2079.04C1870.33 2079.24 1870.37 2079.43 1870.41 2079.62C1870.46 2079.89 1870.52 2080.16 1870.58 2080.43C1870.62 2080.62 1870.66 2080.8 1870.7 2080.98C1870.75 2081.24 1870.81 2081.5 1870.87 2081.75C1870.92 2081.95 1870.96 2082.15 1871.01 2082.35C1871.07 2082.6 1871.13 2082.85 1871.19 2083.11C1871.23 2083.3 1871.28 2083.49 1871.32 2083.68C1871.52 2084.47 1871.72 2085.25 1871.93 2086.03L1825.55 2098.46C1821.93 2084.91 1820 2070.68 1820 2056Z" fill="#9CC1F5" id="n823"/>
<path d="M1825.55 2013.54L1825.68 2013.06L1825.2 2012.93L1825.07 2013.41L1825.55 2013.54ZM1871.93 2025.97L1872.41 2026.1L1872.54 2025.62L1872.06 2025.49L1871.93 2025.97ZM1871.32 2028.32L1871.81 2028.44L1871.81 2028.44L1871.32 2028.32ZM1871.19 2028.89L1870.7 2028.77L1870.7 2028.77L1871.19 2028.89ZM1871.01 2029.65L1871.49 2029.76V2029.76L1871.01 2029.65ZM1870.87 2030.25L1870.38 2030.14V2030.14L1870.87 2030.25ZM1870.7 2031.02L1871.19 2031.13V2031.13L1870.7 2031.02ZM1870.58 2031.54L1870.1 2031.43V2031.43L1870.58 2031.54ZM1870.4 2032.4L1870.89 2032.5V2032.5L1870.4 2032.4ZM1870.29 2032.94L1869.8 2032.84V2032.84L1870.29 2032.94ZM1870.14 2033.72L1870.63 2033.82V2033.82L1870.14 2033.72ZM1870.02 2034.35L1869.53 2034.26V2034.26L1870.02 2034.35ZM1869.89 2035.05L1870.38 2035.14V2035.14L1869.89 2035.05ZM1869.76 2035.75L1869.27 2035.66V2035.66L1869.76 2035.75ZM1869.64 2036.43L1870.14 2036.51V2036.51L1869.64 2036.43ZM1869.54 2037.07L1869.04 2036.99V2036.99L1869.54 2037.07ZM1869.38 2038.04L1869.88 2038.12V2038.12L1869.38 2038.04ZM1869.33 2038.4L1868.83 2038.33V2038.33L1869.33 2038.4ZM1869.17 2039.44L1869.67 2039.52V2039.52L1869.17 2039.44ZM1869.12 2039.83L1868.62 2039.76V2039.76L1869.12 2039.83ZM1869.02 2040.57L1869.51 2040.64V2040.64L1869.02 2040.57ZM1868.87 2041.73L1868.37 2041.67V2041.67L1868.87 2041.73ZM1868.76 2042.65L1869.26 2042.7V2042.7L1868.76 2042.65ZM1868.73 2042.96L1868.23 2042.91L1868.23 2042.91L1868.73 2042.96ZM1868.62 2043.96L1869.11 2044.02V2044.02L1868.62 2043.96ZM1868.54 2044.74L1868.04 2044.7V2044.7L1868.54 2044.74ZM1868.48 2045.34L1868.98 2045.39V2045.39L1868.48 2045.34ZM1868.42 2046.08L1867.92 2046.04V2046.04L1868.42 2046.08ZM1868.36 2046.81L1868.86 2046.85V2046.85L1868.36 2046.81ZM1868.31 2047.43L1867.81 2047.39V2047.39L1868.31 2047.43ZM1868.26 2048.25L1868.75 2048.28V2048.28L1868.26 2048.25ZM1868.22 2048.85L1867.72 2048.82V2048.82L1868.22 2048.85ZM1868.17 2049.72L1868.67 2049.75V2049.75L1868.17 2049.72ZM1868.14 2050.22L1867.64 2050.2V2050.2L1868.14 2050.22ZM1868.1 2051.15L1868.6 2051.17V2051.17L1868.1 2051.15ZM1868.08 2051.69L1867.58 2051.67V2051.67L1868.08 2051.69ZM1868.05 2052.68L1868.55 2052.69V2052.69L1868.05 2052.68ZM1868.04 2053.09L1867.54 2053.08V2053.08L1868.04 2053.09ZM1868.01 2054.3L1868.51 2054.3V2054.3L1868.01 2054.3ZM1868.01 2054.53L1867.51 2054.53V2054.53L1868.01 2054.53ZM1868 2056L1867.5 2056V2056L1868 2056ZM1868.01 2057.46L1868.51 2057.46V2057.46L1868.01 2057.46ZM1868.01 2057.71L1867.51 2057.72V2057.72L1868.01 2057.71ZM1868.04 2058.9L1868.54 2058.89V2058.89L1868.04 2058.9ZM1868.05 2059.33L1867.55 2059.34V2059.34L1868.05 2059.33ZM1868.08 2060.31L1868.58 2060.29V2060.29L1868.08 2060.31ZM1868.1 2060.85L1867.6 2060.87V2060.87L1868.1 2060.85ZM1868.14 2061.77L1868.64 2061.75V2061.75L1868.14 2061.77ZM1868.17 2062.28L1867.67 2062.31H1867.67L1868.17 2062.28ZM1868.22 2063.14L1868.72 2063.11V2063.11L1868.22 2063.14ZM1868.26 2063.76L1867.76 2063.79V2063.79L1868.26 2063.76ZM1868.31 2064.56L1868.81 2064.52V2064.52L1868.31 2064.56ZM1868.36 2065.2L1867.86 2065.24V2065.24L1868.36 2065.2ZM1868.42 2065.9L1868.92 2065.86V2065.86L1868.42 2065.9ZM1868.48 2066.66L1867.99 2066.71V2066.71L1868.48 2066.66ZM1868.54 2067.22L1869.03 2067.17V2067.17L1868.54 2067.22ZM1868.62 2068.04L1868.12 2068.09V2068.09L1868.62 2068.04ZM1868.72 2068.95L1869.21 2068.89V2068.89L1868.72 2068.95ZM1868.76 2069.36L1868.26 2069.42V2069.42L1868.76 2069.36ZM1868.86 2070.19L1869.36 2070.13V2070.13L1868.86 2070.19ZM1869.04 2071.56L1868.54 2071.63V2071.63L1869.04 2071.56ZM1869.12 2072.15L1869.61 2072.08V2072.08L1869.12 2072.15ZM1869.18 2072.63L1868.69 2072.7V2072.7L1869.18 2072.63ZM1869.32 2073.58L1869.82 2073.51V2073.51L1869.32 2073.58ZM1869.39 2073.99L1868.89 2074.07V2074.07L1869.39 2073.99ZM1869.54 2074.92L1870.03 2074.84V2074.84L1869.54 2074.92ZM1869.65 2075.6L1869.16 2075.68V2075.68L1869.65 2075.6ZM1869.76 2076.23L1870.25 2076.14V2076.14L1869.76 2076.23ZM1869.89 2076.96L1869.4 2077.05V2077.05L1869.89 2076.96ZM1870.02 2077.65L1870.51 2077.55V2077.55L1870.02 2077.65ZM1870.14 2078.27L1869.65 2078.37V2078.37L1870.14 2078.27ZM1870.29 2079.04L1870.78 2078.95V2078.95L1870.29 2079.04ZM1870.41 2079.62L1869.92 2079.72V2079.72L1870.41 2079.62ZM1870.58 2080.43L1871.07 2080.33V2080.33L1870.58 2080.43ZM1870.7 2080.98L1870.21 2081.09V2081.09L1870.7 2080.98ZM1870.87 2081.75L1871.36 2081.64V2081.64L1870.87 2081.75ZM1871.01 2082.35L1870.52 2082.46V2082.46L1871.01 2082.35ZM1871.19 2083.11L1871.67 2082.99L1871.67 2082.99L1871.19 2083.11ZM1871.32 2083.68L1870.84 2083.8V2083.8L1871.32 2083.68ZM1871.93 2086.03L1872.06 2086.51L1872.54 2086.38L1872.41 2085.9L1871.93 2086.03ZM1825.55 2098.46L1825.07 2098.59L1825.2 2099.07L1825.68 2098.94L1825.55 2098.46ZM1820 2056L1820.5 2056C1820.5 2041.36 1822.43 2027.17 1826.03 2013.67L1825.55 2013.54L1825.07 2013.41C1821.44 2027 1819.5 2041.27 1819.5 2056L1820 2056ZM1825.55 2013.54L1825.42 2014.03L1871.8 2026.45L1871.93 2025.97L1872.06 2025.49L1825.68 2013.06L1825.55 2013.54ZM1871.93 2025.97L1871.44 2025.84C1871.23 2026.62 1871.03 2027.41 1870.84 2028.2L1871.32 2028.32L1871.81 2028.44C1872 2027.65 1872.2 2026.88 1872.41 2026.1L1871.93 2025.97ZM1871.32 2028.32L1870.84 2028.2C1870.79 2028.39 1870.74 2028.59 1870.7 2028.77L1871.19 2028.89L1871.67 2029.01C1871.72 2028.81 1871.76 2028.63 1871.81 2028.44L1871.32 2028.32ZM1871.19 2028.89L1870.7 2028.77C1870.64 2029.02 1870.58 2029.28 1870.52 2029.53L1871.01 2029.65L1871.49 2029.76C1871.55 2029.51 1871.61 2029.26 1871.67 2029.01L1871.19 2028.89ZM1871.01 2029.65L1870.52 2029.53C1870.47 2029.73 1870.43 2029.94 1870.38 2030.14L1870.87 2030.25L1871.36 2030.36C1871.4 2030.16 1871.45 2029.96 1871.49 2029.76L1871.01 2029.65ZM1870.87 2030.25L1870.38 2030.14C1870.32 2030.39 1870.27 2030.65 1870.21 2030.91L1870.7 2031.02L1871.19 2031.13C1871.24 2030.87 1871.3 2030.61 1871.36 2030.36L1870.87 2030.25ZM1870.7 2031.02L1870.21 2030.91C1870.17 2031.09 1870.13 2031.26 1870.1 2031.43L1870.58 2031.54L1871.07 2031.64C1871.11 2031.47 1871.15 2031.3 1871.19 2031.13L1870.7 2031.02ZM1870.58 2031.54L1870.1 2031.43C1870.03 2031.72 1869.97 2032.01 1869.91 2032.3L1870.4 2032.4L1870.89 2032.5C1870.95 2032.21 1871.01 2031.93 1871.07 2031.64L1870.58 2031.54ZM1870.4 2032.4L1869.91 2032.3C1869.88 2032.48 1869.84 2032.66 1869.8 2032.84L1870.29 2032.94L1870.78 2033.04C1870.82 2032.86 1870.86 2032.68 1870.89 2032.5L1870.4 2032.4ZM1870.29 2032.94L1869.8 2032.84C1869.75 2033.1 1869.7 2033.37 1869.65 2033.63L1870.14 2033.72L1870.63 2033.82C1870.68 2033.56 1870.73 2033.3 1870.78 2033.04L1870.29 2032.94ZM1870.14 2033.72L1869.65 2033.63C1869.61 2033.84 1869.57 2034.05 1869.53 2034.26L1870.02 2034.35L1870.51 2034.44C1870.55 2034.23 1870.59 2034.03 1870.63 2033.82L1870.14 2033.72ZM1870.02 2034.35L1869.53 2034.26C1869.48 2034.49 1869.44 2034.72 1869.4 2034.96L1869.89 2035.05L1870.38 2035.14C1870.42 2034.91 1870.47 2034.68 1870.51 2034.44L1870.02 2034.35ZM1869.89 2035.05L1869.4 2034.96C1869.35 2035.19 1869.31 2035.43 1869.27 2035.66L1869.76 2035.75L1870.25 2035.84C1870.3 2035.6 1870.34 2035.37 1870.38 2035.14L1869.89 2035.05ZM1869.76 2035.75L1869.27 2035.66C1869.23 2035.89 1869.19 2036.12 1869.15 2036.35L1869.64 2036.43L1870.14 2036.51C1870.18 2036.29 1870.21 2036.06 1870.25 2035.84L1869.76 2035.75ZM1869.64 2036.43L1869.15 2036.35C1869.12 2036.56 1869.08 2036.77 1869.04 2036.99L1869.54 2037.07L1870.03 2037.15C1870.07 2036.94 1870.1 2036.73 1870.14 2036.51L1869.64 2036.43ZM1869.54 2037.07L1869.04 2036.99C1868.99 2037.31 1868.94 2037.64 1868.89 2037.96L1869.38 2038.04L1869.88 2038.12C1869.93 2037.79 1869.98 2037.47 1870.03 2037.15L1869.54 2037.07ZM1869.38 2038.04L1868.89 2037.96C1868.87 2038.08 1868.85 2038.21 1868.83 2038.33L1869.33 2038.4L1869.82 2038.48C1869.84 2038.36 1869.86 2038.24 1869.88 2038.12L1869.38 2038.04ZM1869.33 2038.4L1868.83 2038.33C1868.78 2038.68 1868.73 2039.02 1868.68 2039.37L1869.17 2039.44L1869.67 2039.52C1869.72 2039.17 1869.77 2038.82 1869.82 2038.48L1869.33 2038.4ZM1869.17 2039.44L1868.68 2039.37C1868.66 2039.5 1868.64 2039.63 1868.62 2039.76L1869.12 2039.83L1869.61 2039.9C1869.63 2039.77 1869.65 2039.65 1869.67 2039.52L1869.17 2039.44ZM1869.12 2039.83L1868.62 2039.76C1868.59 2040.01 1868.55 2040.26 1868.52 2040.51L1869.02 2040.57L1869.51 2040.64C1869.55 2040.39 1869.58 2040.15 1869.61 2039.9L1869.12 2039.83ZM1869.02 2040.57L1868.52 2040.51C1868.47 2040.89 1868.42 2041.28 1868.37 2041.67L1868.87 2041.73L1869.37 2041.79C1869.41 2041.41 1869.46 2041.02 1869.51 2040.64L1869.02 2040.57ZM1868.87 2041.73L1868.37 2041.67C1868.34 2041.97 1868.3 2042.28 1868.26 2042.59L1868.76 2042.65L1869.26 2042.7C1869.29 2042.4 1869.33 2042.1 1869.37 2041.79L1868.87 2041.73ZM1868.76 2042.65L1868.26 2042.59C1868.25 2042.69 1868.24 2042.82 1868.23 2042.91L1868.73 2042.96L1869.22 2043.02C1869.24 2042.9 1869.24 2042.81 1869.26 2042.7L1868.76 2042.65ZM1868.73 2042.96L1868.23 2042.91C1868.19 2043.24 1868.15 2043.58 1868.12 2043.91L1868.62 2043.96L1869.11 2044.02C1869.15 2043.68 1869.19 2043.35 1869.22 2043.02L1868.73 2042.96ZM1868.62 2043.96L1868.12 2043.91C1868.09 2044.17 1868.07 2044.44 1868.04 2044.7L1868.54 2044.74L1869.04 2044.79C1869.06 2044.53 1869.09 2044.27 1869.11 2044.02L1868.62 2043.96ZM1868.54 2044.74L1868.04 2044.7C1868.02 2044.9 1868 2045.1 1867.99 2045.3L1868.48 2045.34L1868.98 2045.39C1869 2045.19 1869.02 2044.99 1869.04 2044.79L1868.54 2044.74ZM1868.48 2045.34L1867.99 2045.3C1867.96 2045.54 1867.94 2045.79 1867.92 2046.04L1868.42 2046.08L1868.92 2046.12C1868.94 2045.88 1868.96 2045.63 1868.98 2045.39L1868.48 2045.34ZM1868.42 2046.08L1867.92 2046.04C1867.9 2046.28 1867.88 2046.52 1867.86 2046.77L1868.36 2046.81L1868.86 2046.85C1868.88 2046.61 1868.9 2046.36 1868.92 2046.12L1868.42 2046.08ZM1868.36 2046.81L1867.86 2046.77C1867.84 2046.98 1867.83 2047.18 1867.81 2047.39L1868.31 2047.43L1868.81 2047.46C1868.83 2047.26 1868.84 2047.05 1868.86 2046.85L1868.36 2046.81ZM1868.31 2047.43L1867.81 2047.39C1867.79 2047.67 1867.78 2047.94 1867.76 2048.21L1868.26 2048.25L1868.75 2048.28C1868.77 2048.01 1868.79 2047.74 1868.81 2047.46L1868.31 2047.43ZM1868.26 2048.25L1867.76 2048.21C1867.74 2048.41 1867.73 2048.61 1867.72 2048.82L1868.22 2048.85L1868.72 2048.88C1868.73 2048.68 1868.74 2048.48 1868.75 2048.28L1868.26 2048.25ZM1868.22 2048.85L1867.72 2048.82C1867.7 2049.11 1867.68 2049.4 1867.67 2049.7L1868.17 2049.72L1868.67 2049.75C1868.68 2049.46 1868.7 2049.17 1868.72 2048.88L1868.22 2048.85ZM1868.17 2049.72L1867.67 2049.7C1867.66 2049.86 1867.65 2050.03 1867.64 2050.2L1868.14 2050.22L1868.64 2050.24C1868.65 2050.08 1868.66 2049.91 1868.67 2049.75L1868.17 2049.72ZM1868.14 2050.22L1867.64 2050.2C1867.63 2050.51 1867.61 2050.82 1867.6 2051.13L1868.1 2051.15L1868.6 2051.17C1868.61 2050.86 1868.63 2050.55 1868.64 2050.24L1868.14 2050.22ZM1868.1 2051.15L1867.6 2051.13C1867.59 2051.31 1867.59 2051.49 1867.58 2051.67L1868.08 2051.69L1868.58 2051.71C1868.59 2051.53 1868.59 2051.35 1868.6 2051.17L1868.1 2051.15ZM1868.08 2051.69L1867.58 2051.67C1867.57 2052 1867.56 2052.33 1867.55 2052.66L1868.05 2052.68L1868.55 2052.69C1868.56 2052.36 1868.57 2052.03 1868.58 2051.71L1868.08 2051.69ZM1868.05 2052.68L1867.55 2052.66C1867.54 2052.8 1867.54 2052.94 1867.54 2053.08L1868.04 2053.09L1868.54 2053.11C1868.54 2052.97 1868.54 2052.83 1868.55 2052.69L1868.05 2052.68ZM1868.04 2053.09L1867.54 2053.08C1867.53 2053.48 1867.52 2053.89 1867.51 2054.29L1868.01 2054.3L1868.51 2054.3C1868.52 2053.9 1868.53 2053.5 1868.54 2053.11L1868.04 2053.09ZM1868.01 2054.3L1867.51 2054.29C1867.51 2054.36 1867.51 2054.45 1867.51 2054.53L1868.01 2054.53L1868.51 2054.54C1868.51 2054.46 1868.51 2054.39 1868.51 2054.3L1868.01 2054.3ZM1868.01 2054.53L1867.51 2054.53C1867.5 2055.02 1867.5 2055.51 1867.5 2056L1868 2056L1868.5 2056C1868.5 2055.51 1868.5 2055.02 1868.51 2054.54L1868.01 2054.53ZM1868 2056L1867.5 2056C1867.5 2056.49 1867.5 2056.98 1867.51 2057.47L1868.01 2057.46L1868.51 2057.46C1868.5 2056.97 1868.5 2056.49 1868.5 2056L1868 2056ZM1868.01 2057.46L1867.51 2057.47C1867.51 2057.53 1867.51 2057.67 1867.51 2057.72L1868.01 2057.71L1868.51 2057.7C1868.51 2057.59 1868.51 2057.56 1868.51 2057.46L1868.01 2057.46ZM1868.01 2057.71L1867.51 2057.72C1867.52 2058.12 1867.53 2058.52 1867.54 2058.91L1868.04 2058.9L1868.54 2058.89C1868.53 2058.5 1868.52 2058.1 1868.51 2057.7L1868.01 2057.71ZM1868.04 2058.9L1867.54 2058.91C1867.54 2059.06 1867.54 2059.2 1867.55 2059.34L1868.05 2059.33L1868.55 2059.31C1868.54 2059.17 1868.54 2059.03 1868.54 2058.89L1868.04 2058.9ZM1868.05 2059.33L1867.55 2059.34C1867.56 2059.67 1867.57 2060 1867.58 2060.32L1868.08 2060.31L1868.58 2060.29C1868.57 2059.96 1868.56 2059.64 1868.55 2059.31L1868.05 2059.33ZM1868.08 2060.31L1867.58 2060.32C1867.59 2060.51 1867.59 2060.69 1867.6 2060.87L1868.1 2060.85L1868.6 2060.83C1868.59 2060.65 1868.59 2060.47 1868.58 2060.29L1868.08 2060.31ZM1868.1 2060.85L1867.6 2060.87C1867.61 2061.18 1867.63 2061.49 1867.64 2061.79L1868.14 2061.77L1868.64 2061.75C1868.63 2061.44 1868.61 2061.14 1868.6 2060.83L1868.1 2060.85ZM1868.14 2061.77L1867.64 2061.79C1867.65 2061.97 1867.66 2062.14 1867.67 2062.31L1868.17 2062.28L1868.67 2062.26C1868.66 2062.08 1868.65 2061.92 1868.64 2061.75L1868.14 2061.77ZM1868.17 2062.28L1867.67 2062.31C1867.68 2062.6 1867.7 2062.89 1867.72 2063.17L1868.22 2063.14L1868.72 2063.11C1868.7 2062.83 1868.68 2062.54 1868.67 2062.26L1868.17 2062.28ZM1868.22 2063.14L1867.72 2063.17C1867.73 2063.38 1867.74 2063.59 1867.76 2063.79L1868.26 2063.76L1868.76 2063.73C1868.74 2063.52 1868.73 2063.32 1868.72 2063.11L1868.22 2063.14ZM1868.26 2063.76L1867.76 2063.79C1867.78 2064.06 1867.79 2064.33 1867.81 2064.59L1868.31 2064.56L1868.81 2064.52C1868.79 2064.26 1868.77 2063.99 1868.76 2063.73L1868.26 2063.76ZM1868.31 2064.56L1867.81 2064.59C1867.83 2064.81 1867.85 2065.02 1867.86 2065.24L1868.36 2065.2L1868.86 2065.16C1868.84 2064.95 1868.83 2064.73 1868.81 2064.52L1868.31 2064.56ZM1868.36 2065.2L1867.86 2065.24C1867.88 2065.47 1867.9 2065.71 1867.92 2065.94L1868.42 2065.9L1868.92 2065.86C1868.9 2065.62 1868.88 2065.39 1868.86 2065.16L1868.36 2065.2ZM1868.42 2065.9L1867.92 2065.94C1867.94 2066.2 1867.96 2066.45 1867.99 2066.71L1868.48 2066.66L1868.98 2066.62C1868.96 2066.37 1868.94 2066.11 1868.92 2065.86L1868.42 2065.9ZM1868.48 2066.66L1867.99 2066.71C1868 2066.9 1868.02 2067.08 1868.04 2067.27L1868.54 2067.22L1869.03 2067.17C1869.02 2066.99 1869 2066.8 1868.98 2066.62L1868.48 2066.66ZM1868.54 2067.22L1868.04 2067.27C1868.07 2067.54 1868.09 2067.82 1868.12 2068.09L1868.62 2068.04L1869.12 2067.99C1869.09 2067.72 1869.06 2067.45 1869.03 2067.17L1868.54 2067.22ZM1868.62 2068.04L1868.12 2068.09C1868.15 2068.4 1868.19 2068.7 1868.22 2069L1868.72 2068.95L1869.21 2068.89C1869.18 2068.59 1869.15 2068.29 1869.12 2067.99L1868.62 2068.04ZM1868.72 2068.95L1868.22 2069C1868.23 2069.14 1868.25 2069.28 1868.26 2069.42L1868.76 2069.36L1869.26 2069.3C1869.24 2069.17 1869.23 2069.03 1869.21 2068.89L1868.72 2068.95ZM1868.76 2069.36L1868.26 2069.42C1868.3 2069.7 1868.33 2069.98 1868.37 2070.25L1868.86 2070.19L1869.36 2070.13C1869.32 2069.85 1869.29 2069.58 1869.26 2069.3L1868.76 2069.36ZM1868.86 2070.19L1868.37 2070.25C1868.42 2070.71 1868.48 2071.17 1868.54 2071.63L1869.04 2071.56L1869.53 2071.5C1869.47 2071.04 1869.41 2070.59 1869.36 2070.13L1868.86 2070.19ZM1869.04 2071.56L1868.54 2071.63C1868.57 2071.82 1868.59 2072.03 1868.62 2072.22L1869.12 2072.15L1869.61 2072.08C1869.58 2071.89 1869.56 2071.7 1869.53 2071.5L1869.04 2071.56ZM1869.12 2072.15L1868.62 2072.22C1868.64 2072.38 1868.67 2072.54 1868.69 2072.7L1869.18 2072.63L1869.68 2072.55C1869.66 2072.39 1869.63 2072.24 1869.61 2072.08L1869.12 2072.15ZM1869.18 2072.63L1868.69 2072.7C1868.73 2073.02 1868.78 2073.34 1868.83 2073.66L1869.32 2073.58L1869.82 2073.51C1869.77 2073.19 1869.72 2072.87 1869.68 2072.55L1869.18 2072.63ZM1869.32 2073.58L1868.83 2073.66C1868.85 2073.79 1868.87 2073.94 1868.89 2074.07L1869.39 2073.99L1869.88 2073.92C1869.86 2073.78 1869.84 2073.64 1869.82 2073.51L1869.32 2073.58ZM1869.39 2073.99L1868.89 2074.07C1868.94 2074.38 1868.99 2074.69 1869.04 2075.01L1869.54 2074.92L1870.03 2074.84C1869.98 2074.54 1869.93 2074.23 1869.88 2073.92L1869.39 2073.99ZM1869.54 2074.92L1869.04 2075.01C1869.08 2075.23 1869.12 2075.46 1869.16 2075.68L1869.65 2075.6L1870.14 2075.51C1870.11 2075.29 1870.07 2075.07 1870.03 2074.84L1869.54 2074.92ZM1869.65 2075.6L1869.16 2075.68C1869.19 2075.89 1869.23 2076.1 1869.27 2076.31L1869.76 2076.23L1870.25 2076.14C1870.21 2075.93 1870.18 2075.72 1870.14 2075.51L1869.65 2075.6ZM1869.76 2076.23L1869.27 2076.31C1869.31 2076.56 1869.35 2076.8 1869.4 2077.05L1869.89 2076.96L1870.38 2076.87C1870.34 2076.63 1870.29 2076.38 1870.25 2076.14L1869.76 2076.23ZM1869.89 2076.96L1869.4 2077.05C1869.44 2077.28 1869.48 2077.51 1869.53 2077.74L1870.02 2077.65L1870.51 2077.55C1870.47 2077.33 1870.42 2077.1 1870.38 2076.87L1869.89 2076.96ZM1870.02 2077.65L1869.53 2077.74C1869.57 2077.95 1869.61 2078.16 1869.65 2078.37L1870.14 2078.27L1870.63 2078.18C1870.59 2077.97 1870.55 2077.76 1870.51 2077.55L1870.02 2077.65ZM1870.14 2078.27L1869.65 2078.37C1869.7 2078.63 1869.75 2078.89 1869.8 2079.14L1870.29 2079.04L1870.78 2078.95C1870.73 2078.69 1870.68 2078.43 1870.63 2078.18L1870.14 2078.27ZM1870.29 2079.04L1869.8 2079.14C1869.84 2079.34 1869.88 2079.53 1869.92 2079.72L1870.41 2079.62L1870.9 2079.52C1870.86 2079.33 1870.82 2079.14 1870.78 2078.95L1870.29 2079.04ZM1870.41 2079.62L1869.92 2079.72C1869.97 2079.99 1870.03 2080.26 1870.09 2080.54L1870.58 2080.43L1871.07 2080.33C1871.01 2080.06 1870.95 2079.79 1870.9 2079.52L1870.41 2079.62ZM1870.58 2080.43L1870.09 2080.54C1870.13 2080.72 1870.17 2080.91 1870.21 2081.09L1870.7 2080.98L1871.19 2080.88C1871.15 2080.69 1871.11 2080.51 1871.07 2080.33L1870.58 2080.43ZM1870.7 2080.98L1870.21 2081.09C1870.27 2081.35 1870.32 2081.61 1870.38 2081.86L1870.87 2081.75L1871.36 2081.64C1871.3 2081.39 1871.24 2081.13 1871.19 2080.88L1870.7 2080.98ZM1870.87 2081.75L1870.38 2081.86C1870.43 2082.06 1870.47 2082.26 1870.52 2082.46L1871.01 2082.35L1871.49 2082.24C1871.45 2082.04 1871.4 2081.84 1871.36 2081.64L1870.87 2081.75ZM1871.01 2082.35L1870.52 2082.46C1870.58 2082.72 1870.64 2082.97 1870.7 2083.22L1871.19 2083.11L1871.67 2082.99C1871.61 2082.74 1871.55 2082.49 1871.49 2082.24L1871.01 2082.35ZM1871.19 2083.11L1870.7 2083.22C1870.74 2083.41 1870.79 2083.61 1870.84 2083.8L1871.32 2083.68L1871.81 2083.56C1871.76 2083.37 1871.72 2083.19 1871.67 2082.99L1871.19 2083.11ZM1871.32 2083.68L1870.84 2083.8C1871.03 2084.59 1871.23 2085.38 1871.44 2086.16L1871.93 2086.03L1872.41 2085.9C1872.2 2085.12 1872 2084.34 1871.81 2083.56L1871.32 2083.68ZM1871.93 2086.03L1871.8 2085.55L1825.42 2097.97L1825.55 2098.46L1825.68 2098.94L1872.06 2086.51L1871.93 2086.03ZM1825.55 2098.46L1826.03 2098.33C1822.43 2084.83 1820.5 2070.64 1820.5 2056L1820 2056L1819.5 2056C1819.5 2070.73 1821.44 2085 1825.07 2098.59L1825.55 2098.46Z" fill="#9CC1F5" id="n824"/>
<rect x="2148" y="2052" width="8" height="48" rx="4" transform="rotate(90 2148 2052)" fill="#2D548B" stroke="#9CC1F5" id="n825"/>
<rect x="1868" y="2052" width="8" height="48" rx="4" transform="rotate(90 1868 2052)" fill="#2D548B" stroke="#9CC1F5" id="n826"/>
<path d="M1968.09 2060H1964.01V2044.56C1964.01 2044.04 1964.01 2043.53 1964.01 2043.03C1964.03 2042.51 1964.06 2042 1964.08 2041.5C1964.1 2040.98 1964.12 2040.5 1964.15 2040.04C1963.92 2040.29 1963.64 2040.57 1963.3 2040.89C1962.96 2041.19 1962.6 2041.49 1962.24 2041.81L1959.52 2043.99L1957.48 2041.4L1964.72 2035.72H1968.09V2060ZM1991.98 2060H1975.45V2056.94L1981.68 2050.65C1982.9 2049.4 1983.9 2048.34 1984.67 2047.45C1985.46 2046.55 1986.05 2045.7 1986.44 2044.9C1986.82 2044.11 1987.01 2043.24 1987.01 2042.29C1987.01 2041.15 1986.68 2040.3 1986.03 2039.74C1985.37 2039.15 1984.51 2038.85 1983.44 2038.85C1982.38 2038.85 1981.4 2039.07 1980.52 2039.5C1979.64 2039.91 1978.72 2040.48 1977.77 2041.23L1975.56 2038.55C1976.21 2037.98 1976.93 2037.46 1977.7 2036.98C1978.47 2036.51 1979.33 2036.12 1980.28 2035.83C1981.26 2035.53 1982.37 2035.38 1983.61 2035.38C1985.18 2035.38 1986.51 2035.67 1987.63 2036.23C1988.76 2036.78 1989.63 2037.54 1990.24 2038.51C1990.86 2039.49 1991.16 2040.62 1991.16 2041.91C1991.16 2042.89 1991 2043.8 1990.69 2044.67C1990.39 2045.53 1989.96 2046.37 1989.39 2047.18C1988.85 2047.98 1988.17 2048.8 1987.35 2049.66C1986.54 2050.5 1985.63 2051.4 1984.63 2052.35L1980.59 2056.26V2056.43H1991.98V2060ZM2009.98 2041.27C2009.98 2042.38 2009.77 2043.34 2009.34 2044.16C2008.91 2044.95 2008.3 2045.61 2007.53 2046.13C2006.76 2046.63 2005.87 2046.99 2004.85 2047.22V2047.32C2006.8 2047.54 2008.26 2048.15 2009.23 2049.12C2010.23 2050.09 2010.73 2051.39 2010.73 2053C2010.73 2054.4 2010.39 2055.66 2009.71 2056.77C2009.03 2057.88 2007.99 2058.75 2006.58 2059.39C2005.18 2060.02 2003.37 2060.34 2001.18 2060.34C1999.86 2060.34 1998.64 2060.23 1997.5 2060C1996.39 2059.8 1995.33 2059.47 1994.31 2059.01V2055.41C1995.35 2055.91 1996.45 2056.31 1997.61 2056.6C1998.76 2056.87 1999.86 2057.01 2000.9 2057.01C2002.9 2057.01 2004.32 2056.65 2005.15 2055.92C2005.99 2055.17 2006.41 2054.14 2006.41 2052.83C2006.41 2051.99 2006.2 2051.3 2005.77 2050.75C2005.34 2050.21 2004.66 2049.81 2003.73 2049.56C2002.8 2049.29 2001.6 2049.15 2000.12 2049.15H1998.05V2045.86H2000.16C2001.58 2045.86 2002.71 2045.7 2003.52 2045.38C2004.36 2045.04 2004.96 2044.58 2005.32 2043.99C2005.71 2043.4 2005.9 2042.72 2005.9 2041.95C2005.9 2040.95 2005.57 2040.17 2004.92 2039.6C2004.26 2039.03 2003.28 2038.75 2001.99 2038.75C2001.18 2038.75 2000.43 2038.84 1999.75 2039.02C1999.09 2039.2 1998.48 2039.44 1997.91 2039.74C1997.37 2040.03 1996.85 2040.34 1996.35 2040.65L1994.41 2037.83C1995.02 2037.38 1995.71 2036.97 1996.48 2036.61C1997.25 2036.22 1998.1 2035.93 1999.03 2035.72C1999.99 2035.5 2001.03 2035.38 2002.16 2035.38C2004.68 2035.38 2006.6 2035.92 2007.94 2036.98C2009.3 2038.05 2009.98 2039.48 2009.98 2041.27Z" fill="#2D548B" id="n827"/>
<g clip-path="url(#clip14_68_6728)" id="n828">
<path d="M1959.48 2069.79C1960.55 2069.79 1961.32 2070.01 1961.81 2070.46C1962.3 2070.89 1962.54 2071.5 1962.54 2072.28C1962.54 2072.63 1962.49 2072.96 1962.38 2073.28C1962.28 2073.6 1962.1 2073.88 1961.84 2074.14C1961.59 2074.39 1961.26 2074.59 1960.84 2074.73C1960.43 2074.88 1959.92 2074.95 1959.31 2074.95H1958.47V2078H1957.07V2069.79H1959.48ZM1959.39 2070.96H1958.47V2073.78H1959.17C1959.6 2073.78 1959.95 2073.73 1960.23 2073.64C1960.52 2073.54 1960.74 2073.38 1960.89 2073.17C1961.04 2072.96 1961.12 2072.68 1961.12 2072.33C1961.12 2071.87 1960.98 2071.53 1960.69 2071.31C1960.42 2071.08 1959.98 2070.96 1959.39 2070.96ZM1965.41 2071.78V2078H1964.03V2071.78H1965.41ZM1964.73 2069.39C1964.94 2069.39 1965.12 2069.44 1965.27 2069.56C1965.42 2069.67 1965.5 2069.86 1965.5 2070.13C1965.5 2070.4 1965.42 2070.59 1965.27 2070.71C1965.12 2070.82 1964.94 2070.88 1964.73 2070.88C1964.52 2070.88 1964.33 2070.82 1964.18 2070.71C1964.03 2070.59 1963.96 2070.4 1963.96 2070.13C1963.96 2069.86 1964.03 2069.67 1964.18 2069.56C1964.33 2069.44 1964.52 2069.39 1964.73 2069.39ZM1969.65 2077C1969.83 2077 1970 2076.98 1970.17 2076.95C1970.34 2076.92 1970.49 2076.88 1970.63 2076.84V2077.87C1970.49 2077.94 1970.3 2078 1970.06 2078.05C1969.82 2078.09 1969.57 2078.12 1969.31 2078.12C1968.96 2078.12 1968.65 2078.06 1968.37 2077.94C1968.08 2077.82 1967.85 2077.62 1967.68 2077.33C1967.51 2077.04 1967.42 2076.64 1967.42 2076.11V2072.82H1966.58V2072.22L1967.49 2071.72L1967.94 2070.4H1968.8V2071.78H1970.57V2072.82H1968.8V2076.1C1968.8 2076.41 1968.88 2076.64 1969.03 2076.78C1969.19 2076.93 1969.4 2077 1969.65 2077ZM1974.4 2078.12C1973.82 2078.12 1973.31 2078 1972.87 2077.78C1972.44 2077.55 1972.11 2077.2 1971.87 2076.73C1971.64 2076.26 1971.52 2075.65 1971.52 2074.92C1971.52 2074.16 1971.65 2073.54 1971.9 2073.07C1972.16 2072.58 1972.52 2072.23 1972.96 2072.01C1973.41 2071.78 1973.93 2071.66 1974.51 2071.66C1974.89 2071.66 1975.23 2071.7 1975.52 2071.78C1975.83 2071.85 1976.09 2071.94 1976.31 2072.04L1975.89 2073.14C1975.66 2073.04 1975.43 2072.97 1975.19 2072.91C1974.95 2072.84 1974.72 2072.8 1974.5 2072.8C1974.15 2072.8 1973.85 2072.88 1973.62 2073.04C1973.39 2073.2 1973.21 2073.44 1973.1 2073.76C1972.99 2074.06 1972.94 2074.45 1972.94 2074.91C1972.94 2075.36 1972.99 2075.74 1973.11 2076.04C1973.22 2076.35 1973.4 2076.58 1973.63 2076.73C1973.86 2076.89 1974.14 2076.96 1974.47 2076.96C1974.82 2076.96 1975.13 2076.93 1975.4 2076.85C1975.67 2076.77 1975.92 2076.65 1976.16 2076.52V2077.71C1975.92 2077.85 1975.67 2077.95 1975.4 2078.01C1975.13 2078.08 1974.8 2078.12 1974.4 2078.12ZM1978.99 2071.41C1978.99 2071.64 1978.98 2071.87 1978.96 2072.09C1978.95 2072.31 1978.93 2072.48 1978.92 2072.61H1979C1979.14 2072.39 1979.3 2072.22 1979.49 2072.08C1979.68 2071.94 1979.9 2071.84 1980.13 2071.77C1980.36 2071.7 1980.61 2071.66 1980.87 2071.66C1981.34 2071.66 1981.74 2071.74 1982.08 2071.9C1982.42 2072.07 1982.67 2072.32 1982.85 2072.65C1983.03 2072.98 1983.13 2073.41 1983.13 2073.94V2078H1981.75V2074.2C1981.75 2073.72 1981.65 2073.37 1981.46 2073.14C1981.27 2072.9 1980.97 2072.78 1980.56 2072.78C1980.16 2072.78 1979.85 2072.86 1979.62 2073.03C1979.4 2073.2 1979.24 2073.45 1979.14 2073.77C1979.04 2074.08 1978.99 2074.47 1978.99 2074.94V2078H1977.61V2069.26H1978.99V2071.41Z" fill="#535353" id="n829"/>
</g>
<g clip-path="url(#clip15_68_6728)" id="n830">
<path d="M1996.62 2073.81C1996.62 2074.73 1996.46 2075.5 1996.12 2076.13C1995.78 2076.75 1995.29 2077.21 1994.66 2077.53C1994.02 2077.84 1993.25 2078 1992.34 2078H1990.13V2069.79H1992.58C1993.42 2069.79 1994.14 2069.94 1994.74 2070.25C1995.34 2070.56 1995.81 2071.01 1996.13 2071.61C1996.46 2072.2 1996.62 2072.93 1996.62 2073.81ZM1995.65 2073.85C1995.65 2073.1 1995.52 2072.5 1995.28 2072.02C1995.03 2071.54 1994.67 2071.18 1994.19 2070.94C1993.71 2070.7 1993.13 2070.58 1992.44 2070.58H1991.05V2077.21H1992.22C1993.36 2077.21 1994.22 2076.93 1994.78 2076.37C1995.36 2075.8 1995.65 2074.96 1995.65 2073.85ZM2003.01 2078H1998.45V2069.79H2003.01V2070.61H1999.37V2073.3H2002.8V2074.1H1999.37V2077.18H2003.01V2078ZM2008.31 2073.71H2011.2V2077.68C2010.76 2077.82 2010.32 2077.93 2009.86 2078C2009.42 2078.08 2008.92 2078.12 2008.36 2078.12C2007.51 2078.12 2006.79 2077.95 2006.2 2077.61C2005.61 2077.27 2005.17 2076.79 2004.86 2076.16C2004.56 2075.52 2004.4 2074.77 2004.4 2073.89C2004.4 2073.04 2004.57 2072.3 2004.91 2071.67C2005.25 2071.05 2005.73 2070.56 2006.36 2070.2C2006.99 2069.85 2007.76 2069.67 2008.65 2069.67C2009.1 2069.67 2009.53 2069.72 2009.93 2069.8C2010.35 2069.88 2010.73 2070 2011.08 2070.16L2010.73 2070.96C2010.42 2070.82 2010.08 2070.71 2009.72 2070.63C2009.35 2070.54 2008.98 2070.49 2008.6 2070.49C2007.93 2070.49 2007.35 2070.63 2006.86 2070.92C2006.38 2071.19 2006.01 2071.59 2005.75 2072.1C2005.49 2072.61 2005.37 2073.2 2005.37 2073.89C2005.37 2074.59 2005.48 2075.2 2005.7 2075.71C2005.93 2076.22 2006.28 2076.61 2006.75 2076.9C2007.22 2077.17 2007.83 2077.31 2008.57 2077.31C2008.82 2077.31 2009.04 2077.3 2009.24 2077.29C2009.44 2077.26 2009.63 2077.23 2009.8 2077.19C2009.96 2077.16 2010.12 2077.12 2010.27 2077.08V2074.54H2008.31V2073.71Z" fill="#535353" id="n831"/>
</g>
</g>
</svg>
