<?xml version='1.0' encoding='utf-8'?>
<svg xmlns="http://www.w3.org/2000/svg" xmlns:xlink="http://www.w3.org/1999/xlink" width="384.0" height="384.0" viewBox="0 0 384.0 384.0" fill="none">
  <defs><clipPath id="clip__asset"><rect x="0" y="0" width="384.0" height="384.0"/></clipPath><mask id="mask70_68_6728" style="mask-type:luminance" maskUnits="userSpaceOnUse" x="1296" y="935" width="512" height="513">
<path d="M1740 1192C1740 1142.96 1721.23 1098.31 1690.47 1064.84C1687.48 1061.58 1682.4 1061.6 1679.28 1064.72L1667.97 1076.03C1697.64 1105.71 1716 1146.71 1716 1192C1716 1237.29 1697.64 1278.29 1667.97 1307.96L1679.28 1319.28C1682.4 1322.4 1687.48 1322.41 1690.47 1319.16C1721.22 1285.69 1740 1241.04 1740 1192Z" fill="white" id="n702"/>
<path d="M1740 1192L1740.5 1192V1192L1740 1192ZM1690.47 1064.84L1690.84 1064.5V1064.5L1690.47 1064.84ZM1679.28 1064.72L1678.93 1064.37L1678.93 1064.37L1679.28 1064.72ZM1667.97 1076.03L1667.61 1076.39L1667.26 1076.03L1667.61 1075.68L1667.97 1076.03ZM1716 1192L1716.5 1192V1192L1716 1192ZM1667.97 1307.96L1667.61 1308.32L1667.26 1307.96L1667.61 1307.61L1667.97 1307.96ZM1679.28 1319.28L1678.93 1319.63L1678.93 1319.63L1679.28 1319.28ZM1690.47 1319.16L1690.84 1319.5L1690.84 1319.5L1690.47 1319.16ZM1740 1192L1739.5 1192C1739.5 1143.09 1720.78 1098.56 1690.1 1065.18L1690.47 1064.84L1690.84 1064.5C1721.68 1098.06 1740.5 1142.83 1740.5 1192L1740 1192ZM1690.47 1064.84L1690.1 1065.18C1687.32 1062.14 1682.57 1062.14 1679.63 1065.07L1679.28 1064.72L1678.93 1064.37C1682.24 1061.05 1687.65 1061.03 1690.84 1064.5L1690.47 1064.84ZM1679.28 1064.72L1679.63 1065.07L1668.32 1076.39L1667.97 1076.03L1667.61 1075.68L1678.93 1064.37L1679.28 1064.72ZM1667.97 1076.03L1668.32 1075.68C1698.09 1105.45 1716.5 1146.57 1716.5 1192L1716 1192L1715.5 1192C1715.5 1146.85 1697.2 1105.98 1667.61 1076.39L1667.97 1076.03ZM1716 1192L1716.5 1192C1716.5 1237.42 1698.09 1278.55 1668.32 1308.32L1667.97 1307.96L1667.61 1307.61C1697.2 1278.02 1715.5 1237.15 1715.5 1192L1716 1192ZM1667.97 1307.96L1668.32 1307.61L1679.63 1318.92L1679.28 1319.28L1678.93 1319.63L1667.61 1308.32L1667.97 1307.96ZM1679.28 1319.28L1679.63 1318.92C1682.57 1321.86 1687.32 1321.86 1690.1 1318.82L1690.47 1319.16L1690.84 1319.5C1687.65 1322.97 1682.24 1322.95 1678.93 1319.63L1679.28 1319.28ZM1690.47 1319.16L1690.1 1318.82C1720.78 1285.44 1739.5 1240.91 1739.5 1192L1740 1192L1740.5 1192C1740.5 1241.17 1721.67 1285.94 1690.84 1319.5L1690.47 1319.16Z" fill="black" id="n703"/>
<path d="M1364 1192C1364 1241.04 1382.77 1285.69 1413.53 1319.16C1416.52 1322.41 1421.6 1322.4 1424.72 1319.28L1436.03 1307.96C1406.36 1278.29 1388 1237.29 1388 1192C1388 1146.71 1406.36 1105.71 1436.03 1076.03L1424.72 1064.72C1421.6 1061.6 1416.52 1061.58 1413.53 1064.84C1382.78 1098.31 1364 1142.96 1364 1192Z" fill="white" id="n704"/>
<path d="M1364 1192L1363.5 1192V1192L1364 1192ZM1413.53 1319.16L1413.16 1319.5V1319.5L1413.53 1319.16ZM1424.72 1319.28L1425.07 1319.63L1425.07 1319.63L1424.72 1319.28ZM1436.03 1307.96L1436.39 1307.61L1436.74 1307.96L1436.39 1308.32L1436.03 1307.96ZM1388 1192L1387.5 1192V1192L1388 1192ZM1436.03 1076.03L1436.39 1075.68L1436.74 1076.03L1436.39 1076.39L1436.03 1076.03ZM1424.72 1064.72L1425.07 1064.37L1425.07 1064.37L1424.72 1064.72ZM1413.53 1064.84L1413.16 1064.5L1413.16 1064.5L1413.53 1064.84ZM1364 1192L1364.5 1192C1364.5 1240.91 1383.22 1285.44 1413.9 1318.82L1413.53 1319.16L1413.16 1319.5C1382.32 1285.94 1363.5 1241.17 1363.5 1192L1364 1192ZM1413.53 1319.16L1413.9 1318.82C1416.68 1321.86 1421.43 1321.86 1424.37 1318.92L1424.72 1319.28L1425.07 1319.63C1421.76 1322.95 1416.35 1322.97 1413.16 1319.5L1413.53 1319.16ZM1424.72 1319.28L1424.37 1318.92L1435.68 1307.61L1436.03 1307.96L1436.39 1308.32L1425.07 1319.63L1424.72 1319.28ZM1436.03 1307.96L1435.68 1308.32C1405.91 1278.55 1387.5 1237.42 1387.5 1192L1388 1192L1388.5 1192C1388.5 1237.15 1406.8 1278.02 1436.39 1307.61L1436.03 1307.96ZM1388 1192L1387.5 1192C1387.5 1146.57 1405.91 1105.45 1435.68 1075.68L1436.03 1076.03L1436.39 1076.39C1406.8 1105.97 1388.5 1146.85 1388.5 1192L1388 1192ZM1436.03 1076.03L1435.68 1076.39L1424.37 1065.07L1424.72 1064.72L1425.07 1064.37L1436.39 1075.68L1436.03 1076.03ZM1424.72 1064.72L1424.37 1065.07C1421.43 1062.14 1416.68 1062.14 1413.9 1065.18L1413.53 1064.84L1413.16 1064.5C1416.35 1061.03 1421.76 1061.05 1425.07 1064.37L1424.72 1064.72ZM1413.53 1064.84L1413.9 1065.18C1383.22 1098.56 1364.5 1143.09 1364.5 1192L1364 1192L1363.5 1192C1363.5 1142.83 1382.33 1098.06 1413.16 1064.5L1413.53 1064.84Z" fill="black" id="n705"/>
</mask>
<mask id="mask71_68_6728" style="mask-type:alpha" maskUnits="userSpaceOnUse" x="1296" y="935" width="512" height="513">
<path d="M1552 1016C1649.2 1016 1728 1094.8 1728 1192C1728 1289.2 1649.2 1368 1552 1368C1454.8 1368 1376 1289.2 1376 1192C1376 1094.8 1454.8 1016 1552 1016ZM1552 1024C1459.22 1024 1384 1099.22 1384 1192C1384 1284.78 1459.22 1360 1552 1360C1644.78 1360 1720 1284.78 1720 1192C1720 1099.22 1644.78 1024 1552 1024Z" fill="black" id="n707"/>
</mask>
<mask id="mask72_68_6728" style="mask-type:alpha" maskUnits="userSpaceOnUse" x="1296" y="935" width="512" height="513">
<path d="M1552 999.999C1658.04 999.999 1744 1085.96 1744 1192C1744 1298.04 1658.04 1384 1552 1384C1445.96 1384 1360 1298.04 1360 1192C1360 1085.96 1445.96 999.999 1552 999.999ZM1552 1024C1459.22 1024 1384 1099.22 1384 1192C1384 1284.78 1459.22 1360 1552 1360C1644.78 1360 1720 1284.78 1720 1192C1720 1099.22 1644.78 1024 1552 1024Z" fill="black" id="n710"/>
</mask>
<mask id="mask73_68_6728" style="mask-type:alpha" maskUnits="userSpaceOnUse" x="1296" y="935" width="512" height="513">
<path d="M1552 999.999C1658.04 999.999 1744 1085.96 1744 1192C1744 1298.04 1658.04 1384 1552 1384C1445.96 1384 1360 1298.04 1360 1192C1360 1085.96 1445.96 999.999 1552 999.999ZM1552 1028C1461.43 1028 1388 1101.42 1388 1192C1388 1282.57 1461.43 1356 1552 1356C1642.57 1356 1716 1282.57 1716 1192C1716 1101.42 1642.57 1028 1552 1028Z" fill="black" id="n713"/>
</mask>
</defs>
  <g clip-path="url(#clip__asset)" transform="translate(-1360.0 -1000.0)"><path d="M1740 1192C1740 1241.04 1721.23 1285.69 1690.47 1319.16C1687.48 1322.41 1682.4 1322.4 1679.28 1319.28L1667.97 1307.96C1697.64 1278.29 1716 1237.29 1716 1192C1716 1146.71 1697.64 1105.71 1667.97 1076.03L1679.28 1064.72C1682.4 1061.6 1687.48 1061.59 1690.47 1064.84C1721.22 1098.31 1740 1142.96 1740 1192Z" fill="white" stroke="white" id="n694"/>
<path d="M1716 1192C1716 1237.29 1697.64 1278.29 1667.97 1307.96L1639.68 1279.68C1636.56 1276.56 1636.58 1271.51 1639.48 1268.18C1639.55 1268.1 1639.62 1268.02 1639.69 1267.94C1639.72 1267.91 1639.75 1267.87 1639.79 1267.83C1640.04 1267.54 1640.29 1267.25 1640.53 1266.95C1640.62 1266.85 1640.71 1266.75 1640.79 1266.65C1640.96 1266.45 1641.13 1266.24 1641.3 1266.04C1641.46 1265.85 1641.61 1265.66 1641.76 1265.48C1641.9 1265.31 1642.04 1265.14 1642.18 1264.97C1642.29 1264.84 1642.4 1264.7 1642.51 1264.56C1642.7 1264.32 1642.9 1264.07 1643.09 1263.83C1643.18 1263.72 1643.27 1263.6 1643.36 1263.49C1643.56 1263.23 1643.77 1262.96 1643.97 1262.7C1644.03 1262.62 1644.09 1262.54 1644.16 1262.46C1644.98 1261.38 1645.79 1260.28 1646.58 1259.18C1646.64 1259.09 1646.7 1259.01 1646.76 1258.93C1646.96 1258.64 1647.16 1258.36 1647.36 1258.07C1647.42 1257.98 1647.49 1257.88 1647.55 1257.79C1647.74 1257.51 1647.94 1257.23 1648.13 1256.95C1648.2 1256.84 1648.27 1256.73 1648.35 1256.62C1648.53 1256.35 1648.71 1256.07 1648.89 1255.8C1648.95 1255.71 1649.01 1255.62 1649.08 1255.52C1649.26 1255.24 1649.45 1254.95 1649.63 1254.67C1649.7 1254.57 1649.76 1254.47 1649.83 1254.37C1650.01 1254.08 1650.19 1253.8 1650.37 1253.51C1650.44 1253.39 1650.51 1253.28 1650.58 1253.16C1650.74 1252.91 1650.89 1252.66 1651.04 1252.42C1651.12 1252.29 1651.2 1252.16 1651.28 1252.04C1651.47 1251.71 1651.67 1251.38 1651.87 1251.05C1651.89 1251 1651.92 1250.96 1651.95 1250.91C1652.87 1249.35 1653.75 1247.77 1654.6 1246.17C1654.69 1246 1654.77 1245.84 1654.86 1245.68C1654.99 1245.42 1655.13 1245.16 1655.26 1244.9C1655.32 1244.79 1655.37 1244.69 1655.43 1244.58C1655.58 1244.28 1655.73 1243.97 1655.89 1243.67C1655.94 1243.56 1655.99 1243.45 1656.05 1243.34C1656.19 1243.06 1656.32 1242.78 1656.46 1242.5C1656.53 1242.35 1656.61 1242.19 1656.68 1242.04C1656.8 1241.79 1656.92 1241.54 1657.04 1241.29C1657.12 1241.11 1657.2 1240.93 1657.29 1240.75C1657.39 1240.53 1657.5 1240.3 1657.6 1240.07C1657.68 1239.91 1657.75 1239.74 1657.82 1239.58C1657.95 1239.29 1658.08 1239 1658.21 1238.72C1658.26 1238.59 1658.32 1238.47 1658.37 1238.34C1658.51 1238.02 1658.65 1237.7 1658.79 1237.37C1658.83 1237.28 1658.87 1237.19 1658.91 1237.1C1659.44 1235.84 1659.95 1234.56 1660.44 1233.28C1660.49 1233.14 1660.55 1232.99 1660.6 1232.85C1660.71 1232.57 1660.81 1232.3 1660.91 1232.02C1660.99 1231.82 1661.06 1231.61 1661.13 1231.41C1661.2 1231.21 1661.28 1231.01 1661.35 1230.82C1661.43 1230.58 1661.52 1230.34 1661.6 1230.09C1661.67 1229.89 1661.74 1229.68 1661.81 1229.47C1661.88 1229.27 1661.95 1229.06 1662.02 1228.86C1662.09 1228.64 1662.17 1228.42 1662.24 1228.2C1662.31 1227.99 1662.38 1227.77 1662.45 1227.56C1662.52 1227.33 1662.59 1227.11 1662.66 1226.88C1662.73 1226.67 1662.8 1226.46 1662.86 1226.25C1662.94 1226 1663.01 1225.76 1663.08 1225.51C1663.14 1225.34 1663.19 1225.16 1663.24 1224.99C1663.32 1224.72 1663.4 1224.46 1663.47 1224.2C1663.53 1224.01 1663.58 1223.82 1663.63 1223.63C1663.71 1223.37 1663.78 1223.11 1663.85 1222.85C1663.9 1222.68 1663.95 1222.5 1664 1222.32C1664.23 1221.45 1664.46 1220.57 1664.68 1219.68C1664.72 1219.49 1664.77 1219.3 1664.81 1219.11C1664.87 1218.86 1664.93 1218.6 1664.99 1218.35C1665.04 1218.15 1665.08 1217.95 1665.13 1217.75C1665.19 1217.49 1665.25 1217.24 1665.3 1216.98C1665.34 1216.81 1665.38 1216.63 1665.42 1216.46C1665.48 1216.17 1665.54 1215.89 1665.6 1215.6C1665.63 1215.42 1665.67 1215.24 1665.71 1215.06C1665.76 1214.8 1665.81 1214.54 1665.86 1214.28C1665.9 1214.07 1665.94 1213.86 1665.98 1213.65C1666.03 1213.42 1666.07 1213.18 1666.11 1212.95C1666.16 1212.72 1666.2 1212.48 1666.24 1212.25C1666.28 1212.02 1666.32 1211.79 1666.36 1211.57C1666.39 1211.35 1666.43 1211.14 1666.46 1210.93C1666.52 1210.61 1666.57 1210.28 1666.62 1209.96C1666.64 1209.84 1666.66 1209.72 1666.67 1209.6C1666.73 1209.25 1666.78 1208.9 1666.83 1208.55C1666.85 1208.42 1666.86 1208.29 1666.88 1208.17C1666.92 1207.92 1666.95 1207.67 1666.98 1207.42C1667.03 1207.04 1667.08 1206.65 1667.13 1206.27C1667.17 1205.96 1667.21 1205.66 1667.24 1205.35C1667.25 1205.25 1667.26 1205.14 1667.27 1205.04C1667.31 1204.7 1667.35 1204.37 1667.38 1204.03C1667.41 1203.77 1667.43 1203.51 1667.46 1203.25C1667.48 1203.05 1667.5 1202.85 1667.52 1202.65C1667.54 1202.41 1667.56 1202.16 1667.58 1201.92C1667.6 1201.68 1667.62 1201.43 1667.64 1201.19C1667.66 1200.98 1667.67 1200.78 1667.69 1200.57C1667.71 1200.3 1667.73 1200.02 1667.74 1199.75C1667.76 1199.55 1667.77 1199.35 1667.78 1199.15C1667.8 1198.86 1667.82 1198.57 1667.83 1198.27C1667.84 1198.11 1667.85 1197.94 1667.86 1197.78C1667.87 1197.47 1667.89 1197.16 1667.9 1196.85C1667.91 1196.67 1667.91 1196.49 1667.92 1196.31C1667.93 1195.98 1667.94 1195.65 1667.95 1195.32C1667.96 1195.18 1667.96 1195.04 1667.96 1194.91C1667.97 1194.5 1667.98 1194.1 1667.99 1193.7C1667.99 1193.62 1667.99 1193.54 1667.99 1193.47C1668 1192.98 1668 1192.49 1668 1192C1668 1191.51 1668 1191.02 1667.99 1190.54C1667.99 1190.45 1667.99 1190.37 1667.99 1190.29C1667.98 1189.89 1667.97 1189.49 1667.96 1189.1C1667.96 1188.95 1667.96 1188.81 1667.95 1188.67C1667.94 1188.34 1667.93 1188.02 1667.92 1187.69C1667.91 1187.51 1667.91 1187.33 1667.9 1187.15C1667.89 1186.84 1667.87 1186.53 1667.86 1186.23C1667.85 1186.06 1667.84 1185.89 1667.83 1185.71C1667.82 1185.43 1667.8 1185.14 1667.78 1184.86C1667.77 1184.65 1667.76 1184.44 1667.74 1184.24C1667.73 1183.97 1667.71 1183.71 1667.69 1183.44C1667.67 1183.23 1667.66 1183.01 1667.64 1182.8C1667.62 1182.56 1667.6 1182.33 1667.58 1182.1C1667.56 1181.84 1667.54 1181.59 1667.52 1181.33C1667.5 1181.15 1667.48 1180.96 1667.46 1180.78C1667.44 1180.5 1667.41 1180.23 1667.38 1179.96C1667.35 1179.65 1667.32 1179.35 1667.28 1179.05C1667.27 1178.91 1667.25 1178.78 1667.24 1178.64C1667.21 1178.36 1667.17 1178.08 1667.14 1177.81C1667.08 1177.35 1667.02 1176.89 1666.96 1176.43C1666.94 1176.24 1666.91 1176.04 1666.88 1175.85C1666.86 1175.69 1666.84 1175.53 1666.82 1175.37C1666.77 1175.05 1666.72 1174.74 1666.68 1174.42C1666.65 1174.28 1666.63 1174.14 1666.61 1174C1666.56 1173.69 1666.51 1173.38 1666.46 1173.07C1666.43 1172.85 1666.39 1172.62 1666.35 1172.4C1666.31 1172.19 1666.28 1171.98 1666.24 1171.77C1666.2 1171.53 1666.15 1171.28 1666.11 1171.04C1666.07 1170.81 1666.03 1170.58 1665.98 1170.35C1665.94 1170.14 1665.9 1169.93 1665.86 1169.72C1665.81 1169.47 1665.76 1169.21 1665.71 1168.95C1665.67 1168.76 1665.63 1168.57 1665.59 1168.38C1665.54 1168.11 1665.48 1167.84 1665.42 1167.57C1665.38 1167.38 1665.34 1167.2 1665.3 1167.02C1665.25 1166.76 1665.19 1166.5 1665.13 1166.25C1665.08 1166.05 1665.04 1165.85 1664.99 1165.65C1664.93 1165.4 1664.87 1165.14 1664.81 1164.89C1664.77 1164.7 1664.72 1164.51 1664.68 1164.32C1664.46 1163.44 1664.24 1162.57 1664 1161.7C1663.94 1161.48 1663.88 1161.27 1663.82 1161.05C1663.76 1160.82 1663.7 1160.6 1663.63 1160.37C1663.58 1160.18 1663.53 1159.99 1663.47 1159.8C1663.4 1159.54 1663.32 1159.28 1663.24 1159.02C1663.19 1158.82 1663.13 1158.63 1663.07 1158.43C1663 1158.22 1662.94 1158.01 1662.88 1157.8C1662.79 1157.52 1662.7 1157.24 1662.61 1156.96C1662.57 1156.83 1662.53 1156.69 1662.48 1156.55C1662.4 1156.29 1662.31 1156.03 1662.23 1155.76C1662.16 1155.56 1662.09 1155.35 1662.02 1155.14C1661.95 1154.94 1661.88 1154.73 1661.81 1154.53C1661.74 1154.32 1661.67 1154.11 1661.6 1153.9C1661.52 1153.66 1661.43 1153.42 1661.35 1153.18C1661.28 1152.99 1661.2 1152.79 1661.13 1152.59C1661.06 1152.39 1660.99 1152.18 1660.91 1151.98C1660.83 1151.76 1660.75 1151.54 1660.67 1151.33C1660.58 1151.1 1660.5 1150.87 1660.41 1150.64C1660.39 1150.58 1660.36 1150.52 1660.34 1150.45C1659.96 1149.48 1659.58 1148.52 1659.18 1147.56C1659.1 1147.35 1659.01 1147.14 1658.92 1146.94C1658.86 1146.8 1658.81 1146.67 1658.75 1146.54C1658.63 1146.25 1658.5 1145.96 1658.38 1145.67C1658.3 1145.49 1658.22 1145.32 1658.14 1145.14C1658.05 1144.93 1657.96 1144.72 1657.87 1144.51C1657.76 1144.28 1657.65 1144.04 1657.54 1143.81C1657.47 1143.65 1657.4 1143.49 1657.32 1143.33C1657.2 1143.06 1657.08 1142.8 1656.96 1142.54C1656.9 1142.41 1656.83 1142.28 1656.77 1142.15C1656.65 1141.89 1656.52 1141.63 1656.4 1141.38C1656.32 1141.2 1656.23 1141.03 1656.14 1140.86C1656.04 1140.65 1655.94 1140.44 1655.83 1140.23C1655.74 1140.03 1655.64 1139.84 1655.54 1139.65C1655.43 1139.44 1655.33 1139.22 1655.22 1139.01C1655.14 1138.86 1655.06 1138.7 1654.98 1138.55C1654.65 1137.91 1654.31 1137.28 1653.97 1136.65C1653.76 1136.27 1653.55 1135.89 1653.34 1135.51C1653.31 1135.46 1653.28 1135.41 1653.25 1135.36C1653.06 1135.02 1652.87 1134.68 1652.68 1134.34C1652.59 1134.19 1652.5 1134.04 1652.42 1133.89C1652.28 1133.65 1652.14 1133.41 1652 1133.17C1651.91 1133.02 1651.82 1132.87 1651.73 1132.71C1651.59 1132.49 1651.45 1132.26 1651.32 1132.03C1651.21 1131.86 1651.11 1131.69 1651 1131.52C1650.87 1131.31 1650.74 1131.1 1650.61 1130.89C1650.5 1130.71 1650.39 1130.53 1650.28 1130.35C1650.17 1130.17 1650.06 1130 1649.94 1129.82C1649.8 1129.6 1649.66 1129.38 1649.52 1129.16C1649.42 1129.01 1649.32 1128.86 1649.23 1128.71C1649.09 1128.5 1648.96 1128.3 1648.82 1128.09C1648.71 1127.92 1648.59 1127.74 1648.47 1127.57C1648.34 1127.37 1648.21 1127.17 1648.07 1126.97C1647.93 1126.76 1647.79 1126.56 1647.64 1126.35C1647.55 1126.2 1647.45 1126.06 1647.35 1125.92C1647.21 1125.72 1647.07 1125.52 1646.93 1125.31C1646.43 1124.61 1645.93 1123.91 1645.42 1123.22C1645.29 1123.04 1645.15 1122.86 1645.02 1122.68C1644.89 1122.51 1644.76 1122.34 1644.64 1122.18C1644.5 1121.99 1644.35 1121.8 1644.21 1121.61C1644.07 1121.43 1643.93 1121.25 1643.79 1121.07C1643.67 1120.91 1643.54 1120.75 1643.42 1120.59C1643.27 1120.4 1643.13 1120.22 1642.99 1120.04C1642.84 1119.86 1642.7 1119.68 1642.56 1119.5C1642.42 1119.33 1642.28 1119.16 1642.14 1118.99C1642.02 1118.83 1641.89 1118.68 1641.76 1118.52C1641.61 1118.34 1641.46 1118.15 1641.3 1117.96C1641.15 1117.78 1640.99 1117.59 1640.84 1117.41C1640.72 1117.27 1640.6 1117.13 1640.48 1116.99C1640.3 1116.77 1640.12 1116.56 1639.93 1116.34C1639.83 1116.23 1639.73 1116.11 1639.63 1115.99C1639.58 1115.93 1639.53 1115.88 1639.48 1115.82C1636.58 1112.49 1636.56 1107.44 1639.68 1104.32L1667.97 1076.03C1697.64 1105.71 1716 1146.71 1716 1192Z" fill="#F0F0F0" stroke="#F0F0F0" id="n695"/>
<path d="M1740 1192.5L1740.5 1192.5L1740.5 1191.5L1740 1191.5L1740 1192L1740 1192.5ZM1740 1192L1740 1191.5L1668 1191.5L1668 1192L1668 1192.5L1740 1192.5L1740 1192Z" fill="#BEBEBE" id="n696"/>
<path d="M1740 1192C1740 1241.03 1721.23 1285.69 1690.47 1319.16C1687.48 1322.41 1682.4 1322.4 1679.28 1319.28L1639.68 1279.68C1636.56 1276.55 1636.58 1271.51 1639.48 1268.18C1657.24 1247.8 1668 1221.15 1668 1192C1668 1162.84 1657.24 1136.2 1639.48 1115.82C1636.58 1112.49 1636.56 1107.44 1639.68 1104.32L1679.28 1064.72C1682.4 1061.59 1687.48 1061.58 1690.47 1064.84C1721.23 1098.31 1740 1142.96 1740 1192Z" stroke="#BEBEBE" id="n697"/>
<path d="M1364 1192C1364 1142.96 1382.77 1098.31 1413.53 1064.84C1416.52 1061.58 1421.6 1061.59 1424.72 1064.72L1436.03 1076.03C1406.36 1105.71 1388 1146.71 1388 1192C1388 1237.29 1406.36 1278.29 1436.03 1307.96L1424.72 1319.28C1421.6 1322.4 1416.52 1322.41 1413.53 1319.16C1382.78 1285.69 1364 1241.04 1364 1192Z" fill="white" stroke="white" id="n698"/>
<path d="M1388 1192C1388 1146.71 1406.36 1105.71 1436.03 1076.03L1464.32 1104.32C1467.44 1107.44 1467.42 1112.49 1464.52 1115.82C1464.45 1115.9 1464.38 1115.98 1464.31 1116.05C1464.28 1116.09 1464.25 1116.13 1464.21 1116.17C1463.96 1116.46 1463.71 1116.75 1463.47 1117.04C1463.38 1117.15 1463.29 1117.25 1463.21 1117.35C1463.04 1117.55 1462.87 1117.76 1462.7 1117.96C1462.54 1118.15 1462.39 1118.33 1462.24 1118.52C1462.1 1118.69 1461.96 1118.86 1461.82 1119.03C1461.71 1119.16 1461.6 1119.3 1461.49 1119.44C1461.3 1119.68 1461.1 1119.92 1460.91 1120.17C1460.82 1120.28 1460.73 1120.39 1460.64 1120.51C1460.44 1120.77 1460.23 1121.03 1460.03 1121.3C1459.97 1121.38 1459.91 1121.46 1459.84 1121.54C1459.02 1122.62 1458.21 1123.71 1457.42 1124.82C1457.36 1124.9 1457.3 1124.99 1457.24 1125.07C1457.04 1125.36 1456.84 1125.64 1456.64 1125.93C1456.58 1126.02 1456.51 1126.12 1456.45 1126.21C1456.26 1126.49 1456.06 1126.77 1455.87 1127.05C1455.8 1127.16 1455.73 1127.27 1455.65 1127.38C1455.47 1127.65 1455.29 1127.92 1455.11 1128.2C1455.05 1128.29 1454.99 1128.38 1454.92 1128.47C1454.74 1128.76 1454.55 1129.04 1454.37 1129.33C1454.3 1129.43 1454.24 1129.53 1454.17 1129.63C1453.99 1129.92 1453.81 1130.2 1453.63 1130.49C1453.56 1130.6 1453.49 1130.72 1453.42 1130.84C1453.26 1131.09 1453.11 1131.33 1452.96 1131.58C1452.88 1131.71 1452.8 1131.84 1452.72 1131.96C1452.53 1132.29 1452.33 1132.62 1452.13 1132.95C1452.11 1132.99 1452.08 1133.04 1452.05 1133.08C1451.13 1134.64 1450.25 1136.23 1449.4 1137.83C1449.31 1138 1449.23 1138.16 1449.14 1138.32C1449.01 1138.58 1448.87 1138.84 1448.74 1139.1C1448.68 1139.21 1448.63 1139.31 1448.57 1139.42C1448.42 1139.72 1448.27 1140.03 1448.11 1140.33C1448.06 1140.44 1448.01 1140.55 1447.95 1140.66C1447.81 1140.94 1447.68 1141.22 1447.54 1141.5C1447.47 1141.65 1447.39 1141.81 1447.32 1141.96C1447.2 1142.21 1447.08 1142.46 1446.96 1142.71C1446.88 1142.89 1446.8 1143.07 1446.71 1143.25C1446.61 1143.47 1446.5 1143.7 1446.4 1143.93C1446.32 1144.09 1446.25 1144.26 1446.18 1144.42C1446.05 1144.71 1445.92 1144.99 1445.79 1145.28C1445.74 1145.41 1445.68 1145.53 1445.63 1145.65C1445.49 1145.98 1445.35 1146.3 1445.21 1146.63C1445.17 1146.72 1445.13 1146.81 1445.09 1146.9C1444.56 1148.16 1444.05 1149.43 1443.56 1150.72C1443.51 1150.86 1443.45 1151 1443.4 1151.15C1443.29 1151.43 1443.19 1151.7 1443.09 1151.98C1443.01 1152.18 1442.94 1152.39 1442.87 1152.59C1442.8 1152.79 1442.72 1152.98 1442.65 1153.18C1442.57 1153.42 1442.48 1153.66 1442.4 1153.9C1442.33 1154.11 1442.26 1154.32 1442.19 1154.53C1442.12 1154.73 1442.05 1154.94 1441.98 1155.14C1441.91 1155.36 1441.83 1155.58 1441.76 1155.79C1441.69 1156.01 1441.62 1156.23 1441.55 1156.44C1441.48 1156.67 1441.41 1156.89 1441.34 1157.12C1441.27 1157.33 1441.2 1157.54 1441.14 1157.75C1441.06 1158 1440.99 1158.24 1440.92 1158.49C1440.86 1158.66 1440.81 1158.83 1440.76 1159.01C1440.68 1159.27 1440.6 1159.54 1440.53 1159.8C1440.47 1159.99 1440.42 1160.18 1440.37 1160.37C1440.29 1160.63 1440.22 1160.88 1440.15 1161.14C1440.1 1161.32 1440.05 1161.5 1440 1161.67C1439.77 1162.55 1439.54 1163.43 1439.32 1164.32C1439.28 1164.51 1439.23 1164.7 1439.19 1164.89C1439.13 1165.14 1439.07 1165.39 1439.01 1165.65C1438.96 1165.85 1438.92 1166.05 1438.87 1166.25C1438.81 1166.5 1438.75 1166.76 1438.7 1167.02C1438.66 1167.19 1438.62 1167.36 1438.58 1167.54C1438.52 1167.82 1438.46 1168.11 1438.4 1168.4C1438.37 1168.58 1438.33 1168.76 1438.29 1168.94C1438.24 1169.2 1438.19 1169.46 1438.14 1169.72C1438.1 1169.93 1438.06 1170.14 1438.02 1170.35C1437.97 1170.58 1437.93 1170.82 1437.89 1171.05C1437.84 1171.28 1437.8 1171.52 1437.76 1171.75C1437.72 1171.98 1437.68 1172.2 1437.64 1172.43C1437.61 1172.64 1437.57 1172.86 1437.54 1173.07C1437.48 1173.39 1437.43 1173.72 1437.38 1174.04C1437.36 1174.16 1437.34 1174.28 1437.33 1174.4C1437.27 1174.75 1437.22 1175.1 1437.17 1175.44C1437.15 1175.57 1437.14 1175.7 1437.12 1175.83C1437.08 1176.08 1437.05 1176.33 1437.02 1176.57C1436.97 1176.96 1436.92 1177.34 1436.87 1177.73C1436.83 1178.04 1436.79 1178.34 1436.76 1178.65C1436.75 1178.75 1436.74 1178.86 1436.73 1178.96C1436.69 1179.29 1436.65 1179.63 1436.62 1179.96C1436.59 1180.22 1436.57 1180.48 1436.54 1180.74C1436.52 1180.94 1436.5 1181.14 1436.48 1181.34C1436.46 1181.59 1436.44 1181.83 1436.42 1182.08C1436.4 1182.32 1436.38 1182.56 1436.36 1182.81C1436.34 1183.01 1436.33 1183.22 1436.31 1183.43C1436.29 1183.7 1436.27 1183.97 1436.26 1184.25C1436.24 1184.45 1436.23 1184.65 1436.22 1184.85C1436.2 1185.14 1436.18 1185.43 1436.17 1185.72C1436.16 1185.89 1436.15 1186.05 1436.14 1186.22C1436.13 1186.53 1436.11 1186.84 1436.1 1187.15C1436.09 1187.33 1436.09 1187.51 1436.08 1187.69C1436.07 1188.02 1436.06 1188.35 1436.05 1188.68C1436.04 1188.82 1436.04 1188.95 1436.04 1189.09C1436.03 1189.49 1436.02 1189.9 1436.01 1190.3C1436.01 1190.38 1436.01 1190.45 1436.01 1190.53C1436 1191.02 1436 1191.51 1436 1192C1436 1192.49 1436 1192.98 1436.01 1193.46C1436.01 1193.55 1436.01 1193.63 1436.01 1193.71C1436.02 1194.11 1436.03 1194.51 1436.04 1194.9C1436.04 1195.04 1436.04 1195.18 1436.05 1195.33C1436.06 1195.65 1436.07 1195.98 1436.08 1196.31C1436.09 1196.49 1436.09 1196.67 1436.1 1196.85C1436.11 1197.16 1436.13 1197.46 1436.14 1197.77C1436.15 1197.94 1436.16 1198.11 1436.17 1198.28C1436.18 1198.57 1436.2 1198.86 1436.22 1199.14C1436.23 1199.35 1436.24 1199.55 1436.26 1199.76C1436.27 1200.03 1436.29 1200.29 1436.31 1200.56C1436.33 1200.77 1436.34 1200.98 1436.36 1201.2C1436.38 1201.43 1436.4 1201.67 1436.42 1201.9C1436.44 1202.15 1436.46 1202.41 1436.48 1202.66C1436.5 1202.85 1436.52 1203.03 1436.54 1203.22C1436.56 1203.49 1436.59 1203.77 1436.62 1204.04C1436.65 1204.34 1436.68 1204.65 1436.72 1204.95C1436.73 1205.08 1436.75 1205.22 1436.76 1205.36C1436.79 1205.64 1436.83 1205.91 1436.86 1206.19C1436.92 1206.65 1436.98 1207.11 1437.04 1207.56C1437.06 1207.76 1437.09 1207.96 1437.12 1208.15C1437.14 1208.31 1437.16 1208.47 1437.18 1208.62C1437.23 1208.94 1437.28 1209.26 1437.32 1209.58C1437.35 1209.72 1437.37 1209.86 1437.39 1209.99C1437.44 1210.3 1437.49 1210.62 1437.54 1210.92C1437.57 1211.15 1437.61 1211.37 1437.65 1211.6C1437.69 1211.81 1437.72 1212.02 1437.76 1212.23C1437.8 1212.47 1437.85 1212.72 1437.89 1212.96C1437.93 1213.19 1437.97 1213.42 1438.02 1213.65C1438.06 1213.86 1438.1 1214.07 1438.14 1214.27C1438.19 1214.53 1438.24 1214.79 1438.29 1215.04C1438.33 1215.24 1438.37 1215.43 1438.41 1215.62C1438.46 1215.89 1438.52 1216.16 1438.58 1216.43C1438.62 1216.62 1438.66 1216.8 1438.7 1216.98C1438.75 1217.24 1438.81 1217.5 1438.87 1217.75C1438.92 1217.95 1438.96 1218.15 1439.01 1218.35C1439.07 1218.6 1439.13 1218.85 1439.19 1219.11C1439.23 1219.3 1439.28 1219.49 1439.32 1219.68C1439.54 1220.56 1439.76 1221.43 1440 1222.3C1440.06 1222.52 1440.12 1222.73 1440.18 1222.95C1440.24 1223.17 1440.3 1223.4 1440.37 1223.63C1440.42 1223.82 1440.47 1224.01 1440.53 1224.2C1440.6 1224.46 1440.68 1224.72 1440.76 1224.98C1440.81 1225.18 1440.87 1225.37 1440.93 1225.57C1441 1225.78 1441.06 1225.99 1441.12 1226.2C1441.21 1226.48 1441.3 1226.76 1441.39 1227.04C1441.43 1227.17 1441.47 1227.31 1441.52 1227.45C1441.6 1227.71 1441.69 1227.97 1441.77 1228.24C1441.84 1228.44 1441.91 1228.65 1441.98 1228.86C1442.05 1229.06 1442.12 1229.27 1442.19 1229.47C1442.26 1229.68 1442.33 1229.89 1442.4 1230.09C1442.48 1230.33 1442.57 1230.57 1442.65 1230.81C1442.72 1231.01 1442.8 1231.21 1442.87 1231.41C1442.94 1231.61 1443.01 1231.81 1443.09 1232.02C1443.17 1232.24 1443.25 1232.45 1443.33 1232.67C1443.42 1232.9 1443.5 1233.13 1443.59 1233.36C1443.61 1233.42 1443.64 1233.48 1443.66 1233.54C1444.04 1234.51 1444.42 1235.48 1444.82 1236.44C1444.9 1236.65 1444.99 1236.85 1445.08 1237.06C1445.14 1237.2 1445.19 1237.33 1445.25 1237.46C1445.37 1237.75 1445.5 1238.04 1445.62 1238.33C1445.7 1238.51 1445.78 1238.68 1445.86 1238.86C1445.95 1239.07 1446.04 1239.28 1446.13 1239.48C1446.24 1239.72 1446.35 1239.96 1446.46 1240.19C1446.53 1240.35 1446.6 1240.51 1446.68 1240.67C1446.8 1240.93 1446.92 1241.19 1447.04 1241.45C1447.1 1241.58 1447.17 1241.72 1447.23 1241.85C1447.35 1242.1 1447.48 1242.36 1447.6 1242.62C1447.68 1242.79 1447.77 1242.97 1447.86 1243.14C1447.96 1243.35 1448.06 1243.56 1448.17 1243.77C1448.26 1243.96 1448.36 1244.16 1448.46 1244.35C1448.57 1244.56 1448.67 1244.77 1448.78 1244.99C1448.86 1245.14 1448.94 1245.3 1449.02 1245.45C1449.35 1246.09 1449.69 1246.72 1450.03 1247.34C1450.24 1247.73 1450.45 1248.11 1450.66 1248.49C1450.69 1248.54 1450.72 1248.59 1450.75 1248.64C1450.94 1248.98 1451.13 1249.32 1451.32 1249.65C1451.41 1249.81 1451.5 1249.96 1451.58 1250.11C1451.72 1250.35 1451.86 1250.59 1452 1250.83C1452.09 1250.98 1452.18 1251.13 1452.27 1251.28C1452.41 1251.51 1452.55 1251.74 1452.68 1251.97C1452.79 1252.14 1452.89 1252.31 1453 1252.48C1453.13 1252.69 1453.26 1252.9 1453.39 1253.11C1453.5 1253.29 1453.61 1253.47 1453.72 1253.65C1453.83 1253.82 1453.94 1254 1454.06 1254.18C1454.2 1254.4 1454.34 1254.62 1454.48 1254.84C1454.58 1254.99 1454.68 1255.14 1454.77 1255.29C1454.91 1255.5 1455.04 1255.7 1455.18 1255.91C1455.29 1256.08 1455.41 1256.26 1455.53 1256.43C1455.66 1256.63 1455.79 1256.83 1455.93 1257.02C1456.07 1257.23 1456.21 1257.44 1456.36 1257.65C1456.45 1257.79 1456.55 1257.94 1456.65 1258.08C1456.79 1258.28 1456.93 1258.48 1457.07 1258.68C1457.57 1259.39 1458.07 1260.08 1458.58 1260.77C1458.71 1260.96 1458.85 1261.14 1458.98 1261.32C1459.11 1261.49 1459.24 1261.65 1459.36 1261.82C1459.5 1262.01 1459.65 1262.2 1459.79 1262.39C1459.93 1262.57 1460.07 1262.75 1460.21 1262.93C1460.33 1263.09 1460.46 1263.25 1460.58 1263.41C1460.73 1263.59 1460.87 1263.78 1461.01 1263.96C1461.16 1264.14 1461.3 1264.32 1461.44 1264.5C1461.58 1264.67 1461.72 1264.84 1461.86 1265.01C1461.98 1265.17 1462.11 1265.32 1462.24 1265.48C1462.39 1265.66 1462.54 1265.85 1462.7 1266.04C1462.85 1266.22 1463.01 1266.41 1463.16 1266.59C1463.28 1266.73 1463.4 1266.87 1463.52 1267.01C1463.7 1267.23 1463.88 1267.44 1464.07 1267.66C1464.17 1267.77 1464.27 1267.89 1464.37 1268.01C1464.42 1268.06 1464.47 1268.12 1464.52 1268.18C1467.42 1271.51 1467.44 1276.55 1464.32 1279.68L1436.03 1307.96C1406.36 1278.29 1388 1237.29 1388 1192Z" fill="#F0F0F0" stroke="#F0F0F0" id="n699"/>
<path d="M1364 1191.5L1363.5 1191.5L1363.5 1192.5L1364 1192.5L1364 1192L1364 1191.5ZM1364 1192L1364 1192.5L1436 1192.5L1436 1192L1436 1191.5L1364 1191.5L1364 1192Z" fill="#BEBEBE" id="n700"/>
<path d="M1364 1192C1364 1142.96 1382.77 1098.31 1413.53 1064.84C1416.52 1061.59 1421.6 1061.6 1424.72 1064.72L1464.32 1104.32C1467.44 1107.44 1467.42 1112.49 1464.52 1115.82C1446.76 1136.2 1436 1162.85 1436 1192C1436 1221.16 1446.76 1247.8 1464.52 1268.18C1467.42 1271.51 1467.44 1276.56 1464.32 1279.68L1424.72 1319.28C1421.6 1322.4 1416.52 1322.41 1413.53 1319.16C1382.77 1285.69 1364 1241.04 1364 1192Z" stroke="#BEBEBE" id="n701"/>
<g mask="url(#mask70_68_6728)" id="n706">
<mask id="mask71_68_6728" style="mask-type:alpha" maskUnits="userSpaceOnUse" x="1296" y="935" width="512" height="513">
<path d="M1552 1016C1649.2 1016 1728 1094.8 1728 1192C1728 1289.2 1649.2 1368 1552 1368C1454.8 1368 1376 1289.2 1376 1192C1376 1094.8 1454.8 1016 1552 1016ZM1552 1024C1459.22 1024 1384 1099.22 1384 1192C1384 1284.78 1459.22 1360 1552 1360C1644.78 1360 1720 1284.78 1720 1192C1720 1099.22 1644.78 1024 1552 1024Z" fill="black" id="n707"/>
</mask>
<g mask="url(#mask71_68_6728)" id="n708">
<path d="M1552 991.999V1192M1552 1192L1534.57 992.76M1552 1192L1517.27 995.037M1552 1192L1500.24 998.814M1552 1192L1483.6 1004.06M1552 1192L1467.48 1010.74M1552 1192L1452 1018.79M1552 1192L1437.28 1028.17M1552 1192L1423.44 1038.79M1552 1192L1410.58 1050.58M1552 1192L1398.79 1063.44M1552 1192L1388.17 1077.28M1552 1192L1378.79 1092M1552 1192L1370.74 1107.48M1552 1192L1364.06 1123.59M1552 1192L1358.81 1140.24M1552 1192L1355.04 1157.27M1552 1192L1352.76 1174.57M1552 1192H1352M1552 1192L1352.76 1209.43M1552 1192L1355.04 1226.73M1552 1192L1358.81 1243.76M1552 1192L1364.06 1260.4M1552 1192L1370.74 1276.52M1552 1192L1378.79 1292M1552 1192L1388.17 1306.71M1552 1192L1398.79 1320.56M1552 1192L1410.58 1333.42M1552 1192L1423.44 1345.21M1552 1192L1437.28 1355.83M1552 1192L1452 1365.2M1552 1192L1467.48 1373.26M1552 1192L1483.6 1379.94M1552 1192L1500.24 1385.18M1552 1192L1517.27 1388.96M1552 1192L1534.57 1391.24M1552 1192V1392M1552 1192L1569.43 1391.24M1552 1192L1586.73 1388.96M1552 1192L1603.76 1385.18M1552 1192L1620.4 1379.94M1552 1192L1636.52 1373.26M1552 1192L1652 1365.2M1552 1192L1666.72 1355.83M1552 1192L1680.56 1345.21M1552 1192L1693.42 1333.42M1552 1192L1705.21 1320.56M1552 1192L1715.83 1306.71M1552 1192L1725.21 1292M1552 1192L1733.26 1276.52M1552 1192L1739.94 1260.4M1552 1192L1745.19 1243.76M1552 1192L1748.96 1226.73M1552 1192L1751.24 1209.43M1552 1192H1752M1552 1192L1751.24 1174.57M1552 1192L1748.96 1157.27M1552 1192L1745.19 1140.24M1552 1192L1739.94 1123.6M1552 1192L1733.26 1107.48M1552 1192L1725.21 1092M1552 1192L1715.83 1077.28M1552 1192L1705.21 1063.44M1552 1192L1693.42 1050.58M1552 1192L1680.56 1038.79M1552 1192L1666.72 1028.17M1552 1192L1652 1018.79M1552 1192L1636.52 1010.74M1552 1192L1620.4 1004.06M1552 1192L1603.76 998.814M1552 1192L1586.73 995.038M1552 1192L1569.43 992.76" stroke="#BEBEBE" id="n709"/>
</g>
<mask id="mask72_68_6728" style="mask-type:alpha" maskUnits="userSpaceOnUse" x="1296" y="935" width="512" height="513">
<path d="M1552 999.999C1658.04 999.999 1744 1085.96 1744 1192C1744 1298.04 1658.04 1384 1552 1384C1445.96 1384 1360 1298.04 1360 1192C1360 1085.96 1445.96 999.999 1552 999.999ZM1552 1024C1459.22 1024 1384 1099.22 1384 1192C1384 1284.78 1459.22 1360 1552 1360C1644.78 1360 1720 1284.78 1720 1192C1720 1099.22 1644.78 1024 1552 1024Z" fill="black" id="n710"/>
</mask>
<g mask="url(#mask72_68_6728)" id="n711">
<path d="M1552 991.999V1192M1552 1192L1410.58 1050.58M1552 1192H1352M1552 1192L1410.58 1333.42M1552 1192V1392M1552 1192L1693.42 1333.42M1552 1192H1752M1552 1192L1693.42 1050.58" stroke="#BEBEBE" id="n712"/>
</g>
<mask id="mask73_68_6728" style="mask-type:alpha" maskUnits="userSpaceOnUse" x="1296" y="935" width="512" height="513">
<path d="M1552 999.999C1658.04 999.999 1744 1085.96 1744 1192C1744 1298.04 1658.04 1384 1552 1384C1445.96 1384 1360 1298.04 1360 1192C1360 1085.96 1445.96 999.999 1552 999.999ZM1552 1028C1461.43 1028 1388 1101.42 1388 1192C1388 1282.57 1461.43 1356 1552 1356C1642.57 1356 1716 1282.57 1716 1192C1716 1101.42 1642.57 1028 1552 1028Z" fill="black" id="n713"/>
</mask>
<g mask="url(#mask73_68_6728)" id="n714">
<path d="M1552 991.999V1192M1552 1192H1352M1552 1192V1392M1552 1192H1752" stroke="#BEBEBE" id="n715"/>
</g>
</g>
<path d="M1684.94 1059.06C1667.48 1041.61 1646.75 1027.76 1623.94 1018.31C1601.14 1008.86 1576.69 1004 1552 1004C1527.31 1004 1502.86 1008.86 1480.06 1018.31C1457.25 1027.76 1436.52 1041.61 1419.06 1059.06" stroke="#BEBEBE" stroke-linecap="round" id="n716"/>
<path d="M1419.06 1324.94C1436.52 1342.39 1457.25 1356.24 1480.06 1365.69C1502.86 1375.14 1527.31 1380 1552 1380C1576.69 1380 1601.14 1375.14 1623.94 1365.69C1646.75 1356.24 1667.48 1342.39 1684.94 1324.94" stroke="#BEBEBE" stroke-linecap="round" id="n717"/>
<path d="M1436 1192L1668 1192" stroke="#BEBEBE" stroke-linecap="square" id="n718"/>
<path d="M1716 1192C1716 1206.68 1714.07 1220.91 1710.45 1234.46L1664.07 1222.03C1664.28 1221.25 1664.48 1220.47 1664.68 1219.68C1664.72 1219.49 1664.77 1219.3 1664.81 1219.11C1664.87 1218.86 1664.93 1218.6 1664.99 1218.35C1665.04 1218.15 1665.08 1217.95 1665.13 1217.75C1665.19 1217.49 1665.25 1217.24 1665.3 1216.98C1665.34 1216.81 1665.38 1216.63 1665.42 1216.46C1665.48 1216.17 1665.54 1215.89 1665.6 1215.6C1665.63 1215.42 1665.67 1215.24 1665.71 1215.06C1665.76 1214.8 1665.81 1214.54 1665.86 1214.28C1665.9 1214.07 1665.94 1213.86 1665.98 1213.65C1666.03 1213.42 1666.07 1213.18 1666.11 1212.95C1666.16 1212.72 1666.2 1212.48 1666.24 1212.25C1666.28 1212.02 1666.32 1211.79 1666.36 1211.57C1666.39 1211.35 1666.43 1211.14 1666.46 1210.93C1666.52 1210.61 1666.57 1210.28 1666.62 1209.96C1666.64 1209.84 1666.66 1209.72 1666.67 1209.6C1666.73 1209.25 1666.78 1208.9 1666.83 1208.55C1666.85 1208.42 1666.86 1208.29 1666.88 1208.17C1666.92 1207.92 1666.95 1207.67 1666.98 1207.42C1667.03 1207.04 1667.08 1206.65 1667.13 1206.27C1667.17 1205.96 1667.21 1205.66 1667.24 1205.35C1667.25 1205.25 1667.26 1205.14 1667.27 1205.04C1667.31 1204.7 1667.35 1204.37 1667.38 1204.03C1667.41 1203.77 1667.43 1203.51 1667.46 1203.25C1667.48 1203.05 1667.5 1202.85 1667.52 1202.65C1667.54 1202.41 1667.56 1202.16 1667.58 1201.92C1667.6 1201.68 1667.62 1201.43 1667.64 1201.19C1667.66 1200.98 1667.67 1200.78 1667.69 1200.57C1667.71 1200.3 1667.73 1200.02 1667.74 1199.75C1667.76 1199.55 1667.77 1199.35 1667.78 1199.15C1667.8 1198.86 1667.82 1198.57 1667.83 1198.27C1667.84 1198.11 1667.85 1197.94 1667.86 1197.78C1667.87 1197.47 1667.89 1197.16 1667.9 1196.85C1667.91 1196.67 1667.91 1196.49 1667.92 1196.31C1667.93 1195.98 1667.94 1195.65 1667.95 1195.32C1667.96 1195.18 1667.96 1195.04 1667.96 1194.91C1667.97 1194.5 1667.98 1194.1 1667.99 1193.7C1667.99 1193.62 1667.99 1193.54 1667.99 1193.47C1668 1192.98 1668 1192.49 1668 1192C1668 1191.51 1668 1191.02 1667.99 1190.54C1667.99 1190.45 1667.99 1190.37 1667.99 1190.29C1667.98 1189.89 1667.97 1189.49 1667.96 1189.1C1667.96 1188.95 1667.96 1188.81 1667.95 1188.67C1667.94 1188.34 1667.93 1188.02 1667.92 1187.69C1667.91 1187.51 1667.91 1187.33 1667.9 1187.15C1667.89 1186.84 1667.87 1186.53 1667.86 1186.23C1667.85 1186.06 1667.84 1185.89 1667.83 1185.71C1667.82 1185.43 1667.8 1185.14 1667.78 1184.86C1667.77 1184.65 1667.76 1184.44 1667.74 1184.24C1667.73 1183.97 1667.71 1183.71 1667.69 1183.44C1667.67 1183.23 1667.66 1183.01 1667.64 1182.8C1667.62 1182.56 1667.6 1182.33 1667.58 1182.1C1667.56 1181.84 1667.54 1181.59 1667.52 1181.33C1667.5 1181.15 1667.48 1180.96 1667.46 1180.78C1667.44 1180.5 1667.41 1180.23 1667.38 1179.96C1667.35 1179.65 1667.32 1179.35 1667.28 1179.05C1667.27 1178.91 1667.25 1178.78 1667.24 1178.64C1667.21 1178.36 1667.17 1178.08 1667.14 1177.81C1667.08 1177.35 1667.02 1176.89 1666.96 1176.43C1666.94 1176.24 1666.91 1176.04 1666.88 1175.85C1666.86 1175.69 1666.84 1175.53 1666.82 1175.37C1666.77 1175.05 1666.72 1174.74 1666.68 1174.42C1666.65 1174.28 1666.63 1174.14 1666.61 1174C1666.56 1173.69 1666.51 1173.38 1666.46 1173.07C1666.43 1172.85 1666.39 1172.62 1666.35 1172.4C1666.31 1172.19 1666.28 1171.98 1666.24 1171.77C1666.2 1171.53 1666.15 1171.28 1666.11 1171.04C1666.07 1170.81 1666.03 1170.58 1665.98 1170.35C1665.94 1170.14 1665.9 1169.93 1665.86 1169.72C1665.81 1169.47 1665.76 1169.21 1665.71 1168.95C1665.67 1168.76 1665.63 1168.57 1665.59 1168.38C1665.54 1168.11 1665.48 1167.84 1665.42 1167.57C1665.38 1167.38 1665.34 1167.2 1665.3 1167.02C1665.25 1166.76 1665.19 1166.5 1665.13 1166.25C1665.08 1166.05 1665.04 1165.85 1664.99 1165.65C1664.93 1165.4 1664.87 1165.14 1664.81 1164.89C1664.77 1164.7 1664.72 1164.51 1664.68 1164.32C1664.48 1163.53 1664.28 1162.75 1664.07 1161.97L1710.45 1149.54C1714.07 1163.08 1716 1177.32 1716 1192Z" fill="#BEBEBE" id="n719"/>
<path d="M1710.45 1234.46L1710.32 1234.94L1710.8 1235.07L1710.93 1234.58L1710.45 1234.46ZM1664.07 1222.03L1663.59 1221.9L1663.46 1222.38L1663.94 1222.51L1664.07 1222.03ZM1664.68 1219.68L1664.19 1219.56L1664.19 1219.56L1664.68 1219.68ZM1664.81 1219.11L1665.3 1219.22L1665.3 1219.22L1664.81 1219.11ZM1664.99 1218.35L1664.51 1218.24V1218.24L1664.99 1218.35ZM1665.13 1217.75L1665.62 1217.86V1217.86L1665.13 1217.75ZM1665.3 1216.98L1664.81 1216.87V1216.87L1665.3 1216.98ZM1665.42 1216.46L1665.9 1216.57V1216.57L1665.42 1216.46ZM1665.6 1215.6L1665.11 1215.5V1215.5L1665.6 1215.6ZM1665.71 1215.06L1666.2 1215.16V1215.16L1665.71 1215.06ZM1665.86 1214.28L1665.37 1214.18V1214.18L1665.86 1214.28ZM1665.98 1213.65L1666.47 1213.74V1213.74L1665.98 1213.65ZM1666.11 1212.95L1665.62 1212.86V1212.86L1666.11 1212.95ZM1666.24 1212.25L1666.73 1212.33V1212.33L1666.24 1212.25ZM1666.36 1211.57L1665.86 1211.48V1211.48L1666.36 1211.57ZM1666.46 1210.93L1666.96 1211.01V1211.01L1666.46 1210.93ZM1666.62 1209.96L1666.12 1209.88V1209.88L1666.62 1209.96ZM1666.67 1209.6L1667.17 1209.67V1209.67L1666.67 1209.6ZM1666.83 1208.55L1666.33 1208.48V1208.48L1666.83 1208.55ZM1666.88 1208.17L1667.38 1208.23V1208.23L1666.88 1208.17ZM1666.98 1207.42L1666.49 1207.36V1207.36L1666.98 1207.42ZM1667.13 1206.27L1667.63 1206.33V1206.33L1667.13 1206.27ZM1667.24 1205.35L1666.74 1205.29V1205.29L1667.24 1205.35ZM1667.27 1205.04L1667.77 1205.09L1667.77 1205.09L1667.27 1205.04ZM1667.38 1204.03L1666.89 1203.98V1203.98L1667.38 1204.03ZM1667.46 1203.25L1667.96 1203.3V1203.3L1667.46 1203.25ZM1667.52 1202.65L1667.02 1202.61V1202.61L1667.52 1202.65ZM1667.58 1201.92L1668.08 1201.96V1201.96L1667.58 1201.92ZM1667.64 1201.19L1667.14 1201.15V1201.15L1667.64 1201.19ZM1667.69 1200.57L1668.19 1200.61V1200.61L1667.69 1200.57ZM1667.74 1199.75L1667.25 1199.72V1199.72L1667.74 1199.75ZM1667.78 1199.15L1668.28 1199.18V1199.18L1667.78 1199.15ZM1667.83 1198.27L1667.33 1198.25V1198.25L1667.83 1198.27ZM1667.86 1197.78L1668.36 1197.8V1197.8L1667.86 1197.78ZM1667.9 1196.85L1667.4 1196.83V1196.83L1667.9 1196.85ZM1667.92 1196.31L1668.42 1196.33V1196.33L1667.92 1196.31ZM1667.95 1195.32L1667.45 1195.31V1195.31L1667.95 1195.32ZM1667.96 1194.91L1668.46 1194.92V1194.92L1667.96 1194.91ZM1667.99 1193.7L1667.49 1193.69V1193.69L1667.99 1193.7ZM1667.99 1193.47L1668.49 1193.47V1193.47L1667.99 1193.47ZM1668 1192L1668.5 1192V1192L1668 1192ZM1667.99 1190.54L1667.49 1190.54V1190.54L1667.99 1190.54ZM1667.99 1190.29L1668.49 1190.28V1190.28L1667.99 1190.29ZM1667.96 1189.1L1667.46 1189.11V1189.11L1667.96 1189.1ZM1667.95 1188.67L1668.45 1188.66V1188.66L1667.95 1188.67ZM1667.92 1187.69L1667.42 1187.71V1187.71L1667.92 1187.69ZM1667.9 1187.15L1668.4 1187.12V1187.12L1667.9 1187.15ZM1667.86 1186.23L1667.36 1186.25V1186.25L1667.86 1186.23ZM1667.83 1185.71L1668.33 1185.69H1668.33L1667.83 1185.71ZM1667.78 1184.86L1667.28 1184.89V1184.89L1667.78 1184.86ZM1667.74 1184.24L1668.24 1184.21V1184.21L1667.74 1184.24ZM1667.69 1183.44L1667.19 1183.48V1183.48L1667.69 1183.44ZM1667.64 1182.8L1668.14 1182.76V1182.76L1667.64 1182.8ZM1667.58 1182.1L1667.08 1182.14V1182.14L1667.58 1182.1ZM1667.52 1181.33L1668.01 1181.29V1181.29L1667.52 1181.33ZM1667.46 1180.78L1666.97 1180.83V1180.83L1667.46 1180.78ZM1667.38 1179.96L1667.88 1179.9V1179.9L1667.38 1179.96ZM1667.28 1179.05L1666.79 1179.11V1179.11L1667.28 1179.05ZM1667.24 1178.64L1667.74 1178.58V1178.58L1667.24 1178.64ZM1667.14 1177.81L1666.64 1177.87V1177.87L1667.14 1177.81ZM1666.96 1176.43L1667.46 1176.37V1176.37L1666.96 1176.43ZM1666.88 1175.85L1666.39 1175.91V1175.91L1666.88 1175.85ZM1666.82 1175.37L1667.31 1175.3V1175.3L1666.82 1175.37ZM1666.68 1174.42L1666.18 1174.49V1174.49L1666.68 1174.42ZM1666.61 1174L1667.11 1173.93V1173.93L1666.61 1174ZM1666.46 1173.07L1665.97 1173.15V1173.15L1666.46 1173.07ZM1666.35 1172.4L1666.84 1172.32V1172.32L1666.35 1172.4ZM1666.24 1171.77L1665.75 1171.86V1171.86L1666.24 1171.77ZM1666.11 1171.04L1666.6 1170.95V1170.95L1666.11 1171.04ZM1665.98 1170.35L1665.49 1170.44V1170.44L1665.98 1170.35ZM1665.86 1169.72L1666.35 1169.63V1169.63L1665.86 1169.72ZM1665.71 1168.95L1665.22 1169.05V1169.05L1665.71 1168.95ZM1665.59 1168.38L1666.08 1168.28V1168.28L1665.59 1168.38ZM1665.42 1167.57L1664.93 1167.67V1167.67L1665.42 1167.57ZM1665.3 1167.02L1665.79 1166.91V1166.91L1665.3 1167.02ZM1665.13 1166.25L1664.64 1166.36V1166.36L1665.13 1166.25ZM1664.99 1165.65L1665.48 1165.53V1165.53L1664.99 1165.65ZM1664.81 1164.89L1664.33 1165.01L1664.33 1165.01L1664.81 1164.89ZM1664.68 1164.32L1665.16 1164.2V1164.2L1664.68 1164.32ZM1664.07 1161.97L1663.94 1161.49L1663.46 1161.62L1663.59 1162.1L1664.07 1161.97ZM1710.45 1149.54L1710.93 1149.41L1710.8 1148.93L1710.32 1149.06L1710.45 1149.54ZM1716 1192L1715.5 1192C1715.5 1206.64 1713.57 1220.83 1709.97 1234.33L1710.45 1234.46L1710.93 1234.58C1714.56 1221 1716.5 1206.73 1716.5 1192L1716 1192ZM1710.45 1234.46L1710.58 1233.97L1664.2 1221.55L1664.07 1222.03L1663.94 1222.51L1710.32 1234.94L1710.45 1234.46ZM1664.07 1222.03L1664.56 1222.16C1664.77 1221.38 1664.97 1220.59 1665.16 1219.8L1664.68 1219.68L1664.19 1219.56C1664 1220.34 1663.8 1221.12 1663.59 1221.9L1664.07 1222.03ZM1664.68 1219.68L1665.16 1219.8C1665.21 1219.61 1665.26 1219.41 1665.3 1219.22L1664.81 1219.11L1664.33 1218.99C1664.28 1219.19 1664.24 1219.37 1664.19 1219.56L1664.68 1219.68ZM1664.81 1219.11L1665.3 1219.22C1665.36 1218.97 1665.42 1218.72 1665.48 1218.46L1664.99 1218.35L1664.51 1218.24C1664.45 1218.49 1664.39 1218.74 1664.33 1218.99L1664.81 1219.11ZM1664.99 1218.35L1665.48 1218.46C1665.53 1218.26 1665.57 1218.06 1665.62 1217.86L1665.13 1217.75L1664.64 1217.64C1664.6 1217.84 1664.55 1218.04 1664.51 1218.24L1664.99 1218.35ZM1665.13 1217.75L1665.62 1217.86C1665.68 1217.6 1665.73 1217.35 1665.79 1217.09L1665.3 1216.98L1664.81 1216.87C1664.76 1217.13 1664.7 1217.38 1664.64 1217.64L1665.13 1217.75ZM1665.3 1216.98L1665.79 1217.09C1665.83 1216.91 1665.87 1216.74 1665.9 1216.57L1665.42 1216.46L1664.93 1216.36C1664.89 1216.53 1664.85 1216.7 1664.81 1216.87L1665.3 1216.98ZM1665.42 1216.46L1665.9 1216.57C1665.97 1216.28 1666.03 1215.99 1666.09 1215.7L1665.6 1215.6L1665.11 1215.5C1665.05 1215.78 1664.99 1216.07 1664.93 1216.36L1665.42 1216.46ZM1665.6 1215.6L1666.09 1215.7C1666.12 1215.52 1666.16 1215.34 1666.2 1215.16L1665.71 1215.06L1665.22 1214.96C1665.18 1215.14 1665.14 1215.32 1665.11 1215.5L1665.6 1215.6ZM1665.71 1215.06L1666.2 1215.16C1666.25 1214.89 1666.3 1214.63 1666.35 1214.37L1665.86 1214.28L1665.37 1214.18C1665.32 1214.44 1665.27 1214.7 1665.22 1214.96L1665.71 1215.06ZM1665.86 1214.28L1666.35 1214.37C1666.39 1214.16 1666.43 1213.95 1666.47 1213.74L1665.98 1213.65L1665.49 1213.55C1665.45 1213.76 1665.41 1213.97 1665.37 1214.18L1665.86 1214.28ZM1665.98 1213.65L1666.47 1213.74C1666.52 1213.51 1666.56 1213.27 1666.6 1213.04L1666.11 1212.95L1665.62 1212.86C1665.58 1213.09 1665.53 1213.32 1665.49 1213.55L1665.98 1213.65ZM1666.11 1212.95L1666.6 1213.04C1666.65 1212.8 1666.69 1212.57 1666.73 1212.33L1666.24 1212.25L1665.75 1212.16C1665.7 1212.39 1665.66 1212.63 1665.62 1212.86L1666.11 1212.95ZM1666.24 1212.25L1666.73 1212.33C1666.77 1212.11 1666.81 1211.88 1666.85 1211.65L1666.36 1211.57L1665.86 1211.48C1665.82 1211.71 1665.79 1211.94 1665.75 1212.16L1666.24 1212.25ZM1666.36 1211.57L1666.85 1211.65C1666.88 1211.44 1666.92 1211.22 1666.96 1211.01L1666.46 1210.93L1665.97 1210.85C1665.93 1211.06 1665.9 1211.27 1665.86 1211.48L1666.36 1211.57ZM1666.46 1210.93L1666.96 1211.01C1667.01 1210.68 1667.06 1210.36 1667.11 1210.04L1666.62 1209.96L1666.12 1209.88C1666.07 1210.21 1666.02 1210.53 1665.97 1210.85L1666.46 1210.93ZM1666.62 1209.96L1667.11 1210.04C1667.13 1209.92 1667.15 1209.79 1667.17 1209.67L1666.67 1209.6L1666.18 1209.52C1666.16 1209.64 1666.14 1209.76 1666.12 1209.88L1666.62 1209.96ZM1666.67 1209.6L1667.17 1209.67C1667.22 1209.32 1667.27 1208.97 1667.32 1208.62L1666.83 1208.55L1666.33 1208.48C1666.28 1208.83 1666.23 1209.18 1666.18 1209.52L1666.67 1209.6ZM1666.83 1208.55L1667.32 1208.62C1667.34 1208.5 1667.36 1208.36 1667.38 1208.23L1666.88 1208.17L1666.39 1208.1C1666.37 1208.22 1666.35 1208.35 1666.33 1208.48L1666.83 1208.55ZM1666.88 1208.17L1667.38 1208.23C1667.41 1207.99 1667.45 1207.74 1667.48 1207.49L1666.98 1207.42L1666.49 1207.36C1666.45 1207.61 1666.42 1207.85 1666.39 1208.1L1666.88 1208.17ZM1666.98 1207.42L1667.48 1207.49C1667.53 1207.1 1667.58 1206.72 1667.63 1206.33L1667.13 1206.27L1666.63 1206.21C1666.59 1206.59 1666.54 1206.98 1666.49 1207.36L1666.98 1207.42ZM1667.13 1206.27L1667.63 1206.33C1667.66 1206.02 1667.7 1205.72 1667.74 1205.41L1667.24 1205.35L1666.74 1205.29C1666.71 1205.6 1666.67 1205.9 1666.63 1206.21L1667.13 1206.27ZM1667.24 1205.35L1667.74 1205.41C1667.75 1205.31 1667.76 1205.18 1667.77 1205.09L1667.27 1205.04L1666.78 1204.98C1666.76 1205.1 1666.76 1205.18 1666.74 1205.29L1667.24 1205.35ZM1667.27 1205.04L1667.77 1205.09C1667.81 1204.76 1667.85 1204.42 1667.88 1204.09L1667.38 1204.03L1666.89 1203.98C1666.85 1204.32 1666.81 1204.65 1666.78 1204.98L1667.27 1205.04ZM1667.38 1204.03L1667.88 1204.09C1667.91 1203.82 1667.93 1203.56 1667.96 1203.3L1667.46 1203.25L1666.96 1203.21C1666.94 1203.47 1666.91 1203.72 1666.89 1203.98L1667.38 1204.03ZM1667.46 1203.25L1667.96 1203.3C1667.98 1203.1 1668 1202.9 1668.01 1202.7L1667.52 1202.65L1667.02 1202.61C1667 1202.81 1666.98 1203.01 1666.96 1203.21L1667.46 1203.25ZM1667.52 1202.65L1668.01 1202.7C1668.04 1202.45 1668.06 1202.21 1668.08 1201.96L1667.58 1201.92L1667.08 1201.88C1667.06 1202.12 1667.04 1202.37 1667.02 1202.61L1667.52 1202.65ZM1667.58 1201.92L1668.08 1201.96C1668.1 1201.72 1668.12 1201.47 1668.14 1201.23L1667.64 1201.19L1667.14 1201.15C1667.12 1201.39 1667.1 1201.64 1667.08 1201.88L1667.58 1201.92ZM1667.64 1201.19L1668.14 1201.23C1668.16 1201.02 1668.17 1200.81 1668.19 1200.61L1667.69 1200.57L1667.19 1200.53C1667.17 1200.74 1667.16 1200.95 1667.14 1201.15L1667.64 1201.19ZM1667.69 1200.57L1668.19 1200.61C1668.21 1200.33 1668.22 1200.06 1668.24 1199.78L1667.74 1199.75L1667.25 1199.72C1667.23 1199.99 1667.21 1200.26 1667.19 1200.53L1667.69 1200.57ZM1667.74 1199.75L1668.24 1199.78C1668.26 1199.58 1668.27 1199.38 1668.28 1199.18L1667.78 1199.15L1667.28 1199.12C1667.27 1199.32 1667.26 1199.52 1667.25 1199.72L1667.74 1199.75ZM1667.78 1199.15L1668.28 1199.18C1668.3 1198.89 1668.32 1198.59 1668.33 1198.3L1667.83 1198.27L1667.33 1198.25C1667.32 1198.54 1667.3 1198.83 1667.28 1199.12L1667.78 1199.15ZM1667.83 1198.27L1668.33 1198.3C1668.34 1198.14 1668.35 1197.97 1668.36 1197.8L1667.86 1197.78L1667.36 1197.75C1667.35 1197.92 1667.34 1198.08 1667.33 1198.25L1667.83 1198.27ZM1667.86 1197.78L1668.36 1197.8C1668.37 1197.49 1668.39 1197.18 1668.4 1196.87L1667.9 1196.85L1667.4 1196.83C1667.39 1197.14 1667.37 1197.45 1667.36 1197.75L1667.86 1197.78ZM1667.9 1196.85L1668.4 1196.87C1668.41 1196.69 1668.41 1196.51 1668.42 1196.33L1667.92 1196.31L1667.42 1196.29C1667.41 1196.47 1667.41 1196.65 1667.4 1196.83L1667.9 1196.85ZM1667.92 1196.31L1668.42 1196.33C1668.43 1196 1668.44 1195.67 1668.45 1195.34L1667.95 1195.32L1667.45 1195.31C1667.44 1195.64 1667.43 1195.96 1667.42 1196.29L1667.92 1196.31ZM1667.95 1195.32L1668.45 1195.34C1668.46 1195.2 1668.46 1195.06 1668.46 1194.92L1667.96 1194.91L1667.46 1194.89C1667.46 1195.03 1667.46 1195.17 1667.45 1195.31L1667.95 1195.32ZM1667.96 1194.91L1668.46 1194.92C1668.47 1194.51 1668.48 1194.11 1668.49 1193.71L1667.99 1193.7L1667.49 1193.69C1667.48 1194.09 1667.47 1194.49 1667.46 1194.89L1667.96 1194.91ZM1667.99 1193.7L1668.49 1193.71C1668.49 1193.64 1668.49 1193.55 1668.49 1193.47L1667.99 1193.47L1667.49 1193.46C1667.49 1193.54 1667.49 1193.6 1667.49 1193.69L1667.99 1193.7ZM1667.99 1193.47L1668.49 1193.47C1668.5 1192.98 1668.5 1192.49 1668.5 1192L1668 1192L1667.5 1192C1667.5 1192.49 1667.5 1192.97 1667.49 1193.46L1667.99 1193.47ZM1668 1192L1668.5 1192C1668.5 1191.51 1668.5 1191.02 1668.49 1190.53L1667.99 1190.54L1667.49 1190.54C1667.5 1191.03 1667.5 1191.51 1667.5 1192L1668 1192ZM1667.99 1190.54L1668.49 1190.53C1668.49 1190.47 1668.49 1190.33 1668.49 1190.28L1667.99 1190.29L1667.49 1190.3C1667.49 1190.41 1667.49 1190.44 1667.49 1190.54L1667.99 1190.54ZM1667.99 1190.29L1668.49 1190.28C1668.48 1189.88 1668.47 1189.48 1668.46 1189.08L1667.96 1189.1L1667.46 1189.11C1667.47 1189.5 1667.48 1189.9 1667.49 1190.3L1667.99 1190.29ZM1667.96 1189.1L1668.46 1189.08C1668.46 1188.94 1668.46 1188.8 1668.45 1188.66L1667.95 1188.67L1667.45 1188.69C1667.46 1188.83 1667.46 1188.97 1667.46 1189.11L1667.96 1189.1ZM1667.95 1188.67L1668.45 1188.66C1668.44 1188.33 1668.43 1188 1668.42 1187.67L1667.92 1187.69L1667.42 1187.71C1667.43 1188.03 1667.44 1188.36 1667.45 1188.69L1667.95 1188.67ZM1667.92 1187.69L1668.42 1187.67C1668.41 1187.49 1668.41 1187.31 1668.4 1187.12L1667.9 1187.15L1667.4 1187.17C1667.41 1187.35 1667.41 1187.53 1667.42 1187.71L1667.92 1187.69ZM1667.9 1187.15L1668.4 1187.12C1668.39 1186.82 1668.37 1186.51 1668.36 1186.2L1667.86 1186.23L1667.36 1186.25C1667.37 1186.56 1667.39 1186.86 1667.4 1187.17L1667.9 1187.15ZM1667.86 1186.23L1668.36 1186.2C1668.35 1186.03 1668.34 1185.86 1668.33 1185.69L1667.83 1185.71L1667.33 1185.74C1667.34 1185.91 1667.35 1186.08 1667.36 1186.25L1667.86 1186.23ZM1667.83 1185.71L1668.33 1185.69C1668.32 1185.4 1668.3 1185.11 1668.28 1184.83L1667.78 1184.86L1667.28 1184.89C1667.3 1185.17 1667.32 1185.46 1667.33 1185.74L1667.83 1185.71ZM1667.78 1184.86L1668.28 1184.83C1668.27 1184.62 1668.26 1184.41 1668.24 1184.21L1667.74 1184.24L1667.24 1184.27C1667.26 1184.48 1667.27 1184.68 1667.28 1184.89L1667.78 1184.86ZM1667.74 1184.24L1668.24 1184.21C1668.22 1183.94 1668.21 1183.67 1668.19 1183.41L1667.69 1183.44L1667.19 1183.48C1667.21 1183.74 1667.23 1184.01 1667.24 1184.27L1667.74 1184.24ZM1667.69 1183.44L1668.19 1183.41C1668.17 1183.19 1668.15 1182.97 1668.14 1182.76L1667.64 1182.8L1667.14 1182.84C1667.16 1183.05 1667.17 1183.27 1667.19 1183.48L1667.69 1183.44ZM1667.64 1182.8L1668.14 1182.76C1668.12 1182.52 1668.1 1182.29 1668.08 1182.06L1667.58 1182.1L1667.08 1182.14C1667.1 1182.37 1667.12 1182.61 1667.14 1182.84L1667.64 1182.8ZM1667.58 1182.1L1668.08 1182.06C1668.06 1181.8 1668.04 1181.55 1668.01 1181.29L1667.52 1181.33L1667.02 1181.38C1667.04 1181.63 1667.06 1181.89 1667.08 1182.14L1667.58 1182.1ZM1667.52 1181.33L1668.01 1181.29C1668 1181.1 1667.98 1180.92 1667.96 1180.73L1667.46 1180.78L1666.97 1180.83C1666.98 1181.01 1667 1181.2 1667.02 1181.38L1667.52 1181.33ZM1667.46 1180.78L1667.96 1180.73C1667.93 1180.46 1667.91 1180.18 1667.88 1179.9L1667.38 1179.96L1666.88 1180.01C1666.91 1180.28 1666.94 1180.55 1666.97 1180.83L1667.46 1180.78ZM1667.38 1179.96L1667.88 1179.9C1667.85 1179.6 1667.81 1179.3 1667.78 1179L1667.28 1179.05L1666.79 1179.11C1666.82 1179.41 1666.85 1179.71 1666.88 1180.01L1667.38 1179.96ZM1667.28 1179.05L1667.78 1179C1667.77 1178.86 1667.75 1178.72 1667.74 1178.58L1667.24 1178.64L1666.74 1178.69C1666.76 1178.83 1666.77 1178.97 1666.79 1179.11L1667.28 1179.05ZM1667.24 1178.64L1667.74 1178.58C1667.7 1178.3 1667.67 1178.02 1667.63 1177.75L1667.14 1177.81L1666.64 1177.87C1666.68 1178.15 1666.71 1178.42 1666.74 1178.69L1667.24 1178.64ZM1667.14 1177.81L1667.63 1177.75C1667.58 1177.29 1667.52 1176.83 1667.46 1176.37L1666.96 1176.43L1666.47 1176.5C1666.53 1176.96 1666.59 1177.41 1666.64 1177.87L1667.14 1177.81ZM1666.96 1176.43L1667.46 1176.37C1667.43 1176.18 1667.41 1175.97 1667.38 1175.78L1666.88 1175.85L1666.39 1175.91C1666.42 1176.11 1666.44 1176.3 1666.47 1176.5L1666.96 1176.43ZM1666.88 1175.85L1667.38 1175.78C1667.36 1175.62 1667.33 1175.45 1667.31 1175.3L1666.82 1175.37L1666.32 1175.44C1666.34 1175.61 1666.37 1175.76 1666.39 1175.91L1666.88 1175.85ZM1666.82 1175.37L1667.31 1175.3C1667.27 1174.98 1667.22 1174.66 1667.17 1174.34L1666.68 1174.42L1666.18 1174.49C1666.23 1174.81 1666.28 1175.13 1666.32 1175.44L1666.82 1175.37ZM1666.68 1174.42L1667.17 1174.34C1667.15 1174.2 1667.13 1174.06 1667.11 1173.93L1666.61 1174L1666.12 1174.08C1666.14 1174.22 1666.16 1174.36 1666.18 1174.49L1666.68 1174.42ZM1666.61 1174L1667.11 1173.93C1667.06 1173.62 1667.01 1173.3 1666.96 1172.99L1666.46 1173.07L1665.97 1173.15C1666.02 1173.46 1666.07 1173.77 1666.12 1174.08L1666.61 1174ZM1666.46 1173.07L1666.96 1172.99C1666.92 1172.77 1666.88 1172.54 1666.84 1172.32L1666.35 1172.4L1665.86 1172.48C1665.89 1172.71 1665.93 1172.93 1665.97 1173.15L1666.46 1173.07ZM1666.35 1172.4L1666.84 1172.32C1666.81 1172.11 1666.77 1171.9 1666.73 1171.68L1666.24 1171.77L1665.75 1171.86C1665.79 1172.07 1665.82 1172.27 1665.86 1172.48L1666.35 1172.4ZM1666.24 1171.77L1666.73 1171.68C1666.69 1171.44 1666.65 1171.19 1666.6 1170.95L1666.11 1171.04L1665.62 1171.13C1665.66 1171.37 1665.71 1171.61 1665.75 1171.86L1666.24 1171.77ZM1666.11 1171.04L1666.6 1170.95C1666.56 1170.72 1666.52 1170.49 1666.47 1170.26L1665.98 1170.35L1665.49 1170.44C1665.53 1170.67 1665.58 1170.9 1665.62 1171.13L1666.11 1171.04ZM1665.98 1170.35L1666.47 1170.26C1666.43 1170.05 1666.39 1169.84 1666.35 1169.63L1665.86 1169.72L1665.37 1169.82C1665.41 1170.03 1665.45 1170.24 1665.49 1170.44L1665.98 1170.35ZM1665.86 1169.72L1666.35 1169.63C1666.3 1169.37 1666.25 1169.11 1666.2 1168.86L1665.71 1168.95L1665.22 1169.05C1665.27 1169.31 1665.32 1169.56 1665.37 1169.82L1665.86 1169.72ZM1665.71 1168.95L1666.2 1168.86C1666.16 1168.66 1666.12 1168.47 1666.08 1168.28L1665.59 1168.38L1665.1 1168.48C1665.14 1168.67 1665.18 1168.86 1665.22 1169.05L1665.71 1168.95ZM1665.59 1168.38L1666.08 1168.28C1666.03 1168.01 1665.97 1167.73 1665.91 1167.46L1665.42 1167.57L1664.93 1167.67C1664.99 1167.94 1665.05 1168.21 1665.1 1168.48L1665.59 1168.38ZM1665.42 1167.57L1665.91 1167.46C1665.87 1167.28 1665.83 1167.09 1665.79 1166.91L1665.3 1167.02L1664.81 1167.12C1664.85 1167.3 1664.89 1167.49 1664.93 1167.67L1665.42 1167.57ZM1665.3 1167.02L1665.79 1166.91C1665.73 1166.65 1665.68 1166.39 1665.62 1166.14L1665.13 1166.25L1664.64 1166.36C1664.7 1166.61 1664.76 1166.87 1664.81 1167.12L1665.3 1167.02ZM1665.13 1166.25L1665.62 1166.14C1665.57 1165.94 1665.53 1165.74 1665.48 1165.53L1664.99 1165.65L1664.51 1165.76C1664.55 1165.96 1664.6 1166.16 1664.64 1166.36L1665.13 1166.25ZM1664.99 1165.65L1665.48 1165.53C1665.42 1165.28 1665.36 1165.03 1665.3 1164.78L1664.81 1164.89L1664.33 1165.01C1664.39 1165.26 1664.45 1165.51 1664.51 1165.76L1664.99 1165.65ZM1664.81 1164.89L1665.3 1164.78C1665.26 1164.59 1665.21 1164.39 1665.16 1164.2L1664.68 1164.32L1664.19 1164.44C1664.24 1164.63 1664.28 1164.81 1664.33 1165.01L1664.81 1164.89ZM1664.68 1164.32L1665.16 1164.2C1664.97 1163.41 1664.77 1162.62 1664.56 1161.84L1664.07 1161.97L1663.59 1162.1C1663.8 1162.87 1664 1163.65 1664.19 1164.44L1664.68 1164.32ZM1664.07 1161.97L1664.2 1162.45L1710.58 1150.02L1710.45 1149.54L1710.32 1149.06L1663.94 1161.49L1664.07 1161.97ZM1710.45 1149.54L1709.97 1149.67C1713.57 1163.17 1715.5 1177.36 1715.5 1192L1716 1192L1716.5 1192C1716.5 1177.27 1714.56 1163 1710.93 1149.41L1710.45 1149.54Z" fill="#BEBEBE" id="n720"/>
<path d="M1388 1192C1388 1177.32 1389.93 1163.08 1393.55 1149.54L1439.93 1161.97C1439.72 1162.75 1439.52 1163.53 1439.32 1164.32C1439.28 1164.51 1439.23 1164.7 1439.19 1164.89C1439.13 1165.14 1439.07 1165.39 1439.01 1165.65C1438.96 1165.85 1438.92 1166.05 1438.87 1166.25C1438.81 1166.5 1438.75 1166.76 1438.7 1167.02C1438.66 1167.19 1438.62 1167.36 1438.58 1167.54C1438.52 1167.82 1438.46 1168.11 1438.4 1168.4C1438.37 1168.58 1438.33 1168.76 1438.29 1168.94C1438.24 1169.2 1438.19 1169.46 1438.14 1169.72C1438.1 1169.93 1438.06 1170.14 1438.02 1170.35C1437.97 1170.58 1437.93 1170.82 1437.89 1171.05C1437.84 1171.28 1437.8 1171.52 1437.76 1171.75C1437.72 1171.98 1437.68 1172.2 1437.64 1172.43C1437.61 1172.64 1437.57 1172.86 1437.54 1173.07C1437.48 1173.39 1437.43 1173.72 1437.38 1174.04C1437.36 1174.16 1437.34 1174.28 1437.33 1174.4C1437.27 1174.75 1437.22 1175.1 1437.17 1175.44C1437.15 1175.57 1437.14 1175.7 1437.12 1175.83C1437.08 1176.08 1437.05 1176.33 1437.02 1176.57C1436.97 1176.96 1436.92 1177.34 1436.87 1177.73C1436.83 1178.04 1436.79 1178.34 1436.76 1178.65C1436.75 1178.75 1436.74 1178.86 1436.73 1178.96C1436.69 1179.29 1436.65 1179.63 1436.62 1179.96C1436.59 1180.22 1436.57 1180.48 1436.54 1180.74C1436.52 1180.94 1436.5 1181.14 1436.48 1181.34C1436.46 1181.59 1436.44 1181.83 1436.42 1182.08C1436.4 1182.32 1436.38 1182.56 1436.36 1182.81C1436.34 1183.01 1436.33 1183.22 1436.31 1183.43C1436.29 1183.7 1436.27 1183.97 1436.26 1184.25C1436.24 1184.45 1436.23 1184.65 1436.22 1184.85C1436.2 1185.14 1436.18 1185.43 1436.17 1185.72C1436.16 1185.89 1436.15 1186.05 1436.14 1186.22C1436.13 1186.53 1436.11 1186.84 1436.1 1187.15C1436.09 1187.33 1436.09 1187.51 1436.08 1187.69C1436.07 1188.02 1436.06 1188.35 1436.05 1188.68C1436.04 1188.82 1436.04 1188.95 1436.04 1189.09C1436.03 1189.49 1436.02 1189.9 1436.01 1190.3C1436.01 1190.38 1436.01 1190.45 1436.01 1190.53C1436 1191.02 1436 1191.51 1436 1192C1436 1192.49 1436 1192.98 1436.01 1193.46C1436.01 1193.55 1436.01 1193.63 1436.01 1193.71C1436.02 1194.11 1436.03 1194.51 1436.04 1194.9C1436.04 1195.04 1436.04 1195.18 1436.05 1195.33C1436.06 1195.65 1436.07 1195.98 1436.08 1196.31C1436.09 1196.49 1436.09 1196.67 1436.1 1196.85C1436.11 1197.16 1436.13 1197.46 1436.14 1197.77C1436.15 1197.94 1436.16 1198.11 1436.17 1198.28C1436.18 1198.57 1436.2 1198.86 1436.22 1199.14C1436.23 1199.35 1436.24 1199.55 1436.26 1199.76C1436.27 1200.03 1436.29 1200.29 1436.31 1200.56C1436.33 1200.77 1436.34 1200.98 1436.36 1201.2C1436.38 1201.43 1436.4 1201.67 1436.42 1201.9C1436.44 1202.15 1436.46 1202.41 1436.48 1202.66C1436.5 1202.85 1436.52 1203.03 1436.54 1203.22C1436.56 1203.49 1436.59 1203.77 1436.62 1204.04C1436.65 1204.34 1436.68 1204.65 1436.72 1204.95C1436.73 1205.08 1436.75 1205.22 1436.76 1205.36C1436.79 1205.64 1436.83 1205.91 1436.86 1206.19C1436.92 1206.65 1436.98 1207.11 1437.04 1207.56C1437.06 1207.76 1437.09 1207.96 1437.12 1208.15C1437.14 1208.31 1437.16 1208.47 1437.18 1208.63C1437.23 1208.94 1437.28 1209.26 1437.32 1209.58C1437.35 1209.72 1437.37 1209.86 1437.39 1209.99C1437.44 1210.3 1437.49 1210.62 1437.54 1210.92C1437.57 1211.15 1437.61 1211.37 1437.65 1211.6C1437.69 1211.81 1437.72 1212.02 1437.76 1212.23C1437.8 1212.47 1437.85 1212.72 1437.89 1212.96C1437.93 1213.19 1437.97 1213.42 1438.02 1213.65C1438.06 1213.86 1438.1 1214.07 1438.14 1214.27C1438.19 1214.53 1438.24 1214.79 1438.29 1215.04C1438.33 1215.24 1438.37 1215.43 1438.41 1215.62C1438.46 1215.89 1438.52 1216.16 1438.58 1216.43C1438.62 1216.62 1438.66 1216.8 1438.7 1216.98C1438.75 1217.24 1438.81 1217.5 1438.87 1217.75C1438.92 1217.95 1438.96 1218.15 1439.01 1218.35C1439.07 1218.6 1439.13 1218.85 1439.19 1219.11C1439.23 1219.3 1439.28 1219.49 1439.32 1219.68C1439.52 1220.47 1439.72 1221.25 1439.93 1222.03L1393.55 1234.46C1389.93 1220.91 1388 1206.68 1388 1192Z" fill="#BEBEBE" id="n721"/>
<path d="M1393.55 1149.54L1393.68 1149.06L1393.2 1148.93L1393.07 1149.41L1393.55 1149.54ZM1439.93 1161.97L1440.41 1162.1L1440.54 1161.62L1440.06 1161.49L1439.93 1161.97ZM1439.32 1164.32L1439.81 1164.44L1439.81 1164.44L1439.32 1164.32ZM1439.19 1164.89L1438.7 1164.77L1438.7 1164.77L1439.19 1164.89ZM1439.01 1165.65L1439.49 1165.76V1165.76L1439.01 1165.65ZM1438.87 1166.25L1438.38 1166.14V1166.14L1438.87 1166.25ZM1438.7 1167.02L1439.19 1167.13V1167.13L1438.7 1167.02ZM1438.58 1167.54L1438.1 1167.43V1167.43L1438.58 1167.54ZM1438.4 1168.4L1438.89 1168.5V1168.5L1438.4 1168.4ZM1438.29 1168.94L1437.8 1168.84V1168.84L1438.29 1168.94ZM1438.14 1169.72L1438.63 1169.82V1169.82L1438.14 1169.72ZM1438.02 1170.35L1437.53 1170.26V1170.26L1438.02 1170.35ZM1437.89 1171.05L1438.38 1171.14V1171.14L1437.89 1171.05ZM1437.76 1171.75L1437.27 1171.66V1171.66L1437.76 1171.75ZM1437.64 1172.43L1438.14 1172.51V1172.51L1437.64 1172.43ZM1437.54 1173.07L1437.04 1172.99V1172.99L1437.54 1173.07ZM1437.38 1174.04L1437.88 1174.12V1174.12L1437.38 1174.04ZM1437.33 1174.4L1436.83 1174.33V1174.33L1437.33 1174.4ZM1437.17 1175.44L1437.67 1175.52V1175.52L1437.17 1175.44ZM1437.12 1175.83L1436.62 1175.76V1175.76L1437.12 1175.83ZM1437.02 1176.57L1437.51 1176.64V1176.64L1437.02 1176.57ZM1436.87 1177.73L1436.37 1177.67V1177.67L1436.87 1177.73ZM1436.76 1178.65L1437.26 1178.7V1178.7L1436.76 1178.65ZM1436.73 1178.96L1436.23 1178.91L1436.23 1178.91L1436.73 1178.96ZM1436.62 1179.96L1437.11 1180.02V1180.02L1436.62 1179.96ZM1436.54 1180.74L1436.04 1180.7V1180.7L1436.54 1180.74ZM1436.48 1181.34L1436.98 1181.39V1181.39L1436.48 1181.34ZM1436.42 1182.08L1435.92 1182.04V1182.04L1436.42 1182.08ZM1436.36 1182.81L1436.86 1182.85V1182.85L1436.36 1182.81ZM1436.31 1183.43L1435.81 1183.39V1183.39L1436.31 1183.43ZM1436.26 1184.25L1436.75 1184.28V1184.28L1436.26 1184.25ZM1436.22 1184.85L1435.72 1184.82V1184.82L1436.22 1184.85ZM1436.17 1185.72L1436.67 1185.75V1185.75L1436.17 1185.72ZM1436.14 1186.22L1435.64 1186.2V1186.2L1436.14 1186.22ZM1436.1 1187.15L1436.6 1187.17V1187.17L1436.1 1187.15ZM1436.08 1187.69L1435.58 1187.67V1187.67L1436.08 1187.69ZM1436.05 1188.68L1436.55 1188.69V1188.69L1436.05 1188.68ZM1436.04 1189.09L1435.54 1189.08V1189.08L1436.04 1189.09ZM1436.01 1190.3L1436.51 1190.3V1190.3L1436.01 1190.3ZM1436.01 1190.53L1435.51 1190.53V1190.53L1436.01 1190.53ZM1436 1192L1435.5 1192V1192L1436 1192ZM1436.01 1193.46L1436.51 1193.46V1193.46L1436.01 1193.46ZM1436.01 1193.71L1435.51 1193.72V1193.72L1436.01 1193.71ZM1436.04 1194.9L1436.54 1194.89V1194.89L1436.04 1194.9ZM1436.05 1195.33L1435.55 1195.34V1195.34L1436.05 1195.33ZM1436.08 1196.31L1436.58 1196.29V1196.29L1436.08 1196.31ZM1436.1 1196.85L1435.6 1196.87V1196.87L1436.1 1196.85ZM1436.14 1197.77L1436.64 1197.75V1197.75L1436.14 1197.77ZM1436.17 1198.28L1435.67 1198.31H1435.67L1436.17 1198.28ZM1436.22 1199.14L1436.72 1199.11V1199.11L1436.22 1199.14ZM1436.26 1199.76L1435.76 1199.79V1199.79L1436.26 1199.76ZM1436.31 1200.56L1436.81 1200.52V1200.52L1436.31 1200.56ZM1436.36 1201.2L1435.86 1201.24V1201.24L1436.36 1201.2ZM1436.42 1201.9L1436.92 1201.86V1201.86L1436.42 1201.9ZM1436.48 1202.66L1435.99 1202.71V1202.71L1436.48 1202.66ZM1436.54 1203.22L1437.03 1203.17V1203.17L1436.54 1203.22ZM1436.62 1204.04L1436.12 1204.09V1204.09L1436.62 1204.04ZM1436.72 1204.95L1437.21 1204.89V1204.89L1436.72 1204.95ZM1436.76 1205.36L1436.26 1205.42V1205.42L1436.76 1205.36ZM1436.86 1206.19L1437.36 1206.13V1206.13L1436.86 1206.19ZM1437.04 1207.56L1436.54 1207.63V1207.63L1437.04 1207.56ZM1437.12 1208.15L1437.61 1208.08V1208.08L1437.12 1208.15ZM1437.18 1208.63L1436.69 1208.7V1208.7L1437.18 1208.63ZM1437.32 1209.58L1437.82 1209.51V1209.51L1437.32 1209.58ZM1437.39 1209.99L1436.89 1210.07V1210.07L1437.39 1209.99ZM1437.54 1210.92L1438.03 1210.84V1210.84L1437.54 1210.92ZM1437.65 1211.6L1437.16 1211.68V1211.68L1437.65 1211.6ZM1437.76 1212.23L1438.25 1212.14V1212.14L1437.76 1212.23ZM1437.89 1212.96L1437.4 1213.05V1213.05L1437.89 1212.96ZM1438.02 1213.65L1438.51 1213.55V1213.55L1438.02 1213.65ZM1438.14 1214.27L1437.65 1214.37V1214.37L1438.14 1214.27ZM1438.29 1215.04L1438.78 1214.95V1214.95L1438.29 1215.04ZM1438.41 1215.62L1437.92 1215.72V1215.72L1438.41 1215.62ZM1438.58 1216.43L1439.07 1216.33V1216.33L1438.58 1216.43ZM1438.7 1216.98L1438.21 1217.09V1217.09L1438.7 1216.98ZM1438.87 1217.75L1439.36 1217.64V1217.64L1438.87 1217.75ZM1439.01 1218.35L1438.52 1218.46V1218.46L1439.01 1218.35ZM1439.19 1219.11L1439.67 1218.99L1439.67 1218.99L1439.19 1219.11ZM1439.32 1219.68L1438.84 1219.8V1219.8L1439.32 1219.68ZM1439.93 1222.03L1440.06 1222.51L1440.54 1222.38L1440.41 1221.9L1439.93 1222.03ZM1393.55 1234.46L1393.07 1234.59L1393.2 1235.07L1393.68 1234.94L1393.55 1234.46ZM1388 1192L1388.5 1192C1388.5 1177.36 1390.43 1163.17 1394.03 1149.67L1393.55 1149.54L1393.07 1149.41C1389.44 1163 1387.5 1177.27 1387.5 1192L1388 1192ZM1393.55 1149.54L1393.42 1150.03L1439.8 1162.45L1439.93 1161.97L1440.06 1161.49L1393.68 1149.06L1393.55 1149.54ZM1439.93 1161.97L1439.44 1161.84C1439.23 1162.62 1439.03 1163.41 1438.84 1164.2L1439.32 1164.32L1439.81 1164.44C1440 1163.65 1440.2 1162.88 1440.41 1162.1L1439.93 1161.97ZM1439.32 1164.32L1438.84 1164.2C1438.79 1164.39 1438.74 1164.59 1438.7 1164.77L1439.19 1164.89L1439.67 1165.01C1439.72 1164.81 1439.76 1164.63 1439.81 1164.44L1439.32 1164.32ZM1439.19 1164.89L1438.7 1164.77C1438.64 1165.02 1438.58 1165.28 1438.52 1165.53L1439.01 1165.65L1439.49 1165.76C1439.55 1165.51 1439.61 1165.26 1439.67 1165.01L1439.19 1164.89ZM1439.01 1165.65L1438.52 1165.53C1438.47 1165.73 1438.43 1165.94 1438.38 1166.14L1438.87 1166.25L1439.36 1166.36C1439.4 1166.16 1439.45 1165.96 1439.49 1165.76L1439.01 1165.65ZM1438.87 1166.25L1438.38 1166.14C1438.32 1166.39 1438.27 1166.65 1438.21 1166.91L1438.7 1167.02L1439.19 1167.13C1439.24 1166.87 1439.3 1166.61 1439.36 1166.36L1438.87 1166.25ZM1438.7 1167.02L1438.21 1166.91C1438.17 1167.09 1438.13 1167.26 1438.1 1167.43L1438.58 1167.54L1439.07 1167.64C1439.11 1167.47 1439.15 1167.3 1439.19 1167.13L1438.7 1167.02ZM1438.58 1167.54L1438.1 1167.43C1438.03 1167.72 1437.97 1168.01 1437.91 1168.3L1438.4 1168.4L1438.89 1168.5C1438.95 1168.21 1439.01 1167.93 1439.07 1167.64L1438.58 1167.54ZM1438.4 1168.4L1437.91 1168.3C1437.88 1168.48 1437.84 1168.66 1437.8 1168.84L1438.29 1168.94L1438.78 1169.04C1438.82 1168.86 1438.86 1168.68 1438.89 1168.5L1438.4 1168.4ZM1438.29 1168.94L1437.8 1168.84C1437.75 1169.1 1437.7 1169.37 1437.65 1169.63L1438.14 1169.72L1438.63 1169.82C1438.68 1169.56 1438.73 1169.3 1438.78 1169.04L1438.29 1168.94ZM1438.14 1169.72L1437.65 1169.63C1437.61 1169.84 1437.57 1170.05 1437.53 1170.26L1438.02 1170.35L1438.51 1170.44C1438.55 1170.23 1438.59 1170.03 1438.63 1169.82L1438.14 1169.72ZM1438.02 1170.35L1437.53 1170.26C1437.48 1170.49 1437.44 1170.72 1437.4 1170.96L1437.89 1171.05L1438.38 1171.14C1438.42 1170.91 1438.47 1170.68 1438.51 1170.44L1438.02 1170.35ZM1437.89 1171.05L1437.4 1170.96C1437.35 1171.19 1437.31 1171.43 1437.27 1171.66L1437.76 1171.75L1438.25 1171.84C1438.3 1171.6 1438.34 1171.37 1438.38 1171.14L1437.89 1171.05ZM1437.76 1171.75L1437.27 1171.66C1437.23 1171.89 1437.19 1172.12 1437.15 1172.35L1437.64 1172.43L1438.14 1172.51C1438.18 1172.29 1438.21 1172.06 1438.25 1171.84L1437.76 1171.75ZM1437.64 1172.43L1437.15 1172.35C1437.12 1172.56 1437.08 1172.77 1437.04 1172.99L1437.54 1173.07L1438.03 1173.15C1438.07 1172.94 1438.1 1172.73 1438.14 1172.51L1437.64 1172.43ZM1437.54 1173.07L1437.04 1172.99C1436.99 1173.31 1436.94 1173.64 1436.89 1173.96L1437.38 1174.04L1437.88 1174.12C1437.93 1173.79 1437.98 1173.47 1438.03 1173.15L1437.54 1173.07ZM1437.38 1174.04L1436.89 1173.96C1436.87 1174.08 1436.85 1174.21 1436.83 1174.33L1437.33 1174.4L1437.82 1174.48C1437.84 1174.36 1437.86 1174.24 1437.88 1174.12L1437.38 1174.04ZM1437.33 1174.4L1436.83 1174.33C1436.78 1174.68 1436.73 1175.02 1436.68 1175.37L1437.17 1175.44L1437.67 1175.52C1437.72 1175.17 1437.77 1174.82 1437.82 1174.48L1437.33 1174.4ZM1437.17 1175.44L1436.68 1175.37C1436.66 1175.5 1436.64 1175.63 1436.62 1175.76L1437.12 1175.83L1437.61 1175.9C1437.63 1175.77 1437.65 1175.65 1437.67 1175.52L1437.17 1175.44ZM1437.12 1175.83L1436.62 1175.76C1436.59 1176.01 1436.55 1176.26 1436.52 1176.51L1437.02 1176.57L1437.51 1176.64C1437.55 1176.39 1437.58 1176.15 1437.61 1175.9L1437.12 1175.83ZM1437.02 1176.57L1436.52 1176.51C1436.47 1176.89 1436.42 1177.28 1436.37 1177.67L1436.87 1177.73L1437.37 1177.79C1437.41 1177.41 1437.46 1177.02 1437.51 1176.64L1437.02 1176.57ZM1436.87 1177.73L1436.37 1177.67C1436.34 1177.97 1436.3 1178.28 1436.26 1178.59L1436.76 1178.65L1437.26 1178.7C1437.29 1178.4 1437.33 1178.1 1437.37 1177.79L1436.87 1177.73ZM1436.76 1178.65L1436.26 1178.59C1436.25 1178.69 1436.24 1178.82 1436.23 1178.91L1436.73 1178.96L1437.22 1179.02C1437.24 1178.9 1437.24 1178.81 1437.26 1178.7L1436.76 1178.65ZM1436.73 1178.96L1436.23 1178.91C1436.19 1179.24 1436.15 1179.58 1436.12 1179.91L1436.62 1179.96L1437.11 1180.02C1437.15 1179.68 1437.19 1179.35 1437.22 1179.02L1436.73 1178.96ZM1436.62 1179.96L1436.12 1179.91C1436.09 1180.17 1436.07 1180.44 1436.04 1180.7L1436.54 1180.74L1437.04 1180.79C1437.06 1180.53 1437.09 1180.27 1437.11 1180.02L1436.62 1179.96ZM1436.54 1180.74L1436.04 1180.7C1436.02 1180.9 1436 1181.1 1435.99 1181.3L1436.48 1181.34L1436.98 1181.39C1437 1181.19 1437.02 1180.99 1437.04 1180.79L1436.54 1180.74ZM1436.48 1181.34L1435.99 1181.3C1435.96 1181.54 1435.94 1181.79 1435.92 1182.04L1436.42 1182.08L1436.92 1182.12C1436.94 1181.88 1436.96 1181.63 1436.98 1181.39L1436.48 1181.34ZM1436.42 1182.08L1435.92 1182.04C1435.9 1182.28 1435.88 1182.52 1435.86 1182.77L1436.36 1182.81L1436.86 1182.85C1436.88 1182.61 1436.9 1182.36 1436.92 1182.12L1436.42 1182.08ZM1436.36 1182.81L1435.86 1182.77C1435.84 1182.98 1435.83 1183.18 1435.81 1183.39L1436.31 1183.43L1436.81 1183.46C1436.83 1183.26 1436.84 1183.05 1436.86 1182.85L1436.36 1182.81ZM1436.31 1183.43L1435.81 1183.39C1435.79 1183.67 1435.78 1183.94 1435.76 1184.21L1436.26 1184.25L1436.75 1184.28C1436.77 1184.01 1436.79 1183.74 1436.81 1183.46L1436.31 1183.43ZM1436.26 1184.25L1435.76 1184.21C1435.74 1184.41 1435.73 1184.61 1435.72 1184.82L1436.22 1184.85L1436.72 1184.88C1436.73 1184.68 1436.74 1184.48 1436.75 1184.28L1436.26 1184.25ZM1436.22 1184.85L1435.72 1184.82C1435.7 1185.11 1435.68 1185.4 1435.67 1185.7L1436.17 1185.72L1436.67 1185.75C1436.68 1185.46 1436.7 1185.17 1436.72 1184.88L1436.22 1184.85ZM1436.17 1185.72L1435.67 1185.7C1435.66 1185.86 1435.65 1186.03 1435.64 1186.2L1436.14 1186.22L1436.64 1186.24C1436.65 1186.08 1436.66 1185.91 1436.67 1185.75L1436.17 1185.72ZM1436.14 1186.22L1435.64 1186.2C1435.63 1186.51 1435.61 1186.82 1435.6 1187.13L1436.1 1187.15L1436.6 1187.17C1436.61 1186.86 1436.63 1186.55 1436.64 1186.24L1436.14 1186.22ZM1436.1 1187.15L1435.6 1187.13C1435.59 1187.31 1435.59 1187.49 1435.58 1187.67L1436.08 1187.69L1436.58 1187.71C1436.59 1187.53 1436.59 1187.35 1436.6 1187.17L1436.1 1187.15ZM1436.08 1187.69L1435.58 1187.67C1435.57 1188 1435.56 1188.33 1435.55 1188.66L1436.05 1188.68L1436.55 1188.69C1436.56 1188.36 1436.57 1188.03 1436.58 1187.71L1436.08 1187.69ZM1436.05 1188.68L1435.55 1188.66C1435.54 1188.8 1435.54 1188.94 1435.54 1189.08L1436.04 1189.09L1436.54 1189.11C1436.54 1188.97 1436.54 1188.83 1436.55 1188.69L1436.05 1188.68ZM1436.04 1189.09L1435.54 1189.08C1435.53 1189.48 1435.52 1189.89 1435.51 1190.29L1436.01 1190.3L1436.51 1190.3C1436.52 1189.9 1436.53 1189.5 1436.54 1189.11L1436.04 1189.09ZM1436.01 1190.3L1435.51 1190.29C1435.51 1190.36 1435.51 1190.45 1435.51 1190.53L1436.01 1190.53L1436.51 1190.54C1436.51 1190.46 1436.51 1190.39 1436.51 1190.3L1436.01 1190.3ZM1436.01 1190.53L1435.51 1190.53C1435.5 1191.02 1435.5 1191.51 1435.5 1192L1436 1192L1436.5 1192C1436.5 1191.51 1436.5 1191.02 1436.51 1190.54L1436.01 1190.53ZM1436 1192L1435.5 1192C1435.5 1192.49 1435.5 1192.98 1435.51 1193.47L1436.01 1193.46L1436.51 1193.46C1436.5 1192.97 1436.5 1192.49 1436.5 1192L1436 1192ZM1436.01 1193.46L1435.51 1193.47C1435.51 1193.53 1435.51 1193.67 1435.51 1193.72L1436.01 1193.71L1436.51 1193.7C1436.51 1193.59 1436.51 1193.56 1436.51 1193.46L1436.01 1193.46ZM1436.01 1193.71L1435.51 1193.72C1435.52 1194.12 1435.53 1194.52 1435.54 1194.91L1436.04 1194.9L1436.54 1194.89C1436.53 1194.5 1436.52 1194.1 1436.51 1193.7L1436.01 1193.71ZM1436.04 1194.9L1435.54 1194.91C1435.54 1195.06 1435.54 1195.2 1435.55 1195.34L1436.05 1195.33L1436.55 1195.31C1436.54 1195.17 1436.54 1195.03 1436.54 1194.89L1436.04 1194.9ZM1436.05 1195.33L1435.55 1195.34C1435.56 1195.67 1435.57 1196 1435.58 1196.32L1436.08 1196.31L1436.58 1196.29C1436.57 1195.96 1436.56 1195.64 1436.55 1195.31L1436.05 1195.33ZM1436.08 1196.31L1435.58 1196.32C1435.59 1196.51 1435.59 1196.69 1435.6 1196.87L1436.1 1196.85L1436.6 1196.83C1436.59 1196.65 1436.59 1196.47 1436.58 1196.29L1436.08 1196.31ZM1436.1 1196.85L1435.6 1196.87C1435.61 1197.18 1435.63 1197.49 1435.64 1197.79L1436.14 1197.77L1436.64 1197.75C1436.63 1197.44 1436.61 1197.14 1436.6 1196.83L1436.1 1196.85ZM1436.14 1197.77L1435.64 1197.79C1435.65 1197.97 1435.66 1198.14 1435.67 1198.31L1436.17 1198.28L1436.67 1198.26C1436.66 1198.08 1436.65 1197.92 1436.64 1197.75L1436.14 1197.77ZM1436.17 1198.28L1435.67 1198.31C1435.68 1198.6 1435.7 1198.89 1435.72 1199.17L1436.22 1199.14L1436.72 1199.11C1436.7 1198.83 1436.68 1198.54 1436.67 1198.26L1436.17 1198.28ZM1436.22 1199.14L1435.72 1199.17C1435.73 1199.38 1435.74 1199.59 1435.76 1199.79L1436.26 1199.76L1436.76 1199.73C1436.74 1199.52 1436.73 1199.32 1436.72 1199.11L1436.22 1199.14ZM1436.26 1199.76L1435.76 1199.79C1435.78 1200.06 1435.79 1200.33 1435.81 1200.59L1436.31 1200.56L1436.81 1200.52C1436.79 1200.26 1436.77 1199.99 1436.76 1199.73L1436.26 1199.76ZM1436.31 1200.56L1435.81 1200.59C1435.83 1200.81 1435.85 1201.02 1435.86 1201.24L1436.36 1201.2L1436.86 1201.16C1436.84 1200.95 1436.83 1200.73 1436.81 1200.52L1436.31 1200.56ZM1436.36 1201.2L1435.86 1201.24C1435.88 1201.47 1435.9 1201.71 1435.92 1201.94L1436.42 1201.9L1436.92 1201.86C1436.9 1201.62 1436.88 1201.39 1436.86 1201.16L1436.36 1201.2ZM1436.42 1201.9L1435.92 1201.94C1435.94 1202.2 1435.96 1202.45 1435.99 1202.71L1436.48 1202.66L1436.98 1202.62C1436.96 1202.37 1436.94 1202.11 1436.92 1201.86L1436.42 1201.9ZM1436.48 1202.66L1435.99 1202.71C1436 1202.9 1436.02 1203.08 1436.04 1203.27L1436.54 1203.22L1437.03 1203.17C1437.02 1202.99 1437 1202.8 1436.98 1202.62L1436.48 1202.66ZM1436.54 1203.22L1436.04 1203.27C1436.07 1203.54 1436.09 1203.82 1436.12 1204.09L1436.62 1204.04L1437.12 1203.99C1437.09 1203.72 1437.06 1203.45 1437.03 1203.17L1436.54 1203.22ZM1436.62 1204.04L1436.12 1204.09C1436.15 1204.4 1436.19 1204.7 1436.22 1205L1436.72 1204.95L1437.21 1204.89C1437.18 1204.59 1437.15 1204.29 1437.12 1203.99L1436.62 1204.04ZM1436.72 1204.95L1436.22 1205C1436.23 1205.14 1436.25 1205.28 1436.26 1205.42L1436.76 1205.36L1437.26 1205.3C1437.24 1205.17 1437.23 1205.03 1437.21 1204.89L1436.72 1204.95ZM1436.76 1205.36L1436.26 1205.42C1436.3 1205.7 1436.33 1205.98 1436.37 1206.25L1436.86 1206.19L1437.36 1206.13C1437.32 1205.85 1437.29 1205.58 1437.26 1205.3L1436.76 1205.36ZM1436.86 1206.19L1436.37 1206.25C1436.42 1206.71 1436.48 1207.17 1436.54 1207.63L1437.04 1207.56L1437.53 1207.5C1437.47 1207.04 1437.41 1206.59 1437.36 1206.13L1436.86 1206.19ZM1437.04 1207.56L1436.54 1207.63C1436.57 1207.82 1436.59 1208.03 1436.62 1208.22L1437.12 1208.15L1437.61 1208.08C1437.58 1207.89 1437.56 1207.7 1437.53 1207.5L1437.04 1207.56ZM1437.12 1208.15L1436.62 1208.22C1436.64 1208.38 1436.67 1208.54 1436.69 1208.7L1437.18 1208.63L1437.68 1208.55C1437.66 1208.39 1437.63 1208.24 1437.61 1208.08L1437.12 1208.15ZM1437.18 1208.63L1436.69 1208.7C1436.73 1209.02 1436.78 1209.34 1436.83 1209.66L1437.32 1209.58L1437.82 1209.51C1437.77 1209.19 1437.72 1208.87 1437.68 1208.55L1437.18 1208.63ZM1437.32 1209.58L1436.83 1209.66C1436.85 1209.79 1436.87 1209.94 1436.89 1210.07L1437.39 1209.99L1437.88 1209.92C1437.86 1209.78 1437.84 1209.64 1437.82 1209.51L1437.32 1209.58ZM1437.39 1209.99L1436.89 1210.07C1436.94 1210.38 1436.99 1210.69 1437.04 1211.01L1437.54 1210.92L1438.03 1210.84C1437.98 1210.54 1437.93 1210.23 1437.88 1209.92L1437.39 1209.99ZM1437.54 1210.92L1437.04 1211.01C1437.08 1211.23 1437.12 1211.46 1437.16 1211.68L1437.65 1211.6L1438.14 1211.51C1438.11 1211.29 1438.07 1211.07 1438.03 1210.84L1437.54 1210.92ZM1437.65 1211.6L1437.16 1211.68C1437.19 1211.89 1437.23 1212.1 1437.27 1212.31L1437.76 1212.23L1438.25 1212.14C1438.21 1211.93 1438.18 1211.72 1438.14 1211.51L1437.65 1211.6ZM1437.76 1212.23L1437.27 1212.31C1437.31 1212.56 1437.35 1212.8 1437.4 1213.05L1437.89 1212.96L1438.38 1212.87C1438.34 1212.63 1438.29 1212.38 1438.25 1212.14L1437.76 1212.23ZM1437.89 1212.96L1437.4 1213.05C1437.44 1213.28 1437.48 1213.51 1437.53 1213.74L1438.02 1213.65L1438.51 1213.55C1438.47 1213.33 1438.42 1213.1 1438.38 1212.87L1437.89 1212.96ZM1438.02 1213.65L1437.53 1213.74C1437.57 1213.95 1437.61 1214.16 1437.65 1214.37L1438.14 1214.27L1438.63 1214.18C1438.59 1213.97 1438.55 1213.76 1438.51 1213.55L1438.02 1213.65ZM1438.14 1214.27L1437.65 1214.37C1437.7 1214.63 1437.75 1214.89 1437.8 1215.14L1438.29 1215.04L1438.78 1214.95C1438.73 1214.69 1438.68 1214.43 1438.63 1214.18L1438.14 1214.27ZM1438.29 1215.04L1437.8 1215.14C1437.84 1215.34 1437.88 1215.53 1437.92 1215.72L1438.41 1215.62L1438.9 1215.52C1438.86 1215.33 1438.82 1215.14 1438.78 1214.95L1438.29 1215.04ZM1438.41 1215.62L1437.92 1215.72C1437.97 1215.99 1438.03 1216.26 1438.09 1216.54L1438.58 1216.43L1439.07 1216.33C1439.01 1216.06 1438.95 1215.79 1438.9 1215.52L1438.41 1215.62ZM1438.58 1216.43L1438.09 1216.54C1438.13 1216.72 1438.17 1216.91 1438.21 1217.09L1438.7 1216.98L1439.19 1216.88C1439.15 1216.69 1439.11 1216.51 1439.07 1216.33L1438.58 1216.43ZM1438.7 1216.98L1438.21 1217.09C1438.27 1217.35 1438.32 1217.61 1438.38 1217.86L1438.87 1217.75L1439.36 1217.64C1439.3 1217.39 1439.24 1217.13 1439.19 1216.88L1438.7 1216.98ZM1438.87 1217.75L1438.38 1217.86C1438.43 1218.06 1438.47 1218.26 1438.52 1218.46L1439.01 1218.35L1439.49 1218.24C1439.45 1218.04 1439.4 1217.84 1439.36 1217.64L1438.87 1217.75ZM1439.01 1218.35L1438.52 1218.46C1438.58 1218.72 1438.64 1218.97 1438.7 1219.22L1439.19 1219.11L1439.67 1218.99C1439.61 1218.74 1439.55 1218.49 1439.49 1218.24L1439.01 1218.35ZM1439.19 1219.11L1438.7 1219.22C1438.74 1219.41 1438.79 1219.61 1438.84 1219.8L1439.32 1219.68L1439.81 1219.56C1439.76 1219.37 1439.72 1219.19 1439.67 1218.99L1439.19 1219.11ZM1439.32 1219.68L1438.84 1219.8C1439.03 1220.59 1439.23 1221.38 1439.44 1222.16L1439.93 1222.03L1440.41 1221.9C1440.2 1221.12 1440 1220.34 1439.81 1219.56L1439.32 1219.68ZM1439.93 1222.03L1439.8 1221.55L1393.42 1233.97L1393.55 1234.46L1393.68 1234.94L1440.06 1222.51L1439.93 1222.03ZM1393.55 1234.46L1394.03 1234.33C1390.43 1220.83 1388.5 1206.64 1388.5 1192L1388 1192L1387.5 1192C1387.5 1206.73 1389.44 1221 1393.07 1234.59L1393.55 1234.46Z" fill="#BEBEBE" id="n722"/>
<rect x="1716" y="1188" width="8" height="48" rx="4" transform="rotate(90 1716 1188)" fill="#535353" stroke="#BEBEBE" id="n723"/>
<rect x="1436" y="1188" width="8" height="48" rx="4" transform="rotate(90 1436 1188)" fill="#535353" stroke="#BEBEBE" id="n724"/>
<path d="M1688.5 1192L1410 1192" stroke="#535353" id="n725"/>
<path d="M1646.48 1192V1192.96C1646.48 1197.93 1642.45 1201.96 1637.48 1201.96H1469.94V1196.25L1457.48 1192V1180.16H1569.63L1587.81 1161.98L1585.73 1155.75H1583.65L1585.73 1154.19H1589.36V1151.6H1590.4L1586.25 1138.1H1589.36L1596.63 1151.6C1601.46 1151.6 1606.28 1152.13 1611 1153.18L1622.59 1155.75H1620L1616.88 1161.98L1624.67 1169.77H1645.44C1645.44 1169.77 1641.33 1174.84 1639.21 1178.86C1637.46 1182.18 1635.06 1187.94 1635.06 1187.94L1640.45 1186.96C1643.59 1186.39 1646.48 1188.81 1646.48 1192Z" fill="white" id="n726"/>
<path d="M1457.48 1192H1646.48M1457.48 1192L1469.94 1196.25V1201.96H1637.48C1642.45 1201.96 1646.48 1197.93 1646.48 1192.96V1192M1457.48 1192V1180.16H1569.63M1646.48 1192C1646.48 1188.81 1643.59 1186.39 1640.45 1186.96L1635.06 1187.94C1635.06 1187.94 1637.46 1182.18 1639.21 1178.86C1641.33 1174.84 1645.44 1169.77 1645.44 1169.77H1624.67M1569.63 1180.16H1576.38L1586.77 1169.77H1624.67M1569.63 1180.16L1587.81 1161.98M1587.81 1161.98H1616.88M1587.81 1161.98L1585.73 1155.75H1620L1616.88 1161.98M1616.88 1161.98L1624.67 1169.77M1596.63 1151.6L1589.36 1138.1H1586.25L1590.4 1151.6M1596.63 1151.6H1590.4M1596.63 1151.6C1601.46 1151.6 1606.28 1152.13 1611 1153.18L1622.59 1155.75H1583.65L1585.73 1154.19H1589.36V1151.6H1590.4" stroke="#8E8E8E" id="n727"/>
</g>
</svg>
