<?xml version='1.0' encoding='utf-8'?>
<svg xmlns="http://www.w3.org/2000/svg" xmlns:xlink="http://www.w3.org/1999/xlink" width="512.0" height="512.0" viewBox="0 0 512.0 512.0" fill="none">
  <defs><clipPath id="clip__asset"><rect x="0" y="0" width="512.0" height="512.0"/></clipPath><mask id="mask30_68_6728" style="mask-type:alpha" maskUnits="userSpaceOnUse" x="10051" y="1720" width="512" height="512">
<rect width="512" height="512" transform="translate(10051 1720)" fill="url(#pattern1_68_6728)" id="n265"/>
</mask>
<mask id="mask31_68_6728" style="mask-type:alpha" maskUnits="userSpaceOnUse" x="10051" y="1720" width="512" height="512">
<path fill-rule="evenodd" clip-rule="evenodd" d="M10307 1812C10397.6 1812 10471 1885.43 10471 1976C10471 2066.57 10397.6 2140 10307 2140C10216.4 2140 10143 2066.57 10143 1976C10143 1885.43 10216.4 1812 10307 1812ZM10307 1860C10242.9 1860 10191 1911.93 10191 1976C10191 2040.07 10242.9 2092 10307 2092C10371.1 2092 10423 2040.07 10423 1976C10423 1911.93 10371.1 1860 10307 1860Z" fill="white" stroke="black" id="n272"/>
</mask>
<mask id="mask32_68_6728" style="mask-type:luminance" maskUnits="userSpaceOnUse" x="10051" y="1720" width="512" height="512">
<path fill-rule="evenodd" clip-rule="evenodd" d="M10307 1788C10410.8 1788 10495 1872.17 10495 1976C10495 2079.83 10410.8 2164 10307 2164C10203.2 2164 10119 2079.83 10119 1976C10119 1872.17 10203.2 1788 10307 1788ZM10307 1812C10216.4 1812 10143 1885.43 10143 1976C10143 2066.57 10216.4 2140 10307 2140C10397.6 2140 10471 2066.57 10471 1976C10471 1885.43 10397.6 1812 10307 1812Z" fill="white" stroke="black" id="n276"/>
</mask>
<mask id="mask33_68_6728" style="mask-type:alpha" maskUnits="userSpaceOnUse" x="10051" y="1720" width="512" height="512">
<path d="M10307 1784C10413 1784 10499 1869.96 10499 1976C10499 2082.04 10413 2168 10307 2168C10201 2168 10115 2082.04 10115 1976C10115 1869.96 10201 1784 10307 1784ZM10307 1808C10214.2 1808 10139 1883.22 10139 1976C10139 2068.78 10214.2 2144 10307 2144C10399.8 2144 10475 2068.78 10475 1976C10475 1883.22 10399.8 1808 10307 1808Z" fill="black" id="n278"/>
</mask>
<mask id="mask34_68_6728" style="mask-type:alpha" maskUnits="userSpaceOnUse" x="10051" y="1720" width="512" height="512">
<path d="M10307 1784C10413 1784 10499 1869.96 10499 1976C10499 2082.04 10413 2168 10307 2168C10201 2168 10115 2082.04 10115 1976C10115 1869.96 10201 1784 10307 1784ZM10307 1812C10216.4 1812 10143 1885.43 10143 1976C10143 2066.57 10216.4 2140 10307 2140C10397.6 2140 10471 2066.57 10471 1976C10471 1885.43 10397.6 1812 10307 1812Z" fill="black" id="n281"/>
</mask>
<mask id="path-247-outside-1_68_6728" maskUnits="userSpaceOnUse" x="10419.6" y="1783.4" width="51.9333" height="55.138" fill="black">
<rect fill="white" x="10419.6" y="1783.4" width="51.9333" height="55.138" id="n299"/>
<path d="M10445.1 1827.63L10430.4 1828.92L10429.1 1814.25L10433.1 1813.9L10434.1 1824.58L10444.7 1823.65L10445.1 1827.63ZM10452.8 1818.44L10438.1 1819.73L10436.8 1805.05L10440.8 1804.71L10441.8 1815.39L10452.5 1814.46L10452.8 1818.44ZM10460.5 1809.25L10445.8 1810.53L10444.6 1795.86L10448.5 1795.51L10449.5 1806.2L10460.2 1805.27L10460.5 1809.25ZM10455.1 1802.63L10452 1800.06L10459.7 1790.86L10462.8 1793.43L10455.1 1802.63Z" id="n300"/>
</mask>
<mask id="path-249-outside-2_68_6728" maskUnits="userSpaceOnUse" x="10379.6" y="1754.2" width="42.8212" height="56.8482" fill="black">
<rect fill="white" x="10379.6" y="1754.2" width="42.8212" height="56.8482" id="n304"/>
<path d="M10419.4 1768.03L10408.6 1762.96L10406.9 1766.58L10417.7 1771.65L10416 1775.28L10405.2 1770.21L10403.5 1773.83L10408.9 1776.37L10407.2 1779.99L10401.8 1777.46L10395.9 1790.15L10399.5 1791.84L10388.1 1801.99L10388.6 1786.77L10392.2 1788.46L10406.6 1757.64L10421.1 1764.4L10419.4 1768.03Z" id="n305"/>
</mask>
<mask id="path-251-outside-3_68_6728" maskUnits="userSpaceOnUse" x="10235" y="1818.55" width="48.1938" height="51.7798" fill="black">
<rect fill="white" x="10235" y="1818.55" width="48.1938" height="51.7798" id="n308"/>
<path d="M10251.6 1826.55C10251.6 1825.66 10252.8 1825.25 10253.4 1825.91L10279.9 1855.26C10281.2 1856.67 10279.9 1858.9 10278 1858.53L10263.2 1855.72L10253.7 1867.38C10252.5 1868.88 10250.1 1868.01 10250.1 1866.1L10251.6 1826.55ZM10254.4 1860.22L10261.6 1851.34L10272.9 1853.47L10255.3 1834.05L10254.4 1860.22Z" id="n309"/>
</mask>
<linearGradient id="paint2_linear_68_6728" x1="10274.5" y1="1961.5" x2="10303.5" y2="1982.5" gradientUnits="userSpaceOnUse">
<stop stop-color="#333333" stop-opacity="0" id="n2500"/>
<stop offset="1" stop-color="#535353" id="n2501"/>
</linearGradient>
<clipPath id="clip5_68_6728">
<rect width="512" height="512" fill="white" transform="translate(10275.4 1615.34) rotate(40)" id="n2509"/>
</clipPath>
<clipPath id="clip6_68_6728">
<rect width="512" height="512" fill="white" transform="translate(10183.2 1635.79) rotate(25)" id="n2510"/>
</clipPath>
<pattern id="pattern1_68_6728" patternUnits="userSpaceOnUse" patternTransform="matrix(8 0 0 16 252 252)" preserveAspectRatio="none" viewBox="0 0 16 32" width="1" height="1">
<use xlink:href="#pattern1_68_6728_inner" transform="translate(-16 0)" id="n2568"/>
<g id="pattern1_68_6728_inner">
<rect x="6" y="6" width="4" height="4" fill="black" id="n2569"/>
</g>
<use xlink:href="#pattern1_68_6728_inner" transform="translate(-8 16)" id="n2570"/>
<use xlink:href="#pattern1_68_6728_inner" transform="translate(8 16)" id="n2571"/>
</pattern><g id="pattern1_68_6728_inner">
<rect x="6" y="6" width="4" height="4" fill="black" id="n2569"/>
</g>
</defs>
  <g clip-path="url(#clip__asset)" transform="translate(-10051.0 -1720.0)"><circle cx="10307" cy="1976" r="12" stroke="#BEBEBE" id="n258"/>
<path d="M10307 1812V1976M10307 1976L10191 1860.03M10307 1976H10143M10307 1976L10191 2091.97M10307 1976V2140M10307 1976L10423 2091.97M10307 1976H10471M10307 1976L10423 1860.03" stroke="#BEBEBE" id="n259"/>
<path d="M10336 1976C10336 1992.02 10323 2005 10307 2005C10291 2005 10278 1992.02 10278 1976C10278 1959.98 10291 1947 10307 1947C10323 1947 10336 1959.98 10336 1976Z" stroke="#BEBEBE" id="n260"/>
<path d="M10365 1976C10365 2008.03 10339 2034 10307 2034C10275 2034 10249 2008.03 10249 1976C10249 1943.97 10275 1918 10307 1918C10339 1918 10365 1943.97 10365 1976Z" stroke="#BEBEBE" id="n261"/>
<path d="M10394 1976C10394 2024.05 10355 2063 10307 2063C10259 2063 10220 2024.05 10220 1976C10220 1927.95 10259 1889 10307 1889C10355 1889 10394 1927.95 10394 1976Z" stroke="#BEBEBE" id="n262"/>
<path d="M10423 1976C10423 2040.07 10371.1 2092 10307 2092C10242.9 2092 10191 2040.07 10191 1976C10191 1911.93 10242.9 1860 10307 1860C10371.1 1860 10423 1911.93 10423 1976Z" stroke="#BEBEBE" id="n263"/>
<path d="M10307 1788V1788.5C10410.6 1788.5 10494.5 1872.45 10494.5 1976H10495H10495.5C10495.5 1871.89 10411.1 1787.5 10307 1787.5V1788ZM10495 1976H10494.5C10494.5 2079.55 10410.6 2163.5 10307 2163.5V2164V2164.5C10411.1 2164.5 10495.5 2080.11 10495.5 1976H10495ZM10307 2164V2163.5C10203.4 2163.5 10119.5 2079.55 10119.5 1976H10119H10118.5C10118.5 2080.11 10202.9 2164.5 10307 2164.5V2164ZM10119 1976H10119.5C10119.5 1872.45 10203.4 1788.5 10307 1788.5V1788V1787.5C10202.9 1787.5 10118.5 1871.89 10118.5 1976H10119ZM10307 1880V1879.5C10253.7 1879.5 10210.5 1922.7 10210.5 1976H10211H10211.5C10211.5 1923.26 10254.3 1880.5 10307 1880.5V1880ZM10211 1976H10210.5C10210.5 2029.3 10253.7 2072.5 10307 2072.5V2072V2071.5C10254.3 2071.5 10211.5 2028.74 10211.5 1976H10211ZM10307 2072V2072.5C10360.3 2072.5 10403.5 2029.3 10403.5 1976H10403H10402.5C10402.5 2028.74 10359.7 2071.5 10307 2071.5V2072ZM10403 1976H10403.5C10403.5 1922.7 10360.3 1879.5 10307 1879.5V1880V1880.5C10359.7 1880.5 10402.5 1923.26 10402.5 1976H10403Z" fill="#BEBEBE" id="n264"/>
<g mask="url(#mask30_68_6728)" id="n266">
<path d="M10307 1788C10410.8 1788 10495 1872.17 10495 1976C10495 2079.83 10410.8 2164 10307 2164C10203.2 2164 10119 2079.83 10119 1976C10119 1872.17 10203.2 1788 10307 1788ZM10307 1879C10253.4 1879 10210 1922.43 10210 1976C10210 2029.57 10253.4 2073 10307 2073C10360.6 2073 10404 2029.57 10404 1976C10404 1922.43 10360.6 1879 10307 1879Z" fill="#BEBEBE" id="n267"/>
<path d="M10307 1788V1788.5C10410.6 1788.5 10494.5 1872.45 10494.5 1976H10495H10495.5C10495.5 1871.89 10411.1 1787.5 10307 1787.5V1788ZM10495 1976H10494.5C10494.5 2079.55 10410.6 2163.5 10307 2163.5V2164V2164.5C10411.1 2164.5 10495.5 2080.11 10495.5 1976H10495ZM10307 2164V2163.5C10203.4 2163.5 10119.5 2079.55 10119.5 1976H10119H10118.5C10118.5 2080.11 10202.9 2164.5 10307 2164.5V2164ZM10119 1976H10119.5C10119.5 1872.45 10203.4 1788.5 10307 1788.5V1788V1787.5C10202.9 1787.5 10118.5 1871.89 10118.5 1976H10119ZM10307 1879V1878.5C10253.2 1878.5 10209.5 1922.15 10209.5 1976H10210H10210.5C10210.5 1922.7 10253.7 1879.5 10307 1879.5V1879ZM10210 1976H10209.5C10209.5 2029.85 10253.2 2073.5 10307 2073.5V2073V2072.5C10253.7 2072.5 10210.5 2029.3 10210.5 1976H10210ZM10307 2073V2073.5C10360.8 2073.5 10404.5 2029.85 10404.5 1976H10404H10403.5C10403.5 2029.3 10360.3 2072.5 10307 2072.5V2073ZM10404 1976H10404.5C10404.5 1922.15 10360.8 1878.5 10307 1878.5V1879V1879.5C10360.3 1879.5 10403.5 1922.7 10403.5 1976H10404Z" fill="#BEBEBE" id="n268"/>
</g>
<path fill-rule="evenodd" clip-rule="evenodd" d="M10307 1788C10410.8 1788 10495 1872.17 10495 1976C10495 2079.83 10410.8 2164 10307 2164C10203.2 2164 10119 2079.83 10119 1976C10119 1872.17 10203.2 1788 10307 1788ZM10307 1812C10216.4 1812 10143 1885.43 10143 1976C10143 2066.57 10216.4 2140 10307 2140C10397.6 2140 10471 2066.57 10471 1976C10471 1885.43 10397.6 1812 10307 1812Z" fill="white" stroke="white" id="n269"/>
<path fill-rule="evenodd" clip-rule="evenodd" d="M10307 1812C10397.6 1812 10471 1885.43 10471 1976C10471 2066.57 10397.6 2140 10307 2140C10216.4 2140 10143 2066.57 10143 1976C10143 1885.43 10216.4 1812 10307 1812ZM10307 1860C10242.9 1860 10191 1911.93 10191 1976C10191 2040.07 10242.9 2092 10307 2092C10371.1 2092 10423 2040.07 10423 1976C10423 1911.93 10371.1 1860 10307 1860Z" fill="#F0F0F0" stroke="#F0F0F0" id="n270"/>
<path fill-rule="evenodd" clip-rule="evenodd" d="M10307 1788C10410.8 1788 10495 1872.17 10495 1976C10495 2079.83 10410.8 2164 10307 2164C10203.2 2164 10119 2079.83 10119 1976C10119 1872.17 10203.2 1788 10307 1788ZM10307 1860C10242.9 1860 10191 1911.93 10191 1976C10191 2040.07 10242.9 2092 10307 2092C10371.1 2092 10423 2040.07 10423 1976C10423 1911.93 10371.1 1860 10307 1860Z" stroke="#BEBEBE" id="n271"/>
<g mask="url(#mask31_68_6728)" id="n273">
<path d="M10051 1976H10563" stroke="#BEBEBE" stroke-linecap="square" id="n274"/>
<path d="M10307 1720L10307 2232" stroke="#BEBEBE" stroke-linecap="square" id="n275"/>
</g>
<g mask="url(#mask32_68_6728)" id="n277">
<mask id="mask33_68_6728" style="mask-type:alpha" maskUnits="userSpaceOnUse" x="10051" y="1720" width="512" height="512">
<path d="M10307 1784C10413 1784 10499 1869.96 10499 1976C10499 2082.04 10413 2168 10307 2168C10201 2168 10115 2082.04 10115 1976C10115 1869.96 10201 1784 10307 1784ZM10307 1808C10214.2 1808 10139 1883.22 10139 1976C10139 2068.78 10214.2 2144 10307 2144C10399.8 2144 10475 2068.78 10475 1976C10475 1883.22 10399.8 1808 10307 1808Z" fill="black" id="n278"/>
</mask>
<g mask="url(#mask33_68_6728)" id="n279">
<path d="M10307 1776V1976M10307 1976H10107M10307 1976V2176M10307 1976H10507" stroke="#BEBEBE" id="n280"/>
</g>
<mask id="mask34_68_6728" style="mask-type:alpha" maskUnits="userSpaceOnUse" x="10051" y="1720" width="512" height="512">
<path d="M10307 1784C10413 1784 10499 1869.96 10499 1976C10499 2082.04 10413 2168 10307 2168C10201 2168 10115 2082.04 10115 1976C10115 1869.96 10201 1784 10307 1784ZM10307 1812C10216.4 1812 10143 1885.43 10143 1976C10143 2066.57 10216.4 2140 10307 2140C10397.6 2140 10471 2066.57 10471 1976C10471 1885.43 10397.6 1812 10307 1812Z" fill="black" id="n281"/>
</mask>
<g mask="url(#mask34_68_6728)" id="n282">
<path d="M10307 1776V1976M10307 1976H10107M10307 1976V2176M10307 1976H10507" stroke="#BEBEBE" id="n283"/>
</g>
</g>
<path d="M10310.3 1779H10309.2L10304.5 1771.78H10304.5C10304.5 1771.92 10304.5 1772.08 10304.5 1772.26C10304.5 1772.42 10304.5 1772.61 10304.5 1772.81C10304.5 1773 10304.5 1773.2 10304.5 1773.41C10304.6 1773.62 10304.6 1773.82 10304.6 1774.03V1779H10303.7V1770.43H10304.8L10309.5 1777.63H10309.5C10309.5 1777.53 10309.5 1777.39 10309.5 1777.22C10309.5 1777.06 10309.5 1776.87 10309.5 1776.67C10309.4 1776.46 10309.4 1776.26 10309.4 1776.05C10309.4 1775.83 10309.4 1775.63 10309.4 1775.45V1770.43H10310.3V1779Z" fill="#707070" id="n284"/>
<path d="M10309.7 2180.73C10309.7 2181.24 10309.6 2181.68 10309.3 2182.03C10309.1 2182.38 10308.7 2182.65 10308.3 2182.84C10307.8 2183.03 10307.3 2183.12 10306.7 2183.12C10306.4 2183.12 10306 2183.1 10305.8 2183.07C10305.5 2183.04 10305.2 2183 10305 2182.94C10304.7 2182.88 10304.5 2182.8 10304.3 2182.72V2181.79C10304.6 2181.92 10305 2182.03 10305.4 2182.14C10305.8 2182.23 10306.3 2182.28 10306.7 2182.28C10307.2 2182.28 10307.5 2182.22 10307.8 2182.11C10308.1 2181.99 10308.4 2181.82 10308.5 2181.61C10308.7 2181.38 10308.8 2181.12 10308.8 2180.8C10308.8 2180.51 10308.7 2180.26 10308.5 2180.06C10308.4 2179.86 10308.2 2179.68 10307.9 2179.52C10307.6 2179.35 10307.2 2179.18 10306.7 2179C10306.3 2178.87 10306 2178.72 10305.7 2178.57C10305.4 2178.42 10305.2 2178.25 10305 2178.06C10304.8 2177.86 10304.7 2177.64 10304.6 2177.38C10304.5 2177.13 10304.4 2176.83 10304.4 2176.5C10304.4 2176.03 10304.6 2175.64 10304.8 2175.32C10305 2174.99 10305.3 2174.74 10305.8 2174.58C10306.2 2174.4 10306.6 2174.31 10307.2 2174.31C10307.6 2174.31 10308.1 2174.36 10308.4 2174.44C10308.8 2174.52 10309.2 2174.64 10309.5 2174.79L10309.2 2175.61C10308.9 2175.48 10308.6 2175.38 10308.2 2175.3C10307.9 2175.21 10307.5 2175.16 10307.1 2175.16C10306.8 2175.16 10306.5 2175.22 10306.2 2175.33C10306 2175.44 10305.8 2175.59 10305.6 2175.79C10305.5 2175.99 10305.4 2176.22 10305.4 2176.5C10305.4 2176.81 10305.5 2177.06 10305.6 2177.26C10305.7 2177.46 10306 2177.64 10306.2 2177.79C10306.5 2177.94 10306.9 2178.1 10307.3 2178.27C10307.8 2178.46 10308.3 2178.65 10308.6 2178.86C10309 2179.07 10309.3 2179.32 10309.4 2179.62C10309.6 2179.9 10309.7 2180.28 10309.7 2180.73Z" fill="#707070" id="n285"/>
<path d="M10509.1 1981H10504.3V1972.43H10509.1V1973.28H10505.3V1976.09H10508.9V1976.93H10505.3V1980.15H10509.1V1981Z" fill="#707070" id="n286"/>
<path d="M10110.3 1972.43L10108 1981H10107.1L10105.4 1975.18C10105.3 1975.02 10105.3 1974.86 10105.2 1974.7C10105.2 1974.53 10105.1 1974.38 10105.1 1974.23C10105.1 1974.08 10105 1973.95 10105 1973.84C10105 1973.72 10105 1973.64 10104.9 1973.57C10104.9 1973.64 10104.9 1973.72 10104.9 1973.84C10104.9 1973.94 10104.9 1974.07 10104.8 1974.22C10104.8 1974.36 10104.7 1974.52 10104.7 1974.68C10104.7 1974.84 10104.6 1975 10104.6 1975.17L10102.9 1981H10101.9L10099.7 1972.43H10100.7L10102.1 1977.86C10102.1 1978.03 10102.1 1978.21 10102.2 1978.38C10102.2 1978.55 10102.3 1978.72 10102.3 1978.89C10102.3 1979.05 10102.4 1979.2 10102.4 1979.36C10102.4 1979.51 10102.4 1979.66 10102.5 1979.8C10102.5 1979.65 10102.5 1979.5 10102.5 1979.34C10102.6 1979.18 10102.6 1979.02 10102.6 1978.85C10102.7 1978.68 10102.7 1978.5 10102.8 1978.32C10102.8 1978.15 10102.9 1977.98 10102.9 1977.81L10104.5 1972.43H10105.5L10107.1 1977.84C10107.1 1978.02 10107.2 1978.2 10107.2 1978.38C10107.3 1978.56 10107.3 1978.73 10107.3 1978.9C10107.4 1979.06 10107.4 1979.22 10107.4 1979.38C10107.5 1979.53 10107.5 1979.68 10107.5 1979.81C10107.6 1979.62 10107.6 1979.42 10107.6 1979.21C10107.7 1979 10107.7 1978.79 10107.8 1978.56C10107.8 1978.33 10107.9 1978.1 10107.9 1977.86L10109.3 1972.43H10110.3Z" fill="#707070" id="n287"/>
<path d="M10327.6 1781.54C10328.8 1782.92 10327.7 1785.09 10325.8 1784.91C10319.6 1784.31 10313.4 1784 10307 1784C10300.6 1784 10294.4 1784.31 10288.2 1784.91C10286.3 1785.09 10285.2 1782.92 10286.4 1781.54L10305.5 1759.72C10306.3 1758.81 10307.7 1758.81 10308.5 1759.72L10327.6 1781.54Z" fill="#8E8E8E" id="n288"/>
<path d="M10310.6 1781H10308.4L10304.6 1774.45H10304.5C10304.5 1774.64 10304.5 1774.84 10304.6 1775.04C10304.6 1775.24 10304.6 1775.44 10304.6 1775.65C10304.6 1775.85 10304.6 1776.05 10304.6 1776.26C10304.6 1776.47 10304.6 1776.68 10304.6 1776.88V1781H10303.1V1772.43H10305.3L10309.1 1778.92H10309.1C10309.1 1778.74 10309.1 1778.55 10309.1 1778.36C10309.1 1778.16 10309.1 1777.96 10309.1 1777.77C10309.1 1777.57 10309.1 1777.37 10309.1 1777.17C10309 1776.97 10309 1776.77 10309 1776.57V1772.43H10310.6V1781Z" fill="white" id="n289"/>
<path d="M10298.3 1974.89L10293.3 1956.16C10288.2 1937.09 10296 1935 10296 1935C10296 1935 10303.8 1932.9 10308.9 1951.96L10315.6 1976.94L10325 2011.82C10325.3 2012.88 10324.6 2013.98 10323.6 2014.27L10323.5 2014.27L10311.8 2017.42L10311.8 2017.42C10310.7 2017.71 10309.6 2017.08 10309.3 2016.01L10298.3 1974.89Z" fill="white" id="n290"/>
<path d="M10298.3 1974.89L10299.9 1970.25L10299 1966.96L10309.7 1964.08L10312.7 1975.25L10315.6 1976.94M10315.6 1976.94L10325 2011.82C10325.3 2012.88 10324.6 2013.98 10323.6 2014.27L10323.5 2014.27L10311.8 2017.42L10311.8 2017.42C10310.7 2017.71 10309.6 2017.08 10309.3 2016.01L10293.3 1956.16C10288.2 1937.09 10296 1935 10296 1935C10296 1935 10303.8 1932.9 10308.9 1951.96L10315.6 1976.94Z" stroke="#8E8E8E" id="n291"/>
<path d="M10298 1963.13L10294 1964.17L10292.6 1958.96L10295.9 1955.3L10296.7 1948.08L10301.9 1946.69L10306.3 1952.51L10310.9 1954.07L10312.3 1959.28L10308.4 1960.33L10307 1962.81L10300.4 1964.56L10298 1963.13Z" fill="white" id="n292"/>
<path d="M10300.4 1964.56L10298 1963.13L10294 1964.17L10292.6 1958.96L10295.9 1955.3L10296.7 1948.08M10300.4 1964.56L10307 1962.81M10300.4 1964.56L10298 1955.43C10297.5 1952.84 10296.7 1948.08 10296.7 1948.08M10307 1962.81L10308.4 1960.33L10312.3 1959.28L10310.9 1954.07L10306.3 1952.51L10301.9 1946.69M10307 1962.81L10304.5 1953.68C10303.7 1951.17 10301.9 1946.69 10301.9 1946.69M10301.9 1946.69L10296.7 1948.08" stroke="#8E8E8E" id="n293"/>
<path d="M10305.5 1957.52L10306.4 1960.78L10305.3 1961.78L10301.4 1962.83L10299.9 1962.53L10299 1959.27L10300.8 1960.88L10304.8 1959.83L10305.5 1957.52Z" fill="white" id="n294"/>
<path d="M10304.8 1959.83L10305.5 1957.52L10306.4 1960.78L10305.3 1961.78M10304.8 1959.83L10300.8 1960.88M10304.8 1959.83L10305.3 1961.78M10300.8 1960.88L10299 1959.27L10299.9 1962.53L10301.4 1962.83M10300.8 1960.88L10301.4 1962.83M10301.4 1962.83L10305.3 1961.78" stroke="#8E8E8E" id="n295"/>
<path d="M10306.5 1974.5L10268.4 2040.52C10267.4 2042.16 10264.9 2041.69 10264.7 2039.81L10261.1 2014.99C10261 2014.67 10261.1 2014.34 10261.2 2014.03L10274.5 1976.64C10275.1 1974.83 10273.1 1973.24 10271.5 1974.3L10257.4 1983.6C10255.7 1984.71 10253.6 1982.91 10254.5 1981.09L10265.5 1957.5" stroke="url(#paint2_linear_68_6728)" stroke-width="4" id="n296"/>
<path d="M10313 1976C10313 1979.31 10310.3 1982 10307 1982C10303.7 1982 10301 1979.31 10301 1976C10301 1972.69 10303.7 1970 10307 1970C10310.3 1970 10313 1972.69 10313 1976Z" fill="#535353" stroke="#F7F7F7" stroke-width="4" id="n297"/>
<g clip-path="url(#clip5_68_6728)" id="n298">
<mask id="path-247-outside-1_68_6728" maskUnits="userSpaceOnUse" x="10419.6" y="1783.4" width="51.9333" height="55.138" fill="black">
<rect fill="white" x="10419.6" y="1783.4" width="51.9333" height="55.138" id="n299"/>
<path d="M10445.1 1827.63L10430.4 1828.92L10429.1 1814.25L10433.1 1813.9L10434.1 1824.58L10444.7 1823.65L10445.1 1827.63ZM10452.8 1818.44L10438.1 1819.73L10436.8 1805.05L10440.8 1804.71L10441.8 1815.39L10452.5 1814.46L10452.8 1818.44ZM10460.5 1809.25L10445.8 1810.53L10444.6 1795.86L10448.5 1795.51L10449.5 1806.2L10460.2 1805.27L10460.5 1809.25ZM10455.1 1802.63L10452 1800.06L10459.7 1790.86L10462.8 1793.43L10455.1 1802.63Z" id="n300"/>
</mask>
<path d="M10445.1 1827.63L10430.4 1828.92L10429.1 1814.25L10433.1 1813.9L10434.1 1824.58L10444.7 1823.65L10445.1 1827.63ZM10452.8 1818.44L10438.1 1819.73L10436.8 1805.05L10440.8 1804.71L10441.8 1815.39L10452.5 1814.46L10452.8 1818.44ZM10460.5 1809.25L10445.8 1810.53L10444.6 1795.86L10448.5 1795.51L10449.5 1806.2L10460.2 1805.27L10460.5 1809.25ZM10455.1 1802.63L10452 1800.06L10459.7 1790.86L10462.8 1793.43L10455.1 1802.63Z" fill="#535353" id="n301"/>
<path d="M10445.1 1827.63L10445.2 1828.63L10446.2 1828.54L10446.1 1827.55L10445.1 1827.63ZM10430.4 1828.92L10429.4 1829.01L10429.5 1830L10430.5 1829.91L10430.4 1828.92ZM10429.1 1814.25L10429 1813.25L10428 1813.34L10428.1 1814.33L10429.1 1814.25ZM10433.1 1813.9L10434.1 1813.81L10434 1812.81L10433 1812.9L10433.1 1813.9ZM10434.1 1824.58L10433.1 1824.67L10433.1 1825.67L10434.1 1825.58L10434.1 1824.58ZM10444.7 1823.65L10445.7 1823.56L10445.6 1822.57L10444.7 1822.65L10444.7 1823.65ZM10452.8 1818.44L10452.9 1819.44L10453.9 1819.35L10453.8 1818.35L10452.8 1818.44ZM10438.1 1819.73L10437.1 1819.81L10437.2 1820.81L10438.2 1820.72L10438.1 1819.73ZM10436.8 1805.05L10436.8 1804.06L10435.8 1804.15L10435.8 1805.14L10436.8 1805.05ZM10440.8 1804.71L10441.8 1804.62L10441.7 1803.62L10440.7 1803.71L10440.8 1804.71ZM10441.8 1815.39L10440.8 1815.48L10440.9 1816.48L10441.9 1816.39L10441.8 1815.39ZM10452.5 1814.46L10453.4 1814.37L10453.4 1813.37L10452.4 1813.46L10452.5 1814.46ZM10460.5 1809.25L10460.6 1810.25L10461.6 1810.16L10461.5 1809.16L10460.5 1809.25ZM10445.8 1810.53L10444.8 1810.62L10444.9 1811.62L10445.9 1811.53L10445.8 1810.53ZM10444.6 1795.86L10444.5 1794.87L10443.5 1794.95L10443.6 1795.95L10444.6 1795.86ZM10448.5 1795.51L10449.5 1795.43L10449.5 1794.43L10448.5 1794.52L10448.5 1795.51ZM10449.5 1806.2L10448.5 1806.29L10448.6 1807.28L10449.6 1807.2L10449.5 1806.2ZM10460.2 1805.27L10461.2 1805.18L10461.1 1804.18L10460.1 1804.27L10460.2 1805.27ZM10455.1 1802.63L10454.4 1803.39L10455.2 1804.04L10455.9 1803.27L10455.1 1802.63ZM10452 1800.06L10451.3 1799.41L10450.6 1800.18L10451.4 1800.82L10452 1800.06ZM10459.7 1790.86L10460.4 1790.1L10459.6 1789.45L10459 1790.22L10459.7 1790.86ZM10462.8 1793.43L10463.6 1794.08L10464.2 1793.31L10463.4 1792.67L10462.8 1793.43ZM10445.1 1827.63L10445 1826.64L10430.3 1827.92L10430.4 1828.92L10430.5 1829.91L10445.2 1828.63L10445.1 1827.63ZM10430.4 1828.92L10431.4 1828.83L10430.1 1814.16L10429.1 1814.25L10428.1 1814.33L10429.4 1829.01L10430.4 1828.92ZM10429.1 1814.25L10429.2 1815.24L10433.2 1814.89L10433.1 1813.9L10433 1812.9L10429 1813.25L10429.1 1814.25ZM10433.1 1813.9L10432.1 1813.99L10433.1 1824.67L10434.1 1824.58L10435 1824.5L10434.1 1813.81L10433.1 1813.9ZM10434.1 1824.58L10434.1 1825.58L10444.8 1824.65L10444.7 1823.65L10444.7 1822.65L10434 1823.59L10434.1 1824.58ZM10444.7 1823.65L10443.7 1823.74L10444.1 1827.72L10445.1 1827.63L10446.1 1827.55L10445.7 1823.56L10444.7 1823.65ZM10452.8 1818.44L10452.7 1817.45L10438 1818.73L10438.1 1819.73L10438.2 1820.72L10452.9 1819.44L10452.8 1818.44ZM10438.1 1819.73L10439.1 1819.64L10437.8 1804.97L10436.8 1805.05L10435.8 1805.14L10437.1 1819.81L10438.1 1819.73ZM10436.8 1805.05L10436.9 1806.05L10440.9 1805.7L10440.8 1804.71L10440.7 1803.71L10436.8 1804.06L10436.8 1805.05ZM10440.8 1804.71L10439.8 1804.79L10440.8 1815.48L10441.8 1815.39L10442.8 1815.3L10441.8 1804.62L10440.8 1804.71ZM10441.8 1815.39L10441.9 1816.39L10452.5 1815.45L10452.5 1814.46L10452.4 1813.46L10441.7 1814.4L10441.8 1815.39ZM10452.5 1814.46L10451.5 1814.54L10451.8 1818.53L10452.8 1818.44L10453.8 1818.35L10453.4 1814.37L10452.5 1814.46ZM10460.5 1809.25L10460.4 1808.25L10445.8 1809.54L10445.8 1810.53L10445.9 1811.53L10460.6 1810.25L10460.5 1809.25ZM10445.8 1810.53L10446.8 1810.45L10445.6 1795.77L10444.6 1795.86L10443.6 1795.95L10444.8 1810.62L10445.8 1810.53ZM10444.6 1795.86L10444.6 1796.86L10448.6 1796.51L10448.5 1795.51L10448.5 1794.52L10444.5 1794.87L10444.6 1795.86ZM10448.5 1795.51L10447.5 1795.6L10448.5 1806.29L10449.5 1806.2L10450.5 1806.11L10449.5 1795.43L10448.5 1795.51ZM10449.5 1806.2L10449.6 1807.2L10460.3 1806.26L10460.2 1805.27L10460.1 1804.27L10449.4 1805.2L10449.5 1806.2ZM10460.2 1805.27L10459.2 1805.35L10459.5 1809.34L10460.5 1809.25L10461.5 1809.16L10461.2 1805.18L10460.2 1805.27ZM10455.1 1802.63L10455.7 1801.86L10452.7 1799.29L10452 1800.06L10451.4 1800.82L10454.4 1803.39L10455.1 1802.63ZM10452 1800.06L10452.8 1800.7L10460.5 1791.51L10459.7 1790.86L10459 1790.22L10451.3 1799.41L10452 1800.06ZM10459.7 1790.86L10459.1 1791.63L10462.2 1794.2L10462.8 1793.43L10463.4 1792.67L10460.4 1790.1L10459.7 1790.86ZM10462.8 1793.43L10462 1792.79L10454.3 1801.98L10455.1 1802.63L10455.9 1803.27L10463.6 1794.08L10462.8 1793.43Z" fill="#F7F7F7" mask="url(#path-247-outside-1_68_6728)" id="n302"/>
</g>
<g clip-path="url(#clip6_68_6728)" id="n303">
<mask id="path-249-outside-2_68_6728" maskUnits="userSpaceOnUse" x="10379.6" y="1754.2" width="42.8212" height="56.8482" fill="black">
<rect fill="white" x="10379.6" y="1754.2" width="42.8212" height="56.8482" id="n304"/>
<path d="M10419.4 1768.03L10408.6 1762.96L10406.9 1766.58L10417.7 1771.65L10416 1775.28L10405.2 1770.21L10403.5 1773.83L10408.9 1776.37L10407.2 1779.99L10401.8 1777.46L10395.9 1790.15L10399.5 1791.84L10388.1 1801.99L10388.6 1786.77L10392.2 1788.46L10406.6 1757.64L10421.1 1764.4L10419.4 1768.03Z" id="n305"/>
</mask>
<path d="M10419.4 1768.03L10408.6 1762.96L10406.9 1766.58L10417.7 1771.65L10416 1775.28L10405.2 1770.21L10403.5 1773.83L10408.9 1776.37L10407.2 1779.99L10401.8 1777.46L10395.9 1790.15L10399.5 1791.84L10388.1 1801.99L10388.6 1786.77L10392.2 1788.46L10406.6 1757.64L10421.1 1764.4L10419.4 1768.03Z" fill="#535353" id="n306"/>
<path d="M10419.4 1768.03L10419 1768.94L10419.9 1769.36L10420.3 1768.45L10419.4 1768.03ZM10408.6 1762.96L10409 1762.05L10408.1 1761.63L10407.6 1762.53L10408.6 1762.96ZM10406.9 1766.58L10406 1766.16L10405.5 1767.07L10406.4 1767.49L10406.9 1766.58ZM10417.7 1771.65L10418.6 1772.08L10419.1 1771.17L10418.2 1770.75L10417.7 1771.65ZM10416 1775.28L10415.6 1776.19L10416.5 1776.61L10417 1775.7L10416 1775.28ZM10405.2 1770.21L10405.6 1769.3L10404.7 1768.88L10404.3 1769.79L10405.2 1770.21ZM10403.5 1773.83L10402.6 1773.41L10402.2 1774.32L10403.1 1774.74L10403.5 1773.83ZM10408.9 1776.37L10409.8 1776.79L10410.2 1775.89L10409.3 1775.46L10408.9 1776.37ZM10407.2 1779.99L10406.8 1780.9L10407.7 1781.32L10408.1 1780.42L10407.2 1779.99ZM10401.8 1777.46L10402.2 1776.55L10401.3 1776.13L10400.9 1777.04L10401.8 1777.46ZM10395.9 1790.15L10395 1789.72L10394.5 1790.63L10395.4 1791.05L10395.9 1790.15ZM10399.5 1791.84L10400.2 1792.58L10401.3 1791.57L10399.9 1790.93L10399.5 1791.84ZM10388.1 1801.99L10387.1 1801.96L10387.1 1804.29L10388.8 1802.74L10388.1 1801.99ZM10388.6 1786.77L10389 1785.86L10387.7 1785.22L10387.6 1786.73L10388.6 1786.77ZM10392.2 1788.46L10391.8 1789.36L10392.7 1789.79L10393.2 1788.88L10392.2 1788.46ZM10406.6 1757.64L10407 1756.74L10406.1 1756.31L10405.7 1757.22L10406.6 1757.64ZM10421.1 1764.4L10422 1764.83L10422.4 1763.92L10421.5 1763.5L10421.1 1764.4ZM10419.4 1768.03L10419.8 1767.12L10409 1762.05L10408.6 1762.96L10408.1 1763.86L10419 1768.94L10419.4 1768.03ZM10408.6 1762.96L10407.6 1762.53L10406 1766.16L10406.9 1766.58L10407.8 1767.01L10409.5 1763.38L10408.6 1762.96ZM10406.9 1766.58L10406.4 1767.49L10417.3 1772.56L10417.7 1771.65L10418.2 1770.75L10407.3 1765.68L10406.9 1766.58ZM10417.7 1771.65L10416.8 1771.23L10415.1 1774.86L10416 1775.28L10417 1775.7L10418.6 1772.08L10417.7 1771.65ZM10416 1775.28L10416.5 1774.37L10405.6 1769.3L10405.2 1770.21L10404.7 1771.11L10415.6 1776.19L10416 1775.28ZM10405.2 1770.21L10404.3 1769.79L10402.6 1773.41L10403.5 1773.83L10404.4 1774.26L10406.1 1770.63L10405.2 1770.21ZM10403.5 1773.83L10403.1 1774.74L10408.5 1777.28L10408.9 1776.37L10409.3 1775.46L10403.9 1772.93L10403.5 1773.83ZM10408.9 1776.37L10408 1775.95L10406.3 1779.57L10407.2 1779.99L10408.1 1780.42L10409.8 1776.79L10408.9 1776.37ZM10407.2 1779.99L10407.6 1779.09L10402.2 1776.55L10401.8 1777.46L10401.4 1778.36L10406.8 1780.9L10407.2 1779.99ZM10401.8 1777.46L10400.9 1777.04L10395 1789.72L10395.9 1790.15L10396.8 1790.57L10402.7 1777.88L10401.8 1777.46ZM10395.9 1790.15L10395.4 1791.05L10399.1 1792.74L10399.5 1791.84L10399.9 1790.93L10396.3 1789.24L10395.9 1790.15ZM10399.5 1791.84L10398.8 1791.09L10387.5 1801.24L10388.1 1801.99L10388.8 1802.74L10400.2 1792.58L10399.5 1791.84ZM10388.1 1801.99L10389.1 1802.02L10389.6 1786.8L10388.6 1786.77L10387.6 1786.73L10387.1 1801.96L10388.1 1801.99ZM10388.6 1786.77L10388.2 1787.67L10391.8 1789.36L10392.2 1788.46L10392.7 1787.55L10389 1785.86L10388.6 1786.77ZM10392.2 1788.46L10393.2 1788.88L10407.5 1758.06L10406.6 1757.64L10405.7 1757.22L10391.3 1788.03L10392.2 1788.46ZM10406.6 1757.64L10406.2 1758.55L10420.7 1765.31L10421.1 1764.4L10421.5 1763.5L10407 1756.74L10406.6 1757.64ZM10421.1 1764.4L10420.2 1763.98L10418.5 1767.61L10419.4 1768.03L10420.3 1768.45L10422 1764.83L10421.1 1764.4Z" fill="#F7F7F7" mask="url(#path-249-outside-2_68_6728)" id="n307"/>
</g>
<path d="M10251.6 1826.55C10251.6 1825.66 10252.8 1825.25 10253.4 1825.91L10279.9 1855.26C10281.2 1856.67 10279.9 1858.9 10278 1858.53L10263.2 1855.72L10253.7 1867.38C10252.5 1868.88 10250.1 1868.01 10250.1 1866.1L10251.6 1826.55ZM10254.4 1860.22L10261.6 1851.34L10272.9 1853.47L10255.3 1834.05L10254.4 1860.22Z" fill="#535353" id="n310"/>
<path d="M10251.6 1826.55L10250.6 1826.52L10250.6 1826.52L10251.6 1826.55ZM10253.4 1825.91L10254.1 1825.24L10254.1 1825.24L10253.4 1825.91ZM10279.9 1855.26L10279.2 1855.93L10279.2 1855.93L10279.9 1855.26ZM10278 1858.53L10278.2 1857.55L10278.2 1857.55L10278 1858.53ZM10263.2 1855.72L10263.4 1854.74L10262.8 1854.63L10262.4 1855.09L10263.2 1855.72ZM10253.7 1867.38L10252.9 1866.75L10252.9 1866.75L10253.7 1867.38ZM10250.1 1866.1L10251.1 1866.14L10251.1 1866.14L10250.1 1866.1ZM10254.4 1860.22L10253.4 1860.18L10253.2 1863.15L10255.1 1860.85L10254.4 1860.22ZM10261.6 1851.34L10261.8 1850.35L10261.2 1850.24L10260.9 1850.7L10261.6 1851.34ZM10272.9 1853.47L10272.7 1854.45L10275.6 1855L10273.6 1852.79L10272.9 1853.47ZM10255.3 1834.05L10256.1 1833.38L10254.4 1831.56L10254.3 1834.01L10255.3 1834.05ZM10251.6 1826.55L10252.6 1826.59C10252.6 1826.59 10252.6 1826.58 10252.6 1826.58C10252.6 1826.58 10252.6 1826.58 10252.6 1826.59C10252.6 1826.59 10252.6 1826.59 10252.6 1826.6C10252.6 1826.6 10252.6 1826.6 10252.6 1826.6C10252.6 1826.59 10252.6 1826.59 10252.6 1826.59C10252.6 1826.59 10252.6 1826.59 10252.6 1826.59C10252.6 1826.59 10252.6 1826.59 10252.6 1826.59C10252.6 1826.59 10252.6 1826.58 10252.6 1826.58C10252.6 1826.58 10252.6 1826.58 10252.6 1826.58C10252.6 1826.58 10252.6 1826.58 10252.6 1826.59L10253.4 1825.91L10254.1 1825.24C10252.9 1823.92 10250.7 1824.73 10250.6 1826.52L10251.6 1826.55ZM10253.4 1825.91L10252.6 1826.59L10279.2 1855.93L10279.9 1855.26L10280.7 1854.59L10254.1 1825.24L10253.4 1825.91ZM10279.9 1855.26L10279.2 1855.93C10279.8 1856.59 10279.2 1857.75 10278.2 1857.55L10278 1858.53L10277.8 1859.51C10280.6 1860.05 10282.6 1856.76 10280.7 1854.59L10279.9 1855.26ZM10278 1858.53L10278.2 1857.55L10263.4 1854.74L10263.2 1855.72L10263 1856.7L10277.8 1859.52L10278 1858.53ZM10263.2 1855.72L10262.4 1855.09L10252.9 1866.75L10253.7 1867.38L10254.5 1868.01L10264 1856.35L10263.2 1855.72ZM10253.7 1867.38L10252.9 1866.75C10252.3 1867.55 10251.1 1867.02 10251.1 1866.14L10250.1 1866.1L10249.1 1866.06C10249 1868.99 10252.7 1870.2 10254.5 1868.01L10253.7 1867.38ZM10250.1 1866.1L10251.1 1866.14L10252.6 1826.59L10251.6 1826.55L10250.6 1826.52L10249.1 1866.06L10250.1 1866.1ZM10254.4 1860.22L10255.1 1860.85L10262.4 1851.97L10261.6 1851.34L10260.9 1850.7L10253.6 1859.58L10254.4 1860.22ZM10261.6 1851.34L10261.4 1852.32L10272.7 1854.45L10272.9 1853.47L10273.1 1852.48L10261.8 1850.35L10261.6 1851.34ZM10272.9 1853.47L10273.6 1852.79L10256.1 1833.38L10255.3 1834.05L10254.6 1834.72L10272.2 1854.14L10272.9 1853.47ZM10255.3 1834.05L10254.3 1834.01L10253.4 1860.18L10254.4 1860.22L10255.4 1860.25L10256.3 1834.09L10255.3 1834.05Z" fill="#F7F7F7" mask="url(#path-251-outside-3_68_6728)" id="n311"/>
<path d="M10264.4 1822.23C10264.5 1820.9 10266.2 1820.44 10267 1821.51L10290.9 1853.06C10292.4 1854.98 10290.5 1857.59 10288.2 1856.93L10288.2 1856.93L10274 1852.92L10263.7 1863.49C10262.1 1865.2 10259.1 1863.9 10259.4 1861.5L10264.4 1822.23Z" fill="#535353" stroke="#F7F7F7" id="n312"/>
</g>
</svg>
