<?xml version='1.0' encoding='utf-8'?>
<svg xmlns="http://www.w3.org/2000/svg" xmlns:xlink="http://www.w3.org/1999/xlink" width="384.0" height="384.0" viewBox="0 0 384.0 384.0" fill="none">
  <defs><clipPath id="clip__asset"><rect x="0" y="0" width="384.0" height="384.0"/></clipPath><mask id="mask162_68_6728" style="mask-type:alpha" maskUnits="userSpaceOnUse" x="3737" y="1314" width="322" height="322">
<circle cx="3898" cy="1475" r="159.5" transform="rotate(30 3898 1475)" fill="#666666" stroke="#666666" id="n1353"/>
</mask>
<mask id="mask163_68_6728" style="mask-type:luminance" maskUnits="userSpaceOnUse" x="3642" y="1219" width="512" height="512">
<path fill-rule="evenodd" clip-rule="evenodd" d="M3898 1287C4001.83 1287 4086 1371.17 4086 1475C4086 1578.83 4001.83 1663 3898 1663C3794.17 1663 3710 1578.83 3710 1475C3710 1371.17 3794.17 1287 3898 1287ZM3898 1311C3807.43 1311 3734 1384.43 3734 1475C3734 1565.57 3807.43 1639 3898 1639C3988.57 1639 4062 1565.57 4062 1475C4062 1384.43 3988.57 1311 3898 1311Z" fill="white" stroke="black" id="n1361"/>
</mask>
<mask id="mask164_68_6728" style="mask-type:alpha" maskUnits="userSpaceOnUse" x="3642" y="1219" width="512" height="512">
<path d="M3898 1291C3999.62 1291 4082 1373.38 4082 1475C4082 1576.62 3999.62 1659 3898 1659C3796.38 1659 3714 1576.62 3714 1475C3714 1373.38 3796.38 1291 3898 1291ZM3898 1315C3809.63 1315 3738 1386.63 3738 1475C3738 1563.37 3809.63 1635 3898 1635C3986.37 1635 4058 1563.37 4058 1475C4058 1386.63 3986.37 1315 3898 1315Z" fill="black" id="n1363"/>
</mask>
<mask id="mask165_68_6728" style="mask-type:alpha" maskUnits="userSpaceOnUse" x="3642" y="1219" width="512" height="512">
<path d="M3898 1283C4004.04 1283 4090 1368.96 4090 1475C4090 1581.04 4004.04 1667 3898 1667C3791.96 1667 3706 1581.04 3706 1475C3706 1368.96 3791.96 1283 3898 1283ZM3898 1311C3807.43 1311 3734 1384.43 3734 1475C3734 1565.57 3807.43 1639 3898 1639C3988.57 1639 4062 1565.57 4062 1475C4062 1384.43 3988.57 1311 3898 1311Z" fill="black" id="n1366"/>
</mask>
<mask id="path-946-outside-33_68_6728" maskUnits="userSpaceOnUse" x="3886.4" y="1378.91" width="160.028" height="113.177" fill="black">
<rect fill="white" x="3886.4" y="1378.91" width="160.028" height="113.177" id="n1370"/>
<path d="M3897.27 1477.73L3895.27 1474.27L3906.31 1467.89L3908.31 1471.36L3897.27 1477.73ZM3912.03 1469.21L3910.03 1465.74L3928.65 1454.99L3930.65 1458.46L3912.03 1469.21ZM3934.38 1456.31L3932.38 1452.84L3951 1442.09L3953 1445.56L3934.38 1456.31ZM3956.72 1443.41L3954.72 1439.94L3973.34 1429.19L3975.34 1432.66L3956.72 1443.41ZM3979.07 1430.51L3977.07 1427.04L3995.68 1416.29L3997.68 1419.76L3979.07 1430.51ZM4035.56 1394.5C4036.45 1394.38 4037.04 1395.41 4036.49 1396.12L4012.2 1427.36C4011.03 1428.87 4008.62 1427.98 4008.65 1426.05L4008.82 1413.33L4001.41 1417.61L3999.41 1414.14L4006.82 1409.86L3995.72 1403.65C3994.03 1402.72 3994.47 1400.17 3996.35 1399.91L4035.56 1394.5ZM4002.89 1403.05L4012.89 1408.67L4012.75 1420.14L4028.82 1399.47L4002.89 1403.05Z" id="n1371"/>
</mask>
<mask id="path-954-outside-34_68_6728" maskUnits="userSpaceOnUse" x="3789.55" y="1318.57" width="218.39" height="310.262" fill="black">
<rect fill="white" x="3789.55" y="1318.57" width="218.39" height="310.262" id="n1380"/>
<path d="M3820.37 1611.47L3818.63 1610.47L3819.63 1608.73L3821.37 1609.73L3820.37 1611.47ZM3822.37 1608L3820.63 1607L3821.63 1605.27L3823.37 1606.27L3822.37 1608ZM3824.37 1604.54L3822.63 1603.54L3823.63 1601.8L3825.37 1602.8L3824.37 1604.54ZM3826.37 1601.07L3824.63 1600.07L3825.63 1598.34L3827.37 1599.34L3826.37 1601.07ZM3828.37 1597.61L3826.63 1596.61L3827.63 1594.88L3829.37 1595.88L3828.37 1597.61ZM3830.37 1594.14L3828.63 1593.14L3829.63 1591.41L3831.37 1592.41L3830.37 1594.14ZM3832.37 1590.68L3830.63 1589.68L3831.63 1587.95L3833.37 1588.95L3832.37 1590.68ZM3834.37 1587.22L3832.63 1586.22L3833.63 1584.48L3835.37 1585.48L3834.37 1587.22ZM3836.37 1583.75L3834.63 1582.75L3835.63 1581.02L3837.37 1582.02L3836.37 1583.75ZM3838.37 1580.29L3836.63 1579.29L3837.63 1577.56L3839.37 1578.56L3838.37 1580.29ZM3840.37 1576.82L3838.63 1575.82L3839.63 1574.09L3841.37 1575.09L3840.37 1576.82ZM3842.37 1573.36L3840.63 1572.36L3841.63 1570.63L3843.37 1571.63L3842.37 1573.36ZM3844.37 1569.9L3842.63 1568.9L3843.63 1567.16L3845.37 1568.16L3844.37 1569.9ZM3846.37 1566.43L3844.63 1565.43L3845.63 1563.7L3847.37 1564.7L3846.37 1566.43ZM3848.37 1562.97L3846.63 1561.97L3847.63 1560.24L3849.37 1561.24L3848.37 1562.97ZM3850.37 1559.5L3848.63 1558.5L3849.63 1556.77L3851.37 1557.77L3850.37 1559.5ZM3852.37 1556.04L3850.63 1555.04L3851.63 1553.31L3853.37 1554.31L3852.37 1556.04ZM3854.37 1552.58L3852.63 1551.58L3853.63 1549.84L3855.37 1550.84L3854.37 1552.58ZM3856.37 1549.11L3854.63 1548.11L3855.63 1546.38L3857.37 1547.38L3856.37 1549.11ZM3858.37 1545.65L3856.63 1544.65L3857.63 1542.92L3859.37 1543.92L3858.37 1545.65ZM3860.37 1542.18L3858.63 1541.18L3859.63 1539.45L3861.37 1540.45L3860.37 1542.18ZM3862.37 1538.72L3860.63 1537.72L3861.63 1535.99L3863.37 1536.99L3862.37 1538.72ZM3864.37 1535.25L3862.63 1534.25L3863.63 1532.52L3865.37 1533.52L3864.37 1535.25ZM3866.37 1531.79L3864.63 1530.79L3865.63 1529.06L3867.37 1530.06L3866.37 1531.79ZM3868.37 1528.33L3866.63 1527.33L3867.63 1525.59L3869.37 1526.59L3868.37 1528.33ZM3870.37 1524.86L3868.63 1523.86L3869.63 1522.13L3871.37 1523.13L3870.37 1524.86ZM3872.37 1521.4L3870.63 1520.4L3871.63 1518.67L3873.37 1519.67L3872.37 1521.4ZM3874.37 1517.93L3872.63 1516.93L3873.63 1515.2L3875.37 1516.2L3874.37 1517.93ZM3876.37 1514.47L3874.63 1513.47L3875.63 1511.74L3877.37 1512.74L3876.37 1514.47ZM3878.37 1511.01L3876.63 1510.01L3877.63 1508.27L3879.37 1509.27L3878.37 1511.01ZM3880.37 1507.54L3878.63 1506.54L3879.63 1504.81L3881.37 1505.81L3880.37 1507.54ZM3882.37 1504.08L3880.63 1503.08L3881.63 1501.35L3883.37 1502.35L3882.37 1504.08ZM3884.37 1500.61L3882.63 1499.61L3883.63 1497.88L3885.37 1498.88L3884.37 1500.61ZM3886.37 1497.15L3884.63 1496.15L3885.63 1494.42L3887.37 1495.42L3886.37 1497.15ZM3888.37 1493.69L3886.63 1492.69L3887.63 1490.95L3889.37 1491.95L3888.37 1493.69ZM3890.37 1490.22L3888.63 1489.22L3889.63 1487.49L3891.37 1488.49L3890.37 1490.22ZM3892.37 1486.76L3890.63 1485.76L3891.63 1484.03L3893.37 1485.03L3892.37 1486.76ZM3894.37 1483.29L3892.63 1482.29L3893.63 1480.56L3895.37 1481.56L3894.37 1483.29ZM3976.88 1336.51C3977.59 1335.96 3978.62 1336.55 3978.5 1337.44L3973.08 1376.65C3972.82 1378.53 3970.28 1378.97 3969.35 1377.28L3962.57 1365.16L3900.8 1472.14C3901.84 1473.16 3902.24 1474.67 3901.85 1476.07L3926.21 1490.13C3926.69 1490.41 3926.85 1491.02 3926.58 1491.5C3926.3 1491.98 3925.69 1492.14 3925.21 1491.87L3900.85 1477.8C3899.84 1478.84 3898.33 1479.24 3896.93 1478.85L3896.37 1479.83L3894.63 1478.83L3895.2 1477.85C3894.16 1476.84 3893.75 1475.33 3894.14 1473.93L3869.79 1459.87C3869.31 1459.59 3869.14 1458.98 3869.42 1458.5C3869.7 1458.02 3870.31 1457.86 3870.79 1458.13L3895.14 1472.2C3896.16 1471.16 3897.67 1470.75 3899.07 1471.14L3960.84 1364.16L3946.95 1364.35C3945.02 1364.38 3944.13 1361.97 3945.63 1360.8L3976.88 1336.51ZM3896 1475C3896 1475.69 3896.36 1476.36 3897 1476.73C3897.64 1477.1 3898.4 1477.07 3899 1476.73L3896 1475ZM3898 1473C3897.65 1473 3897.3 1473.09 3897 1473.27L3897.63 1473.63L3898 1473ZM3899.37 1474.63L3900 1475C3900 1474.65 3899.91 1474.3 3899.73 1474L3899.37 1474.63Z" id="n1381"/>
</mask>
</defs>
  <g clip-path="url(#clip__asset)" transform="translate(-3706.0 -1283.0)"><g mask="url(#mask162_68_6728)" id="n1354">
<rect x="3974.04" y="1223.3" width="120" height="512" transform="rotate(30 3974.04 1223.3)" fill="#BEBEBE" stroke="#535353" id="n1355"/>
<path d="M4026 1253.3L3898 1475" stroke="#535353" stroke-width="2" stroke-dasharray="10 2" id="n1356"/>
</g>
<path fill-rule="evenodd" clip-rule="evenodd" d="M3898 1287C4001.83 1287 4086 1371.17 4086 1475C4086 1578.83 4001.83 1663 3898 1663C3794.17 1663 3710 1578.83 3710 1475C3710 1371.17 3794.17 1287 3898 1287ZM3898 1311C3807.43 1311 3734 1384.43 3734 1475C3734 1565.57 3807.43 1639 3898 1639C3988.57 1639 4062 1565.57 4062 1475C4062 1384.43 3988.57 1311 3898 1311Z" fill="white" stroke="white" id="n1357"/>
<path fill-rule="evenodd" clip-rule="evenodd" d="M3898 1287C4001.83 1287 4086 1371.17 4086 1475C4086 1578.83 4001.83 1663 3898 1663C3794.17 1663 3710 1578.83 3710 1475C3710 1371.17 3794.17 1287 3898 1287ZM3898 1311C3807.43 1311 3734 1384.43 3734 1475C3734 1565.57 3807.43 1639 3898 1639C3988.57 1639 4062 1565.57 4062 1475C4062 1384.43 3988.57 1311 3898 1311Z" stroke="#BEBEBE" id="n1358"/>
<path d="M3734 1475H4062" stroke="#BEBEBE" stroke-linecap="square" id="n1359"/>
<path d="M3898 1311L3898 1639" stroke="#BEBEBE" stroke-linecap="square" id="n1360"/>
<g mask="url(#mask163_68_6728)" id="n1362">
<mask id="mask164_68_6728" style="mask-type:alpha" maskUnits="userSpaceOnUse" x="3642" y="1219" width="512" height="512">
<path d="M3898 1291C3999.62 1291 4082 1373.38 4082 1475C4082 1576.62 3999.62 1659 3898 1659C3796.38 1659 3714 1576.62 3714 1475C3714 1373.38 3796.38 1291 3898 1291ZM3898 1315C3809.63 1315 3738 1386.63 3738 1475C3738 1563.37 3809.63 1635 3898 1635C3986.37 1635 4058 1563.37 4058 1475C4058 1386.63 3986.37 1315 3898 1315Z" fill="black" id="n1363"/>
</mask>
<g mask="url(#mask164_68_6728)" id="n1364">
<path d="M3898 1275V1475M3898 1475H3698M3898 1475V1675M3898 1475H4098" stroke="#BEBEBE" id="n1365"/>
</g>
<mask id="mask165_68_6728" style="mask-type:alpha" maskUnits="userSpaceOnUse" x="3642" y="1219" width="512" height="512">
<path d="M3898 1283C4004.04 1283 4090 1368.96 4090 1475C4090 1581.04 4004.04 1667 3898 1667C3791.96 1667 3706 1581.04 3706 1475C3706 1368.96 3791.96 1283 3898 1283ZM3898 1311C3807.43 1311 3734 1384.43 3734 1475C3734 1565.57 3807.43 1639 3898 1639C3988.57 1639 4062 1565.57 4062 1475C4062 1384.43 3988.57 1311 3898 1311Z" fill="black" id="n1366"/>
</mask>
<g mask="url(#mask165_68_6728)" id="n1367">
<path d="M3898 1275V1475M3898 1475H3698M3898 1475V1675M3898 1475H4098" stroke="#BEBEBE" id="n1368"/>
</g>
</g>
<path d="M3896.37 1290.28C3897.17 1289.16 3898.83 1289.16 3899.62 1290.28L3915.05 1311.88C3909.45 1311.3 3903.76 1311 3898 1311C3892.24 1311 3886.55 1311.3 3880.94 1311.88L3896.37 1290.28Z" fill="#BEBEBE" id="n1369"/>
<path d="M3897.27 1477.73L3895.27 1474.27L3906.31 1467.89L3908.31 1471.36L3897.27 1477.73ZM3912.03 1469.21L3910.03 1465.74L3928.65 1454.99L3930.65 1458.46L3912.03 1469.21ZM3934.38 1456.31L3932.38 1452.84L3951 1442.09L3953 1445.56L3934.38 1456.31ZM3956.72 1443.41L3954.72 1439.94L3973.34 1429.19L3975.34 1432.66L3956.72 1443.41ZM3979.07 1430.51L3977.07 1427.04L3995.68 1416.29L3997.68 1419.76L3979.07 1430.51ZM4035.56 1394.5C4036.45 1394.38 4037.04 1395.41 4036.49 1396.12L4012.2 1427.36C4011.03 1428.87 4008.62 1427.98 4008.65 1426.05L4008.82 1413.33L4001.41 1417.61L3999.41 1414.14L4006.82 1409.86L3995.72 1403.65C3994.03 1402.72 3994.47 1400.17 3996.35 1399.91L4035.56 1394.5ZM4002.89 1403.05L4012.89 1408.67L4012.75 1420.14L4028.82 1399.47L4002.89 1403.05Z" fill="#535353" id="n1372"/>
<path d="M3897.27 1477.73L3896.4 1478.23L3896.9 1479.1L3897.77 1478.6L3897.27 1477.73ZM3895.27 1474.27L3894.77 1473.4L3893.9 1473.9L3894.4 1474.77L3895.27 1474.27ZM3906.31 1467.89L3907.18 1467.39L3906.68 1466.53L3905.81 1467.03L3906.31 1467.89ZM3908.31 1471.36L3908.81 1472.22L3909.68 1471.72L3909.18 1470.86L3908.31 1471.36ZM3912.03 1469.21L3911.17 1469.71L3911.67 1470.57L3912.53 1470.07L3912.03 1469.21ZM3910.03 1465.74L3909.53 1464.88L3908.67 1465.38L3909.17 1466.24L3910.03 1465.74ZM3928.65 1454.99L3929.52 1454.49L3929.02 1453.63L3928.15 1454.13L3928.65 1454.99ZM3930.65 1458.46L3931.15 1459.32L3932.02 1458.82L3931.52 1457.96L3930.65 1458.46ZM3934.38 1456.31L3933.51 1456.81L3934.01 1457.67L3934.88 1457.17L3934.38 1456.31ZM3932.38 1452.84L3931.88 1451.98L3931.01 1452.48L3931.51 1453.34L3932.38 1452.84ZM3951 1442.09L3951.86 1441.59L3951.36 1440.73L3950.5 1441.23L3951 1442.09ZM3953 1445.56L3953.5 1446.42L3954.36 1445.92L3953.86 1445.06L3953 1445.56ZM3956.72 1443.41L3955.86 1443.91L3956.36 1444.77L3957.22 1444.27L3956.72 1443.41ZM3954.72 1439.94L3954.22 1439.08L3953.36 1439.58L3953.86 1440.44L3954.72 1439.94ZM3973.34 1429.19L3974.21 1428.69L3973.71 1427.83L3972.84 1428.33L3973.34 1429.19ZM3975.34 1432.66L3975.84 1433.52L3976.71 1433.02L3976.21 1432.16L3975.34 1432.66ZM3979.07 1430.51L3978.2 1431.01L3978.7 1431.87L3979.57 1431.37L3979.07 1430.51ZM3977.07 1427.04L3976.57 1426.18L3975.7 1426.68L3976.2 1427.54L3977.07 1427.04ZM3995.68 1416.29L3996.55 1415.79L3996.05 1414.93L3995.18 1415.43L3995.68 1416.29ZM3997.68 1419.76L3998.18 1420.62L3999.05 1420.12L3998.55 1419.26L3997.68 1419.76ZM4035.56 1394.5L4035.42 1393.51L4035.42 1393.51L4035.56 1394.5ZM4036.49 1396.12L4037.28 1396.73L4037.28 1396.73L4036.49 1396.12ZM4012.2 1427.36L4011.41 1426.75L4011.41 1426.75L4012.2 1427.36ZM4008.65 1426.05L4009.65 1426.07L4009.65 1426.06L4008.65 1426.05ZM4008.82 1413.33L4009.82 1413.34L4009.84 1411.58L4008.32 1412.46L4008.82 1413.33ZM4001.41 1417.61L4000.54 1418.11L4001.04 1418.97L4001.91 1418.47L4001.41 1417.61ZM3999.41 1414.14L3998.91 1413.28L3998.04 1413.78L3998.54 1414.64L3999.41 1414.14ZM4006.82 1409.86L4007.32 1410.73L4008.84 1409.85L4007.31 1408.99L4006.82 1409.86ZM3995.72 1403.65L3996.2 1402.78L3996.2 1402.77L3995.72 1403.65ZM3996.35 1399.91L3996.49 1400.9L3996.49 1400.9L3996.35 1399.91ZM4002.89 1403.05L4002.75 1402.06L3999.8 1402.47L4002.4 1403.92L4002.89 1403.05ZM4012.89 1408.67L4013.89 1408.68L4013.9 1408.08L4013.38 1407.79L4012.89 1408.67ZM4012.75 1420.14L4011.75 1420.13L4011.72 1423.1L4013.54 1420.75L4012.75 1420.14ZM4028.82 1399.47L4029.61 1400.08L4031.12 1398.14L4028.68 1398.48L4028.82 1399.47ZM3897.27 1477.73L3898.13 1477.23L3896.13 1473.77L3895.27 1474.27L3894.4 1474.77L3896.4 1478.23L3897.27 1477.73ZM3895.27 1474.27L3895.77 1475.13L3906.81 1468.76L3906.31 1467.89L3905.81 1467.03L3894.77 1473.4L3895.27 1474.27ZM3906.31 1467.89L3905.44 1468.39L3907.44 1471.86L3908.31 1471.36L3909.18 1470.86L3907.18 1467.39L3906.31 1467.89ZM3908.31 1471.36L3907.81 1470.49L3896.77 1476.87L3897.27 1477.73L3897.77 1478.6L3908.81 1472.22L3908.31 1471.36ZM3912.03 1469.21L3912.9 1468.71L3910.9 1465.24L3910.03 1465.74L3909.17 1466.24L3911.17 1469.71L3912.03 1469.21ZM3910.03 1465.74L3910.53 1466.61L3929.15 1455.86L3928.65 1454.99L3928.15 1454.13L3909.53 1464.88L3910.03 1465.74ZM3928.65 1454.99L3927.79 1455.49L3929.79 1458.96L3930.65 1458.46L3931.52 1457.96L3929.52 1454.49L3928.65 1454.99ZM3930.65 1458.46L3930.15 1457.59L3911.53 1468.34L3912.03 1469.21L3912.53 1470.07L3931.15 1459.32L3930.65 1458.46ZM3934.38 1456.31L3935.24 1455.81L3933.24 1452.34L3932.38 1452.84L3931.51 1453.34L3933.51 1456.81L3934.38 1456.31ZM3932.38 1452.84L3932.88 1453.71L3951.5 1442.96L3951 1442.09L3950.5 1441.23L3931.88 1451.98L3932.38 1452.84ZM3951 1442.09L3950.13 1442.59L3952.13 1446.06L3953 1445.56L3953.86 1445.06L3951.86 1441.59L3951 1442.09ZM3953 1445.56L3952.5 1444.69L3933.88 1455.44L3934.38 1456.31L3934.88 1457.17L3953.5 1446.42L3953 1445.56ZM3956.72 1443.41L3957.59 1442.91L3955.59 1439.44L3954.72 1439.94L3953.86 1440.44L3955.86 1443.91L3956.72 1443.41ZM3954.72 1439.94L3955.22 1440.81L3973.84 1430.06L3973.34 1429.19L3972.84 1428.33L3954.22 1439.08L3954.72 1439.94ZM3973.34 1429.19L3972.48 1429.69L3974.48 1433.16L3975.34 1432.66L3976.21 1432.16L3974.21 1428.69L3973.34 1429.19ZM3975.34 1432.66L3974.84 1431.79L3956.22 1442.54L3956.72 1443.41L3957.22 1444.27L3975.84 1433.52L3975.34 1432.66ZM3979.07 1430.51L3979.93 1430.01L3977.93 1426.54L3977.07 1427.04L3976.2 1427.54L3978.2 1431.01L3979.07 1430.51ZM3977.07 1427.04L3977.57 1427.91L3996.18 1417.16L3995.68 1416.29L3995.18 1415.43L3976.57 1426.18L3977.07 1427.04ZM3995.68 1416.29L3994.82 1416.79L3996.82 1420.26L3997.68 1419.76L3998.55 1419.26L3996.55 1415.79L3995.68 1416.29ZM3997.68 1419.76L3997.18 1418.89L3978.57 1429.64L3979.07 1430.51L3979.57 1431.37L3998.18 1420.62L3997.68 1419.76ZM4035.56 1394.5L4035.7 1395.49C4035.7 1395.49 4035.7 1395.49 4035.7 1395.49C4035.7 1395.49 4035.7 1395.49 4035.7 1395.49C4035.7 1395.49 4035.69 1395.49 4035.69 1395.49C4035.69 1395.49 4035.69 1395.49 4035.69 1395.49C4035.69 1395.49 4035.7 1395.49 4035.7 1395.5C4035.7 1395.5 4035.7 1395.51 4035.7 1395.51C4035.7 1395.51 4035.7 1395.52 4035.7 1395.51C4035.7 1395.51 4035.71 1395.51 4035.71 1395.5C4035.71 1395.5 4035.71 1395.5 4035.71 1395.5C4035.71 1395.5 4035.71 1395.5 4035.7 1395.5L4036.49 1396.12L4037.28 1396.73C4038.38 1395.32 4037.2 1393.27 4035.42 1393.51L4035.56 1394.5ZM4036.49 1396.12L4035.7 1395.5L4011.41 1426.75L4012.2 1427.36L4012.99 1427.98L4037.28 1396.73L4036.49 1396.12ZM4012.2 1427.36L4011.41 1426.75C4010.87 1427.45 4009.63 1427.1 4009.65 1426.07L4008.65 1426.05L4007.65 1426.03C4007.6 1428.86 4011.19 1430.29 4012.99 1427.98L4012.2 1427.36ZM4008.65 1426.05L4009.65 1426.06L4009.82 1413.34L4008.82 1413.33L4007.82 1413.31L4007.65 1426.04L4008.65 1426.05ZM4008.82 1413.33L4008.32 1412.46L4000.91 1416.74L4001.41 1417.61L4001.91 1418.47L4009.32 1414.19L4008.82 1413.33ZM4001.41 1417.61L4002.27 1417.11L4000.27 1413.64L3999.41 1414.14L3998.54 1414.64L4000.54 1418.11L4001.41 1417.61ZM3999.41 1414.14L3999.91 1415.01L4007.32 1410.73L4006.82 1409.86L4006.32 1409L3998.91 1413.28L3999.41 1414.14ZM4006.82 1409.86L4007.31 1408.99L3996.2 1402.78L3995.72 1403.65L3995.23 1404.52L4006.33 1410.74L4006.82 1409.86ZM3995.72 1403.65L3996.2 1402.77C3995.3 1402.28 3995.62 1401.03 3996.49 1400.9L3996.35 1399.91L3996.22 1398.92C3993.32 1399.32 3992.76 1403.16 3995.23 1404.52L3995.72 1403.65ZM3996.35 1399.91L3996.49 1400.9L4035.7 1395.49L4035.56 1394.5L4035.42 1393.51L3996.22 1398.92L3996.35 1399.91ZM4002.89 1403.05L4002.4 1403.92L4012.4 1409.54L4012.89 1408.67L4013.38 1407.79L4003.38 1402.18L4002.89 1403.05ZM4012.89 1408.67L4011.89 1408.65L4011.75 1420.13L4012.75 1420.14L4013.75 1420.15L4013.89 1408.68L4012.89 1408.67ZM4012.75 1420.14L4013.54 1420.75L4029.61 1400.08L4028.82 1399.47L4028.03 1398.86L4011.96 1419.53L4012.75 1420.14ZM4028.82 1399.47L4028.68 1398.48L4002.75 1402.06L4002.89 1403.05L4003.02 1404.04L4028.96 1400.46L4028.82 1399.47Z" fill="#F7F7F7" mask="url(#path-946-outside-33_68_6728)" id="n1373"/>
<path d="M3878.67 1487.48L3891.24 1465.71C3904.03 1443.55 3913.12 1448.8 3913.12 1448.8C3913.12 1448.8 3922.22 1454.05 3909.43 1476.21L3892.67 1505.24L3868.97 1546.28C3868.42 1547.24 3867.19 1547.57 3866.24 1547.02L3865.69 1546.7L3852.05 1538.83L3851.51 1538.52C3850.56 1537.96 3850.23 1536.74 3850.78 1535.78L3878.67 1487.48Z" fill="white" id="n1374"/>
<path d="M3878.67 1487.48L3884.35 1484.64L3886.55 1480.82L3899.06 1488.04L3891.56 1501.03L3892.67 1505.24M3892.67 1505.24L3868.97 1546.28C3868.42 1547.24 3867.19 1547.57 3866.24 1547.02L3865.69 1546.7L3852.05 1538.83L3851.51 1538.52C3850.56 1537.96 3850.23 1536.74 3850.78 1535.78L3891.24 1465.71C3904.03 1443.55 3913.12 1448.8 3913.12 1448.8C3913.12 1448.8 3922.22 1454.05 3909.43 1476.21L3892.67 1505.24Z" stroke="#8E8E8E" id="n1375"/>
<path d="M3889.12 1476.37L3884.58 1473.75L3888.08 1467.68L3894.37 1467.28L3901.78 1461.45L3907.84 1464.95L3906.5 1474.28L3909.3 1479.93L3905.8 1486L3901.25 1483.37L3897.66 1484.33L3890.09 1479.96L3889.12 1476.37Z" fill="white" id="n1376"/>
<path d="M3890.09 1479.96L3889.12 1476.37L3884.58 1473.75L3888.08 1467.68L3894.37 1467.28L3901.78 1461.45M3890.09 1479.96L3897.66 1484.33M3890.09 1479.96L3896.21 1469.35C3898.1 1466.48 3901.78 1461.45 3901.78 1461.45M3897.66 1484.33L3901.25 1483.37L3905.8 1486L3909.3 1479.93L3906.5 1474.28L3907.84 1464.95M3897.66 1484.33L3903.79 1473.72C3905.32 1470.65 3907.84 1464.95 3907.84 1464.95M3907.84 1464.95L3901.78 1461.45" stroke="#8E8E8E" id="n1377"/>
<path d="M3901.6 1477.51L3899.41 1481.3L3897.46 1481.18L3892.91 1478.56L3891.84 1476.93L3894.02 1473.14L3894.23 1476.28L3898.77 1478.91L3901.6 1477.51Z" fill="white" id="n1378"/>
<path d="M3898.77 1478.91L3901.6 1477.51L3899.41 1481.3L3897.46 1481.18M3898.77 1478.91L3894.23 1476.28M3898.77 1478.91L3897.46 1481.18M3894.23 1476.28L3894.02 1473.14L3891.84 1476.93L3892.91 1478.56M3894.23 1476.28L3892.91 1478.56M3892.91 1478.56L3897.46 1481.18" stroke="#8E8E8E" id="n1379"/>
<path d="M3820.37 1611.47L3818.63 1610.47L3819.63 1608.73L3821.37 1609.73L3820.37 1611.47ZM3822.37 1608L3820.63 1607L3821.63 1605.27L3823.37 1606.27L3822.37 1608ZM3824.37 1604.54L3822.63 1603.54L3823.63 1601.8L3825.37 1602.8L3824.37 1604.54ZM3826.37 1601.07L3824.63 1600.07L3825.63 1598.34L3827.37 1599.34L3826.37 1601.07ZM3828.37 1597.61L3826.63 1596.61L3827.63 1594.88L3829.37 1595.88L3828.37 1597.61ZM3830.37 1594.14L3828.63 1593.14L3829.63 1591.41L3831.37 1592.41L3830.37 1594.14ZM3832.37 1590.68L3830.63 1589.68L3831.63 1587.95L3833.37 1588.95L3832.37 1590.68ZM3834.37 1587.22L3832.63 1586.22L3833.63 1584.48L3835.37 1585.48L3834.37 1587.22ZM3836.37 1583.75L3834.63 1582.75L3835.63 1581.02L3837.37 1582.02L3836.37 1583.75ZM3838.37 1580.29L3836.63 1579.29L3837.63 1577.56L3839.37 1578.56L3838.37 1580.29ZM3840.37 1576.82L3838.63 1575.82L3839.63 1574.09L3841.37 1575.09L3840.37 1576.82ZM3842.37 1573.36L3840.63 1572.36L3841.63 1570.63L3843.37 1571.63L3842.37 1573.36ZM3844.37 1569.9L3842.63 1568.9L3843.63 1567.16L3845.37 1568.16L3844.37 1569.9ZM3846.37 1566.43L3844.63 1565.43L3845.63 1563.7L3847.37 1564.7L3846.37 1566.43ZM3848.37 1562.97L3846.63 1561.97L3847.63 1560.24L3849.37 1561.24L3848.37 1562.97ZM3850.37 1559.5L3848.63 1558.5L3849.63 1556.77L3851.37 1557.77L3850.37 1559.5ZM3852.37 1556.04L3850.63 1555.04L3851.63 1553.31L3853.37 1554.31L3852.37 1556.04ZM3854.37 1552.58L3852.63 1551.58L3853.63 1549.84L3855.37 1550.84L3854.37 1552.58ZM3856.37 1549.11L3854.63 1548.11L3855.63 1546.38L3857.37 1547.38L3856.37 1549.11ZM3858.37 1545.65L3856.63 1544.65L3857.63 1542.92L3859.37 1543.92L3858.37 1545.65ZM3860.37 1542.18L3858.63 1541.18L3859.63 1539.45L3861.37 1540.45L3860.37 1542.18ZM3862.37 1538.72L3860.63 1537.72L3861.63 1535.99L3863.37 1536.99L3862.37 1538.72ZM3864.37 1535.25L3862.63 1534.25L3863.63 1532.52L3865.37 1533.52L3864.37 1535.25ZM3866.37 1531.79L3864.63 1530.79L3865.63 1529.06L3867.37 1530.06L3866.37 1531.79ZM3868.37 1528.33L3866.63 1527.33L3867.63 1525.59L3869.37 1526.59L3868.37 1528.33ZM3870.37 1524.86L3868.63 1523.86L3869.63 1522.13L3871.37 1523.13L3870.37 1524.86ZM3872.37 1521.4L3870.63 1520.4L3871.63 1518.67L3873.37 1519.67L3872.37 1521.4ZM3874.37 1517.93L3872.63 1516.93L3873.63 1515.2L3875.37 1516.2L3874.37 1517.93ZM3876.37 1514.47L3874.63 1513.47L3875.63 1511.74L3877.37 1512.74L3876.37 1514.47ZM3878.37 1511.01L3876.63 1510.01L3877.63 1508.27L3879.37 1509.27L3878.37 1511.01ZM3880.37 1507.54L3878.63 1506.54L3879.63 1504.81L3881.37 1505.81L3880.37 1507.54ZM3882.37 1504.08L3880.63 1503.08L3881.63 1501.35L3883.37 1502.35L3882.37 1504.08ZM3884.37 1500.61L3882.63 1499.61L3883.63 1497.88L3885.37 1498.88L3884.37 1500.61ZM3886.37 1497.15L3884.63 1496.15L3885.63 1494.42L3887.37 1495.42L3886.37 1497.15ZM3888.37 1493.69L3886.63 1492.69L3887.63 1490.95L3889.37 1491.95L3888.37 1493.69ZM3890.37 1490.22L3888.63 1489.22L3889.63 1487.49L3891.37 1488.49L3890.37 1490.22ZM3892.37 1486.76L3890.63 1485.76L3891.63 1484.03L3893.37 1485.03L3892.37 1486.76ZM3894.37 1483.29L3892.63 1482.29L3893.63 1480.56L3895.37 1481.56L3894.37 1483.29ZM3976.88 1336.51C3977.59 1335.96 3978.62 1336.55 3978.5 1337.44L3973.08 1376.65C3972.82 1378.53 3970.28 1378.97 3969.35 1377.28L3962.57 1365.16L3900.8 1472.14C3901.84 1473.16 3902.24 1474.67 3901.85 1476.07L3926.21 1490.13C3926.69 1490.41 3926.85 1491.02 3926.58 1491.5C3926.3 1491.98 3925.69 1492.14 3925.21 1491.87L3900.85 1477.8C3899.84 1478.84 3898.33 1479.24 3896.93 1478.85L3896.37 1479.83L3894.63 1478.83L3895.2 1477.85C3894.16 1476.84 3893.75 1475.33 3894.14 1473.93L3869.79 1459.87C3869.31 1459.59 3869.14 1458.98 3869.42 1458.5C3869.7 1458.02 3870.31 1457.86 3870.79 1458.13L3895.14 1472.2C3896.16 1471.16 3897.67 1470.75 3899.07 1471.14L3960.84 1364.16L3946.95 1364.35C3945.02 1364.38 3944.13 1361.97 3945.63 1360.8L3976.88 1336.51ZM3896 1475C3896 1475.69 3896.36 1476.36 3897 1476.73C3897.64 1477.1 3898.4 1477.07 3899 1476.73L3896 1475ZM3898 1473C3897.65 1473 3897.3 1473.09 3897 1473.27L3897.63 1473.63L3898 1473ZM3899.37 1474.63L3900 1475C3900 1474.65 3899.91 1474.3 3899.73 1474L3899.37 1474.63Z" fill="#535353" id="n1382"/>
<path d="M3820.37 1611.47L3819.87 1612.33L3820.73 1612.83L3821.23 1611.97L3820.37 1611.47ZM3818.63 1610.47L3817.77 1609.97L3817.27 1610.83L3818.13 1611.33L3818.63 1610.47ZM3819.63 1608.73L3820.13 1607.87L3819.27 1607.37L3818.77 1608.23L3819.63 1608.73ZM3821.37 1609.73L3822.23 1610.23L3822.73 1609.37L3821.87 1608.87L3821.37 1609.73ZM3822.37 1608L3821.87 1608.87L3822.73 1609.37L3823.23 1608.5L3822.37 1608ZM3820.63 1607L3819.77 1606.5L3819.27 1607.37L3820.13 1607.87L3820.63 1607ZM3821.63 1605.27L3822.13 1604.4L3821.27 1603.9L3820.77 1604.77L3821.63 1605.27ZM3823.37 1606.27L3824.23 1606.77L3824.73 1605.9L3823.87 1605.4L3823.37 1606.27ZM3824.37 1604.54L3823.87 1605.4L3824.73 1605.9L3825.23 1605.04L3824.37 1604.54ZM3822.63 1603.54L3821.77 1603.04L3821.27 1603.9L3822.13 1604.4L3822.63 1603.54ZM3823.63 1601.8L3824.13 1600.94L3823.27 1600.44L3822.77 1601.3L3823.63 1601.8ZM3825.37 1602.8L3826.23 1603.3L3826.73 1602.44L3825.87 1601.94L3825.37 1602.8ZM3826.37 1601.07L3825.87 1601.94L3826.73 1602.44L3827.23 1601.57L3826.37 1601.07ZM3824.63 1600.07L3823.77 1599.57L3823.27 1600.44L3824.13 1600.94L3824.63 1600.07ZM3825.63 1598.34L3826.13 1597.47L3825.27 1596.97L3824.77 1597.84L3825.63 1598.34ZM3827.37 1599.34L3828.23 1599.84L3828.73 1598.97L3827.87 1598.47L3827.37 1599.34ZM3828.37 1597.61L3827.87 1598.47L3828.73 1598.97L3829.23 1598.11L3828.37 1597.61ZM3826.63 1596.61L3825.77 1596.11L3825.27 1596.97L3826.13 1597.47L3826.63 1596.61ZM3827.63 1594.88L3828.13 1594.01L3827.27 1593.51L3826.77 1594.38L3827.63 1594.88ZM3829.37 1595.88L3830.23 1596.38L3830.73 1595.51L3829.87 1595.01L3829.37 1595.88ZM3830.37 1594.14L3829.87 1595.01L3830.73 1595.51L3831.23 1594.64L3830.37 1594.14ZM3828.63 1593.14L3827.77 1592.64L3827.27 1593.51L3828.13 1594.01L3828.63 1593.14ZM3829.63 1591.41L3830.13 1590.55L3829.27 1590.05L3828.77 1590.91L3829.63 1591.41ZM3831.37 1592.41L3832.23 1592.91L3832.73 1592.05L3831.87 1591.55L3831.37 1592.41ZM3832.37 1590.68L3831.87 1591.55L3832.73 1592.05L3833.23 1591.18L3832.37 1590.68ZM3830.63 1589.68L3829.77 1589.18L3829.27 1590.05L3830.13 1590.55L3830.63 1589.68ZM3831.63 1587.95L3832.13 1587.08L3831.27 1586.58L3830.77 1587.45L3831.63 1587.95ZM3833.37 1588.95L3834.23 1589.45L3834.73 1588.58L3833.87 1588.08L3833.37 1588.95ZM3834.37 1587.22L3833.87 1588.08L3834.73 1588.58L3835.23 1587.72L3834.37 1587.22ZM3832.63 1586.22L3831.77 1585.72L3831.27 1586.58L3832.13 1587.08L3832.63 1586.22ZM3833.63 1584.48L3834.13 1583.62L3833.27 1583.12L3832.77 1583.98L3833.63 1584.48ZM3835.37 1585.48L3836.23 1585.98L3836.73 1585.12L3835.87 1584.62L3835.37 1585.48ZM3836.37 1583.75L3835.87 1584.62L3836.73 1585.12L3837.23 1584.25L3836.37 1583.75ZM3834.63 1582.75L3833.77 1582.25L3833.27 1583.12L3834.13 1583.62L3834.63 1582.75ZM3835.63 1581.02L3836.13 1580.15L3835.27 1579.65L3834.77 1580.52L3835.63 1581.02ZM3837.37 1582.02L3838.23 1582.52L3838.73 1581.65L3837.87 1581.15L3837.37 1582.02ZM3838.37 1580.29L3837.87 1581.15L3838.73 1581.65L3839.23 1580.79L3838.37 1580.29ZM3836.63 1579.29L3835.77 1578.79L3835.27 1579.65L3836.13 1580.15L3836.63 1579.29ZM3837.63 1577.56L3838.13 1576.69L3837.27 1576.19L3836.77 1577.06L3837.63 1577.56ZM3839.37 1578.56L3840.23 1579.06L3840.73 1578.19L3839.87 1577.69L3839.37 1578.56ZM3840.37 1576.82L3839.87 1577.69L3840.73 1578.19L3841.23 1577.32L3840.37 1576.82ZM3838.63 1575.82L3837.77 1575.32L3837.27 1576.19L3838.13 1576.69L3838.63 1575.82ZM3839.63 1574.09L3840.13 1573.23L3839.27 1572.73L3838.77 1573.59L3839.63 1574.09ZM3841.37 1575.09L3842.23 1575.59L3842.73 1574.73L3841.87 1574.23L3841.37 1575.09ZM3842.37 1573.36L3841.87 1574.23L3842.73 1574.73L3843.23 1573.86L3842.37 1573.36ZM3840.63 1572.36L3839.77 1571.86L3839.27 1572.73L3840.13 1573.23L3840.63 1572.36ZM3841.63 1570.63L3842.13 1569.76L3841.27 1569.26L3840.77 1570.13L3841.63 1570.63ZM3843.37 1571.63L3844.23 1572.13L3844.73 1571.26L3843.87 1570.76L3843.37 1571.63ZM3844.37 1569.9L3843.87 1570.76L3844.73 1571.26L3845.23 1570.4L3844.37 1569.9ZM3842.63 1568.9L3841.77 1568.4L3841.27 1569.26L3842.13 1569.76L3842.63 1568.9ZM3843.63 1567.16L3844.13 1566.3L3843.27 1565.8L3842.77 1566.66L3843.63 1567.16ZM3845.37 1568.16L3846.23 1568.66L3846.73 1567.8L3845.87 1567.3L3845.37 1568.16ZM3846.37 1566.43L3845.87 1567.3L3846.73 1567.8L3847.23 1566.93L3846.37 1566.43ZM3844.63 1565.43L3843.77 1564.93L3843.27 1565.8L3844.13 1566.3L3844.63 1565.43ZM3845.63 1563.7L3846.13 1562.83L3845.27 1562.33L3844.77 1563.2L3845.63 1563.7ZM3847.37 1564.7L3848.23 1565.2L3848.73 1564.33L3847.87 1563.83L3847.37 1564.7ZM3848.37 1562.97L3847.87 1563.83L3848.73 1564.33L3849.23 1563.47L3848.37 1562.97ZM3846.63 1561.97L3845.77 1561.47L3845.27 1562.33L3846.13 1562.83L3846.63 1561.97ZM3847.63 1560.24L3848.13 1559.37L3847.27 1558.87L3846.77 1559.74L3847.63 1560.24ZM3849.37 1561.24L3850.23 1561.74L3850.73 1560.87L3849.87 1560.37L3849.37 1561.24ZM3850.37 1559.5L3849.87 1560.37L3850.73 1560.87L3851.23 1560L3850.37 1559.5ZM3848.63 1558.5L3847.77 1558L3847.27 1558.87L3848.13 1559.37L3848.63 1558.5ZM3849.63 1556.77L3850.13 1555.91L3849.27 1555.41L3848.77 1556.27L3849.63 1556.77ZM3851.37 1557.77L3852.23 1558.27L3852.73 1557.41L3851.87 1556.91L3851.37 1557.77ZM3852.37 1556.04L3851.87 1556.91L3852.73 1557.41L3853.23 1556.54L3852.37 1556.04ZM3850.63 1555.04L3849.77 1554.54L3849.27 1555.41L3850.13 1555.91L3850.63 1555.04ZM3851.63 1553.31L3852.13 1552.44L3851.27 1551.94L3850.77 1552.81L3851.63 1553.31ZM3853.37 1554.31L3854.23 1554.81L3854.73 1553.94L3853.87 1553.44L3853.37 1554.31ZM3854.37 1552.58L3853.87 1553.44L3854.73 1553.94L3855.23 1553.08L3854.37 1552.58ZM3852.63 1551.58L3851.77 1551.08L3851.27 1551.94L3852.13 1552.44L3852.63 1551.58ZM3853.63 1549.84L3854.13 1548.98L3853.27 1548.48L3852.77 1549.34L3853.63 1549.84ZM3855.37 1550.84L3856.23 1551.34L3856.73 1550.48L3855.87 1549.98L3855.37 1550.84ZM3856.37 1549.11L3855.87 1549.98L3856.73 1550.48L3857.23 1549.61L3856.37 1549.11ZM3854.63 1548.11L3853.77 1547.61L3853.27 1548.48L3854.13 1548.98L3854.63 1548.11ZM3855.63 1546.38L3856.13 1545.51L3855.27 1545.01L3854.77 1545.88L3855.63 1546.38ZM3857.37 1547.38L3858.23 1547.88L3858.73 1547.01L3857.87 1546.51L3857.37 1547.38ZM3858.37 1545.65L3857.87 1546.51L3858.73 1547.01L3859.23 1546.15L3858.37 1545.65ZM3856.63 1544.65L3855.77 1544.15L3855.27 1545.01L3856.13 1545.51L3856.63 1544.65ZM3857.63 1542.92L3858.13 1542.05L3857.27 1541.55L3856.77 1542.42L3857.63 1542.92ZM3859.37 1543.92L3860.23 1544.42L3860.73 1543.55L3859.87 1543.05L3859.37 1543.92ZM3860.37 1542.18L3859.87 1543.05L3860.73 1543.55L3861.23 1542.68L3860.37 1542.18ZM3858.63 1541.18L3857.77 1540.68L3857.27 1541.55L3858.13 1542.05L3858.63 1541.18ZM3859.63 1539.45L3860.13 1538.59L3859.27 1538.09L3858.77 1538.95L3859.63 1539.45ZM3861.37 1540.45L3862.23 1540.95L3862.73 1540.09L3861.87 1539.59L3861.37 1540.45ZM3862.37 1538.72L3861.87 1539.59L3862.73 1540.09L3863.23 1539.22L3862.37 1538.72ZM3860.63 1537.72L3859.77 1537.22L3859.27 1538.09L3860.13 1538.59L3860.63 1537.72ZM3861.63 1535.99L3862.13 1535.12L3861.27 1534.62L3860.77 1535.49L3861.63 1535.99ZM3863.37 1536.99L3864.23 1537.49L3864.73 1536.62L3863.87 1536.12L3863.37 1536.99ZM3864.37 1535.25L3863.87 1536.12L3864.73 1536.62L3865.23 1535.75L3864.37 1535.25ZM3862.63 1534.25L3861.77 1533.75L3861.27 1534.62L3862.13 1535.12L3862.63 1534.25ZM3863.63 1532.52L3864.13 1531.66L3863.27 1531.16L3862.77 1532.02L3863.63 1532.52ZM3865.37 1533.52L3866.23 1534.02L3866.73 1533.16L3865.87 1532.66L3865.37 1533.52ZM3866.37 1531.79L3865.87 1532.66L3866.73 1533.16L3867.23 1532.29L3866.37 1531.79ZM3864.63 1530.79L3863.77 1530.29L3863.27 1531.16L3864.13 1531.66L3864.63 1530.79ZM3865.63 1529.06L3866.13 1528.19L3865.27 1527.69L3864.77 1528.56L3865.63 1529.06ZM3867.37 1530.06L3868.23 1530.56L3868.73 1529.69L3867.87 1529.19L3867.37 1530.06ZM3868.37 1528.33L3867.87 1529.19L3868.73 1529.69L3869.23 1528.83L3868.37 1528.33ZM3866.63 1527.33L3865.77 1526.83L3865.27 1527.69L3866.13 1528.19L3866.63 1527.33ZM3867.63 1525.59L3868.13 1524.73L3867.27 1524.23L3866.77 1525.09L3867.63 1525.59ZM3869.37 1526.59L3870.23 1527.09L3870.73 1526.23L3869.87 1525.73L3869.37 1526.59ZM3870.37 1524.86L3869.87 1525.73L3870.73 1526.23L3871.23 1525.36L3870.37 1524.86ZM3868.63 1523.86L3867.77 1523.36L3867.27 1524.23L3868.13 1524.73L3868.63 1523.86ZM3869.63 1522.13L3870.13 1521.26L3869.27 1520.76L3868.77 1521.63L3869.63 1522.13ZM3871.37 1523.13L3872.23 1523.63L3872.73 1522.76L3871.87 1522.26L3871.37 1523.13ZM3872.37 1521.4L3871.87 1522.26L3872.73 1522.76L3873.23 1521.9L3872.37 1521.4ZM3870.63 1520.4L3869.77 1519.9L3869.27 1520.76L3870.13 1521.26L3870.63 1520.4ZM3871.63 1518.67L3872.13 1517.8L3871.27 1517.3L3870.77 1518.17L3871.63 1518.67ZM3873.37 1519.67L3874.23 1520.17L3874.73 1519.3L3873.87 1518.8L3873.37 1519.67ZM3874.37 1517.93L3873.87 1518.8L3874.73 1519.3L3875.23 1518.43L3874.37 1517.93ZM3872.63 1516.93L3871.77 1516.43L3871.27 1517.3L3872.13 1517.8L3872.63 1516.93ZM3873.63 1515.2L3874.13 1514.34L3873.27 1513.84L3872.77 1514.7L3873.63 1515.2ZM3875.37 1516.2L3876.23 1516.7L3876.73 1515.84L3875.87 1515.34L3875.37 1516.2ZM3876.37 1514.47L3875.87 1515.34L3876.73 1515.84L3877.23 1514.97L3876.37 1514.47ZM3874.63 1513.47L3873.77 1512.97L3873.27 1513.84L3874.13 1514.34L3874.63 1513.47ZM3875.63 1511.74L3876.13 1510.87L3875.27 1510.37L3874.77 1511.24L3875.63 1511.74ZM3877.37 1512.74L3878.23 1513.24L3878.73 1512.37L3877.87 1511.87L3877.37 1512.74ZM3878.37 1511.01L3877.87 1511.87L3878.73 1512.37L3879.23 1511.51L3878.37 1511.01ZM3876.63 1510.01L3875.77 1509.51L3875.27 1510.37L3876.13 1510.87L3876.63 1510.01ZM3877.63 1508.27L3878.13 1507.41L3877.27 1506.91L3876.77 1507.77L3877.63 1508.27ZM3879.37 1509.27L3880.23 1509.77L3880.73 1508.91L3879.87 1508.41L3879.37 1509.27ZM3880.37 1507.54L3879.87 1508.41L3880.73 1508.91L3881.23 1508.04L3880.37 1507.54ZM3878.63 1506.54L3877.77 1506.04L3877.27 1506.91L3878.13 1507.41L3878.63 1506.54ZM3879.63 1504.81L3880.13 1503.94L3879.27 1503.44L3878.77 1504.31L3879.63 1504.81ZM3881.37 1505.81L3882.23 1506.31L3882.73 1505.44L3881.87 1504.94L3881.37 1505.81ZM3882.37 1504.08L3881.87 1504.94L3882.73 1505.44L3883.23 1504.58L3882.37 1504.08ZM3880.63 1503.08L3879.77 1502.58L3879.27 1503.44L3880.13 1503.94L3880.63 1503.08ZM3881.63 1501.35L3882.13 1500.48L3881.27 1499.98L3880.77 1500.85L3881.63 1501.35ZM3883.37 1502.35L3884.23 1502.85L3884.73 1501.98L3883.87 1501.48L3883.37 1502.35ZM3884.37 1500.61L3883.87 1501.48L3884.73 1501.98L3885.23 1501.11L3884.37 1500.61ZM3882.63 1499.61L3881.77 1499.11L3881.27 1499.98L3882.13 1500.48L3882.63 1499.61ZM3883.63 1497.88L3884.13 1497.02L3883.27 1496.52L3882.77 1497.38L3883.63 1497.88ZM3885.37 1498.88L3886.23 1499.38L3886.73 1498.52L3885.87 1498.02L3885.37 1498.88ZM3886.37 1497.15L3885.87 1498.02L3886.73 1498.52L3887.23 1497.65L3886.37 1497.15ZM3884.63 1496.15L3883.77 1495.65L3883.27 1496.52L3884.13 1497.02L3884.63 1496.15ZM3885.63 1494.42L3886.13 1493.55L3885.27 1493.05L3884.77 1493.92L3885.63 1494.42ZM3887.37 1495.42L3888.23 1495.92L3888.73 1495.05L3887.87 1494.55L3887.37 1495.42ZM3888.37 1493.69L3887.87 1494.55L3888.73 1495.05L3889.23 1494.19L3888.37 1493.69ZM3886.63 1492.69L3885.77 1492.19L3885.27 1493.05L3886.13 1493.55L3886.63 1492.69ZM3887.63 1490.95L3888.13 1490.09L3887.27 1489.59L3886.77 1490.45L3887.63 1490.95ZM3889.37 1491.95L3890.23 1492.45L3890.73 1491.59L3889.87 1491.09L3889.37 1491.95ZM3890.37 1490.22L3889.87 1491.09L3890.73 1491.59L3891.23 1490.72L3890.37 1490.22ZM3888.63 1489.22L3887.77 1488.72L3887.27 1489.59L3888.13 1490.09L3888.63 1489.22ZM3889.63 1487.49L3890.13 1486.62L3889.27 1486.12L3888.77 1486.99L3889.63 1487.49ZM3891.37 1488.49L3892.23 1488.99L3892.73 1488.12L3891.87 1487.62L3891.37 1488.49ZM3892.37 1486.76L3891.87 1487.62L3892.73 1488.12L3893.23 1487.26L3892.37 1486.76ZM3890.63 1485.76L3889.77 1485.26L3889.27 1486.12L3890.13 1486.62L3890.63 1485.76ZM3891.63 1484.03L3892.13 1483.16L3891.27 1482.66L3890.77 1483.53L3891.63 1484.03ZM3893.37 1485.03L3894.23 1485.53L3894.73 1484.66L3893.87 1484.16L3893.37 1485.03ZM3894.37 1483.29L3893.87 1484.16L3894.73 1484.66L3895.23 1483.79L3894.37 1483.29ZM3892.63 1482.29L3891.77 1481.79L3891.27 1482.66L3892.13 1483.16L3892.63 1482.29ZM3893.63 1480.56L3894.13 1479.7L3893.27 1479.2L3892.77 1480.06L3893.63 1480.56ZM3895.37 1481.56L3896.23 1482.06L3896.73 1481.2L3895.87 1480.7L3895.37 1481.56ZM3976.88 1336.51L3976.27 1335.72L3976.27 1335.72L3976.88 1336.51ZM3978.5 1337.44L3979.49 1337.58L3979.49 1337.58L3978.5 1337.44ZM3973.08 1376.65L3972.09 1376.51L3972.09 1376.51L3973.08 1376.65ZM3969.35 1377.28L3970.22 1376.8L3970.22 1376.8L3969.35 1377.28ZM3962.57 1365.16L3963.44 1364.67L3962.58 1363.14L3961.7 1364.66L3962.57 1365.16ZM3900.8 1472.14L3899.94 1471.64L3899.55 1472.32L3900.1 1472.86L3900.8 1472.14ZM3901.85 1476.07L3900.89 1475.8L3900.68 1476.55L3901.35 1476.94L3901.85 1476.07ZM3926.58 1491.5L3927.44 1492L3927.44 1492L3926.58 1491.5ZM3925.21 1491.87L3924.71 1492.73L3925.21 1491.87ZM3900.85 1477.8L3901.35 1476.94L3900.68 1476.55L3900.14 1477.1L3900.85 1477.8ZM3896.93 1478.85L3897.2 1477.89L3896.45 1477.68L3896.06 1478.35L3896.93 1478.85ZM3896.37 1479.83L3895.87 1480.7L3896.73 1481.2L3897.23 1480.33L3896.37 1479.83ZM3894.63 1478.83L3893.77 1478.33L3893.27 1479.2L3894.13 1479.7L3894.63 1478.83ZM3895.2 1477.85L3896.06 1478.35L3896.45 1477.68L3895.9 1477.14L3895.2 1477.85ZM3894.14 1473.93L3895.11 1474.2L3895.32 1473.45L3894.64 1473.06L3894.14 1473.93ZM3869.42 1458.5L3868.55 1458L3868.55 1458L3869.42 1458.5ZM3895.14 1472.2L3894.64 1473.06L3895.32 1473.45L3895.86 1472.9L3895.14 1472.2ZM3899.07 1471.14L3898.8 1472.11L3899.55 1472.32L3899.94 1471.64L3899.07 1471.14ZM3960.84 1364.16L3961.7 1364.66L3962.58 1363.14L3960.82 1363.16L3960.84 1364.16ZM3946.95 1364.35L3946.93 1363.35L3946.93 1363.35L3946.95 1364.35ZM3945.63 1360.8L3946.25 1361.59L3946.25 1361.59L3945.63 1360.8ZM3896 1475L3896.5 1474.13L3895 1473.27L3895 1475L3896 1475ZM3897 1476.73L3896.5 1477.6V1477.6L3897 1476.73ZM3899 1476.73L3899.5 1477.6L3901 1476.73L3899.5 1475.86L3899 1476.73ZM3898 1473L3898.86 1473.5L3899.73 1472L3898 1472L3898 1473ZM3897 1473.27L3896.5 1472.4L3895 1473.27L3896.5 1474.13L3897 1473.27ZM3897.63 1473.63L3897.13 1474.5L3898 1475L3898.5 1474.13L3897.63 1473.63ZM3899.37 1474.63L3898.5 1474.13L3898 1475L3898.87 1475.5L3899.37 1474.63ZM3900 1475L3899.5 1475.86L3901 1476.73L3901 1475L3900 1475ZM3899.73 1474L3900.6 1473.5L3899.73 1472L3898.86 1473.5L3899.73 1474ZM3820.37 1611.47L3820.87 1610.6L3819.13 1609.6L3818.63 1610.47L3818.13 1611.33L3819.87 1612.33L3820.37 1611.47ZM3818.63 1610.47L3819.5 1610.97L3820.5 1609.23L3819.63 1608.73L3818.77 1608.23L3817.77 1609.97L3818.63 1610.47ZM3819.63 1608.73L3819.13 1609.6L3820.87 1610.6L3821.37 1609.73L3821.87 1608.87L3820.13 1607.87L3819.63 1608.73ZM3821.37 1609.73L3820.5 1609.23L3819.5 1610.97L3820.37 1611.47L3821.23 1611.97L3822.23 1610.23L3821.37 1609.73ZM3822.37 1608L3822.87 1607.14L3821.13 1606.14L3820.63 1607L3820.13 1607.87L3821.87 1608.87L3822.37 1608ZM3820.63 1607L3821.5 1607.5L3822.5 1605.77L3821.63 1605.27L3820.77 1604.77L3819.77 1606.5L3820.63 1607ZM3821.63 1605.27L3821.13 1606.14L3822.87 1607.14L3823.37 1606.27L3823.87 1605.4L3822.13 1604.4L3821.63 1605.27ZM3823.37 1606.27L3822.5 1605.77L3821.5 1607.5L3822.37 1608L3823.23 1608.5L3824.23 1606.77L3823.37 1606.27ZM3824.37 1604.54L3824.87 1603.67L3823.13 1602.67L3822.63 1603.54L3822.13 1604.4L3823.87 1605.4L3824.37 1604.54ZM3822.63 1603.54L3823.5 1604.04L3824.5 1602.3L3823.63 1601.8L3822.77 1601.3L3821.77 1603.04L3822.63 1603.54ZM3823.63 1601.8L3823.13 1602.67L3824.87 1603.67L3825.37 1602.8L3825.87 1601.94L3824.13 1600.94L3823.63 1601.8ZM3825.37 1602.8L3824.5 1602.3L3823.5 1604.04L3824.37 1604.54L3825.23 1605.04L3826.23 1603.3L3825.37 1602.8ZM3826.37 1601.07L3826.87 1600.21L3825.13 1599.21L3824.63 1600.07L3824.13 1600.94L3825.87 1601.94L3826.37 1601.07ZM3824.63 1600.07L3825.5 1600.57L3826.5 1598.84L3825.63 1598.34L3824.77 1597.84L3823.77 1599.57L3824.63 1600.07ZM3825.63 1598.34L3825.13 1599.21L3826.87 1600.21L3827.37 1599.34L3827.87 1598.47L3826.13 1597.47L3825.63 1598.34ZM3827.37 1599.34L3826.5 1598.84L3825.5 1600.57L3826.37 1601.07L3827.23 1601.57L3828.23 1599.84L3827.37 1599.34ZM3828.37 1597.61L3828.87 1596.74L3827.13 1595.74L3826.63 1596.61L3826.13 1597.47L3827.87 1598.47L3828.37 1597.61ZM3826.63 1596.61L3827.5 1597.11L3828.5 1595.38L3827.63 1594.88L3826.77 1594.38L3825.77 1596.11L3826.63 1596.61ZM3827.63 1594.88L3827.13 1595.74L3828.87 1596.74L3829.37 1595.88L3829.87 1595.01L3828.13 1594.01L3827.63 1594.88ZM3829.37 1595.88L3828.5 1595.38L3827.5 1597.11L3828.37 1597.61L3829.23 1598.11L3830.23 1596.38L3829.37 1595.88ZM3830.37 1594.14L3830.87 1593.28L3829.13 1592.28L3828.63 1593.14L3828.13 1594.01L3829.87 1595.01L3830.37 1594.14ZM3828.63 1593.14L3829.5 1593.64L3830.5 1591.91L3829.63 1591.41L3828.77 1590.91L3827.77 1592.64L3828.63 1593.14ZM3829.63 1591.41L3829.13 1592.28L3830.87 1593.28L3831.37 1592.41L3831.87 1591.55L3830.13 1590.55L3829.63 1591.41ZM3831.37 1592.41L3830.5 1591.91L3829.5 1593.64L3830.37 1594.14L3831.23 1594.64L3832.23 1592.91L3831.37 1592.41ZM3832.37 1590.68L3832.87 1589.81L3831.13 1588.81L3830.63 1589.68L3830.13 1590.55L3831.87 1591.55L3832.37 1590.68ZM3830.63 1589.68L3831.5 1590.18L3832.5 1588.45L3831.63 1587.95L3830.77 1587.45L3829.77 1589.18L3830.63 1589.68ZM3831.63 1587.95L3831.13 1588.81L3832.87 1589.81L3833.37 1588.95L3833.87 1588.08L3832.13 1587.08L3831.63 1587.95ZM3833.37 1588.95L3832.5 1588.45L3831.5 1590.18L3832.37 1590.68L3833.23 1591.18L3834.23 1589.45L3833.37 1588.95ZM3834.37 1587.22L3834.87 1586.35L3833.13 1585.35L3832.63 1586.22L3832.13 1587.08L3833.87 1588.08L3834.37 1587.22ZM3832.63 1586.22L3833.5 1586.72L3834.5 1584.98L3833.63 1584.48L3832.77 1583.98L3831.77 1585.72L3832.63 1586.22ZM3833.63 1584.48L3833.13 1585.35L3834.87 1586.35L3835.37 1585.48L3835.87 1584.62L3834.13 1583.62L3833.63 1584.48ZM3835.37 1585.48L3834.5 1584.98L3833.5 1586.72L3834.37 1587.22L3835.23 1587.72L3836.23 1585.98L3835.37 1585.48ZM3836.37 1583.75L3836.87 1582.89L3835.13 1581.89L3834.63 1582.75L3834.13 1583.62L3835.87 1584.62L3836.37 1583.75ZM3834.63 1582.75L3835.5 1583.25L3836.5 1581.52L3835.63 1581.02L3834.77 1580.52L3833.77 1582.25L3834.63 1582.75ZM3835.63 1581.02L3835.13 1581.89L3836.87 1582.89L3837.37 1582.02L3837.87 1581.15L3836.13 1580.15L3835.63 1581.02ZM3837.37 1582.02L3836.5 1581.52L3835.5 1583.25L3836.37 1583.75L3837.23 1584.25L3838.23 1582.52L3837.37 1582.02ZM3838.37 1580.29L3838.87 1579.42L3837.13 1578.42L3836.63 1579.29L3836.13 1580.15L3837.87 1581.15L3838.37 1580.29ZM3836.63 1579.29L3837.5 1579.79L3838.5 1578.06L3837.63 1577.56L3836.77 1577.06L3835.77 1578.79L3836.63 1579.29ZM3837.63 1577.56L3837.13 1578.42L3838.87 1579.42L3839.37 1578.56L3839.87 1577.69L3838.13 1576.69L3837.63 1577.56ZM3839.37 1578.56L3838.5 1578.06L3837.5 1579.79L3838.37 1580.29L3839.23 1580.79L3840.23 1579.06L3839.37 1578.56ZM3840.37 1576.82L3840.87 1575.96L3839.13 1574.96L3838.63 1575.82L3838.13 1576.69L3839.87 1577.69L3840.37 1576.82ZM3838.63 1575.82L3839.5 1576.32L3840.5 1574.59L3839.63 1574.09L3838.77 1573.59L3837.77 1575.32L3838.63 1575.82ZM3839.63 1574.09L3839.13 1574.96L3840.87 1575.96L3841.37 1575.09L3841.87 1574.23L3840.13 1573.23L3839.63 1574.09ZM3841.37 1575.09L3840.5 1574.59L3839.5 1576.32L3840.37 1576.82L3841.23 1577.32L3842.23 1575.59L3841.37 1575.09ZM3842.37 1573.36L3842.87 1572.49L3841.13 1571.49L3840.63 1572.36L3840.13 1573.23L3841.87 1574.23L3842.37 1573.36ZM3840.63 1572.36L3841.5 1572.86L3842.5 1571.13L3841.63 1570.63L3840.77 1570.13L3839.77 1571.86L3840.63 1572.36ZM3841.63 1570.63L3841.13 1571.49L3842.87 1572.49L3843.37 1571.63L3843.87 1570.76L3842.13 1569.76L3841.63 1570.63ZM3843.37 1571.63L3842.5 1571.13L3841.5 1572.86L3842.37 1573.36L3843.23 1573.86L3844.23 1572.13L3843.37 1571.63ZM3844.37 1569.9L3844.87 1569.03L3843.13 1568.03L3842.63 1568.9L3842.13 1569.76L3843.87 1570.76L3844.37 1569.9ZM3842.63 1568.9L3843.5 1569.4L3844.5 1567.66L3843.63 1567.16L3842.77 1566.66L3841.77 1568.4L3842.63 1568.9ZM3843.63 1567.16L3843.13 1568.03L3844.87 1569.03L3845.37 1568.16L3845.87 1567.3L3844.13 1566.3L3843.63 1567.16ZM3845.37 1568.16L3844.5 1567.66L3843.5 1569.4L3844.37 1569.9L3845.23 1570.4L3846.23 1568.66L3845.37 1568.16ZM3846.37 1566.43L3846.87 1565.57L3845.13 1564.57L3844.63 1565.43L3844.13 1566.3L3845.87 1567.3L3846.37 1566.43ZM3844.63 1565.43L3845.5 1565.93L3846.5 1564.2L3845.63 1563.7L3844.77 1563.2L3843.77 1564.93L3844.63 1565.43ZM3845.63 1563.7L3845.13 1564.57L3846.87 1565.57L3847.37 1564.7L3847.87 1563.83L3846.13 1562.83L3845.63 1563.7ZM3847.37 1564.7L3846.5 1564.2L3845.5 1565.93L3846.37 1566.43L3847.23 1566.93L3848.23 1565.2L3847.37 1564.7ZM3848.37 1562.97L3848.87 1562.1L3847.13 1561.1L3846.63 1561.97L3846.13 1562.83L3847.87 1563.83L3848.37 1562.97ZM3846.63 1561.97L3847.5 1562.47L3848.5 1560.74L3847.63 1560.24L3846.77 1559.74L3845.77 1561.47L3846.63 1561.97ZM3847.63 1560.24L3847.13 1561.1L3848.87 1562.1L3849.37 1561.24L3849.87 1560.37L3848.13 1559.37L3847.63 1560.24ZM3849.37 1561.24L3848.5 1560.74L3847.5 1562.47L3848.37 1562.97L3849.23 1563.47L3850.23 1561.74L3849.37 1561.24ZM3850.37 1559.5L3850.87 1558.64L3849.13 1557.64L3848.63 1558.5L3848.13 1559.37L3849.87 1560.37L3850.37 1559.5ZM3848.63 1558.5L3849.5 1559L3850.5 1557.27L3849.63 1556.77L3848.77 1556.27L3847.77 1558L3848.63 1558.5ZM3849.63 1556.77L3849.13 1557.64L3850.87 1558.64L3851.37 1557.77L3851.87 1556.91L3850.13 1555.91L3849.63 1556.77ZM3851.37 1557.77L3850.5 1557.27L3849.5 1559L3850.37 1559.5L3851.23 1560L3852.23 1558.27L3851.37 1557.77ZM3852.37 1556.04L3852.87 1555.17L3851.13 1554.17L3850.63 1555.04L3850.13 1555.91L3851.87 1556.91L3852.37 1556.04ZM3850.63 1555.04L3851.5 1555.54L3852.5 1553.81L3851.63 1553.31L3850.77 1552.81L3849.77 1554.54L3850.63 1555.04ZM3851.63 1553.31L3851.13 1554.17L3852.87 1555.17L3853.37 1554.31L3853.87 1553.44L3852.13 1552.44L3851.63 1553.31ZM3853.37 1554.31L3852.5 1553.81L3851.5 1555.54L3852.37 1556.04L3853.23 1556.54L3854.23 1554.81L3853.37 1554.31ZM3854.37 1552.58L3854.87 1551.71L3853.13 1550.71L3852.63 1551.58L3852.13 1552.44L3853.87 1553.44L3854.37 1552.58ZM3852.63 1551.58L3853.5 1552.08L3854.5 1550.34L3853.63 1549.84L3852.77 1549.34L3851.77 1551.08L3852.63 1551.58ZM3853.63 1549.84L3853.13 1550.71L3854.87 1551.71L3855.37 1550.84L3855.87 1549.98L3854.13 1548.98L3853.63 1549.84ZM3855.37 1550.84L3854.5 1550.34L3853.5 1552.08L3854.37 1552.58L3855.23 1553.08L3856.23 1551.34L3855.37 1550.84ZM3856.37 1549.11L3856.87 1548.25L3855.13 1547.25L3854.63 1548.11L3854.13 1548.98L3855.87 1549.98L3856.37 1549.11ZM3854.63 1548.11L3855.5 1548.61L3856.5 1546.88L3855.63 1546.38L3854.77 1545.88L3853.77 1547.61L3854.63 1548.11ZM3855.63 1546.38L3855.13 1547.25L3856.87 1548.25L3857.37 1547.38L3857.87 1546.51L3856.13 1545.51L3855.63 1546.38ZM3857.37 1547.38L3856.5 1546.88L3855.5 1548.61L3856.37 1549.11L3857.23 1549.61L3858.23 1547.88L3857.37 1547.38ZM3858.37 1545.65L3858.87 1544.78L3857.13 1543.78L3856.63 1544.65L3856.13 1545.51L3857.87 1546.51L3858.37 1545.65ZM3856.63 1544.65L3857.5 1545.15L3858.5 1543.42L3857.63 1542.92L3856.77 1542.42L3855.77 1544.15L3856.63 1544.65ZM3857.63 1542.92L3857.13 1543.78L3858.87 1544.78L3859.37 1543.92L3859.87 1543.05L3858.13 1542.05L3857.63 1542.92ZM3859.37 1543.92L3858.5 1543.42L3857.5 1545.15L3858.37 1545.65L3859.23 1546.15L3860.23 1544.42L3859.37 1543.92ZM3860.37 1542.18L3860.87 1541.32L3859.13 1540.32L3858.63 1541.18L3858.13 1542.05L3859.87 1543.05L3860.37 1542.18ZM3858.63 1541.18L3859.5 1541.68L3860.5 1539.95L3859.63 1539.45L3858.77 1538.95L3857.77 1540.68L3858.63 1541.18ZM3859.63 1539.45L3859.13 1540.32L3860.87 1541.32L3861.37 1540.45L3861.87 1539.59L3860.13 1538.59L3859.63 1539.45ZM3861.37 1540.45L3860.5 1539.95L3859.5 1541.68L3860.37 1542.18L3861.23 1542.68L3862.23 1540.95L3861.37 1540.45ZM3862.37 1538.72L3862.87 1537.85L3861.13 1536.85L3860.63 1537.72L3860.13 1538.59L3861.87 1539.59L3862.37 1538.72ZM3860.63 1537.72L3861.5 1538.22L3862.5 1536.49L3861.63 1535.99L3860.77 1535.49L3859.77 1537.22L3860.63 1537.72ZM3861.63 1535.99L3861.13 1536.85L3862.87 1537.85L3863.37 1536.99L3863.87 1536.12L3862.13 1535.12L3861.63 1535.99ZM3863.37 1536.99L3862.5 1536.49L3861.5 1538.22L3862.37 1538.72L3863.23 1539.22L3864.23 1537.49L3863.37 1536.99ZM3864.37 1535.25L3864.87 1534.39L3863.13 1533.39L3862.63 1534.25L3862.13 1535.12L3863.87 1536.12L3864.37 1535.25ZM3862.63 1534.25L3863.5 1534.75L3864.5 1533.02L3863.63 1532.52L3862.77 1532.02L3861.77 1533.75L3862.63 1534.25ZM3863.63 1532.52L3863.13 1533.39L3864.87 1534.39L3865.37 1533.52L3865.87 1532.66L3864.13 1531.66L3863.63 1532.52ZM3865.37 1533.52L3864.5 1533.02L3863.5 1534.75L3864.37 1535.25L3865.23 1535.75L3866.23 1534.02L3865.37 1533.52ZM3866.37 1531.79L3866.87 1530.92L3865.13 1529.92L3864.63 1530.79L3864.13 1531.66L3865.87 1532.66L3866.37 1531.79ZM3864.63 1530.79L3865.5 1531.29L3866.5 1529.56L3865.63 1529.06L3864.77 1528.56L3863.77 1530.29L3864.63 1530.79ZM3865.63 1529.06L3865.13 1529.92L3866.87 1530.92L3867.37 1530.06L3867.87 1529.19L3866.13 1528.19L3865.63 1529.06ZM3867.37 1530.06L3866.5 1529.56L3865.5 1531.29L3866.37 1531.79L3867.23 1532.29L3868.23 1530.56L3867.37 1530.06ZM3868.37 1528.33L3868.87 1527.46L3867.13 1526.46L3866.63 1527.33L3866.13 1528.19L3867.87 1529.19L3868.37 1528.33ZM3866.63 1527.33L3867.5 1527.83L3868.5 1526.09L3867.63 1525.59L3866.77 1525.09L3865.77 1526.83L3866.63 1527.33ZM3867.63 1525.59L3867.13 1526.46L3868.87 1527.46L3869.37 1526.59L3869.87 1525.73L3868.13 1524.73L3867.63 1525.59ZM3869.37 1526.59L3868.5 1526.09L3867.5 1527.83L3868.37 1528.33L3869.23 1528.83L3870.23 1527.09L3869.37 1526.59ZM3870.37 1524.86L3870.87 1524L3869.13 1523L3868.63 1523.86L3868.13 1524.73L3869.87 1525.73L3870.37 1524.86ZM3868.63 1523.86L3869.5 1524.36L3870.5 1522.63L3869.63 1522.13L3868.77 1521.63L3867.77 1523.36L3868.63 1523.86ZM3869.63 1522.13L3869.13 1523L3870.87 1524L3871.37 1523.13L3871.87 1522.26L3870.13 1521.26L3869.63 1522.13ZM3871.37 1523.13L3870.5 1522.63L3869.5 1524.36L3870.37 1524.86L3871.23 1525.36L3872.23 1523.63L3871.37 1523.13ZM3872.37 1521.4L3872.87 1520.53L3871.13 1519.53L3870.63 1520.4L3870.13 1521.26L3871.87 1522.26L3872.37 1521.4ZM3870.63 1520.4L3871.5 1520.9L3872.5 1519.17L3871.63 1518.67L3870.77 1518.17L3869.77 1519.9L3870.63 1520.4ZM3871.63 1518.67L3871.13 1519.53L3872.87 1520.53L3873.37 1519.67L3873.87 1518.8L3872.13 1517.8L3871.63 1518.67ZM3873.37 1519.67L3872.5 1519.17L3871.5 1520.9L3872.37 1521.4L3873.23 1521.9L3874.23 1520.17L3873.37 1519.67ZM3874.37 1517.93L3874.87 1517.07L3873.13 1516.07L3872.63 1516.93L3872.13 1517.8L3873.87 1518.8L3874.37 1517.93ZM3872.63 1516.93L3873.5 1517.43L3874.5 1515.7L3873.63 1515.2L3872.77 1514.7L3871.77 1516.43L3872.63 1516.93ZM3873.63 1515.2L3873.13 1516.07L3874.87 1517.07L3875.37 1516.2L3875.87 1515.34L3874.13 1514.34L3873.63 1515.2ZM3875.37 1516.2L3874.5 1515.7L3873.5 1517.43L3874.37 1517.93L3875.23 1518.43L3876.23 1516.7L3875.37 1516.2ZM3876.37 1514.47L3876.87 1513.6L3875.13 1512.6L3874.63 1513.47L3874.13 1514.34L3875.87 1515.34L3876.37 1514.47ZM3874.63 1513.47L3875.5 1513.97L3876.5 1512.24L3875.63 1511.74L3874.77 1511.24L3873.77 1512.97L3874.63 1513.47ZM3875.63 1511.74L3875.13 1512.6L3876.87 1513.6L3877.37 1512.74L3877.87 1511.87L3876.13 1510.87L3875.63 1511.74ZM3877.37 1512.74L3876.5 1512.24L3875.5 1513.97L3876.37 1514.47L3877.23 1514.97L3878.23 1513.24L3877.37 1512.74ZM3878.37 1511.01L3878.87 1510.14L3877.13 1509.14L3876.63 1510.01L3876.13 1510.87L3877.87 1511.87L3878.37 1511.01ZM3876.63 1510.01L3877.5 1510.51L3878.5 1508.77L3877.63 1508.27L3876.77 1507.77L3875.77 1509.51L3876.63 1510.01ZM3877.63 1508.27L3877.13 1509.14L3878.87 1510.14L3879.37 1509.27L3879.87 1508.41L3878.13 1507.41L3877.63 1508.27ZM3879.37 1509.27L3878.5 1508.77L3877.5 1510.51L3878.37 1511.01L3879.23 1511.51L3880.23 1509.77L3879.37 1509.27ZM3880.37 1507.54L3880.87 1506.68L3879.13 1505.68L3878.63 1506.54L3878.13 1507.41L3879.87 1508.41L3880.37 1507.54ZM3878.63 1506.54L3879.5 1507.04L3880.5 1505.31L3879.63 1504.81L3878.77 1504.31L3877.77 1506.04L3878.63 1506.54ZM3879.63 1504.81L3879.13 1505.68L3880.87 1506.68L3881.37 1505.81L3881.87 1504.94L3880.13 1503.94L3879.63 1504.81ZM3881.37 1505.81L3880.5 1505.31L3879.5 1507.04L3880.37 1507.54L3881.23 1508.04L3882.23 1506.31L3881.37 1505.81ZM3882.37 1504.08L3882.87 1503.21L3881.13 1502.21L3880.63 1503.08L3880.13 1503.94L3881.87 1504.94L3882.37 1504.08ZM3880.63 1503.08L3881.5 1503.58L3882.5 1501.85L3881.63 1501.35L3880.77 1500.85L3879.77 1502.58L3880.63 1503.08ZM3881.63 1501.35L3881.13 1502.21L3882.87 1503.21L3883.37 1502.35L3883.87 1501.48L3882.13 1500.48L3881.63 1501.35ZM3883.37 1502.35L3882.5 1501.85L3881.5 1503.58L3882.37 1504.08L3883.23 1504.58L3884.23 1502.85L3883.37 1502.35ZM3884.37 1500.61L3884.87 1499.75L3883.13 1498.75L3882.63 1499.61L3882.13 1500.48L3883.87 1501.48L3884.37 1500.61ZM3882.63 1499.61L3883.5 1500.11L3884.5 1498.38L3883.63 1497.88L3882.77 1497.38L3881.77 1499.11L3882.63 1499.61ZM3883.63 1497.88L3883.13 1498.75L3884.87 1499.75L3885.37 1498.88L3885.87 1498.02L3884.13 1497.02L3883.63 1497.88ZM3885.37 1498.88L3884.5 1498.38L3883.5 1500.11L3884.37 1500.61L3885.23 1501.11L3886.23 1499.38L3885.37 1498.88ZM3886.37 1497.15L3886.87 1496.28L3885.13 1495.28L3884.63 1496.15L3884.13 1497.02L3885.87 1498.02L3886.37 1497.15ZM3884.63 1496.15L3885.5 1496.65L3886.5 1494.92L3885.63 1494.42L3884.77 1493.92L3883.77 1495.65L3884.63 1496.15ZM3885.63 1494.42L3885.13 1495.28L3886.87 1496.28L3887.37 1495.42L3887.87 1494.55L3886.13 1493.55L3885.63 1494.42ZM3887.37 1495.42L3886.5 1494.92L3885.5 1496.65L3886.37 1497.15L3887.23 1497.65L3888.23 1495.92L3887.37 1495.42ZM3888.37 1493.69L3888.87 1492.82L3887.13 1491.82L3886.63 1492.69L3886.13 1493.55L3887.87 1494.55L3888.37 1493.69ZM3886.63 1492.69L3887.5 1493.19L3888.5 1491.45L3887.63 1490.95L3886.77 1490.45L3885.77 1492.19L3886.63 1492.69ZM3887.63 1490.95L3887.13 1491.82L3888.87 1492.82L3889.37 1491.95L3889.87 1491.09L3888.13 1490.09L3887.63 1490.95ZM3889.37 1491.95L3888.5 1491.45L3887.5 1493.19L3888.37 1493.69L3889.23 1494.19L3890.23 1492.45L3889.37 1491.95ZM3890.37 1490.22L3890.87 1489.36L3889.13 1488.36L3888.63 1489.22L3888.13 1490.09L3889.87 1491.09L3890.37 1490.22ZM3888.63 1489.22L3889.5 1489.72L3890.5 1487.99L3889.63 1487.49L3888.77 1486.99L3887.77 1488.72L3888.63 1489.22ZM3889.63 1487.49L3889.13 1488.36L3890.87 1489.36L3891.37 1488.49L3891.87 1487.62L3890.13 1486.62L3889.63 1487.49ZM3891.37 1488.49L3890.5 1487.99L3889.5 1489.72L3890.37 1490.22L3891.23 1490.72L3892.23 1488.99L3891.37 1488.49ZM3892.37 1486.76L3892.87 1485.89L3891.13 1484.89L3890.63 1485.76L3890.13 1486.62L3891.87 1487.62L3892.37 1486.76ZM3890.63 1485.76L3891.5 1486.26L3892.5 1484.53L3891.63 1484.03L3890.77 1483.53L3889.77 1485.26L3890.63 1485.76ZM3891.63 1484.03L3891.13 1484.89L3892.87 1485.89L3893.37 1485.03L3893.87 1484.16L3892.13 1483.16L3891.63 1484.03ZM3893.37 1485.03L3892.5 1484.53L3891.5 1486.26L3892.37 1486.76L3893.23 1487.26L3894.23 1485.53L3893.37 1485.03ZM3894.37 1483.29L3894.87 1482.43L3893.13 1481.43L3892.63 1482.29L3892.13 1483.16L3893.87 1484.16L3894.37 1483.29ZM3892.63 1482.29L3893.5 1482.79L3894.5 1481.06L3893.63 1480.56L3892.77 1480.06L3891.77 1481.79L3892.63 1482.29ZM3893.63 1480.56L3893.13 1481.43L3894.87 1482.43L3895.37 1481.56L3895.87 1480.7L3894.13 1479.7L3893.63 1480.56ZM3895.37 1481.56L3894.5 1481.06L3893.5 1482.79L3894.37 1483.29L3895.23 1483.79L3896.23 1482.06L3895.37 1481.56ZM3976.88 1336.51L3977.49 1337.3C3977.5 1337.29 3977.5 1337.29 3977.5 1337.29C3977.5 1337.29 3977.5 1337.29 3977.5 1337.29C3977.49 1337.29 3977.49 1337.3 3977.49 1337.3C3977.48 1337.3 3977.48 1337.3 3977.49 1337.3C3977.49 1337.3 3977.49 1337.3 3977.5 1337.3C3977.5 1337.3 3977.51 1337.31 3977.51 1337.31C3977.51 1337.31 3977.51 1337.31 3977.51 1337.31C3977.51 1337.31 3977.51 1337.3 3977.51 1337.3C3977.51 1337.3 3977.51 1337.3 3977.51 1337.3C3977.51 1337.3 3977.51 1337.3 3977.51 1337.3L3978.5 1337.44L3979.49 1337.58C3979.73 1335.8 3977.68 1334.62 3976.27 1335.72L3976.88 1336.51ZM3978.5 1337.44L3977.51 1337.3L3972.09 1376.51L3973.08 1376.65L3974.08 1376.78L3979.49 1337.58L3978.5 1337.44ZM3973.08 1376.65L3972.09 1376.51C3971.97 1377.38 3970.72 1377.7 3970.22 1376.8L3969.35 1377.28L3968.47 1377.77C3969.84 1380.24 3973.67 1379.68 3974.08 1376.78L3973.08 1376.65ZM3969.35 1377.28L3970.22 1376.8L3963.44 1364.67L3962.57 1365.16L3961.7 1365.65L3968.48 1377.77L3969.35 1377.28ZM3962.57 1365.16L3961.7 1364.66L3899.94 1471.64L3900.8 1472.14L3901.67 1472.64L3963.43 1365.66L3962.57 1365.16ZM3900.8 1472.14L3900.1 1472.86C3900.88 1473.62 3901.18 1474.75 3900.89 1475.8L3901.85 1476.07L3902.82 1476.34C3903.3 1474.59 3902.8 1472.7 3901.5 1471.43L3900.8 1472.14ZM3901.85 1476.07L3901.35 1476.94L3925.71 1491L3926.21 1490.13L3926.71 1489.27L3902.35 1475.2L3901.85 1476.07ZM3926.21 1490.13L3925.71 1491L3925.71 1491L3926.58 1491.5L3927.44 1492C3928 1491.04 3927.67 1489.82 3926.71 1489.27L3926.21 1490.13ZM3926.58 1491.5L3925.71 1491L3925.21 1491.87L3924.71 1492.73C3925.67 1493.28 3926.89 1492.96 3927.44 1492L3926.58 1491.5ZM3925.21 1491.87L3925.71 1491L3901.35 1476.94L3900.85 1477.8L3900.35 1478.67L3924.71 1492.73L3925.21 1491.87ZM3900.85 1477.8L3900.14 1477.1C3899.38 1477.88 3898.24 1478.18 3897.2 1477.89L3896.93 1478.85L3896.66 1479.82C3898.41 1480.3 3900.3 1479.8 3901.57 1478.5L3900.85 1477.8ZM3896.93 1478.85L3896.06 1478.35L3895.5 1479.33L3896.37 1479.83L3897.23 1480.33L3897.79 1479.35L3896.93 1478.85ZM3896.37 1479.83L3896.87 1478.96L3895.13 1477.96L3894.63 1478.83L3894.13 1479.7L3895.87 1480.7L3896.37 1479.83ZM3894.63 1478.83L3895.5 1479.33L3896.06 1478.35L3895.2 1477.85L3894.33 1477.35L3893.77 1478.33L3894.63 1478.83ZM3895.2 1477.85L3895.9 1477.14C3895.12 1476.38 3894.82 1475.24 3895.11 1474.2L3894.14 1473.93L3893.18 1473.66C3892.69 1475.41 3893.2 1477.3 3894.5 1478.57L3895.2 1477.85ZM3894.14 1473.93L3894.64 1473.06L3870.29 1459L3869.79 1459.87L3869.29 1460.73L3893.64 1474.79L3894.14 1473.93ZM3869.79 1459.87L3870.29 1459L3869.42 1458.5L3868.55 1458C3868 1458.96 3868.33 1460.18 3869.29 1460.73L3869.79 1459.87ZM3869.42 1458.5L3870.29 1459L3870.29 1459L3870.79 1458.13L3871.29 1457.27C3870.33 1456.71 3869.11 1457.04 3868.55 1458L3869.42 1458.5ZM3870.79 1458.13L3870.29 1459L3894.64 1473.06L3895.14 1472.2L3895.64 1471.33L3871.29 1457.27L3870.79 1458.13ZM3895.14 1472.2L3895.86 1472.9C3896.62 1472.12 3897.75 1471.82 3898.8 1472.11L3899.07 1471.14L3899.34 1470.18C3897.59 1469.69 3895.7 1470.2 3894.43 1471.5L3895.14 1472.2ZM3899.07 1471.14L3899.94 1471.64L3961.7 1364.66L3960.84 1364.16L3959.97 1363.66L3898.2 1470.64L3899.07 1471.14ZM3960.84 1364.16L3960.82 1363.16L3946.93 1363.35L3946.95 1364.35L3946.96 1365.35L3960.85 1365.16L3960.84 1364.16ZM3946.95 1364.35L3946.93 1363.35C3945.9 1363.37 3945.55 1362.13 3946.25 1361.59L3945.63 1360.8L3945.02 1360.01C3942.71 1361.81 3944.14 1365.4 3946.97 1365.35L3946.95 1364.35ZM3945.63 1360.8L3946.25 1361.59L3977.49 1337.3L3976.88 1336.51L3976.27 1335.72L3945.02 1360.01L3945.63 1360.8ZM3896 1475L3895 1475C3895 1476.03 3895.54 1477.04 3896.5 1477.6L3897 1476.73L3897.5 1475.87C3897.18 1475.68 3897 1475.35 3897 1475L3896 1475ZM3897 1476.73L3896.5 1477.6C3897.46 1478.15 3898.6 1478.11 3899.5 1477.6L3899 1476.73L3898.5 1475.86C3898.2 1476.04 3897.82 1476.05 3897.5 1475.87L3897 1476.73ZM3899 1476.73L3899.5 1475.86L3896.5 1474.13L3896 1475L3895.5 1475.87L3898.5 1477.6L3899 1476.73ZM3898 1473L3898 1472C3897.47 1472 3896.96 1472.14 3896.5 1472.4L3897 1473.27L3897.5 1474.13C3897.65 1474.05 3897.82 1474 3898 1474L3898 1473ZM3897 1473.27L3896.5 1474.13L3897.13 1474.5L3897.63 1473.63L3898.13 1472.77L3897.5 1472.4L3897 1473.27ZM3897.63 1473.63L3898.5 1474.13L3898.86 1473.5L3898 1473L3897.13 1472.5L3896.77 1473.13L3897.63 1473.63ZM3899.37 1474.63L3898.87 1475.5L3899.5 1475.86L3900 1475L3900.5 1474.13L3899.87 1473.77L3899.37 1474.63ZM3900 1475L3901 1475C3901 1474.47 3900.86 1473.96 3900.6 1473.5L3899.73 1474L3898.86 1474.5C3898.95 1474.65 3899 1474.82 3899 1475L3900 1475ZM3899.73 1474L3898.86 1473.5L3898.5 1474.13L3899.37 1474.63L3900.23 1475.13L3900.6 1474.5L3899.73 1474Z" fill="#F7F7F7" mask="url(#path-954-outside-34_68_6728)" id="n1383"/>
<circle cx="3898" cy="1475" r="2" transform="rotate(30 3898 1475)" fill="#F7F7F7" id="n1384"/>
<path d="M3998.07 1321.11C3997.97 1322.11 3997.37 1323.12 3996.32 1323.64L3983.77 1329.76C3982.5 1330.38 3981 1329.51 3980.9 1328.1L3979.92 1314.17C3979.84 1313 3980.42 1311.98 3981.23 1311.39C3982.05 1310.8 3983.22 1310.58 3984.27 1311.19L3996.73 1318.38C3997.78 1318.99 3998.17 1320.11 3998.07 1321.11Z" fill="#535353" stroke="white" stroke-width="2" stroke-linejoin="round" id="n1385"/>
</g>
</svg>
