<?xml version='1.0' encoding='utf-8'?>
<svg xmlns="http://www.w3.org/2000/svg" xmlns:xlink="http://www.w3.org/1999/xlink" width="384.0" height="384.0" viewBox="0 0 384.0 384.0" fill="none">
  <defs><clipPath id="clip__asset"><rect x="0" y="0" width="384.0" height="384.0"/></clipPath><mask id="mask134_68_6728" style="mask-type:luminance" maskUnits="userSpaceOnUse" x="4090" y="739" width="512" height="512">
<path fill-rule="evenodd" clip-rule="evenodd" d="M4346 807C4449.83 807 4534 891.17 4534 995C4534 1098.83 4449.83 1183 4346 1183C4242.17 1183 4158 1098.83 4158 995C4158 891.17 4242.17 807 4346 807ZM4346 831C4255.43 831 4182 904.425 4182 995C4182 1085.57 4255.43 1159 4346 1159C4436.57 1159 4510 1085.57 4510 995C4510 904.425 4436.57 831 4346 831Z" fill="white" stroke="black" id="n1142"/>
</mask>
<mask id="mask135_68_6728" style="mask-type:alpha" maskUnits="userSpaceOnUse" x="4090" y="739" width="512" height="512">
<path d="M4346 811C4447.62 811 4530 893.38 4530 995C4530 1096.62 4447.62 1179 4346 1179C4244.38 1179 4162 1096.62 4162 995C4162 893.38 4244.38 811 4346 811ZM4346 835C4257.63 835 4186 906.634 4186 995C4186 1083.37 4257.63 1155 4346 1155C4434.37 1155 4506 1083.37 4506 995C4506 906.634 4434.37 835 4346 835Z" fill="black" id="n1144"/>
</mask>
<mask id="mask136_68_6728" style="mask-type:alpha" maskUnits="userSpaceOnUse" x="4090" y="739" width="512" height="512">
<path d="M4346 803C4452.04 803 4538 888.961 4538 995C4538 1101.04 4452.04 1187 4346 1187C4239.96 1187 4154 1101.04 4154 995C4154 888.961 4239.96 803 4346 803ZM4346 831C4255.43 831 4182 904.425 4182 995C4182 1085.57 4255.43 1159 4346 1159C4436.57 1159 4510 1085.57 4510 995C4510 904.425 4436.57 831 4346 831Z" fill="black" id="n1147"/>
</mask>
<mask id="path-784-outside-23_68_6728" maskUnits="userSpaceOnUse" x="4329.21" y="898.911" width="165.224" height="116.177" fill="black">
<rect fill="white" x="4329.21" y="898.911" width="165.224" height="116.177" id="n1151"/>
<path d="M4483.56 914.501C4484.45 914.379 4485.04 915.412 4484.49 916.118L4460.2 947.365C4459.03 948.869 4456.62 947.976 4456.65 946.051L4456.82 933.327L4353.71 992.857C4354.67 996.29 4353.23 1000.06 4350 1001.93C4346.17 1004.14 4341.28 1002.83 4339.07 998.999C4336.86 995.173 4338.17 990.28 4342 988.071C4345.23 986.207 4349.22 986.849 4351.71 989.393L4454.82 929.863L4443.72 923.649C4442.03 922.716 4442.47 920.175 4444.35 919.914L4483.56 914.501ZM4349.46 992.999C4348.36 991.086 4345.91 990.431 4344 991.535C4342.09 992.64 4341.43 995.086 4342.54 996.999C4343.64 998.912 4346.09 999.568 4348 998.463C4349.91 997.359 4350.57 994.912 4349.46 992.999ZM4450.89 923.05L4460.89 928.666L4460.75 940.141L4476.82 919.47L4450.89 923.05Z" id="n1152"/>
</mask>
<mask id="path-786-outside-24_68_6728" maskUnits="userSpaceOnUse" x="4251.91" y="846.569" width="190.177" height="293.396" fill="black">
<rect fill="white" x="4251.91" y="846.569" width="190.177" height="293.396" id="n1155"/>
<path fill-rule="evenodd" clip-rule="evenodd" d="M4426.5 857.44C4426.62 856.554 4425.59 855.958 4424.88 856.506L4393.63 880.796C4392.13 881.966 4393.02 884.384 4394.95 884.351L4405.34 884.21L4346 987C4343.24 987.002 4340.55 988.435 4339.07 990.999C4337.21 994.228 4337.85 998.215 4340.39 1000.71L4267.27 1127.37C4266.72 1128.32 4267.04 1129.55 4268 1130.1C4268.96 1130.65 4270.18 1130.32 4270.73 1129.37L4343.86 1002.71C4347.29 1003.66 4351.06 1002.23 4352.93 998.999C4354.41 996.435 4354.31 993.393 4352.93 991L4412.27 888.21L4417.35 897.284C4418.28 898.968 4420.82 898.533 4421.08 896.645L4426.5 857.44ZM4344 998.463C4345.91 999.568 4348.36 998.913 4349.46 996.999C4350.57 995.086 4349.91 992.64 4348 991.535C4346.09 990.431 4343.64 991.086 4342.54 992.999C4341.43 994.913 4342.09 997.359 4344 998.463Z" id="n1156"/>
</mask>
</defs>
  <g clip-path="url(#clip__asset)" transform="translate(-4154.0 -803.0)"><path fill-rule="evenodd" clip-rule="evenodd" d="M4346 807C4449.83 807 4534 891.17 4534 995C4534 1098.83 4449.83 1183 4346 1183C4242.17 1183 4158 1098.83 4158 995C4158 891.17 4242.17 807 4346 807ZM4346 831C4255.43 831 4182 904.425 4182 995C4182 1085.57 4255.43 1159 4346 1159C4436.57 1159 4510 1085.57 4510 995C4510 904.425 4436.57 831 4346 831Z" fill="white" stroke="white" id="n1138"/>
<path fill-rule="evenodd" clip-rule="evenodd" d="M4346 807C4449.83 807 4534 891.17 4534 995C4534 1098.83 4449.83 1183 4346 1183C4242.17 1183 4158 1098.83 4158 995C4158 891.17 4242.17 807 4346 807ZM4346 831C4255.43 831 4182 904.425 4182 995C4182 1085.57 4255.43 1159 4346 1159C4436.57 1159 4510 1085.57 4510 995C4510 904.425 4436.57 831 4346 831Z" stroke="#BEBEBE" id="n1139"/>
<path d="M4182 995H4510" stroke="#BEBEBE" stroke-linecap="square" id="n1140"/>
<path d="M4346 831L4346 1159" stroke="#BEBEBE" stroke-linecap="square" id="n1141"/>
<g mask="url(#mask134_68_6728)" id="n1143">
<mask id="mask135_68_6728" style="mask-type:alpha" maskUnits="userSpaceOnUse" x="4090" y="739" width="512" height="512">
<path d="M4346 811C4447.62 811 4530 893.38 4530 995C4530 1096.62 4447.62 1179 4346 1179C4244.38 1179 4162 1096.62 4162 995C4162 893.38 4244.38 811 4346 811ZM4346 835C4257.63 835 4186 906.634 4186 995C4186 1083.37 4257.63 1155 4346 1155C4434.37 1155 4506 1083.37 4506 995C4506 906.634 4434.37 835 4346 835Z" fill="black" id="n1144"/>
</mask>
<g mask="url(#mask135_68_6728)" id="n1145">
<path d="M4346 795V995M4346 995H4146M4346 995V1195M4346 995H4546" stroke="#BEBEBE" id="n1146"/>
</g>
<mask id="mask136_68_6728" style="mask-type:alpha" maskUnits="userSpaceOnUse" x="4090" y="739" width="512" height="512">
<path d="M4346 803C4452.04 803 4538 888.961 4538 995C4538 1101.04 4452.04 1187 4346 1187C4239.96 1187 4154 1101.04 4154 995C4154 888.961 4239.96 803 4346 803ZM4346 831C4255.43 831 4182 904.425 4182 995C4182 1085.57 4255.43 1159 4346 1159C4436.57 1159 4510 1085.57 4510 995C4510 904.425 4436.57 831 4346 831Z" fill="black" id="n1147"/>
</mask>
<g mask="url(#mask136_68_6728)" id="n1148">
<path d="M4346 795V995M4346 995H4146M4346 995V1195M4346 995H4546" stroke="#BEBEBE" id="n1149"/>
</g>
</g>
<path d="M4344.37 810.281C4345.17 809.164 4346.83 809.164 4347.62 810.281L4363.05 831.877C4357.45 831.298 4351.76 831 4346 831C4340.24 831 4334.55 831.299 4328.94 831.878L4344.37 810.281Z" fill="#BEBEBE" id="n1150"/>
<path d="M4483.56 914.501C4484.45 914.379 4485.04 915.412 4484.49 916.118L4460.2 947.365C4459.03 948.869 4456.62 947.976 4456.65 946.051L4456.82 933.327L4353.71 992.857C4354.67 996.29 4353.23 1000.06 4350 1001.93C4346.17 1004.14 4341.28 1002.83 4339.07 998.999C4336.86 995.173 4338.17 990.28 4342 988.071C4345.23 986.207 4349.22 986.849 4351.71 989.393L4454.82 929.863L4443.72 923.649C4442.03 922.716 4442.47 920.175 4444.35 919.914L4483.56 914.501ZM4349.46 992.999C4348.36 991.086 4345.91 990.431 4344 991.535C4342.09 992.64 4341.43 995.086 4342.54 996.999C4343.64 998.912 4346.09 999.568 4348 998.463C4349.91 997.359 4350.57 994.912 4349.46 992.999ZM4450.89 923.05L4460.89 928.666L4460.75 940.141L4476.82 919.47L4450.89 923.05Z" fill="#535353" id="n1153"/>
<path d="M4483.56 914.501L4483.42 913.511L4483.42 913.511L4483.56 914.501ZM4484.49 916.118L4485.28 916.732L4485.28 916.732L4484.49 916.118ZM4460.2 947.365L4459.41 946.751L4459.41 946.751L4460.2 947.365ZM4456.65 946.051L4457.65 946.068L4457.65 946.064L4456.65 946.051ZM4456.82 933.327L4457.82 933.34L4457.84 931.581L4456.32 932.461L4456.82 933.327ZM4353.71 992.857L4353.21 991.991L4352.54 992.379L4352.75 993.126L4353.71 992.857ZM4350 1001.93L4350.5 1002.79L4350.5 1002.79L4350 1001.93ZM4339.07 998.999L4338.21 999.499L4338.21 999.499L4339.07 998.999ZM4342 988.071L4341.5 987.205L4341.5 987.205L4342 988.071ZM4351.71 989.393L4351 990.093L4351.54 990.647L4352.21 990.259L4351.71 989.393ZM4454.82 929.863L4455.32 930.729L4456.84 929.849L4455.31 928.99L4454.82 929.863ZM4443.72 923.649L4444.2 922.776L4444.2 922.775L4443.72 923.649ZM4444.35 919.914L4444.49 920.905L4444.49 920.905L4444.35 919.914ZM4349.46 992.999L4350.33 992.499L4350.33 992.499L4349.46 992.999ZM4344 991.535L4343.5 990.669L4343.5 990.669L4344 991.535ZM4342.54 996.999L4341.67 997.499L4341.67 997.499L4342.54 996.999ZM4348 998.463L4348.5 999.329L4348.5 999.329L4348 998.463ZM4450.89 923.05L4450.75 922.06L4447.8 922.466L4450.4 923.922L4450.89 923.05ZM4460.89 928.666L4461.89 928.679L4461.9 928.085L4461.38 927.794L4460.89 928.666ZM4460.75 940.141L4459.75 940.129L4459.72 943.103L4461.54 940.755L4460.75 940.141ZM4476.82 919.47L4477.61 920.084L4479.12 918.143L4476.68 918.479L4476.82 919.47ZM4483.56 914.501L4483.7 915.492C4483.7 915.491 4483.7 915.491 4483.7 915.491C4483.7 915.491 4483.7 915.491 4483.7 915.491C4483.7 915.49 4483.69 915.489 4483.69 915.488C4483.69 915.487 4483.69 915.486 4483.69 915.488C4483.69 915.491 4483.7 915.494 4483.7 915.499C4483.7 915.504 4483.7 915.509 4483.7 915.512C4483.7 915.515 4483.7 915.515 4483.7 915.513C4483.7 915.51 4483.71 915.506 4483.71 915.502C4483.71 915.5 4483.71 915.499 4483.71 915.5C4483.71 915.5 4483.71 915.501 4483.7 915.505L4484.49 916.118L4485.28 916.732C4486.38 915.318 4485.2 913.266 4483.42 913.511L4483.56 914.501ZM4484.49 916.118L4483.7 915.505L4459.41 946.751L4460.2 947.365L4460.99 947.979L4485.28 916.732L4484.49 916.118ZM4460.2 947.365L4459.41 946.751C4458.87 947.447 4457.63 947.096 4457.65 946.068L4456.65 946.051L4455.65 946.033C4455.6 948.855 4459.19 950.292 4460.99 947.979L4460.2 947.365ZM4456.65 946.051L4457.65 946.064L4457.82 933.34L4456.82 933.327L4455.82 933.313L4455.65 946.037L4456.65 946.051ZM4456.82 933.327L4456.32 932.461L4353.21 991.991L4353.71 992.857L4354.21 993.723L4457.32 934.193L4456.82 933.327ZM4353.71 992.857L4352.75 993.126C4353.58 996.129 4352.32 999.431 4349.5 1001.06L4350 1001.93L4350.5 1002.79C4354.13 1000.7 4355.75 996.45 4354.67 992.589L4353.71 992.857ZM4350 1001.93L4349.5 1001.06C4346.15 1002.99 4341.87 1001.85 4339.94 998.499L4339.07 998.999L4338.21 999.499C4340.69 1003.8 4346.2 1005.28 4350.5 1002.79L4350 1001.93ZM4339.07 998.999L4339.94 998.499C4338.01 995.151 4339.15 990.87 4342.5 988.937L4342 988.071L4341.5 987.205C4337.2 989.69 4335.72 995.195 4338.21 999.499L4339.07 998.999ZM4342 988.071L4342.5 988.937C4345.32 987.307 4348.81 987.867 4351 990.093L4351.71 989.393L4352.42 988.693C4349.62 985.831 4345.13 985.108 4341.5 987.205L4342 988.071ZM4351.71 989.393L4352.21 990.259L4455.32 930.729L4454.82 929.863L4454.32 928.996L4351.21 988.527L4351.71 989.393ZM4454.82 929.863L4455.31 928.99L4444.2 922.776L4443.72 923.649L4443.23 924.522L4454.33 930.735L4454.82 929.863ZM4443.72 923.649L4444.2 922.775C4443.3 922.276 4443.62 921.025 4444.49 920.905L4444.35 919.914L4444.22 918.924C4441.32 919.324 4440.76 923.155 4443.23 924.524L4443.72 923.649ZM4444.35 919.914L4444.49 920.905L4483.7 915.492L4483.56 914.501L4483.42 913.511L4444.22 918.924L4444.35 919.914ZM4349.46 992.999L4350.33 992.499C4348.95 990.108 4345.89 989.289 4343.5 990.669L4344 991.535L4344.5 992.401C4345.94 991.573 4347.77 992.065 4348.6 993.499L4349.46 992.999ZM4344 991.535L4343.5 990.669C4341.11 992.05 4340.29 995.108 4341.67 997.499L4342.54 996.999L4343.4 996.499C4342.57 995.064 4343.07 993.23 4344.5 992.401L4344 991.535ZM4342.54 996.999L4341.67 997.499C4343.05 999.891 4346.11 1000.71 4348.5 999.329L4348 998.463L4347.5 997.597C4346.07 998.426 4344.23 997.934 4343.4 996.499L4342.54 996.999ZM4348 998.463L4348.5 999.329C4350.89 997.949 4351.71 994.891 4350.33 992.499L4349.46 992.999L4348.6 993.499C4349.43 994.934 4348.94 996.769 4347.5 997.597L4348 998.463ZM4450.89 923.05L4450.4 923.922L4460.4 929.538L4460.89 928.666L4461.38 927.794L4451.38 922.178L4450.89 923.05ZM4460.89 928.666L4459.89 928.654L4459.75 940.129L4460.75 940.141L4461.75 940.153L4461.89 928.679L4460.89 928.666ZM4460.75 940.141L4461.54 940.755L4477.61 920.084L4476.82 919.47L4476.03 918.856L4459.96 939.527L4460.75 940.141ZM4476.82 919.47L4476.68 918.479L4450.75 922.06L4450.89 923.05L4451.02 924.041L4476.96 920.461L4476.82 919.47Z" fill="#F7F7F7" mask="url(#path-784-outside-23_68_6728)" id="n1154"/>
<path fill-rule="evenodd" clip-rule="evenodd" d="M4426.5 857.44C4426.62 856.554 4425.59 855.958 4424.88 856.506L4393.63 880.796C4392.13 881.966 4393.02 884.384 4394.95 884.351L4405.34 884.21L4346 987C4343.24 987.002 4340.55 988.435 4339.07 990.999C4337.21 994.228 4337.85 998.215 4340.39 1000.71L4267.27 1127.37C4266.72 1128.32 4267.04 1129.55 4268 1130.1C4268.96 1130.65 4270.18 1130.32 4270.73 1129.37L4343.86 1002.71C4347.29 1003.66 4351.06 1002.23 4352.93 998.999C4354.41 996.435 4354.31 993.393 4352.93 991L4412.27 888.21L4417.35 897.284C4418.28 898.968 4420.82 898.533 4421.08 896.645L4426.5 857.44ZM4344 998.463C4345.91 999.568 4348.36 998.913 4349.46 996.999C4350.57 995.086 4349.91 992.64 4348 991.535C4346.09 990.431 4343.64 991.086 4342.54 992.999C4341.43 994.913 4342.09 997.359 4344 998.463Z" fill="#2D548B" id="n1157"/>
<path d="M4424.88 856.506L4424.27 855.717L4424.27 855.717L4424.88 856.506ZM4426.5 857.44L4427.49 857.577L4427.49 857.576L4426.5 857.44ZM4393.63 880.796L4394.25 881.586L4394.25 881.586L4393.63 880.796ZM4394.95 884.351L4394.93 883.351L4394.93 883.351L4394.95 884.351ZM4405.34 884.21L4406.21 884.71L4407.09 883.186L4405.33 883.21L4405.34 884.21ZM4346 987L4346 988L4346.58 987.999L4346.87 987.5L4346 987ZM4339.07 990.999L4338.21 990.499L4338.21 990.499L4339.07 990.999ZM4340.39 1000.71L4341.26 1001.21L4341.65 1000.54L4341.09 999.995L4340.39 1000.71ZM4268 1130.1L4267.5 1130.97L4267.5 1130.97L4268 1130.1ZM4343.86 1002.71L4344.13 1001.75L4343.38 1001.54L4342.99 1002.21L4343.86 1002.71ZM4352.93 998.999L4353.79 999.499L4353.79 999.499L4352.93 998.999ZM4352.93 991L4352.06 990.5L4351.77 990.999L4352.06 991.499L4352.93 991ZM4412.27 888.21L4413.15 887.722L4412.29 886.186L4411.41 887.71L4412.27 888.21ZM4417.35 897.284L4418.22 896.799L4418.22 896.796L4417.35 897.284ZM4421.08 896.645L4420.09 896.508L4420.09 896.508L4421.08 896.645ZM4424.88 856.506L4425.49 857.296C4425.5 857.293 4425.5 857.292 4425.5 857.292C4425.5 857.292 4425.5 857.293 4425.5 857.293C4425.49 857.295 4425.49 857.295 4425.49 857.295C4425.48 857.295 4425.48 857.295 4425.49 857.296C4425.49 857.297 4425.49 857.298 4425.5 857.301C4425.5 857.304 4425.51 857.307 4425.51 857.309C4425.51 857.312 4425.51 857.312 4425.51 857.31C4425.51 857.307 4425.51 857.304 4425.51 857.299C4425.51 857.298 4425.51 857.297 4425.51 857.297C4425.51 857.297 4425.51 857.299 4425.51 857.303L4426.5 857.44L4427.49 857.576C4427.73 855.802 4425.68 854.618 4424.27 855.717L4424.88 856.506ZM4393.63 880.796L4394.25 881.586L4425.49 857.296L4424.88 856.506L4424.27 855.717L4393.02 880.007L4393.63 880.796ZM4394.95 884.351L4394.93 883.351C4393.9 883.369 4393.55 882.127 4394.25 881.586L4393.63 880.796L4393.02 880.007C4390.71 881.805 4392.14 885.4 4394.97 885.35L4394.95 884.351ZM4405.34 884.21L4405.33 883.21L4394.93 883.351L4394.95 884.351L4394.96 885.35L4405.36 885.21L4405.34 884.21ZM4346 987L4346.87 987.5L4406.21 884.71L4405.34 884.21L4404.48 883.71L4345.13 986.5L4346 987ZM4339.07 990.999L4339.94 991.499C4341.23 989.257 4343.58 988.002 4346 988L4346 987L4346 986C4342.89 986.003 4339.87 987.613 4338.21 990.499L4339.07 990.999ZM4340.39 1000.71L4341.09 999.995C4338.87 997.812 4338.31 994.323 4339.94 991.499L4339.07 990.999L4338.21 990.499C4336.11 994.132 4336.83 998.617 4339.69 1001.42L4340.39 1000.71ZM4267.27 1127.37L4268.13 1127.87L4341.26 1001.21L4340.39 1000.71L4339.53 1000.21L4266.4 1126.87L4267.27 1127.37ZM4268 1130.1L4268.5 1129.23C4268.02 1128.96 4267.86 1128.35 4268.13 1127.87L4267.27 1127.37L4266.4 1126.87C4265.57 1128.3 4266.06 1130.14 4267.5 1130.97L4268 1130.1ZM4270.73 1129.37L4269.87 1128.87C4269.59 1129.35 4268.98 1129.51 4268.5 1129.23L4268 1130.1L4267.5 1130.97C4268.93 1131.79 4270.77 1131.3 4271.6 1129.87L4270.73 1129.37ZM4343.86 1002.71L4342.99 1002.21L4269.87 1128.87L4270.73 1129.37L4271.6 1129.87L4344.72 1003.21L4343.86 1002.71ZM4352.93 998.999L4352.06 998.499C4350.43 1001.32 4347.13 1002.58 4344.13 1001.75L4343.86 1002.71L4343.59 1003.67C4347.45 1004.75 4351.7 1003.13 4353.79 999.499L4352.93 998.999ZM4352.93 991L4352.06 991.499C4353.27 993.596 4353.36 996.257 4352.06 998.499L4352.93 998.999L4353.79 999.499C4355.46 996.613 4355.34 993.19 4353.79 990.5L4352.93 991ZM4412.27 888.21L4411.41 887.71L4352.06 990.5L4352.93 991L4353.79 991.5L4413.14 888.71L4412.27 888.21ZM4417.35 897.284L4418.22 896.796L4413.15 887.722L4412.27 888.21L4411.4 888.698L4416.48 897.772L4417.35 897.284ZM4421.08 896.645L4420.09 896.508C4419.97 897.381 4418.72 897.698 4418.22 896.799L4417.35 897.284L4416.48 897.769C4417.84 900.237 4421.67 899.685 4422.08 896.782L4421.08 896.645ZM4426.5 857.44L4425.51 857.303L4420.09 896.508L4421.08 896.645L4422.08 896.782L4427.49 857.577L4426.5 857.44ZM4349.46 996.999L4348.6 996.499C4347.77 997.934 4345.93 998.426 4344.5 997.597L4344 998.463L4343.5 999.329C4345.89 1000.71 4348.95 999.891 4350.33 997.499L4349.46 996.999ZM4348 991.535L4347.5 992.401C4348.93 993.23 4349.43 995.064 4348.6 996.499L4349.46 996.999L4350.33 997.499C4351.71 995.108 4350.89 992.05 4348.5 990.669L4348 991.535ZM4342.54 992.999L4343.4 993.499C4344.23 992.064 4346.06 991.573 4347.5 992.401L4348 991.535L4348.5 990.669C4346.11 989.288 4343.05 990.108 4341.67 992.499L4342.54 992.999ZM4344 998.463L4344.5 997.597C4343.06 996.769 4342.57 994.934 4343.4 993.499L4342.54 992.999L4341.67 992.499C4340.29 994.891 4341.11 997.949 4343.5 999.329L4344 998.463Z" fill="#F7F7F7" mask="url(#path-786-outside-24_68_6728)" id="n1158"/>
<path d="M4446.07 841.112C4445.97 842.114 4445.37 843.124 4444.32 843.64L4431.77 849.757C4430.5 850.378 4429 849.513 4428.9 848.099L4427.92 834.174C4427.84 833.001 4428.42 831.982 4429.23 831.394C4430.05 830.804 4431.22 830.581 4432.27 831.186L4444.73 838.383C4445.78 838.989 4446.17 840.109 4446.07 841.112Z" fill="#2D548B" stroke="white" stroke-width="2" stroke-linejoin="round" id="n1159"/>
</g>
</svg>
