<?xml version='1.0' encoding='utf-8'?>
<svg xmlns="http://www.w3.org/2000/svg" xmlns:xlink="http://www.w3.org/1999/xlink" width="384.0" height="384.0" viewBox="0 0 384.0 384.0" fill="none">
  <defs><clipPath id="clip__asset"><rect x="0" y="0" width="384.0" height="384.0"/></clipPath><mask id="mask272_68_6728" style="mask-type:luminance" maskUnits="userSpaceOnUse" x="5262" y="935" width="512" height="512">
<path fill-rule="evenodd" clip-rule="evenodd" d="M5518 1003C5621.83 1003 5706 1087.17 5706 1191C5706 1294.83 5621.83 1379 5518 1379C5414.17 1379 5330 1294.83 5330 1191C5330 1087.17 5414.17 1003 5518 1003ZM5518 1027C5427.43 1027 5354 1100.43 5354 1191C5354 1281.57 5427.43 1355 5518 1355C5608.57 1355 5682 1281.57 5682 1191C5682 1100.43 5608.57 1027 5518 1027Z" fill="white" stroke="black" id="n2202"/>
</mask>
<mask id="mask273_68_6728" style="mask-type:alpha" maskUnits="userSpaceOnUse" x="5262" y="935" width="512" height="512">
<path d="M5518 999C5624.04 999 5710 1084.96 5710 1191C5710 1297.04 5624.04 1383 5518 1383C5411.96 1383 5326 1297.04 5326 1191C5326 1084.96 5411.96 999 5518 999ZM5518 1023C5425.22 1023 5350 1098.22 5350 1191C5350 1283.78 5425.22 1359 5518 1359C5610.78 1359 5686 1283.78 5686 1191C5686 1098.22 5610.78 1023 5518 1023Z" fill="black" id="n2204"/>
</mask>
<mask id="mask274_68_6728" style="mask-type:alpha" maskUnits="userSpaceOnUse" x="5262" y="935" width="512" height="512">
<path d="M5518 999C5624.04 999 5710 1084.96 5710 1191C5710 1297.04 5624.04 1383 5518 1383C5411.96 1383 5326 1297.04 5326 1191C5326 1084.96 5411.96 999 5518 999ZM5518 1027C5427.43 1027 5354 1100.43 5354 1191C5354 1281.57 5427.43 1355 5518 1355C5608.57 1355 5682 1281.57 5682 1191C5682 1100.43 5608.57 1027 5518 1027Z" fill="black" id="n2207"/>
</mask>
<mask id="mask275_68_6728" style="mask-type:alpha" maskUnits="userSpaceOnUse" x="5518" y="935" width="222" height="256">
<path d="M5518 935C5562.94 935 5607.08 946.829 5646 969.297C5684.92 991.766 5717.23 1024.08 5739.7 1063L5518 1191V935Z" fill="#D9D9D9" id="n2224"/>
</mask>
</defs>
  <g clip-path="url(#clip__asset)" transform="translate(-5326.0 -999.0)"><path fill-rule="evenodd" clip-rule="evenodd" d="M5518 1003C5621.83 1003 5706 1087.17 5706 1191C5706 1294.83 5621.83 1379 5518 1379C5414.17 1379 5330 1294.83 5330 1191C5330 1087.17 5414.17 1003 5518 1003ZM5518 1027C5427.43 1027 5354 1100.43 5354 1191C5354 1281.57 5427.43 1355 5518 1355C5608.57 1355 5682 1281.57 5682 1191C5682 1100.43 5608.57 1027 5518 1027Z" fill="white" stroke="white" id="n2200"/>
<path fill-rule="evenodd" clip-rule="evenodd" d="M5518 1003C5621.83 1003 5706 1087.17 5706 1191C5706 1294.83 5621.83 1379 5518 1379C5414.17 1379 5330 1294.83 5330 1191C5330 1087.17 5414.17 1003 5518 1003ZM5518 1027C5427.43 1027 5354 1100.43 5354 1191C5354 1281.57 5427.43 1355 5518 1355C5608.57 1355 5682 1281.57 5682 1191C5682 1100.43 5608.57 1027 5518 1027Z" stroke="#BEBEBE" id="n2201"/>
<g mask="url(#mask272_68_6728)" id="n2203">
<mask id="mask273_68_6728" style="mask-type:alpha" maskUnits="userSpaceOnUse" x="5262" y="935" width="512" height="512">
<path d="M5518 999C5624.04 999 5710 1084.96 5710 1191C5710 1297.04 5624.04 1383 5518 1383C5411.96 1383 5326 1297.04 5326 1191C5326 1084.96 5411.96 999 5518 999ZM5518 1023C5425.22 1023 5350 1098.22 5350 1191C5350 1283.78 5425.22 1359 5518 1359C5610.78 1359 5686 1283.78 5686 1191C5686 1098.22 5610.78 1023 5518 1023Z" fill="black" id="n2204"/>
</mask>
<g mask="url(#mask273_68_6728)" id="n2205">
<path d="M5518 991V1191M5518 1191H5318M5518 1191V1391M5518 1191H5718" stroke="#BEBEBE" id="n2206"/>
</g>
<mask id="mask274_68_6728" style="mask-type:alpha" maskUnits="userSpaceOnUse" x="5262" y="935" width="512" height="512">
<path d="M5518 999C5624.04 999 5710 1084.96 5710 1191C5710 1297.04 5624.04 1383 5518 1383C5411.96 1383 5326 1297.04 5326 1191C5326 1084.96 5411.96 999 5518 999ZM5518 1027C5427.43 1027 5354 1100.43 5354 1191C5354 1281.57 5427.43 1355 5518 1355C5608.57 1355 5682 1281.57 5682 1191C5682 1100.43 5608.57 1027 5518 1027Z" fill="black" id="n2207"/>
</mask>
<g mask="url(#mask274_68_6728)" id="n2208">
<path d="M5518 991V1191" stroke="#BEBEBE" id="n2209"/>
</g>
</g>
<circle cx="5518" cy="1191" r="12" stroke="#BEBEBE" id="n2210"/>
<path d="M5518 1179V1027M5530 1191H5682M5518 1203V1355M5506 1191H5354" stroke="#BEBEBE" id="n2211"/>
<path d="M5559 1191C5559 1213.64 5540.64 1232 5518 1232C5495.36 1232 5477 1213.64 5477 1191C5477 1168.36 5495.36 1150 5518 1150C5540.64 1150 5559 1168.36 5559 1191Z" stroke="#BEBEBE" id="n2212"/>
<path d="M5600 1191C5600 1236.29 5563.29 1273 5518 1273C5472.71 1273 5436 1236.29 5436 1191C5436 1145.71 5472.71 1109 5518 1109C5563.29 1109 5600 1145.71 5600 1191Z" stroke="#BEBEBE" id="n2213"/>
<path d="M5641 1191C5641 1258.93 5585.93 1314 5518 1314C5450.07 1314 5395 1258.93 5395 1191C5395 1123.07 5450.07 1068 5518 1068C5585.93 1068 5641 1123.07 5641 1191Z" stroke="#BEBEBE" id="n2214"/>
<path d="M5682 1191C5682 1281.57 5608.57 1355 5518 1355C5427.43 1355 5354 1281.57 5354 1191C5354 1100.43 5427.43 1027 5518 1027C5608.57 1027 5682 1100.43 5682 1191Z" stroke="#BEBEBE" id="n2215"/>
<circle cx="5518" cy="1191" r="77" fill="#BEBEBE" stroke="#BEBEBE" id="n2216"/>
<path d="M5551.73 1121.07C5550.58 1125.34 5546.2 1127.87 5541.93 1126.73C5537.66 1125.58 5535.13 1121.2 5536.27 1116.93C5537.42 1112.66 5541.8 1110.13 5546.07 1111.27C5550.34 1112.42 5552.87 1116.8 5551.73 1121.07Z" fill="#535353" stroke="white" stroke-width="2" id="n2217"/>
<path d="M5504.5 1185.46L5504.5 1153.14C5504.5 1120.25 5518 1120.25 5518 1120.25C5518 1120.25 5531.5 1120.25 5531.5 1153.14L5531.5 1196.24L5531.5 1257.75C5531.5 1258.85 5530.6 1259.75 5529.5 1259.75L5528.13 1259.75L5507.88 1259.75L5506.5 1259.75C5505.4 1259.75 5504.5 1258.85 5504.5 1257.75L5504.5 1185.46Z" fill="white" id="n2218"/>
<path d="M5504.5 1185.46L5509 1178.66L5509 1172.99L5527.56 1172.99L5527.56 1192.27L5531.5 1196.24M5531.5 1196.24L5531.5 1257.75C5531.5 1258.85 5530.6 1259.75 5529.5 1259.75L5528.13 1259.75L5507.88 1259.75L5506.5 1259.75C5505.4 1259.75 5504.5 1258.85 5504.5 1257.75L5504.5 1153.14C5504.5 1120.25 5518 1120.25 5518 1120.25C5518 1120.25 5531.5 1120.25 5531.5 1153.14L5531.5 1196.24Z" stroke="#8E8E8E" id="n2219"/>
<path d="M5509 1166.38L5502.25 1166.38L5502.25 1157.38L5509 1152.88L5513.5 1141.63L5522.5 1141.63L5527 1152.88L5533.75 1157.38L5533.75 1166.37L5527 1166.37L5523.62 1169.75L5512.37 1169.75L5509 1166.38Z" fill="white" id="n2220"/>
<path d="M5512.37 1169.75L5509 1166.38L5502.25 1166.38L5502.25 1157.38L5509 1152.88L5513.5 1141.63M5512.37 1169.75L5523.62 1169.75M5512.37 1169.75L5512.37 1154C5512.64 1149.59 5513.5 1141.63 5513.5 1141.63M5523.62 1169.75L5527 1166.37L5533.75 1166.37L5533.75 1157.38L5527 1152.88L5522.5 1141.63M5523.62 1169.75L5523.62 1154C5523.36 1149.59 5522.5 1141.63 5522.5 1141.63M5522.5 1141.63L5513.5 1141.63" stroke="#8E8E8E" id="n2221"/>
<path d="M5523.62 1160.63L5523.62 1166.25L5521.37 1167.37L5514.62 1167.37L5512.37 1166.25L5512.37 1160.63L5514.62 1164L5521.37 1164L5523.62 1160.63Z" fill="white" id="n2222"/>
<path d="M5521.37 1164L5523.62 1160.63L5523.62 1166.25L5521.37 1167.37M5521.37 1164L5514.62 1164M5521.37 1164L5521.37 1167.37M5514.62 1164L5512.37 1160.63L5512.37 1166.25L5514.62 1167.37M5514.62 1164L5514.62 1167.37M5514.62 1167.37L5521.37 1167.37" stroke="#8E8E8E" id="n2223"/>
<g mask="url(#mask275_68_6728)" id="n2225">
<path d="M5518 1007C5619.62 1007 5702 1089.38 5702 1191C5702 1292.62 5619.62 1375 5518 1375C5416.38 1375 5334 1292.62 5334 1191C5334 1089.38 5416.38 1007 5518 1007ZM5518 1023C5425.22 1023 5350 1098.22 5350 1191C5350 1283.78 5425.22 1359 5518 1359C5610.78 1359 5686 1283.78 5686 1191C5686 1098.22 5610.78 1023 5518 1023Z" fill="#BEBEBE" id="n2226"/>
</g>
<path d="M5674.42 1109.93C5670.6 1112.14 5665.7 1110.82 5663.5 1107C5661.29 1103.17 5662.6 1098.28 5666.42 1096.07C5670.25 1093.86 5675.14 1095.17 5677.35 1099C5679.56 1102.82 5678.25 1107.72 5674.42 1109.93Z" fill="#535353" stroke="white" stroke-width="2" id="n2227"/>
</g>
</svg>
