<?xml version='1.0' encoding='utf-8'?>
<svg xmlns="http://www.w3.org/2000/svg" xmlns:xlink="http://www.w3.org/1999/xlink" width="640.0" height="64.0" viewBox="0 0 640.0 64.0" fill="none">
  <defs><clipPath id="clip__asset"><rect x="0" y="0" width="640.0" height="64.0"/></clipPath><mask id="path-767-inside-135_1702_11540" fill="white">
<path d="M6188 785.6C6188 782.24 6188 780.56 6188.65 779.276C6189.23 778.147 6190.15 777.229 6191.28 776.654C6192.56 776 6194.24 776 6197.6 776H6818.4C6821.76 776 6823.44 776 6824.72 776.654C6825.85 777.229 6826.77 778.147 6827.35 779.276C6828 780.56 6828 782.24 6828 785.6V822.4C6828 825.76 6828 827.44 6827.35 828.724C6826.77 829.853 6825.85 830.771 6824.72 831.346C6823.44 832 6821.76 832 6818.4 832H6197.6C6194.24 832 6192.56 832 6191.28 831.346C6190.15 830.771 6189.23 829.853 6188.65 828.724C6188 827.44 6188 825.76 6188 822.4V785.6Z" id="n908"/>
</mask>
</defs>
  <g clip-path="url(#clip__asset)" transform="translate(-6188.0 -772.0)"><path d="M6188 785.6C6188 782.24 6188 780.56 6188.65 779.276C6189.23 778.147 6190.15 777.229 6191.28 776.654C6192.56 776 6194.24 776 6197.6 776H6818.4C6821.76 776 6823.44 776 6824.72 776.654C6825.85 777.229 6826.77 778.147 6827.35 779.276C6828 780.56 6828 782.24 6828 785.6V822.4C6828 825.76 6828 827.44 6827.35 828.724C6826.77 829.853 6825.85 830.771 6824.72 831.346C6823.44 832 6821.76 832 6818.4 832H6197.6C6194.24 832 6192.56 832 6191.28 831.346C6190.15 830.771 6189.23 829.853 6188.65 828.724C6188 827.44 6188 825.76 6188 822.4V785.6Z" fill="black" fill-opacity="0.04" id="n909"/>
<path d="M6191.28 831.346L6190.82 832.237L6191.28 831.346ZM6188.65 828.724L6187.76 829.178L6188.65 828.724ZM6827.35 828.724L6828.24 829.178L6827.35 828.724ZM6824.72 831.346L6824.27 830.455L6824.72 831.346ZM6824.72 776.654L6824.27 777.545L6824.72 776.654ZM6827.35 779.276L6826.46 779.73L6827.35 779.276ZM6197.6 776V777H6818.4V776V775H6197.6V776ZM6828 785.6H6827V822.4H6828H6829V785.6H6828ZM6818.4 832V831H6197.6V832V833H6818.4V832ZM6188 822.4H6189V785.6H6188H6187V822.4H6188ZM6197.6 832V831C6195.9 831 6194.69 830.999 6193.74 830.922C6192.8 830.845 6192.21 830.698 6191.73 830.455L6191.28 831.346L6190.82 832.237C6191.63 832.648 6192.52 832.828 6193.58 832.915C6194.63 833.001 6195.94 833 6197.6 833V832ZM6188 822.4H6187C6187 824.064 6187 825.372 6187.09 826.422C6187.17 827.485 6187.35 828.372 6187.76 829.178L6188.65 828.724L6189.54 828.27C6189.3 827.793 6189.16 827.198 6189.08 826.259C6189 825.309 6189 824.097 6189 822.4H6188ZM6191.28 831.346L6191.73 830.455C6190.79 829.976 6190.02 829.211 6189.54 828.27L6188.65 828.724L6187.76 829.178C6188.43 830.495 6189.5 831.566 6190.82 832.237L6191.28 831.346ZM6828 822.4H6827C6827 824.097 6827 825.309 6826.92 826.259C6826.84 827.198 6826.7 827.793 6826.46 828.27L6827.35 828.724L6828.24 829.178C6828.65 828.372 6828.83 827.485 6828.91 826.422C6829 825.372 6829 824.064 6829 822.4H6828ZM6818.4 832V833C6820.06 833 6821.37 833.001 6822.42 832.915C6823.48 832.828 6824.37 832.648 6825.18 832.237L6824.72 831.346L6824.27 830.455C6823.79 830.698 6823.2 830.845 6822.26 830.922C6821.31 830.999 6820.1 831 6818.4 831V832ZM6827.35 828.724L6826.46 828.27C6825.98 829.211 6825.21 829.976 6824.27 830.455L6824.72 831.346L6825.18 832.237C6826.5 831.566 6827.57 830.495 6828.24 829.178L6827.35 828.724ZM6818.4 776V777C6820.1 777 6821.31 777.001 6822.26 777.078C6823.2 777.155 6823.79 777.302 6824.27 777.545L6824.72 776.654L6825.18 775.763C6824.37 775.352 6823.48 775.172 6822.42 775.085C6821.37 774.999 6820.06 775 6818.4 775V776ZM6828 785.6H6829C6829 783.936 6829 782.628 6828.91 781.578C6828.83 780.515 6828.65 779.628 6828.24 778.822L6827.35 779.276L6826.46 779.73C6826.7 780.207 6826.84 780.802 6826.92 781.741C6827 782.691 6827 783.903 6827 785.6H6828ZM6824.72 776.654L6824.27 777.545C6825.21 778.024 6825.98 778.789 6826.46 779.73L6827.35 779.276L6828.24 778.822C6827.57 777.505 6826.5 776.434 6825.18 775.763L6824.72 776.654ZM6197.6 776V775C6195.94 775 6194.63 774.999 6193.58 775.085C6192.52 775.172 6191.63 775.352 6190.82 775.763L6191.28 776.654L6191.73 777.545C6192.21 777.302 6192.8 777.155 6193.74 777.078C6194.69 777.001 6195.9 777 6197.6 777V776ZM6188 785.6H6189C6189 783.903 6189 782.691 6189.08 781.741C6189.16 780.802 6189.3 780.207 6189.54 779.73L6188.65 779.276L6187.76 778.822C6187.35 779.628 6187.17 780.515 6187.09 781.578C6187 782.628 6187 783.936 6187 785.6H6188ZM6191.28 776.654L6190.82 775.763C6189.5 776.434 6188.43 777.505 6187.76 778.822L6188.65 779.276L6189.54 779.73C6190.02 778.789 6190.79 778.024 6191.73 777.545L6191.28 776.654Z" fill="black" fill-opacity="0.1" mask="url(#path-767-inside-135_1702_11540)" id="n910"/>
<path d="M6210.45 810H6208.98L6202.7 800.368H6202.64C6202.65 800.56 6202.66 800.773 6202.67 801.008C6202.69 801.232 6202.71 801.477 6202.72 801.744C6202.73 802 6202.74 802.267 6202.74 802.544C6202.75 802.821 6202.75 803.099 6202.75 803.376V810H6201.57V798.576H6203.02L6209.28 808.176H6209.33C6209.33 808.037 6209.32 807.856 6209.31 807.632C6209.3 807.408 6209.29 807.163 6209.28 806.896C6209.27 806.619 6209.26 806.341 6209.25 806.064C6209.24 805.776 6209.23 805.509 6209.23 805.264V798.576H6210.45V810ZM6220.75 805.712C6220.75 806.405 6220.66 807.029 6220.48 807.584C6220.3 808.128 6220.04 808.592 6219.7 808.976C6219.35 809.36 6218.94 809.653 6218.45 809.856C6217.96 810.059 6217.41 810.16 6216.8 810.16C6216.22 810.16 6215.7 810.059 6215.22 809.856C6214.75 809.653 6214.34 809.36 6213.98 808.976C6213.64 808.592 6213.38 808.128 6213.18 807.584C6213 807.04 6212.91 806.416 6212.91 805.712C6212.91 804.773 6213.07 803.979 6213.38 803.328C6213.7 802.667 6214.15 802.16 6214.74 801.808C6215.33 801.456 6216.04 801.28 6216.85 801.28C6217.64 801.28 6218.32 801.456 6218.9 801.808C6219.48 802.16 6219.94 802.667 6220.26 803.328C6220.59 803.989 6220.75 804.784 6220.75 805.712ZM6214.21 805.712C6214.21 806.395 6214.3 806.992 6214.48 807.504C6214.67 808.016 6214.96 808.411 6215.34 808.688C6215.73 808.965 6216.22 809.104 6216.82 809.104C6217.42 809.104 6217.92 808.965 6218.3 808.688C6218.7 808.411 6218.99 808.016 6219.17 807.504C6219.35 806.992 6219.44 806.395 6219.44 805.712C6219.44 805.019 6219.34 804.427 6219.15 803.936C6218.97 803.435 6218.69 803.045 6218.3 802.768C6217.93 802.491 6217.43 802.352 6216.82 802.352C6215.92 802.352 6215.26 802.651 6214.83 803.248C6214.42 803.835 6214.21 804.656 6214.21 805.712ZM6230.31 801.296C6231.33 801.296 6232.09 801.531 6232.58 802C6233.07 802.459 6233.32 803.189 6233.32 804.192V810H6232.39L6232.15 808.72H6232.1C6231.87 809.029 6231.62 809.296 6231.35 809.52C6231.09 809.733 6230.79 809.893 6230.44 810C6230.1 810.107 6229.68 810.16 6229.19 810.16C6228.67 810.16 6228.2 810.069 6227.8 809.888C6227.39 809.707 6227.07 809.429 6226.84 809.056C6226.61 808.683 6226.5 808.219 6226.5 807.664C6226.5 806.811 6226.84 806.155 6227.51 805.696C6228.19 805.237 6229.22 804.987 6230.6 804.944L6232.09 804.88V804.352C6232.09 803.595 6231.93 803.067 6231.61 802.768C6231.3 802.469 6230.84 802.32 6230.25 802.32C6229.8 802.32 6229.37 802.384 6228.97 802.512C6228.57 802.64 6228.19 802.795 6227.81 802.976L6227.43 802.016C6227.81 801.813 6228.26 801.643 6228.76 801.504C6229.26 801.365 6229.78 801.296 6230.31 801.296ZM6230.76 805.824C6229.69 805.867 6228.93 806.043 6228.49 806.352C6228.04 806.661 6227.81 807.104 6227.81 807.68C6227.81 808.171 6227.96 808.539 6228.26 808.784C6228.57 809.019 6228.97 809.136 6229.46 809.136C6230.24 809.136 6230.87 808.923 6231.35 808.496C6231.83 808.059 6232.07 807.413 6232.07 806.56V805.776L6230.76 805.824ZM6239.41 810.16C6238.63 810.16 6237.95 810 6237.36 809.68C6236.77 809.36 6236.32 808.875 6235.99 808.224C6235.67 807.573 6235.51 806.757 6235.51 805.776C6235.51 804.741 6235.68 803.893 6236.02 803.232C6236.37 802.571 6236.85 802.08 6237.46 801.76C6238.07 801.44 6238.76 801.28 6239.54 801.28C6239.96 801.28 6240.37 801.323 6240.77 801.408C6241.16 801.493 6241.49 801.6 6241.75 801.728L6241.38 802.784C6241.11 802.677 6240.81 802.587 6240.47 802.512C6240.12 802.427 6239.8 802.384 6239.51 802.384C6238.91 802.384 6238.41 802.517 6238 802.784C6237.6 803.04 6237.29 803.419 6237.09 803.92C6236.9 804.421 6236.8 805.035 6236.8 805.76C6236.8 806.443 6236.9 807.035 6237.09 807.536C6237.28 808.037 6237.57 808.421 6237.95 808.688C6238.34 808.944 6238.82 809.072 6239.39 809.072C6239.85 809.072 6240.26 809.024 6240.63 808.928C6240.99 808.832 6241.32 808.715 6241.62 808.576V809.696C6241.33 809.845 6241.01 809.957 6240.66 810.032C6240.32 810.117 6239.9 810.16 6239.41 810.16ZM6246.36 809.12C6246.59 809.12 6246.8 809.104 6247.02 809.072C6247.24 809.029 6247.43 808.987 6247.58 808.944V809.904C6247.42 809.979 6247.2 810.037 6246.94 810.08C6246.68 810.133 6246.42 810.16 6246.15 810.16C6245.71 810.16 6245.3 810.08 6244.94 809.92C6244.57 809.76 6244.28 809.493 6244.06 809.12C6243.84 808.736 6243.74 808.208 6243.74 807.536V802.432H6242.51V801.808L6243.75 801.328L6244.23 799.456H6245V801.44H6247.51V802.432H6245V807.504C6245 808.048 6245.12 808.453 6245.35 808.72C6245.6 808.987 6245.93 809.12 6246.36 809.12ZM6250.58 801.44V810H6249.33V801.44H6250.58ZM6249.97 798.24C6250.18 798.24 6250.36 798.309 6250.5 798.448C6250.65 798.587 6250.72 798.8 6250.72 799.088C6250.72 799.355 6250.65 799.563 6250.5 799.712C6250.36 799.851 6250.18 799.92 6249.97 799.92C6249.75 799.92 6249.56 799.851 6249.41 799.712C6249.27 799.563 6249.2 799.355 6249.2 799.088C6249.2 798.8 6249.27 798.587 6249.41 798.448C6249.56 798.309 6249.75 798.24 6249.97 798.24ZM6255.2 810L6251.95 801.44H6253.3L6255.2 806.672C6255.29 806.907 6255.38 807.163 6255.47 807.44C6255.57 807.707 6255.65 807.963 6255.71 808.208C6255.79 808.453 6255.84 808.667 6255.87 808.848H6255.94C6255.98 808.667 6256.04 808.453 6256.11 808.208C6256.2 807.952 6256.29 807.691 6256.39 807.424C6256.48 807.147 6256.57 806.896 6256.64 806.672L6258.55 801.44H6259.89L6256.63 810H6255.2ZM6264.55 801.28C6265.28 801.28 6265.91 801.445 6266.42 801.776C6266.94 802.096 6267.34 802.549 6267.6 803.136C6267.88 803.712 6268.02 804.389 6268.02 805.168V805.952H6262.08C6262.1 806.965 6262.35 807.744 6262.83 808.288C6263.33 808.821 6264.02 809.088 6264.91 809.088C6265.45 809.088 6265.92 809.04 6266.34 808.944C6266.75 808.837 6267.19 808.688 6267.63 808.496V809.6C6267.21 809.792 6266.78 809.931 6266.35 810.016C6265.93 810.112 6265.43 810.16 6264.85 810.16C6264.03 810.16 6263.31 809.995 6262.69 809.664C6262.08 809.323 6261.61 808.827 6261.28 808.176C6260.95 807.515 6260.79 806.72 6260.79 805.792C6260.79 804.875 6260.94 804.08 6261.23 803.408C6261.54 802.736 6261.98 802.213 6262.55 801.84C6263.11 801.467 6263.78 801.28 6264.55 801.28ZM6264.53 802.32C6263.83 802.32 6263.27 802.549 6262.85 803.008C6262.43 803.467 6262.19 804.112 6262.11 804.944H6266.71C6266.71 804.421 6266.63 803.968 6266.47 803.584C6266.32 803.189 6266.08 802.88 6265.76 802.656C6265.44 802.432 6265.03 802.32 6264.53 802.32ZM6277.54 801.296C6278.57 801.296 6279.33 801.531 6279.82 802C6280.31 802.459 6280.55 803.189 6280.55 804.192V810H6279.62L6279.38 808.72H6279.34C6279.1 809.029 6278.85 809.296 6278.58 809.52C6278.33 809.733 6278.02 809.893 6277.67 810C6277.33 810.107 6276.91 810.16 6276.42 810.16C6275.9 810.16 6275.44 810.069 6275.03 809.888C6274.63 809.707 6274.31 809.429 6274.07 809.056C6273.85 808.683 6273.74 808.219 6273.74 807.664C6273.74 806.811 6274.07 806.155 6274.74 805.696C6275.43 805.237 6276.46 804.987 6277.83 804.944L6279.32 804.88V804.352C6279.32 803.595 6279.16 803.067 6278.84 802.768C6278.53 802.469 6278.08 802.32 6277.48 802.32C6277.03 802.32 6276.61 802.384 6276.2 802.512C6275.81 802.64 6275.42 802.795 6275.05 802.976L6274.66 802.016C6275.05 801.813 6275.49 801.643 6275.99 801.504C6276.49 801.365 6277.01 801.296 6277.54 801.296ZM6277.99 805.824C6276.93 805.867 6276.17 806.043 6275.72 806.352C6275.27 806.661 6275.05 807.104 6275.05 807.68C6275.05 808.171 6275.2 808.539 6275.5 808.784C6275.81 809.019 6276.21 809.136 6276.7 809.136C6277.47 809.136 6278.1 808.923 6278.58 808.496C6279.06 808.059 6279.3 807.413 6279.3 806.56V805.776L6277.99 805.824ZM6286.26 810.16C6285.17 810.16 6284.31 809.792 6283.68 809.056C6283.05 808.309 6282.74 807.211 6282.74 805.76C6282.74 804.288 6283.06 803.173 6283.7 802.416C6284.34 801.659 6285.2 801.28 6286.29 801.28C6286.75 801.28 6287.15 801.344 6287.49 801.472C6287.83 801.589 6288.13 801.755 6288.37 801.968C6288.62 802.171 6288.82 802.4 6288.98 802.656H6289.06C6289.05 802.485 6289.03 802.261 6289.01 801.984C6288.99 801.696 6288.98 801.456 6288.98 801.264V797.84H6290.24V810H6289.22L6289.04 808.752H6288.98C6288.82 809.008 6288.61 809.243 6288.36 809.456C6288.11 809.669 6287.82 809.84 6287.48 809.968C6287.13 810.096 6286.73 810.16 6286.26 810.16ZM6286.45 809.104C6287.38 809.104 6288.04 808.843 6288.42 808.32C6288.8 807.797 6289 807.013 6289 805.968V805.744C6289 804.645 6288.81 803.803 6288.44 803.216C6288.06 802.629 6287.4 802.336 6286.45 802.336C6285.65 802.336 6285.05 802.645 6284.64 803.264C6284.24 803.872 6284.04 804.715 6284.04 805.792C6284.04 806.848 6284.23 807.664 6284.63 808.24C6285.03 808.816 6285.64 809.104 6286.45 809.104ZM6294.86 810L6291.61 801.44H6292.95L6294.86 806.672C6294.94 806.907 6295.03 807.163 6295.13 807.44C6295.23 807.707 6295.31 807.963 6295.37 808.208C6295.44 808.453 6295.5 808.667 6295.53 808.848H6295.59C6295.64 808.667 6295.69 808.453 6295.77 808.208C6295.85 807.952 6295.95 807.691 6296.04 807.424C6296.14 807.147 6296.22 806.896 6296.3 806.672L6298.2 801.44H6299.55L6296.28 810H6294.86ZM6302.17 801.44V810H6300.92V801.44H6302.17ZM6301.56 798.24C6301.78 798.24 6301.95 798.309 6302.09 798.448C6302.24 798.587 6302.31 798.8 6302.31 799.088C6302.31 799.355 6302.24 799.563 6302.09 799.712C6301.95 799.851 6301.78 799.92 6301.56 799.92C6301.34 799.92 6301.15 799.851 6301 799.712C6300.86 799.563 6300.79 799.355 6300.79 799.088C6300.79 798.8 6300.86 798.587 6301 798.448C6301.15 798.309 6301.34 798.24 6301.56 798.24ZM6308.35 810.16C6307.57 810.16 6306.89 810 6306.3 809.68C6305.71 809.36 6305.25 808.875 6304.92 808.224C6304.6 807.573 6304.44 806.757 6304.44 805.776C6304.44 804.741 6304.61 803.893 6304.95 803.232C6305.31 802.571 6305.79 802.08 6306.39 801.76C6307 801.44 6307.7 801.28 6308.47 801.28C6308.9 801.28 6309.31 801.323 6309.71 801.408C6310.1 801.493 6310.43 801.6 6310.68 801.728L6310.31 802.784C6310.05 802.677 6309.74 802.587 6309.4 802.512C6309.06 802.427 6308.74 802.384 6308.44 802.384C6307.85 802.384 6307.34 802.517 6306.94 802.784C6306.53 803.04 6306.23 803.419 6306.03 803.92C6305.83 804.421 6305.74 805.035 6305.74 805.76C6305.74 806.443 6305.83 807.035 6306.03 807.536C6306.22 808.037 6306.51 808.421 6306.89 808.688C6307.27 808.944 6307.75 809.072 6308.33 809.072C6308.79 809.072 6309.2 809.024 6309.56 808.928C6309.93 808.832 6310.26 808.715 6310.55 808.576V809.696C6310.27 809.845 6309.95 809.957 6309.59 810.032C6309.25 810.117 6308.84 810.16 6308.35 810.16ZM6315.86 801.28C6316.6 801.28 6317.22 801.445 6317.73 801.776C6318.25 802.096 6318.65 802.549 6318.92 803.136C6319.19 803.712 6319.33 804.389 6319.33 805.168V805.952H6313.4C6313.42 806.965 6313.67 807.744 6314.15 808.288C6314.64 808.821 6315.33 809.088 6316.23 809.088C6316.76 809.088 6317.24 809.04 6317.65 808.944C6318.07 808.837 6318.5 808.688 6318.95 808.496V809.6C6318.52 809.792 6318.09 809.931 6317.67 810.016C6317.24 810.112 6316.74 810.16 6316.16 810.16C6315.34 810.16 6314.62 809.995 6314 809.664C6313.4 809.323 6312.93 808.827 6312.6 808.176C6312.26 807.515 6312.1 806.72 6312.1 805.792C6312.1 804.875 6312.25 804.08 6312.55 803.408C6312.86 802.736 6313.29 802.213 6313.86 801.84C6314.42 801.467 6315.09 801.28 6315.86 801.28ZM6315.84 802.32C6315.14 802.32 6314.58 802.549 6314.16 803.008C6313.75 803.467 6313.5 804.112 6313.43 804.944H6318.02C6318.02 804.421 6317.94 803.968 6317.78 803.584C6317.63 803.189 6317.4 802.88 6317.08 802.656C6316.76 802.432 6316.34 802.32 6315.84 802.32Z" fill="#535353" id="n911"/>
</g>
</svg>
