<?xml version='1.0' encoding='utf-8'?>
<svg xmlns="http://www.w3.org/2000/svg" xmlns:xlink="http://www.w3.org/1999/xlink" width="640.0" height="48.0" viewBox="0 0 640.0 48.0" fill="none">
  <defs><clipPath id="clip__asset"><rect x="0" y="0" width="640.0" height="48.0"/></clipPath><mask id="path-718-inside-126_1702_11540" fill="white">
<path d="M6188 309.6C6188 306.24 6188 304.56 6188.65 303.276C6189.23 302.147 6190.15 301.229 6191.28 300.654C6192.56 300 6194.24 300 6197.6 300H6780V332H6197.6C6194.24 332 6192.56 332 6191.28 331.346C6190.15 330.771 6189.23 329.853 6188.65 328.724C6188 327.44 6188 325.76 6188 322.4V309.6Z" id="n847"/>
</mask>
<mask id="path-726-inside-127_1702_11540" fill="white">
<path d="M6780 300H6818.4C6821.76 300 6823.44 300 6824.72 300.654C6825.85 301.229 6826.77 302.147 6827.35 303.276C6828 304.56 6828 306.24 6828 309.6V322.4C6828 325.76 6828 327.44 6827.35 328.724C6826.77 329.853 6825.85 330.771 6824.72 331.346C6823.44 332 6821.76 332 6818.4 332H6780V300Z" id="n856"/>
</mask>
</defs>
  <g clip-path="url(#clip__asset)" transform="translate(-6188.0 -292.0)"><path d="M6188 309.6C6188 306.24 6188 304.56 6188.65 303.276C6189.23 302.147 6190.15 301.229 6191.28 300.654C6192.56 300 6194.24 300 6197.6 300H6780V332H6197.6C6194.24 332 6192.56 332 6191.28 331.346C6190.15 330.771 6189.23 329.853 6188.65 328.724C6188 327.44 6188 325.76 6188 322.4V309.6Z" fill="white" id="n848"/>
<path d="M6187 306C6187 302.134 6190.13 299 6194 299H6780V301H6194C6191.24 301 6189 303.239 6189 306H6187ZM6780 333H6194C6190.13 333 6187 329.866 6187 326H6189C6189 328.761 6191.24 331 6194 331H6780V333ZM6194 333C6190.13 333 6187 329.866 6187 326V306C6187 302.134 6190.13 299 6194 299V301C6191.24 301 6189 303.239 6189 306V326C6189 328.761 6191.24 331 6194 331V333ZM6780 300V332V300Z" fill="#BEBEBE" mask="url(#path-718-inside-126_1702_11540)" id="n849"/>
<path fill-rule="evenodd" clip-rule="evenodd" d="M6200 323C6198.9 323 6198 322.105 6198 321V309C6198 307.895 6198.9 307 6200 307H6216C6217.1 307 6218 307.895 6218 309V321C6218 322.105 6217.1 323 6216 323H6211L6208 326L6205 323H6200ZM6208 317.576L6205.32 319.149C6204.94 319.373 6204.48 319.03 6204.58 318.601L6205.28 315.681L6202.94 313.718C6202.6 313.431 6202.78 312.871 6203.22 312.837L6206.33 312.595L6207.54 309.8C6207.72 309.399 6208.28 309.399 6208.46 309.8L6209.67 312.595L6212.78 312.837C6213.22 312.871 6213.4 313.431 6213.06 313.718L6210.72 315.681L6211.42 318.601C6211.52 319.03 6211.06 319.373 6210.68 319.149L6208 317.576Z" fill="#00805E" id="n850"/>
<path d="M6239 311H6241V315H6245V317H6241V321H6239V317H6235V315H6239V311Z" fill="#535353" id="n851"/>
<path fill-rule="evenodd" clip-rule="evenodd" d="M6229.61 314.516L6238.52 305.612C6239.33 304.796 6240.67 304.796 6241.48 305.612L6250.39 314.516C6251.2 315.332 6251.2 316.668 6250.39 317.484L6241.48 326.388C6240.67 327.204 6239.33 327.204 6238.52 326.388L6229.61 317.484C6228.8 316.668 6228.8 315.332 6229.61 314.516ZM6240 307L6231 316L6240 325L6249 316L6240 307Z" fill="#535353" id="n852"/>
<path d="M6264.46 322L6263.57 319.184H6259.38L6258.48 322H6256L6260.08 310.528H6262.85L6266.94 322H6264.46ZM6262.13 314.496C6262.07 314.325 6262.01 314.107 6261.92 313.84C6261.83 313.563 6261.75 313.285 6261.66 313.008C6261.59 312.72 6261.53 312.475 6261.47 312.272C6261.42 312.485 6261.35 312.747 6261.26 313.056C6261.18 313.355 6261.09 313.643 6261.01 313.92C6260.93 314.187 6260.87 314.379 6260.83 314.496L6259.97 317.248H6263.01L6262.13 314.496ZM6271 322.16C6270.02 322.16 6269.22 321.781 6268.6 321.024C6267.98 320.256 6267.67 319.136 6267.67 317.664C6267.67 316.171 6267.98 315.04 6268.6 314.272C6269.23 313.504 6270.05 313.12 6271.05 313.12C6271.48 313.12 6271.85 313.179 6272.17 313.296C6272.49 313.403 6272.76 313.552 6272.99 313.744C6273.22 313.936 6273.42 314.155 6273.58 314.4H6273.67C6273.64 314.229 6273.6 313.984 6273.56 313.664C6273.52 313.344 6273.5 313.024 6273.5 312.704V309.84H6275.77V322H6274.03L6273.59 320.864H6273.5C6273.35 321.099 6273.16 321.317 6272.92 321.52C6272.7 321.712 6272.43 321.867 6272.11 321.984C6271.8 322.101 6271.43 322.16 6271 322.16ZM6271.75 320.336C6272.45 320.336 6272.93 320.139 6273.21 319.744C6273.49 319.339 6273.63 318.736 6273.64 317.936V317.68C6273.64 316.795 6273.5 316.123 6273.23 315.664C6272.96 315.205 6272.46 314.976 6271.74 314.976C6271.18 314.976 6270.75 315.211 6270.44 315.68C6270.13 316.149 6269.98 316.821 6269.98 317.696C6269.98 318.56 6270.13 319.216 6270.44 319.664C6270.75 320.112 6271.19 320.336 6271.75 320.336ZM6280.34 322L6277.03 313.28H6279.42L6281.11 318.272C6281.18 318.464 6281.23 318.672 6281.29 318.896C6281.34 319.12 6281.38 319.339 6281.42 319.552C6281.45 319.755 6281.47 319.941 6281.48 320.112H6281.54C6281.56 319.931 6281.59 319.739 6281.62 319.536C6281.67 319.323 6281.71 319.109 6281.77 318.896C6281.82 318.672 6281.88 318.464 6281.94 318.272L6283.64 313.28H6286.02L6282.71 322H6280.34ZM6289.55 313.28V322H6287.28V313.28H6289.55ZM6288.42 309.888C6288.76 309.888 6289.05 309.968 6289.3 310.128C6289.54 310.288 6289.66 310.587 6289.66 311.024C6289.66 311.44 6289.54 311.733 6289.3 311.904C6289.05 312.075 6288.76 312.16 6288.42 312.16C6288.07 312.16 6287.78 312.075 6287.54 311.904C6287.3 311.733 6287.18 311.44 6287.18 311.024C6287.18 310.587 6287.3 310.288 6287.54 310.128C6287.78 309.968 6288.07 309.888 6288.42 309.888ZM6295.61 322.16C6294.76 322.16 6294.03 322.005 6293.42 321.696C6292.81 321.376 6292.35 320.885 6292.03 320.224C6291.71 319.563 6291.55 318.72 6291.55 317.696C6291.55 316.629 6291.73 315.76 6292.09 315.088C6292.46 314.416 6292.96 313.92 6293.6 313.6C6294.24 313.28 6294.97 313.12 6295.8 313.12C6296.39 313.12 6296.9 313.179 6297.34 313.296C6297.78 313.413 6298.16 313.547 6298.48 313.696L6297.8 315.456C6297.44 315.317 6297.1 315.2 6296.76 315.104C6296.44 315.008 6296.12 314.96 6295.8 314.96C6295.37 314.96 6295 315.061 6294.72 315.264C6294.43 315.467 6294.22 315.771 6294.08 316.176C6293.94 316.571 6293.87 317.072 6293.87 317.68C6293.87 318.267 6293.94 318.757 6294.09 319.152C6294.24 319.536 6294.46 319.824 6294.75 320.016C6295.04 320.208 6295.38 320.304 6295.79 320.304C6296.29 320.304 6296.73 320.24 6297.12 320.112C6297.5 319.984 6297.87 319.808 6298.22 319.584V321.52C6297.87 321.744 6297.5 321.904 6297.1 322C6296.71 322.107 6296.21 322.16 6295.61 322.16ZM6303.8 313.12C6304.6 313.12 6305.29 313.275 6305.86 313.584C6306.44 313.893 6306.88 314.341 6307.19 314.928C6307.51 315.515 6307.67 316.229 6307.67 317.072V318.192H6302.01C6302.03 318.896 6302.23 319.451 6302.62 319.856C6303.01 320.251 6303.56 320.448 6304.25 320.448C6304.81 320.448 6305.32 320.395 6305.77 320.288C6306.23 320.171 6306.7 320 6307.19 319.776V321.536C6306.77 321.749 6306.32 321.904 6305.85 322C6305.38 322.107 6304.81 322.16 6304.15 322.16C6303.28 322.16 6302.5 322 6301.83 321.68C6301.17 321.349 6300.65 320.853 6300.26 320.192C6299.89 319.531 6299.7 318.704 6299.7 317.712C6299.7 316.688 6299.88 315.84 6300.22 315.168C6300.56 314.496 6301.03 313.989 6301.64 313.648C6302.26 313.296 6302.98 313.12 6303.8 313.12ZM6303.82 314.752C6303.33 314.752 6302.92 314.912 6302.6 315.232C6302.29 315.541 6302.11 316.021 6302.06 316.672H6305.51C6305.51 316.299 6305.45 315.968 6305.32 315.68C6305.2 315.392 6305.02 315.168 6304.76 315.008C6304.52 314.837 6304.2 314.752 6303.82 314.752ZM6317.38 320.336C6317.64 320.336 6317.89 320.315 6318.13 320.272C6318.38 320.219 6318.62 320.155 6318.85 320.08V321.776C6318.61 321.883 6318.3 321.973 6317.92 322.048C6317.56 322.123 6317.17 322.16 6316.74 322.16C6316.23 322.16 6315.77 322.075 6315.36 321.904C6314.96 321.733 6314.63 321.44 6314.39 321.024C6314.15 320.608 6314.04 320.032 6314.04 319.296V314.992H6312.88V314.032L6314.2 313.248L6314.87 311.408H6316.31V313.28H6318.76V314.992H6316.31V319.28C6316.31 319.643 6316.4 319.909 6316.6 320.08C6316.8 320.251 6317.06 320.336 6317.38 320.336ZM6322.88 313.28V322H6320.61V313.28H6322.88ZM6321.74 309.888C6322.09 309.888 6322.38 309.968 6322.62 310.128C6322.87 310.288 6322.99 310.587 6322.99 311.024C6322.99 311.44 6322.87 311.733 6322.62 311.904C6322.38 312.075 6322.09 312.16 6321.74 312.16C6321.4 312.16 6321.11 312.075 6320.86 311.904C6320.63 311.733 6320.51 311.44 6320.51 311.024C6320.51 310.587 6320.63 310.288 6320.86 310.128C6321.11 309.968 6321.4 309.888 6321.74 309.888ZM6328.99 320.336C6329.24 320.336 6329.5 320.315 6329.74 320.272C6329.99 320.219 6330.23 320.155 6330.46 320.08V321.776C6330.22 321.883 6329.91 321.973 6329.53 322.048C6329.17 322.123 6328.78 322.16 6328.35 322.16C6327.84 322.16 6327.38 322.075 6326.97 321.904C6326.57 321.733 6326.24 321.44 6326 321.024C6325.76 320.608 6325.64 320.032 6325.64 319.296V314.992H6324.49V314.032L6325.8 313.248L6326.48 311.408H6327.92V313.28H6330.36V314.992H6327.92V319.28C6327.92 319.643 6328.01 319.909 6328.2 320.08C6328.41 320.251 6328.67 320.336 6328.99 320.336ZM6334.49 322H6332.22V309.84H6334.49V322ZM6340.58 313.12C6341.38 313.12 6342.07 313.275 6342.65 313.584C6343.22 313.893 6343.66 314.341 6343.97 314.928C6344.29 315.515 6344.45 316.229 6344.45 317.072V318.192H6338.79C6338.81 318.896 6339.01 319.451 6339.4 319.856C6339.79 320.251 6340.34 320.448 6341.03 320.448C6341.6 320.448 6342.1 320.395 6342.55 320.288C6343.01 320.171 6343.48 320 6343.97 319.776V321.536C6343.55 321.749 6343.1 321.904 6342.63 322C6342.16 322.107 6341.6 322.16 6340.93 322.16C6340.06 322.16 6339.29 322 6338.61 321.68C6337.95 321.349 6337.43 320.853 6337.05 320.192C6336.67 319.531 6336.49 318.704 6336.49 317.712C6336.49 316.688 6336.66 315.84 6337 315.168C6337.34 314.496 6337.81 313.989 6338.42 313.648C6339.04 313.296 6339.76 313.12 6340.58 313.12ZM6340.6 314.752C6340.11 314.752 6339.7 314.912 6339.38 315.232C6339.07 315.541 6338.89 316.021 6338.84 316.672H6342.29C6342.29 316.299 6342.23 315.968 6342.1 315.68C6341.98 315.392 6341.8 315.168 6341.54 315.008C6341.3 314.837 6340.98 314.752 6340.6 314.752Z" fill="#1F1F1F" id="n853"/>
<path d="M6360.58 322L6356.72 311.856H6356.66C6356.68 312.059 6356.69 312.315 6356.7 312.624C6356.73 312.923 6356.74 313.248 6356.74 313.6C6356.75 313.952 6356.75 314.315 6356.75 314.688V322H6355.57V310.576H6357.47L6361.12 320.128H6361.18L6364.88 310.576H6366.77V322H6365.5V314.592C6365.5 314.251 6365.51 313.915 6365.52 313.584C6365.53 313.253 6365.54 312.939 6365.55 312.64C6365.57 312.341 6365.59 312.085 6365.6 311.872H6365.54L6361.63 322H6360.58ZM6373 313.28C6373.74 313.28 6374.36 313.445 6374.87 313.776C6375.39 314.096 6375.79 314.549 6376.06 315.136C6376.33 315.712 6376.47 316.389 6376.47 317.168V317.952H6370.54C6370.56 318.965 6370.81 319.744 6371.29 320.288C6371.78 320.821 6372.47 321.088 6373.37 321.088C6373.9 321.088 6374.38 321.04 6374.79 320.944C6375.21 320.837 6375.64 320.688 6376.09 320.496V321.6C6375.66 321.792 6375.23 321.931 6374.81 322.016C6374.38 322.112 6373.88 322.16 6373.3 322.16C6372.48 322.16 6371.76 321.995 6371.14 321.664C6370.54 321.323 6370.07 320.827 6369.74 320.176C6369.41 319.515 6369.24 318.72 6369.24 317.792C6369.24 316.875 6369.39 316.08 6369.69 315.408C6370 314.736 6370.43 314.213 6371 313.84C6371.57 313.467 6372.23 313.28 6373 313.28ZM6372.98 314.32C6372.28 314.32 6371.72 314.549 6371.3 315.008C6370.89 315.467 6370.64 316.112 6370.57 316.944H6375.16C6375.16 316.421 6375.08 315.968 6374.92 315.584C6374.77 315.189 6374.54 314.88 6374.22 314.656C6373.9 314.432 6373.49 314.32 6372.98 314.32ZM6384.19 319.664C6384.19 320.208 6384.05 320.667 6383.78 321.04C6383.51 321.403 6383.12 321.68 6382.61 321.872C6382.11 322.064 6381.5 322.16 6380.8 322.16C6380.2 322.16 6379.69 322.112 6379.25 322.016C6378.81 321.92 6378.43 321.787 6378.1 321.616V320.464C6378.45 320.635 6378.86 320.789 6379.34 320.928C6379.84 321.067 6380.33 321.136 6380.83 321.136C6381.58 321.136 6382.12 321.013 6382.45 320.768C6382.79 320.523 6382.96 320.192 6382.96 319.776C6382.96 319.531 6382.89 319.317 6382.75 319.136C6382.62 318.955 6382.4 318.779 6382.08 318.608C6381.77 318.437 6381.34 318.251 6380.78 318.048C6380.24 317.845 6379.77 317.643 6379.38 317.44C6378.98 317.237 6378.67 316.987 6378.45 316.688C6378.24 316.389 6378.13 316.005 6378.13 315.536C6378.13 314.811 6378.42 314.256 6378.99 313.872C6379.58 313.477 6380.35 313.28 6381.3 313.28C6381.82 313.28 6382.3 313.333 6382.75 313.44C6383.2 313.536 6383.62 313.669 6384 313.84L6383.57 314.864C6383.34 314.757 6383.1 314.667 6382.83 314.592C6382.58 314.507 6382.31 314.443 6382.03 314.4C6381.77 314.347 6381.49 314.32 6381.22 314.32C6380.61 314.32 6380.14 314.421 6379.81 314.624C6379.49 314.827 6379.33 315.104 6379.33 315.456C6379.33 315.723 6379.4 315.947 6379.55 316.128C6379.7 316.299 6379.94 316.459 6380.27 316.608C6380.61 316.757 6381.05 316.933 6381.57 317.136C6382.1 317.328 6382.56 317.531 6382.94 317.744C6383.34 317.947 6383.64 318.203 6383.86 318.512C6384.08 318.811 6384.19 319.195 6384.19 319.664ZM6391.8 319.664C6391.8 320.208 6391.66 320.667 6391.39 321.04C6391.12 321.403 6390.73 321.68 6390.22 321.872C6389.72 322.064 6389.11 322.16 6388.41 322.16C6387.81 322.16 6387.3 322.112 6386.86 322.016C6386.42 321.92 6386.04 321.787 6385.71 321.616V320.464C6386.06 320.635 6386.47 320.789 6386.95 320.928C6387.44 321.067 6387.94 321.136 6388.44 321.136C6389.19 321.136 6389.73 321.013 6390.06 320.768C6390.4 320.523 6390.57 320.192 6390.57 319.776C6390.57 319.531 6390.5 319.317 6390.36 319.136C6390.23 318.955 6390.01 318.779 6389.69 318.608C6389.38 318.437 6388.95 318.251 6388.39 318.048C6387.85 317.845 6387.38 317.643 6386.99 317.44C6386.59 317.237 6386.28 316.987 6386.06 316.688C6385.84 316.389 6385.74 316.005 6385.74 315.536C6385.74 314.811 6386.03 314.256 6386.6 313.872C6387.19 313.477 6387.96 313.28 6388.91 313.28C6389.43 313.28 6389.91 313.333 6390.36 313.44C6390.81 313.536 6391.23 313.669 6391.61 313.84L6391.18 314.864C6390.95 314.757 6390.71 314.667 6390.44 314.592C6390.19 314.507 6389.92 314.443 6389.64 314.4C6389.38 314.347 6389.1 314.32 6388.83 314.32C6388.22 314.32 6387.75 314.421 6387.42 314.624C6387.1 314.827 6386.94 315.104 6386.94 315.456C6386.94 315.723 6387.01 315.947 6387.16 316.128C6387.31 316.299 6387.55 316.459 6387.88 316.608C6388.22 316.757 6388.66 316.933 6389.18 317.136C6389.71 317.328 6390.17 317.531 6390.55 317.744C6390.95 317.947 6391.25 318.203 6391.47 318.512C6391.69 318.811 6391.8 319.195 6391.8 319.664ZM6397.06 313.296C6398.08 313.296 6398.84 313.531 6399.33 314C6399.82 314.459 6400.07 315.189 6400.07 316.192V322H6399.14L6398.9 320.72H6398.85C6398.62 321.029 6398.37 321.296 6398.1 321.52C6397.84 321.733 6397.54 321.893 6397.19 322C6396.85 322.107 6396.43 322.16 6395.94 322.16C6395.42 322.16 6394.95 322.069 6394.55 321.888C6394.14 321.707 6393.82 321.429 6393.59 321.056C6393.36 320.683 6393.25 320.219 6393.25 319.664C6393.25 318.811 6393.59 318.155 6394.26 317.696C6394.94 317.237 6395.97 316.987 6397.35 316.944L6398.84 316.88V316.352C6398.84 315.595 6398.68 315.067 6398.36 314.768C6398.05 314.469 6397.59 314.32 6397 314.32C6396.55 314.32 6396.12 314.384 6395.72 314.512C6395.32 314.64 6394.94 314.795 6394.56 314.976L6394.18 314.016C6394.56 313.813 6395.01 313.643 6395.51 313.504C6396.01 313.365 6396.53 313.296 6397.06 313.296ZM6397.51 317.824C6396.44 317.867 6395.68 318.043 6395.24 318.352C6394.79 318.661 6394.56 319.104 6394.56 319.68C6394.56 320.171 6394.71 320.539 6395.01 320.784C6395.32 321.019 6395.72 321.136 6396.21 321.136C6396.99 321.136 6397.62 320.923 6398.1 320.496C6398.58 320.059 6398.82 319.413 6398.82 318.56V317.776L6397.51 317.824ZM6405.79 313.28C6406.39 313.28 6406.91 313.397 6407.36 313.632C6407.81 313.856 6408.19 314.187 6408.5 314.624H6408.58L6408.75 313.44H6409.74V322.176C6409.74 322.965 6409.61 323.632 6409.34 324.176C6409.08 324.731 6408.66 325.147 6408.1 325.424C6407.54 325.701 6406.83 325.84 6405.95 325.84C6405.33 325.84 6404.77 325.792 6404.26 325.696C6403.74 325.6 6403.28 325.467 6402.88 325.296V324.112C6403.16 324.251 6403.46 324.368 6403.79 324.464C6404.12 324.571 6404.47 324.651 6404.85 324.704C6405.23 324.757 6405.63 324.784 6406.03 324.784C6406.82 324.784 6407.43 324.56 6407.86 324.112C6408.28 323.664 6408.5 323.051 6408.5 322.272V321.888C6408.5 321.739 6408.5 321.547 6408.51 321.312C6408.52 321.067 6408.53 320.88 6408.54 320.752H6408.5C6408.21 321.221 6407.83 321.573 6407.38 321.808C6406.93 322.043 6406.39 322.16 6405.78 322.16C6404.67 322.16 6403.8 321.776 6403.18 321.008C6402.56 320.24 6402.26 319.157 6402.26 317.76C6402.26 316.843 6402.39 316.048 6402.67 315.376C6402.95 314.704 6403.35 314.187 6403.87 313.824C6404.4 313.461 6405.04 313.28 6405.79 313.28ZM6405.95 314.352C6405.44 314.352 6405 314.485 6404.64 314.752C6404.29 315.019 6404.02 315.408 6403.82 315.92C6403.64 316.421 6403.55 317.04 6403.55 317.776C6403.55 318.853 6403.75 319.68 6404.16 320.256C6404.58 320.832 6405.17 321.12 6405.95 321.12C6406.42 321.12 6406.82 321.056 6407.14 320.928C6407.46 320.8 6407.72 320.608 6407.92 320.352C6408.13 320.096 6408.28 319.776 6408.37 319.392C6408.46 319.008 6408.51 318.565 6408.51 318.064V317.664C6408.51 316.896 6408.42 316.272 6408.24 315.792C6408.07 315.301 6407.8 314.939 6407.42 314.704C6407.05 314.469 6406.56 314.352 6405.95 314.352ZM6415.78 313.28C6416.52 313.28 6417.14 313.445 6417.65 313.776C6418.18 314.096 6418.57 314.549 6418.84 315.136C6419.11 315.712 6419.25 316.389 6419.25 317.168V317.952H6413.32C6413.34 318.965 6413.59 319.744 6414.07 320.288C6414.56 320.821 6415.25 321.088 6416.15 321.088C6416.68 321.088 6417.16 321.04 6417.57 320.944C6417.99 320.837 6418.42 320.688 6418.87 320.496V321.6C6418.44 321.792 6418.02 321.931 6417.59 322.016C6417.16 322.112 6416.66 322.16 6416.09 322.16C6415.26 322.16 6414.54 321.995 6413.93 321.664C6413.32 321.323 6412.85 320.827 6412.52 320.176C6412.19 319.515 6412.02 318.72 6412.02 317.792C6412.02 316.875 6412.17 316.08 6412.47 315.408C6412.78 314.736 6413.22 314.213 6413.78 313.84C6414.35 313.467 6415.01 313.28 6415.78 313.28ZM6415.77 314.32C6415.06 314.32 6414.5 314.549 6414.09 315.008C6413.67 315.467 6413.42 316.112 6413.35 316.944H6417.94C6417.94 316.421 6417.86 315.968 6417.7 315.584C6417.55 315.189 6417.32 314.88 6417 314.656C6416.68 314.432 6416.27 314.32 6415.77 314.32ZM6428.33 321.12C6428.55 321.12 6428.77 321.104 6428.99 321.072C6429.21 321.029 6429.4 320.987 6429.55 320.944V321.904C6429.39 321.979 6429.17 322.037 6428.91 322.08C6428.65 322.133 6428.39 322.16 6428.12 322.16C6427.67 322.16 6427.27 322.08 6426.91 321.92C6426.54 321.76 6426.25 321.493 6426.03 321.12C6425.81 320.736 6425.71 320.208 6425.71 319.536V314.432H6424.47V313.808L6425.72 313.328L6426.2 311.456H6426.97V313.44H6429.48V314.432H6426.97V319.504C6426.97 320.048 6427.09 320.453 6427.32 320.72C6427.57 320.987 6427.9 321.12 6428.33 321.12ZM6434.58 313.28C6435.31 313.28 6435.94 313.445 6436.45 313.776C6436.97 314.096 6437.37 314.549 6437.63 315.136C6437.91 315.712 6438.05 316.389 6438.05 317.168V317.952H6432.11C6432.14 318.965 6432.39 319.744 6432.87 320.288C6433.36 320.821 6434.05 321.088 6434.95 321.088C6435.48 321.088 6435.95 321.04 6436.37 320.944C6436.79 320.837 6437.22 320.688 6437.67 320.496V321.6C6437.24 321.792 6436.81 321.931 6436.39 322.016C6435.96 322.112 6435.46 322.16 6434.88 322.16C6434.06 322.16 6433.34 321.995 6432.72 321.664C6432.11 321.323 6431.64 320.827 6431.31 320.176C6430.98 319.515 6430.82 318.72 6430.82 317.792C6430.82 316.875 6430.97 316.08 6431.27 315.408C6431.58 314.736 6432.01 314.213 6432.58 313.84C6433.14 313.467 6433.81 313.28 6434.58 313.28ZM6434.56 314.32C6433.86 314.32 6433.3 314.549 6432.88 315.008C6432.47 315.467 6432.22 316.112 6432.15 316.944H6436.74C6436.74 316.421 6436.66 315.968 6436.5 315.584C6436.35 315.189 6436.11 314.88 6435.79 314.656C6435.47 314.432 6435.06 314.32 6434.56 314.32ZM6441.97 317.616L6439.01 313.44H6440.45L6442.74 316.768L6444.99 313.44H6446.42L6443.47 317.616L6446.59 322H6445.15L6442.74 318.48L6440.29 322H6438.87L6441.97 317.616ZM6451 321.12C6451.23 321.12 6451.44 321.104 6451.66 321.072C6451.88 321.029 6452.07 320.987 6452.22 320.944V321.904C6452.06 321.979 6451.84 322.037 6451.58 322.08C6451.32 322.133 6451.06 322.16 6450.79 322.16C6450.35 322.16 6449.94 322.08 6449.58 321.92C6449.22 321.76 6448.92 321.493 6448.7 321.12C6448.48 320.736 6448.38 320.208 6448.38 319.536V314.432H6447.15V313.808L6448.39 313.328L6448.87 311.456H6449.64V313.44H6452.15V314.432H6449.64V319.504C6449.64 320.048 6449.76 320.453 6449.99 320.72C6450.24 320.987 6450.58 321.12 6451 321.12ZM6461.18 313.28C6461.78 313.28 6462.3 313.397 6462.75 313.632C6463.2 313.856 6463.58 314.187 6463.89 314.624H6463.97L6464.14 313.44H6465.13V322.176C6465.13 322.965 6465 323.632 6464.73 324.176C6464.47 324.731 6464.05 325.147 6463.49 325.424C6462.93 325.701 6462.22 325.84 6461.34 325.84C6460.72 325.84 6460.16 325.792 6459.65 325.696C6459.13 325.6 6458.68 325.467 6458.27 325.296V324.112C6458.55 324.251 6458.85 324.368 6459.18 324.464C6459.51 324.571 6459.86 324.651 6460.24 324.704C6460.62 324.757 6461.02 324.784 6461.42 324.784C6462.21 324.784 6462.82 324.56 6463.25 324.112C6463.67 323.664 6463.89 323.051 6463.89 322.272V321.888C6463.89 321.739 6463.89 321.547 6463.9 321.312C6463.91 321.067 6463.92 320.88 6463.93 320.752H6463.89C6463.6 321.221 6463.22 321.573 6462.77 321.808C6462.32 322.043 6461.78 322.16 6461.17 322.16C6460.06 322.16 6459.19 321.776 6458.57 321.008C6457.96 320.24 6457.65 319.157 6457.65 317.76C6457.65 316.843 6457.78 316.048 6458.06 315.376C6458.34 314.704 6458.74 314.187 6459.26 313.824C6459.8 313.461 6460.44 313.28 6461.18 313.28ZM6461.34 314.352C6460.83 314.352 6460.39 314.485 6460.03 314.752C6459.68 315.019 6459.41 315.408 6459.21 315.92C6459.03 316.421 6458.94 317.04 6458.94 317.776C6458.94 318.853 6459.14 319.68 6459.55 320.256C6459.97 320.832 6460.56 321.12 6461.34 321.12C6461.81 321.12 6462.21 321.056 6462.53 320.928C6462.85 320.8 6463.11 320.608 6463.31 320.352C6463.52 320.096 6463.67 319.776 6463.76 319.392C6463.85 319.008 6463.9 318.565 6463.9 318.064V317.664C6463.9 316.896 6463.81 316.272 6463.63 315.792C6463.46 315.301 6463.19 314.939 6462.81 314.704C6462.44 314.469 6461.95 314.352 6461.34 314.352ZM6475.25 317.712C6475.25 318.405 6475.16 319.029 6474.98 319.584C6474.8 320.128 6474.54 320.592 6474.2 320.976C6473.85 321.36 6473.44 321.653 6472.95 321.856C6472.46 322.059 6471.91 322.16 6471.3 322.16C6470.72 322.16 6470.2 322.059 6469.72 321.856C6469.25 321.653 6468.84 321.36 6468.48 320.976C6468.14 320.592 6467.88 320.128 6467.68 319.584C6467.5 319.04 6467.41 318.416 6467.41 317.712C6467.41 316.773 6467.57 315.979 6467.88 315.328C6468.2 314.667 6468.65 314.16 6469.24 313.808C6469.83 313.456 6470.54 313.28 6471.35 313.28C6472.14 313.28 6472.82 313.456 6473.4 313.808C6473.98 314.16 6474.44 314.667 6474.76 315.328C6475.09 315.989 6475.25 316.784 6475.25 317.712ZM6468.71 317.712C6468.71 318.395 6468.8 318.992 6468.98 319.504C6469.17 320.016 6469.46 320.411 6469.84 320.688C6470.23 320.965 6470.72 321.104 6471.32 321.104C6471.92 321.104 6472.42 320.965 6472.8 320.688C6473.2 320.411 6473.49 320.016 6473.67 319.504C6473.85 318.992 6473.94 318.395 6473.94 317.712C6473.94 317.019 6473.84 316.427 6473.65 315.936C6473.47 315.435 6473.19 315.045 6472.8 314.768C6472.43 314.491 6471.93 314.352 6471.32 314.352C6470.42 314.352 6469.76 314.651 6469.33 315.248C6468.92 315.835 6468.71 316.656 6468.71 317.712ZM6480.77 313.28C6481.5 313.28 6482.13 313.445 6482.64 313.776C6483.16 314.096 6483.55 314.549 6483.82 315.136C6484.1 315.712 6484.24 316.389 6484.24 317.168V317.952H6478.3C6478.32 318.965 6478.57 319.744 6479.05 320.288C6479.54 320.821 6480.24 321.088 6481.13 321.088C6481.67 321.088 6482.14 321.04 6482.56 320.944C6482.97 320.837 6483.41 320.688 6483.85 320.496V321.6C6483.43 321.792 6483 321.931 6482.57 322.016C6482.15 322.112 6481.65 322.16 6481.07 322.16C6480.25 322.16 6479.53 321.995 6478.91 321.664C6478.3 321.323 6477.83 320.827 6477.5 320.176C6477.17 319.515 6477.01 318.72 6477.01 317.792C6477.01 316.875 6477.15 316.08 6477.45 315.408C6477.76 314.736 6478.2 314.213 6478.77 313.84C6479.33 313.467 6480 313.28 6480.77 313.28ZM6480.75 314.32C6480.05 314.32 6479.49 314.549 6479.07 315.008C6478.65 315.467 6478.41 316.112 6478.33 316.944H6482.93C6482.93 316.421 6482.85 315.968 6482.69 315.584C6482.54 315.189 6482.3 314.88 6481.98 314.656C6481.66 314.432 6481.25 314.32 6480.75 314.32ZM6491.96 319.664C6491.96 320.208 6491.82 320.667 6491.54 321.04C6491.28 321.403 6490.89 321.68 6490.37 321.872C6489.87 322.064 6489.27 322.16 6488.57 322.16C6487.97 322.16 6487.45 322.112 6487.01 322.016C6486.58 321.92 6486.19 321.787 6485.86 321.616V320.464C6486.21 320.635 6486.63 320.789 6487.11 320.928C6487.6 321.067 6488.1 321.136 6488.6 321.136C6489.35 321.136 6489.88 321.013 6490.21 320.768C6490.56 320.523 6490.73 320.192 6490.73 319.776C6490.73 319.531 6490.66 319.317 6490.52 319.136C6490.39 318.955 6490.17 318.779 6489.85 318.608C6489.54 318.437 6489.11 318.251 6488.55 318.048C6488.01 317.845 6487.54 317.643 6487.14 317.44C6486.75 317.237 6486.44 316.987 6486.21 316.688C6486 316.389 6485.89 316.005 6485.89 315.536C6485.89 314.811 6486.18 314.256 6486.76 313.872C6487.35 313.477 6488.11 313.28 6489.06 313.28C6489.59 313.28 6490.07 313.333 6490.52 313.44C6490.97 313.536 6491.38 313.669 6491.77 313.84L6491.33 314.864C6491.11 314.757 6490.87 314.667 6490.6 314.592C6490.34 314.507 6490.08 314.443 6489.8 314.4C6489.53 314.347 6489.26 314.32 6488.98 314.32C6488.37 314.32 6487.91 314.421 6487.57 314.624C6487.25 314.827 6487.09 315.104 6487.09 315.456C6487.09 315.723 6487.17 315.947 6487.32 316.128C6487.47 316.299 6487.71 316.459 6488.04 316.608C6488.38 316.757 6488.81 316.933 6489.33 317.136C6489.87 317.328 6490.33 317.531 6490.71 317.744C6491.11 317.947 6491.41 318.203 6491.62 318.512C6491.85 318.811 6491.96 319.195 6491.96 319.664ZM6499.45 313.504C6499.45 313.717 6499.45 313.931 6499.44 314.144C6499.43 314.347 6499.41 314.539 6499.39 314.72H6499.47C6499.64 314.411 6499.86 314.155 6500.14 313.952C6500.42 313.739 6500.73 313.579 6501.08 313.472C6501.44 313.355 6501.81 313.296 6502.2 313.296C6502.89 313.296 6503.46 313.408 6503.92 313.632C6504.37 313.845 6504.72 314.181 6504.96 314.64C6505.19 315.099 6505.31 315.691 6505.31 316.416V322H6504.06V316.512C6504.06 315.776 6503.89 315.232 6503.56 314.88C6503.23 314.528 6502.73 314.352 6502.06 314.352C6501.42 314.352 6500.91 314.475 6500.52 314.72C6500.15 314.955 6499.88 315.307 6499.71 315.776C6499.54 316.245 6499.45 316.821 6499.45 317.504V322H6498.2V309.84H6499.45V313.504ZM6511.27 313.28C6512 313.28 6512.63 313.445 6513.14 313.776C6513.66 314.096 6514.05 314.549 6514.32 315.136C6514.6 315.712 6514.74 316.389 6514.74 317.168V317.952H6508.8C6508.82 318.965 6509.07 319.744 6509.55 320.288C6510.04 320.821 6510.74 321.088 6511.63 321.088C6512.17 321.088 6512.64 321.04 6513.06 320.944C6513.47 320.837 6513.91 320.688 6514.35 320.496V321.6C6513.93 321.792 6513.5 321.931 6513.07 322.016C6512.65 322.112 6512.15 322.16 6511.57 322.16C6510.75 322.16 6510.03 321.995 6509.41 321.664C6508.8 321.323 6508.33 320.827 6508 320.176C6507.67 319.515 6507.51 318.72 6507.51 317.792C6507.51 316.875 6507.65 316.08 6507.95 315.408C6508.26 314.736 6508.7 314.213 6509.27 313.84C6509.83 313.467 6510.5 313.28 6511.27 313.28ZM6511.25 314.32C6510.55 314.32 6509.99 314.549 6509.57 315.008C6509.15 315.467 6508.91 316.112 6508.83 316.944H6513.43C6513.43 316.421 6513.35 315.968 6513.19 315.584C6513.04 315.189 6512.8 314.88 6512.48 314.656C6512.16 314.432 6511.75 314.32 6511.25 314.32ZM6520.78 313.296C6520.96 313.296 6521.14 313.307 6521.32 313.328C6521.51 313.339 6521.69 313.36 6521.83 313.392L6521.67 314.56C6521.53 314.517 6521.37 314.485 6521.19 314.464C6521.03 314.443 6520.87 314.432 6520.7 314.432C6520.36 314.432 6520.03 314.507 6519.72 314.656C6519.42 314.795 6519.16 314.992 6518.92 315.248C6518.7 315.504 6518.52 315.813 6518.39 316.176C6518.27 316.539 6518.2 316.944 6518.2 317.392V322H6516.94V313.44H6517.98L6518.11 315.024H6518.17C6518.34 314.704 6518.55 314.416 6518.79 314.16C6519.05 313.893 6519.34 313.685 6519.67 313.536C6520.02 313.376 6520.38 313.296 6520.78 313.296ZM6526.42 313.28C6527.16 313.28 6527.78 313.445 6528.29 313.776C6528.82 314.096 6529.21 314.549 6529.48 315.136C6529.75 315.712 6529.89 316.389 6529.89 317.168V317.952H6523.96C6523.98 318.965 6524.23 319.744 6524.71 320.288C6525.2 320.821 6525.89 321.088 6526.79 321.088C6527.32 321.088 6527.8 321.04 6528.21 320.944C6528.63 320.837 6529.06 320.688 6529.51 320.496V321.6C6529.08 321.792 6528.66 321.931 6528.23 322.016C6527.8 322.112 6527.3 322.16 6526.73 322.16C6525.9 322.16 6525.18 321.995 6524.57 321.664C6523.96 321.323 6523.49 320.827 6523.16 320.176C6522.83 319.515 6522.66 318.72 6522.66 317.792C6522.66 316.875 6522.81 316.08 6523.11 315.408C6523.42 314.736 6523.86 314.213 6524.42 313.84C6524.99 313.467 6525.65 313.28 6526.42 313.28ZM6526.41 314.32C6525.7 314.32 6525.14 314.549 6524.73 315.008C6524.31 315.467 6524.06 316.112 6523.99 316.944H6528.58C6528.58 316.421 6528.5 315.968 6528.34 315.584C6528.19 315.189 6527.96 314.88 6527.64 314.656C6527.32 314.432 6526.91 314.32 6526.41 314.32ZM6533.63 320.32C6533.53 320.693 6533.41 321.099 6533.26 321.536C6533.12 321.973 6532.97 322.405 6532.8 322.832C6532.64 323.269 6532.47 323.68 6532.3 324.064H6531.37C6531.48 323.637 6531.59 323.195 6531.69 322.736C6531.8 322.277 6531.89 321.824 6531.97 321.376C6532.05 320.928 6532.12 320.517 6532.17 320.144H6533.53L6533.63 320.32ZM6545.85 319.664C6545.85 320.208 6545.71 320.667 6545.43 321.04C6545.17 321.403 6544.78 321.68 6544.27 321.872C6543.76 322.064 6543.16 322.16 6542.46 322.16C6541.86 322.16 6541.34 322.112 6540.91 322.016C6540.47 321.92 6540.08 321.787 6539.75 321.616V320.464C6540.11 320.635 6540.52 320.789 6541 320.928C6541.49 321.067 6541.99 321.136 6542.49 321.136C6543.24 321.136 6543.77 321.013 6544.11 320.768C6544.45 320.523 6544.62 320.192 6544.62 319.776C6544.62 319.531 6544.55 319.317 6544.41 319.136C6544.28 318.955 6544.06 318.779 6543.74 318.608C6543.43 318.437 6543 318.251 6542.44 318.048C6541.9 317.845 6541.43 317.643 6541.03 317.44C6540.64 317.237 6540.33 316.987 6540.11 316.688C6539.89 316.389 6539.79 316.005 6539.79 315.536C6539.79 314.811 6540.07 314.256 6540.65 313.872C6541.24 313.477 6542 313.28 6542.95 313.28C6543.48 313.28 6543.96 313.333 6544.41 313.44C6544.86 313.536 6545.27 313.669 6545.66 313.84L6545.23 314.864C6545 314.757 6544.76 314.667 6544.49 314.592C6544.23 314.507 6543.97 314.443 6543.69 314.4C6543.42 314.347 6543.15 314.32 6542.87 314.32C6542.27 314.32 6541.8 314.421 6541.47 314.624C6541.15 314.827 6540.99 315.104 6540.99 315.456C6540.99 315.723 6541.06 315.947 6541.21 316.128C6541.36 316.299 6541.6 316.459 6541.93 316.608C6542.27 316.757 6542.7 316.933 6543.23 317.136C6543.76 317.328 6544.22 317.531 6544.6 317.744C6545 317.947 6545.3 318.203 6545.51 318.512C6545.74 318.811 6545.85 319.195 6545.85 319.664ZM6555.3 317.712C6555.3 318.405 6555.21 319.029 6555.03 319.584C6554.85 320.128 6554.58 320.592 6554.24 320.976C6553.9 321.36 6553.49 321.653 6552.99 321.856C6552.5 322.059 6551.95 322.16 6551.35 322.16C6550.77 322.16 6550.24 322.059 6549.76 321.856C6549.29 321.653 6548.88 321.36 6548.53 320.976C6548.19 320.592 6547.92 320.128 6547.73 319.584C6547.55 319.04 6547.46 318.416 6547.46 317.712C6547.46 316.773 6547.61 315.979 6547.92 315.328C6548.24 314.667 6548.7 314.16 6549.28 313.808C6549.88 313.456 6550.58 313.28 6551.39 313.28C6552.18 313.28 6552.87 313.456 6553.44 313.808C6554.03 314.16 6554.48 314.667 6554.8 315.328C6555.13 315.989 6555.3 316.784 6555.3 317.712ZM6548.75 317.712C6548.75 318.395 6548.85 318.992 6549.03 319.504C6549.22 320.016 6549.51 320.411 6549.89 320.688C6550.27 320.965 6550.77 321.104 6551.36 321.104C6551.97 321.104 6552.47 320.965 6552.85 320.688C6553.25 320.411 6553.53 320.016 6553.71 319.504C6553.9 318.992 6553.99 318.395 6553.99 317.712C6553.99 317.019 6553.89 316.427 6553.7 315.936C6553.52 315.435 6553.23 315.045 6552.85 314.768C6552.48 314.491 6551.98 314.352 6551.36 314.352C6550.47 314.352 6549.81 314.651 6549.38 315.248C6548.96 315.835 6548.75 316.656 6548.75 317.712ZM6566.78 313.28C6567.72 313.28 6568.42 313.525 6568.89 314.016C6569.37 314.507 6569.61 315.296 6569.61 316.384V322H6568.38V316.448C6568.38 315.744 6568.23 315.221 6567.92 314.88C6567.62 314.528 6567.17 314.352 6566.57 314.352C6565.75 314.352 6565.15 314.592 6564.76 315.072C6564.38 315.541 6564.19 316.251 6564.19 317.2V322H6562.96V316.448C6562.96 315.979 6562.89 315.589 6562.75 315.28C6562.61 314.96 6562.41 314.725 6562.14 314.576C6561.87 314.427 6561.54 314.352 6561.15 314.352C6560.58 314.352 6560.12 314.469 6559.77 314.704C6559.43 314.939 6559.18 315.285 6559.02 315.744C6558.86 316.192 6558.78 316.757 6558.78 317.44V322H6557.53V313.44H6558.54L6558.73 314.672H6558.8C6558.98 314.373 6559.19 314.123 6559.44 313.92C6559.69 313.707 6559.98 313.547 6560.3 313.44C6560.63 313.333 6560.98 313.28 6561.36 313.28C6562.01 313.28 6562.55 313.403 6562.99 313.648C6563.43 313.893 6563.75 314.267 6563.95 314.768H6564.01C6564.29 314.277 6564.67 313.909 6565.16 313.664C6565.65 313.408 6566.19 313.28 6566.78 313.28ZM6575.58 313.28C6576.31 313.28 6576.94 313.445 6577.45 313.776C6577.97 314.096 6578.37 314.549 6578.63 315.136C6578.91 315.712 6579.05 316.389 6579.05 317.168V317.952H6573.11C6573.14 318.965 6573.39 319.744 6573.87 320.288C6574.36 320.821 6575.05 321.088 6575.95 321.088C6576.48 321.088 6576.95 321.04 6577.37 320.944C6577.79 320.837 6578.22 320.688 6578.67 320.496V321.6C6578.24 321.792 6577.81 321.931 6577.39 322.016C6576.96 322.112 6576.46 322.16 6575.88 322.16C6575.06 322.16 6574.34 321.995 6573.72 321.664C6573.11 321.323 6572.64 320.827 6572.31 320.176C6571.98 319.515 6571.82 318.72 6571.82 317.792C6571.82 316.875 6571.97 316.08 6572.27 315.408C6572.58 314.736 6573.01 314.213 6573.58 313.84C6574.14 313.467 6574.81 313.28 6575.58 313.28ZM6575.56 314.32C6574.86 314.32 6574.3 314.549 6573.88 315.008C6573.47 315.467 6573.22 316.112 6573.15 316.944H6577.74C6577.74 316.421 6577.66 315.968 6577.5 315.584C6577.35 315.189 6577.11 314.88 6576.79 314.656C6576.47 314.432 6576.06 314.32 6575.56 314.32ZM6583.97 321.12C6584.2 321.12 6584.41 321.104 6584.63 321.072C6584.85 321.029 6585.04 320.987 6585.19 320.944V321.904C6585.03 321.979 6584.81 322.037 6584.55 322.08C6584.29 322.133 6584.03 322.16 6583.76 322.16C6583.32 322.16 6582.91 322.08 6582.55 321.92C6582.18 321.76 6581.89 321.493 6581.67 321.12C6581.45 320.736 6581.35 320.208 6581.35 319.536V314.432H6580.12V313.808L6581.36 313.328L6581.84 311.456H6582.61V313.44H6585.12V314.432H6582.61V319.504C6582.61 320.048 6582.73 320.453 6582.96 320.72C6583.21 320.987 6583.54 321.12 6583.97 321.12ZM6588.19 313.504C6588.19 313.717 6588.18 313.931 6588.17 314.144C6588.16 314.347 6588.14 314.539 6588.12 314.72H6588.2C6588.37 314.411 6588.6 314.155 6588.87 313.952C6589.15 313.739 6589.47 313.579 6589.82 313.472C6590.17 313.355 6590.54 313.296 6590.94 313.296C6591.62 313.296 6592.19 313.408 6592.65 313.632C6593.11 313.845 6593.46 314.181 6593.69 314.64C6593.93 315.099 6594.04 315.691 6594.04 316.416V322H6592.79V316.512C6592.79 315.776 6592.63 315.232 6592.3 314.88C6591.97 314.528 6591.47 314.352 6590.79 314.352C6590.15 314.352 6589.64 314.475 6589.26 314.72C6588.89 314.955 6588.61 315.307 6588.44 315.776C6588.27 316.245 6588.19 316.821 6588.19 317.504V322H6586.94V309.84H6588.19V313.504ZM6597.97 313.44V322H6596.72V313.44H6597.97ZM6597.36 310.24C6597.57 310.24 6597.75 310.309 6597.89 310.448C6598.04 310.587 6598.11 310.8 6598.11 311.088C6598.11 311.355 6598.04 311.563 6597.89 311.712C6597.75 311.851 6597.57 311.92 6597.36 311.92C6597.14 311.92 6596.95 311.851 6596.8 311.712C6596.66 311.563 6596.59 311.355 6596.59 311.088C6596.59 310.8 6596.66 310.587 6596.8 310.448C6596.95 310.309 6597.14 310.24 6597.36 310.24ZM6604.75 313.28C6605.75 313.28 6606.52 313.531 6607.04 314.032C6607.56 314.523 6607.82 315.317 6607.82 316.416V322H6606.58V316.512C6606.58 315.776 6606.41 315.232 6606.08 314.88C6605.75 314.528 6605.25 314.352 6604.58 314.352C6603.63 314.352 6602.95 314.619 6602.56 315.152C6602.17 315.685 6601.97 316.464 6601.97 317.488V322H6600.72V313.44H6601.73L6601.92 314.704H6601.98C6602.18 314.395 6602.41 314.139 6602.69 313.936C6602.97 313.723 6603.28 313.563 6603.63 313.456C6603.98 313.339 6604.36 313.28 6604.75 313.28ZM6613.56 313.28C6614.15 313.28 6614.68 313.397 6615.13 313.632C6615.57 313.856 6615.95 314.187 6616.26 314.624H6616.34L6616.52 313.44H6617.51V322.176C6617.51 322.965 6617.38 323.632 6617.11 324.176C6616.84 324.731 6616.43 325.147 6615.86 325.424C6615.31 325.701 6614.59 325.84 6613.72 325.84C6613.1 325.84 6612.53 325.792 6612.02 325.696C6611.51 325.6 6611.05 325.467 6610.65 325.296V324.112C6610.92 324.251 6611.23 324.368 6611.56 324.464C6611.89 324.571 6612.24 324.651 6612.61 324.704C6613 324.757 6613.39 324.784 6613.8 324.784C6614.59 324.784 6615.19 324.56 6615.62 324.112C6616.05 323.664 6616.26 323.051 6616.26 322.272V321.888C6616.26 321.739 6616.27 321.547 6616.28 321.312C6616.29 321.067 6616.3 320.88 6616.31 320.752H6616.26C6615.97 321.221 6615.6 321.573 6615.14 321.808C6614.69 322.043 6614.16 322.16 6613.54 322.16C6612.43 322.16 6611.57 321.776 6610.95 321.008C6610.33 320.24 6610.02 319.157 6610.02 317.76C6610.02 316.843 6610.16 316.048 6610.44 315.376C6610.71 314.704 6611.11 314.187 6611.64 313.824C6612.17 313.461 6612.81 313.28 6613.56 313.28ZM6613.72 314.352C6613.21 314.352 6612.77 314.485 6612.41 314.752C6612.05 315.019 6611.78 315.408 6611.59 315.92C6611.41 316.421 6611.32 317.04 6611.32 317.776C6611.32 318.853 6611.52 319.68 6611.93 320.256C6612.34 320.832 6612.94 321.12 6613.72 321.12C6614.19 321.12 6614.58 321.056 6614.9 320.928C6615.22 320.8 6615.48 320.608 6615.69 320.352C6615.9 320.096 6616.05 319.776 6616.13 319.392C6616.23 319.008 6616.28 318.565 6616.28 318.064V317.664C6616.28 316.896 6616.19 316.272 6616.01 315.792C6615.83 315.301 6615.56 314.939 6615.19 314.704C6614.82 314.469 6614.33 314.352 6613.72 314.352ZM6625.67 313.44V322H6624.42V313.44H6625.67ZM6625.06 310.24C6625.28 310.24 6625.45 310.309 6625.59 310.448C6625.74 310.587 6625.81 310.8 6625.81 311.088C6625.81 311.355 6625.74 311.563 6625.59 311.712C6625.45 311.851 6625.28 311.92 6625.06 311.92C6624.84 311.92 6624.65 311.851 6624.5 311.712C6624.36 311.563 6624.29 311.355 6624.29 311.088C6624.29 310.8 6624.36 310.587 6624.5 310.448C6624.65 310.309 6624.84 310.24 6625.06 310.24ZM6632.45 313.28C6633.46 313.28 6634.22 313.531 6634.74 314.032C6635.27 314.523 6635.53 315.317 6635.53 316.416V322H6634.28V316.512C6634.28 315.776 6634.11 315.232 6633.78 314.88C6633.45 314.528 6632.95 314.352 6632.28 314.352C6631.33 314.352 6630.66 314.619 6630.26 315.152C6629.87 315.685 6629.67 316.464 6629.67 317.488V322H6628.42V313.44H6629.43L6629.62 314.704H6629.69C6629.88 314.395 6630.11 314.139 6630.39 313.936C6630.67 313.723 6630.98 313.563 6631.33 313.456C6631.69 313.339 6632.06 313.28 6632.45 313.28ZM6641.96 314.432H6639.84V322H6638.59V314.432H6637.05V313.824L6638.59 313.408V312.8C6638.59 312.096 6638.69 311.52 6638.89 311.072C6639.11 310.624 6639.41 310.293 6639.82 310.08C6640.23 309.867 6640.72 309.76 6641.29 309.76C6641.62 309.76 6641.92 309.787 6642.19 309.84C6642.47 309.893 6642.71 309.957 6642.91 310.032L6642.59 311.04C6642.41 310.976 6642.2 310.923 6641.98 310.88C6641.76 310.827 6641.53 310.8 6641.31 310.8C6640.81 310.8 6640.43 310.96 6640.19 311.28C6639.95 311.6 6639.84 312.101 6639.84 312.784V313.44H6641.96V314.432ZM6650.89 317.712C6650.89 318.405 6650.8 319.029 6650.62 319.584C6650.44 320.128 6650.18 320.592 6649.84 320.976C6649.49 321.36 6649.08 321.653 6648.59 321.856C6648.1 322.059 6647.55 322.16 6646.94 322.16C6646.36 322.16 6645.84 322.059 6645.36 321.856C6644.89 321.653 6644.48 321.36 6644.12 320.976C6643.78 320.592 6643.52 320.128 6643.32 319.584C6643.14 319.04 6643.05 318.416 6643.05 317.712C6643.05 316.773 6643.21 315.979 6643.52 315.328C6643.84 314.667 6644.29 314.16 6644.88 313.808C6645.47 313.456 6646.18 313.28 6646.99 313.28C6647.78 313.28 6648.46 313.456 6649.04 313.808C6649.62 314.16 6650.08 314.667 6650.4 315.328C6650.73 315.989 6650.89 316.784 6650.89 317.712ZM6644.35 317.712C6644.35 318.395 6644.44 318.992 6644.62 319.504C6644.81 320.016 6645.1 320.411 6645.48 320.688C6645.87 320.965 6646.36 321.104 6646.96 321.104C6647.56 321.104 6648.06 320.965 6648.44 320.688C6648.84 320.411 6649.13 320.016 6649.31 319.504C6649.49 318.992 6649.58 318.395 6649.58 317.712C6649.58 317.019 6649.48 316.427 6649.29 315.936C6649.11 315.435 6648.83 315.045 6648.44 314.768C6648.07 314.491 6647.57 314.352 6646.96 314.352C6646.06 314.352 6645.4 314.651 6644.97 315.248C6644.56 315.835 6644.35 316.656 6644.35 317.712ZM6656.97 313.296C6657.15 313.296 6657.33 313.307 6657.51 313.328C6657.7 313.339 6657.87 313.36 6658.02 313.392L6657.86 314.56C6657.71 314.517 6657.55 314.485 6657.38 314.464C6657.22 314.443 6657.06 314.432 6656.89 314.432C6656.54 314.432 6656.22 314.507 6655.91 314.656C6655.61 314.795 6655.34 314.992 6655.11 315.248C6654.89 315.504 6654.71 315.813 6654.58 316.176C6654.45 316.539 6654.39 316.944 6654.39 317.392V322H6653.13V313.44H6654.17L6654.29 315.024H6654.36C6654.53 314.704 6654.74 314.416 6654.98 314.16C6655.24 313.893 6655.53 313.685 6655.86 313.536C6656.2 313.376 6656.57 313.296 6656.97 313.296ZM6668.89 313.28C6669.83 313.28 6670.53 313.525 6671 314.016C6671.48 314.507 6671.72 315.296 6671.72 316.384V322H6670.49V316.448C6670.49 315.744 6670.33 315.221 6670.03 314.88C6669.73 314.528 6669.28 314.352 6668.68 314.352C6667.86 314.352 6667.26 314.592 6666.87 315.072C6666.49 315.541 6666.3 316.251 6666.3 317.2V322H6665.07V316.448C6665.07 315.979 6665 315.589 6664.86 315.28C6664.72 314.96 6664.52 314.725 6664.25 314.576C6663.98 314.427 6663.65 314.352 6663.26 314.352C6662.69 314.352 6662.23 314.469 6661.88 314.704C6661.54 314.939 6661.29 315.285 6661.13 315.744C6660.97 316.192 6660.89 316.757 6660.89 317.44V322H6659.64V313.44H6660.65L6660.84 314.672H6660.91C6661.09 314.373 6661.3 314.123 6661.55 313.92C6661.8 313.707 6662.09 313.547 6662.41 313.44C6662.74 313.333 6663.09 313.28 6663.47 313.28C6664.12 313.28 6664.66 313.403 6665.1 313.648C6665.53 313.893 6665.85 314.267 6666.06 314.768H6666.12C6666.4 314.277 6666.78 313.909 6667.27 313.664C6667.76 313.408 6668.3 313.28 6668.89 313.28ZM6677.58 313.296C6678.6 313.296 6679.36 313.531 6679.85 314C6680.34 314.459 6680.58 315.189 6680.58 316.192V322H6679.66L6679.42 320.72H6679.37C6679.13 321.029 6678.88 321.296 6678.62 321.52C6678.36 321.733 6678.06 321.893 6677.7 322C6677.36 322.107 6676.95 322.16 6676.46 322.16C6675.93 322.16 6675.47 322.069 6675.06 321.888C6674.66 321.707 6674.34 321.429 6674.1 321.056C6673.88 320.683 6673.77 320.219 6673.77 319.664C6673.77 318.811 6674.1 318.155 6674.78 317.696C6675.46 317.237 6676.49 316.987 6677.86 316.944L6679.35 316.88V316.352C6679.35 315.595 6679.19 315.067 6678.87 314.768C6678.56 314.469 6678.11 314.32 6677.51 314.32C6677.06 314.32 6676.64 314.384 6676.23 314.512C6675.84 314.64 6675.45 314.795 6675.08 314.976L6674.7 314.016C6675.08 313.813 6675.52 313.643 6676.02 313.504C6676.52 313.365 6677.04 313.296 6677.58 313.296ZM6678.02 317.824C6676.96 317.867 6676.2 318.043 6675.75 318.352C6675.3 318.661 6675.08 319.104 6675.08 319.68C6675.08 320.171 6675.23 320.539 6675.53 320.784C6675.84 321.019 6676.24 321.136 6676.73 321.136C6677.51 321.136 6678.14 320.923 6678.62 320.496C6679.1 320.059 6679.34 319.413 6679.34 318.56V317.776L6678.02 317.824ZM6685.97 321.12C6686.2 321.12 6686.41 321.104 6686.63 321.072C6686.85 321.029 6687.04 320.987 6687.19 320.944V321.904C6687.03 321.979 6686.81 322.037 6686.55 322.08C6686.29 322.133 6686.03 322.16 6685.76 322.16C6685.32 322.16 6684.91 322.08 6684.55 321.92C6684.18 321.76 6683.89 321.493 6683.67 321.12C6683.45 320.736 6683.35 320.208 6683.35 319.536V314.432H6682.12V313.808L6683.36 313.328L6683.84 311.456H6684.61V313.44H6687.12V314.432H6684.61V319.504C6684.61 320.048 6684.73 320.453 6684.96 320.72C6685.21 320.987 6685.54 321.12 6685.97 321.12ZM6690.19 313.44V322H6688.94V313.44H6690.19ZM6689.58 310.24C6689.79 310.24 6689.97 310.309 6690.11 310.448C6690.26 310.587 6690.33 310.8 6690.33 311.088C6690.33 311.355 6690.26 311.563 6690.11 311.712C6689.97 311.851 6689.79 311.92 6689.58 311.92C6689.35 311.92 6689.17 311.851 6689.02 311.712C6688.88 311.563 6688.81 311.355 6688.81 311.088C6688.81 310.8 6688.88 310.587 6689.02 310.448C6689.17 310.309 6689.35 310.24 6689.58 310.24ZM6694.81 322L6691.56 313.44H6692.91L6694.81 318.672C6694.9 318.907 6694.99 319.163 6695.08 319.44C6695.18 319.707 6695.26 319.963 6695.32 320.208C6695.4 320.453 6695.45 320.667 6695.48 320.848H6695.55C6695.59 320.667 6695.65 320.453 6695.72 320.208C6695.81 319.952 6695.9 319.691 6695.99 319.424C6696.09 319.147 6696.18 318.896 6696.25 318.672L6698.15 313.44H6699.5L6696.23 322H6694.81ZM6704.16 313.28C6704.89 313.28 6705.52 313.445 6706.03 313.776C6706.55 314.096 6706.95 314.549 6707.21 315.136C6707.49 315.712 6707.63 316.389 6707.63 317.168V317.952H6701.69C6701.71 318.965 6701.96 319.744 6702.44 320.288C6702.93 320.821 6703.63 321.088 6704.52 321.088C6705.06 321.088 6705.53 321.04 6705.95 320.944C6706.36 320.837 6706.8 320.688 6707.24 320.496V321.6C6706.82 321.792 6706.39 321.931 6705.96 322.016C6705.54 322.112 6705.04 322.16 6704.46 322.16C6703.64 322.16 6702.92 321.995 6702.3 321.664C6701.69 321.323 6701.22 320.827 6700.89 320.176C6700.56 319.515 6700.4 318.72 6700.4 317.792C6700.4 316.875 6700.55 316.08 6700.84 315.408C6701.15 314.736 6701.59 314.213 6702.16 313.84C6702.72 313.467 6703.39 313.28 6704.16 313.28ZM6704.14 314.32C6703.44 314.32 6702.88 314.549 6702.46 315.008C6702.04 315.467 6701.8 316.112 6701.72 316.944H6706.32C6706.32 316.421 6706.24 315.968 6706.08 315.584C6705.93 315.189 6705.69 314.88 6705.37 314.656C6705.05 314.432 6704.64 314.32 6704.14 314.32Z" fill="#1F1F1F" id="n854"/>
<path d="M6730.52 316.704C6730.52 317.4 6730.47 318.024 6730.35 318.576C6730.25 319.12 6730.09 319.58 6729.86 319.956C6729.64 320.332 6729.35 320.62 6728.99 320.82C6728.63 321.02 6728.19 321.12 6727.69 321.12C6727.07 321.12 6726.54 320.948 6726.12 320.604C6725.7 320.252 6725.39 319.748 6725.18 319.092C6724.98 318.428 6724.88 317.632 6724.88 316.704C6724.88 315.792 6724.97 315.008 6725.16 314.352C6725.34 313.688 6725.64 313.18 6726.06 312.828C6726.47 312.476 6727.02 312.3 6727.69 312.3C6728.34 312.3 6728.87 312.476 6729.29 312.828C6729.7 313.18 6730.01 313.684 6730.21 314.34C6730.42 314.996 6730.52 315.784 6730.52 316.704ZM6725.83 316.704C6725.83 317.512 6725.89 318.184 6726.01 318.72C6726.14 319.248 6726.34 319.648 6726.61 319.92C6726.88 320.184 6727.24 320.316 6727.69 320.316C6728.14 320.316 6728.5 320.184 6728.77 319.92C6729.04 319.656 6729.24 319.256 6729.37 318.72C6729.5 318.184 6729.56 317.512 6729.56 316.704C6729.56 315.912 6729.5 315.252 6729.37 314.724C6729.25 314.188 6729.05 313.784 6728.78 313.512C6728.52 313.24 6728.15 313.104 6727.69 313.104C6727.23 313.104 6726.87 313.244 6726.6 313.524C6726.33 313.796 6726.13 314.2 6726.01 314.736C6725.89 315.264 6725.83 315.92 6725.83 316.704ZM6737.34 316.08C6737.34 316.608 6737.3 317.12 6737.22 317.616C6737.15 318.112 6737.02 318.572 6736.85 318.996C6736.67 319.42 6736.44 319.792 6736.14 320.112C6735.84 320.432 6735.48 320.68 6735.04 320.856C6734.6 321.032 6734.07 321.12 6733.45 321.12C6733.28 321.12 6733.09 321.108 6732.88 321.084C6732.66 321.068 6732.48 321.04 6732.35 321V320.184C6732.49 320.232 6732.66 320.272 6732.85 320.304C6733.05 320.328 6733.25 320.34 6733.44 320.34C6733.98 320.34 6734.44 320.252 6734.81 320.076C6735.18 319.892 6735.47 319.64 6735.7 319.32C6735.93 318.992 6736.1 318.608 6736.2 318.168C6736.31 317.72 6736.38 317.236 6736.39 316.716H6736.32C6736.21 316.908 6736.06 317.088 6735.86 317.256C6735.67 317.416 6735.44 317.544 6735.17 317.64C6734.9 317.736 6734.58 317.784 6734.21 317.784C6733.71 317.784 6733.28 317.68 6732.9 317.472C6732.53 317.264 6732.25 316.968 6732.05 316.584C6731.85 316.2 6731.75 315.736 6731.75 315.192C6731.75 314.6 6731.86 314.088 6732.08 313.656C6732.31 313.224 6732.62 312.892 6733.02 312.66C6733.43 312.428 6733.91 312.312 6734.46 312.312C6734.88 312.312 6735.27 312.396 6735.62 312.564C6735.98 312.724 6736.28 312.964 6736.54 313.284C6736.79 313.604 6736.99 314 6737.12 314.472C6737.27 314.936 6737.34 315.472 6737.34 316.08ZM6734.46 313.116C6733.92 313.116 6733.49 313.288 6733.16 313.632C6732.84 313.976 6732.68 314.492 6732.68 315.18C6732.68 315.756 6732.82 316.208 6733.1 316.536C6733.38 316.864 6733.82 317.028 6734.4 317.028C6734.81 317.028 6735.16 316.948 6735.44 316.788C6735.74 316.628 6735.97 316.424 6736.13 316.176C6736.3 315.928 6736.38 315.672 6736.38 315.408C6736.38 315.16 6736.34 314.9 6736.26 314.628C6736.19 314.356 6736.07 314.108 6735.91 313.884C6735.76 313.652 6735.56 313.468 6735.31 313.332C6735.07 313.188 6734.79 313.116 6734.46 313.116ZM6738.89 320.412C6738.89 320.14 6738.96 319.948 6739.08 319.836C6739.21 319.724 6739.37 319.668 6739.56 319.668C6739.76 319.668 6739.92 319.724 6740.04 319.836C6740.18 319.948 6740.25 320.14 6740.25 320.412C6740.25 320.668 6740.18 320.856 6740.04 320.976C6739.92 321.096 6739.76 321.156 6739.56 321.156C6739.37 321.156 6739.21 321.096 6739.08 320.976C6738.96 320.856 6738.89 320.668 6738.89 320.412ZM6738.89 315.18C6738.89 314.908 6738.96 314.716 6739.08 314.604C6739.21 314.492 6739.37 314.436 6739.56 314.436C6739.76 314.436 6739.92 314.492 6740.04 314.604C6740.18 314.716 6740.25 314.908 6740.25 315.18C6740.25 315.444 6740.18 315.636 6740.04 315.756C6739.92 315.876 6739.76 315.936 6739.56 315.936C6739.37 315.936 6739.21 315.876 6739.08 315.756C6738.96 315.636 6738.89 315.444 6738.89 315.18ZM6745.33 321H6744.41V314.892C6744.41 314.66 6744.41 314.464 6744.41 314.304C6744.42 314.144 6744.42 313.996 6744.42 313.86C6744.43 313.716 6744.44 313.572 6744.44 313.428C6744.32 313.548 6744.21 313.652 6744.11 313.74C6744 313.82 6743.88 313.928 6743.72 314.064L6742.72 314.856L6742.22 314.22L6744.54 312.432H6745.33V321ZM6754.19 321H6748.6V320.22L6750.9 317.856C6751.33 317.432 6751.68 317.052 6751.97 316.716C6752.27 316.38 6752.49 316.048 6752.64 315.72C6752.8 315.392 6752.87 315.028 6752.87 314.628C6752.87 314.14 6752.72 313.768 6752.43 313.512C6752.14 313.248 6751.76 313.116 6751.29 313.116C6750.88 313.116 6750.52 313.188 6750.2 313.332C6749.88 313.476 6749.55 313.676 6749.22 313.932L6748.72 313.296C6748.94 313.104 6749.19 312.936 6749.45 312.792C6749.72 312.64 6750.01 312.524 6750.32 312.444C6750.63 312.356 6750.95 312.312 6751.29 312.312C6751.81 312.312 6752.26 312.404 6752.63 312.588C6753.02 312.772 6753.31 313.036 6753.52 313.38C6753.73 313.716 6753.83 314.116 6753.83 314.58C6753.83 314.924 6753.78 315.248 6753.68 315.552C6753.58 315.848 6753.44 316.14 6753.24 316.428C6753.06 316.708 6752.83 316.996 6752.56 317.292C6752.3 317.58 6752 317.884 6751.68 318.204L6749.79 320.1V320.136H6754.19V321ZM6755.76 320.412C6755.76 320.14 6755.82 319.948 6755.95 319.836C6756.08 319.724 6756.24 319.668 6756.43 319.668C6756.62 319.668 6756.78 319.724 6756.91 319.836C6757.04 319.948 6757.11 320.14 6757.11 320.412C6757.11 320.668 6757.04 320.856 6756.91 320.976C6756.78 321.096 6756.62 321.156 6756.43 321.156C6756.24 321.156 6756.08 321.096 6755.95 320.976C6755.82 320.856 6755.76 320.668 6755.76 320.412ZM6755.76 315.18C6755.76 314.908 6755.82 314.716 6755.95 314.604C6756.08 314.492 6756.24 314.436 6756.43 314.436C6756.62 314.436 6756.78 314.492 6756.91 314.604C6757.04 314.716 6757.11 314.908 6757.11 315.18C6757.11 315.444 6757.04 315.636 6756.91 315.756C6756.78 315.876 6756.62 315.936 6756.43 315.936C6756.24 315.936 6756.08 315.876 6755.95 315.756C6755.82 315.636 6755.76 315.444 6755.76 315.18ZM6764.63 318.996H6763.34V321H6762.42V318.996H6758.26V318.204L6762.35 312.384H6763.34V318.144H6764.63V318.996ZM6762.42 315.3C6762.42 315.084 6762.42 314.892 6762.42 314.724C6762.42 314.548 6762.43 314.388 6762.44 314.244C6762.44 314.092 6762.45 313.948 6762.45 313.812C6762.46 313.668 6762.46 313.532 6762.47 313.404H6762.42C6762.35 313.564 6762.27 313.732 6762.17 313.908C6762.08 314.076 6761.98 314.228 6761.87 314.364L6759.2 318.144H6762.42V315.3ZM6765.55 317.34C6765.55 316.812 6765.58 316.304 6765.66 315.816C6765.74 315.32 6765.86 314.86 6766.04 314.436C6766.22 314.012 6766.45 313.64 6766.75 313.32C6767.04 313 6767.41 312.752 6767.84 312.576C6768.28 312.4 6768.81 312.312 6769.42 312.312C6769.6 312.312 6769.79 312.32 6769.99 312.336C6770.2 312.352 6770.36 312.38 6770.49 312.42V313.236C6770.35 313.188 6770.18 313.152 6770 313.128C6769.82 313.104 6769.63 313.092 6769.44 313.092C6768.9 313.092 6768.44 313.184 6768.07 313.368C6767.7 313.544 6767.4 313.796 6767.18 314.124C6766.96 314.452 6766.79 314.836 6766.68 315.276C6766.57 315.716 6766.51 316.196 6766.48 316.716H6766.56C6766.68 316.524 6766.83 316.348 6767.01 316.188C6767.2 316.02 6767.44 315.888 6767.71 315.792C6767.98 315.696 6768.3 315.648 6768.66 315.648C6769.15 315.648 6769.58 315.752 6769.95 315.96C6770.33 316.168 6770.62 316.464 6770.83 316.848C6771.04 317.232 6771.14 317.7 6771.14 318.252C6771.14 318.836 6771.03 319.344 6770.8 319.776C6770.59 320.208 6770.28 320.54 6769.88 320.772C6769.48 321.004 6769 321.12 6768.44 321.12C6768.02 321.12 6767.63 321.04 6767.28 320.88C6766.92 320.72 6766.62 320.48 6766.35 320.16C6766.1 319.84 6765.9 319.444 6765.75 318.972C6765.62 318.5 6765.55 317.956 6765.55 317.34ZM6768.43 320.316C6768.97 320.316 6769.4 320.148 6769.72 319.812C6770.04 319.468 6770.2 318.948 6770.2 318.252C6770.2 317.684 6770.06 317.236 6769.77 316.908C6769.48 316.572 6769.05 316.404 6768.48 316.404C6768.08 316.404 6767.73 316.484 6767.43 316.644C6767.14 316.804 6766.92 317.008 6766.75 317.256C6766.59 317.504 6766.51 317.756 6766.51 318.012C6766.51 318.276 6766.54 318.544 6766.62 318.816C6766.7 319.08 6766.82 319.328 6766.98 319.56C6767.14 319.784 6767.34 319.968 6767.58 320.112C6767.82 320.248 6768.1 320.316 6768.43 320.316Z" fill="#535353" id="n855"/>
<path d="M6780 300H6818.4C6821.76 300 6823.44 300 6824.72 300.654C6825.85 301.229 6826.77 302.147 6827.35 303.276C6828 304.56 6828 306.24 6828 309.6V322.4C6828 325.76 6828 327.44 6827.35 328.724C6826.77 329.853 6825.85 330.771 6824.72 331.346C6823.44 332 6821.76 332 6818.4 332H6780V300Z" fill="white" id="n857"/>
<path d="M6780 300V299H6779V300H6780ZM6780 332H6779V333H6780V332ZM6827.35 328.724L6826.46 328.27L6827.35 328.724ZM6824.72 331.346L6825.18 332.237L6824.72 331.346ZM6824.72 300.654L6824.27 301.545L6824.72 300.654ZM6827.35 303.276L6828.24 302.822L6827.35 303.276ZM6780 300V301H6818.4V300V299H6780V300ZM6828 309.6H6827V322.4H6828H6829V309.6H6828ZM6818.4 332V331H6780V332V333H6818.4V332ZM6780 332H6781V300H6780H6779V332H6780ZM6828 322.4H6827C6827 324.097 6827 325.309 6826.92 326.259C6826.84 327.198 6826.7 327.793 6826.46 328.27L6827.35 328.724L6828.24 329.178C6828.65 328.372 6828.83 327.485 6828.91 326.422C6829 325.372 6829 324.064 6829 322.4H6828ZM6818.4 332V333C6820.06 333 6821.37 333.001 6822.42 332.915C6823.48 332.828 6824.37 332.648 6825.18 332.237L6824.72 331.346L6824.27 330.455C6823.79 330.698 6823.2 330.845 6822.26 330.922C6821.31 330.999 6820.1 331 6818.4 331V332ZM6827.35 328.724L6826.46 328.27C6825.98 329.211 6825.21 329.976 6824.27 330.455L6824.72 331.346L6825.18 332.237C6826.5 331.566 6827.57 330.495 6828.24 329.178L6827.35 328.724ZM6818.4 300V301C6820.1 301 6821.31 301.001 6822.26 301.078C6823.2 301.155 6823.79 301.302 6824.27 301.545L6824.72 300.654L6825.18 299.763C6824.37 299.352 6823.48 299.172 6822.42 299.085C6821.37 298.999 6820.06 299 6818.4 299V300ZM6828 309.6H6829C6829 307.936 6829 306.628 6828.91 305.578C6828.83 304.515 6828.65 303.628 6828.24 302.822L6827.35 303.276L6826.46 303.73C6826.7 304.207 6826.84 304.802 6826.92 305.741C6827 306.691 6827 307.903 6827 309.6H6828ZM6824.72 300.654L6824.27 301.545C6825.21 302.024 6825.98 302.789 6826.46 303.73L6827.35 303.276L6828.24 302.822C6827.57 301.505 6826.5 300.434 6825.18 299.763L6824.72 300.654Z" fill="#BEBEBE" mask="url(#path-726-inside-127_1702_11540)" id="n858"/>
<path d="M6811 310.41L6809.59 309L6804 314.59L6798.41 309L6797 310.41L6802.59 316L6797 321.59L6798.41 323L6804 317.41L6809.59 323L6811 321.59L6805.41 316L6811 310.41Z" fill="#535353" id="n859"/>
</g>
</svg>
