<svg width="24" height="24" viewBox="840 6312 24 24" fill="none" xmlns="http://www.w3.org/2000/svg">
  <defs>
<filter xmlns="http://www.w3.org/2000/svg" id="filter0_d_3597_4069" x="479.7" y="1631.75" width="16.1285" height="19.9741" filterUnits="userSpaceOnUse" color-interpolation-filters="sRGB">
<feFlood flood-opacity="0" result="BackgroundImageFix" />
<feColorMatrix in="SourceAlpha" type="matrix" values="0 0 0 0 0 0 0 0 0 0 0 0 0 0 0 0 0 0 127 0" result="hardAlpha" />
<feOffset dy="1" />
<feGaussianBlur stdDeviation="0.5" />
<feColorMatrix type="matrix" values="0 0 0 0 0 0 0 0 0 0 0 0 0 0 0 0 0 0 0.2 0" />
<feBlend mode="normal" in2="BackgroundImageFix" result="effect1_dropShadow_3597_4069" />
<feBlend mode="normal" in="SourceGraphic" in2="effect1_dropShadow_3597_4069" result="shape" />
</filter>
<filter xmlns="http://www.w3.org/2000/svg" id="filter1_d_3597_4069" x="564" y="1637" width="24" height="24" filterUnits="userSpaceOnUse" color-interpolation-filters="sRGB">
<feFlood flood-opacity="0" result="BackgroundImageFix" />
<feColorMatrix in="SourceAlpha" type="matrix" values="0 0 0 0 0 0 0 0 0 0 0 0 0 0 0 0 0 0 127 0" result="hardAlpha" />
<feOffset dy="1" />
<feGaussianBlur stdDeviation="0.5" />
<feColorMatrix type="matrix" values="0 0 0 0 0 0 0 0 0 0 0 0 0 0 0 0 0 0 0.2 0" />
<feBlend mode="normal" in2="BackgroundImageFix" result="effect1_dropShadow_3597_4069" />
<feBlend mode="normal" in="SourceGraphic" in2="effect1_dropShadow_3597_4069" result="shape" />
</filter>
<filter xmlns="http://www.w3.org/2000/svg" id="filter2_d_3597_4069" x="645" y="1638" width="22" height="22" filterUnits="userSpaceOnUse" color-interpolation-filters="sRGB">
<feFlood flood-opacity="0" result="BackgroundImageFix" />
<feColorMatrix in="SourceAlpha" type="matrix" values="0 0 0 0 0 0 0 0 0 0 0 0 0 0 0 0 0 0 127 0" result="hardAlpha" />
<feOffset dy="1" />
<feGaussianBlur stdDeviation="0.5" />
<feColorMatrix type="matrix" values="0 0 0 0 0 0 0 0 0 0 0 0 0 0 0 0 0 0 0.2 0" />
<feBlend mode="normal" in2="BackgroundImageFix" result="effect1_dropShadow_3597_4069" />
<feBlend mode="normal" in="SourceGraphic" in2="effect1_dropShadow_3597_4069" result="shape" />
</filter>
<filter xmlns="http://www.w3.org/2000/svg" id="filter3_d_3597_4069" x="724.634" y="1637.24" width="22.434" height="24.379" filterUnits="userSpaceOnUse" color-interpolation-filters="sRGB">
<feFlood flood-opacity="0" result="BackgroundImageFix" />
<feColorMatrix in="SourceAlpha" type="matrix" values="0 0 0 0 0 0 0 0 0 0 0 0 0 0 0 0 0 0 127 0" result="hardAlpha" />
<feOffset dy="1" />
<feGaussianBlur stdDeviation="0.5" />
<feColorMatrix type="matrix" values="0 0 0 0 0 0 0 0 0 0 0 0 0 0 0 0 0 0 0.2 0" />
<feBlend mode="normal" in2="BackgroundImageFix" result="effect1_dropShadow_3597_4069" />
<feBlend mode="normal" in="SourceGraphic" in2="effect1_dropShadow_3597_4069" result="shape" />
</filter>
<filter xmlns="http://www.w3.org/2000/svg" id="filter4_d_3597_4069" x="799.419" y="1632.42" width="28.5812" height="28.5812" filterUnits="userSpaceOnUse" color-interpolation-filters="sRGB">
<feFlood flood-opacity="0" result="BackgroundImageFix" />
<feColorMatrix in="SourceAlpha" type="matrix" values="0 0 0 0 0 0 0 0 0 0 0 0 0 0 0 0 0 0 127 0" result="hardAlpha" />
<feOffset dy="1" />
<feGaussianBlur stdDeviation="0.5" />
<feColorMatrix type="matrix" values="0 0 0 0 0 0 0 0 0 0 0 0 0 0 0 0 0 0 0.2 0" />
<feBlend mode="normal" in2="BackgroundImageFix" result="effect1_dropShadow_3597_4069" />
<feBlend mode="normal" in="SourceGraphic" in2="effect1_dropShadow_3597_4069" result="shape" />
</filter>
<filter xmlns="http://www.w3.org/2000/svg" id="filter5_d_3597_4069" x="879.419" y="1632.42" width="26.7811" height="29.5812" filterUnits="userSpaceOnUse" color-interpolation-filters="sRGB">
<feFlood flood-opacity="0" result="BackgroundImageFix" />
<feColorMatrix in="SourceAlpha" type="matrix" values="0 0 0 0 0 0 0 0 0 0 0 0 0 0 0 0 0 0 127 0" result="hardAlpha" />
<feOffset dy="1" />
<feGaussianBlur stdDeviation="0.5" />
<feColorMatrix type="matrix" values="0 0 0 0 0 0 0 0 0 0 0 0 0 0 0 0 0 0 0.2 0" />
<feBlend mode="normal" in2="BackgroundImageFix" result="effect1_dropShadow_3597_4069" />
<feBlend mode="normal" in="SourceGraphic" in2="effect1_dropShadow_3597_4069" result="shape" />
</filter>
<filter xmlns="http://www.w3.org/2000/svg" id="filter6_d_3597_4069" x="960" y="1633" width="22" height="22" filterUnits="userSpaceOnUse" color-interpolation-filters="sRGB">
<feFlood flood-opacity="0" result="BackgroundImageFix" />
<feColorMatrix in="SourceAlpha" type="matrix" values="0 0 0 0 0 0 0 0 0 0 0 0 0 0 0 0 0 0 127 0" result="hardAlpha" />
<feOffset dy="1" />
<feGaussianBlur stdDeviation="0.5" />
<feColorMatrix type="matrix" values="0 0 0 0 0 0 0 0 0 0 0 0 0 0 0 0 0 0 0.2 0" />
<feBlend mode="normal" in2="BackgroundImageFix" result="effect1_dropShadow_3597_4069" />
<feBlend mode="normal" in="SourceGraphic" in2="effect1_dropShadow_3597_4069" result="shape" />
</filter>
<filter xmlns="http://www.w3.org/2000/svg" id="filter7_d_3597_4069" x="551.419" y="1712.42" width="18.7434" height="18.7434" filterUnits="userSpaceOnUse" color-interpolation-filters="sRGB">
<feFlood flood-opacity="0" result="BackgroundImageFix" />
<feColorMatrix in="SourceAlpha" type="matrix" values="0 0 0 0 0 0 0 0 0 0 0 0 0 0 0 0 0 0 127 0" result="hardAlpha" />
<feOffset dy="1" />
<feGaussianBlur stdDeviation="0.5" />
<feColorMatrix type="matrix" values="0 0 0 0 0 0 0 0 0 0 0 0 0 0 0 0 0 0 0.2 0" />
<feBlend mode="normal" in2="BackgroundImageFix" result="effect1_dropShadow_3597_4069" />
<feBlend mode="normal" in="SourceGraphic" in2="effect1_dropShadow_3597_4069" result="shape" />
</filter>
<filter xmlns="http://www.w3.org/2000/svg" id="filter8_d_3597_4069" x="641" y="1722" width="14" height="14" filterUnits="userSpaceOnUse" color-interpolation-filters="sRGB">
<feFlood flood-opacity="0" result="BackgroundImageFix" />
<feColorMatrix in="SourceAlpha" type="matrix" values="0 0 0 0 0 0 0 0 0 0 0 0 0 0 0 0 0 0 127 0" result="hardAlpha" />
<feOffset dy="1" />
<feGaussianBlur stdDeviation="0.5" />
<feColorMatrix type="matrix" values="0 0 0 0 0 0 0 0 0 0 0 0 0 0 0 0 0 0 0.2 0" />
<feBlend mode="normal" in2="BackgroundImageFix" result="effect1_dropShadow_3597_4069" />
<feBlend mode="normal" in="SourceGraphic" in2="effect1_dropShadow_3597_4069" result="shape" />
</filter>
<filter xmlns="http://www.w3.org/2000/svg" id="filter9_d_3597_4069" x="716.585" y="1718.74" width="22.3209" height="22.8601" filterUnits="userSpaceOnUse" color-interpolation-filters="sRGB">
<feFlood flood-opacity="0" result="BackgroundImageFix" />
<feColorMatrix in="SourceAlpha" type="matrix" values="0 0 0 0 0 0 0 0 0 0 0 0 0 0 0 0 0 0 127 0" result="hardAlpha" />
<feOffset dy="1" />
<feGaussianBlur stdDeviation="0.5" />
<feColorMatrix type="matrix" values="0 0 0 0 0 0 0 0 0 0 0 0 0 0 0 0 0 0 0.2 0" />
<feBlend mode="normal" in2="BackgroundImageFix" result="effect1_dropShadow_3597_4069" />
<feBlend mode="normal" in="SourceGraphic" in2="effect1_dropShadow_3597_4069" result="shape" />
</filter>
<filter xmlns="http://www.w3.org/2000/svg" id="filter10_d_3597_4069" x="797.906" y="1723.32" width="20.5729" height="18.4579" filterUnits="userSpaceOnUse" color-interpolation-filters="sRGB">
<feFlood flood-opacity="0" result="BackgroundImageFix" />
<feColorMatrix in="SourceAlpha" type="matrix" values="0 0 0 0 0 0 0 0 0 0 0 0 0 0 0 0 0 0 127 0" result="hardAlpha" />
<feOffset dy="1" />
<feGaussianBlur stdDeviation="0.5" />
<feColorMatrix type="matrix" values="0 0 0 0 0 0 0 0 0 0 0 0 0 0 0 0 0 0 0.2 0" />
<feBlend mode="normal" in2="BackgroundImageFix" result="effect1_dropShadow_3597_4069" />
<feBlend mode="normal" in="SourceGraphic" in2="effect1_dropShadow_3597_4069" result="shape" />
</filter>
<filter xmlns="http://www.w3.org/2000/svg" id="filter11_d_3597_4069" x="871.419" y="1712.42" width="28.5812" height="22.5812" filterUnits="userSpaceOnUse" color-interpolation-filters="sRGB">
<feFlood flood-opacity="0" result="BackgroundImageFix" />
<feColorMatrix in="SourceAlpha" type="matrix" values="0 0 0 0 0 0 0 0 0 0 0 0 0 0 0 0 0 0 127 0" result="hardAlpha" />
<feOffset dy="1" />
<feGaussianBlur stdDeviation="0.5" />
<feColorMatrix type="matrix" values="0 0 0 0 0 0 0 0 0 0 0 0 0 0 0 0 0 0 0.2 0" />
<feBlend mode="normal" in2="BackgroundImageFix" result="effect1_dropShadow_3597_4069" />
<feBlend mode="normal" in="SourceGraphic" in2="effect1_dropShadow_3597_4069" result="shape" />
</filter>
<filter xmlns="http://www.w3.org/2000/svg" id="filter12_d_3597_4069" x="951.419" y="1712.42" width="29.5811" height="30.5812" filterUnits="userSpaceOnUse" color-interpolation-filters="sRGB">
<feFlood flood-opacity="0" result="BackgroundImageFix" />
<feColorMatrix in="SourceAlpha" type="matrix" values="0 0 0 0 0 0 0 0 0 0 0 0 0 0 0 0 0 0 127 0" result="hardAlpha" />
<feOffset dy="1" />
<feGaussianBlur stdDeviation="0.5" />
<feColorMatrix type="matrix" values="0 0 0 0 0 0 0 0 0 0 0 0 0 0 0 0 0 0 0.2 0" />
<feBlend mode="normal" in2="BackgroundImageFix" result="effect1_dropShadow_3597_4069" />
<feBlend mode="normal" in="SourceGraphic" in2="effect1_dropShadow_3597_4069" result="shape" />
</filter>
<clipPath xmlns="http://www.w3.org/2000/svg" id="clip0_3597_4069">
<rect width="32" height="32" fill="white" transform="translate(128 2432)" />
</clipPath>
<clipPath xmlns="http://www.w3.org/2000/svg" id="clip1_3597_4069">
<rect width="24" height="24" fill="white" transform="translate(120 4008)" />
</clipPath>
<clipPath xmlns="http://www.w3.org/2000/svg" id="clip2_3597_4069">
<rect width="24" height="24" fill="white" transform="translate(624 4152)" />
</clipPath>
<clipPath xmlns="http://www.w3.org/2000/svg" id="clip3_3597_4069">
<rect width="24" height="24" fill="white" transform="translate(192 4368)" />
</clipPath>
<clipPath xmlns="http://www.w3.org/2000/svg" id="clip4_3597_4069">
<rect width="24" height="24" fill="white" transform="translate(408 4512)" />
</clipPath>
<clipPath xmlns="http://www.w3.org/2000/svg" id="clip5_3597_4069">
<rect width="24" height="24" fill="white" transform="translate(480 4656)" />
</clipPath>
<clipPath xmlns="http://www.w3.org/2000/svg" id="clip6_3597_4069">
<rect width="24" height="24" fill="white" transform="translate(624 4800)" />
</clipPath>
<clipPath xmlns="http://www.w3.org/2000/svg" id="clip7_3597_4069">
<rect width="24" height="24" fill="white" transform="translate(624 5016)" />
</clipPath>
<clipPath xmlns="http://www.w3.org/2000/svg" id="clip8_3597_4069">
<rect width="24" height="24" fill="white" transform="translate(840.004 7680)" />
</clipPath>

  </defs>
<path xmlns="http://www.w3.org/2000/svg" d="M861.703 6319H858.431V6313.29H861.703V6314.24H859.583V6315.55H861.559V6316.5H859.583V6318.04H861.703V6319Z" fill="#1F1F1F" />
<path xmlns="http://www.w3.org/2000/svg" d="M857.016 6316.98C857.016 6317.38 856.93 6317.74 856.76 6318.06C856.589 6318.37 856.33 6318.62 855.984 6318.81C855.637 6318.99 855.2 6319.08 854.672 6319.08C853.92 6319.08 853.346 6318.89 852.952 6318.5C852.562 6318.11 852.368 6317.6 852.368 6316.97V6313.29H853.52V6316.81C853.52 6317.28 853.618 6317.61 853.816 6317.82C854.013 6318.01 854.309 6318.11 854.704 6318.11C854.976 6318.11 855.197 6318.06 855.368 6317.97C855.538 6317.87 855.664 6317.73 855.744 6317.54C855.829 6317.34 855.872 6317.09 855.872 6316.8V6313.29H857.016V6316.98Z" fill="#1F1F1F" />
<path xmlns="http://www.w3.org/2000/svg" d="M848.814 6313.29C849.326 6313.29 849.747 6313.35 850.078 6313.48C850.408 6313.6 850.656 6313.79 850.822 6314.04C850.987 6314.29 851.07 6314.61 851.07 6314.99C851.07 6315.26 851.019 6315.49 850.918 6315.69C850.816 6315.88 850.683 6316.04 850.518 6316.18C850.358 6316.31 850.184 6316.42 849.998 6316.5L851.662 6319H850.374L849.014 6316.79H848.31V6319H847.158V6313.29H848.814ZM848.726 6314.24H848.31V6315.85H848.75C849.022 6315.85 849.243 6315.82 849.414 6315.76C849.584 6315.7 849.707 6315.6 849.782 6315.48C849.862 6315.35 849.902 6315.2 849.902 6315.02C849.902 6314.83 849.859 6314.68 849.774 6314.57C849.688 6314.46 849.558 6314.37 849.382 6314.32C849.211 6314.27 848.992 6314.24 848.726 6314.24Z" fill="#1F1F1F" />
<path xmlns="http://www.w3.org/2000/svg" d="M844.7 6319H843.548V6314.26H841.972V6313.29H846.276V6314.26H844.7V6319Z" fill="#1F1F1F" />
<path xmlns="http://www.w3.org/2000/svg" d="M855.353 6335V6329.29H856.505V6334.04H858.841V6335H855.353Z" fill="#1F1F1F" />
<path xmlns="http://www.w3.org/2000/svg" d="M854.148 6335H850.876V6329.29H854.148V6330.24H852.028V6331.55H854.004V6332.5H852.028V6334.04H854.148V6335Z" fill="#1F1F1F" />
<path xmlns="http://www.w3.org/2000/svg" d="M847.282 6329.29C847.794 6329.29 848.216 6329.35 848.546 6329.48C848.877 6329.6 849.125 6329.79 849.29 6330.04C849.456 6330.29 849.538 6330.61 849.538 6330.99C849.538 6331.26 849.488 6331.49 849.386 6331.69C849.285 6331.88 849.152 6332.04 848.986 6332.18C848.826 6332.31 848.653 6332.42 848.466 6332.5L850.13 6335H848.842L847.482 6332.79H846.778V6335H845.626V6329.29H847.282ZM847.194 6330.24H846.778V6331.85H847.218C847.49 6331.85 847.712 6331.82 847.882 6331.76C848.053 6331.7 848.176 6331.6 848.25 6331.48C848.33 6331.35 848.37 6331.2 848.37 6331.02C848.37 6330.83 848.328 6330.68 848.242 6330.57C848.157 6330.46 848.026 6330.37 847.85 6330.32C847.68 6330.27 847.461 6330.24 847.194 6330.24Z" fill="#1F1F1F" />
<path xmlns="http://www.w3.org/2000/svg" d="M859.538 6326.09L858.955 6323.91L841.569 6328.57L841.181 6327.12L858.567 6322.46L857.985 6320.29L862.625 6322.15L859.538 6326.09Z" fill="#1F1F1F" />

</svg>
