<svg width="24" height="24" viewBox="48 2856 24 24" fill="none" xmlns="http://www.w3.org/2000/svg">
  <defs>
<filter xmlns="http://www.w3.org/2000/svg" id="filter0_d_3597_4069" x="479.7" y="1631.75" width="16.1285" height="19.9741" filterUnits="userSpaceOnUse" color-interpolation-filters="sRGB">
<feFlood flood-opacity="0" result="BackgroundImageFix" />
<feColorMatrix in="SourceAlpha" type="matrix" values="0 0 0 0 0 0 0 0 0 0 0 0 0 0 0 0 0 0 127 0" result="hardAlpha" />
<feOffset dy="1" />
<feGaussianBlur stdDeviation="0.5" />
<feColorMatrix type="matrix" values="0 0 0 0 0 0 0 0 0 0 0 0 0 0 0 0 0 0 0.2 0" />
<feBlend mode="normal" in2="BackgroundImageFix" result="effect1_dropShadow_3597_4069" />
<feBlend mode="normal" in="SourceGraphic" in2="effect1_dropShadow_3597_4069" result="shape" />
</filter>
<filter xmlns="http://www.w3.org/2000/svg" id="filter1_d_3597_4069" x="564" y="1637" width="24" height="24" filterUnits="userSpaceOnUse" color-interpolation-filters="sRGB">
<feFlood flood-opacity="0" result="BackgroundImageFix" />
<feColorMatrix in="SourceAlpha" type="matrix" values="0 0 0 0 0 0 0 0 0 0 0 0 0 0 0 0 0 0 127 0" result="hardAlpha" />
<feOffset dy="1" />
<feGaussianBlur stdDeviation="0.5" />
<feColorMatrix type="matrix" values="0 0 0 0 0 0 0 0 0 0 0 0 0 0 0 0 0 0 0.2 0" />
<feBlend mode="normal" in2="BackgroundImageFix" result="effect1_dropShadow_3597_4069" />
<feBlend mode="normal" in="SourceGraphic" in2="effect1_dropShadow_3597_4069" result="shape" />
</filter>
<filter xmlns="http://www.w3.org/2000/svg" id="filter2_d_3597_4069" x="645" y="1638" width="22" height="22" filterUnits="userSpaceOnUse" color-interpolation-filters="sRGB">
<feFlood flood-opacity="0" result="BackgroundImageFix" />
<feColorMatrix in="SourceAlpha" type="matrix" values="0 0 0 0 0 0 0 0 0 0 0 0 0 0 0 0 0 0 127 0" result="hardAlpha" />
<feOffset dy="1" />
<feGaussianBlur stdDeviation="0.5" />
<feColorMatrix type="matrix" values="0 0 0 0 0 0 0 0 0 0 0 0 0 0 0 0 0 0 0.2 0" />
<feBlend mode="normal" in2="BackgroundImageFix" result="effect1_dropShadow_3597_4069" />
<feBlend mode="normal" in="SourceGraphic" in2="effect1_dropShadow_3597_4069" result="shape" />
</filter>
<filter xmlns="http://www.w3.org/2000/svg" id="filter3_d_3597_4069" x="724.634" y="1637.24" width="22.434" height="24.379" filterUnits="userSpaceOnUse" color-interpolation-filters="sRGB">
<feFlood flood-opacity="0" result="BackgroundImageFix" />
<feColorMatrix in="SourceAlpha" type="matrix" values="0 0 0 0 0 0 0 0 0 0 0 0 0 0 0 0 0 0 127 0" result="hardAlpha" />
<feOffset dy="1" />
<feGaussianBlur stdDeviation="0.5" />
<feColorMatrix type="matrix" values="0 0 0 0 0 0 0 0 0 0 0 0 0 0 0 0 0 0 0.2 0" />
<feBlend mode="normal" in2="BackgroundImageFix" result="effect1_dropShadow_3597_4069" />
<feBlend mode="normal" in="SourceGraphic" in2="effect1_dropShadow_3597_4069" result="shape" />
</filter>
<filter xmlns="http://www.w3.org/2000/svg" id="filter4_d_3597_4069" x="799.419" y="1632.42" width="28.5812" height="28.5812" filterUnits="userSpaceOnUse" color-interpolation-filters="sRGB">
<feFlood flood-opacity="0" result="BackgroundImageFix" />
<feColorMatrix in="SourceAlpha" type="matrix" values="0 0 0 0 0 0 0 0 0 0 0 0 0 0 0 0 0 0 127 0" result="hardAlpha" />
<feOffset dy="1" />
<feGaussianBlur stdDeviation="0.5" />
<feColorMatrix type="matrix" values="0 0 0 0 0 0 0 0 0 0 0 0 0 0 0 0 0 0 0.2 0" />
<feBlend mode="normal" in2="BackgroundImageFix" result="effect1_dropShadow_3597_4069" />
<feBlend mode="normal" in="SourceGraphic" in2="effect1_dropShadow_3597_4069" result="shape" />
</filter>
<filter xmlns="http://www.w3.org/2000/svg" id="filter5_d_3597_4069" x="879.419" y="1632.42" width="26.7811" height="29.5812" filterUnits="userSpaceOnUse" color-interpolation-filters="sRGB">
<feFlood flood-opacity="0" result="BackgroundImageFix" />
<feColorMatrix in="SourceAlpha" type="matrix" values="0 0 0 0 0 0 0 0 0 0 0 0 0 0 0 0 0 0 127 0" result="hardAlpha" />
<feOffset dy="1" />
<feGaussianBlur stdDeviation="0.5" />
<feColorMatrix type="matrix" values="0 0 0 0 0 0 0 0 0 0 0 0 0 0 0 0 0 0 0.2 0" />
<feBlend mode="normal" in2="BackgroundImageFix" result="effect1_dropShadow_3597_4069" />
<feBlend mode="normal" in="SourceGraphic" in2="effect1_dropShadow_3597_4069" result="shape" />
</filter>
<filter xmlns="http://www.w3.org/2000/svg" id="filter6_d_3597_4069" x="960" y="1633" width="22" height="22" filterUnits="userSpaceOnUse" color-interpolation-filters="sRGB">
<feFlood flood-opacity="0" result="BackgroundImageFix" />
<feColorMatrix in="SourceAlpha" type="matrix" values="0 0 0 0 0 0 0 0 0 0 0 0 0 0 0 0 0 0 127 0" result="hardAlpha" />
<feOffset dy="1" />
<feGaussianBlur stdDeviation="0.5" />
<feColorMatrix type="matrix" values="0 0 0 0 0 0 0 0 0 0 0 0 0 0 0 0 0 0 0.2 0" />
<feBlend mode="normal" in2="BackgroundImageFix" result="effect1_dropShadow_3597_4069" />
<feBlend mode="normal" in="SourceGraphic" in2="effect1_dropShadow_3597_4069" result="shape" />
</filter>
<filter xmlns="http://www.w3.org/2000/svg" id="filter7_d_3597_4069" x="551.419" y="1712.42" width="18.7434" height="18.7434" filterUnits="userSpaceOnUse" color-interpolation-filters="sRGB">
<feFlood flood-opacity="0" result="BackgroundImageFix" />
<feColorMatrix in="SourceAlpha" type="matrix" values="0 0 0 0 0 0 0 0 0 0 0 0 0 0 0 0 0 0 127 0" result="hardAlpha" />
<feOffset dy="1" />
<feGaussianBlur stdDeviation="0.5" />
<feColorMatrix type="matrix" values="0 0 0 0 0 0 0 0 0 0 0 0 0 0 0 0 0 0 0.2 0" />
<feBlend mode="normal" in2="BackgroundImageFix" result="effect1_dropShadow_3597_4069" />
<feBlend mode="normal" in="SourceGraphic" in2="effect1_dropShadow_3597_4069" result="shape" />
</filter>
<filter xmlns="http://www.w3.org/2000/svg" id="filter8_d_3597_4069" x="641" y="1722" width="14" height="14" filterUnits="userSpaceOnUse" color-interpolation-filters="sRGB">
<feFlood flood-opacity="0" result="BackgroundImageFix" />
<feColorMatrix in="SourceAlpha" type="matrix" values="0 0 0 0 0 0 0 0 0 0 0 0 0 0 0 0 0 0 127 0" result="hardAlpha" />
<feOffset dy="1" />
<feGaussianBlur stdDeviation="0.5" />
<feColorMatrix type="matrix" values="0 0 0 0 0 0 0 0 0 0 0 0 0 0 0 0 0 0 0.2 0" />
<feBlend mode="normal" in2="BackgroundImageFix" result="effect1_dropShadow_3597_4069" />
<feBlend mode="normal" in="SourceGraphic" in2="effect1_dropShadow_3597_4069" result="shape" />
</filter>
<filter xmlns="http://www.w3.org/2000/svg" id="filter9_d_3597_4069" x="716.585" y="1718.74" width="22.3209" height="22.8601" filterUnits="userSpaceOnUse" color-interpolation-filters="sRGB">
<feFlood flood-opacity="0" result="BackgroundImageFix" />
<feColorMatrix in="SourceAlpha" type="matrix" values="0 0 0 0 0 0 0 0 0 0 0 0 0 0 0 0 0 0 127 0" result="hardAlpha" />
<feOffset dy="1" />
<feGaussianBlur stdDeviation="0.5" />
<feColorMatrix type="matrix" values="0 0 0 0 0 0 0 0 0 0 0 0 0 0 0 0 0 0 0.2 0" />
<feBlend mode="normal" in2="BackgroundImageFix" result="effect1_dropShadow_3597_4069" />
<feBlend mode="normal" in="SourceGraphic" in2="effect1_dropShadow_3597_4069" result="shape" />
</filter>
<filter xmlns="http://www.w3.org/2000/svg" id="filter10_d_3597_4069" x="797.906" y="1723.32" width="20.5729" height="18.4579" filterUnits="userSpaceOnUse" color-interpolation-filters="sRGB">
<feFlood flood-opacity="0" result="BackgroundImageFix" />
<feColorMatrix in="SourceAlpha" type="matrix" values="0 0 0 0 0 0 0 0 0 0 0 0 0 0 0 0 0 0 127 0" result="hardAlpha" />
<feOffset dy="1" />
<feGaussianBlur stdDeviation="0.5" />
<feColorMatrix type="matrix" values="0 0 0 0 0 0 0 0 0 0 0 0 0 0 0 0 0 0 0.2 0" />
<feBlend mode="normal" in2="BackgroundImageFix" result="effect1_dropShadow_3597_4069" />
<feBlend mode="normal" in="SourceGraphic" in2="effect1_dropShadow_3597_4069" result="shape" />
</filter>
<filter xmlns="http://www.w3.org/2000/svg" id="filter11_d_3597_4069" x="871.419" y="1712.42" width="28.5812" height="22.5812" filterUnits="userSpaceOnUse" color-interpolation-filters="sRGB">
<feFlood flood-opacity="0" result="BackgroundImageFix" />
<feColorMatrix in="SourceAlpha" type="matrix" values="0 0 0 0 0 0 0 0 0 0 0 0 0 0 0 0 0 0 127 0" result="hardAlpha" />
<feOffset dy="1" />
<feGaussianBlur stdDeviation="0.5" />
<feColorMatrix type="matrix" values="0 0 0 0 0 0 0 0 0 0 0 0 0 0 0 0 0 0 0.2 0" />
<feBlend mode="normal" in2="BackgroundImageFix" result="effect1_dropShadow_3597_4069" />
<feBlend mode="normal" in="SourceGraphic" in2="effect1_dropShadow_3597_4069" result="shape" />
</filter>
<filter xmlns="http://www.w3.org/2000/svg" id="filter12_d_3597_4069" x="951.419" y="1712.42" width="29.5811" height="30.5812" filterUnits="userSpaceOnUse" color-interpolation-filters="sRGB">
<feFlood flood-opacity="0" result="BackgroundImageFix" />
<feColorMatrix in="SourceAlpha" type="matrix" values="0 0 0 0 0 0 0 0 0 0 0 0 0 0 0 0 0 0 127 0" result="hardAlpha" />
<feOffset dy="1" />
<feGaussianBlur stdDeviation="0.5" />
<feColorMatrix type="matrix" values="0 0 0 0 0 0 0 0 0 0 0 0 0 0 0 0 0 0 0.2 0" />
<feBlend mode="normal" in2="BackgroundImageFix" result="effect1_dropShadow_3597_4069" />
<feBlend mode="normal" in="SourceGraphic" in2="effect1_dropShadow_3597_4069" result="shape" />
</filter>
<clipPath xmlns="http://www.w3.org/2000/svg" id="clip0_3597_4069">
<rect width="32" height="32" fill="white" transform="translate(128 2432)" />
</clipPath>
<clipPath xmlns="http://www.w3.org/2000/svg" id="clip1_3597_4069">
<rect width="24" height="24" fill="white" transform="translate(120 4008)" />
</clipPath>
<clipPath xmlns="http://www.w3.org/2000/svg" id="clip2_3597_4069">
<rect width="24" height="24" fill="white" transform="translate(624 4152)" />
</clipPath>
<clipPath xmlns="http://www.w3.org/2000/svg" id="clip3_3597_4069">
<rect width="24" height="24" fill="white" transform="translate(192 4368)" />
</clipPath>
<clipPath xmlns="http://www.w3.org/2000/svg" id="clip4_3597_4069">
<rect width="24" height="24" fill="white" transform="translate(408 4512)" />
</clipPath>
<clipPath xmlns="http://www.w3.org/2000/svg" id="clip5_3597_4069">
<rect width="24" height="24" fill="white" transform="translate(480 4656)" />
</clipPath>
<clipPath xmlns="http://www.w3.org/2000/svg" id="clip6_3597_4069">
<rect width="24" height="24" fill="white" transform="translate(624 4800)" />
</clipPath>
<clipPath xmlns="http://www.w3.org/2000/svg" id="clip7_3597_4069">
<rect width="24" height="24" fill="white" transform="translate(624 5016)" />
</clipPath>
<clipPath xmlns="http://www.w3.org/2000/svg" id="clip8_3597_4069">
<rect width="24" height="24" fill="white" transform="translate(840.004 7680)" />
</clipPath>

  </defs>
<path xmlns="http://www.w3.org/2000/svg" d="M50.6667 2859.9C50.3479 2859.7 50.2386 2859.24 50.4227 2858.89L50.8454 2858.07H50C49.6319 2858.07 49.3334 2857.74 49.3334 2857.33C49.3334 2856.92 49.6319 2856.59 50 2856.59H50.8454L50.4227 2855.78C50.2386 2855.42 50.3479 2854.97 50.6667 2854.77C50.9856 2854.56 51.3933 2854.68 51.5774 2855.04L52.0001 2855.85L52.4227 2855.04C52.6068 2854.68 53.0146 2854.56 53.3334 2854.77C53.6523 2854.97 53.7615 2855.42 53.5774 2855.78L53.1548 2856.59H54C54.3682 2856.59 54.6667 2856.92 54.6667 2857.33C54.6667 2857.74 54.3682 2858.07 54 2858.07H53.1548L53.5774 2858.89C53.7615 2859.24 53.6523 2859.7 53.3334 2859.9C53.0146 2860.11 52.6068 2859.98 52.4227 2859.63L52.0001 2858.82L51.5774 2859.63C51.3933 2859.98 50.9856 2860.11 50.6667 2859.9Z" fill="#1D9DA1" />
<path xmlns="http://www.w3.org/2000/svg" d="M63.3334 2859.9C63.0146 2859.7 62.9053 2859.24 63.0894 2858.89L63.512 2858.07H62.6667C62.2985 2858.07 62 2857.74 62 2857.33C62 2856.92 62.2985 2856.59 62.6667 2856.59H63.512L63.0894 2855.78C62.9053 2855.42 63.0146 2854.97 63.3334 2854.77C63.6523 2854.56 64.06 2854.68 64.2441 2855.04L64.6667 2855.85L65.0894 2855.04C65.2735 2854.68 65.6812 2854.56 66.0001 2854.77C66.3189 2854.97 66.4282 2855.42 66.2441 2855.78L65.8215 2856.59H66.6667C67.0349 2856.59 67.3334 2856.92 67.3334 2857.33C67.3334 2857.74 67.0349 2858.07 66.6667 2858.07H65.8214L66.2441 2858.89C66.4282 2859.24 66.3189 2859.7 66.0001 2859.9C65.6812 2860.11 65.2735 2859.98 65.0894 2859.63L64.6667 2858.82L64.2441 2859.63C64.06 2859.98 63.6523 2860.11 63.3334 2859.9Z" fill="#1D9DA1" />
<path xmlns="http://www.w3.org/2000/svg" d="M74.6667 2859.9C74.3479 2859.7 74.2386 2859.24 74.4227 2858.89L74.8454 2858.07H74C73.6319 2858.07 73.3334 2857.74 73.3334 2857.33C73.3334 2856.92 73.6319 2856.59 74 2856.59H74.8454L74.4227 2855.78C74.2386 2855.42 74.3479 2854.97 74.6667 2854.77C74.9856 2854.56 75.3933 2854.68 75.5774 2855.04L76.0001 2855.85L76.4227 2855.04C76.6068 2854.68 77.0146 2854.56 77.3334 2854.77C77.6523 2854.97 77.7615 2855.42 77.5774 2855.78L77.1548 2856.59H78C78.3682 2856.59 78.6667 2856.92 78.6667 2857.33C78.6667 2857.74 78.3682 2858.07 78 2858.07H77.1548L77.5774 2858.89C77.7615 2859.24 77.6523 2859.7 77.3334 2859.9C77.0146 2860.11 76.6068 2859.98 76.4227 2859.63L76.0001 2858.82L75.5774 2859.63C75.3933 2859.98 74.9856 2860.11 74.6667 2859.9Z" fill="#1D9DA1" />
<path xmlns="http://www.w3.org/2000/svg" d="M69.3334 2862.57C69.0146 2862.36 68.9053 2861.91 69.0894 2861.55L69.5121 2860.74H68.6667C68.2985 2860.74 68 2860.41 68 2860C68 2859.59 68.2985 2859.26 68.6667 2859.26H69.512L69.0894 2858.45C68.9053 2858.09 69.0146 2857.64 69.3334 2857.43C69.6523 2857.23 70.06 2857.35 70.2441 2857.7L70.6667 2858.52L71.0894 2857.7C71.2735 2857.35 71.6812 2857.23 72.0001 2857.43C72.3189 2857.64 72.4282 2858.09 72.2441 2858.45L71.8215 2859.26H72.6667C73.0349 2859.26 73.3334 2859.59 73.3334 2860C73.3334 2860.41 73.0349 2860.74 72.6667 2860.74H71.8214L72.2441 2861.55C72.4282 2861.91 72.3189 2862.36 72.0001 2862.57C71.6812 2862.77 71.2735 2862.65 71.0894 2862.3L70.6667 2861.48L70.2441 2862.3C70.06 2862.65 69.6523 2862.77 69.3334 2862.57Z" fill="#1D9DA1" />
<path xmlns="http://www.w3.org/2000/svg" d="M57.3334 2862.57C57.0146 2862.36 56.9053 2861.91 57.0894 2861.55L57.512 2860.74H56.6667C56.2985 2860.74 56 2860.41 56 2860C56 2859.59 56.2985 2859.26 56.6667 2859.26H57.512L57.0894 2858.45C56.9053 2858.09 57.0146 2857.64 57.3334 2857.43C57.6523 2857.23 58.06 2857.35 58.2441 2857.7L58.6667 2858.52L59.0894 2857.7C59.2735 2857.35 59.6812 2857.23 60.0001 2857.43C60.3189 2857.64 60.4282 2858.09 60.2441 2858.45L59.8215 2859.26H60.6667C61.0349 2859.26 61.3334 2859.59 61.3334 2860C61.3334 2860.41 61.0349 2860.74 60.6667 2860.74H59.8214L60.2441 2861.55C60.4282 2861.91 60.3189 2862.36 60.0001 2862.57C59.6812 2862.77 59.2735 2862.65 59.0894 2862.3L58.6667 2861.48L58.2441 2862.3C58.06 2862.65 57.6523 2862.77 57.3334 2862.57Z" fill="#1D9DA1" />
<path xmlns="http://www.w3.org/2000/svg" fill-rule="evenodd" clip-rule="evenodd" d="M65.4966 2925.49L66.5125 2919.33L62.6667 2927.13L65.2427 2928.33L63.5737 2935.33L68 2926.69L65.4966 2925.49Z" fill="#1F1F1F" />
<path xmlns="http://www.w3.org/2000/svg" d="M60.4614 2919.12C61.5609 2916.79 63.7936 2915.33 66.2393 2915.33C69.3737 2915.33 72.1293 2917.79 72.6555 2921.11L72.7566 2921.75L73.3793 2921.92C74.8572 2922.32 76 2923.8 76 2925.58C76 2927.7 74.363 2929.33 72.4824 2929.33H68.1457L67.1211 2931.33H72.4824C75.5587 2931.33 78 2928.71 78 2925.58C78 2923.19 76.597 2921.05 74.5148 2920.2C73.6239 2916.29 70.2431 2913.33 66.2393 2913.33C63.2594 2913.33 60.5728 2914.95 59.0544 2917.51C58.8432 2917.47 58.6339 2917.46 58.4275 2917.46C56.9365 2917.46 55.634 2918.26 54.922 2919.49C53.3821 2919.51 51.9563 2920.16 50.9112 2921.31C49.8991 2922.42 49.3334 2923.86 49.3334 2925.38V2925.45L49.3336 2925.47C49.3703 2927.06 49.9582 2928.54 51.0613 2929.64C52.0961 2930.73 53.5146 2931.33 55.0079 2931.33H63.1567L63.6336 2929.33H55.0079C54.06 2929.33 53.1623 2928.95 52.504 2928.25L52.4917 2928.24L52.479 2928.22C51.773 2927.53 51.3618 2926.56 51.3334 2925.43V2925.38C51.3334 2924.37 51.7087 2923.41 52.3906 2922.66C53.083 2921.9 54.0082 2921.49 55.0079 2921.49C55.2022 2921.49 55.2766 2921.49 55.3672 2921.51L56.1991 2921.65L56.483 2920.86C56.786 2920.01 57.5495 2919.46 58.4275 2919.46C58.6813 2919.46 58.9179 2919.5 59.1528 2919.61L60.0452 2920L60.4614 2919.12Z" fill="#1F1F1F" />

</svg>
