<svg width="24" height="24" viewBox="120 2856 24 24" fill="none" xmlns="http://www.w3.org/2000/svg">
  <defs>
<filter xmlns="http://www.w3.org/2000/svg" id="filter0_d_3597_4069" x="479.7" y="1631.75" width="16.1285" height="19.9741" filterUnits="userSpaceOnUse" color-interpolation-filters="sRGB">
<feFlood flood-opacity="0" result="BackgroundImageFix" />
<feColorMatrix in="SourceAlpha" type="matrix" values="0 0 0 0 0 0 0 0 0 0 0 0 0 0 0 0 0 0 127 0" result="hardAlpha" />
<feOffset dy="1" />
<feGaussianBlur stdDeviation="0.5" />
<feColorMatrix type="matrix" values="0 0 0 0 0 0 0 0 0 0 0 0 0 0 0 0 0 0 0.2 0" />
<feBlend mode="normal" in2="BackgroundImageFix" result="effect1_dropShadow_3597_4069" />
<feBlend mode="normal" in="SourceGraphic" in2="effect1_dropShadow_3597_4069" result="shape" />
</filter>
<filter xmlns="http://www.w3.org/2000/svg" id="filter1_d_3597_4069" x="564" y="1637" width="24" height="24" filterUnits="userSpaceOnUse" color-interpolation-filters="sRGB">
<feFlood flood-opacity="0" result="BackgroundImageFix" />
<feColorMatrix in="SourceAlpha" type="matrix" values="0 0 0 0 0 0 0 0 0 0 0 0 0 0 0 0 0 0 127 0" result="hardAlpha" />
<feOffset dy="1" />
<feGaussianBlur stdDeviation="0.5" />
<feColorMatrix type="matrix" values="0 0 0 0 0 0 0 0 0 0 0 0 0 0 0 0 0 0 0.2 0" />
<feBlend mode="normal" in2="BackgroundImageFix" result="effect1_dropShadow_3597_4069" />
<feBlend mode="normal" in="SourceGraphic" in2="effect1_dropShadow_3597_4069" result="shape" />
</filter>
<filter xmlns="http://www.w3.org/2000/svg" id="filter2_d_3597_4069" x="645" y="1638" width="22" height="22" filterUnits="userSpaceOnUse" color-interpolation-filters="sRGB">
<feFlood flood-opacity="0" result="BackgroundImageFix" />
<feColorMatrix in="SourceAlpha" type="matrix" values="0 0 0 0 0 0 0 0 0 0 0 0 0 0 0 0 0 0 127 0" result="hardAlpha" />
<feOffset dy="1" />
<feGaussianBlur stdDeviation="0.5" />
<feColorMatrix type="matrix" values="0 0 0 0 0 0 0 0 0 0 0 0 0 0 0 0 0 0 0.2 0" />
<feBlend mode="normal" in2="BackgroundImageFix" result="effect1_dropShadow_3597_4069" />
<feBlend mode="normal" in="SourceGraphic" in2="effect1_dropShadow_3597_4069" result="shape" />
</filter>
<filter xmlns="http://www.w3.org/2000/svg" id="filter3_d_3597_4069" x="724.634" y="1637.24" width="22.434" height="24.379" filterUnits="userSpaceOnUse" color-interpolation-filters="sRGB">
<feFlood flood-opacity="0" result="BackgroundImageFix" />
<feColorMatrix in="SourceAlpha" type="matrix" values="0 0 0 0 0 0 0 0 0 0 0 0 0 0 0 0 0 0 127 0" result="hardAlpha" />
<feOffset dy="1" />
<feGaussianBlur stdDeviation="0.5" />
<feColorMatrix type="matrix" values="0 0 0 0 0 0 0 0 0 0 0 0 0 0 0 0 0 0 0.2 0" />
<feBlend mode="normal" in2="BackgroundImageFix" result="effect1_dropShadow_3597_4069" />
<feBlend mode="normal" in="SourceGraphic" in2="effect1_dropShadow_3597_4069" result="shape" />
</filter>
<filter xmlns="http://www.w3.org/2000/svg" id="filter4_d_3597_4069" x="799.419" y="1632.42" width="28.5812" height="28.5812" filterUnits="userSpaceOnUse" color-interpolation-filters="sRGB">
<feFlood flood-opacity="0" result="BackgroundImageFix" />
<feColorMatrix in="SourceAlpha" type="matrix" values="0 0 0 0 0 0 0 0 0 0 0 0 0 0 0 0 0 0 127 0" result="hardAlpha" />
<feOffset dy="1" />
<feGaussianBlur stdDeviation="0.5" />
<feColorMatrix type="matrix" values="0 0 0 0 0 0 0 0 0 0 0 0 0 0 0 0 0 0 0.2 0" />
<feBlend mode="normal" in2="BackgroundImageFix" result="effect1_dropShadow_3597_4069" />
<feBlend mode="normal" in="SourceGraphic" in2="effect1_dropShadow_3597_4069" result="shape" />
</filter>
<filter xmlns="http://www.w3.org/2000/svg" id="filter5_d_3597_4069" x="879.419" y="1632.42" width="26.7811" height="29.5812" filterUnits="userSpaceOnUse" color-interpolation-filters="sRGB">
<feFlood flood-opacity="0" result="BackgroundImageFix" />
<feColorMatrix in="SourceAlpha" type="matrix" values="0 0 0 0 0 0 0 0 0 0 0 0 0 0 0 0 0 0 127 0" result="hardAlpha" />
<feOffset dy="1" />
<feGaussianBlur stdDeviation="0.5" />
<feColorMatrix type="matrix" values="0 0 0 0 0 0 0 0 0 0 0 0 0 0 0 0 0 0 0.2 0" />
<feBlend mode="normal" in2="BackgroundImageFix" result="effect1_dropShadow_3597_4069" />
<feBlend mode="normal" in="SourceGraphic" in2="effect1_dropShadow_3597_4069" result="shape" />
</filter>
<filter xmlns="http://www.w3.org/2000/svg" id="filter6_d_3597_4069" x="960" y="1633" width="22" height="22" filterUnits="userSpaceOnUse" color-interpolation-filters="sRGB">
<feFlood flood-opacity="0" result="BackgroundImageFix" />
<feColorMatrix in="SourceAlpha" type="matrix" values="0 0 0 0 0 0 0 0 0 0 0 0 0 0 0 0 0 0 127 0" result="hardAlpha" />
<feOffset dy="1" />
<feGaussianBlur stdDeviation="0.5" />
<feColorMatrix type="matrix" values="0 0 0 0 0 0 0 0 0 0 0 0 0 0 0 0 0 0 0.2 0" />
<feBlend mode="normal" in2="BackgroundImageFix" result="effect1_dropShadow_3597_4069" />
<feBlend mode="normal" in="SourceGraphic" in2="effect1_dropShadow_3597_4069" result="shape" />
</filter>
<filter xmlns="http://www.w3.org/2000/svg" id="filter7_d_3597_4069" x="551.419" y="1712.42" width="18.7434" height="18.7434" filterUnits="userSpaceOnUse" color-interpolation-filters="sRGB">
<feFlood flood-opacity="0" result="BackgroundImageFix" />
<feColorMatrix in="SourceAlpha" type="matrix" values="0 0 0 0 0 0 0 0 0 0 0 0 0 0 0 0 0 0 127 0" result="hardAlpha" />
<feOffset dy="1" />
<feGaussianBlur stdDeviation="0.5" />
<feColorMatrix type="matrix" values="0 0 0 0 0 0 0 0 0 0 0 0 0 0 0 0 0 0 0.2 0" />
<feBlend mode="normal" in2="BackgroundImageFix" result="effect1_dropShadow_3597_4069" />
<feBlend mode="normal" in="SourceGraphic" in2="effect1_dropShadow_3597_4069" result="shape" />
</filter>
<filter xmlns="http://www.w3.org/2000/svg" id="filter8_d_3597_4069" x="641" y="1722" width="14" height="14" filterUnits="userSpaceOnUse" color-interpolation-filters="sRGB">
<feFlood flood-opacity="0" result="BackgroundImageFix" />
<feColorMatrix in="SourceAlpha" type="matrix" values="0 0 0 0 0 0 0 0 0 0 0 0 0 0 0 0 0 0 127 0" result="hardAlpha" />
<feOffset dy="1" />
<feGaussianBlur stdDeviation="0.5" />
<feColorMatrix type="matrix" values="0 0 0 0 0 0 0 0 0 0 0 0 0 0 0 0 0 0 0.2 0" />
<feBlend mode="normal" in2="BackgroundImageFix" result="effect1_dropShadow_3597_4069" />
<feBlend mode="normal" in="SourceGraphic" in2="effect1_dropShadow_3597_4069" result="shape" />
</filter>
<filter xmlns="http://www.w3.org/2000/svg" id="filter9_d_3597_4069" x="716.585" y="1718.74" width="22.3209" height="22.8601" filterUnits="userSpaceOnUse" color-interpolation-filters="sRGB">
<feFlood flood-opacity="0" result="BackgroundImageFix" />
<feColorMatrix in="SourceAlpha" type="matrix" values="0 0 0 0 0 0 0 0 0 0 0 0 0 0 0 0 0 0 127 0" result="hardAlpha" />
<feOffset dy="1" />
<feGaussianBlur stdDeviation="0.5" />
<feColorMatrix type="matrix" values="0 0 0 0 0 0 0 0 0 0 0 0 0 0 0 0 0 0 0.2 0" />
<feBlend mode="normal" in2="BackgroundImageFix" result="effect1_dropShadow_3597_4069" />
<feBlend mode="normal" in="SourceGraphic" in2="effect1_dropShadow_3597_4069" result="shape" />
</filter>
<filter xmlns="http://www.w3.org/2000/svg" id="filter10_d_3597_4069" x="797.906" y="1723.32" width="20.5729" height="18.4579" filterUnits="userSpaceOnUse" color-interpolation-filters="sRGB">
<feFlood flood-opacity="0" result="BackgroundImageFix" />
<feColorMatrix in="SourceAlpha" type="matrix" values="0 0 0 0 0 0 0 0 0 0 0 0 0 0 0 0 0 0 127 0" result="hardAlpha" />
<feOffset dy="1" />
<feGaussianBlur stdDeviation="0.5" />
<feColorMatrix type="matrix" values="0 0 0 0 0 0 0 0 0 0 0 0 0 0 0 0 0 0 0.2 0" />
<feBlend mode="normal" in2="BackgroundImageFix" result="effect1_dropShadow_3597_4069" />
<feBlend mode="normal" in="SourceGraphic" in2="effect1_dropShadow_3597_4069" result="shape" />
</filter>
<filter xmlns="http://www.w3.org/2000/svg" id="filter11_d_3597_4069" x="871.419" y="1712.42" width="28.5812" height="22.5812" filterUnits="userSpaceOnUse" color-interpolation-filters="sRGB">
<feFlood flood-opacity="0" result="BackgroundImageFix" />
<feColorMatrix in="SourceAlpha" type="matrix" values="0 0 0 0 0 0 0 0 0 0 0 0 0 0 0 0 0 0 127 0" result="hardAlpha" />
<feOffset dy="1" />
<feGaussianBlur stdDeviation="0.5" />
<feColorMatrix type="matrix" values="0 0 0 0 0 0 0 0 0 0 0 0 0 0 0 0 0 0 0.2 0" />
<feBlend mode="normal" in2="BackgroundImageFix" result="effect1_dropShadow_3597_4069" />
<feBlend mode="normal" in="SourceGraphic" in2="effect1_dropShadow_3597_4069" result="shape" />
</filter>
<filter xmlns="http://www.w3.org/2000/svg" id="filter12_d_3597_4069" x="951.419" y="1712.42" width="29.5811" height="30.5812" filterUnits="userSpaceOnUse" color-interpolation-filters="sRGB">
<feFlood flood-opacity="0" result="BackgroundImageFix" />
<feColorMatrix in="SourceAlpha" type="matrix" values="0 0 0 0 0 0 0 0 0 0 0 0 0 0 0 0 0 0 127 0" result="hardAlpha" />
<feOffset dy="1" />
<feGaussianBlur stdDeviation="0.5" />
<feColorMatrix type="matrix" values="0 0 0 0 0 0 0 0 0 0 0 0 0 0 0 0 0 0 0.2 0" />
<feBlend mode="normal" in2="BackgroundImageFix" result="effect1_dropShadow_3597_4069" />
<feBlend mode="normal" in="SourceGraphic" in2="effect1_dropShadow_3597_4069" result="shape" />
</filter>
<clipPath xmlns="http://www.w3.org/2000/svg" id="clip0_3597_4069">
<rect width="32" height="32" fill="white" transform="translate(128 2432)" />
</clipPath>
<clipPath xmlns="http://www.w3.org/2000/svg" id="clip1_3597_4069">
<rect width="24" height="24" fill="white" transform="translate(120 4008)" />
</clipPath>
<clipPath xmlns="http://www.w3.org/2000/svg" id="clip2_3597_4069">
<rect width="24" height="24" fill="white" transform="translate(624 4152)" />
</clipPath>
<clipPath xmlns="http://www.w3.org/2000/svg" id="clip3_3597_4069">
<rect width="24" height="24" fill="white" transform="translate(192 4368)" />
</clipPath>
<clipPath xmlns="http://www.w3.org/2000/svg" id="clip4_3597_4069">
<rect width="24" height="24" fill="white" transform="translate(408 4512)" />
</clipPath>
<clipPath xmlns="http://www.w3.org/2000/svg" id="clip5_3597_4069">
<rect width="24" height="24" fill="white" transform="translate(480 4656)" />
</clipPath>
<clipPath xmlns="http://www.w3.org/2000/svg" id="clip6_3597_4069">
<rect width="24" height="24" fill="white" transform="translate(624 4800)" />
</clipPath>
<clipPath xmlns="http://www.w3.org/2000/svg" id="clip7_3597_4069">
<rect width="24" height="24" fill="white" transform="translate(624 5016)" />
</clipPath>
<clipPath xmlns="http://www.w3.org/2000/svg" id="clip8_3597_4069">
<rect width="24" height="24" fill="white" transform="translate(840.004 7680)" />
</clipPath>

  </defs>
<path xmlns="http://www.w3.org/2000/svg" d="M132 2857.23C131.681 2857.03 131.572 2856.58 131.756 2856.22L132.179 2855.41H131.333C130.965 2855.41 130.667 2855.08 130.667 2854.67C130.667 2854.26 130.965 2853.93 131.333 2853.93H132.179L131.756 2853.11C131.572 2852.76 131.681 2852.3 132 2852.1C132.319 2851.89 132.727 2852.02 132.911 2852.37L133.333 2853.18L133.756 2852.37C133.94 2852.02 134.348 2851.89 134.667 2852.1C134.986 2852.3 135.095 2852.76 134.911 2853.11L134.488 2853.93H135.333C135.701 2853.93 136 2854.26 136 2854.67C136 2855.08 135.701 2855.41 135.333 2855.41H134.488L134.911 2856.22C135.095 2856.58 134.986 2857.03 134.667 2857.23C134.348 2857.44 133.94 2857.32 133.756 2856.96L133.333 2856.15L132.911 2856.96C132.727 2857.32 132.319 2857.44 132 2857.23Z" fill="#1D9DA1" />
<path xmlns="http://www.w3.org/2000/svg" d="M137.333 2861.23C137.014 2861.03 136.905 2860.58 137.089 2860.22L137.512 2859.41H136.667C136.298 2859.41 136 2859.08 136 2858.67C136 2858.26 136.298 2857.93 136.667 2857.93H137.512L137.089 2857.11C136.905 2856.76 137.014 2856.3 137.333 2856.1C137.652 2855.89 138.06 2856.02 138.244 2856.37L138.667 2857.18L139.089 2856.37C139.273 2856.02 139.681 2855.89 140 2856.1C140.319 2856.3 140.428 2856.76 140.244 2857.11L139.821 2857.93H140.667C141.035 2857.93 141.333 2858.26 141.333 2858.67C141.333 2859.08 141.035 2859.41 140.667 2859.41H139.821L140.244 2860.22C140.428 2860.58 140.319 2861.03 140 2861.23C139.681 2861.44 139.273 2861.32 139.089 2860.96L138.667 2860.15L138.244 2860.96C138.06 2861.32 137.652 2861.44 137.333 2861.23Z" fill="#1D9DA1" />
<path xmlns="http://www.w3.org/2000/svg" d="M146.667 2857.23C146.348 2857.03 146.239 2856.58 146.423 2856.22L146.845 2855.41H146C145.632 2855.41 145.333 2855.08 145.333 2854.67C145.333 2854.26 145.632 2853.93 146 2853.93H146.845L146.423 2853.11C146.239 2852.76 146.348 2852.3 146.667 2852.1C146.986 2851.89 147.393 2852.02 147.577 2852.37L148 2853.18L148.423 2852.37C148.607 2852.02 149.014 2851.89 149.333 2852.1C149.652 2852.3 149.761 2852.76 149.577 2853.11L149.155 2853.93H150C150.368 2853.93 150.667 2854.26 150.667 2854.67C150.667 2855.08 150.368 2855.41 150 2855.41H149.155L149.577 2856.22C149.761 2856.58 149.652 2857.03 149.333 2857.23C149.014 2857.44 148.607 2857.32 148.423 2856.96L148 2856.15L147.577 2856.96C147.393 2857.32 146.986 2857.44 146.667 2857.23Z" fill="#1D9DA1" />
<path xmlns="http://www.w3.org/2000/svg" d="M150.667 2862.57C150.348 2862.36 150.239 2861.91 150.423 2861.55L150.845 2860.74H150C149.632 2860.74 149.333 2860.41 149.333 2860C149.333 2859.59 149.632 2859.26 150 2859.26H150.845L150.423 2858.45C150.239 2858.09 150.348 2857.64 150.667 2857.43C150.986 2857.23 151.393 2857.35 151.577 2857.7L152 2858.52L152.423 2857.7C152.607 2857.35 153.014 2857.23 153.333 2857.43C153.652 2857.64 153.761 2858.09 153.577 2858.45L153.155 2859.26H154C154.368 2859.26 154.667 2859.59 154.667 2860C154.667 2860.41 154.368 2860.74 154 2860.74H153.155L153.577 2861.55C153.761 2861.91 153.652 2862.36 153.333 2862.57C153.014 2862.77 152.607 2862.65 152.423 2862.3L152 2861.48L151.577 2862.3C151.393 2862.65 150.986 2862.77 150.667 2862.57Z" fill="#1D9DA1" />
<path xmlns="http://www.w3.org/2000/svg" d="M155.333 2857.23C155.014 2857.03 154.905 2856.58 155.089 2856.22L155.512 2855.41H154.667C154.298 2855.41 154 2855.08 154 2854.67C154 2854.26 154.298 2853.93 154.667 2853.93H155.512L155.089 2853.11C154.905 2852.76 155.014 2852.3 155.333 2852.1C155.652 2851.89 156.06 2852.02 156.244 2852.37L156.667 2853.18L157.089 2852.37C157.273 2852.02 157.681 2851.89 158 2852.1C158.319 2852.3 158.428 2852.76 158.244 2853.11L157.821 2853.93H158.667C159.035 2853.93 159.333 2854.26 159.333 2854.67C159.333 2855.08 159.035 2855.41 158.667 2855.41H157.821L158.244 2856.22C158.428 2856.58 158.319 2857.03 158 2857.23C157.681 2857.44 157.273 2857.32 157.089 2856.96L156.667 2856.15L156.244 2856.96C156.06 2857.32 155.652 2857.44 155.333 2857.23Z" fill="#1D9DA1" />
<path xmlns="http://www.w3.org/2000/svg" fill-rule="evenodd" clip-rule="evenodd" d="M130.667 2917.33C130.667 2916.97 130.965 2916.67 131.333 2916.67H146C146.368 2916.67 146.667 2916.97 146.667 2917.33C146.667 2917.7 146.368 2918 146 2918H144.446C144.446 2918.14 144.505 2918.28 144.624 2918.38L146.488 2919.94C146.512 2919.96 146.533 2919.98 146.552 2920.01C146.643 2920.01 146.735 2920.01 146.827 2920.02C150.242 2920.3 152.152 2922.09 153.107 2923.92C153.439 2924.56 153.645 2925.17 153.774 2925.7C153.974 2925.76 154.185 2925.83 154.399 2925.9C154.912 2926.09 155.583 2926.39 156.15 2926.87C156.733 2927.36 157.424 2928.24 157.327 2929.5C157.178 2931.45 155.673 2933.35 153.333 2933.35H147.829L147.853 2933.3C148.017 2932.98 148.045 2932.61 147.93 2932.27C147.815 2931.93 147.567 2931.65 147.243 2931.49L146.946 2931.35H153.333C154.438 2931.35 155.249 2930.45 155.333 2929.35C155.45 2927.84 152 2927.35 152 2927.35C152 2927.35 152 2922.44 146.667 2922.02C144.528 2921.84 142.889 2923.15 141.869 2924.31C141.085 2925.2 140.667 2926.02 140.667 2926.02C140.667 2926.02 139.999 2925.01 139.136 2924.66C138.78 2924.52 138.39 2924.49 138 2924.68C137.667 2924.85 137.458 2925.1 137.333 2925.38C136.958 2926.22 137.333 2927.35 137.333 2927.35H134.667C133.333 2927.35 132.667 2928.24 132.667 2929.35C132.667 2930.45 133.562 2931.35 134.667 2931.35H140.727L140.137 2932.54C140.014 2932.79 139.973 2933.08 140.017 2933.35H134.667C132.457 2933.35 130.667 2931.56 130.667 2929.35C130.667 2928.41 130.954 2927.39 131.695 2926.58C132.462 2925.75 133.527 2925.35 134.667 2925.35H135.26C135.404 2924.65 135.748 2923.85 136.524 2923.26C136.499 2923.27 136.475 2923.28 136.451 2923.29L134.315 2924.5C133.919 2924.72 133.434 2924.39 133.535 2923.96L134.079 2921.65C134.148 2921.35 133.931 2921.07 133.616 2921.04L131.143 2920.82C130.685 2920.78 130.5 2920.23 130.845 2919.94L132.709 2918.38C132.828 2918.28 132.887 2918.14 132.887 2918H131.333C130.965 2918 130.667 2917.7 130.667 2917.33ZM134.456 2918H142.877C142.877 2920.21 140.992 2922 138.667 2922C136.341 2922 134.456 2920.21 134.456 2918Z" fill="#1F1F1F" />
<path xmlns="http://www.w3.org/2000/svg" d="M145.179 2925.33L144.163 2931.49L146.667 2932.69L142.24 2941.33L143.909 2934.33L141.333 2933.13L145.179 2925.33Z" fill="#1F1F1F" />

</svg>
