<svg width="24" height="24" viewBox="984 4584 24 24" fill="none" xmlns="http://www.w3.org/2000/svg">
  <defs>
<filter xmlns="http://www.w3.org/2000/svg" id="filter0_d_3597_4069" x="479.7" y="1631.75" width="16.1285" height="19.9741" filterUnits="userSpaceOnUse" color-interpolation-filters="sRGB">
<feFlood flood-opacity="0" result="BackgroundImageFix" />
<feColorMatrix in="SourceAlpha" type="matrix" values="0 0 0 0 0 0 0 0 0 0 0 0 0 0 0 0 0 0 127 0" result="hardAlpha" />
<feOffset dy="1" />
<feGaussianBlur stdDeviation="0.5" />
<feColorMatrix type="matrix" values="0 0 0 0 0 0 0 0 0 0 0 0 0 0 0 0 0 0 0.2 0" />
<feBlend mode="normal" in2="BackgroundImageFix" result="effect1_dropShadow_3597_4069" />
<feBlend mode="normal" in="SourceGraphic" in2="effect1_dropShadow_3597_4069" result="shape" />
</filter>
<filter xmlns="http://www.w3.org/2000/svg" id="filter1_d_3597_4069" x="564" y="1637" width="24" height="24" filterUnits="userSpaceOnUse" color-interpolation-filters="sRGB">
<feFlood flood-opacity="0" result="BackgroundImageFix" />
<feColorMatrix in="SourceAlpha" type="matrix" values="0 0 0 0 0 0 0 0 0 0 0 0 0 0 0 0 0 0 127 0" result="hardAlpha" />
<feOffset dy="1" />
<feGaussianBlur stdDeviation="0.5" />
<feColorMatrix type="matrix" values="0 0 0 0 0 0 0 0 0 0 0 0 0 0 0 0 0 0 0.2 0" />
<feBlend mode="normal" in2="BackgroundImageFix" result="effect1_dropShadow_3597_4069" />
<feBlend mode="normal" in="SourceGraphic" in2="effect1_dropShadow_3597_4069" result="shape" />
</filter>
<filter xmlns="http://www.w3.org/2000/svg" id="filter2_d_3597_4069" x="645" y="1638" width="22" height="22" filterUnits="userSpaceOnUse" color-interpolation-filters="sRGB">
<feFlood flood-opacity="0" result="BackgroundImageFix" />
<feColorMatrix in="SourceAlpha" type="matrix" values="0 0 0 0 0 0 0 0 0 0 0 0 0 0 0 0 0 0 127 0" result="hardAlpha" />
<feOffset dy="1" />
<feGaussianBlur stdDeviation="0.5" />
<feColorMatrix type="matrix" values="0 0 0 0 0 0 0 0 0 0 0 0 0 0 0 0 0 0 0.2 0" />
<feBlend mode="normal" in2="BackgroundImageFix" result="effect1_dropShadow_3597_4069" />
<feBlend mode="normal" in="SourceGraphic" in2="effect1_dropShadow_3597_4069" result="shape" />
</filter>
<filter xmlns="http://www.w3.org/2000/svg" id="filter3_d_3597_4069" x="724.634" y="1637.24" width="22.434" height="24.379" filterUnits="userSpaceOnUse" color-interpolation-filters="sRGB">
<feFlood flood-opacity="0" result="BackgroundImageFix" />
<feColorMatrix in="SourceAlpha" type="matrix" values="0 0 0 0 0 0 0 0 0 0 0 0 0 0 0 0 0 0 127 0" result="hardAlpha" />
<feOffset dy="1" />
<feGaussianBlur stdDeviation="0.5" />
<feColorMatrix type="matrix" values="0 0 0 0 0 0 0 0 0 0 0 0 0 0 0 0 0 0 0.2 0" />
<feBlend mode="normal" in2="BackgroundImageFix" result="effect1_dropShadow_3597_4069" />
<feBlend mode="normal" in="SourceGraphic" in2="effect1_dropShadow_3597_4069" result="shape" />
</filter>
<filter xmlns="http://www.w3.org/2000/svg" id="filter4_d_3597_4069" x="799.419" y="1632.42" width="28.5812" height="28.5812" filterUnits="userSpaceOnUse" color-interpolation-filters="sRGB">
<feFlood flood-opacity="0" result="BackgroundImageFix" />
<feColorMatrix in="SourceAlpha" type="matrix" values="0 0 0 0 0 0 0 0 0 0 0 0 0 0 0 0 0 0 127 0" result="hardAlpha" />
<feOffset dy="1" />
<feGaussianBlur stdDeviation="0.5" />
<feColorMatrix type="matrix" values="0 0 0 0 0 0 0 0 0 0 0 0 0 0 0 0 0 0 0.2 0" />
<feBlend mode="normal" in2="BackgroundImageFix" result="effect1_dropShadow_3597_4069" />
<feBlend mode="normal" in="SourceGraphic" in2="effect1_dropShadow_3597_4069" result="shape" />
</filter>
<filter xmlns="http://www.w3.org/2000/svg" id="filter5_d_3597_4069" x="879.419" y="1632.42" width="26.7811" height="29.5812" filterUnits="userSpaceOnUse" color-interpolation-filters="sRGB">
<feFlood flood-opacity="0" result="BackgroundImageFix" />
<feColorMatrix in="SourceAlpha" type="matrix" values="0 0 0 0 0 0 0 0 0 0 0 0 0 0 0 0 0 0 127 0" result="hardAlpha" />
<feOffset dy="1" />
<feGaussianBlur stdDeviation="0.5" />
<feColorMatrix type="matrix" values="0 0 0 0 0 0 0 0 0 0 0 0 0 0 0 0 0 0 0.2 0" />
<feBlend mode="normal" in2="BackgroundImageFix" result="effect1_dropShadow_3597_4069" />
<feBlend mode="normal" in="SourceGraphic" in2="effect1_dropShadow_3597_4069" result="shape" />
</filter>
<filter xmlns="http://www.w3.org/2000/svg" id="filter6_d_3597_4069" x="960" y="1633" width="22" height="22" filterUnits="userSpaceOnUse" color-interpolation-filters="sRGB">
<feFlood flood-opacity="0" result="BackgroundImageFix" />
<feColorMatrix in="SourceAlpha" type="matrix" values="0 0 0 0 0 0 0 0 0 0 0 0 0 0 0 0 0 0 127 0" result="hardAlpha" />
<feOffset dy="1" />
<feGaussianBlur stdDeviation="0.5" />
<feColorMatrix type="matrix" values="0 0 0 0 0 0 0 0 0 0 0 0 0 0 0 0 0 0 0.2 0" />
<feBlend mode="normal" in2="BackgroundImageFix" result="effect1_dropShadow_3597_4069" />
<feBlend mode="normal" in="SourceGraphic" in2="effect1_dropShadow_3597_4069" result="shape" />
</filter>
<filter xmlns="http://www.w3.org/2000/svg" id="filter7_d_3597_4069" x="551.419" y="1712.42" width="18.7434" height="18.7434" filterUnits="userSpaceOnUse" color-interpolation-filters="sRGB">
<feFlood flood-opacity="0" result="BackgroundImageFix" />
<feColorMatrix in="SourceAlpha" type="matrix" values="0 0 0 0 0 0 0 0 0 0 0 0 0 0 0 0 0 0 127 0" result="hardAlpha" />
<feOffset dy="1" />
<feGaussianBlur stdDeviation="0.5" />
<feColorMatrix type="matrix" values="0 0 0 0 0 0 0 0 0 0 0 0 0 0 0 0 0 0 0.2 0" />
<feBlend mode="normal" in2="BackgroundImageFix" result="effect1_dropShadow_3597_4069" />
<feBlend mode="normal" in="SourceGraphic" in2="effect1_dropShadow_3597_4069" result="shape" />
</filter>
<filter xmlns="http://www.w3.org/2000/svg" id="filter8_d_3597_4069" x="641" y="1722" width="14" height="14" filterUnits="userSpaceOnUse" color-interpolation-filters="sRGB">
<feFlood flood-opacity="0" result="BackgroundImageFix" />
<feColorMatrix in="SourceAlpha" type="matrix" values="0 0 0 0 0 0 0 0 0 0 0 0 0 0 0 0 0 0 127 0" result="hardAlpha" />
<feOffset dy="1" />
<feGaussianBlur stdDeviation="0.5" />
<feColorMatrix type="matrix" values="0 0 0 0 0 0 0 0 0 0 0 0 0 0 0 0 0 0 0.2 0" />
<feBlend mode="normal" in2="BackgroundImageFix" result="effect1_dropShadow_3597_4069" />
<feBlend mode="normal" in="SourceGraphic" in2="effect1_dropShadow_3597_4069" result="shape" />
</filter>
<filter xmlns="http://www.w3.org/2000/svg" id="filter9_d_3597_4069" x="716.585" y="1718.74" width="22.3209" height="22.8601" filterUnits="userSpaceOnUse" color-interpolation-filters="sRGB">
<feFlood flood-opacity="0" result="BackgroundImageFix" />
<feColorMatrix in="SourceAlpha" type="matrix" values="0 0 0 0 0 0 0 0 0 0 0 0 0 0 0 0 0 0 127 0" result="hardAlpha" />
<feOffset dy="1" />
<feGaussianBlur stdDeviation="0.5" />
<feColorMatrix type="matrix" values="0 0 0 0 0 0 0 0 0 0 0 0 0 0 0 0 0 0 0.2 0" />
<feBlend mode="normal" in2="BackgroundImageFix" result="effect1_dropShadow_3597_4069" />
<feBlend mode="normal" in="SourceGraphic" in2="effect1_dropShadow_3597_4069" result="shape" />
</filter>
<filter xmlns="http://www.w3.org/2000/svg" id="filter10_d_3597_4069" x="797.906" y="1723.32" width="20.5729" height="18.4579" filterUnits="userSpaceOnUse" color-interpolation-filters="sRGB">
<feFlood flood-opacity="0" result="BackgroundImageFix" />
<feColorMatrix in="SourceAlpha" type="matrix" values="0 0 0 0 0 0 0 0 0 0 0 0 0 0 0 0 0 0 127 0" result="hardAlpha" />
<feOffset dy="1" />
<feGaussianBlur stdDeviation="0.5" />
<feColorMatrix type="matrix" values="0 0 0 0 0 0 0 0 0 0 0 0 0 0 0 0 0 0 0.2 0" />
<feBlend mode="normal" in2="BackgroundImageFix" result="effect1_dropShadow_3597_4069" />
<feBlend mode="normal" in="SourceGraphic" in2="effect1_dropShadow_3597_4069" result="shape" />
</filter>
<filter xmlns="http://www.w3.org/2000/svg" id="filter11_d_3597_4069" x="871.419" y="1712.42" width="28.5812" height="22.5812" filterUnits="userSpaceOnUse" color-interpolation-filters="sRGB">
<feFlood flood-opacity="0" result="BackgroundImageFix" />
<feColorMatrix in="SourceAlpha" type="matrix" values="0 0 0 0 0 0 0 0 0 0 0 0 0 0 0 0 0 0 127 0" result="hardAlpha" />
<feOffset dy="1" />
<feGaussianBlur stdDeviation="0.5" />
<feColorMatrix type="matrix" values="0 0 0 0 0 0 0 0 0 0 0 0 0 0 0 0 0 0 0.2 0" />
<feBlend mode="normal" in2="BackgroundImageFix" result="effect1_dropShadow_3597_4069" />
<feBlend mode="normal" in="SourceGraphic" in2="effect1_dropShadow_3597_4069" result="shape" />
</filter>
<filter xmlns="http://www.w3.org/2000/svg" id="filter12_d_3597_4069" x="951.419" y="1712.42" width="29.5811" height="30.5812" filterUnits="userSpaceOnUse" color-interpolation-filters="sRGB">
<feFlood flood-opacity="0" result="BackgroundImageFix" />
<feColorMatrix in="SourceAlpha" type="matrix" values="0 0 0 0 0 0 0 0 0 0 0 0 0 0 0 0 0 0 127 0" result="hardAlpha" />
<feOffset dy="1" />
<feGaussianBlur stdDeviation="0.5" />
<feColorMatrix type="matrix" values="0 0 0 0 0 0 0 0 0 0 0 0 0 0 0 0 0 0 0.2 0" />
<feBlend mode="normal" in2="BackgroundImageFix" result="effect1_dropShadow_3597_4069" />
<feBlend mode="normal" in="SourceGraphic" in2="effect1_dropShadow_3597_4069" result="shape" />
</filter>
<clipPath xmlns="http://www.w3.org/2000/svg" id="clip0_3597_4069">
<rect width="32" height="32" fill="white" transform="translate(128 2432)" />
</clipPath>
<clipPath xmlns="http://www.w3.org/2000/svg" id="clip1_3597_4069">
<rect width="24" height="24" fill="white" transform="translate(120 4008)" />
</clipPath>
<clipPath xmlns="http://www.w3.org/2000/svg" id="clip2_3597_4069">
<rect width="24" height="24" fill="white" transform="translate(624 4152)" />
</clipPath>
<clipPath xmlns="http://www.w3.org/2000/svg" id="clip3_3597_4069">
<rect width="24" height="24" fill="white" transform="translate(192 4368)" />
</clipPath>
<clipPath xmlns="http://www.w3.org/2000/svg" id="clip4_3597_4069">
<rect width="24" height="24" fill="white" transform="translate(408 4512)" />
</clipPath>
<clipPath xmlns="http://www.w3.org/2000/svg" id="clip5_3597_4069">
<rect width="24" height="24" fill="white" transform="translate(480 4656)" />
</clipPath>
<clipPath xmlns="http://www.w3.org/2000/svg" id="clip6_3597_4069">
<rect width="24" height="24" fill="white" transform="translate(624 4800)" />
</clipPath>
<clipPath xmlns="http://www.w3.org/2000/svg" id="clip7_3597_4069">
<rect width="24" height="24" fill="white" transform="translate(624 5016)" />
</clipPath>
<clipPath xmlns="http://www.w3.org/2000/svg" id="clip8_3597_4069">
<rect width="24" height="24" fill="white" transform="translate(840.004 7680)" />
</clipPath>

  </defs>
<path xmlns="http://www.w3.org/2000/svg" d="M996 4607C998.176 4607 1000.2 4606.37 1001.91 4605.28L992 4599.56V4602C992 4602.55 991.552 4603 991 4603C990.448 4603 990 4602.55 990 4602V4596.75H985.025C985.411 4602.48 990.177 4607 996 4607Z" fill="white" />
<path xmlns="http://www.w3.org/2000/svg" d="M992 4597.82L1003.22 4604.3C1005.54 4602.28 1007 4599.31 1007 4596C1007 4593.01 1005.81 4590.3 1003.87 4588.32L997.077 4592.24L1000.79 4593.24L1000.4 4594.69L994.215 4593.03L995.874 4586.84L997.322 4587.23L996.327 4590.95L1002.69 4587.27C1000.84 4585.85 998.518 4585 996 4585C990.177 4585 985.411 4589.52 985.025 4595.25H990V4590C990 4589.45 990.448 4589 991 4589C991.552 4589 992 4589.45 992 4590V4597.82Z" fill="white" />
<path xmlns="http://www.w3.org/2000/svg" d="M985 4596L985 4595.94V4596.06L985 4596Z" fill="white" />
<path xmlns="http://www.w3.org/2000/svg" fill-rule="evenodd" clip-rule="evenodd" d="M1008 4596C1008 4602.63 1002.63 4608 996 4608C989.373 4608 984 4602.63 984 4596C984 4589.37 989.373 4584 996 4584C1002.63 4584 1008 4589.37 1008 4596ZM1001.91 4605.28C1000.2 4606.37 998.176 4607 996 4607C990.177 4607 985.411 4602.48 985.025 4596.75H990V4602C990 4602.55 990.448 4603 991 4603C991.552 4603 992 4602.55 992 4602V4599.56L1001.91 4605.28ZM1003.22 4604.3L992 4597.82V4590C992 4589.45 991.552 4589 991 4589C990.448 4589 990 4589.45 990 4590V4595.25H985.025C985.411 4589.52 990.177 4585 996 4585C998.518 4585 1000.84 4585.85 1002.69 4587.27L996.327 4590.95L997.322 4587.23L995.874 4586.84L994.215 4593.03L1000.4 4594.69L1000.79 4593.24L997.077 4592.24L1003.87 4588.32C1005.81 4590.3 1007 4593.01 1007 4596C1007 4599.31 1005.54 4602.28 1003.22 4604.3ZM985 4595.94C985 4595.96 985 4595.98 985 4596C985 4596.02 985 4596.04 985 4596.06V4595.94Z" fill="#3D3D3D" />

</svg>
