<svg width="24" height="24" viewBox="264 5448 24 24" fill="none" xmlns="http://www.w3.org/2000/svg">
  <defs>
<filter xmlns="http://www.w3.org/2000/svg" id="filter0_d_3597_4069" x="479.7" y="1631.75" width="16.1285" height="19.9741" filterUnits="userSpaceOnUse" color-interpolation-filters="sRGB">
<feFlood flood-opacity="0" result="BackgroundImageFix" />
<feColorMatrix in="SourceAlpha" type="matrix" values="0 0 0 0 0 0 0 0 0 0 0 0 0 0 0 0 0 0 127 0" result="hardAlpha" />
<feOffset dy="1" />
<feGaussianBlur stdDeviation="0.5" />
<feColorMatrix type="matrix" values="0 0 0 0 0 0 0 0 0 0 0 0 0 0 0 0 0 0 0.2 0" />
<feBlend mode="normal" in2="BackgroundImageFix" result="effect1_dropShadow_3597_4069" />
<feBlend mode="normal" in="SourceGraphic" in2="effect1_dropShadow_3597_4069" result="shape" />
</filter>
<filter xmlns="http://www.w3.org/2000/svg" id="filter1_d_3597_4069" x="564" y="1637" width="24" height="24" filterUnits="userSpaceOnUse" color-interpolation-filters="sRGB">
<feFlood flood-opacity="0" result="BackgroundImageFix" />
<feColorMatrix in="SourceAlpha" type="matrix" values="0 0 0 0 0 0 0 0 0 0 0 0 0 0 0 0 0 0 127 0" result="hardAlpha" />
<feOffset dy="1" />
<feGaussianBlur stdDeviation="0.5" />
<feColorMatrix type="matrix" values="0 0 0 0 0 0 0 0 0 0 0 0 0 0 0 0 0 0 0.2 0" />
<feBlend mode="normal" in2="BackgroundImageFix" result="effect1_dropShadow_3597_4069" />
<feBlend mode="normal" in="SourceGraphic" in2="effect1_dropShadow_3597_4069" result="shape" />
</filter>
<filter xmlns="http://www.w3.org/2000/svg" id="filter2_d_3597_4069" x="645" y="1638" width="22" height="22" filterUnits="userSpaceOnUse" color-interpolation-filters="sRGB">
<feFlood flood-opacity="0" result="BackgroundImageFix" />
<feColorMatrix in="SourceAlpha" type="matrix" values="0 0 0 0 0 0 0 0 0 0 0 0 0 0 0 0 0 0 127 0" result="hardAlpha" />
<feOffset dy="1" />
<feGaussianBlur stdDeviation="0.5" />
<feColorMatrix type="matrix" values="0 0 0 0 0 0 0 0 0 0 0 0 0 0 0 0 0 0 0.2 0" />
<feBlend mode="normal" in2="BackgroundImageFix" result="effect1_dropShadow_3597_4069" />
<feBlend mode="normal" in="SourceGraphic" in2="effect1_dropShadow_3597_4069" result="shape" />
</filter>
<filter xmlns="http://www.w3.org/2000/svg" id="filter3_d_3597_4069" x="724.634" y="1637.24" width="22.434" height="24.379" filterUnits="userSpaceOnUse" color-interpolation-filters="sRGB">
<feFlood flood-opacity="0" result="BackgroundImageFix" />
<feColorMatrix in="SourceAlpha" type="matrix" values="0 0 0 0 0 0 0 0 0 0 0 0 0 0 0 0 0 0 127 0" result="hardAlpha" />
<feOffset dy="1" />
<feGaussianBlur stdDeviation="0.5" />
<feColorMatrix type="matrix" values="0 0 0 0 0 0 0 0 0 0 0 0 0 0 0 0 0 0 0.2 0" />
<feBlend mode="normal" in2="BackgroundImageFix" result="effect1_dropShadow_3597_4069" />
<feBlend mode="normal" in="SourceGraphic" in2="effect1_dropShadow_3597_4069" result="shape" />
</filter>
<filter xmlns="http://www.w3.org/2000/svg" id="filter4_d_3597_4069" x="799.419" y="1632.42" width="28.5812" height="28.5812" filterUnits="userSpaceOnUse" color-interpolation-filters="sRGB">
<feFlood flood-opacity="0" result="BackgroundImageFix" />
<feColorMatrix in="SourceAlpha" type="matrix" values="0 0 0 0 0 0 0 0 0 0 0 0 0 0 0 0 0 0 127 0" result="hardAlpha" />
<feOffset dy="1" />
<feGaussianBlur stdDeviation="0.5" />
<feColorMatrix type="matrix" values="0 0 0 0 0 0 0 0 0 0 0 0 0 0 0 0 0 0 0.2 0" />
<feBlend mode="normal" in2="BackgroundImageFix" result="effect1_dropShadow_3597_4069" />
<feBlend mode="normal" in="SourceGraphic" in2="effect1_dropShadow_3597_4069" result="shape" />
</filter>
<filter xmlns="http://www.w3.org/2000/svg" id="filter5_d_3597_4069" x="879.419" y="1632.42" width="26.7811" height="29.5812" filterUnits="userSpaceOnUse" color-interpolation-filters="sRGB">
<feFlood flood-opacity="0" result="BackgroundImageFix" />
<feColorMatrix in="SourceAlpha" type="matrix" values="0 0 0 0 0 0 0 0 0 0 0 0 0 0 0 0 0 0 127 0" result="hardAlpha" />
<feOffset dy="1" />
<feGaussianBlur stdDeviation="0.5" />
<feColorMatrix type="matrix" values="0 0 0 0 0 0 0 0 0 0 0 0 0 0 0 0 0 0 0.2 0" />
<feBlend mode="normal" in2="BackgroundImageFix" result="effect1_dropShadow_3597_4069" />
<feBlend mode="normal" in="SourceGraphic" in2="effect1_dropShadow_3597_4069" result="shape" />
</filter>
<filter xmlns="http://www.w3.org/2000/svg" id="filter6_d_3597_4069" x="960" y="1633" width="22" height="22" filterUnits="userSpaceOnUse" color-interpolation-filters="sRGB">
<feFlood flood-opacity="0" result="BackgroundImageFix" />
<feColorMatrix in="SourceAlpha" type="matrix" values="0 0 0 0 0 0 0 0 0 0 0 0 0 0 0 0 0 0 127 0" result="hardAlpha" />
<feOffset dy="1" />
<feGaussianBlur stdDeviation="0.5" />
<feColorMatrix type="matrix" values="0 0 0 0 0 0 0 0 0 0 0 0 0 0 0 0 0 0 0.2 0" />
<feBlend mode="normal" in2="BackgroundImageFix" result="effect1_dropShadow_3597_4069" />
<feBlend mode="normal" in="SourceGraphic" in2="effect1_dropShadow_3597_4069" result="shape" />
</filter>
<filter xmlns="http://www.w3.org/2000/svg" id="filter7_d_3597_4069" x="551.419" y="1712.42" width="18.7434" height="18.7434" filterUnits="userSpaceOnUse" color-interpolation-filters="sRGB">
<feFlood flood-opacity="0" result="BackgroundImageFix" />
<feColorMatrix in="SourceAlpha" type="matrix" values="0 0 0 0 0 0 0 0 0 0 0 0 0 0 0 0 0 0 127 0" result="hardAlpha" />
<feOffset dy="1" />
<feGaussianBlur stdDeviation="0.5" />
<feColorMatrix type="matrix" values="0 0 0 0 0 0 0 0 0 0 0 0 0 0 0 0 0 0 0.2 0" />
<feBlend mode="normal" in2="BackgroundImageFix" result="effect1_dropShadow_3597_4069" />
<feBlend mode="normal" in="SourceGraphic" in2="effect1_dropShadow_3597_4069" result="shape" />
</filter>
<filter xmlns="http://www.w3.org/2000/svg" id="filter8_d_3597_4069" x="641" y="1722" width="14" height="14" filterUnits="userSpaceOnUse" color-interpolation-filters="sRGB">
<feFlood flood-opacity="0" result="BackgroundImageFix" />
<feColorMatrix in="SourceAlpha" type="matrix" values="0 0 0 0 0 0 0 0 0 0 0 0 0 0 0 0 0 0 127 0" result="hardAlpha" />
<feOffset dy="1" />
<feGaussianBlur stdDeviation="0.5" />
<feColorMatrix type="matrix" values="0 0 0 0 0 0 0 0 0 0 0 0 0 0 0 0 0 0 0.2 0" />
<feBlend mode="normal" in2="BackgroundImageFix" result="effect1_dropShadow_3597_4069" />
<feBlend mode="normal" in="SourceGraphic" in2="effect1_dropShadow_3597_4069" result="shape" />
</filter>
<filter xmlns="http://www.w3.org/2000/svg" id="filter9_d_3597_4069" x="716.585" y="1718.74" width="22.3209" height="22.8601" filterUnits="userSpaceOnUse" color-interpolation-filters="sRGB">
<feFlood flood-opacity="0" result="BackgroundImageFix" />
<feColorMatrix in="SourceAlpha" type="matrix" values="0 0 0 0 0 0 0 0 0 0 0 0 0 0 0 0 0 0 127 0" result="hardAlpha" />
<feOffset dy="1" />
<feGaussianBlur stdDeviation="0.5" />
<feColorMatrix type="matrix" values="0 0 0 0 0 0 0 0 0 0 0 0 0 0 0 0 0 0 0.2 0" />
<feBlend mode="normal" in2="BackgroundImageFix" result="effect1_dropShadow_3597_4069" />
<feBlend mode="normal" in="SourceGraphic" in2="effect1_dropShadow_3597_4069" result="shape" />
</filter>
<filter xmlns="http://www.w3.org/2000/svg" id="filter10_d_3597_4069" x="797.906" y="1723.32" width="20.5729" height="18.4579" filterUnits="userSpaceOnUse" color-interpolation-filters="sRGB">
<feFlood flood-opacity="0" result="BackgroundImageFix" />
<feColorMatrix in="SourceAlpha" type="matrix" values="0 0 0 0 0 0 0 0 0 0 0 0 0 0 0 0 0 0 127 0" result="hardAlpha" />
<feOffset dy="1" />
<feGaussianBlur stdDeviation="0.5" />
<feColorMatrix type="matrix" values="0 0 0 0 0 0 0 0 0 0 0 0 0 0 0 0 0 0 0.2 0" />
<feBlend mode="normal" in2="BackgroundImageFix" result="effect1_dropShadow_3597_4069" />
<feBlend mode="normal" in="SourceGraphic" in2="effect1_dropShadow_3597_4069" result="shape" />
</filter>
<filter xmlns="http://www.w3.org/2000/svg" id="filter11_d_3597_4069" x="871.419" y="1712.42" width="28.5812" height="22.5812" filterUnits="userSpaceOnUse" color-interpolation-filters="sRGB">
<feFlood flood-opacity="0" result="BackgroundImageFix" />
<feColorMatrix in="SourceAlpha" type="matrix" values="0 0 0 0 0 0 0 0 0 0 0 0 0 0 0 0 0 0 127 0" result="hardAlpha" />
<feOffset dy="1" />
<feGaussianBlur stdDeviation="0.5" />
<feColorMatrix type="matrix" values="0 0 0 0 0 0 0 0 0 0 0 0 0 0 0 0 0 0 0.2 0" />
<feBlend mode="normal" in2="BackgroundImageFix" result="effect1_dropShadow_3597_4069" />
<feBlend mode="normal" in="SourceGraphic" in2="effect1_dropShadow_3597_4069" result="shape" />
</filter>
<filter xmlns="http://www.w3.org/2000/svg" id="filter12_d_3597_4069" x="951.419" y="1712.42" width="29.5811" height="30.5812" filterUnits="userSpaceOnUse" color-interpolation-filters="sRGB">
<feFlood flood-opacity="0" result="BackgroundImageFix" />
<feColorMatrix in="SourceAlpha" type="matrix" values="0 0 0 0 0 0 0 0 0 0 0 0 0 0 0 0 0 0 127 0" result="hardAlpha" />
<feOffset dy="1" />
<feGaussianBlur stdDeviation="0.5" />
<feColorMatrix type="matrix" values="0 0 0 0 0 0 0 0 0 0 0 0 0 0 0 0 0 0 0.2 0" />
<feBlend mode="normal" in2="BackgroundImageFix" result="effect1_dropShadow_3597_4069" />
<feBlend mode="normal" in="SourceGraphic" in2="effect1_dropShadow_3597_4069" result="shape" />
</filter>
<clipPath xmlns="http://www.w3.org/2000/svg" id="clip0_3597_4069">
<rect width="32" height="32" fill="white" transform="translate(128 2432)" />
</clipPath>
<clipPath xmlns="http://www.w3.org/2000/svg" id="clip1_3597_4069">
<rect width="24" height="24" fill="white" transform="translate(120 4008)" />
</clipPath>
<clipPath xmlns="http://www.w3.org/2000/svg" id="clip2_3597_4069">
<rect width="24" height="24" fill="white" transform="translate(624 4152)" />
</clipPath>
<clipPath xmlns="http://www.w3.org/2000/svg" id="clip3_3597_4069">
<rect width="24" height="24" fill="white" transform="translate(192 4368)" />
</clipPath>
<clipPath xmlns="http://www.w3.org/2000/svg" id="clip4_3597_4069">
<rect width="24" height="24" fill="white" transform="translate(408 4512)" />
</clipPath>
<clipPath xmlns="http://www.w3.org/2000/svg" id="clip5_3597_4069">
<rect width="24" height="24" fill="white" transform="translate(480 4656)" />
</clipPath>
<clipPath xmlns="http://www.w3.org/2000/svg" id="clip6_3597_4069">
<rect width="24" height="24" fill="white" transform="translate(624 4800)" />
</clipPath>
<clipPath xmlns="http://www.w3.org/2000/svg" id="clip7_3597_4069">
<rect width="24" height="24" fill="white" transform="translate(624 5016)" />
</clipPath>
<clipPath xmlns="http://www.w3.org/2000/svg" id="clip8_3597_4069">
<rect width="24" height="24" fill="white" transform="translate(840.004 7680)" />
</clipPath>

  </defs>
<path xmlns="http://www.w3.org/2000/svg" d="M278.475 5451.16C278.28 5450.97 278.28 5450.65 278.475 5450.45C278.67 5450.26 278.987 5450.26 279.182 5450.45C279.377 5450.65 279.377 5450.97 279.182 5451.16C278.987 5451.36 278.67 5451.36 278.475 5451.16Z" fill="#1F1F1F" />
<path xmlns="http://www.w3.org/2000/svg" fill-rule="evenodd" clip-rule="evenodd" d="M268.991 5466.3C269.331 5465.98 269.658 5465.65 269.985 5465.31C270.148 5465.15 270.311 5464.98 270.476 5464.82C270.759 5464.53 271.043 5464.25 271.326 5463.97C271.894 5463.41 272.461 5462.84 273.022 5462.27C273.312 5461.97 273.524 5461.9 273.92 5462.26C274.203 5462.53 274.302 5462.76 274.259 5463.15C274.104 5464.71 274.302 5466.24 275.066 5467.62C275.822 5468.97 277.484 5469.8 279.131 5469.47C280.355 5469.22 281.316 5468.51 282.278 5467.79C282.349 5467.75 282.419 5467.71 282.483 5467.66L282.511 5467.63C282.738 5467.31 282.525 5467.09 282.313 5466.88C281.879 5466.45 281.445 5466.01 281.012 5465.58L281.011 5465.58C280.145 5464.72 279.279 5463.86 278.417 5462.99C278.379 5462.94 278.332 5462.9 278.285 5462.87C278.116 5462.72 277.94 5462.58 278.106 5462.28C278.403 5461.73 278.566 5461.63 279.089 5461.69C280.411 5461.84 281.719 5461.71 282.957 5461.22C285.269 5460.31 286.146 5457.82 285.064 5455.66C284.682 5454.9 284.23 5454.17 283.671 5453.53C283.459 5453.29 283.218 5453.3 282.921 5453.6C282.582 5453.93 282.247 5454.27 281.91 5454.61L281.909 5454.61C281.74 5454.78 281.571 5454.95 281.401 5455.12L281.4 5455.12C280.573 5455.95 279.746 5456.78 278.919 5457.59C278.886 5457.62 278.853 5457.66 278.819 5457.7C278.677 5457.87 278.522 5458.06 278.247 5457.87C278.2 5457.83 278.15 5457.8 278.1 5457.77C277.832 5457.59 277.561 5457.41 277.632 5456.98C277.809 5455.81 277.71 5454.66 277.364 5453.53C276.883 5451.99 275.964 5450.9 274.316 5450.54C273.34 5450.33 272.428 5450.48 271.579 5450.93C270.901 5451.28 270.222 5451.65 269.663 5452.19C269.27 5452.59 269.379 5452.7 269.672 5453.01L269.677 5453.01C270.038 5453.4 270.41 5453.77 270.785 5454.14C270.911 5454.26 271.037 5454.39 271.162 5454.51C271.374 5454.73 271.585 5454.94 271.796 5455.15L271.797 5455.15C272.43 5455.79 273.061 5456.42 273.708 5457.05C274.005 5457.34 274.076 5457.55 273.715 5457.94C273.453 5458.23 273.22 5458.34 272.817 5458.29C271.551 5458.14 270.307 5458.31 269.09 5458.75C266.934 5459.52 265.845 5461.87 266.75 5464C267.111 5464.84 267.556 5465.63 268.171 5466.32C268.546 5466.72 268.68 5466.6 268.991 5466.3ZM274.804 5458.81C275.461 5458.15 276.536 5458.15 277.194 5458.81C277.852 5459.46 277.852 5460.54 277.194 5461.2C276.536 5461.85 275.461 5461.85 274.804 5461.2C274.146 5460.54 274.146 5459.46 274.804 5458.81Z" fill="#1F1F1F" />
<path xmlns="http://www.w3.org/2000/svg" d="M267.515 5455.76C267.905 5456.15 268.539 5456.15 268.929 5455.76C269.32 5455.37 269.32 5454.73 268.929 5454.34C268.539 5453.95 267.905 5453.95 267.515 5454.34C267.124 5454.73 267.124 5455.37 267.515 5455.76Z" fill="#1F1F1F" />
<path xmlns="http://www.w3.org/2000/svg" d="M267.161 5457.53C266.966 5457.72 266.649 5457.72 266.454 5457.53C266.259 5457.33 266.259 5457.01 266.454 5456.82C266.649 5456.62 266.966 5456.62 267.161 5456.82C267.356 5457.01 267.356 5457.33 267.161 5457.53Z" fill="#1F1F1F" />
<path xmlns="http://www.w3.org/2000/svg" d="M271.757 5468.49C272.148 5468.09 272.148 5467.46 271.757 5467.07C271.367 5466.68 270.734 5466.68 270.343 5467.07C269.953 5467.46 269.953 5468.09 270.343 5468.49C270.734 5468.88 271.367 5468.88 271.757 5468.49Z" fill="#1F1F1F" />
<path xmlns="http://www.w3.org/2000/svg" d="M273.525 5468.84C273.72 5469.03 273.72 5469.35 273.525 5469.55C273.33 5469.74 273.013 5469.74 272.818 5469.55C272.623 5469.35 272.623 5469.03 272.818 5468.84C273.013 5468.64 273.33 5468.64 273.525 5468.84Z" fill="#1F1F1F" />
<path xmlns="http://www.w3.org/2000/svg" d="M284.485 5464.24C284.095 5463.85 283.461 5463.85 283.071 5464.24C282.68 5464.63 282.68 5465.27 283.071 5465.66C283.461 5466.05 284.095 5466.05 284.485 5465.66C284.876 5465.27 284.876 5464.63 284.485 5464.24Z" fill="#1F1F1F" />
<path xmlns="http://www.w3.org/2000/svg" d="M284.839 5462.47C285.034 5462.28 285.351 5462.28 285.546 5462.47C285.741 5462.67 285.741 5462.99 285.546 5463.18C285.351 5463.38 285.034 5463.38 284.839 5463.18C284.644 5462.99 284.644 5462.67 284.839 5462.47Z" fill="#1F1F1F" />
<path xmlns="http://www.w3.org/2000/svg" d="M280.243 5451.51C279.852 5451.91 279.852 5452.54 280.243 5452.93C280.633 5453.32 281.266 5453.32 281.657 5452.93C282.047 5452.54 282.047 5451.91 281.657 5451.51C281.266 5451.12 280.633 5451.12 280.243 5451.51Z" fill="#1F1F1F" />

</svg>
