<svg width="24" height="24" viewBox="48 4080 24 24" fill="none" xmlns="http://www.w3.org/2000/svg">
  <defs>
<filter xmlns="http://www.w3.org/2000/svg" id="filter0_d_3597_4069" x="479.7" y="1631.75" width="16.1285" height="19.9741" filterUnits="userSpaceOnUse" color-interpolation-filters="sRGB">
<feFlood flood-opacity="0" result="BackgroundImageFix" />
<feColorMatrix in="SourceAlpha" type="matrix" values="0 0 0 0 0 0 0 0 0 0 0 0 0 0 0 0 0 0 127 0" result="hardAlpha" />
<feOffset dy="1" />
<feGaussianBlur stdDeviation="0.5" />
<feColorMatrix type="matrix" values="0 0 0 0 0 0 0 0 0 0 0 0 0 0 0 0 0 0 0.2 0" />
<feBlend mode="normal" in2="BackgroundImageFix" result="effect1_dropShadow_3597_4069" />
<feBlend mode="normal" in="SourceGraphic" in2="effect1_dropShadow_3597_4069" result="shape" />
</filter>
<filter xmlns="http://www.w3.org/2000/svg" id="filter1_d_3597_4069" x="564" y="1637" width="24" height="24" filterUnits="userSpaceOnUse" color-interpolation-filters="sRGB">
<feFlood flood-opacity="0" result="BackgroundImageFix" />
<feColorMatrix in="SourceAlpha" type="matrix" values="0 0 0 0 0 0 0 0 0 0 0 0 0 0 0 0 0 0 127 0" result="hardAlpha" />
<feOffset dy="1" />
<feGaussianBlur stdDeviation="0.5" />
<feColorMatrix type="matrix" values="0 0 0 0 0 0 0 0 0 0 0 0 0 0 0 0 0 0 0.2 0" />
<feBlend mode="normal" in2="BackgroundImageFix" result="effect1_dropShadow_3597_4069" />
<feBlend mode="normal" in="SourceGraphic" in2="effect1_dropShadow_3597_4069" result="shape" />
</filter>
<filter xmlns="http://www.w3.org/2000/svg" id="filter2_d_3597_4069" x="645" y="1638" width="22" height="22" filterUnits="userSpaceOnUse" color-interpolation-filters="sRGB">
<feFlood flood-opacity="0" result="BackgroundImageFix" />
<feColorMatrix in="SourceAlpha" type="matrix" values="0 0 0 0 0 0 0 0 0 0 0 0 0 0 0 0 0 0 127 0" result="hardAlpha" />
<feOffset dy="1" />
<feGaussianBlur stdDeviation="0.5" />
<feColorMatrix type="matrix" values="0 0 0 0 0 0 0 0 0 0 0 0 0 0 0 0 0 0 0.2 0" />
<feBlend mode="normal" in2="BackgroundImageFix" result="effect1_dropShadow_3597_4069" />
<feBlend mode="normal" in="SourceGraphic" in2="effect1_dropShadow_3597_4069" result="shape" />
</filter>
<filter xmlns="http://www.w3.org/2000/svg" id="filter3_d_3597_4069" x="724.634" y="1637.24" width="22.434" height="24.379" filterUnits="userSpaceOnUse" color-interpolation-filters="sRGB">
<feFlood flood-opacity="0" result="BackgroundImageFix" />
<feColorMatrix in="SourceAlpha" type="matrix" values="0 0 0 0 0 0 0 0 0 0 0 0 0 0 0 0 0 0 127 0" result="hardAlpha" />
<feOffset dy="1" />
<feGaussianBlur stdDeviation="0.5" />
<feColorMatrix type="matrix" values="0 0 0 0 0 0 0 0 0 0 0 0 0 0 0 0 0 0 0.2 0" />
<feBlend mode="normal" in2="BackgroundImageFix" result="effect1_dropShadow_3597_4069" />
<feBlend mode="normal" in="SourceGraphic" in2="effect1_dropShadow_3597_4069" result="shape" />
</filter>
<filter xmlns="http://www.w3.org/2000/svg" id="filter4_d_3597_4069" x="799.419" y="1632.42" width="28.5812" height="28.5812" filterUnits="userSpaceOnUse" color-interpolation-filters="sRGB">
<feFlood flood-opacity="0" result="BackgroundImageFix" />
<feColorMatrix in="SourceAlpha" type="matrix" values="0 0 0 0 0 0 0 0 0 0 0 0 0 0 0 0 0 0 127 0" result="hardAlpha" />
<feOffset dy="1" />
<feGaussianBlur stdDeviation="0.5" />
<feColorMatrix type="matrix" values="0 0 0 0 0 0 0 0 0 0 0 0 0 0 0 0 0 0 0.2 0" />
<feBlend mode="normal" in2="BackgroundImageFix" result="effect1_dropShadow_3597_4069" />
<feBlend mode="normal" in="SourceGraphic" in2="effect1_dropShadow_3597_4069" result="shape" />
</filter>
<filter xmlns="http://www.w3.org/2000/svg" id="filter5_d_3597_4069" x="879.419" y="1632.42" width="26.7811" height="29.5812" filterUnits="userSpaceOnUse" color-interpolation-filters="sRGB">
<feFlood flood-opacity="0" result="BackgroundImageFix" />
<feColorMatrix in="SourceAlpha" type="matrix" values="0 0 0 0 0 0 0 0 0 0 0 0 0 0 0 0 0 0 127 0" result="hardAlpha" />
<feOffset dy="1" />
<feGaussianBlur stdDeviation="0.5" />
<feColorMatrix type="matrix" values="0 0 0 0 0 0 0 0 0 0 0 0 0 0 0 0 0 0 0.2 0" />
<feBlend mode="normal" in2="BackgroundImageFix" result="effect1_dropShadow_3597_4069" />
<feBlend mode="normal" in="SourceGraphic" in2="effect1_dropShadow_3597_4069" result="shape" />
</filter>
<filter xmlns="http://www.w3.org/2000/svg" id="filter6_d_3597_4069" x="960" y="1633" width="22" height="22" filterUnits="userSpaceOnUse" color-interpolation-filters="sRGB">
<feFlood flood-opacity="0" result="BackgroundImageFix" />
<feColorMatrix in="SourceAlpha" type="matrix" values="0 0 0 0 0 0 0 0 0 0 0 0 0 0 0 0 0 0 127 0" result="hardAlpha" />
<feOffset dy="1" />
<feGaussianBlur stdDeviation="0.5" />
<feColorMatrix type="matrix" values="0 0 0 0 0 0 0 0 0 0 0 0 0 0 0 0 0 0 0.2 0" />
<feBlend mode="normal" in2="BackgroundImageFix" result="effect1_dropShadow_3597_4069" />
<feBlend mode="normal" in="SourceGraphic" in2="effect1_dropShadow_3597_4069" result="shape" />
</filter>
<filter xmlns="http://www.w3.org/2000/svg" id="filter7_d_3597_4069" x="551.419" y="1712.42" width="18.7434" height="18.7434" filterUnits="userSpaceOnUse" color-interpolation-filters="sRGB">
<feFlood flood-opacity="0" result="BackgroundImageFix" />
<feColorMatrix in="SourceAlpha" type="matrix" values="0 0 0 0 0 0 0 0 0 0 0 0 0 0 0 0 0 0 127 0" result="hardAlpha" />
<feOffset dy="1" />
<feGaussianBlur stdDeviation="0.5" />
<feColorMatrix type="matrix" values="0 0 0 0 0 0 0 0 0 0 0 0 0 0 0 0 0 0 0.2 0" />
<feBlend mode="normal" in2="BackgroundImageFix" result="effect1_dropShadow_3597_4069" />
<feBlend mode="normal" in="SourceGraphic" in2="effect1_dropShadow_3597_4069" result="shape" />
</filter>
<filter xmlns="http://www.w3.org/2000/svg" id="filter8_d_3597_4069" x="641" y="1722" width="14" height="14" filterUnits="userSpaceOnUse" color-interpolation-filters="sRGB">
<feFlood flood-opacity="0" result="BackgroundImageFix" />
<feColorMatrix in="SourceAlpha" type="matrix" values="0 0 0 0 0 0 0 0 0 0 0 0 0 0 0 0 0 0 127 0" result="hardAlpha" />
<feOffset dy="1" />
<feGaussianBlur stdDeviation="0.5" />
<feColorMatrix type="matrix" values="0 0 0 0 0 0 0 0 0 0 0 0 0 0 0 0 0 0 0.2 0" />
<feBlend mode="normal" in2="BackgroundImageFix" result="effect1_dropShadow_3597_4069" />
<feBlend mode="normal" in="SourceGraphic" in2="effect1_dropShadow_3597_4069" result="shape" />
</filter>
<filter xmlns="http://www.w3.org/2000/svg" id="filter9_d_3597_4069" x="716.585" y="1718.74" width="22.3209" height="22.8601" filterUnits="userSpaceOnUse" color-interpolation-filters="sRGB">
<feFlood flood-opacity="0" result="BackgroundImageFix" />
<feColorMatrix in="SourceAlpha" type="matrix" values="0 0 0 0 0 0 0 0 0 0 0 0 0 0 0 0 0 0 127 0" result="hardAlpha" />
<feOffset dy="1" />
<feGaussianBlur stdDeviation="0.5" />
<feColorMatrix type="matrix" values="0 0 0 0 0 0 0 0 0 0 0 0 0 0 0 0 0 0 0.2 0" />
<feBlend mode="normal" in2="BackgroundImageFix" result="effect1_dropShadow_3597_4069" />
<feBlend mode="normal" in="SourceGraphic" in2="effect1_dropShadow_3597_4069" result="shape" />
</filter>
<filter xmlns="http://www.w3.org/2000/svg" id="filter10_d_3597_4069" x="797.906" y="1723.32" width="20.5729" height="18.4579" filterUnits="userSpaceOnUse" color-interpolation-filters="sRGB">
<feFlood flood-opacity="0" result="BackgroundImageFix" />
<feColorMatrix in="SourceAlpha" type="matrix" values="0 0 0 0 0 0 0 0 0 0 0 0 0 0 0 0 0 0 127 0" result="hardAlpha" />
<feOffset dy="1" />
<feGaussianBlur stdDeviation="0.5" />
<feColorMatrix type="matrix" values="0 0 0 0 0 0 0 0 0 0 0 0 0 0 0 0 0 0 0.2 0" />
<feBlend mode="normal" in2="BackgroundImageFix" result="effect1_dropShadow_3597_4069" />
<feBlend mode="normal" in="SourceGraphic" in2="effect1_dropShadow_3597_4069" result="shape" />
</filter>
<filter xmlns="http://www.w3.org/2000/svg" id="filter11_d_3597_4069" x="871.419" y="1712.42" width="28.5812" height="22.5812" filterUnits="userSpaceOnUse" color-interpolation-filters="sRGB">
<feFlood flood-opacity="0" result="BackgroundImageFix" />
<feColorMatrix in="SourceAlpha" type="matrix" values="0 0 0 0 0 0 0 0 0 0 0 0 0 0 0 0 0 0 127 0" result="hardAlpha" />
<feOffset dy="1" />
<feGaussianBlur stdDeviation="0.5" />
<feColorMatrix type="matrix" values="0 0 0 0 0 0 0 0 0 0 0 0 0 0 0 0 0 0 0.2 0" />
<feBlend mode="normal" in2="BackgroundImageFix" result="effect1_dropShadow_3597_4069" />
<feBlend mode="normal" in="SourceGraphic" in2="effect1_dropShadow_3597_4069" result="shape" />
</filter>
<filter xmlns="http://www.w3.org/2000/svg" id="filter12_d_3597_4069" x="951.419" y="1712.42" width="29.5811" height="30.5812" filterUnits="userSpaceOnUse" color-interpolation-filters="sRGB">
<feFlood flood-opacity="0" result="BackgroundImageFix" />
<feColorMatrix in="SourceAlpha" type="matrix" values="0 0 0 0 0 0 0 0 0 0 0 0 0 0 0 0 0 0 127 0" result="hardAlpha" />
<feOffset dy="1" />
<feGaussianBlur stdDeviation="0.5" />
<feColorMatrix type="matrix" values="0 0 0 0 0 0 0 0 0 0 0 0 0 0 0 0 0 0 0.2 0" />
<feBlend mode="normal" in2="BackgroundImageFix" result="effect1_dropShadow_3597_4069" />
<feBlend mode="normal" in="SourceGraphic" in2="effect1_dropShadow_3597_4069" result="shape" />
</filter>
<clipPath xmlns="http://www.w3.org/2000/svg" id="clip0_3597_4069">
<rect width="32" height="32" fill="white" transform="translate(128 2432)" />
</clipPath>
<clipPath xmlns="http://www.w3.org/2000/svg" id="clip1_3597_4069">
<rect width="24" height="24" fill="white" transform="translate(120 4008)" />
</clipPath>
<clipPath xmlns="http://www.w3.org/2000/svg" id="clip2_3597_4069">
<rect width="24" height="24" fill="white" transform="translate(624 4152)" />
</clipPath>
<clipPath xmlns="http://www.w3.org/2000/svg" id="clip3_3597_4069">
<rect width="24" height="24" fill="white" transform="translate(192 4368)" />
</clipPath>
<clipPath xmlns="http://www.w3.org/2000/svg" id="clip4_3597_4069">
<rect width="24" height="24" fill="white" transform="translate(408 4512)" />
</clipPath>
<clipPath xmlns="http://www.w3.org/2000/svg" id="clip5_3597_4069">
<rect width="24" height="24" fill="white" transform="translate(480 4656)" />
</clipPath>
<clipPath xmlns="http://www.w3.org/2000/svg" id="clip6_3597_4069">
<rect width="24" height="24" fill="white" transform="translate(624 4800)" />
</clipPath>
<clipPath xmlns="http://www.w3.org/2000/svg" id="clip7_3597_4069">
<rect width="24" height="24" fill="white" transform="translate(624 5016)" />
</clipPath>
<clipPath xmlns="http://www.w3.org/2000/svg" id="clip8_3597_4069">
<rect width="24" height="24" fill="white" transform="translate(840.004 7680)" />
</clipPath>

  </defs>
<path xmlns="http://www.w3.org/2000/svg" fill-rule="evenodd" clip-rule="evenodd" d="M68 4081H52L52 4103H68V4081ZM52 4080C51.4477 4080 51 4080.45 51 4081L51 4103C51 4103.55 51.4477 4104 52 4104H68C68.5523 4104 69 4103.55 69 4103V4081C69 4080.45 68.5523 4080 68 4080H52Z" fill="#3D3D3D" />
<path xmlns="http://www.w3.org/2000/svg" d="M59.72 4088.31C60.184 4088.31 60.596 4088.38 60.956 4088.53C61.316 4088.67 61.6 4088.88 61.808 4089.16C62.016 4089.44 62.12 4089.77 62.12 4090.17C62.12 4090.72 61.956 4091.19 61.628 4091.56C61.3 4091.94 60.892 4092.27 60.404 4092.55L62.072 4094.17C62.232 4093.9 62.372 4093.61 62.492 4093.32C62.612 4093.01 62.712 4092.71 62.792 4092.4H64.652C64.532 4092.85 64.356 4093.33 64.124 4093.84C63.892 4094.36 63.596 4094.84 63.236 4095.28L65 4097H62.792L62.12 4096.34C61.944 4096.46 61.76 4096.57 61.568 4096.66C61.376 4096.76 61.176 4096.84 60.968 4096.92C60.76 4096.98 60.54 4097.03 60.308 4097.06C60.076 4097.1 59.836 4097.12 59.588 4097.12C58.94 4097.12 58.384 4097.02 57.92 4096.82C57.456 4096.61 57.1 4096.32 56.852 4095.96C56.604 4095.59 56.48 4095.16 56.48 4094.68C56.48 4094.28 56.54 4093.93 56.66 4093.64C56.788 4093.34 56.968 4093.09 57.2 4092.87C57.44 4092.65 57.724 4092.44 58.052 4092.26C57.844 4092.02 57.676 4091.8 57.548 4091.59C57.428 4091.37 57.34 4091.16 57.284 4090.95C57.236 4090.74 57.212 4090.52 57.212 4090.29C57.212 4089.88 57.316 4089.53 57.524 4089.24C57.74 4088.94 58.036 4088.71 58.412 4088.55C58.796 4088.39 59.232 4088.31 59.72 4088.31ZM59.096 4093.33C58.944 4093.44 58.812 4093.56 58.7 4093.68C58.596 4093.8 58.512 4093.92 58.448 4094.06C58.392 4094.2 58.364 4094.35 58.364 4094.52C58.364 4094.86 58.492 4095.13 58.748 4095.33C59.004 4095.52 59.324 4095.62 59.708 4095.62C59.964 4095.62 60.204 4095.59 60.428 4095.52C60.652 4095.46 60.856 4095.37 61.04 4095.26L59.096 4093.33ZM59.708 4089.69C59.508 4089.69 59.316 4089.74 59.132 4089.85C58.956 4089.94 58.868 4090.13 58.868 4090.41C58.868 4090.61 58.916 4090.8 59.012 4090.99C59.116 4091.17 59.252 4091.36 59.42 4091.55C59.756 4091.37 60.012 4091.18 60.188 4091C60.372 4090.82 60.464 4090.6 60.464 4090.36C60.464 4090.12 60.384 4089.95 60.224 4089.85C60.064 4089.74 59.892 4089.69 59.708 4089.69Z" fill="#3D3D3D" />
<path xmlns="http://www.w3.org/2000/svg" fill-rule="evenodd" clip-rule="evenodd" d="M52 4081H68V4103H52V4081ZM60.956 4088.53C60.596 4088.38 60.184 4088.31 59.72 4088.31C59.232 4088.31 58.796 4088.39 58.412 4088.55C58.036 4088.71 57.74 4088.94 57.524 4089.24C57.316 4089.53 57.212 4089.88 57.212 4090.29C57.212 4090.52 57.236 4090.74 57.284 4090.95C57.34 4091.16 57.428 4091.37 57.548 4091.59C57.676 4091.8 57.844 4092.02 58.052 4092.26C57.724 4092.44 57.44 4092.65 57.2 4092.87C56.968 4093.09 56.788 4093.34 56.66 4093.64C56.54 4093.93 56.48 4094.28 56.48 4094.68C56.48 4095.16 56.604 4095.59 56.852 4095.96C57.1 4096.32 57.456 4096.61 57.92 4096.82C58.384 4097.02 58.94 4097.12 59.588 4097.12C59.836 4097.12 60.076 4097.1 60.308 4097.06C60.54 4097.03 60.76 4096.98 60.968 4096.92C61.176 4096.84 61.376 4096.76 61.568 4096.66C61.76 4096.57 61.944 4096.46 62.12 4096.34L62.792 4097H65L63.236 4095.28C63.596 4094.84 63.892 4094.36 64.124 4093.84C64.356 4093.33 64.532 4092.85 64.652 4092.4H62.792C62.712 4092.71 62.612 4093.01 62.492 4093.32C62.372 4093.61 62.232 4093.9 62.072 4094.17L60.404 4092.55C60.892 4092.27 61.3 4091.94 61.628 4091.56C61.956 4091.19 62.12 4090.72 62.12 4090.17C62.12 4089.77 62.016 4089.44 61.808 4089.16C61.6 4088.88 61.316 4088.67 60.956 4088.53ZM59.096 4093.33C58.944 4093.44 58.812 4093.56 58.7 4093.68C58.596 4093.8 58.512 4093.92 58.448 4094.06C58.392 4094.2 58.364 4094.35 58.364 4094.52C58.364 4094.86 58.492 4095.13 58.748 4095.33C59.004 4095.52 59.324 4095.62 59.708 4095.62C59.964 4095.62 60.204 4095.59 60.428 4095.52C60.652 4095.46 60.856 4095.37 61.04 4095.26L59.096 4093.33ZM59.708 4089.69C59.508 4089.69 59.316 4089.74 59.132 4089.85C58.956 4089.94 58.868 4090.13 58.868 4090.41C58.868 4090.61 58.916 4090.8 59.012 4090.99C59.116 4091.17 59.252 4091.36 59.42 4091.55C59.756 4091.37 60.012 4091.18 60.188 4091C60.372 4090.82 60.464 4090.6 60.464 4090.36C60.464 4090.12 60.384 4089.95 60.224 4089.85C60.064 4089.74 59.892 4089.69 59.708 4089.69Z" fill="white" />

</svg>
