<svg width="24" height="24" viewBox="552 3000 24 24" fill="none" xmlns="http://www.w3.org/2000/svg">
  <defs>
<filter xmlns="http://www.w3.org/2000/svg" id="filter0_d_3597_4069" x="479.7" y="1631.75" width="16.1285" height="19.9741" filterUnits="userSpaceOnUse" color-interpolation-filters="sRGB">
<feFlood flood-opacity="0" result="BackgroundImageFix" />
<feColorMatrix in="SourceAlpha" type="matrix" values="0 0 0 0 0 0 0 0 0 0 0 0 0 0 0 0 0 0 127 0" result="hardAlpha" />
<feOffset dy="1" />
<feGaussianBlur stdDeviation="0.5" />
<feColorMatrix type="matrix" values="0 0 0 0 0 0 0 0 0 0 0 0 0 0 0 0 0 0 0.2 0" />
<feBlend mode="normal" in2="BackgroundImageFix" result="effect1_dropShadow_3597_4069" />
<feBlend mode="normal" in="SourceGraphic" in2="effect1_dropShadow_3597_4069" result="shape" />
</filter>
<filter xmlns="http://www.w3.org/2000/svg" id="filter1_d_3597_4069" x="564" y="1637" width="24" height="24" filterUnits="userSpaceOnUse" color-interpolation-filters="sRGB">
<feFlood flood-opacity="0" result="BackgroundImageFix" />
<feColorMatrix in="SourceAlpha" type="matrix" values="0 0 0 0 0 0 0 0 0 0 0 0 0 0 0 0 0 0 127 0" result="hardAlpha" />
<feOffset dy="1" />
<feGaussianBlur stdDeviation="0.5" />
<feColorMatrix type="matrix" values="0 0 0 0 0 0 0 0 0 0 0 0 0 0 0 0 0 0 0.2 0" />
<feBlend mode="normal" in2="BackgroundImageFix" result="effect1_dropShadow_3597_4069" />
<feBlend mode="normal" in="SourceGraphic" in2="effect1_dropShadow_3597_4069" result="shape" />
</filter>
<filter xmlns="http://www.w3.org/2000/svg" id="filter2_d_3597_4069" x="645" y="1638" width="22" height="22" filterUnits="userSpaceOnUse" color-interpolation-filters="sRGB">
<feFlood flood-opacity="0" result="BackgroundImageFix" />
<feColorMatrix in="SourceAlpha" type="matrix" values="0 0 0 0 0 0 0 0 0 0 0 0 0 0 0 0 0 0 127 0" result="hardAlpha" />
<feOffset dy="1" />
<feGaussianBlur stdDeviation="0.5" />
<feColorMatrix type="matrix" values="0 0 0 0 0 0 0 0 0 0 0 0 0 0 0 0 0 0 0.2 0" />
<feBlend mode="normal" in2="BackgroundImageFix" result="effect1_dropShadow_3597_4069" />
<feBlend mode="normal" in="SourceGraphic" in2="effect1_dropShadow_3597_4069" result="shape" />
</filter>
<filter xmlns="http://www.w3.org/2000/svg" id="filter3_d_3597_4069" x="724.634" y="1637.24" width="22.434" height="24.379" filterUnits="userSpaceOnUse" color-interpolation-filters="sRGB">
<feFlood flood-opacity="0" result="BackgroundImageFix" />
<feColorMatrix in="SourceAlpha" type="matrix" values="0 0 0 0 0 0 0 0 0 0 0 0 0 0 0 0 0 0 127 0" result="hardAlpha" />
<feOffset dy="1" />
<feGaussianBlur stdDeviation="0.5" />
<feColorMatrix type="matrix" values="0 0 0 0 0 0 0 0 0 0 0 0 0 0 0 0 0 0 0.2 0" />
<feBlend mode="normal" in2="BackgroundImageFix" result="effect1_dropShadow_3597_4069" />
<feBlend mode="normal" in="SourceGraphic" in2="effect1_dropShadow_3597_4069" result="shape" />
</filter>
<filter xmlns="http://www.w3.org/2000/svg" id="filter4_d_3597_4069" x="799.419" y="1632.42" width="28.5812" height="28.5812" filterUnits="userSpaceOnUse" color-interpolation-filters="sRGB">
<feFlood flood-opacity="0" result="BackgroundImageFix" />
<feColorMatrix in="SourceAlpha" type="matrix" values="0 0 0 0 0 0 0 0 0 0 0 0 0 0 0 0 0 0 127 0" result="hardAlpha" />
<feOffset dy="1" />
<feGaussianBlur stdDeviation="0.5" />
<feColorMatrix type="matrix" values="0 0 0 0 0 0 0 0 0 0 0 0 0 0 0 0 0 0 0.2 0" />
<feBlend mode="normal" in2="BackgroundImageFix" result="effect1_dropShadow_3597_4069" />
<feBlend mode="normal" in="SourceGraphic" in2="effect1_dropShadow_3597_4069" result="shape" />
</filter>
<filter xmlns="http://www.w3.org/2000/svg" id="filter5_d_3597_4069" x="879.419" y="1632.42" width="26.7811" height="29.5812" filterUnits="userSpaceOnUse" color-interpolation-filters="sRGB">
<feFlood flood-opacity="0" result="BackgroundImageFix" />
<feColorMatrix in="SourceAlpha" type="matrix" values="0 0 0 0 0 0 0 0 0 0 0 0 0 0 0 0 0 0 127 0" result="hardAlpha" />
<feOffset dy="1" />
<feGaussianBlur stdDeviation="0.5" />
<feColorMatrix type="matrix" values="0 0 0 0 0 0 0 0 0 0 0 0 0 0 0 0 0 0 0.2 0" />
<feBlend mode="normal" in2="BackgroundImageFix" result="effect1_dropShadow_3597_4069" />
<feBlend mode="normal" in="SourceGraphic" in2="effect1_dropShadow_3597_4069" result="shape" />
</filter>
<filter xmlns="http://www.w3.org/2000/svg" id="filter6_d_3597_4069" x="960" y="1633" width="22" height="22" filterUnits="userSpaceOnUse" color-interpolation-filters="sRGB">
<feFlood flood-opacity="0" result="BackgroundImageFix" />
<feColorMatrix in="SourceAlpha" type="matrix" values="0 0 0 0 0 0 0 0 0 0 0 0 0 0 0 0 0 0 127 0" result="hardAlpha" />
<feOffset dy="1" />
<feGaussianBlur stdDeviation="0.5" />
<feColorMatrix type="matrix" values="0 0 0 0 0 0 0 0 0 0 0 0 0 0 0 0 0 0 0.2 0" />
<feBlend mode="normal" in2="BackgroundImageFix" result="effect1_dropShadow_3597_4069" />
<feBlend mode="normal" in="SourceGraphic" in2="effect1_dropShadow_3597_4069" result="shape" />
</filter>
<filter xmlns="http://www.w3.org/2000/svg" id="filter7_d_3597_4069" x="551.419" y="1712.42" width="18.7434" height="18.7434" filterUnits="userSpaceOnUse" color-interpolation-filters="sRGB">
<feFlood flood-opacity="0" result="BackgroundImageFix" />
<feColorMatrix in="SourceAlpha" type="matrix" values="0 0 0 0 0 0 0 0 0 0 0 0 0 0 0 0 0 0 127 0" result="hardAlpha" />
<feOffset dy="1" />
<feGaussianBlur stdDeviation="0.5" />
<feColorMatrix type="matrix" values="0 0 0 0 0 0 0 0 0 0 0 0 0 0 0 0 0 0 0.2 0" />
<feBlend mode="normal" in2="BackgroundImageFix" result="effect1_dropShadow_3597_4069" />
<feBlend mode="normal" in="SourceGraphic" in2="effect1_dropShadow_3597_4069" result="shape" />
</filter>
<filter xmlns="http://www.w3.org/2000/svg" id="filter8_d_3597_4069" x="641" y="1722" width="14" height="14" filterUnits="userSpaceOnUse" color-interpolation-filters="sRGB">
<feFlood flood-opacity="0" result="BackgroundImageFix" />
<feColorMatrix in="SourceAlpha" type="matrix" values="0 0 0 0 0 0 0 0 0 0 0 0 0 0 0 0 0 0 127 0" result="hardAlpha" />
<feOffset dy="1" />
<feGaussianBlur stdDeviation="0.5" />
<feColorMatrix type="matrix" values="0 0 0 0 0 0 0 0 0 0 0 0 0 0 0 0 0 0 0.2 0" />
<feBlend mode="normal" in2="BackgroundImageFix" result="effect1_dropShadow_3597_4069" />
<feBlend mode="normal" in="SourceGraphic" in2="effect1_dropShadow_3597_4069" result="shape" />
</filter>
<filter xmlns="http://www.w3.org/2000/svg" id="filter9_d_3597_4069" x="716.585" y="1718.74" width="22.3209" height="22.8601" filterUnits="userSpaceOnUse" color-interpolation-filters="sRGB">
<feFlood flood-opacity="0" result="BackgroundImageFix" />
<feColorMatrix in="SourceAlpha" type="matrix" values="0 0 0 0 0 0 0 0 0 0 0 0 0 0 0 0 0 0 127 0" result="hardAlpha" />
<feOffset dy="1" />
<feGaussianBlur stdDeviation="0.5" />
<feColorMatrix type="matrix" values="0 0 0 0 0 0 0 0 0 0 0 0 0 0 0 0 0 0 0.2 0" />
<feBlend mode="normal" in2="BackgroundImageFix" result="effect1_dropShadow_3597_4069" />
<feBlend mode="normal" in="SourceGraphic" in2="effect1_dropShadow_3597_4069" result="shape" />
</filter>
<filter xmlns="http://www.w3.org/2000/svg" id="filter10_d_3597_4069" x="797.906" y="1723.32" width="20.5729" height="18.4579" filterUnits="userSpaceOnUse" color-interpolation-filters="sRGB">
<feFlood flood-opacity="0" result="BackgroundImageFix" />
<feColorMatrix in="SourceAlpha" type="matrix" values="0 0 0 0 0 0 0 0 0 0 0 0 0 0 0 0 0 0 127 0" result="hardAlpha" />
<feOffset dy="1" />
<feGaussianBlur stdDeviation="0.5" />
<feColorMatrix type="matrix" values="0 0 0 0 0 0 0 0 0 0 0 0 0 0 0 0 0 0 0.2 0" />
<feBlend mode="normal" in2="BackgroundImageFix" result="effect1_dropShadow_3597_4069" />
<feBlend mode="normal" in="SourceGraphic" in2="effect1_dropShadow_3597_4069" result="shape" />
</filter>
<filter xmlns="http://www.w3.org/2000/svg" id="filter11_d_3597_4069" x="871.419" y="1712.42" width="28.5812" height="22.5812" filterUnits="userSpaceOnUse" color-interpolation-filters="sRGB">
<feFlood flood-opacity="0" result="BackgroundImageFix" />
<feColorMatrix in="SourceAlpha" type="matrix" values="0 0 0 0 0 0 0 0 0 0 0 0 0 0 0 0 0 0 127 0" result="hardAlpha" />
<feOffset dy="1" />
<feGaussianBlur stdDeviation="0.5" />
<feColorMatrix type="matrix" values="0 0 0 0 0 0 0 0 0 0 0 0 0 0 0 0 0 0 0.2 0" />
<feBlend mode="normal" in2="BackgroundImageFix" result="effect1_dropShadow_3597_4069" />
<feBlend mode="normal" in="SourceGraphic" in2="effect1_dropShadow_3597_4069" result="shape" />
</filter>
<filter xmlns="http://www.w3.org/2000/svg" id="filter12_d_3597_4069" x="951.419" y="1712.42" width="29.5811" height="30.5812" filterUnits="userSpaceOnUse" color-interpolation-filters="sRGB">
<feFlood flood-opacity="0" result="BackgroundImageFix" />
<feColorMatrix in="SourceAlpha" type="matrix" values="0 0 0 0 0 0 0 0 0 0 0 0 0 0 0 0 0 0 127 0" result="hardAlpha" />
<feOffset dy="1" />
<feGaussianBlur stdDeviation="0.5" />
<feColorMatrix type="matrix" values="0 0 0 0 0 0 0 0 0 0 0 0 0 0 0 0 0 0 0.2 0" />
<feBlend mode="normal" in2="BackgroundImageFix" result="effect1_dropShadow_3597_4069" />
<feBlend mode="normal" in="SourceGraphic" in2="effect1_dropShadow_3597_4069" result="shape" />
</filter>
<clipPath xmlns="http://www.w3.org/2000/svg" id="clip0_3597_4069">
<rect width="32" height="32" fill="white" transform="translate(128 2432)" />
</clipPath>
<clipPath xmlns="http://www.w3.org/2000/svg" id="clip1_3597_4069">
<rect width="24" height="24" fill="white" transform="translate(120 4008)" />
</clipPath>
<clipPath xmlns="http://www.w3.org/2000/svg" id="clip2_3597_4069">
<rect width="24" height="24" fill="white" transform="translate(624 4152)" />
</clipPath>
<clipPath xmlns="http://www.w3.org/2000/svg" id="clip3_3597_4069">
<rect width="24" height="24" fill="white" transform="translate(192 4368)" />
</clipPath>
<clipPath xmlns="http://www.w3.org/2000/svg" id="clip4_3597_4069">
<rect width="24" height="24" fill="white" transform="translate(408 4512)" />
</clipPath>
<clipPath xmlns="http://www.w3.org/2000/svg" id="clip5_3597_4069">
<rect width="24" height="24" fill="white" transform="translate(480 4656)" />
</clipPath>
<clipPath xmlns="http://www.w3.org/2000/svg" id="clip6_3597_4069">
<rect width="24" height="24" fill="white" transform="translate(624 4800)" />
</clipPath>
<clipPath xmlns="http://www.w3.org/2000/svg" id="clip7_3597_4069">
<rect width="24" height="24" fill="white" transform="translate(624 5016)" />
</clipPath>
<clipPath xmlns="http://www.w3.org/2000/svg" id="clip8_3597_4069">
<rect width="24" height="24" fill="white" transform="translate(840.004 7680)" />
</clipPath>

  </defs>
<path xmlns="http://www.w3.org/2000/svg" d="M554 3019.9C553.681 3019.7 553.572 3019.24 553.756 3018.89L554.179 3018.07H553.333C552.965 3018.07 552.667 3017.74 552.667 3017.33C552.667 3016.92 552.965 3016.59 553.333 3016.59H554.179L553.756 3015.78C553.572 3015.42 553.681 3014.97 554 3014.77C554.319 3014.56 554.727 3014.68 554.911 3015.04L555.333 3015.85L555.756 3015.04C555.94 3014.68 556.348 3014.56 556.667 3014.77C556.986 3014.97 557.095 3015.42 556.911 3015.78L556.488 3016.59H557.333C557.701 3016.59 558 3016.92 558 3017.33C558 3017.74 557.701 3018.07 557.333 3018.07H556.488L556.911 3018.89C557.095 3019.24 556.986 3019.7 556.667 3019.9C556.348 3020.11 555.94 3019.98 555.756 3019.63L555.333 3018.82L554.911 3019.63C554.727 3019.98 554.319 3020.11 554 3019.9Z" fill="#1F1F1F" />
<path xmlns="http://www.w3.org/2000/svg" d="M611.333 3019.23C611.015 3019.03 610.905 3018.58 611.089 3018.22L611.512 3017.41H610.667C610.298 3017.41 610 3017.08 610 3016.67C610 3016.26 610.298 3015.93 610.667 3015.93H611.512L611.089 3015.11C610.905 3014.76 611.015 3014.3 611.333 3014.1C611.652 3013.89 612.06 3014.02 612.244 3014.37L612.667 3015.18L613.089 3014.37C613.273 3014.02 613.681 3013.89 614 3014.1C614.319 3014.3 614.428 3014.76 614.244 3015.11L613.821 3015.93H614.667C615.035 3015.93 615.333 3016.26 615.333 3016.67C615.333 3017.08 615.035 3017.41 614.667 3017.41H613.821L614.244 3018.22C614.428 3018.58 614.319 3019.03 614 3019.23C613.681 3019.44 613.273 3019.32 613.089 3018.96L612.667 3018.15L612.244 3018.96C612.06 3019.32 611.652 3019.44 611.333 3019.23Z" fill="#1F1F1F" />
<path xmlns="http://www.w3.org/2000/svg" d="M616.667 3022.57C616.348 3022.36 616.239 3021.91 616.423 3021.55L616.845 3020.74H616C615.632 3020.74 615.333 3020.41 615.333 3020C615.333 3019.59 615.632 3019.26 616 3019.26H616.845L616.423 3018.45C616.239 3018.09 616.348 3017.64 616.667 3017.43C616.986 3017.23 617.393 3017.35 617.577 3017.7L618 3018.52L618.423 3017.7C618.607 3017.35 619.015 3017.23 619.333 3017.43C619.652 3017.64 619.761 3018.09 619.577 3018.45L619.155 3019.26H620C620.368 3019.26 620.667 3019.59 620.667 3020C620.667 3020.41 620.368 3020.74 620 3020.74H619.155L619.577 3021.55C619.761 3021.91 619.652 3022.36 619.333 3022.57C619.015 3022.77 618.607 3022.65 618.423 3022.3L618 3021.48L617.577 3022.3C617.393 3022.65 616.986 3022.77 616.667 3022.57Z" fill="#1F1F1F" />

</svg>
