<?xml version='1.0' encoding='utf-8'?>
<svg xmlns="http://www.w3.org/2000/svg" xmlns:xlink="http://www.w3.org/1999/xlink" width="48.0" height="48.0" viewBox="0 0 48.0 48.0" fill="none">
  <defs><clipPath id="clip__asset"><rect x="0" y="0" width="48.0" height="48.0"/></clipPath><mask id="path-317-inside-58_1702_11540" fill="white">
<path d="M4329 449.6C4329 446.24 4329 444.56 4329.65 443.276C4330.23 442.147 4331.15 441.229 4332.28 440.654C4333.56 440 4335.24 440 4338.6 440H4365.4C4368.76 440 4370.44 440 4371.72 440.654C4372.85 441.229 4373.77 442.147 4374.35 443.276C4375 444.56 4375 446.24 4375 449.6V462.4C4375 465.76 4375 467.44 4374.35 468.724C4373.77 469.853 4372.85 470.771 4371.72 471.346C4370.44 472 4368.76 472 4365.4 472H4338.6C4335.24 472 4333.56 472 4332.28 471.346C4331.15 470.771 4330.23 469.853 4329.65 468.724C4329 467.44 4329 465.76 4329 462.4V449.6Z" id="n348"/>
</mask>
<mask id="path-319-outside-59_1702_11540" maskUnits="userSpaceOnUse" x="4327" y="438" width="50" height="36" fill="black">
<rect fill="white" x="4327" y="438" width="50" height="36" id="n351"/>
<path d="M4329 449.6C4329 446.24 4329 444.56 4329.65 443.276C4330.23 442.147 4331.15 441.229 4332.28 440.654C4333.56 440 4335.24 440 4338.6 440H4365.4C4368.76 440 4370.44 440 4371.72 440.654C4372.85 441.229 4373.77 442.147 4374.35 443.276C4375 444.56 4375 446.24 4375 449.6V462.4C4375 465.76 4375 467.44 4374.35 468.724C4373.77 469.853 4372.85 470.771 4371.72 471.346C4370.44 472 4368.76 472 4365.4 472H4338.6C4335.24 472 4333.56 472 4332.28 471.346C4331.15 470.771 4330.23 469.853 4329.65 468.724C4329 467.44 4329 465.76 4329 462.4V449.6Z" id="n352"/>
</mask>
</defs>
  <g clip-path="url(#clip__asset)" transform="translate(-4328.0 -432.0)"><path d="M4329 449.6C4329 446.24 4329 444.56 4329.65 443.276C4330.23 442.147 4331.15 441.229 4332.28 440.654C4333.56 440 4335.24 440 4338.6 440H4365.4C4368.76 440 4370.44 440 4371.72 440.654C4372.85 441.229 4373.77 442.147 4374.35 443.276C4375 444.56 4375 446.24 4375 449.6V462.4C4375 465.76 4375 467.44 4374.35 468.724C4373.77 469.853 4372.85 470.771 4371.72 471.346C4370.44 472 4368.76 472 4365.4 472H4338.6C4335.24 472 4333.56 472 4332.28 471.346C4331.15 470.771 4330.23 469.853 4329.65 468.724C4329 467.44 4329 465.76 4329 462.4V449.6Z" fill="#00805E" id="n349"/>
<path d="M4332.28 471.346L4332.73 470.455L4332.28 471.346ZM4374.35 468.724L4373.46 468.27L4374.35 468.724ZM4371.72 471.346L4372.18 472.237L4371.72 471.346ZM4371.72 440.654L4372.18 439.763L4371.72 440.654ZM4374.35 443.276L4373.46 443.73L4374.35 443.276ZM4338.6 441H4365.4V439H4338.6V441ZM4374 449.6V462.4H4376V449.6H4374ZM4365.4 471H4338.6V473H4365.4V471ZM4330 462.4V449.6H4328V462.4H4330ZM4338.6 471C4336.9 471 4335.69 470.999 4334.74 470.922C4333.8 470.845 4333.21 470.698 4332.73 470.455L4331.82 472.237C4332.63 472.648 4333.52 472.828 4334.58 472.915C4335.63 473.001 4336.94 473 4338.6 473V471ZM4328 462.4C4328 464.064 4328 465.372 4328.09 466.422C4328.17 467.485 4328.35 468.372 4328.76 469.178L4330.54 468.27C4330.3 467.793 4330.16 467.198 4330.08 466.259C4330 465.309 4330 464.097 4330 462.4H4328ZM4332.73 470.455C4331.79 469.976 4331.02 469.211 4330.54 468.27L4328.76 469.178C4329.43 470.495 4330.5 471.566 4331.82 472.237L4332.73 470.455ZM4374 462.4C4374 464.097 4374 465.309 4373.92 466.259C4373.84 467.198 4373.7 467.793 4373.46 468.27L4375.24 469.178C4375.65 468.372 4375.83 467.485 4375.91 466.422C4376 465.372 4376 464.064 4376 462.4H4374ZM4365.4 473C4367.06 473 4368.37 473.001 4369.42 472.915C4370.48 472.828 4371.37 472.648 4372.18 472.237L4371.27 470.455C4370.79 470.698 4370.2 470.845 4369.26 470.922C4368.31 470.999 4367.1 471 4365.4 471V473ZM4373.46 468.27C4372.98 469.211 4372.21 469.976 4371.27 470.455L4372.18 472.237C4373.5 471.566 4374.57 470.495 4375.24 469.178L4373.46 468.27ZM4365.4 441C4367.1 441 4368.31 441.001 4369.26 441.078C4370.2 441.155 4370.79 441.302 4371.27 441.545L4372.18 439.763C4371.37 439.352 4370.48 439.172 4369.42 439.085C4368.37 438.999 4367.06 439 4365.4 439V441ZM4376 449.6C4376 447.936 4376 446.628 4375.91 445.578C4375.83 444.515 4375.65 443.628 4375.24 442.822L4373.46 443.73C4373.7 444.207 4373.84 444.802 4373.92 445.741C4374 446.691 4374 447.903 4374 449.6H4376ZM4371.27 441.545C4372.21 442.024 4372.98 442.789 4373.46 443.73L4375.24 442.822C4374.57 441.505 4373.5 440.434 4372.18 439.763L4371.27 441.545ZM4338.6 439C4336.94 439 4335.63 438.999 4334.58 439.085C4333.52 439.172 4332.63 439.352 4331.82 439.763L4332.73 441.545C4333.21 441.302 4333.8 441.155 4334.74 441.078C4335.69 441.001 4336.9 441 4338.6 441V439ZM4330 449.6C4330 447.903 4330 446.691 4330.08 445.741C4330.16 444.802 4330.3 444.207 4330.54 443.73L4328.76 442.822C4328.35 443.628 4328.17 444.515 4328.09 445.578C4328 446.628 4328 447.936 4328 449.6H4330ZM4331.82 439.763C4330.5 440.434 4329.43 441.505 4328.76 442.822L4330.54 443.73C4331.02 442.789 4331.79 442.024 4332.73 441.545L4331.82 439.763Z" fill="#00805E" mask="url(#path-317-inside-58_1702_11540)" id="n350"/>
<path d="M4332.28 471.346L4333.18 469.564L4332.28 471.346ZM4374.35 468.724L4372.56 467.816L4374.35 468.724ZM4371.72 471.346L4372.63 473.128L4371.72 471.346ZM4371.72 440.654L4372.63 438.872L4371.72 440.654ZM4374.35 443.276L4372.56 444.184L4374.35 443.276ZM4338.6 440V442H4365.4V440V438H4338.6V440ZM4375 449.6H4373V462.4H4375H4377V449.6H4375ZM4365.4 472V470H4338.6V472V474H4365.4V472ZM4329 462.4H4331V449.6H4329H4327V462.4H4329ZM4338.6 472V470C4336.89 470 4335.72 469.998 4334.82 469.925C4333.95 469.853 4333.5 469.723 4333.18 469.564L4332.28 471.346L4331.37 473.128C4332.34 473.623 4333.37 473.82 4334.5 473.912C4335.6 474.002 4336.95 474 4338.6 474V472ZM4329 462.4H4327C4327 464.047 4327 465.403 4327.09 466.504C4327.18 467.628 4327.38 468.661 4327.87 469.632L4329.65 468.724L4331.44 467.816C4331.28 467.503 4331.15 467.055 4331.08 466.178C4331 465.278 4331 464.113 4331 462.4H4329ZM4332.28 471.346L4333.18 469.564C4332.43 469.181 4331.82 468.569 4331.44 467.816L4329.65 468.724L4327.87 469.632C4328.64 471.137 4329.86 472.361 4331.37 473.128L4332.28 471.346ZM4375 462.4H4373C4373 464.113 4373 465.278 4372.92 466.178C4372.85 467.055 4372.72 467.503 4372.56 467.816L4374.35 468.724L4376.13 469.632C4376.62 468.661 4376.82 467.628 4376.91 466.504C4377 465.403 4377 464.047 4377 462.4H4375ZM4365.4 472V474C4367.05 474 4368.4 474.002 4369.5 473.912C4370.63 473.82 4371.66 473.623 4372.63 473.128L4371.72 471.346L4370.82 469.564C4370.5 469.723 4370.05 469.853 4369.18 469.925C4368.28 469.998 4367.11 470 4365.4 470V472ZM4374.35 468.724L4372.56 467.816C4372.18 468.569 4371.57 469.181 4370.82 469.564L4371.72 471.346L4372.63 473.128C4374.14 472.361 4375.36 471.137 4376.13 469.632L4374.35 468.724ZM4365.4 440V442C4367.11 442 4368.28 442.002 4369.18 442.075C4370.05 442.147 4370.5 442.277 4370.82 442.436L4371.72 440.654L4372.63 438.872C4371.66 438.377 4370.63 438.18 4369.5 438.088C4368.4 437.998 4367.05 438 4365.4 438V440ZM4375 449.6H4377C4377 447.953 4377 446.597 4376.91 445.496C4376.82 444.372 4376.62 443.339 4376.13 442.368L4374.35 443.276L4372.56 444.184C4372.72 444.497 4372.85 444.945 4372.92 445.822C4373 446.722 4373 447.887 4373 449.6H4375ZM4371.72 440.654L4370.82 442.436C4371.57 442.819 4372.18 443.431 4372.56 444.184L4374.35 443.276L4376.13 442.368C4375.36 440.863 4374.14 439.639 4372.63 438.872L4371.72 440.654ZM4338.6 440V438C4336.95 438 4335.6 437.998 4334.5 438.088C4333.37 438.18 4332.34 438.377 4331.37 438.872L4332.28 440.654L4333.18 442.436C4333.5 442.277 4333.95 442.147 4334.82 442.075C4335.72 442.002 4336.89 442 4338.6 442V440ZM4329 449.6H4331C4331 447.887 4331 446.722 4331.08 445.822C4331.15 444.945 4331.28 444.497 4331.44 444.184L4329.65 443.276L4327.87 442.368C4327.38 443.339 4327.18 444.372 4327.09 445.496C4327 446.597 4327 447.953 4327 449.6H4329ZM4332.28 440.654L4331.37 438.872C4329.86 439.639 4328.64 440.863 4327.87 442.368L4329.65 443.276L4331.44 444.184C4331.82 443.431 4332.43 442.819 4333.18 442.436L4332.28 440.654Z" fill="#4271B3" mask="url(#path-319-outside-59_1702_11540)" id="n353"/>
<path d="M4338.6 440.5H4365.4C4367.09 440.5 4368.32 440.5 4369.3 440.58C4370.27 440.659 4370.94 440.815 4371.5 441.1C4372.53 441.627 4373.37 442.468 4373.9 443.503C4374.19 444.062 4374.34 444.731 4374.42 445.7C4374.5 446.676 4374.5 447.912 4374.5 449.6V462.4C4374.5 464.088 4374.5 465.324 4374.42 466.3C4374.34 467.269 4374.19 467.938 4373.9 468.497C4373.37 469.532 4372.53 470.373 4371.5 470.9C4370.94 471.185 4370.27 471.341 4369.3 471.42C4368.32 471.5 4367.09 471.5 4365.4 471.5H4338.6C4336.91 471.5 4335.68 471.5 4334.7 471.42C4333.73 471.341 4333.06 471.185 4332.5 470.9C4331.47 470.373 4330.63 469.532 4330.1 468.497C4329.81 467.938 4329.66 467.269 4329.58 466.3C4329.5 465.324 4329.5 464.088 4329.5 462.4V449.6C4329.5 447.912 4329.5 446.676 4329.58 445.7C4329.66 444.731 4329.81 444.062 4330.1 443.503C4330.63 442.468 4331.47 441.627 4332.5 441.1C4333.06 440.815 4333.73 440.659 4334.7 440.58C4335.68 440.5 4336.91 440.5 4338.6 440.5Z" stroke="#F7F7F7" id="n354"/>
<path fill-rule="evenodd" clip-rule="evenodd" d="M4337 463C4335.9 463 4335 462.105 4335 461V449C4335 447.895 4335.9 447 4337 447H4353C4354.1 447 4355 447.895 4355 449V461C4355 462.105 4354.1 463 4353 463H4348L4345 466L4342 463H4337ZM4345 457.576L4342.32 459.149C4341.94 459.373 4341.48 459.03 4341.58 458.601L4342.28 455.681L4339.94 453.718C4339.6 453.431 4339.78 452.871 4340.22 452.837L4343.33 452.595L4344.54 449.8C4344.72 449.399 4345.28 449.399 4345.46 449.8L4346.67 452.595L4349.78 452.837C4350.22 452.871 4350.4 453.431 4350.06 453.718L4347.72 455.681L4348.42 458.601C4348.52 459.03 4348.06 459.373 4347.68 459.149L4345 457.576Z" fill="white" id="n355"/>
<path d="M4367.03 453.184C4367.03 453.707 4366.93 454.16 4366.73 454.544C4366.53 454.917 4366.24 455.227 4365.88 455.472C4365.52 455.707 4365.1 455.877 4364.62 455.984V456.032C4365.53 456.139 4366.22 456.421 4366.68 456.88C4367.15 457.339 4367.38 457.947 4367.38 458.704C4367.38 459.365 4367.22 459.957 4366.9 460.48C4366.58 461.003 4366.09 461.413 4365.43 461.712C4364.77 462.011 4363.92 462.16 4362.89 462.16C4362.27 462.16 4361.69 462.107 4361.16 462C4360.64 461.904 4360.14 461.749 4359.66 461.536V459.84C4360.15 460.075 4360.66 460.261 4361.21 460.4C4361.75 460.528 4362.27 460.592 4362.76 460.592C4363.7 460.592 4364.37 460.421 4364.76 460.08C4365.15 459.728 4365.35 459.243 4365.35 458.624C4365.35 458.229 4365.25 457.904 4365.05 457.648C4364.85 457.392 4364.53 457.205 4364.09 457.088C4363.65 456.96 4363.09 456.896 4362.39 456.896H4361.42V455.344H4362.41C4363.08 455.344 4363.61 455.269 4363.99 455.12C4364.39 454.96 4364.67 454.741 4364.84 454.464C4365.02 454.187 4365.11 453.867 4365.11 453.504C4365.11 453.035 4364.96 452.667 4364.65 452.4C4364.34 452.133 4363.88 452 4363.27 452C4362.89 452 4362.54 452.043 4362.22 452.128C4361.91 452.213 4361.62 452.325 4361.35 452.464C4361.1 452.603 4360.85 452.747 4360.62 452.896L4359.7 451.568C4359.99 451.355 4360.32 451.163 4360.68 450.992C4361.04 450.811 4361.44 450.672 4361.88 450.576C4362.33 450.469 4362.82 450.416 4363.35 450.416C4364.54 450.416 4365.44 450.667 4366.07 451.168C4366.71 451.669 4367.03 452.341 4367.03 453.184Z" fill="white" id="n356"/>
</g>
</svg>
