<?xml version='1.0' encoding='utf-8'?>
<svg xmlns="http://www.w3.org/2000/svg" xmlns:xlink="http://www.w3.org/1999/xlink" width="48.0" height="48.0" viewBox="0 0 48.0 48.0" fill="none">
  <defs><clipPath id="clip__asset"><rect x="0" y="0" width="48.0" height="48.0"/></clipPath><mask id="path-290-inside-52_1702_11540" fill="white">
<path d="M4225 377.6C4225 374.24 4225 372.56 4225.65 371.276C4226.23 370.147 4227.15 369.229 4228.28 368.654C4229.56 368 4231.24 368 4234.6 368H4261.4C4264.76 368 4266.44 368 4267.72 368.654C4268.85 369.229 4269.77 370.147 4270.35 371.276C4271 372.56 4271 374.24 4271 377.6V390.4C4271 393.76 4271 395.44 4270.35 396.724C4269.77 397.853 4268.85 398.771 4267.72 399.346C4266.44 400 4264.76 400 4261.4 400H4234.6C4231.24 400 4229.56 400 4228.28 399.346C4227.15 398.771 4226.23 397.853 4225.65 396.724C4225 395.44 4225 393.76 4225 390.4V377.6Z" id="n318"/>
</mask>
</defs>
  <g clip-path="url(#clip__asset)" transform="translate(-4224.0 -360.0)"><path d="M4225 377.6C4225 374.24 4225 372.56 4225.65 371.276C4226.23 370.147 4227.15 369.229 4228.28 368.654C4229.56 368 4231.24 368 4234.6 368H4261.4C4264.76 368 4266.44 368 4267.72 368.654C4268.85 369.229 4269.77 370.147 4270.35 371.276C4271 372.56 4271 374.24 4271 377.6V390.4C4271 393.76 4271 395.44 4270.35 396.724C4269.77 397.853 4268.85 398.771 4267.72 399.346C4266.44 400 4264.76 400 4261.4 400H4234.6C4231.24 400 4229.56 400 4228.28 399.346C4227.15 398.771 4226.23 397.853 4225.65 396.724C4225 395.44 4225 393.76 4225 390.4V377.6Z" fill="#DDDDDD" id="n319"/>
<path d="M4228.28 399.346L4228.73 398.455L4228.28 399.346ZM4270.35 396.724L4269.46 396.27L4270.35 396.724ZM4267.72 399.346L4268.18 400.237L4267.72 399.346ZM4267.72 368.654L4268.18 367.763L4267.72 368.654ZM4270.35 371.276L4269.46 371.73L4270.35 371.276ZM4234.6 369H4261.4V367H4234.6V369ZM4270 377.6V390.4H4272V377.6H4270ZM4261.4 399H4234.6V401H4261.4V399ZM4226 390.4V377.6H4224V390.4H4226ZM4234.6 399C4232.9 399 4231.69 398.999 4230.74 398.922C4229.8 398.845 4229.21 398.698 4228.73 398.455L4227.82 400.237C4228.63 400.648 4229.52 400.828 4230.58 400.915C4231.63 401.001 4232.94 401 4234.6 401V399ZM4224 390.4C4224 392.064 4224 393.372 4224.09 394.422C4224.17 395.485 4224.35 396.372 4224.76 397.178L4226.54 396.27C4226.3 395.793 4226.16 395.198 4226.08 394.259C4226 393.309 4226 392.097 4226 390.4H4224ZM4228.73 398.455C4227.79 397.976 4227.02 397.211 4226.54 396.27L4224.76 397.178C4225.43 398.495 4226.5 399.566 4227.82 400.237L4228.73 398.455ZM4270 390.4C4270 392.097 4270 393.309 4269.92 394.259C4269.84 395.198 4269.7 395.793 4269.46 396.27L4271.24 397.178C4271.65 396.372 4271.83 395.485 4271.91 394.422C4272 393.372 4272 392.064 4272 390.4H4270ZM4261.4 401C4263.06 401 4264.37 401.001 4265.42 400.915C4266.48 400.828 4267.37 400.648 4268.18 400.237L4267.27 398.455C4266.79 398.698 4266.2 398.845 4265.26 398.922C4264.31 398.999 4263.1 399 4261.4 399V401ZM4269.46 396.27C4268.98 397.211 4268.21 397.976 4267.27 398.455L4268.18 400.237C4269.5 399.566 4270.57 398.495 4271.24 397.178L4269.46 396.27ZM4261.4 369C4263.1 369 4264.31 369.001 4265.26 369.078C4266.2 369.155 4266.79 369.302 4267.27 369.545L4268.18 367.763C4267.37 367.352 4266.48 367.172 4265.42 367.085C4264.37 366.999 4263.06 367 4261.4 367V369ZM4272 377.6C4272 375.936 4272 374.628 4271.91 373.578C4271.83 372.515 4271.65 371.628 4271.24 370.822L4269.46 371.73C4269.7 372.207 4269.84 372.802 4269.92 373.741C4270 374.691 4270 375.903 4270 377.6H4272ZM4267.27 369.545C4268.21 370.024 4268.98 370.789 4269.46 371.73L4271.24 370.822C4270.57 369.505 4269.5 368.434 4268.18 367.763L4267.27 369.545ZM4234.6 367C4232.94 367 4231.63 366.999 4230.58 367.085C4229.52 367.172 4228.63 367.352 4227.82 367.763L4228.73 369.545C4229.21 369.302 4229.8 369.155 4230.74 369.078C4231.69 369.001 4232.9 369 4234.6 369V367ZM4226 377.6C4226 375.903 4226 374.691 4226.08 373.741C4226.16 372.802 4226.3 372.207 4226.54 371.73L4224.76 370.822C4224.35 371.628 4224.17 372.515 4224.09 373.578C4224 374.628 4224 375.936 4224 377.6H4226ZM4227.82 367.763C4226.5 368.434 4225.43 369.505 4224.76 370.822L4226.54 371.73C4227.02 370.789 4227.79 370.024 4228.73 369.545L4227.82 367.763Z" fill="#BEBEBE" mask="url(#path-290-inside-52_1702_11540)" id="n320"/>
<path fill-rule="evenodd" clip-rule="evenodd" d="M4233 391C4231.9 391 4231 390.105 4231 389V377C4231 375.895 4231.9 375 4233 375H4249C4250.1 375 4251 375.895 4251 377V389C4251 390.105 4250.1 391 4249 391H4244L4241 394L4238 391H4233ZM4241 385.576L4238.32 387.149C4237.94 387.373 4237.48 387.03 4237.58 386.601L4238.28 383.681L4235.94 381.718C4235.6 381.431 4235.78 380.871 4236.22 380.837L4239.33 380.595L4240.54 377.8C4240.72 377.399 4241.28 377.399 4241.46 377.8L4242.67 380.595L4245.78 380.837C4246.22 380.871 4246.4 381.431 4246.06 381.718L4243.72 383.681L4244.42 386.601C4244.52 387.03 4244.06 387.373 4243.68 387.149L4241 385.576Z" fill="#00805E" id="n321"/>
<path d="M4263.03 381.184C4263.03 381.707 4262.93 382.16 4262.73 382.544C4262.53 382.917 4262.24 383.227 4261.88 383.472C4261.52 383.707 4261.1 383.877 4260.62 383.984V384.032C4261.53 384.139 4262.22 384.421 4262.68 384.88C4263.15 385.339 4263.38 385.947 4263.38 386.704C4263.38 387.365 4263.22 387.957 4262.9 388.48C4262.58 389.003 4262.09 389.413 4261.43 389.712C4260.77 390.011 4259.92 390.16 4258.89 390.16C4258.27 390.16 4257.69 390.107 4257.16 390C4256.64 389.904 4256.14 389.749 4255.66 389.536V387.84C4256.15 388.075 4256.66 388.261 4257.21 388.4C4257.75 388.528 4258.27 388.592 4258.76 388.592C4259.7 388.592 4260.37 388.421 4260.76 388.08C4261.15 387.728 4261.35 387.243 4261.35 386.624C4261.35 386.229 4261.25 385.904 4261.05 385.648C4260.85 385.392 4260.53 385.205 4260.09 385.088C4259.65 384.96 4259.09 384.896 4258.39 384.896H4257.42V383.344H4258.41C4259.08 383.344 4259.61 383.269 4259.99 383.12C4260.39 382.96 4260.67 382.741 4260.84 382.464C4261.02 382.187 4261.11 381.867 4261.11 381.504C4261.11 381.035 4260.96 380.667 4260.65 380.4C4260.34 380.133 4259.88 380 4259.27 380C4258.89 380 4258.54 380.043 4258.22 380.128C4257.91 380.213 4257.62 380.325 4257.35 380.464C4257.1 380.603 4256.85 380.747 4256.62 380.896L4255.7 379.568C4255.99 379.355 4256.32 379.163 4256.68 378.992C4257.04 378.811 4257.44 378.672 4257.88 378.576C4258.33 378.469 4258.82 378.416 4259.35 378.416C4260.54 378.416 4261.44 378.667 4262.07 379.168C4262.71 379.669 4263.03 380.341 4263.03 381.184Z" fill="#1F1F1F" id="n322"/>
</g>
</svg>
