<?xml version='1.0' encoding='utf-8'?>
<svg xmlns="http://www.w3.org/2000/svg" xmlns:xlink="http://www.w3.org/1999/xlink" width="109.0" height="48.0" viewBox="0 0 109.0 48.0" fill="none">
  <defs><clipPath id="clip__asset"><rect x="0" y="0" width="109.0" height="48.0"/></clipPath><clipPath id="clip218_68_6728">
<rect width="58" height="32" fill="white" transform="translate(1039 1077)" id="n1570"/>
</clipPath>
<clipPath id="clip219_68_6728">
<rect width="31" height="16" fill="white" transform="translate(1101 1077)" id="n1571"/>
</clipPath>
<clipPath id="clip220_68_6728">
<rect width="23" height="16" fill="white" transform="translate(1101 1093)" id="n1572"/>
</clipPath>
</defs>
  <g clip-path="url(#clip__asset)" transform="translate(-1031.0 -1069.0)"><rect x="1031.5" y="1069.5" width="108" height="47" rx="5.5" fill="#FFD2CB" id="n696"/>
<rect x="1031.5" y="1069.5" width="108" height="47" rx="5.5" stroke="#707070" id="n697"/>
<g clip-path="url(#clip218_68_6728)" id="n698">
<path d="M1051.53 1105H1048.91V1087.69C1048.91 1087.04 1048.91 1086.48 1048.91 1086.03C1048.93 1085.57 1048.94 1085.16 1048.94 1084.77C1048.97 1084.36 1048.99 1083.95 1049.01 1083.55C1048.67 1083.89 1048.36 1084.18 1048.06 1084.43C1047.77 1084.66 1047.4 1084.96 1046.97 1085.35L1044.12 1087.59L1042.72 1085.79L1049.28 1080.72H1051.53V1105ZM1076.13 1105H1060.29V1102.79L1066.81 1096.09C1068.02 1094.89 1069.02 1093.81 1069.84 1092.86C1070.68 1091.91 1071.31 1090.97 1071.74 1090.04C1072.17 1089.11 1072.39 1088.08 1072.39 1086.95C1072.39 1085.56 1071.97 1084.51 1071.13 1083.78C1070.32 1083.04 1069.24 1082.66 1067.9 1082.66C1066.75 1082.66 1065.71 1082.87 1064.81 1083.27C1063.9 1083.68 1062.98 1084.25 1062.05 1084.97L1060.63 1083.17C1061.26 1082.63 1061.95 1082.15 1062.7 1081.74C1063.47 1081.31 1064.29 1080.98 1065.15 1080.76C1066.03 1080.51 1066.95 1080.38 1067.9 1080.38C1069.38 1080.38 1070.64 1080.64 1071.71 1081.17C1072.8 1081.69 1073.64 1082.44 1074.23 1083.41C1074.82 1084.36 1075.11 1085.5 1075.11 1086.81C1075.11 1087.78 1074.96 1088.7 1074.67 1089.56C1074.4 1090.4 1073.99 1091.23 1073.44 1092.05C1072.92 1092.84 1072.28 1093.66 1071.51 1094.49C1070.76 1095.31 1069.93 1096.17 1069.02 1097.08L1063.65 1102.45V1102.55H1076.13V1105ZM1094.2 1086.37C1094.2 1087.46 1093.99 1088.41 1093.56 1089.22C1093.15 1090.02 1092.56 1090.66 1091.79 1091.16C1091.04 1091.66 1090.16 1092.01 1089.14 1092.22V1092.35C1091.06 1092.58 1092.51 1093.19 1093.49 1094.19C1094.46 1095.19 1094.95 1096.5 1094.95 1098.13C1094.95 1099.54 1094.62 1100.78 1093.96 1101.87C1093.31 1102.96 1092.3 1103.81 1090.94 1104.42C1089.6 1105.03 1087.88 1105.34 1085.77 1105.34C1084.48 1105.34 1083.28 1105.24 1082.17 1105.03C1081.08 1104.83 1080.05 1104.49 1079.07 1104.01V1101.5C1080.07 1101.97 1081.16 1102.36 1082.34 1102.65C1083.54 1102.93 1084.69 1103.06 1085.8 1103.06C1088.03 1103.06 1089.64 1102.62 1090.63 1101.74C1091.63 1100.85 1092.13 1099.64 1092.13 1098.1C1092.13 1097.01 1091.86 1096.15 1091.31 1095.51C1090.77 1094.86 1089.98 1094.38 1088.93 1094.09C1087.89 1093.77 1086.64 1093.61 1085.19 1093.61H1082.78V1091.3H1085.23C1086.54 1091.3 1087.65 1091.11 1088.56 1090.72C1089.49 1090.33 1090.2 1089.79 1090.7 1089.09C1091.2 1088.36 1091.45 1087.51 1091.45 1086.54C1091.45 1085.29 1091.03 1084.34 1090.19 1083.68C1089.37 1083 1088.25 1082.66 1086.82 1082.66C1085.96 1082.66 1085.17 1082.75 1084.44 1082.93C1083.74 1083.09 1083.07 1083.33 1082.44 1083.65C1081.83 1083.94 1081.2 1084.31 1080.57 1084.74L1079.24 1082.9C1079.85 1082.45 1080.53 1082.03 1081.28 1081.64C1082.05 1081.26 1082.89 1080.95 1083.8 1080.72C1084.73 1080.5 1085.73 1080.38 1086.79 1080.38C1089.26 1080.38 1091.11 1080.94 1092.33 1082.05C1093.58 1083.16 1094.2 1084.6 1094.2 1086.37Z" fill="#535353" id="n699"/>
</g>
<g clip-path="url(#clip219_68_6728)" id="n700">
<path d="M1102.07 1089V1080.79H1103.47V1087.8H1106.93V1089H1102.07ZM1110.67 1082.66C1111.48 1082.66 1112.08 1082.84 1112.49 1083.18C1112.89 1083.53 1113.1 1084.07 1113.1 1084.81V1089H1112.12L1111.84 1088.14H1111.8C1111.62 1088.36 1111.44 1088.55 1111.25 1088.7C1111.06 1088.85 1110.85 1088.95 1110.6 1089.01C1110.36 1089.08 1110.07 1089.12 1109.73 1089.12C1109.36 1089.12 1109.03 1089.05 1108.73 1088.91C1108.44 1088.77 1108.21 1088.56 1108.04 1088.28C1107.87 1087.99 1107.78 1087.64 1107.78 1087.21C1107.78 1086.56 1108.02 1086.08 1108.5 1085.76C1108.97 1085.43 1109.69 1085.25 1110.66 1085.22L1111.73 1085.18V1084.86C1111.73 1084.45 1111.63 1084.15 1111.43 1083.97C1111.24 1083.8 1110.97 1083.71 1110.61 1083.71C1110.3 1083.71 1110 1083.76 1109.7 1083.85C1109.41 1083.94 1109.13 1084.05 1108.85 1084.18L1108.42 1083.2C1108.72 1083.04 1109.06 1082.91 1109.45 1082.81C1109.84 1082.71 1110.25 1082.66 1110.67 1082.66ZM1110.95 1086.07C1110.29 1086.09 1109.83 1086.2 1109.58 1086.4C1109.32 1086.6 1109.2 1086.87 1109.2 1087.22C1109.2 1087.52 1109.29 1087.73 1109.47 1087.87C1109.66 1088 1109.89 1088.07 1110.18 1088.07C1110.61 1088.07 1110.98 1087.95 1111.28 1087.7C1111.58 1087.45 1111.73 1087.07 1111.73 1086.57V1086.04L1110.95 1086.07ZM1116.31 1082.34C1116.31 1082.59 1116.3 1082.82 1116.28 1083.05C1116.27 1083.28 1116.26 1083.46 1116.25 1083.59H1116.31C1116.48 1083.33 1116.72 1083.12 1117.01 1082.94C1117.31 1082.76 1117.69 1082.66 1118.16 1082.66C1118.88 1082.66 1119.48 1082.94 1119.93 1083.48C1120.38 1084.02 1120.61 1084.82 1120.61 1085.88C1120.61 1086.59 1120.5 1087.18 1120.3 1087.67C1120.09 1088.15 1119.8 1088.51 1119.42 1088.76C1119.05 1089 1118.62 1089.12 1118.12 1089.12C1117.65 1089.12 1117.28 1089.03 1117 1088.86C1116.71 1088.69 1116.48 1088.49 1116.31 1088.26H1116.21L1115.96 1089H1114.93V1080.26H1116.31V1082.34ZM1117.78 1083.78C1117.42 1083.78 1117.13 1083.85 1116.91 1084C1116.7 1084.14 1116.55 1084.36 1116.45 1084.65C1116.36 1084.94 1116.31 1085.32 1116.31 1085.77V1085.88C1116.31 1086.56 1116.41 1087.08 1116.63 1087.45C1116.84 1087.81 1117.23 1087.99 1117.8 1087.99C1118.25 1087.99 1118.6 1087.81 1118.84 1087.45C1119.07 1087.08 1119.19 1086.55 1119.19 1085.86C1119.19 1085.17 1119.07 1084.65 1118.82 1084.31C1118.59 1083.96 1118.24 1083.78 1117.78 1083.78ZM1124.6 1082.66C1125.15 1082.66 1125.62 1082.78 1126.02 1083.01C1126.43 1083.23 1126.74 1083.55 1126.95 1083.97C1127.17 1084.39 1127.28 1084.89 1127.28 1085.48V1086.21H1123.15C1123.16 1086.79 1123.32 1087.24 1123.63 1087.56C1123.94 1087.88 1124.36 1088.03 1124.91 1088.03C1125.31 1088.03 1125.66 1088 1125.98 1087.92C1126.3 1087.84 1126.63 1087.73 1126.97 1087.57V1088.69C1126.65 1088.84 1126.33 1088.94 1126 1089.01C1125.68 1089.08 1125.29 1089.12 1124.84 1089.12C1124.23 1089.12 1123.7 1089 1123.23 1088.77C1122.76 1088.53 1122.4 1088.18 1122.14 1087.7C1121.88 1087.23 1121.74 1086.63 1121.74 1085.93C1121.74 1085.22 1121.86 1084.63 1122.1 1084.15C1122.34 1083.66 1122.67 1083.3 1123.1 1083.04C1123.53 1082.79 1124.03 1082.66 1124.6 1082.66ZM1124.6 1083.7C1124.19 1083.7 1123.86 1083.83 1123.62 1084.09C1123.37 1084.34 1123.23 1084.72 1123.18 1085.23H1125.93C1125.93 1084.92 1125.88 1084.66 1125.78 1084.43C1125.69 1084.2 1125.54 1084.02 1125.34 1083.89C1125.15 1083.76 1124.9 1083.7 1124.6 1083.7ZM1130.13 1089H1128.75V1080.26H1130.13V1089Z" fill="#535353" id="n701"/>
</g>
<g clip-path="url(#clip220_68_6728)" id="n702">
<path d="M1108.33 1102.1C1108.33 1102.68 1108.21 1103.21 1107.97 1103.67C1107.74 1104.12 1107.39 1104.47 1106.91 1104.74C1106.44 1104.99 1105.86 1105.12 1105.15 1105.12C1104.14 1105.12 1103.37 1104.84 1102.84 1104.3C1102.31 1103.75 1102.05 1103.01 1102.05 1102.08V1096.79H1102.97V1102.1C1102.97 1102.81 1103.15 1103.35 1103.53 1103.73C1103.91 1104.12 1104.46 1104.31 1105.2 1104.31C1105.7 1104.31 1106.12 1104.22 1106.44 1104.03C1106.77 1103.85 1107.01 1103.6 1107.16 1103.27C1107.33 1102.95 1107.41 1102.56 1107.41 1102.11V1096.79H1108.33V1102.1ZM1113.25 1098.73C1113.97 1098.73 1114.52 1098.91 1114.9 1099.27C1115.27 1099.63 1115.46 1100.2 1115.46 1100.99V1105H1114.56V1101.06C1114.56 1100.53 1114.45 1100.14 1114.21 1099.88C1113.97 1099.63 1113.61 1099.5 1113.13 1099.5C1112.44 1099.5 1111.96 1099.69 1111.68 1100.08C1111.39 1100.46 1111.25 1101.02 1111.25 1101.76V1105H1110.36V1098.85H1111.08L1111.22 1099.76H1111.26C1111.4 1099.53 1111.57 1099.35 1111.77 1099.2C1111.97 1099.05 1112.2 1098.94 1112.45 1098.86C1112.7 1098.77 1112.97 1098.73 1113.25 1098.73ZM1118.28 1098.85V1105H1117.39V1098.85H1118.28ZM1117.85 1096.55C1118 1096.55 1118.13 1096.6 1118.23 1096.7C1118.33 1096.8 1118.39 1096.95 1118.39 1097.16C1118.39 1097.35 1118.33 1097.5 1118.23 1097.61C1118.13 1097.71 1118 1097.75 1117.85 1097.75C1117.68 1097.75 1117.55 1097.71 1117.44 1097.61C1117.34 1097.5 1117.29 1097.35 1117.29 1097.16C1117.29 1096.95 1117.34 1096.8 1117.44 1096.7C1117.55 1096.6 1117.68 1096.55 1117.85 1096.55ZM1122.22 1104.37C1122.38 1104.37 1122.53 1104.36 1122.69 1104.33C1122.85 1104.3 1122.98 1104.27 1123.09 1104.24V1104.93C1122.97 1104.98 1122.82 1105.03 1122.63 1105.06C1122.45 1105.1 1122.26 1105.12 1122.07 1105.12C1121.74 1105.12 1121.45 1105.06 1121.19 1104.94C1120.93 1104.83 1120.72 1104.64 1120.56 1104.37C1120.41 1104.09 1120.33 1103.71 1120.33 1103.23V1099.56H1119.44V1099.11L1120.34 1098.77L1120.69 1097.42H1121.24V1098.85H1123.04V1099.56H1121.24V1103.21C1121.24 1103.6 1121.32 1103.89 1121.49 1104.08C1121.67 1104.27 1121.91 1104.37 1122.22 1104.37Z" fill="#535353" id="n703"/>
</g>
</g>
</svg>
