<?xml version='1.0' encoding='utf-8'?>
<svg xmlns="http://www.w3.org/2000/svg" xmlns:xlink="http://www.w3.org/1999/xlink" width="109.0" height="48.0" viewBox="0 0 109.0 48.0" fill="none">
  <defs><clipPath id="clip__asset"><rect x="0" y="0" width="109.0" height="48.0"/></clipPath><clipPath id="clip215_68_6728">
<rect width="58" height="32" fill="white" transform="translate(1039 913)" id="n1567"/>
</clipPath>
<clipPath id="clip216_68_6728">
<rect width="31" height="16" fill="white" transform="translate(1101 913)" id="n1568"/>
</clipPath>
<clipPath id="clip217_68_6728">
<rect width="23" height="16" fill="white" transform="translate(1101 929)" id="n1569"/>
</clipPath>
</defs>
  <g clip-path="url(#clip__asset)" transform="translate(-1031.0 -905.0)"><rect x="1031.5" y="905.5" width="108" height="47" rx="5.5" fill="#FFF088" id="n688"/>
<rect x="1031.5" y="905.5" width="108" height="47" rx="5.5" stroke="#707070" id="n689"/>
<g clip-path="url(#clip215_68_6728)" id="n690">
<path d="M1051.53 941H1048.91V923.694C1048.91 923.037 1048.91 922.481 1048.91 922.028C1048.93 921.575 1048.94 921.155 1048.94 920.77C1048.97 920.362 1048.99 919.954 1049.01 919.546C1048.67 919.886 1048.36 920.181 1048.06 920.43C1047.77 920.657 1047.4 920.963 1046.97 921.348L1044.12 923.592L1042.72 921.79L1049.28 916.724H1051.53V941ZM1076.13 941H1060.29V938.79L1066.81 932.092C1068.02 930.891 1069.02 929.814 1069.84 928.862C1070.68 927.91 1071.31 926.969 1071.74 926.04C1072.17 925.111 1072.39 924.079 1072.39 922.946C1072.39 921.563 1071.97 920.509 1071.13 919.784C1070.32 919.036 1069.24 918.662 1067.9 918.662C1066.75 918.662 1065.71 918.866 1064.81 919.274C1063.9 919.682 1062.98 920.249 1062.05 920.974L1060.63 919.172C1061.26 918.628 1061.95 918.152 1062.7 917.744C1063.47 917.313 1064.29 916.985 1065.15 916.758C1066.03 916.509 1066.95 916.384 1067.9 916.384C1069.38 916.384 1070.64 916.645 1071.71 917.166C1072.8 917.687 1073.64 918.435 1074.23 919.41C1074.82 920.362 1075.11 921.495 1075.11 922.81C1075.11 923.785 1074.96 924.703 1074.67 925.564C1074.4 926.403 1073.99 927.23 1073.44 928.046C1072.92 928.839 1072.28 929.655 1071.51 930.494C1070.76 931.31 1069.93 932.171 1069.02 933.078L1063.65 938.45V938.552H1076.13V941ZM1094.2 922.368C1094.2 923.456 1093.99 924.408 1093.56 925.224C1093.15 926.017 1092.56 926.663 1091.79 927.162C1091.04 927.661 1090.16 928.012 1089.14 928.216V928.352C1091.06 928.579 1092.51 929.191 1093.49 930.188C1094.46 931.185 1094.95 932.5 1094.95 934.132C1094.95 935.537 1094.62 936.784 1093.96 937.872C1093.31 938.96 1092.3 939.81 1090.94 940.422C1089.6 941.034 1087.88 941.34 1085.77 941.34C1084.48 941.34 1083.28 941.238 1082.17 941.034C1081.08 940.83 1080.05 940.49 1079.07 940.014V937.498C1080.07 937.974 1081.16 938.359 1082.34 938.654C1083.54 938.926 1084.69 939.062 1085.8 939.062C1088.03 939.062 1089.64 938.62 1090.63 937.736C1091.63 936.852 1092.13 935.639 1092.13 934.098C1092.13 933.01 1091.86 932.149 1091.31 931.514C1090.77 930.857 1089.98 930.381 1088.93 930.086C1087.89 929.769 1086.64 929.61 1085.19 929.61H1082.78V927.298H1085.23C1086.54 927.298 1087.65 927.105 1088.56 926.72C1089.49 926.335 1090.2 925.791 1090.7 925.088C1091.2 924.363 1091.45 923.513 1091.45 922.538C1091.45 921.291 1091.03 920.339 1090.19 919.682C1089.37 919.002 1088.25 918.662 1086.82 918.662C1085.96 918.662 1085.17 918.753 1084.44 918.934C1083.74 919.093 1083.07 919.331 1082.44 919.648C1081.83 919.943 1081.2 920.305 1080.57 920.736L1079.24 918.9C1079.85 918.447 1080.53 918.027 1081.28 917.642C1082.05 917.257 1082.89 916.951 1083.8 916.724C1084.73 916.497 1085.73 916.384 1086.79 916.384C1089.26 916.384 1091.11 916.939 1092.33 918.05C1093.58 919.161 1094.2 920.6 1094.2 922.368Z" fill="#535353" id="n691"/>
</g>
<g clip-path="url(#clip216_68_6728)" id="n692">
<path d="M1102.07 925V916.789H1103.47V923.804H1106.93V925H1102.07ZM1110.67 918.664C1111.48 918.664 1112.08 918.836 1112.49 919.181C1112.89 919.526 1113.1 920.07 1113.1 920.814V925H1112.12L1111.84 924.137H1111.8C1111.62 924.36 1111.44 924.548 1111.25 924.701C1111.06 924.847 1110.85 924.95 1110.6 925.012C1110.36 925.081 1110.07 925.115 1109.73 925.115C1109.36 925.115 1109.03 925.046 1108.73 924.908C1108.44 924.77 1108.21 924.559 1108.04 924.275C1107.87 923.992 1107.78 923.635 1107.78 923.206C1107.78 922.562 1108.02 922.079 1108.5 921.757C1108.97 921.427 1109.69 921.247 1110.66 921.216L1111.73 921.182V920.86C1111.73 920.446 1111.63 920.151 1111.43 919.974C1111.24 919.798 1110.97 919.71 1110.61 919.71C1110.3 919.71 1110 919.756 1109.7 919.848C1109.41 919.94 1109.13 920.051 1108.85 920.181L1108.42 919.204C1108.72 919.043 1109.06 918.913 1109.45 918.813C1109.84 918.713 1110.25 918.664 1110.67 918.664ZM1110.95 922.067C1110.29 922.09 1109.83 922.202 1109.58 922.401C1109.32 922.6 1109.2 922.872 1109.2 923.217C1109.2 923.516 1109.29 923.735 1109.47 923.873C1109.66 924.003 1109.89 924.068 1110.18 924.068C1110.61 924.068 1110.98 923.946 1111.28 923.7C1111.58 923.447 1111.73 923.072 1111.73 922.573V922.045L1110.95 922.067ZM1116.31 918.341C1116.31 918.587 1116.3 918.824 1116.28 919.054C1116.27 919.284 1116.26 919.465 1116.25 919.595H1116.31C1116.48 919.334 1116.72 919.116 1117.01 918.939C1117.31 918.755 1117.69 918.664 1118.16 918.664C1118.88 918.664 1119.48 918.936 1119.93 919.48C1120.38 920.017 1120.61 920.818 1120.61 921.883C1120.61 922.589 1120.5 923.183 1120.3 923.666C1120.09 924.149 1119.8 924.513 1119.42 924.758C1119.05 924.996 1118.62 925.115 1118.12 925.115C1117.65 925.115 1117.28 925.031 1117 924.862C1116.71 924.693 1116.48 924.494 1116.31 924.264H1116.21L1115.96 925H1114.93V916.26H1116.31V918.341ZM1117.78 919.779C1117.42 919.779 1117.13 919.852 1116.91 919.997C1116.7 920.143 1116.55 920.362 1116.45 920.653C1116.36 920.944 1116.31 921.316 1116.31 921.768V921.883C1116.31 922.558 1116.41 923.079 1116.63 923.447C1116.84 923.808 1117.23 923.988 1117.8 923.988C1118.25 923.988 1118.6 923.808 1118.84 923.447C1119.07 923.079 1119.19 922.55 1119.19 921.86C1119.19 921.17 1119.07 920.653 1118.82 920.308C1118.59 919.955 1118.24 919.779 1117.78 919.779ZM1124.6 918.664C1125.15 918.664 1125.62 918.778 1126.02 919.008C1126.43 919.231 1126.74 919.553 1126.95 919.974C1127.17 920.388 1127.28 920.891 1127.28 921.481V922.205H1123.15C1123.16 922.788 1123.32 923.24 1123.63 923.562C1123.94 923.877 1124.36 924.034 1124.91 924.034C1125.31 924.034 1125.66 923.996 1125.98 923.919C1126.3 923.842 1126.63 923.727 1126.97 923.574V924.689C1126.65 924.835 1126.33 924.942 1126 925.012C1125.68 925.081 1125.29 925.115 1124.84 925.115C1124.23 925.115 1123.7 925 1123.23 924.77C1122.76 924.532 1122.4 924.176 1122.14 923.7C1121.88 923.225 1121.74 922.635 1121.74 921.929C1121.74 921.224 1121.86 920.63 1122.1 920.147C1122.34 919.664 1122.67 919.296 1123.1 919.043C1123.53 918.79 1124.03 918.664 1124.6 918.664ZM1124.6 919.698C1124.19 919.698 1123.86 919.829 1123.62 920.089C1123.37 920.342 1123.23 920.722 1123.18 921.228H1125.93C1125.93 920.921 1125.88 920.657 1125.78 920.434C1125.69 920.204 1125.54 920.024 1125.34 919.894C1125.15 919.764 1124.9 919.698 1124.6 919.698ZM1130.13 925H1128.75V916.26H1130.13V925Z" fill="#535353" id="n693"/>
</g>
<g clip-path="url(#clip217_68_6728)" id="n694">
<path d="M1108.33 938.102C1108.33 938.685 1108.21 939.206 1107.97 939.666C1107.74 940.118 1107.39 940.475 1106.91 940.735C1106.44 940.988 1105.86 941.115 1105.15 941.115C1104.14 941.115 1103.37 940.843 1102.84 940.298C1102.31 939.746 1102.05 939.007 1102.05 938.079V932.789H1102.97V938.102C1102.97 938.807 1103.15 939.352 1103.53 939.735C1103.91 940.118 1104.46 940.31 1105.2 940.31C1105.7 940.31 1106.12 940.218 1106.44 940.034C1106.77 939.85 1107.01 939.597 1107.16 939.275C1107.33 938.945 1107.41 938.558 1107.41 938.113V932.789H1108.33V938.102ZM1113.25 934.732C1113.97 934.732 1114.52 934.913 1114.9 935.273C1115.27 935.626 1115.46 936.197 1115.46 936.986V941H1114.56V937.055C1114.56 936.526 1114.45 936.135 1114.21 935.882C1113.97 935.629 1113.61 935.503 1113.13 935.503C1112.44 935.503 1111.96 935.695 1111.68 936.078C1111.39 936.461 1111.25 937.021 1111.25 937.757V941H1110.36V934.847H1111.08L1111.22 935.756H1111.26C1111.4 935.534 1111.57 935.35 1111.77 935.204C1111.97 935.051 1112.2 934.936 1112.45 934.859C1112.7 934.775 1112.97 934.732 1113.25 934.732ZM1118.28 934.847V941H1117.39V934.847H1118.28ZM1117.85 932.547C1118 932.547 1118.13 932.597 1118.23 932.697C1118.33 932.797 1118.39 932.95 1118.39 933.157C1118.39 933.349 1118.33 933.498 1118.23 933.605C1118.13 933.705 1118 933.755 1117.85 933.755C1117.68 933.755 1117.55 933.705 1117.44 933.605C1117.34 933.498 1117.29 933.349 1117.29 933.157C1117.29 932.95 1117.34 932.797 1117.44 932.697C1117.55 932.597 1117.68 932.547 1117.85 932.547ZM1122.22 940.367C1122.38 940.367 1122.53 940.356 1122.69 940.333C1122.85 940.302 1122.98 940.272 1123.09 940.241V940.931C1122.97 940.985 1122.82 941.027 1122.63 941.058C1122.45 941.096 1122.26 941.115 1122.07 941.115C1121.74 941.115 1121.45 941.058 1121.19 940.942C1120.93 940.827 1120.72 940.636 1120.56 940.367C1120.41 940.091 1120.33 939.712 1120.33 939.229V935.56H1119.44V935.112L1120.34 934.767L1120.69 933.421H1121.24V934.847H1123.04V935.56H1121.24V939.206C1121.24 939.597 1121.32 939.888 1121.49 940.08C1121.67 940.272 1121.91 940.367 1122.22 940.367Z" fill="#535353" id="n695"/>
</g>
</g>
</svg>
