<?xml version='1.0' encoding='utf-8'?>
<svg xmlns="http://www.w3.org/2000/svg" xmlns:xlink="http://www.w3.org/1999/xlink" width="109.0" height="48.0" viewBox="0 0 109.0 48.0" fill="none">
  <defs><clipPath id="clip__asset"><rect x="0" y="0" width="109.0" height="48.0"/></clipPath><clipPath id="clip221_68_6728">
<rect width="58" height="32" fill="white" transform="translate(1039 421)" id="n1573"/>
</clipPath>
<clipPath id="clip222_68_6728">
<rect width="31" height="16" fill="white" transform="translate(1101 421)" id="n1574"/>
</clipPath>
<clipPath id="clip223_68_6728">
<rect width="23" height="16" fill="white" transform="translate(1101 437)" id="n1575"/>
</clipPath>
</defs>
  <g clip-path="url(#clip__asset)" transform="translate(-1031.0 -413.0)"><g clip-path="url(#clip221_68_6728)" id="n704">
<path d="M1052.72 449H1048.64V433.564C1048.64 433.043 1048.64 432.533 1048.64 432.034C1048.66 431.513 1048.68 431.003 1048.71 430.504C1048.73 429.983 1048.75 429.495 1048.77 429.042C1048.55 429.291 1048.26 429.575 1047.92 429.892C1047.58 430.187 1047.23 430.493 1046.87 430.81L1044.15 432.986L1042.11 430.402L1049.35 424.724H1052.72V449ZM1076.61 449H1060.08V445.94L1066.3 439.65C1067.53 438.403 1068.53 437.338 1069.3 436.454C1070.09 435.547 1070.68 434.697 1071.06 433.904C1071.45 433.111 1071.64 432.238 1071.64 431.286C1071.64 430.153 1071.31 429.303 1070.66 428.736C1070 428.147 1069.14 427.852 1068.07 427.852C1067.01 427.852 1066.03 428.067 1065.15 428.498C1064.26 428.906 1063.35 429.484 1062.39 430.232L1060.18 427.546C1060.84 426.979 1061.56 426.458 1062.33 425.982C1063.1 425.506 1063.96 425.121 1064.91 424.826C1065.88 424.531 1067 424.384 1068.24 424.384C1069.81 424.384 1071.14 424.667 1072.25 425.234C1073.39 425.778 1074.26 426.537 1074.87 427.512C1075.48 428.487 1075.79 429.62 1075.79 430.912C1075.79 431.887 1075.63 432.805 1075.31 433.666C1075.02 434.527 1074.59 435.366 1074.02 436.182C1073.48 436.975 1072.8 437.803 1071.98 438.664C1071.17 439.503 1070.26 440.398 1069.26 441.35L1065.22 445.26V445.43H1076.61V449ZM1094.61 430.266C1094.61 431.377 1094.4 432.34 1093.96 433.156C1093.53 433.949 1092.93 434.607 1092.16 435.128C1091.39 435.627 1090.5 435.989 1089.48 436.216V436.318C1091.43 436.545 1092.89 437.145 1093.86 438.12C1094.86 439.095 1095.36 440.387 1095.36 441.996C1095.36 443.401 1095.02 444.659 1094.34 445.77C1093.66 446.881 1092.62 447.753 1091.21 448.388C1089.81 449.023 1088 449.34 1085.8 449.34C1084.49 449.34 1083.27 449.227 1082.13 449C1081.02 448.796 1079.96 448.467 1078.94 448.014V444.41C1079.98 444.909 1081.08 445.305 1082.23 445.6C1083.39 445.872 1084.49 446.008 1085.53 446.008C1087.53 446.008 1088.94 445.645 1089.78 444.92C1090.62 444.172 1091.04 443.141 1091.04 441.826C1091.04 440.987 1090.83 440.296 1090.39 439.752C1089.96 439.208 1089.28 438.811 1088.35 438.562C1087.43 438.29 1086.22 438.154 1084.75 438.154H1082.68V434.856H1084.78C1086.21 434.856 1087.33 434.697 1088.15 434.38C1088.99 434.04 1089.59 433.575 1089.95 432.986C1090.34 432.397 1090.53 431.717 1090.53 430.946C1090.53 429.949 1090.2 429.167 1089.54 428.6C1088.89 428.033 1087.91 427.75 1086.62 427.75C1085.8 427.75 1085.06 427.841 1084.38 428.022C1083.72 428.203 1083.11 428.441 1082.54 428.736C1082 429.031 1081.48 429.337 1080.98 429.654L1079.04 426.832C1079.65 426.379 1080.34 425.971 1081.11 425.608C1081.88 425.223 1082.73 424.928 1083.66 424.724C1084.61 424.497 1085.66 424.384 1086.79 424.384C1089.31 424.384 1091.23 424.917 1092.57 425.982C1093.93 427.047 1094.61 428.475 1094.61 430.266Z" fill="#2D548B" id="n705"/>
</g>
<g clip-path="url(#clip222_68_6728)" id="n706">
<path d="M1102.07 433V424.789H1103.47V431.804H1106.93V433H1102.07ZM1110.67 426.664C1111.48 426.664 1112.08 426.836 1112.49 427.181C1112.89 427.526 1113.1 428.07 1113.1 428.814V433H1112.12L1111.84 432.137H1111.8C1111.62 432.36 1111.44 432.548 1111.25 432.701C1111.06 432.847 1110.85 432.95 1110.6 433.012C1110.36 433.081 1110.07 433.115 1109.73 433.115C1109.36 433.115 1109.03 433.046 1108.73 432.908C1108.44 432.77 1108.21 432.559 1108.04 432.275C1107.87 431.992 1107.78 431.635 1107.78 431.206C1107.78 430.562 1108.02 430.079 1108.5 429.757C1108.97 429.427 1109.69 429.247 1110.66 429.216L1111.73 429.182V428.86C1111.73 428.446 1111.63 428.151 1111.43 427.974C1111.24 427.798 1110.97 427.71 1110.61 427.71C1110.3 427.71 1110 427.756 1109.7 427.848C1109.41 427.94 1109.13 428.051 1108.85 428.181L1108.42 427.204C1108.72 427.043 1109.06 426.913 1109.45 426.813C1109.84 426.713 1110.25 426.664 1110.67 426.664ZM1110.95 430.067C1110.29 430.09 1109.83 430.202 1109.58 430.401C1109.32 430.6 1109.2 430.872 1109.2 431.217C1109.2 431.516 1109.29 431.735 1109.47 431.873C1109.66 432.003 1109.89 432.068 1110.18 432.068C1110.61 432.068 1110.98 431.946 1111.28 431.7C1111.58 431.447 1111.73 431.072 1111.73 430.573V430.045L1110.95 430.067ZM1116.31 426.341C1116.31 426.587 1116.3 426.824 1116.28 427.054C1116.27 427.284 1116.26 427.465 1116.25 427.595H1116.31C1116.48 427.334 1116.72 427.116 1117.01 426.939C1117.31 426.755 1117.69 426.664 1118.16 426.664C1118.88 426.664 1119.48 426.936 1119.93 427.48C1120.38 428.017 1120.61 428.818 1120.61 429.883C1120.61 430.589 1120.5 431.183 1120.3 431.666C1120.09 432.149 1119.8 432.513 1119.42 432.758C1119.05 432.996 1118.62 433.115 1118.12 433.115C1117.65 433.115 1117.28 433.031 1117 432.862C1116.71 432.693 1116.48 432.494 1116.31 432.264H1116.21L1115.96 433H1114.93V424.26H1116.31V426.341ZM1117.78 427.779C1117.42 427.779 1117.13 427.852 1116.91 427.997C1116.7 428.143 1116.55 428.362 1116.45 428.653C1116.36 428.944 1116.31 429.316 1116.31 429.768V429.883C1116.31 430.558 1116.41 431.079 1116.63 431.447C1116.84 431.808 1117.23 431.988 1117.8 431.988C1118.25 431.988 1118.6 431.808 1118.84 431.447C1119.07 431.079 1119.19 430.55 1119.19 429.86C1119.19 429.17 1119.07 428.653 1118.82 428.308C1118.59 427.955 1118.24 427.779 1117.78 427.779ZM1124.6 426.664C1125.15 426.664 1125.62 426.778 1126.02 427.008C1126.43 427.231 1126.74 427.553 1126.95 427.974C1127.17 428.388 1127.28 428.891 1127.28 429.481V430.205H1123.15C1123.16 430.788 1123.32 431.24 1123.63 431.562C1123.94 431.877 1124.36 432.034 1124.91 432.034C1125.31 432.034 1125.66 431.996 1125.98 431.919C1126.3 431.842 1126.63 431.727 1126.97 431.574V432.689C1126.65 432.835 1126.33 432.942 1126 433.012C1125.68 433.081 1125.29 433.115 1124.84 433.115C1124.23 433.115 1123.7 433 1123.23 432.77C1122.76 432.532 1122.4 432.176 1122.14 431.7C1121.88 431.225 1121.74 430.635 1121.74 429.929C1121.74 429.224 1121.86 428.63 1122.1 428.147C1122.34 427.664 1122.67 427.296 1123.1 427.043C1123.53 426.79 1124.03 426.664 1124.6 426.664ZM1124.6 427.698C1124.19 427.698 1123.86 427.829 1123.62 428.089C1123.37 428.342 1123.23 428.722 1123.18 429.228H1125.93C1125.93 428.921 1125.88 428.657 1125.78 428.434C1125.69 428.204 1125.54 428.024 1125.34 427.894C1125.15 427.764 1124.9 427.698 1124.6 427.698ZM1130.13 433H1128.75V424.26H1130.13V433Z" fill="#535353" id="n707"/>
</g>
<g clip-path="url(#clip223_68_6728)" id="n708">
<path d="M1108.33 446.102C1108.33 446.685 1108.21 447.206 1107.97 447.666C1107.74 448.118 1107.39 448.475 1106.91 448.735C1106.44 448.988 1105.86 449.115 1105.15 449.115C1104.14 449.115 1103.37 448.843 1102.84 448.298C1102.31 447.746 1102.05 447.007 1102.05 446.079V440.789H1102.97V446.102C1102.97 446.807 1103.15 447.352 1103.53 447.735C1103.91 448.118 1104.46 448.31 1105.2 448.31C1105.7 448.31 1106.12 448.218 1106.44 448.034C1106.77 447.85 1107.01 447.597 1107.16 447.275C1107.33 446.945 1107.41 446.558 1107.41 446.113V440.789H1108.33V446.102ZM1113.25 442.732C1113.97 442.732 1114.52 442.913 1114.9 443.273C1115.27 443.626 1115.46 444.197 1115.46 444.986V449H1114.56V445.055C1114.56 444.526 1114.45 444.135 1114.21 443.882C1113.97 443.629 1113.61 443.503 1113.13 443.503C1112.44 443.503 1111.96 443.695 1111.68 444.078C1111.39 444.461 1111.25 445.021 1111.25 445.757V449H1110.36V442.847H1111.08L1111.22 443.756H1111.26C1111.4 443.534 1111.57 443.35 1111.77 443.204C1111.97 443.051 1112.2 442.936 1112.45 442.859C1112.7 442.775 1112.97 442.732 1113.25 442.732ZM1118.28 442.847V449H1117.39V442.847H1118.28ZM1117.85 440.547C1118 440.547 1118.13 440.597 1118.23 440.697C1118.33 440.797 1118.39 440.95 1118.39 441.157C1118.39 441.349 1118.33 441.498 1118.23 441.605C1118.13 441.705 1118 441.755 1117.85 441.755C1117.68 441.755 1117.55 441.705 1117.44 441.605C1117.34 441.498 1117.29 441.349 1117.29 441.157C1117.29 440.95 1117.34 440.797 1117.44 440.697C1117.55 440.597 1117.68 440.547 1117.85 440.547ZM1122.22 448.367C1122.38 448.367 1122.53 448.356 1122.69 448.333C1122.85 448.302 1122.98 448.272 1123.09 448.241V448.931C1122.97 448.985 1122.82 449.027 1122.63 449.058C1122.45 449.096 1122.26 449.115 1122.07 449.115C1121.74 449.115 1121.45 449.058 1121.19 448.942C1120.93 448.827 1120.72 448.636 1120.56 448.367C1120.41 448.091 1120.33 447.712 1120.33 447.229V443.56H1119.44V443.112L1120.34 442.767L1120.69 441.421H1121.24V442.847H1123.04V443.56H1121.24V447.206C1121.24 447.597 1121.32 447.888 1121.49 448.08C1121.67 448.272 1121.91 448.367 1122.22 448.367Z" fill="#535353" id="n709"/>
</g>
</g>
</svg>
