<?xml version='1.0' encoding='utf-8'?>
<svg xmlns="http://www.w3.org/2000/svg" xmlns:xlink="http://www.w3.org/1999/xlink" width="74.0" height="48.0" viewBox="0 0 74.0 48.0" fill="none">
  <defs><clipPath id="clip__asset"><rect x="0" y="0" width="74.0" height="48.0"/></clipPath><clipPath id="clip197_68_6728">
<rect width="28" height="20" fill="white" transform="translate(766 911)" id="n1549"/>
</clipPath>
<clipPath id="clip198_68_6728">
<rect width="31" height="16" fill="white" transform="translate(736 931)" id="n1550"/>
</clipPath>
<clipPath id="clip199_68_6728">
<rect width="23" height="16" fill="white" transform="translate(771 931)" id="n1551"/>
</clipPath>
</defs>
  <g clip-path="url(#clip__asset)" transform="translate(-728.0 -905.0)"><rect x="728.5" y="905.5" width="73" height="47" rx="5.5" fill="#FFF088" id="n648"/>
<rect x="728.5" y="905.5" width="73" height="47" rx="5.5" stroke="#707070" id="n649"/>
<g clip-path="url(#clip197_68_6728)" id="n650">
<path d="M772.131 927H770.899V918.856C770.899 918.547 770.899 918.285 770.899 918.072C770.91 917.859 770.915 917.661 770.915 917.48C770.926 917.288 770.937 917.096 770.947 916.904C770.787 917.064 770.638 917.203 770.499 917.32C770.361 917.427 770.19 917.571 769.987 917.752L768.643 918.808L767.987 917.96L771.075 915.576H772.131V927ZM783.944 927H776.488V925.96L779.56 922.808C780.125 922.243 780.6 921.736 780.984 921.288C781.378 920.84 781.677 920.397 781.88 919.96C782.082 919.523 782.184 919.037 782.184 918.504C782.184 917.853 781.986 917.357 781.592 917.016C781.208 916.664 780.701 916.488 780.072 916.488C779.528 916.488 779.042 916.584 778.616 916.776C778.189 916.968 777.757 917.235 777.32 917.576L776.648 916.728C776.946 916.472 777.272 916.248 777.624 916.056C777.986 915.853 778.37 915.699 778.776 915.592C779.192 915.475 779.624 915.416 780.072 915.416C780.765 915.416 781.362 915.539 781.864 915.784C782.376 916.029 782.77 916.381 783.048 916.84C783.325 917.288 783.464 917.821 783.464 918.44C783.464 918.899 783.394 919.331 783.256 919.736C783.128 920.131 782.936 920.52 782.68 920.904C782.434 921.277 782.13 921.661 781.768 922.056C781.416 922.44 781.026 922.845 780.6 923.272L778.072 925.8V925.848H783.944V927ZM792.684 918.232C792.684 918.744 792.582 919.192 792.38 919.576C792.188 919.949 791.91 920.253 791.548 920.488C791.196 920.723 790.78 920.888 790.3 920.984V921.048C791.206 921.155 791.889 921.443 792.348 921.912C792.806 922.381 793.036 923 793.036 923.768C793.036 924.429 792.881 925.016 792.572 925.528C792.262 926.04 791.788 926.44 791.148 926.728C790.518 927.016 789.708 927.16 788.716 927.16C788.108 927.16 787.542 927.112 787.02 927.016C786.508 926.92 786.022 926.76 785.564 926.536V925.352C786.033 925.576 786.545 925.757 787.1 925.896C787.665 926.024 788.209 926.088 788.732 926.088C789.777 926.088 790.534 925.88 791.004 925.464C791.473 925.048 791.708 924.477 791.708 923.752C791.708 923.24 791.58 922.835 791.324 922.536C791.068 922.227 790.694 922.003 790.204 921.864C789.713 921.715 789.126 921.64 788.444 921.64H787.308V920.552H788.46C789.078 920.552 789.601 920.461 790.028 920.28C790.465 920.099 790.801 919.843 791.036 919.512C791.27 919.171 791.388 918.771 791.388 918.312C791.388 917.725 791.19 917.277 790.796 916.968C790.412 916.648 789.884 916.488 789.212 916.488C788.806 916.488 788.433 916.531 788.092 916.616C787.761 916.691 787.446 916.803 787.148 916.952C786.86 917.091 786.566 917.261 786.268 917.464L785.644 916.6C785.932 916.387 786.252 916.189 786.604 916.008C786.966 915.827 787.361 915.683 787.788 915.576C788.225 915.469 788.694 915.416 789.196 915.416C790.358 915.416 791.228 915.677 791.804 916.2C792.39 916.723 792.684 917.4 792.684 918.232Z" fill="#535353" id="n651"/>
</g>
<g clip-path="url(#clip198_68_6728)" id="n652">
<path d="M737.07 943V934.789H738.473V941.804H741.934V943H737.07ZM745.67 936.664C746.475 936.664 747.081 936.836 747.487 937.181C747.894 937.526 748.097 938.07 748.097 938.814V943H747.119L746.843 942.137H746.797C746.621 942.36 746.437 942.548 746.245 942.701C746.061 942.847 745.847 942.95 745.601 943.012C745.364 943.081 745.072 943.115 744.727 943.115C744.359 943.115 744.026 943.046 743.727 942.908C743.435 942.77 743.205 942.559 743.037 942.275C742.868 941.992 742.784 941.635 742.784 941.206C742.784 940.562 743.021 940.079 743.497 939.757C743.972 939.427 744.693 939.247 745.659 939.216L746.728 939.182V938.86C746.728 938.446 746.629 938.151 746.429 937.974C746.238 937.798 745.965 937.71 745.613 937.71C745.298 937.71 744.996 937.756 744.704 937.848C744.413 937.94 744.129 938.051 743.853 938.181L743.416 937.204C743.715 937.043 744.06 936.913 744.451 936.813C744.842 936.713 745.249 936.664 745.67 936.664ZM745.946 940.067C745.287 940.09 744.831 940.202 744.578 940.401C744.325 940.6 744.198 940.872 744.198 941.217C744.198 941.516 744.29 941.735 744.474 941.873C744.658 942.003 744.892 942.068 745.176 942.068C745.613 942.068 745.981 941.946 746.28 941.7C746.579 941.447 746.728 941.072 746.728 940.573V940.045L745.946 940.067ZM751.305 936.341C751.305 936.587 751.297 936.824 751.282 937.054C751.274 937.284 751.263 937.465 751.248 937.595H751.305C751.481 937.334 751.715 937.116 752.007 936.939C752.306 936.755 752.689 936.664 753.157 936.664C753.885 936.664 754.475 936.936 754.928 937.48C755.38 938.017 755.606 938.818 755.606 939.883C755.606 940.589 755.503 941.183 755.296 941.666C755.089 942.149 754.797 942.513 754.422 942.758C754.054 942.996 753.62 943.115 753.122 943.115C752.654 943.115 752.279 943.031 751.995 942.862C751.711 942.693 751.481 942.494 751.305 942.264H751.213L750.96 943H749.925V934.26H751.305V936.341ZM752.777 937.779C752.417 937.779 752.129 937.852 751.915 937.997C751.7 938.143 751.547 938.362 751.455 938.653C751.363 938.944 751.313 939.316 751.305 939.768V939.883C751.305 940.558 751.412 941.079 751.627 941.447C751.842 941.808 752.233 941.988 752.8 941.988C753.252 941.988 753.597 941.808 753.835 941.447C754.073 941.079 754.192 940.55 754.192 939.86C754.192 939.17 754.069 938.653 753.824 938.308C753.586 937.955 753.237 937.779 752.777 937.779ZM759.597 936.664C760.149 936.664 760.624 936.778 761.023 937.008C761.429 937.231 761.74 937.553 761.954 937.974C762.169 938.388 762.276 938.891 762.276 939.481V940.205H758.148C758.163 940.788 758.324 941.24 758.631 941.562C758.938 941.877 759.363 942.034 759.907 942.034C760.306 942.034 760.663 941.996 760.977 941.919C761.299 941.842 761.629 941.727 761.966 941.574V942.689C761.652 942.835 761.33 942.942 761 943.012C760.678 943.081 760.291 943.115 759.838 943.115C759.233 943.115 758.696 943 758.228 942.77C757.761 942.532 757.397 942.176 757.136 941.7C756.875 941.225 756.745 940.635 756.745 939.929C756.745 939.224 756.864 938.63 757.101 938.147C757.339 937.664 757.673 937.296 758.102 937.043C758.531 936.79 759.03 936.664 759.597 936.664ZM759.597 937.698C759.191 937.698 758.865 937.829 758.619 938.089C758.374 938.342 758.228 938.722 758.182 939.228H760.931C760.931 938.921 760.881 938.657 760.781 938.434C760.689 938.204 760.544 938.024 760.344 937.894C760.153 937.764 759.904 937.698 759.597 937.698ZM765.13 943H763.75V934.26H765.13V943Z" fill="#535353" id="n653"/>
</g>
<g clip-path="url(#clip199_68_6728)" id="n654">
<path d="M778.326 940.102C778.326 940.685 778.207 941.206 777.969 941.666C777.739 942.118 777.386 942.475 776.911 942.735C776.443 942.988 775.857 943.115 775.152 943.115C774.14 943.115 773.369 942.843 772.84 942.298C772.311 941.746 772.047 941.007 772.047 940.079V934.789H772.967V940.102C772.967 940.807 773.154 941.352 773.53 941.735C773.906 942.118 774.462 942.31 775.198 942.31C775.704 942.31 776.118 942.218 776.44 942.034C776.769 941.85 777.011 941.597 777.164 941.275C777.325 940.945 777.406 940.558 777.406 940.113V934.789H778.326V940.102ZM783.254 936.732C783.974 936.732 784.523 936.913 784.898 937.273C785.274 937.626 785.462 938.197 785.462 938.986V943H784.565V939.055C784.565 938.526 784.446 938.135 784.208 937.882C783.971 937.629 783.61 937.503 783.127 937.503C782.445 937.503 781.962 937.695 781.678 938.078C781.395 938.461 781.253 939.021 781.253 939.757V943H780.356V936.847H781.08L781.218 937.756H781.264C781.402 937.534 781.571 937.35 781.77 937.204C781.97 937.051 782.196 936.936 782.449 936.859C782.702 936.775 782.97 936.732 783.254 936.732ZM788.283 936.847V943H787.386V936.847H788.283ZM787.846 934.547C787.999 934.547 788.126 934.597 788.225 934.697C788.333 934.797 788.386 934.95 788.386 935.157C788.386 935.349 788.333 935.498 788.225 935.605C788.126 935.705 787.999 935.755 787.846 935.755C787.685 935.755 787.551 935.705 787.443 935.605C787.344 935.498 787.294 935.349 787.294 935.157C787.294 934.95 787.344 934.797 787.443 934.697C787.551 934.597 787.685 934.547 787.846 934.547ZM792.216 942.367C792.377 942.367 792.534 942.356 792.687 942.333C792.848 942.302 792.983 942.272 793.09 942.241V942.931C792.975 942.985 792.822 943.027 792.63 943.058C792.446 943.096 792.258 943.115 792.066 943.115C791.744 943.115 791.453 943.058 791.192 942.942C790.932 942.827 790.721 942.636 790.56 942.367C790.407 942.091 790.33 941.712 790.33 941.229V937.56H789.444V937.112L790.341 936.767L790.686 935.421H791.238V936.847H793.044V937.56H791.238V941.206C791.238 941.597 791.323 941.888 791.491 942.08C791.668 942.272 791.909 942.367 792.216 942.367Z" fill="#535353" id="n655"/>
</g>
</g>
</svg>
