<?xml version='1.0' encoding='utf-8'?>
<svg xmlns="http://www.w3.org/2000/svg" xmlns:xlink="http://www.w3.org/1999/xlink" width="512.0" height="512.0" viewBox="0 0 512.0 512.0" fill="none">
  <defs><clipPath id="clip__asset"><rect x="0" y="0" width="512.0" height="512.0"/></clipPath><mask id="mask6_68_6728" style="mask-type:alpha" maskUnits="userSpaceOnUse" x="2668" y="216" width="512" height="512">
<path d="M2781.97 554C2796.37 578.931 2817.07 599.634 2842 614.028C2866.93 628.422 2895.21 636 2924 636C2952.79 636 2981.07 628.422 3006 614.028C3030.93 599.634 3051.63 578.931 3066.03 554L2924 472L2781.97 554Z" fill="white" stroke="#BEBEBE" id="n138"/>
</mask>
<mask id="path-114-inside-12_68_6728" fill="white">
<path d="M3072.98 558.012C3074.89 559.117 3075.55 561.569 3074.4 563.457C3043.51 614.151 2987.71 648.001 2924 648.001C2860.29 648.001 2804.49 614.151 2773.6 563.457C2772.45 561.569 2773.11 559.117 2775.02 558.012C2776.94 556.908 2779.38 557.565 2780.53 559.449C2810.03 607.756 2863.25 640.001 2924 640.001C2984.75 640.001 3037.97 607.756 3067.47 559.449C3068.62 557.565 3071.06 556.908 3072.98 558.012Z" id="n142"/>
</mask>
<mask id="mask7_68_6728" style="mask-type:alpha" maskUnits="userSpaceOnUse" x="2668" y="216" width="512" height="512">
<circle cx="2924" cy="472" r="164" fill="white" stroke="black" id="n145"/>
</mask>
<mask id="path-119-inside-13_68_6728" fill="white">
<path d="M2953.87 302.584C2954.26 300.41 2956.33 298.952 2958.5 299.383C2986.68 304.984 3012.45 317.319 3034.04 334.639C3035.76 336.021 3035.98 338.547 3034.56 340.238C3033.14 341.931 3030.62 342.147 3028.89 340.766C3008.36 324.333 2983.89 312.618 2957.11 307.267C2954.95 306.833 2953.49 304.761 2953.87 302.584Z" id="n149"/>
</mask>
<pattern id="pattern1_68_6728" patternUnits="userSpaceOnUse" patternTransform="matrix(8 0 0 16 252 252)" preserveAspectRatio="none" viewBox="0 0 16 32" width="1" height="1">
<use xlink:href="#pattern1_68_6728_inner" transform="translate(-16 0)" id="n2186"/>
<g id="pattern1_68_6728_inner">
<rect x="6" y="6" width="4" height="4" fill="#BEBEBE" id="n2187"/>
</g>
<use xlink:href="#pattern1_68_6728_inner" transform="translate(-8 16)" id="n2188"/>
<use xlink:href="#pattern1_68_6728_inner" transform="translate(8 16)" id="n2189"/>
</pattern><g id="pattern1_68_6728_inner">
<rect x="6" y="6" width="4" height="4" fill="#BEBEBE" id="n2187"/>
</g>
</defs>
  <g clip-path="url(#clip__asset)" transform="translate(-2668.0 -216.0)"><g mask="url(#mask6_68_6728)" id="n139">
<rect width="512" height="512" transform="translate(2668 216)" fill="url(#pattern1_68_6728)" id="n140"/>
<path d="M2702.3 600C2724.77 638.917 2757.08 671.234 2796 693.703C2834.92 716.171 2879.06 728 2924 728C2968.94 728 3013.08 716.171 3052 693.702C3090.92 671.234 3123.23 638.917 3145.7 600L2924 472L2702.3 600Z" stroke="#BEBEBE" id="n141"/>
</g>
<path d="M3072.98 558.012C3074.89 559.117 3075.55 561.569 3074.4 563.457C3043.51 614.151 2987.71 648.001 2924 648.001C2860.29 648.001 2804.49 614.151 2773.6 563.457C2772.45 561.569 2773.11 559.117 2775.02 558.012C2776.94 556.908 2779.38 557.565 2780.53 559.449C2810.03 607.756 2863.25 640.001 2924 640.001C2984.75 640.001 3037.97 607.756 3067.47 559.449C3068.62 557.565 3071.06 556.908 3072.98 558.012Z" fill="#BEBEBE" id="n143"/>
<path d="M2924 648.001V649.001V649.001V648.001ZM2924 640.001V641.001V641.001V640.001ZM3067.47 559.449L3066.62 558.928L3067.47 559.449ZM3072.98 558.012L3073.48 557.146L3072.98 558.012ZM3074.4 563.457L3075.25 563.978L3074.4 563.457ZM3074.4 563.457L3073.54 562.937C3042.83 613.345 2987.34 647.001 2924 647.001V648.001V649.001C2988.07 649.001 3044.19 614.957 3075.25 563.978L3074.4 563.457ZM2924 648.001V647.001C2860.66 647.001 2805.17 613.345 2774.46 562.937L2773.6 563.457L2772.75 563.978C2803.81 614.957 2859.93 649.001 2924 649.001V648.001ZM2780.53 559.449L2779.67 559.971C2809.36 608.563 2862.89 641.001 2924 641.001V640.001V639.001C2863.61 639.001 2810.71 606.95 2781.38 558.928L2780.53 559.449ZM2924 640.001V641.001C2985.11 641.001 3038.64 608.562 3068.33 559.971L3067.47 559.449L3066.62 558.928C3037.29 606.95 2984.39 639.001 2924 639.001V640.001ZM2775.02 558.012L2775.52 558.878C2776.95 558.053 2778.8 558.536 2779.67 559.971L2780.53 559.449L2781.38 558.928C2779.96 556.594 2776.92 555.763 2774.52 557.146L2775.02 558.012ZM2773.6 563.457L2774.46 562.937C2773.6 561.541 2774.08 559.71 2775.52 558.878L2775.02 558.012L2774.52 557.146C2772.14 558.524 2771.3 561.598 2772.75 563.978L2773.6 563.457ZM3067.47 559.449L3068.33 559.971C3069.2 558.536 3071.05 558.053 3072.48 558.878L3072.98 558.012L3073.48 557.146C3071.08 555.763 3068.04 556.594 3066.62 558.928L3067.47 559.449ZM3074.4 563.457L3075.25 563.978C3076.7 561.598 3075.86 558.524 3073.48 557.146L3072.98 558.012L3072.48 558.878C3073.92 559.71 3074.4 561.541 3073.54 562.937L3074.4 563.457Z" fill="#BEBEBE" mask="url(#path-114-inside-12_68_6728)" id="n144"/>
<g mask="url(#mask7_68_6728)" id="n146">
<path d="M3088.55 275.893C3054.13 247.007 3012.71 227.693 2968.45 219.889L2924 472L3088.55 275.893Z" stroke="white" id="n147"/>
<path d="M3088.55 275.893C3054.13 247.007 3012.71 227.693 2968.45 219.889L2924 472L3088.55 275.893Z" stroke="#2D548B" stroke-dasharray="1 2" id="n148"/>
</g>
<path d="M2953.87 302.584C2954.26 300.41 2956.33 298.952 2958.5 299.383C2986.68 304.984 3012.45 317.319 3034.04 334.639C3035.76 336.021 3035.98 338.547 3034.56 340.238C3033.14 341.931 3030.62 342.147 3028.89 340.766C3008.36 324.333 2983.89 312.618 2957.11 307.267C2954.95 306.833 2953.49 304.761 2953.87 302.584Z" fill="#2D548B" id="n150"/>
<path d="M3034.56 340.238L3035.33 340.881L3034.56 340.238ZM3028.89 340.766L3028.27 341.547L3028.89 340.766ZM3034.04 334.639L3033.41 335.419L3034.04 334.639ZM2958.5 299.383L2958.3 300.363C2986.33 305.933 3011.94 318.197 3033.41 335.419L3034.04 334.639L3034.67 333.859C3012.95 316.441 2987.04 304.036 2958.69 298.402L2958.5 299.383ZM3028.89 340.766L3029.52 339.986C3008.86 323.455 2984.24 311.67 2957.31 306.286L2957.11 307.267L2956.92 308.247C2983.53 313.567 3007.86 325.211 3028.27 341.547L3028.89 340.766ZM2957.11 307.267L2957.31 306.286C2955.66 305.956 2954.57 304.385 2954.86 302.757L2953.87 302.584L2952.89 302.41C2952.41 305.138 2954.23 307.71 2956.92 308.247L2957.11 307.267ZM3034.56 340.238L3033.79 339.596C3032.73 340.861 3030.83 341.037 3029.52 339.986L3028.89 340.766L3028.27 341.547C3030.41 343.258 3033.55 343.002 3035.33 340.881L3034.56 340.238ZM3034.04 334.639L3033.41 335.419C3034.69 336.441 3034.86 338.322 3033.79 339.596L3034.56 340.238L3035.33 340.881C3037.1 338.771 3036.84 335.601 3034.67 333.859L3034.04 334.639ZM2958.5 299.383L2958.69 298.402C2955.96 297.859 2953.37 299.698 2952.89 302.41L2953.87 302.584L2954.86 302.757C2955.15 301.121 2956.7 300.045 2958.3 300.363L2958.5 299.383Z" fill="#2D548B" mask="url(#path-119-inside-13_68_6728)" id="n151"/>
</g>
</svg>
