<?xml version='1.0' encoding='utf-8'?>
<svg xmlns="http://www.w3.org/2000/svg" xmlns:xlink="http://www.w3.org/1999/xlink" width="512.0" height="512.0" viewBox="0 0 512.0 512.0" fill="none">
  <defs><clipPath id="clip__asset"><rect x="0" y="0" width="512.0" height="512.0"/></clipPath><mask id="path-121-inside-14_68_6728" fill="white">
<path d="M3083.78 1132.25C3083.09 1133.44 3081.56 1133.85 3080.37 1133.16L3069.97 1127.16C3068.78 1126.47 3068.37 1124.94 3069.06 1123.75C3069.75 1122.55 3071.28 1122.14 3072.47 1122.83L3082.87 1128.83C3084.06 1129.52 3084.47 1131.05 3083.78 1132.25Z" id="n152"/>
</mask>
<mask id="path-123-inside-15_68_6728" fill="white">
<path d="M2793.54 909.539C2794.51 908.563 2796.1 908.563 2797.07 909.539L2805.56 918.024C2806.54 919 2806.54 920.583 2805.56 921.56C2804.58 922.536 2803 922.536 2802.02 921.56L2793.54 913.074C2792.56 912.098 2792.56 910.515 2793.54 909.539Z" id="n155"/>
</mask>
<mask id="mask8_68_6728" style="mask-type:alpha" maskUnits="userSpaceOnUse" x="2574" y="690" width="700" height="700">
<circle cx="2924" cy="1040" r="164" transform="rotate(30 2924 1040)" fill="white" stroke="black" id="n158"/>
</mask>
<mask id="path-127-inside-16_68_6728" fill="white">
<path d="M3016.25 880.217C3020.31 882.564 3021.71 887.763 3019.36 891.828C3017.01 895.893 3011.81 897.286 3007.75 894.939C3003.68 892.592 3002.29 887.393 3004.64 883.328C3006.99 879.263 3012.18 877.87 3016.25 880.217Z" id="n161"/>
</mask>
</defs>
  <g clip-path="url(#clip__asset)" transform="translate(-2668.0 -784.0)"><path d="M3083.78 1132.25C3083.09 1133.44 3081.56 1133.85 3080.37 1133.16L3069.97 1127.16C3068.78 1126.47 3068.37 1124.94 3069.06 1123.75C3069.75 1122.55 3071.28 1122.14 3072.47 1122.83L3082.87 1128.83C3084.06 1129.52 3084.47 1131.05 3083.78 1132.25Z" fill="#BEBEBE" id="n153"/>
<path d="M3082.87 1128.83L3083.37 1127.97L3082.87 1128.83ZM3083.78 1132.25L3082.91 1131.75C3082.5 1132.47 3081.58 1132.71 3080.87 1132.3L3080.37 1133.16L3079.87 1134.03C3081.54 1135 3083.68 1134.42 3084.65 1132.75L3083.78 1132.25ZM3080.37 1133.16L3080.87 1132.3L3070.47 1126.3L3069.97 1127.16L3069.47 1128.03L3079.87 1134.03L3080.37 1133.16ZM3069.97 1127.16L3070.47 1126.3C3069.76 1125.88 3069.51 1124.97 3069.92 1124.25L3069.06 1123.75L3068.19 1123.25C3067.23 1124.92 3067.8 1127.06 3069.47 1128.03L3069.97 1127.16ZM3069.06 1123.75L3069.92 1124.25C3070.34 1123.53 3071.26 1123.29 3071.97 1123.7L3072.47 1122.83L3072.97 1121.97C3071.3 1121 3069.16 1121.58 3068.19 1123.25L3069.06 1123.75ZM3072.47 1122.83L3071.97 1123.7L3082.37 1129.7L3082.87 1128.83L3083.37 1127.97L3072.97 1121.97L3072.47 1122.83ZM3082.87 1128.83L3082.37 1129.7C3083.08 1130.11 3083.33 1131.03 3082.91 1131.75L3083.78 1132.25L3084.65 1132.75C3085.61 1131.08 3085.04 1128.93 3083.37 1127.97L3082.87 1128.83Z" fill="#BEBEBE" mask="url(#path-121-inside-14_68_6728)" id="n154"/>
<path d="M2793.54 909.539C2794.51 908.563 2796.1 908.563 2797.07 909.539L2805.56 918.024C2806.54 919 2806.54 920.583 2805.56 921.56C2804.58 922.536 2803 922.536 2802.02 921.56L2793.54 913.074C2792.56 912.098 2792.56 910.515 2793.54 909.539Z" fill="#BEBEBE" id="n156"/>
<path d="M2793.54 913.074L2792.83 913.782L2793.54 913.074ZM2793.54 909.539L2794.25 910.246C2794.83 909.66 2795.78 909.66 2796.37 910.246L2797.07 909.539L2797.78 908.832C2796.41 907.465 2794.2 907.465 2792.83 908.832L2793.54 909.539ZM2797.07 909.539L2796.37 910.246L2804.85 918.731L2805.56 918.024L2806.27 917.317L2797.78 908.832L2797.07 909.539ZM2805.56 918.024L2804.85 918.731C2805.44 919.317 2805.44 920.267 2804.85 920.853L2805.56 921.56L2806.27 922.267C2807.63 920.9 2807.63 918.684 2806.27 917.317L2805.56 918.024ZM2805.56 921.56L2804.85 920.853C2804.27 921.438 2803.32 921.438 2802.73 920.853L2802.02 921.56L2801.32 922.267C2802.68 923.634 2804.9 923.634 2806.27 922.267L2805.56 921.56ZM2802.02 921.56L2802.73 920.853L2794.25 912.367L2793.54 913.074L2792.83 913.782L2801.32 922.267L2802.02 921.56ZM2793.54 913.074L2794.25 912.367C2793.66 911.782 2793.66 910.832 2794.25 910.246L2793.54 909.539L2792.83 908.832C2791.46 910.199 2791.46 912.415 2792.83 913.782L2793.54 913.074Z" fill="#BEBEBE" mask="url(#path-123-inside-15_68_6728)" id="n157"/>
<g mask="url(#mask8_68_6728)" id="n159">
<path d="M2924 1040L3052 818.297" stroke="#BEBEBE" stroke-linecap="square" stroke-dasharray="1 1" id="n160"/>
</g>
<path d="M3016.25 880.217C3020.31 882.564 3021.71 887.763 3019.36 891.828C3017.01 895.893 3011.81 897.286 3007.75 894.939C3003.68 892.592 3002.29 887.393 3004.64 883.328C3006.99 879.263 3012.18 877.87 3016.25 880.217Z" fill="#CADEFC" id="n162"/>
<path d="M3016.25 880.217L3015.75 881.083C3019.34 883.154 3020.57 887.741 3018.49 891.328L3019.36 891.828L3020.23 892.328C3022.85 887.784 3021.29 881.974 3016.75 879.351L3016.25 880.217ZM3019.36 891.828L3018.49 891.328C3016.42 894.915 3011.84 896.144 3008.25 894.073L3007.75 894.939L3007.25 895.805C3011.79 898.429 3017.6 896.872 3020.23 892.328L3019.36 891.828ZM3007.75 894.939L3008.25 894.073C3004.66 892.002 3003.43 887.415 3005.5 883.828L3004.64 883.328L3003.77 882.828C3001.15 887.372 3002.71 893.182 3007.25 895.805L3007.75 894.939ZM3004.64 883.328L3005.5 883.828C3007.58 880.241 3012.16 879.012 3015.75 881.083L3016.25 880.217L3016.75 879.351C3012.21 876.727 3006.4 878.284 3003.77 882.828L3004.64 883.328Z" fill="#2D548B" mask="url(#path-127-inside-16_68_6728)" id="n163"/>
</g>
</svg>
